<svg width="138" height="44.2" version="1.1" viewBox="70.4 401.07 138 44.2" xmlns="http://www.w3.org/2000/svg"><path d="m72.652 403.32h133.5v39.697c-44.545-0.31437-88.998 0-133.5 0z" fill="#ccc" stroke="#ccc" stroke-linejoin="round" stroke-width="4.5031"/><g fill="#0f0" stroke="#000" stroke-width=".07128"><path d="m182.88 426.17c0 0.94317-0.76712 1.7083-1.7113 1.7083-0.94414 0-1.7103-0.76513-1.7103-1.7083 0-0.94214 0.76612-1.7073 1.7103-1.7073s1.7113 0.76513 1.7113 1.7073z"/><path d="m182.88 431.86c0 0.94214-0.76712 1.7073-1.7113 1.7073-0.94414 0-1.7103-0.76513-1.7103-1.7073 0-0.94315 0.76612-1.7083 1.7103-1.7083s1.7113 0.76513 1.7113 1.7083z"/><path d="m188.69 426.17c0 0.94317-0.76714 1.7083-1.7113 1.7083-0.94414 0-1.7103-0.76513-1.7103-1.7083 0-0.94214 0.76612-1.7073 1.7103-1.7073 0.94416 0 1.7113 0.76513 1.7113 1.7073z"/><path d="m188.69 431.86c0 0.94214-0.76714 1.7073-1.7113 1.7073-0.94414 0-1.7103-0.76513-1.7103-1.7073 0-0.94315 0.76612-1.7083 1.7103-1.7083 0.94416 0 1.7113 0.76513 1.7113 1.7083z"/></g><path d="m197.97 430.54c0 0.94214-0.76711 1.7073-1.7113 1.7073s-1.7103-0.76514-1.7103-1.7073c0-0.94315 0.76613-1.7083 1.7103-1.7083s1.7113 0.76513 1.7113 1.7083z" fill="#666" stroke="#4d4d4d" stroke-width=".07128"/><g stroke="#000"><g fill="#1a1a1a" stroke-width=".062137"><path d="m86.787 408.79c0 0.82218-0.66875 1.4892-1.4918 1.4892-0.82306 0-1.4909-0.66701-1.4909-1.4892 0-0.82132 0.66787-1.4883 1.4909-1.4883 0.82306 0 1.4918 0.66702 1.4918 1.4883z"/><path d="m90.299 408.79c0 0.82218-0.66875 1.4892-1.4918 1.4892s-1.4909-0.66701-1.4909-1.4892c0-0.82132 0.66787-1.4883 1.4909-1.4883s1.4918 0.66702 1.4918 1.4883z"/><path d="m93.81 408.79c0 0.82218-0.66875 1.4892-1.4918 1.4892-0.82304 0-1.4909-0.66701-1.4909-1.4892 0-0.82132 0.66787-1.4883 1.4909-1.4883 0.82308 0 1.4918 0.66702 1.4918 1.4883z"/><path d="m97.323 408.79c0 0.82218-0.66875 1.4892-1.4918 1.4892s-1.4909-0.66701-1.4909-1.4892c0-0.82132 0.66787-1.4883 1.4909-1.4883s1.4918 0.66702 1.4918 1.4883z"/><path d="m100.83 408.79c0 0.82218-0.66875 1.4892-1.4918 1.4892-0.82304 0-1.4909-0.66701-1.4909-1.4892 0-0.82132 0.66787-1.4883 1.4909-1.4883 0.82308 0 1.4918 0.66702 1.4918 1.4883z"/><path d="m104.35 408.79c0 0.82218-0.66875 1.4892-1.4918 1.4892-0.82304 0-1.4909-0.66701-1.4909-1.4892 0-0.82132 0.66788-1.4883 1.4909-1.4883 0.82308 0 1.4918 0.66702 1.4918 1.4883z"/><path d="m107.86 408.79c0 0.82218-0.66876 1.4892-1.4918 1.4892s-1.4909-0.66701-1.4909-1.4892c0-0.82132 0.66787-1.4883 1.4909-1.4883s1.4918 0.66702 1.4918 1.4883z"/><path d="m111.37 408.79c0 0.82218-0.66875 1.4892-1.4918 1.4892-0.82304 0-1.4909-0.66701-1.4909-1.4892 0-0.82132 0.66788-1.4883 1.4909-1.4883 0.82308 0 1.4918 0.66702 1.4918 1.4883z"/><path d="m114.88 408.79c0 0.82218-0.66875 1.4892-1.4918 1.4892s-1.4909-0.66701-1.4909-1.4892c0-0.82132 0.66787-1.4883 1.4909-1.4883s1.4918 0.66702 1.4918 1.4883z"/><path d="m88.543 411.83c0 0.82221-0.66875 1.4892-1.4918 1.4892-0.82306 0-1.4909-0.66701-1.4909-1.4892 0-0.82132 0.66787-1.4883 1.4909-1.4883 0.82306 0 1.4918 0.66701 1.4918 1.4883z"/><path d="m92.055 411.83c0 0.82221-0.66875 1.4892-1.4918 1.4892s-1.4909-0.66701-1.4909-1.4892c0-0.82132 0.66787-1.4883 1.4909-1.4883s1.4918 0.66701 1.4918 1.4883z"/><path d="m95.566 411.83c0 0.82221-0.66875 1.4892-1.4918 1.4892-0.82304 0-1.4909-0.66701-1.4909-1.4892 0-0.82132 0.66787-1.4883 1.4909-1.4883 0.82308 0 1.4918 0.66701 1.4918 1.4883z"/><path d="m99.079 411.83c0 0.82221-0.66875 1.4892-1.4918 1.4892s-1.4909-0.66701-1.4909-1.4892c0-0.82132 0.66787-1.4883 1.4909-1.4883s1.4918 0.66701 1.4918 1.4883z"/><path d="m102.59 411.83c0 0.82221-0.66875 1.4892-1.4918 1.4892s-1.4909-0.66701-1.4909-1.4892c0-0.82132 0.66787-1.4883 1.4909-1.4883 0.82308 0 1.4918 0.66701 1.4918 1.4883z"/><path d="m106.1 411.83c0 0.82221-0.66876 1.4892-1.4918 1.4892s-1.4909-0.66701-1.4909-1.4892c0-0.82132 0.66787-1.4883 1.4909-1.4883 0.82308 0 1.4918 0.66701 1.4918 1.4883z"/><path d="m109.61 411.83c0 0.82221-0.66875 1.4892-1.4918 1.4892-0.82307 0-1.4909-0.66701-1.4909-1.4892 0-0.82132 0.66787-1.4883 1.4909-1.4883 0.82306 0 1.4918 0.66701 1.4918 1.4883z"/><path d="m113.13 411.83c0 0.82221-0.66875 1.4892-1.4918 1.4892-0.82304 0-1.4909-0.66701-1.4909-1.4892 0-0.82132 0.66787-1.4883 1.4909-1.4883 0.82308 0 1.4918 0.66701 1.4918 1.4883z"/><path d="m86.787 414.88c0 0.8222-0.66875 1.4892-1.4918 1.4892s-1.4909-0.66701-1.4909-1.4892c0-0.82132 0.66787-1.4883 1.4909-1.4883s1.4918 0.66701 1.4918 1.4883z"/><path d="m90.3 414.88c0 0.8222-0.66875 1.4892-1.4918 1.4892s-1.4909-0.66701-1.4909-1.4892c0-0.82132 0.66785-1.4883 1.4909-1.4883s1.4918 0.66701 1.4918 1.4883z"/><path d="m93.81 414.88c0 0.8222-0.66875 1.4892-1.4918 1.4892-0.82304 0-1.4909-0.66701-1.4909-1.4892 0-0.82132 0.66787-1.4883 1.4909-1.4883 0.82308 0 1.4918 0.66701 1.4918 1.4883z"/><path d="m97.323 414.88c0 0.8222-0.66875 1.4892-1.4918 1.4892s-1.4909-0.66701-1.4909-1.4892c0-0.82132 0.66787-1.4883 1.4909-1.4883s1.4918 0.66701 1.4918 1.4883z"/><path d="m100.83 414.88c0 0.8222-0.66875 1.4892-1.4918 1.4892-0.82304 0-1.4909-0.66701-1.4909-1.4892 0-0.82132 0.66787-1.4883 1.4909-1.4883 0.82308 0 1.4918 0.66701 1.4918 1.4883z"/><path d="m104.35 414.88c0 0.8222-0.66875 1.4892-1.4918 1.4892s-1.4909-0.66701-1.4909-1.4892c0-0.82132 0.66787-1.4883 1.4909-1.4883 0.82308 0 1.4918 0.66701 1.4918 1.4883z"/><path d="m107.86 414.88c0 0.8222-0.66875 1.4892-1.4918 1.4892s-1.4909-0.66701-1.4909-1.4892c0-0.82132 0.66788-1.4883 1.4909-1.4883s1.4918 0.66701 1.4918 1.4883z"/><path d="m111.37 414.88c0 0.8222-0.66875 1.4892-1.4918 1.4892s-1.4909-0.66701-1.4909-1.4892c0-0.82132 0.66787-1.4883 1.4909-1.4883 0.82308 0 1.4918 0.66701 1.4918 1.4883z"/><path d="m114.88 414.88c0 0.8222-0.66875 1.4892-1.4918 1.4892s-1.4909-0.66701-1.4909-1.4892c0-0.82132 0.66788-1.4883 1.4909-1.4883s1.4918 0.66701 1.4918 1.4883z"/><path d="m88.543 417.92c0 0.8222-0.66875 1.4892-1.4918 1.4892s-1.4909-0.66701-1.4909-1.4892c0-0.82133 0.66787-1.4883 1.4909-1.4883s1.4918 0.66701 1.4918 1.4883z"/><path d="m92.056 417.92c0 0.8222-0.66873 1.4892-1.4918 1.4892-0.82306 0-1.4909-0.66701-1.4909-1.4892 0-0.82133 0.66785-1.4883 1.4909-1.4883 0.82308 0 1.4918 0.66701 1.4918 1.4883z"/><path d="m95.566 417.92c0 0.8222-0.66875 1.4892-1.4918 1.4892-0.82304 0-1.4909-0.66701-1.4909-1.4892 0-0.82133 0.66787-1.4883 1.4909-1.4883 0.82308 0 1.4918 0.66701 1.4918 1.4883z"/><path d="m99.079 417.92c0 0.8222-0.66875 1.4892-1.4918 1.4892s-1.4909-0.66701-1.4909-1.4892c0-0.82133 0.66787-1.4883 1.4909-1.4883s1.4918 0.66701 1.4918 1.4883z"/><path d="m102.59 417.92c0 0.8222-0.66875 1.4892-1.4918 1.4892-0.82304 0-1.4909-0.66701-1.4909-1.4892 0-0.82133 0.66787-1.4883 1.4909-1.4883 0.82309 0 1.4918 0.66701 1.4918 1.4883z"/><path d="m106.1 417.92c0 0.8222-0.66875 1.4892-1.4918 1.4892-0.82304 0-1.4909-0.66701-1.4909-1.4892 0-0.82133 0.66788-1.4883 1.4909-1.4883 0.82308 0 1.4918 0.66701 1.4918 1.4883z"/><path d="m109.61 417.92c0 0.8222-0.66874 1.4892-1.4918 1.4892s-1.4909-0.66701-1.4909-1.4892c0-0.82133 0.66785-1.4883 1.4909-1.4883 0.82308 0 1.4918 0.66701 1.4918 1.4883z"/><path d="m113.12 417.92c0 0.8222-0.66875 1.4892-1.4918 1.4892s-1.4909-0.66701-1.4909-1.4892c0-0.82133 0.66787-1.4883 1.4909-1.4883 0.82308 0 1.4918 0.66701 1.4918 1.4883z"/><path d="m86.787 420.96c0 0.8222-0.66875 1.4892-1.4918 1.4892s-1.4909-0.66701-1.4909-1.4892c0-0.82131 0.66787-1.4883 1.4909-1.4883s1.4918 0.66701 1.4918 1.4883z"/><path d="m90.3 420.96c0 0.8222-0.66875 1.4892-1.4918 1.4892s-1.4909-0.66701-1.4909-1.4892c0-0.82131 0.66785-1.4883 1.4909-1.4883s1.4918 0.66701 1.4918 1.4883z"/><path d="m93.81 420.96c0 0.8222-0.66875 1.4892-1.4918 1.4892-0.82304 0-1.4909-0.66701-1.4909-1.4892 0-0.82131 0.66787-1.4883 1.4909-1.4883 0.82308 0 1.4918 0.66701 1.4918 1.4883z"/><path d="m97.323 420.96c0 0.8222-0.66875 1.4892-1.4918 1.4892s-1.4909-0.66701-1.4909-1.4892c0-0.82131 0.66787-1.4883 1.4909-1.4883s1.4918 0.66701 1.4918 1.4883z"/><path d="m100.83 420.96c0 0.8222-0.66875 1.4892-1.4918 1.4892-0.82304 0-1.4909-0.66701-1.4909-1.4892 0-0.82131 0.66787-1.4883 1.4909-1.4883 0.82308 0 1.4918 0.66701 1.4918 1.4883z"/><path d="m104.35 420.96c0 0.8222-0.66875 1.4892-1.4918 1.4892s-1.4909-0.66701-1.4909-1.4892c0-0.82131 0.66787-1.4883 1.4909-1.4883 0.82308 0 1.4918 0.66701 1.4918 1.4883z"/><path d="m107.86 420.96c0 0.8222-0.66875 1.4892-1.4918 1.4892s-1.4909-0.66701-1.4909-1.4892c0-0.82131 0.66788-1.4883 1.4909-1.4883s1.4918 0.66701 1.4918 1.4883z"/><path d="m111.37 420.96c0 0.8222-0.66875 1.4892-1.4918 1.4892s-1.4909-0.66701-1.4909-1.4892c0-0.82131 0.66787-1.4883 1.4909-1.4883 0.82308 0 1.4918 0.66701 1.4918 1.4883z"/><path d="m114.88 420.96c0 0.8222-0.66875 1.4892-1.4918 1.4892s-1.4909-0.66701-1.4909-1.4892c0-0.82131 0.66788-1.4883 1.4909-1.4883s1.4918 0.66701 1.4918 1.4883z"/><path d="m180.8 409.4c0 0.8222-0.66873 1.4892-1.4918 1.4892-0.82306 0-1.4909-0.66701-1.4909-1.4892 0-0.82132 0.66785-1.4883 1.4909-1.4883 0.82309 0 1.4918 0.66701 1.4918 1.4883z"/><path d="m184.32 409.4c0 0.8222-0.66873 1.4892-1.4918 1.4892-0.82304 0-1.4909-0.66701-1.4909-1.4892 0-0.82132 0.66788-1.4883 1.4909-1.4883 0.8231 0 1.4918 0.66701 1.4918 1.4883z"/><path d="m187.83 409.4c0 0.8222-0.66875 1.4892-1.4918 1.4892-0.82307 0-1.4909-0.66701-1.4909-1.4892 0-0.82132 0.66787-1.4883 1.4909-1.4883 0.82308 0 1.4918 0.66701 1.4918 1.4883z"/><path d="m191.34 409.4c0 0.8222-0.66875 1.4892-1.4918 1.4892s-1.4909-0.66701-1.4909-1.4892c0-0.82132 0.66787-1.4883 1.4909-1.4883s1.4918 0.66701 1.4918 1.4883z"/><path d="m194.85 409.4c0 0.8222-0.66873 1.4892-1.4918 1.4892s-1.4909-0.66701-1.4909-1.4892c0-0.82132 0.66787-1.4883 1.4909-1.4883 0.82308 0 1.4918 0.66701 1.4918 1.4883z"/><path d="m182.56 412.64c0 0.82218-0.66875 1.4892-1.4918 1.4892-0.82306 0-1.4909-0.66701-1.4909-1.4892 0-0.82132 0.66787-1.4883 1.4909-1.4883 0.82307 0 1.4918 0.66701 1.4918 1.4883z"/><path d="m186.07 412.64c0 0.82218-0.66875 1.4892-1.4918 1.4892s-1.4909-0.66701-1.4909-1.4892c0-0.82132 0.66788-1.4883 1.4909-1.4883s1.4918 0.66701 1.4918 1.4883z"/><path d="m189.59 412.64c0 0.82218-0.66873 1.4892-1.4918 1.4892-0.82306 0-1.4909-0.66701-1.4909-1.4892 0-0.82132 0.66785-1.4883 1.4909-1.4883 0.82309 0 1.4918 0.66701 1.4918 1.4883z"/><path d="m193.1 412.64c0 0.82218-0.66875 1.4892-1.4918 1.4892-0.82304 0-1.4909-0.66701-1.4909-1.4892 0-0.82132 0.66789-1.4883 1.4909-1.4883 0.82308 0 1.4918 0.66701 1.4918 1.4883z"/><path d="m182.56 406.2c0 0.8222-0.66875 1.4892-1.4918 1.4892-0.82306 0-1.4909-0.66701-1.4909-1.4892 0-0.82131 0.66787-1.4883 1.4909-1.4883 0.82307 0 1.4918 0.66701 1.4918 1.4883z"/><path d="m186.07 406.2c0 0.8222-0.66875 1.4892-1.4918 1.4892s-1.4909-0.66701-1.4909-1.4892c0-0.82131 0.66788-1.4883 1.4909-1.4883s1.4918 0.66701 1.4918 1.4883z"/><path d="m189.59 406.2c0 0.8222-0.66873 1.4892-1.4918 1.4892-0.82306 0-1.4909-0.66701-1.4909-1.4892 0-0.82131 0.66785-1.4883 1.4909-1.4883 0.82309 0 1.4918 0.66701 1.4918 1.4883z"/><path d="m193.1 406.2c0 0.8222-0.66875 1.4892-1.4918 1.4892-0.82304 0-1.4909-0.66701-1.4909-1.4892 0-0.82131 0.66789-1.4883 1.4909-1.4883 0.82308 0 1.4918 0.66701 1.4918 1.4883z"/></g><g stroke-linejoin="round"><g fill="none" stroke-width=".106"><path d="m96.153 426.6-0.06848 6.6786-5.7355 3.2792-5.6669-3.3994 0.06848-6.6786 5.7355-3.2792z"/><ellipse cx="90.417" cy="429.88" rx="6.8617" ry="6.9611"/><ellipse cx="90.417" cy="429.88" rx="4.5764" ry="4.6427"/></g><ellipse cx="90.417" cy="429.88" rx="3.112" ry="3.1571" fill="#fff" stroke-width=".106"/><ellipse cx="90.417" cy="429.88" rx=".44126" ry=".44764" fill="#ccc" stroke-width=".106"/><g fill="none" stroke-width=".106"><ellipse cx="90.417" cy="429.88" rx="3.3871" ry="3.436"/><ellipse cx="90.417" cy="429.88" rx="5.0407" ry="5.1137"/><path d="m113.61 426.6-0.0685 6.6786-5.7355 3.2792-5.6669-3.3994 0.0685-6.6786 5.7355-3.2792z"/><ellipse cx="107.87" cy="429.88" rx="6.8617" ry="6.9611"/></g><g stroke-width=".106"><ellipse cx="107.87" cy="429.88" rx="4.5764" ry="4.6427" fill="#ccc"/><ellipse cx="107.87" cy="429.88" rx="3.112" ry="3.1571" fill="#fff"/><ellipse cx="107.87" cy="429.88" rx=".44126" ry=".44764" fill="#e6e6e6"/><ellipse cx="107.87" cy="429.88" rx="3.3871" ry="3.436" fill="none"/><ellipse cx="107.87" cy="429.88" rx="5.0407" ry="5.1137" fill="none"/></g><rect x="116.54" y="406.67" width="18.834" height="28.567" rx="1.2722" fill="#ccc" stroke-width=".1849"/></g></g><g stroke-width="1.9892"><path d="m118.03 407.02v27.887h15.857v-27.887z" fill="#3a3a3a"/><path d="m124.35 407.6v0.79688h-1.2774l6e-3 2.127h-3.5098v9.1856l13.719-0.0312v-9.1543h-3.4922v-2.125h-1.3301v-0.79883zm8.957 14.602-13.719 0.0293v9.1543h3.4941v2.127h1.3281v0.79687h4.1172v-0.79492l1.2773-2e-3 -6e-3 -2.125h3.5098z" fill="#1a1a1a"/><path d="m130.12 409.97h3.4664v-1.4947h-3.4664z" fill="#abb927"/><path d="m119.27 409.97h3.4969v-1.5024h-3.4969z" fill="#ff7d00"/><path d="m122.77 431.96h-3.4664v1.4946h3.4664z" fill="#abb927"/><path d="m133.63 431.96h-3.4969v1.5024h3.4969z" fill="#ff7d00"/></g><path d="m133.89 407.02-4.6565-2e-3v1.3418l4.5146-2e-3v1.737l-0.44558 0.0131-1e-3 9.5823-9e-3 0.0112-13.712 0.0191-9.5e-4 -9.6117-0.44561-0.0131v-1.737l4.4883 2e-3v-1.3418l-5.5899 2e-3 4e-3 27.896 5.6162 2e-3v-1.3418l-4.5146 2e-3v-1.737l0.44559-0.0131 1e-3 -9.5247 13.722-7e-3 9.5e-4 9.5321 0.44559 0.0131v1.7369l-4.4883-2e-3v1.3418l4.6306-2e-3z" fill="#ebebeb" stroke-width="1.0564"/><rect x="138.13" y="406.74" width="16.714" height="27.639" rx="1.2722" fill="#ccc" stroke="#000" stroke-linejoin="round" stroke-width=".1849"/><g stroke="#7f7f7f"><rect x="139.02" y="421.04" width="14.943" height="7.9398" stroke-width=".27306"/><polygon transform="matrix(2.9648,0,0,2.7682,-608.29,-641.43)" points="256.98 383.94 253.58 383.94 252.18 383.94 252.18 386.54 256.98 386.54" fill="none" stroke-width=".023002"/><rect x="139.02" y="412.04" width="14.943" height="7.9398" stroke-width=".27306"/><polygon transform="matrix(2.9648,0,0,2.7682,-608.29,-650.44)" points="252.18 383.94 252.18 386.54 256.98 386.54 256.98 383.94 253.58 383.94" fill="none" stroke-width=".023002"/></g><rect x="157.61" y="406.29" width="18.834" height="28.567" rx="1.2722" fill="#ccc" stroke="#000" stroke-linejoin="round" stroke-width=".1849"/><g stroke-width="1.9892"><path d="m174.97 406.62-15.857 2e-3v27.885h15.857v-13.943z" fill="#3a3a3a"/><path d="m165.43 407.2v0.79492l-1.2773 2e-3 6e-3 2.125h-3.5098l2e-3 9.1856 13.719-0.0293v-9.1543h-3.4941v-2.127h-1.3281v-0.79687zm8.959 14.6-13.719 0.0312v9.1543h3.4922v2.125h1.3301v0.79883h4.1172v-0.79687h1.2754l-6e-3 -2.127h3.5098z" fill="#1a1a1a"/><path d="m171.19 409.57h3.4664v-1.4947h-3.4664z" fill="#abb927"/><path d="m160.35 409.57h3.4969v-1.5024h-3.4969z" fill="#ff7d00"/><path d="m163.84 431.56h-3.4664v1.4947h3.4664z" fill="#abb927"/><path d="m174.71 431.56h-3.4969v1.5024h3.4969z" fill="#ff7d00"/></g><path d="m174.96 406.62-4.6565-2e-3v1.3418l4.5146-2e-3v1.737l-0.44559 0.0131-1e-3 9.5823-9e-3 0.0112-13.712 0.0191-9.5e-4 -9.6117-0.44561-0.0131v-1.737l4.4883 2e-3v-1.3418l-5.5899 2e-3 4e-3 27.896 5.6162 2e-3v-1.3418l-4.5146 2e-3v-1.737l0.44558-0.0131 1e-3 -9.5247 13.722-7e-3 9.5e-4 9.5321 0.44559 0.0131v1.7369l-4.4883-2e-3v1.3418l4.6306-2e-3z" fill="#ebebeb" stroke-width="1.0564"/><g stroke="#000" stroke-width=".098537"><path d="m83.002 414.24c0 2.1984-1.7228 3.9834-3.8438 3.9834s-3.8424-1.785-3.8424-3.9834c0-2.1998 1.7214-3.9848 3.8424-3.9848 2.1209 0 3.8438 1.785 3.8438 3.9848z" fill="#999"/><path d="m83.002 414.24c0 2.1984-1.7228 3.9834-3.8438 3.9834s-3.8424-1.785-3.8424-3.9834c0-2.1998 1.7214-3.9848 3.8424-3.9848 2.1209 0 3.8438 1.785 3.8438 3.9848z" fill="none"/><path d="m82.036 414.3c0 1.6287-1.2803 2.952-2.8579 2.952s-2.8565-1.3232-2.8565-2.952c0-1.6287 1.2789-2.9506 2.8565-2.9506s2.8579 1.3218 2.8579 2.9506z" fill="#666"/><path d="m82.036 414.3c0 1.6287-1.2803 2.952-2.8579 2.952s-2.8565-1.3232-2.8565-2.952c0-1.6287 1.2789-2.9506 2.8565-2.9506s2.8579 1.3218 2.8579 2.9506z" fill="#ddd"/></g><g font-family="sans-serif" font-size="23.951px" letter-spacing="0px" stroke-width="1.9959px" word-spacing="0px"><text x="120.37687" y="405.72659" style="line-height:0%" xml:space="preserve"><tspan x="120.37687" y="405.72659" font-size="5.3001px" stroke-width="1.9959px" style="line-height:1.25">NMS</tspan></text><text x="149.91525" y="405.59464" style="line-height:0%" xml:space="preserve"><tspan x="149.91525" y="405.59464" font-size="5.3001px" stroke-width="1.9959px" style="line-height:1.25">GE1</tspan></text><text x="150.84613" y="439.25604" style="line-height:0%" xml:space="preserve"><tspan x="150.84613" y="439.25604" font-size="5.3001px" stroke-width="1.9959px" style="line-height:1.25">GE2</tspan></text></g><path d="m113.63 437.85c-0.81571 0.98964-0.65794 2.0609 0 3.065h34.32c0.80396-0.99653 0.67305-2.0656 0-3.065z" fill="#808080" stroke="#000" stroke-width=".14256"/><text x="85.346024" y="441.40997" fill="#000000" font-family="sans-serif" font-size="23.951px" letter-spacing="0px" stroke-width="1.9959px" word-spacing="0px" style="line-height:0%" xml:space="preserve"><tspan x="85.346024" y="441.40997" font-size="5.3001px" stroke-width="1.9959px" style="line-height:1.25">RF1</tspan></text><text x="102.82121" y="441.44492" fill="#000000" font-family="sans-serif" font-size="23.951px" letter-spacing="0px" stroke-width="1.9959px" word-spacing="0px" style="line-height:0%" xml:space="preserve"><tspan x="102.82121" y="441.44492" font-size="5.3001px" stroke-width="1.9959px" style="line-height:1.25">RF2</tspan></text><path d="m182.08 443.09c-1.3856-0.32628-1.9205-0.88017-1.9205-1.9889 0-1.9375 1.4368-2.9805 4.1058-2.9805h1.3497c-0.0316 0.3272-0.0631 0.65438-0.0947 0.98158l-1.5101 0.0754c-1.6254 0.0812-1.9983 0.23134-2.5124 1.011-0.35169 0.5334-0.35828 1.1286-0.0168 1.5369 0.22418 0.26823 0.44751 0.31964 1.4723 0.33895 1.6033 0.0303 1.7182 0.082 1.5553 0.69965-0.12761 0.484-0.14126 0.49056-0.99335 0.47561-0.48353-4e-3 -0.96326-0.0876-1.4352-0.14968zm8.953 0.0516c1e-3 -0.19068 1.2092-4.7509 1.2954-4.8904 0.14538-0.23533 0.96897-0.15082 0.96897 0.0993 0 0.12649-0.24762 1.2192-0.55027 2.4282-0.48587 1.9409-0.59307 2.2144-0.91589 2.3372-0.44248 0.16821-0.79926 0.17982-0.79823 0.0258zm5.134-0.0754c1.3e-4 -0.10385 0.17009-0.82224 0.37754-1.5965 0.20743-0.77427 0.37714-1.5372 0.37714-1.6954 0-0.40317-0.6618-0.80376-1.1326-0.6856-0.8043 0.20188-1.2457 0.8333-1.6985 2.4296l-0.4283 1.5101-0.57325 0.0477c-0.53899 0.0449-0.56644 0.0268-0.45952-0.30201 0.0625-0.19233 0.29932-0.97958 0.52615-1.7494 0.63854-2.1671 1.404-2.9357 2.9462-2.958 0.91755-0.0131 1.4447 0.28095 1.7278 0.96431 0.17364 0.41909 0.15418 0.68685-0.151 2.0881-0.19253 0.88404-0.41001 1.7262-0.48328 1.8716-0.28275 0.0719-0.74749 0.23073-1.0284 0.0756zm3.6464 1e-3c-0.57548-0.14912-1.3367-0.8645-1.4653-1.3771-0.151-0.60195 0.0559-1.6717 0.43107-2.2284 0.58524-0.8684 1.5472-1.2342 3.4516-1.3127l1.6594-0.0683c-0.0326 0.34041-0.0651 0.68082-0.0977 1.0212l-1.5101 0.0806c-1.6029 0.0855-2.2779 0.31811-2.709 0.93374-0.29543 0.42182-0.29986 0.91518-0.0131 1.4696 0.23703 0.43556 1.2234 0.57157 2.1907 0.51502 0.0662-0.0713 0.23185-0.52043 0.36795-0.99799 0.2257-0.79191 0.28473-0.86829 0.67109-0.86829 0.23299 0 0.4597 0.0361 0.50372 0.0801-0.1437 1.1441-0.39893 1.9518-0.64308 2.9541-0.94977-7e-3 -1.8998-0.0878-2.8373-0.2015zm-25.04-2.405 0.62927-2.4662 1.4694-0.0432c1.6932-0.0498 2.2254 0.13528 2.6298 0.91403 0.58633 1.1294 0.0805 2.6523-1.169 3.519-0.60274 0.41816-0.73518 0.44518-2.4132 0.49253l-1.7754 0.0502zm2.8614 1.136c0.86833-0.44902 1.2953-1.7582 0.76473-2.3445-0.19084-0.21087-0.47087-0.27616-1.1846-0.27616h-0.93466l-0.37446 1.3968c-0.2587 0.96504-0.32432 1.4332-0.21228 1.5144 0.21972 0.15923 1.4186-0.0202 1.9412-0.29049zm4.3671-1.5334c0.21751-0.21752 3.1409-0.25477 3.1409-0.04 0 0.0777-0.0662 0.31546-0.14725 0.52851-0.14464 0.38025-0.17514 0.38736-1.6611 0.38736-1.479 0-1.5138-7e-3 -1.5138-0.34732 0.0258-0.20983 0.0202-0.33156 0.18131-0.52853z" fill="#003380" stroke-width=".22747"/><path d="m184.94 444.53c0-0.032 0.35618-0.17457 0.79146-0.317 1.6031-0.52434 2.6418-1.3635 3.349-2.7053 0.45487-0.86325 0.52728-2.1643 0.15961-2.8691-0.2672-0.51237-0.21136-0.6291 0.1965-0.41082 0.48883 0.26162 1.2162 1.1851 1.3688 1.7379 0.4703 1.7034-1.2437 4.0167-3.3033 4.4584-0.72316 0.15512-2.5622 0.23112-2.5622 0.10591zm2.4483-2.681c-1.2169-0.7792-1.3883-2.8802-0.3516-4.3094 0.43372-0.59797 1.3605-1.3059 1.9303-1.4745 0.2742-0.081 0.3142-0.0468 0.24665 0.21142-0.0642 0.24515-9e-3 0.30822 0.27111 0.30822 0.31994 0 0.28886 0.0647-0.34431 0.71731-0.3828 0.39449-0.84796 1.0211-1.0337 1.3924-0.44457 0.88878-0.56945 2.3736-0.25297 3.0081 0.27529 0.55182 0.20286 0.57463-0.46549 0.14669zm2.3266-5.9818c0.14426-0.60373 0.18299-0.64179 0.65428-0.64179 0.2411 0 0.46591-0.099 0.51489-0.22652 0.0479-0.12461 0.2271-0.22649 0.39842-0.22649 0.17139 0 0.35061-0.10198 0.39841-0.22652 0.12761-0.33264 0.50764-0.27612 0.50764 0.0754 0 0.17569-0.10067 0.30201-0.24067 0.30201-0.13228 0-0.27619 0.13584-0.31964 0.30202-0.0442 0.16896-0.20597 0.30199-0.36711 0.30199-0.1684 0-0.3478 0.15699-0.43166 0.37752-0.11582 0.30467-0.24682 0.37753-0.67869 0.37753-0.50718 0-0.52995-0.0217-0.43587-0.41527z" fill="#f60" stroke-width=".22747"/><rect x="71.883" y="403.1" width="15.331" height="3.5699" rx=".5699" fill="#003380" stroke="#003380" stroke-linejoin="round" stroke-width=".8875"/><text x="71.52729" y="406.34146" fill="#000000" font-family="sans-serif" font-size="17.79px" letter-spacing="0px" stroke-width="1.4825px" word-spacing="0px" style="line-height:0%" xml:space="preserve"><tspan x="71.52729" y="406.34146" fill="#ffffff" font-size="3.9369px" stroke-width="1.4825px" style="line-height:1.25">DX324T</tspan></text><path d="m79.159 411.62v5.2481" fill="none" stroke="#999" stroke-width=".99373px"/><path d="m76.622 414.24h5.0725" fill="none" stroke="#999" stroke-width=".99373px"/><g stroke="#000" stroke-width=".098537"><path d="m202.18 414.24c0 2.1984-1.7228 3.9834-3.8438 3.9834s-3.8424-1.785-3.8424-3.9834c0-2.1998 1.7214-3.9848 3.8424-3.9848 2.1209 0 3.8438 1.785 3.8438 3.9848z" fill="#999"/><path d="m202.18 414.24c0 2.1984-1.7228 3.9834-3.8438 3.9834s-3.8424-1.785-3.8424-3.9834c0-2.1998 1.7214-3.9848 3.8424-3.9848 2.1209 0 3.8438 1.785 3.8438 3.9848z" fill="none"/><path d="m201.21 414.3c0 1.6287-1.2803 2.952-2.8579 2.952s-2.8565-1.3232-2.8565-2.952c0-1.6287 1.2789-2.9506 2.8565-2.9506s2.8579 1.3218 2.8579 2.9506z" fill="#666"/><path d="m201.21 414.3c0 1.6287-1.2803 2.952-2.8579 2.952s-2.8565-1.3232-2.8565-2.952c0-1.6287 1.2789-2.9506 2.8565-2.9506s2.8579 1.3218 2.8579 2.9506z" fill="#ddd"/></g><path d="m198.33 411.62v5.2481" fill="none" stroke="#999" stroke-width=".99373px"/><path d="m195.8 414.24h5.0725" fill="none" stroke="#999" stroke-width=".99373px"/></svg>
