<svg width="472.53" height="47.467" version="1.1" viewBox="70.4 401.07 250.96 15.406" xmlns="http://www.w3.org/2000/svg"><g transform="matrix(1.2159,0,0,1.1254,-10.321,-27.424)" fill="#e6e6e6" stroke="#333" stroke-width=".46733"><rect x="66.589" y="376.59" width="206" height="22" fill="#e6e6e6"/><rect x="66.589" y="376.59" width="206" height="22" fill-opacity="0"/></g><rect x="292.56" y="397.61" width="13.51" height="18.124" rx="1.5964" ry="1.5964" fill="#1a1a1a" fill-opacity=".92742" stroke="#1a1a1a" stroke-linecap="round" stroke-linejoin="round" stroke-width=".21244"/><g stroke="#000" stroke-linejoin="round" stroke-width="1.6512"><g transform="matrix(1.5436 0 0 1.3589 -46.742 -149.01)"><path d="m77.647 402.73h45.594v15.628h-45.594z" stroke="#000" stroke-linejoin="round" stroke-width="1.6512"/></g><g transform="matrix(1.5436 0 0 1.3589 100.5 -149.01)"><path d="m77.647 402.73h45.594v15.628h-45.594z" stroke="#000" stroke-linejoin="round" stroke-width="1.6512"/></g><g transform="matrix(1.5436 0 0 1.3589 26.879 -149.01)"><path d="m77.647 402.73h45.594v15.628h-45.594z" stroke="#000" stroke-linejoin="round" stroke-width="1.6512"/></g></g><g transform="matrix(1.0667,0,0,1.0667,-3.7964,-6.9686)"><rect x="279.17" y="397.45" width="10.341" height="2.408" rx=".38441" fill="#003380" stroke="#003380" stroke-linejoin="round" stroke-width=".59864"/><text x="278.93005" y="399.63846" fill="#000000" font-family="sans-serif" letter-spacing="0px" stroke-width="1px" word-spacing="0px" style="line-height:0%" xml:space="preserve"><tspan x="278.93005" y="399.63846" fill="#ffffff" font-size="2.6555px" style="line-height:1.25">DX324T</tspan></text></g><g transform="translate(.58291 -3.5065)"><g transform="matrix(.53109 0 0 .53109 212.2 201.86)" stroke="#000" stroke-width=".098537"><path d="m202.18 414.24c0 2.1984-1.7228 3.9834-3.8438 3.9834s-3.8424-1.785-3.8424-3.9834c0-2.1998 1.7214-3.9848 3.8424-3.9848 2.1209 0 3.8438 1.785 3.8438 3.9848z" fill="#999"/><path d="m202.18 414.24c0 2.1984-1.7228 3.9834-3.8438 3.9834s-3.8424-1.785-3.8424-3.9834c0-2.1998 1.7214-3.9848 3.8424-3.9848 2.1209 0 3.8438 1.785 3.8438 3.9848z" fill="none"/><path d="m201.21 414.3c0 1.6287-1.2803 2.952-2.8579 2.952s-2.8565-1.3232-2.8565-2.952c0-1.6287 1.2789-2.9506 2.8565-2.9506s2.8579 1.3218 2.8579 2.9506z" fill="#666"/><path d="m201.21 414.3c0 1.6287-1.2803 2.952-2.8579 2.952s-2.8565-1.3232-2.8565-2.952c0-1.6287 1.2789-2.9506 2.8565-2.9506s2.8579 1.3218 2.8579 2.9506z" fill="#ddd"/></g><path d="m317.53 420.47v2.7872" fill="none" stroke="#999" stroke-width=".52776px"/><path d="m316.19 421.86h2.694" fill="none" stroke="#999" stroke-width=".52776px"/></g><path d="m305.79 407.7v-5.6l-3.2703-3.2762h-6.1231l-3.4606 3.4666v5.4094h12.854z" stroke="#090909" stroke-width=".038095"/><g fill="#ccc" stroke-width="1.0667"><path d="m299.98 400.05h-1.1407v2.7047h1.1407z"/><path d="m295.87 403.78h-1.1407v2.7047h1.1407z"/><path d="m304.01 403.78h-1.1407v2.7047h1.1407z"/></g><g fill="#333" stroke="#000"><g stroke-width=".038095"><path d="m297.34 412.01h4.0694"/><path d="m297.34 410.37h4.0694"/><path d="m297.33 410.1h-1.8254c-0.45146 0-0.64649 0.26075-0.64649 0.76179v0.68571c0 0.43176 0.2199 0.724 0.6465 0.724h1.8254z" fill-opacity=".94355"/></g><path d="m301.41 412.27h1.8254c0.45146 0 0.64649-0.26075 0.64649-0.76179v-0.68571c0-0.43175-0.2199-0.724-0.6465-0.724h-1.8254z" fill-opacity=".94355" stroke-width=".038095"/></g><rect x="306.39" y="397.61" width="13.51" height="18.124" rx="1.5964" ry="1.5964" fill="#1a1a1a" fill-opacity=".92742" stroke="#1a1a1a" stroke-linecap="round" stroke-linejoin="round" stroke-width=".21244"/><path d="m319.62 407.7v-5.6l-3.2703-3.2762h-6.1231l-3.4606 3.4666v5.4094h12.854z" stroke="#090909" stroke-width=".038095"/><g fill="#ccc" stroke-width="1.0667"><path d="m313.8 400.05h-1.1407v2.7047h1.1407z"/><path d="m309.7 403.78h-1.1407v2.7047h1.1407z"/><path d="m317.84 403.78h-1.1407v2.7047h1.1407z"/></g><g fill="#333" stroke="#000"><g stroke-width=".038095"><path d="m311.16 412.01h4.0694"/><path d="m311.16 410.37h4.0694"/><path d="m311.16 410.1h-1.8254c-0.45146 0-0.64649 0.26075-0.64649 0.76179v0.68571c0 0.43176 0.2199 0.724 0.6465 0.724h1.8254z" fill-opacity=".94355"/></g><path d="m315.23 412.27h1.8254c0.45146 0 0.64649-0.26075 0.64649-0.76179v-0.68571c0-0.43175-0.2199-0.724-0.6465-0.724h-1.8254z" fill-opacity=".94355" stroke-width=".038095"/></g><rect x="136.31" y="400.92" width="8.5344" height="6.4123" rx="0" ry="0" fill="#e6e6e6" fill-opacity=".94355"/><rect x="71.815" y="400.92" width="8.5344" height="6.4123" rx="0" ry="0" fill="#e6e6e6" fill-opacity=".94355"/><path d="m76.802 404.16c0 0.27405-0.21542 0.49671-0.48087 0.49671-0.26545 0-0.48064-0.22268-0.48064-0.49671 0-0.27405 0.21518-0.49649 0.48064-0.49649 0.26545 0 0.48087 0.22244 0.48087 0.49649z" stroke="#000" stroke-width=".01658"/><path d="m140.08 404.16c0 0.27405-0.21543 0.49671-0.48088 0.49671s-0.48064-0.22268-0.48064-0.49671c0-0.27405 0.21518-0.49649 0.48064-0.49649 0.26545 0 0.48088 0.22244 0.48088 0.49649z" stroke="#000" stroke-width=".01658"/><rect x="209.91" y="400.92" width="8.5344" height="6.4123" rx="0" ry="0" fill="#e6e6e6" fill-opacity=".94355"/><rect x="145.41" y="400.92" width="8.5344" height="6.4123" rx="0" ry="0" fill="#e6e6e6" fill-opacity=".94355"/><path d="m150.4 404.16c0 0.27405-0.21542 0.49671-0.48087 0.49671-0.26546 0-0.48064-0.22268-0.48064-0.49671 0-0.27405 0.21517-0.49649 0.48064-0.49649 0.26545 0 0.48087 0.22244 0.48087 0.49649z" stroke="#000" stroke-width=".01658"/><path d="m213.68 404.16c0 0.27405-0.21543 0.49671-0.48088 0.49671s-0.48064-0.22268-0.48064-0.49671c0-0.27405 0.21518-0.49649 0.48064-0.49649 0.26545 0 0.48088 0.22244 0.48088 0.49649z" stroke="#000" stroke-width=".01658"/><rect x="283.53" y="400.92" width="8.5344" height="6.4123" rx="0" ry="0" fill="#e6e6e6" fill-opacity=".94355"/><rect x="219.03" y="400.92" width="8.5344" height="6.4123" rx="0" ry="0" fill="#e6e6e6" fill-opacity=".94355"/><path d="m224.02 404.16c0 0.27405-0.21542 0.49671-0.48087 0.49671s-0.48064-0.22268-0.48064-0.49671c0-0.27405 0.21517-0.49649 0.48064-0.49649 0.26545 0 0.48087 0.22244 0.48087 0.49649z" stroke="#000" stroke-width=".01658"/><path d="m287.3 404.16c0 0.27405-0.21543 0.49671-0.48088 0.49671s-0.48064-0.22268-0.48064-0.49671c0-0.27405 0.21518-0.49649 0.48064-0.49649 0.26545 0 0.48088 0.22244 0.48088 0.49649z" stroke="#000" stroke-width=".01658"/></svg>
