<svg width="472.53" height="47.467" version="1.1" viewBox="70.4 401.066666667 250.958144 15.4055701333" xmlns="http://www.w3.org/2000/svg">
 <g transform="matrix(1.2159 0 0 1.1254 -10.321 -27.424)" fill="#e6e6e6" stroke="#333" stroke-width=".46733">
  <rect x="66.589" y="376.59" width="206" height="22" fill="#e6e6e6"/>
  <rect x="66.589" y="376.59" width="206" height="22" fill-opacity="0"/>
 </g>
 <g font-family="sans-serif">
  <text transform="scale(1.1087 1.0262)" x="74.677345" y="391.78296" fill="#ffffff" font-size="2.476px" font-weight="700" style="line-height:0%">
   <tspan x="74.677345" y="391.78296"/>
  </text>
  <text transform="scale(1.0667)" x="79.707138" y="367.95245" fill="#000000" letter-spacing="0px" stroke-width="1px" word-spacing="0px" style="line-height:0%" xml:space="preserve"><tspan x="79.707138" y="367.95245" font-size="21.244px" style="line-height:1.25"> </tspan></text>
  <text transform="scale(1.1087 1.0262)" x="83.295067" y="456.96109" fill="#ffffff" font-size="2.476px" font-weight="700" style="line-height:0%">
   <tspan x="83.295067" y="456.96109"/>
  </text>
  <text transform="scale(1.0667)" x="88.664566" y="430.65869" fill="#000000" letter-spacing="0px" stroke-width="1px" word-spacing="0px" style="line-height:0%" xml:space="preserve"><tspan x="88.664566" y="430.65869" font-size="21.244px" style="line-height:1.25"> </tspan></text>
  <text transform="scale(1.0667)" x="115.4367" y="426.10361" fill="#000000" letter-spacing="0px" stroke-width="1px" word-spacing="0px" style="line-height:0%" xml:space="preserve"><tspan x="115.4367" y="426.10361" font-size="21.244px" style="line-height:1.25"> </tspan></text>
 </g>
 <g transform="matrix(1.0667 0 0 1.0667 -2.2032 -29.067)">
  <path d="m287.38 417 0.31661-0.0717 0.28149-0.0717 0.28198-0.17839 0.21075-0.17841 0.21123-0.35729 0.17612-0.32122 0.0351-0.32171 0.0703-0.35681v-13.345l-0.0703-0.39288-0.0351-0.32142-0.17612-0.32142-0.42198-0.49997-0.28198-0.21433-0.28149-0.0714-0.31661-0.0357h-9.5328l-0.31661 0.0357-0.24637 0.0714-0.28198 0.21433-0.28149 0.24996-0.1405 0.25001-0.17611 0.32142-0.0703 0.32142-0.0352 0.39288v13.345l0.0352 0.35681 0.0703 0.32171 0.31661 0.67851 0.56347 0.3568 0.24637 0.0717 0.31661 0.0717z" fill="#1a1a1a" stroke="#090909" stroke-width=".070969"/>
  <g transform="translate(-1.304 -.66386)" fill="#333" stroke-width=".035713">
   <g stroke="#666">
    <path d="m282.15 413.33h3.8149"/>
    <path d="m282.15 414.16h3.8149"/>
    <path d="m282.15 412.62h3.8149"/>
   </g>
   <path d="m285.93 412.37h1.7469v0.0357h0.10674l0.0717 0.0357h0.0356 0.0356 0.0356l0.1784 0.17859v0.0357 0.0357l0.0356 0.0357v0.0714l0.0356 0.0714v0.10714l0.0356 0.10713v0.64283l-0.0356 0.10718v0.10714l-0.0356 0.0357v0.0715l-0.0356 0.0357v0.0715l-0.14282 0.14281h-0.0356l-0.0356 0.0715h-0.10723-0.0356-0.10674v0.0357h-1.7469v-1.9999-0.0357z" stroke="#7e7e7e"/>
   <path d="m282.11 412.37h-1.7113l-0.0356 0.0357h-0.10674l-0.0717 0.0357h-0.0356-0.0356-0.0356l-0.14282 0.17859v0.0357l-0.0356 0.0357-0.0356 0.0357v0.0714l-0.0356 0.0714v0.10714l-0.0356 0.10713v0.64283l0.0356 0.10718v0.10714l0.0356 0.0357v0.0715l0.0356 0.0357 0.0356 0.0715 0.10724 0.14281h0.0356l0.0712 0.0715h0.0712 0.0361 0.10673l0.0356 0.0357h1.7113v-1.9999-0.0357z" stroke="#7e7e7e"/>
  </g>
  <g transform="translate(.046525)">
   <path d="m288.69 409.46v-5.2498l-3.0658-3.0713h-5.7402l-3.2442 3.2498v5.0712h12.05z" stroke="#090909" stroke-width=".035713"/>
   <g fill="#ccc">
    <path d="m283.24 402.28h-1.0694v2.5356h1.0694v-2.5356z"/>
    <path d="m279.39 405.78h-1.0694v2.5356h1.0694v-2.5356z"/>
    <path d="m287.02 405.78h-1.0694v2.5356h1.0694v-2.5356z"/>
   </g>
  </g>
 </g>
 <g transform="matrix(1.0667 0 0 1.0667 11.661 -29.067)">
  <path d="m287.38 417 0.31661-0.0717 0.28149-0.0717 0.28198-0.17839 0.21075-0.17841 0.21123-0.35729 0.17612-0.32122 0.0351-0.32171 0.0703-0.35681v-13.345l-0.0703-0.39288-0.0351-0.32142-0.17612-0.32142-0.42198-0.49997-0.28198-0.21433-0.28149-0.0714-0.31661-0.0357h-9.5328l-0.31661 0.0357-0.24637 0.0714-0.28198 0.21433-0.28149 0.24996-0.1405 0.25001-0.17611 0.32142-0.0703 0.32142-0.0352 0.39288v13.345l0.0352 0.35681 0.0703 0.32171 0.31661 0.67851 0.56347 0.3568 0.24637 0.0717 0.31661 0.0717z" fill="#1a1a1a" stroke="#090909" stroke-width=".070969"/>
  <g transform="translate(-1.304 -.66386)" fill="#333" stroke-width=".035713">
   <g stroke="#666">
    <path d="m282.15 413.33h3.8149"/>
    <path d="m282.15 414.16h3.8149"/>
    <path d="m282.15 412.62h3.8149"/>
   </g>
   <path d="m285.93 412.37h1.7469v0.0357h0.10674l0.0717 0.0357h0.0356 0.0356 0.0356l0.1784 0.17859v0.0357 0.0357l0.0356 0.0357v0.0714l0.0356 0.0714v0.10714l0.0356 0.10713v0.64283l-0.0356 0.10718v0.10714l-0.0356 0.0357v0.0715l-0.0356 0.0357v0.0715l-0.14282 0.14281h-0.0356l-0.0356 0.0715h-0.10723-0.0356-0.10674v0.0357h-1.7469v-1.9999-0.0357z" stroke="#7e7e7e"/>
   <path d="m282.11 412.37h-1.7113l-0.0356 0.0357h-0.10674l-0.0717 0.0357h-0.0356-0.0356-0.0356l-0.14282 0.17859v0.0357l-0.0356 0.0357-0.0356 0.0357v0.0714l-0.0356 0.0714v0.10714l-0.0356 0.10713v0.64283l0.0356 0.10718v0.10714l0.0356 0.0357v0.0715l0.0356 0.0357 0.0356 0.0715 0.10724 0.14281h0.0356l0.0712 0.0715h0.0712 0.0361 0.10673l0.0356 0.0357h1.7113v-1.9999-0.0357z" stroke="#7e7e7e"/>
  </g>
  <g transform="translate(.046525)">
   <path d="m288.69 409.46v-5.2498l-3.0658-3.0713h-5.7402l-3.2442 3.2498v5.0712h12.05z" stroke="#090909" stroke-width=".035713"/>
   <g fill="#ccc">
    <path d="m283.24 402.28h-1.0694v2.5356h1.0694v-2.5356z"/>
    <path d="m279.39 405.78h-1.0694v2.5356h1.0694v-2.5356z"/>
    <path d="m287.02 405.78h-1.0694v2.5356h1.0694v-2.5356z"/>
   </g>
  </g>
 </g>
 <g transform="matrix(1.4745 0 0 1.4745 -106.52 -103.84)" stroke-width=".035713">
  <g stroke="#000">
   <path d="m289.38 354.15c0 0.79676-0.62439 1.4437-1.3931 1.4437-0.7687 0-1.3926-0.64693-1.3926-1.4437 0-0.79726 0.62387-1.4442 1.3926-1.4442 0.76869 0 1.3931 0.64693 1.3931 1.4442z" fill="#999"/>
   <path d="m289.38 354.15c0 0.79676-0.62439 1.4437-1.3931 1.4437-0.7687 0-1.3926-0.64693-1.3926-1.4437 0-0.79726 0.62387-1.4442 1.3926-1.4442 0.76869 0 1.3931 0.64693 1.3931 1.4442z" fill="none"/>
   <path d="m289.03 354.17c0 0.5903-0.46402 1.0699-1.0358 1.0699-0.57176 0-1.0353-0.47956-1.0353-1.0699 0-0.59031 0.46352-1.0694 1.0353-1.0694 0.57177 0 1.0358 0.47905 1.0358 1.0694z" fill="#666"/>
   <path d="m289.03 354.17c0 0.5903-0.46402 1.0699-1.0358 1.0699-0.57176 0-1.0353-0.47956-1.0353-1.0699 0-0.59031 0.46352-1.0694 1.0353-1.0694 0.57177 0 1.0358 0.47905 1.0358 1.0694z" fill="none"/>
   <path d="m288.92 354.15c0 0.5412-0.42395 0.98017-0.9461 0.98017-0.52265 0-0.94659-0.43897-0.94659-0.98017s0.42394-0.98067 0.94659-0.98067c0.52215 0 0.9461 0.43947 0.9461 0.98067z" fill="#ddd"/>
  </g>
  <path d="m288.92 354.15c0 0.5412-0.42395 0.98017-0.9461 0.98017-0.52265 0-0.94659-0.43897-0.94659-0.98017s0.42394-0.98067 0.94659-0.98067c0.52215 0 0.9461 0.43947 0.9461 0.98067z" fill="none" stroke="#ddd"/>
  <path d="m287.28 354.1h-0.0356l-0.0361 0.0356v0.0356h-0.0356v0.1784h0.0356v0.0356l0.0361 0.0356h0.67851v0.74866h0.0356v0.0356h0.0356v0.0361h0.1789v-0.0361h0.0356v-0.0356h0.0356v-0.74866h0.71458v-0.0356h0.0356v-0.0356h0.0356v-0.1784h-0.0356v-0.0356h-0.0356v-0.0356h-0.71458v-0.71308l-0.0356-0.0356h-0.0356v-0.0356h-0.1789v0.0356h-0.0356l-0.0356 0.0356v0.71308h-0.60735-0.0356z" fill="#484848" stroke="#151515"/>
  <path d="m287.13 354.2v0.14281l0.0356 0.0356h0.0356v0.0356h0.71458v0.78423l0.0356 0.0361h0.0356v0.0356h0.10724 0.0356" fill="none" stroke="#bebebe"/>
  <path d="m287.92 353.38v0.6775 0.0356" fill="none" stroke="#bebebe"/>
 </g>
 <g transform="matrix(1.0667 0 0 1.0667 -.51434 -28.249)">
  <g transform="matrix(1.4471 0 0 1.2739 -43.337 -113.21)" fill="#ccc" stroke="#ccc" stroke-linejoin="round" stroke-width="1.6512">
   <path d="m77.647 402.73h45.594v15.628h-45.594z" fill="#ccc" stroke="#ccc" stroke-linejoin="round" stroke-width="1.6512"/>
  </g>
  <g fill="#0f0" stroke="#000" stroke-width=".035713">
   <path d="m124.26 411.29c0 0.47255-0.38435 0.8559-0.8574 0.8559-0.47304 0-0.85689-0.38335-0.85689-0.8559 0-0.47204 0.38385-0.85539 0.85689-0.85539 0.47305 0 0.8574 0.38335 0.8574 0.85539z"/>
   <path d="m124.26 414.14c0 0.47204-0.38435 0.85539-0.8574 0.85539-0.47304 0-0.85689-0.38335-0.85689-0.85539 0-0.47254 0.38385-0.85589 0.85689-0.85589 0.47305 0 0.8574 0.38335 0.8574 0.85589z"/>
   <path d="m127.17 411.29c0 0.47255-0.38435 0.8559-0.8574 0.8559-0.47304 0-0.85689-0.38335-0.85689-0.8559 0-0.47204 0.38385-0.85539 0.85689-0.85539 0.47305 0 0.8574 0.38335 0.8574 0.85539z"/>
   <path d="m127.17 414.14c0 0.47204-0.38435 0.85539-0.8574 0.85539-0.47304 0-0.85689-0.38335-0.85689-0.85539 0-0.47254 0.38385-0.85589 0.85689-0.85589 0.47305 0 0.8574 0.38335 0.8574 0.85589z"/>
  </g>
  <path d="m131.82 413.48c0 0.47204-0.38435 0.85539-0.8574 0.85539-0.47304 0-0.85689-0.38335-0.85689-0.85539 0-0.47254 0.38385-0.85589 0.85689-0.85589 0.47305 0 0.8574 0.38335 0.8574 0.85589z" fill="#666" stroke="#4d4d4d" stroke-width=".035713"/>
  <g transform="translate(-.12076)" fill="#1a1a1a" stroke="#000" stroke-width=".031132">
   <path d="m76.236 402.58c0 0.41194-0.33506 0.74613-0.74744 0.74613-0.41237 0-0.74699-0.33419-0.74699-0.74613 0-0.4115 0.33462-0.74569 0.74699-0.74569 0.41238 0 0.74744 0.33419 0.74744 0.74569z"/>
   <path d="m77.996 402.58c0 0.41194-0.33506 0.74613-0.74744 0.74613-0.41237 0-0.74699-0.33419-0.74699-0.74613 0-0.4115 0.33462-0.74569 0.74699-0.74569 0.41238 0 0.74744 0.33419 0.74744 0.74569z"/>
   <path d="m79.755 402.58c0 0.41194-0.33506 0.74613-0.74744 0.74613-0.41237 0-0.74699-0.33419-0.74699-0.74613 0-0.4115 0.33462-0.74569 0.74699-0.74569 0.41238 0 0.74744 0.33419 0.74744 0.74569z"/>
   <path d="m81.515 402.58c0 0.41194-0.33506 0.74613-0.74744 0.74613-0.41237 0-0.74699-0.33419-0.74699-0.74613 0-0.4115 0.33462-0.74569 0.74699-0.74569 0.41238 0 0.74744 0.33419 0.74744 0.74569z"/>
   <path d="m83.274 402.58c0 0.41194-0.33506 0.74613-0.74744 0.74613-0.41237 0-0.74699-0.33419-0.74699-0.74613 0-0.4115 0.33462-0.74569 0.74699-0.74569 0.41238 0 0.74744 0.33419 0.74744 0.74569z"/>
   <path d="m85.034 402.58c0 0.41194-0.33506 0.74613-0.74744 0.74613-0.41237 0-0.74699-0.33419-0.74699-0.74613 0-0.4115 0.33462-0.74569 0.74699-0.74569 0.41238 0 0.74744 0.33419 0.74744 0.74569z"/>
   <path d="m86.793 402.58c0 0.41194-0.33506 0.74613-0.74744 0.74613-0.41237 0-0.74699-0.33419-0.74699-0.74613 0-0.4115 0.33462-0.74569 0.74699-0.74569 0.41238 0 0.74744 0.33419 0.74744 0.74569z"/>
   <path d="m88.553 402.58c0 0.41194-0.33506 0.74613-0.74744 0.74613-0.41237 0-0.74699-0.33419-0.74699-0.74613 0-0.4115 0.33462-0.74569 0.74699-0.74569 0.41238 0 0.74744 0.33419 0.74744 0.74569z"/>
   <path d="m90.312 402.58c0 0.41194-0.33506 0.74613-0.74744 0.74613-0.41237 0-0.74699-0.33419-0.74699-0.74613 0-0.4115 0.33462-0.74569 0.74699-0.74569 0.41238 0 0.74744 0.33419 0.74744 0.74569z"/>
  </g>
  <g transform="translate(-.046942 .032961)" fill="#1a1a1a" stroke="#000" stroke-width=".031132">
   <path d="m77.042 404.07c0 0.41194-0.33506 0.74613-0.74744 0.74613-0.41237 0-0.74699-0.33419-0.74699-0.74613 0-0.4115 0.33462-0.74569 0.74699-0.74569 0.41238 0 0.74744 0.33419 0.74744 0.74569z"/>
   <path d="m78.802 404.07c0 0.41194-0.33506 0.74613-0.74744 0.74613-0.41237 0-0.74699-0.33419-0.74699-0.74613 0-0.4115 0.33462-0.74569 0.74699-0.74569 0.41238 0 0.74744 0.33419 0.74744 0.74569z"/>
   <path d="m80.561 404.07c0 0.41194-0.33506 0.74613-0.74744 0.74613-0.41237 0-0.74699-0.33419-0.74699-0.74613 0-0.4115 0.33462-0.74569 0.74699-0.74569 0.41238 0 0.74744 0.33419 0.74744 0.74569z"/>
   <path d="m82.321 404.07c0 0.41194-0.33506 0.74613-0.74744 0.74613-0.41237 0-0.74699-0.33419-0.74699-0.74613 0-0.4115 0.33462-0.74569 0.74699-0.74569 0.41238 0 0.74744 0.33419 0.74744 0.74569z"/>
   <path d="m84.08 404.07c0 0.41194-0.33506 0.74613-0.74744 0.74613-0.41237 0-0.74699-0.33419-0.74699-0.74613 0-0.4115 0.33462-0.74569 0.74699-0.74569 0.41238 0 0.74744 0.33419 0.74744 0.74569z"/>
   <path d="m85.84 404.07c0 0.41194-0.33506 0.74613-0.74744 0.74613-0.41237 0-0.74699-0.33419-0.74699-0.74613 0-0.4115 0.33462-0.74569 0.74699-0.74569 0.41238 0 0.74744 0.33419 0.74744 0.74569z"/>
   <path d="m87.599 404.07c0 0.41194-0.33506 0.74613-0.74744 0.74613-0.41237 0-0.74699-0.33419-0.74699-0.74613 0-0.4115 0.33462-0.74569 0.74699-0.74569 0.41238 0 0.74744 0.33419 0.74744 0.74569z"/>
   <path d="m89.359 404.07c0 0.41194-0.33506 0.74613-0.74744 0.74613-0.41237 0-0.74699-0.33419-0.74699-0.74613 0-0.4115 0.33462-0.74569 0.74699-0.74569 0.41238 0 0.74744 0.33419 0.74744 0.74569z"/>
  </g>
  <g transform="translate(.070414 -.046947)" fill="#1a1a1a" stroke="#000" stroke-width=".031132">
   <path d="m76.045 405.68c0 0.41194-0.33506 0.74613-0.74744 0.74613-0.41237 0-0.74699-0.33419-0.74699-0.74613 0-0.4115 0.33462-0.74569 0.74699-0.74569 0.41238 0 0.74744 0.33419 0.74744 0.74569z"/>
   <path d="m77.805 405.68c0 0.41194-0.33506 0.74613-0.74744 0.74613-0.41237 0-0.74699-0.33419-0.74699-0.74613 0-0.4115 0.33462-0.74569 0.74699-0.74569 0.41238 0 0.74744 0.33419 0.74744 0.74569z"/>
   <path d="m79.564 405.68c0 0.41194-0.33506 0.74613-0.74744 0.74613-0.41237 0-0.74699-0.33419-0.74699-0.74613 0-0.4115 0.33462-0.74569 0.74699-0.74569 0.41238 0 0.74744 0.33419 0.74744 0.74569z"/>
   <path d="m81.324 405.68c0 0.41194-0.33506 0.74613-0.74744 0.74613-0.41237 0-0.74699-0.33419-0.74699-0.74613 0-0.4115 0.33462-0.74569 0.74699-0.74569 0.41238 0 0.74744 0.33419 0.74744 0.74569z"/>
   <path d="m83.083 405.68c0 0.41194-0.33506 0.74613-0.74744 0.74613-0.41237 0-0.74699-0.33419-0.74699-0.74613 0-0.4115 0.33462-0.74569 0.74699-0.74569 0.41238 0 0.74744 0.33419 0.74744 0.74569z"/>
   <path d="m84.843 405.68c0 0.41194-0.33506 0.74613-0.74744 0.74613-0.41237 0-0.74699-0.33419-0.74699-0.74613 0-0.4115 0.33462-0.74569 0.74699-0.74569 0.41238 0 0.74744 0.33419 0.74744 0.74569z"/>
   <path d="m86.602 405.68c0 0.41194-0.33506 0.74613-0.74744 0.74613-0.41237 0-0.74699-0.33419-0.74699-0.74613 0-0.4115 0.33462-0.74569 0.74699-0.74569 0.41238 0 0.74744 0.33419 0.74744 0.74569z"/>
   <path d="m88.362 405.68c0 0.41194-0.33506 0.74613-0.74744 0.74613-0.41237 0-0.74699-0.33419-0.74699-0.74613 0-0.4115 0.33462-0.74569 0.74699-0.74569 0.41238 0 0.74744 0.33419 0.74744 0.74569z"/>
   <path d="m90.121 405.68c0 0.41194-0.33506 0.74613-0.74744 0.74613-0.41237 0-0.74699-0.33419-0.74699-0.74613 0-0.4115 0.33462-0.74569 0.74699-0.74569 0.41238 0 0.74744 0.33419 0.74744 0.74569z"/>
  </g>
  <g transform="translate(.14423 -.013986)" fill="#1a1a1a" stroke="#000" stroke-width=".031132">
   <path d="m76.851 407.17c0 0.41194-0.33506 0.74613-0.74744 0.74613-0.41237 0-0.74699-0.33419-0.74699-0.74613 0-0.4115 0.33462-0.74569 0.74699-0.74569 0.41238 0 0.74744 0.33419 0.74744 0.74569z"/>
   <path d="m78.611 407.17c0 0.41194-0.33506 0.74613-0.74744 0.74613-0.41237 0-0.74699-0.33419-0.74699-0.74613 0-0.4115 0.33462-0.74569 0.74699-0.74569 0.41238 0 0.74744 0.33419 0.74744 0.74569z"/>
   <path d="m80.37 407.17c0 0.41194-0.33506 0.74613-0.74744 0.74613-0.41237 0-0.74699-0.33419-0.74699-0.74613 0-0.4115 0.33462-0.74569 0.74699-0.74569 0.41238 0 0.74744 0.33419 0.74744 0.74569z"/>
   <path d="m82.13 407.17c0 0.41194-0.33506 0.74613-0.74744 0.74613-0.41237 0-0.74699-0.33419-0.74699-0.74613 0-0.4115 0.33462-0.74569 0.74699-0.74569 0.41238 0 0.74744 0.33419 0.74744 0.74569z"/>
   <path d="m83.889 407.17c0 0.41194-0.33506 0.74613-0.74744 0.74613-0.41237 0-0.74699-0.33419-0.74699-0.74613 0-0.4115 0.33462-0.74569 0.74699-0.74569 0.41238 0 0.74744 0.33419 0.74744 0.74569z"/>
   <path d="m85.649 407.17c0 0.41194-0.33506 0.74613-0.74744 0.74613-0.41237 0-0.74699-0.33419-0.74699-0.74613 0-0.4115 0.33462-0.74569 0.74699-0.74569 0.41238 0 0.74744 0.33419 0.74744 0.74569z"/>
   <path d="m87.408 407.17c0 0.41194-0.33506 0.74613-0.74744 0.74613-0.41237 0-0.74699-0.33419-0.74699-0.74613 0-0.4115 0.33462-0.74569 0.74699-0.74569 0.41238 0 0.74744 0.33419 0.74744 0.74569z"/>
   <path d="m89.167 407.17c0 0.41194-0.33506 0.74613-0.74744 0.74613-0.41237 0-0.74699-0.33419-0.74699-0.74613 0-0.4115 0.33462-0.74569 0.74699-0.74569 0.41238 0 0.74744 0.33419 0.74744 0.74569z"/>
  </g>
  <g transform="translate(.070414 2.998)" fill="#1a1a1a" stroke="#000" stroke-width=".031132">
   <path d="m76.045 405.68c0 0.41194-0.33506 0.74613-0.74744 0.74613-0.41237 0-0.74699-0.33419-0.74699-0.74613 0-0.4115 0.33462-0.74569 0.74699-0.74569 0.41238 0 0.74744 0.33419 0.74744 0.74569z"/>
   <path d="m77.805 405.68c0 0.41194-0.33506 0.74613-0.74744 0.74613-0.41237 0-0.74699-0.33419-0.74699-0.74613 0-0.4115 0.33462-0.74569 0.74699-0.74569 0.41238 0 0.74744 0.33419 0.74744 0.74569z"/>
   <path d="m79.564 405.68c0 0.41194-0.33506 0.74613-0.74744 0.74613-0.41237 0-0.74699-0.33419-0.74699-0.74613 0-0.4115 0.33462-0.74569 0.74699-0.74569 0.41238 0 0.74744 0.33419 0.74744 0.74569z"/>
   <path d="m81.324 405.68c0 0.41194-0.33506 0.74613-0.74744 0.74613-0.41237 0-0.74699-0.33419-0.74699-0.74613 0-0.4115 0.33462-0.74569 0.74699-0.74569 0.41238 0 0.74744 0.33419 0.74744 0.74569z"/>
   <path d="m83.083 405.68c0 0.41194-0.33506 0.74613-0.74744 0.74613-0.41237 0-0.74699-0.33419-0.74699-0.74613 0-0.4115 0.33462-0.74569 0.74699-0.74569 0.41238 0 0.74744 0.33419 0.74744 0.74569z"/>
   <path d="m84.843 405.68c0 0.41194-0.33506 0.74613-0.74744 0.74613-0.41237 0-0.74699-0.33419-0.74699-0.74613 0-0.4115 0.33462-0.74569 0.74699-0.74569 0.41238 0 0.74744 0.33419 0.74744 0.74569z"/>
   <path d="m86.602 405.68c0 0.41194-0.33506 0.74613-0.74744 0.74613-0.41237 0-0.74699-0.33419-0.74699-0.74613 0-0.4115 0.33462-0.74569 0.74699-0.74569 0.41238 0 0.74744 0.33419 0.74744 0.74569z"/>
   <path d="m88.362 405.68c0 0.41194-0.33506 0.74613-0.74744 0.74613-0.41237 0-0.74699-0.33419-0.74699-0.74613 0-0.4115 0.33462-0.74569 0.74699-0.74569 0.41238 0 0.74744 0.33419 0.74744 0.74569z"/>
   <path d="m90.121 405.68c0 0.41194-0.33506 0.74613-0.74744 0.74613-0.41237 0-0.74699-0.33419-0.74699-0.74613 0-0.4115 0.33462-0.74569 0.74699-0.74569 0.41238 0 0.74744 0.33419 0.74744 0.74569z"/>
  </g>
  <g transform="translate(0 -.090389)" fill="#1a1a1a" stroke="#000" stroke-width=".031132">
   <path d="m123.22 402.98c0 0.41194-0.33506 0.74613-0.74744 0.74613-0.41237 0-0.74699-0.33419-0.74699-0.74613 0-0.4115 0.33462-0.74569 0.74699-0.74569 0.41238 0 0.74744 0.33419 0.74744 0.74569z"/>
   <path d="m124.98 402.98c0 0.41194-0.33505 0.74613-0.74744 0.74613-0.41237 0-0.74699-0.33419-0.74699-0.74613 0-0.4115 0.33462-0.74569 0.74699-0.74569 0.41239 0 0.74744 0.33419 0.74744 0.74569z"/>
   <path d="m126.74 402.98c0 0.41194-0.33506 0.74613-0.74744 0.74613s-0.747-0.33419-0.747-0.74613c0-0.4115 0.33462-0.74569 0.747-0.74569s0.74744 0.33419 0.74744 0.74569z"/>
   <path d="m128.5 402.98c0 0.41194-0.33506 0.74613-0.74744 0.74613-0.41237 0-0.74699-0.33419-0.74699-0.74613 0-0.4115 0.33462-0.74569 0.74699-0.74569 0.41238 0 0.74744 0.33419 0.74744 0.74569z"/>
   <path d="m130.26 402.98c0 0.41194-0.33505 0.74613-0.74744 0.74613-0.41237 0-0.74699-0.33419-0.74699-0.74613 0-0.4115 0.33462-0.74569 0.74699-0.74569 0.41239 0 0.74744 0.33419 0.74744 0.74569z"/>
  </g>
  <g transform="translate(-1e-5)" fill="#1a1a1a" stroke="#000" stroke-width=".031132">
   <path d="m124.1 404.51c0 0.41194-0.33506 0.74613-0.74744 0.74613-0.41237 0-0.74699-0.33419-0.74699-0.74613 0-0.4115 0.33462-0.74569 0.74699-0.74569 0.41238 0 0.74744 0.33419 0.74744 0.74569z"/>
   <path d="m125.86 404.51c0 0.41194-0.33506 0.74613-0.74744 0.74613-0.41237 0-0.74699-0.33419-0.74699-0.74613 0-0.4115 0.33462-0.74569 0.74699-0.74569 0.41238 0 0.74744 0.33419 0.74744 0.74569z"/>
   <path d="m127.62 404.51c0 0.41194-0.33506 0.74613-0.74744 0.74613-0.41237 0-0.74699-0.33419-0.74699-0.74613 0-0.4115 0.33462-0.74569 0.74699-0.74569 0.41238 0 0.74744 0.33419 0.74744 0.74569z"/>
   <path d="m129.38 404.51c0 0.41194-0.33506 0.74613-0.74744 0.74613-0.41237 0-0.747-0.33419-0.747-0.74613 0-0.4115 0.33463-0.74569 0.747-0.74569 0.41238 0 0.74744 0.33419 0.74744 0.74569z"/>
  </g>
  <g transform="translate(-1e-5 -3.2257)" fill="#1a1a1a" stroke="#000" stroke-width=".031132">
   <path d="m124.1 404.51c0 0.41194-0.33506 0.74613-0.74744 0.74613-0.41237 0-0.74699-0.33419-0.74699-0.74613 0-0.4115 0.33462-0.74569 0.74699-0.74569 0.41238 0 0.74744 0.33419 0.74744 0.74569z"/>
   <path d="m125.86 404.51c0 0.41194-0.33506 0.74613-0.74744 0.74613-0.41237 0-0.74699-0.33419-0.74699-0.74613 0-0.4115 0.33462-0.74569 0.74699-0.74569 0.41238 0 0.74744 0.33419 0.74744 0.74569z"/>
   <path d="m127.62 404.51c0 0.41194-0.33506 0.74613-0.74744 0.74613-0.41237 0-0.74699-0.33419-0.74699-0.74613 0-0.4115 0.33462-0.74569 0.74699-0.74569 0.41238 0 0.74744 0.33419 0.74744 0.74569z"/>
   <path d="m129.38 404.51c0 0.41194-0.33506 0.74613-0.74744 0.74613-0.41237 0-0.747-0.33419-0.747-0.74613 0-0.4115 0.33463-0.74569 0.747-0.74569 0.41238 0 0.74744 0.33419 0.74744 0.74569z"/>
  </g>
  <g stroke="#000" stroke-linejoin="round">
   <g fill="none">
    <path transform="matrix(.95422 0 0 .96804 3.5677 13.204)" d="m80.946 411.45-0.03596 3.4566-3.0115 1.6972-2.9755-1.7594 0.03596-3.4566 3.0115-1.6972z" stroke-width=".055258"/>
    <ellipse cx="77.934" cy="413.15" rx="3.4379" ry="3.4877" stroke-width=".053109"/>
    <ellipse cx="77.934" cy="413.15" rx="2.2929" ry="2.3261" stroke-width=".053109"/>
   </g>
   <g stroke-width=".053109">
    <ellipse cx="77.934" cy="413.15" rx="1.5592" ry="1.5818" fill="#fff"/>
    <ellipse cx="77.934" cy="413.15" rx=".22108" ry=".22428" fill="#ccc"/>
    <ellipse cx="77.934" cy="413.15" rx="1.697" ry="1.7215" fill="none"/>
    <ellipse cx="77.934" cy="413.15" rx="2.5255" ry="2.5621" fill="none"/>
   </g>
  </g>
  <g transform="translate(8.7451)" stroke="#000" stroke-linejoin="round">
   <path transform="matrix(.95422 0 0 .96804 3.5677 13.204)" d="m80.946 411.45-0.03596 3.4566-3.0115 1.6972-2.9755-1.7594 0.03596-3.4566 3.0115-1.6972z" fill="none" stroke-width=".055258"/>
   <ellipse cx="77.934" cy="413.15" rx="3.4379" ry="3.4877" fill="none" stroke-width=".053109"/>
   <g stroke-width=".053109">
    <ellipse cx="77.934" cy="413.15" rx="2.2929" ry="2.3261" fill="#ccc"/>
    <ellipse cx="77.934" cy="413.15" rx="1.5592" ry="1.5818" fill="#fff"/>
    <ellipse cx="77.934" cy="413.15" rx=".22108" ry=".22428" fill="#e6e6e6"/>
   </g>
   <ellipse cx="77.934" cy="413.15" rx="1.697" ry="1.7215" fill="none" stroke-width=".053109"/>
   <ellipse cx="77.934" cy="413.15" rx="2.5255" ry="2.5621" fill="none" stroke-width=".053109"/>
  </g>
  <rect x="91.023" y="401.52" width="9.4362" height="14.313" rx=".63742" fill="#ccc" stroke="#000" stroke-linejoin="round" stroke-width=".092641"/>
  <g transform="matrix(1.0006 0 0 .99268 -21.157 65.502)">
   <path d="m112.86 345.71 7.9403 1e-5v-7.0375l-7.9403 2.2e-4z" fill="#3a3a3a"/>
   <g transform="matrix(.0080706 0 0 .0080636 100.22 374.68)">
    <path d="m2550.5-3593.2v-872.75l-983.84 0.025v872.71z" fill="none" stroke="#000" stroke-linecap="square" stroke-width=".67568"/>
   </g>
   <path d="m113.63 340.44h1.7574l-3e-3 -1.0731 0.63956-5.7e-4v-0.40181h2.0614l-4.8e-4 0.40286h0.6657v1.0732h1.7493v4.6204l-6.8696 0.015z" fill="#1a1a1a"/>
   <g fill="#ffac00">
    <path d="m115.21 345.08h0.21938v-1.3498h-0.21938v1.3498z"/>
    <path d="m115.7 345.08h0.21938v-1.3498h-0.21938v1.3498z"/>
    <path d="m116.21 345.08h0.21931v-1.3498h-0.21931v1.3498z"/>
    <path d="m116.72 345.08h0.21938v-1.3498h-0.21938v1.3498z"/>
    <path d="m117.21 345.08h0.21938v-1.3498h-0.21938v1.3498z"/>
    <path d="m117.71 345.08h0.21932v-1.3498h-0.21932v1.3498z"/>
    <path d="m118.24 345.08h0.21986v-1.3498h-0.21986v1.3498z"/>
    <path d="m118.73 345.08h0.21931v-1.3498h-0.21931v1.3498z"/>
   </g>
   <g>
    <path d="m118.91 340.16h1.7357v-0.75438h-1.7357v0.75438z" fill="#abb927"/>
    <path d="m113.48 340.16h1.751v-0.75831h-1.751v0.75831z" fill="#ff7d00"/>
    <path d="m120.8 345.71-7.9401-2e-5v7.0373l7.9401 2.4e-4z" fill="#3a3a3a"/>
   </g>
   <g transform="matrix(-.0080706 0 0 -.0080636 133.93 316.74)">
    <path d="m2609.9-3593.3v-872.71l-983.83-0.028v872.75z" fill="none" stroke="#000" stroke-linecap="square" stroke-width=".67568"/>
   </g>
   <path d="m120.51 350.97h-1.7574l3e-3 1.0731-0.63956 5.7e-4v0.40181h-2.0614l4.8e-4 -0.40286h-0.6657v-1.0732h-1.7493v-4.6204l6.8696-0.015z" fill="#1a1a1a"/>
   <g fill="#ffac00">
    <path d="m118.93 346.34h-0.21938v1.3498h0.21938v-1.3498z"/>
    <path d="m118.44 346.34h-0.21938v1.3498h0.21938v-1.3498z"/>
    <path d="m117.94 346.34h-0.21931v1.3498h0.21931v-1.3498z"/>
    <path d="m117.42 346.34h-0.21938v1.3498h0.21938v-1.3498z"/>
    <path d="m116.93 346.34h-0.21938v1.3498h0.21938v-1.3498z"/>
    <path d="m116.43 346.34h-0.21932v1.3498h0.21932v-1.3498z"/>
    <path d="m115.91 346.34h-0.21986v1.3498h0.21986v-1.3498z"/>
    <path d="m115.42 346.34h-0.21931v1.3498h0.21931v-1.3498z"/>
   </g>
   <g>
    <path d="m115.23 351.26h-1.7357v0.75438h1.7357v-0.75438z" fill="#abb927"/>
    <path d="m120.67 351.26h-1.751v0.75831h1.751v-0.75831z" fill="#ff7d00"/>
    <path transform="matrix(.53109 0 0 .53109 66 374.35)" d="m103.18-67.181-4.3903-0.0018v1.2752l4.2565-0.0019v1.6507l-0.4201 0.01318-1e-3 9.1065-9e-3 0.0099-12.928 0.01807-9.03e-4 -9.1344-0.42012-0.01318v-1.6507l4.2317 0.0019v-1.2752l-5.2703 0.0018 0.0034 26.511 5.2951 0.0018v-1.2752l-4.2565 0.0019v-1.6507l0.4201-0.01318 0.0011-9.0518 12.937-0.0075 9.1e-4 9.0588 0.42011 0.01318v1.6507l-4.2317-0.0019v1.2752l4.3658-0.0018z" fill="#ebebeb"/>
   </g>
  </g>
  <g transform="translate(-.21932 .19261)">
   <rect x="102.06" y="401.36" width="8.374" height="13.848" rx=".63742" fill="#ccc" stroke="#000" stroke-linejoin="round" stroke-width=".092641"/>
   <g transform="matrix(.58063 0 0 .66561 29.334 142.42)">
    <rect x="125.95" y="399.76" width="13.005" height="6.133" fill="#bfbfbf" stroke="#000" stroke-linecap="round" stroke-linejoin="round" stroke-miterlimit="10" stroke-width=".098128"/>
    <g transform="translate(-151.47 32.922)">
     <g transform="matrix(1.1392 0 0 1.0628 -9.5661 -40.967)">
      <rect x="251.98" y="383.74" width="11.333" height="5.639"/>
      <rect x="251.98" y="383.74" width="11.319" height="5.6234" fill="none" stroke="#7f7f7f" stroke-width=".2"/>
     </g>
     <g transform="matrix(1.1392 0 0 1.0628 -9.5661 -40.967)">
      <polygon points="252.18 383.94 252.18 386.54 256.98 386.54 256.98 383.94 253.58 383.94"/>
      <polygon transform="matrix(2.2457 0 0 1.9606 -314.08 -368.76)" points="256.98 386.54 256.98 383.94 253.58 383.94 252.18 383.94 252.18 386.54" fill="none" stroke="#7f7f7f" stroke-width=".023002"/>
     </g>
    </g>
   </g>
   <g transform="matrix(.58063 0 0 .66561 29.334 137.91)">
    <rect x="125.95" y="399.76" width="13.005" height="6.133" fill="#bfbfbf" stroke="#000" stroke-linecap="round" stroke-linejoin="round" stroke-miterlimit="10" stroke-width=".098128"/>
    <g transform="translate(-151.47 32.922)">
     <g transform="matrix(1.1392 0 0 1.0628 -9.5661 -40.967)">
      <rect x="251.98" y="383.74" width="11.333" height="5.639"/>
      <rect x="251.98" y="383.74" width="11.319" height="5.6234" fill="none" stroke="#7f7f7f" stroke-width=".2"/>
     </g>
     <g transform="matrix(1.1392 0 0 1.0628 -9.5661 -40.967)">
      <polygon points="256.98 386.54 256.98 383.94 253.58 383.94 252.18 383.94 252.18 386.54"/>
      <polygon transform="matrix(2.2457 0 0 1.9606 -314.08 -368.76)" points="253.58 383.94 252.18 383.94 252.18 386.54 256.98 386.54 256.98 383.94" fill="none" stroke="#7f7f7f" stroke-width=".023002"/>
     </g>
    </g>
   </g>
  </g>
  <rect x="111.6" y="401.33" width="9.4362" height="14.313" rx=".63742" fill="#ccc" stroke="#000" stroke-linejoin="round" stroke-width=".092641"/>
  <g transform="matrix(1.0006 0 0 .99268 -.57702 65.303)">
   <path d="m112.86 345.71 7.9403 1e-5v-7.0375l-7.9403 2.2e-4z" fill="#3a3a3a"/>
   <g transform="matrix(.0080706 0 0 .0080636 100.22 374.68)">
    <path d="m2550.5-3593.2v-872.75l-983.84 0.025v872.71z" fill="none" stroke="#000" stroke-linecap="square" stroke-width=".67568"/>
   </g>
   <path d="m113.63 340.44h1.7574l-3e-3 -1.0731 0.63956-5.7e-4v-0.40181h2.0614l-4.8e-4 0.40286h0.6657v1.0732h1.7493v4.6204l-6.8696 0.015z" fill="#1a1a1a"/>
   <g fill="#ffac00">
    <path d="m115.21 345.08h0.21938v-1.3498h-0.21938v1.3498z"/>
    <path d="m115.7 345.08h0.21938v-1.3498h-0.21938v1.3498z"/>
    <path d="m116.21 345.08h0.21931v-1.3498h-0.21931v1.3498z"/>
    <path d="m116.72 345.08h0.21938v-1.3498h-0.21938v1.3498z"/>
    <path d="m117.21 345.08h0.21938v-1.3498h-0.21938v1.3498z"/>
    <path d="m117.71 345.08h0.21932v-1.3498h-0.21932v1.3498z"/>
    <path d="m118.24 345.08h0.21986v-1.3498h-0.21986v1.3498z"/>
    <path d="m118.73 345.08h0.21931v-1.3498h-0.21931v1.3498z"/>
   </g>
   <g>
    <path d="m118.91 340.16h1.7357v-0.75438h-1.7357v0.75438z" fill="#abb927"/>
    <path d="m113.48 340.16h1.751v-0.75831h-1.751v0.75831z" fill="#ff7d00"/>
    <path d="m120.8 345.71-7.9401-2e-5v7.0373l7.9401 2.4e-4z" fill="#3a3a3a"/>
   </g>
   <g transform="matrix(-.0080706 0 0 -.0080636 133.93 316.74)">
    <path d="m2609.9-3593.3v-872.71l-983.83-0.028v872.75z" fill="none" stroke="#000" stroke-linecap="square" stroke-width=".67568"/>
   </g>
   <path d="m120.51 350.97h-1.7574l3e-3 1.0731-0.63956 5.7e-4v0.40181h-2.0614l4.8e-4 -0.40286h-0.6657v-1.0732h-1.7493v-4.6204l6.8696-0.015z" fill="#1a1a1a"/>
   <g fill="#ffac00">
    <path d="m118.93 346.34h-0.21938v1.3498h0.21938v-1.3498z"/>
    <path d="m118.44 346.34h-0.21938v1.3498h0.21938v-1.3498z"/>
    <path d="m117.94 346.34h-0.21931v1.3498h0.21931v-1.3498z"/>
    <path d="m117.42 346.34h-0.21938v1.3498h0.21938v-1.3498z"/>
    <path d="m116.93 346.34h-0.21938v1.3498h0.21938v-1.3498z"/>
    <path d="m116.43 346.34h-0.21932v1.3498h0.21932v-1.3498z"/>
    <path d="m115.91 346.34h-0.21986v1.3498h0.21986v-1.3498z"/>
    <path d="m115.42 346.34h-0.21931v1.3498h0.21931v-1.3498z"/>
   </g>
   <g>
    <path d="m115.23 351.26h-1.7357v0.75438h1.7357v-0.75438z" fill="#abb927"/>
    <path d="m120.67 351.26h-1.751v0.75831h1.751v-0.75831z" fill="#ff7d00"/>
    <path transform="matrix(.53109 0 0 .53109 66 374.35)" d="m103.18-67.181-4.3903-0.0018v1.2752l4.2565-0.0019v1.6507l-0.4201 0.01318-1e-3 9.1065-9e-3 0.0099-12.928 0.01807-9.03e-4 -9.1344-0.42012-0.01318v-1.6507l4.2317 0.0019v-1.2752l-5.2703 0.0018 0.0034 26.511 5.2951 0.0018v-1.2752l-4.2565 0.0019v-1.6507l0.4201-0.01318 0.0011-9.0518 12.937-0.0075 9.1e-4 9.0588 0.42011 0.01318v1.6507l-4.2317-0.0019v1.2752l4.3658-0.0018z" fill="#ebebeb"/>
   </g>
  </g>
  <g transform="matrix(1.3824 0 0 1.3824 -266.11 -84.264)" stroke-width=".035713">
   <g stroke="#000">
    <path d="m289.38 354.15c0 0.79676-0.62439 1.4437-1.3931 1.4437-0.7687 0-1.3926-0.64693-1.3926-1.4437 0-0.79726 0.62387-1.4442 1.3926-1.4442 0.76869 0 1.3931 0.64693 1.3931 1.4442z" fill="#999"/>
    <path d="m289.38 354.15c0 0.79676-0.62439 1.4437-1.3931 1.4437-0.7687 0-1.3926-0.64693-1.3926-1.4437 0-0.79726 0.62387-1.4442 1.3926-1.4442 0.76869 0 1.3931 0.64693 1.3931 1.4442z" fill="none"/>
    <path d="m289.03 354.17c0 0.5903-0.46402 1.0699-1.0358 1.0699-0.57176 0-1.0353-0.47956-1.0353-1.0699 0-0.59031 0.46352-1.0694 1.0353-1.0694 0.57177 0 1.0358 0.47905 1.0358 1.0694z" fill="#666"/>
    <path d="m289.03 354.17c0 0.5903-0.46402 1.0699-1.0358 1.0699-0.57176 0-1.0353-0.47956-1.0353-1.0699 0-0.59031 0.46352-1.0694 1.0353-1.0694 0.57177 0 1.0358 0.47905 1.0358 1.0694z" fill="none"/>
    <path d="m288.92 354.15c0 0.5412-0.42395 0.98017-0.9461 0.98017-0.52265 0-0.94659-0.43897-0.94659-0.98017s0.42394-0.98067 0.94659-0.98067c0.52215 0 0.9461 0.43947 0.9461 0.98067z" fill="#ddd"/>
   </g>
   <path d="m288.92 354.15c0 0.5412-0.42395 0.98017-0.9461 0.98017-0.52265 0-0.94659-0.43897-0.94659-0.98017s0.42394-0.98067 0.94659-0.98067c0.52215 0 0.9461 0.43947 0.9461 0.98067z" fill="none" stroke="#ddd"/>
   <path d="m287.28 354.1h-0.0356l-0.0361 0.0356v0.0356h-0.0356v0.1784h0.0356v0.0356l0.0361 0.0356h0.67851v0.74866h0.0356v0.0356h0.0356v0.0361h0.1789v-0.0361h0.0356v-0.0356h0.0356v-0.74866h0.71458v-0.0356h0.0356v-0.0356h0.0356v-0.1784h-0.0356v-0.0356h-0.0356v-0.0356h-0.71458v-0.71308l-0.0356-0.0356h-0.0356v-0.0356h-0.1789v0.0356h-0.0356l-0.0356 0.0356v0.71308h-0.60735-0.0356z" fill="#484848" stroke="#151515"/>
   <path d="m287.13 354.2v0.14281l0.0356 0.0356h0.0356v0.0356h0.71458v0.78423l0.0356 0.0361h0.0356v0.0356h0.10724 0.0356" fill="none" stroke="#bebebe"/>
   <path d="m287.92 353.38v0.6775 0.0356" fill="none" stroke="#bebebe"/>
  </g>
  <g transform="matrix(1.3824 0 0 1.3824 -325.82 -84.264)" stroke-width=".035713">
   <g stroke="#000">
    <path d="m289.38 354.15c0 0.79676-0.62439 1.4437-1.3931 1.4437-0.7687 0-1.3926-0.64693-1.3926-1.4437 0-0.79726 0.62387-1.4442 1.3926-1.4442 0.76869 0 1.3931 0.64693 1.3931 1.4442z" fill="#999"/>
    <path d="m289.38 354.15c0 0.79676-0.62439 1.4437-1.3931 1.4437-0.7687 0-1.3926-0.64693-1.3926-1.4437 0-0.79726 0.62387-1.4442 1.3926-1.4442 0.76869 0 1.3931 0.64693 1.3931 1.4442z" fill="none"/>
    <path d="m289.03 354.17c0 0.5903-0.46402 1.0699-1.0358 1.0699-0.57176 0-1.0353-0.47956-1.0353-1.0699 0-0.59031 0.46352-1.0694 1.0353-1.0694 0.57177 0 1.0358 0.47905 1.0358 1.0694z" fill="#666"/>
    <path d="m289.03 354.17c0 0.5903-0.46402 1.0699-1.0358 1.0699-0.57176 0-1.0353-0.47956-1.0353-1.0699 0-0.59031 0.46352-1.0694 1.0353-1.0694 0.57177 0 1.0358 0.47905 1.0358 1.0694z" fill="none"/>
    <path d="m288.92 354.15c0 0.5412-0.42395 0.98017-0.9461 0.98017-0.52265 0-0.94659-0.43897-0.94659-0.98017s0.42394-0.98067 0.94659-0.98067c0.52215 0 0.9461 0.43947 0.9461 0.98067z" fill="#ddd"/>
   </g>
   <path d="m288.92 354.15c0 0.5412-0.42395 0.98017-0.9461 0.98017-0.52265 0-0.94659-0.43897-0.94659-0.98017s0.42394-0.98067 0.94659-0.98067c0.52215 0 0.9461 0.43947 0.9461 0.98067z" fill="none" stroke="#ddd"/>
   <path d="m287.28 354.1h-0.0356l-0.0361 0.0356v0.0356h-0.0356v0.1784h0.0356v0.0356l0.0361 0.0356h0.67851v0.74866h0.0356v0.0356h0.0356v0.0361h0.1789v-0.0361h0.0356v-0.0356h0.0356v-0.74866h0.71458v-0.0356h0.0356v-0.0356h0.0356v-0.1784h-0.0356v-0.0356h-0.0356v-0.0356h-0.71458v-0.71308l-0.0356-0.0356h-0.0356v-0.0356h-0.1789v0.0356h-0.0356l-0.0356 0.0356v0.71308h-0.60735-0.0356z" fill="#484848" stroke="#151515"/>
   <path d="m287.13 354.2v0.14281l0.0356 0.0356h0.0356v0.0356h0.71458v0.78423l0.0356 0.0361h0.0356v0.0356h0.10724 0.0356" fill="none" stroke="#bebebe"/>
   <path d="m287.92 353.38v0.6775 0.0356" fill="none" stroke="#bebebe"/>
  </g>
  <g fill="#000000" font-family="sans-serif" letter-spacing="0px" stroke-width="1px" word-spacing="0px">
   <text x="92.944847" y="401.04675" style="line-height:0%" xml:space="preserve"><tspan x="92.944847" y="401.04675" font-size="2.6555px" style="line-height:1.25">NMS</tspan></text>
   <text x="107.7443" y="400.98065" style="line-height:0%" xml:space="preserve"><tspan x="107.7443" y="400.98065" font-size="2.6555px" style="line-height:1.25">GE1</tspan></text>
   <text x="108.21071" y="417.84586" style="line-height:0%" xml:space="preserve"><tspan x="108.21071" y="417.84586" font-size="2.6555px" style="line-height:1.25">GE2</tspan></text>
  </g>
  <path d="m89.635 417.14h-0.0717l-0.1779 0.21427-0.10723 0.39287v0.28568l0.10723 0.42855 0.1779 0.21427h17.195l0.1784-0.21427 0.10674-0.42855v-0.28568l-0.10674-0.39287-0.1784-0.21427h-0.0711-17.052z" fill="#808080" stroke="#000" stroke-width=".071425"/>
  <text x="75.393524" y="418.92502" fill="#000000" font-family="sans-serif" letter-spacing="0px" stroke-width="1px" word-spacing="0px" style="line-height:0%" xml:space="preserve"><tspan x="75.393524" y="418.92502" font-size="2.6555px" style="line-height:1.25">RF1</tspan></text>
  <text x="84.149017" y="418.94254" fill="#000000" font-family="sans-serif" letter-spacing="0px" stroke-width="1px" word-spacing="0px" style="line-height:0%" xml:space="preserve"><tspan x="84.149017" y="418.94254" font-size="2.6555px" style="line-height:1.25">RF2</tspan></text>
 </g>
 <g transform="matrix(1.0667 0 0 1.0667 146.73 -28.249)">
  <g transform="matrix(1.4471 0 0 1.2739 -43.337 -113.21)" fill="#ccc" stroke="#ccc" stroke-linejoin="round" stroke-width="1.6512">
   <path d="m77.647 402.73h45.594v15.628h-45.594z" fill="#ccc" stroke="#ccc" stroke-linejoin="round" stroke-width="1.6512"/>
  </g>
  <g fill="#0f0" stroke="#000" stroke-width=".035713">
   <path d="m124.26 411.29c0 0.47255-0.38435 0.8559-0.8574 0.8559-0.47304 0-0.85689-0.38335-0.85689-0.8559 0-0.47204 0.38385-0.85539 0.85689-0.85539 0.47305 0 0.8574 0.38335 0.8574 0.85539z"/>
   <path d="m124.26 414.14c0 0.47204-0.38435 0.85539-0.8574 0.85539-0.47304 0-0.85689-0.38335-0.85689-0.85539 0-0.47254 0.38385-0.85589 0.85689-0.85589 0.47305 0 0.8574 0.38335 0.8574 0.85589z"/>
   <path d="m127.17 411.29c0 0.47255-0.38435 0.8559-0.8574 0.8559-0.47304 0-0.85689-0.38335-0.85689-0.8559 0-0.47204 0.38385-0.85539 0.85689-0.85539 0.47305 0 0.8574 0.38335 0.8574 0.85539z"/>
   <path d="m127.17 414.14c0 0.47204-0.38435 0.85539-0.8574 0.85539-0.47304 0-0.85689-0.38335-0.85689-0.85539 0-0.47254 0.38385-0.85589 0.85689-0.85589 0.47305 0 0.8574 0.38335 0.8574 0.85589z"/>
  </g>
  <path d="m131.82 413.48c0 0.47204-0.38435 0.85539-0.8574 0.85539-0.47304 0-0.85689-0.38335-0.85689-0.85539 0-0.47254 0.38385-0.85589 0.85689-0.85589 0.47305 0 0.8574 0.38335 0.8574 0.85589z" fill="#666" stroke="#4d4d4d" stroke-width=".035713"/>
  <g transform="translate(-.12076)" fill="#1a1a1a" stroke="#000" stroke-width=".031132">
   <path d="m76.236 402.58c0 0.41194-0.33506 0.74613-0.74744 0.74613-0.41237 0-0.74699-0.33419-0.74699-0.74613 0-0.4115 0.33462-0.74569 0.74699-0.74569 0.41238 0 0.74744 0.33419 0.74744 0.74569z"/>
   <path d="m77.996 402.58c0 0.41194-0.33506 0.74613-0.74744 0.74613-0.41237 0-0.74699-0.33419-0.74699-0.74613 0-0.4115 0.33462-0.74569 0.74699-0.74569 0.41238 0 0.74744 0.33419 0.74744 0.74569z"/>
   <path d="m79.755 402.58c0 0.41194-0.33506 0.74613-0.74744 0.74613-0.41237 0-0.74699-0.33419-0.74699-0.74613 0-0.4115 0.33462-0.74569 0.74699-0.74569 0.41238 0 0.74744 0.33419 0.74744 0.74569z"/>
   <path d="m81.515 402.58c0 0.41194-0.33506 0.74613-0.74744 0.74613-0.41237 0-0.74699-0.33419-0.74699-0.74613 0-0.4115 0.33462-0.74569 0.74699-0.74569 0.41238 0 0.74744 0.33419 0.74744 0.74569z"/>
   <path d="m83.274 402.58c0 0.41194-0.33506 0.74613-0.74744 0.74613-0.41237 0-0.74699-0.33419-0.74699-0.74613 0-0.4115 0.33462-0.74569 0.74699-0.74569 0.41238 0 0.74744 0.33419 0.74744 0.74569z"/>
   <path d="m85.034 402.58c0 0.41194-0.33506 0.74613-0.74744 0.74613-0.41237 0-0.74699-0.33419-0.74699-0.74613 0-0.4115 0.33462-0.74569 0.74699-0.74569 0.41238 0 0.74744 0.33419 0.74744 0.74569z"/>
   <path d="m86.793 402.58c0 0.41194-0.33506 0.74613-0.74744 0.74613-0.41237 0-0.74699-0.33419-0.74699-0.74613 0-0.4115 0.33462-0.74569 0.74699-0.74569 0.41238 0 0.74744 0.33419 0.74744 0.74569z"/>
   <path d="m88.553 402.58c0 0.41194-0.33506 0.74613-0.74744 0.74613-0.41237 0-0.74699-0.33419-0.74699-0.74613 0-0.4115 0.33462-0.74569 0.74699-0.74569 0.41238 0 0.74744 0.33419 0.74744 0.74569z"/>
   <path d="m90.312 402.58c0 0.41194-0.33506 0.74613-0.74744 0.74613-0.41237 0-0.74699-0.33419-0.74699-0.74613 0-0.4115 0.33462-0.74569 0.74699-0.74569 0.41238 0 0.74744 0.33419 0.74744 0.74569z"/>
  </g>
  <g transform="translate(-.046942 .032961)" fill="#1a1a1a" stroke="#000" stroke-width=".031132">
   <path d="m77.042 404.07c0 0.41194-0.33506 0.74613-0.74744 0.74613-0.41237 0-0.74699-0.33419-0.74699-0.74613 0-0.4115 0.33462-0.74569 0.74699-0.74569 0.41238 0 0.74744 0.33419 0.74744 0.74569z"/>
   <path d="m78.802 404.07c0 0.41194-0.33506 0.74613-0.74744 0.74613-0.41237 0-0.74699-0.33419-0.74699-0.74613 0-0.4115 0.33462-0.74569 0.74699-0.74569 0.41238 0 0.74744 0.33419 0.74744 0.74569z"/>
   <path d="m80.561 404.07c0 0.41194-0.33506 0.74613-0.74744 0.74613-0.41237 0-0.74699-0.33419-0.74699-0.74613 0-0.4115 0.33462-0.74569 0.74699-0.74569 0.41238 0 0.74744 0.33419 0.74744 0.74569z"/>
   <path d="m82.321 404.07c0 0.41194-0.33506 0.74613-0.74744 0.74613-0.41237 0-0.74699-0.33419-0.74699-0.74613 0-0.4115 0.33462-0.74569 0.74699-0.74569 0.41238 0 0.74744 0.33419 0.74744 0.74569z"/>
   <path d="m84.08 404.07c0 0.41194-0.33506 0.74613-0.74744 0.74613-0.41237 0-0.74699-0.33419-0.74699-0.74613 0-0.4115 0.33462-0.74569 0.74699-0.74569 0.41238 0 0.74744 0.33419 0.74744 0.74569z"/>
   <path d="m85.84 404.07c0 0.41194-0.33506 0.74613-0.74744 0.74613-0.41237 0-0.74699-0.33419-0.74699-0.74613 0-0.4115 0.33462-0.74569 0.74699-0.74569 0.41238 0 0.74744 0.33419 0.74744 0.74569z"/>
   <path d="m87.599 404.07c0 0.41194-0.33506 0.74613-0.74744 0.74613-0.41237 0-0.74699-0.33419-0.74699-0.74613 0-0.4115 0.33462-0.74569 0.74699-0.74569 0.41238 0 0.74744 0.33419 0.74744 0.74569z"/>
   <path d="m89.359 404.07c0 0.41194-0.33506 0.74613-0.74744 0.74613-0.41237 0-0.74699-0.33419-0.74699-0.74613 0-0.4115 0.33462-0.74569 0.74699-0.74569 0.41238 0 0.74744 0.33419 0.74744 0.74569z"/>
  </g>
  <g transform="translate(.070414 -.046947)" fill="#1a1a1a" stroke="#000" stroke-width=".031132">
   <path d="m76.045 405.68c0 0.41194-0.33506 0.74613-0.74744 0.74613-0.41237 0-0.74699-0.33419-0.74699-0.74613 0-0.4115 0.33462-0.74569 0.74699-0.74569 0.41238 0 0.74744 0.33419 0.74744 0.74569z"/>
   <path d="m77.805 405.68c0 0.41194-0.33506 0.74613-0.74744 0.74613-0.41237 0-0.74699-0.33419-0.74699-0.74613 0-0.4115 0.33462-0.74569 0.74699-0.74569 0.41238 0 0.74744 0.33419 0.74744 0.74569z"/>
   <path d="m79.564 405.68c0 0.41194-0.33506 0.74613-0.74744 0.74613-0.41237 0-0.74699-0.33419-0.74699-0.74613 0-0.4115 0.33462-0.74569 0.74699-0.74569 0.41238 0 0.74744 0.33419 0.74744 0.74569z"/>
   <path d="m81.324 405.68c0 0.41194-0.33506 0.74613-0.74744 0.74613-0.41237 0-0.74699-0.33419-0.74699-0.74613 0-0.4115 0.33462-0.74569 0.74699-0.74569 0.41238 0 0.74744 0.33419 0.74744 0.74569z"/>
   <path d="m83.083 405.68c0 0.41194-0.33506 0.74613-0.74744 0.74613-0.41237 0-0.74699-0.33419-0.74699-0.74613 0-0.4115 0.33462-0.74569 0.74699-0.74569 0.41238 0 0.74744 0.33419 0.74744 0.74569z"/>
   <path d="m84.843 405.68c0 0.41194-0.33506 0.74613-0.74744 0.74613-0.41237 0-0.74699-0.33419-0.74699-0.74613 0-0.4115 0.33462-0.74569 0.74699-0.74569 0.41238 0 0.74744 0.33419 0.74744 0.74569z"/>
   <path d="m86.602 405.68c0 0.41194-0.33506 0.74613-0.74744 0.74613-0.41237 0-0.74699-0.33419-0.74699-0.74613 0-0.4115 0.33462-0.74569 0.74699-0.74569 0.41238 0 0.74744 0.33419 0.74744 0.74569z"/>
   <path d="m88.362 405.68c0 0.41194-0.33506 0.74613-0.74744 0.74613-0.41237 0-0.74699-0.33419-0.74699-0.74613 0-0.4115 0.33462-0.74569 0.74699-0.74569 0.41238 0 0.74744 0.33419 0.74744 0.74569z"/>
   <path d="m90.121 405.68c0 0.41194-0.33506 0.74613-0.74744 0.74613-0.41237 0-0.74699-0.33419-0.74699-0.74613 0-0.4115 0.33462-0.74569 0.74699-0.74569 0.41238 0 0.74744 0.33419 0.74744 0.74569z"/>
  </g>
  <g transform="translate(.14423 -.013986)" fill="#1a1a1a" stroke="#000" stroke-width=".031132">
   <path d="m76.851 407.17c0 0.41194-0.33506 0.74613-0.74744 0.74613-0.41237 0-0.74699-0.33419-0.74699-0.74613 0-0.4115 0.33462-0.74569 0.74699-0.74569 0.41238 0 0.74744 0.33419 0.74744 0.74569z"/>
   <path d="m78.611 407.17c0 0.41194-0.33506 0.74613-0.74744 0.74613-0.41237 0-0.74699-0.33419-0.74699-0.74613 0-0.4115 0.33462-0.74569 0.74699-0.74569 0.41238 0 0.74744 0.33419 0.74744 0.74569z"/>
   <path d="m80.37 407.17c0 0.41194-0.33506 0.74613-0.74744 0.74613-0.41237 0-0.74699-0.33419-0.74699-0.74613 0-0.4115 0.33462-0.74569 0.74699-0.74569 0.41238 0 0.74744 0.33419 0.74744 0.74569z"/>
   <path d="m82.13 407.17c0 0.41194-0.33506 0.74613-0.74744 0.74613-0.41237 0-0.74699-0.33419-0.74699-0.74613 0-0.4115 0.33462-0.74569 0.74699-0.74569 0.41238 0 0.74744 0.33419 0.74744 0.74569z"/>
   <path d="m83.889 407.17c0 0.41194-0.33506 0.74613-0.74744 0.74613-0.41237 0-0.74699-0.33419-0.74699-0.74613 0-0.4115 0.33462-0.74569 0.74699-0.74569 0.41238 0 0.74744 0.33419 0.74744 0.74569z"/>
   <path d="m85.649 407.17c0 0.41194-0.33506 0.74613-0.74744 0.74613-0.41237 0-0.74699-0.33419-0.74699-0.74613 0-0.4115 0.33462-0.74569 0.74699-0.74569 0.41238 0 0.74744 0.33419 0.74744 0.74569z"/>
   <path d="m87.408 407.17c0 0.41194-0.33506 0.74613-0.74744 0.74613-0.41237 0-0.74699-0.33419-0.74699-0.74613 0-0.4115 0.33462-0.74569 0.74699-0.74569 0.41238 0 0.74744 0.33419 0.74744 0.74569z"/>
   <path d="m89.167 407.17c0 0.41194-0.33506 0.74613-0.74744 0.74613-0.41237 0-0.74699-0.33419-0.74699-0.74613 0-0.4115 0.33462-0.74569 0.74699-0.74569 0.41238 0 0.74744 0.33419 0.74744 0.74569z"/>
  </g>
  <g transform="translate(.070414 2.998)" fill="#1a1a1a" stroke="#000" stroke-width=".031132">
   <path d="m76.045 405.68c0 0.41194-0.33506 0.74613-0.74744 0.74613-0.41237 0-0.74699-0.33419-0.74699-0.74613 0-0.4115 0.33462-0.74569 0.74699-0.74569 0.41238 0 0.74744 0.33419 0.74744 0.74569z"/>
   <path d="m77.805 405.68c0 0.41194-0.33506 0.74613-0.74744 0.74613-0.41237 0-0.74699-0.33419-0.74699-0.74613 0-0.4115 0.33462-0.74569 0.74699-0.74569 0.41238 0 0.74744 0.33419 0.74744 0.74569z"/>
   <path d="m79.564 405.68c0 0.41194-0.33506 0.74613-0.74744 0.74613-0.41237 0-0.74699-0.33419-0.74699-0.74613 0-0.4115 0.33462-0.74569 0.74699-0.74569 0.41238 0 0.74744 0.33419 0.74744 0.74569z"/>
   <path d="m81.324 405.68c0 0.41194-0.33506 0.74613-0.74744 0.74613-0.41237 0-0.74699-0.33419-0.74699-0.74613 0-0.4115 0.33462-0.74569 0.74699-0.74569 0.41238 0 0.74744 0.33419 0.74744 0.74569z"/>
   <path d="m83.083 405.68c0 0.41194-0.33506 0.74613-0.74744 0.74613-0.41237 0-0.74699-0.33419-0.74699-0.74613 0-0.4115 0.33462-0.74569 0.74699-0.74569 0.41238 0 0.74744 0.33419 0.74744 0.74569z"/>
   <path d="m84.843 405.68c0 0.41194-0.33506 0.74613-0.74744 0.74613-0.41237 0-0.74699-0.33419-0.74699-0.74613 0-0.4115 0.33462-0.74569 0.74699-0.74569 0.41238 0 0.74744 0.33419 0.74744 0.74569z"/>
   <path d="m86.602 405.68c0 0.41194-0.33506 0.74613-0.74744 0.74613-0.41237 0-0.74699-0.33419-0.74699-0.74613 0-0.4115 0.33462-0.74569 0.74699-0.74569 0.41238 0 0.74744 0.33419 0.74744 0.74569z"/>
   <path d="m88.362 405.68c0 0.41194-0.33506 0.74613-0.74744 0.74613-0.41237 0-0.74699-0.33419-0.74699-0.74613 0-0.4115 0.33462-0.74569 0.74699-0.74569 0.41238 0 0.74744 0.33419 0.74744 0.74569z"/>
   <path d="m90.121 405.68c0 0.41194-0.33506 0.74613-0.74744 0.74613-0.41237 0-0.74699-0.33419-0.74699-0.74613 0-0.4115 0.33462-0.74569 0.74699-0.74569 0.41238 0 0.74744 0.33419 0.74744 0.74569z"/>
  </g>
  <g transform="translate(0 -.090389)" fill="#1a1a1a" stroke="#000" stroke-width=".031132">
   <path d="m123.22 402.98c0 0.41194-0.33506 0.74613-0.74744 0.74613-0.41237 0-0.74699-0.33419-0.74699-0.74613 0-0.4115 0.33462-0.74569 0.74699-0.74569 0.41238 0 0.74744 0.33419 0.74744 0.74569z"/>
   <path d="m124.98 402.98c0 0.41194-0.33505 0.74613-0.74744 0.74613-0.41237 0-0.74699-0.33419-0.74699-0.74613 0-0.4115 0.33462-0.74569 0.74699-0.74569 0.41239 0 0.74744 0.33419 0.74744 0.74569z"/>
   <path d="m126.74 402.98c0 0.41194-0.33506 0.74613-0.74744 0.74613s-0.747-0.33419-0.747-0.74613c0-0.4115 0.33462-0.74569 0.747-0.74569s0.74744 0.33419 0.74744 0.74569z"/>
   <path d="m128.5 402.98c0 0.41194-0.33506 0.74613-0.74744 0.74613-0.41237 0-0.74699-0.33419-0.74699-0.74613 0-0.4115 0.33462-0.74569 0.74699-0.74569 0.41238 0 0.74744 0.33419 0.74744 0.74569z"/>
   <path d="m130.26 402.98c0 0.41194-0.33505 0.74613-0.74744 0.74613-0.41237 0-0.74699-0.33419-0.74699-0.74613 0-0.4115 0.33462-0.74569 0.74699-0.74569 0.41239 0 0.74744 0.33419 0.74744 0.74569z"/>
  </g>
  <g transform="translate(-1e-5)" fill="#1a1a1a" stroke="#000" stroke-width=".031132">
   <path d="m124.1 404.51c0 0.41194-0.33506 0.74613-0.74744 0.74613-0.41237 0-0.74699-0.33419-0.74699-0.74613 0-0.4115 0.33462-0.74569 0.74699-0.74569 0.41238 0 0.74744 0.33419 0.74744 0.74569z"/>
   <path d="m125.86 404.51c0 0.41194-0.33506 0.74613-0.74744 0.74613-0.41237 0-0.74699-0.33419-0.74699-0.74613 0-0.4115 0.33462-0.74569 0.74699-0.74569 0.41238 0 0.74744 0.33419 0.74744 0.74569z"/>
   <path d="m127.62 404.51c0 0.41194-0.33506 0.74613-0.74744 0.74613-0.41237 0-0.74699-0.33419-0.74699-0.74613 0-0.4115 0.33462-0.74569 0.74699-0.74569 0.41238 0 0.74744 0.33419 0.74744 0.74569z"/>
   <path d="m129.38 404.51c0 0.41194-0.33506 0.74613-0.74744 0.74613-0.41237 0-0.747-0.33419-0.747-0.74613 0-0.4115 0.33463-0.74569 0.747-0.74569 0.41238 0 0.74744 0.33419 0.74744 0.74569z"/>
  </g>
  <g transform="translate(-1e-5 -3.2257)" fill="#1a1a1a" stroke="#000" stroke-width=".031132">
   <path d="m124.1 404.51c0 0.41194-0.33506 0.74613-0.74744 0.74613-0.41237 0-0.74699-0.33419-0.74699-0.74613 0-0.4115 0.33462-0.74569 0.74699-0.74569 0.41238 0 0.74744 0.33419 0.74744 0.74569z"/>
   <path d="m125.86 404.51c0 0.41194-0.33506 0.74613-0.74744 0.74613-0.41237 0-0.74699-0.33419-0.74699-0.74613 0-0.4115 0.33462-0.74569 0.74699-0.74569 0.41238 0 0.74744 0.33419 0.74744 0.74569z"/>
   <path d="m127.62 404.51c0 0.41194-0.33506 0.74613-0.74744 0.74613-0.41237 0-0.74699-0.33419-0.74699-0.74613 0-0.4115 0.33462-0.74569 0.74699-0.74569 0.41238 0 0.74744 0.33419 0.74744 0.74569z"/>
   <path d="m129.38 404.51c0 0.41194-0.33506 0.74613-0.74744 0.74613-0.41237 0-0.747-0.33419-0.747-0.74613 0-0.4115 0.33463-0.74569 0.747-0.74569 0.41238 0 0.74744 0.33419 0.74744 0.74569z"/>
  </g>
  <g stroke="#000" stroke-linejoin="round">
   <g fill="none">
    <path transform="matrix(.95422 0 0 .96804 3.5677 13.204)" d="m80.946 411.45-0.03596 3.4566-3.0115 1.6972-2.9755-1.7594 0.03596-3.4566 3.0115-1.6972z" stroke-width=".055258"/>
    <ellipse cx="77.934" cy="413.15" rx="3.4379" ry="3.4877" stroke-width=".053109"/>
    <ellipse cx="77.934" cy="413.15" rx="2.2929" ry="2.3261" stroke-width=".053109"/>
   </g>
   <g stroke-width=".053109">
    <ellipse cx="77.934" cy="413.15" rx="1.5592" ry="1.5818" fill="#fff"/>
    <ellipse cx="77.934" cy="413.15" rx=".22108" ry=".22428" fill="#ccc"/>
    <ellipse cx="77.934" cy="413.15" rx="1.697" ry="1.7215" fill="none"/>
    <ellipse cx="77.934" cy="413.15" rx="2.5255" ry="2.5621" fill="none"/>
   </g>
  </g>
  <g transform="translate(8.7451)" stroke="#000" stroke-linejoin="round">
   <path transform="matrix(.95422 0 0 .96804 3.5677 13.204)" d="m80.946 411.45-0.03596 3.4566-3.0115 1.6972-2.9755-1.7594 0.03596-3.4566 3.0115-1.6972z" fill="none" stroke-width=".055258"/>
   <ellipse cx="77.934" cy="413.15" rx="3.4379" ry="3.4877" fill="none" stroke-width=".053109"/>
   <g stroke-width=".053109">
    <ellipse cx="77.934" cy="413.15" rx="2.2929" ry="2.3261" fill="#ccc"/>
    <ellipse cx="77.934" cy="413.15" rx="1.5592" ry="1.5818" fill="#fff"/>
    <ellipse cx="77.934" cy="413.15" rx=".22108" ry=".22428" fill="#e6e6e6"/>
   </g>
   <ellipse cx="77.934" cy="413.15" rx="1.697" ry="1.7215" fill="none" stroke-width=".053109"/>
   <ellipse cx="77.934" cy="413.15" rx="2.5255" ry="2.5621" fill="none" stroke-width=".053109"/>
  </g>
  <rect x="91.023" y="401.52" width="9.4362" height="14.313" rx=".63742" fill="#ccc" stroke="#000" stroke-linejoin="round" stroke-width=".092641"/>
  <g transform="matrix(1.0006 0 0 .99268 -21.157 65.502)">
   <path d="m112.86 345.71 7.9403 1e-5v-7.0375l-7.9403 2.2e-4z" fill="#3a3a3a"/>
   <g transform="matrix(.0080706 0 0 .0080636 100.22 374.68)">
    <path d="m2550.5-3593.2v-872.75l-983.84 0.025v872.71z" fill="none" stroke="#000" stroke-linecap="square" stroke-width=".67568"/>
   </g>
   <path d="m113.63 340.44h1.7574l-3e-3 -1.0731 0.63956-5.7e-4v-0.40181h2.0614l-4.8e-4 0.40286h0.6657v1.0732h1.7493v4.6204l-6.8696 0.015z" fill="#1a1a1a"/>
   <g fill="#ffac00">
    <path d="m115.21 345.08h0.21938v-1.3498h-0.21938v1.3498z"/>
    <path d="m115.7 345.08h0.21938v-1.3498h-0.21938v1.3498z"/>
    <path d="m116.21 345.08h0.21931v-1.3498h-0.21931v1.3498z"/>
    <path d="m116.72 345.08h0.21938v-1.3498h-0.21938v1.3498z"/>
    <path d="m117.21 345.08h0.21938v-1.3498h-0.21938v1.3498z"/>
    <path d="m117.71 345.08h0.21932v-1.3498h-0.21932v1.3498z"/>
    <path d="m118.24 345.08h0.21986v-1.3498h-0.21986v1.3498z"/>
    <path d="m118.73 345.08h0.21931v-1.3498h-0.21931v1.3498z"/>
   </g>
   <g>
    <path d="m118.91 340.16h1.7357v-0.75438h-1.7357v0.75438z" fill="#abb927"/>
    <path d="m113.48 340.16h1.751v-0.75831h-1.751v0.75831z" fill="#ff7d00"/>
    <path d="m120.8 345.71-7.9401-2e-5v7.0373l7.9401 2.4e-4z" fill="#3a3a3a"/>
   </g>
   <g transform="matrix(-.0080706 0 0 -.0080636 133.93 316.74)">
    <path d="m2609.9-3593.3v-872.71l-983.83-0.028v872.75z" fill="none" stroke="#000" stroke-linecap="square" stroke-width=".67568"/>
   </g>
   <path d="m120.51 350.97h-1.7574l3e-3 1.0731-0.63956 5.7e-4v0.40181h-2.0614l4.8e-4 -0.40286h-0.6657v-1.0732h-1.7493v-4.6204l6.8696-0.015z" fill="#1a1a1a"/>
   <g fill="#ffac00">
    <path d="m118.93 346.34h-0.21938v1.3498h0.21938v-1.3498z"/>
    <path d="m118.44 346.34h-0.21938v1.3498h0.21938v-1.3498z"/>
    <path d="m117.94 346.34h-0.21931v1.3498h0.21931v-1.3498z"/>
    <path d="m117.42 346.34h-0.21938v1.3498h0.21938v-1.3498z"/>
    <path d="m116.93 346.34h-0.21938v1.3498h0.21938v-1.3498z"/>
    <path d="m116.43 346.34h-0.21932v1.3498h0.21932v-1.3498z"/>
    <path d="m115.91 346.34h-0.21986v1.3498h0.21986v-1.3498z"/>
    <path d="m115.42 346.34h-0.21931v1.3498h0.21931v-1.3498z"/>
   </g>
   <g>
    <path d="m115.23 351.26h-1.7357v0.75438h1.7357v-0.75438z" fill="#abb927"/>
    <path d="m120.67 351.26h-1.751v0.75831h1.751v-0.75831z" fill="#ff7d00"/>
    <path transform="matrix(.53109 0 0 .53109 66 374.35)" d="m103.18-67.181-4.3903-0.0018v1.2752l4.2565-0.0019v1.6507l-0.4201 0.01318-1e-3 9.1065-9e-3 0.0099-12.928 0.01807-9.03e-4 -9.1344-0.42012-0.01318v-1.6507l4.2317 0.0019v-1.2752l-5.2703 0.0018 0.0034 26.511 5.2951 0.0018v-1.2752l-4.2565 0.0019v-1.6507l0.4201-0.01318 0.0011-9.0518 12.937-0.0075 9.1e-4 9.0588 0.42011 0.01318v1.6507l-4.2317-0.0019v1.2752l4.3658-0.0018z" fill="#ebebeb"/>
   </g>
  </g>
  <g transform="translate(-.21932 .19261)">
   <rect x="102.06" y="401.36" width="8.374" height="13.848" rx=".63742" fill="#ccc" stroke="#000" stroke-linejoin="round" stroke-width=".092641"/>
   <g transform="matrix(.58063 0 0 .66561 29.334 142.42)">
    <rect x="125.95" y="399.76" width="13.005" height="6.133" fill="#bfbfbf" stroke="#000" stroke-linecap="round" stroke-linejoin="round" stroke-miterlimit="10" stroke-width=".098128"/>
    <g transform="translate(-151.47 32.922)">
     <g transform="matrix(1.1392 0 0 1.0628 -9.5661 -40.967)">
      <rect x="251.98" y="383.74" width="11.333" height="5.639"/>
      <rect x="251.98" y="383.74" width="11.319" height="5.6234" fill="none" stroke="#7f7f7f" stroke-width=".2"/>
     </g>
     <g transform="matrix(1.1392 0 0 1.0628 -9.5661 -40.967)">
      <polygon points="256.98 386.54 256.98 383.94 253.58 383.94 252.18 383.94 252.18 386.54"/>
      <polygon transform="matrix(2.2457 0 0 1.9606 -314.08 -368.76)" points="253.58 383.94 252.18 383.94 252.18 386.54 256.98 386.54 256.98 383.94" fill="none" stroke="#7f7f7f" stroke-width=".023002"/>
     </g>
    </g>
   </g>
   <g transform="matrix(.58063 0 0 .66561 29.334 137.91)">
    <rect x="125.95" y="399.76" width="13.005" height="6.133" fill="#bfbfbf" stroke="#000" stroke-linecap="round" stroke-linejoin="round" stroke-miterlimit="10" stroke-width=".098128"/>
    <g transform="translate(-151.47 32.922)">
     <g transform="matrix(1.1392 0 0 1.0628 -9.5661 -40.967)">
      <rect x="251.98" y="383.74" width="11.333" height="5.639"/>
      <rect x="251.98" y="383.74" width="11.319" height="5.6234" fill="none" stroke="#7f7f7f" stroke-width=".2"/>
     </g>
     <g transform="matrix(1.1392 0 0 1.0628 -9.5661 -40.967)">
      <polygon points="253.58 383.94 252.18 383.94 252.18 386.54 256.98 386.54 256.98 383.94"/>
      <polygon transform="matrix(2.2457 0 0 1.9606 -314.08 -368.76)" points="252.18 386.54 256.98 386.54 256.98 383.94 253.58 383.94 252.18 383.94" fill="none" stroke="#7f7f7f" stroke-width=".023002"/>
     </g>
    </g>
   </g>
  </g>
  <rect x="111.6" y="401.33" width="9.4362" height="14.313" rx=".63742" fill="#ccc" stroke="#000" stroke-linejoin="round" stroke-width=".092641"/>
  <g transform="matrix(1.0006 0 0 .99268 -.57702 65.303)">
   <path d="m112.86 345.71 7.9403 1e-5v-7.0375l-7.9403 2.2e-4z" fill="#3a3a3a"/>
   <g transform="matrix(.0080706 0 0 .0080636 100.22 374.68)">
    <path d="m2550.5-3593.2v-872.75l-983.84 0.025v872.71z" fill="none" stroke="#000" stroke-linecap="square" stroke-width=".67568"/>
   </g>
   <path d="m113.63 340.44h1.7574l-3e-3 -1.0731 0.63956-5.7e-4v-0.40181h2.0614l-4.8e-4 0.40286h0.6657v1.0732h1.7493v4.6204l-6.8696 0.015z" fill="#1a1a1a"/>
   <g fill="#ffac00">
    <path d="m115.21 345.08h0.21938v-1.3498h-0.21938v1.3498z"/>
    <path d="m115.7 345.08h0.21938v-1.3498h-0.21938v1.3498z"/>
    <path d="m116.21 345.08h0.21931v-1.3498h-0.21931v1.3498z"/>
    <path d="m116.72 345.08h0.21938v-1.3498h-0.21938v1.3498z"/>
    <path d="m117.21 345.08h0.21938v-1.3498h-0.21938v1.3498z"/>
    <path d="m117.71 345.08h0.21932v-1.3498h-0.21932v1.3498z"/>
    <path d="m118.24 345.08h0.21986v-1.3498h-0.21986v1.3498z"/>
    <path d="m118.73 345.08h0.21931v-1.3498h-0.21931v1.3498z"/>
   </g>
   <g>
    <path d="m118.91 340.16h1.7357v-0.75438h-1.7357v0.75438z" fill="#abb927"/>
    <path d="m113.48 340.16h1.751v-0.75831h-1.751v0.75831z" fill="#ff7d00"/>
    <path d="m120.8 345.71-7.9401-2e-5v7.0373l7.9401 2.4e-4z" fill="#3a3a3a"/>
   </g>
   <g transform="matrix(-.0080706 0 0 -.0080636 133.93 316.74)">
    <path d="m2609.9-3593.3v-872.71l-983.83-0.028v872.75z" fill="none" stroke="#000" stroke-linecap="square" stroke-width=".67568"/>
   </g>
   <path d="m120.51 350.97h-1.7574l3e-3 1.0731-0.63956 5.7e-4v0.40181h-2.0614l4.8e-4 -0.40286h-0.6657v-1.0732h-1.7493v-4.6204l6.8696-0.015z" fill="#1a1a1a"/>
   <g fill="#ffac00">
    <path d="m118.93 346.34h-0.21938v1.3498h0.21938v-1.3498z"/>
    <path d="m118.44 346.34h-0.21938v1.3498h0.21938v-1.3498z"/>
    <path d="m117.94 346.34h-0.21931v1.3498h0.21931v-1.3498z"/>
    <path d="m117.42 346.34h-0.21938v1.3498h0.21938v-1.3498z"/>
    <path d="m116.93 346.34h-0.21938v1.3498h0.21938v-1.3498z"/>
    <path d="m116.43 346.34h-0.21932v1.3498h0.21932v-1.3498z"/>
    <path d="m115.91 346.34h-0.21986v1.3498h0.21986v-1.3498z"/>
    <path d="m115.42 346.34h-0.21931v1.3498h0.21931v-1.3498z"/>
   </g>
   <g>
    <path d="m115.23 351.26h-1.7357v0.75438h1.7357v-0.75438z" fill="#abb927"/>
    <path d="m120.67 351.26h-1.751v0.75831h1.751v-0.75831z" fill="#ff7d00"/>
    <path transform="matrix(.53109 0 0 .53109 66 374.35)" d="m103.18-67.181-4.3903-0.0018v1.2752l4.2565-0.0019v1.6507l-0.4201 0.01318-1e-3 9.1065-9e-3 0.0099-12.928 0.01807-9.03e-4 -9.1344-0.42012-0.01318v-1.6507l4.2317 0.0019v-1.2752l-5.2703 0.0018 0.0034 26.511 5.2951 0.0018v-1.2752l-4.2565 0.0019v-1.6507l0.4201-0.01318 0.0011-9.0518 12.937-0.0075 9.1e-4 9.0588 0.42011 0.01318v1.6507l-4.2317-0.0019v1.2752l4.3658-0.0018z" fill="#ebebeb"/>
   </g>
  </g>
  <g transform="matrix(1.3824 0 0 1.3824 -266.11 -84.264)" stroke-width=".035713">
   <g stroke="#000">
    <path d="m289.38 354.15c0 0.79676-0.62439 1.4437-1.3931 1.4437-0.7687 0-1.3926-0.64693-1.3926-1.4437 0-0.79726 0.62387-1.4442 1.3926-1.4442 0.76869 0 1.3931 0.64693 1.3931 1.4442z" fill="#999"/>
    <path d="m289.38 354.15c0 0.79676-0.62439 1.4437-1.3931 1.4437-0.7687 0-1.3926-0.64693-1.3926-1.4437 0-0.79726 0.62387-1.4442 1.3926-1.4442 0.76869 0 1.3931 0.64693 1.3931 1.4442z" fill="none"/>
    <path d="m289.03 354.17c0 0.5903-0.46402 1.0699-1.0358 1.0699-0.57176 0-1.0353-0.47956-1.0353-1.0699 0-0.59031 0.46352-1.0694 1.0353-1.0694 0.57177 0 1.0358 0.47905 1.0358 1.0694z" fill="#666"/>
    <path d="m289.03 354.17c0 0.5903-0.46402 1.0699-1.0358 1.0699-0.57176 0-1.0353-0.47956-1.0353-1.0699 0-0.59031 0.46352-1.0694 1.0353-1.0694 0.57177 0 1.0358 0.47905 1.0358 1.0694z" fill="none"/>
    <path d="m288.92 354.15c0 0.5412-0.42395 0.98017-0.9461 0.98017-0.52265 0-0.94659-0.43897-0.94659-0.98017s0.42394-0.98067 0.94659-0.98067c0.52215 0 0.9461 0.43947 0.9461 0.98067z" fill="#ddd"/>
   </g>
   <path d="m288.92 354.15c0 0.5412-0.42395 0.98017-0.9461 0.98017-0.52265 0-0.94659-0.43897-0.94659-0.98017s0.42394-0.98067 0.94659-0.98067c0.52215 0 0.9461 0.43947 0.9461 0.98067z" fill="none" stroke="#ddd"/>
   <path d="m287.28 354.1h-0.0356l-0.0361 0.0356v0.0356h-0.0356v0.1784h0.0356v0.0356l0.0361 0.0356h0.67851v0.74866h0.0356v0.0356h0.0356v0.0361h0.1789v-0.0361h0.0356v-0.0356h0.0356v-0.74866h0.71458v-0.0356h0.0356v-0.0356h0.0356v-0.1784h-0.0356v-0.0356h-0.0356v-0.0356h-0.71458v-0.71308l-0.0356-0.0356h-0.0356v-0.0356h-0.1789v0.0356h-0.0356l-0.0356 0.0356v0.71308h-0.60735-0.0356z" fill="#484848" stroke="#151515"/>
   <path d="m287.13 354.2v0.14281l0.0356 0.0356h0.0356v0.0356h0.71458v0.78423l0.0356 0.0361h0.0356v0.0356h0.10724 0.0356" fill="none" stroke="#bebebe"/>
   <path d="m287.92 353.38v0.6775 0.0356" fill="none" stroke="#bebebe"/>
  </g>
  <g transform="matrix(1.3824 0 0 1.3824 -325.82 -84.264)" stroke-width=".035713">
   <g stroke="#000">
    <path d="m289.38 354.15c0 0.79676-0.62439 1.4437-1.3931 1.4437-0.7687 0-1.3926-0.64693-1.3926-1.4437 0-0.79726 0.62387-1.4442 1.3926-1.4442 0.76869 0 1.3931 0.64693 1.3931 1.4442z" fill="#999"/>
    <path d="m289.38 354.15c0 0.79676-0.62439 1.4437-1.3931 1.4437-0.7687 0-1.3926-0.64693-1.3926-1.4437 0-0.79726 0.62387-1.4442 1.3926-1.4442 0.76869 0 1.3931 0.64693 1.3931 1.4442z" fill="none"/>
    <path d="m289.03 354.17c0 0.5903-0.46402 1.0699-1.0358 1.0699-0.57176 0-1.0353-0.47956-1.0353-1.0699 0-0.59031 0.46352-1.0694 1.0353-1.0694 0.57177 0 1.0358 0.47905 1.0358 1.0694z" fill="#666"/>
    <path d="m289.03 354.17c0 0.5903-0.46402 1.0699-1.0358 1.0699-0.57176 0-1.0353-0.47956-1.0353-1.0699 0-0.59031 0.46352-1.0694 1.0353-1.0694 0.57177 0 1.0358 0.47905 1.0358 1.0694z" fill="none"/>
    <path d="m288.92 354.15c0 0.5412-0.42395 0.98017-0.9461 0.98017-0.52265 0-0.94659-0.43897-0.94659-0.98017s0.42394-0.98067 0.94659-0.98067c0.52215 0 0.9461 0.43947 0.9461 0.98067z" fill="#ddd"/>
   </g>
   <path d="m288.92 354.15c0 0.5412-0.42395 0.98017-0.9461 0.98017-0.52265 0-0.94659-0.43897-0.94659-0.98017s0.42394-0.98067 0.94659-0.98067c0.52215 0 0.9461 0.43947 0.9461 0.98067z" fill="none" stroke="#ddd"/>
   <path d="m287.28 354.1h-0.0356l-0.0361 0.0356v0.0356h-0.0356v0.1784h0.0356v0.0356l0.0361 0.0356h0.67851v0.74866h0.0356v0.0356h0.0356v0.0361h0.1789v-0.0361h0.0356v-0.0356h0.0356v-0.74866h0.71458v-0.0356h0.0356v-0.0356h0.0356v-0.1784h-0.0356v-0.0356h-0.0356v-0.0356h-0.71458v-0.71308l-0.0356-0.0356h-0.0356v-0.0356h-0.1789v0.0356h-0.0356l-0.0356 0.0356v0.71308h-0.60735-0.0356z" fill="#484848" stroke="#151515"/>
   <path d="m287.13 354.2v0.14281l0.0356 0.0356h0.0356v0.0356h0.71458v0.78423l0.0356 0.0361h0.0356v0.0356h0.10724 0.0356" fill="none" stroke="#bebebe"/>
   <path d="m287.92 353.38v0.6775 0.0356" fill="none" stroke="#bebebe"/>
  </g>
  <g fill="#000000" font-family="sans-serif" letter-spacing="0px" stroke-width="1px" word-spacing="0px">
   <text x="92.944847" y="401.04675" style="line-height:0%" xml:space="preserve"><tspan x="92.944847" y="401.04675" font-size="2.6555px" style="line-height:1.25">NMS</tspan></text>
   <text x="107.7443" y="400.98065" style="line-height:0%" xml:space="preserve"><tspan x="107.7443" y="400.98065" font-size="2.6555px" style="line-height:1.25">GE1</tspan></text>
   <text x="108.21071" y="417.84586" style="line-height:0%" xml:space="preserve"><tspan x="108.21071" y="417.84586" font-size="2.6555px" style="line-height:1.25">GE2</tspan></text>
  </g>
  <path d="m89.635 417.14h-0.0717l-0.1779 0.21427-0.10723 0.39287v0.28568l0.10723 0.42855 0.1779 0.21427h17.195l0.1784-0.21427 0.10674-0.42855v-0.28568l-0.10674-0.39287-0.1784-0.21427h-0.0711-17.052z" fill="#808080" stroke="#000" stroke-width=".071425"/>
  <text x="75.393524" y="418.92502" fill="#000000" font-family="sans-serif" letter-spacing="0px" stroke-width="1px" word-spacing="0px" style="line-height:0%" xml:space="preserve"><tspan x="75.393524" y="418.92502" font-size="2.6555px" style="line-height:1.25">RF1</tspan></text>
  <text x="84.149017" y="418.94254" fill="#000000" font-family="sans-serif" letter-spacing="0px" stroke-width="1px" word-spacing="0px" style="line-height:0%" xml:space="preserve"><tspan x="84.149017" y="418.94254" font-size="2.6555px" style="line-height:1.25">RF2</tspan></text>
 </g>
 <g transform="matrix(1.0667 0 0 1.0667 73.107 -28.249)">
  <g transform="matrix(1.4471 0 0 1.2739 -43.337 -113.21)" fill="#ccc" stroke="#ccc" stroke-linejoin="round" stroke-width="1.6512">
   <path d="m77.647 402.73h45.594v15.628h-45.594z" fill="#ccc" stroke="#ccc" stroke-linejoin="round" stroke-width="1.6512"/>
  </g>
  <g fill="#0f0" stroke="#000" stroke-width=".035713">
   <path d="m124.26 411.29c0 0.47255-0.38435 0.8559-0.8574 0.8559-0.47304 0-0.85689-0.38335-0.85689-0.8559 0-0.47204 0.38385-0.85539 0.85689-0.85539 0.47305 0 0.8574 0.38335 0.8574 0.85539z"/>
   <path d="m124.26 414.14c0 0.47204-0.38435 0.85539-0.8574 0.85539-0.47304 0-0.85689-0.38335-0.85689-0.85539 0-0.47254 0.38385-0.85589 0.85689-0.85589 0.47305 0 0.8574 0.38335 0.8574 0.85589z"/>
   <path d="m127.17 411.29c0 0.47255-0.38435 0.8559-0.8574 0.8559-0.47304 0-0.85689-0.38335-0.85689-0.8559 0-0.47204 0.38385-0.85539 0.85689-0.85539 0.47305 0 0.8574 0.38335 0.8574 0.85539z"/>
   <path d="m127.17 414.14c0 0.47204-0.38435 0.85539-0.8574 0.85539-0.47304 0-0.85689-0.38335-0.85689-0.85539 0-0.47254 0.38385-0.85589 0.85689-0.85589 0.47305 0 0.8574 0.38335 0.8574 0.85589z"/>
  </g>
  <path d="m131.82 413.48c0 0.47204-0.38435 0.85539-0.8574 0.85539-0.47304 0-0.85689-0.38335-0.85689-0.85539 0-0.47254 0.38385-0.85589 0.85689-0.85589 0.47305 0 0.8574 0.38335 0.8574 0.85589z" fill="#666" stroke="#4d4d4d" stroke-width=".035713"/>
  <g transform="translate(-.12076)" fill="#1a1a1a" stroke="#000" stroke-width=".031132">
   <path d="m76.236 402.58c0 0.41194-0.33506 0.74613-0.74744 0.74613-0.41237 0-0.74699-0.33419-0.74699-0.74613 0-0.4115 0.33462-0.74569 0.74699-0.74569 0.41238 0 0.74744 0.33419 0.74744 0.74569z"/>
   <path d="m77.996 402.58c0 0.41194-0.33506 0.74613-0.74744 0.74613-0.41237 0-0.74699-0.33419-0.74699-0.74613 0-0.4115 0.33462-0.74569 0.74699-0.74569 0.41238 0 0.74744 0.33419 0.74744 0.74569z"/>
   <path d="m79.755 402.58c0 0.41194-0.33506 0.74613-0.74744 0.74613-0.41237 0-0.74699-0.33419-0.74699-0.74613 0-0.4115 0.33462-0.74569 0.74699-0.74569 0.41238 0 0.74744 0.33419 0.74744 0.74569z"/>
   <path d="m81.515 402.58c0 0.41194-0.33506 0.74613-0.74744 0.74613-0.41237 0-0.74699-0.33419-0.74699-0.74613 0-0.4115 0.33462-0.74569 0.74699-0.74569 0.41238 0 0.74744 0.33419 0.74744 0.74569z"/>
   <path d="m83.274 402.58c0 0.41194-0.33506 0.74613-0.74744 0.74613-0.41237 0-0.74699-0.33419-0.74699-0.74613 0-0.4115 0.33462-0.74569 0.74699-0.74569 0.41238 0 0.74744 0.33419 0.74744 0.74569z"/>
   <path d="m85.034 402.58c0 0.41194-0.33506 0.74613-0.74744 0.74613-0.41237 0-0.74699-0.33419-0.74699-0.74613 0-0.4115 0.33462-0.74569 0.74699-0.74569 0.41238 0 0.74744 0.33419 0.74744 0.74569z"/>
   <path d="m86.793 402.58c0 0.41194-0.33506 0.74613-0.74744 0.74613-0.41237 0-0.74699-0.33419-0.74699-0.74613 0-0.4115 0.33462-0.74569 0.74699-0.74569 0.41238 0 0.74744 0.33419 0.74744 0.74569z"/>
   <path d="m88.553 402.58c0 0.41194-0.33506 0.74613-0.74744 0.74613-0.41237 0-0.74699-0.33419-0.74699-0.74613 0-0.4115 0.33462-0.74569 0.74699-0.74569 0.41238 0 0.74744 0.33419 0.74744 0.74569z"/>
   <path d="m90.312 402.58c0 0.41194-0.33506 0.74613-0.74744 0.74613-0.41237 0-0.74699-0.33419-0.74699-0.74613 0-0.4115 0.33462-0.74569 0.74699-0.74569 0.41238 0 0.74744 0.33419 0.74744 0.74569z"/>
  </g>
  <g transform="translate(-.046942 .032961)" fill="#1a1a1a" stroke="#000" stroke-width=".031132">
   <path d="m77.042 404.07c0 0.41194-0.33506 0.74613-0.74744 0.74613-0.41237 0-0.74699-0.33419-0.74699-0.74613 0-0.4115 0.33462-0.74569 0.74699-0.74569 0.41238 0 0.74744 0.33419 0.74744 0.74569z"/>
   <path d="m78.802 404.07c0 0.41194-0.33506 0.74613-0.74744 0.74613-0.41237 0-0.74699-0.33419-0.74699-0.74613 0-0.4115 0.33462-0.74569 0.74699-0.74569 0.41238 0 0.74744 0.33419 0.74744 0.74569z"/>
   <path d="m80.561 404.07c0 0.41194-0.33506 0.74613-0.74744 0.74613-0.41237 0-0.74699-0.33419-0.74699-0.74613 0-0.4115 0.33462-0.74569 0.74699-0.74569 0.41238 0 0.74744 0.33419 0.74744 0.74569z"/>
   <path d="m82.321 404.07c0 0.41194-0.33506 0.74613-0.74744 0.74613-0.41237 0-0.74699-0.33419-0.74699-0.74613 0-0.4115 0.33462-0.74569 0.74699-0.74569 0.41238 0 0.74744 0.33419 0.74744 0.74569z"/>
   <path d="m84.08 404.07c0 0.41194-0.33506 0.74613-0.74744 0.74613-0.41237 0-0.74699-0.33419-0.74699-0.74613 0-0.4115 0.33462-0.74569 0.74699-0.74569 0.41238 0 0.74744 0.33419 0.74744 0.74569z"/>
   <path d="m85.84 404.07c0 0.41194-0.33506 0.74613-0.74744 0.74613-0.41237 0-0.74699-0.33419-0.74699-0.74613 0-0.4115 0.33462-0.74569 0.74699-0.74569 0.41238 0 0.74744 0.33419 0.74744 0.74569z"/>
   <path d="m87.599 404.07c0 0.41194-0.33506 0.74613-0.74744 0.74613-0.41237 0-0.74699-0.33419-0.74699-0.74613 0-0.4115 0.33462-0.74569 0.74699-0.74569 0.41238 0 0.74744 0.33419 0.74744 0.74569z"/>
   <path d="m89.359 404.07c0 0.41194-0.33506 0.74613-0.74744 0.74613-0.41237 0-0.74699-0.33419-0.74699-0.74613 0-0.4115 0.33462-0.74569 0.74699-0.74569 0.41238 0 0.74744 0.33419 0.74744 0.74569z"/>
  </g>
  <g transform="translate(.070414 -.046947)" fill="#1a1a1a" stroke="#000" stroke-width=".031132">
   <path d="m76.045 405.68c0 0.41194-0.33506 0.74613-0.74744 0.74613-0.41237 0-0.74699-0.33419-0.74699-0.74613 0-0.4115 0.33462-0.74569 0.74699-0.74569 0.41238 0 0.74744 0.33419 0.74744 0.74569z"/>
   <path d="m77.805 405.68c0 0.41194-0.33506 0.74613-0.74744 0.74613-0.41237 0-0.74699-0.33419-0.74699-0.74613 0-0.4115 0.33462-0.74569 0.74699-0.74569 0.41238 0 0.74744 0.33419 0.74744 0.74569z"/>
   <path d="m79.564 405.68c0 0.41194-0.33506 0.74613-0.74744 0.74613-0.41237 0-0.74699-0.33419-0.74699-0.74613 0-0.4115 0.33462-0.74569 0.74699-0.74569 0.41238 0 0.74744 0.33419 0.74744 0.74569z"/>
   <path d="m81.324 405.68c0 0.41194-0.33506 0.74613-0.74744 0.74613-0.41237 0-0.74699-0.33419-0.74699-0.74613 0-0.4115 0.33462-0.74569 0.74699-0.74569 0.41238 0 0.74744 0.33419 0.74744 0.74569z"/>
   <path d="m83.083 405.68c0 0.41194-0.33506 0.74613-0.74744 0.74613-0.41237 0-0.74699-0.33419-0.74699-0.74613 0-0.4115 0.33462-0.74569 0.74699-0.74569 0.41238 0 0.74744 0.33419 0.74744 0.74569z"/>
   <path d="m84.843 405.68c0 0.41194-0.33506 0.74613-0.74744 0.74613-0.41237 0-0.74699-0.33419-0.74699-0.74613 0-0.4115 0.33462-0.74569 0.74699-0.74569 0.41238 0 0.74744 0.33419 0.74744 0.74569z"/>
   <path d="m86.602 405.68c0 0.41194-0.33506 0.74613-0.74744 0.74613-0.41237 0-0.74699-0.33419-0.74699-0.74613 0-0.4115 0.33462-0.74569 0.74699-0.74569 0.41238 0 0.74744 0.33419 0.74744 0.74569z"/>
   <path d="m88.362 405.68c0 0.41194-0.33506 0.74613-0.74744 0.74613-0.41237 0-0.74699-0.33419-0.74699-0.74613 0-0.4115 0.33462-0.74569 0.74699-0.74569 0.41238 0 0.74744 0.33419 0.74744 0.74569z"/>
   <path d="m90.121 405.68c0 0.41194-0.33506 0.74613-0.74744 0.74613-0.41237 0-0.74699-0.33419-0.74699-0.74613 0-0.4115 0.33462-0.74569 0.74699-0.74569 0.41238 0 0.74744 0.33419 0.74744 0.74569z"/>
  </g>
  <g transform="translate(.14423 -.013986)" fill="#1a1a1a" stroke="#000" stroke-width=".031132">
   <path d="m76.851 407.17c0 0.41194-0.33506 0.74613-0.74744 0.74613-0.41237 0-0.74699-0.33419-0.74699-0.74613 0-0.4115 0.33462-0.74569 0.74699-0.74569 0.41238 0 0.74744 0.33419 0.74744 0.74569z"/>
   <path d="m78.611 407.17c0 0.41194-0.33506 0.74613-0.74744 0.74613-0.41237 0-0.74699-0.33419-0.74699-0.74613 0-0.4115 0.33462-0.74569 0.74699-0.74569 0.41238 0 0.74744 0.33419 0.74744 0.74569z"/>
   <path d="m80.37 407.17c0 0.41194-0.33506 0.74613-0.74744 0.74613-0.41237 0-0.74699-0.33419-0.74699-0.74613 0-0.4115 0.33462-0.74569 0.74699-0.74569 0.41238 0 0.74744 0.33419 0.74744 0.74569z"/>
   <path d="m82.13 407.17c0 0.41194-0.33506 0.74613-0.74744 0.74613-0.41237 0-0.74699-0.33419-0.74699-0.74613 0-0.4115 0.33462-0.74569 0.74699-0.74569 0.41238 0 0.74744 0.33419 0.74744 0.74569z"/>
   <path d="m83.889 407.17c0 0.41194-0.33506 0.74613-0.74744 0.74613-0.41237 0-0.74699-0.33419-0.74699-0.74613 0-0.4115 0.33462-0.74569 0.74699-0.74569 0.41238 0 0.74744 0.33419 0.74744 0.74569z"/>
   <path d="m85.649 407.17c0 0.41194-0.33506 0.74613-0.74744 0.74613-0.41237 0-0.74699-0.33419-0.74699-0.74613 0-0.4115 0.33462-0.74569 0.74699-0.74569 0.41238 0 0.74744 0.33419 0.74744 0.74569z"/>
   <path d="m87.408 407.17c0 0.41194-0.33506 0.74613-0.74744 0.74613-0.41237 0-0.74699-0.33419-0.74699-0.74613 0-0.4115 0.33462-0.74569 0.74699-0.74569 0.41238 0 0.74744 0.33419 0.74744 0.74569z"/>
   <path d="m89.167 407.17c0 0.41194-0.33506 0.74613-0.74744 0.74613-0.41237 0-0.74699-0.33419-0.74699-0.74613 0-0.4115 0.33462-0.74569 0.74699-0.74569 0.41238 0 0.74744 0.33419 0.74744 0.74569z"/>
  </g>
  <g transform="translate(.070414 2.998)" fill="#1a1a1a" stroke="#000" stroke-width=".031132">
   <path d="m76.045 405.68c0 0.41194-0.33506 0.74613-0.74744 0.74613-0.41237 0-0.74699-0.33419-0.74699-0.74613 0-0.4115 0.33462-0.74569 0.74699-0.74569 0.41238 0 0.74744 0.33419 0.74744 0.74569z"/>
   <path d="m77.805 405.68c0 0.41194-0.33506 0.74613-0.74744 0.74613-0.41237 0-0.74699-0.33419-0.74699-0.74613 0-0.4115 0.33462-0.74569 0.74699-0.74569 0.41238 0 0.74744 0.33419 0.74744 0.74569z"/>
   <path d="m79.564 405.68c0 0.41194-0.33506 0.74613-0.74744 0.74613-0.41237 0-0.74699-0.33419-0.74699-0.74613 0-0.4115 0.33462-0.74569 0.74699-0.74569 0.41238 0 0.74744 0.33419 0.74744 0.74569z"/>
   <path d="m81.324 405.68c0 0.41194-0.33506 0.74613-0.74744 0.74613-0.41237 0-0.74699-0.33419-0.74699-0.74613 0-0.4115 0.33462-0.74569 0.74699-0.74569 0.41238 0 0.74744 0.33419 0.74744 0.74569z"/>
   <path d="m83.083 405.68c0 0.41194-0.33506 0.74613-0.74744 0.74613-0.41237 0-0.74699-0.33419-0.74699-0.74613 0-0.4115 0.33462-0.74569 0.74699-0.74569 0.41238 0 0.74744 0.33419 0.74744 0.74569z"/>
   <path d="m84.843 405.68c0 0.41194-0.33506 0.74613-0.74744 0.74613-0.41237 0-0.74699-0.33419-0.74699-0.74613 0-0.4115 0.33462-0.74569 0.74699-0.74569 0.41238 0 0.74744 0.33419 0.74744 0.74569z"/>
   <path d="m86.602 405.68c0 0.41194-0.33506 0.74613-0.74744 0.74613-0.41237 0-0.74699-0.33419-0.74699-0.74613 0-0.4115 0.33462-0.74569 0.74699-0.74569 0.41238 0 0.74744 0.33419 0.74744 0.74569z"/>
   <path d="m88.362 405.68c0 0.41194-0.33506 0.74613-0.74744 0.74613-0.41237 0-0.74699-0.33419-0.74699-0.74613 0-0.4115 0.33462-0.74569 0.74699-0.74569 0.41238 0 0.74744 0.33419 0.74744 0.74569z"/>
   <path d="m90.121 405.68c0 0.41194-0.33506 0.74613-0.74744 0.74613-0.41237 0-0.74699-0.33419-0.74699-0.74613 0-0.4115 0.33462-0.74569 0.74699-0.74569 0.41238 0 0.74744 0.33419 0.74744 0.74569z"/>
  </g>
  <g transform="translate(0 -.090389)" fill="#1a1a1a" stroke="#000" stroke-width=".031132">
   <path d="m123.22 402.98c0 0.41194-0.33506 0.74613-0.74744 0.74613-0.41237 0-0.74699-0.33419-0.74699-0.74613 0-0.4115 0.33462-0.74569 0.74699-0.74569 0.41238 0 0.74744 0.33419 0.74744 0.74569z"/>
   <path d="m124.98 402.98c0 0.41194-0.33505 0.74613-0.74744 0.74613-0.41237 0-0.74699-0.33419-0.74699-0.74613 0-0.4115 0.33462-0.74569 0.74699-0.74569 0.41239 0 0.74744 0.33419 0.74744 0.74569z"/>
   <path d="m126.74 402.98c0 0.41194-0.33506 0.74613-0.74744 0.74613s-0.747-0.33419-0.747-0.74613c0-0.4115 0.33462-0.74569 0.747-0.74569s0.74744 0.33419 0.74744 0.74569z"/>
   <path d="m128.5 402.98c0 0.41194-0.33506 0.74613-0.74744 0.74613-0.41237 0-0.74699-0.33419-0.74699-0.74613 0-0.4115 0.33462-0.74569 0.74699-0.74569 0.41238 0 0.74744 0.33419 0.74744 0.74569z"/>
   <path d="m130.26 402.98c0 0.41194-0.33505 0.74613-0.74744 0.74613-0.41237 0-0.74699-0.33419-0.74699-0.74613 0-0.4115 0.33462-0.74569 0.74699-0.74569 0.41239 0 0.74744 0.33419 0.74744 0.74569z"/>
  </g>
  <g transform="translate(-1e-5)" fill="#1a1a1a" stroke="#000" stroke-width=".031132">
   <path d="m124.1 404.51c0 0.41194-0.33506 0.74613-0.74744 0.74613-0.41237 0-0.74699-0.33419-0.74699-0.74613 0-0.4115 0.33462-0.74569 0.74699-0.74569 0.41238 0 0.74744 0.33419 0.74744 0.74569z"/>
   <path d="m125.86 404.51c0 0.41194-0.33506 0.74613-0.74744 0.74613-0.41237 0-0.74699-0.33419-0.74699-0.74613 0-0.4115 0.33462-0.74569 0.74699-0.74569 0.41238 0 0.74744 0.33419 0.74744 0.74569z"/>
   <path d="m127.62 404.51c0 0.41194-0.33506 0.74613-0.74744 0.74613-0.41237 0-0.74699-0.33419-0.74699-0.74613 0-0.4115 0.33462-0.74569 0.74699-0.74569 0.41238 0 0.74744 0.33419 0.74744 0.74569z"/>
   <path d="m129.38 404.51c0 0.41194-0.33506 0.74613-0.74744 0.74613-0.41237 0-0.747-0.33419-0.747-0.74613 0-0.4115 0.33463-0.74569 0.747-0.74569 0.41238 0 0.74744 0.33419 0.74744 0.74569z"/>
  </g>
  <g transform="translate(-1e-5 -3.2257)" fill="#1a1a1a" stroke="#000" stroke-width=".031132">
   <path d="m124.1 404.51c0 0.41194-0.33506 0.74613-0.74744 0.74613-0.41237 0-0.74699-0.33419-0.74699-0.74613 0-0.4115 0.33462-0.74569 0.74699-0.74569 0.41238 0 0.74744 0.33419 0.74744 0.74569z"/>
   <path d="m125.86 404.51c0 0.41194-0.33506 0.74613-0.74744 0.74613-0.41237 0-0.74699-0.33419-0.74699-0.74613 0-0.4115 0.33462-0.74569 0.74699-0.74569 0.41238 0 0.74744 0.33419 0.74744 0.74569z"/>
   <path d="m127.62 404.51c0 0.41194-0.33506 0.74613-0.74744 0.74613-0.41237 0-0.74699-0.33419-0.74699-0.74613 0-0.4115 0.33462-0.74569 0.74699-0.74569 0.41238 0 0.74744 0.33419 0.74744 0.74569z"/>
   <path d="m129.38 404.51c0 0.41194-0.33506 0.74613-0.74744 0.74613-0.41237 0-0.747-0.33419-0.747-0.74613 0-0.4115 0.33463-0.74569 0.747-0.74569 0.41238 0 0.74744 0.33419 0.74744 0.74569z"/>
  </g>
  <g stroke="#000" stroke-linejoin="round">
   <g fill="none">
    <path transform="matrix(.95422 0 0 .96804 3.5677 13.204)" d="m80.946 411.45-0.03596 3.4566-3.0115 1.6972-2.9755-1.7594 0.03596-3.4566 3.0115-1.6972z" stroke-width=".055258"/>
    <ellipse cx="77.934" cy="413.15" rx="3.4379" ry="3.4877" stroke-width=".053109"/>
    <ellipse cx="77.934" cy="413.15" rx="2.2929" ry="2.3261" stroke-width=".053109"/>
   </g>
   <g stroke-width=".053109">
    <ellipse cx="77.934" cy="413.15" rx="1.5592" ry="1.5818" fill="#fff"/>
    <ellipse cx="77.934" cy="413.15" rx=".22108" ry=".22428" fill="#ccc"/>
    <ellipse cx="77.934" cy="413.15" rx="1.697" ry="1.7215" fill="none"/>
    <ellipse cx="77.934" cy="413.15" rx="2.5255" ry="2.5621" fill="none"/>
   </g>
  </g>
  <g transform="translate(8.7451)" stroke="#000" stroke-linejoin="round">
   <path transform="matrix(.95422 0 0 .96804 3.5677 13.204)" d="m80.946 411.45-0.03596 3.4566-3.0115 1.6972-2.9755-1.7594 0.03596-3.4566 3.0115-1.6972z" fill="none" stroke-width=".055258"/>
   <ellipse cx="77.934" cy="413.15" rx="3.4379" ry="3.4877" fill="none" stroke-width=".053109"/>
   <g stroke-width=".053109">
    <ellipse cx="77.934" cy="413.15" rx="2.2929" ry="2.3261" fill="#ccc"/>
    <ellipse cx="77.934" cy="413.15" rx="1.5592" ry="1.5818" fill="#fff"/>
    <ellipse cx="77.934" cy="413.15" rx=".22108" ry=".22428" fill="#e6e6e6"/>
   </g>
   <ellipse cx="77.934" cy="413.15" rx="1.697" ry="1.7215" fill="none" stroke-width=".053109"/>
   <ellipse cx="77.934" cy="413.15" rx="2.5255" ry="2.5621" fill="none" stroke-width=".053109"/>
  </g>
  <rect x="91.023" y="401.52" width="9.4362" height="14.313" rx=".63742" fill="#ccc" stroke="#000" stroke-linejoin="round" stroke-width=".092641"/>
  <g transform="matrix(1.0006 0 0 .99268 -21.157 65.502)">
   <path d="m112.86 345.71 7.9403 1e-5v-7.0375l-7.9403 2.2e-4z" fill="#3a3a3a"/>
   <g transform="matrix(.0080706 0 0 .0080636 100.22 374.68)">
    <path d="m2550.5-3593.2v-872.75l-983.84 0.025v872.71z" fill="none" stroke="#000" stroke-linecap="square" stroke-width=".67568"/>
   </g>
   <path d="m113.63 340.44h1.7574l-3e-3 -1.0731 0.63956-5.7e-4v-0.40181h2.0614l-4.8e-4 0.40286h0.6657v1.0732h1.7493v4.6204l-6.8696 0.015z" fill="#1a1a1a"/>
   <g fill="#ffac00">
    <path d="m115.21 345.08h0.21938v-1.3498h-0.21938v1.3498z"/>
    <path d="m115.7 345.08h0.21938v-1.3498h-0.21938v1.3498z"/>
    <path d="m116.21 345.08h0.21931v-1.3498h-0.21931v1.3498z"/>
    <path d="m116.72 345.08h0.21938v-1.3498h-0.21938v1.3498z"/>
    <path d="m117.21 345.08h0.21938v-1.3498h-0.21938v1.3498z"/>
    <path d="m117.71 345.08h0.21932v-1.3498h-0.21932v1.3498z"/>
    <path d="m118.24 345.08h0.21986v-1.3498h-0.21986v1.3498z"/>
    <path d="m118.73 345.08h0.21931v-1.3498h-0.21931v1.3498z"/>
   </g>
   <g>
    <path d="m118.91 340.16h1.7357v-0.75438h-1.7357v0.75438z" fill="#abb927"/>
    <path d="m113.48 340.16h1.751v-0.75831h-1.751v0.75831z" fill="#ff7d00"/>
    <path d="m120.8 345.71-7.9401-2e-5v7.0373l7.9401 2.4e-4z" fill="#3a3a3a"/>
   </g>
   <g transform="matrix(-.0080706 0 0 -.0080636 133.93 316.74)">
    <path d="m2609.9-3593.3v-872.71l-983.83-0.028v872.75z" fill="none" stroke="#000" stroke-linecap="square" stroke-width=".67568"/>
   </g>
   <path d="m120.51 350.97h-1.7574l3e-3 1.0731-0.63956 5.7e-4v0.40181h-2.0614l4.8e-4 -0.40286h-0.6657v-1.0732h-1.7493v-4.6204l6.8696-0.015z" fill="#1a1a1a"/>
   <g fill="#ffac00">
    <path d="m118.93 346.34h-0.21938v1.3498h0.21938v-1.3498z"/>
    <path d="m118.44 346.34h-0.21938v1.3498h0.21938v-1.3498z"/>
    <path d="m117.94 346.34h-0.21931v1.3498h0.21931v-1.3498z"/>
    <path d="m117.42 346.34h-0.21938v1.3498h0.21938v-1.3498z"/>
    <path d="m116.93 346.34h-0.21938v1.3498h0.21938v-1.3498z"/>
    <path d="m116.43 346.34h-0.21932v1.3498h0.21932v-1.3498z"/>
    <path d="m115.91 346.34h-0.21986v1.3498h0.21986v-1.3498z"/>
    <path d="m115.42 346.34h-0.21931v1.3498h0.21931v-1.3498z"/>
   </g>
   <g>
    <path d="m115.23 351.26h-1.7357v0.75438h1.7357v-0.75438z" fill="#abb927"/>
    <path d="m120.67 351.26h-1.751v0.75831h1.751v-0.75831z" fill="#ff7d00"/>
    <path transform="matrix(.53109 0 0 .53109 66 374.35)" d="m103.18-67.181-4.3903-0.0018v1.2752l4.2565-0.0019v1.6507l-0.4201 0.01318-1e-3 9.1065-9e-3 0.0099-12.928 0.01807-9.03e-4 -9.1344-0.42012-0.01318v-1.6507l4.2317 0.0019v-1.2752l-5.2703 0.0018 0.0034 26.511 5.2951 0.0018v-1.2752l-4.2565 0.0019v-1.6507l0.4201-0.01318 0.0011-9.0518 12.937-0.0075 9.1e-4 9.0588 0.42011 0.01318v1.6507l-4.2317-0.0019v1.2752l4.3658-0.0018z" fill="#ebebeb"/>
   </g>
  </g>
  <g transform="translate(-.21932 .19261)">
   <rect x="102.06" y="401.36" width="8.374" height="13.848" rx=".63742" fill="#ccc" stroke="#000" stroke-linejoin="round" stroke-width=".092641"/>
   <g transform="matrix(.58063 0 0 .66561 29.334 142.42)">
    <rect x="125.95" y="399.76" width="13.005" height="6.133" fill="#bfbfbf" stroke="#000" stroke-linecap="round" stroke-linejoin="round" stroke-miterlimit="10" stroke-width=".098128"/>
    <g transform="translate(-151.47 32.922)">
     <g transform="matrix(1.1392 0 0 1.0628 -9.5661 -40.967)">
      <rect x="251.98" y="383.74" width="11.333" height="5.639"/>
      <rect x="251.98" y="383.74" width="11.319" height="5.6234" fill="none" stroke="#7f7f7f" stroke-width=".2"/>
     </g>
     <g transform="matrix(1.1392 0 0 1.0628 -9.5661 -40.967)">
      <polygon points="256.98 386.54 256.98 383.94 253.58 383.94 252.18 383.94 252.18 386.54"/>
      <polygon transform="matrix(2.2457 0 0 1.9606 -314.08 -368.76)" points="253.58 383.94 252.18 383.94 252.18 386.54 256.98 386.54 256.98 383.94" fill="none" stroke="#7f7f7f" stroke-width=".023002"/>
     </g>
    </g>
   </g>
   <g transform="matrix(.58063 0 0 .66561 29.334 137.91)">
    <rect x="125.95" y="399.76" width="13.005" height="6.133" fill="#bfbfbf" stroke="#000" stroke-linecap="round" stroke-linejoin="round" stroke-miterlimit="10" stroke-width=".098128"/>
    <g transform="translate(-151.47 32.922)">
     <g transform="matrix(1.1392 0 0 1.0628 -9.5661 -40.967)">
      <rect x="251.98" y="383.74" width="11.333" height="5.639"/>
      <rect x="251.98" y="383.74" width="11.319" height="5.6234" fill="none" stroke="#7f7f7f" stroke-width=".2"/>
     </g>
     <g transform="matrix(1.1392 0 0 1.0628 -9.5661 -40.967)">
      <polygon points="253.58 383.94 252.18 383.94 252.18 386.54 256.98 386.54 256.98 383.94"/>
      <polygon transform="matrix(2.2457 0 0 1.9606 -314.08 -368.76)" points="252.18 386.54 256.98 386.54 256.98 383.94 253.58 383.94 252.18 383.94" fill="none" stroke="#7f7f7f" stroke-width=".023002"/>
     </g>
    </g>
   </g>
  </g>
  <rect x="111.6" y="401.33" width="9.4362" height="14.313" rx=".63742" fill="#ccc" stroke="#000" stroke-linejoin="round" stroke-width=".092641"/>
  <g transform="matrix(1.0006 0 0 .99268 -.57702 65.303)">
   <path d="m112.86 345.71 7.9403 1e-5v-7.0375l-7.9403 2.2e-4z" fill="#3a3a3a"/>
   <g transform="matrix(.0080706 0 0 .0080636 100.22 374.68)">
    <path d="m2550.5-3593.2v-872.75l-983.84 0.025v872.71z" fill="none" stroke="#000" stroke-linecap="square" stroke-width=".67568"/>
   </g>
   <path d="m113.63 340.44h1.7574l-3e-3 -1.0731 0.63956-5.7e-4v-0.40181h2.0614l-4.8e-4 0.40286h0.6657v1.0732h1.7493v4.6204l-6.8696 0.015z" fill="#1a1a1a"/>
   <g fill="#ffac00">
    <path d="m115.21 345.08h0.21938v-1.3498h-0.21938v1.3498z"/>
    <path d="m115.7 345.08h0.21938v-1.3498h-0.21938v1.3498z"/>
    <path d="m116.21 345.08h0.21931v-1.3498h-0.21931v1.3498z"/>
    <path d="m116.72 345.08h0.21938v-1.3498h-0.21938v1.3498z"/>
    <path d="m117.21 345.08h0.21938v-1.3498h-0.21938v1.3498z"/>
    <path d="m117.71 345.08h0.21932v-1.3498h-0.21932v1.3498z"/>
    <path d="m118.24 345.08h0.21986v-1.3498h-0.21986v1.3498z"/>
    <path d="m118.73 345.08h0.21931v-1.3498h-0.21931v1.3498z"/>
   </g>
   <g>
    <path d="m118.91 340.16h1.7357v-0.75438h-1.7357v0.75438z" fill="#abb927"/>
    <path d="m113.48 340.16h1.751v-0.75831h-1.751v0.75831z" fill="#ff7d00"/>
    <path d="m120.8 345.71-7.9401-2e-5v7.0373l7.9401 2.4e-4z" fill="#3a3a3a"/>
   </g>
   <g transform="matrix(-.0080706 0 0 -.0080636 133.93 316.74)">
    <path d="m2609.9-3593.3v-872.71l-983.83-0.028v872.75z" fill="none" stroke="#000" stroke-linecap="square" stroke-width=".67568"/>
   </g>
   <path d="m120.51 350.97h-1.7574l3e-3 1.0731-0.63956 5.7e-4v0.40181h-2.0614l4.8e-4 -0.40286h-0.6657v-1.0732h-1.7493v-4.6204l6.8696-0.015z" fill="#1a1a1a"/>
   <g fill="#ffac00">
    <path d="m118.93 346.34h-0.21938v1.3498h0.21938v-1.3498z"/>
    <path d="m118.44 346.34h-0.21938v1.3498h0.21938v-1.3498z"/>
    <path d="m117.94 346.34h-0.21931v1.3498h0.21931v-1.3498z"/>
    <path d="m117.42 346.34h-0.21938v1.3498h0.21938v-1.3498z"/>
    <path d="m116.93 346.34h-0.21938v1.3498h0.21938v-1.3498z"/>
    <path d="m116.43 346.34h-0.21932v1.3498h0.21932v-1.3498z"/>
    <path d="m115.91 346.34h-0.21986v1.3498h0.21986v-1.3498z"/>
    <path d="m115.42 346.34h-0.21931v1.3498h0.21931v-1.3498z"/>
   </g>
   <g>
    <path d="m115.23 351.26h-1.7357v0.75438h1.7357v-0.75438z" fill="#abb927"/>
    <path d="m120.67 351.26h-1.751v0.75831h1.751v-0.75831z" fill="#ff7d00"/>
    <path transform="matrix(.53109 0 0 .53109 66 374.35)" d="m103.18-67.181-4.3903-0.0018v1.2752l4.2565-0.0019v1.6507l-0.4201 0.01318-1e-3 9.1065-9e-3 0.0099-12.928 0.01807-9.03e-4 -9.1344-0.42012-0.01318v-1.6507l4.2317 0.0019v-1.2752l-5.2703 0.0018 0.0034 26.511 5.2951 0.0018v-1.2752l-4.2565 0.0019v-1.6507l0.4201-0.01318 0.0011-9.0518 12.937-0.0075 9.1e-4 9.0588 0.42011 0.01318v1.6507l-4.2317-0.0019v1.2752l4.3658-0.0018z" fill="#ebebeb"/>
   </g>
  </g>
  <g transform="matrix(1.3824 0 0 1.3824 -266.11 -84.264)" stroke-width=".035713">
   <g stroke="#000">
    <path d="m289.38 354.15c0 0.79676-0.62439 1.4437-1.3931 1.4437-0.7687 0-1.3926-0.64693-1.3926-1.4437 0-0.79726 0.62387-1.4442 1.3926-1.4442 0.76869 0 1.3931 0.64693 1.3931 1.4442z" fill="#999"/>
    <path d="m289.38 354.15c0 0.79676-0.62439 1.4437-1.3931 1.4437-0.7687 0-1.3926-0.64693-1.3926-1.4437 0-0.79726 0.62387-1.4442 1.3926-1.4442 0.76869 0 1.3931 0.64693 1.3931 1.4442z" fill="none"/>
    <path d="m289.03 354.17c0 0.5903-0.46402 1.0699-1.0358 1.0699-0.57176 0-1.0353-0.47956-1.0353-1.0699 0-0.59031 0.46352-1.0694 1.0353-1.0694 0.57177 0 1.0358 0.47905 1.0358 1.0694z" fill="#666"/>
    <path d="m289.03 354.17c0 0.5903-0.46402 1.0699-1.0358 1.0699-0.57176 0-1.0353-0.47956-1.0353-1.0699 0-0.59031 0.46352-1.0694 1.0353-1.0694 0.57177 0 1.0358 0.47905 1.0358 1.0694z" fill="none"/>
    <path d="m288.92 354.15c0 0.5412-0.42395 0.98017-0.9461 0.98017-0.52265 0-0.94659-0.43897-0.94659-0.98017s0.42394-0.98067 0.94659-0.98067c0.52215 0 0.9461 0.43947 0.9461 0.98067z" fill="#ddd"/>
   </g>
   <path d="m288.92 354.15c0 0.5412-0.42395 0.98017-0.9461 0.98017-0.52265 0-0.94659-0.43897-0.94659-0.98017s0.42394-0.98067 0.94659-0.98067c0.52215 0 0.9461 0.43947 0.9461 0.98067z" fill="none" stroke="#ddd"/>
   <path d="m287.28 354.1h-0.0356l-0.0361 0.0356v0.0356h-0.0356v0.1784h0.0356v0.0356l0.0361 0.0356h0.67851v0.74866h0.0356v0.0356h0.0356v0.0361h0.1789v-0.0361h0.0356v-0.0356h0.0356v-0.74866h0.71458v-0.0356h0.0356v-0.0356h0.0356v-0.1784h-0.0356v-0.0356h-0.0356v-0.0356h-0.71458v-0.71308l-0.0356-0.0356h-0.0356v-0.0356h-0.1789v0.0356h-0.0356l-0.0356 0.0356v0.71308h-0.60735-0.0356z" fill="#484848" stroke="#151515"/>
   <path d="m287.13 354.2v0.14281l0.0356 0.0356h0.0356v0.0356h0.71458v0.78423l0.0356 0.0361h0.0356v0.0356h0.10724 0.0356" fill="none" stroke="#bebebe"/>
   <path d="m287.92 353.38v0.6775 0.0356" fill="none" stroke="#bebebe"/>
  </g>
  <g transform="matrix(1.3824 0 0 1.3824 -325.82 -84.264)" stroke-width=".035713">
   <g stroke="#000">
    <path d="m289.38 354.15c0 0.79676-0.62439 1.4437-1.3931 1.4437-0.7687 0-1.3926-0.64693-1.3926-1.4437 0-0.79726 0.62387-1.4442 1.3926-1.4442 0.76869 0 1.3931 0.64693 1.3931 1.4442z" fill="#999"/>
    <path d="m289.38 354.15c0 0.79676-0.62439 1.4437-1.3931 1.4437-0.7687 0-1.3926-0.64693-1.3926-1.4437 0-0.79726 0.62387-1.4442 1.3926-1.4442 0.76869 0 1.3931 0.64693 1.3931 1.4442z" fill="none"/>
    <path d="m289.03 354.17c0 0.5903-0.46402 1.0699-1.0358 1.0699-0.57176 0-1.0353-0.47956-1.0353-1.0699 0-0.59031 0.46352-1.0694 1.0353-1.0694 0.57177 0 1.0358 0.47905 1.0358 1.0694z" fill="#666"/>
    <path d="m289.03 354.17c0 0.5903-0.46402 1.0699-1.0358 1.0699-0.57176 0-1.0353-0.47956-1.0353-1.0699 0-0.59031 0.46352-1.0694 1.0353-1.0694 0.57177 0 1.0358 0.47905 1.0358 1.0694z" fill="none"/>
    <path d="m288.92 354.15c0 0.5412-0.42395 0.98017-0.9461 0.98017-0.52265 0-0.94659-0.43897-0.94659-0.98017s0.42394-0.98067 0.94659-0.98067c0.52215 0 0.9461 0.43947 0.9461 0.98067z" fill="#ddd"/>
   </g>
   <path d="m288.92 354.15c0 0.5412-0.42395 0.98017-0.9461 0.98017-0.52265 0-0.94659-0.43897-0.94659-0.98017s0.42394-0.98067 0.94659-0.98067c0.52215 0 0.9461 0.43947 0.9461 0.98067z" fill="none" stroke="#ddd"/>
   <path d="m287.28 354.1h-0.0356l-0.0361 0.0356v0.0356h-0.0356v0.1784h0.0356v0.0356l0.0361 0.0356h0.67851v0.74866h0.0356v0.0356h0.0356v0.0361h0.1789v-0.0361h0.0356v-0.0356h0.0356v-0.74866h0.71458v-0.0356h0.0356v-0.0356h0.0356v-0.1784h-0.0356v-0.0356h-0.0356v-0.0356h-0.71458v-0.71308l-0.0356-0.0356h-0.0356v-0.0356h-0.1789v0.0356h-0.0356l-0.0356 0.0356v0.71308h-0.60735-0.0356z" fill="#484848" stroke="#151515"/>
   <path d="m287.13 354.2v0.14281l0.0356 0.0356h0.0356v0.0356h0.71458v0.78423l0.0356 0.0361h0.0356v0.0356h0.10724 0.0356" fill="none" stroke="#bebebe"/>
   <path d="m287.92 353.38v0.6775 0.0356" fill="none" stroke="#bebebe"/>
  </g>
  <g fill="#000000" font-family="sans-serif" letter-spacing="0px" stroke-width="1px" word-spacing="0px">
   <text x="92.944847" y="401.04675" style="line-height:0%" xml:space="preserve"><tspan x="92.944847" y="401.04675" font-size="2.6555px" style="line-height:1.25">NMS</tspan></text>
   <text x="107.7443" y="400.98065" style="line-height:0%" xml:space="preserve"><tspan x="107.7443" y="400.98065" font-size="2.6555px" style="line-height:1.25">GE1</tspan></text>
   <text x="108.21071" y="417.84586" style="line-height:0%" xml:space="preserve"><tspan x="108.21071" y="417.84586" font-size="2.6555px" style="line-height:1.25">GE2</tspan></text>
  </g>
  <path d="m89.635 417.14h-0.0717l-0.1779 0.21427-0.10723 0.39287v0.28568l0.10723 0.42855 0.1779 0.21427h17.195l0.1784-0.21427 0.10674-0.42855v-0.28568l-0.10674-0.39287-0.1784-0.21427h-0.0711-17.052z" fill="#808080" stroke="#000" stroke-width=".071425"/>
  <text x="75.393524" y="418.92502" fill="#000000" font-family="sans-serif" letter-spacing="0px" stroke-width="1px" word-spacing="0px" style="line-height:0%" xml:space="preserve"><tspan x="75.393524" y="418.92502" font-size="2.6555px" style="line-height:1.25">RF1</tspan></text>
  <text x="84.149017" y="418.94254" fill="#000000" font-family="sans-serif" letter-spacing="0px" stroke-width="1px" word-spacing="0px" style="line-height:0%" xml:space="preserve"><tspan x="84.149017" y="418.94254" font-size="2.6555px" style="line-height:1.25">RF2</tspan></text>
 </g>
 <g transform="matrix(.12157 0 0 .12157 244 380.65)">
  <path d="m286.69 319.69c-6.0914-1.4344-8.4427-3.8694-8.4427-8.7436 0-8.5176 6.3166-13.103 18.05-13.103h5.9334l-0.20803 2.1576-0.20803 2.1576-6.6386 0.33193c-7.1456 0.35728-8.7849 1.017-11.045 4.4445-1.5461 2.3449-1.5751 4.9613-0.0748 6.7564 0.98554 1.1792 1.9674 1.4052 6.4727 1.4901 7.0485 0.13285 7.5532 0.35987 6.8374 3.0758-0.5608 2.1277-0.62115 2.1566-4.3669 2.0909-2.089-0.0367-4.9282-0.33276-6.3093-0.65797zm39.359 0.22676c5e-3 -0.83829 5.316-20.886 5.6949-21.499 0.63938-1.0345 4.2598-0.66332 4.2598 0.43675 0 0.55612-1.0886 5.3597-2.4191 10.675-2.136 8.5326-2.6072 9.735-4.0264 10.275-1.9452 0.73956-3.5137 0.79016-3.5092 0.1132zm22.57-0.33193c5.3e-4 -0.45641 0.74777-3.6147 1.6597-7.0185s1.658-6.7577 1.658-7.4532c0-1.7724-2.9094-3.5335-4.9793-3.014-3.5358 0.88743-5.4763 3.6633-7.4667 10.681l-1.8829 6.6386-2.5201 0.20953c-2.3695 0.19701-2.4902 0.11766-2.0202-1.3277 0.27498-0.84549 1.3159-4.3064 2.3131-7.6908 2.8071-9.5269 6.1723-12.906 12.952-13.004 4.0337-0.0583 6.3511 1.2351 7.5955 4.2393 0.76317 1.8424 0.67808 3.0195-0.66357 9.1796-0.84644 3.8864-1.8025 7.5889-2.1246 8.2279-0.68147 1.3518-4.5231 1.6339-4.5205 0.33194zm16.03 6e-3c-2.5299-0.65556-5.8763-3.8005-6.4419-6.054-0.66417-2.6463 0.24553-7.349 1.8951-9.7966 2.5728-3.8176 6.8018-5.4258 15.174-5.7708l7.2948-0.30055-0.21454 2.2448-0.21453 2.2448-6.6386 0.35413c-7.0468 0.37591-10.014 1.3985-11.909 4.1049-1.2988 1.8544-1.3183 4.0233-0.058 6.4604 0.86034 1.6637 1.467 1.9481 5.0395 2.3628 2.2338 0.25926 4.2999 0.21484 4.5913-0.0987 0.2914-0.31356 1.0193-2.2879 1.6176-4.3873 0.99215-3.4814 1.2517-3.8172 2.9502-3.8172 1.0243 0 2.0209 0.15847 2.2145 0.35215 0.19369 0.19369-0.16979 2.3595-0.80774 4.813-0.63794 2.4535-1.3533 5.2963-1.5896 6.3174l-0.42976 1.8565-5.2604-0.18989c-2.8932-0.10443-6.1391-0.41757-7.213-0.69586zm-110.08-10.573 2.7664-10.842 6.4595-0.18984c7.4436-0.21877 9.7834 0.5945 11.561 4.0183 2.5776 4.9651 0.35371 11.66-5.1392 15.47-2.6498 1.8383-3.232 1.9571-10.609 2.1653l-7.8051 0.22019 2.7664-10.842zm12.579 4.9941c3.8173-1.974 5.6945-7.7295 3.3618-10.307-0.83895-0.92703-2.07-1.214-5.2076-1.214h-4.1089l-1.6462 6.1407c-1.1373 4.2425-1.4258 6.3004-0.93319 6.6574 0.96591 0.69986 6.2363-0.0888 8.534-1.277zm18.402-4.4178c0-0.83979 0.35848-1.8854 0.79663-2.3235 0.95625-0.95625 13.808-1.12 13.808-0.17599 0 0.34135-0.29134 1.3869-0.64743 2.3235-0.63555 1.6716-0.76956 1.7029-7.3025 1.7029-6.5018 0-6.6551-0.0351-6.6551-1.5269z" fill="#003380"/>
  <path d="m299.25 326.02c0-0.14053 1.5658-0.76765 3.4794-1.3936 7.0475-2.3051 11.614-5.9943 14.723-11.893 1.9997-3.795 2.318-9.5145 0.70196-12.613-1.1746-2.2524-0.92916-2.7656 0.86386-1.806 2.149 1.1501 5.3467 5.21 6.0177 7.6403 2.0676 7.4883-5.4674 17.658-14.522 19.6-3.1791 0.6818-11.264 1.016-11.264 0.46567zm10.763-11.786c-5.3495-3.4255-6.1031-12.662-1.5457-18.945 1.9067-2.6288 5.9809-5.741 8.486-6.4821 1.2054-0.3566 1.3812-0.20587 1.0843 0.92938-0.28181 1.0777-0.0378 1.355 1.1918 1.355 1.4065 0 1.2699 0.28476-1.5136 3.1534-1.6829 1.7343-3.7278 4.4889-4.5443 6.1212-1.9544 3.9072-2.5034 10.435-1.1121 13.224 1.2102 2.4259 0.89184 2.5262-2.0464 0.64478zm10.228-26.297c0.63439-2.6541 0.80494-2.8214 2.8764-2.8214 1.0599 0 2.0482-0.43478 2.2635-0.9958 0.21017-0.54768 0.99835-0.99579 1.7515-0.99579 0.75316 0 1.5414-0.44811 1.7515-0.9958 0.56112-1.4623 2.2317-1.2138 2.2317 0.33193 0 0.77229-0.44258 1.3277-1.058 1.3277-0.58187 0-1.2142 0.59748-1.4052 1.3277-0.19418 0.74253-0.90552 1.3277-1.6139 1.3277-0.74034 0-1.529 0.68967-1.8977 1.6596-0.50922 1.3394-1.085 1.6597-2.9836 1.6597-2.2297 0-2.3298-0.0954-1.9162-1.8256z" fill="#f60"/>
 </g>
 <g transform="matrix(1.0667 0 0 1.0667 -3.7964 -6.9686)">
  <rect x="279.17" y="397.45" width="10.341" height="2.408" rx=".38441" fill="#003380" stroke="#003380" stroke-linejoin="round" stroke-width=".59864"/>
  <text x="278.93005" y="399.63846" fill="#000000" font-family="sans-serif" letter-spacing="0px" stroke-width="1px" word-spacing="0px" style="line-height:0%" xml:space="preserve"><tspan x="278.93005" y="399.63846" fill="#ffffff" font-size="2.6555px" style="line-height:1.25">DX324T</tspan></text>
 </g>
</svg>
