<svg width="472.53" height="47.467" version="1.1" viewBox="70.4 401.066666667 250.958144 15.4055701333" xmlns="http://www.w3.org/2000/svg">
 <g transform="matrix(1.2159 0 0 1.1254 -10.321 -27.424)" stroke="#333" stroke-width=".46733">
  <rect x="66.589" y="376.59" width="206" height="22"/>
  <rect x="66.589" y="376.59" width="206" height="22" fill-opacity="0"/>
 </g>
 <g font-family="sans-serif">
  <text transform="scale(1.1087 1.0262)" x="74.677345" y="391.78296" fill="#ffffff" font-size="2.476px" font-weight="700" style="line-height:0%">
   <tspan x="74.677345" y="391.78296"/>
  </text>
  <text transform="scale(1.0667)" x="79.707138" y="367.95245" fill="#000000" letter-spacing="0px" stroke-width="1px" word-spacing="0px" style="line-height:0%" xml:space="preserve"><tspan x="79.707138" y="367.95245" font-size="21.244px" style="line-height:1.25"> </tspan></text>
  <text transform="scale(1.1087 1.0262)" x="83.295067" y="456.96109" fill="#ffffff" font-size="2.476px" font-weight="700" style="line-height:0%">
   <tspan x="83.295067" y="456.96109"/>
  </text>
  <text transform="scale(1.0667)" x="88.664566" y="430.65869" fill="#000000" letter-spacing="0px" stroke-width="1px" word-spacing="0px" style="line-height:0%" xml:space="preserve"><tspan x="88.664566" y="430.65869" font-size="21.244px" style="line-height:1.25"> </tspan></text>
  <text transform="scale(1.0667)" x="115.4367" y="426.10361" fill="#000000" letter-spacing="0px" stroke-width="1px" word-spacing="0px" style="line-height:0%" xml:space="preserve"><tspan x="115.4367" y="426.10361" font-size="21.244px" style="line-height:1.25"> </tspan></text>
 </g>
 <g transform="matrix(.12157 0 0 .12157 267.07 366.78)">
  <path d="m286.69 319.69c-6.0914-1.4344-8.4427-3.8694-8.4427-8.7436 0-8.5176 6.3166-13.103 18.05-13.103h5.9334l-0.20803 2.1576-0.20803 2.1576-6.6386 0.33193c-7.1456 0.35728-8.7849 1.017-11.045 4.4445-1.5461 2.3449-1.5751 4.9613-0.0748 6.7564 0.98554 1.1792 1.9674 1.4052 6.4727 1.4901 7.0485 0.13285 7.5532 0.35987 6.8374 3.0758-0.5608 2.1277-0.62115 2.1566-4.3669 2.0909-2.089-0.0367-4.9282-0.33276-6.3093-0.65797zm39.359 0.22676c5e-3 -0.83829 5.316-20.886 5.6949-21.499 0.63938-1.0345 4.2598-0.66332 4.2598 0.43675 0 0.55612-1.0886 5.3597-2.4191 10.675-2.136 8.5326-2.6072 9.735-4.0264 10.275-1.9452 0.73956-3.5137 0.79016-3.5092 0.1132zm22.57-0.33193c5.3e-4 -0.45641 0.74777-3.6147 1.6597-7.0185s1.658-6.7577 1.658-7.4532c0-1.7724-2.9094-3.5335-4.9793-3.014-3.5358 0.88743-5.4763 3.6633-7.4667 10.681l-1.8829 6.6386-2.5201 0.20953c-2.3695 0.19701-2.4902 0.11766-2.0202-1.3277 0.27498-0.84549 1.3159-4.3064 2.3131-7.6908 2.8071-9.5269 6.1723-12.906 12.952-13.004 4.0337-0.0583 6.3511 1.2351 7.5955 4.2393 0.76317 1.8424 0.67808 3.0195-0.66357 9.1796-0.84644 3.8864-1.8025 7.5889-2.1246 8.2279-0.68147 1.3518-4.5231 1.6339-4.5205 0.33194zm16.03 6e-3c-2.5299-0.65556-5.8763-3.8005-6.4419-6.054-0.66417-2.6463 0.24553-7.349 1.8951-9.7966 2.5728-3.8176 6.8018-5.4258 15.174-5.7708l7.2948-0.30055-0.21454 2.2448-0.21453 2.2448-6.6386 0.35413c-7.0468 0.37591-10.014 1.3985-11.909 4.1049-1.2988 1.8544-1.3183 4.0233-0.058 6.4604 0.86034 1.6637 1.467 1.9481 5.0395 2.3628 2.2338 0.25926 4.2999 0.21484 4.5913-0.0987 0.2914-0.31356 1.0193-2.2879 1.6176-4.3873 0.99215-3.4814 1.2517-3.8172 2.9502-3.8172 1.0243 0 2.0209 0.15847 2.2145 0.35215 0.19369 0.19369-0.16979 2.3595-0.80774 4.813-0.63794 2.4535-1.3533 5.2963-1.5896 6.3174l-0.42976 1.8565-5.2604-0.18989c-2.8932-0.10443-6.1391-0.41757-7.213-0.69586zm-110.08-10.573 2.7664-10.842 6.4595-0.18984c7.4436-0.21877 9.7834 0.5945 11.561 4.0183 2.5776 4.9651 0.35371 11.66-5.1392 15.47-2.6498 1.8383-3.232 1.9571-10.609 2.1653l-7.8051 0.22019 2.7664-10.842zm12.579 4.9941c3.8173-1.974 5.6945-7.7295 3.3618-10.307-0.83895-0.92703-2.07-1.214-5.2076-1.214h-4.1089l-1.6462 6.1407c-1.1373 4.2425-1.4258 6.3004-0.93319 6.6574 0.96591 0.69986 6.2363-0.0888 8.534-1.277zm18.402-4.4178c0-0.83979 0.35848-1.8854 0.79663-2.3235 0.95625-0.95625 13.808-1.12 13.808-0.17599 0 0.34135-0.29134 1.3869-0.64743 2.3235-0.63555 1.6716-0.76956 1.7029-7.3025 1.7029-6.5018 0-6.6551-0.0351-6.6551-1.5269z" fill="#003380"/>
  <path d="m299.25 326.02c0-0.14053 1.5658-0.76765 3.4794-1.3936 7.0475-2.3051 11.614-5.9943 14.723-11.893 1.9997-3.795 2.318-9.5145 0.70196-12.613-1.1746-2.2524-0.92916-2.7656 0.86386-1.806 2.149 1.1501 5.3467 5.21 6.0177 7.6403 2.0676 7.4883-5.4674 17.658-14.522 19.6-3.1791 0.6818-11.264 1.016-11.264 0.46567zm10.763-11.786c-5.3495-3.4255-6.1031-12.662-1.5457-18.945 1.9067-2.6288 5.9809-5.741 8.486-6.4821 1.2054-0.3566 1.3812-0.20587 1.0843 0.92938-0.28181 1.0777-0.0378 1.355 1.1918 1.355 1.4065 0 1.2699 0.28476-1.5136 3.1534-1.6829 1.7343-3.7278 4.4889-4.5443 6.1212-1.9544 3.9072-2.5034 10.435-1.1121 13.224 1.2102 2.4259 0.89184 2.5262-2.0464 0.64478zm10.228-26.297c0.63439-2.6541 0.80494-2.8214 2.8764-2.8214 1.0599 0 2.0482-0.43478 2.2635-0.9958 0.21017-0.54768 0.99835-0.99579 1.7515-0.99579 0.75316 0 1.5414-0.44811 1.7515-0.9958 0.56112-1.4623 2.2317-1.2138 2.2317 0.33193 0 0.77229-0.44258 1.3277-1.058 1.3277-0.58187 0-1.2142 0.59748-1.4052 1.3277-0.19418 0.74253-0.90552 1.3277-1.6139 1.3277-0.74034 0-1.529 0.68967-1.8977 1.6596-0.50922 1.3394-1.085 1.6597-2.9836 1.6597-2.2297 0-2.3298-0.0954-1.9162-1.8256z" fill="#f60"/>
 </g>
 <g transform="matrix(1.0692 0 0 1.0686 194.89 217.52)">
  <path d="m64.141 183.87h8.4v-7.0242h-8.4v7.0242z" fill="#3a3a3a"/>
  <g transform="matrix(.0080517 0 0 .0080487 51.527 212.79)">
   <path d="m2609.9-3593.3v-872.71h-1043.3v872.71h1043.3z" fill="none" stroke="#000" stroke-linecap="square" stroke-width=".67568"/>
  </g>
  <path d="m64.912 178.62h1.7532l-0.0026-1.0712 0.63806-5.7e-4v-0.40106h2.0566l-4.83e-4 0.40211h0.66414v1.0712h1.7452v4.6119l-6.8535 0.015z" fill="#1a1a1a"/>
  <g fill="#ffac00">
   <path d="m66.489 183.24h0.21886v-1.3473h-0.21886v1.3473z"/>
   <path d="m66.976 183.24h0.21886v-1.3473h-0.21886v1.3473z"/>
   <path d="m67.478 183.24h0.2188v-1.3473h-0.2188v1.3473z"/>
   <path d="m67.991 183.24h0.21886v-1.3473h-0.21886v1.3473z"/>
   <path d="m68.479 183.24h0.21886v-1.3473h-0.21886v1.3473z"/>
   <path d="m68.98 183.24h0.2188v-1.3473h-0.2188v1.3473z"/>
   <path d="m69.503 183.24h0.21934v-1.3473h-0.21934v1.3473z"/>
   <path d="m69.991 183.24h0.2188v-1.3473h-0.2188v1.3473z"/>
  </g>
  <path d="m70.173 178.34h1.7316v-0.75298h-1.7316v0.75298z" fill="#abb927"/>
  <path d="m64.756 178.34h1.7468v-0.7569h-1.7468v0.7569z" fill="#ff7d00"/>
  <g fill="#ebebeb">
   <path d="m66.932 177.52v-0.67597l-2.7924 9.6e-4 0.0022 6.9848 0.77137-0.62711-4.83e-4 -4.8021-0.22259-7e-3v-0.87506z"/>
   <path d="m64.945 183.25-0.76557 0.62244 8.3331 1e-3 -0.78248-0.63628"/>
   <path d="m69.735 177.52v-0.67597l2.8056 9.6e-4 -2e-3 6.9848-0.77145-0.63081 5.64e-4 -4.7984 0.22259-7e-3v-0.87506z"/>
  </g>
 </g>
 <text transform="scale(1.0667)" x="76.362808" y="382.78833" fill="#ffffff" font-family="sans-serif" letter-spacing="-.049431px" stroke-width="1px" word-spacing="0px" style="line-height:0%" xml:space="preserve"><tspan x="76.362808" y="382.78833" font-size="4.9431px" style="line-height:0">NDS3308T IP to DVB-T Modulator</tspan></text>
</svg>
