<svg width="183" height="45" version="1.1" viewBox="0 0 48.419 11.906" xmlns="http://www.w3.org/2000/svg"><g transform="translate(0 -285.09)"><rect x=".1314" y="285.23" width="48.156" height="11.643" rx=".52774" ry=".53445" stroke="#241f1c" stroke-linecap="round" stroke-linejoin="round" stroke-width=".2628"/><rect x=".39687" y="285.49" width="47.625" height="11.112" rx=".52192" ry=".51008" fill="#333"/><g transform="matrix(.99999 0 0 1 3.276 -14.605)"><circle cx="10.111" cy="301.58" r=".56696"/><circle cx="11.342" cy="301.58" r=".56696"/><circle cx="12.573" cy="301.58" r=".56696"/><circle cx="13.804" cy="301.58" r=".56696"/><circle cx="15.035" cy="301.58" r=".56696"/><circle cx="16.266" cy="301.58" r=".56696"/><circle cx="17.497" cy="301.58" r=".56696"/><circle cx="19.959" cy="301.58" r=".56696"/><circle cx="18.728" cy="301.58" r=".56696"/><circle cx="21.19" cy="301.58" r=".56696"/><circle cx="22.421" cy="301.58" r=".56696"/><circle cx="23.652" cy="301.58" r=".56696"/><circle cx="24.883" cy="301.58" r=".56696"/><circle cx="26.114" cy="301.58" r=".56696"/><circle cx="27.346" cy="301.58" r=".56696"/><circle cx="28.577" cy="301.58" r=".56696"/><circle cx="29.808" cy="301.58" r=".56696"/><circle cx="31.039" cy="301.58" r=".56696"/><circle cx="32.27" cy="301.58" r=".56696"/><circle cx="10.791" cy="303" r=".56696"/><circle cx="12.022" cy="303" r=".56696"/><circle cx="13.253" cy="303" r=".56696"/><circle cx="14.484" cy="303" r=".56696"/><circle cx="15.715" cy="303" r=".56696"/><circle cx="16.947" cy="303" r=".56696"/><circle cx="18.178" cy="303" r=".56696"/><circle cx="20.64" cy="303" r=".56696"/><circle cx="19.409" cy="303" r=".56696"/><circle cx="21.871" cy="303" r=".56696"/><circle cx="23.102" cy="303" r=".56696"/><circle cx="24.333" cy="303" r=".56696"/><circle cx="25.564" cy="303" r=".56696"/><circle cx="26.795" cy="303" r=".56696"/><circle cx="28.026" cy="303" r=".56696"/><circle cx="29.257" cy="303" r=".56696"/><circle cx="30.488" cy="303" r=".56696"/><circle cx="31.719" cy="303" r=".56696"/><circle cx="32.95" cy="303" r=".56696"/><circle cx="9.4304" cy="303" r=".56696"/><circle cx="10.111" cy="304.42" r=".56696"/><circle cx="11.342" cy="304.42" r=".56696"/><circle cx="12.573" cy="304.42" r=".56696"/><circle cx="13.804" cy="304.42" r=".56696"/><circle cx="15.035" cy="304.42" r=".56696"/><circle cx="16.266" cy="304.42" r=".56696"/><circle cx="17.497" cy="304.42" r=".56696"/><circle cx="19.959" cy="304.42" r=".56696"/><circle cx="18.728" cy="304.42" r=".56696"/><circle cx="21.19" cy="304.42" r=".56696"/><circle cx="22.421" cy="304.42" r=".56696"/><circle cx="23.652" cy="304.42" r=".56696"/><circle cx="24.883" cy="304.42" r=".56696"/><circle cx="26.114" cy="304.42" r=".56696"/><circle cx="27.346" cy="304.42" r=".56696"/><circle cx="28.577" cy="304.42" r=".56696"/><circle cx="29.808" cy="304.42" r=".56696"/><circle cx="31.039" cy="304.42" r=".56696"/><circle cx="32.27" cy="304.42" r=".56696"/></g><g transform="matrix(.28222 0 0 .28222 -60.999 184.18)"><path d="m235.64 388.75c0 2.0739-1.6252 3.7577-3.626 3.7577-2.0008 0-3.6247-1.6839-3.6247-3.7577 0-2.0752 1.6238-3.759 3.6247-3.759 2.0008 0 3.626 1.6839 3.626 3.759z" fill="#666" stroke="#000" stroke-width=".092955"/><path d="m234.71 388.75c0 1.5365-1.2078 2.7847-2.696 2.7847-1.4882 0-2.6947-1.2482-2.6947-2.7847 0-1.5365 1.2065-2.7834 2.6947-2.7834 1.4882 0 2.696 1.2469 2.696 2.7834z" fill="#fff" stroke="#000" stroke-width=".092955"/><g transform="matrix(1.8829 0 0 1.8829 -327.64 -342.66)" fill="#fff" fill-rule="evenodd" shape-rendering="auto"><path transform="matrix(.53109 0 0 .53109 66 371.4)" d="m435.08 36.213v1.1211h-2.3086v0.47461h5.2188v-0.47461h-2.3106v-1.1211z" color="#000000" color-rendering="auto" image-rendering="auto" solid-color="#000000" style="isolation:auto;mix-blend-mode:normal;text-decoration-color:#000000;text-decoration-line:none;text-decoration-style:solid;text-indent:0;text-transform:none;white-space:normal"/><path d="m296.34 391.99v0.25196h1.7776v-0.25196z" color="#000000" color-rendering="auto" image-rendering="auto" solid-color="#000000" style="isolation:auto;mix-blend-mode:normal;text-decoration-color:#000000;text-decoration-line:none;text-decoration-style:solid;text-indent:0;text-transform:none;white-space:normal"/><path d="m296.64 392.74v0.25196h1.176v-0.25196z" color="#000000" color-rendering="auto" image-rendering="auto" solid-color="#000000" style="isolation:auto;mix-blend-mode:normal;text-decoration-color:#000000;text-decoration-line:none;text-decoration-style:solid;text-indent:0;text-transform:none;white-space:normal"/></g><g transform="translate(.16064 -5.818)" stroke-width=".1"><path d="m231.3 392.15v1.9609" fill="none" stroke="#999"/><g shape-rendering="auto"><path d="m229.39 394.11v1h1.9219v1.9219h1" color="#000000" color-rendering="auto" fill="none" image-rendering="auto" solid-color="#000000" stroke="#999" style="isolation:auto;mix-blend-mode:normal;text-decoration-color:#000000;text-decoration-line:none;text-decoration-style:solid;text-indent:0;text-transform:none;white-space:normal"/><path d="m231.4 392.1v1.9219h-1.9219v1h1.9219v1.9219h1v-1.9219h1.9219v-1h-1.9219v-1.9219z" color="#000000" color-rendering="auto" fill="#333" fill-rule="evenodd" image-rendering="auto" solid-color="#000000" stroke="#000" style="isolation:auto;mix-blend-mode:normal;text-decoration-color:#000000;text-decoration-line:none;text-decoration-style:solid;text-indent:0;text-transform:none;white-space:normal"/></g></g></g><g transform="matrix(.99999 0 0 1 .36982 .82477)"><g stroke="#fff" stroke-width=".079375"><path d="m6.5226 295.05c0 0.0942-0.076394 0.17063-0.17063 0.17063-0.094237 0-0.17063-0.0764-0.17063-0.17063 0-0.0942 0.076394-0.17063 0.17063-0.17063 0.094237 0 0.17063 0.0764 0.17063 0.17063z" color="#000000" fill-opacity="0"/><path d="m6.5292 295.05h0.36571" fill="#fff"/><path d="m7.1937 295.17c-0.067152 0.0672-0.17603 0.0672-0.24318 0-0.067151-0.0671-0.067151-0.17602 0-0.24318 0.067151-0.0672 0.17603-0.0672 0.24318 0" color="#000000" fill-opacity="0"/><path d="m7.135 295.05c0 0.0361-0.029266 0.0654-0.065368 0.0654s-0.065368-0.0293-0.065368-0.0654 0.029266-0.0654 0.065368-0.0654 0.065368 0.0293 0.065368 0.0654z" color="#000000" fill="#fff"/><path d="m7.1413 295.05h0.36571" fill="#fff"/><path d="m7.8561 295.05c0 0.0942-0.076394 0.17063-0.17063 0.17063-0.094237 0-0.17063-0.0764-0.17063-0.17063 0-0.0942 0.076394-0.17063 0.17063-0.17063 0.094236 0 0.17063 0.0764 0.17063 0.17063z" color="#000000" fill-opacity="0"/></g><path d="m6.3794 295.05h-0.054911v-0.0159h0.054911z" fill="#fff"/><path d="m7.7407 295.05h-0.047959v0.048h-0.014609v-0.048h-0.047959v-0.0141h0.047959v-0.048h0.014609v0.048h0.047959z" fill="#fff"/></g><g transform="matrix(.99999 0 0 1 2.9396 7.0146)" stroke="#000"><rect x="3.6818" y="285.89" width="1.6984" height="2.3053" fill="#999" stroke-width=".12132"/><ellipse cx="4.5274" cy="286.98" rx=".43391" ry=".43393" fill="#ebebeb" fill-rule="evenodd" stroke-width=".43021"/></g><g transform="matrix(.99999 0 0 1 .32305 .6984)"><path d="m41.026 294.81h4.1958v-3.48h-4.1958z" fill="#ebebeb" opacity=".94" stroke="#000" stroke-width=".068264"/><path d="m41.413 292.26h0.90336l-0.0013-0.51767 0.30833-2.7e-4v-0.19381h0.99382l-2.38e-4 0.19432h0.32094v0.51767h0.89964v2.2288l-3.4244 7e-3z" stroke-width=".48325"/><path d="m41.393 291.76v0.36543h0.84368v-0.36543zm2.6175 2e-3v0.36341h0.83667v-0.36341z" fill="#55d400" stroke-width=".48325"/></g><g transform="matrix(.99999 0 0 1 -.79947 .68678)"><rect transform="scale(-1)" x="-40.427" y="-294.37" width="4.6149" height="1.7961" rx=".0071045" ry=".0016313" fill="#ebebeb" fill-rule="evenodd" stroke="#000" stroke-width=".04064"/><path d="m36.063 294.15h4.1129v-1.4005h-4.1129z"/><path d="m36.063 294.15h4.1129v-1.4005h-4.1129z" fill="none" stroke="#535353" stroke-linecap="round" stroke-linejoin="round" stroke-miterlimit="4.4615" stroke-width=".018023"/><path d="m36.43 293.33h3.3932v-0.23953h-3.3932z" fill="none" stroke="#000" stroke-linecap="round" stroke-linejoin="round" stroke-miterlimit="4.4615" stroke-width=".018023"/><path d="m36.302 293.45h3.6355v-0.47906h-3.6355z" fill="#fff"/></g><path d="m17.163 292.77c-0.32691 0-0.60247 0.29152-0.71106 0.70114h-0.72319c-0.2878 0-0.51924 0.23145-0.51924 0.51925v0.0623c0 0.2878 0.23144 0.51924 0.51924 0.51924h0.72319c0.10859 0.40962 0.38415 0.7006 0.71106 0.7006h3.6766c0.32691 0 0.60247-0.29098 0.71106-0.7006h0.72319c0.2878 0 0.51924-0.23144 0.51924-0.51924v-0.0623c0-0.2878-0.23144-0.51925-0.51924-0.51925h-0.72319c-0.10859-0.40962-0.38415-0.70114-0.71106-0.70114z" fill="#ececec" fill-rule="evenodd" stroke="#333" stroke-linecap="round" stroke-width=".027872"/><g transform="matrix(.28222 0 0 .28222 -30.831 219.43)" stroke="#333" stroke-width=".067244"><g transform="translate(-21.189 -6.7388)"><path d="m189.01 272.01v-2.0135l-1.7484-1.0068-1.7484 1.0738v2.0135l1.7484 1.0077z" fill="#b3b3b3"/><path d="m188.61 271.03c0 0.75957-0.60197 1.3766-1.3446 1.3766-0.74258 0-1.3446-0.61707-1.3446-1.3766 0-0.75955 0.60197-1.3757 1.3446-1.3757 0.74259 0 1.3446 0.61613 1.3446 1.3757z" fill="#ddd"/><path d="m187.73 271.03c0 0.2406-0.21132 0.43687-0.47081 0.43687-0.25948 0-0.47084-0.19627-0.47084-0.43687s0.21136-0.43591 0.47084-0.43591c0.25949 0 0.47081 0.19531 0.47081 0.43591z" fill="#a4a4a4"/></g><g transform="translate(-.18874 -6.7388)"><path d="m189.01 272.01v-2.0135l-1.7484-1.0068-1.7484 1.0738v2.0135l1.7484 1.0077z" fill="#b3b3b3"/><path d="m188.61 271.03c0 0.75957-0.60197 1.3766-1.3446 1.3766-0.74258 0-1.3446-0.61707-1.3446-1.3766 0-0.75955 0.60197-1.3757 1.3446-1.3757 0.74259 0 1.3446 0.61613 1.3446 1.3757z" fill="#ddd"/><path d="m187.73 271.03c0 0.2406-0.21132 0.43687-0.47081 0.43687-0.25948 0-0.47084-0.19627-0.47084-0.43687s0.21136-0.43591 0.47084-0.43591c0.25949 0 0.47081 0.19531 0.47081 0.43591z" fill="#a4a4a4"/></g></g><g transform="matrix(.28222 0 0 .28222 -30.629 219.48)" stroke="#000"><g transform="translate(-1.3533 5.9318)" fill-rule="evenodd" stroke-linecap="round"><path d="m171.46 254.62h11.509c0.94773 0 1.937 0.7904 1.7107 1.7107l-1.0295 4.187c-0.22629 0.92033-0.76297 1.196-1.7107 1.196h-9.4499c-0.94773 0-1.4844-0.27566-1.7107-1.196l-1.0295-4.187c-0.22628-0.92032 0.76298-1.7107 1.7107-1.7107z" fill="#ececec" stroke-width=".025737"/><path d="m171.64 254.79h11.145c0.91776 0 1.8757 0.75221 1.6566 1.6281l-0.99691 3.9847c-0.21914 0.87586-0.73884 1.1382-1.6566 1.1382h-9.151c-0.91775 0-1.4375-0.26234-1.6566-1.1382l-0.99693-3.9847c-0.21912-0.87586 0.73885-1.6281 1.6566-1.6281z" fill="#04a" stroke-width=".024707"/></g><g stroke-width=".067244"><path d="m182.01 262.62c0 0.27834-0.2255 0.50385-0.50383 0.50385-0.27837 0-0.50481-0.22551-0.50481-0.50385 0-0.27739 0.22644-0.50384 0.50481-0.50384 0.27833 0 0.50383 0.22645 0.50383 0.50384z"/><path d="m170.78 262.62c0 0.27834-0.24155 0.50385-0.53781 0.50385-0.29722 0-0.53782-0.22551-0.53782-0.50385 0-0.27739 0.2406-0.50384 0.53782-0.50384 0.29626 0 0.53781 0.22645 0.53781 0.50384z"/><path d="m173.62 262.62c0 0.27834-0.2406 0.50385-0.53784 0.50385-0.29719 0-0.53779-0.22551-0.53779-0.50385 0-0.27739 0.2406-0.50384 0.53779-0.50384 0.29724 0 0.53784 0.22645 0.53784 0.50384z"/><path d="m176.46 262.62c0 0.27834-0.2406 0.50385-0.53782 0.50385-0.2972 0-0.53782-0.22551-0.53782-0.50385 0-0.27739 0.24062-0.50384 0.53782-0.50384 0.29722 0 0.53782 0.22645 0.53782 0.50384z"/><path d="m179.24 262.62c0 0.27834-0.2255 0.50385-0.50385 0.50385s-0.50479-0.22551-0.50479-0.50385c0-0.27739 0.22644-0.50384 0.50479-0.50384s0.50385 0.22645 0.50385 0.50384z"/><path d="m172.17 265.57c0 0.27834-0.22552 0.50385-0.50385 0.50385-0.27835 0-0.50481-0.22551-0.50481-0.50385 0-0.27741 0.22646-0.5029 0.50481-0.5029 0.27833 0 0.50385 0.22549 0.50385 0.5029z"/><path d="m175.01 265.57c0 0.27834-0.22551 0.50385-0.50386 0.50385-0.27834 0-0.5048-0.22551-0.5048-0.50385 0-0.27741 0.22646-0.5029 0.5048-0.5029 0.27835 0 0.50386 0.22549 0.50386 0.5029z"/><path d="m177.85 265.57c0 0.27834-0.22644 0.50385-0.50479 0.50385s-0.50385-0.22551-0.50385-0.50385c0-0.27741 0.2255-0.5029 0.50385-0.5029s0.50479 0.22549 0.50479 0.5029z"/><path d="m180.62 265.57c0 0.27834-0.22646 0.50385-0.50481 0.50385-0.27833 0-0.50385-0.22551-0.50385-0.50385 0-0.27741 0.22552-0.5029 0.50385-0.5029 0.27835 0 0.50481 0.22549 0.50481 0.5029z"/></g></g><g transform="matrix(-.28222 0 0 -.28222 112.01 424.24)"><path d="m350.38 462.33c-0.35686 0-0.62127 0.30244-0.62127 0.64298v1.8764c0 0.34526 0.21568 0.53273 0.39627 0.59712l0.3755 0.13388c0.17217 0.0541 0.23045 0.11486 0.3356 0.23433l0.634 0.72027c0.11801 0.13406 0.30084 0.23712 0.5247 0.23712h8.2194c0.22386 0 0.4067-0.10306 0.5247-0.23712l0.63399-0.72027c0.10516-0.11947 0.16343-0.18018 0.33561-0.23433l0.3755-0.13388c0.18059-0.0644 0.39627-0.25186 0.39627-0.59712v-1.8764c0-0.34053-0.26441-0.64298-0.62128-0.64298z" stroke="#b3b3b3" stroke-width=".37345"/><path d="m352.06 464.89s-0.0766-3e-3 -0.12428-0.019l-0.48832-0.16001c-0.0366-0.012-0.0635-0.0539-0.0635-0.0924v-0.34937c0-0.0385 0.0481-0.078 0.0866-0.078h9.3206c0.0385 0 0.0866 0.0395 0.0866 0.078v0.34937c0 0.0385-0.0269 0.0804-0.0635 0.0924l-0.48832 0.16001c-0.0477 0.0156-0.0741 0.019-0.12428 0.019z" fill="#333" stroke="#000" stroke-width=".062746"/></g><g fill="#ffffff" font-family="sans-serif" letter-spacing="0px" word-spacing="0px"><g font-size=".80785px" stroke-width=".020196"><text transform="scale(1 1)" x="36.483799" y="292.81995" style="line-height:1.25" xml:space="preserve"><tspan x="36.483799" y="292.81995" fill="#ffffff" stroke-width=".020196">USB</tspan></text><text transform="scale(1 1)" x="41.675072" y="291.23022" style="line-height:1.25" xml:space="preserve"><tspan x="41.675072" y="291.23022" fill="#ffffff" stroke-width=".020196">Ethernet</tspan></text><text transform="scale(1 1)" x="17.889183" y="292.32632" style="line-height:1.25" xml:space="preserve"><tspan x="17.889183" y="292.32632" fill="#ffffff" stroke-width=".020196">Video</tspan></text><text transform="scale(1 1)" x="10.419147" y="291.99557" style="line-height:1.25" xml:space="preserve"><tspan x="10.419147" y="291.99557" fill="#ffffff" stroke-width=".020196">HDMI</tspan></text><text transform="scale(1 1)" x="5.9217725" y="292.24048" style="line-height:1.25" xml:space="preserve"><tspan x="5.9217725" y="292.24048" fill="#ffffff" stroke-width=".020196">DC 12V</tspan></text></g><text transform="scale(1 1)" x="1.484194" y="287.60324" font-size="1.663px" stroke-width=".041575" style="line-height:1.25" xml:space="preserve"><tspan x="1.484194" y="287.60324" fill="#ffffff" stroke-width=".041575">NDS3558A</tspan></text></g></g></svg>
