<svg width="443" height="44.5" version="1.1" viewBox="365 99 235.27326 14.442722" xmlns="http://www.w3.org/2000/svg"><rect x="365" y="94.405" width="235.27" height="23.634" fill="#e5e5e5"/><g transform="matrix(1.1421 0 0 1.0743 -53.01 -13.021)"><rect x="368" y="101.2" width="1.8" height="1.8"/><rect x="368" y="101.2" width="1.8" height="1.8" fill="none" stroke="#000" stroke-width=".2"/><rect x="371.16" y="101.2" width="1.8" height="1.8"/><rect x="371.16" y="101.2" width="1.8" height="1.8" fill="none" stroke="#000" stroke-width=".2"/><rect x="374.31" y="101.2" width="1.8" height="1.8"/><rect x="374.31" y="101.2" width="1.8" height="1.8" fill="none" stroke="#000" stroke-width=".2"/><rect x="377.47" y="101.2" width="1.8" height="1.8"/><rect x="377.47" y="101.2" width="1.8" height="1.8" fill="none" stroke="#000" stroke-width=".2"/><rect x="380.62" y="101.2" width="1.8" height="1.8"/><rect x="380.62" y="101.2" width="1.8" height="1.8" fill="none" stroke="#000" stroke-width=".2"/><rect x="383.78" y="101.2" width="1.8" height="1.8"/><rect x="383.78" y="101.2" width="1.8" height="1.8" fill="none" stroke="#000" stroke-width=".2"/><rect x="386.93" y="101.2" width="1.8" height="1.8"/><rect x="386.93" y="101.2" width="1.8" height="1.8" fill="none" stroke="#000" stroke-width=".2"/><rect x="390.09" y="101.2" width="1.8" height="1.8"/><rect x="390.09" y="101.2" width="1.8" height="1.8" fill="none" stroke="#000" stroke-width=".2"/><rect x="393.24" y="101.2" width="1.8" height="1.8"/><rect x="393.24" y="101.2" width="1.8" height="1.8" fill="none" stroke="#000" stroke-width=".2"/><rect x="396.4" y="101.2" width="1.8" height="1.8"/><rect x="396.4" y="101.2" width="1.8" height="1.8" fill="none" stroke="#000" stroke-width=".2"/><rect x="399.55" y="101.2" width="1.8" height="1.8"/><rect x="399.55" y="101.2" width="1.8" height="1.8" fill="none" stroke="#000" stroke-width=".2"/><rect x="402.71" y="101.2" width="1.8" height="1.8"/><rect x="402.71" y="101.2" width="1.8" height="1.8" fill="none" stroke="#000" stroke-width=".2"/><rect x="405.87" y="101.2" width="1.8" height="1.8"/><rect x="405.87" y="101.2" width="1.8" height="1.8" fill="none" stroke="#000" stroke-width=".2"/><rect x="409.02" y="101.2" width="1.8" height="1.8"/><rect x="409.02" y="101.2" width="1.8" height="1.8" fill="none" stroke="#000" stroke-width=".2"/><rect x="412.18" y="101.2" width="1.8" height="1.8"/><rect x="412.18" y="101.2" width="1.8" height="1.8" fill="none" stroke="#000" stroke-width=".2"/><rect x="415.33" y="101.2" width="1.8" height="1.8"/><rect x="415.33" y="101.2" width="1.8" height="1.8" fill="none" stroke="#000" stroke-width=".2"/><rect x="418.49" y="101.2" width="1.8" height="1.8"/><rect x="418.49" y="101.2" width="1.8" height="1.8" fill="none" stroke="#000" stroke-width=".2"/><rect x="421.64" y="101.2" width="1.8" height="1.8"/><rect x="421.64" y="101.2" width="1.8" height="1.8" fill="none" stroke="#000" stroke-width=".2"/><rect x="424.8" y="101.2" width="1.8" height="1.8"/><rect x="424.8" y="101.2" width="1.8" height="1.8" fill="none" stroke="#000" stroke-width=".2"/><rect x="427.95" y="101.2" width="1.8" height="1.8"/><rect x="427.95" y="101.2" width="1.8" height="1.8" fill="none" stroke="#000" stroke-width=".2"/><rect x="431.11" y="101.2" width="1.8" height="1.8"/><rect x="431.11" y="101.2" width="1.8" height="1.8" fill="none" stroke="#000" stroke-width=".2"/><rect x="434.27" y="101.2" width="1.8" height="1.8"/><rect x="434.27" y="101.2" width="1.8" height="1.8" fill="none" stroke="#000" stroke-width=".2"/><rect x="437.42" y="101.2" width="1.8" height="1.8"/><rect x="437.42" y="101.2" width="1.8" height="1.8" fill="none" stroke="#000" stroke-width=".2"/><rect x="440.58" y="101.2" width="1.8" height="1.8"/><rect x="440.58" y="101.2" width="1.8" height="1.8" fill="none" stroke="#000" stroke-width=".2"/><rect x="443.73" y="101.2" width="1.8" height="1.8"/><rect x="443.73" y="101.2" width="1.8" height="1.8" fill="none" stroke="#000" stroke-width=".2"/><rect x="446.89" y="101.2" width="1.8" height="1.8"/><rect x="446.89" y="101.2" width="1.8" height="1.8" fill="none" stroke="#000" stroke-width=".2"/><rect x="450.04" y="101.2" width="1.8" height="1.8"/><rect x="450.04" y="101.2" width="1.8" height="1.8" fill="none" stroke="#000" stroke-width=".2"/><rect x="453.2" y="101.2" width="1.8" height="1.8"/><rect x="453.2" y="101.2" width="1.8" height="1.8" fill="none" stroke="#000" stroke-width=".2"/><rect x="456.35" y="101.2" width="1.8" height="1.8"/><rect x="456.35" y="101.2" width="1.8" height="1.8" fill="none" stroke="#000" stroke-width=".2"/><rect x="459.51" y="101.2" width="1.8" height="1.8"/><rect x="459.51" y="101.2" width="1.8" height="1.8" fill="none" stroke="#000" stroke-width=".2"/><rect x="462.66" y="101.2" width="1.8" height="1.8"/><rect x="462.66" y="101.2" width="1.8" height="1.8" fill="none" stroke="#000" stroke-width=".2"/><rect x="465.82" y="101.2" width="1.8" height="1.8"/><rect x="465.82" y="101.2" width="1.8" height="1.8" fill="none" stroke="#000" stroke-width=".2"/><rect x="468.98" y="101.2" width="1.8" height="1.8"/><rect x="468.98" y="101.2" width="1.8" height="1.8" fill="none" stroke="#000" stroke-width=".2"/><rect x="472.13" y="101.2" width="1.8" height="1.8"/><rect x="472.13" y="101.2" width="1.8" height="1.8" fill="none" stroke="#000" stroke-width=".2"/><rect x="475.29" y="101.2" width="1.8" height="1.8"/><rect x="475.29" y="101.2" width="1.8" height="1.8" fill="none" stroke="#000" stroke-width=".2"/><rect x="478.44" y="101.2" width="1.8" height="1.8"/><rect x="478.44" y="101.2" width="1.8" height="1.8" fill="none" stroke="#000" stroke-width=".2"/><rect x="481.6" y="101.2" width="1.8" height="1.8"/><rect x="481.6" y="101.2" width="1.8" height="1.8" fill="none" stroke="#000" stroke-width=".2"/><rect x="484.75" y="101.2" width="1.8" height="1.8"/><rect x="484.75" y="101.2" width="1.8" height="1.8" fill="none" stroke="#000" stroke-width=".2"/><rect x="487.91" y="101.2" width="1.8" height="1.8"/><rect x="487.91" y="101.2" width="1.8" height="1.8" fill="none" stroke="#000" stroke-width=".2"/><rect x="491.06" y="101.2" width="1.8" height="1.8"/><rect x="491.06" y="101.2" width="1.8" height="1.8" fill="none" stroke="#000" stroke-width=".2"/><rect x="494.22" y="101.2" width="1.8" height="1.8"/><rect x="494.22" y="101.2" width="1.8" height="1.8" fill="none" stroke="#000" stroke-width=".2"/><rect x="497.37" y="101.2" width="1.8" height="1.8"/><rect x="497.37" y="101.2" width="1.8" height="1.8" fill="none" stroke="#000" stroke-width=".2"/><rect x="500.53" y="101.2" width="1.8" height="1.8"/><rect x="500.53" y="101.2" width="1.8" height="1.8" fill="none" stroke="#000" stroke-width=".2"/><rect x="503.68" y="101.2" width="1.8" height="1.8"/><rect x="503.68" y="101.2" width="1.8" height="1.8" fill="none" stroke="#000" stroke-width=".2"/><rect x="506.84" y="101.2" width="1.8" height="1.8"/><rect x="506.84" y="101.2" width="1.8" height="1.8" fill="none" stroke="#000" stroke-width=".2"/><rect x="510" y="101.2" width="1.8" height="1.8"/><rect x="510" y="101.2" width="1.8" height="1.8" fill="none" stroke="#000" stroke-width=".2"/><rect x="513.15" y="101.2" width="1.8" height="1.8"/><rect x="513.15" y="101.2" width="1.8" height="1.8" fill="none" stroke="#000" stroke-width=".2"/><rect x="516.31" y="101.2" width="1.8" height="1.8"/><rect x="516.31" y="101.2" width="1.8" height="1.8" fill="none" stroke="#000" stroke-width=".2"/><rect x="519.46" y="101.2" width="1.8" height="1.8"/><rect x="519.46" y="101.2" width="1.8" height="1.8" fill="none" stroke="#000" stroke-width=".2"/><rect x="522.62" y="101.2" width="1.8" height="1.8"/><rect x="522.62" y="101.2" width="1.8" height="1.8" fill="none" stroke="#000" stroke-width=".2"/><rect x="525.77" y="101.2" width="1.8" height="1.8"/><rect x="525.77" y="101.2" width="1.8" height="1.8" fill="none" stroke="#000" stroke-width=".2"/><rect x="528.93" y="101.2" width="1.8" height="1.8"/><rect x="528.93" y="101.2" width="1.8" height="1.8" fill="none" stroke="#000" stroke-width=".2"/><rect x="532.08" y="101.2" width="1.8" height="1.8"/><rect x="532.08" y="101.2" width="1.8" height="1.8" fill="none" stroke="#000" stroke-width=".2"/><rect x="535.24" y="101.2" width="1.8" height="1.8"/><rect x="535.24" y="101.2" width="1.8" height="1.8" fill="none" stroke="#000" stroke-width=".2"/><rect x="538.4" y="101.2" width="1.8" height="1.8"/><rect x="538.4" y="101.2" width="1.8" height="1.8" fill="none" stroke="#000" stroke-width=".2"/><rect x="541.55" y="101.2" width="1.8" height="1.8"/><rect x="541.55" y="101.2" width="1.8" height="1.8" fill="none" stroke="#000" stroke-width=".2"/><rect x="544.71" y="101.2" width="1.8" height="1.8"/><rect x="544.71" y="101.2" width="1.8" height="1.8" fill="none" stroke="#000" stroke-width=".2"/><rect x="547.86" y="101.2" width="1.8" height="1.8"/><rect x="547.86" y="101.2" width="1.8" height="1.8" fill="none" stroke="#000" stroke-width=".2"/><rect x="551.02" y="101.2" width="1.8" height="1.8"/><rect x="551.02" y="101.2" width="1.8" height="1.8" fill="none" stroke="#000" stroke-width=".2"/><rect x="554.17" y="101.2" width="1.8" height="1.8"/><rect x="554.17" y="101.2" width="1.8" height="1.8" fill="none" stroke="#000" stroke-width=".2"/><rect x="557.33" y="101.2" width="1.8" height="1.8"/><rect x="557.33" y="101.2" width="1.8" height="1.8" fill="none" stroke="#000" stroke-width=".2"/><rect x="560.48" y="101.2" width="1.8" height="1.8"/><rect x="560.48" y="101.2" width="1.8" height="1.8" fill="none" stroke="#000" stroke-width=".2"/><rect x="563.64" y="101.2" width="1.8" height="1.8"/><rect x="563.64" y="101.2" width="1.8" height="1.8" fill="none" stroke="#000" stroke-width=".2"/><rect x="368" y="104.4" width="1.8" height="1.8"/><rect x="368" y="104.4" width="1.8" height="1.8" fill="none" stroke="#000" stroke-width=".2"/><rect x="371.16" y="104.4" width="1.8" height="1.8"/><rect x="371.16" y="104.4" width="1.8" height="1.8" fill="none" stroke="#000" stroke-width=".2"/><rect x="374.31" y="104.4" width="1.8" height="1.8"/><rect x="374.31" y="104.4" width="1.8" height="1.8" fill="none" stroke="#000" stroke-width=".2"/><rect x="377.47" y="104.4" width="1.8" height="1.8"/><rect x="377.47" y="104.4" width="1.8" height="1.8" fill="none" stroke="#000" stroke-width=".2"/><rect x="380.62" y="104.4" width="1.8" height="1.8"/><rect x="380.62" y="104.4" width="1.8" height="1.8" fill="none" stroke="#000" stroke-width=".2"/><rect x="383.78" y="104.4" width="1.8" height="1.8"/><rect x="383.78" y="104.4" width="1.8" height="1.8" fill="none" stroke="#000" stroke-width=".2"/><rect x="386.93" y="104.4" width="1.8" height="1.8"/><rect x="386.93" y="104.4" width="1.8" height="1.8" fill="none" stroke="#000" stroke-width=".2"/><rect x="390.09" y="104.4" width="1.8" height="1.8"/><rect x="390.09" y="104.4" width="1.8" height="1.8" fill="none" stroke="#000" stroke-width=".2"/><rect x="393.24" y="104.4" width="1.8" height="1.8"/><rect x="393.24" y="104.4" width="1.8" height="1.8" fill="none" stroke="#000" stroke-width=".2"/><rect x="396.4" y="104.4" width="1.8" height="1.8"/><rect x="396.4" y="104.4" width="1.8" height="1.8" fill="none" stroke="#000" stroke-width=".2"/><rect x="399.55" y="104.4" width="1.8" height="1.8"/><rect x="399.55" y="104.4" width="1.8" height="1.8" fill="none" stroke="#000" stroke-width=".2"/><rect x="402.71" y="104.4" width="1.8" height="1.8"/><rect x="402.71" y="104.4" width="1.8" height="1.8" fill="none" stroke="#000" stroke-width=".2"/><rect x="405.87" y="104.4" width="1.8" height="1.8"/><rect x="405.87" y="104.4" width="1.8" height="1.8" fill="none" stroke="#000" stroke-width=".2"/><rect x="409.02" y="104.4" width="1.8" height="1.8"/><rect x="409.02" y="104.4" width="1.8" height="1.8" fill="none" stroke="#000" stroke-width=".2"/><rect x="412.18" y="104.4" width="1.8" height="1.8"/><rect x="412.18" y="104.4" width="1.8" height="1.8" fill="none" stroke="#000" stroke-width=".2"/><rect x="415.33" y="104.4" width="1.8" height="1.8"/><rect x="415.33" y="104.4" width="1.8" height="1.8" fill="none" stroke="#000" stroke-width=".2"/><rect x="418.49" y="104.4" width="1.8" height="1.8"/><rect x="418.49" y="104.4" width="1.8" height="1.8" fill="none" stroke="#000" stroke-width=".2"/><rect x="421.64" y="104.4" width="1.8" height="1.8"/><rect x="421.64" y="104.4" width="1.8" height="1.8" fill="none" stroke="#000" stroke-width=".2"/><rect x="424.8" y="104.4" width="1.8" height="1.8"/><rect x="424.8" y="104.4" width="1.8" height="1.8" fill="none" stroke="#000" stroke-width=".2"/><rect x="427.95" y="104.4" width="1.8" height="1.8"/><rect x="427.95" y="104.4" width="1.8" height="1.8" fill="none" stroke="#000" stroke-width=".2"/><rect x="431.11" y="104.4" width="1.8" height="1.8"/><rect x="431.11" y="104.4" width="1.8" height="1.8" fill="none" stroke="#000" stroke-width=".2"/><rect x="434.27" y="104.4" width="1.8" height="1.8"/><rect x="434.27" y="104.4" width="1.8" height="1.8" fill="none" stroke="#000" stroke-width=".2"/><rect x="437.42" y="104.4" width="1.8" height="1.8"/><rect x="437.42" y="104.4" width="1.8" height="1.8" fill="none" stroke="#000" stroke-width=".2"/><rect x="440.58" y="104.4" width="1.8" height="1.8"/><rect x="440.58" y="104.4" width="1.8" height="1.8" fill="none" stroke="#000" stroke-width=".2"/><rect x="443.73" y="104.4" width="1.8" height="1.8"/><rect x="443.73" y="104.4" width="1.8" height="1.8" fill="none" stroke="#000" stroke-width=".2"/><rect x="446.89" y="104.4" width="1.8" height="1.8"/><rect x="446.89" y="104.4" width="1.8" height="1.8" fill="none" stroke="#000" stroke-width=".2"/><rect x="450.04" y="104.4" width="1.8" height="1.8"/><rect x="450.04" y="104.4" width="1.8" height="1.8" fill="none" stroke="#000" stroke-width=".2"/><rect x="453.2" y="104.4" width="1.8" height="1.8"/><rect x="453.2" y="104.4" width="1.8" height="1.8" fill="none" stroke="#000" stroke-width=".2"/><rect x="456.35" y="104.4" width="1.8" height="1.8"/><rect x="456.35" y="104.4" width="1.8" height="1.8" fill="none" stroke="#000" stroke-width=".2"/><rect x="459.51" y="104.4" width="1.8" height="1.8"/><rect x="459.51" y="104.4" width="1.8" height="1.8" fill="none" stroke="#000" stroke-width=".2"/><rect x="462.66" y="104.4" width="1.8" height="1.8"/><rect x="462.66" y="104.4" width="1.8" height="1.8" fill="none" stroke="#000" stroke-width=".2"/><rect x="465.82" y="104.4" width="1.8" height="1.8"/><rect x="465.82" y="104.4" width="1.8" height="1.8" fill="none" stroke="#000" stroke-width=".2"/><rect x="468.98" y="104.4" width="1.8" height="1.8"/><rect x="468.98" y="104.4" width="1.8" height="1.8" fill="none" stroke="#000" stroke-width=".2"/><rect x="472.13" y="104.4" width="1.8" height="1.8"/><rect x="472.13" y="104.4" width="1.8" height="1.8" fill="none" stroke="#000" stroke-width=".2"/><rect x="475.29" y="104.4" width="1.8" height="1.8"/><rect x="475.29" y="104.4" width="1.8" height="1.8" fill="none" stroke="#000" stroke-width=".2"/><rect x="478.44" y="104.4" width="1.8" height="1.8"/><rect x="478.44" y="104.4" width="1.8" height="1.8" fill="none" stroke="#000" stroke-width=".2"/><rect x="481.6" y="104.4" width="1.8" height="1.8"/><rect x="481.6" y="104.4" width="1.8" height="1.8" fill="none" stroke="#000" stroke-width=".2"/><rect x="484.75" y="104.4" width="1.8" height="1.8"/><rect x="484.75" y="104.4" width="1.8" height="1.8" fill="none" stroke="#000" stroke-width=".2"/><rect x="487.91" y="104.4" width="1.8" height="1.8"/><rect x="487.91" y="104.4" width="1.8" height="1.8" fill="none" stroke="#000" stroke-width=".2"/><rect x="491.06" y="104.4" width="1.8" height="1.8"/><rect x="491.06" y="104.4" width="1.8" height="1.8" fill="none" stroke="#000" stroke-width=".2"/><rect x="494.22" y="104.4" width="1.8" height="1.8"/><rect x="494.22" y="104.4" width="1.8" height="1.8" fill="none" stroke="#000" stroke-width=".2"/><rect x="497.37" y="104.4" width="1.8" height="1.8"/><rect x="497.37" y="104.4" width="1.8" height="1.8" fill="none" stroke="#000" stroke-width=".2"/><rect x="500.53" y="104.4" width="1.8" height="1.8"/><rect x="500.53" y="104.4" width="1.8" height="1.8" fill="none" stroke="#000" stroke-width=".2"/><rect x="503.68" y="104.4" width="1.8" height="1.8"/><rect x="503.68" y="104.4" width="1.8" height="1.8" fill="none" stroke="#000" stroke-width=".2"/><rect x="506.84" y="104.4" width="1.8" height="1.8"/><rect x="506.84" y="104.4" width="1.8" height="1.8" fill="none" stroke="#000" stroke-width=".2"/><rect x="510" y="104.4" width="1.8" height="1.8"/><rect x="510" y="104.4" width="1.8" height="1.8" fill="none" stroke="#000" stroke-width=".2"/><rect x="513.15" y="104.4" width="1.8" height="1.8"/><rect x="513.15" y="104.4" width="1.8" height="1.8" fill="none" stroke="#000" stroke-width=".2"/><rect x="516.31" y="104.4" width="1.8" height="1.8"/><rect x="516.31" y="104.4" width="1.8" height="1.8" fill="none" stroke="#000" stroke-width=".2"/><rect x="519.46" y="104.4" width="1.8" height="1.8"/><rect x="519.46" y="104.4" width="1.8" height="1.8" fill="none" stroke="#000" stroke-width=".2"/><rect x="522.62" y="104.4" width="1.8" height="1.8"/><rect x="522.62" y="104.4" width="1.8" height="1.8" fill="none" stroke="#000" stroke-width=".2"/><rect x="525.77" y="104.4" width="1.8" height="1.8"/><rect x="525.77" y="104.4" width="1.8" height="1.8" fill="none" stroke="#000" stroke-width=".2"/><rect x="528.93" y="104.4" width="1.8" height="1.8"/><rect x="528.93" y="104.4" width="1.8" height="1.8" fill="none" stroke="#000" stroke-width=".2"/><rect x="532.08" y="104.4" width="1.8" height="1.8"/><rect x="532.08" y="104.4" width="1.8" height="1.8" fill="none" stroke="#000" stroke-width=".2"/><rect x="535.24" y="104.4" width="1.8" height="1.8"/><rect x="535.24" y="104.4" width="1.8" height="1.8" fill="none" stroke="#000" stroke-width=".2"/><rect x="538.4" y="104.4" width="1.8" height="1.8"/><rect x="538.4" y="104.4" width="1.8" height="1.8" fill="none" stroke="#000" stroke-width=".2"/><rect x="541.55" y="104.4" width="1.8" height="1.8"/><rect x="541.55" y="104.4" width="1.8" height="1.8" fill="none" stroke="#000" stroke-width=".2"/><rect x="544.71" y="104.4" width="1.8" height="1.8"/><rect x="544.71" y="104.4" width="1.8" height="1.8" fill="none" stroke="#000" stroke-width=".2"/><rect x="547.86" y="104.4" width="1.8" height="1.8"/><rect x="547.86" y="104.4" width="1.8" height="1.8" fill="none" stroke="#000" stroke-width=".2"/><rect x="551.02" y="104.4" width="1.8" height="1.8"/><rect x="551.02" y="104.4" width="1.8" height="1.8" fill="none" stroke="#000" stroke-width=".2"/><rect x="554.17" y="104.4" width="1.8" height="1.8"/><rect x="554.17" y="104.4" width="1.8" height="1.8" fill="none" stroke="#000" stroke-width=".2"/><rect x="557.33" y="104.4" width="1.8" height="1.8"/><rect x="557.33" y="104.4" width="1.8" height="1.8" fill="none" stroke="#000" stroke-width=".2"/><rect x="560.48" y="104.4" width="1.8" height="1.8"/><rect x="560.48" y="104.4" width="1.8" height="1.8" fill="none" stroke="#000" stroke-width=".2"/><rect x="563.64" y="104.4" width="1.8" height="1.8"/><rect x="563.64" y="104.4" width="1.8" height="1.8" fill="none" stroke="#000" stroke-width=".2"/></g><g transform="scale(1.0311 .96984)" aria-label="RouterBOARD 1100"><path d="m507.57 116.69q0.36939 0 0.52814-0.13737 0.16179-0.13738 0.16179-0.45182 0-0.31138-0.16179-0.4457-0.15875-0.13432-0.52814-0.13432h-0.49455v1.1692zm-0.49455 0.81204v1.7248h-1.1753v-4.5578h1.795q0.90057 0 1.3188 0.30222 0.42129 0.30223 0.42129 0.95553 0 0.45181-0.2198 0.74182-0.21675 0.29002-0.65635 0.42739 0.24117 0.055 0.43044 0.25033 0.19233 0.19233 0.38771 0.58614l0.63803 1.2944h-1.2516l-0.5556-1.1326q-0.16791-0.34192-0.34191-0.46708-0.17096-0.12517-0.45792-0.12517z" style=""/><path d="m512.29 116.51q-0.36328 0-0.5556 0.26254-0.18928 0.25948-0.18928 0.75098t0.18928 0.75404q0.19232 0.25949 0.5556 0.25949 0.35718 0 0.54645-0.25949 0.18928-0.26254 0.18928-0.75404t-0.18928-0.75098q-0.18927-0.26254-0.54645-0.26254zm0-0.78152q0.88226 0 1.3768 0.47624 0.49761 0.47623 0.49761 1.3188t-0.49761 1.3188q-0.49455 0.47623-1.3768 0.47623-0.8853 0-1.386-0.47623-0.49761-0.47624-0.49761-1.3188t0.49761-1.3188q0.50066-0.47624 1.386-0.47624z" style=""/><path d="m514.93 117.9v-2.0881h1.099v0.34191q0 0.2778-3e-3 0.69909-3e-3 0.41823-3e-3 0.55866 0 0.41212 0.0214 0.59529 0.0214 0.18012 0.0733 0.26254 0.0672 0.10685 0.174 0.16485 0.10991 0.058 0.25033 0.058 0.34192 0 0.53729-0.26254 0.19538-0.26254 0.19538-0.72962v-1.6882h1.0929v3.4191h-1.0929v-0.49455q-0.24727 0.29917-0.52508 0.44265-0.27475 0.14043-0.6075 0.14043-0.59224 0-0.90363-0.36328-0.30833-0.36328-0.30833-1.0563z" style=""/><path d="m520.61 114.84v0.97079h1.1265v0.78151h-1.1265v1.4501q0 0.23811 0.0946 0.32359 0.0946 0.0824 0.37549 0.0824h0.56172v0.78151h-0.93721q-0.64719 0-0.91889-0.26865-0.26864-0.27169-0.26864-0.91888v-1.4501h-0.5434v-0.78151h0.5434v-0.97079z" style=""/><path d="m525.83 117.51v0.31138h-2.5552q0.0397 0.38466 0.2778 0.57698 0.23812 0.19233 0.66551 0.19233 0.34497 0 0.7052-0.10074 0.36328-0.1038 0.74488-0.31139v0.84257q-0.38771 0.14653-0.77541 0.2198-0.38771 0.0763-0.77541 0.0763-0.92805 0-1.444-0.47013-0.51287-0.47318-0.51287-1.3249 0-0.83646 0.50371-1.3158 0.50677-0.47929 1.3921-0.47929 0.80593 0 1.2883 0.4854 0.48539 0.48539 0.48539 1.2974zm-1.1234-0.36328q0-0.31139-0.18317-0.50066-0.18011-0.19232-0.47318-0.19232-0.31749 0-0.51592 0.18011-0.19843 0.17706-0.24728 0.51287z" style=""/><path d="m529.19 116.74q-0.14348-0.0672-0.28696-0.0977-0.14043-0.0336-0.28391-0.0336-0.42129 0-0.65025 0.2717-0.2259 0.26864-0.2259 0.77235v1.5752h-1.0929v-3.4191h1.0929v0.56171q0.21064-0.33581 0.48234-0.48845 0.27475-0.15569 0.65635-0.15569 0.055 0 0.11905 6e-3 0.0641 3e-3 0.18623 0.0183z" style=""/><path d="m531.61 116.44q0.2778 0 0.42129-0.12211 0.14348-0.12211 0.14348-0.36023 0-0.23507-0.14348-0.35718-0.14349-0.12516-0.42129-0.12516h-0.65024v0.96468zm0.0397 1.9935q0.35412 0 0.53118-0.14959 0.18012-0.14958 0.18012-0.45181 0-0.29612-0.17707-0.44265-0.17706-0.14959-0.53423-0.14959h-0.68994v1.1936zm1.0929-1.6394q0.37855 0.1099 0.58614 0.40602t0.20759 0.72657q0 0.6594-0.44571 0.98299-0.4457 0.3236-1.3554 0.3236h-1.9507v-4.5578h1.7645q0.94942 0 1.3738 0.28696 0.42739 0.28696 0.42739 0.91889 0 0.33275-0.15569 0.56782-0.15569 0.23201-0.45182 0.34496z" style=""/><path d="m536.63 115.44q-0.53729 0-0.83341 0.39686t-0.29612 1.1173q0 0.71741 0.29612 1.1143t0.83341 0.39686q0.54035 0 0.83647-0.39686t0.29612-1.1143q0-0.72046-0.29612-1.1173t-0.83647-0.39686zm0-0.85173q1.099 0 1.7218 0.62888 0.62277 0.62887 0.62277 1.737 0 1.1051-0.62277 1.734-0.62277 0.62887-1.7218 0.62887-1.096 0-1.7218-0.62887-0.62277-0.62888-0.62277-1.734 0-1.1082 0.62277-1.737 0.62582-0.62888 1.7218-0.62888z" style=""/><path d="m542.46 118.4h-1.8378l-0.29001 0.83036h-1.1814l1.6882-4.5578h1.4012l1.6882 4.5578h-1.1814zm-1.5447-0.84562h1.2486l-0.62277-1.8134z" style=""/><path d="m546.2 116.69q0.36939 0 0.52813-0.13737 0.1618-0.13738 0.1618-0.45182 0-0.31138-0.1618-0.4457-0.15874-0.13432-0.52813-0.13432h-0.49455v1.1692zm-0.49455 0.81204v1.7248h-1.1753v-4.5578h1.795q0.90058 0 1.3188 0.30222 0.42128 0.30223 0.42128 0.95553 0 0.45181-0.2198 0.74182-0.21675 0.29002-0.65635 0.42739 0.24117 0.055 0.43045 0.25033 0.19232 0.19233 0.3877 0.58614l0.63803 1.2944h-1.2516l-0.55561-1.1326q-0.1679-0.34192-0.34191-0.46708-0.17096-0.12517-0.45792-0.12517z" style=""/><path d="m550.51 115.56v2.7811h0.42129q0.72046 0 1.099-0.35718 0.3816-0.35717 0.3816-1.038 0-0.67771-0.37855-1.0318-0.37854-0.35412-1.102-0.35412zm-1.1753-0.88836h1.2394q1.038 0 1.5447 0.14958 0.50982 0.14654 0.8731 0.50066 0.32054 0.30833 0.47623 0.7113 0.1557 0.40297 0.1557 0.91278 0 0.51593-0.1557 0.92195-0.15569 0.40296-0.47623 0.7113-0.36633 0.35412-0.8792 0.50371-0.51287 0.14653-1.5386 0.14653h-1.2394z" style=""/><path d="m556.86 118.42h1.038v-2.9459l-1.0654 0.2198v-0.79983l1.0593-0.2198h1.1173v3.7458h1.038v0.81204h-3.1871z" style=""/><path d="m561.21 118.42h1.038v-2.9459l-1.0654 0.2198v-0.79983l1.0593-0.2198h1.1173v3.7458h1.038v0.81204h-3.1871z" style=""/><path d="m567.7 116.95q0-0.85478-0.16179-1.2028-0.15875-0.35107-0.53729-0.35107-0.37855 0-0.54035 0.35107-0.1618 0.34801-0.1618 1.2028 0 0.86394 0.1618 1.2181 0.1618 0.35412 0.54035 0.35412 0.37549 0 0.53729-0.35412 0.16179-0.35413 0.16179-1.2181zm1.1753 9e-3q0 1.1326-0.48845 1.7492-0.48844 0.61361-1.386 0.61361-0.90058 0-1.389-0.61361-0.48845-0.61666-0.48845-1.7492 0-1.1356 0.48845-1.7492 0.48844-0.61667 1.389-0.61667 0.89752 0 1.386 0.61667 0.48845 0.61361 0.48845 1.7492z" style=""/><path d="m572.04 116.95q0-0.85478-0.1618-1.2028-0.15875-0.35107-0.53729-0.35107-0.37855 0-0.54035 0.35107-0.16179 0.34801-0.16179 1.2028 0 0.86394 0.16179 1.2181 0.1618 0.35412 0.54035 0.35412 0.37549 0 0.53729-0.35412 0.1618-0.35413 0.1618-1.2181zm1.1753 9e-3q0 1.1326-0.48845 1.7492-0.48844 0.61361-1.386 0.61361-0.90057 0-1.389-0.61361-0.48845-0.61666-0.48845-1.7492 0-1.1356 0.48845-1.7492 0.48845-0.61667 1.389-0.61667 0.89752 0 1.386 0.61667 0.48845 0.61361 0.48845 1.7492z" style=""/></g><rect x="371.48" y="107.04" width="43.25" height="7.5654"/><g transform="matrix(-1.0006 0 0 -.99999 524.52 460.5)"><path d="m110.02 353.2h7.5579v-6.9858l-7.5579-2.3e-4z" fill="#3a3a3a"/><path d="m110.32 347.98h1.7584l-3e-3 -1.0653 0.63992-5.7e-4v-0.39887h2.0626l-4.8e-4 0.39991h0.66608v1.0654h1.7503v4.5866l-6.8735 0.0149z" fill="#1a1a1a"/><path d="m115.6 347.7h1.7367v-0.74886h-1.7367v0.74886z" fill="#abb927"/><path d="m110.16 347.7h1.752v-0.75276h-1.752v0.75276z" fill="#ff7d00"/><path d="m110.02 353.21-1e-3 -6.9884 2.3308-9.5e-4v0.67227l-2.2487-1e-3v0.87026l0.22325 7e-3 4.8e-4 4.8157 6.87-0.01 5e-3 -5e-3 5.3e-4 -4.801 0.22324-7e-3v-0.87027l-2.2619 1e-3v-0.67227l2.4153 9.5e-4 1e-3 6.9884" fill="#ebebeb"/></g><g transform="matrix(-1.0006 0 0 -.99999 515.77 460.5)"><path d="m110.02 353.2h7.5579v-6.9858l-7.5579-2.3e-4z" fill="#3a3a3a"/><path d="m110.32 347.98h1.7584l-3e-3 -1.0653 0.63992-5.7e-4v-0.39887h2.0626l-4.8e-4 0.39991h0.66608v1.0654h1.7503v4.5866l-6.8735 0.0149z" fill="#1a1a1a"/><path d="m115.6 347.7h1.7367v-0.74886h-1.7367v0.74886z" fill="#abb927"/><path d="m110.16 347.7h1.752v-0.75276h-1.752v0.75276z" fill="#ff7d00"/><path d="m110.02 353.21-1e-3 -6.9884 2.3308-9.5e-4v0.67227l-2.2487-1e-3v0.87026l0.22325 7e-3 4.8e-4 4.8157 6.87-0.01 5e-3 -5e-3 5.3e-4 -4.801 0.22324-7e-3v-0.87027l-2.2619 1e-3v-0.67227l2.4153 9.5e-4 1e-3 6.9884" fill="#ebebeb"/></g><g transform="matrix(-1.0006 0 0 -.99999 507.02 460.5)"><path d="m110.02 353.2h7.5579v-6.9858l-7.5579-2.3e-4z" fill="#3a3a3a"/><path d="m110.32 347.98h1.7584l-3e-3 -1.0653 0.63992-5.7e-4v-0.39887h2.0626l-4.8e-4 0.39991h0.66608v1.0654h1.7503v4.5866l-6.8735 0.0149z" fill="#1a1a1a"/><path d="m115.6 347.7h1.7367v-0.74886h-1.7367v0.74886z" fill="#abb927"/><path d="m110.16 347.7h1.752v-0.75276h-1.752v0.75276z" fill="#ff7d00"/><path d="m110.02 353.21-1e-3 -6.9884 2.3308-9.5e-4v0.67227l-2.2487-1e-3v0.87026l0.22325 7e-3 4.8e-4 4.8157 6.87-0.01 5e-3 -5e-3 5.3e-4 -4.801 0.22324-7e-3v-0.87027l-2.2619 1e-3v-0.67227l2.4153 9.5e-4 1e-3 6.9884" fill="#ebebeb"/></g><g transform="matrix(-1.0006 0 0 -.99999 498.28 460.5)"><path d="m110.02 353.2h7.5579v-6.9858l-7.5579-2.3e-4z" fill="#3a3a3a"/><path d="m110.32 347.98h1.7584l-3e-3 -1.0653 0.63992-5.7e-4v-0.39887h2.0626l-4.8e-4 0.39991h0.66608v1.0654h1.7503v4.5866l-6.8735 0.0149z" fill="#1a1a1a"/><path d="m115.6 347.7h1.7367v-0.74886h-1.7367v0.74886z" fill="#abb927"/><path d="m110.16 347.7h1.752v-0.75276h-1.752v0.75276z" fill="#ff7d00"/><path d="m110.02 353.21-1e-3 -6.9884 2.3308-9.5e-4v0.67227l-2.2487-1e-3v0.87026l0.22325 7e-3 4.8e-4 4.8157 6.87-0.01 5e-3 -5e-3 5.3e-4 -4.801 0.22324-7e-3v-0.87027l-2.2619 1e-3v-0.67227l2.4153 9.5e-4 1e-3 6.9884" fill="#ebebeb"/></g><g transform="matrix(-1.0006 0 0 -.99999 489.53 460.5)"><path d="m110.02 353.2h7.5579v-6.9858l-7.5579-2.3e-4z" fill="#3a3a3a"/><path d="m110.32 347.98h1.7584l-3e-3 -1.0653 0.63992-5.7e-4v-0.39887h2.0626l-4.8e-4 0.39991h0.66608v1.0654h1.7503v4.5866l-6.8735 0.0149z" fill="#1a1a1a"/><path d="m115.6 347.7h1.7367v-0.74886h-1.7367v0.74886z" fill="#abb927"/><path d="m110.16 347.7h1.752v-0.75276h-1.752v0.75276z" fill="#ff7d00"/><path d="m110.02 353.21-1e-3 -6.9884 2.3308-9.5e-4v0.67227l-2.2487-1e-3v0.87026l0.22325 7e-3 4.8e-4 4.8157 6.87-0.01 5e-3 -5e-3 5.3e-4 -4.801 0.22324-7e-3v-0.87027l-2.2619 1e-3v-0.67227l2.4153 9.5e-4 1e-3 6.9884" fill="#ebebeb"/></g><rect x="419.88" y="107.17" width="43.25" height="7.5654"/><g transform="matrix(-1.0006 0 0 -.99999 572.91 460.63)"><path d="m110.02 353.2h7.5579v-6.9858l-7.5579-2.3e-4z" fill="#3a3a3a"/><path d="m110.32 347.98h1.7584l-3e-3 -1.0653 0.63992-5.7e-4v-0.39887h2.0626l-4.8e-4 0.39991h0.66608v1.0654h1.7503v4.5866l-6.8735 0.0149z" fill="#1a1a1a"/><path d="m115.6 347.7h1.7367v-0.74886h-1.7367v0.74886z" fill="#abb927"/><path d="m110.16 347.7h1.752v-0.75276h-1.752v0.75276z" fill="#ff7d00"/><path d="m110.02 353.21-1e-3 -6.9884 2.3308-9.5e-4v0.67227l-2.2487-1e-3v0.87026l0.22325 7e-3 4.8e-4 4.8157 6.87-0.01 5e-3 -5e-3 5.3e-4 -4.801 0.22324-7e-3v-0.87027l-2.2619 1e-3v-0.67227l2.4153 9.5e-4 1e-3 6.9884" fill="#ebebeb"/></g><g transform="matrix(-1.0006 0 0 -.99999 564.16 460.63)"><path d="m110.02 353.2h7.5579v-6.9858l-7.5579-2.3e-4z" fill="#3a3a3a"/><path d="m110.32 347.98h1.7584l-3e-3 -1.0653 0.63992-5.7e-4v-0.39887h2.0626l-4.8e-4 0.39991h0.66608v1.0654h1.7503v4.5866l-6.8735 0.0149z" fill="#1a1a1a"/><path d="m115.6 347.7h1.7367v-0.74886h-1.7367v0.74886z" fill="#abb927"/><path d="m110.16 347.7h1.752v-0.75276h-1.752v0.75276z" fill="#ff7d00"/><path d="m110.02 353.21-1e-3 -6.9884 2.3308-9.5e-4v0.67227l-2.2487-1e-3v0.87026l0.22325 7e-3 4.8e-4 4.8157 6.87-0.01 5e-3 -5e-3 5.3e-4 -4.801 0.22324-7e-3v-0.87027l-2.2619 1e-3v-0.67227l2.4153 9.5e-4 1e-3 6.9884" fill="#ebebeb"/></g><g transform="matrix(-1.0006 0 0 -.99999 555.41 460.63)"><path d="m110.02 353.2h7.5579v-6.9858l-7.5579-2.3e-4z" fill="#3a3a3a"/><path d="m110.32 347.98h1.7584l-3e-3 -1.0653 0.63992-5.7e-4v-0.39887h2.0626l-4.8e-4 0.39991h0.66608v1.0654h1.7503v4.5866l-6.8735 0.0149z" fill="#1a1a1a"/><path d="m115.6 347.7h1.7367v-0.74886h-1.7367v0.74886z" fill="#abb927"/><path d="m110.16 347.7h1.752v-0.75276h-1.752v0.75276z" fill="#ff7d00"/><path d="m110.02 353.21-1e-3 -6.9884 2.3308-9.5e-4v0.67227l-2.2487-1e-3v0.87026l0.22325 7e-3 4.8e-4 4.8157 6.87-0.01 5e-3 -5e-3 5.3e-4 -4.801 0.22324-7e-3v-0.87027l-2.2619 1e-3v-0.67227l2.4153 9.5e-4 1e-3 6.9884" fill="#ebebeb"/></g><g transform="matrix(-1.0006 0 0 -.99999 546.67 460.63)"><path d="m110.02 353.2h7.5579v-6.9858l-7.5579-2.3e-4z" fill="#3a3a3a"/><path d="m110.32 347.98h1.7584l-3e-3 -1.0653 0.63992-5.7e-4v-0.39887h2.0626l-4.8e-4 0.39991h0.66608v1.0654h1.7503v4.5866l-6.8735 0.0149z" fill="#1a1a1a"/><path d="m115.6 347.7h1.7367v-0.74886h-1.7367v0.74886z" fill="#abb927"/><path d="m110.16 347.7h1.752v-0.75276h-1.752v0.75276z" fill="#ff7d00"/><path d="m110.02 353.21-1e-3 -6.9884 2.3308-9.5e-4v0.67227l-2.2487-1e-3v0.87026l0.22325 7e-3 4.8e-4 4.8157 6.87-0.01 5e-3 -5e-3 5.3e-4 -4.801 0.22324-7e-3v-0.87027l-2.2619 1e-3v-0.67227l2.4153 9.5e-4 1e-3 6.9884" fill="#ebebeb"/></g><g transform="matrix(-1.0006 0 0 -.99999 537.92 460.63)"><path d="m110.02 353.2h7.5579v-6.9858l-7.5579-2.3e-4z" fill="#3a3a3a"/><path d="m110.32 347.98h1.7584l-3e-3 -1.0653 0.63992-5.7e-4v-0.39887h2.0626l-4.8e-4 0.39991h0.66608v1.0654h1.7503v4.5866l-6.8735 0.0149z" fill="#1a1a1a"/><path d="m115.6 347.7h1.7367v-0.74886h-1.7367v0.74886z" fill="#abb927"/><path d="m110.16 347.7h1.752v-0.75276h-1.752v0.75276z" fill="#ff7d00"/><path d="m110.02 353.21-1e-3 -6.9884 2.3308-9.5e-4v0.67227l-2.2487-1e-3v0.87026l0.22325 7e-3 4.8e-4 4.8157 6.87-0.01 5e-3 -5e-3 5.3e-4 -4.801 0.22324-7e-3v-0.87027l-2.2619 1e-3v-0.67227l2.4153 9.5e-4 1e-3 6.9884" fill="#ebebeb"/></g><rect x="469.89" y="107.32" width="25.718" height="7.5654"/><g transform="matrix(-1.0006 0 0 -.99999 605.43 460.77)"><path d="m110.02 353.2h7.5579v-6.9858l-7.5579-2.3e-4z" fill="#3a3a3a"/><path d="m110.32 347.98h1.7584l-3e-3 -1.0653 0.63992-5.7e-4v-0.39887h2.0626l-4.8e-4 0.39991h0.66608v1.0654h1.7503v4.5866l-6.8735 0.0149z" fill="#1a1a1a"/><path d="m115.6 347.7h1.7367v-0.74886h-1.7367v0.74886z" fill="#abb927"/><path d="m110.16 347.7h1.752v-0.75276h-1.752v0.75276z" fill="#ff7d00"/><path d="m110.02 353.21-1e-3 -6.9884 2.3308-9.5e-4v0.67227l-2.2487-1e-3v0.87026l0.22325 7e-3 4.8e-4 4.8157 6.87-0.01 5e-3 -5e-3 5.3e-4 -4.801 0.22324-7e-3v-0.87027l-2.2619 1e-3v-0.67227l2.4153 9.5e-4 1e-3 6.9884" fill="#ebebeb"/></g><g transform="matrix(1.0006 0 0 .99999 360.2 -238.64)"><path d="m110.02 353.2h7.5579v-6.9858l-7.5579-2.3e-4z" fill="#3a3a3a"/><path d="m110.32 347.98h1.7584l-3e-3 -1.0653 0.63992-5.7e-4v-0.39887h2.0626l-4.8e-4 0.39991h0.66608v1.0654h1.7503v4.5866l-6.8735 0.0149z" fill="#1a1a1a"/><path d="m115.6 347.7h1.7367v-0.74886h-1.7367v0.74886z" fill="#abb927"/><path d="m110.16 347.7h1.752v-0.75276h-1.752v0.75276z" fill="#ff7d00"/><path d="m110.02 353.21-1e-3 -6.9884 2.3308-9.5e-4v0.67227l-2.2487-1e-3v0.87026l0.22325 7e-3 4.8e-4 4.8157 6.87-0.01 5e-3 -5e-3 5.3e-4 -4.801 0.22324-7e-3v-0.87027l-2.2619 1e-3v-0.67227l2.4153 9.5e-4 1e-3 6.9884" fill="#ebebeb"/></g><g transform="matrix(1.0006 0 0 .99999 367.78 -238.64)"><path d="m110.02 353.2h7.5579v-6.9858l-7.5579-2.3e-4z" fill="#3a3a3a"/><path d="m110.32 347.98h1.7584l-3e-3 -1.0653 0.63992-5.7e-4v-0.39887h2.0626l-4.8e-4 0.39991h0.66608v1.0654h1.7503v4.5866l-6.8735 0.0149z" fill="#1a1a1a"/><path d="m115.6 347.7h1.7367v-0.74886h-1.7367v0.74886z" fill="#abb927"/><path d="m110.16 347.7h1.752v-0.75276h-1.752v0.75276z" fill="#ff7d00"/><path d="m110.02 353.21-1e-3 -6.9884 2.3308-9.5e-4v0.67227l-2.2487-1e-3v0.87026l0.22325 7e-3 4.8e-4 4.8157 6.87-0.01 5e-3 -5e-3 5.3e-4 -4.801 0.22324-7e-3v-0.87027l-2.2619 1e-3v-0.67227l2.4153 9.5e-4 1e-3 6.9884" fill="#ebebeb"/></g><g transform="scale(1.0508 .95167)" aria-label="ETH1"><path d="m355.9 110.15h0.60711v0.10933h-0.4772v0.28427h0.45726v0.10933h-0.45726v0.34793h0.48878v0.10933h-0.61869z" style=""/><path d="m356.6 110.15h0.81227v0.10933h-0.34085v0.85086h-0.13056v-0.85086h-0.34086z" style=""/><path d="m357.54 110.15h0.12991v0.3936h0.47205v-0.3936h0.12991v0.96019h-0.12991v-0.45726h-0.47205v0.45726h-0.12991z" style=""/><path d="m358.56 111h0.21223v-0.73252l-0.23088 0.0463v-0.11833l0.22959-0.0463h0.12991v0.85086h0.21224v0.10933h-0.55309z" style=""/></g><g transform="scale(1.0508 .95167)" aria-label="ETH2"><path d="m364.23 110.15h0.60711v0.10933h-0.4772v0.28427h0.45727v0.10933h-0.45727v0.34793h0.48878v0.10933h-0.61869z" style=""/><path d="m364.93 110.15h0.81227v0.10933h-0.34086v0.85086h-0.13056v-0.85086h-0.34085z" style=""/><path d="m365.87 110.15h0.12991v0.3936h0.47206v-0.3936h0.12991v0.96019h-0.12991v-0.45726h-0.47206v0.45726h-0.12991z" style=""/><path d="m366.98 111h0.45341v0.10933h-0.60969v-0.10933q0.074-0.0765 0.2013-0.20516 0.12798-0.12927 0.16078-0.16657 0.0624-0.0701 0.0868-0.11833 0.0251-0.0489 0.0251-0.0958 0-0.0765-0.054-0.12477-0.0534-0.0482-0.13956-0.0482-0.0611 0-0.12927 0.0212-0.0675 0.0212-0.1447 0.0643v-0.1312q0.0785-0.0315 0.14663-0.0476 0.0682-0.0161 0.12476-0.0161 0.14921 0 0.23796 0.0746 0.0888 0.0746 0.0888 0.19937 0 0.0592-0.0225 0.11255-0.0219 0.0527-0.0804 0.12476-0.0161 0.0186-0.10225 0.10805-0.0862 0.0887-0.24311 0.24889z" style=""/></g><g transform="scale(1.0508 .95167)" aria-label="ETH3"><path d="m372.54 110.13h0.60711v0.10933h-0.4772v0.28426h0.45727v0.10933h-0.45727v0.34794h0.48878v0.10933h-0.61869z" style=""/><path d="m373.24 110.13h0.81227v0.10933h-0.34086v0.85086h-0.13055v-0.85086h-0.34086z" style=""/><path d="m374.18 110.13h0.12991v0.39359h0.47206v-0.39359h0.12991v0.96019h-0.12991v-0.45727h-0.47206v0.45727h-0.12991z" style=""/><path d="m375.57 110.58q0.0933 0.0199 0.14535 0.083 0.0527 0.063 0.0527 0.15564 0 0.14213-0.0978 0.21995-0.0978 0.0778-0.27783 0.0778-0.0605 0-0.12476-0.0122-0.0637-0.0116-0.13185-0.0354v-0.12541q0.054 0.0315 0.11834 0.0476 0.0643 0.0161 0.13441 0.0161 0.1222 0 0.18587-0.0482 0.0643-0.0482 0.0643-0.1402 0-0.0849-0.0598-0.13248-0.0592-0.0482-0.16528-0.0482h-0.11191v-0.10676h0.11705q0.0958 0 0.14663-0.0379 0.0508-0.0386 0.0508-0.11062 0-0.074-0.0527-0.11319-0.0521-0.0399-0.14984-0.0399-0.0534 0-0.11448 0.0116-0.0611 0.0116-0.13441 0.036v-0.11577q0.0739-0.0206 0.13827-0.0309 0.065-0.0103 0.12219-0.0103 0.14792 0 0.2341 0.0675 0.0862 0.0669 0.0862 0.18136 0 0.0797-0.0457 0.13506-0.0457 0.0547-0.12992 0.0759z" style=""/></g><g transform="scale(1.0508 .95167)" aria-label="ETH4"><path d="m380.85 110.15h0.60711v0.10933h-0.4772v0.28427h0.45727v0.10933h-0.45727v0.34793h0.48878v0.10933h-0.61869z" style=""/><path d="m381.55 110.15h0.81227v0.10933h-0.34086v0.85086h-0.13056v-0.85086h-0.34085z" style=""/><path d="m382.49 110.15h0.12991v0.3936h0.47205v-0.3936h0.12992v0.96019h-0.12992v-0.45726h-0.47205v0.45726h-0.12991z" style=""/><path d="m383.85 110.27-0.32799 0.51257h0.32799zm-0.0341-0.11319h0.16335v0.62576h0.13699v0.10805h-0.13699v0.22638h-0.12927v-0.22638h-0.43346v-0.12541z" style=""/></g><g transform="scale(1.0508 .95167)" aria-label="ETH5"><path d="m389.2 110.13h0.60712v0.10933h-0.4772v0.28426h0.45726v0.10933h-0.45726v0.34794h0.48877v0.10933h-0.61869z" style=""/><path d="m389.9 110.13h0.81227v0.10933h-0.34086v0.85086h-0.13055v-0.85086h-0.34086z" style=""/><path d="m390.84 110.13h0.12991v0.39359h0.47206v-0.39359h0.12991v0.96019h-0.12991v-0.45727h-0.47206v0.45727h-0.12991z" style=""/><path d="m391.84 110.13h0.51v0.10933h-0.39102v0.23538q0.0283-0.01 0.0566-0.0141 0.0283-5e-3 0.0566-5e-3 0.16078 0 0.25468 0.0881t0.0939 0.2386q0 0.15499-0.0965 0.24117-0.0965 0.0855-0.27204 0.0855-0.0605 0-0.12348-0.0103-0.0624-0.0103-0.12927-0.0309v-0.13056q0.0579 0.0315 0.11962 0.0469 0.0617 0.0154 0.13056 0.0154 0.11126 0 0.17622-0.0585 0.0649-0.0585 0.0649-0.15885 0-0.10033-0.0649-0.15885-0.065-0.0585-0.17622-0.0585-0.0521 0-0.10419 0.0116-0.0514 0.0116-0.10547 0.036z" style=""/></g><g transform="scale(1.0508 .95167)" aria-label="ETH6"><path d="m401.93 110.13h0.60711v0.10933h-0.4772v0.28426h0.45727v0.10933h-0.45727v0.34794h0.48878v0.10933h-0.61869z" style=""/><path d="m402.63 110.13h0.81227v0.10933h-0.34086v0.85086h-0.13056v-0.85086h-0.34085z" style=""/><path d="m403.57 110.13h0.12991v0.39359h0.47206v-0.39359h0.12991v0.96019h-0.12991v-0.45727h-0.47206v0.45727h-0.12991z" style=""/><path d="m404.86 110.56q-0.0875 0-0.13892 0.0598-0.0508 0.0598-0.0508 0.164 0 0.10354 0.0508 0.164 0.0515 0.0598 0.13892 0.0598 0.0875 0 0.13827-0.0598 0.0514-0.0605 0.0514-0.164 0-0.10419-0.0514-0.164-0.0508-0.0598-0.13827-0.0598zm0.25789-0.4071v0.11834q-0.0489-0.0232-0.099-0.0354-0.0495-0.0122-0.0984-0.0122-0.12862 0-0.19679 0.0868-0.0675 0.0868-0.0772 0.26239 0.038-0.056 0.0952-0.0855 0.0572-0.0302 0.12606-0.0302 0.1447 0 0.22831 0.0881 0.0842 0.0875 0.0842 0.2386 0 0.14792-0.0875 0.23731-0.0875 0.0894-0.23281 0.0894-0.16657 0-0.25468-0.12734-0.0881-0.12798-0.0881-0.37044 0-0.22767 0.10805-0.36273 0.10804-0.1357 0.29005-0.1357 0.0489 0 0.0984 0.01 0.0502 0.01 0.10418 0.0289z" style=""/></g><g transform="scale(1.0508 .95167)" aria-label="ETH7"><path d="m410.27 110.15h0.60711v0.10933h-0.4772v0.28427h0.45726v0.10933h-0.45726v0.34793h0.48878v0.10933h-0.61869z" style=""/><path d="m410.97 110.15h0.81227v0.10933h-0.34085v0.85086h-0.13056v-0.85086h-0.34086z" style=""/><path d="m411.91 110.15h0.12991v0.3936h0.47205v-0.3936h0.12991v0.96019h-0.12991v-0.45726h-0.47205v0.45726h-0.12991z" style=""/><path d="m412.88 110.15h0.6174v0.0553l-0.34858 0.90488h-0.1357l0.328-0.85086h-0.46112z" style=""/></g><g transform="scale(1.0508 .95167)" aria-label="ETH8"><path d="m418.58 110.13h0.60711v0.10933h-0.4772v0.28426h0.45727v0.10933h-0.45727v0.34794h0.48878v0.10933h-0.61869z" style=""/><path d="m419.29 110.13h0.81227v0.10933h-0.34086v0.85086h-0.13055v-0.85086h-0.34086z" style=""/><path d="m420.22 110.13h0.12991v0.39359h0.47206v-0.39359h0.12991v0.96019h-0.12991v-0.45727h-0.47206v0.45727h-0.12991z" style=""/><path d="m421.5 110.64q-0.0926 0-0.14599 0.0495-0.0527 0.0495-0.0527 0.13634 0 0.0868 0.0527 0.13635 0.0534 0.0495 0.14599 0.0495 0.0926 0 0.14599-0.0495 0.0534-0.0502 0.0534-0.13635 0-0.0868-0.0534-0.13634-0.0527-0.0495-0.14599-0.0495zm-0.12991-0.0553q-0.0836-0.0206-0.13055-0.0778-0.0463-0.0572-0.0463-0.13956 0-0.11512 0.0817-0.182 0.0823-0.0669 0.22509-0.0669 0.14342 0 0.2251 0.0669 0.0817 0.0669 0.0817 0.182 0 0.0823-0.0469 0.13956-0.0463 0.0572-0.12927 0.0778 0.0939 0.0219 0.14599 0.0855 0.0527 0.0637 0.0527 0.15563 0 0.13956-0.0855 0.21416-0.0849 0.0746-0.24375 0.0746t-0.24439-0.0746q-0.0849-0.0746-0.0849-0.21416 0-0.092 0.0527-0.15563 0.0527-0.0637 0.14663-0.0855zm-0.0476-0.20516q0 0.0746 0.0463 0.11641 0.0469 0.0418 0.1312 0.0418 0.0836 0 0.13056-0.0418 0.0476-0.0418 0.0476-0.11641 0-0.0746-0.0476-0.1164-0.0469-0.0418-0.13056-0.0418-0.0842 0-0.1312 0.0418-0.0463 0.0418-0.0463 0.1164z" style=""/></g><g transform="scale(1.0508 .95167)" aria-label="ETH9"><path d="m426.91 110.13h0.60711v0.10933h-0.4772v0.28426h0.45727v0.10933h-0.45727v0.34794h0.48878v0.10933h-0.61869z" style=""/><path d="m427.61 110.13h0.81226v0.10933h-0.34085v0.85086h-0.13056v-0.85086h-0.34085z" style=""/><path d="m428.55 110.13h0.12991v0.39359h0.47205v-0.39359h0.12992v0.96019h-0.12992v-0.45727h-0.47205v0.45727h-0.12991z" style=""/><path d="m429.56 111.08v-0.11834q0.0489 0.0232 0.099 0.0354 0.0502 0.0122 0.0984 0.0122 0.12862 0 0.19615-0.0862 0.0682-0.0868 0.0778-0.26304-0.0373 0.0553-0.0945 0.0849t-0.1267 0.0296q-0.14406 0-0.22831-0.0868-0.0836-0.0875-0.0836-0.2386 0-0.14792 0.0875-0.23731 0.0875-0.0894 0.23281-0.0894 0.16657 0 0.25404 0.12799 0.0881 0.12734 0.0881 0.37044 0 0.22702-0.10805 0.36272-0.1074 0.13506-0.2894 0.13506-0.0489 0-0.099-0.01-0.0502-0.01-0.10418-0.0289zm0.25853-0.4071q0.0875 0 0.13828-0.0598 0.0514-0.0598 0.0514-0.164 0-0.10354-0.0514-0.16335-0.0508-0.0605-0.13828-0.0605-0.0875 0-0.13891 0.0605-0.0508 0.0598-0.0508 0.16335 0 0.10419 0.0508 0.164 0.0515 0.0598 0.13891 0.0598z" style=""/></g><g transform="scale(1.0508 .95167)" aria-label="ETH10"><path d="m434.82 110.13h0.60712v0.10933h-0.4772v0.28426h0.45726v0.10933h-0.45726v0.34794h0.48877v0.10933h-0.61869z" style=""/><path d="m435.52 110.13h0.81227v0.10933h-0.34086v0.85086h-0.13055v-0.85086h-0.34086z" style=""/><path d="m436.45 110.13h0.12991v0.39359h0.47206v-0.39359h0.12991v0.96019h-0.12991v-0.45727h-0.47206v0.45727h-0.12991z" style=""/><path d="m437.48 110.99h0.21223v-0.73253l-0.23088 0.0463v-0.11834l0.2296-0.0463h0.12991v0.85086h0.21223v0.10933h-0.55309z" style=""/><path d="m438.57 110.22q-0.10033 0-0.15113 0.0991-0.0502 0.0984-0.0502 0.29648 0 0.19744 0.0502 0.29648 0.0508 0.0984 0.15113 0.0984 0.10097 0 0.15113-0.0984 0.0508-0.099 0.0508-0.29648 0-0.19809-0.0508-0.29648-0.0502-0.0991-0.15113-0.0991zm0-0.1029q0.16142 0 0.24632 0.12799 0.0855 0.12734 0.0855 0.37044 0 0.24246-0.0855 0.37044-0.0849 0.12734-0.24632 0.12734-0.16143 0-0.24696-0.12734-0.0849-0.12798-0.0849-0.37044 0-0.2431 0.0849-0.37044 0.0855-0.12799 0.24696-0.12799z" style=""/></g><g transform="scale(1.0508 .95167)" aria-label="ETH11"><path d="m449.13 110.15h0.60711v0.10933h-0.4772v0.28427h0.45726v0.10933h-0.45726v0.34793h0.48878v0.10933h-0.61869z" style=""/><path d="m449.83 110.15h0.81227v0.10933h-0.34086v0.85086h-0.13055v-0.85086h-0.34086z" style=""/><path d="m450.76 110.15h0.12992v0.3936h0.47205v-0.3936h0.12991v0.96019h-0.12991v-0.45726h-0.47205v0.45726h-0.12992z" style=""/><path d="m451.79 111h0.21223v-0.73252l-0.23089 0.0463v-0.11833l0.2296-0.0463h0.12991v0.85086h0.21223v0.10933h-0.55308z" style=""/><path d="m452.63 111h0.21223v-0.73252l-0.23088 0.0463v-0.11833l0.2296-0.0463h0.12991v0.85086h0.21223v0.10933h-0.55309z" style=""/></g><g transform="scale(1.0508 .95167)" aria-label="ETH12"><path d="m456.34 110.15h0.60711v0.10933h-0.4772v0.28427h0.45726v0.10933h-0.45726v0.34793h0.48877v0.10933h-0.61868z" style=""/><path d="m457.05 110.15h0.81227v0.10933h-0.34086v0.85086h-0.13055v-0.85086h-0.34086z" style=""/><path d="m457.98 110.15h0.12991v0.3936h0.47206v-0.3936h0.12991v0.96019h-0.12991v-0.45726h-0.47206v0.45726h-0.12991z" style=""/><path d="m459.01 111h0.21224v-0.73252l-0.23089 0.0463v-0.11833l0.2296-0.0463h0.12991v0.85086h0.21223v0.10933h-0.55309z" style=""/><path d="m459.94 111h0.4534v0.10933h-0.60968v-0.10933q0.074-0.0765 0.20129-0.20516 0.12799-0.12927 0.16079-0.16657 0.0624-0.0701 0.0868-0.11833 0.0251-0.0489 0.0251-0.0958 0-0.0765-0.054-0.12477-0.0534-0.0482-0.13956-0.0482-0.0611 0-0.12927 0.0212-0.0675 0.0212-0.1447 0.0643v-0.1312q0.0785-0.0315 0.14663-0.0476 0.0682-0.0161 0.12477-0.0161 0.1492 0 0.23795 0.0746 0.0888 0.0746 0.0888 0.19937 0 0.0592-0.0225 0.11255-0.0219 0.0527-0.0804 0.12476-0.0161 0.0186-0.10225 0.10805-0.0862 0.0887-0.2431 0.24889z" style=""/></g><g transform="scale(1.0508 .95167)" aria-label="ETH13"><path d="m465.77 110.13h0.60711v0.10933h-0.4772v0.28426h0.45727v0.10933h-0.45727v0.34794h0.48878v0.10933h-0.61869z" style=""/><path d="m466.47 110.13h0.81227v0.10933h-0.34086v0.85086h-0.13056v-0.85086h-0.34085z" style=""/><path d="m467.41 110.13h0.12991v0.39359h0.47206v-0.39359h0.12991v0.96019h-0.12991v-0.45727h-0.47206v0.45727h-0.12991z" style=""/><path d="m468.43 110.99h0.21223v-0.73253l-0.23088 0.0463v-0.11834l0.2296-0.0463h0.12991v0.85086h0.21223v0.10933h-0.55309z" style=""/><path d="m469.64 110.58q0.0933 0.0199 0.14535 0.083 0.0527 0.063 0.0527 0.15564 0 0.14213-0.0978 0.21995-0.0978 0.0778-0.27783 0.0778-0.0605 0-0.12477-0.0122-0.0637-0.0116-0.13184-0.0354v-0.12541q0.054 0.0315 0.11834 0.0476 0.0643 0.0161 0.13441 0.0161 0.12219 0 0.18586-0.0482 0.0643-0.0482 0.0643-0.1402 0-0.0849-0.0598-0.13248-0.0592-0.0482-0.16528-0.0482h-0.1119v-0.10676h0.11705q0.0958 0 0.14663-0.0379 0.0508-0.0386 0.0508-0.11062 0-0.074-0.0527-0.11319-0.0521-0.0399-0.14985-0.0399-0.0534 0-0.11448 0.0116-0.0611 0.0116-0.13441 0.036v-0.11577q0.074-0.0206 0.13827-0.0309 0.065-0.0103 0.1222-0.0103 0.14792 0 0.2341 0.0675 0.0862 0.0669 0.0862 0.18136 0 0.0797-0.0457 0.13506-0.0457 0.0547-0.12991 0.0759z" style=""/></g><g transform="matrix(.049509 0 0 .049509 560.82 101.4)"><g id="Vilnishi"><g fill-rule="evenodd"><polygon points="28.122 54.501 2.602 152.47 13.467 152.47 35.695 62.459 36.024 62.459 54.958 152.47 66.155 152.47 131.19 63.832 131.52 63.832 107.32 152.47 118.35 152.47 143.54 54.501 127.24 54.501 62.697 142.45 44.421 54.501"/><path d="m154.11 81.668-18.276 70.798h10.373l18.275-70.798h-10.372z"/><polygon points="171.7 152.47 178.28 126.81 196.39 114.18 218.95 152.47 230.31 152.47 204.63 108.97 244.8 81.668 230.97 81.668 181.25 116.24 180.92 115.97 189.78 81.654 179.39 81.654 161.32 152.47"/><path d="m250.91 81.668-18.275 70.798h10.373l9.549-37.046c3.458-13.309 13.336-25.794 31.941-26.068 1.976 0 3.952 0.137 5.927 0.137l2.305-8.644c-1.812-0.138-3.787-0.138-5.598-0.138-15.147-0.137-24.203 7.135-30.789 17.289h-0.33l4.281-16.328h-9.384z"/><path d="m364.7 107.32c0-17.425-13.83-27.716-33.588-27.716-30.295 0-47.418 22.228-47.418 45.415 0 17.7 12.019 29.5 33.916 29.5 31.45-1e-3 47.09-23.325 47.09-47.199zm-10.373 1.783c0 16.465-12.02 38.144-34.74 38.144-17.288 0-25.52-9.331-25.52-23.051 0-16.601 12.514-37.32 35.234-37.32 16.629 0 25.026 9.056 25.026 22.227z"/><polygon points="431.66 81.654 464.24 81.618 470.98 54.485 369.56 54.485 362.86 81.654 395.39 81.654 395.39 81.662 431.66 81.662"/><polygon points="428.42 94.654 428.43 94.63 392.16 94.63 392.16 94.634 377.79 152.45 414.01 152.45"/><path d="m470.06 94.639-14.315 57.811h32.601l14.315-57.811h-32.601zm35.877-13.021 6.774-27.133h-32.6l-6.821 27.168 32.647-0.035z"/><polygon points="534.43 152.45 539.54 132.14 546.95 126.66 558.47 152.45 593.87 152.45 572.14 109.92 610.5 81.24 571.48 81.24 547.44 102.1 547.11 102.1 558.8 54.485 526.2 54.485 501.83 152.45"/><path d="m152.88 11.694c4.937 34.276 23.337 55.089 60.831 56.809-35.328 13.505-71.747-18.265-60.831-56.809z"/><path d="m168.12 6.84c3.984 27.659 18.832 44.453 49.086 45.841-28.506 10.898-57.894-14.739-49.086-45.841z"/></g></g></g><g transform="scale(.71452 1.3995)" stroke-width="1px" aria-label="X2 "><path d="m831.98 75.971 1.3226 1.9457h-1.0239l-0.89112-1.3022-0.88346 1.3022h-1.029l1.3226-1.9457-1.2716-1.8665h1.0264l0.83495 1.2282 0.8324-1.2282h1.0316z"/><path d="m834.87 77.194h1.6776v0.7226h-2.7704v-0.7226l1.3916-1.2282q0.1864-0.16852 0.27576-0.32938 0.0894-0.16086 0.0894-0.33449 0-0.2681-0.18129-0.43152-0.17873-0.16342-0.47748-0.16342-0.2298 0-0.50301 0.09958-0.27321 0.09703-0.58472 0.29108v-0.8375q0.33194-0.10979 0.65622-0.16597 0.32427-0.05873 0.63578-0.05873 0.6843 0 1.0622 0.3013 0.38045 0.3013 0.38045 0.84005 0 0.31151-0.16086 0.58217-0.16086 0.2681-0.67664 0.72005z"/></g><g transform="scale(.71452 1.3995)" stroke-width="1px" aria-label="AH "><path d="m831.85 81.99h-1.5371l-0.24257 0.69451h-0.98815l1.412-3.8122h1.172l1.412 3.8122h-0.98815zm-1.292-0.70728h1.0443l-0.52088-1.5167z"/><path d="m833.53 78.873h0.98304v1.4529h1.4503v-1.4529h0.98304v3.8122h-0.98304v-1.6163h-1.4503v1.6163h-0.98304z"/></g><g transform="matrix(.5665 0 0 .5665 406.61 -38.419)"><rect x="160.94" y="257.66" width="30.719" height="13.281" rx="2.7" fill="#f2f2f2" fill-opacity=".96622" fill-rule="evenodd" stroke="#090909" stroke-linecap="round" stroke-width=".1875"/><g transform="translate(-.27702 -1.4531e-5)" stroke="#333" stroke-width=".067244"><g transform="translate(-21.189 -6.7388)"><path d="m189.01 272.01v-2.0135l-1.7484-1.0068-1.7484 1.0738v2.0135l1.7484 1.0077z" fill="#b3b3b3"/><path d="m188.61 271.03c0 0.75957-0.60197 1.3766-1.3446 1.3766-0.74258 0-1.3446-0.61707-1.3446-1.3766 0-0.75955 0.60197-1.3757 1.3446-1.3757 0.74259 0 1.3446 0.61613 1.3446 1.3757z" fill="#ddd"/><path d="m187.73 271.03c0 0.2406-0.21132 0.43687-0.47081 0.43687-0.25948 0-0.47084-0.19627-0.47084-0.43687s0.21136-0.43591 0.47084-0.43591c0.25949 0 0.47081 0.19531 0.47081 0.43591z" fill="#a4a4a4"/></g><g transform="translate(-.18874 -6.7388)"><path d="m189.01 272.01v-2.0135l-1.7484-1.0068-1.7484 1.0738v2.0135l1.7484 1.0077z" fill="#b3b3b3"/><path d="m188.61 271.03c0 0.75957-0.60197 1.3766-1.3446 1.3766-0.74258 0-1.3446-0.61707-1.3446-1.3766 0-0.75955 0.60197-1.3757 1.3446-1.3757 0.74259 0 1.3446 0.61613 1.3446 1.3757z" fill="#ddd"/><path d="m187.73 271.03c0 0.2406-0.21132 0.43687-0.47081 0.43687-0.25948 0-0.47084-0.19627-0.47084-0.43687s0.21136-0.43591 0.47084-0.43591c0.25949 0 0.47081 0.19531 0.47081 0.43591z" fill="#a4a4a4"/></g></g><g transform="translate(.43892 .20189)"><g transform="translate(-1.3533 5.9318)" fill-rule="evenodd" stroke="#000" stroke-linecap="round"><path d="m171.46 254.62h11.509c0.94773 0 1.937 0.7904 1.7107 1.7107l-1.0295 4.187c-0.22629 0.92033-0.76297 1.196-1.7107 1.196h-9.4499c-0.94773 0-1.4844-0.27566-1.7107-1.196l-1.0295-4.187c-0.22628-0.92032 0.76298-1.7107 1.7107-1.7107z" fill="#ececec" stroke-width=".025737"/><path d="m171.64 254.79h11.145c0.91776 0 1.8757 0.75221 1.6566 1.6281l-0.99691 3.9847c-0.21914 0.87586-0.73884 1.1382-1.6566 1.1382h-9.151c-0.91775 0-1.4375-0.26234-1.6566-1.1382l-0.99693-3.9847c-0.21912-0.87586 0.73885-1.6281 1.6566-1.6281z" fill="#333" stroke-width=".024707"/></g><g fill="#ececec" stroke="#ccc" stroke-width=".067244"><path d="m182.01 262.62c0 0.27834-0.2255 0.50385-0.50383 0.50385-0.27837 0-0.50481-0.22551-0.50481-0.50385 0-0.27739 0.22644-0.50384 0.50481-0.50384 0.27833 0 0.50383 0.22645 0.50383 0.50384z"/><path d="m170.78 262.62c0 0.27834-0.24155 0.50385-0.53781 0.50385-0.29722 0-0.53782-0.22551-0.53782-0.50385 0-0.27739 0.2406-0.50384 0.53782-0.50384 0.29626 0 0.53781 0.22645 0.53781 0.50384z"/><path d="m173.62 262.62c0 0.27834-0.2406 0.50385-0.53784 0.50385-0.29719 0-0.53779-0.22551-0.53779-0.50385 0-0.27739 0.2406-0.50384 0.53779-0.50384 0.29724 0 0.53784 0.22645 0.53784 0.50384z"/><path d="m176.46 262.62c0 0.27834-0.2406 0.50385-0.53782 0.50385-0.2972 0-0.53782-0.22551-0.53782-0.50385 0-0.27739 0.24062-0.50384 0.53782-0.50384 0.29722 0 0.53782 0.22645 0.53782 0.50384z"/><path d="m179.24 262.62c0 0.27834-0.2255 0.50385-0.50385 0.50385s-0.50479-0.22551-0.50479-0.50385c0-0.27739 0.22644-0.50384 0.50479-0.50384s0.50385 0.22645 0.50385 0.50384z"/><path d="m172.17 265.57c0 0.27834-0.22552 0.50385-0.50385 0.50385-0.27835 0-0.50481-0.22551-0.50481-0.50385 0-0.27741 0.22646-0.5029 0.50481-0.5029 0.27833 0 0.50385 0.22549 0.50385 0.5029z"/><path d="m175.01 265.57c0 0.27834-0.22551 0.50385-0.50386 0.50385-0.27834 0-0.5048-0.22551-0.5048-0.50385 0-0.27741 0.22646-0.5029 0.5048-0.5029 0.27835 0 0.50386 0.22549 0.50386 0.5029z"/><path d="m177.85 265.57c0 0.27834-0.22644 0.50385-0.50479 0.50385s-0.50385-0.22551-0.50385-0.50385c0-0.27741 0.2255-0.5029 0.50385-0.5029s0.50479 0.22549 0.50479 0.5029z"/><path d="m180.62 265.57c0 0.27834-0.22646 0.50385-0.50481 0.50385-0.27833 0-0.50385-0.22551-0.50385-0.50385 0-0.27741 0.22552-0.5029 0.50385-0.5029 0.27835 0 0.50481 0.22549 0.50481 0.5029z"/></g></g></g><g fill-rule="evenodd"><g transform="matrix(0 .5665 -.5665 0 661.66 -18.705)" stroke="#000" stroke-width=".171"><rect x="225.49" y="342.7" width="6.768" height="3.5831" fill="#1a1a1a"/><rect x="229.71" y="343.19" width="2.0702" height="2.5878" fill="#4d4d4d"/></g><circle cx="516.61" cy="112.62" r=".65184" fill="#0055d4" fill-opacity=".96622" stroke="#04a" stroke-linejoin="round" stroke-width=".10622"/><circle cx="516.61" cy="109.99" r=".65184" fill="#4d4d4d" fill-opacity=".96622" stroke="#090909" stroke-linejoin="round" stroke-width=".053109"/></g></svg>
