<?xml version="1.0" encoding="UTF-8" standalone="no"?>
<svg
   xmlns:dc="http://purl.org/dc/elements/1.1/"
   xmlns:cc="http://creativecommons.org/ns#"
   xmlns:rdf="http://www.w3.org/1999/02/22-rdf-syntax-ns#"
   xmlns:svg="http://www.w3.org/2000/svg"
   xmlns="http://www.w3.org/2000/svg"
   xmlns:sodipodi="http://sodipodi.sourceforge.net/DTD/sodipodi-0.dtd"
   xmlns:inkscape="http://www.inkscape.org/namespaces/inkscape"
   width="443"
   height="44.5"
   viewBox="365 99 235.27326 14.442722"
   id="svg10521"
   version="1.1"
   inkscape:version="0.92pre3 r"
   sodipodi:docname="RB2011.svg">
  <metadata
     id="metadata11717">
    <rdf:RDF>
      <cc:Work
         rdf:about="">
        <dc:format>image/svg+xml</dc:format>
        <dc:type
           rdf:resource="http://purl.org/dc/dcmitype/StillImage" />
        <dc:title />
      </cc:Work>
    </rdf:RDF>
  </metadata>
  <defs
     id="defs11715" />
  <sodipodi:namedview
     pagecolor="#ffffff"
     bordercolor="#666666"
     borderopacity="1"
     objecttolerance="10"
     gridtolerance="10"
     guidetolerance="10"
     inkscape:pageopacity="0"
     inkscape:pageshadow="2"
     inkscape:window-width="1920"
     inkscape:window-height="1043"
     id="namedview11713"
     showgrid="false"
     units="px"
     inkscape:zoom="1.4767532"
     inkscape:cx="249.69571"
     inkscape:cy="94.097217"
     inkscape:window-x="0"
     inkscape:window-y="0"
     inkscape:window-maximized="1"
     inkscape:current-layer="svg10521"
     showguides="true"
     inkscape:guide-bbox="true">
    <sodipodi:guide
       position="-31.278868,2.0202702"
       orientation="0,1"
       id="guide40995"
       inkscape:locked="false" />
  </sodipodi:namedview>
  <g
     id="g19916">
    <rect
       id="rect10525"
       height="23.633541"
       width="235.27325"
       y="94.404594"
       x="365"
       style="fill:#1a1a1a;fill-opacity:1" />
    <rect
       y="107.03967"
       x="387.84799"
       height="7.5654144"
       width="42.169579"
       id="rect39732"
       style="opacity:1;fill:#ebebeb;fill-opacity:1;stroke:#000000;stroke-width:0.10621818;stroke-linejoin:round;stroke-miterlimit:4;stroke-dasharray:none;stroke-dashoffset:0;stroke-opacity:1" />
    <path
       inkscape:connector-curvature="0"
       id="path12947-8-7-75-2-6-5"
       style="fill:#1a1a1a;fill-opacity:1;fill-rule:nonzero;stroke:none;stroke-width:1.00031137"
       d="m 429.43269,112.52038 h -1.75948 l 0.003,1.06528 -0.64032,5.7e-4 v 0.39886 H 424.972 l 4.8e-4,-0.3999 h -0.6665 v -1.06538 h -1.75139 v -4.58659 l 6.87786,-0.0149 z"
       sodipodi:nodetypes="ccccccccccccc" />
    <path
       inkscape:connector-curvature="0"
       id="path12947-8-7-75-2-6-5-1"
       style="fill:#1a1a1a;fill-opacity:1;fill-rule:nonzero;stroke:none;stroke-width:1.00031137"
       d="m 420.94963,112.52038 h -1.75948 l 0.003,1.06528 -0.64032,5.7e-4 v 0.39886 h -2.06389 l 4.8e-4,-0.3999 h -0.6665 v -1.06538 h -1.75139 v -4.58659 l 6.87786,-0.0149 z"
       sodipodi:nodetypes="ccccccccccccc" />
    <path
       inkscape:connector-curvature="0"
       id="path12947-8-7-75-2-6-5-3"
       style="fill:#1a1a1a;fill-opacity:1;fill-rule:nonzero;stroke:none;stroke-width:1.00031137"
       d="m 412.46658,112.52038 h -1.75948 l 0.003,1.06528 -0.64032,5.7e-4 v 0.39886 h -2.06389 l 4.8e-4,-0.3999 h -0.6665 v -1.06538 h -1.75139 v -4.58659 l 6.87786,-0.0149 z"
       sodipodi:nodetypes="ccccccccccccc" />
    <path
       inkscape:connector-curvature="0"
       id="path12947-8-7-75-2-6-5-0"
       style="fill:#1a1a1a;fill-opacity:1;fill-rule:nonzero;stroke:none;stroke-width:1.00031137"
       d="m 403.98352,112.52038 h -1.75948 l 0.003,1.06528 -0.64032,5.7e-4 v 0.39886 h -2.06389 l 4.8e-4,-0.3999 h -0.6665 v -1.06538 h -1.75139 v -4.58659 l 6.87786,-0.0149 z"
       sodipodi:nodetypes="ccccccccccccc" />
    <path
       inkscape:connector-curvature="0"
       id="path12947-8-7-75-2-6-5-7"
       style="fill:#1a1a1a;fill-opacity:1;fill-rule:nonzero;stroke:none;stroke-width:1.00031137"
       d="m 395.50047,112.52038 h -1.75948 l 0.003,1.06528 -0.64032,5.7e-4 v 0.39886 h -2.06389 l 4.8e-4,-0.3999 h -0.6665 v -1.06538 h -1.75139 v -4.58659 l 6.87786,-0.0149 z"
       sodipodi:nodetypes="ccccccccccccc" />
    <rect
       y="107.16917"
       x="451.97266"
       height="7.5654144"
       width="42.169579"
       id="rect39732-0"
       style="opacity:1;fill:#ebebeb;fill-opacity:1;stroke:#000000;stroke-width:0.10621818;stroke-linejoin:round;stroke-miterlimit:4;stroke-dasharray:none;stroke-dashoffset:0;stroke-opacity:1" />
    <path
       inkscape:connector-curvature="0"
       id="path12947-8-7-75-2-6-5-9"
       style="fill:#1a1a1a;fill-opacity:1;fill-rule:nonzero;stroke:none;stroke-width:1.00031137"
       d="m 493.55735,112.64988 h -1.75948 l 0.003,1.06528 -0.64032,5.7e-4 v 0.39886 h -2.06389 l 4.8e-4,-0.3999 h -0.6665 v -1.06538 h -1.75139 v -4.58659 l 6.87786,-0.0149 z"
       sodipodi:nodetypes="ccccccccccccc" />
    <path
       inkscape:connector-curvature="0"
       id="path12947-8-7-75-2-6-5-1-9"
       style="fill:#1a1a1a;fill-opacity:1;fill-rule:nonzero;stroke:none;stroke-width:1.00031137"
       d="m 485.07429,112.64988 h -1.75948 l 0.003,1.06528 -0.64032,5.7e-4 v 0.39886 h -2.06389 l 4.8e-4,-0.3999 h -0.6665 v -1.06538 h -1.75139 v -4.58659 l 6.87786,-0.0149 z"
       sodipodi:nodetypes="ccccccccccccc" />
    <path
       inkscape:connector-curvature="0"
       id="path12947-8-7-75-2-6-5-3-1"
       style="fill:#1a1a1a;fill-opacity:1;fill-rule:nonzero;stroke:none;stroke-width:1.00031137"
       d="m 476.59124,112.64988 h -1.75948 l 0.003,1.06528 -0.64032,5.7e-4 v 0.39886 h -2.06389 l 4.8e-4,-0.3999 h -0.6665 v -1.06538 h -1.75139 v -4.58659 l 6.87786,-0.0149 z"
       sodipodi:nodetypes="ccccccccccccc" />
    <path
       inkscape:connector-curvature="0"
       id="path12947-8-7-75-2-6-5-0-0"
       style="fill:#1a1a1a;fill-opacity:1;fill-rule:nonzero;stroke:none;stroke-width:1.00031137"
       d="m 468.10819,112.64988 h -1.75948 l 0.003,1.06528 -0.64032,5.7e-4 v 0.39886 h -2.06389 l 4.8e-4,-0.3999 h -0.6665 v -1.06538 h -1.75139 v -4.58659 l 6.87786,-0.0149 z"
       sodipodi:nodetypes="ccccccccccccc" />
    <path
       inkscape:connector-curvature="0"
       id="path12947-8-7-75-2-6-5-7-0"
       style="fill:#1a1a1a;fill-opacity:1;fill-rule:nonzero;stroke:none;stroke-width:1.00031137"
       d="m 459.62513,112.64988 h -1.75948 l 0.003,1.06528 -0.64032,5.7e-4 v 0.39886 h -2.06389 l 4.8e-4,-0.3999 h -0.6665 v -1.06538 h -1.75139 v -4.58659 l 6.87786,-0.0149 z"
       sodipodi:nodetypes="ccccccccccccc" />
    <g
       id="text14"
       style="font-style:normal;font-weight:normal;font-size:1.73590958px;font-family:sans-serif;text-anchor:middle;fill:#ffffff"
       transform="scale(1.0507842,0.9516702)"
       aria-label="GIGABIT ETHERNET">
      <path
         id="path15351"
         style=""
         d="m 381.68388,110.06006 v -0.33989 h -0.27971 v -0.14071 h 0.44923 v 0.54332 q -0.0992,0.0703 -0.21868,0.1068 -0.11951,0.0356 -0.25513,0.0356 -0.29667,0 -0.46449,-0.17291 -0.16698,-0.17376 -0.16698,-0.48314 0,-0.31023 0.16698,-0.48314 0.16782,-0.17376 0.46449,-0.17376 0.12375,0 0.23479,0.0305 0.11188,0.0305 0.20597,0.0898 v 0.18224 q -0.0949,-0.0805 -0.20174,-0.12121 -0.10679,-0.0407 -0.22461,-0.0407 -0.23225,0 -0.34922,0.12969 -0.11612,0.12968 -0.11612,0.38651 0,0.25598 0.11612,0.38566 0.11697,0.12969 0.34922,0.12969 0.0907,0 0.16189,-0.0153 0.0712,-0.0161 0.12799,-0.0492 z" />
      <path
         id="path15353"
         style=""
         d="m 382.16702,108.97512 h 0.17122 v 1.26548 h -0.17122 z" />
      <path
         id="path15355"
         style=""
         d="m 383.54185,110.06006 v -0.33989 h -0.27972 v -0.14071 h 0.44924 v 0.54332 q -0.0992,0.0703 -0.21869,0.1068 -0.11951,0.0356 -0.25513,0.0356 -0.29666,0 -0.46449,-0.17291 -0.16698,-0.17376 -0.16698,-0.48314 0,-0.31023 0.16698,-0.48314 0.16783,-0.17376 0.46449,-0.17376 0.12375,0 0.23479,0.0305 0.11189,0.0305 0.20597,0.0898 v 0.18224 q -0.0949,-0.0805 -0.20173,-0.12121 -0.1068,-0.0407 -0.22462,-0.0407 -0.23224,0 -0.34921,0.12969 -0.11613,0.12968 -0.11613,0.38651 0,0.25598 0.11613,0.38566 0.11697,0.12969 0.34921,0.12969 0.0907,0 0.1619,-0.0153 0.0712,-0.0161 0.12799,-0.0492 z" />
      <path
         id="path15357"
         style=""
         d="m 384.44794,109.14379 -0.23224,0.62978 h 0.46534 z m -0.0966,-0.16867 h 0.1941 l 0.48229,1.26548 h -0.178 l -0.11527,-0.32463 h -0.57045 l -0.11527,0.32463 h -0.18054 z" />
      <path
         id="path15359"
         style=""
         d="m 385.38286,109.63625 v 0.46365 h 0.27463 q 0.13816,0 0.20427,-0.0568 0.067,-0.0576 0.067,-0.17546 0,-0.11866 -0.067,-0.17461 -0.0661,-0.0568 -0.20427,-0.0568 z m 0,-0.52043 v 0.38142 h 0.25344 q 0.12544,0 0.18647,-0.0466 0.0619,-0.0475 0.0619,-0.1441 0,-0.0958 -0.0619,-0.14324 -0.061,-0.0475 -0.18647,-0.0475 z m -0.17122,-0.1407 h 0.43737 q 0.1958,0 0.30175,0.0814 0.10595,0.0814 0.10595,0.23139 0,0.11613 -0.0543,0.18478 -0.0542,0.0687 -0.15935,0.0856 0.1263,0.0271 0.1958,0.11358 0.0704,0.0856 0.0704,0.21445 0,0.16952 -0.11527,0.26191 -0.11528,0.0924 -0.32803,0.0924 h -0.45432 z" />
      <path
         id="path15361"
         style=""
         d="m 386.40169,108.97512 h 0.17122 v 1.26548 h -0.17122 z" />
      <path
         id="path15363"
         style=""
         d="m 386.73819,108.97512 h 1.07054 v 0.14409 h -0.44924 v 1.12139 h -0.17206 v -1.12139 h -0.44924 z" />
      <path
         id="path15365"
         style=""
         d="m 388.5275,108.97512 h 0.80015 v 0.14409 h -0.62893 v 0.37464 h 0.60265 v 0.1441 h -0.60265 v 0.45856 h 0.64418 v 0.14409 h -0.8154 z" />
      <path
         id="path15367"
         style=""
         d="m 389.45055,108.97512 h 1.07053 v 0.14409 h -0.44923 v 1.12139 h -0.17207 v -1.12139 h -0.44923 z" />
      <path
         id="path15369"
         style=""
         d="m 390.68722,108.97512 h 0.17121 v 0.51873 h 0.62215 v -0.51873 h 0.17122 v 1.26548 h -0.17122 v -0.60265 h -0.62215 v 0.60265 h -0.17121 z" />
      <path
         id="path15371"
         style=""
         d="m 391.99254,108.97512 h 0.80014 v 0.14409 h -0.62892 v 0.37464 h 0.60265 v 0.1441 h -0.60265 v 0.45856 h 0.64418 v 0.14409 h -0.8154 z" />
      <path
         id="path15373"
         style=""
         d="m 393.69115,109.64727 q 0.0551,0.0186 0.1068,0.0797 0.0525,0.061 0.10511,0.16782 l 0.17376,0.34583 h -0.18393 l -0.1619,-0.32463 q -0.0627,-0.12715 -0.12205,-0.16868 -0.0585,-0.0415 -0.1602,-0.0415 h -0.18648 v 0.53484 h -0.17122 v -1.26548 h 0.38652 q 0.21698,0 0.32378,0.0907 0.1068,0.0907 0.1068,0.27378 0,0.11951 -0.0559,0.19834 -0.0551,0.0788 -0.16105,0.10934 z m -0.42889,-0.53145 v 0.44923 h 0.2153 q 0.12375,0 0.18647,-0.0568 0.0636,-0.0576 0.0636,-0.16867 0,-0.11104 -0.0636,-0.16698 -0.0627,-0.0568 -0.18647,-0.0568 z" />
      <path
         id="path15375"
         style=""
         d="m 394.29804,108.97512 h 0.23055 l 0.56112,1.05866 v -1.05866 h 0.16614 v 1.26548 h -0.23055 l -0.56112,-1.05867 v 1.05867 h -0.16614 z" />
      <path
         id="path15377"
         style=""
         d="m 395.59659,108.97512 h 0.80014 v 0.14409 h -0.62893 v 0.37464 h 0.60266 v 0.1441 h -0.60266 v 0.45856 h 0.64419 v 0.14409 h -0.8154 z" />
      <path
         id="path15379"
         style=""
         d="m 396.51964,108.97512 h 1.07053 v 0.14409 h -0.44924 v 1.12139 h -0.17206 v -1.12139 h -0.44923 z" />
    </g>
    <g
       id="text148"
       style="font-style:normal;font-weight:700;font-size:3.67434549px;font-family:sans-serif;text-anchor:start;fill:#ffffff"
       transform="scale(1.0507842,0.9516702)"
       aria-label="RB2011">
      <path
         id="path15382"
         style=""
         d="m 351.49052,109.25614 q 0.21709,0 0.31038,-0.0807 0.0951,-0.0807 0.0951,-0.26553 0,-0.18299 -0.0951,-0.26194 -0.0933,-0.0789 -0.31038,-0.0789 h -0.29065 v 0.68715 z m -0.29065,0.47723 v 1.01368 h -0.69073 v -2.67861 h 1.05494 q 0.52926,0 0.77505,0.17761 0.24759,0.17762 0.24759,0.56156 0,0.26553 -0.12917,0.43597 -0.12739,0.17044 -0.38574,0.25118 0.14174,0.0323 0.25297,0.14711 0.11303,0.11303 0.22785,0.34447 l 0.37497,0.76071 h -0.73558 l -0.32653,-0.66562 q -0.0987,-0.20094 -0.20094,-0.2745 -0.10047,-0.0736 -0.26912,-0.0736 z" />
      <path
         id="path15384"
         style=""
         d="m 354.40954,109.10543 q 0.16327,0 0.24759,-0.0718 0.0843,-0.0718 0.0843,-0.21171 0,-0.13814 -0.0843,-0.20991 -0.0843,-0.0736 -0.24759,-0.0736 h -0.38214 v 0.56694 z m 0.0233,1.17156 q 0.20811,0 0.31217,-0.0879 0.10585,-0.0879 0.10585,-0.26553 0,-0.17403 -0.10405,-0.26015 -0.10406,-0.0879 -0.31397,-0.0879 h -0.40547 v 0.7015 z m 0.64229,-0.96344 q 0.22247,0.0646 0.34447,0.23862 0.122,0.17403 0.122,0.427 0,0.38753 -0.26194,0.5777 -0.26194,0.19018 -0.79659,0.19018 h -1.14644 v -2.67861 h 1.037 q 0.55797,0 0.80735,0.16864 0.25118,0.16865 0.25118,0.54003 0,0.19556 -0.0915,0.33371 -0.0915,0.13635 -0.26553,0.20273 z" />
      <path
         id="path15386"
         style=""
         d="m 356.85671,110.23931 h 1.17874 v 0.50774 h -1.94662 v -0.50774 l 0.97779,-0.86297 q 0.13098,-0.11841 0.19377,-0.23144 0.0628,-0.11303 0.0628,-0.23503 0,-0.18838 -0.12738,-0.3032 -0.12559,-0.11482 -0.3355,-0.11482 -0.16147,0 -0.35344,0.07 -0.19197,0.0682 -0.41085,0.20453 v -0.58847 q 0.23323,-0.0772 0.46109,-0.11662 0.22785,-0.0413 0.44673,-0.0413 0.48082,0 0.74635,0.21171 0.26733,0.21171 0.26733,0.59026 0,0.21889 -0.11303,0.40906 -0.11303,0.18838 -0.47544,0.50594 z" />
      <path
         id="path15388"
         style=""
         d="m 360.04306,109.40505 q 0,-0.50235 -0.0951,-0.70688 -0.0933,-0.20632 -0.31576,-0.20632 -0.22247,0 -0.31756,0.20632 -0.0951,0.20453 -0.0951,0.70688 0,0.50773 0.0951,0.71585 0.0951,0.20812 0.31756,0.20812 0.22067,0 0.31576,-0.20812 0.0951,-0.20812 0.0951,-0.71585 z m 0.69073,0.005 q 0,0.66562 -0.28705,1.02803 -0.28706,0.36062 -0.81453,0.36062 -0.52927,0 -0.81632,-0.36062 -0.28706,-0.36241 -0.28706,-1.02803 0,-0.66741 0.28706,-1.02802 0.28705,-0.36242 0.81632,-0.36242 0.52747,0 0.81453,0.36242 0.28705,0.36061 0.28705,1.02802 z" />
      <path
         id="path15390"
         style=""
         d="m 361.33841,110.26981 h 0.61 v -1.73132 l -0.62615,0.12918 v -0.47006 l 0.62256,-0.12917 h 0.65665 v 2.20137 h 0.60999 v 0.47724 h -1.87305 z" />
      <path
         id="path15392"
         style=""
         d="m 363.89323,110.26981 h 0.61 v -1.73132 l -0.62615,0.12918 v -0.47006 l 0.62256,-0.12917 h 0.65664 v 2.20137 h 0.61 v 0.47724 h -1.87305 z" />
    </g>
    <g
       transform="translate(-13.287139,0)"
       id="g10626">
      <g
         id="g152"
         transform="matrix(1.1400414,0,0,1.0325084,116.28998,-36.001409)">
        <g
           id="g154">
          <polygon
             style="fill:#000000"
             points="234,129 236.8,129 235.4,131.4 "
             id="polygon156" />
          <polygon
             style="fill:none;fill-opacity:0;stroke:#000000;stroke-width:0.2"
             points="234,129 236.8,129 235.4,131.4 "
             id="polygon158" />
        </g>
        <g
           id="g160">
          <polygon
             style="fill:#000000"
             points="237.8,129 239.2,131.4 236.4,131.4 "
             id="polygon162" />
          <polygon
             style="fill:none;fill-opacity:0;stroke:#000000;stroke-width:0.2"
             points="237.8,129 239.2,131.4 236.4,131.4 "
             id="polygon164" />
        </g>
        <g
           id="g166">
          <polygon
             style="fill:#000000"
             points="238.8,129 241.6,129 240.2,131.4 "
             id="polygon168" />
          <polygon
             style="fill:none;fill-opacity:0;stroke:#000000;stroke-width:0.2"
             points="238.8,129 241.6,129 240.2,131.4 "
             id="polygon170" />
        </g>
        <g
           id="g172">
          <polygon
             style="fill:#000000"
             points="242.6,129 244,131.4 241.2,131.4 "
             id="polygon174" />
          <polygon
             style="fill:none;fill-opacity:0;stroke:#000000;stroke-width:0.2"
             points="242.6,129 244,131.4 241.2,131.4 "
             id="polygon176" />
        </g>
        <g
           id="g178">
          <polygon
             style="fill:#000000"
             points="243.6,129 246.4,129 245,131.4 "
             id="polygon180" />
          <polygon
             style="fill:none;fill-opacity:0;stroke:#000000;stroke-width:0.2"
             points="243.6,129 246.4,129 245,131.4 "
             id="polygon182" />
        </g>
        <g
           id="g184">
          <polygon
             style="fill:#000000"
             points="247.4,129 248.8,131.4 246,131.4 "
             id="polygon186" />
          <polygon
             style="fill:none;fill-opacity:0;stroke:#000000;stroke-width:0.2"
             points="247.4,129 248.8,131.4 246,131.4 "
             id="polygon188" />
        </g>
        <g
           id="g190">
          <polygon
             style="fill:#000000"
             points="248.4,129 251.2,129 249.8,131.4 "
             id="polygon192" />
          <polygon
             style="fill:none;fill-opacity:0;stroke:#000000;stroke-width:0.2"
             points="248.4,129 251.2,129 249.8,131.4 "
             id="polygon194" />
        </g>
        <g
           id="g196">
          <polygon
             style="fill:#000000"
             points="252.2,129 253.6,131.4 250.8,131.4 "
             id="polygon198" />
          <polygon
             style="fill:none;fill-opacity:0;stroke:#000000;stroke-width:0.2"
             points="252.2,129 253.6,131.4 250.8,131.4 "
             id="polygon200" />
        </g>
        <g
           id="g202">
          <polygon
             style="fill:#000000"
             points="253.2,129 256,129 254.6,131.4 "
             id="polygon204" />
          <polygon
             style="fill:none;fill-opacity:0;stroke:#000000;stroke-width:0.2"
             points="253.2,129 256,129 254.6,131.4 "
             id="polygon206" />
        </g>
        <g
           id="g208">
          <polygon
             style="fill:#000000"
             points="257,129 258.4,131.4 255.6,131.4 "
             id="polygon210" />
          <polygon
             style="fill:none;fill-opacity:0;stroke:#000000;stroke-width:0.2"
             points="257,129 258.4,131.4 255.6,131.4 "
             id="polygon212" />
        </g>
        <g
           id="g214">
          <polygon
             style="fill:#000000"
             points="258,129 260.8,129 259.4,131.4 "
             id="polygon216" />
          <polygon
             style="fill:none;fill-opacity:0;stroke:#000000;stroke-width:0.2"
             points="258,129 260.8,129 259.4,131.4 "
             id="polygon218" />
        </g>
        <g
           id="g220">
          <polygon
             style="fill:#000000"
             points="261.8,129 263.2,131.4 260.4,131.4 "
             id="polygon222" />
          <polygon
             style="fill:none;fill-opacity:0;stroke:#000000;stroke-width:0.2"
             points="261.8,129 263.2,131.4 260.4,131.4 "
             id="polygon224" />
        </g>
        <g
           id="g226">
          <polygon
             style="fill:#000000"
             points="262.8,129 265.6,129 264.2,131.4 "
             id="polygon228" />
          <polygon
             style="fill:none;fill-opacity:0;stroke:#000000;stroke-width:0.2"
             points="262.8,129 265.6,129 264.2,131.4 "
             id="polygon230" />
        </g>
        <g
           id="g232">
          <polygon
             style="fill:#000000"
             points="266.6,129 268,131.4 265.2,131.4 "
             id="polygon234" />
          <polygon
             style="fill:none;fill-opacity:0;stroke:#000000;stroke-width:0.2"
             points="266.6,129 268,131.4 265.2,131.4 "
             id="polygon236" />
        </g>
        <g
           id="g238">
          <polygon
             style="fill:#000000"
             points="267.6,129 270.4,129 269,131.4 "
             id="polygon240" />
          <polygon
             style="fill:none;fill-opacity:0;stroke:#000000;stroke-width:0.2"
             points="267.6,129 270.4,129 269,131.4 "
             id="polygon242" />
        </g>
        <g
           id="g244">
          <polygon
             style="fill:#000000"
             points="271.4,129 272.8,131.4 270,131.4 "
             id="polygon246" />
          <polygon
             style="fill:none;fill-opacity:0;stroke:#000000;stroke-width:0.2"
             points="271.4,129 272.8,131.4 270,131.4 "
             id="polygon248" />
        </g>
        <g
           id="g250">
          <polygon
             style="fill:#000000"
             points="272.4,129 275.2,129 273.8,131.4 "
             id="polygon252" />
          <polygon
             style="fill:none;fill-opacity:0;stroke:#000000;stroke-width:0.2"
             points="272.4,129 275.2,129 273.8,131.4 "
             id="polygon254" />
        </g>
        <g
           id="g256">
          <polygon
             style="fill:#000000"
             points="276.2,129 277.6,131.4 274.8,131.4 "
             id="polygon258" />
          <polygon
             style="fill:none;fill-opacity:0;stroke:#000000;stroke-width:0.2"
             points="276.2,129 277.6,131.4 274.8,131.4 "
             id="polygon260" />
        </g>
        <g
           id="g262">
          <polygon
             style="fill:#000000"
             points="277.2,129 280,129 278.6,131.4 "
             id="polygon264" />
          <polygon
             style="fill:none;fill-opacity:0;stroke:#000000;stroke-width:0.2"
             points="277.2,129 280,129 278.6,131.4 "
             id="polygon266" />
        </g>
        <g
           id="g268">
          <polygon
             style="fill:#000000"
             points="281,129 282.4,131.4 279.6,131.4 "
             id="polygon270" />
          <polygon
             style="fill:none;fill-opacity:0;stroke:#000000;stroke-width:0.2"
             points="281,129 282.4,131.4 279.6,131.4 "
             id="polygon272" />
        </g>
        <g
           id="g274">
          <polygon
             style="fill:#000000"
             points="282,129 284.8,129 283.4,131.4 "
             id="polygon276" />
          <polygon
             style="fill:none;fill-opacity:0;stroke:#000000;stroke-width:0.2"
             points="282,129 284.8,129 283.4,131.4 "
             id="polygon278" />
        </g>
        <g
           id="g280">
          <polygon
             style="fill:#000000"
             points="285.8,129 287.2,131.4 284.4,131.4 "
             id="polygon282" />
          <polygon
             style="fill:none;fill-opacity:0;stroke:#000000;stroke-width:0.2"
             points="285.8,129 287.2,131.4 284.4,131.4 "
             id="polygon284" />
        </g>
        <g
           id="g286">
          <polygon
             style="fill:#000000"
             points="286.8,129 289.6,129 288.2,131.4 "
             id="polygon288" />
          <polygon
             style="fill:none;fill-opacity:0;stroke:#000000;stroke-width:0.2"
             points="286.8,129 289.6,129 288.2,131.4 "
             id="polygon290" />
        </g>
        <g
           id="g292">
          <polygon
             style="fill:#000000"
             points="290.6,129 292,131.4 289.2,131.4 "
             id="polygon294" />
          <polygon
             style="fill:none;fill-opacity:0;stroke:#000000;stroke-width:0.2"
             points="290.6,129 292,131.4 289.2,131.4 "
             id="polygon296" />
        </g>
        <g
           id="g298">
          <polygon
             style="fill:#000000"
             points="291.8,129 294.6,129 293.2,131.4 "
             id="polygon300" />
          <polygon
             style="fill:none;fill-opacity:0;stroke:#000000;stroke-width:0.2"
             points="291.8,129 294.6,129 293.2,131.4 "
             id="polygon302" />
        </g>
        <g
           id="g304">
          <polygon
             style="fill:#000000"
             points="295.6,129 297,131.4 294.2,131.4 "
             id="polygon306" />
          <polygon
             style="fill:none;fill-opacity:0;stroke:#000000;stroke-width:0.2"
             points="295.6,129 297,131.4 294.2,131.4 "
             id="polygon308" />
        </g>
        <g
           id="g310">
          <polygon
             style="fill:#000000"
             points="296.6,129 299.4,129 298,131.4 "
             id="polygon312" />
          <polygon
             style="fill:none;fill-opacity:0;stroke:#000000;stroke-width:0.2"
             points="296.6,129 299.4,129 298,131.4 "
             id="polygon314" />
        </g>
        <g
           id="g316">
          <polygon
             style="fill:#000000"
             points="300.4,129 301.8,131.4 299,131.4 "
             id="polygon318" />
          <polygon
             style="fill:none;fill-opacity:0;stroke:#000000;stroke-width:0.2"
             points="300.4,129 301.8,131.4 299,131.4 "
             id="polygon320" />
        </g>
        <g
           id="g322">
          <polygon
             style="fill:#000000"
             points="301.4,129 304.2,129 302.8,131.4 "
             id="polygon324" />
          <polygon
             style="fill:none;fill-opacity:0;stroke:#000000;stroke-width:0.2"
             points="301.4,129 304.2,129 302.8,131.4 "
             id="polygon326" />
        </g>
        <g
           id="g328">
          <polygon
             style="fill:#000000"
             points="305.2,129 306.6,131.4 303.8,131.4 "
             id="polygon330" />
          <polygon
             style="fill:none;fill-opacity:0;stroke:#000000;stroke-width:0.2"
             points="305.2,129 306.6,131.4 303.8,131.4 "
             id="polygon332" />
        </g>
        <g
           id="g334">
          <polygon
             style="fill:#000000"
             points="306.2,129 309,129 307.6,131.4 "
             id="polygon336" />
          <polygon
             style="fill:none;fill-opacity:0;stroke:#000000;stroke-width:0.2"
             points="306.2,129 309,129 307.6,131.4 "
             id="polygon338" />
        </g>
        <g
           id="g340">
          <polygon
             style="fill:#000000"
             points="310,129 311.4,131.4 308.6,131.4 "
             id="polygon342" />
          <polygon
             style="fill:none;fill-opacity:0;stroke:#000000;stroke-width:0.2"
             points="310,129 311.4,131.4 308.6,131.4 "
             id="polygon344" />
        </g>
        <g
           id="g346">
          <polygon
             style="fill:#000000"
             points="311,129 313.8,129 312.4,131.4 "
             id="polygon348" />
          <polygon
             style="fill:none;fill-opacity:0;stroke:#000000;stroke-width:0.2"
             points="311,129 313.8,129 312.4,131.4 "
             id="polygon350" />
        </g>
        <g
           id="g352">
          <polygon
             style="fill:#000000"
             points="314.8,129 316.2,131.4 313.4,131.4 "
             id="polygon354" />
          <polygon
             style="fill:none;fill-opacity:0;stroke:#000000;stroke-width:0.2"
             points="314.8,129 316.2,131.4 313.4,131.4 "
             id="polygon356" />
        </g>
        <g
           id="g358">
          <polygon
             style="fill:#000000"
             points="315.8,129 318.6,129 317.2,131.4 "
             id="polygon360" />
          <polygon
             style="fill:none;fill-opacity:0;stroke:#000000;stroke-width:0.2"
             points="315.8,129 318.6,129 317.2,131.4 "
             id="polygon362" />
        </g>
        <g
           id="g364">
          <polygon
             style="fill:#000000"
             points="319.6,129 321,131.4 318.2,131.4 "
             id="polygon366" />
          <polygon
             style="fill:none;fill-opacity:0;stroke:#000000;stroke-width:0.2"
             points="319.6,129 321,131.4 318.2,131.4 "
             id="polygon368" />
        </g>
        <g
           id="g370">
          <polygon
             style="fill:#000000"
             points="320.6,129 323.4,129 322,131.4 "
             id="polygon372" />
          <polygon
             style="fill:none;fill-opacity:0;stroke:#000000;stroke-width:0.2"
             points="320.6,129 323.4,129 322,131.4 "
             id="polygon374" />
        </g>
        <g
           id="g376">
          <polygon
             style="fill:#000000"
             points="324.4,129 325.8,131.4 323,131.4 "
             id="polygon378" />
          <polygon
             style="fill:none;fill-opacity:0;stroke:#000000;stroke-width:0.2"
             points="324.4,129 325.8,131.4 323,131.4 "
             id="polygon380" />
        </g>
        <g
           id="g382">
          <polygon
             style="fill:#000000"
             points="325.4,129 328.2,129 326.8,131.4 "
             id="polygon384" />
          <polygon
             style="fill:none;fill-opacity:0;stroke:#000000;stroke-width:0.2"
             points="325.4,129 328.2,129 326.8,131.4 "
             id="polygon386" />
        </g>
        <g
           id="g388">
          <polygon
             style="fill:#000000"
             points="329.2,129 330.6,131.4 327.8,131.4 "
             id="polygon390" />
          <polygon
             style="fill:none;fill-opacity:0;stroke:#000000;stroke-width:0.2"
             points="329.2,129 330.6,131.4 327.8,131.4 "
             id="polygon392" />
        </g>
      </g>
      <g
         id="g524"
         transform="matrix(1.1400414,0,0,1.0325084,116.28998,-36.001409)">
        <g
           id="g526">
          <polygon
             style="fill:#000000"
             points="365.6,129.2 367,131.6 364.2,131.6 "
             id="polygon528" />
          <polygon
             style="fill:none;fill-opacity:0;stroke:#000000;stroke-width:0.2"
             points="365.6,129.2 367,131.6 364.2,131.6 "
             id="polygon530" />
        </g>
        <g
           id="g532">
          <polygon
             style="fill:#000000"
             points="366.6,129.2 369.4,129.2 368,131.6 "
             id="polygon534" />
          <polygon
             style="fill:none;fill-opacity:0;stroke:#000000;stroke-width:0.2"
             points="366.6,129.2 369.4,129.2 368,131.6 "
             id="polygon536" />
        </g>
        <g
           id="g538">
          <polygon
             style="fill:#000000"
             points="370.4,129.2 371.8,131.6 369,131.6 "
             id="polygon540" />
          <polygon
             style="fill:none;fill-opacity:0;stroke:#000000;stroke-width:0.2"
             points="370.4,129.2 371.8,131.6 369,131.6 "
             id="polygon542" />
        </g>
        <g
           id="g544">
          <polygon
             style="fill:#000000"
             points="371.4,129.2 374.2,129.2 372.8,131.6 "
             id="polygon546" />
          <polygon
             style="fill:none;fill-opacity:0;stroke:#000000;stroke-width:0.2"
             points="371.4,129.2 374.2,129.2 372.8,131.6 "
             id="polygon548" />
        </g>
        <g
           id="g550">
          <polygon
             style="fill:#000000"
             points="375.2,129.2 376.6,131.6 373.8,131.6 "
             id="polygon552" />
          <polygon
             style="fill:none;fill-opacity:0;stroke:#000000;stroke-width:0.2"
             points="375.2,129.2 376.6,131.6 373.8,131.6 "
             id="polygon554" />
        </g>
        <g
           id="g556">
          <polygon
             style="fill:#000000"
             points="376.2,129.2 379,129.2 377.6,131.6 "
             id="polygon558" />
          <polygon
             style="fill:none;fill-opacity:0;stroke:#000000;stroke-width:0.2"
             points="376.2,129.2 379,129.2 377.6,131.6 "
             id="polygon560" />
        </g>
        <g
           id="g562">
          <polygon
             style="fill:#000000"
             points="380,129.2 381.4,131.6 378.6,131.6 "
             id="polygon564" />
          <polygon
             style="fill:none;fill-opacity:0;stroke:#000000;stroke-width:0.2"
             points="380,129.2 381.4,131.6 378.6,131.6 "
             id="polygon566" />
        </g>
        <g
           id="g568">
          <polygon
             style="fill:#000000"
             points="381,129.2 383.8,129.2 382.4,131.6 "
             id="polygon570" />
          <polygon
             style="fill:none;fill-opacity:0;stroke:#000000;stroke-width:0.2"
             points="381,129.2 383.8,129.2 382.4,131.6 "
             id="polygon572" />
        </g>
        <g
           id="g574">
          <polygon
             style="fill:#000000"
             points="384.8,129.2 386.2,131.6 383.4,131.6 "
             id="polygon576" />
          <polygon
             style="fill:none;fill-opacity:0;stroke:#000000;stroke-width:0.2"
             points="384.8,129.2 386.2,131.6 383.4,131.6 "
             id="polygon578" />
        </g>
        <g
           id="g580">
          <polygon
             style="fill:#000000"
             points="385.8,129.2 388.6,129.2 387.2,131.6 "
             id="polygon582" />
          <polygon
             style="fill:none;fill-opacity:0;stroke:#000000;stroke-width:0.2"
             points="385.8,129.2 388.6,129.2 387.2,131.6 "
             id="polygon584" />
        </g>
        <g
           id="g586">
          <polygon
             style="fill:#000000"
             points="389.6,129.2 391,131.6 388.2,131.6 "
             id="polygon588" />
          <polygon
             style="fill:none;fill-opacity:0;stroke:#000000;stroke-width:0.2"
             points="389.6,129.2 391,131.6 388.2,131.6 "
             id="polygon590" />
        </g>
        <g
           id="g592">
          <polygon
             style="fill:#000000"
             points="390.6,129.2 393.4,129.2 392,131.6 "
             id="polygon594" />
          <polygon
             style="fill:none;fill-opacity:0;stroke:#000000;stroke-width:0.2"
             points="390.6,129.2 393.4,129.2 392,131.6 "
             id="polygon596" />
        </g>
        <g
           id="g598">
          <polygon
             style="fill:#000000"
             points="394.4,129.2 395.8,131.6 393,131.6 "
             id="polygon600" />
          <polygon
             style="fill:none;fill-opacity:0;stroke:#000000;stroke-width:0.2"
             points="394.4,129.2 395.8,131.6 393,131.6 "
             id="polygon602" />
        </g>
        <g
           id="g604">
          <polygon
             style="fill:#000000"
             points="395.4,129.2 398.2,129.2 396.8,131.6 "
             id="polygon606" />
          <polygon
             style="fill:none;fill-opacity:0;stroke:#000000;stroke-width:0.2"
             points="395.4,129.2 398.2,129.2 396.8,131.6 "
             id="polygon608" />
        </g>
        <g
           id="g610">
          <polygon
             style="fill:#000000"
             points="399.2,129.2 400.6,131.6 397.8,131.6 "
             id="polygon612" />
          <polygon
             style="fill:none;fill-opacity:0;stroke:#000000;stroke-width:0.2"
             points="399.2,129.2 400.6,131.6 397.8,131.6 "
             id="polygon614" />
        </g>
        <g
           id="g616">
          <polygon
             style="fill:#000000"
             points="400.2,129.2 403,129.2 401.6,131.6 "
             id="polygon618" />
          <polygon
             style="fill:none;fill-opacity:0;stroke:#000000;stroke-width:0.2"
             points="400.2,129.2 403,129.2 401.6,131.6 "
             id="polygon620" />
        </g>
        <g
           id="g622">
          <polygon
             style="fill:#000000"
             points="404,129.2 405.4,131.6 402.6,131.6 "
             id="polygon624" />
          <polygon
             style="fill:none;fill-opacity:0;stroke:#000000;stroke-width:0.2"
             points="404,129.2 405.4,131.6 402.6,131.6 "
             id="polygon626" />
        </g>
        <g
           id="g628">
          <polygon
             style="fill:#000000"
             points="405,129.2 407.8,129.2 406.4,131.6 "
             id="polygon630" />
          <polygon
             style="fill:none;fill-opacity:0;stroke:#000000;stroke-width:0.2"
             points="405,129.2 407.8,129.2 406.4,131.6 "
             id="polygon632" />
        </g>
        <g
           id="g634">
          <polygon
             style="fill:#000000"
             points="408.8,129.2 410.2,131.6 407.4,131.6 "
             id="polygon636" />
          <polygon
             style="fill:none;fill-opacity:0;stroke:#000000;stroke-width:0.2"
             points="408.8,129.2 410.2,131.6 407.4,131.6 "
             id="polygon638" />
        </g>
        <g
           id="g640">
          <polygon
             style="fill:#000000"
             points="409.8,129.2 412.6,129.2 411.2,131.6 "
             id="polygon642" />
          <polygon
             style="fill:none;fill-opacity:0;stroke:#000000;stroke-width:0.2"
             points="409.8,129.2 412.6,129.2 411.2,131.6 "
             id="polygon644" />
        </g>
        <g
           id="g646">
          <polygon
             style="fill:#000000"
             points="413.6,129.2 415,131.6 412.2,131.6 "
             id="polygon648" />
          <polygon
             style="fill:none;fill-opacity:0;stroke:#000000;stroke-width:0.2"
             points="413.6,129.2 415,131.6 412.2,131.6 "
             id="polygon650" />
        </g>
        <g
           id="g652">
          <polygon
             style="fill:#000000"
             points="414.6,129.2 417.4,129.2 416,131.6 "
             id="polygon654" />
          <polygon
             style="fill:none;fill-opacity:0;stroke:#000000;stroke-width:0.2"
             points="414.6,129.2 417.4,129.2 416,131.6 "
             id="polygon656" />
        </g>
        <g
           id="g658">
          <polygon
             style="fill:#000000"
             points="418.4,129.2 419.8,131.6 417,131.6 "
             id="polygon660" />
          <polygon
             style="fill:none;fill-opacity:0;stroke:#000000;stroke-width:0.2"
             points="418.4,129.2 419.8,131.6 417,131.6 "
             id="polygon662" />
        </g>
        <g
           id="g664">
          <polygon
             style="fill:#000000"
             points="419.6,129.2 422.4,129.2 421,131.6 "
             id="polygon666" />
          <polygon
             style="fill:none;fill-opacity:0;stroke:#000000;stroke-width:0.2"
             points="419.6,129.2 422.4,129.2 421,131.6 "
             id="polygon668" />
        </g>
        <g
           id="g670">
          <polygon
             style="fill:#000000"
             points="423.4,129.2 424.8,131.6 422,131.6 "
             id="polygon672" />
          <polygon
             style="fill:none;fill-opacity:0;stroke:#000000;stroke-width:0.2"
             points="423.4,129.2 424.8,131.6 422,131.6 "
             id="polygon674" />
        </g>
        <g
           id="g676">
          <polygon
             style="fill:#000000"
             points="424.4,129.2 427.2,129.2 425.8,131.6 "
             id="polygon678" />
          <polygon
             style="fill:none;fill-opacity:0;stroke:#000000;stroke-width:0.2"
             points="424.4,129.2 427.2,129.2 425.8,131.6 "
             id="polygon680" />
        </g>
        <g
           id="g682">
          <polygon
             style="fill:#000000"
             points="428.2,129.2 429.6,131.6 426.8,131.6 "
             id="polygon684" />
          <polygon
             style="fill:none;fill-opacity:0;stroke:#000000;stroke-width:0.2"
             points="428.2,129.2 429.6,131.6 426.8,131.6 "
             id="polygon686" />
        </g>
        <g
           id="g688">
          <polygon
             style="fill:#000000"
             points="429.2,129.2 432,129.2 430.6,131.6 "
             id="polygon690" />
          <polygon
             style="fill:none;fill-opacity:0;stroke:#000000;stroke-width:0.2"
             points="429.2,129.2 432,129.2 430.6,131.6 "
             id="polygon692" />
        </g>
      </g>
    </g>
    <g
       id="text698"
       style="font-style:normal;font-weight:normal;font-size:1.73590958px;font-family:sans-serif;text-anchor:middle;fill:#ffffff"
       transform="scale(1.0507842,0.9516702)"
       aria-label="FAST ETHERNET">
      <path
         id="path15281"
         style=""
         d="m 443.29171,109.01376 h 0.72725 v 0.14409 h -0.55603 v 0.37295 h 0.50179 v 0.1441 h -0.50179 v 0.60434 h -0.17122 z" />
      <path
         id="path15283"
         style=""
         d="m 444.5555,109.18243 -0.23224,0.62978 h 0.46533 z m -0.0966,-0.16867 h 0.19411 l 0.48229,1.26548 h -0.178 l -0.11528,-0.32463 h -0.57044 l -0.11527,0.32463 h -0.18055 z" />
      <path
         id="path15285"
         style=""
         d="m 446.07781,109.05529 v 0.16698 q -0.0975,-0.0466 -0.18393,-0.0695 -0.0865,-0.0229 -0.16698,-0.0229 -0.13985,0 -0.21614,0.0542 -0.0754,0.0543 -0.0754,0.15426 0,0.0839 0.05,0.12715 0.0509,0.0424 0.19156,0.0686 l 0.10341,0.0212 q 0.19156,0.0365 0.28226,0.12884 0.0915,0.0915 0.0915,0.24581 0,0.18393 -0.12375,0.27886 -0.12291,0.0949 -0.36109,0.0949 -0.0898,0 -0.19156,-0.0203 -0.10086,-0.0203 -0.20936,-0.0602 v -0.1763 q 0.10426,0.0585 0.20428,0.0881 0.10002,0.0297 0.19664,0.0297 0.14664,0 0.22632,-0.0576 0.0797,-0.0576 0.0797,-0.16444 0,-0.0932 -0.0576,-0.14579 -0.0568,-0.0525 -0.18732,-0.0788 l -0.10425,-0.0203 q -0.19156,-0.0381 -0.27717,-0.11951 -0.0856,-0.0814 -0.0856,-0.22631 0,-0.16783 0.11782,-0.26446 0.11866,-0.0966 0.32633,-0.0966 0.089,0 0.18139,0.0161 0.0924,0.0161 0.18901,0.0483 z" />
      <path
         id="path15287"
         style=""
         d="m 446.24564,109.01376 h 1.07053 v 0.14409 h -0.44923 v 1.12139 h -0.17207 v -1.12139 h -0.44923 z" />
      <path
         id="path15289"
         style=""
         d="m 448.03495,109.01376 h 0.80015 v 0.14409 h -0.62893 v 0.37465 h 0.60265 v 0.14409 h -0.60265 v 0.45856 h 0.64418 v 0.14409 h -0.8154 z" />
      <path
         id="path15291"
         style=""
         d="m 448.958,109.01376 h 1.07053 v 0.14409 h -0.44923 v 1.12139 h -0.17207 v -1.12139 H 448.958 Z" />
      <path
         id="path15293"
         style=""
         d="m 450.19467,109.01376 h 0.17121 v 0.51874 h 0.62215 v -0.51874 h 0.17122 v 1.26548 h -0.17122 v -0.60265 h -0.62215 v 0.60265 h -0.17121 z" />
      <path
         id="path15295"
         style=""
         d="m 451.49999,109.01376 h 0.80014 v 0.14409 h -0.62892 v 0.37465 h 0.60265 v 0.14409 h -0.60265 v 0.45856 h 0.64418 v 0.14409 h -0.8154 z" />
      <path
         id="path15297"
         style=""
         d="m 453.1986,109.68591 q 0.0551,0.0186 0.1068,0.0797 0.0525,0.061 0.10511,0.16783 l 0.17376,0.34582 h -0.18394 l -0.16189,-0.32463 q -0.0627,-0.12714 -0.12206,-0.16868 -0.0585,-0.0415 -0.16019,-0.0415 h -0.18648 v 0.53484 h -0.17122 v -1.26548 h 0.38651 q 0.21699,0 0.32379,0.0907 0.1068,0.0907 0.1068,0.27378 0,0.11952 -0.0559,0.19834 -0.0551,0.0788 -0.16105,0.10934 z m -0.42889,-0.53145 v 0.44924 h 0.21529 q 0.12376,0 0.18648,-0.0568 0.0636,-0.0576 0.0636,-0.16868 0,-0.11104 -0.0636,-0.16698 -0.0627,-0.0568 -0.18648,-0.0568 z" />
      <path
         id="path15299"
         style=""
         d="m 453.80549,109.01376 h 0.23055 l 0.56112,1.05867 v -1.05867 h 0.16613 v 1.26548 h -0.23055 l -0.56112,-1.05866 v 1.05866 h -0.16613 z" />
      <path
         id="path15301"
         style=""
         d="m 455.10403,109.01376 h 0.80015 v 0.14409 h -0.62893 v 0.37465 h 0.60265 v 0.14409 h -0.60265 v 0.45856 h 0.64419 v 0.14409 h -0.81541 z" />
      <path
         id="path15303"
         style=""
         d="m 456.02708,109.01376 h 1.07054 v 0.14409 h -0.44924 v 1.12139 h -0.17206 v -1.12139 h -0.44924 z" />
    </g>
    <g
       id="text702"
       style="font-style:normal;font-weight:normal;font-size:1.73590958px;font-family:sans-serif;text-anchor:middle;fill:#ffffff"
       transform="scale(1.0507842,0.9516702)"
       aria-label="ETH1">
      <path
         id="path15342"
         style=""
         d="m 370.95833,121.98764 h 0.80014 v 0.1441 h -0.62892 v 0.37464 h 0.60265 v 0.1441 h -0.60265 v 0.45855 h 0.64418 v 0.1441 h -0.8154 z" />
      <path
         id="path15344"
         style=""
         d="m 371.88138,121.98764 h 1.07053 v 0.1441 h -0.44923 v 1.12139 h -0.17207 v -1.12139 h -0.44923 z" />
      <path
         id="path15346"
         style=""
         d="m 373.11804,121.98764 h 0.17122 v 0.51874 h 0.62215 v -0.51874 h 0.17122 v 1.26549 h -0.17122 v -0.60265 h -0.62215 v 0.60265 h -0.17122 z" />
      <path
         id="path15348"
         style=""
         d="m 374.46829,123.10903 h 0.27971 v -0.96543 l -0.30429,0.061 v -0.15596 l 0.3026,-0.061 h 0.17121 v 1.12139 h 0.27972 v 0.1441 h -0.72895 z" />
    </g>
    <g
       id="text706"
       style="font-style:normal;font-weight:normal;font-size:1.73590958px;font-family:sans-serif;text-anchor:middle;fill:#ffffff"
       transform="scale(1.0507842,0.9516702)"
       aria-label="ETH2">
      <path
         id="path15333"
         style=""
         d="m 379.03819,121.98764 h 0.80015 v 0.1441 h -0.62893 v 0.37464 h 0.60265 v 0.1441 h -0.60265 v 0.45855 h 0.64419 v 0.1441 h -0.81541 z" />
      <path
         id="path15335"
         style=""
         d="m 379.96124,121.98764 h 1.07054 v 0.1441 h -0.44924 v 1.12139 h -0.17206 v -1.12139 h -0.44924 z" />
      <path
         id="path15337"
         style=""
         d="m 381.19791,121.98764 h 0.17122 v 0.51874 h 0.62214 v -0.51874 h 0.17122 v 1.26549 h -0.17122 v -0.60265 h -0.62214 v 0.60265 h -0.17122 z" />
      <path
         id="path15339"
         style=""
         d="m 382.66597,123.10903 h 0.59757 v 0.1441 H 382.46 v -0.1441 q 0.0975,-0.10086 0.26531,-0.27038 0.16867,-0.17037 0.2119,-0.21954 0.0822,-0.0924 0.11443,-0.15596 0.0331,-0.0644 0.0331,-0.12629 0,-0.10087 -0.0712,-0.16444 -0.0703,-0.0636 -0.18393,-0.0636 -0.0805,0 -0.17037,0.028 -0.089,0.028 -0.19071,0.0848 v -0.17291 q 0.10341,-0.0415 0.19325,-0.0627 0.0899,-0.0212 0.16444,-0.0212 0.19665,0 0.31362,0.0983 0.11697,0.0983 0.11697,0.26276 0,0.078 -0.0297,0.14833 -0.0288,0.0695 -0.10595,0.16444 -0.0212,0.0246 -0.13477,0.1424 -0.11358,0.11697 -0.3204,0.32802 z" />
    </g>
    <g
       id="text710"
       style="font-style:normal;font-weight:normal;font-size:1.73590958px;font-family:sans-serif;text-anchor:middle;fill:#ffffff"
       transform="scale(1.0507842,0.9516702)"
       aria-label="ETH3">
      <path
         id="path15324"
         style=""
         d="m 387.09389,121.98764 h 0.80014 v 0.1441 h -0.62893 v 0.37464 h 0.60266 v 0.1441 h -0.60266 v 0.45855 h 0.64419 v 0.1441 h -0.8154 z" />
      <path
         id="path15326"
         style=""
         d="m 388.01694,121.98764 h 1.07053 v 0.1441 h -0.44923 v 1.12139 h -0.17207 v -1.12139 h -0.44923 z" />
      <path
         id="path15328"
         style=""
         d="m 389.2536,121.98764 h 0.17122 v 0.51874 h 0.62215 v -0.51874 h 0.17122 v 1.26549 h -0.17122 v -0.60265 h -0.62215 v 0.60265 h -0.17122 z" />
      <path
         id="path15330"
         style=""
         d="m 391.09292,122.5708 q 0.1229,0.0263 0.19156,0.10934 0.0695,0.0831 0.0695,0.20512 0,0.18733 -0.12884,0.28989 -0.12884,0.10256 -0.36617,0.10256 -0.0797,0 -0.16444,-0.0161 -0.0839,-0.0152 -0.17376,-0.0466 v -0.16529 q 0.0712,0.0415 0.15596,0.0627 0.0848,0.0212 0.17715,0.0212 0.16105,0 0.24496,-0.0636 0.0848,-0.0636 0.0848,-0.18478 0,-0.11188 -0.0788,-0.1746 -0.078,-0.0636 -0.21784,-0.0636 h -0.14748 v -0.14071 h 0.15426 q 0.1263,0 0.19326,-0.05 0.067,-0.0509 0.067,-0.14579 0,-0.0975 -0.0695,-0.14918 -0.0686,-0.0525 -0.19749,-0.0525 -0.0704,0 -0.15087,0.0153 -0.0805,0.0153 -0.17715,0.0475 V 122.019 q 0.0975,-0.0271 0.18223,-0.0407 0.0856,-0.0136 0.16105,-0.0136 0.19495,0 0.30853,0.089 0.11358,0.0881 0.11358,0.23902 0,0.10511 -0.0602,0.178 -0.0602,0.072 -0.17122,0.10002 z" />
    </g>
    <g
       id="text714"
       style="font-style:normal;font-weight:normal;font-size:1.73590958px;font-family:sans-serif;text-anchor:middle;fill:#ffffff"
       transform="scale(1.0507842,0.9516702)"
       aria-label="ETH4">
      <path
         id="path15315"
         style=""
         d="m 395.14619,121.98764 h 0.80015 v 0.1441 h -0.62893 v 0.37464 h 0.60265 v 0.1441 h -0.60265 v 0.45855 h 0.64419 v 0.1441 h -0.81541 z" />
      <path
         id="path15317"
         style=""
         d="m 396.06924,121.98764 h 1.07054 v 0.1441 h -0.44924 v 1.12139 h -0.17206 v -1.12139 h -0.44924 z" />
      <path
         id="path15319"
         style=""
         d="m 397.30591,121.98764 h 0.17122 v 0.51874 h 0.62214 v -0.51874 h 0.17122 v 1.26549 h -0.17122 v -0.60265 h -0.62214 v 0.60265 h -0.17122 z" />
      <path
         id="path15321"
         style=""
         d="m 399.09691,122.13682 -0.43228,0.67555 h 0.43228 z m -0.0449,-0.14918 h 0.21529 v 0.82473 h 0.18055 v 0.1424 h -0.18055 v 0.29836 h -0.17037 v -0.29836 h -0.57129 v -0.16529 z" />
    </g>
    <g
       id="text718"
       style="font-style:normal;font-weight:normal;font-size:1.73590958px;font-family:sans-serif;text-anchor:middle;fill:#ffffff"
       transform="scale(1.0507842,0.9516702)"
       aria-label="ETH5">
      <path
         id="path15306"
         style=""
         d="m 403.24638,121.98764 h 0.80015 v 0.1441 h -0.62893 v 0.37464 h 0.60265 v 0.1441 h -0.60265 v 0.45855 h 0.64419 v 0.1441 h -0.81541 z" />
      <path
         id="path15308"
         style=""
         d="m 404.16943,121.98764 h 1.07054 v 0.1441 h -0.44924 v 1.12139 h -0.17206 v -1.12139 h -0.44924 z" />
      <path
         id="path15310"
         style=""
         d="m 405.4061,121.98764 h 0.17122 v 0.51874 h 0.62214 v -0.51874 h 0.17122 v 1.26549 h -0.17122 v -0.60265 h -0.62214 v 0.60265 h -0.17122 z" />
      <path
         id="path15312"
         style=""
         d="m 406.72837,121.98764 h 0.67216 v 0.1441 h -0.51535 v 0.31022 q 0.0373,-0.0127 0.0746,-0.0186 0.0373,-0.007 0.0746,-0.007 0.2119,0 0.33566,0.11613 0.12375,0.11612 0.12375,0.31446 0,0.20428 -0.12714,0.31786 -0.12715,0.11273 -0.35854,0.11273 -0.0797,0 -0.16275,-0.0136 -0.0822,-0.0136 -0.17037,-0.0407 v -0.17206 q 0.0763,0.0415 0.15766,0.0619 0.0814,0.0203 0.17207,0.0203 0.14663,0 0.23224,-0.0771 0.0856,-0.0771 0.0856,-0.20936 0,-0.13223 -0.0856,-0.20936 -0.0856,-0.0771 -0.23224,-0.0771 -0.0687,0 -0.13732,0.0153 -0.0678,0.0152 -0.13901,0.0475 z" />
    </g>
    <g
       id="text722"
       style="font-style:normal;font-weight:normal;font-size:1.73590958px;font-family:sans-serif;text-anchor:middle;fill:#ffffff"
       transform="scale(1.0507842,0.9516702)"
       aria-label="ETH6">
      <path
         id="path15272"
         style=""
         d="m 431.95845,121.55365 h 0.80015 v 0.1441 h -0.62893 v 0.37464 h 0.60265 v 0.1441 h -0.60265 v 0.45855 h 0.64418 v 0.1441 h -0.8154 z" />
      <path
         id="path15274"
         style=""
         d="m 432.8815,121.55365 h 1.07053 v 0.1441 h -0.44923 v 1.12139 h -0.17207 v -1.12139 h -0.44923 z" />
      <path
         id="path15276"
         style=""
         d="m 434.11817,121.55365 h 0.17121 v 0.51874 h 0.62215 v -0.51874 h 0.17122 v 1.26549 h -0.17122 v -0.60265 h -0.62215 v 0.60265 h -0.17121 z" />
      <path
         id="path15278"
         style=""
         d="m 435.8261,122.11816 q -0.11527,0 -0.18308,0.0788 -0.067,0.0788 -0.067,0.21614 0,0.13647 0.067,0.21614 0.0678,0.0788 0.18308,0.0788 0.11528,0 0.18224,-0.0788 0.0678,-0.0797 0.0678,-0.21614 0,-0.13731 -0.0678,-0.21614 -0.067,-0.0788 -0.18224,-0.0788 z m 0.3399,-0.53654 v 0.15596 q -0.0644,-0.0305 -0.13054,-0.0466 -0.0653,-0.0161 -0.12968,-0.0161 -0.16952,0 -0.25937,0.11443 -0.089,0.11443 -0.10171,0.34582 0.05,-0.0737 0.12544,-0.11273 0.0754,-0.0398 0.16614,-0.0398 0.19071,0 0.3009,0.11613 0.11103,0.11527 0.11103,0.31446 0,0.19495 -0.11527,0.31277 -0.11528,0.11782 -0.30684,0.11782 -0.21953,0 -0.33565,-0.16783 -0.11612,-0.16867 -0.11612,-0.48822 0,-0.30006 0.1424,-0.47806 0.14239,-0.17884 0.38227,-0.17884 0.0644,0 0.12968,0.0127 0.0661,0.0127 0.13732,0.0381 z" />
    </g>
    <g
       id="text726"
       style="font-style:normal;font-weight:normal;font-size:1.73590958px;font-family:sans-serif;text-anchor:middle;fill:#ffffff"
       transform="scale(1.0507842,0.9516702)"
       aria-label="ETH7">
      <path
         id="path15263"
         style=""
         d="m 440.05101,121.55365 h 0.80015 v 0.1441 h -0.62893 v 0.37464 h 0.60265 v 0.1441 h -0.60265 v 0.45855 h 0.64418 v 0.1441 h -0.8154 z" />
      <path
         id="path15265"
         style=""
         d="m 440.97406,121.55365 h 1.07053 v 0.1441 h -0.44923 v 1.12139 h -0.17207 v -1.12139 h -0.44923 z" />
      <path
         id="path15267"
         style=""
         d="m 442.21073,121.55365 h 0.17121 v 0.51874 h 0.62215 v -0.51874 h 0.17122 v 1.26549 h -0.17122 v -0.60265 h -0.62215 v 0.60265 h -0.17121 z" />
      <path
         id="path15269"
         style=""
         d="m 443.48808,121.55365 h 0.8137 v 0.0729 l -0.4594,1.19259 h -0.17885 l 0.43228,-1.12139 h -0.60773 z" />
    </g>
    <g
       id="text730"
       style="font-style:normal;font-weight:normal;font-size:1.73590958px;font-family:sans-serif;text-anchor:middle;fill:#ffffff"
       transform="scale(1.0507842,0.9516702)"
       aria-label="ETH8">
      <path
         id="path15254"
         style=""
         d="m 448.10924,121.55365 h 0.80014 v 0.1441 h -0.62893 v 0.37464 h 0.60266 v 0.1441 h -0.60266 v 0.45855 h 0.64419 v 0.1441 h -0.8154 z" />
      <path
         id="path15256"
         style=""
         d="m 449.03229,121.55365 h 1.07053 v 0.1441 h -0.44923 v 1.12139 h -0.17207 v -1.12139 h -0.44923 z" />
      <path
         id="path15258"
         style=""
         d="m 450.26895,121.55365 h 0.17122 v 0.51874 h 0.62215 v -0.51874 h 0.17122 v 1.26549 h -0.17122 v -0.60265 h -0.62215 v 0.60265 h -0.17122 z" />
      <path
         id="path15260"
         style=""
         d="m 451.9557,122.21818 q -0.12206,0 -0.19241,0.0653 -0.0695,0.0653 -0.0695,0.17969 0,0.11443 0.0695,0.17969 0.0704,0.0653 0.19241,0.0653 0.12206,0 0.19241,-0.0653 0.0704,-0.0661 0.0704,-0.17969 0,-0.11443 -0.0704,-0.17969 -0.0695,-0.0653 -0.19241,-0.0653 z m -0.17122,-0.0729 q -0.11019,-0.0271 -0.17206,-0.10257 -0.061,-0.0754 -0.061,-0.18393 0,-0.15172 0.10765,-0.23987 0.10849,-0.0881 0.29666,-0.0881 0.18902,0 0.29667,0.0881 0.10764,0.0881 0.10764,0.23987 0,0.1085 -0.0619,0.18393 -0.061,0.0754 -0.17037,0.10257 0.12375,0.0288 0.1924,0.11273 0.0695,0.0839 0.0695,0.20512 0,0.18393 -0.11273,0.28226 -0.11189,0.0983 -0.32125,0.0983 -0.20936,0 -0.32209,-0.0983 -0.11189,-0.0983 -0.11189,-0.28226 0,-0.12121 0.0695,-0.20512 0.0695,-0.0839 0.19325,-0.11273 z m -0.0627,-0.27039 q 0,0.0983 0.061,0.15342 0.0619,0.0551 0.17291,0.0551 0.11019,0 0.17207,-0.0551 0.0627,-0.0551 0.0627,-0.15342 0,-0.0983 -0.0627,-0.15342 -0.0619,-0.0551 -0.17207,-0.0551 -0.11104,0 -0.17291,0.0551 -0.061,0.0551 -0.061,0.15342 z" />
    </g>
    <g
       id="text734"
       style="font-style:normal;font-weight:normal;font-size:1.73590958px;font-family:sans-serif;text-anchor:middle;fill:#ffffff"
       transform="scale(1.0507842,0.9516702)"
       aria-label="ETH9">
      <path
         id="path15245"
         style=""
         d="m 456.18401,121.55365 h 0.80014 v 0.1441 h -0.62893 v 0.37464 h 0.60266 v 0.1441 h -0.60266 v 0.45855 h 0.64419 v 0.1441 h -0.8154 z" />
      <path
         id="path15247"
         style=""
         d="m 457.10705,121.55365 h 1.07054 v 0.1441 h -0.44924 v 1.12139 h -0.17206 v -1.12139 h -0.44924 z" />
      <path
         id="path15249"
         style=""
         d="m 458.34372,121.55365 h 0.17122 v 0.51874 h 0.62215 v -0.51874 h 0.17121 v 1.26549 h -0.17121 v -0.60265 h -0.62215 v 0.60265 h -0.17122 z" />
      <path
         id="path15251"
         style=""
         d="m 459.66939,122.79286 v -0.15596 q 0.0644,0.0305 0.13053,0.0466 0.0661,0.0161 0.12968,0.0161 0.16953,0 0.25853,-0.11358 0.0898,-0.11442 0.10256,-0.34667 -0.0492,0.0729 -0.1246,0.11189 -0.0754,0.039 -0.16698,0.039 -0.18987,0 -0.3009,-0.11443 -0.11019,-0.11528 -0.11019,-0.31447 0,-0.19495 0.11527,-0.31276 0.11528,-0.11782 0.30684,-0.11782 0.21953,0 0.3348,0.16867 0.11613,0.16783 0.11613,0.48823 0,0.2992 -0.1424,0.47805 -0.14155,0.178 -0.38143,0.178 -0.0644,0 -0.13053,-0.0127 -0.0661,-0.0127 -0.13731,-0.0381 z m 0.34074,-0.53654 q 0.11527,0 0.18223,-0.0788 0.0678,-0.0788 0.0678,-0.21615 0,-0.13646 -0.0678,-0.21529 -0.067,-0.0797 -0.18223,-0.0797 -0.11528,0 -0.18309,0.0797 -0.067,0.0788 -0.067,0.21529 0,0.13732 0.067,0.21615 0.0678,0.0788 0.18309,0.0788 z" />
    </g>
    <g
       id="text738"
       style="font-style:normal;font-weight:normal;font-size:1.73590958px;font-family:sans-serif;text-anchor:middle;fill:#ffffff"
       transform="scale(1.0507842,0.9516702)"
       aria-label="ETH10">
      <path
         id="path15234"
         style=""
         d="m 463.70103,121.55365 h 0.80015 v 0.1441 h -0.62893 v 0.37464 h 0.60265 v 0.1441 h -0.60265 v 0.45855 h 0.64419 v 0.1441 h -0.81541 z" />
      <path
         id="path15236"
         style=""
         d="m 464.62408,121.55365 h 1.07054 v 0.1441 h -0.44924 v 1.12139 h -0.17206 v -1.12139 h -0.44924 z" />
      <path
         id="path15238"
         style=""
         d="m 465.86075,121.55365 h 0.17122 v 0.51874 h 0.62214 v -0.51874 h 0.17122 v 1.26549 h -0.17122 v -0.60265 h -0.62214 v 0.60265 h -0.17122 z" />
      <path
         id="path15240"
         style=""
         d="m 467.211,122.67504 h 0.27971 v -0.96543 l -0.3043,0.061 v -0.15596 l 0.3026,-0.061 h 0.17122 v 1.12139 h 0.27971 v 0.1441 H 467.211 Z" />
      <path
         id="path15242"
         style=""
         d="m 468.65278,121.66639 q -0.13222,0 -0.19919,0.13053 -0.0661,0.12968 -0.0661,0.39075 0,0.26021 0.0661,0.39075 0.067,0.12968 0.19919,0.12968 0.13308,0 0.19919,-0.12968 0.067,-0.13054 0.067,-0.39075 0,-0.26107 -0.067,-0.39075 -0.0661,-0.13053 -0.19919,-0.13053 z m 0,-0.13562 q 0.21275,0 0.32464,0.16867 0.11273,0.16783 0.11273,0.48823 0,0.31955 -0.11273,0.48822 -0.11189,0.16783 -0.32464,0.16783 -0.21275,0 -0.32548,-0.16783 -0.11188,-0.16867 -0.11188,-0.48822 0,-0.3204 0.11188,-0.48823 0.11273,-0.16867 0.32548,-0.16867 z" />
    </g>
    <g
       transform="matrix(1.1400414,0,0,1.0325084,111.07529,-36.035173)"
       id="g742">
      <circle
         r="0.60000002"
         id="ellipse744"
         cy="141"
         cx="285"
         style="fill:#00ff00" />
      <circle
         r="0.60000002"
         id="ellipse746"
         cy="141"
         cx="285"
         style="fill:none;fill-opacity:0;stroke:#008000;stroke-width:0.2" />
    </g>
    <g
       transform="matrix(1.1400414,0,0,1.0325084,111.07529,-36.035173)"
       id="g748">
      <circle
         r="0.60000002"
         id="ellipse750"
         cy="141"
         cx="287.39999"
         style="fill:#00ff00" />
      <circle
         r="0.60000002"
         id="ellipse752"
         cy="141"
         cx="287.39999"
         style="fill:none;fill-opacity:0;stroke:#008000;stroke-width:0.2" />
    </g>
    <g
       transform="matrix(1.1400414,0,0,1.0325084,111.07529,-36.035173)"
       id="g754">
      <circle
         r="0.60000002"
         id="ellipse756"
         cy="141"
         cx="289.79999"
         style="fill:#00ff00" />
      <circle
         r="0.60000002"
         id="ellipse758"
         cy="141"
         cx="289.79999"
         style="fill:none;fill-opacity:0;stroke:#008000;stroke-width:0.2" />
    </g>
    <g
       transform="matrix(1.1400414,0,0,1.0325084,111.07529,-36.035173)"
       id="g760">
      <circle
         r="0.60000002"
         id="ellipse762"
         cy="141"
         cx="292.20001"
         style="fill:#00ff00" />
      <circle
         r="0.60000002"
         id="ellipse764"
         cy="141"
         cx="292.20001"
         style="fill:none;fill-opacity:0;stroke:#008000;stroke-width:0.2" />
    </g>
    <g
       transform="matrix(1.1400414,0,0,1.0325084,111.07529,-36.035173)"
       id="g766">
      <circle
         r="0.60000002"
         id="ellipse768"
         cy="141"
         cx="294.60001"
         style="fill:#00ff00" />
      <circle
         r="0.60000002"
         id="ellipse770"
         cy="141"
         cx="294.60001"
         style="fill:none;fill-opacity:0;stroke:#008000;stroke-width:0.2" />
    </g>
    <g
       transform="matrix(1.1400414,0,0,1.0325084,111.07529,-36.035173)"
       id="g772">
      <circle
         r="0.60000002"
         id="ellipse774"
         cy="143.8"
         cx="285"
         style="fill:#00ff00" />
      <circle
         r="0.60000002"
         id="ellipse776"
         cy="143.8"
         cx="285"
         style="fill:none;fill-opacity:0;stroke:#008000;stroke-width:0.2" />
    </g>
    <g
       transform="matrix(1.1400414,0,0,1.0325084,111.07529,-36.035173)"
       id="g778">
      <circle
         r="0.60000002"
         id="ellipse780"
         cy="143.8"
         cx="287.39999"
         style="fill:#00ff00" />
      <circle
         r="0.60000002"
         id="ellipse782"
         cy="143.8"
         cx="287.39999"
         style="fill:none;fill-opacity:0;stroke:#008000;stroke-width:0.2" />
    </g>
    <g
       transform="matrix(1.1400414,0,0,1.0325084,111.07529,-36.035173)"
       id="g784">
      <circle
         r="0.60000002"
         id="ellipse786"
         cy="143.8"
         cx="289.79999"
         style="fill:#00ff00" />
      <circle
         r="0.60000002"
         id="ellipse788"
         cy="143.8"
         cx="289.79999"
         style="fill:none;fill-opacity:0;stroke:#008000;stroke-width:0.2" />
    </g>
    <g
       transform="matrix(1.1400414,0,0,1.0325084,111.07529,-36.035173)"
       id="g790">
      <circle
         r="0.60000002"
         id="ellipse792"
         cy="143.8"
         cx="292.20001"
         style="fill:#00ff00" />
      <circle
         r="0.60000002"
         id="ellipse794"
         cy="143.8"
         cx="292.20001"
         style="fill:none;fill-opacity:0;stroke:#008000;stroke-width:0.2" />
    </g>
    <g
       transform="matrix(1.1400414,0,0,1.0325084,111.07529,-36.035173)"
       id="g796">
      <circle
         r="0.60000002"
         id="ellipse798"
         cy="143.8"
         cx="294.60001"
         style="fill:#00ff00" />
      <circle
         r="0.60000002"
         id="ellipse800"
         cy="143.8"
         cx="294.60001"
         style="fill:none;fill-opacity:0;stroke:#008000;stroke-width:0.2" />
    </g>
    <g
       style="fill:#ffffff"
       transform="matrix(0.04950885,0,0,0.04950885,562.44516,106.61366)"
       id="g8594">
      <g
         style="fill:#ffffff"
         id="Background" />
      <g
         style="fill:#ffffff"
         id="Guides" />
      <g
         style="fill:#ffffff"
         id="Foreground" />
      <g
         style="fill:#ffffff"
         id="Vilnishi">
        <g
           style="fill:#ffffff"
           id="g8562">
          <polygon
             style="fill:#ffffff;fill-rule:evenodd"
             points="131.189,63.832 131.519,63.832 107.315,152.466 118.347,152.466 143.538,54.501 127.237,54.501 62.697,142.45 44.421,54.501 28.122,54.501 2.602,152.466 13.467,152.466 35.695,62.459 36.024,62.459 54.958,152.466 66.155,152.466 "
             id="polygon8564" />
          <path
             style="fill:#ffffff;fill-rule:evenodd"
             inkscape:connector-curvature="0"
             d="m 154.109,81.668 -18.276,70.798 10.373,0 18.275,-70.798 -10.372,0 z"
             id="path8566" />
          <polygon
             style="fill:#ffffff;fill-rule:evenodd"
             points="204.626,108.971 244.799,81.668 230.969,81.668 181.246,116.244 180.917,115.969 189.778,81.654 179.388,81.654 161.324,152.466 171.697,152.466 178.282,126.808 196.393,114.185 218.95,152.466 230.311,152.466 "
             id="polygon8568" />
          <path
             style="fill:#ffffff;fill-rule:evenodd"
             inkscape:connector-curvature="0"
             d="m 250.913,81.668 -18.275,70.798 10.373,0 9.549,-37.046 c 3.458,-13.309 13.336,-25.794 31.941,-26.068 1.976,0 3.952,0.137 5.927,0.137 l 2.305,-8.644 c -1.812,-0.138 -3.787,-0.138 -5.598,-0.138 -15.147,-0.137 -24.203,7.135 -30.789,17.289 l -0.33,0 4.281,-16.328 -9.384,0 z"
             id="path8570" />
          <path
             style="fill:#ffffff;fill-rule:evenodd"
             inkscape:connector-curvature="0"
             d="m 364.701,107.325 c 0,-17.425 -13.83,-27.716 -33.588,-27.716 -30.295,0 -47.418,22.228 -47.418,45.415 0,17.7 12.019,29.5 33.916,29.5 31.45,-0.001 47.09,-23.325 47.09,-47.199 z m -10.373,1.783 c 0,16.465 -12.02,38.144 -34.74,38.144 -17.288,0 -25.52,-9.331 -25.52,-23.051 0,-16.601 12.514,-37.32 35.234,-37.32 16.629,0 25.026,9.056 25.026,22.227 z"
             id="path8572" />
          <polygon
             style="fill:#ffffff;fill-rule:evenodd"
             points="431.665,81.654 464.236,81.618 470.979,54.485 369.558,54.485 362.856,81.654 395.392,81.654 395.39,81.662 431.661,81.662 "
             id="polygon8574" />
          <polygon
             style="fill:#ffffff;fill-rule:evenodd"
             points="377.79,152.449 414.012,152.449 428.423,94.654 428.43,94.63 392.165,94.63 392.165,94.634 "
             id="polygon8576" />
          <path
             style="fill:#ffffff;fill-rule:evenodd"
             inkscape:connector-curvature="0"
             d="m 470.055,94.639 -14.315,57.811 32.601,0 14.315,-57.811 -32.601,0 z m 35.877,-13.021 6.774,-27.133 -32.6,0 -6.821,27.168 32.647,-0.035 z"
             id="path8578" />
          <polygon
             style="fill:#ffffff;fill-rule:evenodd"
             points="572.138,109.916 610.5,81.24 571.479,81.24 547.441,102.095 547.111,102.095 558.802,54.485 526.202,54.485 501.834,152.449 534.434,152.449 539.538,132.143 546.948,126.655 558.473,152.449 593.871,152.449 "
             id="polygon8580" />
          <g
             style="fill:#ffffff"
             id="g8582">
            <path
               style="fill:#ffffff;fill-rule:evenodd"
               inkscape:connector-curvature="0"
               d="m 152.875,11.694 c 4.937,34.276 23.337,55.089 60.831,56.809 -35.328,13.505 -71.747,-18.265 -60.831,-56.809 z"
               id="path8584" />
            <path
               style="fill:#ffffff;fill-rule:evenodd"
               inkscape:connector-curvature="0"
               d="m 168.119,6.84 c 3.984,27.659 18.832,44.453 49.086,45.841 C 188.699,63.579 159.311,37.942 168.119,6.84 Z"
               id="path8586" />
          </g>
        </g>
      </g>
    </g>
    <circle
       r="0.65183693"
       cy="112.24708"
       cx="373.86942"
       id="path17977"
       style="opacity:1;vector-effect:none;fill:#0066ff;fill-opacity:0.9662162;fill-rule:evenodd;stroke:#0044aa;stroke-width:0.10621818;stroke-linecap:butt;stroke-linejoin:round;stroke-miterlimit:4;stroke-dasharray:none;stroke-dashoffset:0;stroke-opacity:1" />
    <circle
       r="0.65183693"
       cy="109.62363"
       cx="373.86942"
       id="path17977-9"
       style="opacity:1;vector-effect:none;fill:#4d4d4d;fill-opacity:0.9662162;fill-rule:evenodd;stroke:#090909;stroke-width:0.05310909;stroke-linecap:butt;stroke-linejoin:round;stroke-miterlimit:4;stroke-dasharray:none;stroke-dashoffset:0;stroke-opacity:1" />
  </g>
</svg>
