<svg width="443" height="44.5" version="1.1" viewBox="365 99 235.27326 14.442722" xmlns="http://www.w3.org/2000/svg"><rect x="365" y="94.405" width="235.27" height="23.634" fill="#1a1a1a"/><rect x="387.85" y="107.04" width="42.17" height="7.5654" fill="#ebebeb" stroke="#000" stroke-linejoin="round" stroke-width=".10622"/><g fill="#1a1a1a"><path d="m429.43 112.52h-1.7595l3e-3 1.0653-0.64032 5.7e-4v0.39886h-2.0639l4.8e-4 -0.3999h-0.6665v-1.0654h-1.7514v-4.5866l6.8779-0.0149z"/><path d="m420.95 112.52h-1.7595l3e-3 1.0653-0.64032 5.7e-4v0.39886h-2.0639l4.8e-4 -0.3999h-0.6665v-1.0654h-1.7514v-4.5866l6.8779-0.0149z"/><path d="m412.47 112.52h-1.7595l3e-3 1.0653-0.64032 5.7e-4v0.39886h-2.0639l4.8e-4 -0.3999h-0.6665v-1.0654h-1.7514v-4.5866l6.8779-0.0149z"/><path d="m403.98 112.52h-1.7595l3e-3 1.0653-0.64032 5.7e-4v0.39886h-2.0639l4.8e-4 -0.3999h-0.6665v-1.0654h-1.7514v-4.5866l6.8779-0.0149z"/><path d="m395.5 112.52h-1.7595l3e-3 1.0653-0.64032 5.7e-4v0.39886h-2.0639l4.8e-4 -0.3999h-0.6665v-1.0654h-1.7514v-4.5866l6.8779-0.0149z"/></g><rect x="451.97" y="107.17" width="42.17" height="7.5654" fill="#ebebeb" stroke="#000" stroke-linejoin="round" stroke-width=".10622"/><g fill="#1a1a1a"><path d="m493.56 112.65h-1.7595l3e-3 1.0653-0.64032 5.7e-4v0.39886h-2.0639l4.8e-4 -0.3999h-0.6665v-1.0654h-1.7514v-4.5866l6.8779-0.0149z"/><path d="m485.07 112.65h-1.7595l3e-3 1.0653-0.64032 5.7e-4v0.39886h-2.0639l4.8e-4 -0.3999h-0.6665v-1.0654h-1.7514v-4.5866l6.8779-0.0149z"/><path d="m476.59 112.65h-1.7595l3e-3 1.0653-0.64032 5.7e-4v0.39886h-2.0639l4.8e-4 -0.3999h-0.6665v-1.0654h-1.7514v-4.5866l6.8779-0.0149z"/><path d="m468.11 112.65h-1.7595l3e-3 1.0653-0.64032 5.7e-4v0.39886h-2.0639l4.8e-4 -0.3999h-0.6665v-1.0654h-1.7514v-4.5866l6.8779-0.0149z"/><path d="m459.63 112.65h-1.7595l3e-3 1.0653-0.64032 5.7e-4v0.39886h-2.0639l4.8e-4 -0.3999h-0.6665v-1.0654h-1.7514v-4.5866l6.8779-0.0149z"/></g><g transform="scale(1.0508 .95167)" fill="#fff" aria-label="GIGABIT ETHERNET"><path d="m381.68 110.06v-0.33989h-0.27971v-0.14071h0.44923v0.54332q-0.0992 0.0703-0.21868 0.1068-0.11951 0.0356-0.25513 0.0356-0.29667 0-0.46449-0.17291-0.16698-0.17376-0.16698-0.48314 0-0.31023 0.16698-0.48314 0.16782-0.17376 0.46449-0.17376 0.12375 0 0.23479 0.0305 0.11188 0.0305 0.20597 0.0898v0.18224q-0.0949-0.0805-0.20174-0.12121-0.10679-0.0407-0.22461-0.0407-0.23225 0-0.34922 0.12969-0.11612 0.12968-0.11612 0.38651 0 0.25598 0.11612 0.38566 0.11697 0.12969 0.34922 0.12969 0.0907 0 0.16189-0.0153 0.0712-0.0161 0.12799-0.0492z" style=""/><path d="m382.17 108.98h0.17122v1.2655h-0.17122z" style=""/><path d="m383.54 110.06v-0.33989h-0.27972v-0.14071h0.44924v0.54332q-0.0992 0.0703-0.21869 0.1068-0.11951 0.0356-0.25513 0.0356-0.29666 0-0.46449-0.17291-0.16698-0.17376-0.16698-0.48314 0-0.31023 0.16698-0.48314 0.16783-0.17376 0.46449-0.17376 0.12375 0 0.23479 0.0305 0.11189 0.0305 0.20597 0.0898v0.18224q-0.0949-0.0805-0.20173-0.12121-0.1068-0.0407-0.22462-0.0407-0.23224 0-0.34921 0.12969-0.11613 0.12968-0.11613 0.38651 0 0.25598 0.11613 0.38566 0.11697 0.12969 0.34921 0.12969 0.0907 0 0.1619-0.0153 0.0712-0.0161 0.12799-0.0492z" style=""/><path d="m384.45 109.14-0.23224 0.62978h0.46534zm-0.0966-0.16867h0.1941l0.48229 1.2655h-0.178l-0.11527-0.32463h-0.57045l-0.11527 0.32463h-0.18054z" style=""/><path d="m385.38 109.64v0.46365h0.27463q0.13816 0 0.20427-0.0568 0.067-0.0576 0.067-0.17546 0-0.11866-0.067-0.17461-0.0661-0.0568-0.20427-0.0568zm0-0.52043v0.38142h0.25344q0.12544 0 0.18647-0.0466 0.0619-0.0475 0.0619-0.1441 0-0.0958-0.0619-0.14324-0.061-0.0475-0.18647-0.0475zm-0.17122-0.1407h0.43737q0.1958 0 0.30175 0.0814t0.10595 0.23139q0 0.11613-0.0543 0.18478-0.0542 0.0687-0.15935 0.0856 0.1263 0.0271 0.1958 0.11358 0.0704 0.0856 0.0704 0.21445 0 0.16952-0.11527 0.26191-0.11528 0.0924-0.32803 0.0924h-0.45432z" style=""/><path d="m386.4 108.98h0.17122v1.2655h-0.17122z" style=""/><path d="m386.74 108.98h1.0705v0.14409h-0.44924v1.1214h-0.17206v-1.1214h-0.44924z" style=""/><path d="m388.53 108.98h0.80015v0.14409h-0.62893v0.37464h0.60265v0.1441h-0.60265v0.45856h0.64418v0.14409h-0.8154z" style=""/><path d="m389.45 108.98h1.0705v0.14409h-0.44923v1.1214h-0.17207v-1.1214h-0.44923z" style=""/><path d="m390.69 108.98h0.17121v0.51873h0.62215v-0.51873h0.17122v1.2655h-0.17122v-0.60265h-0.62215v0.60265h-0.17121z" style=""/><path d="m391.99 108.98h0.80014v0.14409h-0.62892v0.37464h0.60265v0.1441h-0.60265v0.45856h0.64418v0.14409h-0.8154z" style=""/><path d="m393.69 109.65q0.0551 0.0186 0.1068 0.0797 0.0525 0.061 0.10511 0.16782l0.17376 0.34583h-0.18393l-0.1619-0.32463q-0.0627-0.12715-0.12205-0.16868-0.0585-0.0415-0.1602-0.0415h-0.18648v0.53484h-0.17122v-1.2655h0.38652q0.21698 0 0.32378 0.0907t0.1068 0.27378q0 0.11951-0.0559 0.19834-0.0551 0.0788-0.16105 0.10934zm-0.42889-0.53145v0.44923h0.2153q0.12375 0 0.18647-0.0568 0.0636-0.0576 0.0636-0.16867 0-0.11104-0.0636-0.16698-0.0627-0.0568-0.18647-0.0568z" style=""/><path d="m394.3 108.98h0.23055l0.56112 1.0587v-1.0587h0.16614v1.2655h-0.23055l-0.56112-1.0587v1.0587h-0.16614z" style=""/><path d="m395.6 108.98h0.80014v0.14409h-0.62893v0.37464h0.60266v0.1441h-0.60266v0.45856h0.64419v0.14409h-0.8154z" style=""/><path d="m396.52 108.98h1.0705v0.14409h-0.44924v1.1214h-0.17206v-1.1214h-0.44923z" style=""/></g><g transform="scale(1.0508 .95167)" fill="#fff" aria-label="RB2011"><path d="m351.49 109.26q0.21709 0 0.31038-0.0807 0.0951-0.0807 0.0951-0.26553 0-0.18299-0.0951-0.26194-0.0933-0.0789-0.31038-0.0789h-0.29065v0.68715zm-0.29065 0.47723v1.0137h-0.69073v-2.6786h1.0549q0.52926 0 0.77505 0.17761 0.24759 0.17762 0.24759 0.56156 0 0.26553-0.12917 0.43597-0.12739 0.17044-0.38574 0.25118 0.14174 0.0323 0.25297 0.14711 0.11303 0.11303 0.22785 0.34447l0.37497 0.76071h-0.73558l-0.32653-0.66562q-0.0987-0.20094-0.20094-0.2745-0.10047-0.0736-0.26912-0.0736z" style=""/><path d="m354.41 109.11q0.16327 0 0.24759-0.0718 0.0843-0.0718 0.0843-0.21171 0-0.13814-0.0843-0.20991-0.0843-0.0736-0.24759-0.0736h-0.38214v0.56694zm0.0233 1.1716q0.20811 0 0.31217-0.0879 0.10585-0.0879 0.10585-0.26553 0-0.17403-0.10405-0.26015-0.10406-0.0879-0.31397-0.0879h-0.40547v0.7015zm0.64229-0.96344q0.22247 0.0646 0.34447 0.23862 0.122 0.17403 0.122 0.427 0 0.38753-0.26194 0.5777-0.26194 0.19018-0.79659 0.19018h-1.1464v-2.6786h1.037q0.55797 0 0.80735 0.16864 0.25118 0.16865 0.25118 0.54003 0 0.19556-0.0915 0.33371-0.0915 0.13635-0.26553 0.20273z" style=""/><path d="m356.86 110.24h1.1787v0.50774h-1.9466v-0.50774l0.97779-0.86297q0.13098-0.11841 0.19377-0.23144 0.0628-0.11303 0.0628-0.23503 0-0.18838-0.12738-0.3032-0.12559-0.11482-0.3355-0.11482-0.16147 0-0.35344 0.07-0.19197 0.0682-0.41085 0.20453v-0.58847q0.23323-0.0772 0.46109-0.11662 0.22785-0.0413 0.44673-0.0413 0.48082 0 0.74635 0.21171 0.26733 0.21171 0.26733 0.59026 0 0.21889-0.11303 0.40906-0.11303 0.18838-0.47544 0.50594z" style=""/><path d="m360.04 109.41q0-0.50235-0.0951-0.70688-0.0933-0.20632-0.31576-0.20632-0.22247 0-0.31756 0.20632-0.0951 0.20453-0.0951 0.70688 0 0.50773 0.0951 0.71585t0.31756 0.20812q0.22067 0 0.31576-0.20812 0.0951-0.20812 0.0951-0.71585zm0.69073 5e-3q0 0.66562-0.28705 1.028-0.28706 0.36062-0.81453 0.36062-0.52927 0-0.81632-0.36062-0.28706-0.36241-0.28706-1.028 0-0.66741 0.28706-1.028 0.28705-0.36242 0.81632-0.36242 0.52747 0 0.81453 0.36242 0.28705 0.36061 0.28705 1.028z" style=""/><path d="m361.34 110.27h0.61v-1.7313l-0.62615 0.12918v-0.47006l0.62256-0.12917h0.65665v2.2014h0.60999v0.47724h-1.873z" style=""/><path d="m363.89 110.27h0.61v-1.7313l-0.62615 0.12918v-0.47006l0.62256-0.12917h0.65664v2.2014h0.61v0.47724h-1.873z" style=""/></g><g transform="translate(-13.287)"><g transform="matrix(1.14 0 0 1.0325 116.29 -36.001)"><polygon points="234 129 236.8 129 235.4 131.4"/><polygon points="234 129 236.8 129 235.4 131.4" fill="none" stroke="#000" stroke-width=".2"/><polygon points="237.8 129 239.2 131.4 236.4 131.4"/><polygon points="237.8 129 239.2 131.4 236.4 131.4" fill="none" stroke="#000" stroke-width=".2"/><polygon points="238.8 129 241.6 129 240.2 131.4"/><polygon points="238.8 129 241.6 129 240.2 131.4" fill="none" stroke="#000" stroke-width=".2"/><polygon points="242.6 129 244 131.4 241.2 131.4"/><polygon points="242.6 129 244 131.4 241.2 131.4" fill="none" stroke="#000" stroke-width=".2"/><polygon points="243.6 129 246.4 129 245 131.4"/><polygon points="243.6 129 246.4 129 245 131.4" fill="none" stroke="#000" stroke-width=".2"/><polygon points="247.4 129 248.8 131.4 246 131.4"/><polygon points="247.4 129 248.8 131.4 246 131.4" fill="none" stroke="#000" stroke-width=".2"/><polygon points="248.4 129 251.2 129 249.8 131.4"/><polygon points="248.4 129 251.2 129 249.8 131.4" fill="none" stroke="#000" stroke-width=".2"/><polygon points="252.2 129 253.6 131.4 250.8 131.4"/><polygon points="252.2 129 253.6 131.4 250.8 131.4" fill="none" stroke="#000" stroke-width=".2"/><polygon points="253.2 129 256 129 254.6 131.4"/><polygon points="253.2 129 256 129 254.6 131.4" fill="none" stroke="#000" stroke-width=".2"/><polygon points="257 129 258.4 131.4 255.6 131.4"/><polygon points="257 129 258.4 131.4 255.6 131.4" fill="none" stroke="#000" stroke-width=".2"/><polygon points="258 129 260.8 129 259.4 131.4"/><polygon points="258 129 260.8 129 259.4 131.4" fill="none" stroke="#000" stroke-width=".2"/><polygon points="261.8 129 263.2 131.4 260.4 131.4"/><polygon points="261.8 129 263.2 131.4 260.4 131.4" fill="none" stroke="#000" stroke-width=".2"/><polygon points="262.8 129 265.6 129 264.2 131.4"/><polygon points="262.8 129 265.6 129 264.2 131.4" fill="none" stroke="#000" stroke-width=".2"/><polygon points="266.6 129 268 131.4 265.2 131.4"/><polygon points="266.6 129 268 131.4 265.2 131.4" fill="none" stroke="#000" stroke-width=".2"/><polygon points="267.6 129 270.4 129 269 131.4"/><polygon points="267.6 129 270.4 129 269 131.4" fill="none" stroke="#000" stroke-width=".2"/><polygon points="271.4 129 272.8 131.4 270 131.4"/><polygon points="271.4 129 272.8 131.4 270 131.4" fill="none" stroke="#000" stroke-width=".2"/><polygon points="272.4 129 275.2 129 273.8 131.4"/><polygon points="272.4 129 275.2 129 273.8 131.4" fill="none" stroke="#000" stroke-width=".2"/><polygon points="276.2 129 277.6 131.4 274.8 131.4"/><polygon points="276.2 129 277.6 131.4 274.8 131.4" fill="none" stroke="#000" stroke-width=".2"/><polygon points="277.2 129 280 129 278.6 131.4"/><polygon points="277.2 129 280 129 278.6 131.4" fill="none" stroke="#000" stroke-width=".2"/><polygon points="281 129 282.4 131.4 279.6 131.4"/><polygon points="281 129 282.4 131.4 279.6 131.4" fill="none" stroke="#000" stroke-width=".2"/><polygon points="282 129 284.8 129 283.4 131.4"/><polygon points="282 129 284.8 129 283.4 131.4" fill="none" stroke="#000" stroke-width=".2"/><polygon points="285.8 129 287.2 131.4 284.4 131.4"/><polygon points="285.8 129 287.2 131.4 284.4 131.4" fill="none" stroke="#000" stroke-width=".2"/><polygon points="286.8 129 289.6 129 288.2 131.4"/><polygon points="286.8 129 289.6 129 288.2 131.4" fill="none" stroke="#000" stroke-width=".2"/><polygon points="290.6 129 292 131.4 289.2 131.4"/><polygon points="290.6 129 292 131.4 289.2 131.4" fill="none" stroke="#000" stroke-width=".2"/><polygon points="291.8 129 294.6 129 293.2 131.4"/><polygon points="291.8 129 294.6 129 293.2 131.4" fill="none" stroke="#000" stroke-width=".2"/><polygon points="295.6 129 297 131.4 294.2 131.4"/><polygon points="295.6 129 297 131.4 294.2 131.4" fill="none" stroke="#000" stroke-width=".2"/><polygon points="296.6 129 299.4 129 298 131.4"/><polygon points="296.6 129 299.4 129 298 131.4" fill="none" stroke="#000" stroke-width=".2"/><polygon points="300.4 129 301.8 131.4 299 131.4"/><polygon points="300.4 129 301.8 131.4 299 131.4" fill="none" stroke="#000" stroke-width=".2"/><polygon points="301.4 129 304.2 129 302.8 131.4"/><polygon points="301.4 129 304.2 129 302.8 131.4" fill="none" stroke="#000" stroke-width=".2"/><polygon points="305.2 129 306.6 131.4 303.8 131.4"/><polygon points="305.2 129 306.6 131.4 303.8 131.4" fill="none" stroke="#000" stroke-width=".2"/><polygon points="306.2 129 309 129 307.6 131.4"/><polygon points="306.2 129 309 129 307.6 131.4" fill="none" stroke="#000" stroke-width=".2"/><polygon points="310 129 311.4 131.4 308.6 131.4"/><polygon points="310 129 311.4 131.4 308.6 131.4" fill="none" stroke="#000" stroke-width=".2"/><polygon points="311 129 313.8 129 312.4 131.4"/><polygon points="311 129 313.8 129 312.4 131.4" fill="none" stroke="#000" stroke-width=".2"/><polygon points="314.8 129 316.2 131.4 313.4 131.4"/><polygon points="314.8 129 316.2 131.4 313.4 131.4" fill="none" stroke="#000" stroke-width=".2"/><polygon points="315.8 129 318.6 129 317.2 131.4"/><polygon points="315.8 129 318.6 129 317.2 131.4" fill="none" stroke="#000" stroke-width=".2"/><polygon points="319.6 129 321 131.4 318.2 131.4"/><polygon points="319.6 129 321 131.4 318.2 131.4" fill="none" stroke="#000" stroke-width=".2"/><polygon points="320.6 129 323.4 129 322 131.4"/><polygon points="320.6 129 323.4 129 322 131.4" fill="none" stroke="#000" stroke-width=".2"/><polygon points="324.4 129 325.8 131.4 323 131.4"/><polygon points="324.4 129 325.8 131.4 323 131.4" fill="none" stroke="#000" stroke-width=".2"/><polygon points="325.4 129 328.2 129 326.8 131.4"/><polygon points="325.4 129 328.2 129 326.8 131.4" fill="none" stroke="#000" stroke-width=".2"/><polygon points="329.2 129 330.6 131.4 327.8 131.4"/><polygon points="329.2 129 330.6 131.4 327.8 131.4" fill="none" stroke="#000" stroke-width=".2"/></g><g transform="matrix(1.14 0 0 1.0325 116.29 -36.001)"><polygon points="365.6 129.2 367 131.6 364.2 131.6"/><polygon points="365.6 129.2 367 131.6 364.2 131.6" fill="none" stroke="#000" stroke-width=".2"/><polygon points="366.6 129.2 369.4 129.2 368 131.6"/><polygon points="366.6 129.2 369.4 129.2 368 131.6" fill="none" stroke="#000" stroke-width=".2"/><polygon points="370.4 129.2 371.8 131.6 369 131.6"/><polygon points="370.4 129.2 371.8 131.6 369 131.6" fill="none" stroke="#000" stroke-width=".2"/><polygon points="371.4 129.2 374.2 129.2 372.8 131.6"/><polygon points="371.4 129.2 374.2 129.2 372.8 131.6" fill="none" stroke="#000" stroke-width=".2"/><polygon points="375.2 129.2 376.6 131.6 373.8 131.6"/><polygon points="375.2 129.2 376.6 131.6 373.8 131.6" fill="none" stroke="#000" stroke-width=".2"/><polygon points="376.2 129.2 379 129.2 377.6 131.6"/><polygon points="376.2 129.2 379 129.2 377.6 131.6" fill="none" stroke="#000" stroke-width=".2"/><polygon points="380 129.2 381.4 131.6 378.6 131.6"/><polygon points="380 129.2 381.4 131.6 378.6 131.6" fill="none" stroke="#000" stroke-width=".2"/><polygon points="381 129.2 383.8 129.2 382.4 131.6"/><polygon points="381 129.2 383.8 129.2 382.4 131.6" fill="none" stroke="#000" stroke-width=".2"/><polygon points="384.8 129.2 386.2 131.6 383.4 131.6"/><polygon points="384.8 129.2 386.2 131.6 383.4 131.6" fill="none" stroke="#000" stroke-width=".2"/><polygon points="385.8 129.2 388.6 129.2 387.2 131.6"/><polygon points="385.8 129.2 388.6 129.2 387.2 131.6" fill="none" stroke="#000" stroke-width=".2"/><polygon points="389.6 129.2 391 131.6 388.2 131.6"/><polygon points="389.6 129.2 391 131.6 388.2 131.6" fill="none" stroke="#000" stroke-width=".2"/><polygon points="390.6 129.2 393.4 129.2 392 131.6"/><polygon points="390.6 129.2 393.4 129.2 392 131.6" fill="none" stroke="#000" stroke-width=".2"/><polygon points="394.4 129.2 395.8 131.6 393 131.6"/><polygon points="394.4 129.2 395.8 131.6 393 131.6" fill="none" stroke="#000" stroke-width=".2"/><polygon points="395.4 129.2 398.2 129.2 396.8 131.6"/><polygon points="395.4 129.2 398.2 129.2 396.8 131.6" fill="none" stroke="#000" stroke-width=".2"/><polygon points="399.2 129.2 400.6 131.6 397.8 131.6"/><polygon points="399.2 129.2 400.6 131.6 397.8 131.6" fill="none" stroke="#000" stroke-width=".2"/><polygon points="400.2 129.2 403 129.2 401.6 131.6"/><polygon points="400.2 129.2 403 129.2 401.6 131.6" fill="none" stroke="#000" stroke-width=".2"/><polygon points="404 129.2 405.4 131.6 402.6 131.6"/><polygon points="404 129.2 405.4 131.6 402.6 131.6" fill="none" stroke="#000" stroke-width=".2"/><polygon points="405 129.2 407.8 129.2 406.4 131.6"/><polygon points="405 129.2 407.8 129.2 406.4 131.6" fill="none" stroke="#000" stroke-width=".2"/><polygon points="408.8 129.2 410.2 131.6 407.4 131.6"/><polygon points="408.8 129.2 410.2 131.6 407.4 131.6" fill="none" stroke="#000" stroke-width=".2"/><polygon points="409.8 129.2 412.6 129.2 411.2 131.6"/><polygon points="409.8 129.2 412.6 129.2 411.2 131.6" fill="none" stroke="#000" stroke-width=".2"/><polygon points="413.6 129.2 415 131.6 412.2 131.6"/><polygon points="413.6 129.2 415 131.6 412.2 131.6" fill="none" stroke="#000" stroke-width=".2"/><polygon points="414.6 129.2 417.4 129.2 416 131.6"/><polygon points="414.6 129.2 417.4 129.2 416 131.6" fill="none" stroke="#000" stroke-width=".2"/><polygon points="418.4 129.2 419.8 131.6 417 131.6"/><polygon points="418.4 129.2 419.8 131.6 417 131.6" fill="none" stroke="#000" stroke-width=".2"/><polygon points="419.6 129.2 422.4 129.2 421 131.6"/><polygon points="419.6 129.2 422.4 129.2 421 131.6" fill="none" stroke="#000" stroke-width=".2"/><polygon points="423.4 129.2 424.8 131.6 422 131.6"/><polygon points="423.4 129.2 424.8 131.6 422 131.6" fill="none" stroke="#000" stroke-width=".2"/><polygon points="424.4 129.2 427.2 129.2 425.8 131.6"/><polygon points="424.4 129.2 427.2 129.2 425.8 131.6" fill="none" stroke="#000" stroke-width=".2"/><polygon points="428.2 129.2 429.6 131.6 426.8 131.6"/><polygon points="428.2 129.2 429.6 131.6 426.8 131.6" fill="none" stroke="#000" stroke-width=".2"/><polygon points="429.2 129.2 432 129.2 430.6 131.6"/><polygon points="429.2 129.2 432 129.2 430.6 131.6" fill="none" stroke="#000" stroke-width=".2"/></g></g><g fill="#fff"><g transform="scale(1.0508 .95167)" aria-label="FAST ETHERNET"><path d="m443.29 109.01h0.72725v0.14409h-0.55603v0.37295h0.50179v0.1441h-0.50179v0.60434h-0.17122z" style=""/><path d="m444.56 109.18-0.23224 0.62978h0.46533zm-0.0966-0.16867h0.19411l0.48229 1.2655h-0.178l-0.11528-0.32463h-0.57044l-0.11527 0.32463h-0.18055z" style=""/><path d="m446.08 109.06v0.16698q-0.0975-0.0466-0.18393-0.0695-0.0865-0.0229-0.16698-0.0229-0.13985 0-0.21614 0.0542-0.0754 0.0543-0.0754 0.15426 0 0.0839 0.05 0.12715 0.0509 0.0424 0.19156 0.0686l0.10341 0.0212q0.19156 0.0365 0.28226 0.12884 0.0915 0.0915 0.0915 0.24581 0 0.18393-0.12375 0.27886-0.12291 0.0949-0.36109 0.0949-0.0898 0-0.19156-0.0203-0.10086-0.0203-0.20936-0.0602v-0.1763q0.10426 0.0585 0.20428 0.0881 0.10002 0.0297 0.19664 0.0297 0.14664 0 0.22632-0.0576 0.0797-0.0576 0.0797-0.16444 0-0.0932-0.0576-0.14579-0.0568-0.0525-0.18732-0.0788l-0.10425-0.0203q-0.19156-0.0381-0.27717-0.11951-0.0856-0.0814-0.0856-0.22631 0-0.16783 0.11782-0.26446 0.11866-0.0966 0.32633-0.0966 0.089 0 0.18139 0.0161 0.0924 0.0161 0.18901 0.0483z" style=""/><path d="m446.25 109.01h1.0705v0.14409h-0.44923v1.1214h-0.17207v-1.1214h-0.44923z" style=""/><path d="m448.03 109.01h0.80015v0.14409h-0.62893v0.37465h0.60265v0.14409h-0.60265v0.45856h0.64418v0.14409h-0.8154z" style=""/><path d="m448.96 109.01h1.0705v0.14409h-0.44923v1.1214h-0.17207v-1.1214h-0.44923z" style=""/><path d="m450.19 109.01h0.17121v0.51874h0.62215v-0.51874h0.17122v1.2655h-0.17122v-0.60265h-0.62215v0.60265h-0.17121z" style=""/><path d="m451.5 109.01h0.80014v0.14409h-0.62892v0.37465h0.60265v0.14409h-0.60265v0.45856h0.64418v0.14409h-0.8154z" style=""/><path d="m453.2 109.69q0.0551 0.0186 0.1068 0.0797 0.0525 0.061 0.10511 0.16783l0.17376 0.34582h-0.18394l-0.16189-0.32463q-0.0627-0.12714-0.12206-0.16868-0.0585-0.0415-0.16019-0.0415h-0.18648v0.53484h-0.17122v-1.2655h0.38651q0.21699 0 0.32379 0.0907t0.1068 0.27378q0 0.11952-0.0559 0.19834-0.0551 0.0788-0.16105 0.10934zm-0.42889-0.53145v0.44924h0.21529q0.12376 0 0.18648-0.0568 0.0636-0.0576 0.0636-0.16868 0-0.11104-0.0636-0.16698-0.0627-0.0568-0.18648-0.0568z" style=""/><path d="m453.81 109.01h0.23055l0.56112 1.0587v-1.0587h0.16613v1.2655h-0.23055l-0.56112-1.0587v1.0587h-0.16613z" style=""/><path d="m455.1 109.01h0.80015v0.14409h-0.62893v0.37465h0.60265v0.14409h-0.60265v0.45856h0.64419v0.14409h-0.81541z" style=""/><path d="m456.03 109.01h1.0705v0.14409h-0.44924v1.1214h-0.17206v-1.1214h-0.44924z" style=""/></g><g transform="scale(1.0508 .95167)" aria-label="ETH1"><path d="m370.96 121.99h0.80014v0.1441h-0.62892v0.37464h0.60265v0.1441h-0.60265v0.45855h0.64418v0.1441h-0.8154z" style=""/><path d="m371.88 121.99h1.0705v0.1441h-0.44923v1.1214h-0.17207v-1.1214h-0.44923z" style=""/><path d="m373.12 121.99h0.17122v0.51874h0.62215v-0.51874h0.17122v1.2655h-0.17122v-0.60265h-0.62215v0.60265h-0.17122z" style=""/><path d="m374.47 123.11h0.27971v-0.96543l-0.30429 0.061v-0.15596l0.3026-0.061h0.17121v1.1214h0.27972v0.1441h-0.72895z" style=""/></g><g transform="scale(1.0508 .95167)" aria-label="ETH2"><path d="m379.04 121.99h0.80015v0.1441h-0.62893v0.37464h0.60265v0.1441h-0.60265v0.45855h0.64419v0.1441h-0.81541z" style=""/><path d="m379.96 121.99h1.0705v0.1441h-0.44924v1.1214h-0.17206v-1.1214h-0.44924z" style=""/><path d="m381.2 121.99h0.17122v0.51874h0.62214v-0.51874h0.17122v1.2655h-0.17122v-0.60265h-0.62214v0.60265h-0.17122z" style=""/><path d="m382.67 123.11h0.59757v0.1441h-0.80354v-0.1441q0.0975-0.10086 0.26531-0.27038 0.16867-0.17037 0.2119-0.21954 0.0822-0.0924 0.11443-0.15596 0.0331-0.0644 0.0331-0.12629 0-0.10087-0.0712-0.16444-0.0703-0.0636-0.18393-0.0636-0.0805 0-0.17037 0.028-0.089 0.028-0.19071 0.0848v-0.17291q0.10341-0.0415 0.19325-0.0627 0.0899-0.0212 0.16444-0.0212 0.19665 0 0.31362 0.0983t0.11697 0.26276q0 0.078-0.0297 0.14833-0.0288 0.0695-0.10595 0.16444-0.0212 0.0246-0.13477 0.1424-0.11358 0.11697-0.3204 0.32802z" style=""/></g><g transform="scale(1.0508 .95167)" aria-label="ETH3"><path d="m387.09 121.99h0.80014v0.1441h-0.62893v0.37464h0.60266v0.1441h-0.60266v0.45855h0.64419v0.1441h-0.8154z" style=""/><path d="m388.02 121.99h1.0705v0.1441h-0.44923v1.1214h-0.17207v-1.1214h-0.44923z" style=""/><path d="m389.25 121.99h0.17122v0.51874h0.62215v-0.51874h0.17122v1.2655h-0.17122v-0.60265h-0.62215v0.60265h-0.17122z" style=""/><path d="m391.09 122.57q0.1229 0.0263 0.19156 0.10934 0.0695 0.0831 0.0695 0.20512 0 0.18733-0.12884 0.28989t-0.36617 0.10256q-0.0797 0-0.16444-0.0161-0.0839-0.0152-0.17376-0.0466v-0.16529q0.0712 0.0415 0.15596 0.0627 0.0848 0.0212 0.17715 0.0212 0.16105 0 0.24496-0.0636 0.0848-0.0636 0.0848-0.18478 0-0.11188-0.0788-0.1746-0.078-0.0636-0.21784-0.0636h-0.14748v-0.14071h0.15426q0.1263 0 0.19326-0.05 0.067-0.0509 0.067-0.14579 0-0.0975-0.0695-0.14918-0.0686-0.0525-0.19749-0.0525-0.0704 0-0.15087 0.0153-0.0805 0.0153-0.17715 0.0475v-0.15266q0.0975-0.0271 0.18223-0.0407 0.0856-0.0136 0.16105-0.0136 0.19495 0 0.30853 0.089 0.11358 0.0881 0.11358 0.23902 0 0.10511-0.0602 0.178-0.0602 0.072-0.17122 0.10002z" style=""/></g><g transform="scale(1.0508 .95167)" aria-label="ETH4"><path d="m395.15 121.99h0.80015v0.1441h-0.62893v0.37464h0.60265v0.1441h-0.60265v0.45855h0.64419v0.1441h-0.81541z" style=""/><path d="m396.07 121.99h1.0705v0.1441h-0.44924v1.1214h-0.17206v-1.1214h-0.44924z" style=""/><path d="m397.31 121.99h0.17122v0.51874h0.62214v-0.51874h0.17122v1.2655h-0.17122v-0.60265h-0.62214v0.60265h-0.17122z" style=""/><path d="m399.1 122.14-0.43228 0.67555h0.43228zm-0.0449-0.14918h0.21529v0.82473h0.18055v0.1424h-0.18055v0.29836h-0.17037v-0.29836h-0.57129v-0.16529z" style=""/></g><g transform="scale(1.0508 .95167)" aria-label="ETH5"><path d="m403.25 121.99h0.80015v0.1441h-0.62893v0.37464h0.60265v0.1441h-0.60265v0.45855h0.64419v0.1441h-0.81541z" style=""/><path d="m404.17 121.99h1.0705v0.1441h-0.44924v1.1214h-0.17206v-1.1214h-0.44924z" style=""/><path d="m405.41 121.99h0.17122v0.51874h0.62214v-0.51874h0.17122v1.2655h-0.17122v-0.60265h-0.62214v0.60265h-0.17122z" style=""/><path d="m406.73 121.99h0.67216v0.1441h-0.51535v0.31022q0.0373-0.0127 0.0746-0.0186 0.0373-7e-3 0.0746-7e-3 0.2119 0 0.33566 0.11613 0.12375 0.11612 0.12375 0.31446 0 0.20428-0.12714 0.31786-0.12715 0.11273-0.35854 0.11273-0.0797 0-0.16275-0.0136-0.0822-0.0136-0.17037-0.0407v-0.17206q0.0763 0.0415 0.15766 0.0619 0.0814 0.0203 0.17207 0.0203 0.14663 0 0.23224-0.0771 0.0856-0.0771 0.0856-0.20936 0-0.13223-0.0856-0.20936-0.0856-0.0771-0.23224-0.0771-0.0687 0-0.13732 0.0153-0.0678 0.0152-0.13901 0.0475z" style=""/></g><g transform="scale(1.0508 .95167)" aria-label="ETH6"><path d="m431.96 121.55h0.80015v0.1441h-0.62893v0.37464h0.60265v0.1441h-0.60265v0.45855h0.64418v0.1441h-0.8154z" style=""/><path d="m432.88 121.55h1.0705v0.1441h-0.44923v1.1214h-0.17207v-1.1214h-0.44923z" style=""/><path d="m434.12 121.55h0.17121v0.51874h0.62215v-0.51874h0.17122v1.2655h-0.17122v-0.60265h-0.62215v0.60265h-0.17121z" style=""/><path d="m435.83 122.12q-0.11527 0-0.18308 0.0788-0.067 0.0788-0.067 0.21614 0 0.13647 0.067 0.21614 0.0678 0.0788 0.18308 0.0788t0.18224-0.0788q0.0678-0.0797 0.0678-0.21614 0-0.13731-0.0678-0.21614-0.067-0.0788-0.18224-0.0788zm0.3399-0.53654v0.15596q-0.0644-0.0305-0.13054-0.0466-0.0653-0.0161-0.12968-0.0161-0.16952 0-0.25937 0.11443-0.089 0.11443-0.10171 0.34582 0.05-0.0737 0.12544-0.11273 0.0754-0.0398 0.16614-0.0398 0.19071 0 0.3009 0.11613 0.11103 0.11527 0.11103 0.31446 0 0.19495-0.11527 0.31277-0.11528 0.11782-0.30684 0.11782-0.21953 0-0.33565-0.16783-0.11612-0.16867-0.11612-0.48822 0-0.30006 0.1424-0.47806 0.14239-0.17884 0.38227-0.17884 0.0644 0 0.12968 0.0127 0.0661 0.0127 0.13732 0.0381z" style=""/></g><g transform="scale(1.0508 .95167)" aria-label="ETH7"><path d="m440.05 121.55h0.80015v0.1441h-0.62893v0.37464h0.60265v0.1441h-0.60265v0.45855h0.64418v0.1441h-0.8154z" style=""/><path d="m440.97 121.55h1.0705v0.1441h-0.44923v1.1214h-0.17207v-1.1214h-0.44923z" style=""/><path d="m442.21 121.55h0.17121v0.51874h0.62215v-0.51874h0.17122v1.2655h-0.17122v-0.60265h-0.62215v0.60265h-0.17121z" style=""/><path d="m443.49 121.55h0.8137v0.0729l-0.4594 1.1926h-0.17885l0.43228-1.1214h-0.60773z" style=""/></g><g transform="scale(1.0508 .95167)" aria-label="ETH8"><path d="m448.11 121.55h0.80014v0.1441h-0.62893v0.37464h0.60266v0.1441h-0.60266v0.45855h0.64419v0.1441h-0.8154z" style=""/><path d="m449.03 121.55h1.0705v0.1441h-0.44923v1.1214h-0.17207v-1.1214h-0.44923z" style=""/><path d="m450.27 121.55h0.17122v0.51874h0.62215v-0.51874h0.17122v1.2655h-0.17122v-0.60265h-0.62215v0.60265h-0.17122z" style=""/><path d="m451.96 122.22q-0.12206 0-0.19241 0.0653-0.0695 0.0653-0.0695 0.17969 0 0.11443 0.0695 0.17969 0.0704 0.0653 0.19241 0.0653 0.12206 0 0.19241-0.0653 0.0704-0.0661 0.0704-0.17969 0-0.11443-0.0704-0.17969-0.0695-0.0653-0.19241-0.0653zm-0.17122-0.0729q-0.11019-0.0271-0.17206-0.10257-0.061-0.0754-0.061-0.18393 0-0.15172 0.10765-0.23987 0.10849-0.0881 0.29666-0.0881 0.18902 0 0.29667 0.0881 0.10764 0.0881 0.10764 0.23987 0 0.1085-0.0619 0.18393-0.061 0.0754-0.17037 0.10257 0.12375 0.0288 0.1924 0.11273 0.0695 0.0839 0.0695 0.20512 0 0.18393-0.11273 0.28226-0.11189 0.0983-0.32125 0.0983t-0.32209-0.0983q-0.11189-0.0983-0.11189-0.28226 0-0.12121 0.0695-0.20512 0.0695-0.0839 0.19325-0.11273zm-0.0627-0.27039q0 0.0983 0.061 0.15342 0.0619 0.0551 0.17291 0.0551 0.11019 0 0.17207-0.0551 0.0627-0.0551 0.0627-0.15342 0-0.0983-0.0627-0.15342-0.0619-0.0551-0.17207-0.0551-0.11104 0-0.17291 0.0551-0.061 0.0551-0.061 0.15342z" style=""/></g><g transform="scale(1.0508 .95167)" aria-label="ETH9"><path d="m456.18 121.55h0.80014v0.1441h-0.62893v0.37464h0.60266v0.1441h-0.60266v0.45855h0.64419v0.1441h-0.8154z" style=""/><path d="m457.11 121.55h1.0705v0.1441h-0.44924v1.1214h-0.17206v-1.1214h-0.44924z" style=""/><path d="m458.34 121.55h0.17122v0.51874h0.62215v-0.51874h0.17121v1.2655h-0.17121v-0.60265h-0.62215v0.60265h-0.17122z" style=""/><path d="m459.67 122.79v-0.15596q0.0644 0.0305 0.13053 0.0466 0.0661 0.0161 0.12968 0.0161 0.16953 0 0.25853-0.11358 0.0898-0.11442 0.10256-0.34667-0.0492 0.0729-0.1246 0.11189-0.0754 0.039-0.16698 0.039-0.18987 0-0.3009-0.11443-0.11019-0.11528-0.11019-0.31447 0-0.19495 0.11527-0.31276 0.11528-0.11782 0.30684-0.11782 0.21953 0 0.3348 0.16867 0.11613 0.16783 0.11613 0.48823 0 0.2992-0.1424 0.47805-0.14155 0.178-0.38143 0.178-0.0644 0-0.13053-0.0127-0.0661-0.0127-0.13731-0.0381zm0.34074-0.53654q0.11527 0 0.18223-0.0788 0.0678-0.0788 0.0678-0.21615 0-0.13646-0.0678-0.21529-0.067-0.0797-0.18223-0.0797-0.11528 0-0.18309 0.0797-0.067 0.0788-0.067 0.21529 0 0.13732 0.067 0.21615 0.0678 0.0788 0.18309 0.0788z" style=""/></g><g transform="scale(1.0508 .95167)" aria-label="ETH10"><path d="m463.7 121.55h0.80015v0.1441h-0.62893v0.37464h0.60265v0.1441h-0.60265v0.45855h0.64419v0.1441h-0.81541z" style=""/><path d="m464.62 121.55h1.0705v0.1441h-0.44924v1.1214h-0.17206v-1.1214h-0.44924z" style=""/><path d="m465.86 121.55h0.17122v0.51874h0.62214v-0.51874h0.17122v1.2655h-0.17122v-0.60265h-0.62214v0.60265h-0.17122z" style=""/><path d="m467.21 122.68h0.27971v-0.96543l-0.3043 0.061v-0.15596l0.3026-0.061h0.17122v1.1214h0.27971v0.1441h-0.72894z" style=""/><path d="m468.65 121.67q-0.13222 0-0.19919 0.13053-0.0661 0.12968-0.0661 0.39075 0 0.26021 0.0661 0.39075 0.067 0.12968 0.19919 0.12968 0.13308 0 0.19919-0.12968 0.067-0.13054 0.067-0.39075 0-0.26107-0.067-0.39075-0.0661-0.13053-0.19919-0.13053zm0-0.13562q0.21275 0 0.32464 0.16867 0.11273 0.16783 0.11273 0.48823 0 0.31955-0.11273 0.48822-0.11189 0.16783-0.32464 0.16783t-0.32548-0.16783q-0.11188-0.16867-0.11188-0.48822 0-0.3204 0.11188-0.48823 0.11273-0.16867 0.32548-0.16867z" style=""/></g></g><g transform="matrix(1.14 0 0 1.0325 111.08 -36.035)"><circle cx="285" cy="141" r=".6" fill="#0f0"/><circle cx="285" cy="141" r=".6" fill="none" stroke="#008000" stroke-width=".2"/></g><g transform="matrix(1.14 0 0 1.0325 111.08 -36.035)"><circle cx="287.4" cy="141" r=".6" fill="#0f0"/><circle cx="287.4" cy="141" r=".6" fill="none" stroke="#008000" stroke-width=".2"/></g><g transform="matrix(1.14 0 0 1.0325 111.08 -36.035)"><circle cx="289.8" cy="141" r=".6" fill="#0f0"/><circle cx="289.8" cy="141" r=".6" fill="none" stroke="#008000" stroke-width=".2"/></g><g transform="matrix(1.14 0 0 1.0325 111.08 -36.035)"><circle cx="292.2" cy="141" r=".6" fill="#0f0"/><circle cx="292.2" cy="141" r=".6" fill="none" stroke="#008000" stroke-width=".2"/></g><g transform="matrix(1.14 0 0 1.0325 111.08 -36.035)"><circle cx="294.6" cy="141" r=".6" fill="#0f0"/><circle cx="294.6" cy="141" r=".6" fill="none" stroke="#008000" stroke-width=".2"/></g><g transform="matrix(1.14 0 0 1.0325 111.08 -36.035)"><circle cx="285" cy="143.8" r=".6" fill="#0f0"/><circle cx="285" cy="143.8" r=".6" fill="none" stroke="#008000" stroke-width=".2"/></g><g transform="matrix(1.14 0 0 1.0325 111.08 -36.035)"><circle cx="287.4" cy="143.8" r=".6" fill="#0f0"/><circle cx="287.4" cy="143.8" r=".6" fill="none" stroke="#008000" stroke-width=".2"/></g><g transform="matrix(1.14 0 0 1.0325 111.08 -36.035)"><circle cx="289.8" cy="143.8" r=".6" fill="#0f0"/><circle cx="289.8" cy="143.8" r=".6" fill="none" stroke="#008000" stroke-width=".2"/></g><g transform="matrix(1.14 0 0 1.0325 111.08 -36.035)"><circle cx="292.2" cy="143.8" r=".6" fill="#0f0"/><circle cx="292.2" cy="143.8" r=".6" fill="none" stroke="#008000" stroke-width=".2"/></g><g transform="matrix(1.14 0 0 1.0325 111.08 -36.035)"><circle cx="294.6" cy="143.8" r=".6" fill="#0f0"/><circle cx="294.6" cy="143.8" r=".6" fill="none" stroke="#008000" stroke-width=".2"/></g><g transform="matrix(.049509 0 0 .049509 562.45 106.61)" fill="#fff"><g id="Vilnishi" fill="#fff"><g fill="#fff" fill-rule="evenodd"><polygon points="131.19 63.832 131.52 63.832 107.32 152.47 118.35 152.47 143.54 54.501 127.24 54.501 62.697 142.45 44.421 54.501 28.122 54.501 2.602 152.47 13.467 152.47 35.695 62.459 36.024 62.459 54.958 152.47 66.155 152.47"/><path d="m154.11 81.668-18.276 70.798h10.373l18.275-70.798h-10.372z"/><polygon points="204.63 108.97 244.8 81.668 230.97 81.668 181.25 116.24 180.92 115.97 189.78 81.654 179.39 81.654 161.32 152.47 171.7 152.47 178.28 126.81 196.39 114.18 218.95 152.47 230.31 152.47"/><path d="m250.91 81.668-18.275 70.798h10.373l9.549-37.046c3.458-13.309 13.336-25.794 31.941-26.068 1.976 0 3.952 0.137 5.927 0.137l2.305-8.644c-1.812-0.138-3.787-0.138-5.598-0.138-15.147-0.137-24.203 7.135-30.789 17.289h-0.33l4.281-16.328h-9.384z"/><path d="m364.7 107.32c0-17.425-13.83-27.716-33.588-27.716-30.295 0-47.418 22.228-47.418 45.415 0 17.7 12.019 29.5 33.916 29.5 31.45-1e-3 47.09-23.325 47.09-47.199zm-10.373 1.783c0 16.465-12.02 38.144-34.74 38.144-17.288 0-25.52-9.331-25.52-23.051 0-16.601 12.514-37.32 35.234-37.32 16.629 0 25.026 9.056 25.026 22.227z"/><polygon points="431.66 81.654 464.24 81.618 470.98 54.485 369.56 54.485 362.86 81.654 395.39 81.654 395.39 81.662 431.66 81.662"/><polygon points="377.79 152.45 414.01 152.45 428.42 94.654 428.43 94.63 392.16 94.63 392.16 94.634"/><path d="m470.06 94.639-14.315 57.811h32.601l14.315-57.811h-32.601zm35.877-13.021 6.774-27.133h-32.6l-6.821 27.168 32.647-0.035z"/><polygon points="572.14 109.92 610.5 81.24 571.48 81.24 547.44 102.1 547.11 102.1 558.8 54.485 526.2 54.485 501.83 152.45 534.43 152.45 539.54 132.14 546.95 126.66 558.47 152.45 593.87 152.45"/><path d="m152.88 11.694c4.937 34.276 23.337 55.089 60.831 56.809-35.328 13.505-71.747-18.265-60.831-56.809z"/><path d="m168.12 6.84c3.984 27.659 18.832 44.453 49.086 45.841-28.506 10.898-57.894-14.739-49.086-45.841z"/></g></g></g><circle cx="373.87" cy="112.25" r=".65184" fill="#06f" fill-opacity=".96622" fill-rule="evenodd" stroke="#04a" stroke-linejoin="round" stroke-width=".10622"/><circle cx="373.87" cy="109.62" r=".65184" fill="#4d4d4d" fill-opacity=".96622" fill-rule="evenodd" stroke="#090909" stroke-linejoin="round" stroke-width=".053109"/></svg>
