<svg width="80" height="294.33" version="1.1" viewBox="0 0 21.166667 77.874273" xmlns="http://www.w3.org/2000/svg" xmlns:xlink="http://www.w3.org/1999/xlink">
 <defs>
  <linearGradient id="linearGradient2542" x1="15.009" x2="15.009" y1=".42836" y2="77.458" gradientTransform="matrix(1.0354 0 0 1.0094 -.37492 -.36632)" gradientUnits="userSpaceOnUse">
   <stop stop-color="#b6b6b6" offset="0"/>
   <stop stop-color="#e5e5e5" stop-opacity=".98431" offset=".050535"/>
   <stop stop-color="#f7f7f7" offset=".93668"/>
   <stop stop-color="#a9a9a9" offset="1"/>
  </linearGradient>
 </defs>
 <rect x="7.7829e-10" y=".087038" width="21.167" height="77.788" rx="2.0848" ry="6.0623" fill="url(#linearGradient2542)"/>
 <g transform="matrix(.29222 0 0 .28487 -17.672 -13.803)" fill-rule="evenodd">
  <rect x="75.869" y="278.1" width="14.4" height="11.5" fill="#e6e6e6"/>
  <g transform="translate(0,-1.1875)">
   <path d="m88.994 289.08v-6.8288h-2.611v-1.8863h-1.1603v-0.84919h-4.3075v0.84919h-1.1603v1.8863h-2.611v6.8288z" fill="#1a1a1a"/>
   <path d="m76.351 280.39h3.2686c0.0054 0 0.0099 4e-3 0.0099 0.01v1.734c0 6e-3 -0.0044 0.01-0.0099 0.01h-3.2686c-0.0054 0-0.0099-4e-3 -0.0099-0.01v-1.734c0-6e-3 0.0044-0.01 0.0099-0.01z" fill="#aad400" stroke="#222b00" stroke-linecap="round" stroke-width=".049315"/>
   <path d="m86.518 280.39h3.2686c0.0054 0 0.0099 4e-3 0.0099 0.01v1.734c0 6e-3 -0.0044 0.01-0.0099 0.01h-3.2686c-0.0054 0-0.0099-4e-3 -0.0099-0.01v-1.734c0-6e-3 0.0044-0.01 0.0099-0.01z" fill="#aad400" stroke="#222b00" stroke-linecap="round" stroke-width=".049315"/>
  </g>
 </g>
 <g transform="matrix(.29222 0 0 .28487 -9.7102 -13.803)" fill-rule="evenodd">
  <rect x="75.869" y="278.1" width="14.4" height="11.5" fill="#e6e6e6"/>
  <g transform="translate(0,-1.1875)">
   <path d="m88.994 289.08v-6.8288h-2.611v-1.8863h-1.1603v-0.84919h-4.3075v0.84919h-1.1603v1.8863h-2.611v6.8288z" fill="#1a1a1a"/>
   <path d="m76.351 280.39h3.2686c0.0054 0 0.0099 4e-3 0.0099 0.01v1.734c0 6e-3 -0.0044 0.01-0.0099 0.01h-3.2686c-0.0054 0-0.0099-4e-3 -0.0099-0.01v-1.734c0-6e-3 0.0044-0.01 0.0099-0.01z" fill="#aad400" stroke="#222b00" stroke-linecap="round" stroke-width=".049315"/>
   <path d="m86.518 280.39h3.2686c0.0054 0 0.0099 4e-3 0.0099 0.01v1.734c0 6e-3 -0.0044 0.01-0.0099 0.01h-3.2686c-0.0054 0-0.0099-4e-3 -0.0099-0.01v-1.734c0-6e-3 0.0044-0.01 0.0099-0.01z" fill="#aad400" stroke="#222b00" stroke-linecap="round" stroke-width=".049315"/>
  </g>
 </g>
 <rect transform="rotate(-90)" x="-65.845" y="17.916" width=".37222" height=".91206" fill="#1a1a1a" stroke="#000" stroke-width=".10819"/>
 <text transform="scale(1.0128 .98735)" x="13.6242" y="70.582558" fill="#000000" font-family="sans-serif" font-size=".62947px" letter-spacing="0px" stroke-width=".015737" word-spacing="0px" style="line-height:1.25" xml:space="preserve"><tspan x="13.6242" y="70.582558" stroke-width=".015737">Main</tspan></text>
 <text transform="scale(1.0128 .98735)" x="4.8399982" y="70.582558" fill="#000000" font-family="sans-serif" font-size=".62947px" letter-spacing="0px" stroke-width=".015737" word-spacing="0px" style="line-height:1.25" xml:space="preserve"><tspan x="4.8399982" y="70.582558" stroke-width=".015737">Secondary</tspan></text>
 <path d="m0.38866 65.187h20.273" fill="none" stroke="#b3b3b3" stroke-width=".21639"/>
 <g transform="matrix(1.0354 0 0 1.0094 27.744 2.6972)" fill="#4a4a4a" stroke-width=".0053561">
  <path d="m-14.254 24.837 0.11807-0.38556v-2.6404c-1.3815 0-1.5254 0.52816-1.5254 1.0354v2.8988c-4.37e-4 0.16491-0.01693 0.32572-0.04804 0.48125 0.73515-0.14928 1.2129-0.60205 1.4559-1.3909z"/>
  <path d="m-18.096 22.113h0.30518v0.30155h-0.30518z"/>
  <path d="m-17.791 22.568h0.30518v0.302h-0.30518z"/>
  <path d="m-18.094 22.948h0.30155v0.30155h-0.30155z"/>
  <path d="m-18.399 23.4h0.30155v0.30155h-0.30155z"/>
  <path d="m-19.011 21.808h0.30518v0.30473h-0.30518z"/>
  <path d="m-18.4 24.003h0.30473v0.67212h0.30518v-1.124h0.30518v2.1944c0 1.0445 0.91191 1.5441 0.91191 1.5441-1.5327 0.0032-2.4374-0.92554-2.4374-2.1617v-2.4855h0.30473v1.6621h0.30518z"/>
  <path d="m-16.359 26.376c-0.40872-0.01817-0.71981-0.12171-0.96232-0.27248 0.1644 0.71254 0.77839 1.0627 0.80791 1.0795l0.18166 0.09991c1.3856-0.09083 2.1962-0.98684 2.1962-2.1562v-0.25204c-0.32925 1.0745-1.0958 1.5522-2.2253 1.5014z"/>
  <path d="m-18.399 22.417h0.30155v0.30155h-0.30155z"/>
 </g>
 <rect x=".3766" y=".17568" width="20.413" height="77.597" rx="2.0106" ry="6.0475" fill="none" stroke="#666" stroke-width=".11325"/>
</svg>
