<svg width="450" height="177" version="1.1" viewBox="70.4 401.07 450 177" xmlns="http://www.w3.org/2000/svg"><g><rect x="72.4" y="401.07" width="446" height="177" rx="1.9822" ry="2" fill="#333"/><rect x="70.4" y="401.08" width="450" height="16.6" rx="1" ry="1" fill="#1a1a1a"/><rect x="172.69" y="449.57" width="330" height="120" rx="2" ry="2" fill="#f9f9f9" stroke="#000" stroke-linecap="round" stroke-linejoin="round"/></g><g fill="none" stroke="#000" stroke-linecap="round" stroke-width="2.4"><path d="m275.5 437.95v-17.997"/><path d="m282.92 437.95v-17.997"/><path d="m290.35 437.95v-17.997"/><path d="m297.78 437.95v-17.997"/><path d="m305.2 437.95v-17.997"/><path d="m312.63 437.95v-17.997"/><path d="m320.05 437.95v-17.997"/><path d="m327.48 437.95v-17.997"/><path d="m334.91 437.95v-17.997"/><path d="m342.33 437.95v-17.997"/><path d="m349.76 437.95v-17.997"/><path d="m357.19 437.95v-17.997"/><path d="m364.61 437.95v-17.997"/><path d="m372.04 437.95v-17.997"/><path d="m379.47 437.95v-17.997"/><path d="m386.89 437.95v-17.997"/><path d="m394.32 437.95v-17.997"/><path d="m401.75 437.95v-17.997"/><path d="m409.17 437.95v-17.997"/><path d="m416.6 437.95v-17.997"/><path d="m424.03 437.95v-17.997"/><path d="m431.45 437.95v-17.997"/><path d="m438.88 437.95v-17.997"/><path d="m446.31 437.95v-17.997"/><path d="m453.73 437.95v-17.997"/><path d="m461.16 437.95v-17.997"/><path d="m468.59 437.95v-17.997"/><path d="m476.01 437.95v-17.997"/><path d="m483.44 437.95v-17.997"/><path d="m490.87 437.95v-17.997"/><path d="m498.29 437.95v-17.997"/><path d="m505.72 437.95v-17.997"/></g><rect x="482.66" y="452.24" width="12.486" height="106.13" fill="#ccc" stroke="#666" stroke-linecap="round" stroke-linejoin="round" stroke-width=".5"/><g transform="rotate(-90 597.19 594.15)"><g transform="matrix(1.0667 0 0 1.0667 460.71 203.95)" stroke="#333" stroke-width=".067244"><g transform="translate(-21.189 -6.7388)"><path d="m189.01 272.01v-2.0135l-1.7484-1.0068-1.7484 1.0738v2.0135l1.7484 1.0077z" fill="#808080"/><path d="m188.61 271.03c0 0.75957-0.60197 1.3766-1.3446 1.3766-0.74258 0-1.3446-0.61707-1.3446-1.3766 0-0.75955 0.60197-1.3757 1.3446-1.3757 0.74259 0 1.3446 0.61613 1.3446 1.3757z" fill="#f2f2f2"/><path d="m187.73 271.03c0 0.2406-0.21132 0.43687-0.47081 0.43687-0.25948 0-0.47084-0.19627-0.47084-0.43687s0.21136-0.43591 0.47084-0.43591c0.25949 0 0.47081 0.19531 0.47081 0.43591z" fill="#a4a4a4"/></g><g transform="translate(-.18874 -6.7388)"><path d="m189.01 272.01v-2.0135l-1.7484-1.0068-1.7484 1.0738v2.0135l1.7484 1.0077z" fill="#999"/><path d="m188.61 271.03c0 0.75957-0.60197 1.3766-1.3446 1.3766-0.74258 0-1.3446-0.61707-1.3446-1.3766 0-0.75955 0.60197-1.3757 1.3446-1.3757 0.74259 0 1.3446 0.61613 1.3446 1.3757z" fill="#f2f2f2"/><path d="m187.73 271.03c0 0.2406-0.21132 0.43687-0.47081 0.43687-0.25948 0-0.47084-0.19627-0.47084-0.43687s0.21136-0.43591 0.47084-0.43591c0.25949 0 0.47081 0.19531 0.47081 0.43591z" fill="#a4a4a4"/></g></g><path d="m642.92 482.08h12.276c1.0109 0 2.0661 0.84309 1.8248 1.8248l-1.0981 4.4661c-0.24137 0.98168-0.81383 1.2757-1.8248 1.2757h-10.08c-1.0109 0-1.5834-0.29404-1.8247-1.2757l-1.0981-4.4661c-0.24137-0.98168 0.81384-1.8248 1.8248-1.8248z" fill="#ececec" fill-rule="evenodd" stroke="#000" stroke-linecap="round" stroke-width=".227"/><path d="m643.11 482.27h11.888c0.97895 0 2.0008 0.80236 1.767 1.7366l-1.0634 4.2503c-0.23375 0.93425-0.78809 1.2141-1.767 1.2141h-9.7611c-0.97894 0-1.5333-0.27983-1.767-1.2141l-1.0634-4.2503c-0.23372-0.93425 0.78811-1.7366 1.7671-1.7366z" fill="#003380" fill-rule="evenodd" stroke="#000" stroke-linecap="round" stroke-width=".026354"/><g transform="matrix(1.0667 0 0 1.0667 461.48 204.17)" stroke="#000" stroke-width=".067244"><path d="m182.01 262.62c0 0.27834-0.2255 0.50385-0.50383 0.50385-0.27837 0-0.50481-0.22551-0.50481-0.50385 0-0.27739 0.22644-0.50384 0.50481-0.50384 0.27833 0 0.50383 0.22645 0.50383 0.50384z"/><path d="m170.78 262.62c0 0.27834-0.24155 0.50385-0.53781 0.50385-0.29722 0-0.53782-0.22551-0.53782-0.50385 0-0.27739 0.2406-0.50384 0.53782-0.50384 0.29626 0 0.53781 0.22645 0.53781 0.50384z"/><path d="m173.62 262.62c0 0.27834-0.2406 0.50385-0.53784 0.50385-0.29719 0-0.53779-0.22551-0.53779-0.50385 0-0.27739 0.2406-0.50384 0.53779-0.50384 0.29724 0 0.53784 0.22645 0.53784 0.50384z"/><path d="m176.46 262.62c0 0.27834-0.2406 0.50385-0.53782 0.50385-0.2972 0-0.53782-0.22551-0.53782-0.50385 0-0.27739 0.24062-0.50384 0.53782-0.50384 0.29722 0 0.53782 0.22645 0.53782 0.50384z"/><path d="m179.24 262.62c0 0.27834-0.2255 0.50385-0.50385 0.50385s-0.50479-0.22551-0.50479-0.50385c0-0.27739 0.22644-0.50384 0.50479-0.50384s0.50385 0.22645 0.50385 0.50384z"/><path d="m172.17 265.57c0 0.27834-0.22552 0.50385-0.50385 0.50385-0.27835 0-0.50481-0.22551-0.50481-0.50385 0-0.27741 0.22646-0.5029 0.50481-0.5029 0.27833 0 0.50385 0.22549 0.50385 0.5029z"/><path d="m175.01 265.57c0 0.27834-0.22551 0.50385-0.50386 0.50385-0.27834 0-0.5048-0.22551-0.5048-0.50385 0-0.27741 0.22646-0.5029 0.5048-0.5029 0.27835 0 0.50386 0.22549 0.50386 0.5029z"/><path d="m177.85 265.57c0 0.27834-0.22644 0.50385-0.50479 0.50385s-0.50385-0.22551-0.50385-0.50385c0-0.27741 0.2255-0.5029 0.50385-0.5029s0.50479 0.22549 0.50479 0.5029z"/><path d="m180.62 265.57c0 0.27834-0.22646 0.50385-0.50481 0.50385-0.27833 0-0.50385-0.22551-0.50385-0.50385 0-0.27741 0.22552-0.5029 0.50385-0.5029 0.27835 0 0.50481 0.22549 0.50481 0.5029z"/></g></g><g transform="matrix(0 1.0667 -1.0667 0 791.02 430.73)"><g transform="translate(0,-1.1875)" fill-rule="evenodd"><path d="m88.994 289.08v-6.8288h-2.611v-1.8863h-1.1603v-0.84919h-4.3075v0.84919h-1.1603v1.8863h-2.611v6.8288z" fill="#1a1a1a"/><path d="m79.63 280.4v1.744h-2.4644v-1.744z" fill="#aad400" stroke="#222b00" stroke-linecap="round" stroke-width=".049315"/><path d="m86.518 280.39h2.4759v1.754h-2.4759z" fill="#aad400" stroke="#222b00" stroke-linecap="round" stroke-width=".049315"/></g></g><g transform="matrix(0 1.0667 -1.0667 0 791.02 413.85)"><g transform="translate(0,-1.1875)" fill-rule="evenodd"><path d="m88.994 289.08v-6.8288h-2.611v-1.8863h-1.1603v-0.84919h-4.3075v0.84919h-1.1603v1.8863h-2.611v6.8288z" fill="#1a1a1a"/><path d="m77.144 280.39h2.4759v1.754h-2.4759z" fill="#aad400" stroke="#222b00" stroke-linecap="round" stroke-width=".049315"/><path d="m86.518 280.39h2.4759v1.754h-2.4759z" fill="#aad400" stroke="#222b00" stroke-linecap="round" stroke-width=".049315"/></g></g><g transform="matrix(1.8829 0 0 1.8829 210.66 -243.08)"><path d="m144.46 390.56h6.6154v-2.6355h-6.6154z"/><path d="m144.92 388.34h5.7169v0.9015h-5.7169z" fill="#ececec" fill-rule="evenodd"/><path d="m145.15 389.01h5.2575v-0.43973h-5.2575z" fill="#fff"/></g><g transform="matrix(1.8829 0 0 1.8829 210.66 -249.68)"><path d="m144.46 390.56h6.6154v-2.6355h-6.6154z"/><path d="m144.92 388.34h5.7169v0.9015h-5.7169z" fill="#ececec" fill-rule="evenodd"/><path d="m145.15 389.01h5.2575v-0.43973h-5.2575z" fill="#fff"/></g><g transform="translate(15.294 -5.3125e-6)" stroke-linejoin="round"><rect x="445.78" y="452.24" width="12.486" height="106.13" fill="#ccc" stroke="#666" stroke-linecap="round" stroke-width=".5"/><g transform="translate(25.319)"><g stroke="#000"><ellipse cx="426.71" cy="543.37" rx="4.829" ry="4.8989" fill="#f2f2f2" stroke-width=".502"/><ellipse cx="426.71" cy="543.37" rx="3.2448" ry="3.2916" fill="#808080" stroke-width=".10155"/><ellipse cx="426.71" cy="543.37" rx="2.9813" ry="3.0245" fill="#fff" stroke-width=".10155"/></g><ellipse cx="426.71" cy="543.37" rx=".42272" ry=".42884" stroke="#ccc" stroke-width=".10155"/></g><g transform="translate(25.319 -22.711)"><g stroke="#000"><ellipse cx="426.71" cy="543.37" rx="4.829" ry="4.8989" fill="#f2f2f2" stroke-width=".502"/><ellipse cx="426.71" cy="543.37" rx="3.2448" ry="3.2916" fill="#808080" stroke-width=".10155"/><ellipse cx="426.71" cy="543.37" rx="2.9813" ry="3.0245" fill="#fff" stroke-width=".10155"/></g><ellipse cx="426.71" cy="543.37" rx=".42272" ry=".42884" stroke="#ccc" stroke-width=".10155"/></g></g><g transform="translate(-5.841)" stroke-linejoin="round"><rect x="445.78" y="452.24" width="12.486" height="106.13" fill="#ccc" stroke="#666" stroke-linecap="round" stroke-width=".5"/><g transform="translate(25.319)"><g stroke="#000"><ellipse cx="426.71" cy="543.37" rx="4.829" ry="4.8989" fill="#f2f2f2" stroke-width=".502"/><ellipse cx="426.71" cy="543.37" rx="3.2448" ry="3.2916" fill="#808080" stroke-width=".10155"/><ellipse cx="426.71" cy="543.37" rx="2.9813" ry="3.0245" fill="#fff" stroke-width=".10155"/></g><ellipse cx="426.71" cy="543.37" rx=".42272" ry=".42884" stroke="#ccc" stroke-width=".10155"/></g><g transform="translate(25.319 -22.711)"><g stroke="#000"><ellipse cx="426.71" cy="543.37" rx="4.829" ry="4.8989" fill="#f2f2f2" stroke-width=".502"/><ellipse cx="426.71" cy="543.37" rx="3.2448" ry="3.2916" fill="#808080" stroke-width=".10155"/><ellipse cx="426.71" cy="543.37" rx="2.9813" ry="3.0245" fill="#fff" stroke-width=".10155"/></g><ellipse cx="426.71" cy="543.37" rx=".42272" ry=".42884" stroke="#ccc" stroke-width=".10155"/></g></g><g transform="translate(-26.976)" stroke-linejoin="round"><rect x="445.78" y="452.24" width="12.486" height="106.13" fill="#ccc" stroke="#666" stroke-linecap="round" stroke-width=".5"/><g transform="translate(25.319)"><g stroke="#000"><ellipse cx="426.71" cy="543.37" rx="4.829" ry="4.8989" fill="#f2f2f2" stroke-width=".502"/><ellipse cx="426.71" cy="543.37" rx="3.2448" ry="3.2916" fill="#808080" stroke-width=".10155"/><ellipse cx="426.71" cy="543.37" rx="2.9813" ry="3.0245" fill="#fff" stroke-width=".10155"/></g><ellipse cx="426.71" cy="543.37" rx=".42272" ry=".42884" stroke="#ccc" stroke-width=".10155"/></g><g transform="translate(25.319 -22.711)"><g stroke="#000"><ellipse cx="426.71" cy="543.37" rx="4.829" ry="4.8989" fill="#f2f2f2" stroke-width=".502"/><ellipse cx="426.71" cy="543.37" rx="3.2448" ry="3.2916" fill="#808080" stroke-width=".10155"/><ellipse cx="426.71" cy="543.37" rx="2.9813" ry="3.0245" fill="#fff" stroke-width=".10155"/></g><ellipse cx="426.71" cy="543.37" rx=".42272" ry=".42884" stroke="#ccc" stroke-width=".10155"/></g></g><g transform="translate(-48.112)" stroke-linejoin="round"><rect x="445.78" y="452.24" width="12.486" height="106.13" fill="#ccc" stroke="#666" stroke-linecap="round" stroke-width=".5"/><g transform="translate(25.319)"><g stroke="#000"><ellipse cx="426.71" cy="543.37" rx="4.829" ry="4.8989" fill="#f2f2f2" stroke-width=".502"/><ellipse cx="426.71" cy="543.37" rx="3.2448" ry="3.2916" fill="#808080" stroke-width=".10155"/><ellipse cx="426.71" cy="543.37" rx="2.9813" ry="3.0245" fill="#fff" stroke-width=".10155"/></g><ellipse cx="426.71" cy="543.37" rx=".42272" ry=".42884" stroke="#ccc" stroke-width=".10155"/></g><g transform="translate(25.319 -22.711)"><g stroke="#000"><ellipse cx="426.71" cy="543.37" rx="4.829" ry="4.8989" fill="#f2f2f2" stroke-width=".502"/><ellipse cx="426.71" cy="543.37" rx="3.2448" ry="3.2916" fill="#808080" stroke-width=".10155"/><ellipse cx="426.71" cy="543.37" rx="2.9813" ry="3.0245" fill="#fff" stroke-width=".10155"/></g><ellipse cx="426.71" cy="543.37" rx=".42272" ry=".42884" stroke="#ccc" stroke-width=".10155"/></g></g><g transform="translate(-69.247)" stroke-linejoin="round"><rect x="445.78" y="452.24" width="12.486" height="106.13" fill="#ccc" stroke="#666" stroke-linecap="round" stroke-width=".5"/><g transform="translate(25.319)"><g stroke="#000"><ellipse cx="426.71" cy="543.37" rx="4.829" ry="4.8989" fill="#f2f2f2" stroke-width=".502"/><ellipse cx="426.71" cy="543.37" rx="3.2448" ry="3.2916" fill="#808080" stroke-width=".10155"/><ellipse cx="426.71" cy="543.37" rx="2.9813" ry="3.0245" fill="#fff" stroke-width=".10155"/></g><ellipse cx="426.71" cy="543.37" rx=".42272" ry=".42884" stroke="#ccc" stroke-width=".10155"/></g><g transform="translate(25.319 -22.711)"><g stroke="#000"><ellipse cx="426.71" cy="543.37" rx="4.829" ry="4.8989" fill="#f2f2f2" stroke-width=".502"/><ellipse cx="426.71" cy="543.37" rx="3.2448" ry="3.2916" fill="#808080" stroke-width=".10155"/><ellipse cx="426.71" cy="543.37" rx="2.9813" ry="3.0245" fill="#fff" stroke-width=".10155"/></g><ellipse cx="426.71" cy="543.37" rx=".42272" ry=".42884" stroke="#ccc" stroke-width=".10155"/></g></g><rect x="249.72" y="452.24" width="12.486" height="106.13" fill="#ccc" stroke="#666" stroke-linecap="round" stroke-linejoin="round" stroke-width=".5"/><g transform="translate(-153.79 4.6875e-6)" stroke-linejoin="round"><rect x="445.78" y="452.24" width="12.486" height="106.13" fill="#ccc" stroke="#666" stroke-linecap="round" stroke-width=".5"/><g transform="translate(25.319)"><g stroke="#000"><ellipse cx="426.71" cy="543.37" rx="4.829" ry="4.8989" fill="#f2f2f2" stroke-width=".502"/><ellipse cx="426.71" cy="543.37" rx="3.2448" ry="3.2916" fill="#808080" stroke-width=".10155"/><ellipse cx="426.71" cy="543.37" rx="2.9813" ry="3.0245" fill="#fff" stroke-width=".10155"/></g><ellipse cx="426.71" cy="543.37" rx=".42272" ry=".42884" stroke="#ccc" stroke-width=".10155"/></g><g transform="translate(25.319 -22.711)"><g stroke="#000"><ellipse cx="426.71" cy="543.37" rx="4.829" ry="4.8989" fill="#f2f2f2" stroke-width=".502"/><ellipse cx="426.71" cy="543.37" rx="3.2448" ry="3.2916" fill="#808080" stroke-width=".10155"/><ellipse cx="426.71" cy="543.37" rx="2.9813" ry="3.0245" fill="#fff" stroke-width=".10155"/></g><ellipse cx="426.71" cy="543.37" rx=".42272" ry=".42884" stroke="#ccc" stroke-width=".10155"/></g></g><g transform="translate(-174.92 4.6875e-6)" stroke-linejoin="round"><rect x="445.78" y="452.24" width="12.486" height="106.13" fill="#ccc" stroke="#666" stroke-linecap="round" stroke-width=".5"/><g transform="translate(25.319)"><g stroke="#000"><ellipse cx="426.71" cy="543.37" rx="4.829" ry="4.8989" fill="#f2f2f2" stroke-width=".502"/><ellipse cx="426.71" cy="543.37" rx="3.2448" ry="3.2916" fill="#808080" stroke-width=".10155"/><ellipse cx="426.71" cy="543.37" rx="2.9813" ry="3.0245" fill="#fff" stroke-width=".10155"/></g><ellipse cx="426.71" cy="543.37" rx=".42272" ry=".42884" stroke="#ccc" stroke-width=".10155"/></g><g transform="translate(25.319 -22.711)"><g stroke="#000"><ellipse cx="426.71" cy="543.37" rx="4.829" ry="4.8989" fill="#f2f2f2" stroke-width=".502"/><ellipse cx="426.71" cy="543.37" rx="3.2448" ry="3.2916" fill="#808080" stroke-width=".10155"/><ellipse cx="426.71" cy="543.37" rx="2.9813" ry="3.0245" fill="#fff" stroke-width=".10155"/></g><ellipse cx="426.71" cy="543.37" rx=".42272" ry=".42884" stroke="#ccc" stroke-width=".10155"/></g></g><rect x="207.45" y="452.24" width="12.486" height="106.13" fill="#ccc" stroke="#666" stroke-linecap="round" stroke-linejoin="round" stroke-width=".5"/><rect x="228.59" y="452.24" width="12.486" height="106.13" fill="#ccc" stroke="#666" stroke-linecap="round" stroke-linejoin="round" stroke-width=".5"/><g transform="translate(-90.382 -5.3125e-6)" stroke-linejoin="round"><rect x="445.78" y="452.24" width="12.486" height="106.13" fill="#ccc" stroke="#666" stroke-linecap="round" stroke-width=".5"/><g transform="translate(25.319)"><g stroke="#000"><ellipse cx="426.71" cy="543.37" rx="4.829" ry="4.8989" fill="#f2f2f2" stroke-width=".502"/><ellipse cx="426.71" cy="543.37" rx="3.2448" ry="3.2916" fill="#808080" stroke-width=".10155"/><ellipse cx="426.71" cy="543.37" rx="2.9813" ry="3.0245" fill="#fff" stroke-width=".10155"/></g><ellipse cx="426.71" cy="543.37" rx=".42272" ry=".42884" stroke="#ccc" stroke-width=".10155"/></g><g transform="translate(25.319 -22.711)"><g stroke="#000"><ellipse cx="426.71" cy="543.37" rx="4.829" ry="4.8989" fill="#f2f2f2" stroke-width=".502"/><ellipse cx="426.71" cy="543.37" rx="3.2448" ry="3.2916" fill="#808080" stroke-width=".10155"/><ellipse cx="426.71" cy="543.37" rx="2.9813" ry="3.0245" fill="#fff" stroke-width=".10155"/></g><ellipse cx="426.71" cy="543.37" rx=".42272" ry=".42884" stroke="#ccc" stroke-width=".10155"/></g></g><g transform="translate(-111.52 -5.3125e-6)" stroke-linejoin="round"><rect x="445.78" y="452.24" width="12.486" height="106.13" fill="#ccc" stroke="#666" stroke-linecap="round" stroke-width=".5"/><g transform="translate(25.319)"><g stroke="#000"><ellipse cx="426.71" cy="543.37" rx="4.829" ry="4.8989" fill="#f2f2f2" stroke-width=".502"/><ellipse cx="426.71" cy="543.37" rx="3.2448" ry="3.2916" fill="#808080" stroke-width=".10155"/><ellipse cx="426.71" cy="543.37" rx="2.9813" ry="3.0245" fill="#fff" stroke-width=".10155"/></g><ellipse cx="426.71" cy="543.37" rx=".42272" ry=".42884" stroke="#ccc" stroke-width=".10155"/></g><g transform="translate(25.319 -22.711)"><g stroke="#000"><ellipse cx="426.71" cy="543.37" rx="4.829" ry="4.8989" fill="#f2f2f2" stroke-width=".502"/><ellipse cx="426.71" cy="543.37" rx="3.2448" ry="3.2916" fill="#808080" stroke-width=".10155"/><ellipse cx="426.71" cy="543.37" rx="2.9813" ry="3.0245" fill="#fff" stroke-width=".10155"/></g><ellipse cx="426.71" cy="543.37" rx=".42272" ry=".42884" stroke="#ccc" stroke-width=".10155"/></g></g><g transform="translate(-132.65 -5.3125e-6)" stroke-linejoin="round"><rect x="445.78" y="452.24" width="12.486" height="106.13" fill="#ccc" stroke="#666" stroke-linecap="round" stroke-width=".5"/><g transform="translate(25.319)"><g stroke="#000"><ellipse cx="426.71" cy="543.37" rx="4.829" ry="4.8989" fill="#f2f2f2" stroke-width=".502"/><ellipse cx="426.71" cy="543.37" rx="3.2448" ry="3.2916" fill="#808080" stroke-width=".10155"/><ellipse cx="426.71" cy="543.37" rx="2.9813" ry="3.0245" fill="#fff" stroke-width=".10155"/></g><ellipse cx="426.71" cy="543.37" rx=".42272" ry=".42884" stroke="#ccc" stroke-width=".10155"/></g><g transform="translate(25.319 -22.711)"><g stroke="#000"><ellipse cx="426.71" cy="543.37" rx="4.829" ry="4.8989" fill="#f2f2f2" stroke-width=".502"/><ellipse cx="426.71" cy="543.37" rx="3.2448" ry="3.2916" fill="#808080" stroke-width=".10155"/><ellipse cx="426.71" cy="543.37" rx="2.9813" ry="3.0245" fill="#fff" stroke-width=".10155"/></g><ellipse cx="426.71" cy="543.37" rx=".42272" ry=".42884" stroke="#ccc" stroke-width=".10155"/></g></g><g transform="matrix(1.9121 0 0 1.9121 -52.631 -146.1)" fill="#333" stroke-width=".035713"></g><g transform="matrix(1.5177 0 0 1.5177 411.82 -54.681)" stroke-width=".1"></g><g transform="translate(-77.678 106.47)"><rect x="153.9" y="309.1" width="89.002" height="159" rx="1.9929" ry="2.0006" fill="#e6e6e6" stroke="#000" stroke-linecap="round" stroke-linejoin="round" stroke-width=".99838"/><g transform="translate(-577.76 -213.89)"><rect x="731.33" y="540.37" width="44.34" height="117.24" rx=".99285" ry="1.7533" fill="#fffdf9" stroke="#000" stroke-linecap="round" stroke-linejoin="round" stroke-width=".65968"/><g transform="translate(268.21 -63.649)"><rect x="477.5" y="606.43" width="26.94" height="19.678" rx="2" ry="2" fill="#333" stroke="#000" stroke-linecap="round" stroke-linejoin="round"/><g transform="matrix(1.9121 0 0 1.9121 -49.507 -158.71)"><path d="m288.69 409.46v-5.2498l-3.0658-3.0713h-5.7402l-3.2442 3.2498v5.0712h12.05z" stroke="#090909" stroke-width=".035713"/><g fill="#ccc"><path d="m283.24 402.28h-1.0694v2.5356h1.0694z"/><path d="m279.39 405.78h-1.0694v2.5356h1.0694z"/><path d="m287.02 405.78h-1.0694v2.5356h1.0694z"/></g></g></g><path d="m743.46 548.43c0 3.1476-2.4666 5.703-5.5032 5.703s-5.5012-2.5556-5.5012-5.703c0-3.1495 2.4644-5.705 5.5012-5.705 3.0366 0 5.5032 2.5556 5.5032 5.705z" fill="#666" stroke="#000" stroke-width=".14108"/><path d="m742.05 548.43c0 2.3319-1.8331 4.2263-4.0917 4.2263s-4.0897-1.8944-4.0897-4.2263 1.8311-4.2244 4.0897-4.2244 4.0917 1.8924 4.0917 4.2244z" fill="#fff" stroke="#000" stroke-width=".14108"/><circle cx="737.93" cy="548.37" r="4.3125" fill="#4d4d4d" stroke="#ccc" stroke-linecap="round" stroke-linejoin="round" stroke-width=".1"/><g transform="translate(269.84 -64.683)" fill="#f9f9f9" stroke="#ccc" stroke-linecap="round" stroke-linejoin="round" stroke-width=".1"><path transform="translate(70.4 401.07)" d="m401.93 212.74h-8.4863c0.36791 2.0556 2.1558 3.5523 4.2441 3.5527 2.0876-1e-3 3.8744-1.4978 4.2422-3.5527z"/><path transform="translate(70.4 401.07)" d="m397.69 207.67c-2.0876 1e-3 -3.8744 1.4978-4.2422 3.5527h8.4863c-0.36791-2.0556-2.1558-3.5523-4.2441-3.5527z"/></g><g transform="translate(.093028)"><circle cx="754.15" cy="588.32" r="17.75" stroke="#ccc" stroke-linecap="round" stroke-linejoin="round" stroke-width=".5"/><path d="m754.8 568.18-8.8301 15.318c-0.83586 1.4144-1.3242 3.0584-1.3242 4.8203 0 1.4142 0.31687 2.751 0.87109 3.957l-9.9688-2.6719-0.89257 3.3301 17.082 4.5645c0.77057 0.20177 1.5744 0.32031 2.4082 0.32031 2.3004 0 4.409-0.81918 6.0527-2.1797v10.361h3.4473v-17.682c0-5.2467-4.2533-9.5-9.5-9.5-0.54308 0-1.0717 0.055-1.5898 0.14258l5.2305-9.0566z" fill="#fffdf9"/><circle cx="754.15" cy="588.32" r="4.75" stroke="#ccc" stroke-linecap="round" stroke-linejoin="round" stroke-width=".5"/></g><g transform="translate(.093028 42.819)"><circle cx="754.15" cy="588.32" r="17.75" stroke="#ccc" stroke-linecap="round" stroke-linejoin="round" stroke-width=".5"/><path d="m754.8 568.18-8.8301 15.318c-0.83586 1.4144-1.3242 3.0584-1.3242 4.8203 0 1.4142 0.31687 2.751 0.87109 3.957l-9.9688-2.6719-0.89257 3.3301 17.082 4.5645c0.77057 0.20177 1.5744 0.32031 2.4082 0.32031 2.3004 0 4.409-0.81918 6.0527-2.1797v10.361h3.4473v-17.682c0-5.2467-4.2533-9.5-9.5-9.5-0.54308 0-1.0717 0.055-1.5898 0.14258l5.2305-9.0566z" fill="#fffdf9"/><circle cx="754.15" cy="588.32" r="4.75" stroke="#ccc" stroke-linecap="round" stroke-linejoin="round" stroke-width=".5"/></g><path d="m734.73 604.76h27.3c5.54 0 10 4.46 10 10v27.023c0 5.54-4.46 10-10 10h-27.3" fill="none" stroke="#999" stroke-linejoin="round" stroke-width="7"/></g><g transform="translate(-533.42 -213.89)"><rect x="731.33" y="540.37" width="44.34" height="117.24" rx=".99285" ry="1.7533" fill="#fffdf9" stroke="#000" stroke-linecap="round" stroke-linejoin="round" stroke-width=".65968"/><g transform="translate(268.21 -63.649)"><rect x="477.5" y="606.43" width="26.94" height="19.678" rx="2" ry="2" fill="#333" stroke="#000" stroke-linecap="round" stroke-linejoin="round"/><g transform="matrix(1.9121 0 0 1.9121 -49.507 -158.71)"><path d="m288.69 409.46v-5.2498l-3.0658-3.0713h-5.7402l-3.2442 3.2498v5.0712h12.05z" stroke="#090909" stroke-width=".035713"/><g fill="#ccc"><path d="m283.24 402.28h-1.0694v2.5356h1.0694z"/><path d="m279.39 405.78h-1.0694v2.5356h1.0694z"/><path d="m287.02 405.78h-1.0694v2.5356h1.0694z"/></g></g></g><path d="m743.46 548.43c0 3.1476-2.4666 5.703-5.5032 5.703s-5.5012-2.5556-5.5012-5.703c0-3.1495 2.4644-5.705 5.5012-5.705 3.0366 0 5.5032 2.5556 5.5032 5.705z" fill="#666" stroke="#000" stroke-width=".14108"/><path d="m742.05 548.43c0 2.3319-1.8331 4.2263-4.0917 4.2263s-4.0897-1.8944-4.0897-4.2263 1.8311-4.2244 4.0897-4.2244 4.0917 1.8924 4.0917 4.2244z" fill="#fff" stroke="#000" stroke-width=".14108"/><circle cx="737.93" cy="548.37" r="4.3125" fill="#4d4d4d" stroke="#ccc" stroke-linecap="round" stroke-linejoin="round" stroke-width=".1"/><g transform="translate(269.84 -64.683)" fill="#f9f9f9" stroke="#ccc" stroke-linecap="round" stroke-linejoin="round" stroke-width=".1"><path transform="translate(70.4 401.07)" d="m401.93 212.74h-8.4863c0.36791 2.0556 2.1558 3.5523 4.2441 3.5527 2.0876-1e-3 3.8744-1.4978 4.2422-3.5527z"/><path transform="translate(70.4 401.07)" d="m397.69 207.67c-2.0876 1e-3 -3.8744 1.4978-4.2422 3.5527h8.4863c-0.36791-2.0556-2.1558-3.5523-4.2441-3.5527z"/></g><g transform="translate(.093028)"><circle cx="754.15" cy="588.32" r="17.75" stroke="#ccc" stroke-linecap="round" stroke-linejoin="round" stroke-width=".5"/><path d="m754.8 568.18-8.8301 15.318c-0.83586 1.4144-1.3242 3.0584-1.3242 4.8203 0 1.4142 0.31687 2.751 0.87109 3.957l-9.9688-2.6719-0.89257 3.3301 17.082 4.5645c0.77057 0.20177 1.5744 0.32031 2.4082 0.32031 2.3004 0 4.409-0.81918 6.0527-2.1797v10.361h3.4473v-17.682c0-5.2467-4.2533-9.5-9.5-9.5-0.54308 0-1.0717 0.055-1.5898 0.14258l5.2305-9.0566z" fill="#fffdf9"/><circle cx="754.15" cy="588.32" r="4.75" stroke="#ccc" stroke-linecap="round" stroke-linejoin="round" stroke-width=".5"/></g><g transform="translate(.093028 42.819)"><circle cx="754.15" cy="588.32" r="17.75" stroke="#ccc" stroke-linecap="round" stroke-linejoin="round" stroke-width=".5"/><path d="m754.8 568.18-8.8301 15.318c-0.83586 1.4144-1.3242 3.0584-1.3242 4.8203 0 1.4142 0.31687 2.751 0.87109 3.957l-9.9688-2.6719-0.89257 3.3301 17.082 4.5645c0.77057 0.20177 1.5744 0.32031 2.4082 0.32031 2.3004 0 4.409-0.81918 6.0527-2.1797v10.361h3.4473v-17.682c0-5.2467-4.2533-9.5-9.5-9.5-0.54308 0-1.0717 0.055-1.5898 0.14258l5.2305-9.0566z" fill="#fffdf9"/><circle cx="754.15" cy="588.32" r="4.75" stroke="#ccc" stroke-linecap="round" stroke-linejoin="round" stroke-width=".5"/></g><path d="m734.73 604.76h27.3c5.54 0 10 4.46 10 10v27.023c0 5.54-4.46 10-10 10h-27.3" fill="none" stroke="#999" stroke-linejoin="round" stroke-width="7"/></g></g></svg>
