<svg width="442" height="39.5" version="1.1" viewBox="0 0 442 39.5" xmlns="http://www.w3.org/2000/svg" xmlns:xlink="http://www.w3.org/1999/xlink"><g transform="matrix(.99999 0 0 .99999 -59.515 -521.24)"><rect x="59.928" y="516.66" width="441.18" height="43.676" fill="#1f1c24" stroke="#000" stroke-width=".82477"/><path transform="translate(66,376)" d="m111.22 145.36v3.1992h3.2012v-3.1992zm5.4766 0v3.1992h3.1992v-3.1992zm5.4746 0v3.1992h3.1992v-3.1992zm5.4746 0v3.1992h3.1992v-3.1992zm5.4746 0v3.1992h3.2012v-3.1992zm5.4746 0v3.1992h3.2012v-3.1992zm5.4746 0v3.1992h3.2012v-3.1992zm5.4766 0v3.1992h3.1992v-3.1992zm5.4746 0v3.1992h3.1992v-3.1992zm5.4746 0v3.1992h3.1992v-3.1992zm5.4746 0v3.1992h3.1992v-3.1992zm5.4746 0v3.1992h3.2012v-3.1992zm5.4746 0v3.1992h3.2012v-3.1992zm5.4766 0v3.1992h3.1992v-3.1992zm5.4746 0v3.1992h3.1992v-3.1992zm5.4746 0v3.1992h3.1992v-3.1992zm5.4746 0v3.1992h3.1992v-3.1992zm5.4746 0v3.1992h3.2012v-3.1992zm5.4746 0v3.1992h3.2012v-3.1992zm5.4766 0v3.1992h3.1992v-3.1992zm5.4746 0v3.1992h3.1992v-3.1992zm5.4746 0v3.1992h3.1992v-3.1992zm16.461 0.23437v3.1992h3.1992v-3.1992zm5.4746 0v3.1992h3.1992v-3.1992zm5.4746 0v3.1992h3.2012v-3.1992zm5.4746 0v3.1992h3.2012v-3.1992zm5.4766 0v3.1992h3.1992v-3.1992zm5.4746 0v3.1992h3.1992v-3.1992zm5.4746 0v3.1992h3.1992v-3.1992zm5.4746 0v3.1992h3.1992v-3.1992zm5.4746 0v3.1992h3.2012v-3.1992zm5.4746 0v3.1992h3.2012v-3.1992zm5.4766 0v3.1992h3.1992v-3.1992zm5.4746 0v3.1992h3.1992v-3.1992zm5.4746 0v3.1992h3.1992v-3.1992zm5.4746 0v3.1992h3.1992v-3.1992zm5.4746 0v3.1992h3.2012v-3.1992zm5.4746 0v3.1992h3.2012v-3.1992zm5.4746 0v3.1992h3.2012v-3.1992zm5.4766 0v3.1992h3.1992v-3.1992zm5.4746 0v3.1992h3.1992v-3.1992zm5.4746 0v3.1992h3.1992v-3.1992zm5.4746 0v3.1992h3.1992v-3.1992zm5.4746 0v3.1992h3.2012v-3.1992zm5.4746 0v3.1992h3.2012v-3.1992zm5.4766 0v3.1992h3.1992v-3.1992zm5.4746 0v3.1992h3.1992v-3.1992zm5.4746 0v3.1992h3.1992v-3.1992zm5.4746 0v3.1992h3.1992v-3.1992zm5.4746 0v3.1992h3.2012v-3.1992zm5.4746 0v3.1992h3.2012v-3.1992zm5.4766 0v3.1992h3.1992v-3.1992zm5.4746 0v3.1992h3.1992v-3.1992zm5.4746 0v3.1992h3.1992v-3.1992zm-38.324 5.7617v3.1992h3.1992v-3.1992zm5.4746 0v3.1992h3.1992v-3.1992zm5.4746 0v3.1992h3.1992v-3.1992zm5.4746 0v3.1992h3.2012v-3.1992zm5.4746 0v3.1992h3.2012v-3.1992zm5.4766 0v3.1992h3.1992v-3.1992zm5.4746 0v3.1992h3.1992v-3.1992zm5.4746 0v3.1992h3.1992v-3.1992zm-208.08 1.2012v3.1992h3.2012v-3.1992zm5.4746 0v3.1992h3.2012v-3.1992zm5.4766 0v3.1992h3.1992v-3.1992zm5.4746 0v3.1992h3.1992v-3.1992zm5.4746 0v3.1992h3.1992v-3.1992zm147.86 4.5606v3.2012h3.1992v-3.2012zm5.4746 0v3.2012h3.1992v-3.2012zm5.4746 0v3.2012h3.1992v-3.2012zm5.4746 0v3.2012h3.2012v-3.2012zm5.4746 0v3.2012h3.2012v-3.2012zm5.4766 0v3.2012h3.1992v-3.2012zm5.4746 0v3.2012h3.1992v-3.2012zm5.4746 0v3.2012h3.1992v-3.2012zm-208.08 2.6367v3.1992h3.2012v-3.1992zm5.4746 0v3.1992h3.2012v-3.1992zm5.4766 0v3.1992h3.1992v-3.1992zm5.4746 0v3.1992h3.1992v-3.1992zm5.4746 0v3.1992h3.1992v-3.1992zm147.86 3.125v3.2012h3.1992v-3.2012zm5.4746 0v3.2012h3.1992v-3.2012zm5.4746 0v3.2012h3.1992v-3.2012zm5.4746 0v3.2012h3.2012v-3.2012zm5.4746 0v3.2012h3.2012v-3.2012zm5.4766 0v3.2012h3.1992v-3.2012zm5.4746 0v3.2012h3.1992v-3.2012zm5.4746 0v3.2012h3.1992v-3.2012zm-169.72 5.7637v3.1992h3.1992v-3.1992zm5.4746 0v3.1992h3.1992v-3.1992zm5.4746 0v3.1992h3.2012v-3.1992zm5.4746 0v3.1992h3.2012v-3.1992zm5.4766 0v3.1992h3.1992v-3.1992zm5.4746 0v3.1992h3.1992v-3.1992zm5.4746 0v3.1992h3.1992v-3.1992zm5.4746 0v3.1992h3.1992v-3.1992zm5.4746 0v3.1992h3.2012v-3.1992zm5.4746 0v3.1992h3.2012v-3.1992zm5.4766 0v3.1992h3.1992v-3.1992zm5.4746 0v3.1992h3.1992v-3.1992zm5.4746 0v3.1992h3.1992v-3.1992zm5.4746 0v3.1992h3.1992v-3.1992zm5.4746 0v3.1992h3.2012v-3.1992zm5.4746 0v3.1992h3.2012v-3.1992zm5.4746 0v3.1992h3.2012v-3.1992zm5.4766 0v3.1992h3.1992v-3.1992zm5.4746 0v3.1992h3.1992v-3.1992zm5.4746 0v3.1992h3.1992v-3.1992zm5.4746 0v3.1992h3.1992v-3.1992zm5.4746 0v3.1992h3.2012v-3.1992zm5.4746 0v3.1992h3.2012v-3.1992zm5.4766 0v3.1992h3.1992v-3.1992zm5.4746 0v3.1992h3.1992v-3.1992zm5.4746 0v3.1992h3.1992v-3.1992zm5.4746 0v3.1992h3.1992v-3.1992zm5.4746 0v3.1992h3.2012v-3.1992zm5.4746 0v3.1992h3.2012v-3.1992zm5.4766 0v3.1992h3.1992v-3.1992zm5.4746 0v3.1992h3.1992v-3.1992zm5.4746 0v3.1992h3.1992v-3.1992zm-169.72 5.7617v3.1992h3.1992v-3.1992zm5.4746 0v3.1992h3.1992v-3.1992zm5.4746 0v3.1992h3.2012v-3.1992zm5.4746 0v3.1992h3.2012v-3.1992zm5.4766 0v3.1992h3.1992v-3.1992zm5.4746 0v3.1992h3.1992v-3.1992zm5.4746 0v3.1992h3.1992v-3.1992zm5.4746 0v3.1992h3.1992v-3.1992zm5.4746 0v3.1992h3.2012v-3.1992zm5.4746 0v3.1992h3.2012v-3.1992zm5.4766 0v3.1992h3.1992v-3.1992zm5.4746 0v3.1992h3.1992v-3.1992zm5.4746 0v3.1992h3.1992v-3.1992zm5.4746 0v3.1992h3.1992v-3.1992zm5.4746 0v3.1992h3.2012v-3.1992zm5.4746 0v3.1992h3.2012v-3.1992zm5.4746 0v3.1992h3.2012v-3.1992zm5.4766 0v3.1992h3.1992v-3.1992zm5.4746 0v3.1992h3.1992v-3.1992zm5.4746 0v3.1992h3.1992v-3.1992zm5.4746 0v3.1992h3.1992v-3.1992zm5.4746 0v3.1992h3.2012v-3.1992zm5.4746 0v3.1992h3.2012v-3.1992zm5.4766 0v3.1992h3.1992v-3.1992zm5.4746 0v3.1992h3.1992v-3.1992zm5.4746 0v3.1992h3.1992v-3.1992zm5.4746 0v3.1992h3.1992v-3.1992zm5.4746 0v3.1992h3.2012v-3.1992zm5.4746 0v3.1992h3.2012v-3.1992zm5.4766 0v3.1992h3.1992v-3.1992zm5.4746 0v3.1992h3.1992v-3.1992zm5.4746 0v3.1992h3.1992v-3.1992z"/><g transform="matrix(3.8245,0,0,2.147,-270.61,109.42)"><path d="m110.68 204.3h3.7977c0.31236-0.0253 0.47172 0.26313 0.46384 0.53195v1.167c-0.0177 0.40759-0.69625 1.0145-1.2147 0.97148h-2.4609c-0.16724 0.0534-1.0983-0.60543-1.0629-1.0023v-1.1665c-0.0205-0.34162 0.30491-0.50905 0.47686-0.50159" fill="#e6e6e6"/><path d="m110.82 204.48h3.492c0.37167-0.0222 0.41803 0.25189 0.41125 0.48766v1.0611c-0.0156 0.26619-0.58392 0.79942-1.0385 0.76155h-2.3058c-0.14683 0.0469-0.93886-0.53989-0.95768-0.7883v-1.0612c-0.0176-0.29936 0.24811-0.46751 0.3988-0.46085" fill="#1d1d1d"/><g transform="matrix(.0060892 0 0 .0061268 99.791 230.08)"><path d="m1811.4-4178h573.48c61.03-3.61 68.63 41.12 67.53 79.61v173.18c-2.58 43.45-95.9 130.46-170.55 124.27h-378.69c-24.09 7.68-154.17-88.11-157.26-128.66v-173.19c-2.9-48.86 40.74-76.32 65.49-75.21z" fill="none" stroke="#000" stroke-width=".26401"/></g><path transform="matrix(.53109 0 0 .53109 35 368.35)" d="m144.09-307.32c-4e-3 -1.6e-4 -9e-3 2e-3 -0.0137 2e-3h-0.0117c-0.17447-7e-3 -0.45217 0.11055-0.43164 0.42579v1.0488c6e-3 0.0693 0.0738 0.16195 0.17187 0.25782 0.2624 0.2717 0.80298 0.59446 0.93164 0.55664h2.4942c0.52548 0.0402 1.2155-0.47741 1.2324-0.75782v-1.0781c8e-3 -0.24841-2e-3 -0.47824-0.43164-0.45508h-3.9414z" fill="#404040"/><g fill="#070707"><path d="m111.56 205.87h0.1884v-0.41664h-0.1884z"/><path d="m112.01 205.87h0.18839v-0.41664h-0.18839z"/><path d="m112.48 205.87h0.18799v-0.41664h-0.18799z"/><path d="m112.96 205.87h0.18799v-0.41664h-0.18799z"/><path d="m113.42 205.87h0.18837v-0.41664h-0.18837z"/></g></g><path d="m273.12 544.08c-1.2356 0-2.2771 1.1018-2.6875 2.65h-2.7333c-1.0878 0-1.9625 0.87474-1.9625 1.9625v0.23541c0 1.0878 0.87473 1.9625 1.9625 1.9625h2.7333c0.41042 1.5482 1.4519 2.6479 2.6875 2.6479h13.896c1.2356 0 2.2771-1.0997 2.6875-2.6479h2.7333c1.0878 0 1.9625-0.87473 1.9625-1.9625v-0.23541c0-1.0878-0.87474-1.9625-1.9625-1.9625h-2.7333c-0.41042-1.5482-1.4519-2.65-2.6875-2.65z" fill="#ececec" fill-rule="evenodd" stroke="#333" stroke-linecap="round" stroke-width=".10534"/><g transform="matrix(1.0667,0,0,1.0667,91.726,266.9)" stroke="#333" stroke-width=".067244"><g transform="translate(-21.189,-6.7388)"><path d="m189.01 272.01v-2.0135l-1.7484-1.0068-1.7484 1.0738v2.0135l1.7484 1.0077z" fill="#b3b3b3"/><path d="m188.61 271.03c0 0.75957-0.60197 1.3766-1.3446 1.3766-0.74258 0-1.3446-0.61707-1.3446-1.3766 0-0.75955 0.60197-1.3757 1.3446-1.3757 0.74259 0 1.3446 0.61613 1.3446 1.3757z" fill="#ddd"/><path d="m187.73 271.03c0 0.2406-0.21132 0.43687-0.47081 0.43687-0.25948 0-0.47084-0.19627-0.47084-0.43687s0.21136-0.43591 0.47084-0.43591c0.25949 0 0.47081 0.19531 0.47081 0.43591z" fill="#a4a4a4"/></g><g transform="translate(-.18874 -6.7388)"><path d="m189.01 272.01v-2.0135l-1.7484-1.0068-1.7484 1.0738v2.0135l1.7484 1.0077z" fill="#b3b3b3"/><path d="m188.61 271.03c0 0.75957-0.60197 1.3766-1.3446 1.3766-0.74258 0-1.3446-0.61707-1.3446-1.3766 0-0.75955 0.60197-1.3757 1.3446-1.3757 0.74259 0 1.3446 0.61613 1.3446 1.3757z" fill="#ddd"/><path d="m187.73 271.03c0 0.2406-0.21132 0.43687-0.47081 0.43687-0.25948 0-0.47084-0.19627-0.47084-0.43687s0.21136-0.43591 0.47084-0.43591c0.25949 0 0.47081 0.19531 0.47081 0.43591z" fill="#a4a4a4"/></g></g><g stroke="#000"><path d="m273.93 545.03h12.276c1.0109 0 2.0661 0.84309 1.8248 1.8248l-1.0981 4.4661c-0.24138 0.98168-0.81384 1.2757-1.8248 1.2757h-10.08c-1.0109 0-1.5834-0.29404-1.8248-1.2757l-1.0981-4.4661c-0.24136-0.98168 0.81385-1.8248 1.8248-1.8248z" fill="#ececec" fill-rule="evenodd" stroke-linecap="round" stroke-width=".027452"/><path d="m274.13 545.21h11.888c0.97894 0 2.0008 0.80236 1.767 1.7366l-1.0634 4.2503c-0.23375 0.93425-0.7881 1.2141-1.767 1.2141h-9.7611c-0.97893 0-1.5333-0.27983-1.767-1.2141l-1.0634-4.2503c-0.23373-0.93425 0.78811-1.7366 1.7671-1.7366z" fill="#000080" fill-rule="evenodd" stroke-linecap="round" stroke-width=".026354"/><g transform="matrix(1.0667,0,0,1.0667,92.49,267.11)" stroke-width=".067244"><path d="m182.01 262.62c0 0.27834-0.2255 0.50385-0.50383 0.50385-0.27837 0-0.50481-0.22551-0.50481-0.50385 0-0.27739 0.22644-0.50384 0.50481-0.50384 0.27833 0 0.50383 0.22645 0.50383 0.50384z"/><path d="m170.78 262.62c0 0.27834-0.24155 0.50385-0.53781 0.50385-0.29722 0-0.53782-0.22551-0.53782-0.50385 0-0.27739 0.2406-0.50384 0.53782-0.50384 0.29626 0 0.53781 0.22645 0.53781 0.50384z"/><path d="m173.62 262.62c0 0.27834-0.2406 0.50385-0.53784 0.50385-0.29719 0-0.53779-0.22551-0.53779-0.50385 0-0.27739 0.2406-0.50384 0.53779-0.50384 0.29724 0 0.53784 0.22645 0.53784 0.50384z"/><path d="m176.46 262.62c0 0.27834-0.2406 0.50385-0.53782 0.50385-0.2972 0-0.53782-0.22551-0.53782-0.50385 0-0.27739 0.24062-0.50384 0.53782-0.50384 0.29722 0 0.53782 0.22645 0.53782 0.50384z"/><path d="m179.24 262.62c0 0.27834-0.2255 0.50385-0.50385 0.50385s-0.50479-0.22551-0.50479-0.50385c0-0.27739 0.22644-0.50384 0.50479-0.50384s0.50385 0.22645 0.50385 0.50384z"/><path d="m172.17 265.57c0 0.27834-0.22552 0.50385-0.50385 0.50385-0.27835 0-0.50481-0.22551-0.50481-0.50385 0-0.27741 0.22646-0.5029 0.50481-0.5029 0.27833 0 0.50385 0.22549 0.50385 0.5029z"/><path d="m175.01 265.57c0 0.27834-0.22551 0.50385-0.50386 0.50385-0.27834 0-0.5048-0.22551-0.5048-0.50385 0-0.27741 0.22646-0.5029 0.5048-0.5029 0.27835 0 0.50386 0.22549 0.50386 0.5029z"/><path d="m177.85 265.57c0 0.27834-0.22644 0.50385-0.50479 0.50385s-0.50385-0.22551-0.50385-0.50385c0-0.27741 0.2255-0.5029 0.50385-0.5029s0.50479 0.22549 0.50479 0.5029z"/><path d="m180.62 265.57c0 0.27834-0.22646 0.50385-0.50481 0.50385-0.27833 0-0.50385-0.22551-0.50385-0.50385 0-0.27741 0.22552-0.5029 0.50385-0.5029 0.27835 0 0.50481 0.22549 0.50481 0.5029z"/></g></g><path d="m197 556.02h14.573v-4.9623h-14.573z"/><path d="m197 556.02h14.573v-4.9624h-14.573z" fill="none" stroke="#535353" stroke-linecap="round" stroke-linejoin="round" stroke-miterlimit="4.4615" stroke-width=".06386"/><path d="m197.87 551.85h12.882v1.6974h-12.882z" fill="#00a" fill-rule="evenodd"/><path d="m198.31 553.1h12.017v-0.82798h-12.017z" fill="#000080"/><g transform="translate(-6.8761 -.08917)" stroke-width="1.8764"><path d="m225.63 556.1h15.828v-13.125h-15.828z" fill="#ccc"/><path d="m227.09 546.29h3.3035l-6e-3 -2.0016 1.2023-9.4e-4v-0.7494h3.8752l-9.3e-4 0.75138h1.2514v2.0016h3.2884v8.6175l-12.914 0.028z" fill="#1a1a1a"/><path d="m226.79 544.36v1.4141h3.291v-1.4141zm10.211 8e-3v1.4062h3.2617v-1.4062z" fill="#abb927"/></g><rect x="71.303" y="521.44" width="66.468" height="37.123" fill="#fff"/><path d="m114.11 524.59h19.421c1.7728 0 3.2 1.4272 3.2 3.2v24.173c0 1.7728-1.4272 3.2-3.2 3.2h-19.421c-1.7728 0-3.2-1.4272-3.2-3.2v-24.173c0-1.7728 1.4272-3.2 3.2-3.2z" fill="#484848" fill-rule="evenodd" stroke="#000" stroke-linecap="round" stroke-width=".10667"/><path d="m132.41 527.74h-10.544l-6.1685 6.1574v11.529l6.5271 6.5158h10.185z" stroke="#090909" stroke-width=".071727"/><g fill="#f1f1f1"><path d="m117.99 538.69v2.1477h5.0926v-2.1477z"/><path d="m125.02 546.43v2.1477h5.0926v-2.1477z"/><path d="m125.02 531.1v2.1478h5.0926v-2.1478z"/></g><g transform="matrix(1.8829,0,0,1.8829,-74.998,-187.19)"><path d="m144.46 390.56h7.7398v-2.6354h-7.7398z"/><path d="m144.46 390.56h7.7398v-2.6355h-7.7398z" fill="none" stroke="#535353" stroke-linecap="round" stroke-linejoin="round" stroke-miterlimit="4.4615" stroke-width=".033916"/><path d="m144.92 388.34h6.8413v0.9015h-6.8413z" fill="#a09a9a" fill-rule="evenodd"/><path d="m145.15 389.01h6.3819v-0.43973h-6.3819z" fill="#505050"/></g><g transform="translate(14.374 -.08917)" stroke-width="1.8764"><path d="m225.63 556.1h15.828v-13.125h-15.828z" fill="#ccc"/><path d="m227.09 546.29h3.3035l-6e-3 -2.0016 1.2023-9.4e-4v-0.7494h3.8752l-9.3e-4 0.75138h1.2514v2.0016h3.2884v8.6175l-12.914 0.028z" fill="#1a1a1a"/><path d="m226.79 544.36v1.4141h3.291v-1.4141zm10.211 8e-3v1.4062h3.2617v-1.4062z" fill="#abb927"/></g><path d="m81.842 523.05 4.0332 6.9863c1.6749-0.66656 3.2608-0.832 5.0898-0.69336l2.0898-7.7969c-3.8543-0.72823-8.1509 9.9e-4 -11.213 1.5039zm12.494 7.2383c1.5574 0.72229 2.9185 1.8081 3.9688 3.166l6.9785-4.0293c-2.1696-3.1691-5.2601-5.5956-8.8535-6.9512zm5.6191 6.2539c0.63456 1.8164 0.68569 3.3034 0.48242 4.8613l7.7969 2.0898c0.81302-3.7081 0.17633-7.8845-1.2559-11.006zm-0.54101 8.2129c-0.69838 1.4155-1.7008 2.6593-2.9356 3.6426l4.0293 6.9805c3.041-2.1127 5.3884-5.0785 6.7461-8.5234zm-6.0039 5.3301c-1.6139 0.52307-3.0228 0.66994-4.5352 0.58396l-2.0918 7.8086c3.6204 0.66766 7.6961 9e-3 10.676-1.3809zm-7.9238-0.29297c-1.426-0.63349-2.6964-1.5707-3.7227-2.7461l-7.0234 4.0547c2.1856 2.9655 5.1963 5.2215 8.6562 6.4863zm-5.5703-5.7226c-0.71791-1.7111-0.84179-3.1911-0.7793-4.748l-7.834-2.0996c-0.60437 3.7405 0.14547 7.9564 1.6289 10.881zm0.0039-8.1641c0.65096-1.5681 1.6651-2.9592 2.959-4.0586l-4.0469-7.0117c-3.0935 2.2438-5.4275 5.3792-6.6895 8.9863z" fill="#1a1a1a"/></g></svg>
