<svg width="442" height="44.5" version="1.1" viewBox="0 0 442 44.5" xmlns="http://www.w3.org/2000/svg" xmlns:xlink="http://www.w3.org/1999/xlink"><defs><linearGradient id="linearGradient2415"><stop stop-color="#656565" offset="0"/><stop stop-color="#656565" stop-opacity="0" offset="1"/></linearGradient><linearGradient id="linearGradient2417" x1="236.43" x2="236.43" y1="384.5" y2="380.74" gradientUnits="userSpaceOnUse" xlink:href="#linearGradient2415"/><linearGradient id="linearGradient2417-7" x1="236.43" x2="236.43" y1="384.5" y2="380.74" gradientTransform="translate(70.791 .8684)" gradientUnits="userSpaceOnUse" xlink:href="#linearGradient2415"/><linearGradient id="linearGradient2417-7-4" x1="236.43" x2="236.43" y1="384.5" y2="380.74" gradientTransform="translate(168.6,1.3684)" gradientUnits="userSpaceOnUse" xlink:href="#linearGradient2415"/><linearGradient id="linearGradient1203" x1="236.43" x2="236.43" y1="384.5" y2="380.74" gradientTransform="translate(-.0016165 -.018376)" gradientUnits="userSpaceOnUse" xlink:href="#linearGradient2415"/></defs><rect x=".41238" y=".41238" width="441.18" height="43.675" fill="#1f1c24" stroke="#000" stroke-width=".82476"/><g transform="matrix(1 0 0 .99997 -66.001 -376)"><rect x="80.575" y="410.74" width="3.2" height="3.2"/><rect x="86.05" y="410.74" width="3.2" height="3.2"/><rect x="91.525" y="410.74" width="3.2" height="3.2"/><rect x="97" y="410.74" width="3.2" height="3.2"/><rect x="102.48" y="410.74" width="3.2" height="3.2"/><rect x="107.95" y="410.74" width="3.2" height="3.2"/><rect x="113.42" y="410.74" width="3.2" height="3.2"/><rect x="118.9" y="410.74" width="3.2" height="3.2"/><rect x="124.37" y="410.74" width="3.2" height="3.2"/><rect x="129.85" y="410.74" width="3.2" height="3.2"/><rect x="135.32" y="410.74" width="3.2" height="3.2"/><rect x="140.8" y="410.74" width="3.2" height="3.2"/><rect x="146.27" y="410.74" width="3.2" height="3.2"/><rect x="151.75" y="410.74" width="3.2" height="3.2"/><rect x="157.22" y="410.74" width="3.2" height="3.2"/><rect x="162.7" y="410.74" width="3.2" height="3.2"/><rect x="168.17" y="410.74" width="3.2" height="3.2"/><rect x="173.65" y="410.74" width="3.2" height="3.2"/><rect x="179.12" y="410.74" width="3.2" height="3.2"/><rect x="184.6" y="410.74" width="3.2" height="3.2"/><rect x="190.07" y="410.74" width="3.2" height="3.2"/><rect x="195.55" y="410.74" width="3.2" height="3.2"/><g transform="translate(2.3525e-6,59.275)"><rect x="80.575" y="346.24" width="3.2" height="3.2"/><rect x="86.05" y="346.24" width="3.2" height="3.2"/><rect x="91.525" y="346.24" width="3.2" height="3.2"/><rect x="97" y="346.24" width="3.2" height="3.2"/><rect x="102.48" y="346.24" width="3.2" height="3.2"/><rect x="107.95" y="346.24" width="3.2" height="3.2"/><rect x="113.42" y="346.24" width="3.2" height="3.2"/><rect x="118.9" y="346.24" width="3.2" height="3.2"/><rect x="124.37" y="346.24" width="3.2" height="3.2"/><rect x="129.85" y="346.24" width="3.2" height="3.2"/><rect x="135.32" y="346.24" width="3.2" height="3.2"/><rect x="140.8" y="346.24" width="3.2" height="3.2"/><rect x="146.27" y="346.24" width="3.2" height="3.2"/><rect x="151.75" y="346.24" width="3.2" height="3.2"/><rect x="157.22" y="346.24" width="3.2" height="3.2"/><rect x="162.7" y="346.24" width="3.2" height="3.2"/><rect x="168.17" y="346.24" width="3.2" height="3.2"/><rect x="173.65" y="346.24" width="3.2" height="3.2"/><rect x="179.12" y="346.24" width="3.2" height="3.2"/><rect x="184.6" y="346.24" width="3.2" height="3.2"/><rect x="190.07" y="346.24" width="3.2" height="3.2"/><rect x="195.55" y="346.24" width="3.2" height="3.2"/></g></g><g transform="matrix(1 0 0 .99997 -66 -375.98)" fill="none" stroke-linecap="round" stroke-linejoin="round"><path d="m202.19 394.15h-53.474v-13.301" stroke="#656565" stroke-width="1px"/><path d="m148.66 380.81h53.474v13.301" stroke="#000" stroke-width="1px"/><path d="m271.52 382.61h-60.366" stroke="url(#linearGradient1203)" stroke-width="4"/></g><path d="m205.61 8.6121h-60.675l1.5824-0.77726h58.244z" stroke-width=".99999"/><g transform="matrix(1 0 0 .99997 -66.001 -376.87)"><path d="m370.19 383.5h-88.253" fill="none" stroke="url(#linearGradient2417-7)" stroke-linecap="round" stroke-linejoin="round" stroke-width="4"/><path d="m370.29 385.5h-88.561l1.5824-0.77728h86.13z"/></g><g transform="matrix(1 0 0 .99997 -66.001 -377.37)"><path d="m468 384h-88.253" fill="none" stroke="url(#linearGradient2417-7-4)" stroke-linecap="round" stroke-linejoin="round" stroke-width="4"/><path d="m468.09 386h-88.561l1.5824-0.77728h86.13z"/></g><g transform="matrix(1 0 0 .99997 -66.001 -368.3)"><path d="m271.52 382.63h-60.366" fill="none" stroke="url(#linearGradient2417)" stroke-linecap="round" stroke-linejoin="round" stroke-width="4"/><path d="m271.61 384.63h-60.675l1.5824-0.77728h58.244z"/><g transform="translate(0 -.8684)"><path d="m370.19 383.5h-88.253" fill="none" stroke="url(#linearGradient2417-7)" stroke-linecap="round" stroke-linejoin="round" stroke-width="4"/><path d="m370.29 385.5h-88.561l1.5824-0.77728h86.13z"/></g><g transform="translate(0,-1.3684)"><path d="m468 384h-88.253" fill="none" stroke="url(#linearGradient2417-7-4)" stroke-linecap="round" stroke-linejoin="round" stroke-width="4"/><path d="m468.09 386h-88.561l1.5824-0.77728h86.13z"/></g></g><g transform="matrix(1 0 0 .99997 -66.001 -360.6)"><path d="m271.52 382.63h-60.366" fill="none" stroke="url(#linearGradient2417)" stroke-linecap="round" stroke-linejoin="round" stroke-width="4"/><path d="m271.61 384.63h-60.675l1.5824-0.77728h58.244z"/><g transform="translate(0 -.8684)"><path d="m370.19 383.5h-88.253" fill="none" stroke="url(#linearGradient2417-7)" stroke-linecap="round" stroke-linejoin="round" stroke-width="4"/><path d="m370.29 385.5h-88.561l1.5824-0.77728h86.13z"/></g><g transform="translate(0,-1.3684)"><path d="m468 384h-88.253" fill="none" stroke="url(#linearGradient2417-7-4)" stroke-linecap="round" stroke-linejoin="round" stroke-width="4"/><path d="m468.09 386h-88.561l1.5824-0.77728h86.13z"/></g></g><g transform="matrix(1 0 0 .99997 -66.001 -352.9)"><path d="m271.52 382.63h-60.366" fill="none" stroke="url(#linearGradient2417)" stroke-linecap="round" stroke-linejoin="round" stroke-width="4"/><path d="m271.61 384.63h-60.675l1.5824-0.77728h58.244z"/><g transform="translate(0 -.8684)"><path d="m370.19 383.5h-88.253" fill="none" stroke="url(#linearGradient2417-7)" stroke-linecap="round" stroke-linejoin="round" stroke-width="4"/><path d="m370.29 385.5h-88.561l1.5824-0.77728h86.13z"/></g><g transform="translate(0,-1.3684)"><path d="m468 384h-88.253" fill="none" stroke="url(#linearGradient2417-7-4)" stroke-linecap="round" stroke-linejoin="round" stroke-width="4"/><path d="m468.09 386h-88.561l1.5824-0.77728h86.13z"/></g></g><g transform="matrix(1 0 0 .99997 -66.001 -345.21)"><path d="m271.52 382.63h-60.366" fill="none" stroke="url(#linearGradient2417)" stroke-linecap="round" stroke-linejoin="round" stroke-width="4"/><path d="m271.61 384.63h-60.675l1.5824-0.77728h58.244z"/><g transform="translate(0 -.8684)"><path d="m370.19 383.5h-88.253" fill="none" stroke="url(#linearGradient2417-7)" stroke-linecap="round" stroke-linejoin="round" stroke-width="4"/><path d="m370.29 385.5h-88.561l1.5824-0.77728h86.13z"/></g><g transform="translate(0,-1.3684)"><path d="m468 384h-88.253" fill="none" stroke="url(#linearGradient2417-7-4)" stroke-linecap="round" stroke-linejoin="round" stroke-width="4"/><path d="m468.09 386h-88.561l1.5824-0.77728h86.13z"/></g></g><g transform="matrix(1 0 0 .99997 -66.001 -376)"><rect x="476.26" y="410.74" width="3.2" height="3.2"/><rect x="481.73" y="410.74" width="3.2" height="3.2"/><rect x="487.21" y="410.74" width="3.2" height="3.2"/><rect x="492.68" y="410.74" width="3.2" height="3.2"/><rect x="498.16" y="410.74" width="3.2" height="3.2"/><rect x="476.26" y="405.52" width="3.2" height="3.2"/><rect x="481.73" y="405.52" width="3.2" height="3.2"/><rect x="487.21" y="405.52" width="3.2" height="3.2"/><rect x="492.68" y="405.52" width="3.2" height="3.2"/><rect x="498.16" y="405.52" width="3.2" height="3.2"/></g><g transform="matrix(1 0 0 .99997 -66 -375.98)" stroke-linecap="round" stroke-linejoin="round"><rect x="80.573" y="381.86" width="59.175" height="18" rx="1.0513" ry="1.0513" fill="none" stroke="#000" stroke-width=".7"/><circle cx="130.38" cy="389.86" r="3.625" fill="#48373e" stroke="#373748" stroke-width=".4"/><circle cx="121" cy="389.98" r="2.5" fill="#48373e" stroke="#373748" stroke-width=".4"/></g><path d="m52.841 17.562v1.3516h0.18359v-0.57029c0.13633 0.0162 0.25049-0.0309 0.36914 0.043 0 0 0.10988 0.0842 0.30274 0.52734h0.19726c-0.1052-0.19378-0.17278-0.38257-0.29882-0.54881-0.0368-0.0434-0.0741-0.0716-0.11328-0.084 0.23189 0 0.4794-0.71873-0.22852-0.71873zm4.3672 0.0449v0.28711h-0.12305v0.1289h0.12305v0.55077c0.0109 0.16209 0.0117 0.33398 0.33984 0.33398h0.16992v-0.13867h-0.16992c-0.13282 0-0.17187-0.0231-0.17187-0.19532v-0.55077h0.34179v-0.1289h-0.34179v-0.28711zm-4.1836 0.10547h0.22852c0.32031-0.0312 0.41794 0.48045 0 0.48045h-0.22852zm2.3281 0.16796c-0.15227 0.0182-0.2793 0.0925-0.2793 0.28906 0 0.41855 0.59766 0.19803 0.59766 0.47264 0 0.16446-0.31556 0.22484-0.60352 0.0586v0.17187c0.35366 0.0948 0.77344 0.10904 0.77344-0.24414 0-0.39304-0.60547-0.23411-0.60547-0.47069 0-0.0522 0.0929-0.2495 0.55274-0.0742v-0.1582c-0.10395-0.0257-0.28328-0.0631-0.43554-0.0449zm-0.89063 4e-3c-0.241-0.0193-0.49636 0.14412-0.51366 0.53515 4e-3 0.40471 0.29504 0.65277 0.90039 0.4453v-0.15625c-0.25544 0.0989-0.68426 0.22752-0.72656-0.2578h0.76562c0.0421-0.34386-0.18477-0.54711-0.42579-0.5664zm2.0645 2e-3c-0.24101-0.0193-0.49636 0.14608-0.51368 0.5371 4e-3 0.40471 0.29506 0.65277 0.9004 0.44531v-0.15821c-0.25542 0.0989-0.68427 0.22753-0.72657-0.2578h0.76563c0.0421-0.34386-0.18478-0.5471-0.42579-0.5664zm-2.1035 0.13477c0.14846-0.0166 0.29688 0.0671 0.29688 0.29882h-0.59375c-2.2e-4 -0.16611 0.14842-0.28221 0.29687-0.29882zm2.0664 4e-3c0.14845-0.0166 0.29687 0.0651 0.29687 0.29686l-0.59375 2e-3c-2.2e-4 -0.1661 0.14842-0.2822 0.29688-0.29882z" fill="#fff" stroke-width="1.7723px"/><g transform="matrix(1 0 0 .99997 -66.001 -376)"><path d="m91.924 388.95v-0.38498h1.9797v0.38498h-0.54991v1.32h1.2925v-1.32h-0.57738v-0.38498h0.90744v-0.2475h-1.98v-0.38497h0.55019v-1.32h-1.2924v1.32h0.57736v0.38497h-1.9797v0.2475h0.90742v0.38498h-0.57739v1.32h1.2921v-1.32zm-0.54989 1.0725v-0.82496h0.93491v0.82496zm2.1446 0v-0.82496h0.93491v0.82496zm-1.0723-2.3374v-0.82496h0.9349v0.82496z" fill="#fff" fill-rule="evenodd"/><g stroke="#373748" stroke-linecap="round" stroke-linejoin="round" stroke-width=".4"><circle cx="92.914" cy="392.75" r="1.6794" fill="#008000"/><circle cx="99.146" cy="392.75" r="1.6794" fill="#008000"/><circle cx="105.38" cy="392.75" r="1.6794" fill="#fc0"/><circle cx="111.61" cy="392.75" r="1.6794" fill="#008000"/><circle cx="86.683" cy="392.75" r="1.6794" fill="#800000"/></g></g><g transform="matrix(1 0 0 .99997 -66.001 -376)" fill="#fff"><path d="m100.64 386.83h0.65236v0.26164h-1.0773v-0.26164l0.54115-0.44471c0.39905-0.40167-0.12385-0.60855-0.53707-0.31425v-0.30325c0.51914-0.15813 1.0634-0.0958 1.0634 0.33193-0.0115 0.2319-0.1622 0.33334-0.32568 0.47151z" stroke-width=".59375"/><path d="m93.964 386.85h0.3387v-0.88926l-0.34767 0.0663v-0.2414l0.34567-0.0663h0.36461v1.1307h0.3387v0.24512h-1.04z" stroke-width=".59375"/><path d="m98.156 388.95v-0.38498h1.9797v0.38498h-0.54991v1.32h1.2924v-1.32h-0.57738v-0.38498h0.90744v-0.2475h-1.98v-0.38497h0.55019v-1.32h-1.2924v1.32h0.57736v0.38497h-1.9797v0.2475h0.90742v0.38498h-0.57739v1.32h1.2921v-1.32zm-0.54989 1.0725v-0.82496h0.93491v0.82496zm2.1446 0v-0.82496h0.93491v0.82496zm-1.0723-2.3374v-0.82496h0.9349v0.82496z" fill-rule="evenodd"/><path d="m104.42 387.44v2.007c0 0.15445 0.1844 0.42363 0.95362 0.42363 0.76921 0 0.95361-0.2672 0.95361-0.42363-3e-5 -0.67007 3.1e-4 -1.341-6.1e-4 -2.0106 0-0.11528-0.13817-0.41944-0.95302-0.41944-0.81484 0-0.9536 0.29566-0.9536 0.42304zm0.95363-0.30057c0.4562 0 0.83053 0.12336 0.83053 0.29696 0 0.0781-0.1392 0.29697-0.83053 0.29697s-0.83053-0.2253-0.83053-0.29697c0-0.17705 0.37433-0.29696 0.83053-0.29696zm0.83113 0.51027v1.7973c0 0.12063-0.23584 0.30114-0.83113 0.30114s-0.83113-0.1785-0.83113-0.30114v-1.7967c0.19521 0.13292 0.3775 0.20554 0.83113 0.20554s0.66107-0.0823 0.83113-0.20613z" color="#000000" color-rendering="auto" dominant-baseline="auto" image-rendering="auto" shape-rendering="auto" solid-color="#000000" style="font-feature-settings:normal;font-variant-alternates:normal;font-variant-caps:normal;font-variant-ligatures:normal;font-variant-numeric:normal;font-variant-position:normal;isolation:auto;mix-blend-mode:normal;shape-padding:0;text-decoration-color:#000000;text-decoration-line:none;text-decoration-style:solid;text-indent:0;text-orientation:mixed;text-transform:none;white-space:normal"/><path d="m86.999 389.45 0.06273 0.0531c-0.47926 0.7801-0.96014 0.58315-0.89756 0.27506l0.33779-1.3801c0.117-0.38244-0.04343-0.31367-0.26058-0.32814v-0.0772l0.78657-0.11099-0.50186 1.8723c-0.03276 0.12484 0.18646 0.1134 0.47291-0.30401z"/><ellipse transform="rotate(20.782)" cx="218.66" cy="331.09" rx=".21875" ry=".26172"/></g></svg>
