<?xml version="1.0" encoding="UTF-8" standalone="no"?>
<svg
   xmlns:dc="http://purl.org/dc/elements/1.1/"
   xmlns:cc="http://creativecommons.org/ns#"
   xmlns:rdf="http://www.w3.org/1999/02/22-rdf-syntax-ns#"
   xmlns:svg="http://www.w3.org/2000/svg"
   xmlns="http://www.w3.org/2000/svg"
   xmlns:sodipodi="http://sodipodi.sourceforge.net/DTD/sodipodi-0.dtd"
   xmlns:inkscape="http://www.inkscape.org/namespaces/inkscape"
   width="137"
   height="27"
   viewBox="143 71 60.896499 9.1439999"
   id="svg42276"
   version="1.1"
   inkscape:version="0.91 r13725"
   sodipodi:docname="technicolor-tg588V.svg">
  <metadata
     id="metadata42436">
    <rdf:RDF>
      <cc:Work
         rdf:about="">
        <dc:format>image/svg+xml</dc:format>
        <dc:type
           rdf:resource="http://purl.org/dc/dcmitype/StillImage" />
        <dc:title></dc:title>
      </cc:Work>
    </rdf:RDF>
  </metadata>
  <defs
     id="defs42434" />
  <sodipodi:namedview
     pagecolor="#ffffff"
     bordercolor="#666666"
     borderopacity="1"
     objecttolerance="10"
     gridtolerance="10"
     guidetolerance="10"
     inkscape:pageopacity="0"
     inkscape:pageshadow="2"
     inkscape:window-width="1920"
     inkscape:window-height="1043"
     id="namedview42432"
     showgrid="false"
     showguides="true"
     inkscape:guide-bbox="true"
     units="px"
     inkscape:zoom="6.2653333"
     inkscape:cx="39.454875"
     inkscape:cy="18.991037"
     inkscape:window-x="0"
     inkscape:window-y="0"
     inkscape:window-maximized="1"
     inkscape:current-layer="svg42276">
    <sodipodi:guide
       position="29.372403,9.8612729"
       orientation="0,1"
       id="guide47105" />
  </sodipodi:namedview>
  <g
     id="g42278"
     transform="matrix(1.1345072,0,0,0.99322001,-19.340773,-1.1884988)"
     style="fill:#ffffff;fill-opacity:1">
    <path
       style="fill:#ffffff;fill-opacity:1;stroke:#7f7f7f;stroke-width:0.2"
       d="m 196.03047,83.101129 c 0,0 -5.46755,0.297561 -6.71741,-0.02528 -1.24986,-0.322841 -0.87806,-0.47404 -0.87806,-0.47404 l -36.84742,0 c 0,0 0.33898,0.146766 -0.91447,0.42348 C 149.41967,83.302003 144,83 144,83 l -0.39446,-10.202492 -0.41041,-0.01952 0.005,-0.322907 c 0,0 17.73039,-1.111802 26.62664,-1.112417 8.89625,-6.15e-4 26.84259,1.125058 26.84259,1.125058 l -0.003,0.295781 -0.23814,0.0016 z"
       id="polygon42282"
       inkscape:connector-curvature="0"
       sodipodi:nodetypes="czcczcccczcccc" />
  </g>
  <text
     font-size="1.6"
     style="font-style:normal;font-weight:normal;font-size:1.60230303px;font-family:sans-serif;text-anchor:start;fill:#000000"
     x="161.49237"
     y="79.880219"
     id="text42290"
     transform="scale(1.0003378,0.9996623)">
    <tspan
       x="161.49237"
       y="79.880219"
       id="tspan42292">1</tspan>
  </text>
  <text
     font-size="1.6"
     style="font-style:normal;font-weight:normal;font-size:1.60230303px;font-family:sans-serif;text-anchor:start;fill:#000000"
     x="167.10043"
     y="79.880219"
     id="text42294"
     transform="scale(1.0003378,0.9996623)">
    <tspan
       x="167.10043"
       y="79.880219"
       id="tspan42296">2</tspan>
  </text>
  <text
     font-size="1.6"
     style="font-style:normal;font-weight:normal;font-size:1.60230303px;font-family:sans-serif;text-anchor:start;fill:#000000"
     x="173.10905"
     y="79.880219"
     id="text42298"
     transform="scale(1.0003378,0.9996623)">
    <tspan
       x="173.10905"
       y="79.880219"
       id="tspan42300">3</tspan>
  </text>
  <text
     font-size="1.6"
     style="font-style:normal;font-weight:normal;font-size:1.60230303px;font-family:sans-serif;text-anchor:start;fill:#000000"
     x="179.11769"
     y="79.880219"
     id="text42302"
     transform="scale(1.0003378,0.9996623)">
    <tspan
       x="179.11769"
       y="79.880219"
       id="tspan42304">4</tspan>
  </text>
  <g
     id="g42306"
     transform="matrix(1.0017777,0,0,1.0011012,-0.34035261,-1.8366106)">
    <rect
       style="fill:#7f7f7f"
       x="195.39999"
       y="75.800003"
       width="2.8"
       height="3.8"
       id="rect42308" />
    <rect
       style="fill:none;fill-opacity:0;stroke:#000000;stroke-width:0.2"
       x="195.39999"
       y="75.800003"
       width="2.8"
       height="3.8"
       id="rect42310" />
  </g>
  <g
     id="g42312"
     transform="matrix(1.0017777,0,0,1.0011012,-0.34035261,-1.8366106)">
    <circle
       r="1"
       style="fill:#000000"
       cx="196.8"
       cy="77.599998"
       id="ellipse42314" />
    <circle
       r="1"
       style="fill:none;fill-opacity:0;stroke:#000000;stroke-width:0.2"
       cx="196.8"
       cy="77.599998"
       id="ellipse42316" />
  </g>
  <g
     id="g42318"
     transform="matrix(1.0017777,0,0,1.0011012,-0.34035261,-1.8366106)">
    <g
       id="g42320">
      <rect
         style="fill:#ffa500"
         x="158.8"
         y="75.199997"
         width="6"
         height="4.9541202"
         id="rect42322" />
      <rect
         style="fill:none;fill-opacity:0;stroke:#ffa500;stroke-width:0.2"
         x="158.8"
         y="75.199997"
         width="6"
         height="4.9541202"
         id="rect42324" />
    </g>
    <g
       id="g42326">
      <polygon
         style="fill:#8b6914"
         points="161.2,79.4 161.2,79 160.8,79 160.8,78.4 159.4,78.4 159.4,75.8 164.2,75.8 164.2,78.4 162.8,78.4 162.8,79 162.4,79 162.4,79.4 "
         id="polygon42328" />
      <polygon
         style="fill:none;fill-opacity:0;stroke:#ffe4b1;stroke-width:0.2"
         points="161.2,79.4 161.2,79 160.8,79 160.8,78.4 159.4,78.4 159.4,75.8 164.2,75.8 164.2,78.4 162.8,78.4 162.8,79 162.4,79 162.4,79.4 "
         id="polygon42330" />
    </g>
    <g
       id="g42332">
      <rect
         style="fill:#ffa500"
         x="164.8"
         y="75.199997"
         width="6"
         height="4.9541202"
         id="rect42334" />
      <rect
         style="fill:none;fill-opacity:0;stroke:#ffa500;stroke-width:0.2"
         x="164.8"
         y="75.199997"
         width="6"
         height="4.9541202"
         id="rect42336" />
    </g>
    <g
       id="g42338">
      <polygon
         style="fill:#8b6914"
         points="167.2,79.4 167.2,79 166.8,79 166.8,78.4 165.4,78.4 165.4,75.8 170.2,75.8 170.2,78.4 168.8,78.4 168.8,79 168.4,79 168.4,79.4 "
         id="polygon42340" />
      <polygon
         style="fill:none;fill-opacity:0;stroke:#ffe4b1;stroke-width:0.2"
         points="167.2,79.4 167.2,79 166.8,79 166.8,78.4 165.4,78.4 165.4,75.8 170.2,75.8 170.2,78.4 168.8,78.4 168.8,79 168.4,79 168.4,79.4 "
         id="polygon42342" />
    </g>
    <g
       id="g42344">
      <rect
         style="fill:#ffa500"
         x="170.8"
         y="75.199997"
         width="6"
         height="4.9541202"
         id="rect42346" />
      <rect
         style="fill:none;fill-opacity:0;stroke:#ffa500;stroke-width:0.2"
         x="170.8"
         y="75.199997"
         width="6"
         height="4.9541202"
         id="rect42348" />
    </g>
    <g
       id="g42350">
      <polygon
         style="fill:#8b6914"
         points="173.2,79.4 173.2,79 172.8,79 172.8,78.4 171.4,78.4 171.4,75.8 176.2,75.8 176.2,78.4 174.8,78.4 174.8,79 174.4,79 174.4,79.4 "
         id="polygon42352" />
      <polygon
         style="fill:none;fill-opacity:0;stroke:#ffe4b1;stroke-width:0.2"
         points="173.2,79.4 173.2,79 172.8,79 172.8,78.4 171.4,78.4 171.4,75.8 176.2,75.8 176.2,78.4 174.8,78.4 174.8,79 174.4,79 174.4,79.4 "
         id="polygon42354" />
    </g>
    <g
       id="g42356">
      <rect
         style="fill:#ffa500"
         x="176.8"
         y="75.199997"
         width="6"
         height="4.9541202"
         id="rect42358" />
      <rect
         style="fill:none;fill-opacity:0;stroke:#ffa500;stroke-width:0.2"
         x="176.8"
         y="75.199997"
         width="6"
         height="4.9541202"
         id="rect42360" />
    </g>
    <g
       id="g42362">
      <polygon
         style="fill:#8b6914"
         points="179.2,79.4 179.2,79 178.8,79 178.8,78.4 177.4,78.4 177.4,75.8 182.2,75.8 182.2,78.4 180.8,78.4 180.8,79 180.4,79 180.4,79.4 "
         id="polygon42364" />
      <polygon
         style="fill:none;fill-opacity:0;stroke:#ffe4b1;stroke-width:0.2"
         points="179.2,79.4 179.2,79 178.8,79 178.8,78.4 177.4,78.4 177.4,75.8 182.2,75.8 182.2,78.4 180.8,78.4 180.8,79 180.4,79 180.4,79.4 "
         id="polygon42366" />
    </g>
  </g>
  <text
     font-size="12.7998"
     style="font-style:normal;font-weight:normal;font-size:12.81822395px;font-family:sans-serif;text-anchor:start;fill:#000000"
     x="162.69409"
     y="79.479645"
     id="text42368"
     transform="scale(1.0003378,0.9996623)">
    <tspan
       x="162.69409"
       y="79.479645"
       id="tspan42370" />
  </text>
  <g
     id="g42372"
     transform="matrix(1.0017777,0,0,1.0011012,-0.34035261,-1.8366106)">
    <circle
       r="0.60000002"
       style="fill:#008000"
       cx="157.60001"
       cy="77"
       id="ellipse42374" />
    <circle
       r="0.60000002"
       style="fill:none;fill-opacity:0;stroke:#008000;stroke-width:0.2"
       cx="157.60001"
       cy="77"
       id="ellipse42376" />
  </g>
  <g
     id="g42378"
     transform="matrix(1.0017777,0,0,1.0011012,-0.34035261,-1.8366106)">
    <circle
       r="0.60000002"
       style="fill:#008000"
       cx="157.60001"
       cy="78.800003"
       id="ellipse42380" />
    <circle
       r="0.60000002"
       style="fill:none;fill-opacity:0;stroke:#008000;stroke-width:0.2"
       cx="157.60001"
       cy="78.800003"
       id="ellipse42382" />
  </g>
  <g
     id="g42384"
     transform="matrix(1.0017777,0,0,1.0011012,-0.34035261,-1.8366106)">
    <circle
       r="0.60000002"
       style="fill:#008000"
       cx="183.8"
       cy="77"
       id="ellipse42386" />
    <circle
       r="0.60000002"
       style="fill:none;fill-opacity:0;stroke:#008000;stroke-width:0.2"
       cx="183.8"
       cy="77"
       id="ellipse42388" />
  </g>
  <g
     id="g42390"
     transform="matrix(1.0017777,0,0,1.0011012,-0.34035261,-1.8366106)">
    <circle
       r="0.60000002"
       style="fill:#008000"
       cx="183.8"
       cy="79"
       id="ellipse42392" />
    <circle
       r="0.60000002"
       style="fill:none;fill-opacity:0;stroke:#008000;stroke-width:0.2"
       cx="183.8"
       cy="79"
       id="ellipse42394" />
  </g>
  <g
     id="g42396"
     transform="matrix(1.0017777,0,0,1.0011012,-0.34035261,-1.8366106)">
    <circle
       r="1.4"
       style="fill:#000000"
       cx="191.39999"
       cy="78.400002"
       id="ellipse42398" />
    <circle
       r="1.4"
       style="fill:none;fill-opacity:0;stroke:#000000;stroke-width:0.2"
       cx="191.39999"
       cy="78.400002"
       id="ellipse42400" />
  </g>
  <g
     id="g42402"
     transform="matrix(1.0017777,0,0,1.0011012,-0.34035261,-1.8366106)">
    <circle
       r="0.40000001"
       style="fill:#000000"
       cx="187.2"
       cy="78.400002"
       id="ellipse42404" />
    <circle
       r="0.40000001"
       style="fill:none;fill-opacity:0;stroke:#000000;stroke-width:0.2"
       cx="187.2"
       cy="78.400002"
       id="ellipse42406" />
  </g>
  <g
     id="g42408"
     transform="matrix(1.0017777,0,0,1.0011012,-0.34035261,-1.8366106)">
    <g
       id="g42410">
      <rect
         style="fill:#bfbfbf"
         x="150.39999"
         y="74.400002"
         width="4.8000002"
         height="5.5999999"
         id="rect42412" />
      <rect
         style="fill:none;fill-opacity:0;stroke:#000000;stroke-width:0.2"
         x="150.39999"
         y="74.400002"
         width="4.8000002"
         height="5.5999999"
         id="rect42414" />
    </g>
    <g
       id="g42416">
      <polygon
         style="fill:#3a2b21"
         points="152.2,74.8 152.2,75.2 151.8,75.2 151.8,75.8 151,75.8 151,79.2 154.6,79.2 154.6,75.8 153.8,75.8 153.8,75.2 153.4,75.2 153.4,74.8 "
         id="polygon42418" />
      <polygon
         style="fill:none;fill-opacity:0;stroke:#7f7f7f;stroke-width:0.2"
         points="152.2,74.8 152.2,75.2 151.8,75.2 151.8,75.8 151,75.8 151,79.2 154.6,79.2 154.6,75.8 153.8,75.8 153.8,75.2 153.4,75.2 153.4,74.8 "
         id="polygon42420" />
    </g>
    <g
       id="g42422">
      <rect
         style="fill:#7f7f7f"
         x="151.2"
         y="77.800003"
         width="3.2"
         height="1.2"
         id="rect42424" />
      <rect
         style="fill:none;fill-opacity:0;stroke:#3a2b21;stroke-width:0.2"
         x="151.2"
         y="77.800003"
         width="3.2"
         height="1.2"
         id="rect42426" />
    </g>
  </g>
  <text
     font-size="1.6"
     style="font-style:normal;font-weight:normal;font-size:1.60230303px;font-family:sans-serif;text-anchor:start;fill:#000000"
     x="148.16931"
     y="79.880219"
     id="text42428"
     transform="scale(1.0003378,0.99966231)">
    <tspan
       x="148.16931"
       y="79.880219"
       id="tspan42430">ADSL/VDSL</tspan>
  </text>
  <path
     style="fill:none;fill-rule:evenodd;stroke:#cccccc;stroke-width:0.43437669px;stroke-linecap:butt;stroke-linejoin:miter;stroke-opacity:1"
     d="m 145.82895,71.487938 c 0,0 18.35345,-0.854889 27.56001,-0.855382 9.20658,-4.94e-4 27.65555,0.855382 27.65555,0.855382"
     id="path47107"
     inkscape:connector-curvature="0"
     sodipodi:nodetypes="czc" />
</svg>
