<svg width="254" height="203" version="1.1" viewBox="0 0 67.204166 53.710047" xmlns="http://www.w3.org/2000/svg">
 <path d="m0.083744 17.023 4.6869-2.8855v25.357l-4.6869-3.122z" fill="#b3b3b3" stroke="#666" stroke-linecap="round" stroke-width=".17059"/>
 <rect x="5.0755" y="39.533" width="4.5431" height="1.0291"/>
 <g fill="#b3b3b3" stroke="#666" stroke-linecap="round" stroke-width=".16965">
  <ellipse cx="63.036" cy="26.713" rx="4.0814" ry="4.2337"/>
  <path d="m24.879 12.303c16.064-0.60407 28.549-5.8989 40.08-12.443v53.715c-12.564-5.9012-25.165-11.719-40.08-12.255z"/>
  <path d="m4.7706 14.137 20.108-1.8339v29.077l-20.108-1.8862z"/>
 </g>
 <path d="m27.662 23.606h0.48343c1.5898 0 2.8697 1.3277 2.8697 2.9768v26.462h-6.2228v-26.462c0-1.6492 1.2799-2.9768 2.8697-2.9768z" fill="#e6e6e6"/>
 <ellipse cx="27.904" cy="28.096" rx="1.8037" ry="1.8711" fill="#666"/>
</svg>
