<svg width="90" height="66" version="1.1" viewBox="0 0 23.8125 17.4625" xmlns="http://www.w3.org/2000/svg">
 <g transform="translate(0 -279.54)">
  <text x="-5.2255206" y="286.28436" fill="#000000" font-family="sans-serif" font-size="10.583px" letter-spacing="0px" stroke-width=".26458" word-spacing="0px" style="line-height:1.25" xml:space="preserve"><tspan x="-5.2255206" y="295.64813" stroke-width=".26458"/></text>
  <g transform="translate(-5.0602)">
   <rect x="5.0602" y="279.54" width="23.78" height="8.4667" rx=".52918" ry=".52917" fill="#4c4b4f"/>
   <g transform="matrix(.0080362 0 0 .0080376 17.374 282.12)" fill="#fff">
    <path d="m568.96 320.02c-5.6975-0.91139-12.919-4.0599-16.84-7.3421-5.3851-4.5076-8.2945-10.036-8.6549-16.446-0.51409-9.1432 4.7034-17.515 13.939-22.366 16.679-8.7603 39.015-2.9591 45.994 11.946 1.7051 3.6413 2.1209 5.4454 2.1209 9.201 0 3.7674-0.70325 6.5973-2.4974 10.05-3.4241 6.5891-10.619 11.865-19.351 14.189-2.0283 0.53994-4.0644 0.74626-8.1759 0.82842-3.0112 0.0602-5.9518 0.0332-6.5347-0.0601zm146.61-289.12-6.9047-22.299 29.884 1.0034s6.8442 0.81471 6.8442-3.4714c0-6.3355-24.228-22.762-31.066-29.6s-4.5731-26.655 5.7487-32.08 8.398-3.6555 49.301-3.6469l6.643 22.863c-11.386-1.3174-34.17-4.727-34.17 2.3418 0 6.8133 15.306 14.328 28.556 26.936 14.724 16.099 6.5305 33.848-10.994 37.531zm-345.59-0.25679 31.539-89.404h38.629l32.126 89.101-31.186 0.61814-6.936-20.848-28.021 0.18468-6.0474 20.487-30.104-0.1389zm59.991-38.555-10.223-33.293-9.5579 33.33zm70.292-29.647-30.289-0.18412 6.4553-20.487 76.695-0.17973 6.4034 20.667-30.301 0.18412v68.518h-28.964zm70.998-20.848h65.971l6.3143 19.256-43.336 0.52502 0.1915 13.952 39.385 0.34553-6.8916 19.347-32.67 0.61814v15.189l46.979 0.23698-7.5943 19.894-68.349 0.0025zm92.545 0h29.671v89.366h-29.671zm-10.067-23.489 18.544-0.18834v15.907h-18.734zm31.26-0.18834 18.544 0.18834 0.19 15.719h-18.734z" stroke-width=".35322"/>
    <path d="m579.17 47.036-186.6 241.95h87.98l92.623-124.47h3.3114l90.46 124.47h90.432zm191.2 259.59h-90.605l8.6651 11.923h90.723zm-302.42 0h-88.987l-9.1958 11.923h88.782z"/>
   </g>
   <rect x="10.749" y="281.88" width="4.2913" height="3.6401"/>
   <g transform="matrix(.28222 0 0 .28222 -10.503 203.57)" fill-rule="evenodd">
    <rect x="75.869" y="278.1" width="14.4" height="11.5" fill="#e6e6e6"/>
    <g transform="translate(0,-1.1875)">
     <path d="m88.994 289.08v-6.8288h-2.611v-1.8863h-1.1603v-0.84919h-4.3075v0.84919h-1.1603v1.8863h-2.611v6.8288z" fill="#1a1a1a"/>
     <path d="m76.351 280.39h3.2686c0.0054 0 0.0099 4e-3 0.0099 0.01v1.734c0 6e-3 -0.0044 0.01-0.0099 0.01h-3.2686c-0.0054 0-0.0099-4e-3 -0.0099-0.01v-1.734c0-6e-3 0.0044-0.01 0.0099-0.01z" fill="#aad400" stroke="#222b00" stroke-linecap="round" stroke-width=".049315"/>
     <path d="m86.518 280.39h3.2686c0.0054 0 0.0099 4e-3 0.0099 0.01v1.734c0 6e-3 -0.0044 0.01-0.0099 0.01h-3.2686c-0.0054 0-0.0099-4e-3 -0.0099-0.01v-1.734c0-6e-3 0.0044-0.01 0.0099-0.01z" fill="#aad400" stroke="#222b00" stroke-linecap="round" stroke-width=".049315"/>
    </g>
   </g>
   <g>
    <text x="11.186444" y="286.24017" fill="#ffffff" font-family="sans-serif" font-size=".64783px" letter-spacing="0px" stroke-width=".016196" word-spacing="0px" style="line-height:1.25" xml:space="preserve"><tspan x="11.186444" y="286.24017" fill="#ffffff" font-family="sans-serif" stroke-width=".016196">ETHERNET</tspan></text>
    <text x="21.956909" y="286.0282" fill="#ffffff" font-family="sans-serif" font-size=".93864px" font-weight="bold" letter-spacing="0px" stroke-width=".023466" text-align="center" text-anchor="middle" word-spacing="0px" style="line-height:1.25" xml:space="preserve"><tspan x="21.956909" y="286.0282" text-align="center">VOX@SP</tspan><tspan x="21.956909" y="287.20151" text-align="center">IP DIGITAL AMPLIFIER</tspan></text>
    <rect x="5.0926" y="288.53" width="23.78" height="8.4667" rx=".43633" ry=".52917" fill="#4c4b4f"/>
    <rect x="6.4083" y="292.84" width="7.183" height="1.9134" fill="#88cf6d" stroke="#000" stroke-width=".053"/>
   </g>
   <g>
    <rect x="6.6553" y="293.01" width=".81851" height="1.5669"/>
    <rect x="7.6442" y="293.01" width=".81851" height="1.5669"/>
    <rect x="8.633" y="293.01" width=".81851" height="1.5669"/>
    <rect x="9.6219" y="293.01" width=".81851" height="1.5669"/>
    <rect x="10.611" y="293.01" width=".81851" height="1.5669"/>
    <rect x="11.6" y="293.01" width=".81851" height="1.5669"/>
    <rect x="12.589" y="293.01" width=".81851" height="1.5669"/>
   </g>
   <rect x="16.473" y="292.95" width="4.424" height="1.8025" fill="#88cf6d" stroke="#000" stroke-width=".053"/>
   <g>
    <rect x="16.699" y="293.07" width=".81851" height="1.5669"/>
    <rect x="17.75" y="293.07" width=".81851" height="1.5669"/>
    <rect x="18.801" y="293.07" width=".81851" height="1.5669"/>
    <rect x="19.852" y="293.07" width=".81851" height="1.5669"/>
   </g>
   <g fill="#ffffff" font-family="sans-serif" font-size=".64783px" font-weight="bold" letter-spacing="0px" stroke-width=".016196" word-spacing="0px">
    <text x="6.7931557" y="295.36893" style="line-height:1.25" xml:space="preserve"><tspan x="6.7931557" y="295.36893" fill="#ffffff" font-family="sans-serif" font-weight="bold" stroke-width=".016196">+</tspan></text>
    <text x="7.9534717" y="295.35233" style="line-height:1.25" xml:space="preserve"><tspan x="7.9534717" y="295.35233" fill="#ffffff" font-family="sans-serif" font-weight="bold" stroke-width=".016196">-</tspan></text>
    <text x="8.8026876" y="295.40198" style="line-height:1.25" xml:space="preserve"><tspan x="8.8026876" y="295.40198" fill="#ffffff" font-family="sans-serif" font-weight="bold" stroke-width=".016196">1</tspan></text>
    <text x="9.808322" y="295.40625" style="line-height:1.25" xml:space="preserve"><tspan x="9.808322" y="295.40625" fill="#ffffff" font-family="sans-serif" font-weight="bold" stroke-width=".016196">2</tspan></text>
    <text x="10.798774" y="295.40167" style="line-height:1.25" xml:space="preserve"><tspan x="10.798774" y="295.40167" fill="#ffffff" font-family="sans-serif" font-weight="bold" stroke-width=".016196">3</tspan></text>
    <text x="12.556261" y="295.40167" style="line-height:1.25" xml:space="preserve"><tspan x="12.556261" y="295.40167" fill="#ffffff" font-family="sans-serif" font-weight="bold" stroke-width=".016196">GND</tspan></text>
    <text x="16.836855" y="295.42648" style="line-height:1.25" xml:space="preserve"><tspan x="16.836855" y="295.42648" fill="#ffffff" font-family="sans-serif" font-weight="bold" stroke-width=".016196">+</tspan></text>
   </g>
   <g>
    <rect x="6.3818" y="290.83" width="7.183" height=".84333" fill="#fff"/>
    <g font-family="sans-serif" letter-spacing="0px" word-spacing="0px">
     <text x="9.04321" y="291.47549" fill="#4c4b4f" font-size=".61486px" font-weight="bold" stroke-width=".015371" style="line-height:1.25" xml:space="preserve"><tspan x="9.04321" y="291.47549" fill="#4c4b4f" font-family="sans-serif" font-weight="normal" stroke-width=".015371">LOGIC</tspan></text>
     <text x="13.841152" y="281.69461" fill="#ffffff" font-size=".64783px" stroke-width=".016196" style="line-height:1.25" xml:space="preserve"><tspan x="13.841152" y="281.69461" fill="#ffffff" font-family="sans-serif" stroke-width=".016196">FAULT</tspan></text>
     <text x="10.502737" y="281.7038" fill="#ffffff" font-size=".64783px" stroke-width=".016196" style="line-height:1.25" xml:space="preserve"><tspan x="10.502737" y="281.7038" fill="#ffffff" font-family="sans-serif" stroke-width=".016196">LINK</tspan></text>
    </g>
    <rect x="6.4796" y="283.39" width="2.2838" height="1.8025" fill="#88cf6d" stroke="#000" stroke-width=".053"/>
    <rect x="6.7056" y="283.5" width=".81851" height="1.5669"/>
    <rect x="7.7566" y="283.5" width=".81851" height="1.5669"/>
    <rect x="6.4582" y="282.5" width="2.3207" height=".75241" fill="#fff"/>
    <text x="7.622211" y="283.11148" fill="#4c4b4f" font-family="sans-serif" font-size=".61486px" font-weight="bold" letter-spacing="0px" stroke-width=".015371" text-align="center" text-anchor="middle" word-spacing="0px" style="line-height:1.25" xml:space="preserve"><tspan x="7.622211" y="283.11148" fill="#4c4b4f" font-family="sans-serif" font-weight="normal" stroke-width=".015371" text-align="center" text-anchor="middle">24V 2A</tspan></text>
   </g>
   <g fill="none" stroke="#fff">
    <path d="m6.513 285.41h2.2392" stroke-width=".065"/>
    <g stroke-width=".056299">
     <path d="m6.513 285.59h0.5"/>
     <path d="m7.3826 285.59h0.5"/>
     <path d="m8.2522 285.59h0.5"/>
    </g>
   </g>
   <g>
    <text x="11.78385" y="295.40198" fill="#ffffff" font-family="sans-serif" font-size=".64783px" font-weight="bold" letter-spacing="0px" stroke-width=".016196" word-spacing="0px" style="line-height:1.25" xml:space="preserve"><tspan x="11.78385" y="295.40198" fill="#ffffff" font-family="sans-serif" font-weight="bold" stroke-width=".016196">4</tspan></text>
    <rect x="6.3818" y="291.79" width="2.0749" height=".84332" fill="#fff"/>
    <rect x="8.6349" y="291.79" width="4.9299" height=".84332" fill="#fff"/>
    <text x="6.7461877" y="292.43384" fill="#4c4b4f" font-family="sans-serif" font-size=".61486px" font-weight="bold" letter-spacing="0px" stroke-width=".015371" word-spacing="0px" style="line-height:1.25" xml:space="preserve"><tspan x="6.7461877" y="292.43384" fill="#4c4b4f" font-family="sans-serif" font-weight="normal" stroke-width=".015371">OUT</tspan></text>
    <text x="10.779242" y="292.43414" fill="#4c4b4f" font-family="sans-serif" font-size=".61486px" font-weight="bold" letter-spacing="0px" stroke-width=".015371" word-spacing="0px" style="line-height:1.25" xml:space="preserve"><tspan x="10.779242" y="292.43414" fill="#4c4b4f" font-family="sans-serif" font-weight="normal" stroke-width=".015371">IN</tspan></text>
    <rect x="16.447" y="290.89" width="4.424" height=".843" fill="#fff"/>
    <text x="17.241335" y="291.52979" fill="#4c4b4f" font-family="sans-serif" font-size=".61486px" font-weight="bold" letter-spacing="0px" stroke-width=".015371" word-spacing="0px" style="line-height:1.25" xml:space="preserve"><tspan x="17.241335" y="291.52979" fill="#4c4b4f" font-family="sans-serif" font-weight="normal" stroke-width=".015371">AMP OUT</tspan></text>
    <rect x="16.447" y="291.84" width="2.122" height=".84332" fill="#fff"/>
    <rect x="18.802" y="291.84" width="2.0755" height=".84332" fill="#fff"/>
    <text x="17.288233" y="292.48813" fill="#4c4b4f" font-family="sans-serif" font-size=".61486px" font-weight="bold" letter-spacing="0px" stroke-width=".015371" word-spacing="0px" style="line-height:1.25" xml:space="preserve"><tspan x="17.288233" y="292.48813" fill="#4c4b4f" font-family="sans-serif" font-weight="normal" stroke-width=".015371">B</tspan></text>
    <text x="19.630013" y="292.48843" fill="#4c4b4f" font-family="sans-serif" font-size=".61486px" font-weight="bold" letter-spacing="0px" stroke-width=".015371" word-spacing="0px" style="line-height:1.25" xml:space="preserve"><tspan x="19.630013" y="292.48843" fill="#4c4b4f" font-family="sans-serif" font-weight="normal" stroke-width=".015371">A</tspan></text>
   </g>
   <g fill="#ffffff" font-family="sans-serif" font-size=".64783px" font-weight="bold" letter-spacing="0px" stroke-width=".016196" word-spacing="0px">
    <text x="8.4131775" y="295.33698" style="line-height:1.25" xml:space="preserve"><tspan x="8.4131775" y="295.33698" fill="#ffffff" font-family="sans-serif" font-weight="bold" stroke-width=".016196">|</tspan></text>
    <text x="18.024857" y="295.40988" style="line-height:1.25" xml:space="preserve"><tspan x="18.024857" y="295.40988" fill="#ffffff" font-family="sans-serif" font-weight="bold" stroke-width=".016196">-</tspan></text>
    <text x="18.57778" y="295.39453" style="line-height:1.25" xml:space="preserve"><tspan x="18.57778" y="295.39453" fill="#ffffff" font-family="sans-serif" font-weight="bold" stroke-width=".016196">|</tspan></text>
    <text x="18.992653" y="295.42648" style="line-height:1.25" xml:space="preserve"><tspan x="18.992653" y="295.42648" fill="#ffffff" font-family="sans-serif" font-weight="bold" stroke-width=".016196">+</tspan></text>
    <text x="20.180655" y="295.40988" style="line-height:1.25" xml:space="preserve"><tspan x="20.180655" y="295.40988" fill="#ffffff" font-family="sans-serif" font-weight="bold" stroke-width=".016196">-</tspan></text>
   </g>
  </g>
 </g>
</svg>
