<svg width="207" height="42.7" version="1.1" viewBox="70.4 401.06667 207 42.700001" xmlns="http://www.w3.org/2000/svg"><path d="m271.61 436.07h0.18747v1.5853h-0.18747v-0.17117c-0.0825 0.12649-0.18738 0.20071-0.36576 0.20071s-0.46664-0.12109-0.46664-0.59908 0.29265-0.59908 0.46664-0.59908 0.29902 0.0706 0.36576 0.20069zm-0.63882 1.0158c0 0.21162 0.0739 0.44218 0.31893 0.44218 0.245 0 0.31994-0.22788 0.31994-0.44218s-0.0845-0.44218-0.31994-0.44218-0.31893 0.23056-0.31893 0.44218z" stroke-width=".39124"/><path d="m71.389 401.45c-0.54822 0-0.98828 0.35958-0.98828 0.80469v39.46c0 0.44512 0.44007 0.80274 0.98828 0.80274h205.02c0.54822 0 0.98828-0.35762 0.98828-0.80274v-39.46c0-0.44511-0.44006-0.80469-0.98828-0.80469zm3.7598 4.734c2.0215-1.7e-4 3.6604 1.6387 3.6602 3.6602 1.66e-4 2.0215-1.6387 3.6604-3.6602 3.6602-2.0215 1.7e-4 -3.6604-1.6387-3.6602-3.6602-1.66e-4 -2.0215 1.6387-3.6604 3.6602-3.6602z" fill="#ccc" stroke-width="1.3871"/><g fill-rule="evenodd" stroke="#000" stroke-linecap="round" stroke-width=".084846"><circle cx="274.24" cy="422.8" r="2.8437" fill="#bebebe"/><circle cx="274.24" cy="422.8" r="1.1202" fill="#ececec"/><circle cx="73.79" cy="422.8" r="2.8437" fill="#bebebe"/></g><g fill="#ececec"><circle cx="73.79" cy="422.8" r="1.1202" fill-rule="evenodd" stroke="#000" stroke-linecap="round" stroke-width=".084846"/><rect x="70.4" y="440.12" width="54.034" height="2.3998"/><rect x="223.36" y="440.12" width="54.034" height="2.3998"/></g><rect x="84.057" y="442.54" width="179.68" height="1.2256" fill="#666"/><path d="m268.03 431.59h2.276v0.4375l-1.8021 2.0963h1.8021v0.38281h-2.3411v-0.4375l1.8021-2.0963h-1.737z"/><path d="m271.04 430.46h0.47916v4.0521h-0.47916z"/><path d="m274.88 434.06v0.44271h-2.4687v-0.44271l1.4661-1.5052c0.1895-0.18772 0.45313-0.56937 0.45313-0.86719 0-0.54706-0.49647-0.70051-0.78385-0.70051-0.46319 0-0.80639 0.19358-1.1094 0.34632v-0.53125c0.33307-0.14439 0.7627-0.2578 1.099-0.2578 0.84468 0 1.3229 0.47805 1.3229 1.1094 0.0117 0.46912-0.33802 0.85683-0.41661 0.96093l-1.3984 1.4453z"/><g stroke-width=".39124"><path d="m267.79 436.14h0.30667l0.38819 1.0352 0.39021-1.0352h0.30668v1.5211h-0.20072v-1.3357l-0.39225 1.0433h-0.20683l-0.39225-1.0433v1.3357h-0.1997z"/><path d="m273.5 436.07h0.18747v1.5853h-0.18747z"/><path d="m270.02 436.65c-0.21043 0-0.32601 0.18935-0.32601 0.44014s0.10761 0.44014 0.32603 0.44014 0.32499-0.1938 0.32499-0.44014-0.11458-0.44014-0.32501-0.44014zm0-0.15894c0.33441 0 0.52369 0.23778 0.52369 0.59908s-0.17325 0.59908-0.52369 0.59908-0.52368-0.24476-0.52368-0.59908 0.18927-0.59908 0.52368-0.59908z"/><path d="m72.666 430.35h0.66938v0.28833h-1.1054v-0.28833l0.55527-0.49007q0.07438-0.0672 0.11004-0.13143 0.03566-0.0642 0.03566-0.13347 0-0.10698-0.07234-0.17219-0.07132-0.0652-0.19052-0.0652-0.0917 0-0.20071 0.0397-0.10902 0.0387-0.23332 0.11615v-0.33418q0.13245-0.0438 0.26184-0.0662 0.12939-0.0234 0.25369-0.0234 0.27305 0 0.42384 0.12023 0.15181 0.12022 0.15181 0.3352 0 0.1243-0.06419 0.23229-0.06419 0.10698-0.26999 0.28732z"/><path d="m74.284 429.44-0.42995 0.63677h0.42995zm-0.06521-0.32298h0.43607v0.95975h0.21702v0.28426h-0.21702v0.27713h-0.37086v-0.27713h-0.67448v-0.33622z"/><path d="m75.506 430.47v0.59908h-0.36475v-1.5751h0.36475v0.16709q0.0754-0.0999 0.16709-0.14671 0.0917-0.0479 0.2109-0.0479 0.2109 0 0.34641 0.16811 0.13551 0.16709 0.13551 0.43097 0 0.26389-0.13551 0.432-0.13551 0.16709-0.34641 0.16709-0.1192 0-0.2109-0.0469-0.0917-0.0479-0.16709-0.14773zm0.24249-0.73867q-0.11717 0-0.18034 0.0866-0.06215 0.0856-0.06215 0.24758 0 0.162 0.06215 0.2486 0.06317 0.0856 0.18034 0.0856t0.1783-0.0856q0.06215-0.0856 0.06215-0.2486 0-0.16301-0.06215-0.24859-0.06113-0.0856-0.1783-0.0856z"/><path d="m78.746 430.52q-0.14671 0.0713-0.30464 0.10698-0.15792 0.0357-0.32603 0.0357-0.38003 0-0.60214-0.21192-0.22211-0.21294-0.22211-0.57667 0-0.36781 0.22618-0.57871t0.61946-0.2109q0.15181 0 0.29037 0.0285 0.13958 0.0285 0.26286 0.0846v0.31483q-0.12736-0.0723-0.25369-0.108-0.12532-0.0357-0.25166-0.0357-0.23434 0-0.36169 0.13143-0.12634 0.13041-0.12634 0.37392 0 0.24147 0.12226 0.3729t0.34743 0.13143q0.06113 0 0.11309-7e-3 0.05298-8e-3 0.09475-0.0245v-0.29546h-0.23943v-0.26286h0.61131z"/><path d="m79.074 429.49h0.36475v1.1411h-0.36475zm0-0.44422h0.36475v0.29751h-0.36475z"/><path d="m80.568 430.44q-0.0754 0.0998-0.16607 0.14671-0.09068 0.0469-0.20988 0.0469-0.20886 0-0.34539-0.16403-0.13653-0.16506-0.13653-0.41977 0-0.25573 0.13653-0.41875 0.13653-0.16403 0.34539-0.16403 0.11921 0 0.20988 0.0469 0.09068 0.0469 0.16607 0.14773v-0.16913h0.36678v1.026q0 0.27509-0.17422 0.41977-0.1732 0.14569-0.50331 0.14569-0.10698 0-0.20683-0.0163t-0.20071-0.0499v-0.28426q0.09577 0.055 0.18747 0.0815 0.0917 0.0275 0.18441 0.0275 0.17932 0 0.26286-0.0784 0.08355-0.0785 0.08355-0.24554zm-0.24045-0.71014q-0.11309 0-0.17626 0.0836-0.06317 0.0835-0.06317 0.23637 0 0.1569 0.06113 0.23841 0.06113 0.0805 0.1783 0.0805 0.11411 0 0.17728-0.0836 0.06317-0.0835 0.06317-0.23535 0-0.15283-0.06317-0.23637-0.06317-0.0836-0.17728-0.0836z"/><path d="m81.225 429.89h0.63984v0.29648h-0.63984z"/><path d="m81.685 429.11h1.4019v0.29648h-0.50433v1.2247h-0.39226v-1.2247h-0.50535z"/><path d="m74.795 432.65h0.65104q0.29037 0 0.44524 0.1294 0.15588 0.12837 0.15588 0.36678 0 0.23943-0.15588 0.36883-0.15486 0.12837-0.44524 0.12837h-0.25879v0.52776h-0.39226zm0.39226 0.28426v0.42486h0.21702q0.11411 0 0.17626-0.055 0.06215-0.056 0.06215-0.15793 0-0.10188-0.06215-0.1569-0.06215-0.055-0.17626-0.055z"/><path d="m76.85 433.27q-0.12124 0-0.18543 0.0876-0.06317 0.0866-0.06317 0.25064 0 0.16403 0.06317 0.25165 0.06419 0.0866 0.18543 0.0866 0.11921 0 0.18237-0.0866 0.06317-0.0876 0.06317-0.25165 0-0.16404-0.06317-0.25064-0.06317-0.0876-0.18237-0.0876zm0-0.26082q0.29445 0 0.4595 0.15894 0.16607 0.15894 0.16607 0.44014t-0.16607 0.44014q-0.16505 0.15894-0.4595 0.15894-0.29546 0-0.46256-0.15894-0.16607-0.15894-0.16607-0.44014t0.16607-0.44014q0.16709-0.15894 0.46256-0.15894z"/><path d="m77.758 432.65h1.0586v0.29649h-0.66633v0.28324h0.62659v0.29648h-0.62659v0.34845h0.68874v0.29648h-1.081z"/><path d="m79.185 432.65h0.65104q0.29037 0 0.44524 0.1294 0.15588 0.12837 0.15588 0.36678 0 0.23943-0.15588 0.36883-0.15486 0.12837-0.44524 0.12837h-0.25879v0.52776h-0.39226zm0.39226 0.28426v0.42486h0.21701q0.11411 0 0.17626-0.055 0.06215-0.056 0.06215-0.15793 0-0.10188-0.06215-0.1569-0.06215-0.055-0.17626-0.055z"/><path d="m73.815 435.75h0.39226v1.3734q0 0.28426-0.15486 0.42486-0.15385 0.1406-0.46663 0.1406h-0.07947v-0.29648h0.06113q0.12226 0 0.18441-0.0683 0.06317-0.0683 0.06317-0.20072z"/><path d="m74.611 437.24v-0.2812q0.09373 0.0438 0.17932 0.0662 0.08558 0.0214 0.16913 0.0214 0.17524 0 0.27305-0.0968 0.09781-0.0978 0.11513-0.28935-0.06928 0.0509-0.14773 0.0764t-0.17015 0.0255q-0.23332 0-0.37697-0.13551-0.14264-0.13653-0.14264-0.35864 0-0.24554 0.15894-0.39327 0.15996-0.14773 0.42792-0.14773 0.2975 0 0.46052 0.20071t0.16302 0.5675q0 0.37697-0.19052 0.59297-0.19052 0.21497-0.52267 0.21497-0.10698 0-0.20479-0.0163-0.09781-0.0153-0.19154-0.0469zm0.48395-0.73255q0.1029 0 0.15486-0.0662 0.05196-0.0673 0.05196-0.20071 0-0.13245-0.05196-0.1997-0.05196-0.0672-0.15486-0.0672t-0.15486 0.0672q-0.05196 0.0673-0.05196 0.1997 0 0.13346 0.05196 0.20071 0.05196 0.0662 0.15486 0.0662z"/><path d="m76.062 437.24v-0.2812q0.09373 0.0438 0.17932 0.0662 0.08558 0.0214 0.16913 0.0214 0.17524 0 0.27305-0.0968 0.09781-0.0978 0.11513-0.28935-0.06928 0.0509-0.14773 0.0764t-0.17015 0.0255q-0.23332 0-0.37697-0.13551-0.14264-0.13653-0.14264-0.35864 0-0.24554 0.15894-0.39327 0.15996-0.14773 0.42792-0.14773 0.2975 0 0.46052 0.20071t0.16302 0.5675q0 0.37697-0.19052 0.59297-0.19052 0.21497-0.52267 0.21497-0.10698 0-0.20479-0.0163-0.09781-0.0153-0.19154-0.0469zm0.48395-0.73255q0.1029 0 0.15486-0.0662 0.05196-0.0673 0.05196-0.20071 0-0.13245-0.05196-0.1997-0.05196-0.0672-0.15486-0.0672t-0.15486 0.0672q-0.05196 0.0673-0.05196 0.1997 0 0.13346 0.05196 0.20071 0.05196 0.0662 0.15486 0.0662z"/><path d="m78.03 436.59q-0.11004 0-0.16913 0.0601t-0.05909 0.17218 0.05909 0.17219q0.05909 0.0591 0.16913 0.0591 0.10902 0 0.16709-0.0591 0.05807-0.0601 0.05807-0.17219 0-0.11309-0.05807-0.17218-0.05808-0.0601-0.16709-0.0601zm-0.2863-0.1294q-0.13856-0.0418-0.20886-0.12837-0.0703-0.0866-0.0703-0.216 0-0.19256 0.14366-0.29343 0.14366-0.10086 0.4218-0.10086 0.27611 0 0.41976 0.10086 0.14366 0.0999 0.14366 0.29343 0 0.1294-0.07132 0.216-0.0703 0.0866-0.20886 0.12837 0.15486 0.0428 0.23332 0.13959 0.07947 0.0958 0.07947 0.24248 0 0.22619-0.15079 0.34233-0.14977 0.11513-0.44524 0.11513-0.29648 0-0.44829-0.11513-0.15079-0.11614-0.15079-0.34233 0-0.14671 0.07845-0.24248 0.07947-0.0968 0.23434-0.13959zm0.0917-0.30463q0 0.0907 0.04992 0.13958 0.05094 0.0489 0.14468 0.0489 0.0917 0 0.14162-0.0489t0.04992-0.13958q0-0.0907-0.04992-0.13857-0.04992-0.0489-0.14162-0.0489-0.09373 0-0.14468 0.0489-0.04992 0.0489-0.04992 0.13857z"/><path d="m79.51 436.52q-0.1029 0-0.15486 0.0672-0.05094 0.0662-0.05094 0.19969 0 0.13347 0.05094 0.20072 0.05196 0.0662 0.15486 0.0662 0.10392 0 0.15486-0.0662 0.05196-0.0673 0.05196-0.20072 0-0.13346-0.05196-0.19969-0.05094-0.0672-0.15486-0.0672zm0.48497-0.73052v0.2812q-0.09679-0.0458-0.18237-0.0672-0.08558-0.0224-0.16709-0.0224-0.17524 0-0.27305 0.0978-0.09781 0.0968-0.11411 0.28833 0.06724-0.0499 0.1457-0.0744 0.07845-0.0255 0.17117-0.0255 0.23332 0 0.37595 0.13653 0.14366 0.13652 0.14366 0.35761 0 0.24453-0.15996 0.39226-0.15996 0.14671-0.42894 0.14671-0.29648 0-0.4595-0.19969-0.162-0.20071-0.162-0.56852 0-0.37697 0.18951-0.59195 0.19052-0.21599 0.52165-0.21599 0.10494 0 0.20377 0.0163t0.19562 0.0489z"/><path d="m81.32 437h-0.61335l-0.09679 0.27713h-0.39429l0.56342-1.5211h0.46765l0.56342 1.5211h-0.39429zm-0.51554-0.28222h0.41671l-0.20784-0.6052z"/></g><rect x="154.55" y="402.5" width="5.3849" height="4.2513"/><rect x="83.875" y="402.5" width="5.3849" height="4.2513"/><rect x="97.871" y="402.5" width="5.3849" height="4.2513"/><rect x="112.09" y="402.5" width="5.3849" height="4.2513"/><rect x="126.15" y="402.5" width="5.3849" height="4.2513"/><rect x="140.36" y="402.5" width="5.3849" height="4.2513"/><rect x="94.498" y="434.89" width="5.3849" height="4.2513"/><rect x="108.5" y="434.89" width="5.3849" height="4.2513"/><rect x="122.68" y="434.89" width="5.3849" height="4.2513"/><rect x="136.96" y="434.89" width="5.3849" height="4.2513"/><rect x="151.1" y="434.89" width="5.3849" height="4.2513"/><rect x="165.34" y="434.89" width="5.3849" height="4.2513"/><rect x="175.28" y="402.5" width="5.3849" height="4.2513"/><rect x="189.3" y="402.5" width="5.3849" height="4.2513"/><rect x="203.44" y="402.5" width="5.3849" height="4.2513"/><rect x="217.67" y="402.5" width="5.3849" height="4.2513"/><rect x="231.85" y="402.5" width="5.3849" height="4.2513"/><rect x="246.03" y="402.5" width="5.3849" height="4.2513"/><rect x="256.76" y="434.89" width="5.3849" height="4.2513"/><rect x="242.61" y="434.89" width="5.3849" height="4.2513"/><rect x="228.36" y="434.89" width="5.3849" height="4.2513"/><rect x="214.16" y="434.89" width="5.3849" height="4.2513"/><rect x="200" y="434.89" width="5.3849" height="4.2513"/><rect x="185.9" y="434.89" width="5.3849" height="4.2513"/><rect x="150.71" y="439.41" width="49.707" height="2.7471" fill="#f9ff00" stroke-width="1.8801"/><g stroke-width=".064724"><path d="m157.64 439.73h1.1934v0.21491h-0.93801v0.55876h0.89882v0.2149h-0.89882v0.68391h0.96076v0.21491h-1.2161z"/><path d="m160.21 440v0.70414h0.70414v0.2149h-0.70414v0.70414h-0.21238v-0.70414h-0.70413v-0.2149h0.70413v-0.70414z"/><path d="m162.34 441.41h0.41717v-1.4399l-0.45383 0.091v-0.23261l0.45131-0.091h0.25536v1.6725h0.41717v0.21491h-1.0872z"/><path d="m165.97 439.73h0.21491l-0.65737 2.1276h-0.2149z"/><path d="m166.51 441.41h0.41717v-1.4399l-0.45383 0.091v-0.23261l0.45131-0.091h0.25536v1.6725h0.41717v0.21491h-1.0872z"/><path d="m171.79 439.73h0.21491l-0.65736 2.1276h-0.21491z"/><path d="m172.33 441.41h0.41718v-1.4399l-0.45384 0.091v-0.23261l0.45131-0.091h0.25536v1.6725h0.41717v0.21491h-1.0872z"/><path d="m181.26 439.98-0.34638 0.93927h0.69402zm-0.14412-0.25157h0.2895l0.7193 1.8874h-0.26547l-0.17193-0.48417h-0.85078l-0.17192 0.48417h-0.26927z"/><path d="m184.04 439.73h1.1934v0.21491h-0.938v0.55876h0.89881v0.2149h-0.89881v0.68391h0.96076v0.21491h-1.2161z"/><path d="m185.55 440.81h0.68138v0.20732h-0.68138z"/><path d="m186.12 439.73h1.5966v0.21491h-0.67001v1.6725h-0.25662v-1.6725h-0.67001z"/></g><rect x="83.62" y="407.24" width="87.248" height="27.121" rx=".31701" ry=".13971" fill="#3a3a3a" stroke="#000" stroke-width=".1"/><path d="m155.86 409.01v1.416h3.291v-1.416zm-70.75 4e-3v1.416h3.291v-1.416zm14.039 2e-3v1.416h3.291v-1.416zm14.191 0v1.416h3.293v-1.416zm14.193 0v1.416h3.291v-1.416zm14.186 4e-3v1.416h3.291v-1.416zm-46.4 2e-3v1.4082h3.2617v-1.4085zm14.037 2e-3v1.4082h3.2637v-1.4082zm14.193 0v1.4082h3.2617v-1.4082zm14.191 0v1.4082h3.2637v-1.4082zm14.199 0v1.4082h3.2617v-1.4082zm14.141 0.0137v1.4082h3.2637v-1.4082zm-10.176 22.125v1.4082h3.2617v-1.4082zm10.191 0v1.416h3.291v-1.416zm-80.959 2e-3v1.4082h3.2617v-1.4082zm10.197 0v1.416h3.293v-1.416zm3.8418 0v1.4102h3.2617v-1.4102zm10.197 0v1.418h3.291v-1.418zm3.9941 0v1.4102h3.2637v-1.4102zm10.197 0v1.418h3.293v-1.418zm3.9941 0v1.4102h3.2637v-1.4102zm10.199 0v1.418h3.291v-1.418zm3.8398 0.0937v1.418h3.293v-1.418zm10.221-0.0957v1.4082h3.2637v-1.4082z" fill="#abb927"/><path d="m169.1 430.62h-3.3038l6e-3 2.0044-1.2023 1e-3v0.75051h-3.8753l9.1e-4 -0.75247h-1.2515v-2.0046l-7.7162-8.1e-4 6e-3 2.0044-1.2023 1e-3v0.75051h-3.8753l9.1e-4 -0.75247h-1.2515v-2.0046l-7.8695 1e-3 6e-3 2.0044-1.2023 1e-3v0.75051h-3.8753l9e-4 -0.75246h-1.2514v-2.0046l-7.8694 1e-3 6e-3 2.0044-1.2023 1e-3v0.7505h-3.8753l9e-4 -0.75246h-1.2515v-2.0046l-7.8662 4e-3 6e-3 2.0045-1.2023 1e-3v0.75074h-3.8752l8.7e-4 -0.75247h-1.2514v-2.0047l-7.8348-0.0187 6e-3 2.0045-1.2023 9.9e-4v0.75054h-3.8752l9.1e-4 -0.75248h-1.2514v-2.0047h-3.2885l-0.019-19.647h3.3038l-6e-3 -2.0044 1.2023-1e-3v-0.75051h3.8753l-9e-4 0.75247h1.2515v2.0046l7.7162 8e-4 -6e-3 -2.0044 1.2023-1e-3v-0.75051h3.8753l-9e-4 0.75247h1.2515v2.0046l7.8695-1e-3 -6e-3 -2.0044 1.2023-1e-3v-0.75051h3.8753l-9e-4 0.75247h1.2515v2.0046l7.8694-1e-3 -6e-3 -2.0044 1.2023-1e-3v-0.75051h3.8753l-9e-4 0.75247h1.2515v2.0046l7.8662-4e-3 -6e-3 -2.0045 1.2023-9.9e-4v-0.75057h3.8752l-8.8e-4 0.75247h1.2514v2.0047l7.8348 0.0187-6e-3 -2.0045 1.2023-9.9e-4v-0.75053h3.8752l-9e-4 0.75247h1.2514v2.0047h3.2885z" fill="#1a1a1a"/><path d="m89.211 407.64-5.262 2e-3 4e-3 26.298 5.2855 2e-3v-1.2647l-4.2486 2e-3v-1.6376l0.41901-0.0137v-8.9782l12.917-8e-3 2e-3 8.986 0.41902 0.0137v1.6376l-4.2253-2e-3v1.2647h8.7566v-1.2647l-4.2506 2e-3v-1.6376l0.41902-0.0137 2e-3 -8.9782 12.917-8e-3v8.986l0.41901 0.0137v1.6376l-4.2253-2e-3v1.2647h8.9106v-1.2647l-4.2506 2e-3v-1.6376l0.41902-0.0137 2e-3 -8.9782 12.917-8e-3v8.986l0.41902 0.0137v1.6376l-4.2233-2e-3v1.2647h8.9086v-1.2647l-4.2506 2e-3v-1.6376l0.42097-0.0137v-8.9782l12.917-8e-3v8.986l0.42095 0.0137v1.6376l-4.2253-2e-3v1.2647h8.9088v-1.2647l-4.2486 2e-3v-1.6376l0.41902-0.0137v-8.9782l12.917-8e-3 2e-3 8.986 0.41903 0.0137v1.6376l-4.2253-2e-3v1.2647h8.8733v-1.2647l-4.2506 2e-3v-1.6376l0.41904-0.0137 2e-3 -9.0328 12.918-0.0295v9.0621l0.42096 0.0137v1.6376l-4.2253-2e-3v1.2647l5.262-2e-3 -4e-3 -26.298-5.2875-2e-3v1.2647l4.2506-2e-3v1.6376l-0.42096 0.0137v8.9782l-12.917 8e-3v-8.986l-0.42096-0.0137v-1.6376l4.2253 2e-3v-1.2636h-8.8734v1.2647l4.2506-2e-3v1.6376l-0.41901 0.0137-2e-3 9.0328-12.916 0.0276-2e-3 -9.0601-0.41902-0.0137v-1.6376l4.2253 2e-3v-1.2647h-8.9106v1.2647l4.2506-2e-3v1.6376l-0.41901 0.0137-2e-3 9.0328-0.01 0.01-12.908 0.0176v-9.0601l-0.41899-0.0137v-1.6376l4.2253 2e-3v-1.2647h-8.9105v1.2647l4.2506-2e-3v1.6376l-0.42097 0.0137v9.0328l-12.918 0.0274v-9.0601l-0.41902-0.0137v-1.6376l4.2233 2e-3v-1.2647h-8.9088v1.2647l4.2486-2e-3v1.6376l-0.41901 0.0137v9.0328l-12.918 0.0276v-9.0601l-0.42097-0.0137v-1.6376l4.2253 2e-3v-1.2647h-8.7566v1.2647l4.2506-2e-3v1.6376l-0.41902 0.0137-2e-3 9.0328-12.916 0.0276-2e-3 -9.0601-0.41899-0.0137v-1.6376l4.2253 2e-3z" fill="#ebebeb"/><g fill="#fff"><path d="m85.699 405.38h0.57044v-1.4977l-0.58555 0.11174v-0.40663l0.58218-0.11174h0.61408v1.9044h0.57044v0.41284h-1.7516z"/><path d="m142.22 405.26c0.77564 0.30187 1.1655 0.0487 1.2129-0.45473-0.67338 0.38764-1.3791 0.0127-1.3791-0.59753 0.01-0.66591 0.59937-0.82413 0.9664-0.82413 0.82871 0 1.0268 0.63138 1.0268 1.1702 0 1.1563-0.94113 1.412-1.8271 1.1346zm0.79696-0.68753c0.22151 0 0.34055-0.15465 0.34055-0.40661 0-0.25193-0.0971-0.4067-0.34055-0.4067-0.2434 0-0.34057 0.13691-0.34057 0.4067 0 0.26974 0.11902 0.40661 0.34057 0.40661z"/><path d="m111.26 436.34-0.69846 0.98428h0.69846zm-0.10604-0.49923h0.70839v1.4835h0.35255v0.43937h-0.35255v0.42838h-0.60246v-0.42838h-1.0957v-0.5197z"/><path d="m113.95 403.43h1.583v0.44029h-1.0752v0.35939c0.76225-0.13724 1.2538 0.18063 1.2538 0.76549 0 0.87279-1.0647 0.92282-1.8592 0.64886v-0.47141c0.66048 0.38878 1.2224 0.21563 1.2224-0.17736 0-0.47051-0.5925-0.47647-1.1248-0.25834z"/><path d="m127.89 403.47h1.8955v0.33699l-0.98061 1.9816h-0.63185l0.9284-1.8791h-1.2115z"/><path d="m154.87 435.82c-0.82094 0-1.0334 0.67488-1.0332 1.2031 2.2e-4 0.66066 0.27702 1.2015 1.0332 1.2012 0.75618-2.9e-4 1.0293-0.54826 1.0293-1.2012 0-0.6529-0.20836-1.2031-1.0293-1.2031zm-2.6035 0.0879-0.58203 0.11134v0.40625l0.58593-0.11134v1.498h-0.57031v0.41211h1.752v-0.41211h-0.57031v-1.9043zm2.6035 0.32032c0.29607 0 0.38282 0.25838 0.38282 0.78906 0 0.53069-0.082 0.80078-0.38282 0.80078-0.30083 0-0.38672-0.28294-0.38672-0.80078 0-0.51783 0.0906-0.78906 0.38672-0.78906z"/><path d="m155.75 403.47-0.58203 0.11328v0.40625l0.58594-0.11134v1.4961h-0.57031v0.41406h1.752v-0.41406h-0.57227v-1.9043zm2.3789 0-0.58203 0.11328v0.40625l0.58593-0.11134v1.4961h-0.57031v0.41406h1.752v-0.41406h-0.57032v-1.9043z"/><path d="m166.57 435.88-0.58204 0.11133v0.40625l0.58594-0.11133v1.498h-0.57031v0.4121h1.752v-0.4121h-0.57031v-1.9043z" stroke-width="1.8828"/><path d="m100.99 404.5c0.38662 0.10336 0.51582 0.34598 0.51582 0.58911 0 0.80926-1.1898 0.77182-1.8841 0.58614v-0.45925c0.60788 0.27696 1.2394 0.22301 1.2394-0.14848 0.0157-0.34236-0.55269-0.32006-0.55269-0.32006h-0.2579v-0.38346h0.27131c0.14637 0 0.48075-5e-3 0.48075-0.28458 0-0.40106-0.76758-0.2827-1.0734-0.1501v-0.43604c0.82218-0.21988 1.7183-0.12215 1.7183 0.49339 0 0.35557-0.25306 0.45854-0.45748 0.51333z"/><path d="m124.37 437.05c0 0.66794 0.31198 1.1699 1.0312 1.1699 0.39993 0 0.97352-0.16222 0.97852-0.82032 0-0.60496-0.6981-0.99704-1.3887-0.60156 0-0.4558 0.38951-0.76647 1.2226-0.45117v-0.42968c-1.1218-0.3006-1.8436 0.149-1.8436 1.1328zm1.039-0.0195c0.27204 0 0.34375 0.19797 0.34375 0.40821s-0.0798 0.40625-0.34375 0.40625c-0.26397 0-0.3418-0.16457-0.3418-0.40625 0-0.24167 0.0697-0.40821 0.3418-0.40821z"/></g><rect x="175.05" y="407.23" width="87.248" height="27.121" rx=".31701" ry=".13971" fill="#3a3a3a" stroke="#000" stroke-width=".5"/><path d="m247.29 409v1.416h3.291v-1.416zm-70.75 4e-3v1.416h3.291v-1.416zm14.039 2e-3v1.416h3.291v-1.416zm14.191 0v1.416h3.293v-1.416zm14.193 0v1.416h3.291v-1.416zm14.186 4e-3v1.416h3.291v-1.416zm-46.4 2e-3v1.4082h3.2617v-1.4085zm14.037 2e-3v1.4082h3.2637v-1.4082zm14.193 0v1.4082h3.2617v-1.4082zm14.191 0v1.4082h3.2637v-1.4082zm14.199 0v1.4082h3.2617v-1.4082zm14.141 0.0137v1.4082h3.2637v-1.4082zm-10.176 22.125v1.4082h3.2617v-1.4082zm10.191 0v1.416h3.291v-1.416zm-80.959 2e-3v1.4082h3.2617v-1.4082zm10.197 0v1.416h3.293v-1.416zm3.8418 0v1.4102h3.2617v-1.4102zm10.197 0v1.418h3.291v-1.418zm3.9941 0v1.4102h3.2637v-1.4102zm10.197 0v1.418h3.293v-1.418zm3.9941 0v1.4102h3.2637v-1.4102zm10.199 0v1.418h3.291v-1.418zm3.8398 0.0937v1.418h3.293v-1.418zm10.221 4e-3v1.4102h3.2637v-1.4102z" fill="#abb927"/><path d="m260.53 430.61h-3.3038l6e-3 2.0044-1.2023 1e-3v0.75051h-3.8753l9.1e-4 -0.75247h-1.2515v-2.0046l-7.7162-8.1e-4 6e-3 2.0044-1.2023 1e-3v0.75051h-3.8753l9.1e-4 -0.75247h-1.2515v-2.0046l-7.8695 1e-3 6e-3 2.0044-1.2023 1e-3v0.75051h-3.8753l9e-4 -0.75246h-1.2514v-2.0046l-7.8694 1e-3 6e-3 2.0044-1.2023 1e-3v0.7505h-3.8753l9e-4 -0.75246h-1.2515v-2.0046l-7.8662 4e-3 6e-3 2.0045-1.2023 1e-3v0.75074h-3.8752l8.8e-4 -0.75247h-1.2514v-2.0047l-7.8348-0.0187 6e-3 2.0045-1.2023 9.9e-4v0.75054h-3.8752l9.1e-4 -0.75248h-1.2514v-2.0047h-3.2885l-0.019-19.647h3.3038l-6e-3 -2.0044 1.2023-1e-3v-0.75051h3.8753l-9e-4 0.75247h1.2515v2.0046l7.7162 8e-4 -6e-3 -2.0044 1.2023-1e-3v-0.75051h3.8753l-9e-4 0.75247h1.2515v2.0046l7.8695-1e-3 -6e-3 -2.0044 1.2023-1e-3v-0.75051h3.8753l-9e-4 0.75247h1.2515v2.0046l7.8694-1e-3 -6e-3 -2.0044 1.2023-1e-3v-0.75051h3.8753l-9e-4 0.75247h1.2515v2.0046l7.8662-4e-3 -6e-3 -2.0045 1.2023-9.9e-4v-0.75057h3.8752l-8.8e-4 0.75247h1.2514v2.0047l7.8348 0.0187-6e-3 -2.0045 1.2023-9.9e-4v-0.75053h3.8752l-9.1e-4 0.75247h1.2514v2.0047h3.2885z" fill="#1a1a1a"/><path d="m180.64 407.63-5.262 2e-3 4e-3 26.298 5.2855 2e-3v-1.2647l-4.2486 2e-3v-1.6376l0.41902-0.0137v-8.9782l12.917-8e-3 2e-3 8.986 0.41902 0.0137v1.6376l-4.2253-2e-3v1.2647h8.7566v-1.2647l-4.2506 2e-3v-1.6376l0.41902-0.0137 2e-3 -8.9782 12.917-8e-3v8.986l0.41901 0.0137v1.6376l-4.2253-2e-3v1.2647h8.9106v-1.2647l-4.2506 2e-3v-1.6376l0.41902-0.0137 2e-3 -8.9782 12.917-8e-3v8.986l0.41902 0.0137v1.6376l-4.2233-2e-3v1.2647h8.9086v-1.2647l-4.2506 2e-3v-1.6376l0.42097-0.0137v-8.9782l12.917-8e-3v8.986l0.42096 0.0137v1.6376l-4.2253-2e-3v1.2647h8.9088v-1.2647l-4.2486 2e-3v-1.6376l0.41902-0.0137v-8.9782l12.917-8e-3 2e-3 8.986 0.41903 0.0137v1.6376l-4.2253-2e-3v1.2647h8.8733v-1.2647l-4.2506 2e-3v-1.6376l0.41903-0.0137 2e-3 -9.0328 12.918-0.0295v9.0621l0.42097 0.0137v1.6376l-4.2253-2e-3v1.2647l5.262-2e-3 -4e-3 -26.298-5.2875-2e-3v1.2647l4.2506-2e-3v1.6376l-0.42096 0.0137v8.9782l-12.917 8e-3v-8.986l-0.42095-0.0137v-1.6376l4.2253 2e-3v-1.2636h-8.8734v1.2647l4.2506-2e-3v1.6376l-0.41901 0.0137-2e-3 9.0328-12.916 0.0276-2e-3 -9.0601-0.41901-0.0137v-1.6376l4.2253 2e-3v-1.2647h-8.9106v1.2647l4.2506-2e-3v1.6376l-0.41901 0.0137-2e-3 9.0328-0.01 0.01-12.908 0.0176v-9.0601l-0.41899-0.0137v-1.6376l4.2253 2e-3v-1.2647h-8.9105v1.2647l4.2506-2e-3v1.6376l-0.42097 0.0137v9.0328l-12.918 0.0274v-9.0601l-0.41901-0.0137v-1.6376l4.2233 2e-3v-1.2647h-8.9088v1.2647l4.2486-2e-3v1.6376l-0.41901 0.0137v9.0328l-12.918 0.0276v-9.0601l-0.42097-0.0137v-1.6376l4.2253 2e-3v-1.2647h-8.7566v1.2647l4.2506-2e-3v1.6376l-0.41902 0.0137-2e-3 9.0328-12.916 0.0276-2e-3 -9.0601-0.41899-0.0137v-1.6376l4.2253 2e-3z" fill="#ebebeb"/><g fill="#fff"><path d="m235.35 403.49-0.58203 0.11328v0.40625l0.58399-0.11132v1.4961h-0.57032v0.41406h1.752v-0.41406h-0.57032v-1.9043z" stroke-width="1.8828"/><path d="m250.32 404.54c0.38662 0.10336 0.51581 0.34598 0.51581 0.58911 0 0.80926-1.1898 0.77181-1.8841 0.58614v-0.45925c0.60788 0.27696 1.2394 0.223 1.2394-0.14848 0.0157-0.34236-0.55269-0.32006-0.55269-0.32006h-0.2579v-0.38346h0.27131c0.14637 0 0.48075-5e-3 0.48075-0.28458 0-0.40106-0.76758-0.2827-1.0734-0.1501v-0.43604c0.82218-0.21988 1.7183-0.12215 1.7183 0.49339 0 0.35557-0.25306 0.45854-0.45748 0.51333z"/><path d="m189.57 435.84-0.99023 1.4043v0.51953h1.0957v0.42773h0.60156v-0.42773h0.35352v-0.43946h-0.35352v-1.4844zm-2.4355 0.0351-0.58204 0.11133v0.40625l0.58594-0.11133v1.498h-0.57031v0.41211h1.752v-0.41211h-0.57226v-1.9043zm2.541 0.46485v0.98438h-0.69922z"/><path d="m192.3 403.45v1.3086c0.53227-0.21812 1.125-0.21269 1.125 0.25782 0 0.39298-0.56217 0.56652-1.2226 0.17773v0.4707c0.79449 0.27396 1.8594 0.22436 1.8594-0.64843 0-0.58486-0.49166-0.90286-1.2539-0.76563v-0.35937h1.0762v-0.4414zm-1.7832 0.0449-0.58398 0.11133v0.4082l0.58593-0.11327v1.498h-0.57031v0.41406h1.752v-0.41406h-0.57031v-1.9043z"/><path d="m206.27 403.47v0.43946h1.2109l-0.92774 1.8789h0.63086l0.98047-1.9824v-0.33594zm-1.5879 2e-3 -0.58203 0.11134v0.40625l0.58594-0.11134v1.498h-0.57032v0.4121h1.75v-0.4121h-0.57031v-1.9043z"/><path d="m217.99 435.82c-0.4431 0-0.9375 0.10235-0.9375 0.60156 0 0.13565 0.0439 0.41346 0.46289 0.52344-0.14643 0.039-0.51953 0.16043-0.51953 0.58398 0 0.42941 0.29687 0.71177 0.99414 0.69727 0.49176 0 0.98828-0.12124 0.98828-0.69727 0-0.22938-0.11612-0.47654-0.51953-0.58398 0.16991-0.0452 0.46485-0.17908 0.46485-0.52344 0-0.33812-0.24557-0.60156-0.9336-0.60156zm-2.6797 0.0879-0.58204 0.11327v0.40625l0.58594-0.11133v1.4961h-0.57031v0.41407h1.752v-0.41407h-0.57226v-1.9043zm2.6797 0.28711c0.1629 0 0.31836 0.0648 0.31836 0.2871 0 0.22234-0.15808 0.28711-0.31836 0.28711-0.16026 0-0.32226-0.0707-0.32226-0.28711 0-0.21645 0.15943-0.2871 0.32226-0.2871zm0 0.94726c0.2351 0 0.37305 0.10666 0.37305 0.35548 0 0.24885-0.16533 0.35156-0.37305 0.35156s-0.3789-0.12147-0.3789-0.35156c0-0.23003 0.14386-0.35548 0.3789-0.35548z"/><path d="m232.19 435.81c-0.82093 0-1.0334 0.67487-1.0332 1.2031 2.2e-4 0.66066 0.27702 1.2015 1.0332 1.2012 0.75619-3.2e-4 1.0293-0.54827 1.0293-1.2012 0-0.6529-0.20835-1.2031-1.0293-1.2031zm0 0.40818c0.29607 0 0.38282 0.25836 0.38282 0.78905 0 0.5307-0.082 0.80077-0.38282 0.80077-0.30083 0-0.38671-0.28294-0.38671-0.80077s0.0906-0.78905 0.38671-0.78905z" stroke-width="1.8828"/><path d="m260.55 435.85-0.98828 1.4043v0.51953h1.0957v0.42773h0.60157v-0.42773h0.35351v-0.43945h-0.35351v-1.4844zm0.10741 0.5v0.98438h-0.69921z"/><path d="m176.5 403.51-0.58203 0.11134v0.40625l0.58398-0.11134v1.498h-0.57031v0.41211h1.752v-0.41211h-0.57031v-1.9043z"/><path d="m179.51 404.54c0.38662 0.10336 0.51582 0.34599 0.51582 0.58911 0 0.80926-1.1898 0.77182-1.8841 0.58615v-0.45925c0.60788 0.27695 1.2394 0.223 1.2394-0.14848 0.0157-0.34236-0.5527-0.32007-0.5527-0.32007h-0.2579v-0.38346h0.27131c0.14637 0 0.48075-5e-3 0.48075-0.28458 0-0.40105-0.76758-0.2827-1.0734-0.1501v-0.43604c0.82218-0.21988 1.7183-0.12215 1.7183 0.49339 0 0.35557-0.25306 0.45854-0.45748 0.51333z"/><path d="m201.14 435.89-0.58204 0.11135v0.40821l0.58594-0.11329v1.498h-0.57031v0.41407h1.752v-0.41407h-0.57226v-1.9043z"/><path d="m202.83 437.04c0 0.66793 0.31197 1.1699 1.0312 1.1699 0.39994 0 0.97352-0.16222 0.97852-0.82032 0-0.60496-0.6981-0.99704-1.3887-0.60156 0-0.4558 0.38951-0.76647 1.2226-0.45117v-0.42969c-1.1218-0.30059-1.8436 0.14901-1.8436 1.1328zm1.039-0.0195c0.27204 0 0.34375 0.19797 0.34375 0.40821s-0.0798 0.40625-0.34375 0.40625c-0.26397 0-0.3418-0.16457-0.3418-0.40625 0-0.24167 0.0697-0.40821 0.3418-0.40821z"/></g><path d="m74.448 415.26h3.9519l7.04e-4 2.4-3.9528 4.1e-4z" fill="#ff0" stroke="#ff0" stroke-linejoin="round" stroke-width=".853"/><g stroke-width=".70316"><path d="m77.048 417.23v0.54887l1.5587-1.3363-1.5587-1.3126v0.54887h-1.2952l1.4389 0.54887v-0.21481l0.71975 0.42961-0.71975 0.42961v-0.19109c-0.0083-0.0146-1.4389 0.54887-1.4389 0.54887z"/><path d="m75.494 416.14h0.43618v0.12163h-0.27456v0.11619h0.25819v0.12163h-0.25819v0.14294h0.2838v0.12163h-0.44542z"/><path d="m76.408 416.23v0.21902h0.21915v0.0986h-0.21915v0.21901h-0.09991v-0.21901h-0.21915v-0.0986h0.21915v-0.21902z"/><path d="m74.29 416.14h0.26827c0.23021 0 0.24769 0.12598 0.24769 0.20355 0 0.20303-0.17525 0.20396-0.24769 0.20396h-0.10663v0.21651h-0.16163zm0.16163 0.11661v0.17429h0.08943c0.07382 0 0.09824-0.0484 0.09824-0.0874 0-0.0807-0.09824-0.0869-0.09824-0.0869z"/><path d="m75.129 416.39c-0.08525 0-0.10244 0.0629-0.10244 0.13875 0 0.0759 0.02581 0.13877 0.10244 0.13877 0.07665 0 0.10118-0.0746 0.10118-0.13877 0-0.0641-0.01589-0.13875-0.10118-0.13875zm0-0.10701c0.13666 0 0.25777 0.0849 0.25777 0.24577 0 0.16085-0.12354 0.24577-0.25777 0.24577s-0.25904-0.0733-0.25904-0.24577c0-0.1725 0.12238-0.24577 0.25904-0.24577z"/></g><path d="m272.16 436.52h0.18747v0.68364c0 0.22532 0.0822 0.32401 0.25271 0.32401 0.17049 0 0.32803-0.0989 0.32803-0.36068v-0.64697h0.18746v1.1411h-0.18746v-0.17524c-0.0485 0.0557-0.11327 0.20476-0.36781 0.20476s-0.40041-0.15381-0.40041-0.47987z" stroke-width=".39124"/><path d="m275.06 437.04v0.0917h-0.86195c0 0.33234 0.25242 0.39633 0.40754 0.39633s0.27556-0.0262 0.4106-0.106v0.17728c-0.0829 0.0415-0.20566 0.0876-0.42181 0.0876s-0.59195-0.0976-0.59195-0.58889c0-0.49125 0.33436-0.61015 0.55935-0.60927 0.24768 9.7e-4 0.49822 0.16695 0.49822 0.55125zm-0.18747-0.055c0-0.15175-0.0894-0.33724-0.30871-0.33724-0.2193 0-0.35966 0.16053-0.35966 0.33822z" stroke-width=".39124"/><g stroke-width=".064724"><path d="m154.84 439.94v0.7092h0.32109c0.27243 0 0.37289-0.14543 0.37289-0.35524s-0.0988-0.35398-0.37289-0.35398zm-0.25536-0.20985h0.57645c0.50089 0 0.6422 0.26391 0.6422 0.56382s-0.14819 0.56508-0.6422 0.56508h-0.32109v0.75849h-0.25536z"/><path d="m156.59 440.37c-0.32887 0-0.40453 0.32502-0.40453 0.54612s0.0665 0.54611 0.40453 0.54611c0.338 0 0.40327-0.32625 0.40327-0.54611s-0.0744-0.54612-0.40327-0.54612zm0-0.19721c0.42292 0 0.64978 0.28419 0.64978 0.74333s-0.23415 0.74332-0.64978 0.74332-0.64978-0.28801-0.64978-0.74332 0.22686-0.74333 0.64978-0.74333z"/><path d="m164.49 439.9c-0.33502 0-0.39568 0.40565-0.39568 0.77746s0.0737 0.7762 0.39568 0.7762c0.32197 0 0.39698-0.40051 0.39698-0.7762s-0.062-0.77746-0.39698-0.77746zm0-0.20226c0.47237 0 0.6523 0.40399 0.6523 0.97972s-0.19558 0.97846-0.6523 0.97846-0.65231-0.40769-0.65231-0.97846 0.17994-0.97972 0.65231-0.97972z"/><path d="m168.66 439.9c-0.33502 0-0.39568 0.40565-0.39568 0.77746s0.0737 0.7762 0.39568 0.7762c0.32197 0 0.39698-0.40051 0.39698-0.7762s-0.062-0.77746-0.39698-0.77746zm0-0.20226c0.47237 0 0.6523 0.40399 0.6523 0.97972s-0.19558 0.97846-0.6523 0.97846-0.65231-0.40769-0.65231-0.97846 0.17994-0.97972 0.65231-0.97972z"/><path d="m170.31 439.9c-0.33502 0-0.39567 0.40565-0.39567 0.77746s0.0737 0.7762 0.39567 0.7762 0.39699-0.40051 0.39699-0.7762-0.062-0.77746-0.39699-0.77746zm0-0.20226c0.47237 0 0.65231 0.40399 0.65231 0.97972s-0.19559 0.97846-0.65231 0.97846c-0.45671 0-0.65231-0.40769-0.65231-0.97846s0.17994-0.97972 0.65231-0.97972z"/><path d="m174.48 439.9c-0.33502 0-0.39568 0.40565-0.39568 0.77746s0.0737 0.7762 0.39568 0.7762c0.32197 0 0.39698-0.40051 0.39698-0.7762s-0.062-0.77746-0.39698-0.77746zm0-0.20226c0.47237 0 0.6523 0.40399 0.6523 0.97972s-0.19558 0.97846-0.6523 0.97846-0.65231-0.40769-0.65231-0.97846 0.17994-0.97972 0.65231-0.97972z"/><path d="m176.13 439.9c-0.33502 0-0.39567 0.40565-0.39567 0.77746s0.0737 0.7762 0.39567 0.7762 0.39699-0.40051 0.39699-0.7762-0.062-0.77746-0.39699-0.77746zm0-0.20226c0.47237 0 0.65231 0.40399 0.65231 0.97972s-0.19559 0.97846-0.65231 0.97846c-0.45671 0-0.65231-0.40769-0.65231-0.97846s0.17994-0.97972 0.65231-0.97972z"/><path d="m177.78 439.9c-0.33502 0-0.39568 0.40565-0.39568 0.77746s0.0737 0.7762 0.39568 0.7762c0.32197 0 0.39698-0.40051 0.39698-0.7762s-0.062-0.77746-0.39698-0.77746zm0-0.20226c0.47237 0 0.6523 0.40399 0.6523 0.97972s-0.19558 0.97846-0.6523 0.97846-0.65231-0.40769-0.65231-0.97846 0.17994-0.97972 0.65231-0.97972z"/><path d="m179.11 440.72v0.69149h0.40959c0.27911 0 0.40456-0.11699 0.40456-0.34638s-0.12738-0.34512-0.40456-0.34512zm0-0.7762v0.56887h0.37799c0.21725 0 0.37041-0.0641 0.37041-0.2844 0-0.22027-0.17636-0.28445-0.37041-0.28445zm-0.25536-0.20985h0.65231c0.48031 0 0.60806 0.24232 0.60806 0.46648s-0.13109 0.39034-0.31856 0.40326c0.27989 0.075 0.39695 0.26898 0.39695 0.48923s-0.10367 0.52842-0.66116 0.52842h-0.67759z"/><path d="m183.53 439.8v0.24904c-0.16142-0.0932-0.34357-0.13776-0.52336-0.13776-0.26442 4e-3 -0.42695 0.0861-0.43487 0.31097-8e-3 0.22492 0.16112 0.24733 0.3603 0.29203l0.15423 0.0316c0.26327 0.0674 0.5575 0.15049 0.5575 0.55876s-0.32305 0.55749-0.7231 0.55749-0.59795-0.12-0.59795-0.12v-0.26295c0.19196 0.11083 0.41478 0.17577 0.59795 0.17577 0.14102 0 0.45636-0.0396 0.45636-0.33125 0-0.2917-0.30113-0.31779-0.36537-0.335l-0.1555-0.0303s-0.54106-0.0488-0.54106-0.51578c0-0.467 0.43936-0.53853 0.66242-0.53853 0.19769-0.0173 0.4292 0.0592 0.55245 0.0959z"/><path d="m189.04 439.94v0.7092h0.32109c0.27243 0 0.37289-0.14543 0.37289-0.35524s-0.0988-0.35398-0.37289-0.35398zm-0.25536-0.20985h0.57645c0.50089 0 0.6422 0.26391 0.6422 0.56382s-0.14819 0.56508-0.6422 0.56508h-0.32109v0.75849h-0.25536z"/><path d="m190.79 440.37c-0.32887 0-0.40453 0.32502-0.40453 0.54612s0.0665 0.54611 0.40453 0.54611c0.338 0 0.40327-0.32625 0.40327-0.54611s-0.0744-0.54612-0.40327-0.54612zm0-0.19721c0.42292 0 0.64978 0.28419 0.64978 0.74333s-0.23415 0.74332-0.64978 0.74332-0.64978-0.28801-0.64978-0.74332 0.22686-0.74333 0.64978-0.74333z"/><path d="m192.65 440.42c-0.43929-0.16825-0.59546 0.15627-0.59546 0.45252v0.74585h-0.23387v-1.4159h0.23387v0.21997c0.16862-0.29205 0.48596-0.26557 0.59419-0.24109z"/><path d="m193.13 439.8v0.402h0.47912v0.18078h-0.47912v0.76861c0 0.26339 0.0864 0.27179 0.24021 0.27179h0.23893v0.19468h-0.23893c-0.48513 0-0.47406-0.27937-0.47406-0.4665v-0.76861h-0.17066v-0.18078h0.17066v-0.402z"/><path d="m194.82 440.25v0.21996c-0.14197-0.0675-0.28873-0.1012-0.42476-0.1012s-0.34642 0.0326-0.34642 0.21238c0 0.17974 0.31094 0.21488 0.31094 0.21488l0.0796 0.0177c0.14295 0.0383 0.45636 0.0988 0.45636 0.4197 0 0.32094-0.29319 0.42728-0.58531 0.42728s-0.49681-0.0884-0.49681-0.0884v-0.24019c0.1555 0.0898 0.32426 0.13403 0.50187 0.13403s0.34133-0.0525 0.34133-0.21489c0-0.16238-0.12624-0.18435-0.34388-0.24267l-0.0809-0.019c-6e-3 -0.013-0.41211-0.0234-0.40834-0.39821 4e-3 -0.37477 0.39188-0.41717 0.54359-0.41717s0.30884 0.0245 0.45257 0.0759z"/></g><g fill="#fff"><g stroke-width="1.8828"><path d="m257.95 435.84c-0.20889 0.0163-0.43181 0.0604-0.65039 0.12696v0.51172c0.69595-0.49566 1.5783-0.14719 0.90625 0.52931l-0.91211 0.74804v0.44139h1.8144v-0.44139h-1.0996l0.53516-0.43554c0.27534-0.23271 0.52747-0.40436 0.54687-0.79493 0-0.60185-0.60349-0.70724-1.1406-0.68556z"/><path d="m246.24 435.84c-0.20889 0.0163-0.43181 0.0604-0.65039 0.12696v0.51172c0.69595-0.49566 1.5783-0.14719 0.90625 0.52931l-0.91211 0.74804v0.44139h1.8144v-0.44139h-1.0996l0.53516-0.43554c0.27534-0.23271 0.52747-0.40436 0.54687-0.79493 0-0.60185-0.60349-0.70724-1.1406-0.68556z"/><path d="m243.86 435.84c-0.20889 0.0163-0.43181 0.0604-0.65039 0.12696v0.51172c0.69595-0.49566 1.5783-0.14719 0.90625 0.52931l-0.91211 0.74804v0.44139h1.8144v-0.44139h-1.0996l0.53516-0.43554c0.27534-0.23271 0.52747-0.40436 0.54687-0.79493 0-0.60185-0.60349-0.70724-1.1406-0.68556z"/><path d="m229.55 435.86c-0.20889 0.0163-0.43181 0.0604-0.65039 0.12696v0.51172c0.69595-0.49566 1.5783-0.14719 0.90625 0.52931l-0.91211 0.74804v0.44139h1.8144v-0.44139h-1.0996l0.53516-0.43554c0.27534-0.23271 0.52747-0.40436 0.54687-0.79493 0-0.60185-0.60349-0.70724-1.1406-0.68556z"/><path d="m233.2 403.45c-0.20889 0.0163-0.43181 0.0604-0.65039 0.12696v0.51172c0.69595-0.49566 1.5783-0.14719 0.90625 0.52931l-0.91211 0.74804v0.44139h1.8144v-0.44139h-1.0996l0.53516-0.43554c0.27534-0.23271 0.52747-0.40436 0.54687-0.79493 0-0.60185-0.60349-0.70724-1.1406-0.68556z"/><path d="m247.27 403.47c-0.20889 0.0163-0.43181 0.0604-0.65039 0.12696v0.51172c0.69595-0.49566 1.5783-0.14719 0.90625 0.52931l-0.91211 0.74804v0.44139h1.8144v-0.44139h-1.0996l0.53516-0.43554c0.27534-0.23271 0.52747-0.40436 0.54687-0.79493 0-0.60185-0.60349-0.70724-1.1406-0.68556z"/><path d="m168.91 435.84c-0.20889 0.0163-0.43181 0.0604-0.65039 0.12696v0.51172c0.69595-0.49566 1.5783-0.14719 0.90625 0.52931l-0.91211 0.74804v0.44139h1.8144v-0.44139h-1.0996l0.53516-0.43554c0.27534-0.23271 0.52747-0.40436 0.54687-0.79493 0-0.60185-0.60349-0.70724-1.1406-0.68556z"/><path d="m96.94 435.84c-0.20889 0.0163-0.43181 0.0604-0.65039 0.12696v0.51172c0.69595-0.49566 1.5783-0.14719 0.90625 0.52931l-0.91211 0.74804v0.44139h1.8144v-0.44139h-1.0996l0.53516-0.43554c0.27534-0.23271 0.52747-0.40436 0.54687-0.79493 0-0.60185-0.60349-0.70724-1.1406-0.68556z"/></g><path d="m221.42 403.43c-0.38713 0-0.95484 0.1583-0.96484 0.82423 0 0.61023 0.70554 0.9853 1.3789 0.59766-0.0474 0.50342-0.43725 0.755-1.2129 0.45312v0.42969c0.88597 0.27741 1.8262 0.0215 1.8262-1.1348 0-1.0135-0.64023-1.1699-1.0274-1.1699zm-2.5527 0.0899-0.58203 0.11131v0.40625l0.58594-0.11131v1.498h-0.57032v0.41211h1.75v-0.41211h-0.57031v-1.9043zm2.5508 0.28514c0.24345 0 0.33986 0.15432 0.33986 0.40625 0 0.25196-0.11834 0.40625-0.33986 0.40625-0.22155 0-0.3418-0.1365-0.3418-0.40625 0-0.26979 0.0984-0.40625 0.3418-0.40625z"/><path d="m139.66 437.14c-0.23504 0-0.37844 0.12413-0.37844 0.35414 0 0.2301 0.17072 0.3525 0.37844 0.3525 0.20771 0 0.37328-0.10365 0.37328-0.3525 0-0.24881-0.13818-0.35414-0.37328-0.35414zm-0.47473-0.19722c-0.41897-0.10998-0.46287-0.38925-0.46287-0.52489 0-0.49921 0.49456-0.60092 0.93766-0.60092 0.68803 0 0.93428 0.26281 0.93428 0.60092 0 0.34435-0.29472 0.47967-0.46462 0.52489 0.40341 0.10745 0.51857 0.35296 0.51857 0.58234 0 0.57602-0.49659 0.6972-0.98835 0.6972-0.69727 0.0145-0.9934-0.26779-0.9934-0.6972 0-0.41089 0.33784-0.53387 0.51873-0.58234zm0.15198-0.46434c0 0.21646 0.16244 0.28724 0.32269 0.28724 0.16028 0 0.31765-0.0649 0.31765-0.28724 0-0.22226-0.15474-0.28566-0.31765-0.28566-0.16282 0-0.32269 0.0692-0.32269 0.28566z"/></g></svg>
