<?xml version="1.0" encoding="UTF-8"?>
<svg width="207" height="42.7" version="1.1" viewBox="70.4 401.06667 207 42.700001" xmlns="http://www.w3.org/2000/svg" xmlns:cc="http://creativecommons.org/ns#" xmlns:dc="http://purl.org/dc/elements/1.1/" xmlns:rdf="http://www.w3.org/1999/02/22-rdf-syntax-ns#">
 <metadata>
  <rdf:RDF>
   <cc:Work rdf:about="">
    <dc:format>image/svg+xml</dc:format>
    <dc:type rdf:resource="http://purl.org/dc/dcmitype/StillImage"/>
    <dc:title/>
   </cc:Work>
  </rdf:RDF>
 </metadata>
 <path d="m71.389 401.45c-0.54822 0-0.98828 0.35958-0.98828 0.80469v39.46c0 0.44512 0.44007 0.80274 0.98828 0.80274h205.02c0.54822 0 0.98828-0.35762 0.98828-0.80274v-39.46c0-0.44511-0.44006-0.80469-0.98828-0.80469zm3.7598 4.734c2.0215-1.7e-4 3.6604 1.6387 3.6602 3.6602 1.66e-4 2.0215-1.6387 3.6604-3.6602 3.6602-2.0215 1.7e-4 -3.6604-1.6387-3.6602-3.6602-1.66e-4 -2.0215 1.6387-3.6604 3.6602-3.6602z" fill="#ccc" stroke-width="1.3871"/>
 <g transform="translate(-35.498 73.682)" fill-rule="evenodd" stroke="#000" stroke-linecap="round" stroke-width=".084846">
  <circle cx="309.74" cy="349.12" r="2.8437" fill="#bebebe"/>
  <circle cx="309.74" cy="349.12" r="1.1202" fill="#ececec"/>
 </g>
 <g transform="translate(-235.95 73.682)" fill-rule="evenodd" stroke="#000" stroke-linecap="round" stroke-width=".084846">
  <circle cx="309.74" cy="349.12" r="2.8437" fill="#bebebe"/>
  <circle cx="309.74" cy="349.12" r="1.1202" fill="#ececec"/>
 </g>
 <rect x="70.4" y="440.12" width="54.034" height="2.3998" fill="#ececec"/>
 <rect x="223.36" y="440.12" width="54.034" height="2.3998" fill="#ececec"/>
 <rect x="84.057" y="442.54" width="179.68" height="1.2256" fill="#666"/>
 <g transform="translate(0 .79142)" fill="#000000" font-family="sans-serif" letter-spacing="0px" word-spacing="0px">
  <text x="267.73715" y="433.71582" font-size="40px" style="line-height:1.25" xml:space="preserve"><tspan x="267.73715" y="433.71582" fill="#000000" font-size="5.3333px">zl2</tspan></text>
  <text x="267.58096" y="436.86777" font-size="2.0866px" stroke-width=".39124" style="line-height:1.25" xml:space="preserve"><tspan x="267.58096" y="436.86777" fill="#000000" stroke-width=".39124">Module</tspan></text>
 </g>
 <g transform="translate(-1.4142 -.094382)" fill="#000000" font-family="sans-serif" font-size="2.0866px" font-weight="bold" letter-spacing="0px" stroke-width=".39124" word-spacing="0px">
  <text x="73.47879" y="430.72464" style="line-height:1.25" xml:space="preserve"><tspan x="73.47879" y="430.72464" fill="#000000" font-family="sans-serif" font-weight="bold" stroke-width=".39124">24p Gig-T</tspan></text>
  <text x="76.017761" y="434.26559" style="line-height:1.25" xml:space="preserve"><tspan x="76.017761" y="434.26559" fill="#000000" font-family="sans-serif" font-weight="bold" stroke-width=".39124">PoEP </tspan></text>
  <text x="75.037628" y="437.36539" style="line-height:1.25" xml:space="preserve"><tspan x="75.037628" y="437.36539" fill="#000000" font-family="sans-serif" font-weight="bold" stroke-width=".39124">J9986A</tspan></text>
 </g>
 <g>
  <rect x="154.55" y="402.91" width="5.3849" height="4.2513"/>
  <rect x="83.875" y="402.91" width="5.3849" height="4.2513"/>
  <rect x="97.871" y="402.91" width="5.3849" height="4.2513"/>
  <rect x="112.09" y="402.91" width="5.3849" height="4.2513"/>
  <rect x="126.15" y="402.91" width="5.3849" height="4.2513"/>
  <rect x="140.36" y="402.91" width="5.3849" height="4.2513"/>
  <rect x="94.498" y="434.54" width="5.3849" height="4.2513"/>
  <rect x="108.5" y="434.54" width="5.3849" height="4.2513"/>
  <rect x="122.68" y="434.54" width="5.3849" height="4.2513"/>
  <rect x="136.96" y="434.54" width="5.3849" height="4.2513"/>
  <rect x="151.1" y="434.54" width="5.3849" height="4.2513"/>
  <rect x="165.34" y="434.54" width="5.3849" height="4.2513"/>
 </g>
 <g transform="matrix(1.8786 0 0 1.8829 -239.52 -268.86)">
  <text transform="scale(1.0397 .96177)" x="173.45682" y="390.23068" fill="#000000" font-family="sans-serif" font-size="1.7552px" style="line-height:0%">
   <tspan x="172.35254" y="390.23068" fill="#ffffff" font-family="sans-serif" font-weight="bold" text-align="center" text-anchor="middle">2</tspan>
  </text>
 </g>
 <g transform="matrix(1.8786 0 0 1.8829 -225.43 -268.86)">
  <text transform="scale(1.0397 .96177)" x="173.45682" y="390.23068" fill="#000000" font-family="sans-serif" font-size="1.7552px" style="line-height:0%">
   <tspan x="172.35254" y="390.23068" fill="#ffffff" font-family="sans-serif" font-weight="bold" text-align="center" text-anchor="middle">4</tspan>
  </text>
 </g>
 <g transform="matrix(1.8786 0 0 1.8829 -211.29 -268.86)">
  <text transform="scale(1.0397 .96177)" x="173.45682" y="390.23068" fill="#000000" font-family="sans-serif" font-size="1.7552px" style="line-height:0%">
   <tspan x="172.35254" y="390.23068" fill="#ffffff" font-family="sans-serif" font-weight="bold" text-align="center" text-anchor="middle">6</tspan>
  </text>
 </g>
 <g transform="matrix(1.8786 0 0 1.8829 -196.97 -268.86)">
  <text transform="scale(1.0397 .96177)" x="173.45682" y="390.23068" fill="#000000" font-family="sans-serif" font-size="1.7552px" style="line-height:0%">
   <tspan x="172.35254" y="390.23068" fill="#ffffff" font-family="sans-serif" font-weight="bold" text-align="center" text-anchor="middle">8</tspan>
  </text>
 </g>
 <g transform="matrix(1.8786 0 0 1.8829 -182.83 -268.86)">
  <text transform="scale(1.0397 .96177)" x="173.45682" y="390.23068" fill="#000000" font-family="sans-serif" font-size="1.7552px" style="line-height:0%">
   <tspan x="172.35254" y="390.23068" fill="#ffffff" font-family="sans-serif" font-weight="bold" text-align="center" text-anchor="middle">10</tspan>
  </text>
 </g>
 <g transform="matrix(1.8786 0 0 1.8829 -168.68 -268.86)">
  <text transform="scale(1.0397 .96177)" x="173.45682" y="390.23068" fill="#000000" font-family="sans-serif" font-size="1.7552px" style="line-height:0%">
   <tspan x="172.35254" y="390.23068" fill="#ffffff" font-family="sans-serif" font-weight="bold" text-align="center" text-anchor="middle">12</tspan>
  </text>
 </g>
 <g>
  <rect x="175.28" y="402.91" width="5.3849" height="4.2513"/>
  <rect x="189.3" y="402.91" width="5.3849" height="4.2513"/>
  <rect x="203.44" y="402.91" width="5.3849" height="4.2513"/>
  <rect x="217.67" y="402.91" width="5.3849" height="4.2513"/>
  <rect x="231.85" y="402.91" width="5.3849" height="4.2513"/>
  <rect x="246.03" y="402.91" width="5.3849" height="4.2513"/>
 </g>
 <g transform="matrix(1.8786 0 0 1.8829 -158.72 -300.66)">
  <text transform="scale(1.0397 .96177)" x="173.45682" y="390.23068" fill="#000000" font-family="sans-serif" font-size="1.7552px" style="line-height:0%">
   <tspan x="172.35254" y="390.23068" fill="#ffffff" font-family="sans-serif" font-weight="bold" text-align="center" text-anchor="middle">13</tspan>
  </text>
 </g>
 <g transform="matrix(1.8786 0 0 1.8829 -144.72 -300.66)">
  <text transform="scale(1.0397 .96177)" x="173.45682" y="390.23068" fill="#000000" font-family="sans-serif" font-size="1.7552px" style="line-height:0%">
   <tspan x="172.35254" y="390.23068" fill="#ffffff" font-family="sans-serif" font-weight="bold" text-align="center" text-anchor="middle">15</tspan>
  </text>
 </g>
 <g transform="matrix(1.8786 0 0 1.8829 -130.56 -300.66)">
  <text transform="scale(1.0397 .96177)" x="173.45682" y="390.23068" fill="#000000" font-family="sans-serif" font-size="1.7552px" style="line-height:0%">
   <tspan x="172.35254" y="390.23068" fill="#ffffff" font-family="sans-serif" font-weight="bold" text-align="center" text-anchor="middle">17</tspan>
  </text>
 </g>
 <g transform="matrix(1.8786 0 0 1.8829 -116.36 -300.66)">
  <text transform="scale(1.0397 .96177)" x="173.45682" y="390.23068" fill="#000000" font-family="sans-serif" font-size="1.7552px" style="line-height:0%">
   <tspan x="172.35254" y="390.23068" fill="#ffffff" font-family="sans-serif" font-weight="bold" text-align="center" text-anchor="middle">19</tspan>
  </text>
 </g>
 <g transform="matrix(1.8786 0 0 1.8829 -102.12 -300.66)">
  <text transform="scale(1.0397 .96177)" x="173.45682" y="390.23068" fill="#000000" font-family="sans-serif" font-size="1.7552px" style="line-height:0%">
   <tspan x="172.35254" y="390.23068" fill="#ffffff" font-family="sans-serif" font-weight="bold" text-align="center" text-anchor="middle">21</tspan>
  </text>
 </g>
 <g transform="matrix(1.8786 0 0 1.8829 -87.914 -300.66)">
  <text transform="scale(1.0397 .96177)" x="173.45682" y="390.23068" fill="#000000" font-family="sans-serif" font-size="1.7552px" style="line-height:0%">
   <tspan x="172.35254" y="390.23068" fill="#ffffff" font-family="sans-serif" font-weight="bold" text-align="center" text-anchor="middle">23</tspan>
  </text>
 </g>
 <g>
  <rect x="256.76" y="434.54" width="5.3849" height="4.2513"/>
  <rect x="242.61" y="434.54" width="5.3849" height="4.2513"/>
  <rect x="228.36" y="434.54" width="5.3849" height="4.2513"/>
  <rect x="214.16" y="434.54" width="5.3849" height="4.2513"/>
  <rect x="200" y="434.54" width="5.3849" height="4.2513"/>
  <rect x="185.9" y="434.54" width="5.3849" height="4.2513"/>
 </g>
 <g transform="matrix(1.8786 0 0 1.8829 -148.1 -268.86)">
  <text transform="scale(1.0397 .96177)" x="173.45682" y="390.23068" fill="#000000" font-family="sans-serif" font-size="1.7552px" style="line-height:0%">
   <tspan x="172.35254" y="390.23068" fill="#ffffff" font-family="sans-serif" font-weight="bold" text-align="center" text-anchor="middle">14</tspan>
  </text>
 </g>
 <g transform="matrix(1.8786 0 0 1.8829 -134.02 -268.86)">
  <text transform="scale(1.0397 .96177)" x="173.45682" y="390.23068" fill="#000000" font-family="sans-serif" font-size="1.7552px" style="line-height:0%">
   <tspan x="172.35254" y="390.23068" fill="#ffffff" font-family="sans-serif" font-weight="bold" text-align="center" text-anchor="middle">16</tspan>
  </text>
 </g>
 <g transform="matrix(1.8786 0 0 1.8829 -119.84 -268.86)">
  <text transform="scale(1.0397 .96177)" x="173.45682" y="390.23068" fill="#000000" font-family="sans-serif" font-size="1.7552px" style="line-height:0%">
   <tspan x="172.35254" y="390.23068" fill="#ffffff" font-family="sans-serif" font-weight="bold" text-align="center" text-anchor="middle">18</tspan>
  </text>
 </g>
 <g transform="matrix(1.8786 0 0 1.8829 -105.67 -268.86)">
  <text transform="scale(1.0397 .96177)" x="173.45682" y="390.23068" fill="#000000" font-family="sans-serif" font-size="1.7552px" style="line-height:0%">
   <tspan x="172.35254" y="390.23068" fill="#ffffff" font-family="sans-serif" font-weight="bold" text-align="center" text-anchor="middle">20</tspan>
  </text>
 </g>
 <g transform="matrix(1.8786 0 0 1.8829 -91.352 -268.86)">
  <text transform="scale(1.0397 .96177)" x="173.45682" y="390.23068" fill="#000000" font-family="sans-serif" font-size="1.7552px" style="line-height:0%">
   <tspan x="172.35254" y="390.23068" fill="#ffffff" font-family="sans-serif" font-weight="bold" text-align="center" text-anchor="middle">22</tspan>
  </text>
 </g>
 <g transform="matrix(1.8786 0 0 1.8829 -77.178 -268.86)">
  <text transform="scale(1.0397 .96177)" x="173.45682" y="390.23068" fill="#000000" font-family="sans-serif" font-size="1.7552px" style="line-height:0%">
   <tspan x="172.35254" y="390.23068" fill="#ffffff" font-family="sans-serif" font-weight="bold" text-align="center" text-anchor="middle">24</tspan>
  </text>
 </g>
 <g stroke-width="1.8801">
  <rect x="150.71" y="438.94" width="49.707" height="2.7471" fill="#f9ff00"/>
  <rect x="83.623" y="407.26" width="87.243" height="27.121" rx=".31699" ry=".13971"/>
  <rect x="175.05" y="407.26" width="87.243" height="27.121" rx=".31699" ry=".13971"/>
 </g>
 <g transform="matrix(1.8787 0 0 1.8816 -387.54 -311.26)">
  <g transform="scale(1.0397 .96177)">
   <path d="m242.28 396.3h0.29139v-0.82704l-0.29911 0.0617v-0.22455l0.29739-0.0617h0.31368v1.0516h0.29139v0.22797h-0.89474v-0.22797z" fill="#fff"/>
  </g>
 </g>
 <g transform="matrix(1.8787 0 0 1.8816 -373.44 -311.26)">
  <g transform="scale(1.0397 .96177)">
   <path d="m242.89 395.84q0.12941 0.0334 0.19626 0.11655 0.0677 0.0823 0.0677 0.20997 0 0.19027-0.14569 0.28968-0.1457 0.0986-0.42509 0.0986-0.0986 0-0.19798-0.0163-0.0985-0.0154-0.1954-0.0471v-0.25454q0.0926 0.0463 0.18341 0.0703 0.0917 0.0231 0.17997 0.0231 0.13113 0 0.20055-0.0454 0.0703-0.0454 0.0703-0.13026 0-0.0874-0.072-0.13199-0.0711-0.0454-0.21083-0.0454h-0.13198v-0.21254h0.13884q0.12427 0 0.18512-0.0386 0.0609-0.0394 0.0609-0.11913 0-0.0737-0.0591-0.11398-0.0591-0.0403-0.16712-0.0403-0.0797 0-0.16112 0.018-0.0814 0.018-0.16198 0.0531v-0.24168q0.0977-0.0274 0.19369-0.0411 0.096-0.0137 0.18855-0.0137 0.24939 0 0.37281 0.0823 0.12427 0.0814 0.12427 0.24597 0 0.11227-0.0591 0.18426-0.0591 0.0711-0.17483 0.10028z" fill="#fff"/>
  </g>
 </g>
 <g transform="matrix(1.8787 0 0 1.8816 -359.26 -311.26)">
  <g transform="scale(1.0397 .96177)">
   <path d="m242.26 395.25h0.82018v0.24254h-0.55707v0.19797q0.0377-0.0103 0.0754-0.0154 0.0386-6e-3 0.0797-6e-3 0.23397 0 0.36423 0.11741 0.13027 0.11656 0.13027 0.32567 0 0.2074-0.14226 0.32482-0.14141 0.11741-0.39338 0.11741-0.10884 0-0.21597-0.0214-0.10628-0.0206-0.21169-0.0634v-0.25968q0.10456 0.06 0.19797 0.09 0.0943 0.03 0.17741 0.03 0.11998 0 0.18855-0.0583 0.0694-0.0591 0.0694-0.15941 0-0.10113-0.0694-0.15941-0.0686-0.0583-0.18855-0.0583-0.0711 0-0.1517 0.0188-0.0806 0.018-0.17312 0.0566v-0.7199z" fill="#fff"/>
  </g>
 </g>
 <g transform="matrix(1.8787 0 0 1.8816 -345.17 -311.26)">
  <g transform="scale(1.0397 .96177)">
   <path d="m242.19 395.25h0.96416v0.18597l-0.49879 1.0936h-0.32139l0.47223-1.037h-0.61621z" fill="#fff"/>
  </g>
 </g>
 <g transform="matrix(1.8787 0 0 1.8816 -330.96 -311.26)">
  <g transform="scale(1.0397 .96177)">
   <path d="m242.25 396.5v-0.23654q0.0788 0.0369 0.15084 0.0557 0.072 0.018 0.14226 0.018 0.14741 0 0.22969-0.0814 0.0823-0.0823 0.0968-0.2434-0.0583 0.0428-0.12427 0.0643-0.066 0.0214-0.14312 0.0214-0.19626 0-0.3171-0.11399-0.11999-0.11484-0.11999-0.30167 0-0.20655 0.1337-0.33082 0.13455-0.12427 0.35995-0.12427 0.25026 0 0.38738 0.16884 0.13713 0.16883 0.13713 0.47736 0 0.31711-0.16027 0.4988-0.16026 0.18083-0.43965 0.18083-0.09 0-0.17227-0.0137-0.0823-0.0129-0.16112-0.0394zm0.40709-0.6162q0.0866 0 0.13027-0.0557 0.0437-0.0566 0.0437-0.16883 0-0.11142-0.0437-0.16798-0.0437-0.0566-0.13027-0.0566-0.0866 0-0.13027 0.0566-0.0437 0.0566-0.0437 0.16798 0 0.11227 0.0437 0.16883 0.0437 0.0557 0.13027 0.0557z" fill="#fff"/>
  </g>
 </g>
 <g transform="matrix(1.8787 0 0 1.8816 -316.86 -311.26)">
  <g transform="scale(1.0397 .96177)" fill="#fff">
   <path d="m241.67 396.3h0.29139v-0.82704l-0.2991 0.0617v-0.22455l0.29739-0.0617h0.31367v1.0516h0.29139v0.22797h-0.89474v-0.22797z"/>
   <path d="m242.89 396.3h0.29139v-0.82704l-0.2991 0.0617v-0.22455l0.29739-0.0617h0.31367v1.0516h0.29139v0.22797h-0.89474v-0.22797z"/>
  </g>
 </g>
 <g transform="matrix(1.8787 0 0 1.8816 -98.164 -335.54)">
  <path d="m96.88 409.02h46.207l-0.023-14.075-46.184-2.4e-4z" fill="#3a3a3a"/>
  <g transform="matrix(1.0006 0 0 .99268 14.144 58.805)">
   <path d="m113.63 340.44h1.7574l-3e-3 -1.0731 0.63956-5.7e-4v-0.40181h2.0614l-4.8e-4 0.40286h0.6657v1.0732h1.7493v4.6204l-6.8696 0.015z" fill="#1a1a1a"/>
   <path d="m118.91 340.16h1.7357v-0.75438h-1.7357z" fill="#abb927"/>
   <path d="m113.48 340.16h1.751v-0.75831h-1.751z" fill="#abb927"/>
   <path d="m120.51 350.97h-1.7574l3e-3 1.0731-0.63956 5.7e-4v0.40181h-2.0614l4.8e-4 -0.40286h-0.6657v-1.0732h-1.7493v-4.6204l6.8696-0.015z" fill="#1a1a1a"/>
   <path d="m115.23 351.26h-1.7357v0.75438h1.7357z" fill="#abb927"/>
   <path d="m120.67 351.26h-1.751v0.75831h1.751z" fill="#abb927"/>
   <path transform="matrix(.53079 0 0 .53501 55.446 333.8)" d="m56.703 9.0898-5.2734 0.00195 0.0039 26.316 5.2969 2e-3v-1.2656l-4.2578 2e-3v-1.6387l0.41992-0.01367v-8.9844l12.945-0.0078 2e-3 8.9922 0.41992 0.01367v1.6387l-4.2344-2e-3v1.2656l4.3613-2e-3h0.0059l4.4082 2e-3v-1.2656l-4.2598 2e-3v-1.6387l0.41992-0.01367 2e-3 -8.9844 12.945-0.0078v8.9922l0.41992 0.01367v1.6387l-4.2344-2e-3v1.2656l4.5156-2e-3h0.0078l4.4062 2e-3v-1.2656l-4.2598 2e-3v-1.6387l0.41992-0.01367 2e-3 -8.9844 12.945-0.0078v8.9922l0.41992 0.01367v1.6387l-4.2324-2e-3v1.2656l4.5137-2e-3 4.4141 2e-3v-1.2656l-4.2598 2e-3v-1.6387l0.42188-0.01367v-8.9844l12.945-0.0078v8.9922l0.42187 0.01367v1.6387l-4.2344-2e-3v1.2656l4.5137-2e-3h0.01l4.4043 2e-3v-1.2656l-4.2578 2e-3v-1.6387l0.41992-0.01367v-8.9844l12.945-0.0078 2e-3 8.9922 0.41993 0.01367v1.6387l-4.2344-2e-3v1.2656l4.5-2e-3h0.0234l4.3691 2e-3v-1.2656l-4.2598 2e-3v-1.6387l0.41993-0.01367 2e-3 -9.0391 0.01-0.0098 12.936-0.01953v9.0684l0.42188 0.01367v1.6387l-4.2344-2e-3v1.2656l5.2734-2e-3 -4e-3 -26.316-5.2988-0.00195v1.2656l4.2598-2e-3v1.6387l-0.42187 0.01367v8.9844l-12.945 0.0078v-8.9922l-0.42187-0.01367v-1.6387l4.2344 2e-3v-1.2656l-4.3438 0.00195h-0.0234l-4.5254-0.00195v1.2656l4.2598-2e-3v1.6387l-0.41992 0.01367-2e-3 9.0391-8e-3 0.0098-12.936 0.01758-2e-3 -9.0664-0.41992-0.01367v-1.6387l4.2344 2e-3v-1.2656l-4.3809 0.00195h-8e-3l-4.541-0.00195v1.2656l4.2598-2e-3v1.6387l-0.41992 0.01367-2e-3 9.0391-0.01 0.0098-12.936 0.01758v-9.0664l-0.41992-0.01367v-1.6387l4.2344 2e-3v-1.2656l-4.3809 0.00195-4.5488-0.00195v1.2656l4.2598-2e-3v1.6387l-0.42188 0.01367v9.0391l-0.0098 0.0098-12.936 0.01758v-9.0664l-0.41992-0.01367v-1.6387l4.2324 2e-3v-1.2656l-4.3809 0.00195h-0.0078l-4.5391-0.00195v1.2656l4.2578-2e-3v1.6387l-0.41992 0.01367v9.0391l-0.0098 0.0098-12.936 0.01758v-9.0664l-0.42188-0.01367v-1.6387l4.2344 2e-3v-1.2656l-4.3809 0.00195h-0.0078l-4.3867-0.00195v1.2656l4.2598-2e-3v1.6387l-0.41992 0.01367-2e-3 9.0391-0.0078 0.0098-12.936 0.01758-2e-3 -9.0664-0.41992-0.01367v-1.6387l4.2344 2e-3v-1.2656z" fill="#ebebeb"/>
  </g>
  <g transform="matrix(1.0006 0 0 .99268 6.5907 58.805)">
   <path d="m113.63 340.44h1.7574l-3e-3 -1.0731 0.63956-5.7e-4v-0.40181h2.0614l-4.8e-4 0.40286h0.6657v1.0732h1.7493v4.6204l-6.8696 0.015z" fill="#1a1a1a"/>
   <path d="m118.91 340.16h1.7357v-0.75438h-1.7357z" fill="#abb927"/>
   <path d="m113.48 340.16h1.751v-0.75831h-1.751z" fill="#abb927"/>
   <path d="m120.51 350.97h-1.7574l3e-3 1.0731-0.63956 5.7e-4v0.40181h-2.0614l4.8e-4 -0.40286h-0.6657v-1.0732h-1.7493v-4.6204l6.8696-0.015z" fill="#1a1a1a"/>
   <path d="m115.23 351.26h-1.7357v0.75438h1.7357z" fill="#abb927"/>
   <path d="m120.67 351.26h-1.751v0.75831h1.751z" fill="#abb927"/>
  </g>
  <g transform="matrix(1.0006 0 0 .99268 -.96302 58.805)">
   <path d="m113.63 340.44h1.7574l-3e-3 -1.0731 0.63956-5.7e-4v-0.40181h2.0614l-4.8e-4 0.40286h0.6657v1.0732h1.7493v4.6204l-6.8696 0.015z" fill="#1a1a1a"/>
   <path d="m118.91 340.16h1.7357v-0.75438h-1.7357z" fill="#abb927"/>
   <path d="m113.48 340.16h1.751v-0.75831h-1.751z" fill="#abb927"/>
   <path d="m120.51 350.97h-1.7574l3e-3 1.0731-0.63956 5.7e-4v0.40181h-2.0614l4.8e-4 -0.40286h-0.6657v-1.0732h-1.7493v-4.6204l6.8696-0.015z" fill="#1a1a1a"/>
   <path d="m115.23 351.26h-1.7357v0.75438h1.7357z" fill="#abb927"/>
   <path d="m120.67 351.26h-1.751v0.75831h1.751z" fill="#abb927"/>
  </g>
  <g transform="matrix(1.0006 0 0 .99268 -8.5168 58.805)">
   <path d="m113.63 340.44h1.7574l-3e-3 -1.0731 0.63956-5.7e-4v-0.40181h2.0614l-4.8e-4 0.40286h0.6657v1.0732h1.7493v4.6204l-6.8696 0.015z" fill="#1a1a1a"/>
   <path d="m118.91 340.16h1.7357v-0.75438h-1.7357z" fill="#abb927"/>
   <path d="m113.48 340.16h1.751v-0.75831h-1.751z" fill="#abb927"/>
   <path d="m120.51 350.97h-1.7574l3e-3 1.0731-0.63956 5.7e-4v0.40181h-2.0614l4.8e-4 -0.40286h-0.6657v-1.0732h-1.7493v-4.6204l6.8696-0.015z" fill="#1a1a1a"/>
   <path d="m115.23 351.26h-1.7357v0.75438h1.7357z" fill="#abb927"/>
   <path d="m120.67 351.26h-1.751v0.75831h1.751z" fill="#abb927"/>
  </g>
  <g transform="matrix(1.0006 0 0 .99268 -15.989 58.804)">
   <path d="m113.63 340.44h1.7574l-3e-3 -1.0731 0.63956-5.7e-4v-0.40181h2.0614l-4.8e-4 0.40286h0.6657v1.0732h1.7493v4.6204l-6.8696 0.015z" fill="#1a1a1a"/>
   <path d="m118.91 340.16h1.7357v-0.75438h-1.7357z" fill="#abb927"/>
   <path d="m113.48 340.16h1.751v-0.75831h-1.751z" fill="#abb927"/>
   <path d="m120.51 350.97h-1.7574l3e-3 1.0731-0.63956 5.7e-4v0.40181h-2.0614l4.8e-4 -0.40286h-0.6657v-1.0732h-1.7493v-4.6204l6.8696-0.015z" fill="#1a1a1a"/>
   <path d="m115.23 351.26h-1.7357v0.75438h1.7357z" fill="#abb927"/>
   <path d="m120.67 351.26h-1.751v0.75831h1.751z" fill="#abb927"/>
  </g>
  <g transform="translate(3.5862,18.762)">
   <path d="m131.79 378h1.7584l-3e-3 -1.0653 0.63993-5.6e-4v-0.39887h2.0626l-4.8e-4 0.39991h0.66608v1.0654h1.7503v4.5866l-6.8735 0.0149z" fill="#1a1a1a"/>
   <path d="m137.07 377.72h1.7367v-0.74886h-1.7367z" fill="#abb927"/>
   <path d="m131.63 377.71h1.7519v-0.75276h-1.7519z" fill="#abb927"/>
   <path d="m138.67 388.45h-1.7584l3e-3 1.0653-0.63993 5.6e-4v0.39887h-2.0626l4.8e-4 -0.39991h-0.66608v-1.0654h-1.7503v-4.5866l6.8735-0.0149z" fill="#1a1a1a"/>
   <path d="m133.39 388.73h-1.7367v0.74886h1.7367z" fill="#abb927"/>
   <path d="m138.83 388.73h-1.7519v0.75276h1.7519z" fill="#abb927"/>
  </g>
 </g>
 <g transform="matrix(1.8787 0 0 1.8816 -6.7315 -335.54)">
  <path d="m96.88 409.02h46.207l-0.023-14.075-46.184-2.4e-4z" fill="#3a3a3a"/>
  <g transform="matrix(1.0006 0 0 .99268 14.144 58.805)">
   <path d="m113.63 340.44h1.7574l-3e-3 -1.0731 0.63956-5.7e-4v-0.40181h2.0614l-4.8e-4 0.40286h0.6657v1.0732h1.7493v4.6204l-6.8696 0.015z" fill="#1a1a1a"/>
   <path d="m118.91 340.16h1.7357v-0.75438h-1.7357z" fill="#abb927"/>
   <path d="m113.48 340.16h1.751v-0.75831h-1.751z" fill="#abb927"/>
   <path d="m120.51 350.97h-1.7574l3e-3 1.0731-0.63956 5.7e-4v0.40181h-2.0614l4.8e-4 -0.40286h-0.6657v-1.0732h-1.7493v-4.6204l6.8696-0.015z" fill="#1a1a1a"/>
   <path d="m115.23 351.26h-1.7357v0.75438h1.7357z" fill="#abb927"/>
   <path d="m120.67 351.26h-1.751v0.75831h1.751z" fill="#abb927"/>
   <path transform="matrix(.53079 0 0 .53501 55.446 333.8)" d="m56.703 9.0898-5.2734 0.00195 0.0039 26.316 5.2969 2e-3v-1.2656l-4.2578 2e-3v-1.6387l0.41992-0.01367v-8.9844l12.945-0.0078 2e-3 8.9922 0.41992 0.01367v1.6387l-4.2344-2e-3v1.2656l4.3613-2e-3h0.0059l4.4082 2e-3v-1.2656l-4.2598 2e-3v-1.6387l0.41992-0.01367 2e-3 -8.9844 12.945-0.0078v8.9922l0.41992 0.01367v1.6387l-4.2344-2e-3v1.2656l4.5156-2e-3h0.0078l4.4062 2e-3v-1.2656l-4.2598 2e-3v-1.6387l0.41992-0.01367 2e-3 -8.9844 12.945-0.0078v8.9922l0.41992 0.01367v1.6387l-4.2324-2e-3v1.2656l4.5137-2e-3 4.4141 2e-3v-1.2656l-4.2598 2e-3v-1.6387l0.42188-0.01367v-8.9844l12.945-0.0078v8.9922l0.42187 0.01367v1.6387l-4.2344-2e-3v1.2656l4.5137-2e-3h0.01l4.4043 2e-3v-1.2656l-4.2578 2e-3v-1.6387l0.41992-0.01367v-8.9844l12.945-0.0078 2e-3 8.9922 0.41993 0.01367v1.6387l-4.2344-2e-3v1.2656l4.5-2e-3h0.0234l4.3691 2e-3v-1.2656l-4.2598 2e-3v-1.6387l0.41993-0.01367 2e-3 -9.0391 0.01-0.0098 12.936-0.01953v9.0684l0.42188 0.01367v1.6387l-4.2344-2e-3v1.2656l5.2734-2e-3 -4e-3 -26.316-5.2988-0.00195v1.2656l4.2598-2e-3v1.6387l-0.42187 0.01367v8.9844l-12.945 0.0078v-8.9922l-0.42187-0.01367v-1.6387l4.2344 2e-3v-1.2656l-4.3438 0.00195h-0.0234l-4.5254-0.00195v1.2656l4.2598-2e-3v1.6387l-0.41992 0.01367-2e-3 9.0391-8e-3 0.0098-12.936 0.01758-2e-3 -9.0664-0.41992-0.01367v-1.6387l4.2344 2e-3v-1.2656l-4.3809 0.00195h-8e-3l-4.541-0.00195v1.2656l4.2598-2e-3v1.6387l-0.41992 0.01367-2e-3 9.0391-0.01 0.0098-12.936 0.01758v-9.0664l-0.41992-0.01367v-1.6387l4.2344 2e-3v-1.2656l-4.3809 0.00195-4.5488-0.00195v1.2656l4.2598-2e-3v1.6387l-0.42188 0.01367v9.0391l-0.0098 0.0098-12.936 0.01758v-9.0664l-0.41992-0.01367v-1.6387l4.2324 2e-3v-1.2656l-4.3809 0.00195h-0.0078l-4.5391-0.00195v1.2656l4.2578-2e-3v1.6387l-0.41992 0.01367v9.0391l-0.0098 0.0098-12.936 0.01758v-9.0664l-0.42188-0.01367v-1.6387l4.2344 2e-3v-1.2656l-4.3809 0.00195h-0.0078l-4.3867-0.00195v1.2656l4.2598-2e-3v1.6387l-0.41992 0.01367-2e-3 9.0391-0.0078 0.0098-12.936 0.01758-2e-3 -9.0664-0.41992-0.01367v-1.6387l4.2344 2e-3v-1.2656z" fill="#ebebeb"/>
  </g>
  <g transform="matrix(1.0006 0 0 .99268 6.5907 58.805)">
   <path d="m113.63 340.44h1.7574l-3e-3 -1.0731 0.63956-5.7e-4v-0.40181h2.0614l-4.8e-4 0.40286h0.6657v1.0732h1.7493v4.6204l-6.8696 0.015z" fill="#1a1a1a"/>
   <path d="m118.91 340.16h1.7357v-0.75438h-1.7357z" fill="#abb927"/>
   <path d="m113.48 340.16h1.751v-0.75831h-1.751z" fill="#abb927"/>
   <path d="m120.51 350.97h-1.7574l3e-3 1.0731-0.63956 5.7e-4v0.40181h-2.0614l4.8e-4 -0.40286h-0.6657v-1.0732h-1.7493v-4.6204l6.8696-0.015z" fill="#1a1a1a"/>
   <path d="m115.23 351.26h-1.7357v0.75438h1.7357z" fill="#abb927"/>
   <path d="m120.67 351.26h-1.751v0.75831h1.751z" fill="#abb927"/>
  </g>
  <g transform="matrix(1.0006 0 0 .99268 -.96302 58.805)">
   <path d="m113.63 340.44h1.7574l-3e-3 -1.0731 0.63956-5.7e-4v-0.40181h2.0614l-4.8e-4 0.40286h0.6657v1.0732h1.7493v4.6204l-6.8696 0.015z" fill="#1a1a1a"/>
   <path d="m118.91 340.16h1.7357v-0.75438h-1.7357z" fill="#abb927"/>
   <path d="m113.48 340.16h1.751v-0.75831h-1.751z" fill="#abb927"/>
   <path d="m120.51 350.97h-1.7574l3e-3 1.0731-0.63956 5.7e-4v0.40181h-2.0614l4.8e-4 -0.40286h-0.6657v-1.0732h-1.7493v-4.6204l6.8696-0.015z" fill="#1a1a1a"/>
   <path d="m115.23 351.26h-1.7357v0.75438h1.7357z" fill="#abb927"/>
   <path d="m120.67 351.26h-1.751v0.75831h1.751z" fill="#abb927"/>
  </g>
  <g transform="matrix(1.0006 0 0 .99268 -8.5168 58.805)">
   <path d="m113.63 340.44h1.7574l-3e-3 -1.0731 0.63956-5.7e-4v-0.40181h2.0614l-4.8e-4 0.40286h0.6657v1.0732h1.7493v4.6204l-6.8696 0.015z" fill="#1a1a1a"/>
   <path d="m118.91 340.16h1.7357v-0.75438h-1.7357z" fill="#abb927"/>
   <path d="m113.48 340.16h1.751v-0.75831h-1.751z" fill="#abb927"/>
   <path d="m120.51 350.97h-1.7574l3e-3 1.0731-0.63956 5.7e-4v0.40181h-2.0614l4.8e-4 -0.40286h-0.6657v-1.0732h-1.7493v-4.6204l6.8696-0.015z" fill="#1a1a1a"/>
   <path d="m115.23 351.26h-1.7357v0.75438h1.7357z" fill="#abb927"/>
   <path d="m120.67 351.26h-1.751v0.75831h1.751z" fill="#abb927"/>
  </g>
  <g transform="matrix(1.0006 0 0 .99268 -15.989 58.804)">
   <path d="m113.63 340.44h1.7574l-3e-3 -1.0731 0.63956-5.7e-4v-0.40181h2.0614l-4.8e-4 0.40286h0.6657v1.0732h1.7493v4.6204l-6.8696 0.015z" fill="#1a1a1a"/>
   <path d="m118.91 340.16h1.7357v-0.75438h-1.7357z" fill="#abb927"/>
   <path d="m113.48 340.16h1.751v-0.75831h-1.751z" fill="#abb927"/>
   <path d="m120.51 350.97h-1.7574l3e-3 1.0731-0.63956 5.7e-4v0.40181h-2.0614l4.8e-4 -0.40286h-0.6657v-1.0732h-1.7493v-4.6204l6.8696-0.015z" fill="#1a1a1a"/>
   <path d="m115.23 351.26h-1.7357v0.75438h1.7357z" fill="#abb927"/>
   <path d="m120.67 351.26h-1.751v0.75831h1.751z" fill="#abb927"/>
  </g>
  <g transform="translate(3.5862,18.762)">
   <path d="m131.79 378h1.7584l-3e-3 -1.0653 0.63993-5.6e-4v-0.39887h2.0626l-4.8e-4 0.39991h0.66608v1.0654h1.7503v4.5866l-6.8735 0.0149z" fill="#1a1a1a"/>
   <path d="m137.07 377.72h1.7367v-0.74886h-1.7367z" fill="#abb927"/>
   <path d="m131.63 377.71h1.7519v-0.75276h-1.7519z" fill="#abb927"/>
   <path d="m138.67 388.45h-1.7584l3e-3 1.0653-0.63993 5.6e-4v0.39887h-2.0626l4.8e-4 -0.39991h-0.66608v-1.0654h-1.7503v-4.5866l6.8735-0.0149z" fill="#1a1a1a"/>
   <path d="m133.39 388.73h-1.7367v0.74886h1.7367z" fill="#abb927"/>
   <path d="m138.83 388.73h-1.7519v0.75276h1.7519z" fill="#abb927"/>
  </g>
 </g>
 <text x="154.32939" y="441.15048" fill="#000000" font-family="sans-serif" font-size="2.589px" letter-spacing="0px" stroke-width=".064724" word-spacing="0px" style="line-height:1.25" xml:space="preserve"><tspan x="154.32939" y="441.15048" stroke-width=".064724">PoE+ 10/100/1000BASES-T Ports</tspan></text>
 <g transform="matrix(.0081109 0 0 .008123 73.188 412.11)">
  <path d="m140.67 377.74h516.56c0.0674 0 0.12168 0.0244 0.12168 0.0548v315.04c0 0.0303-0.0543 0.0548-0.12168 0.0548h-516.56c-0.0674 0-0.12168-0.0244-0.12168-0.0548v-315.04c0-0.0303 0.0543-0.0548 0.12168-0.0548z" fill="#ff0" stroke="#ff0" stroke-linejoin="round" stroke-width="85.598"/>
  <path d="m311.33 637.13h169.3v72.062l203.74-175.44-203.74-172.33v72.062h-169.3l188.08 72.062v-28.202l94.083 56.404-94.083 56.404v-25.088c-1.0798-1.9134-188.08 72.062-188.08 72.062z" stroke="#000"/>
  <g stroke-width="1px">
   <path d="m120.1 493.56h35.066q15.64 0 23.981 6.9692 8.396 6.9143 8.396 19.755 0 12.896-8.396 19.865-8.3411 6.9143-23.981 6.9143h-13.938v28.426h-21.127zm21.127 15.31v22.883h11.689q6.1461 0 9.4935-2.9633 3.3474-3.0182 3.3474-8.5057 0-5.4876-3.3474-8.4508-3.3474-2.9633-9.4935-2.9633z"/>
   <path d="m229.66 526.59q-6.5302 0-9.9874 4.7193-3.4023 4.6644-3.4023 13.499 0 8.835 3.4023 13.554 3.4572 4.6644 9.9874 4.6644 6.4204 0 9.8227-4.6644 3.4023-4.7193 3.4023-13.554 0-8.835-3.4023-13.499-3.4023-4.7193-9.8227-4.7193zm0-14.048q15.859 0 24.749 8.5606 8.9447 8.5606 8.9447 23.706 0 15.146-8.9447 23.706-8.8898 8.5606-24.749 8.5606-15.914 0-24.914-8.5606-8.9447-8.5606-8.9447-23.706 0-15.146 8.9447-23.706 8.9996-8.5606 24.914-8.5606z"/>
   <path d="m277.43 493.56h57.016v15.969h-35.889v15.255h33.749v15.969h-33.749v18.767h37.096v15.969h-58.223z"/>
   <path d="m396.43 505.03v28.755h28.645v12.951h-28.645v28.755h-13.06v-28.755h-28.645v-12.951h28.645v-28.755z"/>
  </g>
 </g>
</svg>
