<svg width="254" height="44.5" version="1.1" viewBox="66 376 254 44.5" xmlns="http://www.w3.org/2000/svg"><g transform="matrix(1.2307 0 0 1.9866 -15.705 -371.74)" fill="#4d4d4d"><rect x="66.589" y="376.59" width="206" height="22"/><rect x="66.589" y="376.59" width="206" height="22" stroke="#000" stroke-width=".4"/></g><g transform="matrix(1.1825 0 0 1.9917 -2.7947 -373.71)" fill="#e7e7e7"><rect x="76.589" y="376.99" width="195.6" height="21.2" rx=".6" ry=".6"/><rect x="76.589" y="376.99" width="195.6" height="21.2" rx=".6" ry=".6" stroke="#e7e7e7" stroke-linejoin="round" stroke-width=".2"/></g><text transform="scale(1.0397 .96179)" x="84.45591" y="401.75769" fill="#ffffff" font-family="sans-serif" font-size="4.6638px" font-weight="700" stroke-width="1.883"><tspan x="84.45591" y="401.75769" stroke-width="1.883"/></text><g transform="matrix(2.8656 0 0 3.1262 -126.42 -822.76)"><polygon points="71.589 396.19 70.389 396.19 70.389 395.79 69.989 395.79 69.989 395.19 68.589 395.19 68.589 392.59 73.389 392.59 73.389 395.19 71.989 395.19 71.989 395.79 71.589 395.79"/><polygon points="71.589 396.19 70.389 396.19 70.389 395.79 69.989 395.79 69.989 395.19 68.589 395.19 68.589 392.59 73.389 392.59 73.389 395.19 71.989 395.19 71.989 395.79 71.589 395.79" fill="none" stroke="#7f7f7f" stroke-width=".2"/></g><text transform="scale(1.0003 .99969)" x="91.717392" y="369.62543" fill="#000000" font-family="sans-serif" font-size="40.014px" letter-spacing="0px" stroke-width="1.883px" word-spacing="0px" style="line-height:125%" xml:space="preserve"><tspan x="91.717392" y="369.62543" stroke-width="1.883px"/></text><g transform="matrix(1.1825 0 0 1.9917 84.9 -368.25)" fill="#4d4d4d"><rect x="111.45" y="379.4" width="86.435" height="15.954" rx=".6" ry=".6" fill="#4d4d4d"/></g><g transform="matrix(1.8842 0 0 1.883 17.928 -254.05)"><path d="m110.02 353.2h7.5579v-6.9858l-7.5579-2.3e-4z" fill="#3a3a3a"/><g transform="matrix(.0080752 0 0 .0080046 96.896 381.97)"><path d="m2560.5-3593.3v-872.71l-935.94-0.027v872.74z" fill="none" stroke="#000" stroke-linecap="square" stroke-width=".67568"/></g><path d="m110.32 347.98h1.7584l-3e-3 -1.0653 0.63992-5.7e-4v-0.39887h2.0626l-4.8e-4 0.39991h0.66608v1.0654h1.7503v4.5866l-6.8735 0.0149z" fill="#1a1a1a"/><path d="m115.6 347.7h1.7367v-0.74886h-1.7367z" fill="#abb927"/><path d="m110.16 347.7h1.752v-0.75276h-1.752z" fill="#abb927"/><path d="m110.02 353.21-1e-3 -6.9884 2.3308-9.5e-4v0.67227l-2.2487-1e-3v0.87026l0.22325 7e-3 4.8e-4 4.8157 6.87-0.01 5e-3 -5e-3 5.3e-4 -4.801 0.22324-7e-3v-0.87027l-2.2619 1e-3v-0.67227l2.4153 9.5e-4 1e-3 6.9884" fill="#ebebeb"/></g><g transform="matrix(1.8842 0 0 1.883 36.148 -254.05)"><path d="m110.02 353.2h7.5579v-6.9858l-7.5579-2.3e-4z" fill="#3a3a3a"/><g transform="matrix(.0080752 0 0 .0080046 96.896 381.97)"><path d="m2560.5-3593.3v-872.71l-935.94-0.027v872.74z" fill="none" stroke="#000" stroke-linecap="square" stroke-width=".67568"/></g><path d="m110.32 347.98h1.7584l-3e-3 -1.0653 0.63992-5.7e-4v-0.39887h2.0626l-4.8e-4 0.39991h0.66608v1.0654h1.7503v4.5866l-6.8735 0.0149z" fill="#1a1a1a"/><path d="m115.6 347.7h1.7367v-0.74886h-1.7367z" fill="#abb927"/><path d="m110.16 347.7h1.752v-0.75276h-1.752z" fill="#abb927"/><path d="m110.02 353.21-1e-3 -6.9884 2.3308-9.5e-4v0.67227l-2.2487-1e-3v0.87026l0.22325 7e-3 4.8e-4 4.8157 6.87-0.01 5e-3 -5e-3 5.3e-4 -4.801 0.22324-7e-3v-0.87027l-2.2619 1e-3v-0.67227l2.4153 9.5e-4 1e-3 6.9884" fill="#ebebeb"/></g><g transform="matrix(1.883 0 0 1.883 -58.359 -323.36)"><rect x="70.751" y="378.59" width="6.1054" height="1.1333" rx=".31642" ry=".1544" fill="#00ff1f"/><rect x="70.751" y="380.65" width="6.1054" height="1.1333" rx=".31642" ry=".1544" fill="#838383"/><ellipse cx="73.78" cy="383.59" rx=".76392" ry=".76344" fill="#838383"/><rect x="78.189" y="372.65" width="15.392" height="8.2618" rx=".889" ry=".944" fill="#1e90ff"/><rect x="67.715" y="372.93" width="7.6112" height="4.5534" rx=".16805" ry=".081999" fill="#e6e6e6" stroke="#333" stroke-linejoin="round" stroke-width=".2125"/></g><g transform="matrix(1.9572 0 0 1.8116 -58.359 -324.06)" fill="#fff"><path d="m75.895 390.53h0.48045q0.21428 0 0.32857 0.0955 0.11504 0.0947 0.11504 0.27067 0 0.17669-0.11504 0.27218-0.11428 0.0947-0.32857 0.0947h-0.19098v0.38947h-0.28947v-1.1226zm0.28947 0.20978v0.31353h0.16015q0.08421 0 0.13007-0.0406 0.04586-0.0414 0.04586-0.11655 0-0.0752-0.04586-0.11578-0.04587-0.0406-0.13007-0.0406z"/><path d="m77.411 390.98q-0.08947 0-0.13684 0.0647-0.04662 0.0639-0.04662 0.18496 0 0.12105 0.04662 0.18571 0.04737 0.0639 0.13684 0.0639 0.08797 0 0.13458-0.0639 0.04662-0.0647 0.04662-0.18571 0-0.12105-0.04662-0.18496-0.04662-0.0647-0.13458-0.0647zm0-0.19248q0.21729 0 0.33909 0.11729 0.12256 0.1173 0.12256 0.32481 0 0.20752-0.12256 0.32481-0.1218 0.11729-0.33909 0.11729-0.21804 0-0.34135-0.11729-0.12256-0.11729-0.12256-0.32481 0-0.20751 0.12256-0.32481 0.12331-0.11729 0.34135-0.11729z"/><path d="m78.081 390.53h0.7812v0.2188h-0.49172v0.20902h0.4624v0.21879h-0.4624v0.25714h0.50827v0.2188h-0.79774z"/><path d="m81.741 390.56v0.23759q-0.09248-0.0413-0.18045-0.0624t-0.16616-0.0211q-0.10376 0-0.15338 0.0286t-0.04962 0.0887q0 0.0451 0.03308 0.0707 0.03383 0.0248 0.1218 0.0429l0.12331 0.0248q0.18722 0.0376 0.26616 0.11429 0.07895 0.0767 0.07895 0.21804 0 0.18571-0.11052 0.27669-0.10977 0.0902-0.33609 0.0902-0.10677 0-0.21428-0.0203t-0.21504-0.0602v-0.24436q0.10752 0.0571 0.20752 0.0865 0.10075 0.0286 0.19398 0.0286 0.09474 0 0.14511-0.0316 0.05038-0.0316 0.05038-0.0902 0-0.0526-0.03459-0.0812-0.03383-0.0286-0.13609-0.0511l-0.11203-0.0248q-0.16842-0.0361-0.24661-0.11504-0.07744-0.0789-0.07744-0.21278 0-0.16767 0.10827-0.25789 0.10827-0.0902 0.31128-0.0902 0.09248 0 0.19022 0.0143 0.09774 0.0135 0.20225 0.0414z"/><path d="m81.982 390.81h0.26165l0.14135 0.58045 0.1421-0.58045h0.22481l0.14135 0.57443 0.1421-0.57443h0.26165l-0.2218 0.8421h-0.29398l-0.1421-0.57894-0.14135 0.57894h-0.29398z"/><path d="m83.48 390.81h0.26917v0.8421h-0.26917zm0-0.32782h0.26917v0.21955h-0.26917z"/><path d="m84.303 390.57v0.23909h0.27744v0.19248h-0.27744v0.35714q0 0.0587 0.02331 0.0797 0.02331 0.0203 0.09248 0.0203h0.13834v0.19248h-0.23082q-0.1594 0-0.22631-0.0662-0.06616-0.0669-0.06616-0.22631v-0.35714h-0.13383v-0.19248h0.13383v-0.23909h0.26917z"/><path d="m85.426 390.83v0.21954q-0.05489-0.0376-0.11053-0.0556-0.05489-0.0181-0.11428-0.0181-0.11278 0-0.17594 0.0662-0.0624 0.0654-0.0624 0.18346 0 0.11805 0.0624 0.18421 0.06316 0.0654 0.17594 0.0654 0.06316 0 0.11955-0.0188 0.05714-0.0188 0.10526-0.0556v0.2203q-0.06316 0.0233-0.12857 0.0346-0.06466 0.012-0.13007 0.012-0.22782 0-0.35639-0.11654-0.12857-0.11729-0.12857-0.32556t0.12857-0.32481q0.12857-0.11729 0.35639-0.11729 0.06617 0 0.13007 0.012 0.06466 0.0113 0.12857 0.0346z"/><path d="m86.507 391.14v0.51278h-0.27068v-0.39101q0-0.11053-0.0053-0.15188-0.0045-0.0414-0.01654-0.0609-0.01579-0.0263-0.04286-0.0406-0.02707-0.015-0.06165-0.015-0.08421 0-0.13233 0.0654-0.04812 0.0647-0.04812 0.1797v0.41428h-0.26917v-1.1699h0.26917v0.45113q0.0609-0.0737 0.12932-0.10827 0.06842-0.0353 0.15113-0.0353 0.14586 0 0.22105 0.0895 0.07594 0.0895 0.07594 0.26015z"/></g><g fill="#e6e6e6" stroke="#000"><rect x="264.56" y="404.04" width="3.168" height="2.4223" rx=".16246" ry=".07927" stroke-width=".40003"/><rect x="264.66" y="408.15" width="3.168" height="2.4223" rx=".16246" ry=".07927" stroke-width=".40003"/><g transform="matrix(1.883 0 0 1.883 -61.999 -322.96)" stroke-width=".21244"><rect x="186.81" y="386.08" width="1.6824" height="1.2864" rx=".086274" ry=".042097"/><rect x="186.86" y="388.25" width="1.6824" height="1.2864" rx=".086274" ry=".042097"/></g></g><g transform="matrix(1.883 0 0 1.883 -58.538 -323.54)"><path d="m71.657 377.52c-0.02159 0-0.04309-4.1e-4 -0.06454-7.9e-4l0.44389-1.2199h0.61088c0.10722 0 0.22493-0.0824 0.2616-0.18314l0.48159-1.3228c0.07878-0.21657-0.04526-0.39375-0.27571-0.39375h-0.84749l-0.71109 1.954h-2.03e-4l-0.40312 1.1077c-0.9564-0.22738-1.6678-1.0871-1.6678-2.1131 0-0.99637 0.67093-1.836 1.5856-2.0919l-0.41595 1.1433h-1.14e-4l-0.6915 1.8997 0.46033 4e-5 0.58807-1.6142h0.34596l-0.58807 1.6142 0.46016 8e-5 0.54802-1.506c0.07884-0.21657-0.04522-0.39375-0.27546-0.39375h-0.38696l0.44432-1.2212c0.03239-2e-3 0.0649-2e-3 0.09762-2e-3 1.1996 0 2.172 0.97244 2.172 2.172 0 1.1996-0.97245 2.172-2.172 2.172zm1.3142-2.8363h-0.34587l-0.48435 1.329h0.34588z"/></g><g transform="matrix(1.9793 0 0 1.7915 -58.359 -324.06)" fill="#fff"><path d="m75.339 393.95h0.75187v0.32386h-1.2417v-0.32386l0.6237-0.55046q0.08354-0.0755 0.12359-0.14762 0.04005-0.0721 0.04005-0.14992 0-0.12016-0.08125-0.1934-0.08011-0.0732-0.214-0.0732-0.103 0-0.22545 0.0446-0.12245 0.0435-0.26207 0.13046v-0.37536q0.14877-0.0492 0.29411-0.0744 0.14534-0.0263 0.28496-0.0263 0.3067 0 0.47607 0.13504 0.17052 0.13504 0.17052 0.37651 0 0.13961-0.0721 0.26092-0.0721 0.12016-0.30326 0.32272l-0.36506 0.32043z"/><path d="m76.542 392.57h1.0952v0.32386h-0.74386v0.26436q0.05035-0.0137 0.10071-0.0206 0.0515-8e-3 0.10643-8e-3 0.31242 0 0.48637 0.15678 0.17395 0.15564 0.17395 0.43487 0 0.27695-0.18997 0.43373-0.18882 0.15678-0.52528 0.15678-0.14534 0-0.28839-0.0286-0.1419-0.0275-0.28267-0.0847v-0.34676q0.13962 0.0801 0.26436 0.12017 0.12588 0.0401 0.23689 0.0401 0.16022 0 0.25177-0.0778 0.0927-0.079 0.0927-0.21286 0-0.13504-0.0927-0.21286-0.09155-0.0778-0.25177-0.0778-0.09498 0-0.20256 0.0252-0.10757 0.024-0.23117 0.0755v-0.96129z"/><path d="m78.599 393.95h0.75187v0.32386h-1.2417v-0.32386l0.6237-0.55046q0.08354-0.0755 0.1236-0.14762 0.04005-0.0721 0.04005-0.14992 0-0.12016-0.08125-0.1934-0.08011-0.0732-0.214-0.0732-0.103 0-0.22545 0.0446-0.12245 0.0435-0.26207 0.13046v-0.37536q0.14877-0.0492 0.29411-0.0744 0.14534-0.0263 0.28496-0.0263 0.3067 0 0.47607 0.13504 0.17052 0.13504 0.17052 0.37651 0 0.13961-0.0721 0.26092-0.0721 0.12016-0.30326 0.32272l-0.36506 0.32043z"/><path d="m80.631 393.42q0-0.32043-0.06065-0.45089-0.05951-0.1316-0.20141-0.1316t-0.20256 0.1316q-0.06065 0.13046-0.06065 0.45089 0 0.32387 0.06065 0.45662t0.20256 0.13275q0.14076 0 0.20141-0.13275t0.06065-0.45662zm0.44059 3e-3q0 0.42457-0.1831 0.65574-0.1831 0.23002-0.51956 0.23002-0.3376 0-0.5207-0.23002-0.1831-0.23117-0.1831-0.65574 0-0.42572 0.1831-0.65574 0.1831-0.23117 0.5207-0.23117 0.33645 0 0.51956 0.23117 0.1831 0.23002 0.1831 0.65574z"/><path d="m81.31 393.43h0.71868v0.33302h-0.71868z"/><path d="m82.974 393.51q-0.1236 0-0.18997 0.0675-0.06638 0.0675-0.06638 0.1934 0 0.12588 0.06638 0.1934 0.06637 0.0664 0.18997 0.0664 0.12245 0 0.18768-0.0664 0.06523-0.0675 0.06523-0.1934 0-0.12703-0.06523-0.1934-0.06523-0.0675-0.18768-0.0675zm-0.32158-0.14534q-0.15564-0.0469-0.2346-0.1442t-0.07896-0.24261q0-0.21629 0.16136-0.32958 0.16136-0.1133 0.47378-0.1133 0.31013 0 0.47149 0.1133 0.16136 0.11215 0.16136 0.32958 0 0.14534-0.08011 0.24261-0.07896 0.0973-0.2346 0.1442 0.17395 0.0481 0.26207 0.15678 0.08926 0.10757 0.08926 0.27237 0 0.25405-0.16937 0.38451-0.16823 0.12932-0.5001 0.12932-0.33302 0-0.50354-0.12932-0.16937-0.13046-0.16937-0.38451 0-0.1648 0.08812-0.27237 0.08926-0.10872 0.26321-0.15678zm0.103-0.34218q0 0.10185 0.05608 0.15679 0.05722 0.0549 0.1625 0.0549 0.103 0 0.15907-0.0549 0.05608-0.0549 0.05608-0.15679 0-0.10185-0.05608-0.15563-0.05608-0.0549-0.15907-0.0549-0.10528 0-0.1625 0.0549-0.05608 0.0549-0.05608 0.15563z"/></g><g transform="matrix(.017633 0 0 .017633 104.72 380.2)"><path d="m140.67 377.74h516.56c0.0674 0 0.12168 0.0244 0.12168 0.0548v315.04c0 0.0303-0.0543 0.0548-0.12168 0.0548h-516.56c-0.0674 0-0.12168-0.0244-0.12168-0.0548v-315.04c0-0.0303 0.0543-0.0548 0.12168-0.0548z" fill="#ff0" stroke="#ff0" stroke-linejoin="round" stroke-width="85.598"/><path d="m311.33 637.13h169.3v72.062l203.74-175.44-203.74-172.33v72.062h-169.3l188.08 72.062v-28.202l94.083 56.404-94.083 56.404v-25.088c-1.0798-1.9134-188.08 72.062-188.08 72.062z" stroke="#000"/><g stroke-width="1px"><path d="m120.1 493.56h35.066q15.64 0 23.981 6.9692 8.396 6.9143 8.396 19.755 0 12.896-8.396 19.865-8.3411 6.9143-23.981 6.9143h-13.938v28.426h-21.127zm21.127 15.31v22.883h11.689q6.1461 0 9.4935-2.9633 3.3474-3.0182 3.3474-8.5057 0-5.4876-3.3474-8.4508-3.3474-2.9633-9.4935-2.9633z"/><path d="m229.66 526.59q-6.5302 0-9.9874 4.7193-3.4023 4.6644-3.4023 13.499 0 8.835 3.4023 13.554 3.4572 4.6644 9.9874 4.6644 6.4204 0 9.8227-4.6644 3.4023-4.7193 3.4023-13.554 0-8.835-3.4023-13.499-3.4023-4.7193-9.8227-4.7193zm0-14.048q15.859 0 24.749 8.5606 8.9447 8.5606 8.9447 23.706 0 15.146-8.9447 23.706-8.8898 8.5606-24.749 8.5606-15.914 0-24.914-8.5606-8.9447-8.5606-8.9447-23.706 0-15.146 8.9447-23.706 8.9996-8.5606 24.914-8.5606z"/><path d="m277.43 493.56h57.016v15.969h-35.889v15.255h33.749v15.969h-33.749v18.767h37.096v15.969h-58.223z"/></g></g><g transform="matrix(1.883 0 0 1.883 -246.3 -321.41)"><rect x="250.4" y="379.77" width="3.9417" height="1.9916" rx=".047399" ry=".023128"/><g transform="scale(1.0397 .96177)" fill="#fff"><path d="m241.65 396.5v-0.23654q0.0789 0.0369 0.15084 0.0557 0.072 0.018 0.14227 0.018 0.14741 0 0.22968-0.0814 0.0823-0.0823 0.0968-0.2434-0.0583 0.0428-0.12427 0.0643-0.066 0.0214-0.14313 0.0214-0.19626 0-0.3171-0.11399-0.11998-0.11484-0.11998-0.30167 0-0.20655 0.13369-0.33082 0.13456-0.12427 0.35996-0.12427 0.25025 0 0.38737 0.16884 0.13713 0.16883 0.13713 0.47736 0 0.31711-0.16027 0.4988-0.16026 0.18083-0.43965 0.18083-0.09 0-0.17227-0.0137-0.0823-0.0129-0.16112-0.0394zm0.40709-0.6162q0.0866 0 0.13027-0.0557 0.0437-0.0566 0.0437-0.16883 0-0.11142-0.0437-0.16798-0.0437-0.0566-0.13027-0.0566-0.0866 0-0.13027 0.0566-0.0437 0.0566-0.0437 0.16798 0 0.11227 0.0437 0.16883 0.0437 0.0557 0.13027 0.0557z"/><path d="m242.71 395.25h1.1793v0.24939h-0.42423v1.0302h-0.32996v-1.0302h-0.42509v-0.24939z"/></g></g><g transform="matrix(1.883 0 0 1.883 -228.08 -321.41)"><rect x="250.4" y="379.77" width="3.9417" height="1.9916" rx=".047399" ry=".023128"/><g transform="scale(1.0397 .96177)" fill="#fff"><path d="m241.07 396.3h0.29139v-0.82704l-0.2991 0.0617v-0.22455l0.29739-0.0617h0.31367v1.0516h0.29139v0.22797h-0.89474v-0.22797z"/><path d="m242.89 395.89q0-0.23997-0.0454-0.33767-0.0446-0.0986-0.15084-0.0986-0.10627 0-0.15169 0.0986-0.0454 0.0977-0.0454 0.33767 0 0.24254 0.0454 0.34195 0.0454 0.0994 0.15169 0.0994 0.10542 0 0.15084-0.0994 0.0454-0.0994 0.0454-0.34195zm0.32996 3e-3q0 0.31796-0.13713 0.49108-0.13712 0.17226-0.38909 0.17226-0.25282 0-0.38995-0.17226-0.13712-0.17312-0.13712-0.49108 0-0.31882 0.13712-0.49108 0.13713-0.17312 0.38995-0.17312 0.25197 0 0.38909 0.17312 0.13713 0.17226 0.13713 0.49108z"/><path d="m243.32 395.25h1.1793v0.24939h-0.42423v1.0302h-0.32996v-1.0302h-0.42509v-0.24939z"/></g></g><g transform="matrix(1.883 0 0 1.883 -202.13 -319.12)"><rect x="250.4" y="379.77" width="3.9417" height="1.9916" rx=".047399" ry=".023128"/><g transform="scale(1.0397 .96177)" fill="#fff"><path d="m241.62 396.5v-0.23654q0.0789 0.0369 0.15084 0.0557 0.072 0.018 0.14226 0.018 0.14741 0 0.22969-0.0814 0.0823-0.0823 0.0968-0.2434-0.0583 0.0428-0.12427 0.0643-0.066 0.0214-0.14312 0.0214-0.19626 0-0.3171-0.11399-0.11999-0.11484-0.11999-0.30167 0-0.20655 0.1337-0.33082 0.13455-0.12427 0.35995-0.12427 0.25026 0 0.38738 0.16884 0.13713 0.16883 0.13713 0.47736 0 0.31711-0.16027 0.4988-0.16026 0.18083-0.43965 0.18083-0.09 0-0.17227-0.0137-0.0823-0.0129-0.16112-0.0394zm0.40709-0.6162q0.0866 0 0.13027-0.0557 0.0437-0.0566 0.0437-0.16883 0-0.11142-0.0437-0.16798-0.0437-0.0566-0.13027-0.0566-0.0866 0-0.13027 0.0566-0.0437 0.0566-0.0437 0.16798 0 0.11227 0.0437 0.16883 0.0437 0.0557 0.13027 0.0557z"/><path d="m243.71 395.29v0.27082q-0.10541-0.0471-0.20569-0.0711-0.10027-0.024-0.1894-0.024-0.11827 0-0.17484 0.0326-0.0566 0.0326-0.0566 0.10113 0 0.0514 0.0377 0.0806 0.0386 0.0283 0.13884 0.0489l0.14055 0.0283q0.2134 0.0428 0.30339 0.13027 0.09 0.0874 0.09 0.24854 0 0.21169-0.12598 0.31539-0.12513 0.10284-0.3831 0.10284-0.1217 0-0.24425-0.0231-0.12256-0.0231-0.24511-0.0686v-0.27854q0.12255 0.0651 0.23654 0.0986 0.11484 0.0326 0.22111 0.0326 0.10799 0 0.16541-0.036 0.0574-0.036 0.0574-0.10284 0-0.06-0.0394-0.0926-0.0386-0.0326-0.15513-0.0583l-0.12769-0.0283q-0.19198-0.0411-0.28111-0.13113-0.0883-0.09-0.0883-0.24254 0-0.19112 0.12341-0.29396t0.35481-0.10284q0.10541 0 0.21683 0.0163 0.11141 0.0154 0.23054 0.0471z"/></g></g><g transform="matrix(1.883 0 0 1.883 -175.75 -319.12)"><rect x="250.4" y="379.77" width="3.9417" height="1.9916" rx=".047399" ry=".023128"/><g transform="scale(1.0397 .96177)" fill="#fff"><path d="m241.04 396.3h0.29139v-0.82704l-0.2991 0.0617v-0.22455l0.29739-0.0617h0.31367v1.0516h0.29139v0.22797h-0.89474v-0.22797z"/><path d="m242.86 395.89q0-0.23997-0.0454-0.33767-0.0446-0.0986-0.15084-0.0986-0.10627 0-0.1517 0.0986-0.0454 0.0977-0.0454 0.33767 0 0.24254 0.0454 0.34195 0.0454 0.0994 0.1517 0.0994 0.10541 0 0.15084-0.0994 0.0454-0.0994 0.0454-0.34195zm0.32996 3e-3q0 0.31796-0.13713 0.49108-0.13712 0.17226-0.38909 0.17226-0.25283 0-0.38995-0.17226-0.13713-0.17312-0.13713-0.49108 0-0.31882 0.13713-0.49108 0.13712-0.17312 0.38995-0.17312 0.25197 0 0.38909 0.17312 0.13713 0.17226 0.13713 0.49108z"/><path d="m244.32 395.29v0.27082q-0.10542-0.0471-0.20569-0.0711t-0.1894-0.024q-0.11827 0-0.17484 0.0326-0.0566 0.0326-0.0566 0.10113 0 0.0514 0.0377 0.0806 0.0386 0.0283 0.13884 0.0489l0.14055 0.0283q0.2134 0.0428 0.30339 0.13027 0.09 0.0874 0.09 0.24854 0 0.21169-0.12599 0.31539-0.12512 0.10284-0.38309 0.10284-0.1217 0-0.24425-0.0231-0.12256-0.0231-0.24512-0.0686v-0.27854q0.12256 0.0651 0.23655 0.0986 0.11484 0.0326 0.22111 0.0326 0.10799 0 0.16541-0.036 0.0574-0.036 0.0574-0.10284 0-0.06-0.0394-0.0926-0.0386-0.0326-0.15512-0.0583l-0.1277-0.0283q-0.19197-0.0411-0.2811-0.13113-0.0883-0.09-0.0883-0.24254 0-0.19112 0.12342-0.29396 0.12341-0.10284 0.35481-0.10284 0.10541 0 0.21683 0.0163 0.11141 0.0154 0.23054 0.0471z"/></g></g><g transform="matrix(0 -2.5852 2.5848 0 -176.47 1612)"><rect x="464.5" y="172.59" width="4" height="5.6"/><rect x="464.5" y="172.59" width="4" height="5.6" fill="none" stroke="#7f7f7f" stroke-width=".2"/><polygon points="464.7 176.79 464.7 177.99 468.3 177.99 468.3 172.79 464.7 172.79 464.7 174.19 464.9 174.19 464.9 176.79"/><polygon points="464.7 176.79 464.7 177.99 468.3 177.99 468.3 172.79 464.7 172.79 464.7 174.19 464.9 174.19 464.9 176.79" fill="none" stroke="#7f7f7f" stroke-width=".1"/></g><g transform="matrix(0 -2.5852 2.5848 0 -150.09 1612)"><rect x="464.5" y="172.59" width="4" height="5.6"/><rect x="464.5" y="172.59" width="4" height="5.6" fill="none" stroke="#7f7f7f" stroke-width=".2"/><polygon points="464.9 174.19 464.9 176.79 464.7 176.79 464.7 177.99 468.3 177.99 468.3 172.79 464.7 172.79 464.7 174.19"/><polygon points="464.9 174.19 464.9 176.79 464.7 176.79 464.7 177.99 468.3 177.99 468.3 172.79 464.7 172.79 464.7 174.19" fill="none" stroke="#7f7f7f" stroke-width=".1"/></g><g transform="matrix(1.883 0 0 1.883 -54.656 -323.36)"><rect x="112.23" y="372.22" width="22.525" height="1.46" fill="#f9ff00"/><g stroke-width="1px"><path d="m112.76 372.55v0.3885h0.1759q0.0977 0 0.15097-0.0506 0.0533-0.0505 0.0533-0.14404 0-0.0928-0.0533-0.14335-0.0533-0.0506-0.15097-0.0506h-0.1759zm-0.13988-0.11496h0.31578q0.17382 0 0.26246 0.079 0.0893 0.0783 0.0893 0.22991 0 0.15305-0.0893 0.2313-0.0886 0.0783-0.26246 0.0783h-0.1759v0.41551h-0.13988v-1.0339z"/><path d="m113.71 372.78q-0.10249 0-0.16205 0.0803-0.0596 0.0796-0.0596 0.21884 0 0.13919 0.0589 0.21952 0.0596 0.0796 0.16274 0.0796 0.1018 0 0.16135-0.0803 0.0596-0.0803 0.0596-0.21883 0-0.13781-0.0596-0.21814-0.0596-0.081-0.16135-0.081zm0-0.10803q0.1662 0 0.26108 0.10803 0.0949 0.10803 0.0949 0.29917 0 0.19044-0.0949 0.29916-0.0949 0.10803-0.26108 0.10803-0.1669 0-0.26177-0.10803-0.0942-0.10872-0.0942-0.29916 0-0.19114 0.0942-0.29917 0.0949-0.10803 0.26177-0.10803z"/><path d="m114.27 372.43h0.65373v0.11773h-0.51384v0.30609h0.49237v0.11773h-0.49237v0.37464h0.52631v0.11773h-0.6662z"/><path d="m115.59 372.43h0.13989v1.0339h-0.13989z"/><path d="m116.63 373v0.46814h-0.12742v-0.46398q0-0.11011-0.0429-0.16482-0.0429-0.0547-0.1288-0.0547-0.10319 0-0.16274 0.0658-0.0596 0.0658-0.0596 0.17936v0.43836h-0.12812v-0.77561h0.12812v0.12049q0.0457-0.0699 0.10734-0.10456 0.0623-0.0346 0.14335-0.0346 0.13365 0 0.20221 0.0831 0.0686 0.0824 0.0686 0.24307z"/><path d="m117 372.47v0.22022h0.26246v0.099h-0.26246v0.42104q0 0.0949 0.0256 0.12189 0.0263 0.027 0.10595 0.027h0.13088v0.10665h-0.13088q-0.14751 0-0.2036-0.0547-0.0561-0.0554-0.0561-0.20083v-0.42104h-0.0935v-0.099h0.0935v-0.22022h0.12811z"/><path d="m118.08 373.05v0.0623h-0.58587q8e-3 0.13157 0.079 0.20082 0.0713 0.0686 0.19806 0.0686 0.0734 0 0.14196-0.018 0.0692-0.018 0.13712-0.054v0.1205q-0.0686 0.0291-0.14058 0.0443-0.072 0.0152-0.14612 0.0152-0.18559 0-0.29432-0.10803-0.10803-0.10803-0.10803-0.29224 0-0.19044 0.10249-0.30193 0.10319-0.11219 0.2777-0.11219 0.15651 0 0.24723 0.10111 0.0914 0.10041 0.0914 0.27354zm-0.12742-0.0374q-1e-3 -0.10457-0.0589-0.16689-0.0568-0.0623-0.15096-0.0623-0.10665 0-0.17106 0.0602-0.0637 0.0602-0.0734 0.16967l0.45429-7e-4z"/><path d="m118.79 373.07q0-0.1385-0.0575-0.21468-0.0568-0.0762-0.15997-0.0762-0.10249 0-0.15997 0.0762-0.0568 0.0762-0.0568 0.21468 0 0.13781 0.0568 0.21399 0.0575 0.0762 0.15997 0.0762 0.10318 0 0.15997-0.0762 0.0575-0.0762 0.0575-0.21399zm0.12742 0.30055q0 0.19806-0.088 0.29432-0.088 0.0969-0.26939 0.0969-0.0672 0-0.12673-0.0104-0.0596-0.01-0.11565-0.0305v-0.12396q0.0561 0.0305 0.1108 0.045t0.1115 0.0145q0.12534 0 0.18767-0.0658 0.0623-0.0651 0.0623-0.19737v-0.063q-0.0395 0.0686-0.10111 0.10249-0.0616 0.0339-0.14751 0.0339-0.14265 0-0.22991-0.10872-0.0873-0.10873-0.0873-0.28809 0-0.18005 0.0873-0.28878 0.0873-0.10872 0.22991-0.10872 0.0859 0 0.14751 0.0339 0.0616 0.0339 0.10111 0.10249v-0.11772h0.12742v0.67935z"/><path d="m119.61 372.81q-0.0215-0.0125-0.0471-0.018-0.0249-6e-3 -0.0554-6e-3 -0.10804 0-0.16621 0.0706-0.0575 0.0699-0.0575 0.20152v0.40858h-0.12811v-0.77561h0.12811v0.12049q0.0402-0.0706 0.10457-0.10456 0.0644-0.0346 0.15651-0.0346 0.0132 0 0.0291 2e-3 0.0159 1e-3 0.0353 5e-3l7e-4 0.13088z"/><path d="m120.36 373.05v0.0623h-0.58586q8e-3 0.13157 0.0789 0.20082 0.0713 0.0686 0.19806 0.0686 0.0734 0 0.14196-0.018 0.0693-0.018 0.13712-0.054v0.1205q-0.0686 0.0291-0.14058 0.0443-0.072 0.0152-0.14612 0.0152-0.18559 0-0.29432-0.10803-0.10803-0.10803-0.10803-0.29224 0-0.19044 0.10249-0.30193 0.10319-0.11219 0.2777-0.11219 0.15651 0 0.24723 0.10111 0.0914 0.10041 0.0914 0.27354zm-0.12742-0.0374q-1e-3 -0.10457-0.0589-0.16689-0.0568-0.0623-0.15096-0.0623-0.10665 0-0.17105 0.0602-0.0637 0.0602-0.0734 0.16967l0.45429-7e-4z"/><path d="m121.07 372.81v-0.41966h0.12742v1.0776h-0.12742v-0.11634q-0.0402 0.0692-0.1018 0.10318-0.0609 0.0332-0.14681 0.0332-0.14058 0-0.22923-0.11218-0.0879-0.11219-0.0879-0.29501 0-0.18283 0.0879-0.29501 0.0887-0.11219 0.22923-0.11219 0.0859 0 0.14681 0.0339 0.0616 0.0332 0.1018 0.10249zm-0.43421 0.27078q0 0.14058 0.0575 0.22091 0.0582 0.0796 0.15928 0.0796 0.10111 0 0.15928-0.0796 0.0582-0.0803 0.0582-0.22091 0-0.14058-0.0582-0.22022-0.0582-0.0803-0.15928-0.0803-0.10111 0-0.15928 0.0803-0.0575 0.0796-0.0575 0.22022z"/><path d="m121.93 373.35h0.22853v-0.78877l-0.24862 0.0499v-0.12742l0.24723-0.0499h0.13989v0.91619h0.22853v0.11773h-0.59556z"/><path d="m123.09 372.53q-0.10803 0-0.16274 0.10664-0.054 0.10596-0.054 0.31925 0 0.2126 0.054 0.31925 0.0547 0.10595 0.16274 0.10595 0.10872 0 0.16274-0.10595 0.0547-0.10665 0.0547-0.31925 0-0.21329-0.0547-0.31925-0.054-0.10664-0.16274-0.10664zm0-0.11081q0.17382 0 0.26523 0.13781 0.0921 0.13712 0.0921 0.39889 0 0.26108-0.0921 0.39889-0.0914 0.13711-0.26523 0.13711-0.17382 0-0.26593-0.13711-0.0914-0.13781-0.0914-0.39889 0-0.26177 0.0914-0.39889 0.0921-0.13781 0.26593-0.13781z"/><path d="m123.89 372.43h0.11773l-0.36011 1.1655h-0.11773z"/><path d="m124.17 373.35h0.22853v-0.78877l-0.24861 0.0499v-0.12742l0.24722-0.0499h0.13989v0.91619h0.22853v0.11773h-0.59556z"/><path d="m125.33 372.53q-0.10803 0-0.16274 0.10664-0.054 0.10596-0.054 0.31925 0 0.2126 0.054 0.31925 0.0547 0.10595 0.16274 0.10595 0.10872 0 0.16274-0.10595 0.0547-0.10665 0.0547-0.31925 0-0.21329-0.0547-0.31925-0.054-0.10664-0.16274-0.10664zm0-0.11081q0.17382 0 0.26523 0.13781 0.0921 0.13712 0.0921 0.39889 0 0.26108-0.0921 0.39889-0.0914 0.13711-0.26523 0.13711-0.17382 0-0.26593-0.13711-0.0914-0.13781-0.0914-0.39889 0-0.26177 0.0914-0.39889 0.0921-0.13781 0.26593-0.13781z"/><path d="m126.22 372.53q-0.10803 0-0.16274 0.10664-0.054 0.10596-0.054 0.31925 0 0.2126 0.054 0.31925 0.0547 0.10595 0.16274 0.10595 0.10873 0 0.16274-0.10595 0.0547-0.10665 0.0547-0.31925 0-0.21329-0.0547-0.31925-0.054-0.10664-0.16274-0.10664zm0-0.11081q0.17382 0 0.26523 0.13781 0.0921 0.13712 0.0921 0.39889 0 0.26108-0.0921 0.39889-0.0914 0.13711-0.26523 0.13711-0.17382 0-0.26592-0.13711-0.0914-0.13781-0.0914-0.39889 0-0.26177 0.0914-0.39889 0.0921-0.13781 0.26592-0.13781z"/><path d="m127.51 372.55v0.3885h0.1759q0.0976 0 0.15097-0.0506 0.0533-0.0505 0.0533-0.14404 0-0.0928-0.0533-0.14335-0.0533-0.0506-0.15097-0.0506h-0.1759zm-0.13988-0.11496h0.31578q0.17382 0 0.26246 0.079 0.0893 0.0783 0.0893 0.22991 0 0.15305-0.0893 0.2313-0.0886 0.0783-0.26246 0.0783h-0.1759v0.41551h-0.13988v-1.0339z"/><path d="m128.46 372.78q-0.10249 0-0.16205 0.0803-0.0596 0.0796-0.0596 0.21884 0 0.13919 0.0589 0.21952 0.0596 0.0796 0.16274 0.0796 0.1018 0 0.16135-0.0803 0.0596-0.0803 0.0596-0.21883 0-0.13781-0.0596-0.21814-0.0596-0.081-0.16135-0.081zm0-0.10803q0.1662 0 0.26107 0.10803 0.0949 0.10803 0.0949 0.29917 0 0.19044-0.0949 0.29916-0.0949 0.10803-0.26107 0.10803-0.1669 0-0.26177-0.10803-0.0942-0.10872-0.0942-0.29916 0-0.19114 0.0942-0.29917 0.0949-0.10803 0.26177-0.10803z"/><path d="m129.46 372.81q-0.0215-0.0125-0.0471-0.018-0.0249-6e-3 -0.0554-6e-3 -0.10803 0-0.1662 0.0706-0.0575 0.0699-0.0575 0.20152v0.40858h-0.12812v-0.77561h0.12812v0.12049q0.0402-0.0706 0.10457-0.10456 0.0644-0.0346 0.1565-0.0346 0.0132 0 0.0291 2e-3 0.0159 1e-3 0.0353 5e-3l6.9e-4 0.13088z"/><path d="m129.71 372.47v0.22022h0.26247v0.099h-0.26247v0.42104q0 0.0949 0.0256 0.12189 0.0263 0.027 0.10595 0.027h0.13089v0.10665h-0.13089q-0.1475 0-0.2036-0.0547-0.0561-0.0554-0.0561-0.20083v-0.42104h-0.0935v-0.099h0.0935v-0.22022h0.12811z"/><path d="m130.62 372.72v0.1205q-0.054-0.0277-0.11219-0.0415-0.0582-0.0138-0.1205-0.0138-0.0949 0-0.14265 0.0291-0.0471 0.0291-0.0471 0.0873 0 0.0443 0.0339 0.0699 0.0339 0.0249 0.13642 0.0478l0.0436 0.01q0.13573 0.0291 0.19252 0.0824 0.0575 0.0526 0.0575 0.14751 0 0.10803-0.0859 0.17105-0.0852 0.063-0.23476 0.063-0.0623 0-0.1302-0.0125-0.0672-0.0118-0.14196-0.036v-0.13158q0.0706 0.0367 0.13919 0.0554 0.0686 0.018 0.13574 0.018 0.09 0 0.1385-0.0305 0.0485-0.0312 0.0485-0.0873 0-0.0519-0.0353-0.0796-0.0346-0.0277-0.15305-0.0533l-0.0443-0.0104q-0.11842-0.0249-0.17105-0.0762-0.0526-0.0519-0.0526-0.14196 0-0.10942 0.0776-0.16897 0.0776-0.0596 0.22022-0.0596 0.0706 0 0.13296 0.0104 0.0623 0.0104 0.11496 0.0312z"/><path d="m131.59 372.39q-0.0928 0.15928-0.13781 0.31509-0.045 0.15582-0.045 0.31579t0.045 0.31717q0.0457 0.1565 0.13781 0.31509h-0.1108q-0.10388-0.16274-0.15582-0.31994-0.0512-0.1572-0.0512-0.31232 0-0.15443 0.0512-0.31094 0.0513-0.15651 0.15582-0.31994z"/><path d="m131.87 373.35h0.22853v-0.78877l-0.24861 0.0499v-0.12742l0.24722-0.0499h0.13989v0.91619h0.22853v0.11773h-0.59556z"/><path d="m132.65 373.02h0.37327v0.11357h-0.37327z"/><path d="m133.53 372.98q-0.0997 0-0.1572 0.0533-0.0568 0.0533-0.0568 0.14682 0 0.0935 0.0568 0.14681 0.0575 0.0533 0.1572 0.0533t0.1572-0.0533q0.0575-0.054 0.0575-0.14681 0-0.0935-0.0575-0.14682-0.0568-0.0533-0.1572-0.0533zm-0.13988-0.0596q-0.09-0.0222-0.14058-0.0838-0.0499-0.0616-0.0499-0.15027 0-0.12396 0.0879-0.19599 0.0886-0.072 0.24237-0.072 0.15443 0 0.24238 0.072 0.0879 0.072 0.0879 0.19599 0 0.0886-0.0505 0.15027-0.0499 0.0616-0.1392 0.0838 0.10111 0.0236 0.1572 0.0921 0.0568 0.0686 0.0568 0.16759 0 0.15027-0.0921 0.2306-0.0914 0.0803-0.26247 0.0803-0.17105 0-0.26315-0.0803-0.0914-0.0803-0.0914-0.2306 0-0.099 0.0568-0.16759 0.0568-0.0686 0.1579-0.0921zm-0.0513-0.22091q0 0.0803 0.0499 0.12535 0.0506 0.045 0.14127 0.045 0.09 0 0.14058-0.045 0.0512-0.045 0.0512-0.12535 0-0.0803-0.0512-0.12534-0.0506-0.045-0.14058-0.045-0.0907 0-0.14127 0.045-0.0499 0.045-0.0499 0.12534z"/><path d="m134.08 372.39h0.11081q0.10387 0.16343 0.15512 0.31994 0.0519 0.15651 0.0519 0.31094 0 0.15512-0.0519 0.31232-0.0512 0.1572-0.15512 0.31994h-0.11081q0.0921-0.15859 0.13712-0.31509 0.0457-0.1572 0.0457-0.31717t-0.0457-0.31579q-0.045-0.15581-0.13712-0.31509z"/></g></g><g transform="matrix(1.883 0 0 1.883 -58.359 -322.34)" fill="#fff" stroke-width="1px"><path d="m79.148 378.28h0.17185v1.1817q0 0.2297-0.08763 0.33349-0.08677 0.10379-0.27989 0.10379h-0.06551v-0.14463h0.0536q0.114 0 0.16079-0.0638t0.04679-0.22885z"/><path d="m79.665 379.53v-0.15653q0.06466 0.0306 0.13101 0.0468 0.06636 0.0162 0.13016 0.0162 0.17015 0 0.25947-0.114 0.09018-0.11485 0.10294-0.34795-0.04934 0.0732-0.12506 0.1123t-0.1676 0.0391q-0.19056 0-0.30201-0.11485-0.1106-0.1157-0.1106-0.31562 0-0.19567 0.1157-0.31392t0.30797-0.11825q0.22034 0 0.33604 0.16929 0.11655 0.16845 0.11655 0.49003 0 0.30031-0.14292 0.47981-0.14207 0.17866-0.38283 0.17866-0.06466 0-0.13101-0.0128-0.06636-0.0128-0.13782-0.0383zm0.342-0.53851q0.1157 0 0.18291-0.0791 0.06806-0.0791 0.06806-0.21694 0-0.13697-0.06806-0.21609-0.06721-0.08-0.18291-0.08t-0.18376 0.08q-0.06721 0.0791-0.06721 0.21609 0 0.13782 0.06721 0.21694 0.06806 0.0791 0.18376 0.0791z"/><path d="m80.781 379.41h0.28074v-0.96899l-0.30541 0.0613v-0.15654l0.30371-0.0612h0.17185v1.1255h0.28074v0.14462h-0.73163v-0.14462z"/><path d="m82.364 378.87q0.12336 0.0264 0.19227 0.10975 0.06976 0.0834 0.06976 0.20588 0 0.18801-0.12931 0.29095t-0.36752 0.10294q-0.07997 0-0.16504-0.0162-0.08422-0.0153-0.1744-0.0468v-0.16589q0.07146 0.0417 0.15654 0.063 0.08507 0.0213 0.1778 0.0213 0.16164 0 0.24586-0.0638 0.08507-0.0638 0.08507-0.18546 0-0.1123-0.07912-0.17526-0.07827-0.0638-0.21864-0.0638h-0.14803v-0.14122h0.15483q0.12676 0 0.19397-0.0502 0.06721-0.051 0.06721-0.14632 0-0.0978-0.06976-0.14973-0.06891-0.0528-0.19822-0.0528-0.07061 0-0.15143 0.0153t-0.1778 0.0476v-0.15313q0.09783-0.0272 0.18291-0.0408 0.08593-0.0136 0.16164-0.0136 0.19567 0 0.30967 0.0893 0.114 0.0885 0.114 0.2399 0 0.10549-0.0604 0.17866-0.0604 0.0723-0.17185 0.10038z"/><path d="m82.892 378.28h0.8167v0.0732l-0.4611 1.197h-0.1795l0.43387-1.1255h-0.60998v-0.14462z"/><path d="m84.436 378.45-0.2331 0.6321h0.46705zm-0.09698-0.16929h0.19482l0.48407 1.2701h-0.17865l-0.1157-0.32583h-0.57254l-0.1157 0.32583h-0.18121z"/></g><g transform="matrix(1.883 0 0 1.883 -50.722 -374.04)"><g transform="translate(-144.61,21.098)"><rect x="250.4" y="379.77" width="3.9417" height="1.9916" rx=".047399" ry=".023128"/><g transform="scale(1.0397 .96177)"><path d="m242.28 396.3h0.29139v-0.82704l-0.29911 0.0617v-0.22455l0.29739-0.0617h0.31368v1.0516h0.29139v0.22797h-0.89474v-0.22797z" fill="#fff"/></g></g><g transform="translate(-136.97,21.098)"><rect x="250.4" y="379.77" width="3.9417" height="1.9916" rx=".047399" ry=".023128"/><g transform="scale(1.0397 .96177)"><path d="m242.89 395.84q0.12941 0.0334 0.19626 0.11655 0.0677 0.0823 0.0677 0.20997 0 0.19027-0.14569 0.28968-0.1457 0.0986-0.42509 0.0986-0.0986 0-0.19798-0.0163-0.0985-0.0154-0.1954-0.0471v-0.25454q0.0926 0.0463 0.18341 0.0703 0.0917 0.0231 0.17997 0.0231 0.13113 0 0.20055-0.0454 0.0703-0.0454 0.0703-0.13026 0-0.0874-0.072-0.13199-0.0711-0.0454-0.21083-0.0454h-0.13198v-0.21254h0.13884q0.12427 0 0.18512-0.0386 0.0609-0.0394 0.0609-0.11913 0-0.0737-0.0591-0.11398-0.0591-0.0403-0.16712-0.0403-0.0797 0-0.16112 0.018-0.0814 0.018-0.16198 0.0531v-0.24168q0.0977-0.0274 0.19369-0.0411 0.096-0.0137 0.18855-0.0137 0.24939 0 0.37281 0.0823 0.12427 0.0814 0.12427 0.24597 0 0.11227-0.0591 0.18426-0.0591 0.0711-0.17483 0.10028z" fill="#fff"/></g></g><g transform="translate(-129.33,21.098)"><rect x="250.4" y="379.77" width="3.9417" height="1.9916" rx=".047399" ry=".023128"/><g transform="scale(1.0397 .96177)"><path d="m242.26 395.25h0.82018v0.24254h-0.55707v0.19797q0.0377-0.0103 0.0754-0.0154 0.0386-6e-3 0.0797-6e-3 0.23397 0 0.36423 0.11741 0.13027 0.11656 0.13027 0.32567 0 0.2074-0.14226 0.32482-0.14141 0.11741-0.39338 0.11741-0.10884 0-0.21597-0.0214-0.10628-0.0206-0.21169-0.0634v-0.25968q0.10456 0.06 0.19797 0.09 0.0943 0.03 0.17741 0.03 0.11998 0 0.18855-0.0583 0.0694-0.0591 0.0694-0.15941 0-0.10113-0.0694-0.15941-0.0686-0.0583-0.18855-0.0583-0.0711 0-0.1517 0.0188-0.0806 0.018-0.17312 0.0566v-0.7199z" fill="#fff"/></g></g><g transform="translate(-121.69,21.098)"><rect x="250.4" y="379.77" width="3.9417" height="1.9916" rx=".047399" ry=".023128"/><g transform="scale(1.0397 .96177)"><path d="m242.19 395.25h0.96416v0.18597l-0.49879 1.0936h-0.32139l0.47223-1.037h-0.61621z" fill="#fff"/></g></g><g transform="translate(-140.53,38.512)"><rect x="250.4" y="379.77" width="3.9417" height="1.9916" rx=".047399" ry=".023128"/><g transform="scale(1.0397 .96177)"><path d="m242.58 396.29h0.56307v0.24254h-0.92988v-0.24254l0.46708-0.41224q0.0626-0.0566 0.0926-0.11055 0.03-0.054 0.03-0.11227 0-0.09-0.0608-0.14484-0.06-0.0548-0.16027-0.0548-0.0771 0-0.16883 0.0334-0.0917 0.0326-0.19626 0.0977v-0.2811q0.11141-0.0369 0.22025-0.0557 0.10885-0.0197 0.2134-0.0197 0.22969 0 0.35653 0.10113 0.1277 0.10113 0.1277 0.28196 0 0.10456-0.054 0.1954-0.054 0.09-0.22711 0.24169l-0.27339 0.23997z" fill="#fff"/></g></g><g transform="translate(-132.9,38.512)"><rect x="250.4" y="379.77" width="3.9417" height="1.9916" rx=".047399" ry=".023128"/><g transform="scale(1.0397 .96177)"><path d="m242.72 395.52-0.36167 0.53564h0.36167zm-0.0549-0.27168h0.36681v0.80732h0.18255v0.23911h-0.18255v0.23312h-0.31196v-0.23312h-0.56735v-0.28282z" fill="#fff"/></g></g><g transform="translate(-125.26,38.512)"><rect x="250.4" y="379.77" width="3.9417" height="1.9916" rx=".047399" ry=".023128"/><g transform="scale(1.0397 .96177)"><path d="m242.71 395.9q-0.0866 0-0.13027 0.0566-0.0428 0.0557-0.0428 0.16798 0 0.11227 0.0428 0.16883 0.0437 0.0557 0.13027 0.0557 0.0874 0 0.13027-0.0557 0.0437-0.0566 0.0437-0.16883 0-0.11228-0.0437-0.16798-0.0428-0.0566-0.13027-0.0566zm0.40795-0.61449v0.23654q-0.0814-0.0386-0.15341-0.0566-0.072-0.0189-0.14056-0.0189-0.14741 0-0.22968 0.0823-0.0823 0.0814-0.096 0.24254 0.0566-0.042 0.12256-0.0626 0.066-0.0214 0.14398-0.0214 0.19626 0 0.31624 0.11484 0.12085 0.11484 0.12085 0.30082 0 0.20569-0.13456 0.32996-0.13455 0.12341-0.36081 0.12341-0.2494 0-0.38652-0.16798-0.13627-0.16883-0.13627-0.47822 0-0.3171 0.15941-0.49794 0.16026-0.18169 0.4388-0.18169 0.0883 0 0.17141 0.0137 0.0831 0.0137 0.16455 0.0411z" fill="#fff"/></g></g><g transform="translate(-117.63,38.512)"><rect x="250.4" y="379.77" width="3.9417" height="1.9916" rx=".047399" ry=".023128"/><g transform="scale(1.0397 .96177)"><path d="m242.69 395.96q-0.0926 0-0.14227 0.0506-0.0497 0.0506-0.0497 0.14484 0 0.0943 0.0497 0.14484 0.0497 0.0497 0.14227 0.0497 0.0917 0 0.14056-0.0497 0.0488-0.0506 0.0488-0.14484 0-0.0951-0.0488-0.14484-0.0489-0.0506-0.14056-0.0506zm-0.24082-0.10884q-0.11656-0.0351-0.1757-0.10799-0.0591-0.0729-0.0591-0.18169 0-0.16198 0.12084-0.24683 0.12084-0.0848 0.35481-0.0848 0.23226 0 0.3531 0.0848 0.12084 0.084 0.12084 0.24683 0 0.10884-0.06 0.18169-0.0591 0.0729-0.17569 0.10799 0.13027 0.036 0.19626 0.11741 0.0668 0.0806 0.0668 0.20397 0 0.19026-0.12684 0.28797-0.12599 0.0968-0.37453 0.0968-0.24939 0-0.37709-0.0968-0.12684-0.0977-0.12684-0.28797 0-0.12341 0.066-0.20397 0.0669-0.0814 0.19712-0.11741zm0.0771-0.25626q0 0.0763 0.042 0.11742 0.0429 0.0411 0.1217 0.0411 0.0771 0 0.11913-0.0411 0.042-0.0411 0.042-0.11742 0-0.0763-0.042-0.11655-0.042-0.0411-0.11913-0.0411-0.0788 0-0.1217 0.0411-0.042 0.0411-0.042 0.11655z" fill="#fff"/></g></g><g transform="translate(8.9436,8.1949)"><path d="m96.88 409.02h31.185l-0.023-14.075-31.162-2.4e-4z" fill="#3a3a3a"/><g transform="matrix(1.0006 0 0 .99268 14.144 58.805)"><path transform="matrix(.53079 0 0 .53501 55.446 333.8)" d="m56.703 9.0898-5.2734 0.00195 0.0039 26.316 5.2969 2e-3v-1.2656l-4.2578 2e-3v-1.6387l0.41992-0.01367v-8.9844l12.945-0.0078 2e-3 8.9922 0.41992 0.01367v1.6387l-4.2344-2e-3v1.2656l4.3613-2e-3h0.0059l4.4082 2e-3v-1.2656l-4.2598 2e-3v-1.6387l0.41992-0.01367 2e-3 -8.9844 12.945-0.0078v8.9922l0.41992 0.01367v1.6387l-4.2344-2e-3v1.2656l4.5156-2e-3h0.0078l4.4062 2e-3v-1.2656l-4.2598 2e-3v-1.6387l0.41992-0.01367 2e-3 -8.9844 12.945-0.0078v8.9922l0.41992 0.01367v1.6387l-4.2324-2e-3v1.2656l4.5137-2e-3 4.4141 2e-3v-1.2656l-4.2598 2e-3v-1.6387l0.42188-0.01367v-8.9844l13.012-0.02541v9.0684l0.42188 0.01367v1.6387l-4.2344-2e-3v1.2656l5.2734-2e-3 -4e-3 -26.316-5.2988-0.00195v1.2656l4.2598-2e-3v1.6387l-0.42187 0.01367v8.9844s-8.69 0.01763-13.012 0.02351v-9.0664l-0.41992-0.01367v-1.6387l4.2344 2e-3v-1.2656l-4.3809 0.00195-4.5488-0.00195v1.2656l4.2598-2e-3v1.6387l-0.42188 0.01367v9.0391l-0.0098 0.0098-12.936 0.01758v-9.0664l-0.41992-0.01367v-1.6387l4.2324 2e-3v-1.2656l-4.3809 0.00195h-0.0078l-4.5391-0.00195v1.2656l4.2578-2e-3v1.6387l-0.41992 0.01367v9.0391l-0.0098 0.0098-12.936 0.01758v-9.0664l-0.42188-0.01367v-1.6387l4.2344 2e-3v-1.2656l-4.3809 0.00195h-0.0078l-4.3867-0.00195v1.2656l4.2598-2e-3v1.6387l-0.41992 0.01367-2e-3 9.0391-0.0078 0.0098-12.936 0.01758-2e-3 -9.0664-0.41992-0.01367v-1.6387l4.2344 2e-3v-1.2656z" fill="#ebebeb"/></g><g transform="matrix(1.0006 0 0 .99268 6.5907 58.805)"><path d="m113.63 340.44h1.7574l-3e-3 -1.0731 0.63956-5.7e-4v-0.40181h2.0614l-4.8e-4 0.40286h0.6657v1.0732h1.7493v4.6204l-6.8696 0.015z" fill="#1a1a1a"/><path d="m118.91 340.16h1.7357v-0.75438h-1.7357z" fill="#abb927"/><path d="m113.48 340.16h1.751v-0.75831h-1.751z" fill="#abb927"/><path d="m120.51 350.97h-1.7574l3e-3 1.0731-0.63956 5.7e-4v0.40181h-2.0614l4.8e-4 -0.40286h-0.6657v-1.0732h-1.7493v-4.6204l6.8696-0.015z" fill="#1a1a1a"/><path d="m115.23 351.26h-1.7357v0.75438h1.7357z" fill="#abb927"/><path d="m120.67 351.26h-1.751v0.75831h1.751z" fill="#abb927"/></g><g transform="matrix(1.0006 0 0 .99268 -.96302 58.805)"><path d="m113.63 340.44h1.7574l-3e-3 -1.0731 0.63956-5.7e-4v-0.40181h2.0614l-4.8e-4 0.40286h0.6657v1.0732h1.7493v4.6204l-6.8696 0.015z" fill="#1a1a1a"/><path d="m118.91 340.16h1.7357v-0.75438h-1.7357z" fill="#abb927"/><path d="m113.48 340.16h1.751v-0.75831h-1.751z" fill="#abb927"/><path d="m120.51 350.97h-1.7574l3e-3 1.0731-0.63956 5.7e-4v0.40181h-2.0614l4.8e-4 -0.40286h-0.6657v-1.0732h-1.7493v-4.6204l6.8696-0.015z" fill="#1a1a1a"/><path d="m115.23 351.26h-1.7357v0.75438h1.7357z" fill="#abb927"/><path d="m120.67 351.26h-1.751v0.75831h1.751z" fill="#abb927"/></g><g transform="matrix(1.0006 0 0 .99268 -8.5168 58.805)"><path d="m113.63 340.44h1.7574l-3e-3 -1.0731 0.63956-5.7e-4v-0.40181h2.0614l-4.8e-4 0.40286h0.6657v1.0732h1.7493v4.6204l-6.8696 0.015z" fill="#1a1a1a"/><path d="m118.91 340.16h1.7357v-0.75438h-1.7357z" fill="#abb927"/><path d="m113.48 340.16h1.751v-0.75831h-1.751z" fill="#abb927"/><path d="m120.51 350.97h-1.7574l3e-3 1.0731-0.63956 5.7e-4v0.40181h-2.0614l4.8e-4 -0.40286h-0.6657v-1.0732h-1.7493v-4.6204l6.8696-0.015z" fill="#1a1a1a"/><path d="m115.23 351.26h-1.7357v0.75438h1.7357z" fill="#abb927"/><path d="m120.67 351.26h-1.751v0.75831h1.751z" fill="#abb927"/></g><g transform="matrix(1.0006 0 0 .99268 -15.989 58.804)"><path d="m113.63 340.44h1.7574l-3e-3 -1.0731 0.63956-5.7e-4v-0.40181h2.0614l-4.8e-4 0.40286h0.6657v1.0732h1.7493v4.6204l-6.8696 0.015z" fill="#1a1a1a"/><path d="m118.91 340.16h1.7357v-0.75438h-1.7357z" fill="#abb927"/><path d="m113.48 340.16h1.751v-0.75831h-1.751z" fill="#abb927"/><path d="m120.51 350.97h-1.7574l3e-3 1.0731-0.63956 5.7e-4v0.40181h-2.0614l4.8e-4 -0.40286h-0.6657v-1.0732h-1.7493v-4.6204l6.8696-0.015z" fill="#1a1a1a"/><path d="m115.23 351.26h-1.7357v0.75438h1.7357z" fill="#abb927"/><path d="m120.67 351.26h-1.751v0.75831h1.751z" fill="#abb927"/></g></g></g><g transform="matrix(1.883 0 0 1.883 -58.359 -323.36)"><ellipse cx="83.196" cy="388.19" rx=".76392" ry=".76344"/><circle cx="78.793" cy="392.3" r=".38838"/><circle cx="83.953" cy="392.3" r=".38838"/></g><g transform="matrix(1.883 0 0 1.883 -77.943 -351.02)"><rect x="95.462" y="396.24" width="3.3193" height="1.9916" rx=".089249" ry=".043549"/><g fill="#0f0" stroke-width="1px"><path d="m96.52 397.61h-0.47876l-0.07555 0.21632h-0.30778l0.43979-1.1874h0.36504l0.43979 1.1874h-0.30778l-0.07476-0.21632zm-0.40241-0.22029h0.32527l-0.16224-0.4724z"/><path d="m97.75 396.96v0.23222q-0.05805-0.0398-0.11691-0.0589-0.05806-0.0191-0.12088-0.0191-0.11929 0-0.1861 0.07-0.06601 0.0692-0.06601 0.19405 0 0.12486 0.06601 0.19484 0.0668 0.0692 0.1861 0.0692 0.0668 0 0.12645-0.0199 0.06044-0.0199 0.11134-0.0589v0.23302q-0.0668 0.0247-0.13599 0.0366-0.0684 0.0127-0.13758 0.0127-0.24097 0-0.37696-0.12327-0.13599-0.12406-0.13599-0.34435 0-0.2203 0.13599-0.34357 0.13599-0.12406 0.37696-0.12406 0.06999 0 0.13758 0.0127 0.06839 0.0119 0.13599 0.0366z"/><path d="m98.292 396.68v0.2529h0.29346v0.2036h-0.29346v0.37775q0 0.062 0.02465 0.0843 0.02465 0.0215 0.09782 0.0215h0.14633v0.20359h-0.24415q-0.1686 0-0.23938-0.07-0.06999-0.0708-0.06999-0.23939v-0.37775h-0.14156v-0.2036h0.14156v-0.2529h0.28471z"/></g></g><g transform="matrix(1.883 0 0 1.883 -70.252 -325.21)"><rect x="91.461" y="384.9" width="3.3193" height="1.9916" rx=".089249" ry=".043549"/><g fill="#b3b3b3" stroke-width="1px"><path d="m91.636 385.3h0.8263v0.23143h-0.52012v0.22108h0.4891v0.23143h-0.4891v0.50342h-0.30618z"/><path d="m92.87 385.53v0.7245h0.10975q0.18769 0 0.2863-0.0931 0.09941-0.0931 0.09941-0.2704 0-0.17655-0.09861-0.2688-0.09862-0.0922-0.2871-0.0922zm-0.30618-0.23143h0.32288q0.2704 0 0.40241 0.039 0.13281 0.0382 0.22745 0.13042 0.08351 0.0803 0.12406 0.1853 0.04056 0.10498 0.04056 0.23779 0 0.13441-0.04056 0.24018-0.04056 0.10498-0.12406 0.1853-0.09543 0.0923-0.22904 0.13122-0.13361 0.0382-0.40082 0.0382h-0.32288v-1.1874z"/><path d="m93.942 386.03-0.3213-0.43502h0.30141l0.18212 0.26403 0.18451-0.26403h0.30141l-0.32129 0.43343 0.3372 0.45729h-0.30141l-0.20041-0.28153-0.19803 0.28153h-0.30141z"/></g></g><g transform="matrix(1.883 0 0 1.883 -70.252 -325.21)"><rect x="91.467" y="387.41" width="3.3193" height="1.9916" rx=".089249" ry=".043549"/><g fill="#b3b3b3" stroke-width="1px"><path d="m92.545 387.71v0.25131q-0.09782-0.0437-0.19087-0.066t-0.17576-0.0223q-0.10975 0-0.16224 0.0302t-0.05249 0.0938q0 0.0477 0.03499 0.0748 0.03579 0.0262 0.12884 0.0453l0.13043 0.0263q0.19803 0.0398 0.28153 0.12088 0.08351 0.0811 0.08351 0.23063 0 0.19644-0.11691 0.29267-0.11611 0.0954-0.35549 0.0954-0.11293 0-0.22666-0.0215t-0.22745-0.0636v-0.25846q0.11372 0.0604 0.2195 0.0914 0.10657 0.0302 0.20518 0.0302 0.10021 0 0.15349-0.0334t0.05328-0.0954q0-0.0557-0.03658-0.0859-0.03579-0.0302-0.14395-0.0541l-0.1185-0.0262q-0.17814-0.0382-0.26085-0.12168-0.08191-0.0835-0.08191-0.22507 0-0.17735 0.11452-0.27278 0.11452-0.0954 0.32925-0.0954 0.09782 0 0.20121 0.0151 0.10339 0.0143 0.21393 0.0437z"/><path d="m92.979 388.73v0.46763h-0.28471v-1.2295h0.28471v0.13043q0.05885-0.0779 0.13043-0.11453 0.07158-0.0374 0.16462-0.0374 0.16462 0 0.2704 0.13122 0.10577 0.13042 0.10577 0.3364t-0.10577 0.3372q-0.10577 0.13043-0.2704 0.13043-0.09305 0-0.16462-0.0366-0.07158-0.0374-0.13043-0.11532zm0.18928-0.57658q-0.09146 0-0.14077 0.0676-0.04851 0.0668-0.04851 0.19325t0.04851 0.19405q0.04931 0.0668 0.14077 0.0668t0.13917-0.0668q0.04851-0.0668 0.04851-0.19405 0-0.12724-0.04851-0.19405-0.04772-0.0668-0.13917-0.0668z"/><path d="m94.282 388.1v-0.47718h0.2863v1.2375h-0.2863v-0.12884q-0.05885 0.0787-0.12963 0.11532-0.07078 0.0366-0.16383 0.0366-0.16462 0-0.2704-0.13043-0.10577-0.13122-0.10577-0.3372t0.10577-0.3364q0.10577-0.13122 0.2704-0.13122 0.09225 0 0.16303 0.0374 0.07157 0.0366 0.13043 0.11453zm-0.18769 0.57658q0.09146 0 0.13918-0.0668 0.04851-0.0668 0.04851-0.19405 0-0.12724-0.04851-0.19405-0.04772-0.0668-0.13918-0.0668-0.09066 0-0.13918 0.0668-0.04772 0.0668-0.04772 0.19405t0.04772 0.19405q0.04851 0.0668 0.13918 0.0668z"/></g></g><g transform="matrix(1.883 0 0 1.883 -58.359 -323.36)"><path d="m84.999 390.82h-1.8165v-1.6428" fill="none" stroke="#000" stroke-width=".15933"/><path d="m84.999 381.64h-1.8223v1.6491" fill="none" stroke="#000" stroke-width=".14759"/><g transform="translate(-.9109 .77569)" stroke-width="1px"><path d="m86.372 391.23v0.10875q-0.05208-0.0485-0.1113-0.0725-0.05871-0.024-0.12509-0.024-0.1307 0-0.20014 0.0802-0.06944 0.0796-0.06944 0.23077 0 0.15062 0.06944 0.23077 0.06943 0.0797 0.20014 0.0797 0.06637 0 0.12509-0.024 0.05922-0.024 0.1113-0.0725v0.10773q-0.05412 0.0368-0.11488 0.0551-0.06025 0.0184-0.12764 0.0184-0.17308 0-0.27264-0.10568-0.09956-0.1062-0.09956-0.28949 0-0.1838 0.09956-0.28948 0.09956-0.1062 0.27264-0.1062 0.06841 0 0.12866 0.0184 0.06076 0.0179 0.11385 0.0541z"/><path d="m86.518 391.14h0.09394v0.79443h-0.09394z"/><path d="m87.287 391.62v0.046h-0.43193q0.0061 0.097 0.0582 0.14806 0.05259 0.0505 0.14602 0.0505 0.05412 0 0.10466-0.0133 0.05106-0.0133 0.10109-0.0398v0.0888q-0.05054 0.0215-0.10364 0.0327t-0.10773 0.0112q-0.13683 0-0.21698-0.0796-0.07965-0.0797-0.07965-0.21546 0-0.1404 0.07556-0.2226 0.07607-0.0827 0.20473-0.0827 0.11538 0 0.18227 0.0745 0.06739 0.074 0.06739 0.20167zm-0.09394-0.0276q-1e-3 -0.0771-0.0434-0.12304-0.04187-0.046-0.1113-0.046-0.07863 0-0.12611 0.0444-0.04697 0.0444-0.05412 0.12509l0.33492-5.1e-4z"/><path d="m87.69 391.65q-0.11385 0-0.15776 0.026t-0.04391 0.0888q0 0.05 0.03267 0.0796 0.03319 0.0291 0.08986 0.0291 0.07812 0 0.12509-0.0551 0.04748-0.0556 0.04748-0.14755v-0.0209h-0.09343zm0.18737-0.0388v0.32625h-0.09394v-0.0868q-0.03217 0.0521-0.08016 0.0771-0.04799 0.0245-0.11743 0.0245-0.08782 0-0.13989-0.049-0.05157-0.0495-0.05157-0.13224 0-0.0965 0.06433-0.1455 0.06484-0.049 0.19299-0.049h0.13172v-9e-3q0-0.0648-0.04289-0.10007-0.04238-0.0357-0.11947-0.0357-0.04901 0-0.09547 0.0117t-0.08935 0.0352v-0.0868q0.05157-0.0199 0.10007-0.0296 0.0485-0.0102 0.09445-0.0102 0.12406 0 0.18533 0.0643t0.06127 0.19503z"/><path d="m88.393 391.45q-0.01583-9e-3 -0.03472-0.0133-0.01838-5e-3 -0.04084-5e-3 -0.07965 0-0.12253 0.0521-0.04238 0.0516-0.04238 0.14857v0.30123h-0.09445v-0.57183h0.09445v0.0888q0.02961-0.0521 0.07709-0.0771 0.04748-0.0255 0.11538-0.0255 0.0097 0 0.02144 2e-3 0.01174 1e-3 0.02604 4e-3l5.11e-4 0.0965z"/></g><g transform="translate(.16877 .77569)" stroke-width="1px"><path d="m79.781 391.48q0.03319 0.0112 0.06433 0.048 0.03165 0.0368 0.06331 0.10109l0.10466 0.2083h-0.11079l-0.09752-0.19554q-0.03778-0.0766-0.07352-0.1016-0.03523-0.025-0.0965-0.025h-0.11232v0.32216h-0.10313v-0.76226h0.23281q0.1307 0 0.19503 0.0546t0.06433 0.16491q0 0.072-0.0337 0.11947-0.03319 0.0475-0.09701 0.0659zm-0.25834-0.32011v0.27059h0.12968q0.07454 0 0.11232-0.0342 0.03829-0.0347 0.03829-0.1016t-0.03829-0.10058q-0.03778-0.0342-0.11232-0.0342h-0.12968z"/><path d="m80.574 391.53v0.046h-0.43193q0.0061 0.097 0.0582 0.14806 0.05259 0.0505 0.14602 0.0505 0.05412 0 0.10466-0.0133 0.05106-0.0133 0.10109-0.0398v0.0888q-0.05054 0.0214-0.10364 0.0327-0.0531 0.0112-0.10773 0.0112-0.13683 0-0.21699-0.0796-0.07965-0.0796-0.07965-0.21545 0-0.1404 0.07556-0.2226 0.07607-0.0827 0.20473-0.0827 0.11538 0 0.18227 0.0745 0.06739 0.074 0.06739 0.20167zm-0.09394-0.0276q-1e-3 -0.0771-0.0434-0.12305-0.04187-0.046-0.1113-0.046-0.07863 0-0.12611 0.0444-0.04697 0.0444-0.05412 0.12509l0.33492-5.1e-4z"/><path d="m81.082 391.28v0.0888q-0.03982-0.0204-0.08271-0.0306t-0.08884-0.0102q-0.06995 0-0.10517 0.0214-0.03472 0.0214-0.03472 0.0643 0 0.0327 0.02502 0.0516 0.02502 0.0184 0.10058 0.0352l0.03217 7e-3q0.10007 0.0214 0.14193 0.0607 0.04238 0.0388 0.04238 0.10875 0 0.0797-0.06331 0.12611-0.0628 0.0465-0.17308 0.0465-0.04595 0-0.09598-9e-3 -0.04952-9e-3 -0.10466-0.0265v-0.097q0.05208 0.0271 0.10262 0.0409 0.05054 0.0133 0.10007 0.0133 0.06637 0 0.10211-0.0225 0.03574-0.023 0.03574-0.0643 0-0.0383-0.02604-0.0587-0.02553-0.0204-0.11283-0.0393l-0.03267-8e-3q-0.08731-0.0184-0.12611-0.0562-0.0388-0.0383-0.0388-0.10466 0-0.0807 0.05718-0.12458 0.05718-0.0439 0.16236-0.0439 0.05208 0 0.09803 8e-3t0.08475 0.023z"/><path d="m81.742 391.53v0.046h-0.43193q0.0061 0.097 0.0582 0.14806 0.05259 0.0505 0.14602 0.0505 0.05412 0 0.10466-0.0133 0.05106-0.0133 0.10109-0.0398v0.0888q-0.05054 0.0214-0.10364 0.0327-0.0531 0.0112-0.10773 0.0112-0.13683 0-0.21699-0.0796-0.07965-0.0796-0.07965-0.21545 0-0.1404 0.07556-0.2226 0.07607-0.0827 0.20473-0.0827 0.11539 0 0.18227 0.0745 0.06739 0.074 0.06739 0.20167zm-0.09394-0.0276q-1e-3 -0.0771-0.0434-0.12305-0.04187-0.046-0.1113-0.046-0.07863 0-0.12611 0.0444-0.04697 0.0444-0.05412 0.12509l0.33492-5.1e-4z"/><path d="m81.978 391.1v0.16236h0.1935v0.073h-0.1935v0.31042q0 0.0699 0.01889 0.0899 0.0194 0.0199 0.07811 0.0199h0.0965v0.0786h-0.0965q-0.10875 0-0.1501-0.0403-0.04135-0.0408-0.04135-0.14806v-0.31042h-0.06893v-0.073h0.06893v-0.16236h0.09445z"/></g></g><g transform="matrix(1.4267 0 0 1.4267 -17.919 -146.93)" stroke-width="1px"><path d="m80.397 383.16h0.10313v0.67547h0.37117v0.0868h-0.47431v-0.76226z"/><path d="m80.969 383.16h0.48196v0.0868h-0.37883v0.22566h0.363v0.0868h-0.363v0.27621h0.38802v0.0868h-0.49115v-0.76226z"/><path d="m81.723 383.24v0.59276h0.12458q0.15776 0 0.23077-0.0715 0.07352-0.0715 0.07352-0.22566 0-0.15317-0.07352-0.22414-0.07301-0.0715-0.23077-0.0715h-0.12458zm-0.10313-0.0847h0.21188q0.22158 0 0.32522 0.0924 0.10364 0.0919 0.10364 0.28796 0 0.19707-0.10415 0.28948-0.10415 0.0924-0.32471 0.0924h-0.21188v-0.76226z"/><path d="m80.397 383.98h0.15368l0.19452 0.51873 0.19554-0.51873h0.15368v0.76226h-0.10058v-0.66934l-0.19656 0.52281h-0.10364l-0.19656-0.52281v0.66934h-0.10007z"/><path d="m81.507 384.24q-0.07556 0-0.11947 0.0592-0.04391 0.0587-0.04391 0.16133 0 0.10262 0.0434 0.16185 0.04391 0.0587 0.11998 0.0587 0.07505 0 0.11896-0.0592t0.04391-0.16134q0-0.1016-0.04391-0.16082-0.04391-0.0597-0.11896-0.0597zm0-0.0797q0.12253 0 0.19248 0.0797 0.06995 0.0796 0.06995 0.22056 0 0.1404-0.06995 0.22056-0.06995 0.0797-0.19248 0.0797-0.12304 0-0.19299-0.0797-0.06944-0.0802-0.06944-0.22056 0-0.14091 0.06944-0.22056 0.06995-0.0797 0.19299-0.0797z"/><path d="m82.29 384.26v-0.30939h0.09394v0.79442h-0.09394v-0.0858q-0.02961 0.051-0.07505 0.0761-0.04493 0.0245-0.10824 0.0245-0.10364 0-0.16899-0.0827-0.06484-0.0827-0.06484-0.2175 0-0.13479 0.06484-0.2175 0.06535-0.0827 0.16899-0.0827 0.06331 0 0.10824 0.025 0.04544 0.0245 0.07505 0.0756zm-0.32012 0.19963q0 0.10364 0.04238 0.16287 0.04289 0.0587 0.11743 0.0587t0.11743-0.0587q0.04289-0.0592 0.04289-0.16287 0-0.10364-0.04289-0.16236-0.04289-0.0592-0.11743-0.0592t-0.11743 0.0592q-0.04238 0.0587-0.04238 0.16236z"/><path d="m83.057 384.44v0.046h-0.43193q0.0061 0.097 0.0582 0.14807 0.05259 0.0505 0.14602 0.0505 0.05412 0 0.10466-0.0133 0.05106-0.0133 0.10109-0.0398v0.0888q-0.05054 0.0214-0.10364 0.0327-0.0531 0.0112-0.10773 0.0112-0.13683 0-0.21699-0.0797-0.07965-0.0796-0.07965-0.21545 0-0.14041 0.07556-0.22261 0.07607-0.0827 0.20473-0.0827 0.11539 0 0.18227 0.0745 0.06739 0.074 0.06739 0.20166zm-0.09394-0.0276q-1e-3 -0.0771-0.0434-0.12304-0.04187-0.046-0.1113-0.046-0.07863 0-0.12611 0.0444-0.04697 0.0444-0.05412 0.12509l0.33492-5.2e-4z"/></g><rect x="102.3" y="408.83" width="6.2504" height="3.7503" rx=".16806" ry=".082005" stroke-width="1.883"/><g transform="matrix(1.883 0 0 1.883 -58.042 -321.9)" fill="#b3b3b3" stroke-width="1px"><path d="m85.215 388.43h0.51976q0.23182 0 0.35545 0.1033 0.12445 0.10249 0.12445 0.29282 0 0.19115-0.12445 0.29445-0.12364 0.10249-0.35545 0.10249h-0.2066v0.42134h-0.31316zm0.31316 0.22694v0.33918h0.17325q0.0911 0 0.14072-0.0439 0.04962-0.0447 0.04962-0.12608 0-0.0813-0.04962-0.12526-0.04962-0.0439-0.14072-0.0439h-0.17325z"/><path d="m86.839 388.92q-0.0968 0-0.14804 0.07-0.05043 0.0691-0.05043 0.20009 0 0.13096 0.05043 0.20091 0.05124 0.0691 0.14804 0.0691 0.09517 0 0.1456-0.0691 0.05043-0.07 0.05043-0.20091 0-0.13095-0.05043-0.20009-0.05043-0.07-0.1456-0.07zm0-0.20823q0.23507 0 0.36684 0.12689 0.13258 0.12689 0.13258 0.35139t-0.13258 0.35139q-0.13177 0.12689-0.36684 0.12689-0.23589 0-0.36928-0.12689-0.13258-0.12689-0.13258-0.35139t0.13258-0.35139q0.1334-0.12689 0.36928-0.12689z"/><path d="m87.547 388.43h0.84512v0.2367h-0.53196v0.22612h0.50024v0.2367h-0.50024v0.27818h0.54986v0.2367h-0.86302z"/></g><path d="m98.266 403.33v2.1896" fill="none" stroke="#000" stroke-width=".27792"/><g transform="matrix(1.883 0 0 1.883 -57.761 -321.62)"><rect x="77.967" y="387.91" width="3.3193" height="1.9916" rx=".089249" ry=".043549"/><g fill="#b3b3b3" stroke-width="1px"><path d="m78.058 388.5h0.92418v0.19545h-0.33246v0.80731h-0.25858v-0.80731h-0.33313z"/><path d="m79.659 389.12v0.0685h-0.56216q0.0087 0.0846 0.06112 0.12693 0.05239 0.0423 0.14642 0.0423 0.0759 0 0.15515-0.0222 0.07993-0.0228 0.16388-0.0685v0.18537q-0.0853 0.0322-0.1706 0.0484-0.0853 0.0168-0.1706 0.0168-0.20418 0-0.31768-0.10343-0.11284-0.10411-0.11284-0.2915 0-0.18402 0.11082-0.28947 0.11149-0.10545 0.30627-0.10545 0.17731 0 0.28343 0.10679 0.10679 0.10679 0.10679 0.28545zm-0.24716-0.0799q0-0.0685-0.0403-0.11015-0.03963-0.0423-0.1041-0.0423-0.06985 0-0.11351 0.0396-0.04366 0.0389-0.0544 0.11283h0.31231z"/><path d="m80.415 388.77v0.18269q-0.07724-0.0322-0.1491-0.0484-0.07186-0.0161-0.13567-0.0161-0.06851 0-0.10209 0.0175-0.03291 0.0168-0.03291 0.0524 0 0.0289 0.02485 0.0443 0.02552 0.0154 0.09067 0.0228l0.04231 6e-3q0.1847 0.0235 0.24851 0.0772t0.06381 0.16858q0 0.12022-0.08866 0.18067-0.08866 0.0605-0.26462 0.0605-0.07455 0-0.15448-0.0121-0.07925-0.0114-0.16321-0.0349v-0.18268q0.07187 0.0349 0.14709 0.0524 0.0759 0.0175 0.15381 0.0175 0.07052 0 0.10612-0.0195t0.0356-0.0578q0-0.0322-0.02485-0.0477-0.02418-0.0161-0.09739-0.0248l-0.04231-5e-3q-0.16052-0.0202-0.225-0.0745-0.06448-0.0544-0.06448-0.16523 0-0.11955 0.08194-0.17731 0.08194-0.0578 0.25119-0.0578 0.06649 0 0.1397 0.0101t0.15918 0.0316z"/><path d="m80.895 388.54v0.21358h0.24784v0.17194h-0.24784v0.31903q0 0.0524 0.02082 0.0712 0.02082 0.0181 0.08261 0.0181h0.12358v0.17194h-0.20619q-0.14239 0-0.20216-0.0591-0.05911-0.0598-0.05911-0.20217v-0.31903h-0.11955v-0.17194h0.11955v-0.21358h0.24045z"/></g></g><g transform="matrix(1.883 0 0 1.883 -56.798 -316.25)"><rect x="77.456" y="382.84" width="3.3193" height="1.9916" rx=".089249" ry=".043549"/><g fill="#b3b3b3" stroke-width="1px"><path d="m77.518 383.22h0.51976q0.23182 0 0.35545 0.1033 0.12445 0.10249 0.12445 0.29283 0 0.19114-0.12445 0.29445-0.12364 0.10248-0.35545 0.10248h-0.2066v0.42134h-0.31316zm0.31316 0.22694v0.33919h0.17325q0.0911 0 0.14072-0.0439 0.04962-0.0447 0.04962-0.12607 0-0.0813-0.04962-0.12527-0.04962-0.0439-0.14072-0.0439h-0.17325z"/><path d="m79.142 383.71q-0.09679 0-0.14804 0.07-0.05043 0.0691-0.05043 0.20009 0 0.13096 0.05043 0.20091 0.05125 0.0691 0.14804 0.0691 0.09517 0 0.1456-0.0691 0.05043-0.07 0.05043-0.20091 0-0.13095-0.05043-0.20009-0.05043-0.07-0.1456-0.07zm0-0.20823q0.23507 0 0.36684 0.12689 0.13258 0.12689 0.13258 0.35138 0 0.2245-0.13258 0.35139-0.13177 0.12689-0.36684 0.12689-0.23588 0-0.36928-0.12689-0.13258-0.12689-0.13258-0.35139 0-0.22449 0.13258-0.35138 0.1334-0.12689 0.36928-0.12689z"/><path d="m79.85 383.22h0.84512v0.2367h-0.53196v0.22612h0.50024v0.2367h-0.50024v0.27819h0.54986v0.23669h-0.86302z"/></g></g><g transform="matrix(1.883 0 0 1.883 -58.042 -316.82)" stroke-width="1px"><path d="m78.685 381.76v0.10058q-0.05871-0.0281-0.11079-0.0419t-0.10058-0.0138q-0.08424 0-0.13019 0.0327-0.04544 0.0327-0.04544 0.0929 0 0.0505 0.03012 0.0766 0.03063 0.0255 0.11538 0.0414l0.06229 0.0128q0.11539 0.022 0.17002 0.0776 0.05514 0.0551 0.05514 0.14807 0 0.11079-0.07454 0.16797-0.07403 0.0572-0.2175 0.0572-0.05412 0-0.11538-0.0123-0.06076-0.0123-0.12611-0.0362v-0.1062q0.0628 0.0352 0.12304 0.0531t0.11845 0.0179q0.08833 0 0.13632-0.0347t0.04799-0.099q0-0.0562-0.03472-0.0878-0.03421-0.0317-0.11283-0.0475l-0.0628-0.0123q-0.11538-0.023-0.16695-0.072t-0.05157-0.13632q0-0.10109 0.07097-0.1593 0.07148-0.0582 0.19656-0.0582 0.05361 0 0.10926 0.01t0.11385 0.0291z"/><path d="m78.97 381.76v0.16235h0.1935v0.073h-0.1935v0.31042q0 0.07 0.01889 0.0899 0.0194 0.0199 0.07811 0.0199h0.0965v0.0786h-0.0965q-0.10875 0-0.1501-0.0403-0.04135-0.0408-0.04135-0.14806v-0.31042h-0.06892v-0.073h0.06892v-0.16235h0.09445z"/><path d="m79.537 382.21q-0.11385 0-0.15776 0.026t-0.04391 0.0888q0 0.05 0.03268 0.0796 0.03319 0.0291 0.08986 0.0291 0.07812 0 0.12509-0.0551 0.04748-0.0557 0.04748-0.14756v-0.0209h-0.09343zm0.18737-0.0388v0.32624h-0.09394v-0.0868q-0.03216 0.0521-0.08016 0.0771-0.04799 0.0245-0.11743 0.0245-0.08782 0-0.13989-0.049-0.05157-0.0495-0.05157-0.13224 0-0.0965 0.06433-0.1455 0.06484-0.049 0.19299-0.049h0.13172v-9e-3q0-0.0648-0.04289-0.10007-0.04238-0.0357-0.11947-0.0357-0.04901 0-0.09547 0.0118-0.04646 0.0117-0.08935 0.0352v-0.0868q0.05157-0.0199 0.10007-0.0296 0.0485-0.0102 0.09445-0.0102 0.12406 0 0.18533 0.0643t0.06127 0.19503z"/><path d="m80.001 381.76v0.16235h0.1935v0.073h-0.1935v0.31042q0 0.07 0.01889 0.0899 0.0194 0.0199 0.07812 0.0199h0.09649v0.0786h-0.09649q-0.10875 0-0.1501-0.0403-0.04136-0.0408-0.04136-0.14806v-0.31042h-0.06892v-0.073h0.06892v-0.16235h0.09445z"/><path d="m80.298 382.27v-0.34616h0.09394v0.34259q0 0.0812 0.03165 0.12202 0.03166 0.0403 0.09496 0.0403 0.07607 0 0.11998-0.0485 0.04442-0.0485 0.04442-0.13223v-0.32421h0.09394v0.57182h-0.09394v-0.0878q-0.03421 0.0521-0.07965 0.0776-0.04493 0.025-0.10466 0.025-0.09854 0-0.14959-0.0613-0.05106-0.0613-0.05106-0.1792zm0.23639-0.35994z"/><path d="m81.326 381.94v0.0888q-0.03982-0.0204-0.08271-0.0306t-0.08884-0.0102q-0.06995 0-0.10517 0.0214-0.03472 0.0214-0.03472 0.0643 0 0.0327 0.02502 0.0516 0.02502 0.0184 0.10058 0.0352l0.03216 7e-3q0.10007 0.0214 0.14193 0.0607 0.04238 0.0388 0.04238 0.10875 0 0.0796-0.06331 0.12611-0.0628 0.0465-0.17308 0.0465-0.04595 0-0.09598-9e-3 -0.04952-9e-3 -0.10466-0.0265v-0.097q0.05208 0.0271 0.10262 0.0408 0.05054 0.0133 0.10007 0.0133 0.06637 0 0.10211-0.0225 0.03574-0.023 0.03574-0.0643 0-0.0383-0.02604-0.0587-0.02553-0.0204-0.11283-0.0393l-0.03268-8e-3q-0.08731-0.0184-0.12611-0.0562-0.0388-0.0383-0.0388-0.10466 0-0.0807 0.05718-0.12457 0.05718-0.0439 0.16236-0.0439 0.05208 0 0.09803 8e-3t0.08475 0.023z"/></g></svg>
