<svg width="442" height="44.5" version="1.1" viewBox="0 0 442 44.5" xmlns="http://www.w3.org/2000/svg"><rect x=".42863" y=".39369" width="441.14" height="43.705" fill="#4d4d4d" fill-opacity=".92742" stroke="#000" stroke-width=".82503"/><rect x="21.893" y="2.4891" width="376.98" height="41.61" fill="#e7e7e7" stroke-width="2.0626"/><g transform="matrix(2.8572 0 0 3.1259 -191.78 -1198.7)"><polygon points="68.589 392.59 73.389 392.59 73.389 395.19 71.989 395.19 71.989 395.79 71.589 395.79 71.589 396.19 70.389 396.19 70.389 395.79 69.989 395.79 69.989 395.19 68.589 395.19"/><polygon points="68.589 392.59 73.389 392.59 73.389 395.19 71.989 395.19 71.989 395.79 71.589 395.79 71.589 396.19 70.389 396.19 70.389 395.79 69.989 395.79 69.989 395.19 68.589 395.19" fill="none" stroke="#7f7f7f" stroke-width=".2"/></g><rect x="363.52" y="24.502" width="16.293" height="13.788" rx=".043198" ry=".063503" stroke-width="1.8808"/><path d="m21.163 43.66-0.0077-42.905" fill="none" stroke="#333" stroke-linejoin="round" stroke-width=".99884"/><rect x="403.38" y="24.621" width="3.1606" height="2.4221" rx=".16208" ry=".079263" fill="#e6e6e6" stroke="#000" stroke-width=".39955"/><rect x="414.27" y="24.621" width="3.1606" height="2.4221" rx=".16208" ry=".079263" fill="#e6e6e6" stroke="#000" stroke-width=".39955"/><rect x="182.91" y="10.472" width="87.238" height="27.14" rx=".31697" ry=".1398" stroke-width="1.8807"/><rect x="271.41" y="10.472" width="87.238" height="27.14" rx=".31697" ry=".1398" stroke-width="1.8807"/><g transform="matrix(1.8786 0 0 1.8829 1.1393 -732.84)"><path d="m96.88 409.02h46.207l-0.023-14.075-46.184-2.4e-4z" fill="#3a3a3a"/><g transform="matrix(1.0006 0 0 .99268 14.144 58.805)"><path d="m113.63 340.44h1.7574l-3e-3 -1.0731 0.63956-5.7e-4v-0.40181h2.0614l-4.8e-4 0.40286h0.6657v1.0732h1.7493v4.6204l-6.8696 0.015z" fill="#1a1a1a"/><path d="m118.91 340.16h1.7357v-0.75438h-1.7357z" fill="#abb927"/><path d="m113.48 340.16h1.751v-0.75831h-1.751z" fill="#abb927"/><path d="m120.51 350.97h-1.7574l3e-3 1.0731-0.63956 5.7e-4v0.40181h-2.0614l4.8e-4 -0.40286h-0.6657v-1.0732h-1.7493v-4.6204l6.8696-0.015z" fill="#1a1a1a"/><path d="m115.23 351.26h-1.7357v0.75438h1.7357z" fill="#abb927"/><path d="m120.67 351.26h-1.751v0.75831h1.751z" fill="#abb927"/><path transform="matrix(.53079 0 0 .53501 55.446 333.8)" d="m56.703 9.0898-5.2734 0.00195 0.0039 26.316 5.2969 2e-3v-1.2656l-4.2578 2e-3v-1.6387l0.41992-0.01367v-8.9844l12.945-0.0078 2e-3 8.9922 0.41992 0.01367v1.6387l-4.2344-2e-3v1.2656l4.3613-2e-3h0.0059l4.4082 2e-3v-1.2656l-4.2598 2e-3v-1.6387l0.41992-0.01367 2e-3 -8.9844 12.945-0.0078v8.9922l0.41992 0.01367v1.6387l-4.2344-2e-3v1.2656l4.5156-2e-3h0.0078l4.4062 2e-3v-1.2656l-4.2598 2e-3v-1.6387l0.41992-0.01367 2e-3 -8.9844 12.945-0.0078v8.9922l0.41992 0.01367v1.6387l-4.2324-2e-3v1.2656l4.5137-2e-3 4.4141 2e-3v-1.2656l-4.2598 2e-3v-1.6387l0.42188-0.01367v-8.9844l12.945-0.0078v8.9922l0.42187 0.01367v1.6387l-4.2344-2e-3v1.2656l4.5137-2e-3h0.01l4.4043 2e-3v-1.2656l-4.2578 2e-3v-1.6387l0.41992-0.01367v-8.9844l12.945-0.0078 2e-3 8.9922 0.41993 0.01367v1.6387l-4.2344-2e-3v1.2656l4.5-2e-3h0.0234l4.3691 2e-3v-1.2656l-4.2598 2e-3v-1.6387l0.41993-0.01367 2e-3 -9.0391 0.01-0.0098 12.936-0.01953v9.0684l0.42188 0.01367v1.6387l-4.2344-2e-3v1.2656l5.2734-2e-3 -4e-3 -26.316-5.2988-0.00195v1.2656l4.2598-2e-3v1.6387l-0.42187 0.01367v8.9844l-12.945 0.0078v-8.9922l-0.42187-0.01367v-1.6387l4.2344 2e-3v-1.2656l-4.3438 0.00195h-0.0234l-4.5254-0.00195v1.2656l4.2598-2e-3v1.6387l-0.41992 0.01367-2e-3 9.0391-8e-3 0.0098-12.936 0.01758-2e-3 -9.0664-0.41992-0.01367v-1.6387l4.2344 2e-3v-1.2656l-4.3809 0.00195h-8e-3l-4.541-0.00195v1.2656l4.2598-2e-3v1.6387l-0.41992 0.01367-2e-3 9.0391-0.01 0.0098-12.936 0.01758v-9.0664l-0.41992-0.01367v-1.6387l4.2344 2e-3v-1.2656l-4.3809 0.00195-4.5488-0.00195v1.2656l4.2598-2e-3v1.6387l-0.42188 0.01367v9.0391l-0.0098 0.0098-12.936 0.01758v-9.0664l-0.41992-0.01367v-1.6387l4.2324 2e-3v-1.2656l-4.3809 0.00195h-0.0078l-4.5391-0.00195v1.2656l4.2578-2e-3v1.6387l-0.41992 0.01367v9.0391l-0.0098 0.0098-12.936 0.01758v-9.0664l-0.42188-0.01367v-1.6387l4.2344 2e-3v-1.2656l-4.3809 0.00195h-0.0078l-4.3867-0.00195v1.2656l4.2598-2e-3v1.6387l-0.41992 0.01367-2e-3 9.0391-0.0078 0.0098-12.936 0.01758-2e-3 -9.0664-0.41992-0.01367v-1.6387l4.2344 2e-3v-1.2656z" fill="#ebebeb"/></g><g transform="matrix(1.0006 0 0 .99268 6.5907 58.805)"><path d="m113.63 340.44h1.7574l-3e-3 -1.0731 0.63956-5.7e-4v-0.40181h2.0614l-4.8e-4 0.40286h0.6657v1.0732h1.7493v4.6204l-6.8696 0.015z" fill="#1a1a1a"/><path d="m118.91 340.16h1.7357v-0.75438h-1.7357z" fill="#abb927"/><path d="m113.48 340.16h1.751v-0.75831h-1.751z" fill="#abb927"/><path d="m120.51 350.97h-1.7574l3e-3 1.0731-0.63956 5.7e-4v0.40181h-2.0614l4.8e-4 -0.40286h-0.6657v-1.0732h-1.7493v-4.6204l6.8696-0.015z" fill="#1a1a1a"/><path d="m115.23 351.26h-1.7357v0.75438h1.7357z" fill="#abb927"/><path d="m120.67 351.26h-1.751v0.75831h1.751z" fill="#abb927"/></g><g transform="matrix(1.0006 0 0 .99268 -.96302 58.805)"><path d="m113.63 340.44h1.7574l-3e-3 -1.0731 0.63956-5.7e-4v-0.40181h2.0614l-4.8e-4 0.40286h0.6657v1.0732h1.7493v4.6204l-6.8696 0.015z" fill="#1a1a1a"/><path d="m118.91 340.16h1.7357v-0.75438h-1.7357z" fill="#abb927"/><path d="m113.48 340.16h1.751v-0.75831h-1.751z" fill="#abb927"/><path d="m120.51 350.97h-1.7574l3e-3 1.0731-0.63956 5.7e-4v0.40181h-2.0614l4.8e-4 -0.40286h-0.6657v-1.0732h-1.7493v-4.6204l6.8696-0.015z" fill="#1a1a1a"/><path d="m115.23 351.26h-1.7357v0.75438h1.7357z" fill="#abb927"/><path d="m120.67 351.26h-1.751v0.75831h1.751z" fill="#abb927"/></g><g transform="matrix(1.0006 0 0 .99268 -8.5168 58.805)"><path d="m113.63 340.44h1.7574l-3e-3 -1.0731 0.63956-5.7e-4v-0.40181h2.0614l-4.8e-4 0.40286h0.6657v1.0732h1.7493v4.6204l-6.8696 0.015z" fill="#1a1a1a"/><path d="m118.91 340.16h1.7357v-0.75438h-1.7357z" fill="#abb927"/><path d="m113.48 340.16h1.751v-0.75831h-1.751z" fill="#abb927"/><path d="m120.51 350.97h-1.7574l3e-3 1.0731-0.63956 5.7e-4v0.40181h-2.0614l4.8e-4 -0.40286h-0.6657v-1.0732h-1.7493v-4.6204l6.8696-0.015z" fill="#1a1a1a"/><path d="m115.23 351.26h-1.7357v0.75438h1.7357z" fill="#abb927"/><path d="m120.67 351.26h-1.751v0.75831h1.751z" fill="#abb927"/></g><g transform="matrix(1.0006 0 0 .99268 -15.989 58.804)"><path d="m113.63 340.44h1.7574l-3e-3 -1.0731 0.63956-5.7e-4v-0.40181h2.0614l-4.8e-4 0.40286h0.6657v1.0732h1.7493v4.6204l-6.8696 0.015z" fill="#1a1a1a"/><path d="m118.91 340.16h1.7357v-0.75438h-1.7357z" fill="#abb927"/><path d="m113.48 340.16h1.751v-0.75831h-1.751z" fill="#abb927"/><path d="m120.51 350.97h-1.7574l3e-3 1.0731-0.63956 5.7e-4v0.40181h-2.0614l4.8e-4 -0.40286h-0.6657v-1.0732h-1.7493v-4.6204l6.8696-0.015z" fill="#1a1a1a"/><path d="m115.23 351.26h-1.7357v0.75438h1.7357z" fill="#abb927"/><path d="m120.67 351.26h-1.751v0.75831h1.751z" fill="#abb927"/></g><g transform="translate(3.5862,18.762)"><path d="m131.79 378h1.7584l-3e-3 -1.0653 0.63993-5.6e-4v-0.39887h2.0626l-4.8e-4 0.39991h0.66608v1.0654h1.7503v4.5866l-6.8735 0.0149z" fill="#1a1a1a"/><path d="m137.07 377.72h1.7367v-0.74886h-1.7367z" fill="#abb927"/><path d="m131.63 377.71h1.7519v-0.75276h-1.7519z" fill="#abb927"/><path d="m138.67 388.45h-1.7584l3e-3 1.0653-0.63993 5.6e-4v0.39887h-2.0626l4.8e-4 -0.39991h-0.66608v-1.0654h-1.7503v-4.5866l6.8735-0.0149z" fill="#1a1a1a"/><path d="m133.39 388.73h-1.7367v0.74886h1.7367z" fill="#abb927"/><path d="m138.83 388.73h-1.7519v0.75276h1.7519z" fill="#abb927"/></g></g><g transform="matrix(1.8786 0 0 1.8829 89.641 -732.84)"><path d="m96.88 409.02h46.207l-0.023-14.075-46.184-2.4e-4z" fill="#3a3a3a"/><g transform="matrix(1.0006 0 0 .99268 14.144 58.805)"><path d="m113.63 340.44h1.7574l-3e-3 -1.0731 0.63956-5.7e-4v-0.40181h2.0614l-4.8e-4 0.40286h0.6657v1.0732h1.7493v4.6204l-6.8696 0.015z" fill="#1a1a1a"/><path d="m118.91 340.16h1.7357v-0.75438h-1.7357z" fill="#abb927"/><path d="m113.48 340.16h1.751v-0.75831h-1.751z" fill="#abb927"/><path d="m120.51 350.97h-1.7574l3e-3 1.0731-0.63956 5.7e-4v0.40181h-2.0614l4.8e-4 -0.40286h-0.6657v-1.0732h-1.7493v-4.6204l6.8696-0.015z" fill="#1a1a1a"/><path d="m115.23 351.26h-1.7357v0.75438h1.7357z" fill="#abb927"/><path d="m120.67 351.26h-1.751v0.75831h1.751z" fill="#abb927"/><path transform="matrix(.53079 0 0 .53501 55.446 333.8)" d="m56.703 9.0898-5.2734 0.00195 0.0039 26.316 5.2969 2e-3v-1.2656l-4.2578 2e-3v-1.6387l0.41992-0.01367v-8.9844l12.945-0.0078 2e-3 8.9922 0.41992 0.01367v1.6387l-4.2344-2e-3v1.2656l4.3613-2e-3h0.0059l4.4082 2e-3v-1.2656l-4.2598 2e-3v-1.6387l0.41992-0.01367 2e-3 -8.9844 12.945-0.0078v8.9922l0.41992 0.01367v1.6387l-4.2344-2e-3v1.2656l4.5156-2e-3h0.0078l4.4062 2e-3v-1.2656l-4.2598 2e-3v-1.6387l0.41992-0.01367 2e-3 -8.9844 12.945-0.0078v8.9922l0.41992 0.01367v1.6387l-4.2324-2e-3v1.2656l4.5137-2e-3 4.4141 2e-3v-1.2656l-4.2598 2e-3v-1.6387l0.42188-0.01367v-8.9844l12.945-0.0078v8.9922l0.42187 0.01367v1.6387l-4.2344-2e-3v1.2656l4.5137-2e-3h0.01l4.4043 2e-3v-1.2656l-4.2578 2e-3v-1.6387l0.41992-0.01367v-8.9844l12.945-0.0078 2e-3 8.9922 0.41993 0.01367v1.6387l-4.2344-2e-3v1.2656l4.5-2e-3h0.0234l4.3691 2e-3v-1.2656l-4.2598 2e-3v-1.6387l0.41993-0.01367 2e-3 -9.0391 0.01-0.0098 12.936-0.01953v9.0684l0.42188 0.01367v1.6387l-4.2344-2e-3v1.2656l5.2734-2e-3 -4e-3 -26.316-5.2988-0.00195v1.2656l4.2598-2e-3v1.6387l-0.42187 0.01367v8.9844l-12.945 0.0078v-8.9922l-0.42187-0.01367v-1.6387l4.2344 2e-3v-1.2656l-4.3438 0.00195h-0.0234l-4.5254-0.00195v1.2656l4.2598-2e-3v1.6387l-0.41992 0.01367-2e-3 9.0391-8e-3 0.0098-12.936 0.01758-2e-3 -9.0664-0.41992-0.01367v-1.6387l4.2344 2e-3v-1.2656l-4.3809 0.00195h-8e-3l-4.541-0.00195v1.2656l4.2598-2e-3v1.6387l-0.41992 0.01367-2e-3 9.0391-0.01 0.0098-12.936 0.01758v-9.0664l-0.41992-0.01367v-1.6387l4.2344 2e-3v-1.2656l-4.3809 0.00195-4.5488-0.00195v1.2656l4.2598-2e-3v1.6387l-0.42188 0.01367v9.0391l-0.0098 0.0098-12.936 0.01758v-9.0664l-0.41992-0.01367v-1.6387l4.2324 2e-3v-1.2656l-4.3809 0.00195h-0.0078l-4.5391-0.00195v1.2656l4.2578-2e-3v1.6387l-0.41992 0.01367v9.0391l-0.0098 0.0098-12.936 0.01758v-9.0664l-0.42188-0.01367v-1.6387l4.2344 2e-3v-1.2656l-4.3809 0.00195h-0.0078l-4.3867-0.00195v1.2656l4.2598-2e-3v1.6387l-0.41992 0.01367-2e-3 9.0391-0.0078 0.0098-12.936 0.01758-2e-3 -9.0664-0.41992-0.01367v-1.6387l4.2344 2e-3v-1.2656z" fill="#ebebeb"/></g><g transform="matrix(1.0006 0 0 .99268 6.5907 58.805)"><path d="m113.63 340.44h1.7574l-3e-3 -1.0731 0.63956-5.7e-4v-0.40181h2.0614l-4.8e-4 0.40286h0.6657v1.0732h1.7493v4.6204l-6.8696 0.015z" fill="#1a1a1a"/><path d="m118.91 340.16h1.7357v-0.75438h-1.7357z" fill="#abb927"/><path d="m113.48 340.16h1.751v-0.75831h-1.751z" fill="#abb927"/><path d="m120.51 350.97h-1.7574l3e-3 1.0731-0.63956 5.7e-4v0.40181h-2.0614l4.8e-4 -0.40286h-0.6657v-1.0732h-1.7493v-4.6204l6.8696-0.015z" fill="#1a1a1a"/><path d="m115.23 351.26h-1.7357v0.75438h1.7357z" fill="#abb927"/><path d="m120.67 351.26h-1.751v0.75831h1.751z" fill="#abb927"/></g><g transform="matrix(1.0006 0 0 .99268 -.96302 58.805)"><path d="m113.63 340.44h1.7574l-3e-3 -1.0731 0.63956-5.7e-4v-0.40181h2.0614l-4.8e-4 0.40286h0.6657v1.0732h1.7493v4.6204l-6.8696 0.015z" fill="#1a1a1a"/><path d="m118.91 340.16h1.7357v-0.75438h-1.7357z" fill="#abb927"/><path d="m113.48 340.16h1.751v-0.75831h-1.751z" fill="#abb927"/><path d="m120.51 350.97h-1.7574l3e-3 1.0731-0.63956 5.7e-4v0.40181h-2.0614l4.8e-4 -0.40286h-0.6657v-1.0732h-1.7493v-4.6204l6.8696-0.015z" fill="#1a1a1a"/><path d="m115.23 351.26h-1.7357v0.75438h1.7357z" fill="#abb927"/><path d="m120.67 351.26h-1.751v0.75831h1.751z" fill="#abb927"/></g><g transform="matrix(1.0006 0 0 .99268 -8.5168 58.805)"><path d="m113.63 340.44h1.7574l-3e-3 -1.0731 0.63956-5.7e-4v-0.40181h2.0614l-4.8e-4 0.40286h0.6657v1.0732h1.7493v4.6204l-6.8696 0.015z" fill="#1a1a1a"/><path d="m118.91 340.16h1.7357v-0.75438h-1.7357z" fill="#abb927"/><path d="m113.48 340.16h1.751v-0.75831h-1.751z" fill="#abb927"/><path d="m120.51 350.97h-1.7574l3e-3 1.0731-0.63956 5.7e-4v0.40181h-2.0614l4.8e-4 -0.40286h-0.6657v-1.0732h-1.7493v-4.6204l6.8696-0.015z" fill="#1a1a1a"/><path d="m115.23 351.26h-1.7357v0.75438h1.7357z" fill="#abb927"/><path d="m120.67 351.26h-1.751v0.75831h1.751z" fill="#abb927"/></g><g transform="matrix(1.0006 0 0 .99268 -15.989 58.804)"><path d="m113.63 340.44h1.7574l-3e-3 -1.0731 0.63956-5.7e-4v-0.40181h2.0614l-4.8e-4 0.40286h0.6657v1.0732h1.7493v4.6204l-6.8696 0.015z" fill="#1a1a1a"/><path d="m118.91 340.16h1.7357v-0.75438h-1.7357z" fill="#abb927"/><path d="m113.48 340.16h1.751v-0.75831h-1.751z" fill="#abb927"/><path d="m120.51 350.97h-1.7574l3e-3 1.0731-0.63956 5.7e-4v0.40181h-2.0614l4.8e-4 -0.40286h-0.6657v-1.0732h-1.7493v-4.6204l6.8696-0.015z" fill="#1a1a1a"/><path d="m115.23 351.26h-1.7357v0.75438h1.7357z" fill="#abb927"/><path d="m120.67 351.26h-1.751v0.75831h1.751z" fill="#abb927"/></g><g transform="translate(3.5862,18.762)"><path d="m131.79 378h1.7584l-3e-3 -1.0653 0.63993-5.6e-4v-0.39887h2.0626l-4.8e-4 0.39991h0.66608v1.0654h1.7503v4.5866l-6.8735 0.0149z" fill="#1a1a1a"/><path d="m137.07 377.72h1.7367v-0.74886h-1.7367z" fill="#abb927"/><path d="m131.63 377.71h1.7519v-0.75276h-1.7519z" fill="#abb927"/><path d="m138.67 388.45h-1.7584l3e-3 1.0653-0.63993 5.6e-4v0.39887h-2.0626l4.8e-4 -0.39991h-0.66608v-1.0654h-1.7503v-4.5866l6.8735-0.0149z" fill="#1a1a1a"/><path d="m133.39 388.73h-1.7367v0.74886h1.7367z" fill="#abb927"/><path d="m138.83 388.73h-1.7519v0.75276h1.7519z" fill="#abb927"/></g></g><g transform="matrix(1.8786 0 0 1.8829 -148.93 -736.41)"><rect x="209.93" y="392.62" width="26.458" height="1.46" fill="#f9ff00"/><g transform="translate(13.426,20.696)" stroke-width="1px"><path d="m196.68 372.13v0.38627h0.17489q0.0971 0 0.1501-0.0503t0.053-0.14322q0-0.0923-0.053-0.14253-0.053-0.0503-0.1501-0.0503h-0.17489zm-0.13909-0.1143h0.31398q0.17282 0 0.26095 0.0785 0.0888 0.0778 0.0888 0.22859 0 0.15217-0.0888 0.22998-0.0881 0.0778-0.26095 0.0778h-0.17489v0.41313h-0.13909z"/><path d="m197.62 372.36q-0.1019 0-0.16112 0.0799-0.0592 0.0792-0.0592 0.21758 0 0.1384 0.0585 0.21827 0.0592 0.0792 0.16181 0.0792 0.10122 0 0.16043-0.0799 0.0592-0.0799 0.0592-0.21758 0-0.13702-0.0592-0.21689-0.0592-0.0806-0.16043-0.0806zm0-0.10741q0.16525 0 0.25958 0.10741 0.0943 0.10741 0.0943 0.29745 0 0.18935-0.0943 0.29745-0.0943 0.10741-0.25958 0.10741-0.16594 0-0.26027-0.10741-0.0936-0.1081-0.0936-0.29745 0-0.19004 0.0936-0.29745 0.0943-0.10741 0.26027-0.10741z"/><path d="m198.17 372.01h0.64998v0.11705h-0.5109v0.30434h0.48955v0.11705h-0.48955v0.3725h0.52329v0.11706h-0.66237z"/><path d="m199.49 372.01h0.13909v1.028h-0.13909z"/><path d="m200.52 372.58v0.46546h-0.1267v-0.46133q0-0.10948-0.0427-0.16387-0.0427-0.0544-0.12807-0.0544-0.10259 0-0.1618 0.0654-0.0592 0.0654-0.0592 0.17833v0.43585h-0.12738v-0.77117h0.12738v0.1198q0.0454-0.0695 0.10673-0.10397 0.062-0.0344 0.14253-0.0344 0.13288 0 0.20105 0.0826 0.0682 0.0819 0.0682 0.24168z"/><path d="m200.89 372.05v0.21896h0.26096v0.0985h-0.26096v0.41863q0 0.0943 0.0255 0.12119 0.0262 0.0268 0.10534 0.0268h0.13014v0.10604h-0.13014q-0.14666 0-0.20243-0.0544-0.0558-0.0551-0.0558-0.19968v-0.41863h-0.093v-0.0985h0.093v-0.21896h0.12738z"/><path d="m201.96 372.62v0.062h-0.58251q8e-3 0.13082 0.0785 0.19968 0.0709 0.0682 0.19693 0.0682 0.073 0 0.14115-0.0179 0.0688-0.0179 0.13633-0.0537v0.11981q-0.0682 0.0289-0.13978 0.0441-0.0716 0.0151-0.14528 0.0151-0.18453 0-0.29263-0.10741-0.10741-0.10741-0.10741-0.29056 0-0.18935 0.1019-0.30021 0.1026-0.11154 0.27611-0.11154 0.15561 0 0.24581 0.10052 0.0909 0.0998 0.0909 0.27198zm-0.1267-0.0372q-1e-3 -0.10397-0.0585-0.16594-0.0565-0.062-0.1501-0.062-0.10604 0-0.17007 0.0599-0.0634 0.0599-0.073 0.1687l0.45168-6.9e-4z"/><path d="m202.66 372.65q0-0.13771-0.0572-0.21345-0.0565-0.0757-0.15905-0.0757-0.10191 0-0.15906 0.0757-0.0565 0.0757-0.0565 0.21345 0 0.13702 0.0565 0.21276 0.0571 0.0757 0.15906 0.0757 0.10259 0 0.15905-0.0757 0.0572-0.0757 0.0572-0.21276zm0.12669 0.29883q0 0.19692-0.0874 0.29263-0.0874 0.0964-0.26785 0.0964-0.0668 0-0.126-0.0103-0.0592-0.01-0.11499-0.0303v-0.12325q0.0558 0.0303 0.11017 0.0448 0.0544 0.0145 0.11086 0.0145 0.12462 0 0.18659-0.0654 0.062-0.0647 0.062-0.19623v-0.0627q-0.0393 0.0682-0.10053 0.10191-0.0613 0.0337-0.14666 0.0337-0.14184 0-0.22859-0.10811-0.0868-0.1081-0.0868-0.28643 0-0.17902 0.0868-0.28712 0.0867-0.1081 0.22859-0.1081 0.0854 0 0.14666 0.0337 0.0613 0.0337 0.10053 0.1019v-0.11705h0.12669v0.67546z"/><path d="m203.48 372.39q-0.0213-0.0124-0.0468-0.0179-0.0248-6e-3 -0.0551-6e-3 -0.10742 0-0.16525 0.0702-0.0572 0.0695-0.0572 0.20037v0.40624h-0.12738v-0.77117h0.12738v0.1198q0.0399-0.0702 0.10397-0.10397 0.064-0.0344 0.15561-0.0344 0.0131 0 0.0289 2e-3 0.0158 1e-3 0.0351 5e-3l6.9e-4 0.13014z"/><path d="m204.23 372.62v0.062h-0.5825q8e-3 0.13082 0.0785 0.19968 0.0709 0.0682 0.19692 0.0682 0.073 0 0.14115-0.0179 0.0689-0.0179 0.13634-0.0537v0.11981q-0.0682 0.0289-0.13978 0.0441-0.0716 0.0151-0.14528 0.0151-0.18453 0-0.29263-0.10741-0.10741-0.10741-0.10741-0.29056 0-0.18935 0.1019-0.30021 0.10259-0.11154 0.27611-0.11154 0.15561 0 0.24581 0.10052 0.0909 0.0998 0.0909 0.27198zm-0.12669-0.0372q-1e-3 -0.10397-0.0585-0.16594-0.0565-0.062-0.15011-0.062-0.10603 0-0.17007 0.0599-0.0633 0.0599-0.073 0.1687l0.45168-6.9e-4z"/><path d="m204.94 372.39v-0.41726h0.12669v1.0714h-0.12669v-0.11568q-0.0399 0.0688-0.10122 0.10259-0.0606 0.033-0.14597 0.033-0.13977 0-0.22791-0.11154-0.0874-0.11154-0.0874-0.29332 0-0.18177 0.0874-0.29332 0.0881-0.11154 0.22791-0.11154 0.0854 0 0.14597 0.0337 0.0613 0.0331 0.10122 0.1019zm-0.43172 0.26922q0 0.13977 0.0572 0.21965 0.0578 0.0792 0.15836 0.0792 0.10053 0 0.15837-0.0792 0.0578-0.0799 0.0578-0.21965 0-0.13977-0.0578-0.21896-0.0578-0.0799-0.15837-0.0799-0.10052 0-0.15836 0.0799-0.0572 0.0792-0.0572 0.21896z"/><path d="m205.79 372.92h0.22722v-0.78425l-0.24718 0.0496v-0.12669l0.24581-0.0496h0.13908v0.91094h0.22722v0.11706h-0.59215z"/><path d="m206.94 372.1q-0.10741 0-0.1618 0.10603-0.0537 0.10535-0.0537 0.31742 0 0.21138 0.0537 0.31742 0.0544 0.10535 0.1618 0.10535 0.1081 0 0.16181-0.10535 0.0544-0.10604 0.0544-0.31742 0-0.21207-0.0544-0.31742-0.0537-0.10603-0.16181-0.10603zm0-0.11017q0.17283 0 0.26371 0.13702 0.0916 0.13633 0.0916 0.3966 0 0.25958-0.0916 0.3966-0.0909 0.13633-0.26371 0.13633-0.17282 0-0.2644-0.13633-0.0909-0.13702-0.0909-0.3966 0-0.26027 0.0909-0.3966 0.0916-0.13702 0.2644-0.13702z"/><path d="m207.74 372.01h0.11705l-0.35804 1.1588h-0.11705z"/><path d="m208.02 372.92h0.22722v-0.78425l-0.24719 0.0496v-0.12669l0.24581-0.0496h0.13909v0.91094h0.22721v0.11706h-0.59214z"/><path d="m209.17 372.1q-0.10742 0-0.16181 0.10603-0.0537 0.10535-0.0537 0.31742 0 0.21138 0.0537 0.31742 0.0544 0.10535 0.16181 0.10535 0.1081 0 0.1618-0.10535 0.0544-0.10604 0.0544-0.31742 0-0.21207-0.0544-0.31742-0.0537-0.10603-0.1618-0.10603zm0-0.11017q0.17282 0 0.26371 0.13702 0.0916 0.13633 0.0916 0.3966 0 0.25958-0.0916 0.3966-0.0909 0.13633-0.26371 0.13633-0.17283 0-0.2644-0.13633-0.0909-0.13702-0.0909-0.3966 0-0.26027 0.0909-0.3966 0.0916-0.13702 0.2644-0.13702z"/><path d="m210.06 372.1q-0.10741 0-0.1618 0.10603-0.0537 0.10535-0.0537 0.31742 0 0.21138 0.0537 0.31742 0.0544 0.10535 0.1618 0.10535 0.10811 0 0.16181-0.10535 0.0544-0.10604 0.0544-0.31742 0-0.21207-0.0544-0.31742-0.0537-0.10603-0.16181-0.10603zm0-0.11017q0.17283 0 0.26372 0.13702 0.0916 0.13633 0.0916 0.3966 0 0.25958-0.0916 0.3966-0.0909 0.13633-0.26372 0.13633t-0.2644-0.13633q-0.0909-0.13702-0.0909-0.3966 0-0.26027 0.0909-0.3966 0.0916-0.13702 0.2644-0.13702z"/><path d="m215.2 372.13v0.38627h0.17489q0.0971 0 0.1501-0.0503t0.053-0.14322q0-0.0923-0.053-0.14253-0.053-0.0503-0.1501-0.0503h-0.17489zm-0.13908-0.1143h0.31397q0.17283 0 0.26096 0.0785 0.0888 0.0778 0.0888 0.22859 0 0.15217-0.0888 0.22998-0.0881 0.0778-0.26096 0.0778h-0.17489v0.41313h-0.13908z"/><path d="m216.14 372.36q-0.10191 0-0.16112 0.0799-0.0592 0.0792-0.0592 0.21758 0 0.1384 0.0585 0.21827 0.0592 0.0792 0.16181 0.0792 0.10121 0 0.16043-0.0799 0.0592-0.0799 0.0592-0.21758 0-0.13702-0.0592-0.21689-0.0592-0.0806-0.16043-0.0806zm0-0.10741q0.16525 0 0.25958 0.10741 0.0943 0.10741 0.0943 0.29745 0 0.18935-0.0943 0.29745-0.0943 0.10741-0.25958 0.10741-0.16594 0-0.26027-0.10741-0.0936-0.1081-0.0936-0.29745 0-0.19004 0.0936-0.29745 0.0943-0.10741 0.26027-0.10741z"/><path d="m217.14 372.39q-0.0213-0.0124-0.0468-0.0179-0.0248-6e-3 -0.0551-6e-3 -0.10741 0-0.16525 0.0702-0.0572 0.0695-0.0572 0.20037v0.40624h-0.12738v-0.77117h0.12738v0.1198q0.0399-0.0702 0.10397-0.10397 0.064-0.0344 0.15561-0.0344 0.0131 0 0.0289 2e-3 0.0158 1e-3 0.0351 5e-3l6.9e-4 0.13014z"/><path d="m217.39 372.05v0.21896h0.26095v0.0985h-0.26095v0.41863q0 0.0943 0.0255 0.12119 0.0262 0.0268 0.10535 0.0268h0.13013v0.10604h-0.13013q-0.14666 0-0.20243-0.0544-0.0558-0.0551-0.0558-0.19968v-0.41863h-0.093v-0.0985h0.093v-0.21896h0.12738z"/><path d="m218.29 372.29v0.11981q-0.0537-0.0275-0.11155-0.0413-0.0578-0.0138-0.1198-0.0138-0.0943 0-0.14184 0.0289-0.0468 0.0289-0.0468 0.0868 0 0.0441 0.0337 0.0695 0.0337 0.0248 0.13565 0.0475l0.0434 0.01q0.13496 0.0289 0.19142 0.0819 0.0572 0.0523 0.0572 0.14666 0 0.10741-0.0854 0.17007-0.0847 0.0626-0.23342 0.0626-0.062 0-0.12944-0.0124-0.0668-0.0117-0.14115-0.0358v-0.13083q0.0702 0.0365 0.13839 0.0551 0.0682 0.0179 0.13496 0.0179 0.0895 0 0.13771-0.0303 0.0482-0.031 0.0482-0.0867 0-0.0516-0.0351-0.0792-0.0344-0.0275-0.15217-0.053l-0.0441-0.0103q-0.11774-0.0248-0.17007-0.0757-0.0523-0.0516-0.0523-0.14115 0-0.10879 0.0771-0.16801 0.0771-0.0592 0.21896-0.0592 0.0702 0 0.1322 0.0103t0.1143 0.031z"/><path d="m219.26 371.97q-0.0923 0.15837-0.13702 0.31329-0.0448 0.15492-0.0448 0.31397 0 0.15906 0.0448 0.31536 0.0454 0.15561 0.13702 0.31328h-0.11016q-0.10329-0.16181-0.15493-0.3181-0.051-0.1563-0.051-0.31054 0-0.15354 0.051-0.30915t0.15493-0.31811z"/><path d="m219.53 372.92h0.22722v-0.78425l-0.24719 0.0496v-0.12669l0.24581-0.0496h0.13909v0.91094h0.22722v0.11706h-0.59215z"/><path d="m220.31 372.6h0.37113v0.11292h-0.37113z"/><path d="m221.01 372.92h0.48542v0.11706h-0.65274v-0.11706q0.0792-0.0819 0.21551-0.21964 0.13702-0.1384 0.17214-0.17833 0.0668-0.075 0.093-0.1267 0.0269-0.0523 0.0269-0.10259 0-0.0819-0.0578-0.13358-0.0572-0.0516-0.14942-0.0516-0.0654 0-0.13839 0.0227-0.0723 0.0227-0.15492 0.0688v-0.14046q0.084-0.0337 0.15698-0.051 0.073-0.0172 0.13358-0.0172 0.15974 0 0.25476 0.0799 0.095 0.0799 0.095 0.21345 0 0.0633-0.0241 0.1205-0.0234 0.0565-0.0861 0.13357-0.0172 0.02-0.10948 0.11568-0.0923 0.095-0.26026 0.26646z"/><path d="m222.16 372.13-0.35116 0.54876h0.35116zm-0.0365-0.12119h0.17489v0.66995h0.14666v0.11568h-0.14666v0.24237h-0.13839v-0.24237h-0.46408v-0.13427z"/><path d="m222.62 371.97h0.11016q0.10328 0.1625 0.15424 0.31811 0.0516 0.15561 0.0516 0.30915 0 0.15424-0.0516 0.31054-0.051 0.15629-0.15424 0.3181h-0.11016q0.0916-0.15767 0.13633-0.31328 0.0454-0.1563 0.0454-0.31536 0-0.15905-0.0454-0.31397-0.0448-0.15492-0.13633-0.31329z"/></g></g><g transform="matrix(1.8786 0 0 1.8829 -123.99 -699.33)"><rect x="70.562" y="379.33" width="6.1054" height="1.1333" rx=".31642" ry=".1544" fill="#00ff1f"/><rect x="70.607" y="381.39" width="6.1054" height="1.1333" rx=".31642" ry=".1544" fill="#838383"/><ellipse cx="73.636" cy="384.33" rx=".76392" ry=".76344" fill="#838383"/></g><g stroke-width="1.8807"><ellipse cx="32.055" cy="30.181" rx="1.4351" ry="1.4375"/><ellipse cx="23.783" cy="40.098" rx=".7296" ry=".73128"/><ellipse cx="33.475" cy="40.098" rx=".7296" ry=".73128"/></g><g transform="matrix(1.8786 0 0 1.8829 -143.77 -728.41)"><rect x="95.462" y="396.24" width="3.3193" height="1.9916" rx=".089249" ry=".043549"/><g fill="#0f0" stroke-width="1px"><path d="m96.52 397.61h-0.47876l-0.07555 0.21632h-0.30778l0.43979-1.1874h0.36504l0.43979 1.1874h-0.30778l-0.07476-0.21632zm-0.40241-0.22029h0.32527l-0.16224-0.4724z"/><path d="m97.75 396.96v0.23222q-0.05805-0.0398-0.11691-0.0589-0.05806-0.0191-0.12088-0.0191-0.11929 0-0.1861 0.07-0.06601 0.0692-0.06601 0.19405 0 0.12486 0.06601 0.19484 0.0668 0.0692 0.1861 0.0692 0.0668 0 0.12645-0.0199 0.06044-0.0199 0.11134-0.0589v0.23302q-0.0668 0.0247-0.13599 0.0366-0.0684 0.0127-0.13758 0.0127-0.24097 0-0.37696-0.12327-0.13599-0.12406-0.13599-0.34435 0-0.2203 0.13599-0.34357 0.13599-0.12406 0.37696-0.12406 0.06999 0 0.13758 0.0127 0.06839 0.0119 0.13599 0.0366z"/><path d="m98.292 396.68v0.2529h0.29346v0.2036h-0.29346v0.37775q0 0.062 0.02465 0.0843 0.02465 0.0215 0.09782 0.0215h0.14633v0.20359h-0.24415q-0.1686 0-0.23938-0.07-0.06999-0.0708-0.06999-0.23939v-0.37775h-0.14156v-0.2036h0.14156v-0.2529h0.28471z"/></g></g><g transform="matrix(1.8786 0 0 1.8829 -136.1 -702.6)"><rect x="91.461" y="384.9" width="3.3193" height="1.9916" rx=".089249" ry=".043549"/><g fill="#b3b3b3" stroke-width="1px"><path d="m91.636 385.3h0.8263v0.23143h-0.52012v0.22108h0.4891v0.23143h-0.4891v0.50342h-0.30618v-1.1874z"/><path d="m92.87 385.53v0.7245h0.10975q0.18769 0 0.2863-0.0931 0.09941-0.0931 0.09941-0.2704 0-0.17655-0.09861-0.2688-0.09862-0.0922-0.2871-0.0922zm-0.30618-0.23143h0.32288q0.2704 0 0.40241 0.039 0.13281 0.0382 0.22745 0.13042 0.08351 0.0803 0.12406 0.1853 0.04056 0.10498 0.04056 0.23779 0 0.13441-0.04056 0.24018-0.04056 0.10498-0.12406 0.1853-0.09543 0.0923-0.22904 0.13122-0.13361 0.0382-0.40082 0.0382h-0.32288v-1.1874z"/><path d="m93.942 386.03-0.3213-0.43502h0.30141l0.18212 0.26403 0.18451-0.26403h0.30141l-0.32129 0.43343 0.3372 0.45729h-0.30141l-0.20041-0.28153-0.19803 0.28153h-0.30141z"/></g></g><g transform="matrix(1.8786 0 0 1.8829 -136.1 -702.6)"><rect x="91.467" y="387.41" width="3.3193" height="1.9916" rx=".089249" ry=".043549"/><g fill="#b3b3b3" stroke-width="1px"><path d="m92.545 387.71v0.25131q-0.09782-0.0437-0.19087-0.066t-0.17576-0.0223q-0.10975 0-0.16224 0.0302t-0.05249 0.0938q0 0.0477 0.03499 0.0748 0.03579 0.0262 0.12884 0.0453l0.13043 0.0263q0.19803 0.0398 0.28153 0.12088 0.08351 0.0811 0.08351 0.23063 0 0.19644-0.11691 0.29267-0.11611 0.0954-0.35549 0.0954-0.11293 0-0.22666-0.0215t-0.22745-0.0636v-0.25846q0.11372 0.0604 0.2195 0.0914 0.10657 0.0302 0.20518 0.0302 0.10021 0 0.15349-0.0334t0.05328-0.0954q0-0.0557-0.03658-0.0859-0.03579-0.0302-0.14395-0.0541l-0.1185-0.0262q-0.17814-0.0382-0.26085-0.12168-0.08191-0.0835-0.08191-0.22507 0-0.17735 0.11452-0.27278 0.11452-0.0954 0.32925-0.0954 0.09782 0 0.20121 0.0151 0.10339 0.0143 0.21393 0.0437z"/><path d="m92.979 388.73v0.46763h-0.28471v-1.2295h0.28471v0.13043q0.05885-0.0779 0.13043-0.11453 0.07158-0.0374 0.16462-0.0374 0.16462 0 0.2704 0.13122 0.10577 0.13042 0.10577 0.3364t-0.10577 0.3372q-0.10577 0.13043-0.2704 0.13043-0.09305 0-0.16462-0.0366-0.07158-0.0374-0.13043-0.11532zm0.18928-0.57658q-0.09146 0-0.14077 0.0676-0.04851 0.0668-0.04851 0.19325t0.04851 0.19405q0.04931 0.0668 0.14077 0.0668t0.13917-0.0668q0.04851-0.0668 0.04851-0.19405 0-0.12724-0.04851-0.19405-0.04772-0.0668-0.13917-0.0668z"/><path d="m94.282 388.1v-0.47718h0.2863v1.2375h-0.2863v-0.12884q-0.05885 0.0787-0.12963 0.11532-0.07078 0.0366-0.16383 0.0366-0.16462 0-0.2704-0.13043-0.10577-0.13122-0.10577-0.3372t0.10577-0.3364q0.10577-0.13122 0.2704-0.13122 0.09225 0 0.16303 0.0374 0.07157 0.0366 0.13043 0.11453zm-0.18769 0.57658q0.09146 0 0.13918-0.0668 0.04851-0.0668 0.04851-0.19405 0-0.12724-0.04851-0.19405-0.04772-0.0668-0.13918-0.0668-0.09066 0-0.13918 0.0668-0.04772 0.0668-0.04772 0.19405t0.04772 0.19405q0.04851 0.0668 0.13918 0.0668z"/></g></g><path d="m35.442 35.133h-3.4124v-3.0932" fill="none" stroke="#000" stroke-width=".29966"/><path d="m35.442 17.848h-3.4233v3.1051" fill="none" stroke="#000" stroke-width=".27758"/><g stroke-width="1px"><g transform="matrix(1.8786 0 0 1.8829 -125.95 -697.1)"><path d="m86.372 391.23v0.10875q-0.05208-0.0485-0.1113-0.0725-0.05871-0.024-0.12509-0.024-0.1307 0-0.20014 0.0802-0.06944 0.0796-0.06944 0.23077 0 0.15062 0.06944 0.23077 0.06943 0.0797 0.20014 0.0797 0.06637 0 0.12509-0.024 0.05922-0.024 0.1113-0.0725v0.10773q-0.05412 0.0368-0.11488 0.0551-0.06025 0.0184-0.12764 0.0184-0.17308 0-0.27264-0.10568-0.09956-0.1062-0.09956-0.28949 0-0.1838 0.09956-0.28948 0.09956-0.1062 0.27264-0.1062 0.06841 0 0.12866 0.0184 0.06076 0.0179 0.11385 0.0541z"/><path d="m86.518 391.14h0.09394v0.79443h-0.09394z"/><path d="m87.287 391.62v0.046h-0.43193q0.0061 0.097 0.0582 0.14806 0.05259 0.0505 0.14602 0.0505 0.05412 0 0.10466-0.0133 0.05106-0.0133 0.10109-0.0398v0.0888q-0.05054 0.0215-0.10364 0.0327t-0.10773 0.0112q-0.13683 0-0.21698-0.0796-0.07965-0.0797-0.07965-0.21546 0-0.1404 0.07556-0.2226 0.07607-0.0827 0.20473-0.0827 0.11538 0 0.18227 0.0745 0.06739 0.074 0.06739 0.20167zm-0.09394-0.0276q-1e-3 -0.0771-0.0434-0.12304-0.04187-0.046-0.1113-0.046-0.07863 0-0.12611 0.0444-0.04697 0.0444-0.05412 0.12509l0.33492-5.1e-4z"/><path d="m87.69 391.65q-0.11385 0-0.15776 0.026t-0.04391 0.0888q0 0.05 0.03267 0.0796 0.03319 0.0291 0.08986 0.0291 0.07812 0 0.12509-0.0551 0.04748-0.0556 0.04748-0.14755v-0.0209h-0.09343zm0.18737-0.0388v0.32625h-0.09394v-0.0868q-0.03217 0.0521-0.08016 0.0771-0.04799 0.0245-0.11743 0.0245-0.08782 0-0.13989-0.049-0.05157-0.0495-0.05157-0.13224 0-0.0965 0.06433-0.1455 0.06484-0.049 0.19299-0.049h0.13172v-9e-3q0-0.0648-0.04289-0.10007-0.04238-0.0357-0.11947-0.0357-0.04901 0-0.09547 0.0117t-0.08935 0.0352v-0.0868q0.05157-0.0199 0.10007-0.0296 0.0485-0.0102 0.09445-0.0102 0.12406 0 0.18533 0.0643t0.06127 0.19503z"/><path d="m88.393 391.45q-0.01583-9e-3 -0.03472-0.0133-0.01838-5e-3 -0.04084-5e-3 -0.07965 0-0.12253 0.0521-0.04238 0.0516-0.04238 0.14857v0.30123h-0.09445v-0.57183h0.09445v0.0888q0.02961-0.0521 0.07709-0.0771 0.04748-0.0255 0.11538-0.0255 0.0097 0 0.02144 2e-3 0.01174 1e-3 0.02604 4e-3l5.11e-4 0.0965z"/></g><g transform="matrix(1.8786 0 0 1.8829 -123.92 -697.1)"><path d="m79.781 391.48q0.03319 0.0112 0.06433 0.048 0.03165 0.0368 0.06331 0.10109l0.10466 0.2083h-0.11079l-0.09752-0.19554q-0.03778-0.0766-0.07352-0.1016-0.03523-0.025-0.0965-0.025h-0.11232v0.32216h-0.10313v-0.76226h0.23281q0.1307 0 0.19503 0.0546t0.06433 0.16491q0 0.072-0.0337 0.11947-0.03319 0.0475-0.09701 0.0659zm-0.25834-0.32011v0.27059h0.12968q0.07454 0 0.11232-0.0342 0.03829-0.0347 0.03829-0.1016t-0.03829-0.10058q-0.03778-0.0342-0.11232-0.0342h-0.12968z"/><path d="m80.574 391.53v0.046h-0.43193q0.0061 0.097 0.0582 0.14806 0.05259 0.0505 0.14602 0.0505 0.05412 0 0.10466-0.0133 0.05106-0.0133 0.10109-0.0398v0.0888q-0.05054 0.0214-0.10364 0.0327-0.0531 0.0112-0.10773 0.0112-0.13683 0-0.21699-0.0796-0.07965-0.0796-0.07965-0.21545 0-0.1404 0.07556-0.2226 0.07607-0.0827 0.20473-0.0827 0.11538 0 0.18227 0.0745 0.06739 0.074 0.06739 0.20167zm-0.09394-0.0276q-1e-3 -0.0771-0.0434-0.12305-0.04187-0.046-0.1113-0.046-0.07863 0-0.12611 0.0444-0.04697 0.0444-0.05412 0.12509l0.33492-5.1e-4z"/><path d="m81.082 391.28v0.0888q-0.03982-0.0204-0.08271-0.0306t-0.08884-0.0102q-0.06995 0-0.10517 0.0214-0.03472 0.0214-0.03472 0.0643 0 0.0327 0.02502 0.0516 0.02502 0.0184 0.10058 0.0352l0.03217 7e-3q0.10007 0.0214 0.14193 0.0607 0.04238 0.0388 0.04238 0.10875 0 0.0797-0.06331 0.12611-0.0628 0.0465-0.17308 0.0465-0.04595 0-0.09598-9e-3 -0.04952-9e-3 -0.10466-0.0265v-0.097q0.05208 0.0271 0.10262 0.0409 0.05054 0.0133 0.10007 0.0133 0.06637 0 0.10211-0.0225 0.03574-0.023 0.03574-0.0643 0-0.0383-0.02604-0.0587-0.02553-0.0204-0.11283-0.0393l-0.03267-8e-3q-0.08731-0.0184-0.12611-0.0562-0.0388-0.0383-0.0388-0.10466 0-0.0807 0.05718-0.12458 0.05718-0.0439 0.16236-0.0439 0.05208 0 0.09803 8e-3t0.08475 0.023z"/><path d="m81.742 391.53v0.046h-0.43193q0.0061 0.097 0.0582 0.14806 0.05259 0.0505 0.14602 0.0505 0.05412 0 0.10466-0.0133 0.05106-0.0133 0.10109-0.0398v0.0888q-0.05054 0.0214-0.10364 0.0327-0.0531 0.0112-0.10773 0.0112-0.13683 0-0.21699-0.0796-0.07965-0.0796-0.07965-0.21545 0-0.1404 0.07556-0.2226 0.07607-0.0827 0.20473-0.0827 0.11539 0 0.18227 0.0745 0.06739 0.074 0.06739 0.20167zm-0.09394-0.0276q-1e-3 -0.0771-0.0434-0.12305-0.04187-0.046-0.1113-0.046-0.07863 0-0.12611 0.0444-0.04697 0.0444-0.05412 0.12509l0.33492-5.1e-4z"/><path d="m81.978 391.1v0.16236h0.1935v0.073h-0.1935v0.31042q0 0.0699 0.01889 0.0899 0.0194 0.0199 0.07811 0.0199h0.0965v0.0786h-0.0965q-0.10875 0-0.1501-0.0403-0.04135-0.0408-0.04135-0.14806v-0.31042h-0.06893v-0.073h0.06893v-0.16236h0.09445z"/></g><g transform="matrix(1.4234 0 0 1.4266 -83.89 -524.33)"><path d="m80.397 383.16h0.10313v0.67547h0.37117v0.0868h-0.47431v-0.76226z"/><path d="m80.969 383.16h0.48196v0.0868h-0.37883v0.22566h0.363v0.0868h-0.363v0.27621h0.38802v0.0868h-0.49115v-0.76226z"/><path d="m81.723 383.24v0.59276h0.12458q0.15776 0 0.23077-0.0715 0.07352-0.0715 0.07352-0.22566 0-0.15317-0.07352-0.22414-0.07301-0.0715-0.23077-0.0715h-0.12458zm-0.10313-0.0847h0.21188q0.22158 0 0.32522 0.0924 0.10364 0.0919 0.10364 0.28796 0 0.19707-0.10415 0.28948-0.10415 0.0924-0.32471 0.0924h-0.21188v-0.76226z"/><path d="m80.397 383.98h0.15368l0.19452 0.51873 0.19554-0.51873h0.15368v0.76226h-0.10058v-0.66934l-0.19656 0.52281h-0.10364l-0.19656-0.52281v0.66934h-0.10007v-0.76226z"/><path d="m81.507 384.24q-0.07556 0-0.11947 0.0592-0.04391 0.0587-0.04391 0.16133 0 0.10262 0.0434 0.16185 0.04391 0.0587 0.11998 0.0587 0.07505 0 0.11896-0.0592t0.04391-0.16134q0-0.1016-0.04391-0.16082-0.04391-0.0597-0.11896-0.0597zm0-0.0797q0.12253 0 0.19248 0.0797 0.06995 0.0796 0.06995 0.22056 0 0.1404-0.06995 0.22056-0.06995 0.0797-0.19248 0.0797-0.12304 0-0.19299-0.0797-0.06944-0.0802-0.06944-0.22056 0-0.14091 0.06944-0.22056 0.06995-0.0797 0.19299-0.0797z"/><path d="m82.29 384.26v-0.30939h0.09394v0.79442h-0.09394v-0.0858q-0.02961 0.051-0.07505 0.0761-0.04493 0.0245-0.10824 0.0245-0.10364 0-0.16899-0.0827-0.06484-0.0827-0.06484-0.2175 0-0.13479 0.06484-0.2175 0.06535-0.0827 0.16899-0.0827 0.06331 0 0.10824 0.025 0.04544 0.0245 0.07505 0.0756zm-0.32012 0.19963q0 0.10364 0.04238 0.16287 0.04289 0.0587 0.11743 0.0587t0.11743-0.0587q0.04289-0.0592 0.04289-0.16287 0-0.10364-0.04289-0.16236-0.04289-0.0592-0.11743-0.0592t-0.11743 0.0592q-0.04238 0.0587-0.04238 0.16236z"/><path d="m83.057 384.44v0.046h-0.43193q0.0061 0.097 0.0582 0.14807 0.05259 0.0505 0.14602 0.0505 0.05412 0 0.10466-0.0133 0.05106-0.0133 0.10109-0.0398v0.0888q-0.05054 0.0214-0.10364 0.0327-0.0531 0.0112-0.10773 0.0112-0.13683 0-0.21699-0.0797-0.07965-0.0796-0.07965-0.21545 0-0.14041 0.07556-0.22261 0.07607-0.0827 0.20473-0.0827 0.11539 0 0.18227 0.0745 0.06739 0.074 0.06739 0.20166zm-0.09394-0.0276q-1e-3 -0.0771-0.0434-0.12304-0.04187-0.046-0.1113-0.046-0.07863 0-0.12611 0.0444-0.04697 0.0444-0.05412 0.12509l0.33492-5.2e-4z"/></g></g><rect x="36.048" y="31.37" width="6.2357" height="3.7499" rx=".16767" ry=".081997" stroke-width="1.8808"/><g transform="matrix(1.8786 0 0 1.8829 -123.92 -699.29)" fill="#b3b3b3" stroke-width="1px"><path d="m85.215 388.43h0.51976q0.23182 0 0.35545 0.1033 0.12445 0.10249 0.12445 0.29282 0 0.19115-0.12445 0.29445-0.12364 0.10249-0.35545 0.10249h-0.2066v0.42134h-0.31316zm0.31316 0.22694v0.33918h0.17325q0.0911 0 0.14072-0.0439 0.04962-0.0447 0.04962-0.12608 0-0.0813-0.04962-0.12526-0.04962-0.0439-0.14072-0.0439h-0.17325z"/><path d="m86.839 388.92q-0.0968 0-0.14804 0.07-0.05043 0.0691-0.05043 0.20009 0 0.13096 0.05043 0.20091 0.05124 0.0691 0.14804 0.0691 0.09517 0 0.1456-0.0691 0.05043-0.07 0.05043-0.20091 0-0.13095-0.05043-0.20009-0.05043-0.07-0.1456-0.07zm0-0.20823q0.23507 0 0.36684 0.12689 0.13258 0.12689 0.13258 0.35139t-0.13258 0.35139q-0.13177 0.12689-0.36684 0.12689-0.23589 0-0.36928-0.12689-0.13258-0.12689-0.13258-0.35139t0.13258-0.35139q0.1334-0.12689 0.36928-0.12689z"/><path d="m87.547 388.43h0.84512v0.2367h-0.53196v0.22612h0.50024v0.2367h-0.50024v0.27818h0.54986v0.2367h-0.86302z"/></g><path d="m32.028 25.87v2.1894" fill="none" stroke="#000" stroke-width=".27758"/><g transform="matrix(1.8786 0 0 1.8829 -123.99 -699.33)" fill="#fff" stroke-width="1px"><g transform="translate(.039513 .025986)"><path d="m67.35 379.57v0.28642h0.12968q0.07199 0 0.1113-0.0373t0.03931-0.1062q0-0.0684-0.03931-0.10568-0.03931-0.0373-0.1113-0.0373h-0.12968zm-0.10313-0.0848h0.23281q0.12815 0 0.1935 0.0582 0.06586 0.0577 0.06586 0.1695 0 0.11284-0.06586 0.17053-0.06535 0.0577-0.1935 0.0577h-0.12968v0.30633h-0.10313v-0.76225z"/><path d="m68.048 379.74q-0.07556 0-0.11947 0.0592-0.04391 0.0587-0.04391 0.16133t0.0434 0.16185q0.04391 0.0587 0.11998 0.0587 0.07505 0 0.11896-0.0592t0.04391-0.16134q0-0.1016-0.04391-0.16082-0.04391-0.0597-0.11896-0.0597zm0-0.0796q0.12253 0 0.19248 0.0796t0.06995 0.22056q0 0.14041-0.06995 0.22056-0.06995 0.0796-0.19248 0.0796-0.12304 0-0.19299-0.0796-0.06944-0.0802-0.06944-0.22056 0-0.14091 0.06944-0.22056 0.06995-0.0796 0.19299-0.0796z"/><path d="m68.401 379.68h0.09394l0.11743 0.44623 0.11692-0.44623h0.11079l0.11743 0.44623 0.11692-0.44623h0.09394l-0.14959 0.57182h-0.11079l-0.12304-0.46868-0.12355 0.46868h-0.11079l-0.14959-0.57182z"/><path d="m69.79 379.94v0.046h-0.43193q0.0061 0.097 0.0582 0.14806 0.05259 0.0505 0.14602 0.0505 0.05412 0 0.10466-0.0133 0.05106-0.0133 0.10109-0.0398v0.0888q-0.05054 0.0215-0.10364 0.0327t-0.10773 0.0112q-0.13683 0-0.21698-0.0796-0.07965-0.0796-0.07965-0.21545 0-0.1404 0.07556-0.2226 0.07607-0.0827 0.20473-0.0827 0.11538 0 0.18227 0.0745 0.06739 0.074 0.06739 0.20167zm-0.09394-0.0276q-1e-3 -0.0771-0.0434-0.12305-0.04187-0.046-0.1113-0.046-0.07863 0-0.12611 0.0444-0.04697 0.0444-0.05412 0.12509l0.33492-5.1e-4z"/><path d="m70.265 379.77q-0.01583-9e-3 -0.03472-0.0133-0.01838-5e-3 -0.04084-5e-3 -0.07965 0-0.12253 0.0521-0.04238 0.0516-0.04238 0.14857v0.30122h-0.09445v-0.57182h0.09445v0.0888q0.02961-0.0521 0.07709-0.0771 0.04748-0.0255 0.11539-0.0255 0.0097 0 0.02144 2e-3 0.01174 1e-3 0.02604 4e-3l5.11e-4 0.0965z"/></g><g transform="translate(.039513 .025986)"><path d="m67.247 381.56h0.43806v0.0868h-0.33492v0.22464h0.30225v0.0868h-0.30225v0.36403h-0.10313v-0.76226z"/><path d="m67.999 382.03q-0.11385 0-0.15776 0.026t-0.04391 0.0888q0 0.05 0.03268 0.0797 0.03319 0.0291 0.08986 0.0291 0.07811 0 0.12509-0.0551 0.04748-0.0557 0.04748-0.14755v-0.0209h-0.09343zm0.18737-0.0388v0.32624h-0.09394v-0.0868q-0.03216 0.0521-0.08016 0.0771-0.04799 0.0245-0.11743 0.0245-0.08781 0-0.13989-0.049-0.05157-0.0495-0.05157-0.13223 0-0.0965 0.06433-0.14551 0.06484-0.049 0.19299-0.049h0.13172v-9e-3q0-0.0648-0.04289-0.10007-0.04238-0.0357-0.11947-0.0357-0.04901 0-0.09547 0.0117-0.04646 0.0118-0.08935 0.0352v-0.0868q0.05157-0.0199 0.10007-0.0296 0.0485-0.0102 0.09445-0.0102 0.12406 0 0.18533 0.0643t0.06127 0.19504z"/><path d="m68.36 382.09v-0.34616h0.09394v0.34258q0 0.0812 0.03165 0.12202 0.03166 0.0403 0.09496 0.0403 0.07607 0 0.11998-0.0485 0.04442-0.0485 0.04442-0.13223v-0.3242h0.09394v0.57182h-0.09394v-0.0878q-0.03421 0.0521-0.07965 0.0776-0.04493 0.025-0.10466 0.025-0.09854 0-0.14959-0.0613-0.05106-0.0613-0.05106-0.1792z"/><path d="m69.023 381.52h0.09394v0.79442h-0.09394z"/><path d="m69.395 381.58v0.16236h0.1935v0.073h-0.1935v0.31042q0 0.0699 0.01889 0.0899 0.0194 0.0199 0.07811 0.0199h0.0965v0.0786h-0.0965q-0.10875 0-0.1501-0.0403-0.04135-0.0409-0.04135-0.14806v-0.31042h-0.06892v-0.073h0.06892v-0.16236h0.09445z"/></g><g transform="translate(.039513 .025986)"><path d="m67.247 383.92h0.10313v0.67546h0.37117v0.0868h-0.47431v-0.76226z"/><path d="m68.018 384.18q-0.07556 0-0.11947 0.0592-0.04391 0.0587-0.04391 0.16133t0.0434 0.16185q0.04391 0.0587 0.11998 0.0587 0.07505 0 0.11896-0.0592t0.04391-0.16134q0-0.1016-0.04391-0.16082-0.04391-0.0597-0.11896-0.0597zm0-0.0797q0.12253 0 0.19248 0.0797 0.06995 0.0796 0.06995 0.22055 0 0.14041-0.06995 0.22056-0.06995 0.0796-0.19248 0.0796-0.12304 0-0.19299-0.0796-0.06944-0.0802-0.06944-0.22056 0-0.14091 0.06944-0.22055 0.06995-0.0797 0.19299-0.0797z"/><path d="m68.836 384.13v0.0878q-0.03982-0.022-0.08016-0.0327-0.03982-0.0112-0.08067-0.0112-0.09139 0-0.14194 0.0582-0.05054 0.0577-0.05054 0.16235 0 0.10467 0.05054 0.16287 0.05054 0.0577 0.14194 0.0577 0.04084 0 0.08067-0.0107 0.04033-0.0112 0.08016-0.0332v0.0868q-0.03931 0.0184-0.08169 0.0276-0.04187 9e-3 -0.08935 9e-3 -0.12917 0-0.20524-0.0812t-0.07607-0.21903q0-0.13989 0.07658-0.22004 0.07709-0.0802 0.21086-0.0802 0.0434 0 0.08475 9e-3t0.08016 0.0265z"/><path d="m69.25 384.4q-0.11385 0-0.15776 0.026t-0.04391 0.0888q0 0.05 0.03268 0.0796 0.03319 0.0291 0.08986 0.0291 0.07811 0 0.12509-0.0551 0.04748-0.0557 0.04748-0.14755v-0.0209h-0.09343zm0.18737-0.0388v0.32625h-0.09394v-0.0868q-0.03216 0.0521-0.08016 0.0771-0.04799 0.0245-0.11743 0.0245-0.08782 0-0.13989-0.049-0.05157-0.0495-0.05157-0.13224 0-0.0965 0.06433-0.1455 0.06484-0.049 0.19299-0.049h0.13172v-9e-3q0-0.0648-0.04289-0.10007-0.04238-0.0357-0.11947-0.0357-0.04901 0-0.09547 0.0117t-0.08935 0.0352v-0.0868q0.05157-0.0199 0.10007-0.0296 0.0485-0.0102 0.09445-0.0102 0.12406 0 0.18533 0.0643t0.06127 0.19503z"/><path d="m69.714 383.95v0.16235h0.1935v0.073h-0.1935v0.31042q0 0.07 0.01889 0.0899 0.0194 0.0199 0.07812 0.0199h0.09649v0.0786h-0.09649q-0.10875 0-0.1501-0.0403-0.04136-0.0408-0.04136-0.14806v-0.31042h-0.06892v-0.073h0.06892v-0.16235h0.09445z"/><path d="m70.243 384.18q-0.07556 0-0.11947 0.0592-0.04391 0.0587-0.04391 0.16133t0.0434 0.16185q0.04391 0.0587 0.11998 0.0587 0.07505 0 0.11896-0.0592t0.04391-0.16134q0-0.1016-0.04391-0.16082-0.04391-0.0597-0.11896-0.0597zm0-0.0797q0.12253 0 0.19248 0.0797 0.06995 0.0796 0.06995 0.22055 0 0.14041-0.06995 0.22056-0.06995 0.0796-0.19248 0.0796-0.12304 0-0.19299-0.0796-0.06943-0.0802-0.06943-0.22056 0-0.14091 0.06943-0.22055 0.06995-0.0797 0.19299-0.0797z"/><path d="m70.981 384.2q-0.01583-9e-3 -0.03472-0.0133-0.01838-5e-3 -0.04084-5e-3 -0.07965 0-0.12253 0.0521-0.04238 0.0516-0.04238 0.14857v0.30123h-0.09445v-0.57183h0.09445v0.0888q0.02961-0.0521 0.07709-0.0771 0.04748-0.0255 0.11539-0.0255 0.0097 0 0.02144 2e-3 0.01174 1e-3 0.02604 4e-3l5.11e-4 0.0965z"/></g></g><g transform="matrix(1.8786 0 0 1.8829 -123.92 -699.29)" fill="#fff" stroke-width="1px"><path d="m70.512 393.35v0.10875q-0.05208-0.0485-0.1113-0.0725-0.05871-0.024-0.12509-0.024-0.1307 0-0.20014 0.0802-0.06943 0.0797-0.06943 0.23077 0 0.15061 0.06943 0.23077 0.06944 0.0797 0.20014 0.0797 0.06637 0 0.12509-0.024 0.05922-0.024 0.1113-0.0725v0.10773q-0.05412 0.0368-0.11488 0.0551-0.06025 0.0184-0.12764 0.0184-0.17308 0-0.27264-0.10569-0.09956-0.10619-0.09956-0.28948 0-0.1838 0.09956-0.28948 0.09956-0.1062 0.27264-0.1062 0.06842 0 0.12866 0.0184 0.06076 0.0179 0.11385 0.0541z"/><path d="m70.879 393.54q-0.07556 0-0.11947 0.0592-0.04391 0.0587-0.04391 0.16133 0 0.10262 0.0434 0.16185 0.04391 0.0587 0.11998 0.0587 0.07505 0 0.11896-0.0592t0.04391-0.16134q0-0.1016-0.04391-0.16082-0.04391-0.0597-0.11896-0.0597zm0-0.0796q0.12253 0 0.19248 0.0796t0.06995 0.22056q0 0.14041-0.06995 0.22056-0.06995 0.0797-0.19248 0.0797-0.12304 0-0.19299-0.0797-0.06944-0.0802-0.06944-0.22056 0-0.14091 0.06944-0.22056 0.06995-0.0796 0.19299-0.0796z"/><path d="m71.761 393.7v0.34513h-0.09394v-0.34207q0-0.0812-0.03165-0.12151-0.03166-0.0403-0.09496-0.0403-0.07607 0-0.11998 0.0485t-0.04391 0.13223v0.32318h-0.09445v-0.57182h0.09445v0.0888q0.0337-0.0516 0.07914-0.0771 0.04595-0.0255 0.10568-0.0255 0.09854 0 0.14908 0.0613 0.05054 0.0608 0.05054 0.17921z"/><path d="m72.304 393.49v0.0888q-0.03982-0.0204-0.08271-0.0306t-0.08884-0.0102q-0.06995 0-0.10518 0.0215-0.03472 0.0214-0.03472 0.0643 0 0.0327 0.02502 0.0516 0.02502 0.0184 0.10058 0.0352l0.03216 7e-3q0.10007 0.0214 0.14193 0.0607 0.04238 0.0388 0.04238 0.10875 0 0.0797-0.06331 0.12611-0.0628 0.0465-0.17308 0.0465-0.04595 0-0.09598-9e-3 -0.04952-9e-3 -0.10466-0.0265v-0.097q0.05208 0.0271 0.10262 0.0408 0.05054 0.0133 0.10007 0.0133 0.06637 0 0.10211-0.0225 0.03574-0.023 0.03574-0.0643 0-0.0383-0.02604-0.0587-0.02553-0.0204-0.11283-0.0393l-0.03268-8e-3q-0.08731-0.0184-0.12611-0.0562-0.0388-0.0383-0.0388-0.10466 0-0.0807 0.05718-0.12458 0.05718-0.0439 0.16236-0.0439 0.05208 0 0.09803 8e-3t0.08475 0.023z"/><path d="m72.696 393.54q-0.07556 0-0.11947 0.0592-0.04391 0.0587-0.04391 0.16133 0 0.10262 0.0434 0.16185 0.04391 0.0587 0.11998 0.0587 0.07505 0 0.11896-0.0592t0.04391-0.16134q0-0.1016-0.04391-0.16082-0.04391-0.0597-0.11896-0.0597zm0-0.0796q0.12253 0 0.19248 0.0796t0.06995 0.22056q0 0.14041-0.06995 0.22056-0.06995 0.0797-0.19248 0.0797-0.12304 0-0.19299-0.0797-0.06944-0.0802-0.06944-0.22056 0-0.14091 0.06944-0.22056 0.06995-0.0796 0.19299-0.0796z"/><path d="m73.103 393.26h0.09394v0.79442h-0.09394z"/><path d="m73.872 393.74v0.046h-0.43193q0.0061 0.097 0.0582 0.14806 0.05259 0.0505 0.14602 0.0505 0.05412 0 0.10466-0.0133 0.05106-0.0133 0.10109-0.0398v0.0888q-0.05054 0.0214-0.10364 0.0327-0.0531 0.0112-0.10773 0.0112-0.13683 0-0.21699-0.0797-0.07965-0.0796-0.07965-0.21545 0-0.1404 0.07556-0.2226 0.07607-0.0827 0.20473-0.0827 0.11538 0 0.18227 0.0745 0.06739 0.074 0.06739 0.20167zm-0.09394-0.0276q-1e-3 -0.0771-0.0434-0.12305-0.04187-0.0459-0.1113-0.0459-0.07863 0-0.12611 0.0444-0.04697 0.0444-0.05412 0.12509l0.33492-5.1e-4z"/></g><g transform="matrix(1.8786 0 0 1.8829 -123.64 -699.01)"><rect x="77.967" y="387.91" width="3.3193" height="1.9916" rx=".089249" ry=".043549"/><g fill="#b3b3b3" stroke-width="1px"><path d="m78.058 388.5h0.92418v0.19545h-0.33246v0.80731h-0.25858v-0.80731h-0.33313v-0.19545z"/><path d="m79.659 389.12v0.0685h-0.56216q0.0087 0.0846 0.06112 0.12693 0.05239 0.0423 0.14642 0.0423 0.0759 0 0.15515-0.0222 0.07993-0.0228 0.16388-0.0685v0.18537q-0.0853 0.0322-0.1706 0.0484-0.0853 0.0168-0.1706 0.0168-0.20418 0-0.31768-0.10343-0.11284-0.10411-0.11284-0.2915 0-0.18402 0.11082-0.28947 0.11149-0.10545 0.30627-0.10545 0.17731 0 0.28343 0.10679 0.10679 0.10679 0.10679 0.28545zm-0.24716-0.0799q0-0.0685-0.0403-0.11015-0.03963-0.0423-0.1041-0.0423-0.06985 0-0.11351 0.0396-0.04366 0.0389-0.0544 0.11283h0.31231z"/><path d="m80.415 388.77v0.18269q-0.07724-0.0322-0.1491-0.0484-0.07186-0.0161-0.13567-0.0161-0.06851 0-0.10209 0.0175-0.03291 0.0168-0.03291 0.0524 0 0.0289 0.02485 0.0443 0.02552 0.0154 0.09067 0.0228l0.04231 6e-3q0.1847 0.0235 0.24851 0.0772t0.06381 0.16858q0 0.12022-0.08866 0.18067-0.08866 0.0605-0.26462 0.0605-0.07455 0-0.15448-0.0121-0.07925-0.0114-0.16321-0.0349v-0.18268q0.07187 0.0349 0.14709 0.0524 0.0759 0.0175 0.15381 0.0175 0.07052 0 0.10612-0.0195t0.0356-0.0578q0-0.0322-0.02485-0.0477-0.02418-0.0161-0.09739-0.0248l-0.04231-5e-3q-0.16052-0.0202-0.225-0.0745-0.06448-0.0544-0.06448-0.16523 0-0.11955 0.08194-0.17731 0.08194-0.0578 0.25119-0.0578 0.06649 0 0.1397 0.0101t0.15918 0.0316z"/><path d="m80.895 388.54v0.21358h0.24784v0.17194h-0.24784v0.31903q0 0.0524 0.02082 0.0712 0.02082 0.0181 0.08261 0.0181h0.12358v0.17194h-0.20619q-0.14239 0-0.20216-0.0591-0.05911-0.0598-0.05911-0.20217v-0.31903h-0.11955v-0.17194h0.11955v-0.21358h0.24045z"/></g></g><g transform="matrix(1.8786 0 0 1.8829 -123.18 -699.35)"><rect x="77.722" y="385.68" width="3.3193" height="1.9916" rx=".089249" ry=".043549"/><g fill="#b3b3b3" stroke-width="1px"><path d="m77.784 386.06h0.84512v0.2367h-0.53196v0.22612h0.50024v0.2367h-0.50024v0.51488h-0.31316z"/><path d="m79.204 386.87q-0.0911 0-0.13746 0.0309-0.04555 0.0309-0.04555 0.0911 0 0.0553 0.0366 0.087 0.03742 0.0309 0.1033 0.0309 0.08215 0 0.13828-0.0586 0.05612-0.0594 0.05612-0.14804v-0.0334h-0.15129zm0.44493-0.10981v0.51976h-0.29364v-0.13502q-0.05856 0.083-0.13177 0.12119-0.07321 0.0374-0.17813 0.0374-0.14153 0-0.23019-0.0821-0.08785-0.083-0.08785-0.21474 0-0.16024 0.10981-0.23507 0.11062-0.0748 0.34651-0.0748h0.17163v-0.0228q0-0.0691-0.0545-0.10086-0.0545-0.0325-0.17-0.0325-0.09354 0-0.17407 0.0187t-0.14966 0.0561v-0.22205q0.09354-0.0228 0.1879-0.0342 0.09435-0.0122 0.18871-0.0122 0.24646 0 0.35545 0.0976 0.10981 0.0968 0.10981 0.3156z"/><path d="m80.821 386.72v0.55474h-0.29282v-0.4246q0-0.11795-0.0057-0.16268-0.0049-0.0447-0.01789-0.0659-0.01708-0.0285-0.04636-0.0439-0.02928-0.0163-0.0667-0.0163-0.0911 0-0.14316 0.0708-0.05206 0.07-0.05206 0.1944v0.44818h-0.2912v-0.911h0.2912v0.13339q0.06588-0.0797 0.1399-0.11713 0.07402-0.0382 0.16349-0.0382 0.1578 0 0.23914 0.0968 0.08215 0.0968 0.08215 0.28143z"/></g></g><g transform="matrix(1.8786 0 0 1.8829 -122.68 -698.72)"><rect x="77.456" y="382.84" width="3.3193" height="1.9916" rx=".089249" ry=".043549"/><g fill="#b3b3b3" stroke-width="1px"><path d="m77.518 383.22h0.51976q0.23182 0 0.35545 0.1033 0.12445 0.10249 0.12445 0.29283 0 0.19114-0.12445 0.29445-0.12364 0.10248-0.35545 0.10248h-0.2066v0.42134h-0.31316zm0.31316 0.22694v0.33919h0.17325q0.0911 0 0.14072-0.0439 0.04962-0.0447 0.04962-0.12607 0-0.0813-0.04962-0.12527-0.04962-0.0439-0.14072-0.0439h-0.17325z"/><path d="m79.142 383.71q-0.09679 0-0.14804 0.07-0.05043 0.0691-0.05043 0.20009 0 0.13096 0.05043 0.20091 0.05125 0.0691 0.14804 0.0691 0.09517 0 0.1456-0.0691 0.05043-0.07 0.05043-0.20091 0-0.13095-0.05043-0.20009-0.05043-0.07-0.1456-0.07zm0-0.20823q0.23507 0 0.36684 0.12689 0.13258 0.12689 0.13258 0.35138 0 0.2245-0.13258 0.35139-0.13177 0.12689-0.36684 0.12689-0.23588 0-0.36928-0.12689-0.13258-0.12689-0.13258-0.35139 0-0.22449 0.13258-0.35138 0.1334-0.12689 0.36928-0.12689z"/><path d="m79.85 383.22h0.84512v0.2367h-0.53196v0.22612h0.50024v0.2367h-0.50024v0.27819h0.54986v0.23669h-0.86302z"/></g></g><g transform="matrix(1.8786 0 0 1.8829 -123.92 -699.29)" stroke-width="1px"><path d="m78.685 381.76v0.10058q-0.05871-0.0281-0.11079-0.0419t-0.10058-0.0138q-0.08424 0-0.13019 0.0327-0.04544 0.0327-0.04544 0.0929 0 0.0505 0.03012 0.0766 0.03063 0.0255 0.11538 0.0414l0.06229 0.0128q0.11539 0.022 0.17002 0.0776 0.05514 0.0551 0.05514 0.14807 0 0.11079-0.07454 0.16797-0.07403 0.0572-0.2175 0.0572-0.05412 0-0.11538-0.0123-0.06076-0.0123-0.12611-0.0362v-0.1062q0.0628 0.0352 0.12304 0.0531t0.11845 0.0179q0.08833 0 0.13632-0.0347t0.04799-0.099q0-0.0562-0.03472-0.0878-0.03421-0.0317-0.11283-0.0475l-0.0628-0.0123q-0.11538-0.023-0.16695-0.072t-0.05157-0.13632q0-0.10109 0.07097-0.1593 0.07148-0.0582 0.19656-0.0582 0.05361 0 0.10926 0.01t0.11385 0.0291z"/><path d="m78.97 381.76v0.16235h0.1935v0.073h-0.1935v0.31042q0 0.07 0.01889 0.0899 0.0194 0.0199 0.07811 0.0199h0.0965v0.0786h-0.0965q-0.10875 0-0.1501-0.0403-0.04135-0.0408-0.04135-0.14806v-0.31042h-0.06892v-0.073h0.06892v-0.16235h0.09445z"/><path d="m79.537 382.21q-0.11385 0-0.15776 0.026t-0.04391 0.0888q0 0.05 0.03268 0.0796 0.03319 0.0291 0.08986 0.0291 0.07812 0 0.12509-0.0551 0.04748-0.0557 0.04748-0.14756v-0.0209h-0.09343zm0.18737-0.0388v0.32624h-0.09394v-0.0868q-0.03216 0.0521-0.08016 0.0771-0.04799 0.0245-0.11743 0.0245-0.08782 0-0.13989-0.049-0.05157-0.0495-0.05157-0.13224 0-0.0965 0.06433-0.1455 0.06484-0.049 0.19299-0.049h0.13172v-9e-3q0-0.0648-0.04289-0.10007-0.04238-0.0357-0.11947-0.0357-0.04901 0-0.09547 0.0118-0.04646 0.0117-0.08935 0.0352v-0.0868q0.05157-0.0199 0.10007-0.0296 0.0485-0.0102 0.09445-0.0102 0.12406 0 0.18533 0.0643t0.06127 0.19503z"/><path d="m80.001 381.76v0.16235h0.1935v0.073h-0.1935v0.31042q0 0.07 0.01889 0.0899 0.0194 0.0199 0.07812 0.0199h0.09649v0.0786h-0.09649q-0.10875 0-0.1501-0.0403-0.04136-0.0408-0.04136-0.14806v-0.31042h-0.06892v-0.073h0.06892v-0.16235h0.09445z"/><path d="m80.298 382.27v-0.34616h0.09394v0.34259q0 0.0812 0.03165 0.12202 0.03166 0.0403 0.09496 0.0403 0.07607 0 0.11998-0.0485 0.04442-0.0485 0.04442-0.13223v-0.32421h0.09394v0.57182h-0.09394v-0.0878q-0.03421 0.0521-0.07965 0.0776-0.04493 0.025-0.10466 0.025-0.09854 0-0.14959-0.0613-0.05106-0.0613-0.05106-0.1792z"/><path d="m81.326 381.94v0.0888q-0.03982-0.0204-0.08271-0.0306t-0.08884-0.0102q-0.06995 0-0.10517 0.0214-0.03472 0.0214-0.03472 0.0643 0 0.0327 0.02502 0.0516 0.02502 0.0184 0.10058 0.0352l0.03216 7e-3q0.10007 0.0214 0.14193 0.0607 0.04238 0.0388 0.04238 0.10875 0 0.0796-0.06331 0.12611-0.0628 0.0465-0.17308 0.0465-0.04595 0-0.09598-9e-3 -0.04952-9e-3 -0.10466-0.0265v-0.097q0.05208 0.0271 0.10262 0.0408 0.05054 0.0133 0.10007 0.0133 0.06637 0 0.10211-0.0225 0.03574-0.023 0.03574-0.0643 0-0.0383-0.02604-0.0587-0.02553-0.0204-0.11283-0.0393l-0.03268-8e-3q-0.08731-0.0184-0.12611-0.0562-0.0388-0.0383-0.0388-0.10466 0-0.0807 0.05718-0.12457 0.05718-0.0439 0.16236-0.0439 0.05208 0 0.09803 8e-3t0.08475 0.023z"/></g><g transform="matrix(1.8841 0 0 1.8726 242.89 -306.33)"><path d="m64.141 183.87h8.4v-7.0242h-8.4z" fill="#3a3a3a"/><path d="m64.912 178.62h1.7532l-0.0026-1.0712 0.63806-5.7e-4v-0.40106h2.0566l-4.83e-4 0.40211h0.66414v1.0712h1.7452v4.6119l-6.8535 0.015z" fill="#1a1a1a"/><path d="m70.173 178.34h1.7316v-0.75298h-1.7316z" fill="#abb927"/><path d="m64.756 178.34h1.7468v-0.7569h-1.7468z" fill="#abb927"/><g fill="#ebebeb"><path d="m66.932 177.52v-0.67597l-2.7924 9.6e-4 0.0022 6.9848 0.77137-0.62711-4.83e-4 -4.8021-0.22259-7e-3v-0.87506z"/><path d="m64.945 183.25-0.76557 0.62244 8.3331 1e-3 -0.78248-0.63628"/><path d="m69.735 177.52v-0.67597l2.8056 9.6e-4 -2e-3 6.9848-0.77145-0.63081 5.64e-4 -4.7984 0.22259-7e-3v-0.87506z"/></g></g><rect x="381.34" y="24.502" width="16.293" height="13.788" rx=".043198" ry=".063503" stroke-width="1.8808"/><g transform="matrix(1.8841 0 0 1.8726 260.72 -306.33)"><path d="m64.141 183.87h8.4v-7.0242h-8.4z" fill="#3a3a3a"/><g transform="matrix(.0080517 0 0 .0080487 51.527 212.79)"><path d="m2609.9-3593.3v-872.71h-1043.3v872.71z" opacity="0" stroke-width=".67568"/></g><path d="m64.912 178.62h1.7532l-0.0026-1.0712 0.63806-5.7e-4v-0.40106h2.0566l-4.83e-4 0.40211h0.66414v1.0712h1.7452v4.6119l-6.8535 0.015z" fill="#1a1a1a"/><path d="m70.173 178.34h1.7316v-0.75298h-1.7316z" fill="#abb927"/><path d="m64.756 178.34h1.7468v-0.7569h-1.7468z" fill="#abb927"/><g fill="#ebebeb"><path d="m66.932 177.52v-0.67597l-2.7924 9.6e-4 0.0022 6.9848 0.77137-0.62711-4.83e-4 -4.8021-0.22259-7e-3v-0.87506z"/><path d="m64.945 183.25-0.76557 0.62244 8.3331 1e-3 -0.78248-0.63628"/><path d="m69.735 177.52v-0.67597l2.8056 9.6e-4 -2e-3 6.9848-0.77145-0.63081 5.64e-4 -4.7984 0.22259-7e-3v-0.87506z"/></g></g><g transform="matrix(1.8786 0 0 1.8829 -122.96 -706.28)"><g transform="matrix(0,-1.3729,1.3727,0,43.123,1033.3)"><rect x="464.5" y="172.59" width="4" height="5.6"/></g><g transform="matrix(0,-1.3729,1.3727,0,43.123,1033.3)"><polygon points="464.9 174.19 464.9 176.79 464.7 176.79 464.7 177.99 468.3 177.99 468.3 172.79 464.7 172.79 464.7 174.19" fill="none" stroke="#ccc" stroke-width=".1"/></g></g><rect x="3.6944" y="2.5812" width="14.299" height="8.5738" rx=".31571" ry=".1544" fill="#e6e6e6" stroke="#333" stroke-linejoin="round" stroke-width=".39967"/><path d="m10.924 11.056c-0.04056 0-0.08095-7.72e-4 -0.12125-0.0015l0.83394-2.2971h1.1477c0.20143 0 0.42258-0.15516 0.49147-0.34485l0.90476-2.4908c0.148-0.4078-0.08503-0.74143-0.51798-0.74143h-1.5922l-1.3359 3.6794h-3.81e-4l-0.75734 2.0858c-1.7968-0.42816-3.1333-2.047-3.1333-3.979 0-1.8762 1.2605-3.4572 2.9789-3.939l-0.78145 2.1528h-2.142e-4l-1.2991 3.5771 0.86482 7.5e-5 1.1048-3.0395h0.64996l-1.1048 3.0395 0.8645 1.51e-4 1.0296-2.8358c0.14812-0.4078-0.084955-0.74143-0.51751-0.74143h-0.72698l0.83474-2.2995c0.06085-0.0038 0.12193-0.0038 0.1834-0.0038 2.2537 0 4.0805 1.8311 4.0805 4.0899 0 2.2588-1.8269 4.0899-4.0805 4.0899zm2.469-5.3408h-0.64979l-0.90995 2.5025h0.6498z" stroke-width="1.8808"/><g transform="matrix(1.8787 0 0 1.883 -279.97 -676.39)"><rect x="250.4" y="379.77" width="3.9417" height="1.9916" rx=".047399" ry=".023128"/><g transform="scale(1.0397 .96177)"><path d="m242.58 396.29h0.56307v0.24254h-0.92988v-0.24254l0.46708-0.41224q0.0626-0.0566 0.0926-0.11055 0.03-0.054 0.03-0.11227 0-0.09-0.0608-0.14484-0.06-0.0548-0.16027-0.0548-0.0771 0-0.16883 0.0334-0.0917 0.0326-0.19626 0.0977v-0.2811q0.11141-0.0369 0.22025-0.0557 0.10885-0.0197 0.2134-0.0197 0.22969 0 0.35653 0.10113 0.1277 0.10113 0.1277 0.28196 0 0.10456-0.054 0.1954-0.054 0.09-0.22711 0.24169l-0.27339 0.23997z" fill="#fff"/></g></g><g transform="matrix(1.8787 0 0 1.883 -265.03 -676.39)"><rect x="250.4" y="379.77" width="3.9417" height="1.9916" rx=".047399" ry=".023128"/><g transform="scale(1.0397 .96177)"><path d="m242.72 395.52-0.36167 0.53564h0.36167zm-0.0549-0.27168h0.36681v0.80732h0.18255v0.23911h-0.18255v0.23312h-0.31196v-0.23312h-0.56735v-0.28282z" fill="#fff"/></g></g><g transform="matrix(1.8787 0 0 1.883 -250.83 -676.39)"><rect x="250.4" y="379.77" width="3.9417" height="1.9916" rx=".047399" ry=".023128"/><g transform="scale(1.0397 .96177)"><path d="m242.71 395.9q-0.0866 0-0.13027 0.0566-0.0428 0.0557-0.0428 0.16798 0 0.11227 0.0428 0.16883 0.0437 0.0557 0.13027 0.0557 0.0874 0 0.13027-0.0557 0.0437-0.0566 0.0437-0.16883 0-0.11228-0.0437-0.16798-0.0428-0.0566-0.13027-0.0566zm0.40795-0.61449v0.23654q-0.0814-0.0386-0.15341-0.0566-0.072-0.0189-0.14056-0.0189-0.14741 0-0.22968 0.0823-0.0823 0.0814-0.096 0.24254 0.0566-0.042 0.12256-0.0626 0.066-0.0214 0.14398-0.0214 0.19626 0 0.31624 0.11484 0.12085 0.11484 0.12085 0.30082 0 0.20569-0.13456 0.32996-0.13455 0.12341-0.36081 0.12341-0.2494 0-0.38652-0.16798-0.13627-0.16883-0.13627-0.47822 0-0.3171 0.15941-0.49794 0.16026-0.18169 0.4388-0.18169 0.0883 0 0.17141 0.0137 0.0831 0.0137 0.16455 0.0411z" fill="#fff"/></g></g><g transform="matrix(1.8787 0 0 1.883 -236.62 -676.39)"><rect x="250.4" y="379.77" width="3.9417" height="1.9916" rx=".047399" ry=".023128"/><g transform="scale(1.0397 .96177)"><path d="m242.69 395.96q-0.0926 0-0.14227 0.0506-0.0497 0.0506-0.0497 0.14484 0 0.0943 0.0497 0.14484 0.0497 0.0497 0.14227 0.0497 0.0917 0 0.14056-0.0497 0.0488-0.0506 0.0488-0.14484 0-0.0951-0.0488-0.14484-0.0489-0.0506-0.14056-0.0506zm-0.24082-0.10884q-0.11656-0.0351-0.1757-0.10799-0.0591-0.0729-0.0591-0.18169 0-0.16198 0.12084-0.24683 0.12084-0.0848 0.35481-0.0848 0.23226 0 0.3531 0.0848 0.12084 0.084 0.12084 0.24683 0 0.10884-0.06 0.18169-0.0591 0.0729-0.17569 0.10799 0.13027 0.036 0.19626 0.11741 0.0668 0.0806 0.0668 0.20397 0 0.19026-0.12684 0.28797-0.12599 0.0968-0.37453 0.0968-0.24939 0-0.37709-0.0968-0.12684-0.0977-0.12684-0.28797 0-0.12341 0.066-0.20397 0.0669-0.0814 0.19712-0.11741zm0.0771-0.25626q0 0.0763 0.042 0.11742 0.0429 0.0411 0.1217 0.0411 0.0771 0 0.11913-0.0411 0.042-0.0411 0.042-0.11742 0-0.0763-0.042-0.11655-0.042-0.0411-0.11913-0.0411-0.0788 0-0.1217 0.0411-0.042 0.0411-0.042 0.11655z" fill="#fff"/></g></g><g transform="matrix(1.8787 0 0 1.883 -222.42 -676.39)"><rect x="250.4" y="379.77" width="3.9417" height="1.9916" rx=".047399" ry=".023128"/><g transform="scale(1.0397 .96177)" fill="#fff"><path d="m241.67 396.3h0.29139v-0.82704l-0.2991 0.0617v-0.22455l0.29739-0.0617h0.31367v1.0516h0.29139v0.22797h-0.89474v-0.22797z"/><path d="m243.49 395.89q0-0.23997-0.0454-0.33767-0.0446-0.0986-0.15084-0.0986-0.10627 0-0.1517 0.0986-0.0454 0.0977-0.0454 0.33767 0 0.24254 0.0454 0.34195 0.0454 0.0994 0.1517 0.0994 0.10541 0 0.15084-0.0994 0.0454-0.0994 0.0454-0.34195zm0.32996 3e-3q0 0.31796-0.13713 0.49108-0.13712 0.17226-0.38909 0.17226-0.25283 0-0.38995-0.17226-0.13713-0.17312-0.13713-0.49108 0-0.31882 0.13713-0.49108 0.13712-0.17312 0.38995-0.17312 0.25197 0 0.38909 0.17312 0.13713 0.17226 0.13713 0.49108z"/></g></g><g transform="matrix(1.8787 0 0 1.883 -208.9 -676.39)"><rect x="250.4" y="379.77" width="3.9417" height="1.9916" rx=".047399" ry=".023128"/><g transform="scale(1.0397 .96177)" fill="#fff"><path d="m241.67 396.3h0.29139v-0.82704l-0.2991 0.0617v-0.22455l0.29739-0.0617h0.31367v1.0516h0.29139v0.22797h-0.89474v-0.22797z"/><path d="m243.19 396.29h0.56307v0.24254h-0.92988v-0.24254l0.46709-0.41224q0.0626-0.0566 0.0926-0.11055 0.03-0.054 0.03-0.11227 0-0.09-0.0608-0.14484-0.06-0.0548-0.16026-0.0548-0.0771 0-0.16884 0.0334-0.0917 0.0326-0.19626 0.0977v-0.2811q0.11142-0.0369 0.22026-0.0557 0.10884-0.0197 0.2134-0.0197 0.22969 0 0.35653 0.10113 0.12769 0.10113 0.12769 0.28196 0 0.10456-0.054 0.1954-0.054 0.09-0.22711 0.24169l-0.2734 0.23997z"/></g></g><g transform="matrix(1.8787 0 0 1.883 -190.87 -676.39)"><rect x="250.4" y="379.77" width="3.9417" height="1.9916" rx=".047399" ry=".023128"/><g transform="scale(1.0397 .96177)" fill="#fff"><path d="m241.67 396.3h0.29139v-0.82704l-0.2991 0.0617v-0.22455l0.29739-0.0617h0.31367v1.0516h0.29139v0.22797h-0.89474v-0.22797z"/><path d="m243.33 395.52-0.36167 0.53564h0.36167zm-0.0548-0.27168h0.36681v0.80732h0.18254v0.23911h-0.18254v0.23312h-0.31196v-0.23312h-0.56736v-0.28282z"/></g></g><g transform="matrix(1.8787 0 0 1.883 -175.94 -676.39)"><rect x="250.4" y="379.77" width="3.9417" height="1.9916" rx=".047399" ry=".023128"/><g transform="scale(1.0397 .96177)" fill="#fff"><path d="m241.67 396.3h0.29139v-0.82704l-0.2991 0.0617v-0.22455l0.29739-0.0617h0.31367v1.0516h0.29139v0.22797h-0.89474v-0.22797z"/><path d="m243.32 395.9q-0.0866 0-0.13027 0.0566-0.0428 0.0557-0.0428 0.16798 0 0.11227 0.0428 0.16883 0.0437 0.0557 0.13027 0.0557 0.0874 0 0.13026-0.0557 0.0437-0.0566 0.0437-0.16883 0-0.11228-0.0437-0.16798-0.0429-0.0566-0.13026-0.0566zm0.40794-0.61449v0.23654q-0.0814-0.0386-0.15341-0.0566-0.072-0.0189-0.14055-0.0189-0.14741 0-0.22968 0.0823-0.0823 0.0814-0.096 0.24254 0.0566-0.042 0.12255-0.0626 0.066-0.0214 0.14399-0.0214 0.19626 0 0.31624 0.11484 0.12084 0.11484 0.12084 0.30082 0 0.20569-0.13455 0.32996-0.13456 0.12341-0.36081 0.12341-0.2494 0-0.38652-0.16798-0.13627-0.16883-0.13627-0.47822 0-0.3171 0.15941-0.49794 0.16026-0.18169 0.4388-0.18169 0.0883 0 0.1714 0.0137t0.16455 0.0411z"/></g></g><g transform="matrix(1.8787 0 0 1.883 -161.74 -676.39)"><rect x="250.4" y="379.77" width="3.9417" height="1.9916" rx=".047399" ry=".023128"/><g transform="scale(1.0397 .96177)" fill="#fff" aria-label="18"><path d="m241.67 396.3h0.29139v-0.82704l-0.2991 0.0617v-0.22454l0.29739-0.0617h0.31367v1.0516h0.29139v0.22797h-0.89474z"/><path d="m243.3 395.96q-0.0926 0-0.14227 0.0506-0.0497 0.0506-0.0497 0.14484 0 0.0943 0.0497 0.14484 0.0497 0.0497 0.14227 0.0497 0.0917 0 0.14055-0.0497 0.0488-0.0506 0.0488-0.14484 0-0.0951-0.0488-0.14484-0.0489-0.0506-0.14055-0.0506zm-0.24083-0.10884q-0.11655-0.0351-0.17569-0.10799-0.0591-0.0729-0.0591-0.18169 0-0.16198 0.12084-0.24683 0.12084-0.0848 0.35481-0.0848 0.23225 0 0.3531 0.0848 0.12084 0.084 0.12084 0.24683 0 0.10884-0.06 0.18169-0.0591 0.0729-0.17569 0.10799 0.13027 0.036 0.19626 0.11741 0.0668 0.0806 0.0668 0.20397 0 0.19026-0.12684 0.28797-0.12598 0.0968-0.37452 0.0968-0.2494 0-0.3771-0.0968-0.12684-0.0977-0.12684-0.28797 0-0.12341 0.066-0.20397 0.0668-0.0814 0.19711-0.11741zm0.0771-0.25626q0 0.0763 0.042 0.11742 0.0428 0.0411 0.1217 0.0411 0.0771 0 0.11913-0.0411 0.042-0.0411 0.042-0.11742 0-0.0763-0.042-0.11655-0.042-0.0411-0.11913-0.0411-0.0789 0-0.1217 0.0411-0.042 0.0411-0.042 0.11655z"/></g></g><g transform="matrix(1.8787 0 0 1.883 -147.53 -676.39)"><rect x="250.4" y="379.77" width="3.9417" height="1.9916" rx=".047399" ry=".023128"/><g transform="scale(1.0397 .96177)" fill="#fff"><path d="m241.97 396.29h0.56307v0.24254h-0.92988v-0.24254l0.46708-0.41224q0.0626-0.0566 0.0926-0.11055 0.03-0.054 0.03-0.11227 0-0.09-0.0609-0.14484-0.06-0.0548-0.16027-0.0548-0.0771 0-0.16883 0.0334-0.0917 0.0326-0.19626 0.0977v-0.2811q0.11141-0.0369 0.22026-0.0557 0.10884-0.0197 0.2134-0.0197 0.22968 0 0.35652 0.10113 0.1277 0.10113 0.1277 0.28196 0 0.10456-0.054 0.1954-0.054 0.09-0.22712 0.24169l-0.27339 0.23997z"/><path d="m243.49 395.89q0-0.23997-0.0454-0.33767-0.0446-0.0986-0.15084-0.0986-0.10627 0-0.1517 0.0986-0.0454 0.0977-0.0454 0.33767 0 0.24254 0.0454 0.34195 0.0454 0.0994 0.1517 0.0994 0.10541 0 0.15084-0.0994 0.0454-0.0994 0.0454-0.34195zm0.32996 3e-3q0 0.31796-0.13713 0.49108-0.13712 0.17226-0.38909 0.17226-0.25283 0-0.38995-0.17226-0.13713-0.17312-0.13713-0.49108 0-0.31882 0.13713-0.49108 0.13712-0.17312 0.38995-0.17312 0.25197 0 0.38909 0.17312 0.13713 0.17226 0.13713 0.49108z"/></g></g><path d="m335.76 38.711h7.2272c0.0494 0 0.089 0.0194 0.089 0.0435v3.6632c0 0.0241-0.0396 0.0435-0.089 0.0435h-7.2272c-0.0494 0-0.0891-0.0194-0.0891-0.0435v-3.6632c0-0.0241 0.0396-0.0435 0.0891-0.0435z" stroke-width="1.8808"/><g transform="matrix(1.9533 0 0 1.811 -129.37 -707.2)" fill="#fff"><path d="m239.27 413.3h0.56308v0.24254h-0.92988v-0.24254l0.46708-0.41223q0.0626-0.0566 0.0926-0.11055 0.03-0.054 0.03-0.11228 0-0.09-0.0608-0.14483-0.06-0.0548-0.16026-0.0548-0.0771 0-0.16884 0.0334-0.0917 0.0326-0.19626 0.0977v-0.28111q0.11142-0.0368 0.22026-0.0557 0.10884-0.0197 0.2134-0.0197 0.22969 0 0.35653 0.10113 0.12769 0.10113 0.12769 0.28196 0 0.10456-0.054 0.1954-0.054 0.09-0.22711 0.24169l-0.2734 0.23996z"/><path d="m240.49 413.3h0.56307v0.24254h-0.92988v-0.24254l0.46708-0.41223q0.0626-0.0566 0.0926-0.11055 0.03-0.054 0.03-0.11228 0-0.09-0.0609-0.14483-0.06-0.0548-0.16027-0.0548-0.0771 0-0.16883 0.0334-0.0917 0.0326-0.19626 0.0977v-0.28111q0.11141-0.0368 0.22025-0.0557 0.10885-0.0197 0.21341-0.0197 0.22968 0 0.35652 0.10113 0.1277 0.10113 0.1277 0.28196 0 0.10456-0.054 0.1954-0.054 0.09-0.22712 0.24169l-0.27339 0.23996z"/></g><path d="m349.94 38.711h7.2272c0.0494 0 0.0891 0.0194 0.0891 0.0435v3.6632c0 0.0241-0.0396 0.0435-0.0891 0.0435h-7.2272c-0.0494 0-0.089-0.0194-0.089-0.0435v-3.6632c0-0.0241 0.0396-0.0435 0.089-0.0435z" stroke-width="1.8808"/><g transform="matrix(1.9533 0 0 1.811 -115.26 -707.2)" fill="#fff"><path d="m239.27 413.3h0.56308v0.24254h-0.92988v-0.24254l0.46708-0.41223q0.0626-0.0566 0.0926-0.11055 0.03-0.054 0.03-0.11228 0-0.09-0.0608-0.14483-0.06-0.0548-0.16026-0.0548-0.0771 0-0.16884 0.0334-0.0917 0.0326-0.19626 0.0977v-0.28111q0.11142-0.0368 0.22026-0.0557 0.10884-0.0197 0.2134-0.0197 0.22969 0 0.35653 0.10113 0.12769 0.10113 0.12769 0.28196 0 0.10456-0.054 0.1954-0.054 0.09-0.22711 0.24169l-0.2734 0.23996z"/><path d="m240.63 412.53-0.36167 0.53565h0.36167zm-0.0548-0.27167h0.36681v0.80732h0.18255v0.23911h-0.18255v0.23311h-0.31196v-0.23311h-0.56735v-0.28282z"/></g><g transform="translate(-21.623 -68.007)"><rect x="44.435" y="71.578" width="20.888" height="12.668" rx=".49047" ry=".64677" fill="#1e90ff" stroke-width="1.5236"/><g fill="#fff" stroke-width="1.9357"><path d="m58.406 73.168h0.96558q0.43065 0 0.66034 0.17805 0.2312 0.17656 0.2312 0.50464 0 0.32942-0.2312 0.50746-0.22968 0.17656-0.66034 0.17656h-0.38382v0.72614h-0.58176v-2.093zm0.58176 0.3911v0.58455h0.32186q0.16924 0 0.26141-0.0757 0.09216-0.07718 0.09216-0.21728 0-0.1402-0.09216-0.21588-0.09216-0.0757-0.26141-0.0757z"/><path d="m61.455 73.971q-0.17981 0-0.27501 0.12063-0.0937 0.11913-0.0937 0.34484 0 0.22569 0.0937 0.34624 0.0952 0.11913 0.27501 0.11913 0.1768 0 0.27047-0.11913 0.0937-0.12063 0.0937-0.34624 0-0.22569-0.0937-0.34484-0.0937-0.12063-0.27047-0.12063zm0-0.35886q0.4367 0 0.6815 0.21868 0.24631 0.21868 0.24631 0.60558 0 0.3869-0.24631 0.60558-0.24479 0.21868-0.6815 0.21868-0.43821 0-0.68603-0.21868-0.24632-0.21868-0.24632-0.60558 0-0.3869 0.24632-0.60558 0.24782-0.21868 0.68603-0.21868z"/><path d="m62.801 73.168h1.57v0.40792h-0.98823v0.38972h0.92931v0.40792h-0.92931v0.47942h1.0215v0.40794h-1.6033v-2.093z"/></g><g transform="translate(-5.9191)" fill="#fff" stroke-width="1.5236"><path d="m52.474 77.209v0.34866q-0.14629-0.06075-0.28545-0.09157-0.13916-0.03096-0.26284-0.03096-0.16413 0-0.24263 0.04197-0.07849 0.04197-0.07849 0.13016 0 0.06618 0.05233 0.10375 0.05351 0.03639 0.19267 0.06295l0.19506 0.03639q0.29616 0.05518 0.42103 0.1677 0.12489 0.11256 0.12489 0.31998 0 0.27252-0.17483 0.40604-0.17364 0.13237-0.53165 0.13237-0.1689 0-0.33896-0.02979t-0.34016-0.08834v-0.35859q0.17008 0.08379 0.32827 0.12694 0.15937 0.04197 0.30685 0.04197 0.14986 0 0.22954-0.04637 0.07968-0.04637 0.07968-0.13237 0-0.07719-0.05472-0.11916-0.05351-0.04197-0.21528-0.07499l-0.17722-0.03639q-0.26642-0.05298-0.3901-0.1688-0.1225-0.11593-0.1225-0.31225 0-0.24605 0.17127-0.37846 0.17127-0.13237 0.4924-0.13237 0.14629 0 0.3009 0.02098 0.15461 0.01981 0.31993 0.06075z"/><path d="m52.855 77.575h0.4139l0.2236 0.85178 0.22478-0.85178h0.35562l0.2236 0.84296 0.22478-0.84296h0.4139l-0.35086 1.2358h-0.46504l-0.22478-0.8496-0.2236 0.8496h-0.46504z"/><path d="m55.225 77.575h0.42579v1.2358h-0.42579zm0-0.48107h0.42579v0.32218h-0.42579z"/><path d="m56.527 77.223v0.35087h0.43887v0.28246h-0.43887v0.5241q0 0.08599 0.03687 0.11696 0.03687 0.02979 0.14629 0.02979h0.21884v0.28246h-0.36513q-0.25215 0-0.35799-0.09715-0.10467-0.09817-0.10467-0.3321v-0.5241h-0.2117v-0.28246h0.2117v-0.35087h0.42579z"/><path d="m58.305 77.605v0.32219q-0.08683-0.05518-0.17484-0.08159-0.08683-0.02642-0.18078-0.02642-0.1784 0-0.27831 0.09715-0.09871 0.09597-0.09871 0.26922 0 0.17322 0.09871 0.27032 0.09991 0.09597 0.27831 0.09597 0.09991 0 0.18911-0.02759 0.09039-0.02759 0.16651-0.08159v0.32327q-0.09991 0.03419-0.20338 0.05078-0.10228 0.01761-0.20575 0.01761-0.36038 0-0.56376-0.17102-0.20338-0.17212-0.20338-0.47775t0.20338-0.47665q0.20338-0.17212 0.56376-0.17212 0.10466 0 0.20575 0.01761 0.10228 0.01658 0.20338 0.05078z"/><path d="m60.013 78.045v0.75249h-0.42816v-0.57381q0-0.16218-0.0084-0.22288-0.0071-0.06075-0.02616-0.08937-0.02498-0.03859-0.0678-0.05958-0.04282-0.02201-0.09752-0.02201-0.13321 0-0.20933 0.09597-0.07612 0.09495-0.07612 0.26369v0.60796h-0.42579v-1.7168h0.42579v0.66202q0.09634-0.10815 0.20457-0.15888 0.10823-0.0518 0.23907-0.0518 0.23073 0 0.34967 0.13134 0.12013 0.13134 0.12013 0.38176z"/></g><g transform="matrix(.008285 0 0 .0083039 58.841 77.923)"><path d="m140.67 377.74h516.56c0.0674 0 0.12168 0.0244 0.12168 0.0548v315.04c0 0.0303-0.0543 0.0548-0.12168 0.0548h-516.56c-0.0674 0-0.12168-0.0244-0.12168-0.0548v-315.04c0-0.0303 0.0543-0.0548 0.12168-0.0548z" fill="#ff0" stroke="#ff0" stroke-linejoin="round" stroke-width="85.598"/><path d="m311.33 637.13h169.3v72.062l203.74-175.44-203.74-172.33v72.062h-169.3l188.08 72.062v-28.202l94.083 56.404-94.083 56.404v-25.088c-1.0798-1.9134-188.08 72.062-188.08 72.062z" stroke="#000"/><g stroke-width="1px"><path d="m120.1 493.56h35.066q15.64 0 23.981 6.9692 8.396 6.9143 8.396 19.755 0 12.896-8.396 19.865-8.3411 6.9143-23.981 6.9143h-13.938v28.426h-21.127v-81.929zm21.127 15.31v22.883h11.689q6.1461 0 9.4935-2.9633 3.3474-3.0182 3.3474-8.5057 0-5.4876-3.3474-8.4508-3.3474-2.9633-9.4935-2.9633h-11.689z"/><path d="m229.66 526.59q-6.5302 0-9.9874 4.7193-3.4023 4.6644-3.4023 13.499 0 8.835 3.4023 13.554 3.4572 4.6644 9.9874 4.6644 6.4204 0 9.8227-4.6644 3.4023-4.7193 3.4023-13.554 0-8.835-3.4023-13.499-3.4023-4.7193-9.8227-4.7193zm0-14.048q15.859 0 24.749 8.5606 8.9447 8.5606 8.9447 23.706 0 15.146-8.9447 23.706-8.8898 8.5606-24.749 8.5606-15.914 0-24.914-8.5606-8.9447-8.5606-8.9447-23.706 0-15.146 8.9447-23.706 8.9996-8.5606 24.914-8.5606z"/><path d="m277.43 493.56h57.016v15.969h-35.889v15.255h33.749v15.969h-33.749v18.767h37.096v15.969h-58.223z"/></g></g><g fill="#fff" stroke-width="1.2133px"><path d="m45.858 74.871h0.90248v0.38963h-1.4904v-0.38963l0.74862-0.66221q0.10027-0.09086 0.14835-0.17761 0.04808-0.08673 0.04808-0.18035 0-0.14456-0.09752-0.23267-0.09615-0.08818-0.25687-0.08818-0.12362 0-0.2706 0.05369-0.14698 0.05235-0.31456 0.15695v-0.45158q0.17857-0.05915 0.35303-0.08952 0.17445-0.0317 0.34203-0.0317 0.36813 0 0.57143 0.16245 0.20467 0.16246 0.20467 0.45296 0 0.16796-0.08654 0.31391-0.08654 0.14456-0.364 0.38824l-0.43819 0.38549z"/><path d="m47.274 73.207h1.3145v0.38963h-0.89285v0.31802q0.06044-0.01652 0.12087-0.02478 0.06181-0.0097 0.12775-0.0097 0.375 0 0.5838 0.18861 0.20879 0.18724 0.20879 0.52317 0 0.33318-0.22802 0.5218-0.22665 0.18861-0.63049 0.18861-0.17445 0-0.34615-0.03438-0.17033-0.03304-0.33928-0.10191v-0.41717q0.16758 0.09632 0.31731 0.14457 0.1511 0.04822 0.28434 0.04822 0.1923 0 0.3022-0.09365 0.11126-0.09499 0.11126-0.25608 0-0.16246-0.11126-0.25608-0.1099-0.09365-0.3022-0.09365-0.11402 0-0.24313 0.03025-0.12912 0.02891-0.27748 0.09086v-1.1565z"/><path d="m49.715 74.871h0.90247v0.38963h-1.4904v-0.38963l0.74862-0.66221q0.10027-0.09086 0.14835-0.17761 0.04808-0.08673 0.04808-0.18035 0-0.14456-0.09753-0.23267-0.09615-0.08818-0.25687-0.08818-0.12362 0-0.2706 0.05369-0.14698 0.05235-0.31456 0.15695v-0.45158q0.17857-0.05915 0.35303-0.08952 0.17445-0.0317 0.34203-0.0317 0.36813 0 0.57143 0.16245 0.20466 0.16246 0.20466 0.45296 0 0.16796-0.08654 0.31391-0.08654 0.14456-0.364 0.38824l-0.43819 0.38549z"/><path d="m52.126 74.227q0-0.3855-0.0728-0.54245-0.07143-0.15833-0.24176-0.15833t-0.24313 0.15833q-0.0728 0.15695-0.0728 0.54245 0 0.38963 0.0728 0.54934t0.24313 0.1597q0.16895 0 0.24176-0.1597 0.0728-0.1597 0.0728-0.54934zm0.52885 0.0036q0 0.51078-0.21978 0.78889-0.21978 0.27673-0.62363 0.27673-0.40522 0-0.625-0.27673-0.21978-0.27811-0.21978-0.78889 0-0.51215 0.21978-0.78889 0.21978-0.2781 0.625-0.2781 0.40384 0 0.62363 0.2781 0.21978 0.27674 0.21978 0.78889z"/><path d="m52.913 74.252h0.86264v0.40063h-0.86264z"/><path d="m54.713 74.871h0.90248v0.38963h-1.4904v-0.38963l0.74862-0.66221q0.10027-0.09086 0.14835-0.17761 0.04808-0.08673 0.04808-0.18035 0-0.14456-0.09753-0.23267-0.09615-0.08818-0.25687-0.08818-0.12363 0-0.2706 0.05369-0.14698 0.05235-0.31456 0.15695v-0.45158q0.17857-0.05915 0.35303-0.08952 0.17445-0.0317 0.34203-0.0317 0.36813 0 0.57143 0.16245 0.20466 0.16246 0.20466 0.45296 0 0.16796-0.08654 0.31391-0.08654 0.14456-0.364 0.38824l-0.43818 0.38549z"/><path d="m56.866 73.644-0.57968 0.86048h0.57968zm-0.08791-0.43643h0.58792v1.2969h0.29258v0.38412h-0.29258v0.37448h-0.5v-0.37448h-0.90934v-0.45434l0.82142-1.2267z"/></g></g><rect x="402.21" y="8.2488" width="16.293" height="13.788" rx=".043198" ry=".063503" stroke-width="1.8808"/><g transform="matrix(1.8841 0 0 1.8726 281.58 -322.59)"><path d="m64.141 183.87h8.4v-7.0242h-8.4z" fill="#3a3a3a"/><path d="m64.912 178.62h1.7532l-0.0026-1.0712 0.63806-5.7e-4v-0.40106h2.0566l-4.83e-4 0.40211h0.66414v1.0712h1.7452v4.6119l-6.8535 0.015z" fill="#1a1a1a"/><path d="m70.173 178.34h1.7316v-0.75298h-1.7316z" fill="#abb927"/><path d="m64.756 178.34h1.7468v-0.7569h-1.7468z" fill="#abb927"/><g fill="#ebebeb"><path d="m66.932 177.52v-0.67597l-2.7924 9.6e-4 0.0022 6.9848 0.77137-0.62711-4.83e-4 -4.8021-0.22259-7e-3v-0.87506z"/><path d="m64.945 183.25-0.76557 0.62244 8.3331 1e-3 -0.78248-0.63628"/><path d="m69.735 177.52v-0.67597l2.8056 9.6e-4 -2e-3 6.9848-0.77145-0.63081 5.64e-4 -4.7984 0.22259-7e-3v-0.87506z"/></g></g><rect x="420.03" y="8.2488" width="16.293" height="13.788" rx=".043198" ry=".063503" stroke-width="1.8808"/><g transform="matrix(1.8841 0 0 1.8726 299.41 -322.59)"><path d="m64.141 183.87h8.4v-7.0242h-8.4z" fill="#3a3a3a"/><g transform="matrix(.0080517 0 0 .0080487 51.527 212.79)"><path d="m2609.9-3593.3v-872.71h-1043.3v872.71z" opacity="0" stroke-width=".67568"/></g><path d="m64.912 178.62h1.7532l-0.0026-1.0712 0.63806-5.7e-4v-0.40106h2.0566l-4.83e-4 0.40211h0.66414v1.0712h1.7452v4.6119l-6.8535 0.015z" fill="#1a1a1a"/><path d="m70.173 178.34h1.7316v-0.75298h-1.7316z" fill="#abb927"/><path d="m64.756 178.34h1.7468v-0.7569h-1.7468z" fill="#abb927"/><g fill="#ebebeb"><path d="m66.932 177.52v-0.67597l-2.7924 9.6e-4 0.0022 6.9848 0.77137-0.62711-4.83e-4 -4.8021-0.22259-7e-3v-0.87506z"/><path d="m64.945 183.25-0.76557 0.62244 8.3331 1e-3 -0.78248-0.63628"/><path d="m69.735 177.52v-0.67597l2.8056 9.6e-4 -2e-3 6.9848-0.77145-0.63081 5.64e-4 -4.7984 0.22259-7e-3v-0.87506z"/></g></g><g transform="matrix(1.8787 0 0 1.883 -287.54 -709.06)"><rect x="250.4" y="379.77" width="3.9417" height="1.9916" rx=".047399" ry=".023128"/><g transform="scale(1.0397 .96177)"><path d="m242.28 396.3h0.29139v-0.82704l-0.29911 0.0617v-0.22455l0.29739-0.0617h0.31368v1.0516h0.29139v0.22797h-0.89474v-0.22797z" fill="#fff"/></g></g><g transform="matrix(1.8787 0 0 1.883 -273.07 -709.06)"><rect x="250.4" y="379.77" width="3.9417" height="1.9916" rx=".047399" ry=".023128"/><g transform="scale(1.0397 .96177)"><path d="m242.89 395.84q0.12941 0.0334 0.19626 0.11655 0.0677 0.0823 0.0677 0.20997 0 0.19027-0.14569 0.28968-0.1457 0.0986-0.42509 0.0986-0.0986 0-0.19798-0.0163-0.0985-0.0154-0.1954-0.0471v-0.25454q0.0926 0.0463 0.18341 0.0703 0.0917 0.0231 0.17997 0.0231 0.13113 0 0.20055-0.0454 0.0703-0.0454 0.0703-0.13026 0-0.0874-0.072-0.13199-0.0711-0.0454-0.21083-0.0454h-0.13198v-0.21254h0.13884q0.12427 0 0.18512-0.0386 0.0609-0.0394 0.0609-0.11913 0-0.0737-0.0591-0.11398-0.0591-0.0403-0.16712-0.0403-0.0797 0-0.16112 0.018-0.0814 0.018-0.16198 0.0531v-0.24168q0.0977-0.0274 0.19369-0.0411 0.096-0.0137 0.18855-0.0137 0.24939 0 0.37281 0.0823 0.12427 0.0814 0.12427 0.24597 0 0.11227-0.0591 0.18426-0.0591 0.0711-0.17483 0.10028z" fill="#fff"/></g></g><g transform="matrix(1.8787 0 0 1.883 -258.59 -709.06)"><rect x="250.4" y="379.77" width="3.9417" height="1.9916" rx=".047399" ry=".023128"/><g transform="scale(1.0397 .96177)"><path d="m242.26 395.25h0.82018v0.24254h-0.55707v0.19797q0.0377-0.0103 0.0754-0.0154 0.0386-6e-3 0.0797-6e-3 0.23397 0 0.36423 0.11741 0.13027 0.11656 0.13027 0.32567 0 0.2074-0.14226 0.32482-0.14141 0.11741-0.39338 0.11741-0.10884 0-0.21597-0.0214-0.10628-0.0206-0.21169-0.0634v-0.25968q0.10456 0.06 0.19797 0.09 0.0943 0.03 0.17741 0.03 0.11998 0 0.18855-0.0583 0.0694-0.0591 0.0694-0.15941 0-0.10113-0.0694-0.15941-0.0686-0.0583-0.18855-0.0583-0.0711 0-0.1517 0.0188-0.0806 0.018-0.17312 0.0566v-0.7199z" fill="#fff"/></g></g><g transform="matrix(1.8787 0 0 1.883 -244.12 -709.06)"><rect x="250.4" y="379.77" width="3.9417" height="1.9916" rx=".047399" ry=".023128"/><g transform="scale(1.0397 .96177)"><path d="m242.19 395.25h0.96416v0.18597l-0.49879 1.0936h-0.32139l0.47223-1.037h-0.61621v-0.24254z" fill="#fff"/></g></g><g transform="matrix(1.8787 0 0 1.883 -229.64 -709.06)"><rect x="250.4" y="379.77" width="3.9417" height="1.9916" rx=".047399" ry=".023128"/><g transform="scale(1.0397 .96177)"><path d="m242.25 396.5v-0.23654q0.0788 0.0369 0.15084 0.0557 0.072 0.018 0.14226 0.018 0.14741 0 0.22969-0.0814 0.0823-0.0823 0.0968-0.2434-0.0583 0.0428-0.12427 0.0643-0.066 0.0214-0.14312 0.0214-0.19626 0-0.3171-0.11399-0.11999-0.11484-0.11999-0.30167 0-0.20655 0.1337-0.33082 0.13455-0.12427 0.35995-0.12427 0.25026 0 0.38738 0.16884 0.13713 0.16883 0.13713 0.47736 0 0.31711-0.16027 0.4988-0.16026 0.18083-0.43965 0.18083-0.09 0-0.17227-0.0137-0.0823-0.0129-0.16112-0.0394zm0.40709-0.6162q0.0866 0 0.13027-0.0557 0.0437-0.0566 0.0437-0.16883 0-0.11142-0.0437-0.16798-0.0437-0.0566-0.13027-0.0566-0.0866 0-0.13027 0.0566-0.0437 0.0566-0.0437 0.16798 0 0.11227 0.0437 0.16883 0.0437 0.0557 0.13027 0.0557z" fill="#fff"/></g></g><g transform="matrix(1.8787 0 0 1.883 -215.17 -709.06)"><rect x="250.4" y="379.77" width="3.9417" height="1.9916" rx=".047399" ry=".023128"/><g transform="scale(1.0397 .96177)" fill="#fff"><path d="m241.67 396.3h0.29139v-0.82704l-0.2991 0.0617v-0.22455l0.29739-0.0617h0.31367v1.0516h0.29139v0.22797h-0.89474v-0.22797z"/><path d="m242.89 396.3h0.29139v-0.82704l-0.2991 0.0617v-0.22455l0.29739-0.0617h0.31367v1.0516h0.29139v0.22797h-0.89474v-0.22797z"/></g></g><g transform="matrix(1.8787 0 0 1.883 -199.07 -709.06)"><rect x="250.4" y="379.77" width="3.9417" height="1.9916" rx=".047399" ry=".023128"/><g transform="scale(1.0397 .96177)" fill="#fff"><path d="m241.67 396.3h0.29139v-0.82704l-0.2991 0.0617v-0.22455l0.29739-0.0617h0.31367v1.0516h0.29139v0.22797h-0.89474v-0.22797z"/><path d="m243.5 395.84q0.12942 0.0334 0.19626 0.11655 0.0677 0.0823 0.0677 0.20997 0 0.19027-0.1457 0.28968-0.14569 0.0986-0.42508 0.0986-0.0986 0-0.19798-0.0163-0.0986-0.0154-0.1954-0.0471v-0.25454q0.0926 0.0463 0.1834 0.0703 0.0917 0.0231 0.17998 0.0231 0.13113 0 0.20055-0.0454 0.0703-0.0454 0.0703-0.13026 0-0.0874-0.072-0.13199-0.0711-0.0454-0.21083-0.0454h-0.13198v-0.21254h0.13884q0.12427 0 0.18512-0.0386 0.0609-0.0394 0.0609-0.11913 0-0.0737-0.0591-0.11398-0.0591-0.0403-0.16712-0.0403-0.0797 0-0.16112 0.018-0.0814 0.018-0.16198 0.0531v-0.24168q0.0977-0.0274 0.19369-0.0411 0.096-0.0137 0.18854-0.0137 0.2494 0 0.37281 0.0823 0.12427 0.0814 0.12427 0.24597 0 0.11227-0.0591 0.18426-0.0591 0.0711-0.17484 0.10028z"/></g></g><g transform="matrix(1.8787 0 0 1.883 -184.6 -709.06)"><rect x="250.4" y="379.77" width="3.9417" height="1.9916" rx=".047399" ry=".023128"/><g transform="scale(1.0397 .96177)" fill="#fff"><path d="m241.67 396.3h0.29139v-0.82704l-0.2991 0.0617v-0.22455l0.29739-0.0617h0.31367v1.0516h0.29139v0.22797h-0.89474v-0.22797z"/><path d="m242.87 395.25h0.82018v0.24254h-0.55707v0.19797q0.0377-0.0103 0.0754-0.0154 0.0386-6e-3 0.0797-6e-3 0.23397 0 0.36424 0.11741 0.13027 0.11656 0.13027 0.32567 0 0.2074-0.14227 0.32482-0.14141 0.11741-0.39337 0.11741-0.10885 0-0.21598-0.0214-0.10627-0.0206-0.21168-0.0634v-0.25968q0.10455 0.06 0.19797 0.09 0.0943 0.03 0.17741 0.03 0.11998 0 0.18854-0.0583 0.0694-0.0591 0.0694-0.15941 0-0.10113-0.0694-0.15941-0.0686-0.0583-0.18854-0.0583-0.0711 0-0.1517 0.0188-0.0806 0.018-0.17312 0.0566v-0.7199z"/></g></g><g transform="matrix(1.8787 0 0 1.883 -170.13 -709.06)"><rect x="250.4" y="379.77" width="3.9417" height="1.9916" rx=".047399" ry=".023128"/><g transform="scale(1.0397 .96177)" fill="#fff"><path d="m241.67 396.3h0.29139v-0.82704l-0.2991 0.0617v-0.22455l0.29739-0.0617h0.31367v1.0516h0.29139v0.22797h-0.89474v-0.22797z"/><path d="m242.8 395.25h0.96416v0.18597l-0.49879 1.0936h-0.32139l0.47222-1.037h-0.6162v-0.24254z"/></g></g><g transform="matrix(1.8787 0 0 1.883 -155.65 -709.06)"><rect x="250.4" y="379.77" width="3.9417" height="1.9916" rx=".047399" ry=".023128"/><g transform="scale(1.0397 .96177)" fill="#fff"><path d="m241.67 396.3h0.29139v-0.82704l-0.2991 0.0617v-0.22455l0.29739-0.0617h0.31367v1.0516h0.29139v0.22797h-0.89474v-0.22797z"/><path d="m242.86 396.5v-0.23654q0.0788 0.0369 0.15083 0.0557 0.072 0.018 0.14227 0.018 0.14741 0 0.22969-0.0814 0.0823-0.0823 0.0968-0.2434-0.0583 0.0428-0.12427 0.0643-0.066 0.0214-0.14312 0.0214-0.19626 0-0.31711-0.11399-0.11998-0.11484-0.11998-0.30167 0-0.20655 0.1337-0.33082 0.13455-0.12427 0.35995-0.12427 0.25025 0 0.38738 0.16884 0.13712 0.16883 0.13712 0.47736 0 0.31711-0.16026 0.4988-0.16027 0.18083-0.43966 0.18083-0.09 0-0.17226-0.0137-0.0823-0.0129-0.16112-0.0394zm0.40709-0.6162q0.0866 0 0.13027-0.0557 0.0437-0.0566 0.0437-0.16883 0-0.11142-0.0437-0.16798-0.0437-0.0566-0.13027-0.0566-0.0866 0-0.13027 0.0566-0.0437 0.0566-0.0437 0.16798 0 0.11227 0.0437 0.16883 0.0437 0.0557 0.13027 0.0557z"/></g></g><path d="m330.2 6.0505h7.2272c0.0494 0 0.089 0.019395 0.089 0.043497v3.6632c0 0.024102-0.0396 0.043497-0.089 0.043497h-7.2272c-0.0494 0-0.089-0.019395-0.089-0.043497v-3.6632c0-0.024102 0.0396-0.043497 0.089-0.043497z" stroke-width="1.8808"/><g transform="matrix(1.9533 0 0 1.811 -134.97 -739.86)" fill="#fff"><path d="m239.27 413.3h0.56308v0.24254h-0.92988v-0.24254l0.46708-0.41223q0.0626-0.0566 0.0926-0.11055 0.03-0.054 0.03-0.11228 0-0.09-0.0608-0.14483-0.06-0.0548-0.16026-0.0548-0.0771 0-0.16884 0.0334-0.0917 0.0326-0.19626 0.0977v-0.28111q0.11142-0.0368 0.22026-0.0557 0.10884-0.0197 0.2134-0.0197 0.22969 0 0.35653 0.10113 0.12769 0.10113 0.12769 0.28196 0 0.10456-0.054 0.1954-0.054 0.09-0.22711 0.24169l-0.2734 0.23996z"/><path d="m240.19 413.31h0.29139v-0.82703l-0.29911 0.0617v-0.22454l0.29739-0.0617h0.31368v1.0516h0.29139v0.22797h-0.89474v-0.22797z"/></g><path d="m344.38 6.0505h7.2272c0.0494 0 0.0891 0.019395 0.0891 0.043497v3.6632c0 0.024102-0.0396 0.043497-0.0891 0.043497h-7.2272c-0.0494 0-0.0891-0.019395-0.0891-0.043497v-3.6632c0-0.024102 0.0396-0.043497 0.0891-0.043497z" stroke-width="1.8808"/><g transform="matrix(1.9533 0 0 1.811 -120.77 -739.86)" fill="#fff"><path d="m239.27 413.3h0.56308v0.24254h-0.92988v-0.24254l0.46708-0.41223q0.0626-0.0566 0.0926-0.11055 0.03-0.054 0.03-0.11228 0-0.09-0.0608-0.14483-0.06-0.0548-0.16026-0.0548-0.0771 0-0.16884 0.0334-0.0917 0.0326-0.19626 0.0977v-0.28111q0.11142-0.0368 0.22026-0.0557 0.10884-0.0197 0.2134-0.0197 0.22969 0 0.35653 0.10113 0.12769 0.10113 0.12769 0.28196 0 0.10456-0.054 0.1954-0.054 0.09-0.22711 0.24169l-0.2734 0.23996z"/><path d="m240.8 412.85q0.12941 0.0334 0.19626 0.11656 0.0677 0.0823 0.0677 0.20997 0 0.19026-0.14569 0.28968-0.1457 0.0986-0.42509 0.0986-0.0986 0-0.19797-0.0163-0.0986-0.0154-0.19541-0.0471v-0.25454q0.0926 0.0463 0.18341 0.0703 0.0917 0.0231 0.17997 0.0231 0.13113 0 0.20055-0.0454 0.0703-0.0454 0.0703-0.13027 0-0.0874-0.072-0.13198-0.0711-0.0454-0.21083-0.0454h-0.13199v-0.21254h0.13884q0.12427 0 0.18512-0.0386 0.0608-0.0394 0.0608-0.11913 0-0.0737-0.0591-0.11398-0.0591-0.0403-0.16713-0.0403-0.0797 0-0.16112 0.018-0.0814 0.018-0.16198 0.0531v-0.24168q0.0977-0.0274 0.19369-0.0411 0.096-0.0137 0.18855-0.0137 0.2494 0 0.37281 0.0823 0.12427 0.0814 0.12427 0.24597 0 0.11227-0.0591 0.18426-0.0591 0.0711-0.17483 0.10027z"/></g><g transform="translate(-1.6201 -2.8388)"><path d="m365.45 22.601h7.2272c0.0494 0 0.0891 0.0194 0.0891 0.0435v3.6632c0 0.0241-0.0396 0.0435-0.0891 0.0435h-7.2272c-0.0494 0-0.089-0.0194-0.089-0.0435v-3.6632c0-0.0241 0.0396-0.0435 0.089-0.0435z" stroke-width="1.8808"/><g transform="matrix(1.8786 0 0 1.8829 -107.34 -692.45)"><g transform="scale(1.0397 .96177)" fill="#fff"><path d="m243.19 396.29h0.56307v0.24254h-0.92988v-0.24254l0.46709-0.41224q0.0626-0.0566 0.0926-0.11055 0.03-0.054 0.03-0.11227 0-0.09-0.0608-0.14484-0.06-0.0548-0.16026-0.0548-0.0771 0-0.16884 0.0334-0.0917 0.0326-0.19626 0.0977v-0.2811q0.11142-0.0369 0.22026-0.0557 0.10884-0.0197 0.2134-0.0197 0.22969 0 0.35653 0.10113 0.12769 0.10113 0.12769 0.28196 0 0.10456-0.054 0.1954-0.054 0.09-0.22711 0.24169l-0.2734 0.23997z"/><path d="m244.09 395.25h0.82018v0.24254h-0.55707v0.19797q0.0377-0.0103 0.0754-0.0154 0.0386-6e-3 0.0797-6e-3 0.23397 0 0.36424 0.11741 0.13026 0.11656 0.13026 0.32567 0 0.2074-0.14226 0.32482-0.14141 0.11741-0.39338 0.11741-0.10884 0-0.21597-0.0214-0.10628-0.0206-0.21169-0.0634v-0.25968q0.10456 0.06 0.19797 0.09 0.0943 0.03 0.17741 0.03 0.11998 0 0.18855-0.0583 0.0694-0.0591 0.0694-0.15941 0-0.10113-0.0694-0.15941-0.0686-0.0583-0.18855-0.0583-0.0711 0-0.15169 0.0188-0.0806 0.018-0.17313 0.0566v-0.7199z"/></g></g></g><g transform="translate(1.4389 -1.5267)"><path d="m380.22 21.289h7.2272c0.0494 0 0.0891 0.0194 0.0891 0.0435v3.6632c0 0.0241-0.0396 0.0435-0.0891 0.0435h-7.2272c-0.0494 0-0.089-0.0194-0.089-0.0435v-3.6632c0-0.0241 0.0396-0.0435 0.089-0.0435z" stroke-width="1.8808"/><g transform="matrix(1.8786 0 0 1.8829 -110.82 -693.73)"><g transform="scale(1.0397 .96177)" fill="#fff"><path d="m252.52 396.27h0.56307v0.24254h-0.92988v-0.24254l0.46708-0.41223q0.0626-0.0566 0.0926-0.11056 0.03-0.054 0.03-0.11227 0-0.09-0.0609-0.14484-0.06-0.0548-0.16026-0.0548-0.0771 0-0.16884 0.0334-0.0917 0.0326-0.19626 0.0977v-0.28111q0.11141-0.0368 0.22026-0.0557 0.10884-0.0197 0.2134-0.0197 0.22968 0 0.35652 0.10113 0.1277 0.10113 0.1277 0.28197 0 0.10456-0.054 0.1954-0.054 0.09-0.22712 0.24168l-0.27339 0.23997z"/><path d="m253.87 395.88q-0.0866 0-0.13027 0.0566-0.0428 0.0557-0.0428 0.16797t0.0428 0.16884q0.0437 0.0557 0.13027 0.0557 0.0874 0 0.13027-0.0557 0.0437-0.0566 0.0437-0.16884 0-0.11227-0.0437-0.16797-0.0429-0.0566-0.13027-0.0566zm0.40794-0.61449v0.23654q-0.0814-0.0386-0.1534-0.0566-0.072-0.0189-0.14056-0.0189-0.14741 0-0.22968 0.0823-0.0823 0.0814-0.096 0.24254 0.0566-0.042 0.12256-0.0626 0.066-0.0214 0.14398-0.0214 0.19626 0 0.31624 0.11484 0.12084 0.11484 0.12084 0.30082 0 0.20569-0.13455 0.32996-0.13455 0.12341-0.36081 0.12341-0.2494 0-0.38652-0.16798-0.13627-0.16884-0.13627-0.47822 0-0.31711 0.15941-0.49794 0.16026-0.18169 0.4388-0.18169 0.0883 0 0.1714 0.0137t0.16455 0.0411z"/></g></g></g><g transform="matrix(1.8786 0 0 1.8829 -105.13 -706.28)"><g transform="matrix(0,-1.3729,1.3727,0,43.123,1033.3)"><rect x="464.5" y="172.59" width="4" height="5.6"/></g><g transform="matrix(0,-1.3729,1.3727,0,43.123,1033.3)"><polygon points="468.3 172.79 464.7 172.79 464.7 174.19 464.9 174.19 464.9 176.79 464.7 176.79 464.7 177.99 468.3 177.99" fill="none" stroke="#ccc" stroke-width=".1"/></g></g><rect x="421.15" y="24.621" width="3.1606" height="2.4221" rx=".16208" ry=".079263" fill="#e6e6e6" stroke="#000" stroke-width=".39955"/><rect x="432.03" y="24.621" width="3.1606" height="2.4221" rx=".16208" ry=".079263" fill="#e6e6e6" stroke="#000" stroke-width=".39955"/><g transform="translate(-.98597 4.4362)"><path d="m421.33-0.57184h7.2272c0.0494 0 0.089 0.019395 0.089 0.043497v3.6632c0 0.024102-0.0396 0.043497-0.089 0.043497h-7.2272c-0.0494 0-0.0891-0.019395-0.0891-0.043497v-3.6632c0-0.024102 0.0396-0.043497 0.0891-0.043497z" stroke-width="1.8808"/><g fill="#fff"><path d="m422.26 2.007h1.0999v0.43924h-1.8163v-0.43924l0.91234-0.74655q0.12227-0.1025 0.18087-0.20021 0.0586-0.097795 0.0586-0.20334 0-0.16299-0.11876-0.26229-0.1172-0.099244-0.31303-0.099244-0.1506 0-0.3298 0.060488-0.17911 0.059039-0.38335 0.17694v-0.50909q0.21764-0.066645 0.43023-0.10087 0.2126-0.035677 0.41683-0.035677 0.44865 0 0.69641 0.18315 0.24941 0.18315 0.24941 0.51063 0 0.18936-0.10547 0.35387-0.10548 0.16299-0.44361 0.4377l-0.53403 0.43457z" stroke-width="1.8808"/><path d="m426.07 0.12355h2.3035v0.45165h-0.82864v1.8657h-0.6445v-1.8657h-0.83032v-0.45165z" stroke-width="1.8808"/><path d="m424.83 1.4049q-0.18086 0-0.27788 0.09163-0.0971 0.09163-0.0971 0.26229 0 0.17077 0.0971 0.26228 0.0971 0.09 0.27788 0.09 0.1791 0 0.27452-0.09 0.0953-0.09163 0.0953-0.26228 0-0.17222-0.0953-0.26229-0.0955-0.09163-0.27452-0.09163zm-0.47038-0.1971q-0.22764-0.06356-0.34315-0.19556-0.11543-0.13184-0.11543-0.32903 0-0.29333 0.23602-0.44697 0.23602-0.15375 0.693-0.15375 0.45362 0 0.68966 0.15375 0.23602 0.15212 0.23602 0.44697 0 0.19712-0.11719 0.32903-0.11543 0.13202-0.34315 0.19556 0.25444 0.06519 0.38333 0.21262 0.13047 0.14596 0.13047 0.36939 0 0.34454-0.24774 0.52147-0.24606 0.1753-0.7315 0.1753-0.48712 0-0.73654-0.1753-0.24774-0.17693-0.24774-0.52147 0-0.2235 0.12891-0.36939 0.13047-0.14741 0.38501-0.21262zm0.15059-0.46405q0 0.13817 0.082 0.21262 0.0838 0.07443 0.2377 0.07443 0.15059 0 0.23268-0.07443 0.082-0.07443 0.082-0.21262 0-0.13817-0.082-0.21108-0.082-0.07443-0.23268-0.07443-0.15391 0-0.2377 0.07443-0.082 0.07443-0.082 0.21108z" stroke-width="1.8807"/></g></g><g transform="translate(-.032105 4.2662)"><path d="m402.54-0.40185h7.2272c0.0494 0 0.089 0.019395 0.089 0.043497v3.6632c0 0.024102-0.0396 0.043497-0.089 0.043497h-7.2272c-0.0494 0-0.0891-0.019395-0.0891-0.043497v-3.6632c0-0.024102 0.0396-0.043497 0.0891-0.043497z" stroke-width="1.8808"/><g fill="#fff"><path d="m403.48 2.177h1.0999v0.43924h-1.8163v-0.43924l0.91234-0.74655q0.12227-0.1025 0.18087-0.20021 0.0586-0.097795 0.0586-0.20334 0-0.16299-0.11876-0.26229-0.1172-0.099244-0.31303-0.099244-0.1506 0-0.3298 0.060488-0.17911 0.059039-0.38335 0.17694v-0.50909q0.21764-0.066645 0.43023-0.10087 0.2126-0.035677 0.41683-0.035677 0.44865 0 0.69641 0.18315 0.24941 0.18315 0.24941 0.51063 0 0.18936-0.10547 0.35387-0.10548 0.16299-0.44361 0.4377l-0.53403 0.43457z" stroke-width="1.8808"/><path d="m407.29 0.29354h2.3035v0.45165h-0.82864v1.8657h-0.6445v-1.8657h-0.83032v-0.45165z" stroke-width="1.8808"/><path d="m405.1 0.29588h1.8832v0.3368l-0.97421 1.9804h-0.62773l0.92234-1.8779h-1.2036v-0.43922z" stroke-width="1.8807"/></g></g><g transform="translate(-16.851 23.894)"><path d="m441.4-0.40185h7.2272c0.0494 0 0.089 0.019395 0.089 0.043497v3.6632c0 0.024102-0.0396 0.043497-0.089 0.043497h-7.2272c-0.0494 0-0.089-0.019395-0.089-0.043497v-3.6632c0-0.024102 0.0396-0.043497 0.089-0.043497z" stroke-width="1.8808"/><g fill="#fff"><path d="m442.28 2.177h1.0998v0.43924h-1.8163v-0.43924l0.91236-0.74655q0.12227-0.1025 0.18087-0.20021 0.0586-0.097795 0.0586-0.20334 0-0.16299-0.11876-0.26229-0.1172-0.099244-0.31303-0.099244-0.1506 0-0.32979 0.060488-0.17912 0.059039-0.38336 0.17694v-0.50909q0.21764-0.066645 0.43023-0.10087 0.2126-0.035677 0.41684-0.035677 0.44863 0 0.6964 0.18315 0.24941 0.18315 0.24941 0.51063 0 0.18936-0.10547 0.35387-0.10548 0.16299-0.44361 0.4377l-0.53403 0.43457z" stroke-width="1.8808"/><path d="m448.1 0.36598v0.49046q-0.2059-0.085299-0.40177-0.12876-0.19586-0.043464-0.36995-0.043464-0.23102 0-0.34152 0.059039-0.11055 0.059039-0.11055 0.18313 0 0.093086 0.0736 0.14597 0.0754 0.051252 0.27119 0.088377l0.27454 0.051252q0.41683 0.077511 0.5926 0.23592 0.1758 0.15828 0.1758 0.45011 0 0.38336-0.24608 0.57116-0.24441 0.18626-0.7483 0.18626-0.23771 0-0.47709-0.041834-0.23939-0.041834-0.47877-0.12424v-0.50444q0.23938 0.1179 0.46203 0.17857 0.22432 0.059039 0.43189 0.059039 0.21094 0 0.32309-0.065196 0.11212-0.065196 0.11212-0.18624 0-0.10866-0.077-0.1677-0.0754-0.059039-0.30301-0.10558l-0.24941-0.051252q-0.375-0.074433-0.54909-0.23748-0.17248-0.16299-0.17248-0.43924 0-0.34612 0.24106-0.53237 0.24105-0.18624 0.69304-0.18624 0.2059 0 0.42353 0.02952 0.21762 0.02789 0.45031 0.085299z" stroke-width="1.8808"/><path d="m444.85 1.5749q-0.18086 0-0.27788 0.09163-0.0971 0.09163-0.0971 0.26229 0 0.17077 0.0971 0.26228 0.0971 0.09 0.27788 0.09 0.1791 0 0.27452-0.09 0.0953-0.09163 0.0953-0.26228 0-0.17222-0.0953-0.26229-0.0955-0.09163-0.27452-0.09163zm-0.47038-0.1971q-0.22764-0.06356-0.34315-0.19556-0.11543-0.13184-0.11543-0.32903 0-0.29333 0.23602-0.44697 0.23602-0.15375 0.693-0.15375 0.45362 0 0.68966 0.15375 0.23602 0.15212 0.23602 0.44697 0 0.19712-0.11719 0.32903-0.11543 0.13202-0.34315 0.19556 0.25444 0.06519 0.38333 0.21262 0.13047 0.14596 0.13047 0.36939 0 0.34454-0.24774 0.52147-0.24606 0.1753-0.7315 0.1753-0.48712 0-0.73654-0.1753-0.24774-0.17693-0.24774-0.52147 0-0.2235 0.12891-0.36939 0.13047-0.14741 0.38501-0.21262zm0.15059-0.46405q0 0.13817 0.082 0.21262 0.0838 0.07443 0.2377 0.07443 0.15059 0 0.23268-0.07443 0.082-0.07443 0.082-0.21262 0-0.13817-0.082-0.21108-0.082-0.07443-0.23268-0.07443-0.15391 0-0.2377 0.07443-0.082 0.07443-0.082 0.21108z" stroke-width="1.8807"/></g></g><g transform="translate(-2.5603 1.7629)"><path d="m409.35 21.729h7.2272c0.0494 0 0.089 0.01939 0.089 0.0435v3.6632c0 0.0241-0.0396 0.0435-0.089 0.0435h-7.2272c-0.0494 0-0.089-0.0194-0.089-0.0435v-3.6632c0-0.0241 0.0396-0.0435 0.089-0.0435z" stroke-width="1.8808"/><g fill="#fff"><path d="m410.23 24.308h1.0998v0.43924h-1.8163v-0.43924l0.91236-0.74655q0.12227-0.1025 0.18087-0.20021 0.0586-0.0978 0.0586-0.20334 0-0.16299-0.11876-0.26229-0.1172-0.09924-0.31303-0.09924-0.1506 0-0.32979 0.06049-0.17912 0.05904-0.38336 0.17694v-0.50909q0.21764-0.06665 0.43023-0.10087 0.2126-0.03568 0.41684-0.03568 0.44863 0 0.6964 0.18315 0.24941 0.18315 0.24941 0.51063 0 0.18936-0.10547 0.35387-0.10548 0.16299-0.44361 0.4377l-0.53403 0.43457z" stroke-width="1.8808"/><path d="m416.05 22.497v0.49046q-0.2059-0.0853-0.40177-0.12876-0.19586-0.04346-0.36995-0.04346-0.23102 0-0.34152 0.05904-0.11055 0.05904-0.11055 0.18313 0 0.09309 0.0736 0.14597 0.0754 0.05125 0.27119 0.08838l0.27454 0.05125q0.41683 0.07751 0.5926 0.23592 0.1758 0.15828 0.1758 0.45011 0 0.38336-0.24608 0.57116-0.24441 0.18626-0.7483 0.18626-0.23771 0-0.47709-0.04183-0.23939-0.04183-0.47877-0.12424v-0.50444q0.23938 0.1179 0.46203 0.17857 0.22432 0.05904 0.43189 0.05904 0.21094 0 0.32309-0.0652 0.11212-0.0652 0.11212-0.18624 0-0.10866-0.077-0.1677-0.0754-0.05904-0.30301-0.10558l-0.24941-0.05125q-0.375-0.07443-0.54909-0.23748-0.17248-0.16299-0.17248-0.43924 0-0.34612 0.24106-0.53237 0.24105-0.18624 0.69304-0.18624 0.2059 0 0.42353 0.02952 0.21762 0.02789 0.45031 0.0853z" stroke-width="1.8808"/><path d="m411.85 22.427h1.8832v0.3368l-0.97421 1.9804h-0.62773l0.92234-1.8779h-1.2036v-0.43922z" stroke-width="1.8807"/></g></g></svg>
