<svg width="472.53" height="47.467" version="1.1" viewBox="70.4 401.066666667 250.958144 15.4055701333" xmlns="http://www.w3.org/2000/svg">
 <g transform="matrix(1.2159 0 0 1.1254 -10.321 -27.424)">
  <rect x="66.589" y="376.59" width="206" height="22" fill="#4d4d4d"/>
  <rect x="66.589" y="376.59" width="206" height="22" fill="none" stroke="#000" stroke-width=".4"/>
 </g>
 <rect transform="scale(1.0667)" x="77.627" y="372.04" width="222.96" height="22.367" rx=".68393" ry=".63304" fill="#e7e7e7"/>
 <rect transform="scale(1.0667)" x="77.627" y="372.04" width="222.96" height="22.367" rx=".68393" ry=".63304" fill="none" stroke="#e7e7e7" stroke-linejoin="round" stroke-width=".21933"/>
 <rect transform="scale(1.0667)" x="78.238" y="372.65" width="19.829" height="7.4199" rx=".32227" ry=".424" fill="#1e90ff"/>
 <g transform="matrix(1.6223 0 0 1.7709 -38.487 -282.89)">
  <polygon points="70.389 395.79 69.989 395.79 69.989 395.19 68.589 395.19 68.589 392.59 73.389 392.59 73.389 395.19 71.989 395.19 71.989 395.79 71.589 395.79 71.589 396.19 70.389 396.19"/>
  <polygon points="70.389 395.79 69.989 395.79 69.989 395.19 68.589 395.19 68.589 392.59 73.389 392.59 73.389 395.19 71.989 395.19 71.989 395.79 71.589 395.79 71.589 396.19 70.389 396.19" fill="none" stroke="#7f7f7f" stroke-width=".2"/>
 </g>
 <g>
  <rect transform="scale(1.0667)" x="70.371" y="379.34" width="6.1054" height="1.1333" rx=".31642" ry=".1544" fill="#00ff1f"/>
  <rect transform="scale(1.0667)" x="70.371" y="381.39" width="6.1054" height="1.1333" rx=".31642" ry=".1544" fill="#838383"/>
  <ellipse transform="scale(1.0667)" cx="73.401" cy="384.34" rx=".76392" ry=".76344" fill="#838383"/>
 </g>
 <path transform="scale(1.0667)" d="m77.267 394.61-0.0041-22.787" fill="none" stroke="#333" stroke-linejoin="round" stroke-width=".53109"/>
 <g transform="scale(1.1087 1.0262)" fill="#fff">
  <path d="m75.799 391.15h0.48045q0.21428 0 0.32857 0.0955 0.11504 0.0947 0.11504 0.27067 0 0.17669-0.11504 0.27218-0.11428 0.0947-0.32857 0.0947h-0.19098v0.38947h-0.28947v-1.1226zm0.28947 0.20977v0.31353h0.16015q0.08421 0 0.13007-0.0406 0.04586-0.0414 0.04586-0.11654 0-0.0752-0.04586-0.11579-0.04586-0.0406-0.13007-0.0406h-0.16015z"/>
  <path d="m77.316 391.61q-0.08947 0-0.13684 0.0647-0.04662 0.0639-0.04662 0.18496 0 0.12105 0.04662 0.18571 0.04737 0.0639 0.13684 0.0639 0.08797 0 0.13458-0.0639 0.04662-0.0647 0.04662-0.18571 0-0.12105-0.04662-0.18496-0.04662-0.0647-0.13458-0.0647zm0-0.19248q0.21729 0 0.3391 0.11729 0.12256 0.11729 0.12256 0.32481t-0.12256 0.32481q-0.1218 0.11729-0.3391 0.11729-0.21804 0-0.34135-0.11729-0.12256-0.11729-0.12256-0.32481t0.12256-0.32481q0.12331-0.11729 0.34135-0.11729z"/>
  <path d="m77.986 391.15h0.7812v0.21879h-0.49172v0.20903h0.4624v0.21879h-0.4624v0.25714h0.50827v0.2188h-0.79774v-1.1226z"/>
  <path d="m80.355 391.19v0.23759q-0.09248-0.0414-0.18045-0.0624-0.08797-0.0211-0.16616-0.0211-0.10376 0-0.15338 0.0286-0.04962 0.0286-0.04962 0.0887 0 0.0451 0.03308 0.0707 0.03383 0.0248 0.1218 0.0429l0.12331 0.0248q0.18722 0.0376 0.26616 0.11428 0.07895 0.0767 0.07895 0.21805 0 0.18571-0.11052 0.27669-0.10977 0.0902-0.33609 0.0902-0.10677 0-0.21428-0.0203t-0.21504-0.0602v-0.24436q0.10752 0.0571 0.20752 0.0865 0.10075 0.0286 0.19398 0.0286 0.09474 0 0.14511-0.0316 0.05037-0.0316 0.05037-0.0902 0-0.0526-0.03459-0.0812-0.03383-0.0286-0.13609-0.0511l-0.11203-0.0248q-0.16842-0.0361-0.24661-0.11503-0.07744-0.079-0.07744-0.21278 0-0.16767 0.10827-0.2579 0.10827-0.0902 0.31128-0.0902 0.09248 0 0.19022 0.0143 0.09774 0.0135 0.20225 0.0414z"/>
  <path d="m80.596 391.44h0.26165l0.14135 0.58044 0.1421-0.58044h0.22481l0.14135 0.57443 0.1421-0.57443h0.26165l-0.2218 0.8421h-0.29398l-0.1421-0.57895-0.14135 0.57895h-0.29398l-0.2218-0.8421z"/>
  <path d="m82.094 391.44h0.26917v0.8421h-0.26917v-0.8421zm0-0.32782h0.26917v0.21955h-0.26917v-0.21955z"/>
  <path d="m82.917 391.2v0.2391h0.27744v0.19248h-0.27744v0.35714q0 0.0586 0.02331 0.0797 0.02331 0.0203 0.09248 0.0203h0.13834v0.19248h-0.23082q-0.1594 0-0.22631-0.0662-0.06617-0.0669-0.06617-0.22631v-0.35714h-0.13383v-0.19248h0.13383v-0.2391h0.26917z"/>
  <path d="m84.041 391.46v0.21955q-0.05489-0.0376-0.11053-0.0556-0.05489-0.018-0.11428-0.018-0.11278 0-0.17594 0.0662-0.0624 0.0654-0.0624 0.18346 0 0.11804 0.0624 0.18421 0.06316 0.0654 0.17594 0.0654 0.06316 0 0.11955-0.0188 0.05714-0.0188 0.10526-0.0556v0.22029q-0.06316 0.0233-0.12857 0.0346-0.06466 0.012-0.13007 0.012-0.22782 0-0.35639-0.11654-0.12857-0.11729-0.12857-0.32556t0.12857-0.32481q0.12857-0.11729 0.35639-0.11729 0.06616 0 0.13007 0.012 0.06466 0.0113 0.12857 0.0346z"/>
  <path d="m85.121 391.76v0.51278h-0.27067v-0.0835-0.30752q0-0.11052-0.0053-0.15188-0.0045-0.0414-0.01654-0.0609-0.01579-0.0263-0.04286-0.0406-0.02707-0.015-0.06165-0.015-0.08421 0-0.13233 0.0654-0.04812 0.0647-0.04812 0.17969v0.41429h-0.26917v-1.1699h0.26917v0.45113q0.0609-0.0737 0.12932-0.10827 0.06842-0.0353 0.15113-0.0353 0.14586 0 0.22105 0.0895 0.07594 0.0895 0.07594 0.26015z"/>
 </g>
 <g transform="matrix(.009988 0 0 .009988 97.081 397.53)">
  <path d="m140.67 377.74h516.56c0.0674 0 0.12168 0.0244 0.12168 0.0548v315.04c0 0.0303-0.0543 0.0548-0.12168 0.0548h-516.56c-0.0674 0-0.12168-0.0244-0.12168-0.0548v-315.04c0-0.0303 0.0543-0.0548 0.12168-0.0548z" fill="#ff0" stroke="#ff0" stroke-linejoin="round" stroke-width="85.598"/>
  <path d="m311.33 637.13h169.3v72.062l203.74-175.44-203.74-172.33v72.062h-169.3l188.08 72.062v-28.202l94.083 56.404-94.083 56.404v-25.088c-1.0798-1.9134-188.08 72.062-188.08 72.062z" stroke="#000"/>
  <g stroke-width="1px">
   <path d="m120.1 493.56h35.066q15.64 0 23.981 6.9692 8.396 6.9143 8.396 19.755 0 12.896-8.396 19.865-8.3411 6.9143-23.981 6.9143h-13.938v28.426h-21.127v-81.929zm21.127 15.31v22.883h11.689q6.1461 0 9.4935-2.9633 3.3474-3.0182 3.3474-8.5057 0-5.4876-3.3474-8.4508-3.3474-2.9633-9.4935-2.9633h-11.689z"/>
   <path d="m229.66 526.59q-6.5302 0-9.9874 4.7193-3.4023 4.6644-3.4023 13.499 0 8.835 3.4023 13.554 3.4572 4.6644 9.9874 4.6644 6.4204 0 9.8227-4.6644 3.4023-4.7193 3.4023-13.554 0-8.835-3.4023-13.499-3.4023-4.7193-9.8227-4.7193zm0-14.048q15.859 0 24.749 8.5606 8.9447 8.5606 8.9447 23.706 0 15.146-8.9447 23.706-8.8898 8.5606-24.749 8.5606-15.914 0-24.914-8.5606-8.9447-8.5606-8.9447-23.706 0-15.146 8.9447-23.706 8.9996-8.5606 24.914-8.5606z"/>
   <path d="m277.43 493.56h57.016v15.969h-35.889v15.255h33.749v15.969h-33.749v18.767h37.096v15.969h-58.223v-81.929z"/>
  </g>
 </g>
 <g>
  <ellipse transform="scale(1.0667)" cx="83.627" cy="387.65" rx=".76392" ry=".76344"/>
  <circle transform="scale(1.0667)" cx="81.048" cy="392.51" r=".38838"/>
  <circle transform="scale(1.0667)" cx="86.207" cy="392.51" r=".38838"/>
 </g>
 <g transform="matrix(1.0667 0 0 1.0667 -8.6881 -12.86)">
  <rect x="95.462" y="396.24" width="3.3193" height="1.9916" rx=".089249" ry=".043549"/>
  <g fill="#0f0" stroke-width="1px">
   <path d="m96.52 397.61h-0.47876l-0.07555 0.21632h-0.30778l0.43979-1.1874h0.36504l0.43979 1.1874h-0.30778l-0.07476-0.21632zm-0.40241-0.22029h0.32527l-0.16224-0.4724-0.16303 0.4724z"/>
   <path d="m97.75 396.96v0.23222q-0.05805-0.0398-0.11691-0.0589-0.05806-0.0191-0.12088-0.0191-0.11929 0-0.1861 0.07-0.06601 0.0692-0.06601 0.19405 0 0.12486 0.06601 0.19484 0.0668 0.0692 0.1861 0.0692 0.0668 0 0.12645-0.0199 0.06044-0.0199 0.11134-0.0589v0.23302q-0.0668 0.0247-0.13599 0.0366-0.0684 0.0127-0.13758 0.0127-0.24097 0-0.37696-0.12327-0.13599-0.12406-0.13599-0.34435 0-0.2203 0.13599-0.34357 0.13599-0.12406 0.37696-0.12406 0.06999 0 0.13758 0.0127 0.06839 0.0119 0.13599 0.0366z"/>
   <path d="m98.292 396.68v0.2529h0.29346v0.2036h-0.29346v0.37775q0 0.062 0.02465 0.0843 0.02465 0.0215 0.09782 0.0215h0.14633v0.20359h-0.24415q-0.1686 0-0.23938-0.07-0.06999-0.0708-0.06999-0.23939v-0.37775h-0.14156v-0.2036h0.14156v-0.2529h0.28471z"/>
  </g>
 </g>
 <g transform="matrix(1.0667 0 0 1.0667 -4.3319 1.7606)">
  <rect x="91.461" y="384.9" width="3.3193" height="1.9916" rx=".089249" ry=".043549"/>
  <g fill="#666" stroke-width="1px">
   <path d="m91.636 385.3h0.8263v0.23143h-0.52012v0.22108h0.4891v0.23143h-0.4891v0.50342h-0.30618v-1.1874z"/>
   <path d="m92.87 385.53v0.7245h0.10975q0.18769 0 0.2863-0.0931 0.09941-0.0931 0.09941-0.2704 0-0.17655-0.09861-0.2688-0.09862-0.0922-0.2871-0.0922h-0.10975zm-0.30618-0.23143h0.32288q0.2704 0 0.40241 0.039 0.13281 0.0382 0.22745 0.13042 0.08351 0.0803 0.12406 0.1853 0.04056 0.10498 0.04056 0.23779 0 0.13441-0.04056 0.24018-0.04056 0.10498-0.12406 0.1853-0.09543 0.0923-0.22904 0.13122-0.13361 0.0382-0.40082 0.0382h-0.32288v-1.1874z"/>
   <path d="m93.942 386.03-0.3213-0.43502h0.30141l0.18212 0.26403 0.18451-0.26403h0.30141l-0.32129 0.43343 0.3372 0.45729h-0.30141l-0.20041-0.28153-0.19803 0.28153h-0.30141l0.3372-0.4557z"/>
  </g>
 </g>
 <g transform="matrix(1.0667 0 0 1.0667 -4.3319 1.7606)">
  <rect x="91.467" y="387.41" width="3.3193" height="1.9916" rx=".089249" ry=".043549"/>
  <g fill="#4d4d4d" stroke-width="1px">
   <path d="m92.545 387.71v0.25131q-0.09782-0.0437-0.19087-0.066-0.09305-0.0223-0.17576-0.0223-0.10975 0-0.16224 0.0302-0.05249 0.0302-0.05249 0.0938 0 0.0477 0.03499 0.0748 0.03579 0.0262 0.12884 0.0453l0.13043 0.0263q0.19803 0.0398 0.28153 0.12088 0.08351 0.0811 0.08351 0.23063 0 0.19644-0.11691 0.29267-0.11611 0.0954-0.35549 0.0954-0.11293 0-0.22666-0.0215t-0.22745-0.0636v-0.25846q0.11372 0.0604 0.2195 0.0914 0.10657 0.0302 0.20518 0.0302 0.10021 0 0.15349-0.0334 0.05328-0.0334 0.05328-0.0954 0-0.0557-0.03658-0.0859-0.03579-0.0302-0.14395-0.0541l-0.1185-0.0262q-0.17814-0.0382-0.26085-0.12168-0.08191-0.0835-0.08191-0.22507 0-0.17735 0.11452-0.27278 0.11452-0.0954 0.32925-0.0954 0.09782 0 0.20121 0.0151 0.10339 0.0143 0.21393 0.0437z"/>
   <path d="m92.979 388.73v0.46763h-0.28471v-1.2295h0.28471v0.13043q0.05885-0.0779 0.13043-0.11453 0.07158-0.0374 0.16462-0.0374 0.16462 0 0.2704 0.13122 0.10577 0.13042 0.10577 0.3364t-0.10577 0.3372q-0.10577 0.13043-0.2704 0.13043-0.09305 0-0.16462-0.0366-0.07158-0.0374-0.13043-0.11532zm0.18928-0.57658q-0.09146 0-0.14077 0.0676-0.04851 0.0668-0.04851 0.19325t0.04851 0.19405q0.04931 0.0668 0.14077 0.0668 0.09146 0 0.13917-0.0668 0.04851-0.0668 0.04851-0.19405 0-0.12724-0.04851-0.19405-0.04772-0.0668-0.13917-0.0668z"/>
   <path d="m94.282 388.1v-0.47718h0.2863v1.2375h-0.2863v-0.12884q-0.05885 0.0787-0.12963 0.11532-0.07078 0.0366-0.16383 0.0366-0.16462 0-0.2704-0.13043-0.10577-0.13122-0.10577-0.3372t0.10577-0.3364q0.10577-0.13122 0.2704-0.13122 0.09225 0 0.16303 0.0374 0.07157 0.0366 0.13043 0.11453zm-0.18769 0.57658q0.09146 0 0.13918-0.0668 0.04851-0.0668 0.04851-0.19405 0-0.12724-0.04851-0.19405-0.04772-0.0668-0.13918-0.0668-0.09066 0-0.13918 0.0668-0.04772 0.0668-0.04772 0.19405t0.04772 0.19405q0.04851 0.0668 0.13918 0.0668z"/>
  </g>
 </g>
 <g>
  <path transform="scale(1.0667)" d="m86.677 391.17h-3.0628v-1.6428" fill="none" stroke="#000" stroke-width=".15933"/>
  <path transform="scale(1.0667)" d="m86.677 384.07h-3.0687v1.6491" fill="none" stroke="#000" stroke-width=".14759"/>
  <rect transform="scale(1.0667)" x="68.136" y="372.58" width="7.6112" height="4.5534" rx=".16805" ry=".081999" fill="#e6e6e6" stroke="#333" stroke-linejoin="round" stroke-width=".2125"/>
 </g>
 <g transform="matrix(1.0667 0 0 1.0667 .348 -.48144)">
  <path d="m71.657 377.52c-0.02159 0-0.04309-4.1e-4 -0.06454-7.9e-4l0.44389-1.2199h0.61088c0.10722 0 0.22493-0.0824 0.2616-0.18314l0.48159-1.3228c0.07878-0.21657-0.04526-0.39375-0.27571-0.39375h-0.84749l-0.71109 1.954h-2.03e-4l-0.40312 1.1077c-0.9564-0.22738-1.6678-1.0871-1.6678-2.1131 0-0.99637 0.67093-1.836 1.5856-2.0919l-0.41595 1.1433h-1.14e-4l-0.6915 1.8997 0.46033 4e-5 0.58807-1.6142h0.34596l-0.58807 1.6142 0.46016 8e-5 0.54802-1.506c0.07884-0.21657-0.04522-0.39375-0.27546-0.39375h-0.38696l0.44432-1.2212c0.03239-2e-3 0.0649-2e-3 0.09762-2e-3 1.1996 0 2.172 0.97244 2.172 2.172 0 1.1996-0.97245 2.172-2.172 2.172zm1.3142-2.8363h-0.34587l-0.48435 1.329h0.34588l0.48434-1.329z"/>
 </g>
 <g transform="matrix(.66984 0 0 1.1282 182.18 -56.228)" fill="#4d4d4d">
  <rect x="111.71" y="401.38" width="55.28" height="21.556" fill="#4d4d4d"/>
 </g>
 <rect transform="scale(1.0667)" x="196.51" y="371.92" width="26.458" height="1.46" fill="#f9ff00"/>
 <g transform="matrix(1.0667 0 0 1.0667 -1.8026 -21.617)">
  <rect x="260.32" y="396.34" width="15.245" height="14.297" rx=".16873" ry=".074248"/>
  <rect x="260.51" y="396.43" width="14.869" height="14.109" fill="#ebebeb"/>
  <g transform="translate(76.308 20.361)">
   <g transform="matrix(0 -1.3729 1.3727 0 -52.675 1019.4)">
    <rect x="464.5" y="172.66" width="3.9658" height="10.644"/>
    <polygon points="468.3 172.79 464.7 172.79 464.7 174.19 464.9 174.19 464.9 176.79 464.7 176.79 464.7 177.99 468.3 177.99"/>
    <polygon points="468.3 172.79 464.7 172.79 464.7 174.19 464.9 174.19 464.9 176.79 464.7 176.79 464.7 177.99 468.3 177.99" fill="none" stroke="#ebebeb" stroke-width=".1"/>
   </g>
   <g transform="matrix(0 -1.3729 1.3727 0 -45.082 1019.4)">
    <polygon transform="translate(0 -.3204)" points="464.7 172.79 464.7 174.19 464.9 174.19 464.9 176.79 464.7 176.79 464.7 177.99 468.3 177.99 468.3 172.79" fill="none" stroke="#ebebeb" stroke-width=".1"/>
   </g>
  </g>
  <g transform="matrix(-1 0 0 -1 459.69 786.73)">
   <g transform="matrix(0 -1.3729 1.3727 0 -52.675 1019.4)">
    <rect x="464.5" y="172.66" width="3.9658" height="10.644"/>
    <polygon points="468.3 177.99 468.3 172.79 464.7 172.79 464.7 174.19 464.9 174.19 464.9 176.79 464.7 176.79 464.7 177.99"/>
    <polygon points="468.3 177.99 468.3 172.79 464.7 172.79 464.7 174.19 464.9 174.19 464.9 176.79 464.7 176.79 464.7 177.99" fill="none" stroke="#ebebeb" stroke-width=".1"/>
   </g>
   <g transform="matrix(0 -1.3729 1.3727 0 -45.082 1019.4)">
    <polygon transform="translate(0 -.3204)" points="468.3 172.79 464.7 172.79 464.7 174.19 464.9 174.19 464.9 176.79 464.7 176.79 464.7 177.99 468.3 177.99" fill="none" stroke="#ebebeb" stroke-width=".1"/>
   </g>
  </g>
  <g transform="translate(76.41 20.588)" fill="#008000" fill-rule="evenodd" stroke="#008000" stroke-linecap="round" stroke-linejoin="round" stroke-width=".098574">
   <g transform="translate(.27778 25.762)">
    <path d="m184.73 356.56h0.83713l-0.41857 1.267z"/>
    <path d="m190.67 357.83h-0.83713l0.41857-1.267z"/>
    <path d="m187.27 357.83h-0.83713l0.41857-1.267z"/>
    <path d="m188.13 356.56h0.83713l-0.41857 1.267z"/>
   </g>
   <g transform="translate(7.431 25.762)">
    <path d="m184.73 356.56h0.83713l-0.41857 1.267z"/>
    <path d="m190.67 357.83h-0.83713l0.41857-1.267z"/>
    <path d="m187.27 357.83h-0.83713l0.41857-1.267z"/>
    <path d="m188.13 356.56h0.83713l-0.41857 1.267z"/>
   </g>
  </g>
 </g>
 <g transform="matrix(1.0667 0 0 1.0667 -93.274 -6.6697)">
  <rect x="250.4" y="379.77" width="3.9417" height="1.9916" rx=".047399" ry=".023128"/>
  <g transform="scale(1.0397 .96177)">
   <path d="m242.28 396.3h0.29139v-0.82704l-0.29911 0.0617v-0.22455l0.29739-0.0617h0.31368v1.0516h0.29139v0.22797h-0.89474v-0.22797z" fill="#fff"/>
  </g>
 </g>
 <g transform="matrix(1.0667 0 0 1.0667 -85.056 -6.6697)">
  <rect x="250.4" y="379.77" width="3.9417" height="1.9916" rx=".047399" ry=".023128"/>
  <g transform="scale(1.0397 .96177)">
   <path d="m242.89 395.84q0.12941 0.0334 0.19626 0.11655 0.0677 0.0823 0.0677 0.20997 0 0.19027-0.14569 0.28968-0.1457 0.0986-0.42509 0.0986-0.0986 0-0.19798-0.0163-0.0985-0.0154-0.1954-0.0471v-0.25454q0.0926 0.0463 0.18341 0.0703 0.0917 0.0231 0.17997 0.0231 0.13113 0 0.20055-0.0454 0.0703-0.0454 0.0703-0.13026 0-0.0874-0.072-0.13199-0.0711-0.0454-0.21083-0.0454h-0.13198v-0.21254h0.13884q0.12427 0 0.18512-0.0386 0.0609-0.0394 0.0609-0.11913 0-0.0737-0.0591-0.11398-0.0591-0.0403-0.16712-0.0403-0.0797 0-0.16112 0.018-0.0814 0.018-0.16198 0.0531v-0.24168q0.0977-0.0274 0.19369-0.0411 0.096-0.0137 0.18855-0.0137 0.24939 0 0.37281 0.0823 0.12427 0.0814 0.12427 0.24597 0 0.11227-0.0591 0.18426-0.0591 0.0711-0.17483 0.10028z" fill="#fff"/>
  </g>
 </g>
 <g transform="matrix(1.0667 0 0 1.0667 -76.837 -6.6697)">
  <rect x="250.4" y="379.77" width="3.9417" height="1.9916" rx=".047399" ry=".023128"/>
  <g transform="scale(1.0397 .96177)">
   <path d="m242.26 395.25h0.82018v0.24254h-0.55707v0.19797q0.0377-0.0103 0.0754-0.0154 0.0386-6e-3 0.0797-6e-3 0.23397 0 0.36423 0.11741 0.13027 0.11656 0.13027 0.32567 0 0.2074-0.14226 0.32482-0.14141 0.11741-0.39338 0.11741-0.10884 0-0.21597-0.0214-0.10628-0.0206-0.21169-0.0634v-0.25968q0.10456 0.06 0.19797 0.09 0.0943 0.03 0.17741 0.03 0.11998 0 0.18855-0.0583 0.0694-0.0591 0.0694-0.15941 0-0.10113-0.0694-0.15941-0.0686-0.0583-0.18855-0.0583-0.0711 0-0.1517 0.0188-0.0806 0.018-0.17312 0.0566v-0.7199z" fill="#fff"/>
  </g>
 </g>
 <g transform="matrix(1.0667 0 0 1.0667 -68.619 -6.6697)">
  <rect x="250.4" y="379.77" width="3.9417" height="1.9916" rx=".047399" ry=".023128"/>
  <g transform="scale(1.0397 .96177)">
   <path d="m242.19 395.25h0.96416v0.18597l-0.49879 1.0936h-0.32139l0.47223-1.037h-0.61621v-0.24254z" fill="#fff"/>
  </g>
 </g>
 <g transform="matrix(1.0667 0 0 1.0667 -60.401 -6.6697)">
  <rect x="250.4" y="379.77" width="3.9417" height="1.9916" rx=".047399" ry=".023128"/>
  <g transform="scale(1.0397 .96177)">
   <path d="m242.25 396.5v-0.23654q0.0788 0.0369 0.15084 0.0557 0.072 0.018 0.14226 0.018 0.14741 0 0.22969-0.0814 0.0823-0.0823 0.0968-0.2434-0.0583 0.0428-0.12427 0.0643-0.066 0.0214-0.14312 0.0214-0.19626 0-0.3171-0.11399-0.11999-0.11484-0.11999-0.30167 0-0.20655 0.1337-0.33082 0.13455-0.12427 0.35995-0.12427 0.25026 0 0.38738 0.16884 0.13713 0.16883 0.13713 0.47736 0 0.31711-0.16027 0.4988-0.16026 0.18083-0.43965 0.18083-0.09 0-0.17227-0.0137-0.0823-0.0129-0.16112-0.0394zm0.40709-0.6162q0.0866 0 0.13027-0.0557 0.0437-0.0566 0.0437-0.16883 0-0.11142-0.0437-0.16798-0.0437-0.0566-0.13027-0.0566-0.0866 0-0.13027 0.0566-0.0437 0.0566-0.0437 0.16798 0 0.11227 0.0437 0.16883 0.0437 0.0557 0.13027 0.0557z" fill="#fff"/>
  </g>
 </g>
 <g transform="matrix(1.0667 0 0 1.0667 -52.183 -6.6697)">
  <rect x="250.4" y="379.77" width="3.9417" height="1.9916" rx=".047399" ry=".023128"/>
  <g transform="scale(1.0397 .96177)" fill="#fff">
   <path d="m241.67 396.3h0.29139v-0.82704l-0.2991 0.0617v-0.22455l0.29739-0.0617h0.31367v1.0516h0.29139v0.22797h-0.89474v-0.22797z"/>
   <path d="m242.89 396.3h0.29139v-0.82704l-0.2991 0.0617v-0.22455l0.29739-0.0617h0.31367v1.0516h0.29139v0.22797h-0.89474v-0.22797z"/>
  </g>
 </g>
 <g transform="matrix(1.0667 0 0 1.0667 -43.044 -6.6697)">
  <rect x="250.4" y="379.77" width="3.9417" height="1.9916" rx=".047399" ry=".023128"/>
  <g transform="scale(1.0397 .96177)" fill="#fff">
   <path d="m241.67 396.3h0.29139v-0.82704l-0.2991 0.0617v-0.22455l0.29739-0.0617h0.31367v1.0516h0.29139v0.22797h-0.89474v-0.22797z"/>
   <path d="m243.5 395.84q0.12942 0.0334 0.19626 0.11655 0.0677 0.0823 0.0677 0.20997 0 0.19027-0.1457 0.28968-0.14569 0.0986-0.42508 0.0986-0.0986 0-0.19798-0.0163-0.0986-0.0154-0.1954-0.0471v-0.25454q0.0926 0.0463 0.1834 0.0703 0.0917 0.0231 0.17998 0.0231 0.13113 0 0.20055-0.0454 0.0703-0.0454 0.0703-0.13026 0-0.0874-0.072-0.13199-0.0711-0.0454-0.21083-0.0454h-0.13198v-0.21254h0.13884q0.12427 0 0.18512-0.0386 0.0609-0.0394 0.0609-0.11913 0-0.0737-0.0591-0.11398-0.0591-0.0403-0.16712-0.0403-0.0797 0-0.16112 0.018-0.0814 0.018-0.16198 0.0531v-0.24168q0.0977-0.0274 0.19369-0.0411 0.096-0.0137 0.18854-0.0137 0.2494 0 0.37281 0.0823 0.12427 0.0814 0.12427 0.24597 0 0.11227-0.0591 0.18426-0.0591 0.0711-0.17484 0.10028z"/>
  </g>
 </g>
 <g transform="matrix(1.0667 0 0 1.0667 -34.826 -6.6697)">
  <rect x="250.4" y="379.77" width="3.9417" height="1.9916" rx=".047399" ry=".023128"/>
  <g transform="scale(1.0397 .96177)" fill="#fff">
   <path d="m241.67 396.3h0.29139v-0.82704l-0.2991 0.0617v-0.22455l0.29739-0.0617h0.31367v1.0516h0.29139v0.22797h-0.89474v-0.22797z"/>
   <path d="m242.87 395.25h0.82018v0.24254h-0.55707v0.19797q0.0377-0.0103 0.0754-0.0154 0.0386-6e-3 0.0797-6e-3 0.23397 0 0.36424 0.11741 0.13027 0.11656 0.13027 0.32567 0 0.2074-0.14227 0.32482-0.14141 0.11741-0.39337 0.11741-0.10885 0-0.21598-0.0214-0.10627-0.0206-0.21168-0.0634v-0.25968q0.10455 0.06 0.19797 0.09 0.0943 0.03 0.17741 0.03 0.11998 0 0.18854-0.0583 0.0694-0.0591 0.0694-0.15941 0-0.10113-0.0694-0.15941-0.0686-0.0583-0.18854-0.0583-0.0711 0-0.1517 0.0188-0.0806 0.018-0.17312 0.0566v-0.7199z"/>
  </g>
 </g>
 <g transform="matrix(1.0667 0 0 1.0667 -26.608 -6.6697)">
  <rect x="250.4" y="379.77" width="3.9417" height="1.9916" rx=".047399" ry=".023128"/>
  <g transform="scale(1.0397 .96177)" fill="#fff">
   <path d="m241.67 396.3h0.29139v-0.82704l-0.2991 0.0617v-0.22455l0.29739-0.0617h0.31367v1.0516h0.29139v0.22797h-0.89474v-0.22797z"/>
   <path d="m242.8 395.25h0.96416v0.18597l-0.49879 1.0936h-0.32139l0.47222-1.037h-0.6162v-0.24254z"/>
  </g>
 </g>
 <g transform="matrix(1.0667 0 0 1.0667 -18.39 -6.6697)">
  <rect x="250.4" y="379.77" width="3.9417" height="1.9916" rx=".047399" ry=".023128"/>
  <g transform="scale(1.0397 .96177)" fill="#fff">
   <path d="m241.67 396.3h0.29139v-0.82704l-0.2991 0.0617v-0.22455l0.29739-0.0617h0.31367v1.0516h0.29139v0.22797h-0.89474v-0.22797z"/>
   <path d="m242.86 396.5v-0.23654q0.0788 0.0369 0.15083 0.0557 0.072 0.018 0.14227 0.018 0.14741 0 0.22969-0.0814 0.0823-0.0823 0.0968-0.2434-0.0583 0.0428-0.12427 0.0643-0.066 0.0214-0.14312 0.0214-0.19626 0-0.31711-0.11399-0.11998-0.11484-0.11998-0.30167 0-0.20655 0.1337-0.33082 0.13455-0.12427 0.35995-0.12427 0.25025 0 0.38738 0.16884 0.13712 0.16883 0.13712 0.47736 0 0.31711-0.16026 0.4988-0.16027 0.18083-0.43966 0.18083-0.09 0-0.17226-0.0137-0.0823-0.0129-0.16112-0.0394zm0.40709-0.6162q0.0866 0 0.13027-0.0557 0.0437-0.0566 0.0437-0.16883 0-0.11142-0.0437-0.16798-0.0437-0.0566-0.13027-0.0566-0.0866 0-0.13027 0.0566-0.0437 0.0566-0.0437 0.16798 0 0.11227 0.0437 0.16883 0.0437 0.0557 0.13027 0.0557z"/>
  </g>
 </g>
 <g transform="matrix(1.0667 0 0 1.0667 -89.002 11.905)">
  <rect x="250.4" y="379.77" width="3.9417" height="1.9916" rx=".047399" ry=".023128"/>
  <g transform="scale(1.0397 .96177)">
   <path d="m242.58 396.29h0.56307v0.24254h-0.92988v-0.24254l0.46708-0.41224q0.0626-0.0566 0.0926-0.11055 0.03-0.054 0.03-0.11227 0-0.09-0.0608-0.14484-0.06-0.0548-0.16027-0.0548-0.0771 0-0.16883 0.0334-0.0917 0.0326-0.19626 0.0977v-0.2811q0.11141-0.0369 0.22025-0.0557 0.10885-0.0197 0.2134-0.0197 0.22969 0 0.35653 0.10113 0.1277 0.10113 0.1277 0.28196 0 0.10456-0.054 0.1954-0.054 0.09-0.22711 0.24169l-0.27339 0.23997z" fill="#fff"/>
  </g>
 </g>
 <g transform="matrix(1.0667 0 0 1.0667 -80.523 11.905)">
  <rect x="250.4" y="379.77" width="3.9417" height="1.9916" rx=".047399" ry=".023128"/>
  <g transform="scale(1.0397 .96177)">
   <path d="m242.72 395.52-0.36167 0.53564h0.36167v-0.53564zm-0.0549-0.27168h0.36681v0.80732h0.18255v0.23911h-0.18255v0.23312h-0.31196v-0.23312h-0.56735v-0.28282l0.5125-0.76361z" fill="#fff"/>
  </g>
 </g>
 <g transform="matrix(1.0667 0 0 1.0667 -72.458 11.905)">
  <rect x="250.4" y="379.77" width="3.9417" height="1.9916" rx=".047399" ry=".023128"/>
  <g transform="scale(1.0397 .96177)">
   <path d="m242.71 395.9q-0.0866 0-0.13027 0.0566-0.0428 0.0557-0.0428 0.16798 0 0.11227 0.0428 0.16883 0.0437 0.0557 0.13027 0.0557 0.0874 0 0.13027-0.0557 0.0437-0.0566 0.0437-0.16883 0-0.11228-0.0437-0.16798-0.0428-0.0566-0.13027-0.0566zm0.40795-0.61449v0.23654q-0.0814-0.0386-0.15341-0.0566-0.072-0.0189-0.14056-0.0189-0.14741 0-0.22968 0.0823-0.0823 0.0814-0.096 0.24254 0.0566-0.042 0.12256-0.0626 0.066-0.0214 0.14398-0.0214 0.19626 0 0.31624 0.11484 0.12085 0.11484 0.12085 0.30082 0 0.20569-0.13456 0.32996-0.13455 0.12341-0.36081 0.12341-0.2494 0-0.38652-0.16798-0.13627-0.16883-0.13627-0.47822 0-0.3171 0.15941-0.49794 0.16026-0.18169 0.4388-0.18169 0.0883 0 0.17141 0.0137 0.0831 0.0137 0.16455 0.0411z" fill="#fff"/>
  </g>
 </g>
 <g transform="matrix(1.0667 0 0 1.0667 -64.394 11.905)">
  <rect x="250.4" y="379.77" width="3.9417" height="1.9916" rx=".047399" ry=".023128"/>
  <g transform="scale(1.0397 .96177)">
   <path d="m242.69 395.96q-0.0926 0-0.14227 0.0506-0.0497 0.0506-0.0497 0.14484 0 0.0943 0.0497 0.14484 0.0497 0.0497 0.14227 0.0497 0.0917 0 0.14056-0.0497 0.0488-0.0506 0.0488-0.14484 0-0.0951-0.0488-0.14484-0.0489-0.0506-0.14056-0.0506zm-0.24082-0.10884q-0.11656-0.0351-0.1757-0.10799-0.0591-0.0729-0.0591-0.18169 0-0.16198 0.12084-0.24683 0.12084-0.0848 0.35481-0.0848 0.23226 0 0.3531 0.0848 0.12084 0.084 0.12084 0.24683 0 0.10884-0.06 0.18169-0.0591 0.0729-0.17569 0.10799 0.13027 0.036 0.19626 0.11741 0.0668 0.0806 0.0668 0.20397 0 0.19026-0.12684 0.28797-0.12599 0.0968-0.37453 0.0968-0.24939 0-0.37709-0.0968-0.12684-0.0977-0.12684-0.28797 0-0.12341 0.066-0.20397 0.0669-0.0814 0.19712-0.11741zm0.0771-0.25626q0 0.0763 0.042 0.11742 0.0429 0.0411 0.1217 0.0411 0.0771 0 0.11913-0.0411 0.042-0.0411 0.042-0.11742 0-0.0763-0.042-0.11655-0.042-0.0411-0.11913-0.0411-0.0788 0-0.1217 0.0411-0.042 0.0411-0.042 0.11655z" fill="#fff"/>
  </g>
 </g>
 <g transform="matrix(1.0667 0 0 1.0667 -56.329 11.905)">
  <rect x="250.4" y="379.77" width="3.9417" height="1.9916" rx=".047399" ry=".023128"/>
  <g transform="scale(1.0397 .96177)" fill="#fff">
   <path d="m241.67 396.3h0.29139v-0.82704l-0.2991 0.0617v-0.22455l0.29739-0.0617h0.31367v1.0516h0.29139v0.22797h-0.89474v-0.22797z"/>
   <path d="m243.49 395.89q0-0.23997-0.0454-0.33767-0.0446-0.0986-0.15084-0.0986-0.10627 0-0.1517 0.0986-0.0454 0.0977-0.0454 0.33767 0 0.24254 0.0454 0.34195 0.0454 0.0994 0.1517 0.0994 0.10541 0 0.15084-0.0994 0.0454-0.0994 0.0454-0.34195zm0.32996 3e-3q0 0.31796-0.13713 0.49108-0.13712 0.17226-0.38909 0.17226-0.25283 0-0.38995-0.17226-0.13713-0.17312-0.13713-0.49108 0-0.31882 0.13713-0.49108 0.13712-0.17312 0.38995-0.17312 0.25197 0 0.38909 0.17312 0.13713 0.17226 0.13713 0.49108z"/>
  </g>
 </g>
 <g transform="matrix(1.0667 0 0 1.0667 -48.651 11.905)">
  <rect x="250.4" y="379.77" width="3.9417" height="1.9916" rx=".047399" ry=".023128"/>
  <g transform="scale(1.0397 .96177)" fill="#fff">
   <path d="m241.67 396.3h0.29139v-0.82704l-0.2991 0.0617v-0.22455l0.29739-0.0617h0.31367v1.0516h0.29139v0.22797h-0.89474v-0.22797z"/>
   <path d="m243.19 396.29h0.56307v0.24254h-0.92988v-0.24254l0.46709-0.41224q0.0626-0.0566 0.0926-0.11055 0.03-0.054 0.03-0.11227 0-0.09-0.0608-0.14484-0.06-0.0548-0.16026-0.0548-0.0771 0-0.16884 0.0334-0.0917 0.0326-0.19626 0.0977v-0.2811q0.11142-0.0369 0.22026-0.0557 0.10884-0.0197 0.2134-0.0197 0.22969 0 0.35653 0.10113 0.12769 0.10113 0.12769 0.28196 0 0.10456-0.054 0.1954-0.054 0.09-0.22711 0.24169l-0.2734 0.23997z"/>
  </g>
 </g>
 <g transform="matrix(1.0667 0 0 1.0667 -38.417 11.905)">
  <rect x="250.4" y="379.77" width="3.9417" height="1.9916" rx=".047399" ry=".023128"/>
  <g transform="scale(1.0397 .96177)" fill="#fff">
   <path d="m241.67 396.3h0.29139v-0.82704l-0.2991 0.0617v-0.22455l0.29739-0.0617h0.31367v1.0516h0.29139v0.22797h-0.89474v-0.22797z"/>
   <path d="m243.33 395.52-0.36167 0.53564h0.36167v-0.53564zm-0.0548-0.27168h0.36681v0.80732h0.18254v0.23911h-0.18254v0.23312h-0.31196v-0.23312h-0.56736v-0.28282l0.51251-0.76361z"/>
  </g>
 </g>
 <g transform="matrix(1.0667 0 0 1.0667 -29.939 11.905)">
  <rect x="250.4" y="379.77" width="3.9417" height="1.9916" rx=".047399" ry=".023128"/>
  <g transform="scale(1.0397 .96177)" fill="#fff">
   <path d="m241.67 396.3h0.29139v-0.82704l-0.2991 0.0617v-0.22455l0.29739-0.0617h0.31367v1.0516h0.29139v0.22797h-0.89474v-0.22797z"/>
   <path d="m243.32 395.9q-0.0866 0-0.13027 0.0566-0.0428 0.0557-0.0428 0.16798 0 0.11227 0.0428 0.16883 0.0437 0.0557 0.13027 0.0557 0.0874 0 0.13026-0.0557 0.0437-0.0566 0.0437-0.16883 0-0.11228-0.0437-0.16798-0.0429-0.0566-0.13026-0.0566zm0.40794-0.61449v0.23654q-0.0814-0.0386-0.15341-0.0566-0.072-0.0189-0.14055-0.0189-0.14741 0-0.22968 0.0823-0.0823 0.0814-0.096 0.24254 0.0566-0.042 0.12255-0.0626 0.066-0.0214 0.14399-0.0214 0.19626 0 0.31624 0.11484 0.12084 0.11484 0.12084 0.30082 0 0.20569-0.13455 0.32996-0.13456 0.12341-0.36081 0.12341-0.2494 0-0.38652-0.16798-0.13627-0.16883-0.13627-0.47822 0-0.3171 0.15941-0.49794 0.16026-0.18169 0.4388-0.18169 0.0883 0 0.1714 0.0137t0.16455 0.0411z"/>
  </g>
 </g>
 <g transform="matrix(1.0667 0 0 1.0667 -21.874 11.905)">
  <rect x="250.4" y="379.77" width="3.9417" height="1.9916" rx=".047399" ry=".023128"/>
  <text transform="scale(1.0397 .96177)" x="243.7747" y="396.52985" fill="#000000" font-family="sans-serif" font-size="1.7552px" style="line-height:0%">
   <tspan x="242.68456" y="396.52985" fill="#ffffff" font-family="sans-serif" font-weight="bold" text-align="center" text-anchor="middle">18</tspan>
  </text>
 </g>
 <g transform="matrix(1.0667 0 0 1.0667 -13.809 11.905)">
  <rect x="250.4" y="379.77" width="3.9417" height="1.9916" rx=".047399" ry=".023128"/>
  <g transform="scale(1.0397 .96177)" fill="#fff">
   <path d="m241.97 396.29h0.56307v0.24254h-0.92988v-0.24254l0.46708-0.41224q0.0626-0.0566 0.0926-0.11055 0.03-0.054 0.03-0.11227 0-0.09-0.0609-0.14484-0.06-0.0548-0.16027-0.0548-0.0771 0-0.16883 0.0334-0.0917 0.0326-0.19626 0.0977v-0.2811q0.11141-0.0369 0.22026-0.0557 0.10884-0.0197 0.2134-0.0197 0.22968 0 0.35652 0.10113 0.1277 0.10113 0.1277 0.28196 0 0.10456-0.054 0.1954-0.054 0.09-0.22712 0.24169l-0.27339 0.23997z"/>
   <path d="m243.49 395.89q0-0.23997-0.0454-0.33767-0.0446-0.0986-0.15084-0.0986-0.10627 0-0.1517 0.0986-0.0454 0.0977-0.0454 0.33767 0 0.24254 0.0454 0.34195 0.0454 0.0994 0.1517 0.0994 0.10541 0 0.15084-0.0994 0.0454-0.0994 0.0454-0.34195zm0.32996 3e-3q0 0.31796-0.13713 0.49108-0.13712 0.17226-0.38909 0.17226-0.25283 0-0.38995-0.17226-0.13713-0.17312-0.13713-0.49108 0-0.31882 0.13713-0.49108 0.13712-0.17312 0.38995-0.17312 0.25197 0 0.38909 0.17312 0.13713 0.17226 0.13713 0.49108z"/>
  </g>
 </g>
 <g transform="matrix(1.0667 0 0 1.0667 0 .57712)">
  <rect x="162.8" y="375.47" width="46.438" height="14.406" rx=".16873" ry=".074248"/>
  <g transform="matrix(1.0006 0 0 .99268 65.111 14.93)">
   <g transform="translate(-15.07 24.778)">
    <path d="m112.86 345.71 7.9403 1e-5v-7.0375l-7.9403 2.2e-4z" fill="#3a3a3a"/>
    <g transform="matrix(.0080706 0 0 .0080636 100.22 374.68)">
     <path d="m2550.5-3593.2v-872.75l-983.84 0.025v872.71z" fill="none" stroke="#000" stroke-linecap="square" stroke-width=".67568"/>
    </g>
    <path d="m113.63 340.44h1.7574l-3e-3 -1.0731 0.63956-5.7e-4v-0.40181h2.0614l-4.8e-4 0.40286h0.6657v1.0732h1.7493v4.6204l-6.8696 0.015z" fill="#1a1a1a"/>
    <g fill="#ffac00">
     <path d="m115.21 345.08h0.21938v-1.3498h-0.21938v1.3498z"/>
     <path d="m115.7 345.08h0.21938v-1.3498h-0.21938v1.3498z"/>
     <path d="m116.21 345.08h0.21931v-1.3498h-0.21931v1.3498z"/>
     <path d="m116.72 345.08h0.21938v-1.3498h-0.21938v1.3498z"/>
     <path d="m117.21 345.08h0.21938v-1.3498h-0.21938v1.3498z"/>
     <path d="m117.71 345.08h0.21932v-1.3498h-0.21932v1.3498z"/>
     <path d="m118.24 345.08h0.21986v-1.3498h-0.21986v1.3498z"/>
     <path d="m118.73 345.08h0.21931v-1.3498h-0.21931v1.3498z"/>
    </g>
    <g>
     <path d="m118.91 340.16h1.7357v-0.75438h-1.7357v0.75438z" fill="#abb927"/>
     <path d="m113.48 340.16h1.751v-0.75831h-1.751v0.75831z" fill="#ff7d00"/>
     <path d="m120.8 345.71-7.9401-2e-5v7.0373l7.9401 2.4e-4z" fill="#3a3a3a"/>
    </g>
    <g transform="matrix(-.0080706 0 0 -.0080636 133.93 316.74)">
     <path d="m2609.9-3593.3v-872.71l-983.83-0.028v872.75z" fill="none" stroke="#000" stroke-linecap="square" stroke-width=".67568"/>
    </g>
    <path d="m120.51 350.97h-1.7574l3e-3 1.0731-0.63956 5.7e-4v0.40181h-2.0614l4.8e-4 -0.40286h-0.6657v-1.0732h-1.7493v-4.6204l6.8696-0.015z" fill="#1a1a1a"/>
    <g fill="#ffac00">
     <path d="m118.93 346.34h-0.21938v1.3498h0.21938v-1.3498z"/>
     <path d="m118.44 346.34h-0.21938v1.3498h0.21938v-1.3498z"/>
     <path d="m117.94 346.34h-0.21931v1.3498h0.21931v-1.3498z"/>
     <path d="m117.42 346.34h-0.21938v1.3498h0.21938v-1.3498z"/>
     <path d="m116.93 346.34h-0.21938v1.3498h0.21938v-1.3498z"/>
     <path d="m116.43 346.34h-0.21932v1.3498h0.21932v-1.3498z"/>
     <path d="m115.91 346.34h-0.21986v1.3498h0.21986v-1.3498z"/>
     <path d="m115.42 346.34h-0.21931v1.3498h0.21931v-1.3498z"/>
    </g>
    <g>
     <path d="m115.23 351.26h-1.7357v0.75438h1.7357v-0.75438z" fill="#abb927"/>
     <path d="m120.67 351.26h-1.751v0.75831h1.751v-0.75831z" fill="#ff7d00"/>
     <path transform="matrix(.53109 0 0 .53109 66 374.35)" d="m103.18-67.181-4.3903-0.0018v1.2752l4.2565-0.0019v1.6507l-0.4201 0.01318-1e-3 9.1065-9e-3 0.0099-12.928 0.01807-9.03e-4 -9.1344-0.42012-0.01318v-1.6507l4.2317 0.0019v-1.2752l-5.2703 0.0018 0.0034 26.511 5.2951 0.0018v-1.2752l-4.2565 0.0019v-1.6507l0.4201-0.01318 0.0011-9.0518 12.937-0.0075 9.1e-4 9.0588 0.42011 0.01318v1.6507l-4.2317-0.0019v1.2752l4.3658-0.0018z" fill="#ebebeb"/>
    </g>
   </g>
   <g transform="translate(-7.5957 24.778)">
    <path d="m113.33 345.71h7.5536v-7.0373l-7.5536-2.3e-4z" fill="#3a3a3a"/>
    <g transform="matrix(.0080706 0 0 .0080636 100.22 374.68)">
     <path d="m2560.5-3593.3v-872.71l-935.94-0.027v872.74z" fill="none" stroke="#000" stroke-linecap="square" stroke-width=".67568"/>
    </g>
    <path d="m113.63 340.44h1.7574l-3e-3 -1.0731 0.63956-5.7e-4v-0.40181h2.0614l-4.8e-4 0.40286h0.6657v1.0732h1.7493v4.6204l-6.8696 0.015z" fill="#1a1a1a"/>
    <g fill="#ffac00">
     <path d="m115.21 345.08h0.21938v-1.3498h-0.21938v1.3498z"/>
     <path d="m115.7 345.08h0.21938v-1.3498h-0.21938v1.3498z"/>
     <path d="m116.21 345.08h0.21931v-1.3498h-0.21931v1.3498z"/>
     <path d="m116.72 345.08h0.21938v-1.3498h-0.21938v1.3498z"/>
     <path d="m117.21 345.08h0.21938v-1.3498h-0.21938v1.3498z"/>
     <path d="m117.71 345.08h0.21932v-1.3498h-0.21932v1.3498z"/>
     <path d="m118.24 345.08h0.21986v-1.3498h-0.21986v1.3498z"/>
     <path d="m118.73 345.08h0.21931v-1.3498h-0.21931v1.3498z"/>
    </g>
    <g>
     <path d="m118.91 340.16h1.7357v-0.75438h-1.7357v0.75438z" fill="#abb927"/>
     <path d="m113.48 340.16h1.751v-0.75831h-1.751v0.75831z" fill="#ff7d00"/>
     <path d="m120.88 345.71h-7.5536v7.0373h7.5536z" fill="#3a3a3a"/>
    </g>
    <g transform="matrix(-.0080706 0 0 -.0080636 133.93 316.74)">
     <path d="m2551.9-3593.3v-872.72h-935.94v872.71z" fill="none" stroke="#000" stroke-linecap="square" stroke-width=".67568"/>
    </g>
    <path d="m120.51 350.97h-1.7574l3e-3 1.0731-0.63956 5.7e-4v0.40181h-2.0614l4.8e-4 -0.40286h-0.6657v-1.0732h-1.7493v-4.6204l6.8696-0.015z" fill="#1a1a1a"/>
    <g fill="#ffac00">
     <path d="m118.93 346.34h-0.21938v1.3498h0.21938v-1.3498z"/>
     <path d="m118.44 346.34h-0.21938v1.3498h0.21938v-1.3498z"/>
     <path d="m117.94 346.34h-0.21931v1.3498h0.21931v-1.3498z"/>
     <path d="m117.42 346.34h-0.21938v1.3498h0.21938v-1.3498z"/>
     <path d="m116.93 346.34h-0.21938v1.3498h0.21938v-1.3498z"/>
     <path d="m116.43 346.34h-0.21932v1.3498h0.21932v-1.3498z"/>
     <path d="m115.91 346.34h-0.21986v1.3498h0.21986v-1.3498z"/>
     <path d="m115.42 346.34h-0.21931v1.3498h0.21931v-1.3498z"/>
    </g>
    <g>
     <path d="m115.23 351.26h-1.7357v0.75438h1.7357v-0.75438z" fill="#abb927"/>
     <path d="m120.67 351.26h-1.751v0.75831h1.751v-0.75831z" fill="#ff7d00"/>
     <path transform="matrix(.53109 0 0 .53109 66 374.35)" d="m103.34-67.181-4.5453-0.0018v1.2752l4.2565-0.0019v1.6507l-0.4201 0.01318-1e-3 9.1065-9e-3 0.0099-12.928 0.01807-9.03e-4 -9.1344-0.42012-0.01318v-1.6507l4.2317 0.0019v-1.2752l-4.3863 0.0018 0.0033 26.511 4.4112 0.0018v-1.2752l-4.2565 0.0019v-1.6507l0.4201-0.01318 0.0011-9.0518 12.937-0.0075 9.1e-4 9.0588 0.42011 0.01318v1.6507l-4.2317-0.0019v1.2752l4.5207-0.0018z" fill="#ebebeb"/>
    </g>
   </g>
   <g transform="matrix(-1 0 0 -1 256.76 716.2)">
    <path d="m112.86 345.71 7.9403 1e-5v-7.0375l-7.9403 2.2e-4z" fill="#3a3a3a"/>
    <g transform="matrix(.0080706 0 0 .0080636 100.22 374.68)">
     <path d="m2550.5-3593.2v-872.75l-983.84 0.025v872.71z" fill="none" stroke="#000" stroke-linecap="square" stroke-width=".67568"/>
    </g>
    <path d="m113.63 340.44h1.7574l-3e-3 -1.0731 0.63956-5.7e-4v-0.40181h2.0614l-4.8e-4 0.40286h0.6657v1.0732h1.7493v4.6204l-6.8696 0.015z" fill="#1a1a1a"/>
    <g fill="#ffac00">
     <path d="m115.21 345.08h0.21938v-1.3498h-0.21938v1.3498z"/>
     <path d="m115.7 345.08h0.21938v-1.3498h-0.21938v1.3498z"/>
     <path d="m116.21 345.08h0.21931v-1.3498h-0.21931v1.3498z"/>
     <path d="m116.72 345.08h0.21938v-1.3498h-0.21938v1.3498z"/>
     <path d="m117.21 345.08h0.21938v-1.3498h-0.21938v1.3498z"/>
     <path d="m117.71 345.08h0.21932v-1.3498h-0.21932v1.3498z"/>
     <path d="m118.24 345.08h0.21986v-1.3498h-0.21986v1.3498z"/>
     <path d="m118.73 345.08h0.21931v-1.3498h-0.21931v1.3498z"/>
    </g>
    <g>
     <path d="m118.91 340.16h1.7357v-0.75438h-1.7357v0.75438z" fill="#abb927"/>
     <path d="m113.48 340.16h1.751v-0.75831h-1.751v0.75831z" fill="#ff7d00"/>
     <path d="m120.8 345.71-7.9401-2e-5v7.0373l7.9401 2.4e-4z" fill="#3a3a3a"/>
    </g>
    <g transform="matrix(-.0080706 0 0 -.0080636 133.93 316.74)">
     <path d="m2609.9-3593.3v-872.71l-983.83-0.028v872.75z" fill="none" stroke="#000" stroke-linecap="square" stroke-width=".67568"/>
    </g>
    <path d="m120.51 350.97h-1.7574l3e-3 1.0731-0.63956 5.7e-4v0.40181h-2.0614l4.8e-4 -0.40286h-0.6657v-1.0732h-1.7493v-4.6204l6.8696-0.015z" fill="#1a1a1a"/>
    <g fill="#ffac00">
     <path d="m118.93 346.34h-0.21938v1.3498h0.21938v-1.3498z"/>
     <path d="m118.44 346.34h-0.21938v1.3498h0.21938v-1.3498z"/>
     <path d="m117.94 346.34h-0.21931v1.3498h0.21931v-1.3498z"/>
     <path d="m117.42 346.34h-0.21938v1.3498h0.21938v-1.3498z"/>
     <path d="m116.93 346.34h-0.21938v1.3498h0.21938v-1.3498z"/>
     <path d="m116.43 346.34h-0.21932v1.3498h0.21932v-1.3498z"/>
     <path d="m115.91 346.34h-0.21986v1.3498h0.21986v-1.3498z"/>
     <path d="m115.42 346.34h-0.21931v1.3498h0.21931v-1.3498z"/>
    </g>
    <g>
     <path d="m115.23 351.26h-1.7357v0.75438h1.7357v-0.75438z" fill="#abb927"/>
     <path d="m120.67 351.26h-1.751v0.75831h1.751v-0.75831z" fill="#ff7d00"/>
     <path transform="matrix(.53109 0 0 .53109 66 374.35)" d="m103.19-67.181-4.3904-0.0018v1.2752l4.2565-0.0019v1.6507l-0.4201 0.01318-1e-3 9.1065-9e-3 0.0099-12.928 0.01807-9.03e-4 -9.1344-0.42012-0.01318v-1.6507l4.2317 0.0019v-1.2752l-5.2703 0.0018 0.0034 26.511 5.2951 0.0018v-1.2752l-4.2565 0.0019v-1.6507l0.4201-0.01318 0.0011-9.0518 12.937-0.0075 9.1e-4 9.0588 0.42011 0.01318v1.6507l-4.2317-0.0019v1.2752l4.3658-0.0018z" fill="#ebebeb"/>
    </g>
   </g>
   <g transform="translate(-.039301 24.778)">
    <path d="m113.33 345.71h7.5536v-7.0373l-7.5536-2.3e-4z" fill="#3a3a3a"/>
    <g transform="matrix(.0080706 0 0 .0080636 100.22 374.68)">
     <path d="m2560.5-3593.3v-872.71l-935.94-0.027v872.74z" fill="none" stroke="#000" stroke-linecap="square" stroke-width=".67568"/>
    </g>
    <path d="m113.63 340.44h1.7574l-3e-3 -1.0731 0.63956-5.7e-4v-0.40181h2.0614l-4.8e-4 0.40286h0.6657v1.0732h1.7493v4.6204l-6.8696 0.015z" fill="#1a1a1a"/>
    <g fill="#ffac00">
     <path d="m115.21 345.08h0.21938v-1.3498h-0.21938v1.3498z"/>
     <path d="m115.7 345.08h0.21938v-1.3498h-0.21938v1.3498z"/>
     <path d="m116.21 345.08h0.21931v-1.3498h-0.21931v1.3498z"/>
     <path d="m116.72 345.08h0.21938v-1.3498h-0.21938v1.3498z"/>
     <path d="m117.21 345.08h0.21938v-1.3498h-0.21938v1.3498z"/>
     <path d="m117.71 345.08h0.21932v-1.3498h-0.21932v1.3498z"/>
     <path d="m118.24 345.08h0.21986v-1.3498h-0.21986v1.3498z"/>
     <path d="m118.73 345.08h0.21931v-1.3498h-0.21931v1.3498z"/>
    </g>
    <g>
     <path d="m118.91 340.16h1.7357v-0.75438h-1.7357v0.75438z" fill="#abb927"/>
     <path d="m113.48 340.16h1.751v-0.75831h-1.751v0.75831z" fill="#ff7d00"/>
     <path d="m120.88 345.71h-7.5536v7.0373h7.5536z" fill="#3a3a3a"/>
    </g>
    <g transform="matrix(-.0080706 0 0 -.0080636 133.93 316.74)">
     <path d="m2551.9-3593.3v-872.72h-935.94v872.71z" fill="none" stroke="#000" stroke-linecap="square" stroke-width=".67568"/>
    </g>
    <path d="m120.51 350.97h-1.7574l3e-3 1.0731-0.63956 5.7e-4v0.40181h-2.0614l4.8e-4 -0.40286h-0.6657v-1.0732h-1.7493v-4.6204l6.8696-0.015z" fill="#1a1a1a"/>
    <g fill="#ffac00">
     <path d="m118.93 346.34h-0.21938v1.3498h0.21938v-1.3498z"/>
     <path d="m118.44 346.34h-0.21938v1.3498h0.21938v-1.3498z"/>
     <path d="m117.94 346.34h-0.21931v1.3498h0.21931v-1.3498z"/>
     <path d="m117.42 346.34h-0.21938v1.3498h0.21938v-1.3498z"/>
     <path d="m116.93 346.34h-0.21938v1.3498h0.21938v-1.3498z"/>
     <path d="m116.43 346.34h-0.21932v1.3498h0.21932v-1.3498z"/>
     <path d="m115.91 346.34h-0.21986v1.3498h0.21986v-1.3498z"/>
     <path d="m115.42 346.34h-0.21931v1.3498h0.21931v-1.3498z"/>
    </g>
    <g>
     <path d="m115.23 351.26h-1.7357v0.75438h1.7357v-0.75438z" fill="#abb927"/>
     <path d="m120.67 351.26h-1.751v0.75831h1.751v-0.75831z" fill="#ff7d00"/>
     <path transform="matrix(.53109 0 0 .53109 66 374.35)" d="m103.34-67.181-4.5453-0.0018v1.2752l4.2565-0.0019v1.6507l-0.4201 0.01318-1e-3 9.1065-9e-3 0.0099-12.928 0.01807-9.03e-4 -9.1344-0.42012-0.01318v-1.6507l4.2317 0.0019v-1.2752l-4.3863 0.0018 0.0033 26.511 4.4112 0.0018v-1.2752l-4.2565 0.0019v-1.6507l0.4201-0.01318 0.0011-9.0518 12.937-0.0075 9.1e-4 9.0588 0.42011 0.01318v1.6507l-4.2317-0.0019v1.2752l4.5207-0.0018z" fill="#ebebeb"/>
    </g>
   </g>
   <g transform="translate(7.5171 24.778)">
    <path d="m113.33 345.71h7.5536v-7.0373l-7.5536-2.3e-4z" fill="#3a3a3a"/>
    <g transform="matrix(.0080706 0 0 .0080636 100.22 374.68)">
     <path d="m2560.5-3593.3v-872.71l-935.94-0.027v872.74z" fill="none" stroke="#000" stroke-linecap="square" stroke-width=".67568"/>
    </g>
    <path d="m113.63 340.44h1.7574l-3e-3 -1.0731 0.63956-5.7e-4v-0.40181h2.0614l-4.8e-4 0.40286h0.6657v1.0732h1.7493v4.6204l-6.8696 0.015z" fill="#1a1a1a"/>
    <g fill="#ffac00">
     <path d="m115.21 345.08h0.21938v-1.3498h-0.21938v1.3498z"/>
     <path d="m115.7 345.08h0.21938v-1.3498h-0.21938v1.3498z"/>
     <path d="m116.21 345.08h0.21931v-1.3498h-0.21931v1.3498z"/>
     <path d="m116.72 345.08h0.21938v-1.3498h-0.21938v1.3498z"/>
     <path d="m117.21 345.08h0.21938v-1.3498h-0.21938v1.3498z"/>
     <path d="m117.71 345.08h0.21932v-1.3498h-0.21932v1.3498z"/>
     <path d="m118.24 345.08h0.21986v-1.3498h-0.21986v1.3498z"/>
     <path d="m118.73 345.08h0.21931v-1.3498h-0.21931v1.3498z"/>
    </g>
    <g>
     <path d="m118.91 340.16h1.7357v-0.75438h-1.7357v0.75438z" fill="#abb927"/>
     <path d="m113.48 340.16h1.751v-0.75831h-1.751v0.75831z" fill="#ff7d00"/>
     <path d="m120.88 345.71h-7.5536v7.0373h7.5536z" fill="#3a3a3a"/>
    </g>
    <g transform="matrix(-.0080706 0 0 -.0080636 133.93 316.74)">
     <path d="m2551.9-3593.3v-872.72h-935.94v872.71z" fill="none" stroke="#000" stroke-linecap="square" stroke-width=".67568"/>
    </g>
    <path d="m120.51 350.97h-1.7574l3e-3 1.0731-0.63956 5.7e-4v0.40181h-2.0614l4.8e-4 -0.40286h-0.6657v-1.0732h-1.7493v-4.6204l6.8696-0.015z" fill="#1a1a1a"/>
    <g fill="#ffac00">
     <path d="m118.93 346.34h-0.21938v1.3498h0.21938v-1.3498z"/>
     <path d="m118.44 346.34h-0.21938v1.3498h0.21938v-1.3498z"/>
     <path d="m117.94 346.34h-0.21931v1.3498h0.21931v-1.3498z"/>
     <path d="m117.42 346.34h-0.21938v1.3498h0.21938v-1.3498z"/>
     <path d="m116.93 346.34h-0.21938v1.3498h0.21938v-1.3498z"/>
     <path d="m116.43 346.34h-0.21932v1.3498h0.21932v-1.3498z"/>
     <path d="m115.91 346.34h-0.21986v1.3498h0.21986v-1.3498z"/>
     <path d="m115.42 346.34h-0.21931v1.3498h0.21931v-1.3498z"/>
    </g>
    <g>
     <path d="m115.23 351.26h-1.7357v0.75438h1.7357v-0.75438z" fill="#abb927"/>
     <path d="m120.67 351.26h-1.751v0.75831h1.751v-0.75831z" fill="#ff7d00"/>
     <path transform="matrix(.53109 0 0 .53109 66 374.35)" d="m103.34-67.181-4.5453-0.0018v1.2752l4.2565-0.0019v1.6507l-0.4201 0.01318-1e-3 9.1065-9e-3 0.0099-12.928 0.01807-9.03e-4 -9.1344-0.42012-0.01318v-1.6507l4.2317 0.0019v-1.2752l-4.3863 0.0018 0.0033 26.511 4.4112 0.0018v-1.2752l-4.2565 0.0019v-1.6507l0.4201-0.01318 0.0011-9.0518 12.937-0.0075 9.1e-4 9.0588 0.42011 0.01318v1.6507l-4.2317-0.0019v1.2752l4.5207-0.0018z" fill="#ebebeb"/>
    </g>
   </g>
   <g transform="translate(15.073 24.778)">
    <path d="m113.33 345.71h7.5536v-7.0373l-7.5536-2.3e-4z" fill="#3a3a3a"/>
    <g transform="matrix(.0080706 0 0 .0080636 100.22 374.68)">
     <path d="m2560.5-3593.3v-872.71l-935.94-0.027v872.74z" fill="none" stroke="#000" stroke-linecap="square" stroke-width=".67568"/>
    </g>
    <path d="m113.63 340.44h1.7574l-3e-3 -1.0731 0.63956-5.7e-4v-0.40181h2.0614l-4.8e-4 0.40286h0.6657v1.0732h1.7493v4.6204l-6.8696 0.015z" fill="#1a1a1a"/>
    <g fill="#ffac00">
     <path d="m115.21 345.08h0.21938v-1.3498h-0.21938v1.3498z"/>
     <path d="m115.7 345.08h0.21938v-1.3498h-0.21938v1.3498z"/>
     <path d="m116.21 345.08h0.21931v-1.3498h-0.21931v1.3498z"/>
     <path d="m116.72 345.08h0.21938v-1.3498h-0.21938v1.3498z"/>
     <path d="m117.21 345.08h0.21938v-1.3498h-0.21938v1.3498z"/>
     <path d="m117.71 345.08h0.21932v-1.3498h-0.21932v1.3498z"/>
     <path d="m118.24 345.08h0.21986v-1.3498h-0.21986v1.3498z"/>
     <path d="m118.73 345.08h0.21931v-1.3498h-0.21931v1.3498z"/>
    </g>
    <g>
     <path d="m118.91 340.16h1.7357v-0.75438h-1.7357v0.75438z" fill="#abb927"/>
     <path d="m113.48 340.16h1.751v-0.75831h-1.751v0.75831z" fill="#ff7d00"/>
     <path d="m120.88 345.71h-7.5536v7.0373h7.5536z" fill="#3a3a3a"/>
    </g>
    <g transform="matrix(-.0080706 0 0 -.0080636 133.93 316.74)">
     <path d="m2551.9-3593.3v-872.72h-935.94v872.71z" fill="none" stroke="#000" stroke-linecap="square" stroke-width=".67568"/>
    </g>
    <path d="m120.51 350.97h-1.7574l3e-3 1.0731-0.63956 5.7e-4v0.40181h-2.0614l4.8e-4 -0.40286h-0.6657v-1.0732h-1.7493v-4.6204l6.8696-0.015z" fill="#1a1a1a"/>
    <g fill="#ffac00">
     <path d="m118.93 346.34h-0.21938v1.3498h0.21938v-1.3498z"/>
     <path d="m118.44 346.34h-0.21938v1.3498h0.21938v-1.3498z"/>
     <path d="m117.94 346.34h-0.21931v1.3498h0.21931v-1.3498z"/>
     <path d="m117.42 346.34h-0.21938v1.3498h0.21938v-1.3498z"/>
     <path d="m116.93 346.34h-0.21938v1.3498h0.21938v-1.3498z"/>
     <path d="m116.43 346.34h-0.21932v1.3498h0.21932v-1.3498z"/>
     <path d="m115.91 346.34h-0.21986v1.3498h0.21986v-1.3498z"/>
     <path d="m115.42 346.34h-0.21931v1.3498h0.21931v-1.3498z"/>
    </g>
    <g>
     <path d="m115.23 351.26h-1.7357v0.75438h1.7357v-0.75438z" fill="#abb927"/>
     <path d="m120.67 351.26h-1.751v0.75831h1.751v-0.75831z" fill="#ff7d00"/>
     <path transform="matrix(.53109 0 0 .53109 66 374.35)" d="m103.34-67.181-4.5453-0.0018v1.2752l4.2565-0.0019v1.6507l-0.4201 0.01318-1e-3 9.1065-9e-3 0.0099-12.928 0.01807-9.03e-4 -9.1344-0.42012-0.01318v-1.6507l4.2317 0.0019v-1.2752l-4.3863 0.0018 0.0033 26.511 4.4112 0.0018v-1.2752l-4.2565 0.0019v-1.6507l0.4201-0.01318 0.0011-9.0518 12.937-0.0075 9.1e-4 9.0588 0.42011 0.01318v1.6507l-4.2317-0.0019v1.2752l4.5207-0.0018z" fill="#ebebeb"/>
    </g>
   </g>
  </g>
  <rect x="210.24" y="375.47" width="46.438" height="14.414" rx=".16873" ry=".074248"/>
  <g transform="matrix(1.0006 0 0 .99268 112.53 14.93)">
   <g transform="translate(-15.07 24.778)">
    <path d="m112.86 345.71 7.9403 1e-5v-7.0375l-7.9403 2.2e-4z" fill="#3a3a3a"/>
    <g transform="matrix(.0080706 0 0 .0080636 100.22 374.68)">
     <path d="m2550.5-3593.2v-872.75l-983.84 0.025v872.71z" fill="none" stroke="#000" stroke-linecap="square" stroke-width=".67568"/>
    </g>
    <path d="m113.63 340.44h1.7574l-3e-3 -1.0731 0.63956-5.7e-4v-0.40181h2.0614l-4.8e-4 0.40286h0.6657v1.0732h1.7493v4.6204l-6.8696 0.015z" fill="#1a1a1a"/>
    <g fill="#ffac00">
     <path d="m115.21 345.08h0.21938v-1.3498h-0.21938v1.3498z"/>
     <path d="m115.7 345.08h0.21938v-1.3498h-0.21938v1.3498z"/>
     <path d="m116.21 345.08h0.21931v-1.3498h-0.21931v1.3498z"/>
     <path d="m116.72 345.08h0.21938v-1.3498h-0.21938v1.3498z"/>
     <path d="m117.21 345.08h0.21938v-1.3498h-0.21938v1.3498z"/>
     <path d="m117.71 345.08h0.21932v-1.3498h-0.21932v1.3498z"/>
     <path d="m118.24 345.08h0.21986v-1.3498h-0.21986v1.3498z"/>
     <path d="m118.73 345.08h0.21931v-1.3498h-0.21931v1.3498z"/>
    </g>
    <g>
     <path d="m118.91 340.16h1.7357v-0.75438h-1.7357v0.75438z" fill="#abb927"/>
     <path d="m113.48 340.16h1.751v-0.75831h-1.751v0.75831z" fill="#ff7d00"/>
     <path d="m120.8 345.71-7.9401-2e-5v7.0373l7.9401 2.4e-4z" fill="#3a3a3a"/>
    </g>
    <g transform="matrix(-.0080706 0 0 -.0080636 133.93 316.74)">
     <path d="m2609.9-3593.3v-872.71l-983.83-0.028v872.75z" fill="none" stroke="#000" stroke-linecap="square" stroke-width=".67568"/>
    </g>
    <path d="m120.51 350.97h-1.7574l3e-3 1.0731-0.63956 5.7e-4v0.40181h-2.0614l4.8e-4 -0.40286h-0.6657v-1.0732h-1.7493v-4.6204l6.8696-0.015z" fill="#1a1a1a"/>
    <g fill="#ffac00">
     <path d="m118.93 346.34h-0.21938v1.3498h0.21938v-1.3498z"/>
     <path d="m118.44 346.34h-0.21938v1.3498h0.21938v-1.3498z"/>
     <path d="m117.94 346.34h-0.21931v1.3498h0.21931v-1.3498z"/>
     <path d="m117.42 346.34h-0.21938v1.3498h0.21938v-1.3498z"/>
     <path d="m116.93 346.34h-0.21938v1.3498h0.21938v-1.3498z"/>
     <path d="m116.43 346.34h-0.21932v1.3498h0.21932v-1.3498z"/>
     <path d="m115.91 346.34h-0.21986v1.3498h0.21986v-1.3498z"/>
     <path d="m115.42 346.34h-0.21931v1.3498h0.21931v-1.3498z"/>
    </g>
    <g>
     <path d="m115.23 351.26h-1.7357v0.75438h1.7357v-0.75438z" fill="#abb927"/>
     <path d="m120.67 351.26h-1.751v0.75831h1.751v-0.75831z" fill="#ff7d00"/>
     <path transform="matrix(.53109 0 0 .53109 66 374.35)" d="m103.18-67.181-4.3903-0.0018v1.2752l4.2565-0.0019v1.6507l-0.4201 0.01318-1e-3 9.1065-9e-3 0.0099-12.928 0.01807-9.03e-4 -9.1344-0.42012-0.01318v-1.6507l4.2317 0.0019v-1.2752l-5.2703 0.0018 0.0034 26.511 5.2951 0.0018v-1.2752l-4.2565 0.0019v-1.6507l0.4201-0.01318 0.0011-9.0518 12.937-0.0075 9.1e-4 9.0588 0.42011 0.01318v1.6507l-4.2317-0.0019v1.2752l4.3658-0.0018z" fill="#ebebeb"/>
    </g>
   </g>
   <g transform="translate(-7.5957 24.778)">
    <path d="m113.33 345.71h7.5536v-7.0373l-7.5536-2.3e-4z" fill="#3a3a3a"/>
    <g transform="matrix(.0080706 0 0 .0080636 100.22 374.68)">
     <path d="m2560.5-3593.3v-872.71l-935.94-0.027v872.74z" fill="none" stroke="#000" stroke-linecap="square" stroke-width=".67568"/>
    </g>
    <path d="m113.63 340.44h1.7574l-3e-3 -1.0731 0.63956-5.7e-4v-0.40181h2.0614l-4.8e-4 0.40286h0.6657v1.0732h1.7493v4.6204l-6.8696 0.015z" fill="#1a1a1a"/>
    <g fill="#ffac00">
     <path d="m115.21 345.08h0.21938v-1.3498h-0.21938v1.3498z"/>
     <path d="m115.7 345.08h0.21938v-1.3498h-0.21938v1.3498z"/>
     <path d="m116.21 345.08h0.21931v-1.3498h-0.21931v1.3498z"/>
     <path d="m116.72 345.08h0.21938v-1.3498h-0.21938v1.3498z"/>
     <path d="m117.21 345.08h0.21938v-1.3498h-0.21938v1.3498z"/>
     <path d="m117.71 345.08h0.21932v-1.3498h-0.21932v1.3498z"/>
     <path d="m118.24 345.08h0.21986v-1.3498h-0.21986v1.3498z"/>
     <path d="m118.73 345.08h0.21931v-1.3498h-0.21931v1.3498z"/>
    </g>
    <g>
     <path d="m118.91 340.16h1.7357v-0.75438h-1.7357v0.75438z" fill="#abb927"/>
     <path d="m113.48 340.16h1.751v-0.75831h-1.751v0.75831z" fill="#ff7d00"/>
     <path d="m120.88 345.71h-7.5536v7.0373h7.5536z" fill="#3a3a3a"/>
    </g>
    <g transform="matrix(-.0080706 0 0 -.0080636 133.93 316.74)">
     <path d="m2551.9-3593.3v-872.72h-935.94v872.71z" fill="none" stroke="#000" stroke-linecap="square" stroke-width=".67568"/>
    </g>
    <path d="m120.51 350.97h-1.7574l3e-3 1.0731-0.63956 5.7e-4v0.40181h-2.0614l4.8e-4 -0.40286h-0.6657v-1.0732h-1.7493v-4.6204l6.8696-0.015z" fill="#1a1a1a"/>
    <g fill="#ffac00">
     <path d="m118.93 346.34h-0.21938v1.3498h0.21938v-1.3498z"/>
     <path d="m118.44 346.34h-0.21938v1.3498h0.21938v-1.3498z"/>
     <path d="m117.94 346.34h-0.21931v1.3498h0.21931v-1.3498z"/>
     <path d="m117.42 346.34h-0.21938v1.3498h0.21938v-1.3498z"/>
     <path d="m116.93 346.34h-0.21938v1.3498h0.21938v-1.3498z"/>
     <path d="m116.43 346.34h-0.21932v1.3498h0.21932v-1.3498z"/>
     <path d="m115.91 346.34h-0.21986v1.3498h0.21986v-1.3498z"/>
     <path d="m115.42 346.34h-0.21931v1.3498h0.21931v-1.3498z"/>
    </g>
    <g>
     <path d="m115.23 351.26h-1.7357v0.75438h1.7357v-0.75438z" fill="#abb927"/>
     <path d="m120.67 351.26h-1.751v0.75831h1.751v-0.75831z" fill="#ff7d00"/>
     <path transform="matrix(.53109 0 0 .53109 66 374.35)" d="m103.34-67.181-4.5453-0.0018v1.2752l4.2565-0.0019v1.6507l-0.4201 0.01318-1e-3 9.1065-9e-3 0.0099-12.928 0.01807-9.03e-4 -9.1344-0.42012-0.01318v-1.6507l4.2317 0.0019v-1.2752l-4.3863 0.0018 0.0033 26.511 4.4112 0.0018v-1.2752l-4.2565 0.0019v-1.6507l0.4201-0.01318 0.0011-9.0518 12.937-0.0075 9.1e-4 9.0588 0.42011 0.01318v1.6507l-4.2317-0.0019v1.2752l4.5207-0.0018z" fill="#ebebeb"/>
    </g>
   </g>
   <g transform="matrix(-1 0 0 -1 256.76 716.2)">
    <path d="m112.86 345.71 7.9403 1e-5v-7.0375l-7.9403 2.2e-4z" fill="#3a3a3a"/>
    <g transform="matrix(.0080706 0 0 .0080636 100.22 374.68)">
     <path d="m2550.5-3593.2v-872.75l-983.84 0.025v872.71z" fill="none" stroke="#000" stroke-linecap="square" stroke-width=".67568"/>
    </g>
    <path d="m113.63 340.44h1.7574l-3e-3 -1.0731 0.63956-5.7e-4v-0.40181h2.0614l-4.8e-4 0.40286h0.6657v1.0732h1.7493v4.6204l-6.8696 0.015z" fill="#1a1a1a"/>
    <g fill="#ffac00">
     <path d="m115.21 345.08h0.21938v-1.3498h-0.21938v1.3498z"/>
     <path d="m115.7 345.08h0.21938v-1.3498h-0.21938v1.3498z"/>
     <path d="m116.21 345.08h0.21931v-1.3498h-0.21931v1.3498z"/>
     <path d="m116.72 345.08h0.21938v-1.3498h-0.21938v1.3498z"/>
     <path d="m117.21 345.08h0.21938v-1.3498h-0.21938v1.3498z"/>
     <path d="m117.71 345.08h0.21932v-1.3498h-0.21932v1.3498z"/>
     <path d="m118.24 345.08h0.21986v-1.3498h-0.21986v1.3498z"/>
     <path d="m118.73 345.08h0.21931v-1.3498h-0.21931v1.3498z"/>
    </g>
    <g>
     <path d="m118.91 340.16h1.7357v-0.75438h-1.7357v0.75438z" fill="#abb927"/>
     <path d="m113.48 340.16h1.751v-0.75831h-1.751v0.75831z" fill="#ff7d00"/>
     <path d="m120.8 345.71-7.9401-2e-5v7.0373l7.9401 2.4e-4z" fill="#3a3a3a"/>
    </g>
    <g transform="matrix(-.0080706 0 0 -.0080636 133.93 316.74)">
     <path d="m2609.9-3593.3v-872.71l-983.83-0.028v872.75z" fill="none" stroke="#000" stroke-linecap="square" stroke-width=".67568"/>
    </g>
    <path d="m120.51 350.97h-1.7574l3e-3 1.0731-0.63956 5.7e-4v0.40181h-2.0614l4.8e-4 -0.40286h-0.6657v-1.0732h-1.7493v-4.6204l6.8696-0.015z" fill="#1a1a1a"/>
    <g fill="#ffac00">
     <path d="m118.93 346.34h-0.21938v1.3498h0.21938v-1.3498z"/>
     <path d="m118.44 346.34h-0.21938v1.3498h0.21938v-1.3498z"/>
     <path d="m117.94 346.34h-0.21931v1.3498h0.21931v-1.3498z"/>
     <path d="m117.42 346.34h-0.21938v1.3498h0.21938v-1.3498z"/>
     <path d="m116.93 346.34h-0.21938v1.3498h0.21938v-1.3498z"/>
     <path d="m116.43 346.34h-0.21932v1.3498h0.21932v-1.3498z"/>
     <path d="m115.91 346.34h-0.21986v1.3498h0.21986v-1.3498z"/>
     <path d="m115.42 346.34h-0.21931v1.3498h0.21931v-1.3498z"/>
    </g>
    <g>
     <path d="m115.23 351.26h-1.7357v0.75438h1.7357v-0.75438z" fill="#abb927"/>
     <path d="m120.67 351.26h-1.751v0.75831h1.751v-0.75831z" fill="#ff7d00"/>
     <path transform="matrix(.53109 0 0 .53109 66 374.35)" d="m103.19-67.181-4.3904-0.0018v1.2752l4.2565-0.0019v1.6507l-0.4201 0.01318-1e-3 9.1065-9e-3 0.0099-12.928 0.01807-9.03e-4 -9.1344-0.42012-0.01318v-1.6507l4.2317 0.0019v-1.2752l-5.2703 0.0018 0.0034 26.511 5.2951 0.0018v-1.2752l-4.2565 0.0019v-1.6507l0.4201-0.01318 0.0011-9.0518 12.937-0.0075 9.1e-4 9.0588 0.42011 0.01318v1.6507l-4.2317-0.0019v1.2752l4.3658-0.0018z" fill="#ebebeb"/>
    </g>
   </g>
   <g transform="translate(-.039301 24.778)">
    <path d="m113.33 345.71h7.5536v-7.0373l-7.5536-2.3e-4z" fill="#3a3a3a"/>
    <g transform="matrix(.0080706 0 0 .0080636 100.22 374.68)">
     <path d="m2560.5-3593.3v-872.71l-935.94-0.027v872.74z" fill="none" stroke="#000" stroke-linecap="square" stroke-width=".67568"/>
    </g>
    <path d="m113.63 340.44h1.7574l-3e-3 -1.0731 0.63956-5.7e-4v-0.40181h2.0614l-4.8e-4 0.40286h0.6657v1.0732h1.7493v4.6204l-6.8696 0.015z" fill="#1a1a1a"/>
    <g fill="#ffac00">
     <path d="m115.21 345.08h0.21938v-1.3498h-0.21938v1.3498z"/>
     <path d="m115.7 345.08h0.21938v-1.3498h-0.21938v1.3498z"/>
     <path d="m116.21 345.08h0.21931v-1.3498h-0.21931v1.3498z"/>
     <path d="m116.72 345.08h0.21938v-1.3498h-0.21938v1.3498z"/>
     <path d="m117.21 345.08h0.21938v-1.3498h-0.21938v1.3498z"/>
     <path d="m117.71 345.08h0.21932v-1.3498h-0.21932v1.3498z"/>
     <path d="m118.24 345.08h0.21986v-1.3498h-0.21986v1.3498z"/>
     <path d="m118.73 345.08h0.21931v-1.3498h-0.21931v1.3498z"/>
    </g>
    <g>
     <path d="m118.91 340.16h1.7357v-0.75438h-1.7357v0.75438z" fill="#abb927"/>
     <path d="m113.48 340.16h1.751v-0.75831h-1.751v0.75831z" fill="#ff7d00"/>
     <path d="m120.88 345.71h-7.5536v7.0373h7.5536z" fill="#3a3a3a"/>
    </g>
    <g transform="matrix(-.0080706 0 0 -.0080636 133.93 316.74)">
     <path d="m2551.9-3593.3v-872.72h-935.94v872.71z" fill="none" stroke="#000" stroke-linecap="square" stroke-width=".67568"/>
    </g>
    <path d="m120.51 350.97h-1.7574l3e-3 1.0731-0.63956 5.7e-4v0.40181h-2.0614l4.8e-4 -0.40286h-0.6657v-1.0732h-1.7493v-4.6204l6.8696-0.015z" fill="#1a1a1a"/>
    <g fill="#ffac00">
     <path d="m118.93 346.34h-0.21938v1.3498h0.21938v-1.3498z"/>
     <path d="m118.44 346.34h-0.21938v1.3498h0.21938v-1.3498z"/>
     <path d="m117.94 346.34h-0.21931v1.3498h0.21931v-1.3498z"/>
     <path d="m117.42 346.34h-0.21938v1.3498h0.21938v-1.3498z"/>
     <path d="m116.93 346.34h-0.21938v1.3498h0.21938v-1.3498z"/>
     <path d="m116.43 346.34h-0.21932v1.3498h0.21932v-1.3498z"/>
     <path d="m115.91 346.34h-0.21986v1.3498h0.21986v-1.3498z"/>
     <path d="m115.42 346.34h-0.21931v1.3498h0.21931v-1.3498z"/>
    </g>
    <g>
     <path d="m115.23 351.26h-1.7357v0.75438h1.7357v-0.75438z" fill="#abb927"/>
     <path d="m120.67 351.26h-1.751v0.75831h1.751v-0.75831z" fill="#ff7d00"/>
     <path transform="matrix(.53109 0 0 .53109 66 374.35)" d="m103.34-67.181-4.5453-0.0018v1.2752l4.2565-0.0019v1.6507l-0.4201 0.01318-1e-3 9.1065-9e-3 0.0099-12.928 0.01807-9.03e-4 -9.1344-0.42012-0.01318v-1.6507l4.2317 0.0019v-1.2752l-4.3863 0.0018 0.0033 26.511 4.4112 0.0018v-1.2752l-4.2565 0.0019v-1.6507l0.4201-0.01318 0.0011-9.0518 12.937-0.0075 9.1e-4 9.0588 0.42011 0.01318v1.6507l-4.2317-0.0019v1.2752l4.5207-0.0018z" fill="#ebebeb"/>
    </g>
   </g>
   <g transform="translate(7.5171 24.778)">
    <path d="m113.33 345.71h7.5536v-7.0373l-7.5536-2.3e-4z" fill="#3a3a3a"/>
    <g transform="matrix(.0080706 0 0 .0080636 100.22 374.68)">
     <path d="m2560.5-3593.3v-872.71l-935.94-0.027v872.74z" fill="none" stroke="#000" stroke-linecap="square" stroke-width=".67568"/>
    </g>
    <path d="m113.63 340.44h1.7574l-3e-3 -1.0731 0.63956-5.7e-4v-0.40181h2.0614l-4.8e-4 0.40286h0.6657v1.0732h1.7493v4.6204l-6.8696 0.015z" fill="#1a1a1a"/>
    <g fill="#ffac00">
     <path d="m115.21 345.08h0.21938v-1.3498h-0.21938v1.3498z"/>
     <path d="m115.7 345.08h0.21938v-1.3498h-0.21938v1.3498z"/>
     <path d="m116.21 345.08h0.21931v-1.3498h-0.21931v1.3498z"/>
     <path d="m116.72 345.08h0.21938v-1.3498h-0.21938v1.3498z"/>
     <path d="m117.21 345.08h0.21938v-1.3498h-0.21938v1.3498z"/>
     <path d="m117.71 345.08h0.21932v-1.3498h-0.21932v1.3498z"/>
     <path d="m118.24 345.08h0.21986v-1.3498h-0.21986v1.3498z"/>
     <path d="m118.73 345.08h0.21931v-1.3498h-0.21931v1.3498z"/>
    </g>
    <g>
     <path d="m118.91 340.16h1.7357v-0.75438h-1.7357v0.75438z" fill="#abb927"/>
     <path d="m113.48 340.16h1.751v-0.75831h-1.751v0.75831z" fill="#ff7d00"/>
     <path d="m120.88 345.71h-7.5536v7.0373h7.5536z" fill="#3a3a3a"/>
    </g>
    <g transform="matrix(-.0080706 0 0 -.0080636 133.93 316.74)">
     <path d="m2551.9-3593.3v-872.72h-935.94v872.71z" fill="none" stroke="#000" stroke-linecap="square" stroke-width=".67568"/>
    </g>
    <path d="m120.51 350.97h-1.7574l3e-3 1.0731-0.63956 5.7e-4v0.40181h-2.0614l4.8e-4 -0.40286h-0.6657v-1.0732h-1.7493v-4.6204l6.8696-0.015z" fill="#1a1a1a"/>
    <g fill="#ffac00">
     <path d="m118.93 346.34h-0.21938v1.3498h0.21938v-1.3498z"/>
     <path d="m118.44 346.34h-0.21938v1.3498h0.21938v-1.3498z"/>
     <path d="m117.94 346.34h-0.21931v1.3498h0.21931v-1.3498z"/>
     <path d="m117.42 346.34h-0.21938v1.3498h0.21938v-1.3498z"/>
     <path d="m116.93 346.34h-0.21938v1.3498h0.21938v-1.3498z"/>
     <path d="m116.43 346.34h-0.21932v1.3498h0.21932v-1.3498z"/>
     <path d="m115.91 346.34h-0.21986v1.3498h0.21986v-1.3498z"/>
     <path d="m115.42 346.34h-0.21931v1.3498h0.21931v-1.3498z"/>
    </g>
    <g>
     <path d="m115.23 351.26h-1.7357v0.75438h1.7357v-0.75438z" fill="#abb927"/>
     <path d="m120.67 351.26h-1.751v0.75831h1.751v-0.75831z" fill="#ff7d00"/>
     <path transform="matrix(.53109 0 0 .53109 66 374.35)" d="m103.34-67.181-4.5453-0.0018v1.2752l4.2565-0.0019v1.6507l-0.4201 0.01318-1e-3 9.1065-9e-3 0.0099-12.928 0.01807-9.03e-4 -9.1344-0.42012-0.01318v-1.6507l4.2317 0.0019v-1.2752l-4.3863 0.0018 0.0033 26.511 4.4112 0.0018v-1.2752l-4.2565 0.0019v-1.6507l0.4201-0.01318 0.0011-9.0518 12.937-0.0075 9.1e-4 9.0588 0.42011 0.01318v1.6507l-4.2317-0.0019v1.2752l4.5207-0.0018z" fill="#ebebeb"/>
    </g>
   </g>
   <g transform="translate(15.073 24.778)">
    <path d="m113.33 345.71h7.5536v-7.0373l-7.5536-2.3e-4z" fill="#3a3a3a"/>
    <g transform="matrix(.0080706 0 0 .0080636 100.22 374.68)">
     <path d="m2560.5-3593.3v-872.71l-935.94-0.027v872.74z" fill="none" stroke="#000" stroke-linecap="square" stroke-width=".67568"/>
    </g>
    <path d="m113.63 340.44h1.7574l-3e-3 -1.0731 0.63956-5.7e-4v-0.40181h2.0614l-4.8e-4 0.40286h0.6657v1.0732h1.7493v4.6204l-6.8696 0.015z" fill="#1a1a1a"/>
    <g fill="#ffac00">
     <path d="m115.21 345.08h0.21938v-1.3498h-0.21938v1.3498z"/>
     <path d="m115.7 345.08h0.21938v-1.3498h-0.21938v1.3498z"/>
     <path d="m116.21 345.08h0.21931v-1.3498h-0.21931v1.3498z"/>
     <path d="m116.72 345.08h0.21938v-1.3498h-0.21938v1.3498z"/>
     <path d="m117.21 345.08h0.21938v-1.3498h-0.21938v1.3498z"/>
     <path d="m117.71 345.08h0.21932v-1.3498h-0.21932v1.3498z"/>
     <path d="m118.24 345.08h0.21986v-1.3498h-0.21986v1.3498z"/>
     <path d="m118.73 345.08h0.21931v-1.3498h-0.21931v1.3498z"/>
    </g>
    <g>
     <path d="m118.91 340.16h1.7357v-0.75438h-1.7357v0.75438z" fill="#abb927"/>
     <path d="m113.48 340.16h1.751v-0.75831h-1.751v0.75831z" fill="#ff7d00"/>
     <path d="m120.88 345.71h-7.5536v7.0373h7.5536z" fill="#3a3a3a"/>
    </g>
    <g transform="matrix(-.0080706 0 0 -.0080636 133.93 316.74)">
     <path d="m2551.9-3593.3v-872.72h-935.94v872.71z" fill="none" stroke="#000" stroke-linecap="square" stroke-width=".67568"/>
    </g>
    <path d="m120.51 350.97h-1.7574l3e-3 1.0731-0.63956 5.7e-4v0.40181h-2.0614l4.8e-4 -0.40286h-0.6657v-1.0732h-1.7493v-4.6204l6.8696-0.015z" fill="#1a1a1a"/>
    <g fill="#ffac00">
     <path d="m118.93 346.34h-0.21938v1.3498h0.21938v-1.3498z"/>
     <path d="m118.44 346.34h-0.21938v1.3498h0.21938v-1.3498z"/>
     <path d="m117.94 346.34h-0.21931v1.3498h0.21931v-1.3498z"/>
     <path d="m117.42 346.34h-0.21938v1.3498h0.21938v-1.3498z"/>
     <path d="m116.93 346.34h-0.21938v1.3498h0.21938v-1.3498z"/>
     <path d="m116.43 346.34h-0.21932v1.3498h0.21932v-1.3498z"/>
     <path d="m115.91 346.34h-0.21986v1.3498h0.21986v-1.3498z"/>
     <path d="m115.42 346.34h-0.21931v1.3498h0.21931v-1.3498z"/>
    </g>
    <g>
     <path d="m115.23 351.26h-1.7357v0.75438h1.7357v-0.75438z" fill="#abb927"/>
     <path d="m120.67 351.26h-1.751v0.75831h1.751v-0.75831z" fill="#ff7d00"/>
     <path transform="matrix(.53109 0 0 .53109 66 374.35)" d="m103.34-67.181-4.5453-0.0018v1.2752l4.2565-0.0019v1.6507l-0.4201 0.01318-1e-3 9.1065-9e-3 0.0099-12.928 0.01807-9.03e-4 -9.1344-0.42012-0.01318v-1.6507l4.2317 0.0019v-1.2752l-4.3863 0.0018 0.0033 26.511 4.4112 0.0018v-1.2752l-4.2565 0.0019v-1.6507l0.4201-0.01318 0.0011-9.0518 12.937-0.0075 9.1e-4 9.0588 0.42011 0.01318v1.6507l-4.2317-0.0019v1.2752l4.5207-0.0018z" fill="#ebebeb"/>
    </g>
   </g>
  </g>
 </g>
 <g transform="matrix(1.0667 0 0 1.0667 -7.3639 -24.122)">
  <path d="m248.27 396.13h3.8469c0.0263 0 0.0474 0.0103 0.0474 0.0231v1.9454c0 0.0128-0.0211 0.0231-0.0474 0.0231h-3.8469c-0.0263 0-0.0474-0.0103-0.0474-0.0231v-1.9454c0-0.0128 0.0211-0.0231 0.0474-0.0231z"/>
  <g transform="scale(1.0397 .96177)" fill="#fff">
   <path d="m239.27 413.3h0.56308v0.24254h-0.92988v-0.24254l0.46708-0.41223q0.0626-0.0566 0.0926-0.11055 0.03-0.054 0.03-0.11228 0-0.09-0.0608-0.14483-0.06-0.0548-0.16026-0.0548-0.0771 0-0.16884 0.0334-0.0917 0.0326-0.19626 0.0977v-0.28111q0.11142-0.0368 0.22026-0.0557 0.10884-0.0197 0.2134-0.0197 0.22969 0 0.35653 0.10113 0.12769 0.10113 0.12769 0.28196 0 0.10456-0.054 0.1954-0.054 0.09-0.22711 0.24169l-0.2734 0.23996z"/>
   <path d="m240.19 413.31h0.29139v-0.82703l-0.29911 0.0617v-0.22454l0.29739-0.0617h0.31368v1.0516h0.29139v0.22797h-0.89474v-0.22797z"/>
   <path d="m241.22 412.26h1.1793v0.24939h-0.42423v1.0302h-0.32996v-1.0302h-0.42509v-0.24939z"/>
  </g>
 </g>
 <g transform="matrix(1.0667 0 0 1.0667 .68814 -24.122)">
  <path d="m248.27 396.13h3.8469c0.0263 0 0.0474 0.0103 0.0474 0.0231v1.9454c0 0.0128-0.0211 0.0231-0.0474 0.0231h-3.8469c-0.0263 0-0.0474-0.0103-0.0474-0.0231v-1.9454c0-0.0128 0.0211-0.0231 0.0474-0.0231z"/>
  <g transform="scale(1.0397 .96177)" fill="#fff">
   <path d="m239.27 413.3h0.56308v0.24254h-0.92988v-0.24254l0.46708-0.41223q0.0626-0.0566 0.0926-0.11055 0.03-0.054 0.03-0.11228 0-0.09-0.0608-0.14483-0.06-0.0548-0.16026-0.0548-0.0771 0-0.16884 0.0334-0.0917 0.0326-0.19626 0.0977v-0.28111q0.11142-0.0368 0.22026-0.0557 0.10884-0.0197 0.2134-0.0197 0.22969 0 0.35653 0.10113 0.12769 0.10113 0.12769 0.28196 0 0.10456-0.054 0.1954-0.054 0.09-0.22711 0.24169l-0.2734 0.23996z"/>
   <path d="m240.8 412.85q0.12941 0.0334 0.19626 0.11656 0.0677 0.0823 0.0677 0.20997 0 0.19026-0.14569 0.28968-0.1457 0.0986-0.42509 0.0986-0.0986 0-0.19797-0.0163-0.0986-0.0154-0.19541-0.0471v-0.25454q0.0926 0.0463 0.18341 0.0703 0.0917 0.0231 0.17997 0.0231 0.13113 0 0.20055-0.0454 0.0703-0.0454 0.0703-0.13027 0-0.0874-0.072-0.13198-0.0711-0.0454-0.21083-0.0454h-0.13199v-0.21254h0.13884q0.12427 0 0.18512-0.0386 0.0608-0.0394 0.0608-0.11913 0-0.0737-0.0591-0.11398-0.0591-0.0403-0.16713-0.0403-0.0797 0-0.16112 0.018-0.0814 0.018-0.16198 0.0531v-0.24168q0.0977-0.0274 0.19369-0.0411 0.096-0.0137 0.18855-0.0137 0.2494 0 0.37281 0.0823 0.12427 0.0814 0.12427 0.24597 0 0.11227-0.0591 0.18426-0.0591 0.0711-0.17483 0.10027z"/>
   <path d="m241.22 412.26h1.1793v0.24939h-0.42423v1.0302h-0.32996v-1.0302h-0.42509v-0.24939z"/>
  </g>
 </g>
 <g transform="matrix(1.0667 0 0 1.0667 -4.2311 -5.5478)">
  <path d="m248.27 396.13h3.8469c0.0263 0 0.0474 0.0103 0.0474 0.0231v1.9454c0 0.0128-0.0211 0.0231-0.0474 0.0231h-3.8469c-0.0263 0-0.0474-0.0103-0.0474-0.0231v-1.9454c0-0.0128 0.0211-0.0231 0.0474-0.0231z"/>
  <g transform="scale(1.0397 .96177)" fill="#fff">
   <path d="m239.27 413.3h0.56308v0.24254h-0.92988v-0.24254l0.46708-0.41223q0.0626-0.0566 0.0926-0.11055 0.03-0.054 0.03-0.11228 0-0.09-0.0608-0.14483-0.06-0.0548-0.16026-0.0548-0.0771 0-0.16884 0.0334-0.0917 0.0326-0.19626 0.0977v-0.28111q0.11142-0.0368 0.22026-0.0557 0.10884-0.0197 0.2134-0.0197 0.22969 0 0.35653 0.10113 0.12769 0.10113 0.12769 0.28196 0 0.10456-0.054 0.1954-0.054 0.09-0.22711 0.24169l-0.2734 0.23996z"/>
   <path d="m240.49 413.3h0.56307v0.24254h-0.92988v-0.24254l0.46708-0.41223q0.0626-0.0566 0.0926-0.11055 0.03-0.054 0.03-0.11228 0-0.09-0.0609-0.14483-0.06-0.0548-0.16027-0.0548-0.0771 0-0.16883 0.0334-0.0917 0.0326-0.19626 0.0977v-0.28111q0.11141-0.0368 0.22025-0.0557 0.10885-0.0197 0.21341-0.0197 0.22968 0 0.35652 0.10113 0.1277 0.10113 0.1277 0.28196 0 0.10456-0.054 0.1954-0.054 0.09-0.22712 0.24169l-0.27339 0.23996z"/>
   <path d="m241.22 412.26h1.1793v0.24939h-0.42423v1.0302h-0.32996v-1.0302h-0.42509v-0.24939z"/>
  </g>
 </g>
 <g transform="matrix(1.0667 0 0 1.0667 3.8209 -5.5478)">
  <path d="m248.27 396.13h3.8469c0.0263 0 0.0474 0.0103 0.0474 0.0231v1.9454c0 0.0128-0.0211 0.0231-0.0474 0.0231h-3.8469c-0.0263 0-0.0474-0.0103-0.0474-0.0231v-1.9454c0-0.0128 0.0211-0.0231 0.0474-0.0231z"/>
  <g transform="scale(1.0397 .96177)" fill="#fff">
   <path d="m239.27 413.3h0.56308v0.24254h-0.92988v-0.24254l0.46708-0.41223q0.0626-0.0566 0.0926-0.11055 0.03-0.054 0.03-0.11228 0-0.09-0.0608-0.14483-0.06-0.0548-0.16026-0.0548-0.0771 0-0.16884 0.0334-0.0917 0.0326-0.19626 0.0977v-0.28111q0.11142-0.0368 0.22026-0.0557 0.10884-0.0197 0.2134-0.0197 0.22969 0 0.35653 0.10113 0.12769 0.10113 0.12769 0.28196 0 0.10456-0.054 0.1954-0.054 0.09-0.22711 0.24169l-0.2734 0.23996z"/>
   <path d="m240.63 412.53-0.36167 0.53565h0.36167v-0.53565zm-0.0548-0.27167h0.36681v0.80732h0.18255v0.23911h-0.18255v0.23311h-0.31196v-0.23311h-0.56735v-0.28282l0.5125-0.76361z"/>
   <path d="m241.22 412.26h1.1793v0.24939h-0.42423v1.0302h-0.32996v-1.0302h-0.42509v-0.24939z"/>
  </g>
 </g>
 <g transform="matrix(1.0667 0 0 1.0667 11.64 -24.122)">
  <path d="m248.27 396.13h3.8469c0.0263 0 0.0474 0.0103 0.0474 0.0231v1.9454c0 0.0128-0.0211 0.0231-0.0474 0.0231h-3.8469c-0.0263 0-0.0474-0.0103-0.0474-0.0231v-1.9454c0-0.0128 0.0211-0.0231 0.0474-0.0231z"/>
  <g transform="scale(1.0397 .96177)" fill="#fff">
   <path d="m239.24 413.3h0.56307v0.24254h-0.92988v-0.24254l0.46709-0.41223q0.0626-0.0566 0.0926-0.11055 0.03-0.054 0.03-0.11228 0-0.09-0.0608-0.14483-0.06-0.0548-0.16026-0.0548-0.0771 0-0.16884 0.0334-0.0917 0.0326-0.19626 0.0977v-0.28111q0.11142-0.0368 0.22026-0.0557 0.10884-0.0197 0.2134-0.0197 0.22968 0 0.35653 0.10113 0.12769 0.10113 0.12769 0.28196 0 0.10456-0.054 0.1954-0.054 0.09-0.22711 0.24169l-0.2734 0.23996z"/>
   <path d="m240.16 413.31h0.29139v-0.82703l-0.29911 0.0617v-0.22454l0.29739-0.0617h0.31368v1.0516h0.29139v0.22797h-0.89474v-0.22797z"/>
   <path d="m242.22 412.3v0.27082q-0.10541-0.0471-0.20569-0.0711-0.10027-0.024-0.1894-0.024-0.11827 0-0.17484 0.0326-0.0566 0.0326-0.0566 0.10112 0 0.0514 0.0377 0.0806 0.0386 0.0283 0.13884 0.0488l0.14055 0.0283q0.2134 0.0428 0.30339 0.13027 0.09 0.0874 0.09 0.24854 0 0.21168-0.12598 0.31538-0.12513 0.10285-0.3831 0.10285-0.1217 0-0.24425-0.0231-0.12256-0.0231-0.24511-0.0686v-0.27854q0.12255 0.0651 0.23654 0.0986 0.11484 0.0326 0.22111 0.0326 0.10799 0 0.16541-0.036 0.0574-0.036 0.0574-0.10284 0-0.06-0.0394-0.0926-0.0386-0.0326-0.15513-0.0583l-0.12769-0.0283q-0.19198-0.0411-0.28111-0.13113-0.0883-0.09-0.0883-0.24254 0-0.19112 0.12341-0.29396t0.35481-0.10284q0.10541 0 0.21683 0.0163 0.11141 0.0154 0.23054 0.0471z"/>
  </g>
 </g>
 <g transform="matrix(1.0667 0 0 1.0667 22.753 -24.122)">
  <path d="m248.27 396.13h3.8469c0.0263 0 0.0474 0.0103 0.0474 0.0231v1.9454c0 0.0128-0.0211 0.0231-0.0474 0.0231h-3.8469c-0.0263 0-0.0474-0.0103-0.0474-0.0231v-1.9454c0-0.0128 0.0211-0.0231 0.0474-0.0231z"/>
  <g transform="scale(1.0397 .96177)" fill="#fff">
   <path d="m239.24 413.3h0.56307v0.24254h-0.92988v-0.24254l0.46709-0.41223q0.0626-0.0566 0.0926-0.11055 0.03-0.054 0.03-0.11228 0-0.09-0.0608-0.14483-0.06-0.0548-0.16026-0.0548-0.0771 0-0.16884 0.0334-0.0917 0.0326-0.19626 0.0977v-0.28111q0.11142-0.0368 0.22026-0.0557 0.10884-0.0197 0.2134-0.0197 0.22968 0 0.35653 0.10113 0.12769 0.10113 0.12769 0.28196 0 0.10456-0.054 0.1954-0.054 0.09-0.22711 0.24169l-0.2734 0.23996z"/>
   <path d="m240.77 412.85q0.12941 0.0334 0.19626 0.11656 0.0677 0.0823 0.0677 0.20997 0 0.19026-0.14569 0.28968-0.1457 0.0986-0.42509 0.0986-0.0986 0-0.19797-0.0163-0.0986-0.0154-0.19541-0.0471v-0.25454q0.0926 0.0463 0.18341 0.0703 0.0917 0.0231 0.17997 0.0231 0.13113 0 0.20055-0.0454 0.0703-0.0454 0.0703-0.13027 0-0.0874-0.072-0.13198-0.0711-0.0454-0.21083-0.0454h-0.13198v-0.21254h0.13884q0.12427 0 0.18512-0.0386 0.0608-0.0394 0.0608-0.11913 0-0.0737-0.0591-0.11398-0.0591-0.0403-0.16712-0.0403-0.0797 0-0.16112 0.018-0.0814 0.018-0.16198 0.0531v-0.24168q0.0977-0.0274 0.19369-0.0411 0.096-0.0137 0.18855-0.0137 0.24939 0 0.37281 0.0823 0.12427 0.0814 0.12427 0.24597 0 0.11227-0.0591 0.18426-0.0591 0.0711-0.17483 0.10027z"/>
   <path d="m242.22 412.3v0.27082q-0.10541-0.0471-0.20569-0.0711-0.10027-0.024-0.1894-0.024-0.11827 0-0.17484 0.0326-0.0566 0.0326-0.0566 0.10112 0 0.0514 0.0377 0.0806 0.0386 0.0283 0.13884 0.0488l0.14055 0.0283q0.2134 0.0428 0.30339 0.13027 0.09 0.0874 0.09 0.24854 0 0.21168-0.12598 0.31538-0.12513 0.10285-0.3831 0.10285-0.1217 0-0.24425-0.0231-0.12256-0.0231-0.24511-0.0686v-0.27854q0.12255 0.0651 0.23654 0.0986 0.11484 0.0326 0.22111 0.0326 0.10799 0 0.16541-0.036 0.0574-0.036 0.0574-0.10284 0-0.06-0.0394-0.0926-0.0386-0.0326-0.15513-0.0583l-0.12769-0.0283q-0.19198-0.0411-0.28111-0.13113-0.0883-0.09-0.0883-0.24254 0-0.19112 0.12341-0.29396t0.35481-0.10284q0.10541 0 0.21683 0.0163 0.11141 0.0154 0.23054 0.0471z"/>
  </g>
 </g>
 <g transform="matrix(1.0667 0 0 1.0667 11.632 -5.7527)">
  <path d="m248.27 396.13h3.8469c0.0263 0 0.0474 0.0103 0.0474 0.0231v1.9454c0 0.0128-0.0211 0.0231-0.0474 0.0231h-3.8469c-0.0263 0-0.0474-0.0103-0.0474-0.0231v-1.9454c0-0.0128 0.0211-0.0231 0.0474-0.0231z"/>
  <g transform="scale(1.0397 .96177)" fill="#fff">
   <path d="m239.24 413.3h0.56307v0.24254h-0.92988v-0.24254l0.46709-0.41223q0.0626-0.0566 0.0926-0.11055 0.03-0.054 0.03-0.11228 0-0.09-0.0608-0.14483-0.06-0.0548-0.16026-0.0548-0.0771 0-0.16884 0.0334-0.0917 0.0326-0.19626 0.0977v-0.28111q0.11142-0.0368 0.22026-0.0557 0.10884-0.0197 0.2134-0.0197 0.22968 0 0.35653 0.10113 0.12769 0.10113 0.12769 0.28196 0 0.10456-0.054 0.1954-0.054 0.09-0.22711 0.24169l-0.2734 0.23996z"/>
   <path d="m240.46 413.3h0.56307v0.24254h-0.92988v-0.24254l0.46708-0.41223q0.0626-0.0566 0.0926-0.11055 0.03-0.054 0.03-0.11228 0-0.09-0.0608-0.14483-0.06-0.0548-0.16027-0.0548-0.0771 0-0.16883 0.0334-0.0917 0.0326-0.19626 0.0977v-0.28111q0.11141-0.0368 0.22025-0.0557 0.10885-0.0197 0.2134-0.0197 0.22969 0 0.35653 0.10113 0.1277 0.10113 0.1277 0.28196 0 0.10456-0.054 0.1954-0.054 0.09-0.22711 0.24169l-0.27339 0.23996z"/>
   <path d="m242.22 412.3v0.27082q-0.10541-0.0471-0.20569-0.0711-0.10027-0.024-0.1894-0.024-0.11827 0-0.17484 0.0326-0.0566 0.0326-0.0566 0.10112 0 0.0514 0.0377 0.0806 0.0386 0.0283 0.13884 0.0488l0.14055 0.0283q0.2134 0.0428 0.30339 0.13027 0.09 0.0874 0.09 0.24854 0 0.21168-0.12598 0.31538-0.12513 0.10285-0.3831 0.10285-0.1217 0-0.24425-0.0231-0.12256-0.0231-0.24511-0.0686v-0.27854q0.12255 0.0651 0.23654 0.0986 0.11484 0.0326 0.22111 0.0326 0.10799 0 0.16541-0.036 0.0574-0.036 0.0574-0.10284 0-0.06-0.0394-0.0926-0.0386-0.0326-0.15513-0.0583l-0.12769-0.0283q-0.19198-0.0411-0.28111-0.13113-0.0883-0.09-0.0883-0.24254 0-0.19112 0.12341-0.29396t0.35481-0.10284q0.10541 0 0.21683 0.0163 0.11141 0.0154 0.23054 0.0471z"/>
  </g>
 </g>
 <g transform="matrix(1.0667 0 0 1.0667 22.818 -5.7527)">
  <path d="m248.27 396.13h3.8469c0.0263 0 0.0474 0.0103 0.0474 0.0231v1.9454c0 0.0128-0.0211 0.0231-0.0474 0.0231h-3.8469c-0.0263 0-0.0474-0.0103-0.0474-0.0231v-1.9454c0-0.0128 0.0211-0.0231 0.0474-0.0231z"/>
  <g transform="scale(1.0397 .96177)" fill="#fff">
   <path d="m239.24 413.3h0.56307v0.24254h-0.92988v-0.24254l0.46709-0.41223q0.0626-0.0566 0.0926-0.11055 0.03-0.054 0.03-0.11228 0-0.09-0.0608-0.14483-0.06-0.0548-0.16026-0.0548-0.0771 0-0.16884 0.0334-0.0917 0.0326-0.19626 0.0977v-0.28111q0.11142-0.0368 0.22026-0.0557 0.10884-0.0197 0.2134-0.0197 0.22968 0 0.35653 0.10113 0.12769 0.10113 0.12769 0.28196 0 0.10456-0.054 0.1954-0.054 0.09-0.22711 0.24169l-0.2734 0.23996z"/>
   <path d="m240.6 412.53-0.36167 0.53565h0.36167v-0.53565zm-0.0548-0.27167h0.36681v0.80732h0.18255v0.23911h-0.18255v0.23311h-0.31196v-0.23311h-0.56735v-0.28282l0.5125-0.76361z"/>
   <path d="m242.22 412.3v0.27082q-0.10541-0.0471-0.20569-0.0711-0.10027-0.024-0.1894-0.024-0.11827 0-0.17484 0.0326-0.0566 0.0326-0.0566 0.10112 0 0.0514 0.0377 0.0806 0.0386 0.0283 0.13884 0.0488l0.14055 0.0283q0.2134 0.0428 0.30339 0.13027 0.09 0.0874 0.09 0.24854 0 0.21168-0.12598 0.31538-0.12513 0.10285-0.3831 0.10285-0.1217 0-0.24425-0.0231-0.12256-0.0231-0.24511-0.0686v-0.27854q0.12255 0.0651 0.23654 0.0986 0.11484 0.0326 0.22111 0.0326 0.10799 0 0.16541-0.036 0.0574-0.036 0.0574-0.10284 0-0.06-0.0394-0.0926-0.0386-0.0326-0.15513-0.0583l-0.12769-0.0283q-0.19198-0.0411-0.28111-0.13113-0.0883-0.09-0.0883-0.24254 0-0.19112 0.12341-0.29396t0.35481-0.10284q0.10541 0 0.21683 0.0163 0.11141 0.0154 0.23054 0.0471z"/>
  </g>
 </g>
 <g transform="scale(1.0667)" fill="#fff" stroke-width="1px">
  <path d="m79.272 375.09h0.74468v0.32077h-1.2298v-0.32077l0.61773-0.54518q0.08274-0.0748 0.12241-0.14622 0.03967-0.0714 0.03967-0.14848 0-0.11901-0.08047-0.19155-0.07934-0.0726-0.21196-0.0726-0.10201 0-0.22329 0.0442-0.12128 0.0431-0.25956 0.12921v-0.37177q0.14735-0.0487 0.2913-0.0737 0.14395-0.0261 0.28223-0.0261 0.30376 0 0.47152 0.13374 0.16888 0.13375 0.16888 0.37291 0 0.13828-0.07141 0.25843-0.07141 0.11901-0.30036 0.31963l-0.36157 0.31736z"/>
  <path d="m80.44 373.72h1.0847v0.32077h-0.73674v0.26182q0.04987-0.0136 0.09974-0.0204 0.051-8e-3 0.10541-8e-3 0.30943 0 0.48172 0.15528 0.17228 0.15415 0.17228 0.43071 0 0.2743-0.18815 0.42958-0.18702 0.15528-0.52025 0.15528-0.14395 0-0.28563-0.0283-0.14055-0.0272-0.27996-0.0839v-0.34344q0.13828 0.0793 0.26183 0.11902 0.12468 0.0397 0.23462 0.0397 0.15868 0 0.24936-0.0771 0.09181-0.0782 0.09181-0.21082 0-0.13375-0.09181-0.21082-0.09068-0.0771-0.24936-0.0771-0.09408 0-0.20062 0.0249-0.10654 0.0238-0.22896 0.0748v-0.9521z"/>
  <path d="m82.454 375.09h0.74468v0.32077h-1.2298v-0.32077l0.61773-0.54518q0.08274-0.0748 0.12241-0.14622 0.03967-0.0714 0.03967-0.14848 0-0.11901-0.08048-0.19155-0.07934-0.0726-0.21196-0.0726-0.10201 0-0.22329 0.0442-0.12128 0.0431-0.25956 0.12921v-0.37177q0.14735-0.0487 0.2913-0.0737 0.14395-0.0261 0.28223-0.0261 0.30376 0 0.47152 0.13374 0.16888 0.13375 0.16888 0.37291 0 0.13828-0.07141 0.25843-0.07141 0.11901-0.30036 0.31963l-0.36157 0.31736z"/>
  <path d="m84.444 374.56q0-0.31737-0.06007-0.44658-0.05894-0.13035-0.19949-0.13035-0.14055 0-0.20062 0.13035-0.06007 0.12921-0.06007 0.44658 0 0.32077 0.06007 0.45225t0.20062 0.13148q0.13941 0 0.19949-0.13148 0.06007-0.13148 0.06007-0.45225zm0.43638 3e-3q0 0.42051-0.18135 0.64947-0.18135 0.22782-0.51459 0.22782-0.33437 0-0.51572-0.22782-0.18135-0.22896-0.18135-0.64947 0-0.42164 0.18135-0.64947 0.18135-0.22895 0.51572-0.22895 0.33323 0 0.51459 0.22895 0.18135 0.22783 0.18135 0.64947z"/>
  <path d="m85.093 374.58h0.71181v0.32983h-0.71181v-0.32983z"/>
  <path d="m86.578 375.09h0.74468v0.32077h-1.2298v-0.32077l0.61773-0.54518q0.08274-0.0748 0.12241-0.14622 0.03967-0.0714 0.03967-0.14848 0-0.11901-0.08048-0.19155-0.07934-0.0726-0.21196-0.0726-0.10201 0-0.22329 0.0442-0.12128 0.0431-0.25956 0.12921v-0.37177q0.14735-0.0487 0.2913-0.0737 0.14395-0.0261 0.28223-0.0261 0.30376 0 0.47152 0.13374 0.16888 0.13375 0.16888 0.37291 0 0.13828-0.07141 0.25843-0.07141 0.11901-0.30036 0.31963l-0.36157 0.31736z"/>
  <path d="m88.355 374.08-0.47832 0.70841h0.47832v-0.70841zm-0.07254-0.3593h0.48512v1.0677h0.24142v0.31623h-0.24142v0.3083h-0.41258v-0.3083h-0.75034v-0.37404l0.6778-1.0099z"/>
  <path d="m90.825 375.29q-0.16322 0.0793-0.3389 0.11901-0.17568 0.0397-0.3627 0.0397-0.42278 0-0.66987-0.23576-0.24709-0.23689-0.24709-0.64153 0-0.40917 0.25163-0.6438 0.25163-0.23462 0.68914-0.23462 0.16888 0 0.32303 0.0317 0.15528 0.0317 0.29243 0.0941v0.35024q-0.14168-0.0805-0.28223-0.12015-0.13941-0.0397-0.27996-0.0397-0.26069 0-0.40237 0.14621-0.14055 0.14509-0.14055 0.41598 0 0.26863 0.13601 0.41484 0.13601 0.14622 0.38651 0.14622 0.06801 0 0.12581-8e-3 0.05894-9e-3 0.10541-0.0272v-0.3287h-0.26636v-0.29243h0.68007v0.81382z"/>
 </g>
 <g transform="scale(1.0667)" stroke-width="1px">
  <path d="m196.68 372.13v0.38627h0.17489q0.0971 0 0.1501-0.0503t0.053-0.14322q0-0.0923-0.053-0.14253-0.053-0.0503-0.1501-0.0503h-0.17489zm-0.13909-0.1143h0.31398q0.17282 0 0.26095 0.0785 0.0888 0.0778 0.0888 0.22859 0 0.15217-0.0888 0.22998-0.0881 0.0778-0.26095 0.0778h-0.17489v0.41313h-0.13909v-1.028z" style=""/>
  <path d="m197.62 372.36q-0.1019 0-0.16112 0.0799-0.0592 0.0792-0.0592 0.21758 0 0.1384 0.0585 0.21827 0.0592 0.0792 0.16181 0.0792 0.10122 0 0.16043-0.0799 0.0592-0.0799 0.0592-0.21758 0-0.13702-0.0592-0.21689-0.0592-0.0806-0.16043-0.0806zm0-0.10741q0.16525 0 0.25958 0.10741 0.0943 0.10741 0.0943 0.29745 0 0.18935-0.0943 0.29745-0.0943 0.10741-0.25958 0.10741-0.16594 0-0.26027-0.10741-0.0936-0.1081-0.0936-0.29745 0-0.19004 0.0936-0.29745 0.0943-0.10741 0.26027-0.10741z" style=""/>
  <path d="m198.17 372.01h0.64998v0.11705h-0.5109v0.30434h0.48955v0.11705h-0.48955v0.3725h0.52329v0.11706h-0.66237v-1.028z" style=""/>
  <path d="m199.49 372.01h0.13909v1.028h-0.13909v-1.028z" style=""/>
  <path d="m200.52 372.58v0.46546h-0.1267v-0.46133q0-0.10948-0.0427-0.16387-0.0427-0.0544-0.12807-0.0544-0.10259 0-0.1618 0.0654-0.0592 0.0654-0.0592 0.17833v0.43585h-0.12738v-0.77117h0.12738v0.1198q0.0454-0.0695 0.10673-0.10397 0.062-0.0344 0.14253-0.0344 0.13288 0 0.20105 0.0826 0.0682 0.0819 0.0682 0.24168z" style=""/>
  <path d="m200.89 372.05v0.21896h0.26096v0.0985h-0.26096v0.41863q0 0.0943 0.0255 0.12119 0.0262 0.0268 0.10534 0.0268h0.13014v0.10604h-0.13014q-0.14666 0-0.20243-0.0544-0.0558-0.0551-0.0558-0.19968v-0.41863h-0.093v-0.0985h0.093v-0.21896h0.12738z" style=""/>
  <path d="m201.96 372.62v0.062h-0.58251q8e-3 0.13082 0.0785 0.19968 0.0709 0.0682 0.19693 0.0682 0.073 0 0.14115-0.0179 0.0688-0.0179 0.13633-0.0537v0.11981q-0.0682 0.0289-0.13978 0.0441-0.0716 0.0151-0.14528 0.0151-0.18453 0-0.29263-0.10741-0.10741-0.10741-0.10741-0.29056 0-0.18935 0.1019-0.30021 0.1026-0.11154 0.27611-0.11154 0.15561 0 0.24581 0.10052 0.0909 0.0998 0.0909 0.27198zm-0.1267-0.0372q-1e-3 -0.10397-0.0585-0.16594-0.0565-0.062-0.1501-0.062-0.10604 0-0.17007 0.0599-0.0634 0.0599-0.073 0.1687l0.45168-6.9e-4z" style=""/>
  <path d="m202.66 372.65q0-0.13771-0.0572-0.21345-0.0565-0.0757-0.15905-0.0757-0.10191 0-0.15906 0.0757-0.0565 0.0757-0.0565 0.21345 0 0.13702 0.0565 0.21276 0.0571 0.0757 0.15906 0.0757 0.10259 0 0.15905-0.0757 0.0572-0.0757 0.0572-0.21276zm0.12669 0.29883q0 0.19692-0.0874 0.29263-0.0874 0.0964-0.26785 0.0964-0.0668 0-0.126-0.0103-0.0592-0.01-0.11499-0.0303v-0.12325q0.0558 0.0303 0.11017 0.0448 0.0544 0.0145 0.11086 0.0145 0.12462 0 0.18659-0.0654 0.062-0.0647 0.062-0.19623v-0.0627q-0.0393 0.0682-0.10053 0.10191-0.0613 0.0337-0.14666 0.0337-0.14184 0-0.22859-0.10811-0.0868-0.1081-0.0868-0.28643 0-0.17902 0.0868-0.28712 0.0867-0.1081 0.22859-0.1081 0.0854 0 0.14666 0.0337 0.0613 0.0337 0.10053 0.1019v-0.11705h0.12669v0.67546z" style=""/>
  <path d="m203.48 372.39q-0.0213-0.0124-0.0468-0.0179-0.0248-6e-3 -0.0551-6e-3 -0.10742 0-0.16525 0.0702-0.0572 0.0695-0.0572 0.20037v0.40624h-0.12738v-0.77117h0.12738v0.1198q0.0399-0.0702 0.10397-0.10397 0.064-0.0344 0.15561-0.0344 0.0131 0 0.0289 2e-3 0.0158 1e-3 0.0351 5e-3l6.9e-4 0.13014z" style=""/>
  <path d="m204.23 372.62v0.062h-0.5825q8e-3 0.13082 0.0785 0.19968 0.0709 0.0682 0.19692 0.0682 0.073 0 0.14115-0.0179 0.0689-0.0179 0.13634-0.0537v0.11981q-0.0682 0.0289-0.13978 0.0441-0.0716 0.0151-0.14528 0.0151-0.18453 0-0.29263-0.10741-0.10741-0.10741-0.10741-0.29056 0-0.18935 0.1019-0.30021 0.10259-0.11154 0.27611-0.11154 0.15561 0 0.24581 0.10052 0.0909 0.0998 0.0909 0.27198zm-0.12669-0.0372q-1e-3 -0.10397-0.0585-0.16594-0.0565-0.062-0.15011-0.062-0.10603 0-0.17007 0.0599-0.0633 0.0599-0.073 0.1687l0.45168-6.9e-4z" style=""/>
  <path d="m204.94 372.39v-0.41726h0.12669v1.0714h-0.12669v-0.11568q-0.0399 0.0688-0.10122 0.10259-0.0606 0.033-0.14597 0.033-0.13977 0-0.22791-0.11154-0.0874-0.11154-0.0874-0.29332 0-0.18177 0.0874-0.29332 0.0881-0.11154 0.22791-0.11154 0.0854 0 0.14597 0.0337 0.0613 0.0331 0.10122 0.1019zm-0.43172 0.26922q0 0.13977 0.0572 0.21965 0.0578 0.0792 0.15836 0.0792 0.10053 0 0.15837-0.0792 0.0578-0.0799 0.0578-0.21965 0-0.13977-0.0578-0.21896-0.0578-0.0799-0.15837-0.0799-0.10052 0-0.15836 0.0799-0.0572 0.0792-0.0572 0.21896z" style=""/>
  <path d="m205.79 372.92h0.22722v-0.78425l-0.24718 0.0496v-0.12669l0.24581-0.0496h0.13908v0.91094h0.22722v0.11706h-0.59215v-0.11706z" style=""/>
  <path d="m206.94 372.1q-0.10741 0-0.1618 0.10603-0.0537 0.10535-0.0537 0.31742 0 0.21138 0.0537 0.31742 0.0544 0.10535 0.1618 0.10535 0.1081 0 0.16181-0.10535 0.0544-0.10604 0.0544-0.31742 0-0.21207-0.0544-0.31742-0.0537-0.10603-0.16181-0.10603zm0-0.11017q0.17283 0 0.26371 0.13702 0.0916 0.13633 0.0916 0.3966 0 0.25958-0.0916 0.3966-0.0909 0.13633-0.26371 0.13633-0.17282 0-0.2644-0.13633-0.0909-0.13702-0.0909-0.3966 0-0.26027 0.0909-0.3966 0.0916-0.13702 0.2644-0.13702z" style=""/>
  <path d="m207.74 372.01h0.11705l-0.35804 1.1588h-0.11705l0.35804-1.1588z" style=""/>
  <path d="m208.02 372.92h0.22722v-0.78425l-0.24719 0.0496v-0.12669l0.24581-0.0496h0.13909v0.91094h0.22721v0.11706h-0.59214v-0.11706z" style=""/>
  <path d="m209.17 372.1q-0.10742 0-0.16181 0.10603-0.0537 0.10535-0.0537 0.31742 0 0.21138 0.0537 0.31742 0.0544 0.10535 0.16181 0.10535 0.1081 0 0.1618-0.10535 0.0544-0.10604 0.0544-0.31742 0-0.21207-0.0544-0.31742-0.0537-0.10603-0.1618-0.10603zm0-0.11017q0.17282 0 0.26371 0.13702 0.0916 0.13633 0.0916 0.3966 0 0.25958-0.0916 0.3966-0.0909 0.13633-0.26371 0.13633-0.17283 0-0.2644-0.13633-0.0909-0.13702-0.0909-0.3966 0-0.26027 0.0909-0.3966 0.0916-0.13702 0.2644-0.13702z" style=""/>
  <path d="m210.06 372.1q-0.10741 0-0.1618 0.10603-0.0537 0.10535-0.0537 0.31742 0 0.21138 0.0537 0.31742 0.0544 0.10535 0.1618 0.10535 0.10811 0 0.16181-0.10535 0.0544-0.10604 0.0544-0.31742 0-0.21207-0.0544-0.31742-0.0537-0.10603-0.16181-0.10603zm0-0.11017q0.17283 0 0.26372 0.13702 0.0916 0.13633 0.0916 0.3966 0 0.25958-0.0916 0.3966-0.0909 0.13633-0.26372 0.13633t-0.2644-0.13633q-0.0909-0.13702-0.0909-0.3966 0-0.26027 0.0909-0.3966 0.0916-0.13702 0.2644-0.13702z" style=""/>
  <path d="m210.85 372.01h0.11706l-0.35805 1.1588h-0.11705l0.35804-1.1588z" style=""/>
  <path d="m211.13 372.92h0.22722v-0.78425l-0.24719 0.0496v-0.12669l0.24581-0.0496h0.13909v0.91094h0.22722v0.11706h-0.59215v-0.11706z" style=""/>
  <path d="m212.29 372.1q-0.10741 0-0.16181 0.10603-0.0537 0.10535-0.0537 0.31742 0 0.21138 0.0537 0.31742 0.0544 0.10535 0.16181 0.10535 0.1081 0 0.16181-0.10535 0.0544-0.10604 0.0544-0.31742 0-0.21207-0.0544-0.31742-0.0537-0.10603-0.16181-0.10603zm0-0.11017q0.17282 0 0.26371 0.13702 0.0916 0.13633 0.0916 0.3966 0 0.25958-0.0916 0.3966-0.0909 0.13633-0.26371 0.13633-0.17282 0-0.2644-0.13633-0.0909-0.13702-0.0909-0.3966 0-0.26027 0.0909-0.3966 0.0916-0.13702 0.2644-0.13702z" style=""/>
  <path d="m213.17 372.1q-0.10742 0-0.16181 0.10603-0.0537 0.10535-0.0537 0.31742 0 0.21138 0.0537 0.31742 0.0544 0.10535 0.16181 0.10535 0.1081 0 0.1618-0.10535 0.0544-0.10604 0.0544-0.31742 0-0.21207-0.0544-0.31742-0.0537-0.10603-0.1618-0.10603zm0-0.11017q0.17282 0 0.26371 0.13702 0.0916 0.13633 0.0916 0.3966 0 0.25958-0.0916 0.3966-0.0909 0.13633-0.26371 0.13633-0.17283 0-0.2644-0.13633-0.0909-0.13702-0.0909-0.3966 0-0.26027 0.0909-0.3966 0.0916-0.13702 0.2644-0.13702z" style=""/>
  <path d="m214.05 372.1q-0.10741 0-0.1618 0.10603-0.0537 0.10535-0.0537 0.31742 0 0.21138 0.0537 0.31742 0.0544 0.10535 0.1618 0.10535 0.10811 0 0.16181-0.10535 0.0544-0.10604 0.0544-0.31742 0-0.21207-0.0544-0.31742-0.0537-0.10603-0.16181-0.10603zm0-0.11017q0.17283 0 0.26372 0.13702 0.0916 0.13633 0.0916 0.3966 0 0.25958-0.0916 0.3966-0.0909 0.13633-0.26372 0.13633t-0.2644-0.13633q-0.0909-0.13702-0.0909-0.3966 0-0.26027 0.0909-0.3966 0.0916-0.13702 0.2644-0.13702z" style=""/>
  <path d="m215.2 372.13v0.38627h0.17489q0.0971 0 0.1501-0.0503t0.053-0.14322q0-0.0923-0.053-0.14253-0.053-0.0503-0.1501-0.0503h-0.17489zm-0.13908-0.1143h0.31397q0.17283 0 0.26096 0.0785 0.0888 0.0778 0.0888 0.22859 0 0.15217-0.0888 0.22998-0.0881 0.0778-0.26096 0.0778h-0.17489v0.41313h-0.13908v-1.028z" style=""/>
  <path d="m216.14 372.36q-0.10191 0-0.16112 0.0799-0.0592 0.0792-0.0592 0.21758 0 0.1384 0.0585 0.21827 0.0592 0.0792 0.16181 0.0792 0.10121 0 0.16043-0.0799 0.0592-0.0799 0.0592-0.21758 0-0.13702-0.0592-0.21689-0.0592-0.0806-0.16043-0.0806zm0-0.10741q0.16525 0 0.25958 0.10741 0.0943 0.10741 0.0943 0.29745 0 0.18935-0.0943 0.29745-0.0943 0.10741-0.25958 0.10741-0.16594 0-0.26027-0.10741-0.0936-0.1081-0.0936-0.29745 0-0.19004 0.0936-0.29745 0.0943-0.10741 0.26027-0.10741z" style=""/>
  <path d="m217.14 372.39q-0.0213-0.0124-0.0468-0.0179-0.0248-6e-3 -0.0551-6e-3 -0.10741 0-0.16525 0.0702-0.0572 0.0695-0.0572 0.20037v0.40624h-0.12738v-0.77117h0.12738v0.1198q0.0399-0.0702 0.10397-0.10397 0.064-0.0344 0.15561-0.0344 0.0131 0 0.0289 2e-3 0.0158 1e-3 0.0351 5e-3l6.9e-4 0.13014z" style=""/>
  <path d="m217.39 372.05v0.21896h0.26095v0.0985h-0.26095v0.41863q0 0.0943 0.0255 0.12119 0.0262 0.0268 0.10535 0.0268h0.13013v0.10604h-0.13013q-0.14666 0-0.20243-0.0544-0.0558-0.0551-0.0558-0.19968v-0.41863h-0.093v-0.0985h0.093v-0.21896h0.12738z" style=""/>
  <path d="m218.29 372.29v0.11981q-0.0537-0.0275-0.11155-0.0413-0.0578-0.0138-0.1198-0.0138-0.0943 0-0.14184 0.0289-0.0468 0.0289-0.0468 0.0868 0 0.0441 0.0337 0.0695 0.0337 0.0248 0.13565 0.0475l0.0434 0.01q0.13496 0.0289 0.19142 0.0819 0.0572 0.0523 0.0572 0.14666 0 0.10741-0.0854 0.17007-0.0847 0.0626-0.23342 0.0626-0.062 0-0.12944-0.0124-0.0668-0.0117-0.14115-0.0358v-0.13083q0.0702 0.0365 0.13839 0.0551 0.0682 0.0179 0.13496 0.0179 0.0895 0 0.13771-0.0303 0.0482-0.031 0.0482-0.0867 0-0.0516-0.0351-0.0792-0.0344-0.0275-0.15217-0.053l-0.0441-0.0103q-0.11774-0.0248-0.17007-0.0757-0.0523-0.0516-0.0523-0.14115 0-0.10879 0.0771-0.16801 0.0771-0.0592 0.21896-0.0592 0.0702 0 0.1322 0.0103t0.1143 0.031z" style=""/>
  <path d="m219.26 371.97q-0.0923 0.15837-0.13702 0.31329-0.0448 0.15492-0.0448 0.31397 0 0.15906 0.0448 0.31536 0.0454 0.15561 0.13702 0.31328h-0.11016q-0.10329-0.16181-0.15493-0.3181-0.051-0.1563-0.051-0.31054 0-0.15354 0.051-0.30915t0.15493-0.31811h0.11016z" style=""/>
  <path d="m219.53 372.92h0.22722v-0.78425l-0.24719 0.0496v-0.12669l0.24581-0.0496h0.13909v0.91094h0.22722v0.11706h-0.59215v-0.11706z" style=""/>
  <path d="m220.31 372.6h0.37113v0.11292h-0.37113v-0.11292z" style=""/>
  <path d="m221.01 372.92h0.48542v0.11706h-0.65274v-0.11706q0.0792-0.0819 0.21551-0.21964 0.13702-0.1384 0.17214-0.17833 0.0668-0.075 0.093-0.1267 0.0269-0.0523 0.0269-0.10259 0-0.0819-0.0578-0.13358-0.0572-0.0516-0.14942-0.0516-0.0654 0-0.13839 0.0227-0.0723 0.0227-0.15492 0.0688v-0.14046q0.084-0.0337 0.15698-0.051 0.073-0.0172 0.13358-0.0172 0.15974 0 0.25476 0.0799 0.095 0.0799 0.095 0.21345 0 0.0633-0.0241 0.1205-0.0234 0.0565-0.0861 0.13357-0.0172 0.02-0.10948 0.11568-0.0923 0.095-0.26026 0.26646z" style=""/>
  <path d="m222.16 372.13-0.35116 0.54876h0.35116v-0.54876zm-0.0365-0.12119h0.17489v0.66995h0.14666v0.11568h-0.14666v0.24237h-0.13839v-0.24237h-0.46408v-0.13427l0.42758-0.65136z" style=""/>
  <path d="m222.62 371.97h0.11016q0.10328 0.1625 0.15424 0.31811 0.0516 0.15561 0.0516 0.30915 0 0.15424-0.0516 0.31054-0.051 0.15629-0.15424 0.3181h-0.11016q0.0916-0.15767 0.13633-0.31328 0.0454-0.1563 0.0454-0.31536 0-0.15905-0.0454-0.31397-0.0448-0.15492-0.13633-0.31329z" style=""/>
 </g>
</svg>
