<svg width="254" height="44.5" version="1.1" viewBox="66 376 254 44.5" xmlns="http://www.w3.org/2000/svg"><rect x="66.313" y="376.31" width="253.37" height="43.874" fill="#4d4d4d" stroke-width="1.5662"/><rect x="66.313" y="376.31" width="253.37" height="43.874" fill="#4d4d4d" stroke="#000" stroke-width=".62647"/><rect x="87.826" y="377.06" width="231.16" height="42.386" rx=".70907" ry="1.1996" fill="#e7e7e7" stroke-width="1.5371"/><rect x="87.826" y="377.06" width="231.16" height="42.386" rx=".70907" ry="1.1996" fill="#e7e7e7" stroke="#e7e7e7" stroke-linejoin="round" stroke-width=".30743"/><polygon transform="matrix(2.8639 0 0 3.1383 -126.24 -827.46)" points="68.589 392.59 73.389 392.59 73.389 395.19 71.989 395.19 71.989 395.79 71.589 395.79 71.589 396.19 70.389 396.19 70.389 395.79 69.989 395.79 69.989 395.19 68.589 395.19"/><polygon transform="matrix(2.8639 0 0 3.1383 -126.24 -827.46)" points="68.589 392.59 73.389 392.59 73.389 395.19 71.989 395.19 71.989 395.79 71.589 395.79 71.589 396.19 70.389 396.19 70.389 395.79 69.989 395.79 69.989 395.19 68.589 395.19" fill="none" stroke="#7f7f7f" stroke-width=".2"/><rect x="216.67" y="387.36" width="102.15" height="31.898" rx=".70907" ry="1.1996" fill="#4d4d4d" stroke-width="1.5371"/><path d="m225.2 411.08h14.232v-13.205l-14.232-4.4e-4z" fill="#3a3a3a" stroke-width="1.8867"/><path d="m239.42 411.09v-13.205l-14.232-4e-4v13.205z" fill="none" stroke="#000" stroke-linecap="square" stroke-width=".010249"/><g stroke-width="1.8867"><path d="m225.76 401.21h3.3112l-6e-3 -2.0137 1.205-9.9e-4v-0.754h3.884l-9e-4 0.75595h1.2543v2.0139h3.2959v8.6699l-12.943 0.0282z" fill="#1a1a1a"/><path d="m235.7 400.68h3.2703v-1.4156h-3.2703z" fill="#abb927"/><path d="m225.46 400.68h3.2991v-1.4229h-3.2991z" fill="#abb927"/><path d="m225.2 411.1-2e-3 -13.21 4.389-2e-3v1.2708l-4.2344-2e-3v1.645l0.42039 0.0131 9e-4 9.103 12.937-0.0189 9e-3 -9e-3 1e-3 -9.0752 0.42037-0.0131v-1.645l-4.2593 2e-3v-1.2708l4.5481 2e-3 2e-3 13.21" fill="#ebebeb"/><path d="m243.41 411.08h14.232v-13.205l-14.232-4.4e-4z" fill="#3a3a3a"/></g><path d="m257.63 411.09v-13.205l-14.232-4e-4v13.205z" fill="none" stroke="#000" stroke-linecap="square" stroke-width=".010249"/><g stroke-width="1.8867"><path d="m243.97 401.21h3.3112l-6e-3 -2.0137 1.205-9.9e-4v-0.754h3.884l-9.1e-4 0.75595h1.2543v2.0139h3.2959v8.6699l-12.943 0.0282z" fill="#1a1a1a"/><path d="m253.91 400.68h3.2703v-1.4156h-3.2703z" fill="#abb927"/><path d="m243.67 400.68h3.2991v-1.4229h-3.2991z" fill="#abb927"/><path d="m243.41 411.1-2e-3 -13.21 4.389-2e-3v1.2708l-4.2344-2e-3v1.645l0.42039 0.0131 9e-4 9.103 12.937-0.0189 9e-3 -9e-3 9.9e-4 -9.0752 0.42037-0.0131v-1.645l-4.2593 2e-3v-1.2708l4.5481 2e-3 2e-3 13.21" fill="#ebebeb"/></g><g stroke-width="1.8861"><rect x="74.929" y="389.51" width="11.49" height="2.1423" rx=".59548" ry=".29186" fill="#00ff1f"/><rect x="74.929" y="393.4" width="11.49" height="2.1423" rx=".59548" ry=".29186" fill="#838383"/><ellipse cx="80.63" cy="398.96" rx="1.4376" ry="1.4431" fill="#838383"/><rect x="88.927" y="378.28" width="28.967" height="15.617" rx="1.673" ry="1.7844" fill="#1e90ff"/></g><rect x="69.216" y="378.81" width="14.324" height="8.6072" rx=".31626" ry=".155" fill="#e6e6e6" stroke="#333" stroke-linejoin="round" stroke-width=".4008"/><g fill="#fff" stroke-width="1.8861"><path d="m90.238 383.38h0.9398q0.41915 0 0.64271 0.17371 0.22503 0.1722 0.22503 0.49225 0 0.32133-0.22503 0.495-0.22354 0.1722-0.64271 0.1722h-0.37357v0.70829h-0.56622v-2.0416zm0.56622 0.38151v0.57019h0.31326q0.16472 0 0.25443-0.0739 0.08971-0.0752 0.08971-0.21195 0-0.13667-0.08971-0.21056-0.08974-0.0739-0.25443-0.0739z"/><path d="m93.203 384.2q-0.17502 0-0.26767 0.11758-0.0912 0.11625-0.0912 0.33638 0 0.22014 0.0912 0.33774 0.09266 0.11625 0.26767 0.11625 0.17208 0 0.26325-0.11625 0.0912-0.11777 0.0912-0.33774 0-0.22014-0.0912-0.33638-0.0912-0.11758-0.26325-0.11758zm0-0.35003q0.42504 0 0.66328 0.21329 0.23974 0.21332 0.23974 0.5907 0 0.3774-0.23974 0.59072-0.23825 0.21329-0.66328 0.21329-0.4265 0-0.6677-0.21329-0.23974-0.21332-0.23974-0.59072 0-0.37738 0.23974-0.5907 0.2412-0.21329 0.6677-0.21329z"/><path d="m94.514 383.38h1.5281v0.39792h-0.96184v0.38012h0.90449v0.39788h-0.90449v0.46764h0.99421v0.39792h-1.5604z"/><path d="m101.67 383.43v0.43211q-0.18088-0.075-0.35296-0.11343-0.1721-0.0384-0.32503-0.0384-0.20297 0-0.30003 0.052-0.0971 0.052-0.0971 0.16125 0 0.082 0.0647 0.12854 0.0662 0.0452 0.23825 0.0781l0.24121 0.0452q0.36622 0.0684 0.52063 0.20784 0.15444 0.13951 0.15444 0.39652 0 0.33774-0.21619 0.50319-0.21473 0.16408-0.65743 0.16408-0.20884 0-0.41914-0.0369-0.21029-0.0369-0.42063-0.10945v-0.44439q0.21032 0.10379 0.40593 0.15727 0.19706 0.052 0.37942 0.052 0.18532 0 0.28385-0.0575 0.0986-0.0575 0.0986-0.16407 0-0.0956-0.0676-0.14764-0.0662-0.052-0.26621-0.093l-0.21913-0.0452q-0.32944-0.0656-0.48239-0.20921-0.15147-0.14348-0.15147-0.38696 0-0.30493 0.21178-0.469 0.21178-0.16408 0.60888-0.16408 0.18089 0 0.37208 0.0261 0.19119 0.0246 0.39562 0.0752z"/><path d="m102.14 383.89h0.5118l0.27649 1.0556 0.27796-1.0556h0.43975l0.27649 1.0446 0.27795-1.0446h0.51181l-0.43386 1.5314h-0.57504l-0.27796-1.0528-0.27649 1.0528h-0.57505z"/><path d="m105.07 383.89h0.52652v1.5314h-0.52652zm0-0.59617h0.52652v0.39927h-0.52652z"/><path d="m106.68 383.45v0.4348h0.54269v0.35006h-0.54269v0.6495q0 0.1068 0.0456 0.14498 0.0456 0.0369 0.1809 0.0369h0.27061v0.35005h-0.45151q-0.3118 0-0.44268-0.12043-0.12942-0.12172-0.12942-0.41157v-0.64949h-0.26176v-0.35005h0.26177v-0.4348h0.52652z"/><path d="m108.88 383.92v0.39925q-0.10737-0.0684-0.21621-0.10114-0.10736-0.0329-0.22354-0.0329-0.2206 0-0.34415 0.12042-0.12206 0.1189-0.12206 0.33363 0 0.21468 0.12206 0.33499 0.12355 0.11891 0.34415 0.11891 0.12355 0 0.23385-0.0342 0.11177-0.0341 0.2059-0.10113v0.40063q-0.12355 0.0423-0.2515 0.063-0.12648 0.0217-0.25442 0.0217-0.44564 0-0.69712-0.21194-0.25149-0.21329-0.25149-0.59206 0-0.37875 0.25149-0.59069 0.25148-0.21332 0.69712-0.21332 0.12943 0 0.25442 0.0217 0.12649 0.0206 0.2515 0.063z"/><path d="m111 384.49v0.93255h-0.52947v-0.7111q0-0.20102-0.0103-0.27621-9e-3 -0.0752-0.0324-0.11077-0.0309-0.0478-0.0838-0.0739-0.053-0.0272-0.1206-0.0272-0.16472 0-0.25885 0.1189-0.0941 0.11758-0.0941 0.32682v0.75341h-0.5265v-2.1276h0.5265v0.82042q0.11913-0.13402 0.25296-0.1969 0.13384-0.0643 0.29563-0.0643 0.28531 0 0.43238 0.16276 0.14855 0.16276 0.14855 0.47312z"/></g><g fill="#e6e6e6" stroke="#000" stroke-width=".40068"><rect x="264.51" y="404.07" width="3.1661" height="2.4317" rx=".16236" ry=".079575"/><rect x="264.61" y="408.19" width="3.1661" height="2.4317" rx=".16236" ry=".079575"/><rect x="289.71" y="404.07" width="3.1661" height="2.4317" rx=".16236" ry=".079575"/><rect x="289.8" y="408.17" width="3.1661" height="2.4317" rx=".16236" ry=".079575"/></g><path d="m76.456 387.3c-0.04063 0-0.08109-7.7e-4 -0.12146-1e-3l0.83537-2.306h1.1496c0.20178 0 0.4233-0.15576 0.49231-0.34618l0.90632-2.5005c0.14826-0.40939-0.08517-0.74431-0.51886-0.74431h-1.5949l-1.3382 3.6936h-3.82e-4l-0.75864 2.0939c-1.7999-0.42981-3.1387-2.0549-3.1387-3.9944 0-1.8834 1.2626-3.4706 2.984-3.9543l-0.78279 2.1612h-2.14e-4l-1.3014 3.591 0.86631 8e-5 1.1067-3.0513h0.65107l-1.1067 3.0513 0.86598 1.5e-4 1.0313-2.8468c0.14837-0.40939-0.0851-0.74431-0.51839-0.74431h-0.72823l0.83618-2.3084c0.06096-4e-3 0.12214-4e-3 0.18371-4e-3 2.2576 0 4.0875 1.8382 4.0875 4.1057 0 2.2676-1.8301 4.1057-4.0875 4.1057zm2.4732-5.3614h-0.6509l-0.91151 2.5122h0.65092z" stroke-width="1.8861"/><g fill="#fff" stroke-width="1.8861"><path d="m90.809 381.62h1.4873v0.58241h-2.4562v-0.58241l1.2337-0.98993q0.16525-0.13573 0.24447-0.26547 0.07923-0.12967 0.07923-0.2696 0-0.21611-0.16072-0.34783-0.15846-0.13156-0.42331-0.13156-0.20374 0-0.44596 0.0803-0.24222 0.0782-0.5184 0.2346v-0.67502q0.29428-0.0885 0.58178-0.13383 0.2875-0.0473 0.56368-0.0473 0.60668 0 0.94171 0.24287 0.3373 0.24285 0.3373 0.6771 0 0.25107-0.14261 0.46923-0.14261 0.21607-0.59988 0.58035l-0.72212 0.57625z"/><path d="m93.188 379.14h2.1664v0.58242h-1.4714v0.47542q0.09959-0.0246 0.19921-0.037 0.10187-0.0151 0.21053-0.0151 0.61799 0 0.96208 0.28193 0.34409 0.27991 0.34409 0.78206 0 0.49807-0.37578 0.78-0.3735 0.28196-1.039 0.28196-0.2875 0-0.57046-0.0514-0.28069-0.0495-0.55915-0.15235v-0.62366q0.27618 0.14405 0.52293 0.21612 0.249 0.072 0.46859 0.072 0.31693 0 0.49803-0.13989 0.18337-0.14214 0.18337-0.3828 0-0.24284-0.18337-0.3828-0.1811-0.13987-0.49803-0.13987-0.18787 0-0.40068 0.0454-0.21278 0.0431-0.45727 0.13572v-1.7287z"/><path d="m97.257 381.62h1.4873v0.58241h-2.4562v-0.58241l1.2337-0.98993q0.16525-0.13573 0.24449-0.26547 0.07923-0.12967 0.07923-0.2696 0-0.21611-0.16072-0.34783-0.15846-0.13156-0.42331-0.13156-0.20374 0-0.44596 0.0803-0.24222 0.0782-0.5184 0.2346v-0.67502q0.29428-0.0885 0.58178-0.13383 0.2875-0.0473 0.56368-0.0473 0.60668 0 0.94171 0.24287 0.3373 0.24285 0.3373 0.6771 0 0.25107-0.14261 0.46923-0.14261 0.21607-0.59988 0.58035l-0.72212 0.57625z"/><path d="m101.28 380.67q0-0.57627-0.11997-0.8109-0.11771-0.23665-0.3984-0.23665-0.28068 0-0.40068 0.23665-0.11998 0.23463-0.11998 0.8109 0 0.58242 0.11998 0.82114 0.11998 0.23874 0.40068 0.23874 0.27843 0 0.3984-0.23874 0.11997-0.23872 0.11997-0.82114zm0.87153 6e-3q0 0.76353-0.36218 1.1792-0.36219 0.41367-1.0277 0.41367-0.6678 0-1.03-0.41367-0.36219-0.41572-0.36219-1.1792 0-0.7656 0.36219-1.1793 0.36219-0.41572 1.03-0.41572 0.66553 0 1.0277 0.41572 0.36218 0.41366 0.36218 1.1793z"/><path d="m102.62 380.69h1.4216v0.59887h-1.4216z"/><path d="m105.91 380.83q-0.24449 0-0.37578 0.12135-0.1313 0.12135-0.1313 0.34779 0 0.22638 0.1313 0.34781 0.13128 0.11948 0.37578 0.11948 0.2422 0 0.37123-0.11948 0.12904-0.12135 0.12904-0.34781 0-0.22843-0.12904-0.34779-0.12902-0.12135-0.37123-0.12135zm-0.63612-0.26137q-0.30787-0.0843-0.46406-0.25934-0.1562-0.17503-0.1562-0.4363 0-0.38896 0.31918-0.59271 0.31919-0.20376 0.93719-0.20376 0.61346 0 0.93264 0.20376 0.31918 0.2017 0.31918 0.59271 0 0.26138-0.15845 0.4363-0.15618 0.17504-0.46406 0.25934 0.34409 0.0866 0.5184 0.28193 0.17656 0.19346 0.17656 0.48984 0 0.45686-0.33503 0.69147-0.33277 0.23257-0.98924 0.23257-0.65875 0-0.99605-0.23257-0.33503-0.23461-0.33503-0.69147 0-0.29638 0.17431-0.48984 0.17656-0.19551 0.52065-0.28193zm0.20375-0.61537q0 0.18317 0.11094 0.28196 0.11318 0.0987 0.32143 0.0987 0.20374 0 0.31465-0.0987 0.11095-0.0987 0.11095-0.28196 0-0.18316-0.11095-0.27988-0.11094-0.0987-0.31465-0.0987-0.20825 0-0.32143 0.0987-0.11094 0.0987-0.11094 0.27988z"/></g><path d="m107.24 386.82h9.103c9.9e-4 0 2e-3 4.3e-4 2e-3 9.6e-4v5.5764c0 5.4e-4 -9.6e-4 9.8e-4 -2e-3 9.8e-4h-9.103c-9.9e-4 0-2e-3 -4.4e-4 -2e-3 -9.8e-4v-5.5764c0-5.3e-4 9.7e-4 -9.6e-4 2e-3 -9.6e-4z" fill="#ff0" stroke="#ff0" stroke-linejoin="round" stroke-width="1.5118"/><path d="m110.25 391.41h2.9835v1.2755l3.5904-3.1054-3.5904-3.0503v1.2755h-2.9835l3.3144 1.2755v-0.49919l1.658 0.99839-1.658 0.99837v-0.44406c-0.019-0.0339-3.3144 1.2756-3.3144 1.2756z" stroke="#000" stroke-width=".017661"/><g stroke-width=".017661px"><path d="m106.88 388.87h0.61795q0.27561 0 0.4226 0.12343 0.14795 0.1223 0.14795 0.34967 0 0.22827-0.14795 0.35163-0.147 0.1223-0.4226 0.1223h-0.24562v0.50317h-0.37231zm0.37231 0.271v0.40504h0.20599q0.10831 0 0.16731-0.0524 0.059-0.0535 0.059-0.15065 0-0.0971-0.059-0.14951-0.059-0.0525-0.16731-0.0525z"/><path d="m108.81 389.46q-0.11507 0-0.17599 0.0836-0.0599 0.0826-0.0599 0.23893t0.0599 0.23992q0.0609 0.0826 0.17599 0.0826 0.11314 0 0.17311-0.0826 0.0599-0.0835 0.0599-0.23992 0-0.15632-0.0599-0.23893-0.0599-0.0836-0.17311-0.0836zm0-0.24866q0.27948 0 0.43614 0.1516 0.15764 0.1516 0.15764 0.41963 0 0.26807-0.15764 0.4196-0.15665 0.1516-0.43614 0.1516-0.28043 0-0.43904-0.1516-0.15763-0.1516-0.15763-0.4196 0-0.2681 0.15763-0.41963 0.15859-0.1516 0.43904-0.1516z"/><path d="m109.65 388.87h1.0048v0.28266h-0.63245v0.27003h0.59474v0.28264h-0.59474v0.33221h0.65372v0.28266h-1.026z"/></g><rect x="225.19" y="393.69" width="7.418" height="3.7647" rx=".089201" ry=".043719" stroke-width="1.8861"/><path d="m226.78 396.66v-0.43003q0.1543 0.0671 0.29511 0.10131 0.14096 0.0326 0.27837 0.0326 0.28843 0 0.44941-0.14802 0.16109-0.14952 0.1894-0.44249-0.11405 0.0779-0.24315 0.11682-0.1291 0.0389-0.28005 0.0389-0.38401 0-0.62044-0.20723-0.23478-0.20878-0.23478-0.54844 0-0.37552 0.2616-0.60144 0.26327-0.22593 0.70429-0.22593 0.48967 0 0.75795 0.30697 0.26833 0.30692 0.26833 0.86784 0 0.5765-0.31361 0.90683-0.31357 0.32874-0.86023 0.32874-0.17614 0-0.33707-0.0249-0.16109-0.0234-0.31525-0.0716zm0.79651-1.1203q0.16937 0 0.25489-0.10132 0.0854-0.10283 0.0854-0.30693 0-0.20256-0.0854-0.3054-0.0854-0.10282-0.25489-0.10282-0.16938 0-0.25491 0.10282-0.0854 0.10284-0.0854 0.3054 0 0.2041 0.0854 0.30693 0.0854 0.10132 0.25491 0.10132z" fill="#fff" stroke-width="1.8861"/><path d="m228.85 394.39h2.3075v0.4534h-0.83007v1.8729h-0.64562v-1.8729h-0.83174v-0.4534z" fill="#fff" stroke-width="1.8861"/><rect x="243.4" y="393.69" width="7.418" height="3.7647" rx=".089201" ry=".043719" stroke-width="1.8861"/><g fill="#fff" stroke-width="1.8861"><path d="m243.85 396.3h0.57015v-1.5036l-0.58524 0.11209v-0.40825l0.5819-0.1121h0.61373v1.9118h0.57014v0.41446h-1.7507v-0.41446z"/><path d="m247.41 395.56q0-0.43629-0.0888-0.61392-0.0873-0.1792-0.29514-0.1792-0.20793 0-0.29679 0.1792-0.0888 0.17769-0.0888 0.61392 0 0.44092 0.0888 0.62165 0.0888 0.18071 0.29679 0.18071 0.20627 0 0.29514-0.18071 0.0888-0.1807 0.0888-0.62165zm0.64562 6e-3q0 0.57806-0.26831 0.89281-0.26831 0.31315-0.76132 0.31315-0.49468 0-0.76298-0.31315-0.26829-0.31475-0.26829-0.89281 0-0.57961 0.26829-0.8928 0.2683-0.31473 0.76298-0.31473 0.49301 0 0.76132 0.31473 0.26831 0.31319 0.26831 0.8928z"/><path d="m248.25 394.39h2.3075v0.4534h-0.83006v1.8729h-0.64562v-1.8729h-0.83175v-0.4534z"/></g><rect x="269.33" y="395.99" width="7.418" height="3.7647" rx=".089201" ry=".043719" stroke-width="1.8861"/><path d="m270.86 398.96v-0.43003q0.15432 0.0671 0.29515 0.10132 0.14095 0.0326 0.27835 0.0326 0.28843 0 0.44942-0.14801 0.1611-0.14953 0.18941-0.44249-0.11405 0.0778-0.24315 0.11681-0.1291 0.0389-0.28004 0.0389-0.38402 0-0.62044-0.20723-0.23479-0.20878-0.23479-0.54844 0-0.37551 0.2616-0.60144 0.26326-0.22593 0.7043-0.22593 0.48968 0 0.75797 0.30697 0.26829 0.30692 0.26829 0.86784 0 0.5765-0.31358 0.90683-0.31356 0.32874-0.86022 0.32874-0.17616 0-0.33708-0.0249-0.1611-0.0234-0.31526-0.0716zm0.79655-1.1203q0.16937 0 0.25489-0.10131 0.0854-0.10283 0.0854-0.30694 0-0.20256-0.0854-0.30539t-0.25489-0.10283q-0.16937 0-0.25491 0.10283-0.0854 0.10283-0.0854 0.30539 0 0.20411 0.0854 0.30694 0.0854 0.10131 0.25491 0.10131z" fill="#fff" stroke-width="1.8861"/><path d="m274.95 396.76v0.49236q-0.20626-0.0856-0.40248-0.1293-0.19617-0.0437-0.37057-0.0437-0.2314 0-0.34211 0.0592-0.11084 0.0593-0.11084 0.18392 0 0.0934 0.0738 0.1465 0.0755 0.0514 0.27165 0.0888l0.27501 0.0514q0.41753 0.0779 0.59362 0.23683 0.17616 0.15898 0.17616 0.45185 0 0.38486-0.2465 0.57339-0.24484 0.18694-0.74959 0.18694-0.23812 0-0.47791-0.042-0.2398-0.042-0.4796-0.12476v-0.50641q0.2398 0.11833 0.46282 0.17919 0.22471 0.0594 0.43265 0.0594 0.2113 0 0.32365-0.0654t0.11235-0.18694q0-0.10908-0.0772-0.16843-0.0755-0.0594-0.30355-0.10605l-0.24983-0.0514q-0.37564-0.0747-0.55004-0.23842-0.17276-0.16369-0.17276-0.44094 0-0.34746 0.24147-0.53443 0.24147-0.18694 0.69423-0.18694 0.20626 0 0.42425 0.0297 0.21799 0.028 0.45108 0.0856z" fill="#fff" stroke-width="1.8861"/><rect x="295.69" y="395.99" width="7.418" height="3.7647" rx=".089201" ry=".043719" stroke-width="1.8861"/><g fill="#fff" stroke-width="1.8861"><path d="m296.09 398.6h0.57014v-1.5036l-0.58523 0.11209v-0.40817l0.58187-0.1121h0.61374v1.9118h0.57015v0.41446h-1.7507v-0.41446z"/><path d="m299.65 397.86q0-0.43628-0.0888-0.61391-0.0873-0.1792-0.29515-0.1792-0.20794 0-0.29681 0.1792-0.0888 0.17769-0.0888 0.61391 0 0.44093 0.0888 0.62165 0.0888 0.18071 0.29681 0.18071 0.20626 0 0.29515-0.18071 0.0888-0.1807 0.0888-0.62165zm0.6456 6e-3q0 0.57805-0.2683 0.8928-0.2683 0.31316-0.76131 0.31316-0.49471 0-0.763-0.31316-0.2683-0.31475-0.2683-0.8928 0-0.57962 0.2683-0.8928 0.26829-0.31474 0.763-0.31474 0.49301 0 0.76131 0.31474 0.2683 0.31318 0.2683 0.8928z"/><path d="m302.5 396.76v0.49236q-0.20626-0.0856-0.40246-0.1293-0.19618-0.0437-0.37058-0.0437-0.23142 0-0.3421 0.0592-0.11065 0.0593-0.11065 0.18392 0 0.0934 0.0738 0.1465 0.0755 0.0514 0.27167 0.0888l0.275 0.0514q0.41753 0.0779 0.59361 0.23683 0.17615 0.15898 0.17615 0.45185 0 0.38486-0.24651 0.57339-0.24482 0.18694-0.74957 0.18694-0.23814 0-0.47792-0.042-0.23981-0.042-0.47961-0.12476v-0.50641q0.2398 0.11833 0.46284 0.17919 0.22471 0.0594 0.43265 0.0594 0.21127 0 0.32363-0.0654 0.11234-0.0654 0.11234-0.18694 0-0.10908-0.0772-0.16843-0.0755-0.0594-0.30351-0.10605l-0.24986-0.0514q-0.37561-0.0747-0.55001-0.23842-0.17277-0.16369-0.17277-0.44094 0-0.34746 0.24149-0.53443 0.24145-0.18694 0.69422-0.18694 0.20627 0 0.42426 0.0297 0.21798 0.028 0.45109 0.0856z"/></g><rect transform="rotate(-90)" x="-411.24" y="269.59" width="10.381" height="14.467" stroke-width="2.5892"/><rect transform="rotate(-90)" x="-411.24" y="269.59" width="10.381" height="14.467" fill="none" stroke="#7f7f7f" stroke-width=".51785"/><polygon transform="matrix(0 -2.5952 2.5833 0 -176.26 1616.7)" points="468.3 172.79 464.7 172.79 464.7 174.19 464.9 174.19 464.9 176.79 464.7 176.79 464.7 177.99 468.3 177.99"/><polygon transform="matrix(0 -2.5952 2.5833 0 -176.26 1616.7)" points="468.3 172.79 464.7 172.79 464.7 174.19 464.9 174.19 464.9 176.79 464.7 176.79 464.7 177.99 468.3 177.99" fill="none" stroke="#7f7f7f" stroke-width=".1"/><rect transform="rotate(-90)" x="-411.24" y="295.96" width="10.381" height="14.467" stroke-width="2.5892"/><rect transform="rotate(-90)" x="-411.24" y="295.96" width="10.381" height="14.467" fill="none" stroke="#7f7f7f" stroke-width=".51785"/><polygon transform="matrix(0 -2.5952 2.5833 0 -149.9 1616.7)" points="464.7 172.79 464.7 174.19 464.9 174.19 464.9 176.79 464.7 176.79 464.7 177.99 468.3 177.99 468.3 172.79"/><polygon transform="matrix(0 -2.5952 2.5833 0 -149.9 1616.7)" points="464.7 172.79 464.7 174.19 464.9 174.19 464.9 176.79 464.7 176.79 464.7 177.99 468.3 177.99 468.3 172.79" fill="none" stroke="#7f7f7f" stroke-width=".1"/><rect x="148.5" y="380.74" width="7.418" height="3.7647" rx=".089201" ry=".043719" stroke-width="1.8861"/><path d="m151.32 383.35h0.57012v-1.5036l-0.58523 0.11209v-0.40824l0.58188-0.1121h0.61376v1.9118h0.57014v0.41446h-1.7507v-0.41446z" fill="#fff" stroke-width="1.8861"/><rect x="162.88" y="380.74" width="7.418" height="3.7647" rx=".089201" ry=".043719" stroke-width="1.8861"/><path d="m166.9 382.51q0.25321 0.0607 0.38401 0.21189 0.13248 0.14951 0.13248 0.38172 0 0.34592-0.28505 0.52665-0.28509 0.1792-0.83175 0.1792-0.19292 0-0.38738-0.0297-0.19272-0.028-0.38231-0.0856v-0.46277q0.18123 0.0841 0.35886 0.12779 0.17935 0.042 0.35213 0.042 0.25658 0 0.39239-0.0826 0.13758-0.0826 0.13758-0.23682 0-0.15898-0.14077-0.23995-0.13908-0.0826-0.41251-0.0826h-0.25825v-0.38639h0.27167q0.24314 0 0.3622-0.0701 0.11913-0.0716 0.11913-0.21656 0-0.13403-0.11556-0.20723-0.11574-0.0734-0.32698-0.0734-0.15602 0-0.31526 0.0327-0.1592 0.0327-0.31693 0.0966v-0.43938q0.19117-0.0499 0.37899-0.0747 0.18781-0.025 0.36892-0.025 0.48795 0 0.72944 0.14952 0.24316 0.14802 0.24316 0.44719 0 0.20411-0.11574 0.335-0.11555 0.12929-0.34207 0.18222z" fill="#fff" stroke-width="1.8861"/><rect x="177.26" y="380.74" width="7.418" height="3.7647" rx=".089201" ry=".043719" stroke-width="1.8861"/><path d="m180.04 381.44h1.6048v0.44095h-1.09v0.35991q0.0738-0.0189 0.14754-0.028 0.0755-0.0113 0.15601-0.0113 0.4578 0 0.71266 0.21344 0.25491 0.21193 0.25491 0.59209 0 0.37705-0.27835 0.59053-0.2767 0.21344-0.7697 0.21344-0.21296 0-0.42258-0.0389-0.20795-0.0374-0.4142-0.1153v-0.47212q0.20457 0.10907 0.38735 0.1637 0.18443 0.0546 0.34714 0.0546 0.23475 0 0.36891-0.10606 0.13587-0.10735 0.13587-0.2898 0-0.18393-0.13587-0.28982-0.13417-0.10606-0.36891-0.10606-0.13908 0-0.29683 0.0342-0.15771 0.0327-0.33874 0.10284v-1.3088z" fill="#fff" stroke-width="1.8861"/><rect x="191.64" y="380.74" width="7.418" height="3.7647" rx=".089201" ry=".043719" stroke-width="1.8861"/><path d="m194.28 381.44h1.8865v0.3381l-0.97594 1.9882h-0.62885l0.92399-1.8853h-1.2057z" fill="#fff" stroke-width="1.8861"/><rect x="156.18" y="413.66" width="7.418" height="3.7647" rx=".089201" ry=".043719" stroke-width="1.8861"/><path d="m159.59 416.25h1.1017v0.44094h-1.8194v-0.44094l0.91391-0.74946q0.12251-0.10283 0.18123-0.20097 0.0587-0.0981 0.0587-0.20413 0-0.16369-0.11893-0.26331-0.11743-0.0996-0.31359-0.0996-0.15093 0-0.33035 0.0607-0.17934 0.0592-0.384 0.17769v-0.51104q0.21801-0.0671 0.43095-0.10131 0.21298-0.036 0.41755-0.036 0.44942 0 0.69759 0.18393 0.24986 0.18392 0.24986 0.51263 0 0.19008-0.10557 0.35524-0.10558 0.16351-0.44438 0.4394l-0.53493 0.43626z" fill="#fff" stroke-width="1.8861"/><rect x="170.54" y="413.66" width="7.418" height="3.7647" rx=".089201" ry=".043719" stroke-width="1.8861"/><path d="m174.22 414.85-0.70764 0.9738h0.70764zm-0.10746-0.49391h0.71773v1.4677h0.35718v0.4347h-0.35718v0.42383h-0.61041v-0.42383h-1.1101v-0.51417z" fill="#fff" stroke-width="1.8861"/><rect x="184.92" y="413.66" width="7.418" height="3.7647" rx=".089201" ry=".043719" stroke-width="1.8861"/><path d="m188.58 415.54q-0.16937 0-0.25488 0.10284-0.0837 0.1013-0.0837 0.30539 0 0.20411 0.0837 0.30692 0.0854 0.10132 0.25488 0.10132 0.17106 0 0.25488-0.10132 0.0854-0.10283 0.0854-0.30692 0-0.20414-0.0854-0.30539-0.0837-0.10284-0.25488-0.10284zm0.7982-1.1172v0.43004q-0.15921-0.0701-0.30017-0.10284-0.14096-0.0343-0.27503-0.0343-0.28842 0-0.44939 0.14953-0.1611 0.148-0.18782 0.44094 0.11085-0.0764 0.23982-0.11379 0.12909-0.0389 0.28169-0.0389 0.38403 0 0.61879 0.2088 0.23646 0.20877 0.23646 0.54689 0 0.37396-0.2633 0.59988-0.26326 0.22436-0.70597 0.22436-0.48797 0-0.75626-0.30539-0.26664-0.30695-0.26664-0.86942 0-0.57648 0.3119-0.90526 0.31358-0.33032 0.85857-0.33032 0.17275 0 0.33539 0.0249 0.1626 0.025 0.32196 0.0747z" fill="#fff" stroke-width="1.8861"/><rect x="199.28" y="413.66" width="7.418" height="3.7647" rx=".089201" ry=".043719" stroke-width="1.8861"/><path d="m202.9 415.65q-0.18123 0-0.27838 0.0921-0.0973 0.092-0.0973 0.26333 0 0.17145 0.0973 0.26331 0.0973 0.0904 0.27838 0.0904 0.17933 0 0.27501-0.0904 0.0954-0.0921 0.0954-0.26331 0-0.17296-0.0954-0.26333-0.0956-0.0921-0.27501-0.0921zm-0.4712-0.19787q-0.22806-0.0639-0.34378-0.19632-0.11555-0.13251-0.11555-0.33033 0-0.29447 0.23645-0.44873 0.23645-0.15425 0.69423-0.15425 0.45444 0 0.69089 0.15425 0.23643 0.15274 0.23643 0.44873 0 0.19788-0.11743 0.33033-0.11555 0.13251-0.34376 0.19632 0.25488 0.0654 0.384 0.21345 0.1308 0.1465 0.1308 0.37082 0 0.34591-0.24819 0.52353-0.24652 0.17599-0.73282 0.17599-0.48797 0-0.73783-0.17599-0.24817-0.17768-0.24817-0.52353 0-0.22436 0.1291-0.37082 0.13098-0.14801 0.38569-0.21345zm0.15093-0.46588q0 0.13874 0.0822 0.21347 0.0839 0.0747 0.23812 0.0747 0.15094 0 0.23308-0.0747 0.0822-0.0747 0.0822-0.21347 0-0.13874-0.0822-0.21189-0.0822-0.0747-0.23308-0.0747-0.15413 0-0.23812 0.0747-0.0822 0.0747-0.0822 0.21189z" fill="#fff" stroke-width="1.8861"/><path d="m148.57 411.64h58.688l-0.0433-26.606-58.644-4.5e-4z" fill="#3a3a3a" stroke-width="1.8861"/><path d="m153.95 385.12-5.2708 2e-3 4e-3 26.419 5.2943 2e-3v-1.2706l-4.2557 2e-3v-1.6451l0.4197-0.0132v-9.0196l12.939-8e-3 2e-3 9.0274 0.41973 0.0132v1.6451l-4.2323-2e-3v1.2706l4.3592-2e-3h6e-3l4.406 2e-3v-1.2703l-4.2577 2e-3v-1.6451l0.41971-0.0132 2e-3 -9.0196 12.939-8e-3v9.0274l0.4197 0.0132v1.6451l-4.2323-2e-3v1.2706l4.5134-2e-3h8e-3l4.404 2e-3v-1.2706l-4.2577 2e-3v-1.6451l0.41971-0.0132 2e-3 -9.0196 12.939-8e-3v9.0274l0.41973 0.0132v1.6451l-4.2303-2e-3v1.2706l4.5115-2e-3 4.4119 2e-3v-1.2706l-4.2577 2e-3v-1.6451l0.42166-0.0132v-9.0196l13.006-0.0255v9.1039l0.42168 0.0132v1.6451l-4.2323-2e-3v1.2706l5.2708-2e-3 -4e-3 -26.419-5.2962-2e-3v1.2706l4.2577-2e-3v1.6451l-0.42167 0.0132v9.0208s-8.6857 0.017-13.006 0.0236v-9.1019l-0.41971-0.0132v-1.6451l4.2323 2e-3v-1.2706l-4.3787 2e-3 -4.5466-2e-3v1.2706l4.2577-2e-3v1.6451l-0.42167 0.0132v9.0745l-9e-3 9e-3 -12.93 0.017v-9.1019l-0.41971-0.0132v-1.6451l4.2303 2e-3v-1.2706l-4.3787 2e-3h-8e-3l-4.5369-2e-3v1.2706l4.2557-2e-3v1.6451l-0.41972 0.0132v9.0745l-9e-3 9e-3 -12.93 0.017v-9.1019l-0.42168-0.0132v-1.6451l4.2323 2e-3v-1.2706l-4.3787 2e-3h-8e-3l-4.3845-2e-3v1.2706l4.2577-2e-3v1.6451l-0.41973 0.0132-2e-3 9.0745-8e-3 9e-3 -12.93 0.017-2e-3 -9.1019-0.41973-0.0132v-1.6451l4.2323 2e-3v-1.2706z" fill="#ebebeb" stroke-width="1.0017"/><g stroke-width="1.8797"><path d="m192.62 388.45h3.3093l-6e-3 -2.0136 1.2043-1e-3v-0.75397h3.8817l-9e-4 0.75594h1.2535v2.0138h3.294v8.67l-12.936 0.0282z" fill="#1a1a1a"/><path d="m202.56 387.93h3.2684v-1.4156h-3.2684z" fill="#abb927"/><path d="m192.34 387.93h3.2972v-1.4229h-3.2972z" fill="#abb927"/><path d="m205.58 408.21h-3.3093l6e-3 2.0136-1.2043 9.9e-4v0.75398h-3.8817l9.1e-4 -0.75595h-1.2536v-2.0138h-3.294v-8.6699l12.936-0.0282z" fill="#1a1a1a"/><path d="m195.63 408.76h-3.2684v1.4156h3.2684z" fill="#abb927"/><path d="m205.88 408.76h-3.2972v1.4229h3.2972z" fill="#abb927"/><path d="m178.4 388.45h3.3093l-6e-3 -2.0136 1.2043-1e-3v-0.75397h3.8817l-9e-4 0.75594h1.2536v2.0138h3.294v8.67l-12.936 0.0282z" fill="#1a1a1a"/><path d="m188.35 387.93h3.2684v-1.4156h-3.2684z" fill="#abb927"/><path d="m178.12 387.93h3.2972v-1.4229h-3.2972z" fill="#abb927"/><path d="m191.36 408.21h-3.3093l6e-3 2.0136-1.2043 9.9e-4v0.75398h-3.8817l8.9e-4 -0.75595h-1.2535v-2.0138h-3.294v-8.6699l12.936-0.0282z" fill="#1a1a1a"/><path d="m181.42 408.76h-3.2684v1.4156h3.2684z" fill="#abb927"/><path d="m191.66 408.76h-3.2972v1.4229h3.2972z" fill="#abb927"/><path d="m164.19 388.45h3.3093l-6e-3 -2.0136 1.2043-1e-3v-0.75397h3.8817l-9e-4 0.75594h1.2535v2.0138h3.294v8.67l-12.936 0.0282z" fill="#1a1a1a"/><path d="m174.13 387.93h3.2684v-1.4156h-3.2684z" fill="#abb927"/><path d="m163.91 387.93h3.2972v-1.4229h-3.2972z" fill="#abb927"/><path d="m177.14 408.21h-3.3093l6e-3 2.0136-1.2043 9.9e-4v0.75398h-3.8817l9.1e-4 -0.75595h-1.2536v-2.0138h-3.294v-8.6699l12.936-0.0282z" fill="#1a1a1a"/><path d="m167.2 408.76h-3.2684v1.4156h3.2684z" fill="#abb927"/><path d="m177.45 408.76h-3.2972v1.4229h3.2972z" fill="#abb927"/><path d="m150.13 388.45h3.3093l-6e-3 -2.0136 1.2043-1e-3v-0.75398h3.8817l-8.9e-4 0.75595h1.2535v2.0138h3.294v8.67l-12.936 0.0282z" fill="#1a1a1a"/><path d="m160.07 387.93h3.2684v-1.4155h-3.2684z" fill="#abb927"/><path d="m149.84 387.93h3.2972v-1.4229h-3.2972z" fill="#abb927"/><path d="m163.08 408.21h-3.3093l6e-3 2.0136-1.2043 9.9e-4v0.75397h-3.8821l9.1e-4 -0.75594h-1.2536v-2.0138h-3.294v-8.6699l12.936-0.0282z" fill="#1a1a1a"/><path d="m153.14 408.75h-3.2684v1.4155h3.2684z" fill="#abb927"/><path d="m163.38 408.75h-3.2972v1.4229h3.2972z" fill="#abb927"/></g><g stroke-width="1.8861"><ellipse cx="98.35" cy="407.66" rx="1.4376" ry="1.4431"/><ellipse cx="90.064" cy="415.43" rx=".7309" ry=".73415"/><ellipse cx="99.775" cy="415.43" rx=".7309" ry=".73415"/><rect x="101.86" y="395.1" width="6.2467" height="3.7647" rx=".16796" ry=".08232"/></g><g fill="#0f0" stroke-width="1.8861px"><path d="m103.85 397.69h-0.90099l-0.14218 0.40891h-0.57921l0.82765-2.2445h0.68698l0.82764 2.2445h-0.57921l-0.1407-0.40891zm-0.7573-0.41641h0.61213l-0.30532-0.89296z"/><path d="m106.17 396.46v0.43897q-0.10925-0.0752-0.22-0.11135-0.10927-0.0361-0.2275-0.0361-0.22449 0-0.35022 0.13233-0.12422 0.1308-0.12422 0.36681 0 0.23602 0.12422 0.3683 0.12571 0.1308 0.35022 0.1308 0.12572 0 0.23798-0.0376 0.11373-0.0376 0.20952-0.11135v0.44047q-0.12571 0.0467-0.25591 0.0692-0.12872 0.024-0.25892 0.024-0.45349 0-0.70941-0.23302-0.25592-0.2345-0.25592-0.65092t0.25592-0.64944q0.25592-0.23451 0.70941-0.23451 0.13172 0 0.25892 0.024 0.12869 0.0225 0.25591 0.0692z"/><path d="m107.19 395.93v0.47806h0.55227v0.38486h-0.55227v0.71405q0 0.11719 0.0464 0.15936 0.0464 0.0406 0.18409 0.0406h0.27539v0.38484h-0.45948q-0.31729 0-0.45049-0.13233-0.13172-0.13383-0.13172-0.45251v-0.71405h-0.26641v-0.38486h0.26641v-0.47807h0.53581z"/></g><rect x="102.02" y="399.58" width="6.2467" height="3.7647" rx=".16796" ry=".08232" stroke-width="1.8861"/><g fill="#b3b3b3" stroke-width="1.8861px"><path d="m102.35 400.33h1.555v0.43746h-0.97882v0.4179h0.92045v0.43747h-0.92045v0.95162h-0.5762z"/><path d="m104.67 400.77v1.3695h0.20654q0.35323 0 0.5388-0.17599 0.18708-0.17597 0.18708-0.51112 0-0.33374-0.18557-0.50812-0.1856-0.17428-0.54031-0.17428zm-0.5762-0.43747h0.60763q0.50887 0 0.75731 0.0737 0.24994 0.0722 0.42804 0.24653 0.15716 0.15179 0.23347 0.35028 0.0764 0.19844 0.0764 0.44949 0 0.25407-0.0764 0.454-0.0764 0.19844-0.23347 0.35028-0.17959 0.17446-0.43103 0.24804-0.25145 0.0722-0.75432 0.0722h-0.60763z"/><path d="m106.69 401.71-0.60466-0.82231h0.56724l0.34273 0.49909 0.34724-0.49909h0.56722l-0.60464 0.81931 0.63458 0.8644h-0.56723l-0.37715-0.53217-0.37268 0.53217h-0.56723z"/></g><rect x="102.03" y="404.32" width="6.2467" height="3.7647" rx=".16796" ry=".08232" stroke-width="1.8861"/><g fill="#b3b3b3" stroke-width="1.8861px"><path d="m104.06 404.89v0.47506q-0.1841-0.0826-0.35921-0.12477-0.17512-0.0421-0.33077-0.0421-0.20654 0-0.30533 0.0571-0.0988 0.0571-0.0988 0.17732 0 0.0902 0.0658 0.14139 0.0674 0.0495 0.24247 0.0856l0.24546 0.0497q0.37268 0.0752 0.52982 0.22849 0.15715 0.1533 0.15715 0.43595 0 0.37133-0.22001 0.55323-0.21851 0.18033-0.669 0.18033-0.21253 0-0.42656-0.0406-0.21404-0.0406-0.42804-0.12023v-0.48856q0.214 0.11417 0.41307 0.17277 0.20056 0.0571 0.38614 0.0571 0.18859 0 0.28886-0.0631t0.10027-0.18032q0-0.1053-0.0688-0.16239-0.0674-0.0571-0.27089-0.10226l-0.22302-0.0495q-0.33524-0.0722-0.4909-0.23001-0.15415-0.15785-0.15415-0.42546 0-0.33523 0.21552-0.51562 0.21552-0.18033 0.61963-0.18033 0.18409 0 0.37866 0.0285 0.19457 0.027 0.40261 0.0826z"/><path d="m104.88 406.82v0.88394h-0.5358v-2.3241h0.5358v0.24655q0.11075-0.14726 0.24547-0.21649 0.1347-0.0707 0.3098-0.0707 0.3098 0 0.50887 0.24804 0.19904 0.24654 0.19904 0.6359t-0.19904 0.6374q-0.19905 0.24655-0.50887 0.24655-0.17512 0-0.3098-0.0692-0.13472-0.0707-0.24547-0.21799zm0.35622-1.0899q-0.17212 0-0.26492 0.12779-0.0913 0.12626-0.0913 0.36529t0.0913 0.36681q0.0928 0.12628 0.26492 0.12628t0.2619-0.12628q0.0913-0.12627 0.0913-0.36681 0-0.24052-0.0913-0.3668-0.0898-0.12628-0.2619-0.12628z"/><path d="m107.33 405.62v-0.90202h0.53879v2.3392h-0.53879v-0.24355q-0.11075 0.14877-0.24395 0.21798-0.13321 0.0692-0.30832 0.0692-0.30981 0-0.50887-0.24656-0.19905-0.24804-0.19905-0.6374t0.19905-0.63589q0.19905-0.24804 0.50887-0.24804 0.17361 0 0.30681 0.0707 0.13469 0.0692 0.24546 0.2165zm-0.35322 1.0899q0.17212 0 0.26192-0.12627 0.0913-0.12626 0.0913-0.36681 0-0.24052-0.0913-0.3668-0.0898-0.12628-0.26192-0.12628-0.17062 0-0.26193 0.12628-0.0898 0.12626-0.0898 0.3668 0 0.24055 0.0898 0.36681 0.0913 0.12627 0.26193 0.12627z"/></g><path d="m101.74 412.63h-3.4185v-3.1054" fill="none" stroke="#000" stroke-width=".30051"/><path d="m101.74 395.28h-3.4294v3.1173" fill="none" stroke="#000" stroke-width=".27837"/><g stroke-width="1.8861px"><path d="m102.61 414.87v0.20557q-0.098-0.0917-0.20946-0.13705-0.11048-0.0454-0.2354-0.0454-0.24597 0-0.37665 0.15161-0.13069 0.15046-0.13069 0.4362 0 0.28472 0.13069 0.43623 0.13066 0.15066 0.37665 0.15066 0.12491 0 0.2354-0.0454 0.11145-0.0454 0.20946-0.13705v0.20364q-0.10185 0.0696-0.2162 0.10415-0.11337 0.0348-0.2402 0.0348-0.32573 0-0.51309-0.19978-0.18736-0.20074-0.18736-0.54722 0-0.34742 0.18736-0.54719 0.18736-0.20075 0.51309-0.20075 0.12874 0 0.24212 0.0347 0.11435 0.0339 0.21426 0.10227z"/><path d="m102.89 414.7h0.17678v1.5017h-0.17678z"/><path d="m104.33 415.61v0.087h-0.81286q0.0115 0.18336 0.10954 0.27987 0.099 0.0955 0.2748 0.0955 0.10185 0 0.19696-0.0251 0.0961-0.0251 0.19023-0.0752v0.16785q-0.0951 0.0406-0.19503 0.0618-0.0999 0.0212-0.20275 0.0212-0.2575 0-0.40834-0.15046-0.14989-0.15066-0.14989-0.40728 0-0.26541 0.1422-0.42079 0.14316-0.15632 0.38529-0.15632 0.21713 0 0.34301 0.14082 0.12682 0.13989 0.12682 0.38122zm-0.17678-0.0522q-2e-3 -0.14573-0.0816-0.23258-0.0787-0.087-0.20947-0.087-0.14797 0-0.23732 0.0839-0.0884 0.0839-0.10185 0.23647l0.63029-9.7e-4z"/><path d="m105.09 415.66q-0.21426 0-0.29689 0.0491-0.0826 0.0491-0.0826 0.16785 0 0.0945 0.0615 0.15047 0.0624 0.055 0.16911 0.055 0.14702 0 0.23542-0.10417 0.0894-0.10508 0.0894-0.2789v-0.0395h-0.17583zm0.35261-0.0733v0.61671h-0.17678v-0.16408q-0.0605 0.0985-0.15086 0.14574-0.0903 0.0463-0.22099 0.0463-0.16527 0-0.26327-0.0926-0.0971-0.0936-0.0971-0.24997 0-0.18241 0.12107-0.27504 0.12202-0.0926 0.36319-0.0926h0.24789v-0.017q0-0.12248-0.0807-0.18915-0.0798-0.0675-0.22483-0.0675-0.0922 0-0.17967 0.0221-0.0874 0.0221-0.16815 0.0665v-0.16407q0.0971-0.0376 0.18832-0.0559 0.0913-0.0193 0.17775-0.0193 0.23348 0 0.34878 0.12155t0.1153 0.36866z"/><path d="m106.42 415.29q-0.0298-0.017-0.0653-0.0251-0.0345-9e-3 -0.0769-9e-3 -0.1499 0-0.23059 0.0985-0.0798 0.0975-0.0798 0.28084v0.56941h-0.17775v-1.0809h0.17775v0.16785q0.0558-0.0985 0.14507-0.14574 0.0893-0.0482 0.21714-0.0482 0.0182 0 0.0403 4e-3 0.0221 2e-3 0.049 8e-3l9.6e-4 0.1824z"/><path d="m92.241 415.34q0.06246 0.0212 0.12106 0.0907 0.05957 0.0696 0.11914 0.19109l0.19696 0.39376h-0.2085l-0.18352-0.36964q-0.0711-0.14479-0.13836-0.19204-0.0663-0.0473-0.18161-0.0473h-0.21138v0.60898h-0.19408v-1.4409h0.43813q0.24597 0 0.36703 0.10322 0.12106 0.1032 0.12106 0.31172 0 0.1361-0.06342 0.22583-0.06246 0.0898-0.18256 0.12457zm-0.48618-0.60509v0.51149h0.24405q0.14028 0 0.21138-0.0646 0.07206-0.0656 0.07206-0.19205 0-0.12646-0.07206-0.19013-0.0711-0.0646-0.21138-0.0646h-0.24405z"/><path d="m93.733 415.44v0.087h-0.81286q0.01148 0.18336 0.10953 0.27988 0.09897 0.0955 0.2748 0.0955 0.10185 0 0.19696-0.0251 0.09609-0.0251 0.19024-0.0752v0.16786q-0.09511 0.0405-0.19504 0.0618-0.09993 0.0212-0.20274 0.0212-0.2575 0-0.40836-0.15047-0.1499-0.15047-0.1499-0.40727 0-0.26539 0.1422-0.42077 0.14316-0.15633 0.38529-0.15633 0.21714 0 0.34302 0.14083 0.12682 0.13987 0.12682 0.38121zm-0.17679-0.0522q-0.0019-0.14574-0.08168-0.2326-0.07879-0.087-0.20946-0.087-0.14798 0-0.23733 0.0839-0.08839 0.0839-0.10185 0.23644l0.63029-9.5e-4z"/><path d="m94.689 414.96v0.16785q-0.07494-0.0386-0.15565-0.0577-0.08071-0.0193-0.16719-0.0193-0.13164 0-0.19792 0.0405-0.06534 0.0404-0.06534 0.12155 0 0.0618 0.04708 0.0975 0.04708 0.0347 0.18928 0.0665l0.06054 0.0132q0.18832 0.0405 0.2671 0.11475 0.07976 0.0733 0.07976 0.20557 0 0.15065-0.11914 0.23838-0.11818 0.0879-0.32572 0.0879-0.08648 0-0.18063-0.017-0.09319-0.017-0.19696-0.0501v-0.18335q0.09801 0.0512 0.19312 0.0773 0.09511 0.0251 0.18832 0.0251 0.1249 0 0.19216-0.0425 0.06726-0.0435 0.06726-0.12154 0-0.0724-0.049-0.11097-0.04805-0.0386-0.21234-0.0743l-0.06148-0.0151q-0.16431-0.0348-0.23733-0.10623-0.07302-0.0724-0.07302-0.19784 0-0.15254 0.10761-0.23549 0.10761-0.083 0.30555-0.083 0.09801 0 0.18448 0.0151 0.08648 0.0151 0.15949 0.0435z"/><path d="m95.931 415.44v0.087h-0.81286q0.01148 0.18336 0.10953 0.27988 0.09897 0.0955 0.2748 0.0955 0.10185 0 0.19696-0.0251 0.09609-0.0251 0.19024-0.0752v0.16786q-0.09511 0.0405-0.19504 0.0618-0.09993 0.0212-0.20274 0.0212-0.2575 0-0.40836-0.15047-0.1499-0.15047-0.1499-0.40727 0-0.26539 0.1422-0.42077 0.14316-0.15633 0.38529-0.15633 0.21716 0 0.34302 0.14083 0.12682 0.13987 0.12682 0.38121zm-0.17679-0.0522q-0.0019-0.14574-0.08168-0.2326-0.07879-0.087-0.20946-0.087-0.14798 0-0.23733 0.0839-0.08839 0.0839-0.10185 0.23644l0.63029-9.5e-4z"/><path d="m96.375 414.62v0.30692h0.36415v0.13799h-0.36415v0.58678q0 0.13213 0.03555 0.16993 0.03651 0.0376 0.147 0.0376h0.1816v0.14857h-0.1816q-0.20466 0-0.28248-0.0762-0.07782-0.0771-0.07782-0.27987v-0.5868h-0.12972v-0.13797h0.12972v-0.30692h0.17775z"/></g><g stroke-width="1.429px"><path d="m96.832 399.73h0.14705v0.9674h0.52924v0.12438h-0.6763v-1.0917z"/><path d="m97.648 399.73h0.6872v0.12439h-0.54016v0.32318h0.51759v0.12438h-0.51759v0.39559h0.55326v0.12437h-0.70031v-1.0917z"/><path d="m98.723 399.85v0.84895h0.17763q0.22494 0 0.32905-0.10245 0.10482-0.10245 0.10482-0.32321 0-0.21936-0.10482-0.32101-0.10411-0.10245-0.32905-0.10245h-0.17763zm-0.14705-0.12136h0.30211q0.31594 0 0.46372 0.13232 0.14777 0.13157 0.14777 0.41242 0 0.28225-0.1485 0.4146-0.1485 0.13232-0.46299 0.13232h-0.30211v-1.0917z"/><path d="m96.832 400.91h0.21913l0.27736 0.74292 0.27881-0.74292h0.21912v1.0917h-0.14342v-0.95863l-0.28027 0.74876h-0.14777l-0.28027-0.74876v0.95863h-0.14269z"/><path d="m98.415 401.28q-0.10774 0-0.17035 0.0847-0.06261 0.0841-0.06261 0.23106 0 0.14707 0.06188 0.2318 0.06261 0.0841 0.17107 0.0841 0.10701 0 0.16962-0.0849 0.06261-0.0847 0.06261-0.23108 0-0.14554-0.06261-0.23031-0.06261-0.0854-0.16962-0.0854zm0-0.11418q0.17472 0 0.27445 0.11418 0.09974 0.11398 0.09974 0.31587 0 0.20108-0.09974 0.3159-0.09974 0.11417-0.27445 0.11417-0.17543 0-0.27518-0.11417-0.09901-0.11494-0.09901-0.3159 0-0.2018 0.09901-0.31587 0.09974-0.11418 0.27518-0.11418z"/><path d="m99.532 401.31v-0.44309h0.13394v1.1377h-0.13394v-0.12286q-0.04221 0.073-0.107 0.10908-0.06406 0.0352-0.15434 0.0352-0.14777 0-0.24096-0.11852-0.09246-0.11852-0.09246-0.31149 0-0.19304 0.09246-0.31151 0.09318-0.11852 0.24096-0.11852 0.09027 0 0.15434 0.0359 0.06479 0.0351 0.107 0.1083zm-0.45644 0.28591q0 0.14838 0.06043 0.23326 0.06116 0.0841 0.16743 0.0841 0.10629 0 0.16744-0.0841 0.06116-0.0847 0.06116-0.23326 0-0.14839-0.06116-0.23252-0.06116-0.0847-0.16744-0.0847-0.10629 0-0.16743 0.0847-0.06043 0.0841-0.06043 0.23252z"/><path d="m100.63 401.57v0.066h-0.61587q9e-3 0.13894 0.083 0.21208 0.075 0.0724 0.20822 0.0724 0.0772 0 0.14923-0.0191 0.0728-0.0191 0.14412-0.0568v0.12721q-0.0721 0.0306-0.14775 0.0469-0.0757 0.0151-0.15361 0.0151-0.1951 0-0.3094-0.11417-0.11358-0.11399-0.11358-0.30858 0-0.2011 0.10774-0.31881 0.10847-0.11853 0.29192-0.11853 0.16454 0 0.25989 0.10661 0.0961 0.10606 0.0961 0.28883zm-0.13393-0.0395q-1e-3 -0.11039-0.0618-0.17617-0.0597-0.066-0.1587-0.066-0.11213 0-0.17982 0.0635-0.067 0.0635-0.0772 0.1792l0.47755-7.3e-4z"/></g><rect x="102.35" y="408.87" width="6.2467" height="3.7647" rx=".16796" ry=".08232" stroke-width="1.8861"/><g fill="#b3b3b3" stroke-width="1.8861px"><path d="m102.47 409.58h0.97816q0.43627 0 0.66893 0.19526 0.2342 0.19374 0.2342 0.55352 0 0.36132-0.2342 0.55659-0.23268 0.19373-0.66893 0.19373h-0.38882v0.79645h-0.58934zm0.58934 0.42897v0.64115h0.32606q0.17144 0 0.26482-0.083 0.0934-0.0845 0.0934-0.23832 0-0.15368-0.0934-0.23678-0.0934-0.083-0.26482-0.083h-0.32606z"/><path d="m105.52 410.5q-0.18217 0-0.2786 0.13233-0.0949 0.13061-0.0949 0.37822 0 0.24756 0.0949 0.37979 0.0965 0.1306 0.2786 0.1306 0.1791 0 0.27401-0.1306 0.0949-0.13233 0.0949-0.37979 0-0.24753-0.0949-0.37822-0.0949-0.13233-0.27401-0.13233zm0-0.39361q0.44238 0 0.69036 0.23986 0.24951 0.23985 0.24951 0.66423 0 0.42436-0.24951 0.66422-0.24798 0.23986-0.69036 0.23986-0.44393 0-0.69496-0.23986-0.24951-0.23986-0.24951-0.66422 0-0.42438 0.24951-0.66423 0.25105-0.23986 0.69496-0.23986z"/><path d="m106.86 409.58h1.5904v0.44743h-1.0011v0.42742h0.94141v0.44743h-0.94141v0.52584h1.0348v0.44743h-1.6241z"/></g><path d="m98.314 403.35v2.198" fill="none" stroke="#000" stroke-width=".27837"/><rect x="89.107" y="408.87" width="6.2467" height="3.7647" rx=".16796" ry=".08232" stroke-width="1.8861"/><g fill="#b3b3b3" stroke-width="1.8861px"><path d="m89.279 409.98h1.7392v0.36945h-0.62566v1.526h-0.48663v-1.526h-0.62692z"/><path d="m92.291 411.15v0.12949h-1.0579q0.01638 0.15991 0.11502 0.23994 0.0986 0.0799 0.27555 0.0799 0.14284 0 0.29198-0.042 0.15042-0.0431 0.30841-0.12948v0.3504q-0.16053 0.0609-0.32106 0.0915-0.16053 0.0317-0.32106 0.0317-0.38425 0-0.59785-0.1955-0.21236-0.1968-0.21236-0.55101 0-0.34786 0.20856-0.54719 0.20982-0.19933 0.57638-0.19933 0.33368 0 0.53339 0.20187 0.20097 0.20185 0.20097 0.53957zm-0.46514-0.15103q0-0.12949-0.07585-0.20821-0.07458-0.0799-0.19591-0.0799-0.13145 0-0.21362 0.0748-0.08217 0.0735-0.10238 0.21328h0.58775z"/><path d="m93.714 410.49v0.34535q-0.14536-0.0609-0.2806-0.0915-0.13524-0.0304-0.25532-0.0304-0.12893 0-0.19213 0.0331-0.06194 0.0317-0.06194 0.099 0 0.0546 0.04676 0.0837 0.04803 0.0291 0.17063 0.0431l0.07963 0.0114q0.34759 0.0444 0.46768 0.14593 0.12009 0.10151 0.12009 0.31866 0 0.22725-0.16685 0.34152-0.16685 0.11437-0.498 0.11437-0.1403 0-0.29072-0.0229-0.14914-0.0215-0.30715-0.066v-0.34532q0.13525 0.066 0.27681 0.0991 0.14284 0.033 0.28946 0.033 0.13271 0 0.19971-0.0369 0.06699-0.0369 0.06699-0.10927 0-0.0609-0.04676-0.0902-0.04551-0.0304-0.18328-0.0469l-0.07963-9e-3q-0.30209-0.0382-0.42343-0.14083-0.12135-0.10283-0.12135-0.31234 0-0.22597 0.15421-0.33516 0.1542-0.10926 0.47272-0.10926 0.12513 0 0.2629 0.0191 0.13778 0.0191 0.29956 0.0597z"/><path d="m94.618 410.06v0.40372h0.46642v0.32502h-0.46642v0.60306q0 0.099 0.03918 0.13459 0.03919 0.0342 0.15546 0.0342h0.23257v0.32501h-0.38803q-0.26797 0-0.38045-0.11172-0.11124-0.11304-0.11124-0.38216v-0.60306h-0.22498v-0.32501h0.22498v-0.40373h0.45251z"/></g><rect x="89.108" y="399.58" width="6.2467" height="3.7647" rx=".16796" ry=".08232" stroke-width="1.8861"/><g fill="#b3b3b3" stroke-width="1.8861px"><path d="m89.224 400.29h0.97815q0.43627 0 0.66893 0.19527 0.23421 0.19374 0.23421 0.55354 0 0.36131-0.23421 0.5566-0.23268 0.19372-0.66893 0.19372h-0.3888v0.79644h-0.58934zm0.58934 0.42899v0.64117h0.32604q0.17144 0 0.26482-0.083 0.09338-0.0845 0.09338-0.23831 0-0.15368-0.09338-0.23679-0.09338-0.083-0.26482-0.083h-0.32604z"/><path d="m92.281 401.22q-0.18215 0-0.2786 0.13233-0.0949 0.13062-0.0949 0.37823 0 0.24754 0.0949 0.37977 0.09645 0.13063 0.2786 0.13063 0.1791 0 0.27401-0.13063 0.0949-0.13233 0.0949-0.37977 0-0.24753-0.0949-0.37823-0.0949-0.13233-0.27401-0.13233zm0-0.3936q0.44238 0 0.69036 0.23985 0.2495 0.23986 0.2495 0.66421 0 0.42438-0.2495 0.66424-0.24798 0.23984-0.69036 0.23984-0.44391 0-0.69496-0.23984-0.24951-0.23986-0.24951-0.66424 0-0.42435 0.24951-0.66421 0.25105-0.23985 0.69496-0.23985z"/><path d="m93.613 400.29h1.5904v0.44744h-1.0011v0.42743h0.94141v0.44742h-0.94141v0.52587h1.0348v0.44741h-1.6241z"/></g><g stroke-width="1.8861px"><path d="m90.178 396.97v0.19013q-0.11049-0.0531-0.2085-0.0793-0.09801-0.0261-0.18928-0.0261-0.15853 0-0.24501 0.0618-0.08551 0.0618-0.08551 0.17562 0 0.0955 0.05668 0.14479 0.05765 0.0482 0.21714 0.0784l0.11722 0.0242q0.21716 0.0416 0.31996 0.14668 0.10377 0.10415 0.10377 0.27989 0 0.20942-0.14028 0.31752-0.13932 0.10813-0.40932 0.10813-0.10185 0-0.21714-0.0232-0.11434-0.0233-0.23733-0.0684v-0.20074q0.11818 0.0665 0.23155 0.10034 0.11337 0.0337 0.22291 0.0337 0.16623 0 0.25654-0.0656 0.09031-0.0656 0.09031-0.18714 0-0.10623-0.06534-0.16596-0.06438-0.0599-0.21234-0.0898l-0.11818-0.0233q-0.21714-0.0435-0.31419-0.13609-0.09705-0.0926-0.09705-0.25769 0-0.19108 0.13356-0.30112 0.13452-0.11002 0.36991-0.11002 0.10089 0 0.20562 0.0189t0.21426 0.055z"/><path d="m90.715 396.97v0.30689h0.36415v0.13798h-0.36415v0.5868q0 0.13231 0.03555 0.16993 0.03651 0.0376 0.147 0.0376h0.18161v0.14858h-0.18161q-0.20466 0-0.28248-0.0762-0.07782-0.0771-0.07782-0.27987v-0.58679h-0.1297v-0.13799h0.1297v-0.30689h0.17775z"/><path d="m91.782 397.82q-0.21426 0-0.29689 0.0491-0.08264 0.0491-0.08264 0.16785 0 0.0945 0.0615 0.15047 0.06246 0.055 0.16911 0.055 0.14702 0 0.23541-0.10415 0.08936-0.10529 0.08936-0.27894v-0.0395h-0.17583zm0.35262-0.0733v0.6167h-0.17679v-0.16408q-0.06052 0.0985-0.15086 0.14574-0.09031 0.0463-0.22099 0.0463-0.16527 0-0.26326-0.0926-0.09705-0.0936-0.09705-0.24996 0-0.18242 0.12106-0.27505 0.12202-0.0926 0.36319-0.0926h0.24789v-0.017q0-0.1225-0.08071-0.18917-0.07976-0.0675-0.22483-0.0675-0.09223 0-0.17967 0.0223-0.08743 0.0221-0.16815 0.0665v-0.16408q0.09705-0.0376 0.18832-0.0559 0.09128-0.0193 0.17775-0.0193 0.23347 0 0.34878 0.12154 0.1153 0.12155 0.1153 0.36866z"/><path d="m92.655 396.97v0.30689h0.36415v0.13798h-0.36415v0.5868q0 0.13231 0.03555 0.16993 0.03651 0.0376 0.14702 0.0376h0.18159v0.14858h-0.18159q-0.20466 0-0.28248-0.0762-0.07784-0.0771-0.07784-0.27987v-0.58679h-0.1297v-0.13799h0.12971v-0.30689h0.17775z"/><path d="m93.214 397.93v-0.65433h0.17679v0.64759q0 0.15349 0.05957 0.23065 0.05958 0.0762 0.17871 0.0762 0.14316 0 0.22579-0.0917 0.08359-0.0917 0.08359-0.24995v-0.61284h0.17679v1.0809h-0.17679v-0.16597q-0.06438 0.0985-0.1499 0.1467-0.08456 0.0472-0.19696 0.0472-0.18544 0-0.28152-0.11587-0.09609-0.11587-0.09609-0.33873z"/><path d="m95.148 397.31v0.16785q-0.07494-0.0386-0.15565-0.0577-0.08071-0.0193-0.16719-0.0193-0.13164 0-0.19792 0.0405-0.06534 0.0404-0.06534 0.12154 0 0.0618 0.04708 0.0975 0.04708 0.0347 0.18928 0.0665l0.06052 0.0132q0.18832 0.0405 0.2671 0.11474 0.07976 0.0733 0.07976 0.20558 0 0.15046-0.11914 0.23837-0.11818 0.0879-0.32572 0.0879-0.08648 0-0.18063-0.017-0.09319-0.017-0.19696-0.0501v-0.18335q0.09801 0.0512 0.19312 0.0771 0.09511 0.0251 0.18832 0.0251 0.1249 0 0.19216-0.0425 0.06726-0.0435 0.06726-0.12154 0-0.0724-0.049-0.11096-0.04805-0.0386-0.21234-0.0743l-0.0615-0.0151q-0.16431-0.0347-0.23733-0.10624-0.07302-0.0724-0.07302-0.19783 0-0.15255 0.10761-0.23548 0.10761-0.083 0.30555-0.083 0.09801 0 0.18448 0.0151 0.08648 0.0151 0.15949 0.0435z"/></g><path d="m112.06 381.98c-1.4412 0.58263-3.2326 0.34685-3.2326-1.3047 0-1.6127 1.7806-1.8584 3.1081-1.3666v0.63593c-1.3017-0.60069-2.2071-0.24421-2.2071 0.73048 0 0.86143 0.69194 1.1738 1.5054 0.95486v-0.59681h-0.53197v-0.53097h1.3582z" fill="#fff" stroke-width="1.886"/><rect x="153.36" y="377.47" width="49.045" height="2.7598" fill="#f9ff00" stroke-width="1.8861"/><g stroke-width="1.8861px"><path d="m196.45 377.79q-0.17465 0.30109-0.25935 0.59561-0.0847 0.29455-0.0847 0.59694t0.0847 0.59954q0.086 0.29583 0.25935 0.59561h-0.20852q-0.1955-0.30762-0.29325-0.60478-0.0964-0.29715-0.0964-0.59037 0-0.29192 0.0964-0.58777 0.0966-0.29584 0.29325-0.60478z"/><path d="m196.97 379.61h0.43008v-1.491l-0.46787 0.0943v-0.24087l0.46526-0.0943h0.26325v1.7319h0.43008v0.22253h-1.1208z"/><path d="m198.44 378.98h0.70246v0.21469h-0.70246z"/><path d="m200.1 378.91q-0.18764 0-0.29585 0.10075-0.10689 0.10076-0.10689 0.27754 0 0.17673 0.10689 0.27751 0.10821 0.10075 0.29585 0.10075 0.18762 0 0.29583-0.10075 0.10822-0.10207 0.10822-0.27751 0-0.17674-0.10822-0.27754-0.10688-0.10075-0.29583-0.10075zm-0.26325-0.11266q-0.16938-0.042-0.26457-0.1584-0.0939-0.11644-0.0939-0.28406 0-0.23432 0.16542-0.37047 0.16674-0.1361 0.45613-0.1361 0.29062 0 0.45614 0.1361 0.16542 0.13609 0.16542 0.37047 0 0.16748-0.0951 0.28406-0.0939 0.11644-0.26196 0.1584 0.19028 0.0446 0.29584 0.1741 0.10689 0.12967 0.10689 0.31679 0 0.28404-0.17333 0.43591-0.172 0.15178-0.49394 0.15178-0.32191 0-0.49524-0.15178-0.172-0.1518-0.172-0.43591 0-0.18714 0.10689-0.31679 0.1069-0.12967 0.29716-0.1741zm-0.0966-0.41757q0 0.15178 0.0939 0.23694 0.0952 0.0851 0.26586 0.0851 0.16937 0 0.26456-0.0851 0.0964-0.0851 0.0964-0.23694 0-0.15181-0.0964-0.23694-0.0953-0.0851-0.26456-0.0851-0.1707 0-0.26586 0.0851-0.0939 0.0851-0.0939 0.23694z"/><path d="m201.13 377.79h0.20853q0.19548 0.30894 0.29192 0.60478 0.0977 0.29585 0.0977 0.58777 0 0.29322-0.0977 0.59037-0.0964 0.29716-0.29192 0.60478h-0.20853q0.17331-0.29978 0.25804-0.59561 0.086-0.29715 0.086-0.59954t-0.086-0.59694q-0.0847-0.29452-0.25804-0.59561z"/></g><g stroke-width="1.884px"><path d="m154.15 378.1v0.73019h0.32839q0.18236 0 0.28184-0.0951 0.0996-0.0951 0.0996-0.27074 0-0.17447-0.0996-0.26943-0.0996-0.0951-0.28184-0.0951h-0.32839zm-0.26118-0.21608h0.58957q0.3245 0 0.48999 0.14839 0.16673 0.14707 0.16673 0.43212 0 0.28764-0.16673 0.43475-0.16543 0.14706-0.48999 0.14706h-0.32839v0.78098h-0.26118z"/><path d="m155.92 378.54q-0.19135 0-0.30253 0.15103-0.11123 0.14972-0.11123 0.41132 0 0.26162 0.1099 0.41261 0.11123 0.1497 0.30384 0.1497 0.19006 0 0.30125-0.15104 0.11122-0.15102 0.11122-0.41129 0-0.25903-0.11122-0.41001-0.11122-0.15235-0.30125-0.15235zm0-0.20305q0.3103 0 0.48741 0.20305 0.17709 0.20304 0.17709 0.56228 0 0.35795-0.17709 0.56229-0.17709 0.20306-0.48741 0.20306-0.31159 0-0.4887-0.20306-0.17578-0.20434-0.17578-0.56229 0-0.35924 0.17578-0.56228 0.17708-0.20305 0.4887-0.20305z"/><path d="m156.95 377.87h1.2205v0.22127h-0.95932v0.57531h0.91924v0.22127h-0.91924v0.70416h0.98258v0.22128h-1.2437z"/><path d="m159.43 377.87h0.26118v1.9433h-0.26118z"/><path d="m161.36 378.95v0.87989h-0.23791v-0.87208q0-0.20696-0.0802-0.30978-0.0802-0.10283-0.24047-0.10283-0.19263 0-0.30382 0.12362-0.11122 0.12362-0.11122 0.33712v0.82392h-0.23918v-1.4578h0.23918v0.22646q0.0852-0.13137 0.2004-0.19653 0.1165-0.065 0.26763-0.065 0.24952 0 0.37751 0.15615 0.12798 0.15481 0.12798 0.45686z"/><path d="m162.06 377.95v0.41391h0.49001v0.18619h-0.49001v0.79137q0 0.17826 0.0478 0.22909 0.0493 0.0506 0.19781 0.0506h0.24438v0.20046h-0.24438q-0.27538 0-0.38011-0.10283-0.10482-0.10416-0.10482-0.37746v-0.79137h-0.17465v-0.18619h0.17465v-0.41391h0.23917z"/><path d="m164.06 379.03v0.11721h-1.0938q0.015 0.24729 0.14736 0.37746 0.13324 0.12892 0.36978 0.12892 0.13701 0 0.26505-0.0339 0.12911-0.0338 0.25599-0.1015v0.22647q-0.12798 0.0546-0.26248 0.0834-0.13437 0.0285-0.27278 0.0285-0.34651 0-0.54947-0.20305-0.20168-0.20304-0.20168-0.54926 0-0.35795 0.19132-0.56751 0.19265-0.21085 0.51846-0.21085 0.29219 0 0.46156 0.19002 0.17069 0.18866 0.17069 0.51414zm-0.23791-0.0703q-2e-3 -0.19655-0.10991-0.31369-0.10614-0.11719-0.28183-0.11719-0.19914 0-0.31935 0.11322-0.11912 0.11323-0.137 0.31891l0.84813-1e-3z"/><path d="m165.38 379.08q0-0.26033-0.10746-0.4035-0.10614-0.14309-0.29866-0.14309-0.19136 0-0.29867 0.14309-0.10613 0.14309-0.10613 0.4035 0 0.25903 0.10613 0.4022 0.10728 0.14309 0.29867 0.14309 0.19264 0 0.29866-0.14309 0.10746-0.1431 0.10746-0.4022zm0.23788 0.56489q0 0.37226-0.16411 0.5532-0.1641 0.18223-0.50294 0.18223-0.12534 0-0.2366-0.0195-0.11122-0.0189-0.21591-0.0573v-0.23299q0.10483 0.0572 0.20685 0.0847 0.10219 0.0274 0.20817 0.0274 0.23401 0 0.35038-0.12361 0.11649-0.1223 0.11649-0.37095v-0.11852q-0.0738 0.12892-0.18878 0.19266-0.11517 0.0637-0.27539 0.0637-0.26632 0-0.42922-0.20437-0.16297-0.20435-0.16297-0.54147 0-0.3384 0.16297-0.54276 0.16279-0.20435 0.42922-0.20435 0.16035 0 0.27539 0.0637 0.11517 0.0637 0.18878 0.19263v-0.22127h0.23788v1.2769z"/><path d="m166.92 378.59q-0.0401-0.0234-0.0879-0.0339-0.0467-0.0112-0.10351-0.0112-0.2017 0-0.31029 0.1327-0.10745 0.13138-0.10745 0.37877v0.76794h-0.2392v-1.4578h0.2392v0.22647q0.0749-0.13268 0.19521-0.19653 0.12025-0.065 0.2922-0.065 0.0247 0 0.0542 4e-3 0.0298 2e-3 0.0659 9e-3l1e-3 0.24603z"/><path d="m168.33 379.03v0.11721h-1.0938q0.015 0.24729 0.14736 0.37746 0.13305 0.12892 0.36976 0.12892 0.13701 0 0.26503-0.0339 0.12948-0.0338 0.25602-0.1015v0.22647q-0.12797 0.0546-0.26247 0.0834-0.13437 0.0285-0.27279 0.0285-0.3465 0-0.54949-0.20305-0.20168-0.20304-0.20168-0.54926 0-0.35795 0.19133-0.56751 0.19264-0.21085 0.51847-0.21085 0.2922 0 0.46157 0.19002 0.17068 0.18866 0.17068 0.51414zm-0.23787-0.0703q-2e-3 -0.19655-0.10991-0.31369-0.10614-0.11719-0.28188-0.11719-0.19908 0-0.31934 0.11322-0.11875 0.11323-0.13701 0.31891l0.84814-1e-3z"/><path d="m169.66 378.59v-0.78877h0.23789v2.0253h-0.23789v-0.21868q-0.0749 0.13005-0.19005 0.19395-0.11386 0.0624-0.27409 0.0624-0.26246 0-0.42795-0.21086-0.1641-0.21084-0.1641-0.55448 0-0.34362 0.1641-0.55447 0.16542-0.21087 0.42795-0.21087 0.16034 0 0.27409 0.0637 0.11517 0.0626 0.19005 0.19265zm-0.81064 0.50892q0 0.26423 0.10746 0.41521 0.10858 0.14973 0.29736 0.14973 0.18876 0 0.29737-0.14973 0.10858-0.15102 0.10858-0.41521 0-0.26423-0.10858-0.41392-0.10859-0.15104-0.29737-0.15104-0.18876 0-0.29736 0.15104-0.10746 0.14971-0.10746 0.41392z"/><path d="m171.26 379.59h0.42666v-1.4825l-0.46415 0.0938v-0.2395l0.46157-0.0937h0.26115v1.722h0.42665v0.2213h-1.1119z"/><path d="m173.42 378.04q-0.20169 0-0.30382 0.20042-0.10087 0.19914-0.10087 0.60004 0 0.39959 0.10087 0.60005 0.10219 0.19914 0.30382 0.19914 0.20299 0 0.30383-0.19914 0.10218-0.20046 0.10218-0.60005 0-0.4009-0.10218-0.60004-0.10086-0.20042-0.30383-0.20042zm0-0.20827q0.32454 0 0.49516 0.25902 0.17201 0.2577 0.17201 0.74971 0 0.49071-0.17201 0.74972-0.17068 0.25773-0.49516 0.25773-0.32451 0-0.49647-0.25773-0.1707-0.25901-0.1707-0.74972 0-0.49201 0.1707-0.74971 0.172-0.25902 0.49647-0.25902z"/><path d="m174.92 377.87h0.21979l-0.67229 2.1906h-0.21979z"/><path d="m175.44 379.59h0.42664v-1.4825l-0.46414 0.0938v-0.2395l0.46156-0.0937h0.26118v1.722h0.42663v0.2213h-1.1119z"/><path d="m177.6 378.04q-0.20169 0-0.30383 0.20042-0.10087 0.19914-0.10087 0.60004 0 0.39959 0.10087 0.60005 0.10219 0.19914 0.30383 0.19914 0.20299 0 0.30382-0.19914 0.10219-0.20046 0.10219-0.60005 0-0.4009-0.10219-0.60004-0.10087-0.20042-0.30382-0.20042zm0-0.20827q0.3245 0 0.49518 0.25902 0.172 0.2577 0.172 0.74971 0 0.49071-0.172 0.74972-0.1707 0.25773-0.49518 0.25773-0.32451 0-0.49646-0.25773-0.17069-0.25901-0.17069-0.74972 0-0.49201 0.17069-0.74971 0.17201-0.25902 0.49646-0.25902z"/><path d="m179.27 378.04q-0.20167 0-0.30379 0.20042-0.10087 0.19914-0.10087 0.60004 0 0.39959 0.10087 0.60005 0.10218 0.19914 0.30379 0.19914 0.203 0 0.30384-0.19914 0.10219-0.20046 0.10219-0.60005 0-0.4009-0.10219-0.60004-0.10088-0.20042-0.30384-0.20042zm0-0.20827q0.32454 0 0.49519 0.25902 0.17201 0.2577 0.17201 0.74971 0 0.49071-0.17201 0.74972-0.17069 0.25773-0.49519 0.25773-0.32449 0-0.49645-0.25773-0.17068-0.25901-0.17068-0.74972 0-0.49201 0.17068-0.74971 0.17202-0.25902 0.49645-0.25902z"/><path d="m180.76 377.87h0.21979l-0.6723 2.1906h-0.21979z"/><path d="m181.28 379.59h0.42665v-1.4825l-0.46416 0.0938v-0.2395l0.46156-0.0937h0.26118v1.722h0.42665v0.2213h-1.1119z"/><path d="m183.46 378.04q-0.20169 0-0.30384 0.20042-0.10087 0.19914-0.10087 0.60004 0 0.39959 0.10087 0.60005 0.10219 0.19914 0.30384 0.19914 0.20298 0 0.30383-0.19914 0.10219-0.20046 0.10219-0.60005 0-0.4009-0.10219-0.60004-0.10086-0.20042-0.30383-0.20042zm0-0.20827q0.3245 0 0.49517 0.25902 0.17201 0.2577 0.17201 0.74971 0 0.49071-0.17201 0.74972-0.17069 0.25773-0.49517 0.25773-0.32451 0-0.49648-0.25773-0.17068-0.25901-0.17068-0.74972 0-0.49201 0.17068-0.74971 0.17201-0.25902 0.49648-0.25902z"/><path d="m185.11 378.04q-0.2017 0-0.30384 0.20042-0.10085 0.19914-0.10085 0.60004 0 0.39959 0.10085 0.60005 0.10219 0.19914 0.30384 0.19914 0.20299 0 0.30382-0.19914 0.10219-0.20046 0.10219-0.60005 0-0.4009-0.10219-0.60004-0.10087-0.20042-0.30382-0.20042zm0-0.20827q0.3245 0 0.49518 0.25902 0.172 0.2577 0.172 0.74971 0 0.49071-0.172 0.74972-0.1707 0.25773-0.49518 0.25773-0.32452 0-0.49646-0.25773-0.17069-0.25901-0.17069-0.74972 0-0.49201 0.17069-0.74971 0.172-0.25902 0.49646-0.25902z"/><path d="m186.77 378.04q-0.20168 0-0.30381 0.20042-0.10088 0.19914-0.10088 0.60004 0 0.39959 0.10088 0.60005 0.10219 0.19914 0.30381 0.19914 0.20301 0 0.30383-0.19914 0.10219-0.20046 0.10219-0.60005 0-0.4009-0.10219-0.60004-0.10086-0.20042-0.30383-0.20042zm0-0.20827q0.32452 0 0.49519 0.25902 0.17201 0.2577 0.17201 0.74971 0 0.49071-0.17201 0.74972-0.17069 0.25773-0.49519 0.25773-0.32449 0-0.49646-0.25773-0.1707-0.25901-0.1707-0.74972 0-0.49201 0.1707-0.74971 0.172-0.25902 0.49646-0.25902z"/><path d="m188.93 378.1v0.73019h0.32841q0.18235 0 0.28185-0.0951 0.0996-0.0951 0.0996-0.27074 0-0.17447-0.0996-0.26943-0.0996-0.0951-0.28185-0.0951h-0.32841zm-0.26115-0.21608h0.58956q0.32452 0 0.49001 0.14839 0.16674 0.14707 0.16674 0.43212 0 0.28764-0.16674 0.43475-0.16542 0.14706-0.49001 0.14706h-0.32841v0.78098h-0.26115z"/><path d="m190.69 378.54q-0.19135 0-0.30254 0.15103-0.11122 0.14972-0.11122 0.41132 0 0.26162 0.10991 0.41261 0.11121 0.1497 0.30384 0.1497 0.19003 0 0.30123-0.15104 0.11123-0.15102 0.11123-0.41129 0-0.25903-0.11123-0.41001-0.11122-0.15235-0.30123-0.15235zm0-0.20305q0.3103 0 0.48742 0.20305 0.17709 0.20304 0.17709 0.56228 0 0.35795-0.17709 0.56229-0.17709 0.20306-0.48742 0.20306-0.31159 0-0.48871-0.20306-0.17578-0.20434-0.17578-0.56229 0-0.35924 0.17578-0.56228 0.17708-0.20305 0.48871-0.20305z"/><path d="m192.57 378.59q-0.0401-0.0234-0.0879-0.0339-0.0465-0.0112-0.10351-0.0112-0.20168 0-0.31028 0.1327-0.10745 0.13138-0.10745 0.37877v0.76794h-0.23918v-1.4578h0.23918v0.22647q0.0749-0.13268 0.19522-0.19653 0.12026-0.065 0.29219-0.065 0.0247 0 0.0542 4e-3 0.0298 2e-3 0.0658 9e-3l9.9e-4 0.24603z"/><path d="m193.04 377.95v0.41391h0.48998v0.18619h-0.48998v0.79137q0 0.17826 0.0478 0.22909 0.0491 0.0506 0.19783 0.0506h0.24433v0.20046h-0.24433q-0.27541 0-0.38011-0.10283-0.10483-0.10416-0.10483-0.37746v-0.79137h-0.17464v-0.18619h0.17464v-0.41391h0.23919z"/><path d="m194.73 378.4v0.22649q-0.10087-0.052-0.20946-0.0781t-0.22495-0.0261q-0.17709 0-0.26633 0.0546-0.0879 0.0546-0.0879 0.16407 0 0.0834 0.0632 0.13137 0.0632 0.0469 0.25471 0.0898l0.0814 0.0189q0.2534 0.0546 0.35944 0.15482 0.10745 0.0989 0.10745 0.27724 0 0.20304-0.16034 0.32148-0.15902 0.11834-0.4383 0.11834-0.1165 0-0.24305-0.0234-0.12551-0.0221-0.26502-0.0677v-0.24732q0.13173 0.069 0.25985 0.10416 0.12796 0.0337 0.25342 0.0337 0.16805 0 0.25857-0.0573 0.0905-0.0586 0.0905-0.1639 0-0.0975-0.0659-0.1497-0.0645-0.052-0.28574-0.10014l-0.0828-0.0195q-0.22108-0.0469-0.31934-0.14309-0.0983-0.0975-0.0983-0.26684 0-0.20565 0.14472-0.31759 0.14471-0.11192 0.41112-0.11192 0.13191 0 0.24824 0.0195 0.11649 0.0195 0.21462 0.0586z"/></g><g fill="#fff" stroke-width="1.8861px"><path d="m70.154 389.83h0.17679l0.22099 0.84348 0.22003-0.84348h0.2085l0.22099 0.84348 0.22003-0.84348h0.17679l-0.28151 1.0809h-0.2085l-0.23155-0.88591-0.23251 0.88591h-0.2085l-0.28151-1.0809z"/><path d="m68.176 389.62v0.54142h0.24405c0.2259 0 0.28344-0.10034 0.28344-0.27125 0-0.17088-0.11416-0.27028-0.28344-0.27028h-0.24405zm-0.19408-0.16029h0.43813c0.34595 0 0.48809 0.1639 0.48809 0.43042 0 0.26653-0.14399 0.43142-0.48809 0.43142h-0.24405v0.57903h-0.19408v-1.4408z"/><path d="m69.49 389.94c-0.16777 0-0.30747 0.13403-0.30747 0.41686 0 0.28281 0.15018 0.4169 0.30747 0.4169 0.15729 0 0.3065-0.0923 0.3065-0.41688 0-0.32466-0.13874-0.41688-0.3065-0.41688zm0-0.15047c0.29478 0 0.49387 0.18413 0.49387 0.56737 0 0.38333-0.18768 0.56739-0.49387 0.56739-0.30619 0-0.49387-0.18486-0.49387-0.56739 0-0.38249 0.19909-0.56737 0.49387-0.56737z"/><path d="m72.768 390.42h-0.81285c0.03252 0.44956 0.42115 0.421 0.77152 0.27495v0.16787c-0.57131 0.21317-0.95601 9e-3 -0.95601-0.47475 0-0.50461 0.34815-0.57831 0.52748-0.57708 0.47492 0 0.46986 0.43153 0.46986 0.60901zm-0.17679-0.13913c0-0.21272-0.12675-0.31955-0.29113-0.31955-0.16439 0-0.33918 0.1155-0.33918 0.32039l0.63029-9.7e-4z"/><path d="m73.662 390c-0.24117-0.0849-0.45254 1e-3 -0.45254 0.34471v0.5694h-0.17775v-1.0809h0.17775v0.16785c0.14826-0.21485 0.32276-0.20895 0.45158-0.1826l9.61e-4 0.18241z"/><path d="m67.982 393.38h0.82439v0.16407h-0.63029v0.42464h0.56881v0.16408h-0.56881v0.6881h-0.19408v-1.4409z"/><path d="m71.325 393.31h0.17679v1.5016h-0.17679z"/><path d="m69.018 394.48c0.01017 0.40992 0.55537 0.15917 0.55537-0.2169-0.43374 0-0.55537 0.0268-0.55537 0.2169zm0.73214-0.29035v0.61668h-0.17679v-0.16408c-0.40337 0.40518-0.73216 0.0807-0.73216-0.15046 0-0.42196 0.45286-0.36769 0.73214-0.36769v-0.017c0.0047-0.37425-0.48681-0.25826-0.65336-0.16807v-0.16407c0.59009-0.21301 0.83015 0.051 0.83015 0.41497z"/><path d="m70.077 394.39v-0.65434h0.17679v0.64757c0 0.45678 0.54766 0.43325 0.54766-0.0348v-0.6128h0.17679v1.0809h-0.17679v-0.16596c-0.41586 0.41769-0.72446 0.0877-0.72446-0.26066z"/><path d="m72.025 393.42v0.30691h0.36415v0.13799h-0.36415v0.58679c0 0.19948 0.02864 0.20753 0.18255 0.20753h0.18161v0.14858h-0.18161c-0.313 0-0.36029-0.16219-0.36029-0.35603v-0.5868h-0.1297v-0.13798h0.1297v-0.30691h0.17775z"/><path d="m67.982 397.84h0.19408v1.2768h0.69851v0.16408h-0.89261z"/><path d="m69.433 398.34c-0.21194 0-0.30747 0.17713-0.30747 0.41687s0.10874 0.41689 0.30747 0.41689 0.30651-0.20062 0.30651-0.41687c0-0.21627-0.09456-0.41689-0.30651-0.41689zm0-0.15065c0.29412 0 0.49387 0.17637 0.49387 0.56755 0 0.39117-0.20302 0.56738-0.49387 0.56738-0.29085 0-0.49387-0.2125-0.49387-0.56738 0-0.35487 0.19974-0.56755 0.49387-0.56755z"/><path d="m70.973 398.24v0.16598c-0.48175-0.22962-0.6649 0.0614-0.6649 0.3339 0.01374 0.50424 0.43434 0.45697 0.6649 0.33395v0.16407c-0.5776 0.20431-0.85128-0.10245-0.85128-0.49832 0-0.52591 0.44852-0.66584 0.85128-0.50043z"/><path d="m71.372 398.96c0 0.29853 0.55535 0.32636 0.55537-0.21707-0.49323 0-0.55537 0.0437-0.55537 0.21707zm0.73214-0.29032v0.61668h-0.17679v-0.16407c-0.25596 0.39002-0.73216 0.13023-0.73216-0.15048 0-0.41353 0.41634-0.35824 0.73214-0.36763 0-0.40917-0.52014-0.26226-0.65336-0.18506v-0.16408c0.59007-0.21302 0.83015 0.0274 0.83015 0.41498z"/><path d="m75.01 398.37c-0.2763-0.11625-0.45254 0.0813-0.45254 0.3447v0.56941h-0.17775v-1.0809h0.17775v0.16786c0.0975-0.20307 0.32276-0.21287 0.45158-0.1826l9.62e-4 0.18241z"/><path d="m72.626 397.9v0.30691h0.36415v0.13798h-0.36415v0.58679c0 0.1995 0.02868 0.20753 0.18253 0.20753h0.18161v0.14859h-0.18161c-0.31299 0-0.36029-0.1622-0.36029-0.35609v-0.58676h-0.1297v-0.13799h0.1297v-0.3069h0.17775z"/><path d="m73.621 398.33c-0.21194 0-0.30747 0.17712-0.30747 0.41687 0 0.23976 0.10874 0.41688 0.30747 0.41688 0.19874 0 0.30651-0.20062 0.30651-0.41686 0-0.21627-0.09456-0.41689-0.30651-0.41689zm0-0.15065c0.29412 0 0.49387 0.17637 0.49387 0.56756 0 0.39115-0.20301 0.56736-0.49387 0.56736-0.29086 0-0.49387-0.21251-0.49387-0.56736 0-0.35488 0.19974-0.56756 0.49387-0.56756z"/></g></svg>
