<svg width="442" height="44.5" version="1.1" viewBox="66 376 442 44.5" xmlns="http://www.w3.org/2000/svg"><rect x="66.412" y="376.41" width="441.18" height="43.675" fill="#2f2524" stroke="#000" stroke-width=".82476"/><rect x="84.454" y="377.2" width="421.37" height="42.086" rx="1.285" ry="1.1911" fill="none" stroke="#e7e7e7" stroke-linejoin="round" stroke-width=".41238"/><rect x="85.37" y="378.29" width="19.624" height="11.471" rx=".41328" ry=".54455" fill="none" stroke="#fff" stroke-width=".18255"/><ellipse cx="85.725" cy="416.77" rx=".72969" ry=".73078" stroke-width="1.8802"/><ellipse cx="95.419" cy="416.77" rx=".72969" ry=".73078" stroke-width="1.8802"/><rect x="67.509" y="377.94" width="16.135" height="7.7107" rx=".26002" ry=".12707" fill="#231f20" stroke="#000" stroke-linejoin="round" stroke-width=".32905"/><path class="st1" d="m76.498 382.18c0 0.74182-0.59257 1.3446-1.3148 1.3446-0.72219 0-1.3148-0.60276-1.3148-1.3446v-1.1406s0.62961 0.15765 0.62961 0.8253v0.31528c0 0.408 0.30554 0.73255 0.68514 0.73255 0.37962 0 0.68516-0.32455 0.68516-0.73255v-0.64928c0.0278-0.55638 0.50968-0.73257 0.63005-0.79748zm-2.8888-0.53784c-0.12962-0.11123-0.30554-0.17619-0.49072-0.17619-0.41665 0-0.74996 0.32456-0.74996 0.73257v1.326h-0.62961v-2.4296s0.25926 9e-3 0.4259 0.12989c0.24072-0.24111 0.58331-0.3802 0.95367-0.3802 0.17594 0 0.34258 0.0278 0.49072 0.0927zm-4.2684 0.53776c0-0.408 0.34257-0.74184 0.75923-0.74184s0.75922 0.33384 0.75922 0.74184c0 0.40801-0.34257 0.74185-0.75922 0.74185s-0.75923-0.33384-0.75923-0.74185zm-0.61108 8e-5c0 0.74184 0.6111 1.3353 1.3703 1.3353 0.3148 0 0.60182-0.10197 0.83329-0.2782 0.13889 0.23182 0.53702 0.2782 0.53702 0.2782v-1.3353c0-0.73256-0.6111-1.3353-1.3703-1.3353-0.75923 0-1.3703 0.60274-1.3703 1.3353zm11.565-8e-5c0-0.408 0.34257-0.74184 0.75923-0.74184 0.41665 0 0.75922 0.33384 0.75922 0.74184 0 0.40801-0.34257 0.74185-0.75922 0.74185-0.41666 0-0.75923-0.33384-0.75923-0.74185zm-0.61107 8e-5c0 0.74184 0.61108 1.3353 1.3703 1.3353 0.3148 0 0.60183-0.10197 0.83329-0.2782 0.13889 0.23182 0.53701 0.2782 0.53701 0.2782v-1.3353c0-0.73256-0.61108-1.3353-1.3703-1.3353s-1.3703 0.60274-1.3703 1.3353zm-2.2961-8e-5c0-0.408 0.34257-0.74184 0.75923-0.74184 0.41665 0 0.75922 0.33384 0.75922 0.74184 0.01 0.40801-0.33333 0.74185-0.75922 0.74185-0.41666 0-0.75923-0.33384-0.75923-0.74185zm0-1.3259c-0.0278-0.55638-0.49116-0.73256-0.61152-0.79748v3.4681s0.40739-0.0464 0.5648-0.26892c0.23147 0.15765 0.50924 0.25965 0.80554 0.25965 0.75923 0 1.3703-0.60274 1.3703-1.3353 0.01-0.73256-0.61108-1.3353-1.3701-1.3353-0.27756 0-0.5368 0.0835-0.75902 0.22255z" fill="#f5831f" stroke-width="1.5163"/><rect x="456.87" y="403.35" width="3.1609" height="2.4169" rx=".16209" ry=".079093" fill="#e6e6e6" stroke="#000" stroke-width=".39914"/><rect x="456.87" y="407.44" width="3.1609" height="2.4169" rx=".16209" ry=".079093" fill="#e6e6e6" stroke="#000" stroke-width=".39914"/><g fill="#fff"><path d="m88.5 416.91c0.04234 0.48534 0.47118 0.35674 0.72661 0.25781v0.15738c-0.60535 0.20747-0.89638-0.0404-0.90037-0.44512 0.03456-0.78209 1.0234-0.65776 0.93929 0.0299zm0.59903-0.13044c0-0.46355-0.59406-0.33143-0.59361 7.8e-4z" stroke-width="1.7724px"/><path d="m90.166 416.54c-0.45982-0.17528-0.55198 0.0234-0.55198 0.0756 0 0.23661 0.60627 0.0774 0.60627 0.47047 0 0.3532-0.4209 0.33778-0.77457 0.24302v-0.17192c0.28798 0.16624 0.60356 0.10656 0.60356-0.0579 0-0.27464-0.59633-0.0544-0.59633-0.47298 0-0.39313 0.50516-0.29505 0.71306-0.24364z" stroke-width="1.7723px"/><path d="m91.756 416.07v0.28775h0.34296v0.12938h-0.34296v0.55017c0 0.17227 0.03915 0.19461 0.17192 0.19461h0.17104v0.1393h-0.17104c-0.32812 0-0.32843-0.17174-0.33932-0.33384v-0.55017h-0.12215v-0.12939h0.12215v-0.28774z" stroke-width="1.7723px"/><g stroke-width="1.7724px"><path d="m98.137 415.95h0.1665v1.408h-0.1665z"/><path d="m97.887 416.31c-0.42983-0.32111-0.89676-0.13399-0.89676 0.38012 0 0.64669 0.56829 0.65295 0.89676 0.37923v0.19093c-0.57506 0.33202-1.0895 7e-3 -1.0895-0.57011 0.0244-0.79254 0.70961-0.80302 1.0895-0.57279z"/><path d="m101.47 416.5c-0.4262-0.15633-0.4262 0.32322-0.4262 0.32322v0.53389h-0.1674v-1.0135h0.1674v0.15739c0.1171-0.21983 0.37912-0.1783 0.42527-0.17121z"/></g><path d="m98.732 416.89c0.0423 0.48535 0.47118 0.35674 0.72661 0.25781v0.15738c-0.60536 0.20748-0.89638-0.0404-0.90038-0.44513 0.0346-0.78209 1.0234-0.65776 0.93931 0.03zm0.59904-0.13044c0-0.46355-0.59406-0.33144-0.59362 7.7e-4z" stroke-width="1.7723px"/><path d="m99.857 417.06c2e-3 0.28293 0.52302 0.30598 0.52304-0.20357-0.38272 0-0.52304 0.0202-0.52304 0.20357zm0.68952 0.30598h-0.1665v-0.15384c-0.19925 0.32024-0.69452 0.17653-0.69452-0.12743 0-0.30724 0.16174-0.36968 0.69451-0.35852 0-0.39379-0.50984-0.23743-0.61532-0.17333v-0.15385c0.5648-0.18401 0.78182 0.0429 0.78182 0.38909 1e-5 0.85929 2e-5 -0.28141 2e-5 0.57788z" stroke-width="1.7723px"/></g><ellipse cx="94.176" cy="409.35" rx="1.354" ry="1.3531"/><rect x="97.477" y="401.96" width="5.8828" height="3.5297" rx=".15818" ry=".077182"/><g fill="#0f0"><path d="m99.352 404.39h-0.84851l-0.1339 0.38339h-0.54548l0.77944-2.1044h0.64696l0.77944 2.1044h-0.54547zm-0.7132-0.39042h0.57648l-0.28754-0.83723z"/><path d="m101.53 403.65c-0.52344-0.31309-0.86824-0.0484-0.86824 0.32974 0 0.54308 0.54356 0.56605 0.86824 0.3283v0.41298c-0.7746 0.25271-1.3939-0.0629-1.3939-0.74139 0-0.77767 0.80614-0.96854 1.3939-0.7414z"/><path d="m102.49 402.74v0.44822h0.5201v0.36084h-0.5201v0.66949c0 0.18784 0.0985 0.1875 0.21706 0.1875h0.25934v0.36083h-0.43271c-0.52435 0-0.5483-0.30152-0.5483-0.54833v-0.66949h-0.25088v-0.36084h0.25088v-0.44822z"/></g><rect x="97.629" y="406.16" width="5.8828" height="3.5297" rx=".15818" ry=".077182"/><g fill="#b3b3b3"><path d="m97.939 406.86h1.4644v0.41016h-0.9218v0.39182h0.86683v0.41017h-0.86683v0.89221h-0.54265z"/><path d="m102.03 408.16-0.56944-0.77099h0.53419l0.32277 0.46794 0.327-0.46794h0.53419l-0.56942 0.76817 0.59762 0.81046h-0.53419l-0.35519-0.49896-0.35096 0.49896h-0.53419z"/><path d="m100.13 408.55c0.66458 0.0564 0.8781-0.23876 0.8781-0.64423 0-0.57837-0.36993-0.6398-0.8781-0.6398zm-0.54264-1.6942h0.57224c0.95459-0.0305 1.4081 0.32913 1.4081 1.0501 0 0.89771-0.66683 1.0543-1.4081 1.0543h-0.57224z"/></g><rect x="97.639" y="410.6" width="5.8828" height="3.5297" rx=".15818" ry=".077182"/><g fill="#b3b3b3"><path d="m99.55 411.58c-0.50189-0.2284-1.0303-0.22003-1.0303 0.0633 0 0.35506 1.1685 0.0558 1.1685 0.88245-3e-3 0.87493-1.0059 0.74934-1.6421 0.53695v-0.45807c0.54662 0.3219 1.1559 0.25346 1.1191-0.0124 0-0.43062-1.1374-0.0861-1.1374-0.90911 0.0339-0.73936 0.74957-0.73093 1.5222-0.54831z"/><path d="m100.32 412.94v0.82878h-0.50458v-2.179h0.50458v0.23116c0.52643-0.59929 1.1896-0.12424 1.1896 0.5595 0 0.88884-0.83372 1.0405-1.1896 0.55953zm0-0.55957c0 0.70313 0.66809 0.57423 0.66809 0 0-0.66323-0.66809-0.55953-0.66809 0z"/><path d="m102.79 410.98h0.50741v2.1932h-0.50741v-0.22835c-0.47349 0.58913-1.1868 0.16164-1.1868-0.55953 0-0.85538 0.8202-1.0568 1.1868-0.5595zm0 1.4053c0-0.73749-0.66388-0.46876-0.66388 0 0 0.76118 0.66388 0.47265 0.66388 0z"/></g><path d="m97.376 414h-3.2195v-2.9116" fill="none" stroke="#fff" stroke-width=".28239"/><path d="m97.376 402.63h-3.2299v1.5696" fill="none" stroke="#fff" stroke-width=".2616"/><g fill="#fff"><path d="m92.751 405.28h0.13849v0.90709h0.49844v0.11657h-0.63695z"/><path d="m93.519 405.28h0.64722v0.11657h-0.50873v0.30304h0.48747v0.11656h-0.48747v0.37092h0.52107v0.11657h-0.65956z"/><path d="m92.751 406.38h0.20638l0.26122 0.6966 0.26259-0.6966h0.20638v1.0236h-0.13507v-0.89886l-0.26396 0.70209h-0.13918l-0.26396-0.70209v0.89886h-0.13438z"/><path d="m94.532 405.39v0.79601h0.1673c0.31573 0 0.40863-0.16871 0.40863-0.39905 0-0.36377-0.22891-0.39702-0.40863-0.39702zm-0.13849-0.11375h0.28453c0.65328 0 0.57592 0.51079 0.57592 0.51079 0 0.50079-0.43588 0.51282-0.57592 0.51282h-0.28453z"/><path d="m94.242 406.73c-0.1948 0-0.2194 0.17687-0.2194 0.29615 0 0.11925 0.0079 0.29617 0.2194 0.29617 0.21154 0 0.21872-0.17057 0.21872-0.29616 0-0.12556-0.02392-0.29616-0.21872-0.29616zm0-0.10703c0.30658 0 0.35544 0.29214 0.35242 0.40322 0 0.29655-0.19006 0.40322-0.35242 0.40322-0.30378 0-0.35242-0.24089-0.35242-0.40322 0-0.40983 0.35242-0.40322 0.35242-0.40322z"/><path d="m95.293 406.34h0.12615v1.0668h-0.12615v-0.11522c-0.26982 0.3092-0.56015 0.0227-0.56015-0.26804 0-0.56479 0.5445-0.41903 0.56015-0.26805zm-0.23221 0.97432c0.13437-1e-3 0.24053-0.11939 0.23224-0.29075-0.0083-0.17138-0.10421-0.2941-0.21494-0.29756-0.13872-4e-3 -0.21494 0.0984-0.21496 0.2976-1.3e-5 0.19915 0.06328 0.29193 0.19766 0.29071z"/><path d="m95.743 407.07c0 0.21536 0.17891 0.27085 0.27425 0.26666 0.09534-4e-3 0.18285-0.0217 0.27631-0.0713v0.11925c-0.09 0.0517-0.20196 0.059-0.28385 0.059-0.34507-8e-3 -0.39836-0.24735-0.39836-0.39636 0-0.38588 0.28907-0.41 0.3764-0.41 0.29722 0 0.34311 0.25383 0.3353 0.4328zm0.45388-0.0988c0-0.16813-0.11185-0.227-0.20774-0.227-0.1791 0-0.24203 0.11616-0.24203 0.22761z"/></g><rect x="85.472" y="410.43" width="5.8828" height="3.5297" rx=".15818" ry=".077182"/><g fill="#fff"><path d="m86.479 404.1c-0.42084-0.19322-0.69401-0.0837-0.68589 0.12388-0.0058 0.37581 0.76977 0.0565 0.76733 0.63177 0 0.46043-0.5268 0.46277-0.94559 0.31313v-0.18822c0.44484 0.23701 0.75466 0.11112 0.75466-0.11113 0-0.41857-0.7601-0.0828-0.7601-0.63081 0.02109-0.468 0.51718-0.40938 0.86957-0.31617z"/><path d="m86.984 404.21h0.34294v0.12939h-0.34292v0.55016c0 0.17228 0.03913 0.1946 0.17192 0.1946h0.17103v0.1393h-0.17103c-0.32811 0-0.32843-0.17174-0.33931-0.33383v-0.55017h-0.12215v-0.12938h0.12215v-0.28773h0.1674z"/><path d="m87.631 404.91c0.0027 0.28291 0.52301 0.30597 0.52303-0.20357-0.38272 0-0.52303 0.0202-0.52303 0.20357zm0.6895 0.30597h-0.16649v-0.15384c-0.19924 0.32024-0.6945 0.17653-0.6945-0.12743 0-0.30723 0.16174-0.36967 0.69448-0.3585 0-0.39379-0.50984-0.23744-0.61531-0.17334v-0.15383c0.5648-0.18402 0.78181 0.0429 0.78182 0.2158z"/><path d="m89.337 404.21h0.16649v0.60719c0 0.40204 0.51576 0.40622 0.51576-0.0326v-0.5746h0.16649v1.0134h-0.16649v-0.15562c-0.213 0.30868-0.68227 0.22632-0.68227-0.24441z"/><path d="m91.159 404.4c-0.45981-0.17529-0.55197 0.0234-0.55197 0.0757 0 0.2366 0.60626 0.0774 0.60626 0.47046 0 0.35319-0.42089 0.33777-0.77456 0.243v-0.17191c0.28797 0.16624 0.60355 0.10651 0.60355-0.058 0-0.27462-0.59632-0.0544-0.59632-0.47296 0-0.39312 0.50515-0.29504 0.71304-0.24364z"/><path d="m88.82 403.93v0.28773h0.34296v0.12939h-0.34296v0.55018c0 0.17227 0.03915 0.1946 0.17192 0.1946h0.17104v0.13931h-0.17104c-0.32812 0-0.32843-0.17174-0.33932-0.33384v-0.55017h-0.12215v-0.12939h0.12215v-0.28774z"/></g><rect x="85.472" y="406.17" width="5.8832" height="3.5145" rx=".15819" ry=".076848" stroke-width="1.7685"/><g fill="#b3b3b3"><path d="m85.72 406.83h1.4978v0.42014h-0.94279v0.40137h0.88658v0.42014h-0.88658v0.91391h-0.55501z"/><path d="m91.102 408.98h-0.51896v-0.75366c0-0.56071-0.24077-0.5123-0.24218-0.51259-0.30087 0-0.35439 0.36883-0.34599 0.47073v0.79552h-0.51609v-1.617h0.51609v0.23677c0.19302-0.21125 0.3311-0.27571 0.5377-0.27571 0.59337-0.0225 0.56944 0.5792 0.56944 0.6713z"/><path d="m88.504 408.27c-1.3642-0.10401-0.04624 1.026 0 0zm0.52042 0.72791h-0.52042v-0.23966c-0.38766 0.51237-1.1129 0.2725-1.1129-0.24539 0-0.61041 0.64172-0.54314 1.1129-0.55002 0.02712-0.418-0.6537-0.29176-0.97163-0.14449v-0.39414c0.866-0.18959 1.4958-0.12513 1.492 0.65113z"/></g><g fill="#fff"><path d="m120.42 415.88h0.17688v1.4958h-0.17688z"/><path d="m116.23 416.41c-0.21106 0-0.30763 0.2114-0.30763 0.41524 0 0.20385 0.0922 0.41529 0.30763 0.41529s0.30668-0.1802 0.30668-0.41527c0-0.23501-0.0956-0.41526-0.30668-0.41526zm0-0.15007c0.33319 0 0.49414 0.24354 0.49414 0.56537s-0.17204 0.56518-0.49414 0.56518c-0.32209 0-0.49412-0.24679-0.49412-0.56518s0.16094-0.56537 0.49412-0.56537z"/><path d="m117.89 417.36h-0.17688v-0.6441c0-0.46729-0.54701-0.35373-0.54701 0.0356v0.60853h-0.17785v-1.0767h0.17785v0.16721c0.20351-0.30106 0.73169-0.26143 0.72387 0.25968z"/><path d="m118.91 416.49c-0.32694-0.12428-0.58642-0.0842-0.58642 0.0845 0 0.25772 0.64409 0.0606 0.64409 0.49568 0 0.36194-0.43121 0.35609-0.8229 0.25817v-0.18264c0.26697 0.15647 0.64122 0.13105 0.64122-0.0614 0-0.27363-0.63353-0.052-0.63353-0.50249 0-0.35082 0.42859-0.35983 0.75754-0.25886z"/><path d="m121.86 416.79v0.0866h-0.81329c0.0684 0.54594 0.56045 0.37237 0.77195 0.27389v0.16721c-0.63538 0.22102-0.95656-0.0469-0.95656-0.4729 0-0.31837 0.19519-0.57488 0.52777-0.57488 0.40181 0 0.47013 0.37281 0.47013 0.52008zm-0.17688-0.052c0-0.26348-0.1695-0.31831-0.29129-0.31831s-0.33936 0.0557-0.33936 0.31914z"/><path d="m119.65 416.42c-0.21107 0-0.30764 0.2114-0.30764 0.41525 0 0.20386 0.0923 0.41529 0.30764 0.41529 0.21542 0 0.30668-0.1802 0.30668-0.41527 0-0.235-0.0956-0.41527-0.30668-0.41527zm0-0.15007c0.33319 0 0.49414 0.24355 0.49414 0.56538 0 0.32184-0.17205 0.56519-0.49414 0.56519-0.3221 0-0.49412-0.2468-0.49412-0.56519s0.16093-0.56538 0.49412-0.56538z"/><path d="m115.54 416.05v0.20475c-0.54974-0.43119-0.95269-0.0557-0.95269 0.40384 0 0.64549 0.55524 0.72594 0.95269 0.40289v0.20285c-0.59708 0.34473-1.1575 0.0151-1.1575-0.60569 0-0.79995 0.71506-0.86365 1.1575-0.60864z"/></g><rect x="74.457" y="391" width="9.0137" height="1.6732" rx=".46716" ry=".22795" fill="#00ff1f" stroke-width="1.4764"/><rect x="74.521" y="394.88" width="9.0137" height="1.6732" rx=".46716" ry=".22795" fill="#838383" stroke-width="1.4764"/><ellipse cx="80.245" cy="400.3" rx="1.4384" ry="1.4375" fill="#838383" stroke-width="1.883"/><g fill="#fff"><path d="m70.631 391.56 0.22111 0.84023 0.22015-0.84023h0.20861l0.22111 0.84023 0.22015-0.84023h0.17688l-0.28167 1.0767h-0.20861l-0.23168-0.8825-0.23264 0.8825h-0.20861l-0.28167-1.0767z"/><path d="m68.475 391.36v0.53931h0.24418c0.22603 0 0.28359-0.1 0.28359-0.2702 0-0.17022-0.11422-0.26922-0.28359-0.26922zm-0.19419-0.15967h0.43837c0.34614 0 0.48836 0.16325 0.48836 0.42874 0 0.2655-0.14406 0.42975-0.48836 0.42975h-0.24418v0.5768h-0.19419z"/><path d="m69.789 391.68c-0.16786 0-0.30763 0.1335-0.30763 0.41524 0 0.28173 0.15026 0.41529 0.30763 0.41529s0.30668-0.0919 0.30668-0.41527c0-0.32341-0.13881-0.41526-0.30668-0.41526zm0-0.14988c0.29494 0 0.49414 0.1834 0.49414 0.56518 0 0.38184-0.18778 0.56518-0.49414 0.56518-0.30635 0-0.49414-0.18415-0.49414-0.56518s0.1992-0.56518 0.49414-0.56518z"/><path d="m73.069 392.15h-0.8133c0.03254 0.44782 0.42138 0.41937 0.77195 0.2739v0.1672c-0.57162 0.21234-0.95653 9e-3 -0.95653-0.4729 0-0.50267 0.34834-0.57608 0.52777-0.57486 0.47518 0 0.47011 0.42986 0.47011 0.60666zm-0.17688-0.13858c0-0.21189-0.12682-0.31831-0.29129-0.31831s-0.33936 0.11505-0.33936 0.31914z"/><path d="m73.964 391.73c-0.2413-0.0845-0.45279 1e-3 -0.45279 0.34339v0.56718h-0.17784v-1.0767h0.17784v0.1672c0.14834-0.21401 0.32294-0.20814 0.45183-0.18189z"/><path d="m68.281 395.1h0.82484v0.16344h-0.63063v0.42298h0.56912v0.16344h-0.56912v0.68545h-0.19419z"/><path d="m71.625 395.03h0.17688v1.4958h-0.17688z"/><path d="m69.317 396.2c0.01017 0.40834 0.55567 0.15855 0.55567-0.21606-0.43398 0-0.55567 0.0267-0.55567 0.21606zm0.73254 0.32507h-0.17688v-0.16344c-0.40359 0.40361-0.73256 0.0804-0.73256-0.14988 0-0.42031 0.45311-0.36625 0.73254-0.36625 0.01337-0.42439-0.49993-0.26033-0.65372-0.1843v-0.16344c0.59041-0.21219 0.8306 0.0508 0.8306 0.41338z"/><path d="m70.377 395.45h0.17688v0.64506c0 0.45503 0.54795 0.43158 0.54795-0.0346v-0.61045h0.17688v1.0767h-0.17688v-0.16532c-0.41609 0.41607-0.72486 0.0874-0.72486-0.25966 1.6e-5 -0.88391 2.9e-5 0.23218 3e-5 -0.65173z"/><path d="m72.326 395.14v0.30571h0.36435v0.13746h-0.36435v0.5845c0 0.19872 0.02866 0.20674 0.18264 0.20674h0.1817v0.148h-0.1817c-0.31317 0-0.36049-0.16155-0.36049-0.35467v-0.5845h-0.12977v-0.13745h0.12977v-0.30572z"/><path d="m68.281 399.55h0.19419v1.2718h0.69889v0.16344h-0.8931z"/><path d="m69.733 400.04c-0.21206 0-0.30763 0.17643-0.30763 0.41524 0 0.23883 0.1088 0.41528 0.30763 0.41528 0.19884 0 0.30668-0.19983 0.30668-0.41526s-0.09462-0.41526-0.30668-0.41526zm0-0.15007c0.29428 0 0.49414 0.17568 0.49414 0.56535 0 0.38966-0.20313 0.56518-0.49414 0.56518s-0.49414-0.21168-0.49414-0.56518 0.19986-0.56535 0.49414-0.56535z"/><path d="m71.273 400.1c-0.48201-0.22872-0.66526 0.0612-0.66526 0.33262 0.01375 0.5023 0.43458 0.4552 0.66526 0.33266v0.16344c-0.57791 0.20351-0.85175-0.10205-0.85175-0.4964 0-0.52387 0.44876-0.66326 0.85175-0.49849z"/><path d="m71.672 400.66c0 0.29737 0.55566 0.32509 0.55567-0.21626-0.4935 0-0.55567 0.0435-0.55567 0.21626zm0.73254 0.32509h-0.17688v-0.16344c-0.2561 0.38851-0.73256 0.12973-0.73256-0.14988 0-0.41195 0.41656-0.35688 0.73254-0.36624 0-0.40758-0.52043-0.26123-0.65372-0.18433v-0.16344c0.5904-0.21219 0.8306 0.0273 0.8306 0.41336z"/><path d="m75.312 400.08c-0.27645-0.1158-0.45279 0.081-0.45279 0.34339v0.5672h-0.17784v-1.0767h0.17784v0.1672c0.09755-0.20228 0.32294-0.21204 0.45183-0.18189z"/></g><path d="m82.115 411.3h-2.0655l5e-3 3.3588h-7.456v-3.3599h-2.0518v-6.8251l11.567-0.0251z" stroke-width="1.6829"/><g fill="#fff"><path d="m72.93 399.62v0.30572h0.36435v0.13745h-0.36435v0.58451c0 0.19873 0.0287 0.20675 0.18264 0.20675h0.18171v0.148h-0.18171c-0.31316 0-0.36049-0.16156-0.36049-0.35468v-0.58451h-0.12978v-0.13745h0.12978v-0.30572z" stroke-width="1.8829px"/><path d="m73.922 400.04c-0.21206 0-0.30764 0.17643-0.30764 0.41524 0 0.23884 0.10879 0.41529 0.30764 0.41529s0.30668-0.19983 0.30668-0.41526c0-0.21544-0.0946-0.41527-0.30668-0.41527zm0-0.15008c0.29429 0 0.49415 0.17569 0.49415 0.56537 0 0.38965-0.20313 0.56519-0.49415 0.56519s-0.49415-0.21169-0.49415-0.56519c0-0.35351 0.19986-0.56537 0.49415-0.56537z" stroke-width="1.8829px"/><path d="m95.16 380.8h1.0089v0.42313h-1.0089z" stroke-width="1.3355"/><path d="m86.778 381.46h1.0555v0.41149h-1.7431v-0.41149l0.87554-0.6994c0.20299-0.11715 0.22971-0.30509 0.22971-0.37805 0-0.44104-0.58883-0.41076-1.0988-0.11625v-0.47693c0.78355-0.22869 1.7206-0.19574 1.7206 0.52202 0 0.36342-0.318 0.54504-0.52692 0.74155z"/><path d="m88.466 379.71h1.5374v0.41149h-1.0442v0.33588c0.65166-0.13895 1.2177 0.12805 1.2177 0.7154 0 0.84093-1.096 0.86817-1.8057 0.60633v-0.44058c0.5996 0.32511 1.1872 0.25386 1.1872-0.16567 0-0.4463-0.59825-0.43454-1.0924-0.24136z"/><path d="m94.206 380.79c0-0.3777-0.0339-0.74009-0.36788-0.74009-0.33397 0-0.36949 0.3374-0.36949 0.74009 0 0.4027 0.0261 0.73586 0.36949 0.74884 0.34335 0.013 0.36788-0.37113 0.36788-0.74884zm0.61849 4e-3c0 0.65022-0.28257 1.1254-0.98638 1.1254s-0.98798-0.46825-0.98798-1.1254c0-0.65718 0.29822-1.1269 0.98798-1.1269s0.98638 0.47666 0.98638 1.1269z" stroke-width="1.3355"/><path d="m91.938 380.7c0.38421 0.0691 0.4948 0.34197 0.4948 0.554 0 0.75697-1.0764 0.71357-1.8072 0.55119v-0.43186c0.52688 0.25498 1.1888 0.21275 1.1888-0.1397 0-0.2988-0.34901-0.29844-0.77754-0.30105v-0.3606c0.57127 0 0.7213-0.0593 0.7213-0.26754 0-0.35626-0.67866-0.29367-1.0298-0.14118v-0.41003c0.24038-0.0751 0.48624-0.0709 0.71649-0.093 0.64738 0 0.93176 0.20053 0.93176 0.55689s-0.26933 0.43134-0.43861 0.48288z" stroke-width="1.3355"/><g stroke-width="1.0649"><path d="m87.257 382.87h0.28962l0.15646 0.59466 0.15728-0.59466h0.24884l0.15646 0.58849 0.15728-0.58849h0.28962l-0.2455 0.86273h-0.32539l-0.15728-0.59314-0.15646 0.59314h-0.32539z"/><path d="m88.914 382.87h0.29794v0.86273h-0.29794zm0-0.33586h0.29794v0.22493h-0.29794z"/><path d="m86.99 382.86c-0.36873-0.14386-0.60836-0.10048-0.60836 0.0346 0 0.21378 0.68992 0.0396 0.68992 0.48229 0 0.48691-0.59419 0.39395-0.96956 0.29337v-0.25034c0.33297 0.19225 0.68002 0.12942 0.66078-6e-3 0-0.24059-0.67162-0.0361-0.67162-0.49682 0-0.42795 0.57172-0.38718 0.8988-0.29954z"/><path d="m89.826 382.63v0.24496h0.3071v0.1972h-0.3071v0.36588c0 0.11423 0.08619 0.10241 0.12817 0.10241h0.15313v0.19721h-0.2555c-0.35081 0-0.32374-0.20803-0.32374-0.29971v-0.36588h-0.14814v-0.1972h0.14814v-0.24496z"/><path d="m91.069 383.12c-0.31882-0.18407-0.51265-9e-3 -0.51265 0.18023 0 0.35228 0.36355 0.26857 0.51265 0.17947v0.2257c-0.43247 0.13671-0.82305-0.0179-0.82305-0.4046 0-0.46934 0.4824-0.49587 0.82305-0.40459z"/><path d="m92.265 383.73h-0.2996s3e-3 -0.26711 0-0.40062c5e-3 -0.44468-0.33955-0.27703-0.33955-0.0239v0.42444h-0.29794v-1.1986h0.29794v0.46218c0.26142-0.27412 0.63914-0.15078 0.63914 0.21102z"/></g><path d="m99.878 380.15-0.68009 0.93367h0.68009zm-0.10314-0.47354h0.68974v1.4072h0.34326v0.41679h-0.34326v0.40632h-0.5866v-0.40632h-1.0669v-0.49298z" stroke-width="1.8802"/><path d="m78.69 415.49h0.17688v1.4958h-0.17688z"/><path d="m74.5 416.02c-0.21106 0-0.30763 0.2114-0.30763 0.41524 0 0.20385 0.0922 0.41529 0.30763 0.41529s0.30668-0.1802 0.30668-0.41527c0-0.23501-0.0956-0.41526-0.30668-0.41526zm0-0.15007c0.33319 0 0.49414 0.24354 0.49414 0.56537s-0.17204 0.56518-0.49414 0.56518c-0.32209 0-0.49412-0.24679-0.49412-0.56518s0.16094-0.56537 0.49412-0.56537z"/><path d="m76.16 416.97h-0.17688v-0.6441c0-0.46729-0.54701-0.35373-0.54701 0.0356v0.60853h-0.17785v-1.0767h0.17785v0.16721c0.20351-0.30106 0.73169-0.26143 0.72387 0.25968z"/><path d="m77.18 416.1c-0.32694-0.12428-0.58642-0.0842-0.58642 0.0845 0 0.25772 0.64409 0.0606 0.64409 0.49568 0 0.36194-0.43121 0.35609-0.8229 0.25817v-0.18264c0.26697 0.15647 0.64122 0.13105 0.64122-0.0614 0-0.27363-0.63353-0.052-0.63353-0.50249 0-0.35082 0.42859-0.35983 0.75754-0.25886z"/><path d="m80.13 416.4v0.0866h-0.81329c0.0684 0.54594 0.56045 0.37237 0.77195 0.27389v0.16721c-0.63538 0.22102-0.95656-0.0469-0.95656-0.4729 0-0.31837 0.19519-0.57488 0.52777-0.57488 0.40181 0 0.47013 0.37281 0.47013 0.52008zm-0.17688-0.052c0-0.26348-0.1695-0.31831-0.29129-0.31831s-0.33936 0.0557-0.33936 0.31914z"/><path d="m77.92 416.03c-0.21107 0-0.30764 0.2114-0.30764 0.41525 0 0.20386 0.0923 0.41529 0.30764 0.41529 0.21542 0 0.30668-0.1802 0.30668-0.41527 0-0.235-0.0956-0.41527-0.30668-0.41527zm0-0.15007c0.33319 0 0.49414 0.24355 0.49414 0.56538 0 0.32184-0.17205 0.56519-0.49414 0.56519-0.3221 0-0.49412-0.2468-0.49412-0.56519s0.16093-0.56538 0.49412-0.56538z"/><path d="m73.81 415.66v0.20475c-0.54974-0.43119-0.95269-0.0557-0.95269 0.40384 0 0.64549 0.55524 0.72594 0.95269 0.40289v0.20285c-0.59708 0.34473-1.1575 0.0151-1.1575-0.60569 0-0.79995 0.71506-0.86365 1.1575-0.60864z"/><path d="m90.563 416.91c0.0423 0.48534 0.47118 0.35674 0.72661 0.25781v0.15738c-0.60535 0.20747-0.89638-0.0404-0.90037-0.44512 0.0346-0.78209 1.0234-0.65776 0.93929 0.0299zm0.59903-0.13044c0-0.46355-0.59406-0.33143-0.59361 7.8e-4z"/></g><g fill="#b3b3b3"><path d="m85.681 411.3h1.6379v0.3464h-0.58922v1.4308h-0.45828v-1.4308h-0.59041z"/><path d="m87.523 412.52c0.09081 0.4844 0.61196 0.27747 0.93324 0.13912v0.32853c-0.80594 0.263-1.3663 0.0571-1.3677-0.58438 0.0237-1.0264 1.5655-0.88416 1.4308 0.11662zm0.55827-0.26301c-0.04668-0.44271-0.57956-0.26957-0.55351-4e-5z"/><path d="m90.709 411.37v0.37853h0.43925v0.30473h-0.43925v0.56542c0 0.15702 0.05549 0.1494 0.18331 0.15826h0.21902v0.30473h-0.36543c-0.44166 0-0.46305-0.24261-0.46305-0.46305v-0.56541h-0.21188v-0.30473h0.21188v-0.37853z"/><path d="m89.859 411.77v0.32378c-0.39374-0.16553-0.757-0.1471-0.74396 9e-3 0.01932 0.25112 0.85005-0.0197 0.83325 0.56516-0.01489 0.54469-0.68037 0.45617-1.1892 0.34412v-0.32376c0.33695 0.16287 0.79302 0.16748 0.78446-0.0124 0.0019-0.21925-0.78446 0.0124-0.80468-0.56222 0-0.52791 0.61872-0.44009 1.1201-0.34368z"/></g><rect x="484.66" y="399.75" width="14.443" height="10.318"/><path d="m488.8 409.52v-0.52812h6.725v0.52812h3.0438v-9.2094h-13.372v9.2094z" fill="none" stroke="#ccc" stroke-width=".3"/><rect x="461.45" y="399.75" width="14.443" height="10.318"/><path d="m465.59 409.52v-0.52812h6.725v0.52812h3.0438v-9.2094h-13.372v9.2094z" fill="none" stroke="#ccc" stroke-width=".3"/><rect x="325.63" y="384.56" width="87.248" height="27.121" rx=".31701" ry=".13971" fill="#3a3a3a" stroke="#000" stroke-width=".5"/><path d="m397.87 386.33v1.416h3.291v-1.416zm-70.75 4e-3v1.416h3.291v-1.416zm14.039 2e-3v1.416h3.291v-1.416zm14.191 0v1.416h3.293v-1.416zm14.193 0v1.416h3.291v-1.416zm14.186 4e-3v1.416h3.291v-1.416zm-46.4 2e-3v1.4082h3.2617v-1.4085zm14.037 2e-3v1.4082h3.2637v-1.4082zm14.193 0v1.4082h3.2617v-1.4082zm14.191 0v1.4082h3.2637v-1.4082zm14.199 0v1.4082h3.2617v-1.4082zm14.141 0.0137v1.4082h3.2637v-1.4082zm-10.176 22.125v1.4082h3.2617v-1.4082zm10.191 0v1.416h3.291v-1.416zm-80.959 2e-3v1.4082h3.2617v-1.4082zm10.197 0v1.416h3.293v-1.416zm3.8418 0v1.4102h3.2617v-1.4102zm10.197 0v1.418h3.291v-1.418zm3.9941 0v1.4102h3.2637v-1.4102zm10.197 0v1.418h3.293v-1.418zm3.9941 0v1.4102h3.2637v-1.4102zm10.199 0v1.418h3.291v-1.418zm3.8398 0.0937v1.418h3.293v-1.418zm10.221 4e-3v1.4102h3.2637v-1.4102z" fill="#abb927"/><path d="m411.11 407.94h-3.3038l6e-3 2.0044-1.2023 1e-3v0.75051h-3.8753l9.1e-4 -0.75247h-1.2515v-2.0046l-7.7162-8.1e-4 6e-3 2.0044-1.2023 1e-3v0.75051h-3.8753l9.1e-4 -0.75247h-1.2515v-2.0046l-7.8695 1e-3 6e-3 2.0044-1.2023 1e-3v0.75051h-3.8753l9e-4 -0.75247h-1.2514v-2.0046l-7.8694 1e-3 6e-3 2.0044-1.2023 1e-3v0.75051h-3.8753l9e-4 -0.75247h-1.2515v-2.0046l-7.8662 4e-3 6e-3 2.0045-1.2023 1e-3v0.75074h-3.8752l8.8e-4 -0.75247h-1.2514v-2.0047l-7.8348-0.0187 6e-3 2.0045-1.2023 9.9e-4v0.75053h-3.8752l9.1e-4 -0.75247h-1.2514v-2.0047h-3.2885l-0.019-19.647h3.3038l-6e-3 -2.0044 1.2023-1e-3v-0.75051h3.8753l-9e-4 0.75247h1.2515v2.0046l7.7162 8e-4 -6e-3 -2.0044 1.2023-1e-3v-0.75051h3.8753l-9e-4 0.75247h1.2515v2.0046l7.8695-1e-3 -6e-3 -2.0044 1.2023-1e-3v-0.75051h3.8753l-9e-4 0.75247h1.2515v2.0046l7.8694-1e-3 -6e-3 -2.0044 1.2023-1e-3v-0.75051h3.8753l-9e-4 0.75247h1.2515v2.0046l7.8662-4e-3 -6e-3 -2.0045 1.2023-9.9e-4v-0.75057h3.8752l-8.8e-4 0.75247h1.2514v2.0047l7.8348 0.0187-6e-3 -2.0045 1.2023-9.9e-4v-0.75053h3.8752l-9.1e-4 0.75247h1.2514v2.0047h3.2885z" fill="#1a1a1a"/><path d="m331.22 384.96-5.262 2e-3 4e-3 26.298 5.2855 2e-3v-1.2647l-4.2486 2e-3v-1.6376l0.41901-0.0137v-8.9782l12.917-8e-3 2e-3 8.986 0.41902 0.0137v1.6376l-4.2253-2e-3v1.2647h8.7566v-1.2647l-4.2506 2e-3v-1.6376l0.41902-0.0137 2e-3 -8.9782 12.917-8e-3v8.986l0.41901 0.0137v1.6376l-4.2253-2e-3v1.2647h8.9106v-1.2647l-4.2506 2e-3v-1.6376l0.41902-0.0137 2e-3 -8.9782 12.917-8e-3v8.986l0.41902 0.0137v1.6376l-4.2233-2e-3v1.2647h8.9086v-1.2647l-4.2506 2e-3v-1.6376l0.42097-0.0137v-8.9782l12.917-8e-3v8.986l0.42096 0.0137v1.6376l-4.2253-2e-3v1.2647h8.9088v-1.2647l-4.2486 2e-3v-1.6376l0.41902-0.0137v-8.9782l12.917-8e-3 2e-3 8.986 0.41903 0.0137v1.6376l-4.2253-2e-3v1.2647h8.8733v-1.2647l-4.2506 2e-3v-1.6376l0.41903-0.0137 2e-3 -9.0328 12.918-0.0295v9.0621l0.42097 0.0137v1.6376l-4.2253-2e-3v1.2647l5.262-2e-3 -4e-3 -26.298-5.2875-2e-3v1.2647l4.2506-2e-3v1.6376l-0.42096 0.0137v8.9782l-12.917 8e-3v-8.986l-0.42096-0.0137v-1.6376l4.2253 2e-3v-1.2636h-8.8734v1.2647l4.2506-2e-3v1.6376l-0.41901 0.0137-2e-3 9.0328-12.916 0.0276-2e-3 -9.0601-0.41902-0.0137v-1.6376l4.2253 2e-3v-1.2647h-8.9106v1.2647l4.2506-2e-3v1.6376l-0.41901 0.0137-2e-3 9.0328-0.01 0.01-12.908 0.0176v-9.0601l-0.41899-0.0137v-1.6376l4.2253 2e-3v-1.2647h-8.9105v1.2647l4.2506-2e-3v1.6376l-0.42097 0.0137v9.0328l-12.918 0.0274v-9.0601l-0.41902-0.0137v-1.6376l4.2233 2e-3v-1.2647h-8.9088v1.2647l4.2486-2e-3v1.6376l-0.41901 0.0137v9.0328l-12.918 0.0276v-9.0601l-0.42097-0.0137v-1.6376l4.2253 2e-3v-1.2647h-8.7566v1.2647l4.2506-2e-3v1.6376l-0.41902 0.0137-2e-3 9.0328-12.916 0.0276-2e-3 -9.0601-0.41899-0.0137v-1.6376l4.2253 2e-3z" fill="#ebebeb"/><rect x="236.87" y="384.56" width="87.248" height="27.121" rx=".31701" ry=".13971" fill="#3a3a3a" stroke="#000" stroke-width=".5"/><path d="m309.11 386.33v1.416h3.291v-1.416zm-70.75 4e-3v1.416h3.291v-1.416zm14.039 2e-3v1.416h3.291v-1.416zm14.191 0v1.416h3.293v-1.416zm14.193 0v1.416h3.291v-1.416zm14.186 4e-3v1.416h3.291v-1.416zm-46.4 2e-3v1.4082h3.2617v-1.4085zm14.037 2e-3v1.4082h3.2637v-1.4082zm14.193 0v1.4082h3.2617v-1.4082zm14.191 0v1.4082h3.2637v-1.4082zm14.199 0v1.4082h3.2617v-1.4082zm14.141 0.0137v1.4082h3.2637v-1.4082zm-10.176 22.125v1.4082h3.2617v-1.4082zm10.191 0v1.416h3.291v-1.416zm-80.959 2e-3v1.4082h3.2617v-1.4082zm10.197 0v1.416h3.293v-1.416zm3.8418 0v1.4102h3.2617v-1.4102zm10.197 0v1.418h3.291v-1.418zm3.9941 0v1.4102h3.2637v-1.4102zm10.197 0v1.418h3.293v-1.418zm3.9941 0v1.4102h3.2637v-1.4102zm10.199 0v1.418h3.291v-1.418zm3.8398 0.0937v1.418h3.293v-1.418zm10.221-0.0957v1.4082h3.2637v-1.4082z" fill="#abb927"/><path d="m322.35 407.94h-3.3038l6e-3 2.0044-1.2023 1e-3v0.75051h-3.8753l9.1e-4 -0.75247h-1.2515v-2.0046l-7.7162-8.1e-4 6e-3 2.0044-1.2023 1e-3v0.75051h-3.8753l9.1e-4 -0.75247h-1.2515v-2.0046l-7.8695 1e-3 6e-3 2.0044-1.2023 1e-3v0.75051h-3.8753l9e-4 -0.75247h-1.2514v-2.0046l-7.8694 1e-3 6e-3 2.0044-1.2023 1e-3v0.75051h-3.8753l9e-4 -0.75247h-1.2515v-2.0046l-7.8662 4e-3 6e-3 2.0045-1.2023 1e-3v0.75074h-3.8752l8.8e-4 -0.75247h-1.2514v-2.0047l-7.8348-0.0187 6e-3 2.0045-1.2023 9.9e-4v0.75053h-3.8752l9.1e-4 -0.75247h-1.2514v-2.0047h-3.2885l-0.019-19.647h3.3038l-6e-3 -2.0044 1.2023-1e-3v-0.75051h3.8753l-9e-4 0.75247h1.2515v2.0046l7.7162 8e-4 -6e-3 -2.0044 1.2023-1e-3v-0.75051h3.8753l-9e-4 0.75247h1.2515v2.0046l7.8695-1e-3 -6e-3 -2.0044 1.2023-1e-3v-0.75051h3.8753l-9e-4 0.75247h1.2515v2.0046l7.8694-1e-3 -6e-3 -2.0044 1.2023-1e-3v-0.75051h3.8753l-9e-4 0.75247h1.2515v2.0046l7.8662-4e-3 -6e-3 -2.0045 1.2023-9.9e-4v-0.75057h3.8752l-8.8e-4 0.75247h1.2514v2.0047l7.8348 0.0187-6e-3 -2.0045 1.2023-9.9e-4v-0.75053h3.8752l-9.1e-4 0.75247h1.2514v2.0047h3.2885z" fill="#1a1a1a"/><path d="m242.46 384.96-5.262 2e-3 4e-3 26.298 5.2855 2e-3v-1.2647l-4.2486 2e-3v-1.6376l0.41901-0.0137v-8.9782l12.917-8e-3 2e-3 8.986 0.41902 0.0137v1.6376l-4.2253-2e-3v1.2647h8.7566v-1.2647l-4.2506 2e-3v-1.6376l0.41902-0.0137 2e-3 -8.9782 12.917-8e-3v8.986l0.41901 0.0137v1.6376l-4.2253-2e-3v1.2647h8.9106v-1.2647l-4.2506 2e-3v-1.6376l0.41902-0.0137 2e-3 -8.9782 12.917-8e-3v8.986l0.41902 0.0137v1.6376l-4.2233-2e-3v1.2647h8.9086v-1.2647l-4.2506 2e-3v-1.6376l0.42097-0.0137v-8.9782l12.917-8e-3v8.986l0.42096 0.0137v1.6376l-4.2253-2e-3v1.2647h8.9088v-1.2647l-4.2486 2e-3v-1.6376l0.41902-0.0137v-8.9782l12.917-8e-3 2e-3 8.986 0.41903 0.0137v1.6376l-4.2253-2e-3v1.2647h8.8733v-1.2647l-4.2506 2e-3v-1.6376l0.41903-0.0137 2e-3 -9.0328 12.918-0.0295v9.0621l0.42097 0.0137v1.6376l-4.2253-2e-3v1.2647l5.262-2e-3 -4e-3 -26.298-5.2875-2e-3v1.2647l4.2506-2e-3v1.6376l-0.42096 0.0137v8.9782l-12.917 8e-3v-8.986l-0.42096-0.0137v-1.6376l4.2253 2e-3v-1.2636h-8.8734v1.2647l4.2506-2e-3v1.6376l-0.41901 0.0137-2e-3 9.0328-12.916 0.0276-2e-3 -9.0601-0.41902-0.0137v-1.6376l4.2253 2e-3v-1.2647h-8.9106v1.2647l4.2506-2e-3v1.6376l-0.41901 0.0137-2e-3 9.0328-0.01 0.01-12.908 0.0176v-9.0601l-0.41899-0.0137v-1.6376l4.2253 2e-3v-1.2647h-8.9105v1.2647l4.2506-2e-3v1.6376l-0.42097 0.0137v9.0328l-12.918 0.0274v-9.0601l-0.41902-0.0137v-1.6376l4.2233 2e-3v-1.2647h-8.9088v1.2647l4.2486-2e-3v1.6376l-0.41901 0.0137v9.0328l-12.918 0.0276v-9.0601l-0.42097-0.0137v-1.6376l4.2253 2e-3v-1.2647h-8.7566v1.2647l4.2506-2e-3v1.6376l-0.41902 0.0137-2e-3 9.0328-12.916 0.0276-2e-3 -9.0601-0.41899-0.0137v-1.6376l4.2253 2e-3z" fill="#ebebeb"/><g fill="#fff"><path d="m239.63 383.19h0.57044v-1.4977l-0.58555 0.11174v-0.40663l0.58218-0.11174h0.61408v1.9044h0.57044v0.41284h-1.7516z"/><path d="m296.99 383.07c0.77564 0.30187 1.1655 0.0487 1.2129-0.45473-0.67337 0.38764-1.3791 0.0127-1.3791-0.59753 0.01-0.66591 0.59936-0.82413 0.9664-0.82413 0.82871 0 1.0268 0.63138 1.0268 1.1702 0 1.1563-0.94113 1.412-1.8271 1.1346zm0.79696-0.68753c0.22151 0 0.34055-0.15465 0.34055-0.40661 0-0.25193-0.0971-0.4067-0.34055-0.4067-0.2434 0-0.34057 0.13691-0.34057 0.4067 0 0.26974 0.11902 0.40661 0.34057 0.40661z"/><path d="m249.25 415.92h1.0987v0.44066h-1.8144v-0.44066l0.9114-0.74897c0.67208-0.67649-0.20858-1.0249-0.90453-0.52927v-0.51072c0.87434-0.26633 1.791-0.16133 1.791 0.55902-0.0194 0.39057-0.27317 0.56141-0.54851 0.79412z"/><g stroke-width="1.8828"><path d="m318.36 414.06-0.58204 0.11133v0.40625l0.58594-0.11133v1.498h-0.57031v0.4121h1.752v-0.4121h-0.57031v-1.9043z"/><path d="m380.81 413.93c-0.82093 0-1.0334 0.67487-1.0332 1.2031 2.2e-4 0.66066 0.27702 1.2015 1.0332 1.2012 0.75619-3.1e-4 1.0293-0.54826 1.0293-1.2012 0-0.6529-0.20835-1.2031-1.0293-1.2031zm0 0.40817c0.29607 0 0.38282 0.25837 0.38282 0.78906s-0.082 0.80077-0.38282 0.80077c-0.30083 0-0.38671-0.28294-0.38671-0.80077s0.0906-0.78906 0.38671-0.78906z"/><path d="m385.94 380.97-0.58203 0.11328v0.40625l0.58399-0.11132v1.4961h-0.57032v0.41406h1.752v-0.41406h-0.57032v-1.9043z"/><path d="m399.18 380.93c-0.20889 0.0163-0.43181 0.0604-0.65039 0.12695v0.51172c0.69595-0.49566 1.5783-0.14719 0.90625 0.5293l-0.91211 0.74805v0.4414h1.8144v-0.4414h-1.0996l0.53516-0.43555c0.27534-0.23271 0.52747-0.40435 0.54687-0.79492 0-0.64227-0.67576-0.71215-1.1406-0.68555z"/></g><path d="m262.47 414.55-0.69846 0.98428h0.69846zm-0.10604-0.49923h0.70839v1.4835h0.35255v0.43938h-0.35255v0.42837h-0.60246v-0.42837h-1.0957v-0.5197z"/><path d="m267.86 381.24h1.583v0.44029h-1.0752v0.35939c0.76225-0.13724 1.2538 0.18063 1.2538 0.76549 0 0.87279-1.0647 0.92282-1.8592 0.64886v-0.47141c0.66048 0.38878 1.2224 0.21563 1.2224-0.17736 0-0.47051-0.5925-0.47647-1.1248-0.25834z"/><path d="m282.3 381.28h1.8955v0.33699l-0.98062 1.9816h-0.63185l0.9284-1.8791h-1.2115z"/><path d="m291.88 415.33c-0.23504 0-0.37844 0.12413-0.37844 0.35414 0 0.2301 0.17072 0.3525 0.37844 0.3525 0.20771 0 0.37328-0.10365 0.37328-0.3525 0-0.24881-0.13818-0.35414-0.37328-0.35414zm-0.47473-0.19722c-0.41897-0.10998-0.46287-0.38925-0.46287-0.52489 0-0.49921 0.49456-0.60092 0.93766-0.60092 0.68803 0 0.93428 0.26281 0.93428 0.60092 0 0.34435-0.29471 0.47967-0.46462 0.52489 0.40341 0.10745 0.51857 0.35296 0.51857 0.58234 0 0.57602-0.49659 0.6972-0.98835 0.6972-0.69727 0.0145-0.9934-0.26779-0.9934-0.6972 0-0.42355 0.37226-0.54334 0.51869-0.58234zm0.15198-0.46434c0 0.21646 0.16244 0.28724 0.3227 0.28724 0.16028 0 0.31764-0.0649 0.31764-0.28724 0-0.22226-0.15474-0.28566-0.31764-0.28566-0.16283 0-0.3227 0.0692-0.3227 0.28566z"/><path d="m306.64 414.01c-0.82094 0-1.0334 0.67489-1.0332 1.2031 2.2e-4 0.66066 0.27702 1.2015 1.0332 1.2012s1.0293-0.54826 1.0293-1.2012c0-0.6529-0.20836-1.2031-1.0293-1.2031zm-2.6035 0.0879-0.58203 0.11134v0.40625l0.58593-0.11134v1.498h-0.57031v0.41211h1.752v-0.41211h-0.57031v-1.9043zm2.6035 0.32032c0.29607 0 0.38282 0.25838 0.38282 0.78906 0 0.53069-0.082 0.80078-0.38282 0.80078-0.30083 0-0.38672-0.28294-0.38672-0.80078 0-0.51783 0.0906-0.78906 0.38672-0.78906z"/><path d="m337.62 414.01-0.99023 1.4043v0.51953h1.0957v0.42773h0.60156v-0.42773h0.35352v-0.43946h-0.35352v-1.4844zm-2.4355 0.0351-0.58204 0.11133v0.40625l0.58594-0.11133v1.498h-0.57031v0.41211h1.752v-0.41211h-0.57226v-1.9043zm2.541 0.46485v0.98437h-0.69922z"/><path d="m310.77 381.29-0.58203 0.11328v0.40625l0.58594-0.11134v1.4961h-0.57031v0.41406h1.752v-0.41406h-0.57227v-1.9043zm2.3789 0-0.58203 0.11328v0.40625l0.58593-0.11134v1.4961h-0.57031v0.41406h1.752v-0.41406h-0.57032v-1.9043z"/><path d="m327.66 381.34-0.58203 0.11133v0.40625l0.58398-0.11133v1.498h-0.57031v0.41211h1.752v-0.41211h-0.57031v-1.9043z"/><path d="m343.77 381.29v1.3086c0.53227-0.21813 1.125-0.2127 1.125 0.25781 0 0.39299-0.56217 0.56652-1.2226 0.17774v0.4707c0.79449 0.27396 1.8594 0.22435 1.8594-0.64844 0-0.58486-0.49166-0.90286-1.2539-0.76562v-0.35938h1.0762v-0.4414zm-1.7832 0.0449-0.58398 0.11133v0.4082l0.58593-0.11328v1.498h-0.57031v0.41406h1.752v-0.41406h-0.57031v-1.9043z"/><path d="m349.52 414.02-0.58204 0.11135v0.40821l0.58594-0.11329v1.498h-0.57031v0.41406h1.752v-0.41406h-0.57226v-1.9043z"/><path d="m357.88 381.29v0.43945h1.2109l-0.92774 1.8789h0.63086l0.98047-1.9824v-0.33593zm-1.5879 2e-3 -0.58203 0.11133v0.40625l0.58594-0.11133v1.498h-0.57032v0.4121h1.75v-0.4121h-0.57031v-1.9043z"/><path d="m366.54 413.92c-0.4431 0-0.9375 0.10235-0.9375 0.60156 0 0.13564 0.0439 0.41346 0.46289 0.52344-0.14643 0.039-0.51953 0.16043-0.51953 0.58398 0 0.42941 0.29687 0.71177 0.99414 0.69727 0.49176 0 0.98828-0.12125 0.98828-0.69727 0-0.22938-0.11612-0.47654-0.51953-0.58398 0.16991-0.0452 0.46485-0.17909 0.46485-0.52344 0-0.33812-0.24557-0.60156-0.9336-0.60156zm-2.6797 0.0879-0.58204 0.11327v0.40625l0.58594-0.11133v1.4961h-0.57031v0.41407h1.752v-0.41407h-0.57226v-1.9043zm2.6797 0.28711c0.1629 0 0.31836 0.0648 0.31836 0.2871 0 0.22234-0.15808 0.28711-0.31836 0.28711-0.16026 0-0.32226-0.0707-0.32226-0.28711 0-0.21645 0.15943-0.2871 0.32226-0.2871zm0 0.94726c0.2351 0 0.37305 0.10666 0.37305 0.35547 0 0.24885-0.16534 0.35157-0.37305 0.35157-0.20772 0-0.3789-0.12147-0.3789-0.35157 0-0.23002 0.14386-0.35547 0.3789-0.35547z"/><path d="m409.43 413.99-0.98828 1.4043v0.51953h1.0957v0.42773h0.60157v-0.42773h0.35351v-0.43945h-0.35351v-1.4844zm0.10742 0.5v0.98438h-0.69921z"/><g stroke-width="1.8828"><path d="m383.79 380.93c-0.20889 0.0163-0.43181 0.0604-0.65039 0.12695v0.51172c0.69595-0.49566 1.5783-0.14719 0.90625 0.5293l-0.91211 0.74805v0.44139h1.8144v-0.44139h-1.0996l0.53516-0.43555c0.27534-0.23271 0.52747-0.40435 0.54687-0.79492 0-0.64227-0.67576-0.71215-1.1406-0.68555z"/><path d="m378.17 413.98c-0.20889 0.0163-0.43181 0.0604-0.65039 0.12695v0.51172c0.69595-0.49566 1.5783-0.14719 0.90625 0.5293l-0.91211 0.74805v0.44139h1.8144v-0.44139h-1.0996l0.53516-0.43555c0.27534-0.23271 0.52747-0.40435 0.54687-0.79492 0-0.64458-0.63474-0.72286-1.1406-0.68555z"/><path d="m391.84 414.11v0.51172c0.69595-0.49566 1.5783-0.14719 0.90625 0.5293l-0.91211 0.74805v0.44139h1.8144v-0.44139h-1.0996l0.53516-0.43555c0.27534-0.23271 0.52747-0.40435 0.54687-0.79492 0-0.82468-1.0198-0.66772-1.791-0.5586z"/><path d="m394.87 413.98c-0.20889 0.0163-0.43181 0.0604-0.65039 0.12695v0.51172c0.69595-0.49566 1.5783-0.14719 0.90625 0.5293l-0.91211 0.74805v0.44139h1.8144v-0.44139h-1.0996l0.53516-0.43555c0.27534-0.23271 0.52747-0.40435 0.54687-0.79492 0-0.6665-0.66208-0.71896-1.1406-0.68555z"/><path d="m406.83 413.98c-0.20889 0.0163-0.43181 0.0604-0.65039 0.12695v0.51172c0.69595-0.49566 1.5783-0.14719 0.90625 0.5293l-0.91211 0.74805v0.44139h1.8144v-0.44139h-1.0996l0.53516-0.43555c0.27534-0.23271 0.52747-0.40435 0.54687-0.79492 0-0.67273-0.71141-0.72358-1.1406-0.68555z"/><path d="m320.7 414.02c-0.20889 0.0163-0.43181 0.0604-0.65039 0.12695v0.51172c0.69595-0.49566 1.5783-0.14719 0.90625 0.5293l-0.91211 0.74805v0.4414h1.8144v-0.4414h-1.0996l0.53516-0.43555c0.27534-0.23271 0.52747-0.40435 0.54687-0.79492 0-0.64227-0.67576-0.71215-1.1406-0.68555z"/></g><path d="m254.34 382.32c0.38662 0.10336 0.51581 0.34598 0.51581 0.58911 0 0.80926-1.1898 0.77182-1.8841 0.58614v-0.45925c0.60788 0.27696 1.2394 0.22301 1.2394-0.14848 0.0157-0.34236-0.55269-0.32006-0.55269-0.32006h-0.2579v-0.38346h0.27131c0.14637 0 0.48075-5e-3 0.48075-0.28458 0-0.40106-0.76758-0.2827-1.0734-0.1501v-0.43604c0.82218-0.21988 1.7183-0.12215 1.7183 0.49339 0 0.35557-0.25306 0.45854-0.45748 0.51333z"/><path d="m330.67 382.37c0.38662 0.10336 0.51581 0.34599 0.51581 0.58911 0 0.80926-1.1898 0.77182-1.8841 0.58615v-0.45925c0.60788 0.27695 1.2394 0.223 1.2394-0.14848 0.0157-0.34236-0.55269-0.32007-0.55269-0.32007h-0.2579v-0.38346h0.27131c0.14637 0 0.48075-5e-3 0.48075-0.28458 0-0.40105-0.76758-0.2827-1.0734-0.1501v-0.43604c0.82218-0.21988 1.7183-0.12215 1.7183 0.49339 0 0.35557-0.25306 0.45854-0.45748 0.51333z"/><path d="m402.23 382c0.38662 0.10336 0.51581 0.34598 0.51581 0.58911 0 0.80926-1.1898 0.77181-1.8841 0.58614v-0.45925c0.60788 0.27696 1.2394 0.223 1.2394-0.14848 0.0157-0.34236-0.55269-0.32006-0.55269-0.32006h-0.2579v-0.38346h0.27131c0.14637 0 0.48075-5e-3 0.48075-0.28458 0-0.40106-0.76758-0.2827-1.0734-0.1501v-0.43604c0.82218-0.21988 1.7183-0.12215 1.7183 0.49339 0 0.35557-0.25306 0.45854-0.45748 0.51333z"/><path d="m351.21 415.17c0 0.66793 0.31197 1.1699 1.0312 1.1699 0.39994 0 0.97352-0.16222 0.97852-0.82032 0-0.60496-0.6981-0.99704-1.3887-0.60156 0-0.4558 0.38951-0.76647 1.2226-0.45117v-0.42969c-1.1218-0.30059-1.8436 0.14901-1.8436 1.1328zm1.039-0.0195c0.27204 0 0.34375 0.19797 0.34375 0.40821s-0.0798 0.40625-0.34375 0.40625c-0.26397 0-0.3418-0.16457-0.3418-0.40625 0-0.24167 0.0697-0.40821 0.3418-0.40821z"/><path d="m275.78 415.24c0 0.66794 0.31197 1.1699 1.0312 1.1699 0.39994 0 0.97352-0.16222 0.97852-0.82032 0-0.60496-0.6981-0.99704-1.3887-0.60156 0-0.4558 0.38951-0.76647 1.2226-0.45117v-0.42968c-1.1218-0.3006-1.8436 0.149-1.8436 1.1328zm1.039-0.0195c0.27204 0 0.34375 0.19797 0.34375 0.40821s-0.0798 0.40625-0.34375 0.40625c-0.26397 0-0.3418-0.16457-0.3418-0.40625 0-0.24167 0.0697-0.40821 0.3418-0.40821z"/></g><rect x="480.01" y="403.37" width="3.1609" height="2.4169" rx=".16209" ry=".079093" fill="#e6e6e6" stroke="#000" stroke-width=".39914"/><rect x="480.01" y="407.45" width="3.1609" height="2.4169" rx=".16209" ry=".079093" fill="#e6e6e6" stroke="#000" stroke-width=".39914"/><path d="m415.36 409.62h15.828v-13.125h-15.828z" fill="#3a3a3a"/><path d="m416.52 397.87v1.4141h3.291v-1.4141zm10.211 8e-3v1.4062h3.2617v-1.4062z" fill="#abb927"/><path d="m416.82 399.81h3.3035l-6e-3 -2.0016 1.2023-9.4e-4v-0.7494h3.8752l-9.1e-4 0.75138h1.2514v2.0016h3.2884v8.6175l-12.914 0.028z" fill="#1a1a1a"/><path d="m431.18 409.62 4e-3 -13.126-5.2866-2e-3v1.2624l4.2497-2e-3v1.6342l-0.41943 0.0131-1e-3 9.0326-12.915 0.0239-9.1e-4 -9.0566-0.41942-0.0131v-1.6342l4.2244 2e-3v-1.2624l-5.2617 2e-3 4e-3 13.124z" fill="#ebebeb"/><path d="m433.19 409.61h15.828v-13.125h-15.828z" fill="#3a3a3a"/><path d="m434.35 397.87v1.4141h3.291v-1.4141zm10.211 8e-3v1.4062h3.2617v-1.4062z" fill="#abb927"/><path d="m434.65 399.8h3.3035l-6e-3 -2.0016 1.2023-9.4e-4v-0.7494h3.8752l-9e-4 0.75138h1.2514v2.0016h3.2884v8.6175l-12.914 0.028z" fill="#1a1a1a"/><path d="m449.01 409.62 4e-3 -13.126-5.2866-2e-3v1.2624l4.2497-2e-3v1.6342l-0.41942 0.0131-1e-3 9.0326-12.915 0.0239-9.1e-4 -9.0566-0.41942-0.0131v-1.6342l4.2244 2e-3v-1.2624l-5.2617 2e-3 4e-3 13.124z" fill="#ebebeb"/><g fill="#fff"><path d="m417.84 393.04v1.3066c0.53227-0.21813 1.125-0.2127 1.125 0.25781 0 0.39299-0.56217 0.56652-1.2226 0.17774v0.4707c0.79449 0.27396 1.8594 0.22435 1.8594-0.64844 0-0.58486-0.49165-0.90286-1.2539-0.76562v-0.35938h1.0762v-0.43945z"/><path d="m416.02 393.05c-0.20889 0.0163-0.43181 0.0604-0.65039 0.12695v0.51172c0.69595-0.49566 1.5783-0.14719 0.90625 0.5293l-0.91211 0.74805v0.4414h1.8144v-0.4414h-1.0996l0.53516-0.43555c0.27534-0.23271 0.52747-0.40435 0.54687-0.79492 0-0.64227-0.67576-0.71215-1.1406-0.68555z" stroke-width="1.8828"/><path d="m436.68 393.02c-0.65214 0.0191-1.1562 0.37442-1.1562 1.2188 0 0.66793 0.31197 1.1719 1.0312 1.1719 0.39994 0 0.97351-0.16416 0.97851-0.82226 0-0.60496-0.6981-0.99704-1.3887-0.60156 0-0.4558 0.38952-0.76648 1.2227-0.45118v-0.42968c-0.23699-0.063-0.47012-0.0923-0.6875-0.0859zm-0.1172 1.2012c0.27204 0 0.34375 0.196 0.34375 0.40625 0 0.21024-0.0798 0.40625-0.34375 0.40625-0.26397 0-0.3418-0.16457-0.3418-0.40625s0.0697-0.40625 0.3418-0.40625z"/><path d="m433.85 393.05c-0.20889 0.0163-0.43181 0.0604-0.65039 0.12695v0.51172c0.69595-0.49566 1.5783-0.14719 0.90625 0.5293l-0.91211 0.74805v0.4414h1.8144v-0.4414h-1.0996l0.53516-0.43555c0.27534-0.23271 0.52747-0.40435 0.54687-0.79492 0-0.64227-0.67576-0.71215-1.1406-0.68555z" stroke-width="1.8828"/><path d="m463.8 396.97v0.43945h1.2109l-0.92773 1.8789h0.63086l0.98047-1.9805v-0.33789z"/><path d="m462.12 396.94c-0.20889 0.0163-0.43181 0.0604-0.65039 0.12695v0.51172c0.69595-0.49566 1.5783-0.14719 0.90625 0.5293l-0.91211 0.74805v0.4414h1.8144v-0.4414h-1.0996l0.53516-0.43555c0.27534-0.23271 0.52747-0.40435 0.54687-0.79492 0-0.70363-0.6738-0.73458-1.1406-0.68555z" stroke-width="1.8828"/><path d="m487.99 396.89c-0.4431 0-0.9375 0.10235-0.9375 0.60156 0 0.13564 0.0439 0.41541 0.46289 0.52539-0.14643 0.039-0.51953 0.15848-0.51953 0.58203 0 0.42941 0.29687 0.71177 0.99414 0.69727 0.49176 0 0.98828-0.12125 0.98828-0.69727 0-0.22938-0.11612-0.47458-0.51953-0.58203 0.16991-0.0452 0.46484-0.18104 0.46484-0.52539 0-0.33812-0.24556-0.60156-0.93359-0.60156zm0 0.37697c0.1629 0 0.31641 0.0629 0.31641 0.28516 0 0.22234-0.15613 0.28711-0.31641 0.28711-0.16026 0-0.32422-0.0707-0.32422-0.28711 0-0.21646 0.16139-0.28516 0.32422-0.28516zm0 0.94727c0.2351 0 0.37305 0.1047 0.37305 0.35351 0 0.24885-0.16534 0.35157-0.37305 0.35157-0.20772 0-0.37891-0.12147-0.37891-0.35157 0-0.23002 0.14387-0.35351 0.37891-0.35351z"/><path d="m485.32 396.94c-0.20889 0.0163-0.43181 0.0604-0.65039 0.12695v0.51172c0.69595-0.49566 1.5783-0.14719 0.90625 0.5293l-0.91211 0.74805v0.4414h1.8144v-0.4414h-1.0996l0.53516-0.43555c0.27534-0.23271 0.52747-0.40435 0.54687-0.79492 0-0.69538-0.74021-0.71505-1.1406-0.68555z" stroke-width="1.8828"/></g><path d="m121.48 411.97c0.70186-0.0236 0.78941 0.26721 0.77661 0.51731v1.1256c-0.0295 0.28237-1.1027 0.84802-1.9611 0.80785h-4.3543c-0.27727 0.0498-1.7729-0.57271-1.8085-0.83623v-1.1257c-0.0332-0.31756 0.46853-0.49593 0.75309-0.48887z" fill="#1d1d1d" stroke="#ececec" stroke-width=".41499"/><path d="m116.19 412.67c-0.17498-4e-3 -0.45349 0.0623-0.4329 0.23988v0.59088c0 0.29378 0.58522 0.45885 1.1067 0.45885h2.5015c0.52701 0.0226 1.219-0.26897 1.236-0.42694v-0.60738c8e-3 -0.13995-2e-3 -0.26943-0.4329-0.25639z" fill="#404040" stroke-width=".75168"/><g fill="#070707" stroke-width="1.4153"><path d="m116.28 413.45h0.35578v-0.44198h-0.35578z"/><path d="m117.13 413.45h0.35575v-0.44198h-0.35575z"/><path d="m118.02 413.45h0.355v-0.44198h-0.355z"/><path d="m118.93 413.45h0.35501v-0.44198h-0.35501z"/><path d="m119.8 413.45h0.35572v-0.44198h-0.35572z"/></g><g fill="#fff"><path d="m97.329 381.5h1.0555v0.41149h-1.7431v-0.41149l0.87554-0.6994c0.20299-0.11715 0.22971-0.30509 0.22971-0.37805 0-0.44104-0.58883-0.41076-1.0988-0.11625v-0.47693c0.78355-0.22869 1.7206-0.19574 1.7206 0.52202 0 0.36342-0.318 0.54504-0.52692 0.74155z"/><path d="m88.272 417.36h-0.19636c-0.19287-0.4432-0.30314-0.52664-0.30314-0.52664-0.09792-0.0565-0.22592-0.0443-0.3701-0.0443v0.57098h-0.18278v-1.351h0.41262c0.62762 0 0.44123 0.72902 0.22801 0.71759 0.2286 0.13195 0.30073 0.44863 0.41175 0.63337zm-0.86959-1.2008v0.47958h0.22984c0.41796 0 0.34396-0.47956 0-0.47956z" stroke-width="1.7724px"/><path d="m373.06 381.2c-0.36704 0-0.95484 0.15831-0.96484 0.82423 0 0.61023 0.70554 0.9853 1.3789 0.59766-0.0474 0.50342-0.43725 0.755-1.2129 0.45312v0.42969c0.88597 0.27741 1.8262 0.0215 1.8262-1.1348 0-0.85993-0.46418-1.1699-1.0274-1.1699zm-2.5527 0.0899-0.58203 0.11132v0.40625l0.58594-0.11132v1.498h-0.57032v0.41211h1.75v-0.41211h-0.57031v-1.9043zm2.5508 0.28515c0.24345 0 0.33985 0.15432 0.33985 0.40625 0 0.25196-0.11834 0.40625-0.33985 0.40625-0.22155 0-0.3418-0.1365-0.3418-0.40625 0-0.26979 0.0984-0.40625 0.3418-0.40625z"/></g></svg>
