<svg width="254" height="44.5" version="1.1" viewBox="66 376 134.89708 14.442722" xmlns="http://www.w3.org/2000/svg"><g transform="matrix(.65357 0 0 1.0597 22.653 -27.502)"><rect x="66.589" y="376.59" width="206" height="22" fill="#2f2524"/><rect x="66.589" y="376.59" width="206" height="22" fill="#231f20" stroke="#000" stroke-width=".4"/></g><g transform="matrix(.62797 0 0 1.0577 29.508 -26.739)"><rect x="76.589" y="376.99" width="195.6" height="21.2" rx=".6" ry=".6" fill="#2f2524"/><rect x="76.589" y="376.99" width="195.6" height="21.2" rx=".6" ry=".6" fill="#231f20" stroke="#e7e7e7" stroke-linejoin="round" stroke-width=".2"/></g><text transform="scale(1.0397 .96177)" x="74.660637" y="391.9072" fill="#ffffff" font-family="sans-serif" font-size="2.4768px" font-weight="700"><tspan x="74.660637" y="391.9072"/></text><text transform="scale(1.0003 .99968)" x="79.690422" y="368.06918" fill="#000000" font-family="sans-serif" font-size="21.25px" letter-spacing="0px" stroke-width="1px" word-spacing="0px" style="line-height:125%" xml:space="preserve"><tspan x="79.690422" y="368.06918"/></text><g transform="matrix(.62797 0 0 1.0577 76.079 -23.841)"><rect x="119.8" y="379.65" width="78.083" height="15.703" rx=".6" ry=".6" fill="#bebebe"/></g><path d="m77.166 394.62-4e-3 -22.787" fill="none" stroke="#333" stroke-linejoin="round" stroke-width=".53109"/><g transform="matrix(1.0029 0 0 .56339 -19.254 275.76)"><path d="m110.68 204.3h3.7977c0.31236-0.0253 0.47172 0.26313 0.46384 0.53195v1.167c-0.0177 0.40759-0.69625 1.0145-1.2147 0.97148h-2.4609c-0.16724 0.0534-1.0983-0.60543-1.0629-1.0023v-1.1665c-0.0205-0.34162 0.30491-0.50905 0.47686-0.50159" fill="#e6e6e6"/><path d="m110.82 204.48h3.492c0.37167-0.0222 0.41803 0.25189 0.41125 0.48766v1.0611c-0.0156 0.26619-0.58392 0.79942-1.0385 0.76155h-2.3058c-0.14683 0.0469-0.93886-0.53989-0.95768-0.7883v-1.0612c-0.0176-0.29936 0.24811-0.46751 0.3988-0.46085" fill="#1d1d1d"/><g transform="matrix(.0060892 0 0 .0061268 99.791 230.08)"><path d="m1811.4-4178h573.48c61.03-3.61 68.63 41.12 67.53 79.61v173.18c-2.58 43.45-95.9 130.46-170.55 124.27h-378.69c-24.09 7.68-154.17-88.11-157.26-128.66v-173.19c-2.9-48.86 40.74-76.32 65.49-75.21z" fill="none" stroke="#000" stroke-width=".26401"/></g><path transform="matrix(.53109 0 0 .53109 35 368.35)" d="m144.09-307.32c-4e-3 -1.6e-4 -9e-3 2e-3 -0.0137 2e-3h-0.0117c-0.17447-7e-3 -0.45217 0.11055-0.43164 0.42579v1.0488c6e-3 0.0693 0.0738 0.16195 0.17187 0.25782 0.2624 0.2717 0.80298 0.59446 0.93164 0.55664h2.4942c0.52548 0.0402 1.2155-0.47741 1.2324-0.75782v-1.0781c8e-3 -0.24841-2e-3 -0.47824-0.43164-0.45508h-3.9414z" fill="#404040"/><g fill="#070707"><path d="m111.56 205.87h0.1884v-0.41664h-0.1884z"/><path d="m112.01 205.87h0.18839v-0.41664h-0.18839z"/><path d="m112.48 205.87h0.18799v-0.41664h-0.18799z"/><path d="m112.96 205.87h0.18799v-0.41664h-0.18799z"/><path d="m113.42 205.87h0.18837v-0.41664h-0.18837z"/></g></g><rect x="78.374" y="372.65" width="9.5646" height="6.0966" rx=".21997" ry=".28941" fill="none" stroke="#fff" stroke-width=".09719"/><rect x="70.462" y="379.34" width="6.1054" height="1.1333" rx=".31642" ry=".1544" fill="#00ff1f"/><rect x="70.506" y="381.39" width="6.1054" height="1.1333" rx=".31642" ry=".1544" fill="#838383"/><ellipse cx="73.536" cy="384.34" rx=".76392" ry=".76344" fill="#838383"/><g transform="matrix(1.0394 0 0 .96208 -.060761 .030602)" fill="#fff"><path d="m75.82 389.91h0.32794q0.14626 0 0.22427 0.0652 0.07852 0.0647 0.07852 0.18475 0 0.12061-0.07852 0.18579-0.07801 0.0647-0.22427 0.0647h-0.13036v0.26584h-0.19759v-0.76622zm0.19759 0.14318v0.21401h0.10931q0.05748 0 0.08879-0.0277 0.03131-0.0282 0.03131-0.0795t-0.03131-0.079-0.08879-0.0277h-0.10931z"/><path d="m76.856 390.22q-0.06107 0-0.0934 0.0441-0.03182 0.0436-0.03182 0.12625 0 0.0826 0.03182 0.12676 0.03233 0.0436 0.0934 0.0436 0.06005 0 0.09186-0.0436 0.03182-0.0441 0.03182-0.12676 0-0.0826-0.03182-0.12625-0.03182-0.0441-0.09186-0.0441zm0-0.13138q0.14832 0 0.23146 0.0801 0.08365 0.0801 0.08365 0.22171 0 0.14164-0.08365 0.22171-0.08314 0.0801-0.23146 0.0801-0.14883 0-0.233-0.0801-0.08365-0.0801-0.08365-0.22171 0-0.14165 0.08365-0.22171 0.08417-0.0801 0.233-0.0801z"/><path d="m77.313 389.91h0.53323v0.14934h-0.33564v0.14268h0.31562v0.14934h-0.31562v0.17552h0.34693v0.14934h-0.54452z"/><path d="m78.436 390.02v0.26892h0.2679v0.12112h-0.2679v0.26892h-0.12214v-0.26892h-0.2679v-0.12112h0.2679v-0.26892z"/><path d="m79.811 389.94v0.16217q-0.06312-0.0282-0.12317-0.0426t-0.11342-0.0144q-0.07082 0-0.1047 0.0195-0.03387 0.0195-0.03387 0.0606 0 0.0308 0.02258 0.0482 0.02309 0.0169 0.08314 0.0292l0.08417 0.0169q0.12779 0.0257 0.18168 0.078t0.05389 0.14883q0 0.12676-0.07544 0.18886-0.07493 0.0616-0.22941 0.0616-0.07288 0-0.14626-0.0139-0.07339-0.0139-0.14678-0.0411v-0.16679q0.07339 0.039 0.14165 0.059 0.06877 0.0195 0.13241 0.0195 0.06467 0 0.09905-0.0215 0.03439-0.0216 0.03439-0.0616 0-0.0359-0.02361-0.0554-0.02309-0.0195-0.09289-0.0349l-0.07647-0.0169q-0.11496-0.0246-0.16833-0.0785-0.05286-0.0539-0.05286-0.14524 0-0.11445 0.0739-0.17603 0.0739-0.0616 0.21247-0.0616 0.06312 0 0.12984 0.01 0.06672 9e-3 0.13805 0.0282z"/><path d="m79.975 390.1h0.1786l0.09648 0.3962 0.097-0.3962h0.15345l0.09648 0.39209 0.097-0.39209h0.1786l-0.1514 0.57479h-0.20066l-0.097-0.39517-0.09648 0.39517h-0.20067z"/><path d="m80.998 390.1h0.18373v0.57479h-0.18373zm0-0.22376h0.18373v0.14985h-0.18373z"/><path d="m81.56 389.94v0.1632h0.18938v0.13138h-0.18938v0.24377q0 0.04 0.01591 0.0544 0.01591 0.0139 0.06312 0.0139h0.09443v0.13138h-0.15756q-0.1088 0-0.15448-0.0452-0.04516-0.0457-0.04516-0.15448v-0.24377h-0.09135v-0.13138h0.09135v-0.1632h0.18373z"/><path d="m82.326 390.12v0.14986q-0.03746-0.0257-0.07544-0.038-0.03746-0.0123-0.07801-0.0123-0.07698 0-0.12009 0.0452-0.0426 0.0446-0.0426 0.12523 0 0.0806 0.0426 0.12574 0.04311 0.0446 0.12009 0.0446 0.04311 0 0.0816-0.0128 0.039-0.0128 0.07185-0.038v0.15037q-0.04311 0.0159-0.08776 0.0236-0.04414 8e-3 -0.08879 8e-3 -0.1555 0-0.24326-0.0796-0.08776-0.0801-0.08776-0.22222 0-0.14216 0.08776-0.22171 0.08776-0.0801 0.24326-0.0801 0.04516 0 0.08879 8e-3 0.04414 8e-3 0.08776 0.0236z"/><path d="m83.064 390.33v0.35001h-0.18476v-0.26691q0-0.0754-0.0036-0.10367-0.0031-0.0282-0.01129-0.0416-0.01078-0.018-0.02925-0.0277-0.01848-0.0103-0.04208-0.0103-0.05748 0-0.09033 0.0447-0.03285 0.0441-0.03285 0.12265v0.28278h-0.18373v-0.79855h0.18373v0.30792q0.04157-0.0503 0.08827-0.0739 0.0467-0.0241 0.10316-0.0241 0.09956 0 0.15088 0.0611 0.05183 0.0611 0.05183 0.17757z"/></g><g transform="matrix(.0043172 0 0 .0043172 84.536 375)"><path d="m140.67 377.74h516.56c0.0674 0 0.12168 0.0244 0.12168 0.0548v315.04c0 0.0303-0.0543 0.0548-0.12168 0.0548h-516.56c-0.0674 0-0.12168-0.0244-0.12168-0.0548v-315.04c0-0.0303 0.0543-0.0548 0.12168-0.0548z" fill="#ff0" stroke="#ff0" stroke-linejoin="round" stroke-width="85.598"/><path d="m311.33 637.13h169.3v72.062l203.74-175.44-203.74-172.33v72.062h-169.3l188.08 72.062v-28.202l94.083 56.404-94.083 56.404v-25.088c-1.0798-1.9134-188.08 72.062-188.08 72.062z" stroke="#000"/><g stroke-width="1px"><path d="m120.1 493.56h35.066q15.64 0 23.981 6.9692 8.396 6.9143 8.396 19.755 0 12.896-8.396 19.865-8.3411 6.9143-23.981 6.9143h-13.938v28.426h-21.127zm21.127 15.31v22.883h11.689q6.1461 0 9.4935-2.9633 3.3474-3.0182 3.3474-8.5057 0-5.4876-3.3474-8.4508-3.3474-2.9633-9.4935-2.9633z"/><path d="m229.66 526.59q-6.5302 0-9.9874 4.7193-3.4023 4.6644-3.4023 13.499 0 8.835 3.4023 13.554 3.4572 4.6644 9.9874 4.6644 6.4204 0 9.8227-4.6644 3.4023-4.7193 3.4023-13.554 0-8.835-3.4023-13.499-3.4023-4.7193-9.8227-4.7193zm0-14.048q15.859 0 24.749 8.5606 8.9447 8.5606 8.9447 23.706 0 15.146-8.9447 23.706-8.8898 8.5606-24.749 8.5606-15.914 0-24.914-8.5606-8.9447-8.5606-8.9447-23.706 0-15.146 8.9447-23.706 8.9996-8.5606 24.914-8.5606z"/><path d="m277.43 493.56h57.016v15.969h-35.889v15.255h33.749v15.969h-33.749v18.767h37.096v15.969h-58.223z"/><path d="m396.43 505.03v28.755h28.645v12.951h-28.645v28.755h-13.06v-28.755h-28.645v-12.951h28.645v-28.755z"/></g></g><ellipse cx="82.967" cy="387.45" rx=".76392" ry=".76344"/><circle cx="78.563" cy="391.55" r=".38838"/><circle cx="83.723" cy="391.55" r=".38838"/><g transform="translate(-10.629 -15.437)"><rect x="95.462" y="396.24" width="3.3193" height="1.9916" rx=".089249" ry=".043549"/><g fill="#0f0" stroke-width="1px"><path d="m96.52 397.61h-0.47876l-0.07555 0.21632h-0.30778l0.43979-1.1874h0.36504l0.43979 1.1874h-0.30778l-0.07476-0.21632zm-0.40241-0.22029h0.32527l-0.16224-0.4724z"/><path d="m97.75 396.96v0.23222q-0.05805-0.0398-0.11691-0.0589-0.05806-0.0191-0.12088-0.0191-0.11929 0-0.1861 0.07-0.06601 0.0692-0.06601 0.19405 0 0.12486 0.06601 0.19484 0.0668 0.0692 0.1861 0.0692 0.0668 0 0.12645-0.0199 0.06044-0.0199 0.11134-0.0589v0.23302q-0.0668 0.0247-0.13599 0.0366-0.0684 0.0127-0.13758 0.0127-0.24097 0-0.37696-0.12327-0.13599-0.12406-0.13599-0.34435 0-0.2203 0.13599-0.34357 0.13599-0.12406 0.37696-0.12406 0.06999 0 0.13758 0.0127 0.06839 0.0119 0.13599 0.0366z"/><path d="m98.292 396.68v0.2529h0.29346v0.2036h-0.29346v0.37775q0 0.062 0.02465 0.0843 0.02465 0.0215 0.09782 0.0215h0.14633v0.20359h-0.24415q-0.1686 0-0.23938-0.07-0.06999-0.0708-0.06999-0.23939v-0.37775h-0.14156v-0.2036h0.14156v-0.2529h0.28471z"/></g></g><g transform="translate(-6.5454 -1.7303)"><rect x="91.461" y="384.9" width="3.3193" height="1.9916" rx=".089249" ry=".043549"/><g fill="#b3b3b3" stroke-width="1px"><path d="m91.636 385.3h0.8263v0.23143h-0.52012v0.22108h0.4891v0.23143h-0.4891v0.50342h-0.30618z"/><path d="m92.87 385.53v0.7245h0.10975q0.18769 0 0.2863-0.0931 0.09941-0.0931 0.09941-0.2704 0-0.17655-0.09861-0.2688-0.09862-0.0922-0.2871-0.0922h-0.10975zm-0.30618-0.23143h0.32288q0.2704 0 0.40241 0.039 0.13281 0.0382 0.22745 0.13042 0.08351 0.0803 0.12406 0.1853 0.04056 0.10498 0.04056 0.23779 0 0.13441-0.04056 0.24018-0.04056 0.10498-0.12406 0.1853-0.09543 0.0923-0.22904 0.13122-0.13361 0.0382-0.40082 0.0382h-0.32288v-1.1874z"/><path d="m93.942 386.03-0.3213-0.43502h0.30141l0.18212 0.26403 0.18451-0.26403h0.30141l-0.32129 0.43343 0.3372 0.45729h-0.30141l-0.20041-0.28153-0.19803 0.28153h-0.30141z"/></g></g><g transform="translate(-6.5454 -1.7303)"><rect x="91.467" y="387.41" width="3.3193" height="1.9916" rx=".089249" ry=".043549"/><g fill="#b3b3b3" stroke-width="1px"><path d="m92.545 387.71v0.25131q-0.09782-0.0437-0.19087-0.066t-0.17576-0.0223q-0.10975 0-0.16224 0.0302t-0.05249 0.0938q0 0.0477 0.03499 0.0748 0.03579 0.0262 0.12884 0.0453l0.13043 0.0263q0.19803 0.0398 0.28153 0.12088 0.08351 0.0811 0.08351 0.23063 0 0.19644-0.11691 0.29267-0.11611 0.0954-0.35549 0.0954-0.11293 0-0.22666-0.0215t-0.22745-0.0636v-0.25846q0.11372 0.0604 0.2195 0.0914 0.10657 0.0302 0.20518 0.0302 0.10021 0 0.15349-0.0334t0.05328-0.0954q0-0.0557-0.03658-0.0859-0.03579-0.0302-0.14395-0.0541l-0.1185-0.0262q-0.17814-0.0382-0.26085-0.12168-0.08191-0.0835-0.08191-0.22507 0-0.17735 0.11452-0.27278 0.11452-0.0954 0.32925-0.0954 0.09782 0 0.20121 0.0151 0.10339 0.0143 0.21393 0.0437z"/><path d="m92.979 388.73v0.46763h-0.28471v-1.2295h0.28471v0.13043q0.05885-0.0779 0.13043-0.11453 0.07158-0.0374 0.16462-0.0374 0.16462 0 0.2704 0.13122 0.10577 0.13042 0.10577 0.3364t-0.10577 0.3372q-0.10577 0.13043-0.2704 0.13043-0.09305 0-0.16462-0.0366-0.07158-0.0374-0.13043-0.11532zm0.18928-0.57658q-0.09146 0-0.14077 0.0676-0.04851 0.0668-0.04851 0.19325t0.04851 0.19405q0.04931 0.0668 0.14077 0.0668t0.13917-0.0668q0.04851-0.0668 0.04851-0.19405 0-0.12724-0.04851-0.19405-0.04772-0.0668-0.13917-0.0668z"/><path d="m94.282 388.1v-0.47718h0.2863v1.2375h-0.2863v-0.12884q-0.05885 0.0787-0.12963 0.11532-0.07078 0.0366-0.16383 0.0366-0.16462 0-0.2704-0.13043-0.10577-0.13122-0.10577-0.3372t0.10577-0.3364q0.10577-0.13122 0.2704-0.13122 0.09225 0 0.16303 0.0374 0.07157 0.0366 0.13043 0.11453zm-0.18769 0.57658q0.09146 0 0.13918-0.0668 0.04851-0.0668 0.04851-0.19405 0-0.12724-0.04851-0.19405-0.04772-0.0668-0.13918-0.0668-0.09066 0-0.13918 0.0668-0.04772 0.0668-0.04772 0.19405t0.04772 0.19405q0.04851 0.0668 0.13918 0.0668z"/></g></g><path d="m84.77 390.07h-1.8165v-1.6428" fill="none" stroke="#fff" stroke-width=".15933"/><path d="m84.77 380.9h-1.8223v1.6491" fill="none" stroke="#fff" stroke-width=".14759"/><g fill="#fff" stroke-width="1px"><g transform="translate(-1.1404 .030602)"><path d="m86.372 391.23v0.10875q-0.05208-0.0485-0.1113-0.0725-0.05871-0.024-0.12509-0.024-0.1307 0-0.20014 0.0802-0.06944 0.0796-0.06944 0.23077 0 0.15062 0.06944 0.23077 0.06943 0.0797 0.20014 0.0797 0.06637 0 0.12509-0.024 0.05922-0.024 0.1113-0.0725v0.10773q-0.05412 0.0368-0.11488 0.0551-0.06025 0.0184-0.12764 0.0184-0.17308 0-0.27264-0.10568-0.09956-0.1062-0.09956-0.28949 0-0.1838 0.09956-0.28948 0.09956-0.1062 0.27264-0.1062 0.06841 0 0.12866 0.0184 0.06076 0.0179 0.11385 0.0541z"/><path d="m86.518 391.14h0.09394v0.79443h-0.09394z"/><path d="m87.287 391.62v0.046h-0.43193q0.0061 0.097 0.0582 0.14806 0.05259 0.0505 0.14602 0.0505 0.05412 0 0.10466-0.0133 0.05106-0.0133 0.10109-0.0398v0.0888q-0.05054 0.0215-0.10364 0.0327t-0.10773 0.0112q-0.13683 0-0.21698-0.0796-0.07965-0.0797-0.07965-0.21546 0-0.1404 0.07556-0.2226 0.07607-0.0827 0.20473-0.0827 0.11538 0 0.18227 0.0745 0.06739 0.074 0.06739 0.20167zm-0.09394-0.0276q-1e-3 -0.0771-0.0434-0.12304-0.04187-0.046-0.1113-0.046-0.07863 0-0.12611 0.0444-0.04697 0.0444-0.05412 0.12509l0.33492-5.1e-4z"/><path d="m87.69 391.65q-0.11385 0-0.15776 0.026t-0.04391 0.0888q0 0.05 0.03267 0.0796 0.03319 0.0291 0.08986 0.0291 0.07812 0 0.12509-0.0551 0.04748-0.0556 0.04748-0.14755v-0.0209h-0.09343zm0.18737-0.0388v0.32625h-0.09394v-0.0868q-0.03217 0.0521-0.08016 0.0771-0.04799 0.0245-0.11743 0.0245-0.08782 0-0.13989-0.049-0.05157-0.0495-0.05157-0.13224 0-0.0965 0.06433-0.1455 0.06484-0.049 0.19299-0.049h0.13172v-9e-3q0-0.0648-0.04289-0.10007-0.04238-0.0357-0.11947-0.0357-0.04901 0-0.09547 0.0117t-0.08935 0.0352v-0.0868q0.05157-0.0199 0.10007-0.0296 0.0485-0.0102 0.09445-0.0102 0.12406 0 0.18533 0.0643t0.06127 0.19503z"/><path d="m88.393 391.45q-0.01583-9e-3 -0.03472-0.0133-0.01838-5e-3 -0.04084-5e-3 -0.07965 0-0.12253 0.0521-0.04238 0.0516-0.04238 0.14857v0.30123h-0.09445v-0.57183h0.09445v0.0888q0.02961-0.0521 0.07709-0.0771 0.04748-0.0255 0.11538-0.0255 0.0097 0 0.02144 2e-3 0.01174 1e-3 0.02604 4e-3l5.11e-4 0.0965z"/></g><g transform="translate(-.060761 .030602)"><path d="m79.781 391.48q0.03319 0.0112 0.06433 0.048 0.03165 0.0368 0.06331 0.10109l0.10466 0.2083h-0.11079l-0.09752-0.19554q-0.03778-0.0766-0.07352-0.1016-0.03523-0.025-0.0965-0.025h-0.11232v0.32216h-0.10313v-0.76226h0.23281q0.1307 0 0.19503 0.0546t0.06433 0.16491q0 0.072-0.0337 0.11947-0.03319 0.0475-0.09701 0.0659zm-0.25834-0.32011v0.27059h0.12968q0.07454 0 0.11232-0.0342 0.03829-0.0347 0.03829-0.1016t-0.03829-0.10058q-0.03778-0.0342-0.11232-0.0342h-0.12968z"/><path d="m80.574 391.53v0.046h-0.43193q0.0061 0.097 0.0582 0.14806 0.05259 0.0505 0.14602 0.0505 0.05412 0 0.10466-0.0133 0.05106-0.0133 0.10109-0.0398v0.0888q-0.05054 0.0214-0.10364 0.0327-0.0531 0.0112-0.10773 0.0112-0.13683 0-0.21699-0.0796-0.07965-0.0796-0.07965-0.21545 0-0.1404 0.07556-0.2226 0.07607-0.0827 0.20473-0.0827 0.11538 0 0.18227 0.0745 0.06739 0.074 0.06739 0.20167zm-0.09394-0.0276q-1e-3 -0.0771-0.0434-0.12305-0.04187-0.046-0.1113-0.046-0.07863 0-0.12611 0.0444-0.04697 0.0444-0.05412 0.12509l0.33492-5.1e-4z"/><path d="m81.082 391.28v0.0888q-0.03982-0.0204-0.08271-0.0306t-0.08884-0.0102q-0.06995 0-0.10517 0.0214-0.03472 0.0214-0.03472 0.0643 0 0.0327 0.02502 0.0516 0.02502 0.0184 0.10058 0.0352l0.03217 7e-3q0.10007 0.0214 0.14193 0.0607 0.04238 0.0388 0.04238 0.10875 0 0.0797-0.06331 0.12611-0.0628 0.0465-0.17308 0.0465-0.04595 0-0.09598-9e-3 -0.04952-9e-3 -0.10466-0.0265v-0.097q0.05208 0.0271 0.10262 0.0409 0.05054 0.0133 0.10007 0.0133 0.06637 0 0.10211-0.0225 0.03574-0.023 0.03574-0.0643 0-0.0383-0.02604-0.0587-0.02553-0.0204-0.11283-0.0393l-0.03267-8e-3q-0.08731-0.0184-0.12611-0.0562-0.0388-0.0383-0.0388-0.10466 0-0.0807 0.05718-0.12458 0.05718-0.0439 0.16236-0.0439 0.05208 0 0.09803 8e-3t0.08475 0.023z"/><path d="m81.742 391.53v0.046h-0.43193q0.0061 0.097 0.0582 0.14806 0.05259 0.0505 0.14602 0.0505 0.05412 0 0.10466-0.0133 0.05106-0.0133 0.10109-0.0398v0.0888q-0.05054 0.0214-0.10364 0.0327-0.0531 0.0112-0.10773 0.0112-0.13683 0-0.21699-0.0796-0.07965-0.0796-0.07965-0.21545 0-0.1404 0.07556-0.2226 0.07607-0.0827 0.20473-0.0827 0.11539 0 0.18227 0.0745 0.06739 0.074 0.06739 0.20167zm-0.09394-0.0276q-1e-3 -0.0771-0.0434-0.12305-0.04187-0.046-0.1113-0.046-0.07863 0-0.12611 0.0444-0.04697 0.0444-0.05412 0.12509l0.33492-5.1e-4z"/><path d="m81.978 391.1v0.16236h0.1935v0.073h-0.1935v0.31042q0 0.0699 0.01889 0.0899 0.0194 0.0199 0.07811 0.0199h0.0965v0.0786h-0.0965q-0.10875 0-0.1501-0.0403-0.04135-0.0408-0.04135-0.14806v-0.31042h-0.06893v-0.073h0.06893v-0.16236h0.09445z"/></g><g transform="matrix(.75766 0 0 .75766 21.246 92.948)"><path d="m80.397 383.16h0.10313v0.67547h0.37117v0.0868h-0.47431v-0.76226z"/><path d="m80.969 383.16h0.48196v0.0868h-0.37883v0.22566h0.363v0.0868h-0.363v0.27621h0.38802v0.0868h-0.49115v-0.76226z"/><path d="m81.723 383.24v0.59276h0.12458q0.15776 0 0.23077-0.0715 0.07352-0.0715 0.07352-0.22566 0-0.15317-0.07352-0.22414-0.07301-0.0715-0.23077-0.0715h-0.12458zm-0.10313-0.0847h0.21188q0.22158 0 0.32522 0.0924 0.10364 0.0919 0.10364 0.28796 0 0.19707-0.10415 0.28948-0.10415 0.0924-0.32471 0.0924h-0.21188v-0.76226z"/><path d="m80.397 383.98h0.15368l0.19452 0.51873 0.19554-0.51873h0.15368v0.76226h-0.10058v-0.66934l-0.19656 0.52281h-0.10364l-0.19656-0.52281v0.66934h-0.10007z"/><path d="m81.507 384.24q-0.07556 0-0.11947 0.0592-0.04391 0.0587-0.04391 0.16133 0 0.10262 0.0434 0.16185 0.04391 0.0587 0.11998 0.0587 0.07505 0 0.11896-0.0592t0.04391-0.16134q0-0.1016-0.04391-0.16082-0.04391-0.0597-0.11896-0.0597zm0-0.0797q0.12253 0 0.19248 0.0797 0.06995 0.0796 0.06995 0.22056 0 0.1404-0.06995 0.22056-0.06995 0.0797-0.19248 0.0797-0.12304 0-0.19299-0.0797-0.06944-0.0802-0.06944-0.22056 0-0.14091 0.06944-0.22056 0.06995-0.0797 0.19299-0.0797z"/><path d="m82.29 384.26v-0.30939h0.09394v0.79442h-0.09394v-0.0858q-0.02961 0.051-0.07505 0.0761-0.04493 0.0245-0.10824 0.0245-0.10364 0-0.16899-0.0827-0.06484-0.0827-0.06484-0.2175 0-0.13479 0.06484-0.2175 0.06535-0.0827 0.16899-0.0827 0.06331 0 0.10824 0.025 0.04544 0.0245 0.07505 0.0756zm-0.32012 0.19963q0 0.10364 0.04238 0.16287 0.04289 0.0587 0.11743 0.0587t0.11743-0.0587q0.04289-0.0592 0.04289-0.16287 0-0.10364-0.04289-0.16236-0.04289-0.0592-0.11743-0.0592t-0.11743 0.0592q-0.04238 0.0587-0.04238 0.16236z"/><path d="m83.057 384.44v0.046h-0.43193q0.0061 0.097 0.0582 0.14807 0.05259 0.0505 0.14602 0.0505 0.05412 0 0.10466-0.0133 0.05106-0.0133 0.10109-0.0398v0.0888q-0.05054 0.0214-0.10364 0.0327-0.0531 0.0112-0.10773 0.0112-0.13683 0-0.21699-0.0797-0.07965-0.0796-0.07965-0.21545 0-0.14041 0.07556-0.22261 0.07607-0.0827 0.20473-0.0827 0.11539 0 0.18227 0.0745 0.06739 0.074 0.06739 0.20166zm-0.09394-0.0276q-1e-3 -0.0771-0.0434-0.12304-0.04187-0.046-0.1113-0.046-0.07863 0-0.12611 0.0444-0.04697 0.0444-0.05412 0.12509l0.33492-5.2e-4z"/></g></g><rect x="85.092" y="388.08" width="3.3193" height="1.9916" rx=".089249" ry=".043549"/><g transform="translate(-.060761 .030602)" fill="#b3b3b3" stroke-width="1px"><path d="m85.215 388.43h0.51976q0.23182 0 0.35545 0.1033 0.12445 0.10249 0.12445 0.29282 0 0.19115-0.12445 0.29445-0.12364 0.10249-0.35545 0.10249h-0.2066v0.42134h-0.31316zm0.31316 0.22694v0.33918h0.17325q0.0911 0 0.14072-0.0439 0.04962-0.0447 0.04962-0.12608 0-0.0813-0.04962-0.12526-0.04962-0.0439-0.14072-0.0439h-0.17325z"/><path d="m86.839 388.92q-0.0968 0-0.14804 0.07-0.05043 0.0691-0.05043 0.20009 0 0.13096 0.05043 0.20091 0.05124 0.0691 0.14804 0.0691 0.09517 0 0.1456-0.0691 0.05043-0.07 0.05043-0.20091 0-0.13095-0.05043-0.20009-0.05043-0.07-0.1456-0.07zm0-0.20823q0.23507 0 0.36684 0.12689 0.13258 0.12689 0.13258 0.35139t-0.13258 0.35139q-0.13177 0.12689-0.36684 0.12689-0.23589 0-0.36928-0.12689-0.13258-0.12689-0.13258-0.35139t0.13258-0.35139q0.1334-0.12689 0.36928-0.12689z"/><path d="m87.547 388.43h0.84512v0.2367h-0.53196v0.22612h0.50024v0.2367h-0.50024v0.27818h0.54986v0.2367h-0.86302z"/></g><path d="m82.947 385.17v1.1628" fill="none" stroke="#fff" stroke-width=".14759"/><g transform="translate(13.224 13.597)" fill="#fff" stroke-width="1px"><path d="m79.049 379.4v0.10874q-0.05208-0.0485-0.1113-0.0725-0.05871-0.024-0.12509-0.024-0.1307 0-0.20014 0.0802-0.06943 0.0796-0.06943 0.23077 0 0.15061 0.06943 0.23077 0.06943 0.0797 0.20014 0.0797 0.06637 0 0.12509-0.024 0.05922-0.024 0.1113-0.0725v0.10773q-0.05412 0.0368-0.11488 0.0551-0.06025 0.0184-0.12764 0.0184-0.17308 0-0.27264-0.10569-0.09956-0.10619-0.09956-0.28948 0-0.1838 0.09956-0.28949 0.09956-0.10619 0.27264-0.10619 0.06841 0 0.12866 0.0184 0.06076 0.0179 0.11385 0.0541z"/><path d="m79.417 379.59q-0.07556 0-0.11947 0.0592-0.04391 0.0587-0.04391 0.16133 0 0.10262 0.0434 0.16185 0.04391 0.0587 0.11998 0.0587 0.07505 0 0.11896-0.0592t0.04391-0.16134q0-0.1016-0.04391-0.16082-0.04391-0.0597-0.11896-0.0597zm0-0.0797q0.12253 0 0.19248 0.0797t0.06995 0.22056q0 0.1404-0.06995 0.22056-0.06995 0.0796-0.19248 0.0796-0.12304 0-0.19299-0.0796-0.06943-0.0802-0.06943-0.22056 0-0.14091 0.06943-0.22056 0.06995-0.0797 0.19299-0.0797z"/><path d="m80.299 379.75v0.34513h-0.09394v-0.34207q0-0.0812-0.03166-0.12151-0.03165-0.0403-0.09496-0.0403-0.07607 0-0.11998 0.0485t-0.04391 0.13223v0.32318h-0.09445v-0.57182h0.09445v0.0888q0.0337-0.0516 0.07914-0.0771 0.04595-0.0255 0.10568-0.0255 0.09854 0 0.14908 0.0613 0.05054 0.0608 0.05054 0.17921z"/><path d="m80.842 379.54v0.0888q-0.03982-0.0204-0.08271-0.0306t-0.08884-0.0102q-0.06995 0-0.10517 0.0214-0.03472 0.0215-0.03472 0.0643 0 0.0327 0.02502 0.0516 0.02502 0.0184 0.10058 0.0352l0.03216 7e-3q0.10007 0.0214 0.14193 0.0607 0.04238 0.0388 0.04238 0.10875 0 0.0796-0.06331 0.12611-0.0628 0.0465-0.17308 0.0465-0.04595 0-0.09598-9e-3 -0.04952-9e-3 -0.10466-0.0265v-0.097q0.05208 0.0271 0.10262 0.0409 0.05054 0.0133 0.10007 0.0133 0.06637 0 0.10211-0.0225 0.03574-0.023 0.03574-0.0643 0-0.0383-0.02604-0.0587-0.02553-0.0204-0.11283-0.0393l-0.03268-8e-3q-0.0873-0.0184-0.12611-0.0562-0.0388-0.0383-0.0388-0.10466 0-0.0807 0.05718-0.12458 0.05718-0.0439 0.16236-0.0439 0.05208 0 0.09803 8e-3t0.08475 0.023z"/><path d="m81.233 379.59q-0.07556 0-0.11947 0.0592-0.04391 0.0587-0.04391 0.16133 0 0.10262 0.0434 0.16185 0.04391 0.0587 0.11998 0.0587 0.07505 0 0.11896-0.0592t0.04391-0.16134q0-0.1016-0.04391-0.16082-0.04391-0.0597-0.11896-0.0597zm0-0.0797q0.12253 0 0.19248 0.0797t0.06995 0.22056q0 0.1404-0.06995 0.22056-0.06995 0.0796-0.19248 0.0796-0.12304 0-0.19299-0.0796-0.06943-0.0802-0.06943-0.22056 0-0.14091 0.06943-0.22056 0.06995-0.0797 0.19299-0.0797z"/><path d="m81.641 379.31h0.09394v0.79442h-0.09394z"/><path d="m82.409 379.79v0.046h-0.43193q0.0061 0.097 0.0582 0.14806 0.05259 0.0505 0.14602 0.0505 0.05412 0 0.10466-0.0133 0.05105-0.0133 0.10109-0.0398v0.0888q-0.05054 0.0214-0.10364 0.0327-0.0531 0.0112-0.10773 0.0112-0.13683 0-0.21699-0.0796-0.07965-0.0797-0.07965-0.21545 0-0.14041 0.07556-0.22261 0.07607-0.0827 0.20473-0.0827 0.11539 0 0.18227 0.0745 0.06739 0.074 0.06739 0.20167zm-0.09394-0.0276q-1e-3 -0.0771-0.0434-0.12305-0.04187-0.046-0.1113-0.046-0.07863 0-0.12611 0.0444-0.04697 0.0444-0.05412 0.12509l0.33492-5.1e-4z"/></g><g fill="#fff" stroke-width="1px"><g transform="translate(-.060761 .030602)"><path d="m67.35 379.57v0.28642h0.12968q0.07199 0 0.1113-0.0373t0.03931-0.1062q0-0.0684-0.03931-0.10568-0.03931-0.0373-0.1113-0.0373h-0.12968zm-0.10313-0.0848h0.23281q0.12815 0 0.1935 0.0582 0.06586 0.0577 0.06586 0.1695 0 0.11284-0.06586 0.17053-0.06535 0.0577-0.1935 0.0577h-0.12968v0.30633h-0.10313v-0.76225z"/><path d="m68.048 379.74q-0.07556 0-0.11947 0.0592-0.04391 0.0587-0.04391 0.16133t0.0434 0.16185q0.04391 0.0587 0.11998 0.0587 0.07505 0 0.11896-0.0592t0.04391-0.16134q0-0.1016-0.04391-0.16082-0.04391-0.0597-0.11896-0.0597zm0-0.0796q0.12253 0 0.19248 0.0796t0.06995 0.22056q0 0.14041-0.06995 0.22056-0.06995 0.0796-0.19248 0.0796-0.12304 0-0.19299-0.0796-0.06944-0.0802-0.06944-0.22056 0-0.14091 0.06944-0.22056 0.06995-0.0796 0.19299-0.0796z"/><path d="m68.401 379.68h0.09394l0.11743 0.44623 0.11692-0.44623h0.11079l0.11743 0.44623 0.11692-0.44623h0.09394l-0.14959 0.57182h-0.11079l-0.12304-0.46868-0.12355 0.46868h-0.11079l-0.14959-0.57182z"/><path d="m69.79 379.94v0.046h-0.43193q0.0061 0.097 0.0582 0.14806 0.05259 0.0505 0.14602 0.0505 0.05412 0 0.10466-0.0133 0.05106-0.0133 0.10109-0.0398v0.0888q-0.05054 0.0215-0.10364 0.0327t-0.10773 0.0112q-0.13683 0-0.21698-0.0796-0.07965-0.0796-0.07965-0.21545 0-0.1404 0.07556-0.2226 0.07607-0.0827 0.20473-0.0827 0.11538 0 0.18227 0.0745 0.06739 0.074 0.06739 0.20167zm-0.09394-0.0276q-1e-3 -0.0771-0.0434-0.12305-0.04187-0.046-0.1113-0.046-0.07863 0-0.12611 0.0444-0.04697 0.0444-0.05412 0.12509l0.33492-5.1e-4z"/><path d="m70.265 379.77q-0.01583-9e-3 -0.03472-0.0133-0.01838-5e-3 -0.04084-5e-3 -0.07965 0-0.12253 0.0521-0.04238 0.0516-0.04238 0.14857v0.30122h-0.09445v-0.57182h0.09445v0.0888q0.02961-0.0521 0.07709-0.0771 0.04748-0.0255 0.11539-0.0255 0.0097 0 0.02144 2e-3 0.01174 1e-3 0.02604 4e-3l5.11e-4 0.0965z"/></g><g transform="translate(-.060761 .030602)"><path d="m67.247 381.56h0.43806v0.0868h-0.33492v0.22464h0.30225v0.0868h-0.30225v0.36403h-0.10313v-0.76226z"/><path d="m67.999 382.03q-0.11385 0-0.15776 0.026t-0.04391 0.0888q0 0.05 0.03268 0.0797 0.03319 0.0291 0.08986 0.0291 0.07811 0 0.12509-0.0551 0.04748-0.0557 0.04748-0.14755v-0.0209h-0.09343zm0.18737-0.0388v0.32624h-0.09394v-0.0868q-0.03216 0.0521-0.08016 0.0771-0.04799 0.0245-0.11743 0.0245-0.08781 0-0.13989-0.049-0.05157-0.0495-0.05157-0.13223 0-0.0965 0.06433-0.14551 0.06484-0.049 0.19299-0.049h0.13172v-9e-3q0-0.0648-0.04289-0.10007-0.04238-0.0357-0.11947-0.0357-0.04901 0-0.09547 0.0117-0.04646 0.0118-0.08935 0.0352v-0.0868q0.05157-0.0199 0.10007-0.0296 0.0485-0.0102 0.09445-0.0102 0.12406 0 0.18533 0.0643t0.06127 0.19504z"/><path d="m68.36 382.09v-0.34616h0.09394v0.34258q0 0.0812 0.03165 0.12202 0.03166 0.0403 0.09496 0.0403 0.07607 0 0.11998-0.0485 0.04442-0.0485 0.04442-0.13223v-0.3242h0.09394v0.57182h-0.09394v-0.0878q-0.03421 0.0521-0.07965 0.0776-0.04493 0.025-0.10466 0.025-0.09854 0-0.14959-0.0613-0.05106-0.0613-0.05106-0.1792zm0.23639-0.35995z"/><path d="m69.023 381.52h0.09394v0.79442h-0.09394z"/><path d="m69.395 381.58v0.16236h0.1935v0.073h-0.1935v0.31042q0 0.0699 0.01889 0.0899 0.0194 0.0199 0.07811 0.0199h0.0965v0.0786h-0.0965q-0.10875 0-0.1501-0.0403-0.04135-0.0409-0.04135-0.14806v-0.31042h-0.06892v-0.073h0.06892v-0.16236h0.09445z"/></g><g transform="translate(-.060761 .030602)"><path d="m67.247 383.92h0.10313v0.67546h0.37117v0.0868h-0.47431z"/><path d="m68.018 384.18q-0.07556 0-0.11947 0.0592-0.04391 0.0587-0.04391 0.16133t0.0434 0.16185q0.04391 0.0587 0.11998 0.0587 0.07505 0 0.11896-0.0592t0.04391-0.16134q0-0.1016-0.04391-0.16082-0.04391-0.0597-0.11896-0.0597zm0-0.0797q0.12253 0 0.19248 0.0797 0.06995 0.0796 0.06995 0.22055 0 0.14041-0.06995 0.22056-0.06995 0.0796-0.19248 0.0796-0.12304 0-0.19299-0.0796-0.06944-0.0802-0.06944-0.22056 0-0.14091 0.06944-0.22055 0.06995-0.0797 0.19299-0.0797z"/><path d="m68.836 384.13v0.0878q-0.03982-0.022-0.08016-0.0327-0.03982-0.0112-0.08067-0.0112-0.09139 0-0.14194 0.0582-0.05054 0.0577-0.05054 0.16235 0 0.10467 0.05054 0.16287 0.05054 0.0577 0.14194 0.0577 0.04084 0 0.08067-0.0107 0.04033-0.0112 0.08016-0.0332v0.0868q-0.03931 0.0184-0.08169 0.0276-0.04187 9e-3 -0.08935 9e-3 -0.12917 0-0.20524-0.0812t-0.07607-0.21903q0-0.13989 0.07658-0.22004 0.07709-0.0802 0.21086-0.0802 0.0434 0 0.08475 9e-3t0.08016 0.0265z"/><path d="m69.25 384.4q-0.11385 0-0.15776 0.026t-0.04391 0.0888q0 0.05 0.03268 0.0796 0.03319 0.0291 0.08986 0.0291 0.07811 0 0.12509-0.0551 0.04748-0.0557 0.04748-0.14755v-0.0209h-0.09343zm0.18737-0.0388v0.32625h-0.09394v-0.0868q-0.03216 0.0521-0.08016 0.0771-0.04799 0.0245-0.11743 0.0245-0.08782 0-0.13989-0.049-0.05157-0.0495-0.05157-0.13224 0-0.0965 0.06433-0.1455 0.06484-0.049 0.19299-0.049h0.13172v-9e-3q0-0.0648-0.04289-0.10007-0.04238-0.0357-0.11947-0.0357-0.04901 0-0.09547 0.0117t-0.08935 0.0352v-0.0868q0.05157-0.0199 0.10007-0.0296 0.0485-0.0102 0.09445-0.0102 0.12406 0 0.18533 0.0643t0.06127 0.19503z"/><path d="m69.714 383.95v0.16235h0.1935v0.073h-0.1935v0.31042q0 0.07 0.01889 0.0899 0.0194 0.0199 0.07812 0.0199h0.09649v0.0786h-0.09649q-0.10875 0-0.1501-0.0403-0.04136-0.0408-0.04136-0.14806v-0.31042h-0.06892v-0.073h0.06892v-0.16235h0.09445z"/><path d="m70.243 384.18q-0.07556 0-0.11947 0.0592-0.04391 0.0587-0.04391 0.16133t0.0434 0.16185q0.04391 0.0587 0.11998 0.0587 0.07505 0 0.11896-0.0592t0.04391-0.16134q0-0.1016-0.04391-0.16082-0.04391-0.0597-0.11896-0.0597zm0-0.0797q0.12253 0 0.19248 0.0797 0.06995 0.0796 0.06995 0.22055 0 0.14041-0.06995 0.22056-0.06995 0.0796-0.19248 0.0796-0.12304 0-0.19299-0.0796-0.06943-0.0802-0.06943-0.22056 0-0.14091 0.06943-0.22055 0.06995-0.0797 0.19299-0.0797z"/><path d="m70.981 384.2q-0.01583-9e-3 -0.03472-0.0133-0.01838-5e-3 -0.04084-5e-3 -0.07965 0-0.12253 0.0521-0.04238 0.0516-0.04238 0.14857v0.30123h-0.09445v-0.57183h0.09445v0.0888q0.02961-0.0521 0.07709-0.0771 0.04748-0.0255 0.11539-0.0255 0.0097 0 0.02144 2e-3 0.01174 1e-3 0.02604 4e-3l5.11e-4 0.0965z"/></g></g><g transform="translate(-.060761 .030602)" fill="#fff" stroke-width="1px"><path d="m70.512 393.35v0.10875q-0.05208-0.0485-0.1113-0.0725-0.05871-0.024-0.12509-0.024-0.1307 0-0.20014 0.0802-0.06943 0.0797-0.06943 0.23077 0 0.15061 0.06943 0.23077 0.06944 0.0797 0.20014 0.0797 0.06637 0 0.12509-0.024 0.05922-0.024 0.1113-0.0725v0.10773q-0.05412 0.0368-0.11488 0.0551-0.06025 0.0184-0.12764 0.0184-0.17308 0-0.27264-0.10569-0.09956-0.10619-0.09956-0.28948 0-0.1838 0.09956-0.28948 0.09956-0.1062 0.27264-0.1062 0.06842 0 0.12866 0.0184 0.06076 0.0179 0.11385 0.0541z"/><path d="m70.879 393.54q-0.07556 0-0.11947 0.0592-0.04391 0.0587-0.04391 0.16133 0 0.10262 0.0434 0.16185 0.04391 0.0587 0.11998 0.0587 0.07505 0 0.11896-0.0592t0.04391-0.16134q0-0.1016-0.04391-0.16082-0.04391-0.0597-0.11896-0.0597zm0-0.0796q0.12253 0 0.19248 0.0796t0.06995 0.22056q0 0.14041-0.06995 0.22056-0.06995 0.0797-0.19248 0.0797-0.12304 0-0.19299-0.0797-0.06944-0.0802-0.06944-0.22056 0-0.14091 0.06944-0.22056 0.06995-0.0796 0.19299-0.0796z"/><path d="m71.761 393.7v0.34513h-0.09394v-0.34207q0-0.0812-0.03165-0.12151-0.03166-0.0403-0.09496-0.0403-0.07607 0-0.11998 0.0485t-0.04391 0.13223v0.32318h-0.09445v-0.57182h0.09445v0.0888q0.0337-0.0516 0.07914-0.0771 0.04595-0.0255 0.10568-0.0255 0.09854 0 0.14908 0.0613 0.05054 0.0608 0.05054 0.17921z"/><path d="m72.304 393.49v0.0888q-0.03982-0.0204-0.08271-0.0306t-0.08884-0.0102q-0.06995 0-0.10518 0.0215-0.03472 0.0214-0.03472 0.0643 0 0.0327 0.02502 0.0516 0.02502 0.0184 0.10058 0.0352l0.03216 7e-3q0.10007 0.0214 0.14193 0.0607 0.04238 0.0388 0.04238 0.10875 0 0.0797-0.06331 0.12611-0.0628 0.0465-0.17308 0.0465-0.04595 0-0.09598-9e-3 -0.04952-9e-3 -0.10466-0.0265v-0.097q0.05208 0.0271 0.10262 0.0408 0.05054 0.0133 0.10007 0.0133 0.06637 0 0.10211-0.0225 0.03574-0.023 0.03574-0.0643 0-0.0383-0.02604-0.0587-0.02553-0.0204-0.11283-0.0393l-0.03268-8e-3q-0.08731-0.0184-0.12611-0.0562-0.0388-0.0383-0.0388-0.10466 0-0.0807 0.05718-0.12458 0.05718-0.0439 0.16236-0.0439 0.05208 0 0.09803 8e-3t0.08475 0.023z"/><path d="m72.696 393.54q-0.07556 0-0.11947 0.0592-0.04391 0.0587-0.04391 0.16133 0 0.10262 0.0434 0.16185 0.04391 0.0587 0.11998 0.0587 0.07505 0 0.11896-0.0592t0.04391-0.16134q0-0.1016-0.04391-0.16082-0.04391-0.0597-0.11896-0.0597zm0-0.0796q0.12253 0 0.19248 0.0796t0.06995 0.22056q0 0.14041-0.06995 0.22056-0.06995 0.0797-0.19248 0.0797-0.12304 0-0.19299-0.0797-0.06944-0.0802-0.06944-0.22056 0-0.14091 0.06944-0.22056 0.06995-0.0796 0.19299-0.0796z"/><path d="m73.103 393.26h0.09394v0.79442h-0.09394z"/><path d="m73.872 393.74v0.046h-0.43193q0.0061 0.097 0.0582 0.14806 0.05259 0.0505 0.14602 0.0505 0.05412 0 0.10466-0.0133 0.05106-0.0133 0.10109-0.0398v0.0888q-0.05054 0.0214-0.10364 0.0327-0.0531 0.0112-0.10773 0.0112-0.13683 0-0.21699-0.0797-0.07965-0.0796-0.07965-0.21545 0-0.1404 0.07556-0.2226 0.07607-0.0827 0.20473-0.0827 0.11538 0 0.18227 0.0745 0.06739 0.074 0.06739 0.20167zm-0.09394-0.0276q-1e-3 -0.0771-0.0434-0.12305-0.04187-0.0459-0.1113-0.0459-0.07863 0-0.12611 0.0444-0.04697 0.0444-0.05412 0.12509l0.33492-5.1e-4z"/></g><g transform="translate(.088141 .1745)"><rect x="77.967" y="387.91" width="3.3193" height="1.9916" rx=".089249" ry=".043549"/><g fill="#b3b3b3" stroke-width="1px"><path d="m78.058 388.5h0.92418v0.19545h-0.33246v0.80731h-0.25858v-0.80731h-0.33313z"/><path d="m79.659 389.12v0.0685h-0.56216q0.0087 0.0846 0.06112 0.12693 0.05239 0.0423 0.14642 0.0423 0.0759 0 0.15515-0.0222 0.07993-0.0228 0.16388-0.0685v0.18537q-0.0853 0.0322-0.1706 0.0484-0.0853 0.0168-0.1706 0.0168-0.20418 0-0.31768-0.10343-0.11284-0.10411-0.11284-0.2915 0-0.18402 0.11082-0.28947 0.11149-0.10545 0.30627-0.10545 0.17731 0 0.28343 0.10679 0.10679 0.10679 0.10679 0.28545zm-0.24716-0.0799q0-0.0685-0.0403-0.11015-0.03963-0.0423-0.1041-0.0423-0.06985 0-0.11351 0.0396-0.04366 0.0389-0.0544 0.11283h0.31231z"/><path d="m80.415 388.77v0.18269q-0.07724-0.0322-0.1491-0.0484-0.07186-0.0161-0.13567-0.0161-0.06851 0-0.10209 0.0175-0.03291 0.0168-0.03291 0.0524 0 0.0289 0.02485 0.0443 0.02552 0.0154 0.09067 0.0228l0.04231 6e-3q0.1847 0.0235 0.24851 0.0772t0.06381 0.16858q0 0.12022-0.08866 0.18067-0.08866 0.0605-0.26462 0.0605-0.07455 0-0.15448-0.0121-0.07925-0.0114-0.16321-0.0349v-0.18268q0.07187 0.0349 0.14709 0.0524 0.0759 0.0175 0.15381 0.0175 0.07052 0 0.10612-0.0195t0.0356-0.0578q0-0.0322-0.02485-0.0477-0.02418-0.0161-0.09739-0.0248l-0.04231-5e-3q-0.16052-0.0202-0.225-0.0745-0.06448-0.0544-0.06448-0.16523 0-0.11955 0.08194-0.17731 0.08194-0.0578 0.25119-0.0578 0.06649 0 0.1397 0.0101t0.15918 0.0316z"/><path d="m80.895 388.54v0.21358h0.24784v0.17194h-0.24784v0.31903q0 0.0524 0.02082 0.0712 0.02082 0.0181 0.08261 0.0181h0.12358v0.17194h-0.20619q-0.14239 0-0.20216-0.0591-0.05911-0.0598-0.05911-0.20217v-0.31903h-0.11955v-0.17194h0.11955v-0.21358h0.24045z"/></g></g><g transform="translate(.59941 2.913)"><rect x="77.456" y="382.84" width="3.3193" height="1.9916" rx=".089249" ry=".043549"/><g fill="#0f0" stroke-width="1px"><path d="m77.518 383.22h0.51976q0.23182 0 0.35545 0.1033 0.12445 0.10249 0.12445 0.29283 0 0.19114-0.12445 0.29445-0.12364 0.10248-0.35545 0.10248h-0.2066v0.42134h-0.31316zm0.31316 0.22694v0.33919h0.17325q0.0911 0 0.14072-0.0439 0.04962-0.0447 0.04962-0.12607 0-0.0813-0.04962-0.12527-0.04962-0.0439-0.14072-0.0439h-0.17325z"/><path d="m79.142 383.71q-0.09679 0-0.14804 0.07-0.05043 0.0691-0.05043 0.20009 0 0.13096 0.05043 0.20091 0.05125 0.0691 0.14804 0.0691 0.09517 0 0.1456-0.0691 0.05043-0.07 0.05043-0.20091 0-0.13095-0.05043-0.20009-0.05043-0.07-0.1456-0.07zm0-0.20823q0.23507 0 0.36684 0.12689 0.13258 0.12689 0.13258 0.35138 0 0.2245-0.13258 0.35139-0.13177 0.12689-0.36684 0.12689-0.23588 0-0.36928-0.12689-0.13258-0.12689-0.13258-0.35139 0-0.22449 0.13258-0.35138 0.1334-0.12689 0.36928-0.12689z"/><path d="m79.85 383.22h0.84512v0.2367h-0.53196v0.22612h0.50024v0.2367h-0.50024v0.27819h0.54986v0.23669h-0.86302z"/></g></g><g transform="translate(-.060761 2.6124)" fill="#fff" stroke-width="1px"><path d="m78.685 381.76v0.10058q-0.05871-0.0281-0.11079-0.0419t-0.10058-0.0138q-0.08424 0-0.13019 0.0327-0.04544 0.0327-0.04544 0.0929 0 0.0505 0.03012 0.0766 0.03063 0.0255 0.11538 0.0414l0.06229 0.0128q0.11539 0.022 0.17002 0.0776 0.05514 0.0551 0.05514 0.14807 0 0.11079-0.07454 0.16797-0.07403 0.0572-0.2175 0.0572-0.05412 0-0.11538-0.0123-0.06076-0.0123-0.12611-0.0362v-0.1062q0.0628 0.0352 0.12304 0.0531t0.11845 0.0179q0.08833 0 0.13632-0.0347t0.04799-0.099q0-0.0562-0.03472-0.0878-0.03421-0.0317-0.11283-0.0475l-0.0628-0.0123q-0.11538-0.023-0.16695-0.072t-0.05157-0.13632q0-0.10109 0.07097-0.1593 0.07148-0.0582 0.19656-0.0582 0.05361 0 0.10926 0.01t0.11385 0.0291z"/><path d="m78.97 381.76v0.16235h0.1935v0.073h-0.1935v0.31042q0 0.07 0.01889 0.0899 0.0194 0.0199 0.07811 0.0199h0.0965v0.0786h-0.0965q-0.10875 0-0.1501-0.0403-0.04135-0.0408-0.04135-0.14806v-0.31042h-0.06892v-0.073h0.06892v-0.16235h0.09445z"/><path d="m79.537 382.21q-0.11385 0-0.15776 0.026t-0.04391 0.0888q0 0.05 0.03268 0.0796 0.03319 0.0291 0.08986 0.0291 0.07812 0 0.12509-0.0551 0.04748-0.0557 0.04748-0.14756v-0.0209h-0.09343zm0.18737-0.0388v0.32624h-0.09394v-0.0868q-0.03216 0.0521-0.08016 0.0771-0.04799 0.0245-0.11743 0.0245-0.08782 0-0.13989-0.049-0.05157-0.0495-0.05157-0.13224 0-0.0965 0.06433-0.1455 0.06484-0.049 0.19299-0.049h0.13172v-9e-3q0-0.0648-0.04289-0.10007-0.04238-0.0357-0.11947-0.0357-0.04901 0-0.09547 0.0118-0.04646 0.0117-0.08935 0.0352v-0.0868q0.05157-0.0199 0.10007-0.0296 0.0485-0.0102 0.09445-0.0102 0.12406 0 0.18533 0.0643t0.06127 0.19503z"/><path d="m80.001 381.76v0.16235h0.1935v0.073h-0.1935v0.31042q0 0.07 0.01889 0.0899 0.0194 0.0199 0.07812 0.0199h0.09649v0.0786h-0.09649q-0.10875 0-0.1501-0.0403-0.04136-0.0408-0.04136-0.14806v-0.31042h-0.06892v-0.073h0.06892v-0.16235h0.09445z"/><path d="m80.298 382.27v-0.34616h0.09394v0.34259q0 0.0812 0.03165 0.12202 0.03166 0.0403 0.09496 0.0403 0.07607 0 0.11998-0.0485 0.04442-0.0485 0.04442-0.13223v-0.32421h0.09394v0.57182h-0.09394v-0.0878q-0.03421 0.0521-0.07965 0.0776-0.04493 0.025-0.10466 0.025-0.09854 0-0.14959-0.0613-0.05106-0.0613-0.05106-0.1792zm0.23639-0.35994z"/><path d="m81.326 381.94v0.0888q-0.03982-0.0204-0.08271-0.0306t-0.08884-0.0102q-0.06995 0-0.10517 0.0214-0.03472 0.0214-0.03472 0.0643 0 0.0327 0.02502 0.0516 0.02502 0.0184 0.10058 0.0352l0.03216 7e-3q0.10007 0.0214 0.14193 0.0607 0.04238 0.0388 0.04238 0.10875 0 0.0796-0.06331 0.12611-0.0628 0.0465-0.17308 0.0465-0.04595 0-0.09598-9e-3 -0.04952-9e-3 -0.10466-0.0265v-0.097q0.05208 0.0271 0.10262 0.0408 0.05054 0.0133 0.10007 0.0133 0.06637 0 0.10211-0.0225 0.03574-0.023 0.03574-0.0643 0-0.0383-0.02604-0.0587-0.02553-0.0204-0.11283-0.0393l-0.03268-8e-3q-0.08731-0.0184-0.12611-0.0562-0.0388-0.0383-0.0388-0.10466 0-0.0807 0.05718-0.12457 0.05718-0.0439 0.16236-0.0439 0.05208 0 0.09803 8e-3t0.08475 0.023z"/></g><g transform="matrix(.98128 0 0 .98128 1.7331 14.642)"><rect x="66.097" y="364.4" width="10.428" height="4.9758" rx=".16805" ry=".081999" fill="#231f20" stroke="#000" stroke-linejoin="round" stroke-width=".2125"/><path class="st1" d="m71.919 367.15c0 0.48887-0.3911 0.88609-0.86776 0.88609-0.47665 0-0.86775-0.39722-0.86775-0.88609v-0.75165s0.41555 0.10389 0.41555 0.54388v0.20777c0 0.26888 0.20166 0.48276 0.4522 0.48276 0.25055 0 0.45221-0.21388 0.45221-0.48276v-0.43388 6e-3c0.01835-0.36666 0.32999-0.48277 0.40944-0.52555h0.0064v0.95331zm-2.2305-0.87997c0.11612 0 0.22611 0.0183 0.32388 0.0611v0.46443c-0.08555-0.0733-0.20166-0.11611-0.32388-0.11611-0.27499 0-0.49498 0.21389-0.49498 0.48277v0.87386h-0.41555v-1.6011s0.17111 6e-3 0.2811 0.0856c0.15888-0.15889 0.38499-0.25055 0.62943-0.25055m-1.9922 1.3688c-0.27499 0-0.5011-0.22-0.5011-0.48888s0.2261-0.48888 0.5011-0.48888 0.50109 0.22 0.50109 0.48888-0.2261 0.48888-0.50109 0.48888m0-1.3688c-0.5011 0-0.90442 0.39721-0.90442 0.87997 0 0.48888 0.40333 0.87998 0.90442 0.87998 0.20777 0 0.39721-0.0672 0.54998-0.18333 0.09167 0.15277 0.35444 0.18333 0.35444 0.18333v-0.87998c0-0.48276-0.40333-0.87997-0.90442-0.87997m7.2293 1.3688c-0.275 0-0.5011-0.22-0.5011-0.48888s0.2261-0.48888 0.5011-0.48888c0.27499 0 0.50109 0.22 0.50109 0.48888s-0.2261 0.48888-0.50109 0.48888m0-1.3688c-0.5011 0-0.90442 0.39721-0.90442 0.87997 0 0.48888 0.40332 0.87998 0.90442 0.87998 0.20777 0 0.39721-0.0672 0.54998-0.18333 0.09167 0.15277 0.35443 0.18333 0.35443 0.18333v-0.87998c0-0.48276-0.40332-0.87997-0.90442-0.87997m-1.9188 1.3688c-0.275 0-0.5011-0.22-0.5011-0.48888s0.2261-0.48888 0.5011-0.48888c0.27499 0 0.50109 0.22 0.50109 0.48888 0.0064 0.26888-0.22 0.48888-0.50109 0.48888m0-1.3688c-0.18333 0-0.35443 0.055-0.5011 0.14666v-0.14055c-0.01835-0.36666-0.31777-0.48277-0.39721-0.52555h-0.0064v2.2855s0.26888-0.0306 0.37277-0.17722c0.15277 0.10389 0.3361 0.17111 0.53166 0.17111 0.5011 0 0.90442-0.39721 0.90442-0.87998 0.0064-0.48276-0.40332-0.87997-0.90442-0.87997" fill="#f5831f"/></g><path d="m75.26 390.65h-1.2273l3e-3 1.9958h-4.4302v-1.9964h-1.2192v-4.0555l6.8735-0.0149z"/><text transform="scale(1.0511 .95137)" x="74.7855" y="393.73029" fill="#ffffff" font-family="sans-serif" font-size=".57805px" font-weight="700" stroke-width=".73602"><tspan x="74.7855" y="393.73029" font-size="1.725px" stroke-width=".73602">2530-8</tspan></text><g fill="#fff"><g transform="matrix(1.0397 0 0 .96177 .1997 .43021)" aria-label="9T"><path d="m153.21 396.8v-0.23655q0.0789 0.0369 0.15084 0.0557 0.072 0.018 0.14227 0.018 0.14741 0 0.22968-0.0814 0.0823-0.0823 0.0968-0.2434-0.0583 0.0429-0.12427 0.0643-0.066 0.0214-0.14312 0.0214-0.19627 0-0.31711-0.11399-0.11998-0.11484-0.11998-0.30167 0-0.20655 0.1337-0.33082 0.13455-0.12427 0.35995-0.12427 0.25025 0 0.38738 0.16884 0.13712 0.16883 0.13712 0.47736 0 0.31711-0.16026 0.4988-0.16027 0.18083-0.43966 0.18083-0.09 0-0.17226-0.0137-0.0823-0.0129-0.16113-0.0394zm0.4071-0.61621q0.0866 0 0.13026-0.0557 0.0437-0.0566 0.0437-0.16883 0-0.11142-0.0437-0.16798-0.0437-0.0566-0.13026-0.0566-0.0866 0-0.13027 0.0566-0.0437 0.0566-0.0437 0.16798 0 0.11227 0.0437 0.16883 0.0437 0.0557 0.13027 0.0557z"/><path d="m154.27 395.55h1.1793v0.24939h-0.42423v1.0302h-0.32995v-1.0302h-0.42509z"/></g><g transform="matrix(1.0397 0 0 .96177 .1997 .43021)" aria-label="10T"><path d="m161.25 396.6h0.2914v-0.82704l-0.29911 0.0617v-0.22455l0.29739-0.0617h0.31368v1.0516h0.29139v0.22797h-0.89475z"/><path d="m163.07 396.19q0-0.23997-0.0454-0.33767-0.0446-0.0986-0.15084-0.0986-0.10627 0-0.15169 0.0986-0.0454 0.0977-0.0454 0.33767 0 0.24254 0.0454 0.34195 0.0454 0.0994 0.15169 0.0994 0.10542 0 0.15084-0.0994 0.0454-0.0994 0.0454-0.34195zm0.32995 3e-3q0 0.31796-0.13712 0.49108-0.13713 0.17226-0.3891 0.17226-0.25282 0-0.38994-0.17226-0.13713-0.17312-0.13713-0.49108 0-0.31882 0.13713-0.49108 0.13712-0.17312 0.38994-0.17312 0.25197 0 0.3891 0.17312 0.13712 0.17226 0.13712 0.49108z"/><path d="m163.49 395.55h1.1793v0.24939h-0.42423v1.0302h-0.32996v-1.0302h-0.42508z"/></g><g transform="matrix(1.0397 0 0 .96177 .1997 .43021)" aria-label="9S"><path d="m173.8 399.19v-0.23654q0.0788 0.0369 0.15083 0.0557 0.072 0.018 0.14227 0.018 0.14741 0 0.22969-0.0814 0.0823-0.0823 0.0968-0.2434-0.0583 0.0428-0.12427 0.0643-0.066 0.0214-0.14312 0.0214-0.19626 0-0.31711-0.11399-0.11998-0.11484-0.11998-0.30168 0-0.20654 0.1337-0.33081 0.13455-0.12427 0.35995-0.12427 0.25025 0 0.38738 0.16884 0.13712 0.16883 0.13712 0.47736 0 0.3171-0.16026 0.4988-0.16027 0.18083-0.43966 0.18083-0.09 0-0.17226-0.0137-0.0823-0.0129-0.16112-0.0394zm0.40709-0.6162q0.0866 0 0.13026-0.0557 0.0437-0.0566 0.0437-0.16884 0-0.11141-0.0437-0.16797-0.0437-0.0566-0.13026-0.0566-0.0866 0-0.13027 0.0566-0.0437 0.0566-0.0437 0.16797 0 0.11228 0.0437 0.16884 0.0437 0.0557 0.13027 0.0557z"/><path d="m175.9 397.98v0.27082q-0.10542-0.0471-0.20569-0.0711t-0.18941-0.024q-0.11827 0-0.17483 0.0326-0.0566 0.0326-0.0566 0.10113 0 0.0514 0.0377 0.0806 0.0386 0.0283 0.13883 0.0488l0.14056 0.0283q0.2134 0.0429 0.30339 0.13027 0.09 0.0874 0.09 0.24854 0 0.21168-0.12599 0.31539-0.12512 0.10284-0.38309 0.10284-0.1217 0-0.24426-0.0231-0.12255-0.0231-0.24511-0.0686v-0.27854q0.12256 0.0651 0.23654 0.0986 0.11485 0.0326 0.22112 0.0326 0.10798 0 0.16541-0.036 0.0574-0.036 0.0574-0.10284 0-0.06-0.0394-0.0926-0.0386-0.0326-0.15512-0.0583l-0.1277-0.0283q-0.19197-0.0411-0.2811-0.13113-0.0883-0.09-0.0883-0.24254 0-0.19112 0.12341-0.29396 0.12342-0.10284 0.35482-0.10284 0.10541 0 0.21682 0.0163 0.11142 0.0154 0.23055 0.0471z"/></g><g transform="matrix(1.0397 0 0 .96177 .1997 .43021)" aria-label="10S"><path d="m184 398.99h0.2914v-0.82703l-0.29911 0.0617v-0.22454l0.29739-0.0617h0.31368v1.0516h0.29139v0.22798h-0.89475z"/><path d="m185.83 398.58q0-0.23997-0.0454-0.33768-0.0446-0.0985-0.15083-0.0985-0.10628 0-0.1517 0.0985-0.0454 0.0977-0.0454 0.33768 0 0.24254 0.0454 0.34195 0.0454 0.0994 0.1517 0.0994 0.10541 0 0.15083-0.0994 0.0454-0.0994 0.0454-0.34195zm0.32995 3e-3q0 0.31796-0.13712 0.49108-0.13713 0.17226-0.38909 0.17226-0.25283 0-0.38995-0.17226-0.13713-0.17312-0.13713-0.49108 0-0.31882 0.13713-0.49108 0.13712-0.17312 0.38995-0.17312 0.25196 0 0.38909 0.17312 0.13712 0.17226 0.13712 0.49108z"/><path d="m187.29 397.98v0.27082q-0.10541-0.0471-0.20568-0.0711-0.10028-0.024-0.18941-0.024-0.11827 0-0.17483 0.0326-0.0566 0.0326-0.0566 0.10113 0 0.0514 0.0377 0.0806 0.0386 0.0283 0.13884 0.0488l0.14055 0.0283q0.21341 0.0429 0.30339 0.13027 0.09 0.0874 0.09 0.24854 0 0.21168-0.12598 0.31539-0.12513 0.10284-0.38309 0.10284-0.1217 0-0.24426-0.0231-0.12255-0.0231-0.24511-0.0686v-0.27854q0.12256 0.0651 0.23654 0.0986 0.11484 0.0326 0.22112 0.0326 0.10798 0 0.1654-0.036 0.0574-0.036 0.0574-0.10284 0-0.06-0.0394-0.0926-0.0386-0.0326-0.15512-0.0583l-0.1277-0.0283q-0.19198-0.0411-0.28111-0.13113-0.0883-0.09-0.0883-0.24254 0-0.19112 0.12341-0.29396t0.35481-0.10284q0.10542 0 0.21683 0.0163 0.11142 0.0154 0.23054 0.0471z"/></g></g><rect x="114.07" y="376.06" width="31.275" height="14.414" rx=".16873" ry=".074248"/><g transform="translate(-136.26 -5.8115)"><g transform="scale(1.0397 .96177)"><path d="m242.28 396.3h0.29139v-0.82704l-0.29911 0.0617v-0.22455l0.29739-0.0617h0.31368v1.0516h0.29139v0.22797h-0.89474v-0.22797z" fill="#fff"/></g></g><g transform="translate(-128.61 -5.8115)"><g transform="scale(1.0397 .96177)"><path d="m242.89 395.84q0.12941 0.0334 0.19626 0.11655 0.0677 0.0823 0.0677 0.20997 0 0.19027-0.14569 0.28968-0.1457 0.0986-0.42509 0.0986-0.0986 0-0.19798-0.0163-0.0985-0.0154-0.1954-0.0471v-0.25454q0.0926 0.0463 0.18341 0.0703 0.0917 0.0231 0.17997 0.0231 0.13113 0 0.20055-0.0454 0.0703-0.0454 0.0703-0.13026 0-0.0874-0.072-0.13199-0.0711-0.0454-0.21083-0.0454h-0.13198v-0.21254h0.13884q0.12427 0 0.18512-0.0386 0.0609-0.0394 0.0609-0.11913 0-0.0737-0.0591-0.11398-0.0591-0.0403-0.16712-0.0403-0.0797 0-0.16112 0.018-0.0814 0.018-0.16198 0.0531v-0.24168q0.0977-0.0274 0.19369-0.0411 0.096-0.0137 0.18855-0.0137 0.24939 0 0.37281 0.0823 0.12427 0.0814 0.12427 0.24597 0 0.11227-0.0591 0.18426-0.0591 0.0711-0.17483 0.10028z" fill="#fff"/></g></g><g transform="translate(-120.97 -5.8115)"><g transform="scale(1.0397 .96177)"><path d="m242.26 395.25h0.82018v0.24254h-0.55707v0.19797q0.0377-0.0103 0.0754-0.0154 0.0386-6e-3 0.0797-6e-3 0.23397 0 0.36423 0.11741 0.13027 0.11656 0.13027 0.32567 0 0.2074-0.14226 0.32482-0.14141 0.11741-0.39338 0.11741-0.10884 0-0.21597-0.0214-0.10628-0.0206-0.21169-0.0634v-0.25968q0.10456 0.06 0.19797 0.09 0.0943 0.03 0.17741 0.03 0.11998 0 0.18855-0.0583 0.0694-0.0591 0.0694-0.15941 0-0.10113-0.0694-0.15941-0.0686-0.0583-0.18855-0.0583-0.0711 0-0.1517 0.0188-0.0806 0.018-0.17312 0.0566v-0.7199z" fill="#fff"/></g></g><g transform="translate(-113.33 -5.8115)"><g transform="scale(1.0397 .96177)"><path d="m242.19 395.25h0.96416v0.18597l-0.49879 1.0936h-0.32139l0.47223-1.037h-0.61621z" fill="#fff"/></g></g><g transform="translate(-132.17 11.602)"><g transform="scale(1.0397 .96177)"><path d="m242.58 396.29h0.56307v0.24254h-0.92988v-0.24254l0.46708-0.41224q0.0626-0.0566 0.0926-0.11055 0.03-0.054 0.03-0.11227 0-0.09-0.0608-0.14484-0.06-0.0548-0.16027-0.0548-0.0771 0-0.16883 0.0334-0.0917 0.0326-0.19626 0.0977v-0.2811q0.11141-0.0369 0.22025-0.0557 0.10885-0.0197 0.2134-0.0197 0.22969 0 0.35653 0.10113 0.1277 0.10113 0.1277 0.28196 0 0.10456-0.054 0.1954-0.054 0.09-0.22711 0.24169l-0.27339 0.23997z" fill="#fff"/></g></g><g transform="translate(-124.54 11.602)"><g transform="scale(1.0397 .96177)"><path d="m242.72 395.52-0.36167 0.53564h0.36167zm-0.0549-0.27168h0.36681v0.80732h0.18255v0.23911h-0.18255v0.23312h-0.31196v-0.23312h-0.56735v-0.28282z" fill="#fff"/></g></g><g transform="translate(-116.91 11.602)"><g transform="scale(1.0397 .96177)"><path d="m242.71 395.9q-0.0866 0-0.13027 0.0566-0.0428 0.0557-0.0428 0.16798 0 0.11227 0.0428 0.16883 0.0437 0.0557 0.13027 0.0557 0.0874 0 0.13027-0.0557 0.0437-0.0566 0.0437-0.16883 0-0.11228-0.0437-0.16798-0.0428-0.0566-0.13027-0.0566zm0.40795-0.61449v0.23654q-0.0814-0.0386-0.15341-0.0566-0.072-0.0189-0.14056-0.0189-0.14741 0-0.22968 0.0823-0.0823 0.0814-0.096 0.24254 0.0566-0.042 0.12256-0.0626 0.066-0.0214 0.14398-0.0214 0.19626 0 0.31624 0.11484 0.12085 0.11484 0.12085 0.30082 0 0.20569-0.13456 0.32996-0.13455 0.12341-0.36081 0.12341-0.2494 0-0.38652-0.16798-0.13627-0.16883-0.13627-0.47822 0-0.3171 0.15941-0.49794 0.16026-0.18169 0.4388-0.18169 0.0883 0 0.17141 0.0137 0.0831 0.0137 0.16455 0.0411z" fill="#fff"/></g></g><g transform="translate(-109.27 11.602)"><g transform="scale(1.0397 .96177)"><path d="m242.69 395.96q-0.0926 0-0.14227 0.0506-0.0497 0.0506-0.0497 0.14484 0 0.0943 0.0497 0.14484 0.0497 0.0497 0.14227 0.0497 0.0917 0 0.14056-0.0497 0.0488-0.0506 0.0488-0.14484 0-0.0951-0.0488-0.14484-0.0489-0.0506-0.14056-0.0506zm-0.24082-0.10884q-0.11656-0.0351-0.1757-0.10799-0.0591-0.0729-0.0591-0.18169 0-0.16198 0.12084-0.24683 0.12084-0.0848 0.35481-0.0848 0.23226 0 0.3531 0.0848 0.12084 0.084 0.12084 0.24683 0 0.10884-0.06 0.18169-0.0591 0.0729-0.17569 0.10799 0.13027 0.036 0.19626 0.11741 0.0668 0.0806 0.0668 0.20397 0 0.19026-0.12684 0.28797-0.12599 0.0968-0.37453 0.0968-0.24939 0-0.37709-0.0968-0.12684-0.0977-0.12684-0.28797 0-0.12341 0.066-0.20397 0.0669-0.0814 0.19712-0.11741zm0.0771-0.25626q0 0.0763 0.042 0.11742 0.0429 0.0411 0.1217 0.0411 0.0771 0 0.11913-0.0411 0.042-0.0411 0.042-0.11742 0-0.0763-0.042-0.11655-0.042-0.0411-0.11913-0.0411-0.0788 0-0.1217 0.0411-0.042 0.0411-0.042 0.11655z" fill="#fff"/></g></g><path d="m114.18 390.31h31.045l-0.023-14.075-31.022-2.4e-4z" fill="#3a3a3a"/><g transform="matrix(1.0006 0 0 .99268 23.892 40.09)"><path d="m113.63 340.44h1.7574l-3e-3 -1.0731 0.63956-5.7e-4v-0.40181h2.0614l-4.8e-4 0.40286h0.6657v1.0732h1.7493v4.6204l-6.8696 0.015z"/><path d="m118.91 340.16h1.7357v-0.75438h-1.7357z" fill="#abb927"/><path d="m113.48 340.16h1.751v-0.75831h-1.751z" fill="#abb927"/><path d="m120.51 350.97h-1.7574l3e-3 1.0731-0.63956 5.7e-4v0.40181h-2.0614l4.8e-4 -0.40286h-0.6657v-1.0732h-1.7493v-4.6204l6.8696-0.015z"/><path d="m115.23 351.26h-1.7357v0.75438h1.7357z" fill="#abb927"/><path d="m120.67 351.26h-1.751v0.75831h1.751z" fill="#abb927"/></g><g transform="matrix(1.0006 0 0 .99268 16.338 40.09)"><path d="m113.63 340.44h1.7574l-3e-3 -1.0731 0.63956-5.7e-4v-0.40181h2.0614l-4.8e-4 0.40286h0.6657v1.0732h1.7493v4.6204l-6.8696 0.015z"/><path d="m118.91 340.16h1.7357v-0.75438h-1.7357z" fill="#abb927"/><path d="m113.48 340.16h1.751v-0.75831h-1.751z" fill="#abb927"/><path d="m120.51 350.97h-1.7574l3e-3 1.0731-0.63956 5.7e-4v0.40181h-2.0614l4.8e-4 -0.40286h-0.6657v-1.0732h-1.7493v-4.6204l6.8696-0.015z"/><path d="m115.23 351.26h-1.7357v0.75438h1.7357z" fill="#abb927"/><path d="m120.67 351.26h-1.751v0.75831h1.751z" fill="#abb927"/></g><g transform="matrix(1.0006 0 0 .99268 8.7847 40.09)"><path d="m113.63 340.44h1.7574l-3e-3 -1.0731 0.63956-5.7e-4v-0.40181h2.0614l-4.8e-4 0.40286h0.6657v1.0732h1.7493v4.6204l-6.8696 0.015z"/><path d="m118.91 340.16h1.7357v-0.75438h-1.7357z" fill="#abb927"/><path d="m113.48 340.16h1.751v-0.75831h-1.751z" fill="#abb927"/><path d="m120.51 350.97h-1.7574l3e-3 1.0731-0.63956 5.7e-4v0.40181h-2.0614l4.8e-4 -0.40286h-0.6657v-1.0732h-1.7493v-4.6204l6.8696-0.015z"/><path d="m115.23 351.26h-1.7357v0.75438h1.7357z" fill="#abb927"/><path d="m120.67 351.26h-1.751v0.75831h1.751z" fill="#abb927"/></g><g transform="matrix(1.0006 0 0 .99268 1.3127 40.089)"><path d="m113.63 340.44h1.7574l-3e-3 -1.0731 0.63956-5.7e-4v-0.40181h2.0614l-4.8e-4 0.40286h0.6657v1.0732h1.7493v4.6204l-6.8696 0.015z"/><path d="m118.91 340.16h1.7357v-0.75438h-1.7357z" fill="#abb927"/><path d="m113.48 340.16h1.751v-0.75831h-1.751z" fill="#abb927"/><path d="m120.51 350.97h-1.7574l3e-3 1.0731-0.63956 5.7e-4v0.40181h-2.0614l4.8e-4 -0.40286h-0.6657v-1.0732h-1.7493v-4.6204l6.8696-0.015z"/><path d="m115.23 351.26h-1.7357v0.75438h1.7357z" fill="#abb927"/><path d="m120.67 351.26h-1.751v0.75831h1.751z" fill="#abb927"/></g><g transform="translate(.1997 .43021)"><g transform="translate(.6581 -19.12)"><rect x="155.43" y="401.97" width="8.6726" height="7.323" rx=".022994" ry=".033727"/><g transform="matrix(1.0029 0 0 .99453 91.221 226.26)"><path d="m64.141 183.87h8.4v-7.0242h-8.4z" fill="#3a3a3a"/><g transform="matrix(.0080517 0 0 .0080487 51.527 212.79)"><path d="m2609.9-3593.3v-872.71h-1043.3v872.71z" fill="none" stroke="#000" stroke-linecap="square" stroke-width=".67568"/></g><path d="m64.912 178.62h1.7532l-0.0026-1.0712 0.63806-5.7e-4v-0.40106h2.0566l-4.83e-4 0.40211h0.66414v1.0712h1.7452v4.6119l-6.8535 0.015z"/><path d="m70.173 178.34h1.7316v-0.75298h-1.7316z" fill="#abb927"/><path d="m64.756 178.34h1.7468v-0.7569h-1.7468z" fill="#abb927"/><path d="m72.539 183.87 2e-3 -7.0242-2.8056-9.6e-4v0.67597l2.2553-1e-3v0.87506l-0.22259 7e-3 -5.64e-4 4.8323c-2.3858 9.4e-4 -4.8121 0.0124-6.8546 0.0128v4e-5l-4.83e-4 -4.8452-0.22259-7e-3v-0.87506l2.242 1e-3v-0.67597l-2.7924 9.6e-4c4.08e-4 2.3412 0.0022 4.6824 0.0022 7.0237 2.7992 3.3e-4 5.5983 6.8e-4 8.3975 1e-3z" fill="#ebebeb"/></g></g></g><g transform="translate(1.0277 -11.502)"><rect x="174.75" y="398.19" width="1.6824" height="1.2864" rx=".086274" ry=".042097" fill="#e6e6e6" stroke="#000" stroke-width=".21244"/><rect x="174.8" y="400.36" width="1.6824" height="1.2864" rx=".086274" ry=".042097" fill="#e6e6e6" stroke="#000" stroke-width=".21244"/><g transform="translate(-102.93 6.3607)"><g transform="matrix(0 -1.3729 1.3727 0 43.123 1033.3)"><rect x="464.5" y="172.59" width="4" height="5.6"/></g><g transform="matrix(0 -1.3729 1.3727 0 43.123 1033.3)"><polygon points="464.7 176.79 464.7 177.99 468.3 177.99 468.3 172.79 464.7 172.79 464.7 174.19 464.9 174.19 464.9 176.79"/><polygon points="464.7 176.79 464.7 177.99 468.3 177.99 468.3 172.79 464.7 172.79 464.7 174.19 464.9 174.19 464.9 176.79" fill="none" stroke="#ccc" stroke-width=".1"/></g></g></g><g transform="translate(-.023122 -11.507)"><g transform="translate(.099239 12.109)" fill="#e6e6e6" stroke="#000" stroke-width=".21244"><rect x="186.81" y="386.08" width="1.6824" height="1.2864" rx=".086274" ry=".042097"/><rect x="186.86" y="388.25" width="1.6824" height="1.2864" rx=".086274" ry=".042097"/></g><g transform="translate(-90.617 6.3607)"><g transform="matrix(0 -1.3729 1.3727 0 43.123 1033.3)"><rect x="464.5" y="172.59" width="4" height="5.6"/></g><g transform="matrix(0 -1.3729 1.3727 0 43.123 1033.3)"><polygon points="464.9 174.19 464.9 176.79 464.7 176.79 464.7 177.99 468.3 177.99 468.3 172.79 464.7 172.79 464.7 174.19"/><polygon points="464.9 174.19 464.9 176.79 464.7 176.79 464.7 177.99 468.3 177.99 468.3 172.79 464.7 172.79 464.7 174.19" fill="none" stroke="#ccc" stroke-width=".1"/></g></g></g><g transform="matrix(1.0006 0 0 .99268 31.446 40.09)"><path transform="matrix(.53079 0 0 .53501 55.446 333.8)" d="m56.703 9.0898-5.2734 0.00195 0.0039 26.316 5.2969 2e-3v-1.2656l-4.2578 2e-3v-1.6387l0.41992-0.01367v-8.9844l12.945-0.0078 2e-3 8.9922 0.41992 0.01367v1.6387l-4.2344-2e-3v1.2656l4.3613-2e-3h0.0059l4.4082 2e-3v-1.2656l-4.2598 2e-3v-1.6387l0.41992-0.01367 2e-3 -8.9844 12.945-0.0078v8.9922l0.41992 0.01367v1.6387l-4.2344-2e-3v1.2656l4.5156-2e-3h0.0078l4.4062 2e-3v-1.2656l-4.2598 2e-3v-1.6387l0.41992-0.01367 2e-3 -8.9844 12.945-0.0078v8.9922l0.41992 0.01367v1.6387l-4.2324-2e-3v1.2656l4.5137-2e-3 4.4141 2e-3v-1.2656l-4.2598 2e-3v-1.6387l0.42188-0.01367v-8.9844l12.898-0.084v9.0684l0.42188 0.01367v1.6387l-4.2344-2e-3v1.2656l5.2734-2e-3 -4e-3 -26.316-5.2988-0.00195v1.2656l4.2598-2e-3v1.6387l-0.42187 0.01367v8.9844l-12.898 0.0821v-9.0664l-0.41992-0.01367v-1.6387l4.2344 2e-3v-1.2656l-4.3809 0.00195-4.5488-0.00195v1.2656l4.2598-2e-3v1.6387l-0.42188 0.01367v9.0391l-0.0098 0.0098-12.936 0.01758v-9.0664l-0.41992-0.01367v-1.6387l4.2324 2e-3v-1.2656l-4.3809 0.00195h-0.0078l-4.5391-0.00195v1.2656l4.2578-2e-3v1.6387l-0.41992 0.01367v9.0391l-0.0098 0.0098-12.936 0.01758v-9.0664l-0.42188-0.01367v-1.6387l4.2344 2e-3v-1.2656l-4.3809 0.00195h-0.0078l-4.3867-0.00195v1.2656l4.2598-2e-3v1.6387l-0.41992 0.01367-2e-3 9.0391-0.0078 0.0098-12.936 0.01758-2e-3 -9.0664-0.41992-0.01367v-1.6387l4.2344 2e-3v-1.2656z" fill="#ebebeb"/></g><g transform="translate(9.2112 .43021)"><g transform="translate(.6581 -19.12)"><rect x="155.43" y="401.97" width="8.6726" height="7.323" rx=".022994" ry=".033727"/><g transform="matrix(1.0029 0 0 .99453 91.221 226.26)"><path d="m64.141 183.87h8.4v-7.0242h-8.4z" fill="#3a3a3a"/><g transform="matrix(.0080517 0 0 .0080487 51.527 212.79)"><path d="m2609.9-3593.3v-872.71h-1043.3v872.71z" fill="none" stroke="#000" stroke-linecap="square" stroke-width=".67568"/></g><path d="m64.912 178.62h1.7532l-0.0026-1.0712 0.63806-5.7e-4v-0.40106h2.0566l-4.83e-4 0.40211h0.66414v1.0712h1.7452v4.6119l-6.8535 0.015z"/><path d="m70.173 178.34h1.7316v-0.75298h-1.7316z" fill="#abb927"/><path d="m64.756 178.34h1.7468v-0.7569h-1.7468z" fill="#abb927"/><path d="m72.539 183.87 2e-3 -7.0242-2.8056-9.6e-4v0.67597l2.2553-1e-3v0.87506l-0.22259 7e-3 -5.64e-4 4.8323c-2.3858 9.4e-4 -4.8121 0.0124-6.8546 0.0128v4e-5l-4.83e-4 -4.8452-0.22259-7e-3v-0.87506l2.242 1e-3v-0.67597l-2.7924 9.6e-4c4.08e-4 2.3412 0.0022 4.6824 0.0022 7.0237 2.7992 3.3e-4 5.5983 6.8e-4 8.3975 1e-3z" fill="#ebebeb"/></g></g></g><g transform="translate(.90147)"><g transform="translate(-94.336 -20.039)"><rect x="209.93" y="392.62" width="26.458" height="1.46" fill="#f9ff00"/><g transform="translate(13.426 20.696)" stroke-width="1px"><path d="m196.68 372.13v0.38627h0.17489q0.0971 0 0.1501-0.0503t0.053-0.14322q0-0.0923-0.053-0.14253-0.053-0.0503-0.1501-0.0503h-0.17489zm-0.13909-0.1143h0.31398q0.17282 0 0.26095 0.0785 0.0888 0.0778 0.0888 0.22859 0 0.15217-0.0888 0.22998-0.0881 0.0778-0.26095 0.0778h-0.17489v0.41313h-0.13909z"/><path d="m197.62 372.36q-0.1019 0-0.16112 0.0799-0.0592 0.0792-0.0592 0.21758 0 0.1384 0.0585 0.21827 0.0592 0.0792 0.16181 0.0792 0.10122 0 0.16043-0.0799 0.0592-0.0799 0.0592-0.21758 0-0.13702-0.0592-0.21689-0.0592-0.0806-0.16043-0.0806zm0-0.10741q0.16525 0 0.25958 0.10741 0.0943 0.10741 0.0943 0.29745 0 0.18935-0.0943 0.29745-0.0943 0.10741-0.25958 0.10741-0.16594 0-0.26027-0.10741-0.0936-0.1081-0.0936-0.29745 0-0.19004 0.0936-0.29745 0.0943-0.10741 0.26027-0.10741z"/><path d="m198.17 372.01h0.64998v0.11705h-0.5109v0.30434h0.48955v0.11705h-0.48955v0.3725h0.52329v0.11706h-0.66237z"/><path d="m199.49 372.01h0.13909v1.028h-0.13909z"/><path d="m200.52 372.58v0.46546h-0.1267v-0.46133q0-0.10948-0.0427-0.16387-0.0427-0.0544-0.12807-0.0544-0.10259 0-0.1618 0.0654-0.0592 0.0654-0.0592 0.17833v0.43585h-0.12738v-0.77117h0.12738v0.1198q0.0454-0.0695 0.10673-0.10397 0.062-0.0344 0.14253-0.0344 0.13288 0 0.20105 0.0826 0.0682 0.0819 0.0682 0.24168z"/><path d="m200.89 372.05v0.21896h0.26096v0.0985h-0.26096v0.41863q0 0.0943 0.0255 0.12119 0.0262 0.0268 0.10534 0.0268h0.13014v0.10604h-0.13014q-0.14666 0-0.20243-0.0544-0.0558-0.0551-0.0558-0.19968v-0.41863h-0.093v-0.0985h0.093v-0.21896h0.12738z"/><path d="m201.96 372.62v0.062h-0.58251q8e-3 0.13082 0.0785 0.19968 0.0709 0.0682 0.19693 0.0682 0.073 0 0.14115-0.0179 0.0688-0.0179 0.13633-0.0537v0.11981q-0.0682 0.0289-0.13978 0.0441-0.0716 0.0151-0.14528 0.0151-0.18453 0-0.29263-0.10741-0.10741-0.10741-0.10741-0.29056 0-0.18935 0.1019-0.30021 0.1026-0.11154 0.27611-0.11154 0.15561 0 0.24581 0.10052 0.0909 0.0998 0.0909 0.27198zm-0.1267-0.0372q-1e-3 -0.10397-0.0585-0.16594-0.0565-0.062-0.1501-0.062-0.10604 0-0.17007 0.0599-0.0634 0.0599-0.073 0.1687l0.45168-6.9e-4z"/><path d="m202.66 372.65q0-0.13771-0.0572-0.21345-0.0565-0.0757-0.15905-0.0757-0.10191 0-0.15906 0.0757-0.0565 0.0757-0.0565 0.21345 0 0.13702 0.0565 0.21276 0.0571 0.0757 0.15906 0.0757 0.10259 0 0.15905-0.0757 0.0572-0.0757 0.0572-0.21276zm0.12669 0.29883q0 0.19692-0.0874 0.29263-0.0874 0.0964-0.26785 0.0964-0.0668 0-0.126-0.0103-0.0592-0.01-0.11499-0.0303v-0.12325q0.0558 0.0303 0.11017 0.0448 0.0544 0.0145 0.11086 0.0145 0.12462 0 0.18659-0.0654 0.062-0.0647 0.062-0.19623v-0.0627q-0.0393 0.0682-0.10053 0.10191-0.0613 0.0337-0.14666 0.0337-0.14184 0-0.22859-0.10811-0.0868-0.1081-0.0868-0.28643 0-0.17902 0.0868-0.28712 0.0867-0.1081 0.22859-0.1081 0.0854 0 0.14666 0.0337 0.0613 0.0337 0.10053 0.1019v-0.11705h0.12669v0.67546z"/><path d="m203.48 372.39q-0.0213-0.0124-0.0468-0.0179-0.0248-6e-3 -0.0551-6e-3 -0.10742 0-0.16525 0.0702-0.0572 0.0695-0.0572 0.20037v0.40624h-0.12738v-0.77117h0.12738v0.1198q0.0399-0.0702 0.10397-0.10397 0.064-0.0344 0.15561-0.0344 0.0131 0 0.0289 2e-3 0.0158 1e-3 0.0351 5e-3l6.9e-4 0.13014z"/><path d="m204.23 372.62v0.062h-0.5825q8e-3 0.13082 0.0785 0.19968 0.0709 0.0682 0.19692 0.0682 0.073 0 0.14115-0.0179 0.0689-0.0179 0.13634-0.0537v0.11981q-0.0682 0.0289-0.13978 0.0441-0.0716 0.0151-0.14528 0.0151-0.18453 0-0.29263-0.10741-0.10741-0.10741-0.10741-0.29056 0-0.18935 0.1019-0.30021 0.10259-0.11154 0.27611-0.11154 0.15561 0 0.24581 0.10052 0.0909 0.0998 0.0909 0.27198zm-0.12669-0.0372q-1e-3 -0.10397-0.0585-0.16594-0.0565-0.062-0.15011-0.062-0.10603 0-0.17007 0.0599-0.0633 0.0599-0.073 0.1687l0.45168-6.9e-4z"/><path d="m204.94 372.39v-0.41726h0.12669v1.0714h-0.12669v-0.11568q-0.0399 0.0688-0.10122 0.10259-0.0606 0.033-0.14597 0.033-0.13977 0-0.22791-0.11154-0.0874-0.11154-0.0874-0.29332 0-0.18177 0.0874-0.29332 0.0881-0.11154 0.22791-0.11154 0.0854 0 0.14597 0.0337 0.0613 0.0331 0.10122 0.1019zm-0.43172 0.26922q0 0.13977 0.0572 0.21965 0.0578 0.0792 0.15836 0.0792 0.10053 0 0.15837-0.0792 0.0578-0.0799 0.0578-0.21965 0-0.13977-0.0578-0.21896-0.0578-0.0799-0.15837-0.0799-0.10052 0-0.15836 0.0799-0.0572 0.0792-0.0572 0.21896z"/><path d="m205.79 372.92h0.22722v-0.78425l-0.24718 0.0496v-0.12669l0.24581-0.0496h0.13908v0.91094h0.22722v0.11706h-0.59215z"/><path d="m206.94 372.1q-0.10741 0-0.1618 0.10603-0.0537 0.10535-0.0537 0.31742 0 0.21138 0.0537 0.31742 0.0544 0.10535 0.1618 0.10535 0.1081 0 0.16181-0.10535 0.0544-0.10604 0.0544-0.31742 0-0.21207-0.0544-0.31742-0.0537-0.10603-0.16181-0.10603zm0-0.11017q0.17283 0 0.26371 0.13702 0.0916 0.13633 0.0916 0.3966 0 0.25958-0.0916 0.3966-0.0909 0.13633-0.26371 0.13633-0.17282 0-0.2644-0.13633-0.0909-0.13702-0.0909-0.3966 0-0.26027 0.0909-0.3966 0.0916-0.13702 0.2644-0.13702z"/><path d="m207.74 372.01h0.11705l-0.35804 1.1588h-0.11705z"/><path d="m208.02 372.92h0.22722v-0.78425l-0.24719 0.0496v-0.12669l0.24581-0.0496h0.13909v0.91094h0.22721v0.11706h-0.59214z"/><path d="m209.17 372.1q-0.10742 0-0.16181 0.10603-0.0537 0.10535-0.0537 0.31742 0 0.21138 0.0537 0.31742 0.0544 0.10535 0.16181 0.10535 0.1081 0 0.1618-0.10535 0.0544-0.10604 0.0544-0.31742 0-0.21207-0.0544-0.31742-0.0537-0.10603-0.1618-0.10603zm0-0.11017q0.17282 0 0.26371 0.13702 0.0916 0.13633 0.0916 0.3966 0 0.25958-0.0916 0.3966-0.0909 0.13633-0.26371 0.13633-0.17283 0-0.2644-0.13633-0.0909-0.13702-0.0909-0.3966 0-0.26027 0.0909-0.3966 0.0916-0.13702 0.2644-0.13702z"/><path d="m210.06 372.1q-0.10741 0-0.1618 0.10603-0.0537 0.10535-0.0537 0.31742 0 0.21138 0.0537 0.31742 0.0544 0.10535 0.1618 0.10535 0.10811 0 0.16181-0.10535 0.0544-0.10604 0.0544-0.31742 0-0.21207-0.0544-0.31742-0.0537-0.10603-0.16181-0.10603zm0-0.11017q0.17283 0 0.26372 0.13702 0.0916 0.13633 0.0916 0.3966 0 0.25958-0.0916 0.3966-0.0909 0.13633-0.26372 0.13633t-0.2644-0.13633q-0.0909-0.13702-0.0909-0.3966 0-0.26027 0.0909-0.3966 0.0916-0.13702 0.2644-0.13702z"/><path d="m215.2 372.13v0.38627h0.17489q0.0971 0 0.1501-0.0503t0.053-0.14322q0-0.0923-0.053-0.14253-0.053-0.0503-0.1501-0.0503h-0.17489zm-0.13908-0.1143h0.31397q0.17283 0 0.26096 0.0785 0.0888 0.0778 0.0888 0.22859 0 0.15217-0.0888 0.22998-0.0881 0.0778-0.26096 0.0778h-0.17489v0.41313h-0.13908z"/><path d="m216.14 372.36q-0.10191 0-0.16112 0.0799-0.0592 0.0792-0.0592 0.21758 0 0.1384 0.0585 0.21827 0.0592 0.0792 0.16181 0.0792 0.10121 0 0.16043-0.0799 0.0592-0.0799 0.0592-0.21758 0-0.13702-0.0592-0.21689-0.0592-0.0806-0.16043-0.0806zm0-0.10741q0.16525 0 0.25958 0.10741 0.0943 0.10741 0.0943 0.29745 0 0.18935-0.0943 0.29745-0.0943 0.10741-0.25958 0.10741-0.16594 0-0.26027-0.10741-0.0936-0.1081-0.0936-0.29745 0-0.19004 0.0936-0.29745 0.0943-0.10741 0.26027-0.10741z"/><path d="m217.14 372.39q-0.0213-0.0124-0.0468-0.0179-0.0248-6e-3 -0.0551-6e-3 -0.10741 0-0.16525 0.0702-0.0572 0.0695-0.0572 0.20037v0.40624h-0.12738v-0.77117h0.12738v0.1198q0.0399-0.0702 0.10397-0.10397 0.064-0.0344 0.15561-0.0344 0.0131 0 0.0289 2e-3 0.0158 1e-3 0.0351 5e-3l6.9e-4 0.13014z"/><path d="m217.39 372.05v0.21896h0.26095v0.0985h-0.26095v0.41863q0 0.0943 0.0255 0.12119 0.0262 0.0268 0.10535 0.0268h0.13013v0.10604h-0.13013q-0.14666 0-0.20243-0.0544-0.0558-0.0551-0.0558-0.19968v-0.41863h-0.093v-0.0985h0.093v-0.21896h0.12738z"/><path d="m218.29 372.29v0.11981q-0.0537-0.0275-0.11155-0.0413-0.0578-0.0138-0.1198-0.0138-0.0943 0-0.14184 0.0289-0.0468 0.0289-0.0468 0.0868 0 0.0441 0.0337 0.0695 0.0337 0.0248 0.13565 0.0475l0.0434 0.01q0.13496 0.0289 0.19142 0.0819 0.0572 0.0523 0.0572 0.14666 0 0.10741-0.0854 0.17007-0.0847 0.0626-0.23342 0.0626-0.062 0-0.12944-0.0124-0.0668-0.0117-0.14115-0.0358v-0.13083q0.0702 0.0365 0.13839 0.0551 0.0682 0.0179 0.13496 0.0179 0.0895 0 0.13771-0.0303 0.0482-0.031 0.0482-0.0867 0-0.0516-0.0351-0.0792-0.0344-0.0275-0.15217-0.053l-0.0441-0.0103q-0.11774-0.0248-0.17007-0.0757-0.0523-0.0516-0.0523-0.14115 0-0.10879 0.0771-0.16801 0.0771-0.0592 0.21896-0.0592 0.0702 0 0.1322 0.0103t0.1143 0.031z"/><path d="m219.26 371.97q-0.0923 0.15837-0.13702 0.31329-0.0448 0.15492-0.0448 0.31397 0 0.15906 0.0448 0.31536 0.0454 0.15561 0.13702 0.31328h-0.11016q-0.10329-0.16181-0.15493-0.3181-0.051-0.1563-0.051-0.31054 0-0.15354 0.051-0.30915t0.15493-0.31811z"/><path d="m219.53 372.92h0.22722v-0.78425l-0.24719 0.0496v-0.12669l0.24581-0.0496h0.13909v0.91094h0.22722v0.11706h-0.59215z"/><path d="m220.31 372.6h0.37113v0.11292h-0.37113z"/><path d="m221.66 371.97h0.11016q0.10328 0.1625 0.15424 0.31811 0.0516 0.15561 0.0516 0.30915 0 0.15424-0.0516 0.31054-0.051 0.15629-0.15424 0.3181h-0.11016q0.0916-0.15767 0.13633-0.31328 0.0454-0.1563 0.0454-0.31536 0-0.15905-0.0454-0.31397-0.0448-0.15492-0.13633-0.31329z"/></g></g><g aria-label="8"><path d="m140.26 373.2q-0.0976 0-0.15384 0.0522-0.0556 0.0522-0.0556 0.14368 0 0.0915 0.0556 0.14367 0.0563 0.0522 0.15384 0.0522 0.0976 0 0.15384-0.0522 0.0563-0.0529 0.0563-0.14367 0-0.0915-0.0563-0.14368-0.0556-0.0522-0.15384-0.0522zm-0.1369-0.0583q-0.0881-0.0217-0.13757-0.082-0.0488-0.0603-0.0488-0.14706 0-0.12131 0.0861-0.19179 0.0867-0.0705 0.2372-0.0705 0.15113 0 0.23719 0.0705 0.0861 0.0705 0.0861 0.19179 0 0.0867-0.0495 0.14706-0.0488 0.0603-0.13622 0.082 0.099 0.023 0.15384 0.0901 0.0556 0.0671 0.0556 0.16401 0 0.14706-0.0901 0.22567-0.0895 0.0786-0.25685 0.0786-0.16739 0-0.25753-0.0786-0.0894-0.0786-0.0894-0.22567 0-0.0969 0.0556-0.16401 0.0556-0.0671 0.15451-0.0901zm-0.0502-0.21619q0 0.0786 0.0488 0.12267 0.0495 0.0441 0.13825 0.0441 0.0881 0 0.13757-0.0441 0.0502-0.0441 0.0502-0.12267 0-0.0786-0.0502-0.12266-0.0495-0.044-0.13757-0.044-0.0888 0-0.13825 0.044-0.0488 0.0441-0.0488 0.12266z" stroke-width=".0077107px"/></g></g></svg>
