<svg width="472.53" height="47.467" version="1.1" viewBox="70.4 401.066666667 250.958144 15.4055701333" xmlns="http://www.w3.org/2000/svg">
 <g transform="scale(1.0667)">
  <g transform="matrix(1.1399 0 0 1.0551 -9.6758 -25.71)">
   <rect x="66.589" y="376.59" width="206" height="22" fill="#4d4d4d"/>
   <rect x="66.589" y="376.59" width="206" height="22" fill="none" stroke="#000" stroke-width=".4"/>
  </g>
  <g transform="matrix(1.1399 0 0 1.0551 -9.6758 -25.71)">
   <rect x="76.589" y="376.99" width="195.6" height="21.2" rx=".6" ry=".6" fill="#e7e7e7"/>
   <rect x="76.589" y="376.99" width="195.6" height="21.2" rx=".6" ry=".6" fill="none" stroke="#e7e7e7" stroke-linejoin="round" stroke-width=".2"/>
  </g>
  <g transform="matrix(.80566 0 0 1.06 14.267 -28.645)">
   <rect x="78.661" y="378.59" width="21" height="7" rx=".4" ry=".4" fill="#1e90ff"/>
   <rect x="78.661" y="378.59" width="21" height="7" rx=".4" ry=".4" fill="none" stroke="#1e90ff" stroke-linejoin="round" stroke-width=".2"/>
  </g>
  <g transform="scale(1.0394 .96208)" fill="#fff">
   <path d="m76.114 389.36h0.79431v0.34215h-1.3118v-0.34215l0.6589-0.58152q0.08826-0.0798 0.13057-0.15596 0.04232-0.0762 0.04232-0.15838 0-0.12694-0.08584-0.20432-0.08463-0.0774-0.22608-0.0774-0.10881 0-0.23817 0.0472-0.12936 0.0459-0.27686 0.13782v-0.39655q0.15717-0.052 0.31071-0.0786 0.15354-0.0278 0.30104-0.0278 0.32401 0 0.50294 0.14266 0.18014 0.14266 0.18014 0.39776 0 0.1475-0.07617 0.27565-0.07617 0.12694-0.32038 0.34094l-0.38567 0.33851z" style=""/>
   <path d="m77.384 387.89h1.157v0.34215h-0.78584v0.27927q0.0532-0.0145 0.10639-0.0218 0.05441-8e-3 0.11244-8e-3 0.33006 0 0.51382 0.16563 0.18377 0.16442 0.18377 0.45942 0 0.29258-0.20069 0.45821-0.19948 0.16563-0.55493 0.16563-0.15354 0-0.30467-0.0302-0.14992-0.029-0.29862-0.0895v-0.36633q0.1475 0.0846 0.27928 0.12695 0.13299 0.0423 0.25026 0.0423 0.16926 0 0.26598-0.0822 0.09793-0.0834 0.09793-0.22487 0-0.14266-0.09793-0.22487-0.09672-0.0822-0.26598-0.0822-0.10035 0-0.21399 0.0266-0.11364 0.0254-0.24422 0.0798v-1.0156z" style=""/>
   <path d="m79.997 388.73q0.18256 0.0471 0.27686 0.16442 0.09551 0.11607 0.09551 0.29621 0 0.26839-0.20553 0.40863-0.20553 0.13904-0.59966 0.13904-0.13903 0-0.27928-0.023-0.13904-0.0218-0.27565-0.0665v-0.35907q0.13057 0.0653 0.25872 0.0991 0.12936 0.0326 0.25389 0.0326 0.18498 0 0.2829-0.0641 0.09914-0.0641 0.09914-0.18377 0-0.12332-0.10156-0.18619-0.10035-0.0641-0.29741-0.0641h-0.18618v-0.29983h0.19586q0.1753 0 0.26114-0.0544 0.08584-0.0556 0.08584-0.16805 0-0.10397-0.08342-0.16079-0.08342-0.0568-0.23575-0.0568-0.11244 0-0.22729 0.0254-0.11485 0.0254-0.2285 0.075v-0.34093q0.13782-0.0387 0.27323-0.058t0.26598-0.0193q0.35182 0 0.52591 0.11606 0.1753 0.11486 0.1753 0.34698 0 0.15838-0.08342 0.25994-0.08342 0.10034-0.24664 0.14145z" style=""/>
   <path d="m81.704 388.79q0-0.33852-0.06408-0.47634-0.06287-0.13904-0.21278-0.13904-0.14992 0-0.21399 0.13904-0.06408 0.13782-0.06408 0.47634 0 0.34215 0.06408 0.48239t0.21399 0.14024q0.14871 0 0.21278-0.14024 0.06408-0.14024 0.06408-0.48239zm0.46546 4e-3q0 0.44854-0.19344 0.69275-0.19344 0.24301-0.54888 0.24301-0.35665 0-0.55009-0.24301-0.19344-0.24421-0.19344-0.69275 0-0.44975 0.19344-0.69275 0.19344-0.24422 0.55009-0.24422 0.35544 0 0.54888 0.24422 0.19344 0.243 0.19344 0.69275z" style=""/>
   <path d="m82.421 388.81h0.75925v0.35182h-0.75925v-0.35182z" style=""/>
   <path d="m84.03 389.36h0.79431v0.34215h-1.3118v-0.34215l0.6589-0.58152q0.08826-0.0798 0.13057-0.15596 0.04232-0.0762 0.04232-0.15838 0-0.12694-0.08584-0.20432-0.08463-0.0774-0.22608-0.0774-0.10881 0-0.23817 0.0472-0.12936 0.0459-0.27686 0.13782v-0.39655q0.15717-0.052 0.31071-0.0786 0.15354-0.0278 0.30104-0.0278 0.32401 0 0.50294 0.14266 0.18014 0.14266 0.18014 0.39776 0 0.1475-0.07617 0.27565-0.07617 0.12694-0.32038 0.34094l-0.38567 0.33851z" style=""/>
   <path d="m85.95 388.28-0.5102 0.75562h0.5102v-0.75562zm-0.07738-0.38325h0.51745v1.1389h0.25752v0.33731h-0.25752v0.32885h-0.44007v-0.32885h-0.80035v-0.39897l0.72298-1.0772z" style=""/>
   <path d="m89.47 389.56q-0.1741 0.0846-0.36149 0.12694-0.18739 0.0423-0.38688 0.0423-0.45095 0-0.71452-0.25147-0.26356-0.25268-0.26356-0.68429 0-0.43645 0.2684-0.68671 0.2684-0.25026 0.73507-0.25026 0.18014 0 0.34456 0.0339 0.16563 0.0338 0.31192 0.10035v0.37358q-0.15112-0.0858-0.30104-0.12816-0.14871-0.0423-0.29862-0.0423-0.27807 0-0.42919 0.15596-0.14992 0.15475-0.14992 0.4437 0 0.28653 0.14508 0.44249t0.41227 0.15596q0.07254 0 0.1342-8e-3 0.06287-0.01 0.11244-0.029v-0.35061h-0.28411v-0.31192h0.7254v0.86806z" style=""/>
  </g>
  <g transform="matrix(1.0006 0 0 .99268 88.346 14.93)">
   <g transform="translate(-15.07 24.778)">
    <path d="m112.86 345.71 7.9403 1e-5v-7.0375l-7.9403 2.2e-4z" fill="#3a3a3a"/>
    <g transform="matrix(.0080706 0 0 .0080636 100.22 374.68)">
     <path d="m2550.5-3593.2v-872.75l-983.84 0.025v872.71z" fill="none" stroke="#000" stroke-linecap="square" stroke-width=".67568"/>
    </g>
    <path d="m113.63 340.44h1.7574l-3e-3 -1.0731 0.63956-5.7e-4v-0.40181h2.0614l-4.8e-4 0.40286h0.6657v1.0732h1.7493v4.6204l-6.8696 0.015z" fill="#1a1a1a"/>
    <g fill="#ffac00">
     <path d="m115.21 345.08h0.21938v-1.3498h-0.21938v1.3498z"/>
     <path d="m115.7 345.08h0.21938v-1.3498h-0.21938v1.3498z"/>
     <path d="m116.21 345.08h0.21931v-1.3498h-0.21931v1.3498z"/>
     <path d="m116.72 345.08h0.21938v-1.3498h-0.21938v1.3498z"/>
     <path d="m117.21 345.08h0.21938v-1.3498h-0.21938v1.3498z"/>
     <path d="m117.71 345.08h0.21932v-1.3498h-0.21932v1.3498z"/>
     <path d="m118.24 345.08h0.21986v-1.3498h-0.21986v1.3498z"/>
     <path d="m118.73 345.08h0.21931v-1.3498h-0.21931v1.3498z"/>
    </g>
    <g>
     <path d="m118.91 340.16h1.7357v-0.75438h-1.7357v0.75438z" fill="#abb927"/>
     <path d="m113.48 340.16h1.751v-0.75831h-1.751v0.75831z" fill="#abb927"/>
     <path d="m120.8 345.71-7.9401-2e-5v7.0373l7.9401 2.4e-4z" fill="#3a3a3a"/>
    </g>
    <g transform="matrix(-.0080706 0 0 -.0080636 133.93 316.74)">
     <path d="m2609.9-3593.3v-872.71l-983.83-0.028v872.75z" fill="none" stroke="#000" stroke-linecap="square" stroke-width=".67568"/>
    </g>
    <path d="m120.51 350.97h-1.7574l3e-3 1.0731-0.63956 5.7e-4v0.40181h-2.0614l4.8e-4 -0.40286h-0.6657v-1.0732h-1.7493v-4.6204l6.8696-0.015z" fill="#1a1a1a"/>
    <g fill="#ffac00">
     <path d="m118.93 346.34h-0.21938v1.3498h0.21938v-1.3498z"/>
     <path d="m118.44 346.34h-0.21938v1.3498h0.21938v-1.3498z"/>
     <path d="m117.94 346.34h-0.21931v1.3498h0.21931v-1.3498z"/>
     <path d="m117.42 346.34h-0.21938v1.3498h0.21938v-1.3498z"/>
     <path d="m116.93 346.34h-0.21938v1.3498h0.21938v-1.3498z"/>
     <path d="m116.43 346.34h-0.21932v1.3498h0.21932v-1.3498z"/>
     <path d="m115.91 346.34h-0.21986v1.3498h0.21986v-1.3498z"/>
     <path d="m115.42 346.34h-0.21931v1.3498h0.21931v-1.3498z"/>
    </g>
    <g>
     <path d="m115.23 351.26h-1.7357v0.75438h1.7357v-0.75438z" fill="#abb927"/>
     <path d="m120.67 351.26h-1.751v0.75831h1.751v-0.75831z" fill="#abb927"/>
     <path transform="matrix(.53109 0 0 .53109 66 374.35)" d="m103.18-67.181-4.3903-0.0018v1.2752l4.2565-0.0019v1.6507l-0.4201 0.01318-1e-3 9.1065-9e-3 0.0099-12.928 0.01807-9.03e-4 -9.1344-0.42012-0.01318v-1.6507l4.2317 0.0019v-1.2752l-5.2703 0.0018 0.0034 26.511 5.2951 0.0018v-1.2752l-4.2565 0.0019v-1.6507l0.4201-0.01318 0.0011-9.0518 12.937-0.0075 9.1e-4 9.0588 0.42011 0.01318v1.6507l-4.2317-0.0019v1.2752l4.3658-0.0018z" fill="#ebebeb"/>
    </g>
   </g>
   <g transform="translate(-7.5957 24.778)">
    <path d="m113.33 345.71h7.5536v-7.0373l-7.5536-2.3e-4z" fill="#3a3a3a"/>
    <g transform="matrix(.0080706 0 0 .0080636 100.22 374.68)">
     <path d="m2560.5-3593.3v-872.71l-935.94-0.027v872.74z" fill="none" stroke="#000" stroke-linecap="square" stroke-width=".67568"/>
    </g>
    <path d="m113.63 340.44h1.7574l-3e-3 -1.0731 0.63956-5.7e-4v-0.40181h2.0614l-4.8e-4 0.40286h0.6657v1.0732h1.7493v4.6204l-6.8696 0.015z" fill="#1a1a1a"/>
    <g fill="#ffac00">
     <path d="m115.21 345.08h0.21938v-1.3498h-0.21938v1.3498z"/>
     <path d="m115.7 345.08h0.21938v-1.3498h-0.21938v1.3498z"/>
     <path d="m116.21 345.08h0.21931v-1.3498h-0.21931v1.3498z"/>
     <path d="m116.72 345.08h0.21938v-1.3498h-0.21938v1.3498z"/>
     <path d="m117.21 345.08h0.21938v-1.3498h-0.21938v1.3498z"/>
     <path d="m117.71 345.08h0.21932v-1.3498h-0.21932v1.3498z"/>
     <path d="m118.24 345.08h0.21986v-1.3498h-0.21986v1.3498z"/>
     <path d="m118.73 345.08h0.21931v-1.3498h-0.21931v1.3498z"/>
    </g>
    <g>
     <path d="m118.91 340.16h1.7357v-0.75438h-1.7357v0.75438z" fill="#abb927"/>
     <path d="m113.48 340.16h1.751v-0.75831h-1.751v0.75831z" fill="#abb927"/>
     <path d="m120.88 345.71h-7.5536v7.0373h7.5536z" fill="#3a3a3a"/>
    </g>
    <g transform="matrix(-.0080706 0 0 -.0080636 133.93 316.74)">
     <path d="m2551.9-3593.3v-872.72h-935.94v872.71z" fill="none" stroke="#000" stroke-linecap="square" stroke-width=".67568"/>
    </g>
    <path d="m120.51 350.97h-1.7574l3e-3 1.0731-0.63956 5.7e-4v0.40181h-2.0614l4.8e-4 -0.40286h-0.6657v-1.0732h-1.7493v-4.6204l6.8696-0.015z" fill="#1a1a1a"/>
    <g fill="#ffac00">
     <path d="m118.93 346.34h-0.21938v1.3498h0.21938v-1.3498z"/>
     <path d="m118.44 346.34h-0.21938v1.3498h0.21938v-1.3498z"/>
     <path d="m117.94 346.34h-0.21931v1.3498h0.21931v-1.3498z"/>
     <path d="m117.42 346.34h-0.21938v1.3498h0.21938v-1.3498z"/>
     <path d="m116.93 346.34h-0.21938v1.3498h0.21938v-1.3498z"/>
     <path d="m116.43 346.34h-0.21932v1.3498h0.21932v-1.3498z"/>
     <path d="m115.91 346.34h-0.21986v1.3498h0.21986v-1.3498z"/>
     <path d="m115.42 346.34h-0.21931v1.3498h0.21931v-1.3498z"/>
    </g>
    <g>
     <path d="m115.23 351.26h-1.7357v0.75438h1.7357v-0.75438z" fill="#abb927"/>
     <path d="m120.67 351.26h-1.751v0.75831h1.751v-0.75831z" fill="#abb927"/>
     <path transform="matrix(.53109 0 0 .53109 66 374.35)" d="m103.34-67.181-4.5453-0.0018v1.2752l4.2565-0.0019v1.6507l-0.4201 0.01318-1e-3 9.1065-9e-3 0.0099-12.928 0.01807-9.03e-4 -9.1344-0.42012-0.01318v-1.6507l4.2317 0.0019v-1.2752l-4.3863 0.0018 0.0033 26.511 4.4112 0.0018v-1.2752l-4.2565 0.0019v-1.6507l0.4201-0.01318 0.0011-9.0518 12.937-0.0075 9.1e-4 9.0588 0.42011 0.01318v1.6507l-4.2317-0.0019v1.2752l4.5207-0.0018z" fill="#ebebeb"/>
    </g>
   </g>
   <g transform="matrix(-1 0 0 -1 256.76 716.2)">
    <path d="m112.86 345.71 7.9403 1e-5v-7.0375l-7.9403 2.2e-4z" fill="#3a3a3a"/>
    <g transform="matrix(.0080706 0 0 .0080636 100.22 374.68)">
     <path d="m2550.5-3593.2v-872.75l-983.84 0.025v872.71z" fill="none" stroke="#000" stroke-linecap="square" stroke-width=".67568"/>
    </g>
    <path d="m113.63 340.44h1.7574l-3e-3 -1.0731 0.63956-5.7e-4v-0.40181h2.0614l-4.8e-4 0.40286h0.6657v1.0732h1.7493v4.6204l-6.8696 0.015z" fill="#1a1a1a"/>
    <g fill="#ffac00">
     <path d="m115.21 345.08h0.21938v-1.3498h-0.21938v1.3498z"/>
     <path d="m115.7 345.08h0.21938v-1.3498h-0.21938v1.3498z"/>
     <path d="m116.21 345.08h0.21931v-1.3498h-0.21931v1.3498z"/>
     <path d="m116.72 345.08h0.21938v-1.3498h-0.21938v1.3498z"/>
     <path d="m117.21 345.08h0.21938v-1.3498h-0.21938v1.3498z"/>
     <path d="m117.71 345.08h0.21932v-1.3498h-0.21932v1.3498z"/>
     <path d="m118.24 345.08h0.21986v-1.3498h-0.21986v1.3498z"/>
     <path d="m118.73 345.08h0.21931v-1.3498h-0.21931v1.3498z"/>
    </g>
    <g>
     <path d="m118.91 340.16h1.7357v-0.75438h-1.7357v0.75438z" fill="#abb927"/>
     <path d="m113.48 340.16h1.751v-0.75831h-1.751v0.75831z" fill="#abb927"/>
     <path d="m120.8 345.71-7.9401-2e-5v7.0373l7.9401 2.4e-4z" fill="#3a3a3a"/>
    </g>
    <g transform="matrix(-.0080706 0 0 -.0080636 133.93 316.74)">
     <path d="m2609.9-3593.3v-872.71l-983.83-0.028v872.75z" fill="none" stroke="#000" stroke-linecap="square" stroke-width=".67568"/>
    </g>
    <path d="m120.51 350.97h-1.7574l3e-3 1.0731-0.63956 5.7e-4v0.40181h-2.0614l4.8e-4 -0.40286h-0.6657v-1.0732h-1.7493v-4.6204l6.8696-0.015z" fill="#1a1a1a"/>
    <g fill="#ffac00">
     <path d="m118.93 346.34h-0.21938v1.3498h0.21938v-1.3498z"/>
     <path d="m118.44 346.34h-0.21938v1.3498h0.21938v-1.3498z"/>
     <path d="m117.94 346.34h-0.21931v1.3498h0.21931v-1.3498z"/>
     <path d="m117.42 346.34h-0.21938v1.3498h0.21938v-1.3498z"/>
     <path d="m116.93 346.34h-0.21938v1.3498h0.21938v-1.3498z"/>
     <path d="m116.43 346.34h-0.21932v1.3498h0.21932v-1.3498z"/>
     <path d="m115.91 346.34h-0.21986v1.3498h0.21986v-1.3498z"/>
     <path d="m115.42 346.34h-0.21931v1.3498h0.21931v-1.3498z"/>
    </g>
    <g>
     <path d="m115.23 351.26h-1.7357v0.75438h1.7357v-0.75438z" fill="#abb927"/>
     <path d="m120.67 351.26h-1.751v0.75831h1.751v-0.75831z" fill="#abb927"/>
     <path transform="matrix(.53109 0 0 .53109 66 374.35)" d="m103.19-67.181-4.3904-0.0018v1.2752l4.2565-0.0019v1.6507l-0.4201 0.01318-1e-3 9.1065-9e-3 0.0099-12.928 0.01807-9.03e-4 -9.1344-0.42012-0.01318v-1.6507l4.2317 0.0019v-1.2752l-5.2703 0.0018 0.0034 26.511 5.2951 0.0018v-1.2752l-4.2565 0.0019v-1.6507l0.4201-0.01318 0.0011-9.0518 12.937-0.0075 9.1e-4 9.0588 0.42011 0.01318v1.6507l-4.2317-0.0019v1.2752l4.3658-0.0018z" fill="#ebebeb"/>
    </g>
   </g>
   <g transform="translate(-.039301 24.778)">
    <path d="m113.33 345.71h7.5536v-7.0373l-7.5536-2.3e-4z" fill="#3a3a3a"/>
    <g transform="matrix(.0080706 0 0 .0080636 100.22 374.68)">
     <path d="m2560.5-3593.3v-872.71l-935.94-0.027v872.74z" fill="none" stroke="#000" stroke-linecap="square" stroke-width=".67568"/>
    </g>
    <path d="m113.63 340.44h1.7574l-3e-3 -1.0731 0.63956-5.7e-4v-0.40181h2.0614l-4.8e-4 0.40286h0.6657v1.0732h1.7493v4.6204l-6.8696 0.015z" fill="#1a1a1a"/>
    <g fill="#ffac00">
     <path d="m115.21 345.08h0.21938v-1.3498h-0.21938v1.3498z"/>
     <path d="m115.7 345.08h0.21938v-1.3498h-0.21938v1.3498z"/>
     <path d="m116.21 345.08h0.21931v-1.3498h-0.21931v1.3498z"/>
     <path d="m116.72 345.08h0.21938v-1.3498h-0.21938v1.3498z"/>
     <path d="m117.21 345.08h0.21938v-1.3498h-0.21938v1.3498z"/>
     <path d="m117.71 345.08h0.21932v-1.3498h-0.21932v1.3498z"/>
     <path d="m118.24 345.08h0.21986v-1.3498h-0.21986v1.3498z"/>
     <path d="m118.73 345.08h0.21931v-1.3498h-0.21931v1.3498z"/>
    </g>
    <g>
     <path d="m118.91 340.16h1.7357v-0.75438h-1.7357v0.75438z" fill="#abb927"/>
     <path d="m113.48 340.16h1.751v-0.75831h-1.751v0.75831z" fill="#abb927"/>
     <path d="m120.88 345.71h-7.5536v7.0373h7.5536z" fill="#3a3a3a"/>
    </g>
    <g transform="matrix(-.0080706 0 0 -.0080636 133.93 316.74)">
     <path d="m2551.9-3593.3v-872.72h-935.94v872.71z" fill="none" stroke="#000" stroke-linecap="square" stroke-width=".67568"/>
    </g>
    <path d="m120.51 350.97h-1.7574l3e-3 1.0731-0.63956 5.7e-4v0.40181h-2.0614l4.8e-4 -0.40286h-0.6657v-1.0732h-1.7493v-4.6204l6.8696-0.015z" fill="#1a1a1a"/>
    <g fill="#ffac00">
     <path d="m118.93 346.34h-0.21938v1.3498h0.21938v-1.3498z"/>
     <path d="m118.44 346.34h-0.21938v1.3498h0.21938v-1.3498z"/>
     <path d="m117.94 346.34h-0.21931v1.3498h0.21931v-1.3498z"/>
     <path d="m117.42 346.34h-0.21938v1.3498h0.21938v-1.3498z"/>
     <path d="m116.93 346.34h-0.21938v1.3498h0.21938v-1.3498z"/>
     <path d="m116.43 346.34h-0.21932v1.3498h0.21932v-1.3498z"/>
     <path d="m115.91 346.34h-0.21986v1.3498h0.21986v-1.3498z"/>
     <path d="m115.42 346.34h-0.21931v1.3498h0.21931v-1.3498z"/>
    </g>
    <g>
     <path d="m115.23 351.26h-1.7357v0.75438h1.7357v-0.75438z" fill="#abb927"/>
     <path d="m120.67 351.26h-1.751v0.75831h1.751v-0.75831z" fill="#abb927"/>
     <path transform="matrix(.53109 0 0 .53109 66 374.35)" d="m103.34-67.181-4.5453-0.0018v1.2752l4.2565-0.0019v1.6507l-0.4201 0.01318-1e-3 9.1065-9e-3 0.0099-12.928 0.01807-9.03e-4 -9.1344-0.42012-0.01318v-1.6507l4.2317 0.0019v-1.2752l-4.3863 0.0018 0.0033 26.511 4.4112 0.0018v-1.2752l-4.2565 0.0019v-1.6507l0.4201-0.01318 0.0011-9.0518 12.937-0.0075 9.1e-4 9.0588 0.42011 0.01318v1.6507l-4.2317-0.0019v1.2752l4.5207-0.0018z" fill="#ebebeb"/>
    </g>
   </g>
   <g transform="translate(7.5171 24.778)">
    <path d="m113.33 345.71h7.5536v-7.0373l-7.5536-2.3e-4z" fill="#3a3a3a"/>
    <g transform="matrix(.0080706 0 0 .0080636 100.22 374.68)">
     <path d="m2560.5-3593.3v-872.71l-935.94-0.027v872.74z" fill="none" stroke="#000" stroke-linecap="square" stroke-width=".67568"/>
    </g>
    <path d="m113.63 340.44h1.7574l-3e-3 -1.0731 0.63956-5.7e-4v-0.40181h2.0614l-4.8e-4 0.40286h0.6657v1.0732h1.7493v4.6204l-6.8696 0.015z" fill="#1a1a1a"/>
    <g fill="#ffac00">
     <path d="m115.21 345.08h0.21938v-1.3498h-0.21938v1.3498z"/>
     <path d="m115.7 345.08h0.21938v-1.3498h-0.21938v1.3498z"/>
     <path d="m116.21 345.08h0.21931v-1.3498h-0.21931v1.3498z"/>
     <path d="m116.72 345.08h0.21938v-1.3498h-0.21938v1.3498z"/>
     <path d="m117.21 345.08h0.21938v-1.3498h-0.21938v1.3498z"/>
     <path d="m117.71 345.08h0.21932v-1.3498h-0.21932v1.3498z"/>
     <path d="m118.24 345.08h0.21986v-1.3498h-0.21986v1.3498z"/>
     <path d="m118.73 345.08h0.21931v-1.3498h-0.21931v1.3498z"/>
    </g>
    <g>
     <path d="m118.91 340.16h1.7357v-0.75438h-1.7357v0.75438z" fill="#abb927"/>
     <path d="m113.48 340.16h1.751v-0.75831h-1.751v0.75831z" fill="#abb927"/>
     <path d="m120.88 345.71h-7.5536v7.0373h7.5536z" fill="#3a3a3a"/>
    </g>
    <g transform="matrix(-.0080706 0 0 -.0080636 133.93 316.74)">
     <path d="m2551.9-3593.3v-872.72h-935.94v872.71z" fill="none" stroke="#000" stroke-linecap="square" stroke-width=".67568"/>
    </g>
    <path d="m120.51 350.97h-1.7574l3e-3 1.0731-0.63956 5.7e-4v0.40181h-2.0614l4.8e-4 -0.40286h-0.6657v-1.0732h-1.7493v-4.6204l6.8696-0.015z" fill="#1a1a1a"/>
    <g fill="#ffac00">
     <path d="m118.93 346.34h-0.21938v1.3498h0.21938v-1.3498z"/>
     <path d="m118.44 346.34h-0.21938v1.3498h0.21938v-1.3498z"/>
     <path d="m117.94 346.34h-0.21931v1.3498h0.21931v-1.3498z"/>
     <path d="m117.42 346.34h-0.21938v1.3498h0.21938v-1.3498z"/>
     <path d="m116.93 346.34h-0.21938v1.3498h0.21938v-1.3498z"/>
     <path d="m116.43 346.34h-0.21932v1.3498h0.21932v-1.3498z"/>
     <path d="m115.91 346.34h-0.21986v1.3498h0.21986v-1.3498z"/>
     <path d="m115.42 346.34h-0.21931v1.3498h0.21931v-1.3498z"/>
    </g>
    <g>
     <path d="m115.23 351.26h-1.7357v0.75438h1.7357v-0.75438z" fill="#abb927"/>
     <path d="m120.67 351.26h-1.751v0.75831h1.751v-0.75831z" fill="#abb927"/>
     <path transform="matrix(.53109 0 0 .53109 66 374.35)" d="m103.34-67.181-4.5453-0.0018v1.2752l4.2565-0.0019v1.6507l-0.4201 0.01318-1e-3 9.1065-9e-3 0.0099-12.928 0.01807-9.03e-4 -9.1344-0.42012-0.01318v-1.6507l4.2317 0.0019v-1.2752l-4.3863 0.0018 0.0033 26.511 4.4112 0.0018v-1.2752l-4.2565 0.0019v-1.6507l0.4201-0.01318 0.0011-9.0518 12.937-0.0075 9.1e-4 9.0588 0.42011 0.01318v1.6507l-4.2317-0.0019v1.2752l4.5207-0.0018z" fill="#ebebeb"/>
    </g>
   </g>
   <g transform="translate(15.073 24.778)">
    <path d="m113.33 345.71h7.5536v-7.0373l-7.5536-2.3e-4z" fill="#3a3a3a"/>
    <g transform="matrix(.0080706 0 0 .0080636 100.22 374.68)">
     <path d="m2560.5-3593.3v-872.71l-935.94-0.027v872.74z" fill="none" stroke="#000" stroke-linecap="square" stroke-width=".67568"/>
    </g>
    <path d="m113.63 340.44h1.7574l-3e-3 -1.0731 0.63956-5.7e-4v-0.40181h2.0614l-4.8e-4 0.40286h0.6657v1.0732h1.7493v4.6204l-6.8696 0.015z" fill="#1a1a1a"/>
    <g fill="#ffac00">
     <path d="m115.21 345.08h0.21938v-1.3498h-0.21938v1.3498z"/>
     <path d="m115.7 345.08h0.21938v-1.3498h-0.21938v1.3498z"/>
     <path d="m116.21 345.08h0.21931v-1.3498h-0.21931v1.3498z"/>
     <path d="m116.72 345.08h0.21938v-1.3498h-0.21938v1.3498z"/>
     <path d="m117.21 345.08h0.21938v-1.3498h-0.21938v1.3498z"/>
     <path d="m117.71 345.08h0.21932v-1.3498h-0.21932v1.3498z"/>
     <path d="m118.24 345.08h0.21986v-1.3498h-0.21986v1.3498z"/>
     <path d="m118.73 345.08h0.21931v-1.3498h-0.21931v1.3498z"/>
    </g>
    <g>
     <path d="m118.91 340.16h1.7357v-0.75438h-1.7357v0.75438z" fill="#abb927"/>
     <path d="m113.48 340.16h1.751v-0.75831h-1.751v0.75831z" fill="#abb927"/>
     <path d="m120.88 345.71h-7.5536v7.0373h7.5536z" fill="#3a3a3a"/>
    </g>
    <g transform="matrix(-.0080706 0 0 -.0080636 133.93 316.74)">
     <path d="m2551.9-3593.3v-872.72h-935.94v872.71z" fill="none" stroke="#000" stroke-linecap="square" stroke-width=".67568"/>
    </g>
    <path d="m120.51 350.97h-1.7574l3e-3 1.0731-0.63956 5.7e-4v0.40181h-2.0614l4.8e-4 -0.40286h-0.6657v-1.0732h-1.7493v-4.6204l6.8696-0.015z" fill="#1a1a1a"/>
    <g fill="#ffac00">
     <path d="m118.93 346.34h-0.21938v1.3498h0.21938v-1.3498z"/>
     <path d="m118.44 346.34h-0.21938v1.3498h0.21938v-1.3498z"/>
     <path d="m117.94 346.34h-0.21931v1.3498h0.21931v-1.3498z"/>
     <path d="m117.42 346.34h-0.21938v1.3498h0.21938v-1.3498z"/>
     <path d="m116.93 346.34h-0.21938v1.3498h0.21938v-1.3498z"/>
     <path d="m116.43 346.34h-0.21932v1.3498h0.21932v-1.3498z"/>
     <path d="m115.91 346.34h-0.21986v1.3498h0.21986v-1.3498z"/>
     <path d="m115.42 346.34h-0.21931v1.3498h0.21931v-1.3498z"/>
    </g>
    <g>
     <path d="m115.23 351.26h-1.7357v0.75438h1.7357v-0.75438z" fill="#abb927"/>
     <path d="m120.67 351.26h-1.751v0.75831h1.751v-0.75831z" fill="#abb927"/>
     <path transform="matrix(.53109 0 0 .53109 66 374.35)" d="m103.34-67.181-4.5453-0.0018v1.2752l4.2565-0.0019v1.6507l-0.4201 0.01318-1e-3 9.1065-9e-3 0.0099-12.928 0.01807-9.03e-4 -9.1344-0.42012-0.01318v-1.6507l4.2317 0.0019v-1.2752l-4.3863 0.0018 0.0033 26.511 4.4112 0.0018v-1.2752l-4.2565 0.0019v-1.6507l0.4201-0.01318 0.0011-9.0518 12.937-0.0075 9.1e-4 9.0588 0.42011 0.01318v1.6507l-4.2317-0.0019v1.2752l4.5207-0.0018z" fill="#ebebeb"/>
    </g>
   </g>
  </g>
  <g transform="matrix(1.0006 0 0 .99268 134.91 14.93)">
   <g transform="translate(-15.07 24.778)">
    <path d="m112.86 345.71 7.9403 1e-5v-7.0375l-7.9403 2.2e-4z" fill="#3a3a3a"/>
    <g transform="matrix(.0080706 0 0 .0080636 100.22 374.68)">
     <path d="m2550.5-3593.2v-872.75l-983.84 0.025v872.71z" fill="none" stroke="#000" stroke-linecap="square" stroke-width=".67568"/>
    </g>
    <path d="m113.63 340.44h1.7574l-3e-3 -1.0731 0.63956-5.7e-4v-0.40181h2.0614l-4.8e-4 0.40286h0.6657v1.0732h1.7493v4.6204l-6.8696 0.015z" fill="#1a1a1a"/>
    <g fill="#ffac00">
     <path d="m115.21 345.08h0.21938v-1.3498h-0.21938v1.3498z"/>
     <path d="m115.7 345.08h0.21938v-1.3498h-0.21938v1.3498z"/>
     <path d="m116.21 345.08h0.21931v-1.3498h-0.21931v1.3498z"/>
     <path d="m116.72 345.08h0.21938v-1.3498h-0.21938v1.3498z"/>
     <path d="m117.21 345.08h0.21938v-1.3498h-0.21938v1.3498z"/>
     <path d="m117.71 345.08h0.21932v-1.3498h-0.21932v1.3498z"/>
     <path d="m118.24 345.08h0.21986v-1.3498h-0.21986v1.3498z"/>
     <path d="m118.73 345.08h0.21931v-1.3498h-0.21931v1.3498z"/>
    </g>
    <g>
     <path d="m118.91 340.16h1.7357v-0.75438h-1.7357v0.75438z" fill="#abb927"/>
     <path d="m113.48 340.16h1.751v-0.75831h-1.751v0.75831z" fill="#abb927"/>
     <path d="m120.8 345.71-7.9401-2e-5v7.0373l7.9401 2.4e-4z" fill="#3a3a3a"/>
    </g>
    <g transform="matrix(-.0080706 0 0 -.0080636 133.93 316.74)">
     <path d="m2609.9-3593.3v-872.71l-983.83-0.028v872.75z" fill="none" stroke="#000" stroke-linecap="square" stroke-width=".67568"/>
    </g>
    <path d="m120.51 350.97h-1.7574l3e-3 1.0731-0.63956 5.7e-4v0.40181h-2.0614l4.8e-4 -0.40286h-0.6657v-1.0732h-1.7493v-4.6204l6.8696-0.015z" fill="#1a1a1a"/>
    <g fill="#ffac00">
     <path d="m118.93 346.34h-0.21938v1.3498h0.21938v-1.3498z"/>
     <path d="m118.44 346.34h-0.21938v1.3498h0.21938v-1.3498z"/>
     <path d="m117.94 346.34h-0.21931v1.3498h0.21931v-1.3498z"/>
     <path d="m117.42 346.34h-0.21938v1.3498h0.21938v-1.3498z"/>
     <path d="m116.93 346.34h-0.21938v1.3498h0.21938v-1.3498z"/>
     <path d="m116.43 346.34h-0.21932v1.3498h0.21932v-1.3498z"/>
     <path d="m115.91 346.34h-0.21986v1.3498h0.21986v-1.3498z"/>
     <path d="m115.42 346.34h-0.21931v1.3498h0.21931v-1.3498z"/>
    </g>
    <g>
     <path d="m115.23 351.26h-1.7357v0.75438h1.7357v-0.75438z" fill="#abb927"/>
     <path d="m120.67 351.26h-1.751v0.75831h1.751v-0.75831z" fill="#abb927"/>
     <path transform="matrix(.53109 0 0 .53109 66 374.35)" d="m103.18-67.181-4.3903-0.0018v1.2752l4.2565-0.0019v1.6507l-0.4201 0.01318-1e-3 9.1065-9e-3 0.0099-12.928 0.01807-9.03e-4 -9.1344-0.42012-0.01318v-1.6507l4.2317 0.0019v-1.2752l-5.2703 0.0018 0.0034 26.511 5.2951 0.0018v-1.2752l-4.2565 0.0019v-1.6507l0.4201-0.01318 0.0011-9.0518 12.937-0.0075 9.1e-4 9.0588 0.42011 0.01318v1.6507l-4.2317-0.0019v1.2752l4.3658-0.0018z" fill="#ebebeb"/>
    </g>
   </g>
   <g transform="translate(-7.5957 24.778)">
    <path d="m113.33 345.71h7.5536v-7.0373l-7.5536-2.3e-4z" fill="#3a3a3a"/>
    <g transform="matrix(.0080706 0 0 .0080636 100.22 374.68)">
     <path d="m2560.5-3593.3v-872.71l-935.94-0.027v872.74z" fill="none" stroke="#000" stroke-linecap="square" stroke-width=".67568"/>
    </g>
    <path d="m113.63 340.44h1.7574l-3e-3 -1.0731 0.63956-5.7e-4v-0.40181h2.0614l-4.8e-4 0.40286h0.6657v1.0732h1.7493v4.6204l-6.8696 0.015z" fill="#1a1a1a"/>
    <g fill="#ffac00">
     <path d="m115.21 345.08h0.21938v-1.3498h-0.21938v1.3498z"/>
     <path d="m115.7 345.08h0.21938v-1.3498h-0.21938v1.3498z"/>
     <path d="m116.21 345.08h0.21931v-1.3498h-0.21931v1.3498z"/>
     <path d="m116.72 345.08h0.21938v-1.3498h-0.21938v1.3498z"/>
     <path d="m117.21 345.08h0.21938v-1.3498h-0.21938v1.3498z"/>
     <path d="m117.71 345.08h0.21932v-1.3498h-0.21932v1.3498z"/>
     <path d="m118.24 345.08h0.21986v-1.3498h-0.21986v1.3498z"/>
     <path d="m118.73 345.08h0.21931v-1.3498h-0.21931v1.3498z"/>
    </g>
    <g>
     <path d="m118.91 340.16h1.7357v-0.75438h-1.7357v0.75438z" fill="#abb927"/>
     <path d="m113.48 340.16h1.751v-0.75831h-1.751v0.75831z" fill="#abb927"/>
     <path d="m120.88 345.71h-7.5536v7.0373h7.5536z" fill="#3a3a3a"/>
    </g>
    <g transform="matrix(-.0080706 0 0 -.0080636 133.93 316.74)">
     <path d="m2551.9-3593.3v-872.72h-935.94v872.71z" fill="none" stroke="#000" stroke-linecap="square" stroke-width=".67568"/>
    </g>
    <path d="m120.51 350.97h-1.7574l3e-3 1.0731-0.63956 5.7e-4v0.40181h-2.0614l4.8e-4 -0.40286h-0.6657v-1.0732h-1.7493v-4.6204l6.8696-0.015z" fill="#1a1a1a"/>
    <g fill="#ffac00">
     <path d="m118.93 346.34h-0.21938v1.3498h0.21938v-1.3498z"/>
     <path d="m118.44 346.34h-0.21938v1.3498h0.21938v-1.3498z"/>
     <path d="m117.94 346.34h-0.21931v1.3498h0.21931v-1.3498z"/>
     <path d="m117.42 346.34h-0.21938v1.3498h0.21938v-1.3498z"/>
     <path d="m116.93 346.34h-0.21938v1.3498h0.21938v-1.3498z"/>
     <path d="m116.43 346.34h-0.21932v1.3498h0.21932v-1.3498z"/>
     <path d="m115.91 346.34h-0.21986v1.3498h0.21986v-1.3498z"/>
     <path d="m115.42 346.34h-0.21931v1.3498h0.21931v-1.3498z"/>
    </g>
    <g>
     <path d="m115.23 351.26h-1.7357v0.75438h1.7357v-0.75438z" fill="#abb927"/>
     <path d="m120.67 351.26h-1.751v0.75831h1.751v-0.75831z" fill="#abb927"/>
     <path transform="matrix(.53109 0 0 .53109 66 374.35)" d="m103.34-67.181-4.5453-0.0018v1.2752l4.2565-0.0019v1.6507l-0.4201 0.01318-1e-3 9.1065-9e-3 0.0099-12.928 0.01807-9.03e-4 -9.1344-0.42012-0.01318v-1.6507l4.2317 0.0019v-1.2752l-4.3863 0.0018 0.0033 26.511 4.4112 0.0018v-1.2752l-4.2565 0.0019v-1.6507l0.4201-0.01318 0.0011-9.0518 12.937-0.0075 9.1e-4 9.0588 0.42011 0.01318v1.6507l-4.2317-0.0019v1.2752l4.5207-0.0018z" fill="#ebebeb"/>
    </g>
   </g>
   <g transform="matrix(-1 0 0 -1 256.76 716.2)">
    <path d="m112.86 345.71 7.9403 1e-5v-7.0375l-7.9403 2.2e-4z" fill="#3a3a3a"/>
    <g transform="matrix(.0080706 0 0 .0080636 100.22 374.68)">
     <path d="m2550.5-3593.2v-872.75l-983.84 0.025v872.71z" fill="none" stroke="#000" stroke-linecap="square" stroke-width=".67568"/>
    </g>
    <path d="m113.63 340.44h1.7574l-3e-3 -1.0731 0.63956-5.7e-4v-0.40181h2.0614l-4.8e-4 0.40286h0.6657v1.0732h1.7493v4.6204l-6.8696 0.015z" fill="#1a1a1a"/>
    <g fill="#ffac00">
     <path d="m115.21 345.08h0.21938v-1.3498h-0.21938v1.3498z"/>
     <path d="m115.7 345.08h0.21938v-1.3498h-0.21938v1.3498z"/>
     <path d="m116.21 345.08h0.21931v-1.3498h-0.21931v1.3498z"/>
     <path d="m116.72 345.08h0.21938v-1.3498h-0.21938v1.3498z"/>
     <path d="m117.21 345.08h0.21938v-1.3498h-0.21938v1.3498z"/>
     <path d="m117.71 345.08h0.21932v-1.3498h-0.21932v1.3498z"/>
     <path d="m118.24 345.08h0.21986v-1.3498h-0.21986v1.3498z"/>
     <path d="m118.73 345.08h0.21931v-1.3498h-0.21931v1.3498z"/>
    </g>
    <g>
     <path d="m118.91 340.16h1.7357v-0.75438h-1.7357v0.75438z" fill="#abb927"/>
     <path d="m113.48 340.16h1.751v-0.75831h-1.751v0.75831z" fill="#abb927"/>
     <path d="m120.8 345.71-7.9401-2e-5v7.0373l7.9401 2.4e-4z" fill="#3a3a3a"/>
    </g>
    <g transform="matrix(-.0080706 0 0 -.0080636 133.93 316.74)">
     <path d="m2609.9-3593.3v-872.71l-983.83-0.028v872.75z" fill="none" stroke="#000" stroke-linecap="square" stroke-width=".67568"/>
    </g>
    <path d="m120.51 350.97h-1.7574l3e-3 1.0731-0.63956 5.7e-4v0.40181h-2.0614l4.8e-4 -0.40286h-0.6657v-1.0732h-1.7493v-4.6204l6.8696-0.015z" fill="#1a1a1a"/>
    <g fill="#ffac00">
     <path d="m118.93 346.34h-0.21938v1.3498h0.21938v-1.3498z"/>
     <path d="m118.44 346.34h-0.21938v1.3498h0.21938v-1.3498z"/>
     <path d="m117.94 346.34h-0.21931v1.3498h0.21931v-1.3498z"/>
     <path d="m117.42 346.34h-0.21938v1.3498h0.21938v-1.3498z"/>
     <path d="m116.93 346.34h-0.21938v1.3498h0.21938v-1.3498z"/>
     <path d="m116.43 346.34h-0.21932v1.3498h0.21932v-1.3498z"/>
     <path d="m115.91 346.34h-0.21986v1.3498h0.21986v-1.3498z"/>
     <path d="m115.42 346.34h-0.21931v1.3498h0.21931v-1.3498z"/>
    </g>
    <g>
     <path d="m115.23 351.26h-1.7357v0.75438h1.7357v-0.75438z" fill="#abb927"/>
     <path d="m120.67 351.26h-1.751v0.75831h1.751v-0.75831z" fill="#abb927"/>
     <path transform="matrix(.53109 0 0 .53109 66 374.35)" d="m103.19-67.181-4.3904-0.0018v1.2752l4.2565-0.0019v1.6507l-0.4201 0.01318-1e-3 9.1065-9e-3 0.0099-12.928 0.01807-9.03e-4 -9.1344-0.42012-0.01318v-1.6507l4.2317 0.0019v-1.2752l-5.2703 0.0018 0.0034 26.511 5.2951 0.0018v-1.2752l-4.2565 0.0019v-1.6507l0.4201-0.01318 0.0011-9.0518 12.937-0.0075 9.1e-4 9.0588 0.42011 0.01318v1.6507l-4.2317-0.0019v1.2752l4.3658-0.0018z" fill="#ebebeb"/>
    </g>
   </g>
   <g transform="translate(-.039301 24.778)">
    <path d="m113.33 345.71h7.5536v-7.0373l-7.5536-2.3e-4z" fill="#3a3a3a"/>
    <g transform="matrix(.0080706 0 0 .0080636 100.22 374.68)">
     <path d="m2560.5-3593.3v-872.71l-935.94-0.027v872.74z" fill="none" stroke="#000" stroke-linecap="square" stroke-width=".67568"/>
    </g>
    <path d="m113.63 340.44h1.7574l-3e-3 -1.0731 0.63956-5.7e-4v-0.40181h2.0614l-4.8e-4 0.40286h0.6657v1.0732h1.7493v4.6204l-6.8696 0.015z" fill="#1a1a1a"/>
    <g fill="#ffac00">
     <path d="m115.21 345.08h0.21938v-1.3498h-0.21938v1.3498z"/>
     <path d="m115.7 345.08h0.21938v-1.3498h-0.21938v1.3498z"/>
     <path d="m116.21 345.08h0.21931v-1.3498h-0.21931v1.3498z"/>
     <path d="m116.72 345.08h0.21938v-1.3498h-0.21938v1.3498z"/>
     <path d="m117.21 345.08h0.21938v-1.3498h-0.21938v1.3498z"/>
     <path d="m117.71 345.08h0.21932v-1.3498h-0.21932v1.3498z"/>
     <path d="m118.24 345.08h0.21986v-1.3498h-0.21986v1.3498z"/>
     <path d="m118.73 345.08h0.21931v-1.3498h-0.21931v1.3498z"/>
    </g>
    <g>
     <path d="m118.91 340.16h1.7357v-0.75438h-1.7357v0.75438z" fill="#abb927"/>
     <path d="m113.48 340.16h1.751v-0.75831h-1.751v0.75831z" fill="#abb927"/>
     <path d="m120.88 345.71h-7.5536v7.0373h7.5536z" fill="#3a3a3a"/>
    </g>
    <g transform="matrix(-.0080706 0 0 -.0080636 133.93 316.74)">
     <path d="m2551.9-3593.3v-872.72h-935.94v872.71z" fill="none" stroke="#000" stroke-linecap="square" stroke-width=".67568"/>
    </g>
    <path d="m120.51 350.97h-1.7574l3e-3 1.0731-0.63956 5.7e-4v0.40181h-2.0614l4.8e-4 -0.40286h-0.6657v-1.0732h-1.7493v-4.6204l6.8696-0.015z" fill="#1a1a1a"/>
    <g fill="#ffac00">
     <path d="m118.93 346.34h-0.21938v1.3498h0.21938v-1.3498z"/>
     <path d="m118.44 346.34h-0.21938v1.3498h0.21938v-1.3498z"/>
     <path d="m117.94 346.34h-0.21931v1.3498h0.21931v-1.3498z"/>
     <path d="m117.42 346.34h-0.21938v1.3498h0.21938v-1.3498z"/>
     <path d="m116.93 346.34h-0.21938v1.3498h0.21938v-1.3498z"/>
     <path d="m116.43 346.34h-0.21932v1.3498h0.21932v-1.3498z"/>
     <path d="m115.91 346.34h-0.21986v1.3498h0.21986v-1.3498z"/>
     <path d="m115.42 346.34h-0.21931v1.3498h0.21931v-1.3498z"/>
    </g>
    <g>
     <path d="m115.23 351.26h-1.7357v0.75438h1.7357v-0.75438z" fill="#abb927"/>
     <path d="m120.67 351.26h-1.751v0.75831h1.751v-0.75831z" fill="#abb927"/>
     <path transform="matrix(.53109 0 0 .53109 66 374.35)" d="m103.34-67.181-4.5453-0.0018v1.2752l4.2565-0.0019v1.6507l-0.4201 0.01318-1e-3 9.1065-9e-3 0.0099-12.928 0.01807-9.03e-4 -9.1344-0.42012-0.01318v-1.6507l4.2317 0.0019v-1.2752l-4.3863 0.0018 0.0033 26.511 4.4112 0.0018v-1.2752l-4.2565 0.0019v-1.6507l0.4201-0.01318 0.0011-9.0518 12.937-0.0075 9.1e-4 9.0588 0.42011 0.01318v1.6507l-4.2317-0.0019v1.2752l4.5207-0.0018z" fill="#ebebeb"/>
    </g>
   </g>
   <g transform="translate(7.5171 24.778)">
    <path d="m113.33 345.71h7.5536v-7.0373l-7.5536-2.3e-4z" fill="#3a3a3a"/>
    <g transform="matrix(.0080706 0 0 .0080636 100.22 374.68)">
     <path d="m2560.5-3593.3v-872.71l-935.94-0.027v872.74z" fill="none" stroke="#000" stroke-linecap="square" stroke-width=".67568"/>
    </g>
    <path d="m113.63 340.44h1.7574l-3e-3 -1.0731 0.63956-5.7e-4v-0.40181h2.0614l-4.8e-4 0.40286h0.6657v1.0732h1.7493v4.6204l-6.8696 0.015z" fill="#1a1a1a"/>
    <g fill="#ffac00">
     <path d="m115.21 345.08h0.21938v-1.3498h-0.21938v1.3498z"/>
     <path d="m115.7 345.08h0.21938v-1.3498h-0.21938v1.3498z"/>
     <path d="m116.21 345.08h0.21931v-1.3498h-0.21931v1.3498z"/>
     <path d="m116.72 345.08h0.21938v-1.3498h-0.21938v1.3498z"/>
     <path d="m117.21 345.08h0.21938v-1.3498h-0.21938v1.3498z"/>
     <path d="m117.71 345.08h0.21932v-1.3498h-0.21932v1.3498z"/>
     <path d="m118.24 345.08h0.21986v-1.3498h-0.21986v1.3498z"/>
     <path d="m118.73 345.08h0.21931v-1.3498h-0.21931v1.3498z"/>
    </g>
    <g>
     <path d="m118.91 340.16h1.7357v-0.75438h-1.7357v0.75438z" fill="#abb927"/>
     <path d="m113.48 340.16h1.751v-0.75831h-1.751v0.75831z" fill="#abb927"/>
     <path d="m120.88 345.71h-7.5536v7.0373h7.5536z" fill="#3a3a3a"/>
    </g>
    <g transform="matrix(-.0080706 0 0 -.0080636 133.93 316.74)">
     <path d="m2551.9-3593.3v-872.72h-935.94v872.71z" fill="none" stroke="#000" stroke-linecap="square" stroke-width=".67568"/>
    </g>
    <path d="m120.51 350.97h-1.7574l3e-3 1.0731-0.63956 5.7e-4v0.40181h-2.0614l4.8e-4 -0.40286h-0.6657v-1.0732h-1.7493v-4.6204l6.8696-0.015z" fill="#1a1a1a"/>
    <g fill="#ffac00">
     <path d="m118.93 346.34h-0.21938v1.3498h0.21938v-1.3498z"/>
     <path d="m118.44 346.34h-0.21938v1.3498h0.21938v-1.3498z"/>
     <path d="m117.94 346.34h-0.21931v1.3498h0.21931v-1.3498z"/>
     <path d="m117.42 346.34h-0.21938v1.3498h0.21938v-1.3498z"/>
     <path d="m116.93 346.34h-0.21938v1.3498h0.21938v-1.3498z"/>
     <path d="m116.43 346.34h-0.21932v1.3498h0.21932v-1.3498z"/>
     <path d="m115.91 346.34h-0.21986v1.3498h0.21986v-1.3498z"/>
     <path d="m115.42 346.34h-0.21931v1.3498h0.21931v-1.3498z"/>
    </g>
    <g>
     <path d="m115.23 351.26h-1.7357v0.75438h1.7357v-0.75438z" fill="#abb927"/>
     <path d="m120.67 351.26h-1.751v0.75831h1.751v-0.75831z" fill="#abb927"/>
     <path transform="matrix(.53109 0 0 .53109 66 374.35)" d="m103.34-67.181-4.5453-0.0018v1.2752l4.2565-0.0019v1.6507l-0.4201 0.01318-1e-3 9.1065-9e-3 0.0099-12.928 0.01807-9.03e-4 -9.1344-0.42012-0.01318v-1.6507l4.2317 0.0019v-1.2752l-4.3863 0.0018 0.0033 26.511 4.4112 0.0018v-1.2752l-4.2565 0.0019v-1.6507l0.4201-0.01318 0.0011-9.0518 12.937-0.0075 9.1e-4 9.0588 0.42011 0.01318v1.6507l-4.2317-0.0019v1.2752l4.5207-0.0018z" fill="#ebebeb"/>
    </g>
   </g>
   <g transform="translate(15.073 24.778)">
    <path d="m113.33 345.71h7.5536v-7.0373l-7.5536-2.3e-4z" fill="#3a3a3a"/>
    <g transform="matrix(.0080706 0 0 .0080636 100.22 374.68)">
     <path d="m2560.5-3593.3v-872.71l-935.94-0.027v872.74z" fill="none" stroke="#000" stroke-linecap="square" stroke-width=".67568"/>
    </g>
    <path d="m113.63 340.44h1.7574l-3e-3 -1.0731 0.63956-5.7e-4v-0.40181h2.0614l-4.8e-4 0.40286h0.6657v1.0732h1.7493v4.6204l-6.8696 0.015z" fill="#1a1a1a"/>
    <g fill="#ffac00">
     <path d="m115.21 345.08h0.21938v-1.3498h-0.21938v1.3498z"/>
     <path d="m115.7 345.08h0.21938v-1.3498h-0.21938v1.3498z"/>
     <path d="m116.21 345.08h0.21931v-1.3498h-0.21931v1.3498z"/>
     <path d="m116.72 345.08h0.21938v-1.3498h-0.21938v1.3498z"/>
     <path d="m117.21 345.08h0.21938v-1.3498h-0.21938v1.3498z"/>
     <path d="m117.71 345.08h0.21932v-1.3498h-0.21932v1.3498z"/>
     <path d="m118.24 345.08h0.21986v-1.3498h-0.21986v1.3498z"/>
     <path d="m118.73 345.08h0.21931v-1.3498h-0.21931v1.3498z"/>
    </g>
    <g>
     <path d="m118.91 340.16h1.7357v-0.75438h-1.7357v0.75438z" fill="#abb927"/>
     <path d="m113.48 340.16h1.751v-0.75831h-1.751v0.75831z" fill="#abb927"/>
     <path d="m120.88 345.71h-7.5536v7.0373h7.5536z" fill="#3a3a3a"/>
    </g>
    <g transform="matrix(-.0080706 0 0 -.0080636 133.93 316.74)">
     <path d="m2551.9-3593.3v-872.72h-935.94v872.71z" fill="none" stroke="#000" stroke-linecap="square" stroke-width=".67568"/>
    </g>
    <path d="m120.51 350.97h-1.7574l3e-3 1.0731-0.63956 5.7e-4v0.40181h-2.0614l4.8e-4 -0.40286h-0.6657v-1.0732h-1.7493v-4.6204l6.8696-0.015z" fill="#1a1a1a"/>
    <g fill="#ffac00">
     <path d="m118.93 346.34h-0.21938v1.3498h0.21938v-1.3498z"/>
     <path d="m118.44 346.34h-0.21938v1.3498h0.21938v-1.3498z"/>
     <path d="m117.94 346.34h-0.21931v1.3498h0.21931v-1.3498z"/>
     <path d="m117.42 346.34h-0.21938v1.3498h0.21938v-1.3498z"/>
     <path d="m116.93 346.34h-0.21938v1.3498h0.21938v-1.3498z"/>
     <path d="m116.43 346.34h-0.21932v1.3498h0.21932v-1.3498z"/>
     <path d="m115.91 346.34h-0.21986v1.3498h0.21986v-1.3498z"/>
     <path d="m115.42 346.34h-0.21931v1.3498h0.21931v-1.3498z"/>
    </g>
    <g>
     <path d="m115.23 351.26h-1.7357v0.75438h1.7357v-0.75438z" fill="#abb927"/>
     <path d="m120.67 351.26h-1.751v0.75831h1.751v-0.75831z" fill="#abb927"/>
     <path transform="matrix(.53109 0 0 .53109 66 374.35)" d="m103.34-67.181-4.5453-0.0018v1.2752l4.2565-0.0019v1.6507l-0.4201 0.01318-1e-3 9.1065-9e-3 0.0099-12.928 0.01807-9.03e-4 -9.1344-0.42012-0.01318v-1.6507l4.2317 0.0019v-1.2752l-4.3863 0.0018 0.0033 26.511 4.4112 0.0018v-1.2752l-4.2565 0.0019v-1.6507l0.4201-0.01318 0.0011-9.0518 12.937-0.0075 9.1e-4 9.0588 0.42011 0.01318v1.6507l-4.2317-0.0019v1.2752l4.5207-0.0018z" fill="#ebebeb"/>
    </g>
   </g>
  </g>
  <g transform="matrix(1.5209 0 0 1.6602 -36.082 -265.21)">
   <polygon points="71.989 395.79 71.589 395.79 71.589 396.19 70.389 396.19 70.389 395.79 69.989 395.79 69.989 395.19 68.589 395.19 68.589 392.59 73.389 392.59 73.389 395.19 71.989 395.19"/>
   <polygon points="71.989 395.79 71.589 395.79 71.589 396.19 70.389 396.19 70.389 395.79 69.989 395.79 69.989 395.19 68.589 395.19 68.589 392.59 73.389 392.59 73.389 395.19 71.989 395.19" fill="none" stroke="#7f7f7f" stroke-width=".2"/>
  </g>
  <g transform="translate(29.343 -.0077283)">
   <g transform="translate(-93.553 -6.761)">
    <rect x="250.4" y="379.77" width="3.9417" height="1.9916" rx=".047399" ry=".023128"/>
    <g transform="scale(1.0397 .96177)">
     <path d="m242.28 396.3h0.29139v-0.82704l-0.29911 0.0617v-0.22455l0.29739-0.0617h0.31368v1.0516h0.29139v0.22797h-0.89474v-0.22797z" fill="#fff"/>
    </g>
   </g>
   <g transform="translate(-85.604 -6.761)">
    <rect x="250.4" y="379.77" width="3.9417" height="1.9916" rx=".047399" ry=".023128"/>
    <g transform="scale(1.0397 .96177)">
     <path d="m242.89 395.84q0.12941 0.0334 0.19626 0.11655 0.0677 0.0823 0.0677 0.20997 0 0.19027-0.14569 0.28968-0.1457 0.0986-0.42509 0.0986-0.0986 0-0.19798-0.0163-0.0985-0.0154-0.1954-0.0471v-0.25454q0.0926 0.0463 0.18341 0.0703 0.0917 0.0231 0.17997 0.0231 0.13113 0 0.20055-0.0454 0.0703-0.0454 0.0703-0.13026 0-0.0874-0.072-0.13199-0.0711-0.0454-0.21083-0.0454h-0.13198v-0.21254h0.13884q0.12427 0 0.18512-0.0386 0.0609-0.0394 0.0609-0.11913 0-0.0737-0.0591-0.11398-0.0591-0.0403-0.16712-0.0403-0.0797 0-0.16112 0.018-0.0814 0.018-0.16198 0.0531v-0.24168q0.0977-0.0274 0.19369-0.0411 0.096-0.0137 0.18855-0.0137 0.24939 0 0.37281 0.0823 0.12427 0.0814 0.12427 0.24597 0 0.11227-0.0591 0.18426-0.0591 0.0711-0.17483 0.10028z" fill="#fff"/>
    </g>
   </g>
   <g transform="translate(-78.043 -6.761)">
    <rect x="250.4" y="379.77" width="3.9417" height="1.9916" rx=".047399" ry=".023128"/>
    <g transform="scale(1.0397 .96177)">
     <path d="m242.26 395.25h0.82018v0.24254h-0.55707v0.19797q0.0377-0.0103 0.0754-0.0154 0.0386-6e-3 0.0797-6e-3 0.23397 0 0.36423 0.11741 0.13027 0.11656 0.13027 0.32567 0 0.2074-0.14226 0.32482-0.14141 0.11741-0.39338 0.11741-0.10884 0-0.21597-0.0214-0.10628-0.0206-0.21169-0.0634v-0.25968q0.10456 0.06 0.19797 0.09 0.0943 0.03 0.17741 0.03 0.11998 0 0.18855-0.0583 0.0694-0.0591 0.0694-0.15941 0-0.10113-0.0694-0.15941-0.0686-0.0583-0.18855-0.0583-0.0711 0-0.1517 0.0188-0.0806 0.018-0.17312 0.0566v-0.7199z" fill="#fff"/>
    </g>
   </g>
   <g transform="translate(-70.482 -6.761)">
    <rect x="250.4" y="379.77" width="3.9417" height="1.9916" rx=".047399" ry=".023128"/>
    <g transform="scale(1.0397 .96177)">
     <path d="m242.19 395.25h0.96416v0.18597l-0.49879 1.0936h-0.32139l0.47223-1.037h-0.61621v-0.24254z" fill="#fff"/>
    </g>
   </g>
   <g transform="translate(-62.922 -6.761)">
    <rect x="250.4" y="379.77" width="3.9417" height="1.9916" rx=".047399" ry=".023128"/>
    <g transform="scale(1.0397 .96177)">
     <path d="m242.25 396.5v-0.23654q0.0788 0.0369 0.15084 0.0557 0.072 0.018 0.14226 0.018 0.14741 0 0.22969-0.0814 0.0823-0.0823 0.0968-0.2434-0.0583 0.0428-0.12427 0.0643-0.066 0.0214-0.14312 0.0214-0.19626 0-0.3171-0.11399-0.11999-0.11484-0.11999-0.30167 0-0.20655 0.1337-0.33082 0.13455-0.12427 0.35995-0.12427 0.25026 0 0.38738 0.16884 0.13713 0.16883 0.13713 0.47736 0 0.31711-0.16027 0.4988-0.16026 0.18083-0.43965 0.18083-0.09 0-0.17227-0.0137-0.0823-0.0129-0.16112-0.0394zm0.40709-0.6162q0.0866 0 0.13027-0.0557 0.0437-0.0566 0.0437-0.16883 0-0.11142-0.0437-0.16798-0.0437-0.0566-0.13027-0.0566-0.0866 0-0.13027 0.0566-0.0437 0.0566-0.0437 0.16798 0 0.11227 0.0437 0.16883 0.0437 0.0557 0.13027 0.0557z" fill="#fff"/>
    </g>
   </g>
   <g transform="translate(-55.723 -6.761)">
    <rect x="250.4" y="379.77" width="3.9417" height="1.9916" rx=".047399" ry=".023128"/>
    <g transform="scale(1.0397 .96177)" fill="#fff">
     <path d="m241.67 396.3h0.29139v-0.82704l-0.2991 0.0617v-0.22455l0.29739-0.0617h0.31367v1.0516h0.29139v0.22797h-0.89474v-0.22797z"/>
     <path d="m242.89 396.3h0.29139v-0.82704l-0.2991 0.0617v-0.22455l0.29739-0.0617h0.31367v1.0516h0.29139v0.22797h-0.89474v-0.22797z"/>
    </g>
   </g>
   <g transform="translate(-46.992 -6.761)">
    <rect x="250.4" y="379.77" width="3.9417" height="1.9916" rx=".047399" ry=".023128"/>
    <g transform="scale(1.0397 .96177)" fill="#fff">
     <path d="m241.67 396.3h0.29139v-0.82704l-0.2991 0.0617v-0.22455l0.29739-0.0617h0.31367v1.0516h0.29139v0.22797h-0.89474v-0.22797z"/>
     <path d="m243.5 395.84q0.12942 0.0334 0.19626 0.11655 0.0677 0.0823 0.0677 0.20997 0 0.19027-0.1457 0.28968-0.14569 0.0986-0.42508 0.0986-0.0986 0-0.19798-0.0163-0.0986-0.0154-0.1954-0.0471v-0.25454q0.0926 0.0463 0.1834 0.0703 0.0917 0.0231 0.17998 0.0231 0.13113 0 0.20055-0.0454 0.0703-0.0454 0.0703-0.13026 0-0.0874-0.072-0.13199-0.0711-0.0454-0.21083-0.0454h-0.13198v-0.21254h0.13884q0.12427 0 0.18512-0.0386 0.0609-0.0394 0.0609-0.11913 0-0.0737-0.0591-0.11398-0.0591-0.0403-0.16712-0.0403-0.0797 0-0.16112 0.018-0.0814 0.018-0.16198 0.0531v-0.24168q0.0977-0.0274 0.19369-0.0411 0.096-0.0137 0.18854-0.0137 0.2494 0 0.37281 0.0823 0.12427 0.0814 0.12427 0.24597 0 0.11227-0.0591 0.18426-0.0591 0.0711-0.17484 0.10028z"/>
    </g>
   </g>
   <g transform="translate(-39.044 -6.761)">
    <rect x="250.4" y="379.77" width="3.9417" height="1.9916" rx=".047399" ry=".023128"/>
    <g transform="scale(1.0397 .96177)" fill="#fff">
     <path d="m241.67 396.3h0.29139v-0.82704l-0.2991 0.0617v-0.22455l0.29739-0.0617h0.31367v1.0516h0.29139v0.22797h-0.89474v-0.22797z"/>
     <path d="m242.87 395.25h0.82018v0.24254h-0.55707v0.19797q0.0377-0.0103 0.0754-0.0154 0.0386-6e-3 0.0797-6e-3 0.23397 0 0.36424 0.11741 0.13027 0.11656 0.13027 0.32567 0 0.2074-0.14227 0.32482-0.14141 0.11741-0.39337 0.11741-0.10885 0-0.21598-0.0214-0.10627-0.0206-0.21168-0.0634v-0.25968q0.10455 0.06 0.19797 0.09 0.0943 0.03 0.17741 0.03 0.11998 0 0.18854-0.0583 0.0694-0.0591 0.0694-0.15941 0-0.10113-0.0694-0.15941-0.0686-0.0583-0.18854-0.0583-0.0711 0-0.1517 0.0188-0.0806 0.018-0.17312 0.0566v-0.7199z"/>
    </g>
   </g>
   <g transform="translate(-31.483 -6.761)">
    <rect x="250.4" y="379.77" width="3.9417" height="1.9916" rx=".047399" ry=".023128"/>
    <g transform="scale(1.0397 .96177)" fill="#fff">
     <path d="m241.67 396.3h0.29139v-0.82704l-0.2991 0.0617v-0.22455l0.29739-0.0617h0.31367v1.0516h0.29139v0.22797h-0.89474v-0.22797z"/>
     <path d="m242.8 395.25h0.96416v0.18597l-0.49879 1.0936h-0.32139l0.47222-1.037h-0.6162v-0.24254z"/>
    </g>
   </g>
   <g transform="translate(-23.922 -6.761)">
    <rect x="250.4" y="379.77" width="3.9417" height="1.9916" rx=".047399" ry=".023128"/>
    <g transform="scale(1.0397 .96177)" fill="#fff">
     <path d="m241.67 396.3h0.29139v-0.82704l-0.2991 0.0617v-0.22455l0.29739-0.0617h0.31367v1.0516h0.29139v0.22797h-0.89474v-0.22797z"/>
     <path d="m242.86 396.5v-0.23654q0.0788 0.0369 0.15083 0.0557 0.072 0.018 0.14227 0.018 0.14741 0 0.22969-0.0814 0.0823-0.0823 0.0968-0.2434-0.0583 0.0428-0.12427 0.0643-0.066 0.0214-0.14312 0.0214-0.19626 0-0.31711-0.11399-0.11998-0.11484-0.11998-0.30167 0-0.20655 0.1337-0.33082 0.13455-0.12427 0.35995-0.12427 0.25025 0 0.38738 0.16884 0.13712 0.16883 0.13712 0.47736 0 0.31711-0.16026 0.4988-0.16027 0.18083-0.43966 0.18083-0.09 0-0.17226-0.0137-0.0823-0.0129-0.16112-0.0394zm0.40709-0.6162q0.0866 0 0.13027-0.0557 0.0437-0.0566 0.0437-0.16883 0-0.11142-0.0437-0.16798-0.0437-0.0566-0.13027-0.0566-0.0866 0-0.13027 0.0566-0.0437 0.0566-0.0437 0.16798 0 0.11227 0.0437 0.16883 0.0437 0.0557 0.13027 0.0557z"/>
    </g>
   </g>
   <g transform="translate(-16.362 -6.761)">
    <rect x="250.4" y="379.77" width="3.9417" height="1.9916" rx=".047399" ry=".023128"/>
    <g transform="scale(1.0397 .96177)" fill="#fff">
     <path d="m241.97 396.29h0.56307v0.24254h-0.92988v-0.24254l0.46708-0.41224q0.0626-0.0566 0.0926-0.11055 0.03-0.054 0.03-0.11227 0-0.09-0.0609-0.14484-0.06-0.0548-0.16027-0.0548-0.0771 0-0.16883 0.0334-0.0917 0.0326-0.19626 0.0977v-0.2811q0.11141-0.0369 0.22026-0.0557 0.10884-0.0197 0.2134-0.0197 0.22968 0 0.35652 0.10113 0.1277 0.10113 0.1277 0.28196 0 0.10456-0.054 0.1954-0.054 0.09-0.22712 0.24169l-0.27339 0.23997z"/>
     <path d="m242.89 396.3h0.29139v-0.82704l-0.2991 0.0617v-0.22455l0.29739-0.0617h0.31367v1.0516h0.29139v0.22797h-0.89474v-0.22797z"/>
    </g>
   </g>
   <g transform="translate(-8.8021 -6.761)">
    <rect x="250.4" y="379.77" width="3.9417" height="1.9916" rx=".047399" ry=".023128"/>
    <g transform="scale(1.0397 .96177)" fill="#fff">
     <path d="m241.97 396.29h0.56307v0.24254h-0.92988v-0.24254l0.46708-0.41224q0.0626-0.0566 0.0926-0.11055 0.03-0.054 0.03-0.11227 0-0.09-0.0609-0.14484-0.06-0.0548-0.16027-0.0548-0.0771 0-0.16883 0.0334-0.0917 0.0326-0.19626 0.0977v-0.2811q0.11141-0.0369 0.22026-0.0557 0.10884-0.0197 0.2134-0.0197 0.22968 0 0.35652 0.10113 0.1277 0.10113 0.1277 0.28196 0 0.10456-0.054 0.1954-0.054 0.09-0.22712 0.24169l-0.27339 0.23997z"/>
     <path d="m243.5 395.84q0.12942 0.0334 0.19626 0.11655 0.0677 0.0823 0.0677 0.20997 0 0.19027-0.1457 0.28968-0.14569 0.0986-0.42508 0.0986-0.0986 0-0.19798-0.0163-0.0986-0.0154-0.1954-0.0471v-0.25454q0.0926 0.0463 0.1834 0.0703 0.0917 0.0231 0.17998 0.0231 0.13113 0 0.20055-0.0454 0.0703-0.0454 0.0703-0.13026 0-0.0874-0.072-0.13199-0.0711-0.0454-0.21083-0.0454h-0.13198v-0.21254h0.13884q0.12427 0 0.18512-0.0386 0.0609-0.0394 0.0609-0.11913 0-0.0737-0.0591-0.11398-0.0591-0.0403-0.16712-0.0403-0.0797 0-0.16112 0.018-0.0814 0.018-0.16198 0.0531v-0.24168q0.0977-0.0274 0.19369-0.0411 0.096-0.0137 0.18854-0.0137 0.2494 0 0.37281 0.0823 0.12427 0.0814 0.12427 0.24597 0 0.11227-0.0591 0.18426-0.0591 0.0711-0.17484 0.10028z"/>
    </g>
   </g>
   <g transform="translate(21.697 -6.9374)">
    <g transform="translate(-111.24 17.59)">
     <rect x="250.4" y="379.77" width="3.9417" height="1.9916" rx=".047399" ry=".023128"/>
     <g transform="scale(1.0397 .96177)">
      <path d="m242.58 396.29h0.56307v0.24254h-0.92988v-0.24254l0.46708-0.41224q0.0626-0.0566 0.0926-0.11055 0.03-0.054 0.03-0.11227 0-0.09-0.0608-0.14484-0.06-0.0548-0.16027-0.0548-0.0771 0-0.16883 0.0334-0.0917 0.0326-0.19626 0.0977v-0.2811q0.11141-0.0369 0.22025-0.0557 0.10885-0.0197 0.2134-0.0197 0.22969 0 0.35653 0.10113 0.1277 0.10113 0.1277 0.28196 0 0.10456-0.054 0.1954-0.054 0.09-0.22711 0.24169l-0.27339 0.23997z" fill="#fff"/>
     </g>
    </g>
    <g transform="translate(-103.29 17.59)">
     <rect x="250.4" y="379.77" width="3.9417" height="1.9916" rx=".047399" ry=".023128"/>
     <g transform="scale(1.0397 .96177)">
      <path d="m242.72 395.52-0.36167 0.53564h0.36167v-0.53564zm-0.0549-0.27168h0.36681v0.80732h0.18255v0.23911h-0.18255v0.23312h-0.31196v-0.23312h-0.56735v-0.28282l0.5125-0.76361z" fill="#fff"/>
     </g>
    </g>
    <g transform="translate(-95.733 17.59)">
     <rect x="250.4" y="379.77" width="3.9417" height="1.9916" rx=".047399" ry=".023128"/>
     <g transform="scale(1.0397 .96177)">
      <path d="m242.71 395.9q-0.0866 0-0.13027 0.0566-0.0428 0.0557-0.0428 0.16798 0 0.11227 0.0428 0.16883 0.0437 0.0557 0.13027 0.0557 0.0874 0 0.13027-0.0557 0.0437-0.0566 0.0437-0.16883 0-0.11228-0.0437-0.16798-0.0428-0.0566-0.13027-0.0566zm0.40795-0.61449v0.23654q-0.0814-0.0386-0.15341-0.0566-0.072-0.0189-0.14056-0.0189-0.14741 0-0.22968 0.0823-0.0823 0.0814-0.096 0.24254 0.0566-0.042 0.12256-0.0626 0.066-0.0214 0.14398-0.0214 0.19626 0 0.31624 0.11484 0.12085 0.11484 0.12085 0.30082 0 0.20569-0.13456 0.32996-0.13455 0.12341-0.36081 0.12341-0.2494 0-0.38652-0.16798-0.13627-0.16883-0.13627-0.47822 0-0.3171 0.15941-0.49794 0.16026-0.18169 0.4388-0.18169 0.0883 0 0.17141 0.0137 0.0831 0.0137 0.16455 0.0411z" fill="#fff"/>
     </g>
    </g>
    <g transform="translate(-88.173 17.59)">
     <rect x="250.4" y="379.77" width="3.9417" height="1.9916" rx=".047399" ry=".023128"/>
     <g transform="scale(1.0397 .96177)">
      <path d="m242.69 395.96q-0.0926 0-0.14227 0.0506-0.0497 0.0506-0.0497 0.14484 0 0.0943 0.0497 0.14484 0.0497 0.0497 0.14227 0.0497 0.0917 0 0.14056-0.0497 0.0488-0.0506 0.0488-0.14484 0-0.0951-0.0488-0.14484-0.0489-0.0506-0.14056-0.0506zm-0.24082-0.10884q-0.11656-0.0351-0.1757-0.10799-0.0591-0.0729-0.0591-0.18169 0-0.16198 0.12084-0.24683 0.12084-0.0848 0.35481-0.0848 0.23226 0 0.3531 0.0848 0.12084 0.084 0.12084 0.24683 0 0.10884-0.06 0.18169-0.0591 0.0729-0.17569 0.10799 0.13027 0.036 0.19626 0.11741 0.0668 0.0806 0.0668 0.20397 0 0.19026-0.12684 0.28797-0.12599 0.0968-0.37453 0.0968-0.24939 0-0.37709-0.0968-0.12684-0.0977-0.12684-0.28797 0-0.12341 0.066-0.20397 0.0669-0.0814 0.19712-0.11741zm0.0771-0.25626q0 0.0763 0.042 0.11742 0.0429 0.0411 0.1217 0.0411 0.0771 0 0.11913-0.0411 0.042-0.0411 0.042-0.11742 0-0.0763-0.042-0.11655-0.042-0.0411-0.11913-0.0411-0.0788 0-0.1217 0.0411-0.042 0.0411-0.042 0.11655z" fill="#fff"/>
     </g>
    </g>
    <g transform="translate(-80.612 17.59)">
     <rect x="250.4" y="379.77" width="3.9417" height="1.9916" rx=".047399" ry=".023128"/>
     <g transform="scale(1.0397 .96177)" fill="#fff">
      <path d="m241.67 396.3h0.29139v-0.82704l-0.2991 0.0617v-0.22455l0.29739-0.0617h0.31367v1.0516h0.29139v0.22797h-0.89474v-0.22797z"/>
      <path d="m243.49 395.89q0-0.23997-0.0454-0.33767-0.0446-0.0986-0.15084-0.0986-0.10627 0-0.1517 0.0986-0.0454 0.0977-0.0454 0.33767 0 0.24254 0.0454 0.34195 0.0454 0.0994 0.1517 0.0994 0.10541 0 0.15084-0.0994 0.0454-0.0994 0.0454-0.34195zm0.32996 3e-3q0 0.31796-0.13713 0.49108-0.13712 0.17226-0.38909 0.17226-0.25283 0-0.38995-0.17226-0.13713-0.17312-0.13713-0.49108 0-0.31882 0.13713-0.49108 0.13712-0.17312 0.38995-0.17312 0.25197 0 0.38909 0.17312 0.13713 0.17226 0.13713 0.49108z"/>
     </g>
    </g>
    <g transform="translate(-73.414 17.59)">
     <rect x="250.4" y="379.77" width="3.9417" height="1.9916" rx=".047399" ry=".023128"/>
     <g transform="scale(1.0397 .96177)" fill="#fff">
      <path d="m241.67 396.3h0.29139v-0.82704l-0.2991 0.0617v-0.22455l0.29739-0.0617h0.31367v1.0516h0.29139v0.22797h-0.89474v-0.22797z"/>
      <path d="m243.19 396.29h0.56307v0.24254h-0.92988v-0.24254l0.46709-0.41224q0.0626-0.0566 0.0926-0.11055 0.03-0.054 0.03-0.11227 0-0.09-0.0608-0.14484-0.06-0.0548-0.16026-0.0548-0.0771 0-0.16884 0.0334-0.0917 0.0326-0.19626 0.0977v-0.2811q0.11142-0.0369 0.22026-0.0557 0.10884-0.0197 0.2134-0.0197 0.22969 0 0.35653 0.10113 0.12769 0.10113 0.12769 0.28196 0 0.10456-0.054 0.1954-0.054 0.09-0.22711 0.24169l-0.2734 0.23997z"/>
     </g>
    </g>
    <g transform="translate(-64.682 17.59)">
     <rect x="250.4" y="379.77" width="3.9417" height="1.9916" rx=".047399" ry=".023128"/>
     <g transform="scale(1.0397 .96177)" fill="#fff">
      <path d="m241.67 396.3h0.29139v-0.82704l-0.2991 0.0617v-0.22455l0.29739-0.0617h0.31367v1.0516h0.29139v0.22797h-0.89474v-0.22797z"/>
      <path d="m243.33 395.52-0.36167 0.53564h0.36167v-0.53564zm-0.0548-0.27168h0.36681v0.80732h0.18254v0.23911h-0.18254v0.23312h-0.31196v-0.23312h-0.56736v-0.28282l0.51251-0.76361z"/>
     </g>
    </g>
    <g transform="translate(-56.734 17.59)">
     <rect x="250.4" y="379.77" width="3.9417" height="1.9916" rx=".047399" ry=".023128"/>
     <g transform="scale(1.0397 .96177)" fill="#fff">
      <path d="m241.67 396.3h0.29139v-0.82704l-0.2991 0.0617v-0.22455l0.29739-0.0617h0.31367v1.0516h0.29139v0.22797h-0.89474v-0.22797z"/>
      <path d="m243.32 395.9q-0.0866 0-0.13027 0.0566-0.0428 0.0557-0.0428 0.16798 0 0.11227 0.0428 0.16883 0.0437 0.0557 0.13027 0.0557 0.0874 0 0.13026-0.0557 0.0437-0.0566 0.0437-0.16883 0-0.11228-0.0437-0.16798-0.0429-0.0566-0.13026-0.0566zm0.40794-0.61449v0.23654q-0.0814-0.0386-0.15341-0.0566-0.072-0.0189-0.14055-0.0189-0.14741 0-0.22968 0.0823-0.0823 0.0814-0.096 0.24254 0.0566-0.042 0.12255-0.0626 0.066-0.0214 0.14399-0.0214 0.19626 0 0.31624 0.11484 0.12084 0.11484 0.12084 0.30082 0 0.20569-0.13455 0.32996-0.13456 0.12341-0.36081 0.12341-0.2494 0-0.38652-0.16798-0.13627-0.16883-0.13627-0.47822 0-0.3171 0.15941-0.49794 0.16026-0.18169 0.4388-0.18169 0.0883 0 0.1714 0.0137t0.16455 0.0411z"/>
     </g>
    </g>
    <g transform="translate(-49.173 17.59)">
     <rect x="250.4" y="379.77" width="3.9417" height="1.9916" rx=".047399" ry=".023128"/>
     <g transform="scale(1.0397 .96177)" fill="#fff">
      <path d="m241.67 396.3h0.29139v-0.82704l-0.2991 0.0617v-0.22455l0.29739-0.0617h0.31367v1.0516h0.29139v0.22797h-0.89474v-0.22797z"/>
      <path d="m243.3 395.96q-0.0926 0-0.14227 0.0506-0.0497 0.0506-0.0497 0.14484 0 0.0943 0.0497 0.14484 0.0497 0.0497 0.14227 0.0497 0.0917 0 0.14055-0.0497 0.0488-0.0506 0.0488-0.14484 0-0.0951-0.0488-0.14484-0.0489-0.0506-0.14055-0.0506zm-0.24083-0.10884q-0.11655-0.0351-0.17569-0.10799-0.0591-0.0729-0.0591-0.18169 0-0.16198 0.12084-0.24683 0.12084-0.0848 0.35481-0.0848 0.23225 0 0.3531 0.0848 0.12084 0.084 0.12084 0.24683 0 0.10884-0.06 0.18169-0.0591 0.0729-0.1757 0.10799 0.13027 0.036 0.19626 0.11741 0.0668 0.0806 0.0668 0.20397 0 0.19026-0.12684 0.28797-0.12598 0.0968-0.37452 0.0968-0.2494 0-0.3771-0.0968-0.12684-0.0977-0.12684-0.28797 0-0.12341 0.066-0.20397 0.0668-0.0814 0.19711-0.11741zm0.0771-0.25626q0 0.0763 0.042 0.11742 0.0428 0.0411 0.1217 0.0411 0.0771 0 0.11913-0.0411 0.042-0.0411 0.042-0.11742 0-0.0763-0.042-0.11655-0.042-0.0411-0.11913-0.0411-0.0789 0-0.1217 0.0411-0.042 0.0411-0.042 0.11655z"/>
     </g>
    </g>
    <g transform="translate(-41.613 17.59)">
     <rect x="250.4" y="379.77" width="3.9417" height="1.9916" rx=".047399" ry=".023128"/>
     <g transform="scale(1.0397 .96177)" fill="#fff">
      <path d="m241.97 396.29h0.56307v0.24254h-0.92988v-0.24254l0.46708-0.41224q0.0626-0.0566 0.0926-0.11055 0.03-0.054 0.03-0.11227 0-0.09-0.0609-0.14484-0.06-0.0548-0.16027-0.0548-0.0771 0-0.16883 0.0334-0.0917 0.0326-0.19626 0.0977v-0.2811q0.11141-0.0369 0.22026-0.0557 0.10884-0.0197 0.2134-0.0197 0.22968 0 0.35652 0.10113 0.1277 0.10113 0.1277 0.28196 0 0.10456-0.054 0.1954-0.054 0.09-0.22712 0.24169l-0.27339 0.23997z"/>
      <path d="m243.49 395.89q0-0.23997-0.0454-0.33767-0.0446-0.0986-0.15084-0.0986-0.10627 0-0.1517 0.0986-0.0454 0.0977-0.0454 0.33767 0 0.24254 0.0454 0.34195 0.0454 0.0994 0.1517 0.0994 0.10541 0 0.15084-0.0994 0.0454-0.0994 0.0454-0.34195zm0.32996 3e-3q0 0.31796-0.13713 0.49108-0.13712 0.17226-0.38909 0.17226-0.25283 0-0.38995-0.17226-0.13713-0.17312-0.13713-0.49108 0-0.31882 0.13713-0.49108 0.13712-0.17312 0.38995-0.17312 0.25197 0 0.38909 0.17312 0.13713 0.17226 0.13713 0.49108z"/>
     </g>
    </g>
    <g transform="translate(-34.052 17.59)">
     <rect x="250.4" y="379.77" width="3.9417" height="1.9916" rx=".047399" ry=".023128"/>
     <g transform="scale(1.0397 .96177)" fill="#fff">
      <path d="m241.97 396.29h0.56307v0.24254h-0.92988v-0.24254l0.46708-0.41224q0.0626-0.0566 0.0926-0.11055 0.03-0.054 0.03-0.11227 0-0.09-0.0609-0.14484-0.06-0.0548-0.16027-0.0548-0.0771 0-0.16883 0.0334-0.0917 0.0326-0.19626 0.0977v-0.2811q0.11141-0.0369 0.22026-0.0557 0.10884-0.0197 0.2134-0.0197 0.22968 0 0.35652 0.10113 0.1277 0.10113 0.1277 0.28196 0 0.10456-0.054 0.1954-0.054 0.09-0.22712 0.24169l-0.27339 0.23997z"/>
      <path d="m243.19 396.29h0.56307v0.24254h-0.92988v-0.24254l0.46709-0.41224q0.0626-0.0566 0.0926-0.11055 0.03-0.054 0.03-0.11227 0-0.09-0.0608-0.14484-0.06-0.0548-0.16026-0.0548-0.0771 0-0.16884 0.0334-0.0917 0.0326-0.19626 0.0977v-0.2811q0.11142-0.0369 0.22026-0.0557 0.10884-0.0197 0.2134-0.0197 0.22969 0 0.35653 0.10113 0.12769 0.10113 0.12769 0.28196 0 0.10456-0.054 0.1954-0.054 0.09-0.22711 0.24169l-0.2734 0.23997z"/>
     </g>
    </g>
    <g transform="translate(-26.492 17.59)">
     <rect x="250.4" y="379.77" width="3.9417" height="1.9916" rx=".047399" ry=".023128"/>
     <g transform="scale(1.0397 .96177)" fill="#fff">
      <path d="m241.97 396.29h0.56307v0.24254h-0.92988v-0.24254l0.46708-0.41224q0.0626-0.0566 0.0926-0.11055 0.03-0.054 0.03-0.11227 0-0.09-0.0609-0.14484-0.06-0.0548-0.16027-0.0548-0.0771 0-0.16883 0.0334-0.0917 0.0326-0.19626 0.0977v-0.2811q0.11141-0.0369 0.22026-0.0557 0.10884-0.0197 0.2134-0.0197 0.22968 0 0.35652 0.10113 0.1277 0.10113 0.1277 0.28196 0 0.10456-0.054 0.1954-0.054 0.09-0.22712 0.24169l-0.27339 0.23997z"/>
      <path d="m243.33 395.52-0.36167 0.53564h0.36167v-0.53564zm-0.0548-0.27168h0.36681v0.80732h0.18254v0.23911h-0.18254v0.23312h-0.31196v-0.23312h-0.56736v-0.28282l0.51251-0.76361z"/>
     </g>
    </g>
   </g>
  </g>
  <g>
   <rect x="70.467" y="379.21" width="6.1054" height="1.1333" rx=".31642" ry=".1544" fill="#00ff1f"/>
   <rect x="70.467" y="381.26" width="6.1054" height="1.1333" rx=".31642" ry=".1544" fill="#838383"/>
   <ellipse cx="73.497" cy="384.21" rx=".76392" ry=".76344" fill="#838383"/>
  </g>
  <g transform="translate(.36501 -.52)">
   <path d="m71.657 377.52c-0.02159 0-0.04309-4.1e-4 -0.06454-7.9e-4l0.44389-1.2199h0.61088c0.10722 0 0.22493-0.0824 0.2616-0.18314l0.48159-1.3228c0.07878-0.21657-0.04526-0.39375-0.27571-0.39375h-0.84749l-0.71109 1.954h-2.03e-4l-0.40312 1.1077c-0.9564-0.22738-1.6678-1.0871-1.6678-2.1131 0-0.99637 0.67093-1.836 1.5856-2.0919l-0.41595 1.1433h-1.14e-4l-0.6915 1.8997 0.46033 4e-5 0.58807-1.6142h0.34596l-0.58807 1.6142 0.46016 8e-5 0.54802-1.506c0.07884-0.21657-0.04522-0.39375-0.27546-0.39375h-0.38696l0.44432-1.2212c0.03239-2e-3 0.0649-2e-3 0.09762-2e-3 1.1996 0 2.172 0.97244 2.172 2.172 0 1.1996-0.97245 2.172-2.172 2.172zm1.3142-2.8363h-0.34587l-0.48435 1.329h0.34588l0.48434-1.329z" fill="#1a1a1a"/>
   <path d="m71.574 377.44c-0.02159 0-0.04309-4.1e-4 -0.06454-7.9e-4l0.44389-1.2199h0.61088c0.10722 0 0.22493-0.0824 0.2616-0.18314l0.48159-1.3228c0.07878-0.21657-0.04526-0.39375-0.27571-0.39375h-0.84749l-0.71109 1.954h-2.03e-4l-0.40312 1.1077c-0.9564-0.22738-1.6678-1.0871-1.6678-2.1131 0-0.99637 0.67093-1.836 1.5856-2.0919l-0.41595 1.1433h-1.14e-4l-0.6915 1.8997 0.46033 4e-5 0.58807-1.6142h0.34596l-0.58807 1.6142 0.46016 8e-5 0.54802-1.506c0.07884-0.21657-0.04522-0.39375-0.27546-0.39375h-0.38696l0.44432-1.2212c0.03239-2e-3 0.0649-2e-3 0.09762-2e-3 1.1996 0 2.172 0.97244 2.172 2.172 0 1.1996-0.97245 2.172-2.172 2.172zm1.3142-2.8363h-0.34587l-0.48435 1.329h0.34588l0.48434-1.329z" fill="#ccc"/>
  </g>
  <g transform="scale(1.0394 .96208)" fill="#fff">
   <path d="m76.408 390.68v0.2376q-0.09248-0.0414-0.18045-0.0624-0.08797-0.0211-0.16616-0.0211-0.10376 0-0.15338 0.0286-0.04962 0.0286-0.04962 0.0887 0 0.0451 0.03308 0.0707 0.03383 0.0248 0.1218 0.0428l0.12331 0.0248q0.18722 0.0376 0.26616 0.11429 0.07895 0.0767 0.07895 0.21804 0 0.18572-0.11052 0.27669-0.10977 0.0902-0.33609 0.0902-0.10677 0-0.21428-0.0203t-0.21504-0.0601v-0.24436q0.10752 0.0571 0.20752 0.0865 0.10075 0.0286 0.19398 0.0286 0.09474 0 0.14511-0.0316 0.05037-0.0316 0.05037-0.0902 0-0.0526-0.03459-0.0812-0.03383-0.0286-0.13609-0.0511l-0.11203-0.0248q-0.16842-0.0361-0.24661-0.11504-0.07744-0.0789-0.07744-0.21278 0-0.16766 0.10827-0.25789 0.10827-0.0902 0.31128-0.0902 0.09248 0 0.19022 0.0143 0.09774 0.0135 0.20225 0.0414z" style=""/>
   <path d="m76.649 390.92h0.26165l0.14135 0.58045 0.1421-0.58045h0.22481l0.14135 0.57444 0.1421-0.57444h0.26165l-0.2218 0.8421h-0.29398l-0.1421-0.57894-0.14135 0.57894h-0.29398l-0.2218-0.8421z" style=""/>
   <path d="m78.147 390.92h0.26917v0.8421h-0.26917v-0.8421zm0-0.32781h0.26917v0.21955h-0.26917v-0.21955z" style=""/>
   <path d="m78.97 390.68v0.23909h0.27744v0.19248h-0.27744v0.35714q0 0.0587 0.02331 0.0797 0.02331 0.0203 0.09248 0.0203h0.13834v0.19248h-0.23082q-0.1594 0-0.22631-0.0662-0.06616-0.0669-0.06616-0.22632v-0.35714h-0.13383v-0.19248h0.13383v-0.23909h0.26917z" style=""/>
   <path d="m80.094 390.95v0.21955q-0.05489-0.0376-0.11052-0.0556-0.05489-0.0181-0.11428-0.0181-0.11278 0-0.17594 0.0662-0.0624 0.0654-0.0624 0.18346 0 0.11804 0.0624 0.1842 0.06316 0.0654 0.17594 0.0654 0.06316 0 0.11955-0.0188 0.05714-0.0188 0.10526-0.0556v0.2203q-0.06316 0.0233-0.12857 0.0346-0.06466 0.012-0.13007 0.012-0.22782 0-0.35639-0.11654-0.12857-0.1173-0.12857-0.32556 0-0.20827 0.12857-0.32481 0.12857-0.1173 0.35639-0.1173 0.06616 0 0.13007 0.012 0.06466 0.0113 0.12857 0.0346z" style=""/>
   <path d="m81.174 391.25v0.51277h-0.27067v-0.0835-0.30751q0-0.11053-0.0053-0.15188-0.0045-0.0413-0.01654-0.0609-0.01579-0.0263-0.04286-0.0406-0.02707-0.015-0.06165-0.015-0.08421 0-0.13233 0.0654-0.04812 0.0647-0.04812 0.1797v0.41428h-0.26917v-1.1699h0.26917v0.45112q0.0609-0.0737 0.12932-0.10827 0.06842-0.0353 0.15113-0.0353 0.14586 0 0.22105 0.0895 0.07594 0.0895 0.07594 0.26015z" style=""/>
  </g>
  <g transform="translate(-23.751 -1.1351)">
   <g transform="translate(26.175 .16525)">
    <rect x="280.34" y="374.28" width="3.9417" height="1.9916" rx=".047399" ry=".023128"/>
    <g transform="scale(1.0397 .96177)" fill="#fff">
     <path d="m270.76 390.58h0.56307v0.24254h-0.92988v-0.24254l0.46708-0.41223q0.0626-0.0566 0.0926-0.11056 0.03-0.054 0.03-0.11227 0-0.09-0.0609-0.14484-0.06-0.0548-0.16027-0.0548-0.0771 0-0.16883 0.0334-0.0917 0.0326-0.19626 0.0977v-0.28111q0.11141-0.0369 0.22025-0.0557 0.10885-0.0197 0.2134-0.0197 0.22969 0 0.35653 0.10113 0.1277 0.10113 0.1277 0.28197 0 0.10455-0.054 0.1954-0.054 0.09-0.22711 0.24168l-0.27339 0.23997z"/>
     <path d="m271.66 389.54h0.82018v0.24254h-0.55707v0.19798q0.0377-0.0103 0.0754-0.0154 0.0386-6e-3 0.0797-6e-3 0.23397 0 0.36424 0.11741 0.13027 0.11656 0.13027 0.32568 0 0.2074-0.14227 0.32481-0.14141 0.11742-0.39338 0.11742-0.10884 0-0.21597-0.0214-0.10627-0.0206-0.21169-0.0634v-0.25968q0.10456 0.06 0.19798 0.09 0.0943 0.03 0.1774 0.03 0.11999 0 0.18855-0.0583 0.0694-0.0591 0.0694-0.1594 0-0.10113-0.0694-0.15941-0.0686-0.0583-0.18855-0.0583-0.0711 0-0.15169 0.0189-0.0806 0.018-0.17312 0.0566v-0.71991z"/>
    </g>
   </g>
   <g transform="translate(24.579 1.4777)">
    <rect x="281.94" y="390.38" width="3.9417" height="1.9916" rx=".047399" ry=".023128"/>
    <g transform="scale(1.0397 .96177)" fill="#fff">
     <path d="m272.3 407.32h0.56307v0.24254h-0.92988v-0.24254l0.46708-0.41223q0.0626-0.0566 0.0926-0.11056 0.03-0.054 0.03-0.11227 0-0.09-0.0609-0.14484-0.06-0.0548-0.16026-0.0548-0.0771 0-0.16884 0.0334-0.0917 0.0326-0.19626 0.0977v-0.28111q0.11141-0.0368 0.22026-0.0557 0.10884-0.0197 0.2134-0.0197 0.22968 0 0.35652 0.10113 0.1277 0.10113 0.1277 0.28197 0 0.10455-0.054 0.1954-0.054 0.09-0.22711 0.24168l-0.2734 0.23997z"/>
     <path d="m273.65 406.93q-0.0866 0-0.13027 0.0566-0.0429 0.0557-0.0429 0.16798 0 0.11227 0.0429 0.16884 0.0437 0.0557 0.13027 0.0557 0.0874 0 0.13027-0.0557 0.0437-0.0566 0.0437-0.16884 0-0.11227-0.0437-0.16798-0.0429-0.0566-0.13027-0.0566zm0.40794-0.61449v0.23654q-0.0814-0.0386-0.1534-0.0566-0.072-0.0189-0.14056-0.0189-0.14741 0-0.22968 0.0823-0.0823 0.0814-0.096 0.24254 0.0566-0.042 0.12256-0.0626 0.066-0.0214 0.14398-0.0214 0.19626 0 0.31624 0.11484 0.12084 0.11484 0.12084 0.30082 0 0.20568-0.13455 0.32995-0.13455 0.12342-0.36081 0.12342-0.2494 0-0.38652-0.16798-0.13627-0.16884-0.13627-0.47823 0-0.3171 0.15941-0.49793 0.16026-0.18169 0.4388-0.18169 0.0883 0 0.1714 0.0137t0.16455 0.0411z"/>
    </g>
   </g>
   <g transform="translate(23.114 .67971)">
    <rect x="294.7" y="391.18" width="3.9417" height="1.9916" rx=".047399" ry=".023128"/>
    <g transform="scale(1.0397 .96177)" fill="#fff">
     <path d="m284.58 408.15h0.56307v0.24254h-0.92988v-0.24254l0.46709-0.41223q0.0626-0.0566 0.0926-0.11056 0.03-0.054 0.03-0.11227 0-0.09-0.0609-0.14483-0.06-0.0548-0.16026-0.0548-0.0771 0-0.16884 0.0334-0.0917 0.0326-0.19626 0.0977v-0.28111q0.11142-0.0369 0.22026-0.0557 0.10884-0.0197 0.2134-0.0197 0.22968 0 0.35653 0.10113 0.12769 0.10113 0.12769 0.28196 0 0.10456-0.054 0.1954-0.054 0.09-0.22711 0.24169l-0.2734 0.23996z"/>
     <path d="m285.9 407.82q-0.0926 0-0.14227 0.0506-0.0497 0.0506-0.0497 0.14484 0 0.0943 0.0497 0.14484 0.0497 0.0497 0.14227 0.0497 0.0917 0 0.14056-0.0497 0.0489-0.0506 0.0489-0.14484 0-0.0951-0.0489-0.14484-0.0489-0.0506-0.14056-0.0506zm-0.24082-0.10885q-0.11656-0.0351-0.1757-0.10798-0.0591-0.0729-0.0591-0.18169 0-0.16198 0.12084-0.24683 0.12084-0.0848 0.35481-0.0848 0.23226 0 0.3531 0.0848 0.12084 0.084 0.12084 0.24683 0 0.10884-0.06 0.18169-0.0591 0.0729-0.17569 0.10798 0.13027 0.036 0.19626 0.11742 0.0669 0.0806 0.0669 0.20397 0 0.19026-0.12684 0.28796-0.12599 0.0969-0.37453 0.0969-0.24939 0-0.37709-0.0969-0.12684-0.0977-0.12684-0.28796 0-0.12341 0.066-0.20397 0.0668-0.0814 0.19712-0.11742zm0.0771-0.25625q0 0.0763 0.042 0.11741 0.0429 0.0411 0.1217 0.0411 0.0771 0 0.11913-0.0411 0.042-0.0411 0.042-0.11741 0-0.0763-0.042-0.11656-0.042-0.0411-0.11913-0.0411-0.0788 0-0.1217 0.0411-0.042 0.0411-0.042 0.11656z"/>
    </g>
   </g>
   <g transform="translate(23.161 -.67972)">
    <rect x="294.66" y="375.12" width="3.9417" height="1.9916" rx=".047399" ry=".023128"/>
    <g transform="scale(1.0397 .96177)" fill="#fff">
     <path d="m284.53 391.46h0.56307v0.24254h-0.92988v-0.24254l0.46708-0.41223q0.0626-0.0566 0.0926-0.11056 0.03-0.054 0.03-0.11227 0-0.09-0.0608-0.14484-0.06-0.0549-0.16027-0.0549-0.0771 0-0.16883 0.0334-0.0917 0.0326-0.19626 0.0977v-0.28111q0.11141-0.0369 0.22025-0.0557 0.10885-0.0197 0.2134-0.0197 0.22969 0 0.35653 0.10113 0.1277 0.10113 0.1277 0.28197 0 0.10455-0.054 0.1954-0.054 0.09-0.22711 0.24168l-0.27339 0.23997z"/>
     <path d="m285.37 390.42h0.96416v0.18598l-0.4988 1.0936h-0.32138l0.47222-1.037h-0.6162v-0.24254z"/>
    </g>
   </g>
  </g>
  <g transform="translate(22.44 -20.475)">
   <rect x="260.32" y="396.34" width="15.245" height="14.297" rx=".16873" ry=".074248"/>
   <rect x="260.51" y="396.43" width="14.869" height="14.109" fill="#ebebeb"/>
   <g transform="translate(76.308 20.361)">
    <g transform="matrix(0 -1.3729 1.3727 0 -52.675 1019.4)">
     <rect x="464.5" y="172.66" width="3.9658" height="10.644"/>
     <polygon points="468.3 177.99 468.3 172.79 464.7 172.79 464.7 174.19 464.9 174.19 464.9 176.79 464.7 176.79 464.7 177.99"/>
     <polygon points="468.3 177.99 468.3 172.79 464.7 172.79 464.7 174.19 464.9 174.19 464.9 176.79 464.7 176.79 464.7 177.99" fill="none" stroke="#ebebeb" stroke-width=".1"/>
    </g>
    <g transform="matrix(0 -1.3729 1.3727 0 -45.082 1019.4)">
     <polygon transform="translate(0 -.3204)" points="468.3 172.79 464.7 172.79 464.7 174.19 464.9 174.19 464.9 176.79 464.7 176.79 464.7 177.99 468.3 177.99" fill="none" stroke="#ebebeb" stroke-width=".1"/>
    </g>
   </g>
   <g transform="matrix(-1 0 0 -1 459.69 786.73)">
    <g transform="matrix(0 -1.3729 1.3727 0 -52.675 1019.4)">
     <rect x="464.5" y="172.66" width="3.9658" height="10.644"/>
     <polygon points="464.7 177.99 468.3 177.99 468.3 172.79 464.7 172.79 464.7 174.19 464.9 174.19 464.9 176.79 464.7 176.79"/>
     <polygon points="464.7 177.99 468.3 177.99 468.3 172.79 464.7 172.79 464.7 174.19 464.9 174.19 464.9 176.79 464.7 176.79" fill="none" stroke="#ebebeb" stroke-width=".1"/>
    </g>
    <g transform="matrix(0 -1.3729 1.3727 0 -45.082 1019.4)">
     <polygon transform="translate(0 -.3204)" points="468.3 177.99 468.3 172.79 464.7 172.79 464.7 174.19 464.9 174.19 464.9 176.79 464.7 176.79 464.7 177.99" fill="none" stroke="#ebebeb" stroke-width=".1"/>
    </g>
   </g>
   <g transform="translate(76.41 20.588)" fill="#008000" fill-rule="evenodd" stroke="#008000" stroke-linecap="round" stroke-linejoin="round" stroke-width=".098574">
    <g transform="translate(.27778 25.762)">
     <path d="m184.73 356.56h0.83713l-0.41857 1.267z"/>
     <path d="m190.67 357.83h-0.83713l0.41857-1.267z"/>
     <path d="m187.27 357.83h-0.83713l0.41857-1.267z"/>
     <path d="m188.13 356.56h0.83713l-0.41857 1.267z"/>
    </g>
    <g transform="translate(7.431 25.762)">
     <path d="m184.73 356.56h0.83713l-0.41857 1.267z"/>
     <path d="m190.67 357.83h-0.83713l0.41857-1.267z"/>
     <path d="m187.27 357.83h-0.83713l0.41857-1.267z"/>
     <path d="m188.13 356.56h0.83713l-0.41857 1.267z"/>
    </g>
   </g>
  </g>
  <g transform="translate(4.7577 -17.647)">
   <g transform="matrix(1.0029 0 0 .56339 -24.772 292.03)">
    <path d="m110.68 204.3h3.7977c0.31236-0.0253 0.47172 0.26313 0.46384 0.53195v1.167c-0.0177 0.40759-0.69625 1.0145-1.2147 0.97148h-2.4609c-0.16724 0.0534-1.0983-0.60543-1.0629-1.0023v-1.1665c-0.0205-0.34162 0.30491-0.50905 0.47686-0.50159" fill="#e6e6e6"/>
    <path d="m110.82 204.48h3.492c0.37167-0.0222 0.41803 0.25189 0.41125 0.48766v1.0611c-0.0156 0.26619-0.58392 0.79942-1.0385 0.76155h-2.3058c-0.14683 0.0469-0.93886-0.53989-0.95768-0.7883v-1.0612c-0.0176-0.29936 0.24811-0.46751 0.3988-0.46085" fill="#1d1d1d"/>
    <g transform="matrix(.0060892 0 0 .0061268 99.791 230.08)">
     <path d="m1811.4-4178h573.48c61.03-3.61 68.63 41.12 67.53 79.61v173.18c-2.58 43.45-95.9 130.46-170.55 124.27h-378.69c-24.09 7.68-154.17-88.11-157.26-128.66v-173.19c-2.9-48.86 40.74-76.32 65.49-75.21z" fill="none" stroke="#000" stroke-width=".26401"/>
    </g>
    <path transform="matrix(.53109 0 0 .53109 35 368.35)" d="m144.09-307.32c-4e-3 -1.6e-4 -9e-3 2e-3 -0.0137 2e-3h-0.0117c-0.17447-7e-3 -0.45217 0.11055-0.43164 0.42579v1.0488c6e-3 0.0693 0.0738 0.16195 0.17187 0.25782 0.2624 0.2717 0.80298 0.59446 0.93164 0.55664h2.4942c0.52548 0.0402 1.2155-0.47741 1.2324-0.75782v-1.0781c8e-3 -0.24841-2e-3 -0.47824-0.43164-0.45508h-3.9414z" fill="#404040"/>
    <g fill="#070707">
     <path d="m111.56 205.87h0.1884v-0.41664h-0.1884v0.41664z"/>
     <path d="m112.01 205.87h0.18839v-0.41664h-0.18839v0.41664z"/>
     <path d="m112.48 205.87h0.18799v-0.41664h-0.18799v0.41664z"/>
     <path d="m112.96 205.87h0.18799v-0.41664h-0.18799v0.41664z"/>
     <path d="m113.42 205.87h0.18837v-0.41664h-0.18837v0.41664z"/>
    </g>
    <g fill="#ffac00">
     <path d="m111.59 205.14h0.0896v-0.13628h-0.0896v0.13628z"/>
     <path d="m112.06 205.14h0.0895v-0.13628h-0.0895v0.13628z"/>
     <path d="m112.52 205.14h0.0895v-0.13628h-0.0895v0.13628z"/>
     <path d="m113 205.14h0.0891v-0.13628h-0.0891v0.13628z"/>
     <path d="m113.47 205.14h0.0891v-0.13628h-0.0891v0.13628z"/>
     <path d="m111.6 205.78h0.10911v-0.23738h-0.10911v0.23738z"/>
     <path d="m112.06 205.76h0.0895v-0.19391h-0.0895v0.19391z"/>
     <path d="m112.53 205.76h0.0895v-0.19391h-0.0895v0.19391z"/>
     <path d="m113.01 205.76h0.0891v-0.19391h-0.0891v0.19391z"/>
     <path d="m113.47 205.76h0.0895v-0.19391h-0.0895v0.19391z"/>
    </g>
   </g>
   <g>
    <ellipse cx="77.391" cy="405.13" rx=".76392" ry=".76344"/>
    <circle cx="74.811" cy="409.99" r=".38838"/>
    <circle cx="79.971" cy="409.99" r=".38838"/>
   </g>
   <g transform="translate(-14.381 5.424)">
    <rect x="95.462" y="396.24" width="3.3193" height="1.9916" rx=".089249" ry=".043549"/>
    <g fill="#0f0" stroke-width="1px">
     <path d="m96.52 397.61h-0.47876l-0.07555 0.21632h-0.30778l0.43979-1.1874h0.36504l0.43979 1.1874h-0.30778l-0.07476-0.21632zm-0.40241-0.22029h0.32527l-0.16224-0.4724-0.16303 0.4724z"/>
     <path d="m97.75 396.96v0.23222q-0.05805-0.0398-0.11691-0.0589-0.05806-0.0191-0.12088-0.0191-0.11929 0-0.1861 0.07-0.06601 0.0692-0.06601 0.19405 0 0.12486 0.06601 0.19484 0.0668 0.0692 0.1861 0.0692 0.0668 0 0.12645-0.0199 0.06044-0.0199 0.11134-0.0589v0.23302q-0.0668 0.0247-0.13599 0.0366-0.0684 0.0127-0.13758 0.0127-0.24097 0-0.37696-0.12327-0.13599-0.12406-0.13599-0.34435 0-0.2203 0.13599-0.34357 0.13599-0.12406 0.37696-0.12406 0.06999 0 0.13758 0.0127 0.06839 0.0119 0.13599 0.0366z"/>
     <path d="m98.292 396.68v0.2529h0.29346v0.2036h-0.29346v0.37775q0 0.062 0.02465 0.0843 0.02465 0.0215 0.09782 0.0215h0.14633v0.20359h-0.24415q-0.1686 0-0.23938-0.07-0.06999-0.0708-0.06999-0.23939v-0.37775h-0.14156v-0.2036h0.14156v-0.2529h0.28471z"/>
    </g>
   </g>
   <g transform="translate(-10.297 19.131)">
    <rect x="91.461" y="384.9" width="3.3193" height="1.9916" rx=".089249" ry=".043549"/>
    <g fill="#666" stroke-width="1px">
     <path d="m91.636 385.3h0.8263v0.23143h-0.52012v0.22108h0.4891v0.23143h-0.4891v0.50342h-0.30618v-1.1874z"/>
     <path d="m92.87 385.53v0.7245h0.10975q0.18769 0 0.2863-0.0931 0.09941-0.0931 0.09941-0.2704 0-0.17655-0.09861-0.2688-0.09862-0.0922-0.2871-0.0922h-0.10975zm-0.30618-0.23143h0.32288q0.2704 0 0.40241 0.039 0.13281 0.0382 0.22745 0.13042 0.08351 0.0803 0.12406 0.1853 0.04056 0.10498 0.04056 0.23779 0 0.13441-0.04056 0.24018-0.04056 0.10498-0.12406 0.1853-0.09543 0.0923-0.22904 0.13122-0.13361 0.0382-0.40082 0.0382h-0.32288v-1.1874z"/>
     <path d="m93.942 386.03-0.3213-0.43502h0.30141l0.18212 0.26403 0.18451-0.26403h0.30141l-0.32129 0.43343 0.3372 0.45729h-0.30141l-0.20041-0.28153-0.19803 0.28153h-0.30141l0.3372-0.4557z"/>
    </g>
   </g>
   <g transform="translate(-10.297 19.131)">
    <rect x="91.467" y="387.41" width="3.3193" height="1.9916" rx=".089249" ry=".043549"/>
    <g fill="#4d4d4d" stroke-width="1px">
     <path d="m92.545 387.71v0.25131q-0.09782-0.0437-0.19087-0.066-0.09305-0.0223-0.17576-0.0223-0.10975 0-0.16224 0.0302-0.05249 0.0302-0.05249 0.0938 0 0.0477 0.03499 0.0748 0.03579 0.0262 0.12884 0.0453l0.13043 0.0263q0.19803 0.0398 0.28153 0.12088 0.08351 0.0811 0.08351 0.23063 0 0.19644-0.11691 0.29267-0.11611 0.0954-0.35549 0.0954-0.11293 0-0.22666-0.0215t-0.22745-0.0636v-0.25846q0.11372 0.0604 0.2195 0.0914 0.10657 0.0302 0.20518 0.0302 0.10021 0 0.15349-0.0334 0.05328-0.0334 0.05328-0.0954 0-0.0557-0.03658-0.0859-0.03579-0.0302-0.14395-0.0541l-0.1185-0.0262q-0.17814-0.0382-0.26085-0.12168-0.08191-0.0835-0.08191-0.22507 0-0.17735 0.11452-0.27278 0.11452-0.0954 0.32925-0.0954 0.09782 0 0.20121 0.0151 0.10339 0.0143 0.21393 0.0437z"/>
     <path d="m92.979 388.73v0.46763h-0.28471v-1.2295h0.28471v0.13043q0.05885-0.0779 0.13043-0.11453 0.07158-0.0374 0.16462-0.0374 0.16462 0 0.2704 0.13122 0.10577 0.13042 0.10577 0.3364t-0.10577 0.3372q-0.10577 0.13043-0.2704 0.13043-0.09305 0-0.16462-0.0366-0.07158-0.0374-0.13043-0.11532zm0.18928-0.57658q-0.09146 0-0.14077 0.0676-0.04851 0.0668-0.04851 0.19325t0.04851 0.19405q0.04931 0.0668 0.14077 0.0668 0.09146 0 0.13917-0.0668 0.04851-0.0668 0.04851-0.19405 0-0.12724-0.04851-0.19405-0.04772-0.0668-0.13917-0.0668z"/>
     <path d="m94.282 388.1v-0.47718h0.2863v1.2375h-0.2863v-0.12884q-0.05885 0.0787-0.12963 0.11532-0.07078 0.0366-0.16383 0.0366-0.16462 0-0.2704-0.13043-0.10577-0.13122-0.10577-0.3372t0.10577-0.3364q0.10577-0.13122 0.2704-0.13122 0.09225 0 0.16303 0.0374 0.07157 0.0366 0.13043 0.11453zm-0.18769 0.57658q0.09146 0 0.13918-0.0668 0.04851-0.0668 0.04851-0.19405 0-0.12724-0.04851-0.19405-0.04772-0.0668-0.13918-0.0668-0.09066 0-0.13918 0.0668-0.04772 0.0668-0.04772 0.19405t0.04772 0.19405q0.04851 0.0668 0.13918 0.0668z"/>
    </g>
   </g>
   <path d="m80.441 408.65h-3.0628v-1.6428" fill="none" stroke="#000" stroke-width=".15933"/>
   <path d="m80.441 401.55h-3.0687v1.6491" fill="none" stroke="#000" stroke-width=".14759"/>
  </g>
 </g>
</svg>
