<svg width="442" height="44.5" version="1.1" viewBox="66 376 442 44.5" xmlns="http://www.w3.org/2000/svg"><rect x="66.44" y="376.44" width="440.61" height="43.62" fill="#2f2524" stroke-width="2.1999"/><rect x="66.44" y="376.44" width="440.61" height="43.62" fill="none" stroke="#000" stroke-width=".8799"/><rect x="87.829" y="377.22" width="418.37" height="42.033" rx="1.2833" ry="1.1896" fill="#2f2524" stroke-width="2.1999"/><rect x="87.829" y="377.22" width="418.37" height="42.033" rx="1.2833" ry="1.1896" fill="none" stroke="#e7e7e7" stroke-linejoin="round" stroke-width=".43995"/><g transform="matrix(1.8764 0 0 1.8792 -53.281 -324.32)"><g transform="scale(1.0397 .96177)" fill="#fff"><path d="m270.76 390.58h0.56307v0.24254h-0.92988v-0.24254l0.46708-0.41223q0.0626-0.0566 0.0926-0.11056 0.03-0.054 0.03-0.11227 0-0.09-0.0609-0.14484-0.06-0.0548-0.16027-0.0548-0.0771 0-0.16883 0.0334-0.0917 0.0326-0.19626 0.0977v-0.28111q0.11141-0.0369 0.22025-0.0557 0.10885-0.0197 0.2134-0.0197 0.22969 0 0.35653 0.10113 0.1277 0.10113 0.1277 0.28197 0 0.10455-0.054 0.1954-0.054 0.09-0.22711 0.24168l-0.27339 0.23997z"/><path d="m271.66 389.54h0.82018v0.24254h-0.55707v0.19798q0.0377-0.0103 0.0754-0.0154 0.0386-6e-3 0.0797-6e-3 0.23397 0 0.36424 0.11741 0.13027 0.11656 0.13027 0.32568 0 0.2074-0.14227 0.32481-0.14141 0.11742-0.39338 0.11742-0.10884 0-0.21597-0.0214-0.10627-0.0206-0.21169-0.0634v-0.25968q0.10456 0.06 0.19798 0.09 0.0943 0.03 0.1774 0.03 0.11999 0 0.18855-0.0583 0.0694-0.0591 0.0694-0.1594 0-0.10113-0.0694-0.15941-0.0686-0.0583-0.18855-0.0583-0.0711 0-0.15169 0.0189-0.0806 0.018-0.17312 0.0566v-0.71991z"/></g></g><g transform="matrix(1.8764 0 0 1.8792 -56.276 -321.85)"><g transform="scale(1.0397 .96177)" fill="#fff"><path d="m272.3 407.32h0.56307v0.24254h-0.92988v-0.24254l0.46708-0.41223q0.0626-0.0566 0.0926-0.11056 0.03-0.054 0.03-0.11227 0-0.09-0.0609-0.14484-0.06-0.0548-0.16026-0.0548-0.0771 0-0.16884 0.0334-0.0917 0.0326-0.19626 0.0977v-0.28111q0.11141-0.0368 0.22026-0.0557 0.10884-0.0197 0.2134-0.0197 0.22968 0 0.35652 0.10113 0.1277 0.10113 0.1277 0.28197 0 0.10455-0.054 0.1954-0.054 0.09-0.22711 0.24168l-0.2734 0.23997z"/><path d="m273.65 406.93q-0.0866 0-0.13027 0.0566-0.0429 0.0557-0.0429 0.16798 0 0.11227 0.0429 0.16884 0.0437 0.0557 0.13027 0.0557 0.0874 0 0.13027-0.0557 0.0437-0.0566 0.0437-0.16884 0-0.11227-0.0437-0.16798-0.0429-0.0566-0.13027-0.0566zm0.40794-0.61449v0.23654q-0.0814-0.0386-0.1534-0.0566-0.072-0.0189-0.14056-0.0189-0.14741 0-0.22968 0.0823-0.0823 0.0814-0.096 0.24254 0.0566-0.042 0.12256-0.0626 0.066-0.0214 0.14398-0.0214 0.19626 0 0.31624 0.11484 0.12084 0.11484 0.12084 0.30082 0 0.20568-0.13455 0.32995-0.13455 0.12342-0.36081 0.12342-0.2494 0-0.38652-0.16798-0.13627-0.16884-0.13627-0.47823 0-0.3171 0.15941-0.49793 0.16026-0.18169 0.4388-0.18169 0.0883 0 0.1714 0.0137t0.16455 0.0411z"/></g></g><g transform="matrix(1.8764 0 0 1.8792 -59.026 -323.35)"><g transform="scale(1.0397 .96177)" fill="#fff"><path d="m284.58 408.15h0.56307v0.24254h-0.92988v-0.24254l0.46709-0.41223q0.0626-0.0566 0.0926-0.11056 0.03-0.054 0.03-0.11227 0-0.09-0.0609-0.14483-0.06-0.0548-0.16026-0.0548-0.0771 0-0.16884 0.0334-0.0917 0.0326-0.19626 0.0977v-0.28111q0.11142-0.0369 0.22026-0.0557 0.10884-0.0197 0.2134-0.0197 0.22968 0 0.35653 0.10113 0.12769 0.10113 0.12769 0.28196 0 0.10456-0.054 0.1954-0.054 0.09-0.22711 0.24169l-0.2734 0.23996z"/><path d="m285.9 407.82q-0.0926 0-0.14227 0.0506-0.0497 0.0506-0.0497 0.14484 0 0.0943 0.0497 0.14484 0.0497 0.0497 0.14227 0.0497 0.0917 0 0.14056-0.0497 0.0489-0.0506 0.0489-0.14484 0-0.0951-0.0489-0.14484-0.0489-0.0506-0.14056-0.0506zm-0.24082-0.10885q-0.11656-0.0351-0.1757-0.10798-0.0591-0.0729-0.0591-0.18169 0-0.16198 0.12084-0.24683 0.12084-0.0848 0.35481-0.0848 0.23226 0 0.3531 0.0848 0.12084 0.084 0.12084 0.24683 0 0.10884-0.06 0.18169-0.0591 0.0729-0.17569 0.10798 0.13027 0.036 0.19626 0.11742 0.0669 0.0806 0.0669 0.20397 0 0.19026-0.12684 0.28796-0.12599 0.0969-0.37453 0.0969-0.24939 0-0.37709-0.0969-0.12684-0.0977-0.12684-0.28796 0-0.12341 0.066-0.20397 0.0668-0.0814 0.19712-0.11742zm0.0771-0.25625q0 0.0763 0.042 0.11741 0.0429 0.0411 0.1217 0.0411 0.0771 0 0.11913-0.0411 0.042-0.0411 0.042-0.11741 0-0.0763-0.042-0.11656-0.042-0.0411-0.11913-0.0411-0.0788 0-0.1217 0.0411-0.042 0.0411-0.042 0.11656z"/></g></g><g transform="matrix(1.8764 0 0 1.8792 -58.938 -325.91)"><g transform="scale(1.0397 .96177)" fill="#fff"><path d="m284.53 391.46h0.56307v0.24254h-0.92988v-0.24254l0.46708-0.41223q0.0626-0.0566 0.0926-0.11056 0.03-0.054 0.03-0.11227 0-0.09-0.0608-0.14484-0.06-0.0549-0.16027-0.0549-0.0771 0-0.16883 0.0334-0.0917 0.0326-0.19626 0.0977v-0.28111q0.11141-0.0369 0.22025-0.0557 0.10885-0.0197 0.2134-0.0197 0.22969 0 0.35653 0.10113 0.1277 0.10113 0.1277 0.28197 0 0.10455-0.054 0.1954-0.054 0.09-0.22711 0.24168l-0.27339 0.23997z"/><path d="m285.37 390.42h0.96416v0.18598l-0.4988 1.0936h-0.32138l0.47222-1.037h-0.6162z"/></g></g><g transform="matrix(1.8764 0 0 1.8792 -15.725 -360.97)"><rect x="260.32" y="396.34" width="15.245" height="14.297" rx=".16873" ry=".074248"/><rect x="260.51" y="396.43" width="14.869" height="14.109" fill="#ebebeb"/><g transform="translate(76.308,20.361)"><g transform="matrix(0,-1.3729,1.3727,0,-52.675,1019.4)"><rect x="464.5" y="172.66" width="3.9658" height="10.644"/><polygon points="464.7 172.79 464.7 174.19 464.9 174.19 464.9 176.79 464.7 176.79 464.7 177.99 468.3 177.99 468.3 172.79" fill="none" stroke="#ebebeb" stroke-width=".1"/></g><g transform="matrix(0,-1.3729,1.3727,0,-45.082,1019.4)"><polygon transform="translate(0 -.3204)" points="464.7 174.19 464.9 174.19 464.9 176.79 464.7 176.79 464.7 177.99 468.3 177.99 468.3 172.79 464.7 172.79" fill="none" stroke="#ebebeb" stroke-width=".1"/></g></g><g transform="rotate(180,229.84,393.36)"><g transform="matrix(0,-1.3729,1.3727,0,-52.675,1019.4)"><rect x="464.5" y="172.66" width="3.9658" height="10.644"/><polygon points="468.3 172.79 464.7 172.79 464.7 174.19 464.9 174.19 464.9 176.79 464.7 176.79 464.7 177.99 468.3 177.99" fill="none" stroke="#ebebeb" stroke-width=".1"/></g><g transform="matrix(0,-1.3729,1.3727,0,-45.082,1019.4)"><polygon transform="translate(0 -.3204)" points="464.7 172.79 464.7 174.19 464.9 174.19 464.9 176.79 464.7 176.79 464.7 177.99 468.3 177.99 468.3 172.79" fill="none" stroke="#ebebeb" stroke-width=".1"/></g></g><g transform="translate(76.41,20.588)" fill="#008000" fill-rule="evenodd" stroke="#008000" stroke-linecap="round" stroke-linejoin="round" stroke-width=".098574"><g transform="translate(.27778 25.762)"><path d="m184.73 356.56h0.83713l-0.41857 1.267z"/><path d="m190.67 357.83h-0.83713l0.41857-1.267z"/><path d="m187.27 357.83h-0.83713l0.41857-1.267z"/><path d="m188.13 356.56h0.83713l-0.41857 1.267z"/></g><g transform="translate(7.431,25.762)"><path d="m184.73 356.56h0.83713l-0.41857 1.267z"/><path d="m190.67 357.83h-0.83713l0.41857-1.267z"/><path d="m187.27 357.83h-0.83713l0.41857-1.267z"/><path d="m188.13 356.56h0.83713l-0.41857 1.267z"/></g></g></g><g transform="matrix(1.8764 0 0 1.8792 -2.8054 -320.93)"><rect x="156.44" y="375.1" width="46.438" height="14.414" rx=".16873" ry=".074248"/><rect x="203.55" y="375.1" width="46.438" height="14.414" rx=".16873" ry=".074248"/><g transform="translate(1.6091,33.872)"><g transform="translate(-95.487,-40.641)"><g transform="scale(1.0397 .96177)"><path d="m242.28 396.3h0.29139v-0.82704l-0.29911 0.0617v-0.22455l0.29739-0.0617h0.31368v1.0516h0.29139v0.22797h-0.89474v-0.22797z" fill="#fff"/></g></g><g transform="translate(-87.846,-40.641)"><g transform="scale(1.0397 .96177)"><path d="m242.89 395.84q0.12941 0.0334 0.19626 0.11655 0.0677 0.0823 0.0677 0.20997 0 0.19027-0.14569 0.28968-0.1457 0.0986-0.42509 0.0986-0.0986 0-0.19798-0.0163-0.0985-0.0154-0.1954-0.0471v-0.25454q0.0926 0.0463 0.18341 0.0703 0.0917 0.0231 0.17997 0.0231 0.13113 0 0.20055-0.0454 0.0703-0.0454 0.0703-0.13026 0-0.0874-0.072-0.13199-0.0711-0.0454-0.21083-0.0454h-0.13198v-0.21254h0.13884q0.12427 0 0.18512-0.0386 0.0609-0.0394 0.0609-0.11913 0-0.0737-0.0591-0.11398-0.0591-0.0403-0.16712-0.0403-0.0797 0-0.16112 0.018-0.0814 0.018-0.16198 0.0531v-0.24168q0.0977-0.0274 0.19369-0.0411 0.096-0.0137 0.18855-0.0137 0.24939 0 0.37281 0.0823 0.12427 0.0814 0.12427 0.24597 0 0.11227-0.0591 0.18426-0.0591 0.0711-0.17483 0.10028z" fill="#fff"/></g></g><g transform="translate(-80.205,-40.641)"><g transform="scale(1.0397 .96177)"><path d="m242.26 395.25h0.82018v0.24254h-0.55707v0.19797q0.0377-0.0103 0.0754-0.0154 0.0386-6e-3 0.0797-6e-3 0.23397 0 0.36423 0.11741 0.13027 0.11656 0.13027 0.32567 0 0.2074-0.14226 0.32482-0.14141 0.11741-0.39338 0.11741-0.10884 0-0.21597-0.0214-0.10628-0.0206-0.21169-0.0634v-0.25968q0.10456 0.06 0.19797 0.09 0.0943 0.03 0.17741 0.03 0.11998 0 0.18855-0.0583 0.0694-0.0591 0.0694-0.15941 0-0.10113-0.0694-0.15941-0.0686-0.0583-0.18855-0.0583-0.0711 0-0.1517 0.0188-0.0806 0.018-0.17312 0.0566v-0.7199z" fill="#fff"/></g></g><g transform="translate(-72.564,-40.641)"><g transform="scale(1.0397 .96177)"><path d="m242.19 395.25h0.96416v0.18597l-0.49879 1.0936h-0.32139l0.47223-1.037h-0.61621z" fill="#fff"/></g></g><g transform="translate(-64.923,-40.641)"><g transform="scale(1.0397 .96177)"><path d="m242.25 396.5v-0.23654q0.0788 0.0369 0.15084 0.0557 0.072 0.018 0.14226 0.018 0.14741 0 0.22969-0.0814 0.0823-0.0823 0.0968-0.2434-0.0583 0.0428-0.12427 0.0643-0.066 0.0214-0.14312 0.0214-0.19626 0-0.3171-0.11399-0.11999-0.11484-0.11999-0.30167 0-0.20655 0.1337-0.33082 0.13455-0.12427 0.35995-0.12427 0.25026 0 0.38738 0.16884 0.13713 0.16883 0.13713 0.47736 0 0.31711-0.16027 0.4988-0.16026 0.18083-0.43965 0.18083-0.09 0-0.17227-0.0137-0.0823-0.0129-0.16112-0.0394zm0.40709-0.6162q0.0866 0 0.13027-0.0557 0.0437-0.0566 0.0437-0.16883 0-0.11142-0.0437-0.16798-0.0437-0.0566-0.13027-0.0566-0.0866 0-0.13027 0.0566-0.0437 0.0566-0.0437 0.16798 0 0.11227 0.0437 0.16883 0.0437 0.0557 0.13027 0.0557z" fill="#fff"/></g></g><g transform="translate(-57.282,-40.641)"><g transform="scale(1.0397 .96177)" fill="#fff"><path d="m241.67 396.3h0.29139v-0.82704l-0.2991 0.0617v-0.22455l0.29739-0.0617h0.31367v1.0516h0.29139v0.22797h-0.89474v-0.22797z"/><path d="m242.89 396.3h0.29139v-0.82704l-0.2991 0.0617v-0.22455l0.29739-0.0617h0.31367v1.0516h0.29139v0.22797h-0.89474v-0.22797z"/></g></g><g transform="translate(-48.289,-40.641)"><g transform="scale(1.0397 .96177)" fill="#fff"><path d="m241.67 396.3h0.29139v-0.82704l-0.2991 0.0617v-0.22455l0.29739-0.0617h0.31367v1.0516h0.29139v0.22797h-0.89474v-0.22797z"/><path d="m243.5 395.84q0.12942 0.0334 0.19626 0.11655 0.0677 0.0823 0.0677 0.20997 0 0.19027-0.1457 0.28968-0.14569 0.0986-0.42508 0.0986-0.0986 0-0.19798-0.0163-0.0986-0.0154-0.1954-0.0471v-0.25454q0.0926 0.0463 0.1834 0.0703 0.0917 0.0231 0.17998 0.0231 0.13113 0 0.20055-0.0454 0.0703-0.0454 0.0703-0.13026 0-0.0874-0.072-0.13199-0.0711-0.0454-0.21083-0.0454h-0.13198v-0.21254h0.13884q0.12427 0 0.18512-0.0386 0.0609-0.0394 0.0609-0.11913 0-0.0737-0.0591-0.11398-0.0591-0.0403-0.16712-0.0403-0.0797 0-0.16112 0.018-0.0814 0.018-0.16198 0.0531v-0.24168q0.0977-0.0274 0.19369-0.0411 0.096-0.0137 0.18854-0.0137 0.2494 0 0.37281 0.0823 0.12427 0.0814 0.12427 0.24597 0 0.11227-0.0591 0.18426-0.0591 0.0711-0.17484 0.10028z"/></g></g><g transform="translate(-40.673,-40.641)"><g transform="scale(1.0397 .96177)" fill="#fff"><path d="m241.67 396.3h0.29139v-0.82704l-0.2991 0.0617v-0.22455l0.29739-0.0617h0.31367v1.0516h0.29139v0.22797h-0.89474v-0.22797z"/><path d="m242.87 395.25h0.82018v0.24254h-0.55707v0.19797q0.0377-0.0103 0.0754-0.0154 0.0386-6e-3 0.0797-6e-3 0.23397 0 0.36424 0.11741 0.13027 0.11656 0.13027 0.32567 0 0.2074-0.14227 0.32482-0.14141 0.11741-0.39337 0.11741-0.10885 0-0.21598-0.0214-0.10627-0.0206-0.21168-0.0634v-0.25968q0.10455 0.06 0.19797 0.09 0.0943 0.03 0.17741 0.03 0.11998 0 0.18854-0.0583 0.0694-0.0591 0.0694-0.15941 0-0.10113-0.0694-0.15941-0.0686-0.0583-0.18854-0.0583-0.0711 0-0.1517 0.0188-0.0806 0.018-0.17312 0.0566v-0.7199z"/></g></g><g transform="translate(-33.056,-40.641)"><g transform="scale(1.0397 .96177)" fill="#fff"><path d="m241.67 396.3h0.29139v-0.82704l-0.2991 0.0617v-0.22455l0.29739-0.0617h0.31367v1.0516h0.29139v0.22797h-0.89474v-0.22797z"/><path d="m242.8 395.25h0.96416v0.18597l-0.49879 1.0936h-0.32139l0.47222-1.037h-0.6162z"/></g></g><g transform="translate(-25.44,-40.641)"><g transform="scale(1.0397 .96177)" fill="#fff"><path d="m241.67 396.3h0.29139v-0.82704l-0.2991 0.0617v-0.22455l0.29739-0.0617h0.31367v1.0516h0.29139v0.22797h-0.89474v-0.22797z"/><path d="m242.86 396.5v-0.23654q0.0788 0.0369 0.15083 0.0557 0.072 0.018 0.14227 0.018 0.14741 0 0.22969-0.0814 0.0823-0.0823 0.0968-0.2434-0.0583 0.0428-0.12427 0.0643-0.066 0.0214-0.14312 0.0214-0.19626 0-0.31711-0.11399-0.11998-0.11484-0.11998-0.30167 0-0.20655 0.1337-0.33082 0.13455-0.12427 0.35995-0.12427 0.25025 0 0.38738 0.16884 0.13712 0.16883 0.13712 0.47736 0 0.31711-0.16026 0.4988-0.16027 0.18083-0.43966 0.18083-0.09 0-0.17226-0.0137-0.0823-0.0129-0.16112-0.0394zm0.40709-0.6162q0.0866 0 0.13027-0.0557 0.0437-0.0566 0.0437-0.16883 0-0.11142-0.0437-0.16798-0.0437-0.0566-0.13027-0.0566-0.0866 0-0.13027 0.0566-0.0437 0.0566-0.0437 0.16798 0 0.11227 0.0437 0.16883 0.0437 0.0557 0.13027 0.0557z"/></g></g><g transform="translate(-17.823,-40.641)"><g transform="scale(1.0397 .96177)" fill="#fff"><path d="m241.97 396.29h0.56307v0.24254h-0.92988v-0.24254l0.46708-0.41224q0.0626-0.0566 0.0926-0.11055 0.03-0.054 0.03-0.11227 0-0.09-0.0609-0.14484-0.06-0.0548-0.16027-0.0548-0.0771 0-0.16883 0.0334-0.0917 0.0326-0.19626 0.0977v-0.2811q0.11141-0.0369 0.22026-0.0557 0.10884-0.0197 0.2134-0.0197 0.22968 0 0.35652 0.10113 0.1277 0.10113 0.1277 0.28196 0 0.10456-0.054 0.1954-0.054 0.09-0.22712 0.24169l-0.27339 0.23997z"/><path d="m242.89 396.3h0.29139v-0.82704l-0.2991 0.0617v-0.22455l0.29739-0.0617h0.31367v1.0516h0.29139v0.22797h-0.89474v-0.22797z"/></g></g><g transform="translate(-10.207,-40.641)"><g transform="scale(1.0397 .96177)" fill="#fff"><path d="m241.97 396.29h0.56307v0.24254h-0.92988v-0.24254l0.46708-0.41224q0.0626-0.0566 0.0926-0.11055 0.03-0.054 0.03-0.11227 0-0.09-0.0609-0.14484-0.06-0.0548-0.16027-0.0548-0.0771 0-0.16883 0.0334-0.0917 0.0326-0.19626 0.0977v-0.2811q0.11141-0.0369 0.22026-0.0557 0.10884-0.0197 0.2134-0.0197 0.22968 0 0.35652 0.10113 0.1277 0.10113 0.1277 0.28196 0 0.10456-0.054 0.1954-0.054 0.09-0.22712 0.24169l-0.27339 0.23997z"/><path d="m243.5 395.84q0.12942 0.0334 0.19626 0.11655 0.0677 0.0823 0.0677 0.20997 0 0.19027-0.1457 0.28968-0.14569 0.0986-0.42508 0.0986-0.0986 0-0.19798-0.0163-0.0986-0.0154-0.1954-0.0471v-0.25454q0.0926 0.0463 0.1834 0.0703 0.0917 0.0231 0.17998 0.0231 0.13113 0 0.20055-0.0454 0.0703-0.0454 0.0703-0.13026 0-0.0874-0.072-0.13199-0.0711-0.0454-0.21083-0.0454h-0.13198v-0.21254h0.13884q0.12427 0 0.18512-0.0386 0.0609-0.0394 0.0609-0.11913 0-0.0737-0.0591-0.11398-0.0591-0.0403-0.16712-0.0403-0.0797 0-0.16112 0.018-0.0814 0.018-0.16198 0.0531v-0.24168q0.0977-0.0274 0.19369-0.0411 0.096-0.0137 0.18854-0.0137 0.2494 0 0.37281 0.0823 0.12427 0.0814 0.12427 0.24597 0 0.11227-0.0591 0.18426-0.0591 0.0711-0.17484 0.10028z"/></g></g><g transform="translate(-91.404,-23.227)"><g transform="scale(1.0397 .96177)"><path d="m242.58 396.29h0.56307v0.24254h-0.92988v-0.24254l0.46708-0.41224q0.0626-0.0566 0.0926-0.11055 0.03-0.054 0.03-0.11227 0-0.09-0.0608-0.14484-0.06-0.0548-0.16027-0.0548-0.0771 0-0.16883 0.0334-0.0917 0.0326-0.19626 0.0977v-0.2811q0.11141-0.0369 0.22025-0.0557 0.10885-0.0197 0.2134-0.0197 0.22969 0 0.35653 0.10113 0.1277 0.10113 0.1277 0.28196 0 0.10456-0.054 0.1954-0.054 0.09-0.22711 0.24169l-0.27339 0.23997z" fill="#fff"/></g></g><g transform="translate(-83.771,-23.227)"><g transform="scale(1.0397 .96177)"><path d="m242.72 395.52-0.36167 0.53564h0.36167zm-0.0549-0.27168h0.36681v0.80732h0.18255v0.23911h-0.18255v0.23312h-0.31196v-0.23312h-0.56735v-0.28282z" fill="#fff"/></g></g><g transform="translate(-76.139,-23.227)"><g transform="scale(1.0397 .96177)"><path d="m242.71 395.9q-0.0866 0-0.13027 0.0566-0.0428 0.0557-0.0428 0.16798 0 0.11227 0.0428 0.16883 0.0437 0.0557 0.13027 0.0557 0.0874 0 0.13027-0.0557 0.0437-0.0566 0.0437-0.16883 0-0.11228-0.0437-0.16798-0.0428-0.0566-0.13027-0.0566zm0.40795-0.61449v0.23654q-0.0814-0.0386-0.15341-0.0566-0.072-0.0189-0.14056-0.0189-0.14741 0-0.22968 0.0823-0.0823 0.0814-0.096 0.24254 0.0566-0.042 0.12256-0.0626 0.066-0.0214 0.14398-0.0214 0.19626 0 0.31624 0.11484 0.12085 0.11484 0.12085 0.30082 0 0.20569-0.13456 0.32996-0.13455 0.12341-0.36081 0.12341-0.2494 0-0.38652-0.16798-0.13627-0.16883-0.13627-0.47822 0-0.3171 0.15941-0.49794 0.16026-0.18169 0.4388-0.18169 0.0883 0 0.17141 0.0137 0.0831 0.0137 0.16455 0.0411z" fill="#fff"/></g></g><g transform="translate(-68.506,-23.227)"><g transform="scale(1.0397 .96177)"><path d="m242.69 395.96q-0.0926 0-0.14227 0.0506-0.0497 0.0506-0.0497 0.14484 0 0.0943 0.0497 0.14484 0.0497 0.0497 0.14227 0.0497 0.0917 0 0.14056-0.0497 0.0488-0.0506 0.0488-0.14484 0-0.0951-0.0488-0.14484-0.0489-0.0506-0.14056-0.0506zm-0.24082-0.10884q-0.11656-0.0351-0.1757-0.10799-0.0591-0.0729-0.0591-0.18169 0-0.16198 0.12084-0.24683 0.12084-0.0848 0.35481-0.0848 0.23226 0 0.3531 0.0848 0.12084 0.084 0.12084 0.24683 0 0.10884-0.06 0.18169-0.0591 0.0729-0.17569 0.10799 0.13027 0.036 0.19626 0.11741 0.0668 0.0806 0.0668 0.20397 0 0.19026-0.12684 0.28797-0.12599 0.0968-0.37453 0.0968-0.24939 0-0.37709-0.0968-0.12684-0.0977-0.12684-0.28797 0-0.12341 0.066-0.20397 0.0669-0.0814 0.19712-0.11741zm0.0771-0.25626q0 0.0763 0.042 0.11742 0.0429 0.0411 0.1217 0.0411 0.0771 0 0.11913-0.0411 0.042-0.0411 0.042-0.11742 0-0.0763-0.042-0.11655-0.042-0.0411-0.11913-0.0411-0.0788 0-0.1217 0.0411-0.042 0.0411-0.042 0.11655z" fill="#fff"/></g></g><g transform="translate(-60.874,-23.227)"><g transform="scale(1.0397 .96177)" fill="#fff"><path d="m241.67 396.3h0.29139v-0.82704l-0.2991 0.0617v-0.22455l0.29739-0.0617h0.31367v1.0516h0.29139v0.22797h-0.89474v-0.22797z"/><path d="m243.49 395.89q0-0.23997-0.0454-0.33767-0.0446-0.0986-0.15084-0.0986-0.10627 0-0.1517 0.0986-0.0454 0.0977-0.0454 0.33767 0 0.24254 0.0454 0.34195 0.0454 0.0994 0.1517 0.0994 0.10541 0 0.15084-0.0994 0.0454-0.0994 0.0454-0.34195zm0.32996 3e-3q0 0.31796-0.13713 0.49108-0.13712 0.17226-0.38909 0.17226-0.25283 0-0.38995-0.17226-0.13713-0.17312-0.13713-0.49108 0-0.31882 0.13713-0.49108 0.13712-0.17312 0.38995-0.17312 0.25197 0 0.38909 0.17312 0.13713 0.17226 0.13713 0.49108z"/></g></g><g transform="translate(-53.241,-23.227)"><g transform="scale(1.0397 .96177)" fill="#fff"><path d="m241.67 396.3h0.29139v-0.82704l-0.2991 0.0617v-0.22455l0.29739-0.0617h0.31367v1.0516h0.29139v0.22797h-0.89474v-0.22797z"/><path d="m243.19 396.29h0.56307v0.24254h-0.92988v-0.24254l0.46709-0.41224q0.0626-0.0566 0.0926-0.11055 0.03-0.054 0.03-0.11227 0-0.09-0.0608-0.14484-0.06-0.0548-0.16026-0.0548-0.0771 0-0.16884 0.0334-0.0917 0.0326-0.19626 0.0977v-0.2811q0.11142-0.0369 0.22026-0.0557 0.10884-0.0197 0.2134-0.0197 0.22969 0 0.35653 0.10113 0.12769 0.10113 0.12769 0.28196 0 0.10456-0.054 0.1954-0.054 0.09-0.22711 0.24169l-0.2734 0.23997z"/></g></g><g transform="translate(-44.291,-23.227)"><g transform="scale(1.0397 .96177)" fill="#fff"><path d="m241.67 396.3h0.29139v-0.82704l-0.2991 0.0617v-0.22455l0.29739-0.0617h0.31367v1.0516h0.29139v0.22797h-0.89474v-0.22797z"/><path d="m243.33 395.52-0.36167 0.53564h0.36167zm-0.0548-0.27168h0.36681v0.80732h0.18254v0.23911h-0.18254v0.23312h-0.31196v-0.23312h-0.56736v-0.28282z"/></g></g><g transform="translate(-36.66,-23.227)"><g transform="scale(1.0397 .96177)" fill="#fff"><path d="m241.67 396.3h0.29139v-0.82704l-0.2991 0.0617v-0.22455l0.29739-0.0617h0.31367v1.0516h0.29139v0.22797h-0.89474v-0.22797z"/><path d="m243.32 395.9q-0.0866 0-0.13027 0.0566-0.0428 0.0557-0.0428 0.16798 0 0.11227 0.0428 0.16883 0.0437 0.0557 0.13027 0.0557 0.0874 0 0.13026-0.0557 0.0437-0.0566 0.0437-0.16883 0-0.11228-0.0437-0.16798-0.0429-0.0566-0.13026-0.0566zm0.40794-0.61449v0.23654q-0.0814-0.0386-0.15341-0.0566-0.072-0.0189-0.14055-0.0189-0.14741 0-0.22968 0.0823-0.0823 0.0814-0.096 0.24254 0.0566-0.042 0.12255-0.0626 0.066-0.0214 0.14399-0.0214 0.19626 0 0.31624 0.11484 0.12084 0.11484 0.12084 0.30082 0 0.20569-0.13455 0.32996-0.13456 0.12341-0.36081 0.12341-0.2494 0-0.38652-0.16798-0.13627-0.16883-0.13627-0.47822 0-0.3171 0.15941-0.49794 0.16026-0.18169 0.4388-0.18169 0.0883 0 0.1714 0.0137t0.16455 0.0411z"/></g></g><g transform="translate(-29.028,-23.227)"><g transform="scale(1.0397 .96177)" fill="#fff"><path d="m241.67 396.3h0.29139v-0.82704l-0.2991 0.0617v-0.22455l0.29739-0.0617h0.31367v1.0516h0.29139v0.22797h-0.89474v-0.22797z"/><path d="m243.3 395.96q-0.0926 0-0.14227 0.0506-0.0497 0.0506-0.0497 0.14484 0 0.0943 0.0497 0.14484 0.0497 0.0497 0.14227 0.0497 0.0917 0 0.14055-0.0497 0.0488-0.0506 0.0488-0.14484 0-0.0951-0.0488-0.14484-0.0489-0.0506-0.14055-0.0506zm-0.24083-0.10884q-0.11655-0.0351-0.17569-0.10799-0.0591-0.0729-0.0591-0.18169 0-0.16198 0.12084-0.24683 0.12084-0.0848 0.35481-0.0848 0.23225 0 0.3531 0.0848 0.12084 0.084 0.12084 0.24683 0 0.10884-0.06 0.18169-0.0591 0.0729-0.1757 0.10799 0.13027 0.036 0.19626 0.11741 0.0668 0.0806 0.0668 0.20397 0 0.19026-0.12684 0.28797-0.12598 0.0968-0.37452 0.0968-0.2494 0-0.3771-0.0968-0.12684-0.0977-0.12684-0.28797 0-0.12341 0.066-0.20397 0.0668-0.0814 0.19711-0.11741zm0.0771-0.25626q0 0.0763 0.042 0.11742 0.0428 0.0411 0.1217 0.0411 0.0771 0 0.11913-0.0411 0.042-0.0411 0.042-0.11742 0-0.0763-0.042-0.11655-0.042-0.0411-0.11913-0.0411-0.0789 0-0.1217 0.0411-0.042 0.0411-0.042 0.11655z"/></g></g><g transform="translate(-21.397,-23.227)"><g transform="scale(1.0397 .96177)" fill="#fff"><path d="m241.97 396.29h0.56307v0.24254h-0.92988v-0.24254l0.46708-0.41224q0.0626-0.0566 0.0926-0.11055 0.03-0.054 0.03-0.11227 0-0.09-0.0609-0.14484-0.06-0.0548-0.16027-0.0548-0.0771 0-0.16883 0.0334-0.0917 0.0326-0.19626 0.0977v-0.2811q0.11141-0.0369 0.22026-0.0557 0.10884-0.0197 0.2134-0.0197 0.22968 0 0.35652 0.10113 0.1277 0.10113 0.1277 0.28196 0 0.10456-0.054 0.1954-0.054 0.09-0.22712 0.24169l-0.27339 0.23997z"/><path d="m243.49 395.89q0-0.23997-0.0454-0.33767-0.0446-0.0986-0.15084-0.0986-0.10627 0-0.1517 0.0986-0.0454 0.0977-0.0454 0.33767 0 0.24254 0.0454 0.34195 0.0454 0.0994 0.1517 0.0994 0.10541 0 0.15084-0.0994 0.0454-0.0994 0.0454-0.34195zm0.32996 3e-3q0 0.31796-0.13713 0.49108-0.13712 0.17226-0.38909 0.17226-0.25283 0-0.38995-0.17226-0.13713-0.17312-0.13713-0.49108 0-0.31882 0.13713-0.49108 0.13712-0.17312 0.38995-0.17312 0.25197 0 0.38909 0.17312 0.13713 0.17226 0.13713 0.49108z"/></g></g><g transform="translate(-13.766,-23.227)"><g transform="scale(1.0397 .96177)" fill="#fff"><path d="m241.97 396.29h0.56307v0.24254h-0.92988v-0.24254l0.46708-0.41224q0.0626-0.0566 0.0926-0.11055 0.03-0.054 0.03-0.11227 0-0.09-0.0609-0.14484-0.06-0.0548-0.16027-0.0548-0.0771 0-0.16883 0.0334-0.0917 0.0326-0.19626 0.0977v-0.2811q0.11141-0.0369 0.22026-0.0557 0.10884-0.0197 0.2134-0.0197 0.22968 0 0.35652 0.10113 0.1277 0.10113 0.1277 0.28196 0 0.10456-0.054 0.1954-0.054 0.09-0.22712 0.24169l-0.27339 0.23997z"/><path d="m243.19 396.29h0.56307v0.24254h-0.92988v-0.24254l0.46709-0.41224q0.0626-0.0566 0.0926-0.11055 0.03-0.054 0.03-0.11227 0-0.09-0.0608-0.14484-0.06-0.0548-0.16026-0.0548-0.0771 0-0.16884 0.0334-0.0917 0.0326-0.19626 0.0977v-0.2811q0.11142-0.0369 0.22026-0.0557 0.10884-0.0197 0.2134-0.0197 0.22969 0 0.35653 0.10113 0.12769 0.10113 0.12769 0.28196 0 0.10456-0.054 0.1954-0.054 0.09-0.22711 0.24169l-0.2734 0.23997z"/></g></g><g transform="translate(-6.1345,-23.227)"><g transform="scale(1.0397 .96177)" fill="#fff"><path d="m241.97 396.29h0.56307v0.24254h-0.92988v-0.24254l0.46708-0.41224q0.0626-0.0566 0.0926-0.11055 0.03-0.054 0.03-0.11227 0-0.09-0.0609-0.14484-0.06-0.0548-0.16027-0.0548-0.0771 0-0.16883 0.0334-0.0917 0.0326-0.19626 0.0977v-0.2811q0.11141-0.0369 0.22026-0.0557 0.10884-0.0197 0.2134-0.0197 0.22968 0 0.35652 0.10113 0.1277 0.10113 0.1277 0.28196 0 0.10456-0.054 0.1954-0.054 0.09-0.22712 0.24169l-0.27339 0.23997z"/><path d="m243.33 395.52-0.36167 0.53564h0.36167zm-0.0548-0.27168h0.36681v0.80732h0.18254v0.23911h-0.18254v0.23312h-0.31196v-0.23312h-0.56736v-0.28282z"/></g></g><g transform="translate(58.069,-53.544)"><path d="m96.88 409.02h46.207l-0.023-14.075-46.184-2.4e-4z" fill="#3a3a3a"/><g transform="matrix(1.0006 0 0 .99268 14.144 58.805)"><path d="m113.63 340.44h1.7574l-3e-3 -1.0731 0.63956-5.7e-4v-0.40181h2.0614l-4.8e-4 0.40286h0.6657v1.0732h1.7493v4.6204l-6.8696 0.015z" fill="#1a1a1a"/><path d="m118.91 340.16h1.7357v-0.75438h-1.7357z" fill="#abb927"/><path d="m113.48 340.16h1.751v-0.75831h-1.751z" fill="#abb927"/><path d="m120.51 350.97h-1.7574l3e-3 1.0731-0.63956 5.7e-4v0.40181h-2.0614l4.8e-4 -0.40286h-0.6657v-1.0732h-1.7493v-4.6204l6.8696-0.015z" fill="#1a1a1a"/><path d="m115.23 351.26h-1.7357v0.75438h1.7357z" fill="#abb927"/><path d="m120.67 351.26h-1.751v0.75831h1.751z" fill="#abb927"/><path transform="matrix(.53079 0 0 .53501 55.446 333.8)" d="m56.703 9.0898-5.2734 0.00195 0.0039 26.316 5.2969 2e-3v-1.2656l-4.2578 2e-3v-1.6387l0.41992-0.01367v-8.9844l12.945-0.0078 2e-3 8.9922 0.41992 0.01367v1.6387l-4.2344-2e-3v1.2656l4.3613-2e-3h0.0059l4.4082 2e-3v-1.2656l-4.2598 2e-3v-1.6387l0.41992-0.01367 2e-3 -8.9844 12.945-0.0078v8.9922l0.41992 0.01367v1.6387l-4.2344-2e-3v1.2656l4.5156-2e-3h0.0078l4.4062 2e-3v-1.2656l-4.2598 2e-3v-1.6387l0.41992-0.01367 2e-3 -8.9844 12.945-0.0078v8.9922l0.41992 0.01367v1.6387l-4.2324-2e-3v1.2656l4.5137-2e-3 4.4141 2e-3v-1.2656l-4.2598 2e-3v-1.6387l0.42188-0.01367v-8.9844l12.945-0.0078v8.9922l0.42187 0.01367v1.6387l-4.2344-2e-3v1.2656l4.5137-2e-3h0.01l4.4043 2e-3v-1.2656l-4.2578 2e-3v-1.6387l0.41992-0.01367v-8.9844l12.945-0.0078 2e-3 8.9922 0.41993 0.01367v1.6387l-4.2344-2e-3v1.2656l4.5-2e-3h0.0234l4.3691 2e-3v-1.2656l-4.2598 2e-3v-1.6387l0.41993-0.01367 2e-3 -9.0391 0.01-0.0098 12.936-0.01953v9.0684l0.42188 0.01367v1.6387l-4.2344-2e-3v1.2656l5.2734-2e-3 -4e-3 -26.316-5.2988-0.00195v1.2656l4.2598-2e-3v1.6387l-0.42187 0.01367v8.9844l-12.945 0.0078v-8.9922l-0.42187-0.01367v-1.6387l4.2344 2e-3v-1.2656l-4.3438 0.00195h-0.0234l-4.5254-0.00195v1.2656l4.2598-2e-3v1.6387l-0.41992 0.01367-2e-3 9.0391-8e-3 0.0098-12.936 0.01758-2e-3 -9.0664-0.41992-0.01367v-1.6387l4.2344 2e-3v-1.2656l-4.3809 0.00195h-8e-3l-4.541-0.00195v1.2656l4.2598-2e-3v1.6387l-0.41992 0.01367-2e-3 9.0391-0.01 0.0098-12.936 0.01758v-9.0664l-0.41992-0.01367v-1.6387l4.2344 2e-3v-1.2656l-4.3809 0.00195-4.5488-0.00195v1.2656l4.2598-2e-3v1.6387l-0.42188 0.01367v9.0391l-0.0098 0.0098-12.936 0.01758v-9.0664l-0.41992-0.01367v-1.6387l4.2324 2e-3v-1.2656l-4.3809 0.00195h-0.0078l-4.5391-0.00195v1.2656l4.2578-2e-3v1.6387l-0.41992 0.01367v9.0391l-0.0098 0.0098-12.936 0.01758v-9.0664l-0.42188-0.01367v-1.6387l4.2344 2e-3v-1.2656l-4.3809 0.00195h-0.0078l-4.3867-0.00195v1.2656l4.2598-2e-3v1.6387l-0.41992 0.01367-2e-3 9.0391-0.0078 0.0098-12.936 0.01758-2e-3 -9.0664-0.41992-0.01367v-1.6387l4.2344 2e-3v-1.2656z" fill="#ebebeb"/></g><g transform="matrix(1.0006 0 0 .99268 6.5907 58.805)"><path d="m113.63 340.44h1.7574l-3e-3 -1.0731 0.63956-5.7e-4v-0.40181h2.0614l-4.8e-4 0.40286h0.6657v1.0732h1.7493v4.6204l-6.8696 0.015z" fill="#1a1a1a"/><path d="m118.91 340.16h1.7357v-0.75438h-1.7357z" fill="#abb927"/><path d="m113.48 340.16h1.751v-0.75831h-1.751z" fill="#abb927"/><path d="m120.51 350.97h-1.7574l3e-3 1.0731-0.63956 5.7e-4v0.40181h-2.0614l4.8e-4 -0.40286h-0.6657v-1.0732h-1.7493v-4.6204l6.8696-0.015z" fill="#1a1a1a"/><path d="m115.23 351.26h-1.7357v0.75438h1.7357z" fill="#abb927"/><path d="m120.67 351.26h-1.751v0.75831h1.751z" fill="#abb927"/></g><g transform="matrix(1.0006 0 0 .99268 -.96302 58.805)"><path d="m113.63 340.44h1.7574l-3e-3 -1.0731 0.63956-5.7e-4v-0.40181h2.0614l-4.8e-4 0.40286h0.6657v1.0732h1.7493v4.6204l-6.8696 0.015z" fill="#1a1a1a"/><path d="m118.91 340.16h1.7357v-0.75438h-1.7357z" fill="#abb927"/><path d="m113.48 340.16h1.751v-0.75831h-1.751z" fill="#abb927"/><path d="m120.51 350.97h-1.7574l3e-3 1.0731-0.63956 5.7e-4v0.40181h-2.0614l4.8e-4 -0.40286h-0.6657v-1.0732h-1.7493v-4.6204l6.8696-0.015z" fill="#1a1a1a"/><path d="m115.23 351.26h-1.7357v0.75438h1.7357z" fill="#abb927"/><path d="m120.67 351.26h-1.751v0.75831h1.751z" fill="#abb927"/></g><g transform="matrix(1.0006 0 0 .99268 -8.5168 58.805)"><path d="m113.63 340.44h1.7574l-3e-3 -1.0731 0.63956-5.7e-4v-0.40181h2.0614l-4.8e-4 0.40286h0.6657v1.0732h1.7493v4.6204l-6.8696 0.015z" fill="#1a1a1a"/><path d="m118.91 340.16h1.7357v-0.75438h-1.7357z" fill="#abb927"/><path d="m113.48 340.16h1.751v-0.75831h-1.751z" fill="#abb927"/><path d="m120.51 350.97h-1.7574l3e-3 1.0731-0.63956 5.7e-4v0.40181h-2.0614l4.8e-4 -0.40286h-0.6657v-1.0732h-1.7493v-4.6204l6.8696-0.015z" fill="#1a1a1a"/><path d="m115.23 351.26h-1.7357v0.75438h1.7357z" fill="#abb927"/><path d="m120.67 351.26h-1.751v0.75831h1.751z" fill="#abb927"/></g><g transform="matrix(1.0006 0 0 .99268 -15.989 58.804)"><path d="m113.63 340.44h1.7574l-3e-3 -1.0731 0.63956-5.7e-4v-0.40181h2.0614l-4.8e-4 0.40286h0.6657v1.0732h1.7493v4.6204l-6.8696 0.015z" fill="#1a1a1a"/><path d="m118.91 340.16h1.7357v-0.75438h-1.7357z" fill="#abb927"/><path d="m113.48 340.16h1.751v-0.75831h-1.751z" fill="#abb927"/><path d="m120.51 350.97h-1.7574l3e-3 1.0731-0.63956 5.7e-4v0.40181h-2.0614l4.8e-4 -0.40286h-0.6657v-1.0732h-1.7493v-4.6204l6.8696-0.015z" fill="#1a1a1a"/><path d="m115.23 351.26h-1.7357v0.75438h1.7357z" fill="#abb927"/><path d="m120.67 351.26h-1.751v0.75831h1.751z" fill="#abb927"/></g><g transform="translate(3.5862,18.762)"><path d="m131.79 378h1.7584l-3e-3 -1.0653 0.63993-5.6e-4v-0.39887h2.0626l-4.8e-4 0.39991h0.66608v1.0654h1.7503v4.5866l-6.8735 0.0149z" fill="#1a1a1a"/><path d="m137.07 377.72h1.7367v-0.74886h-1.7367z" fill="#abb927"/><path d="m131.63 377.71h1.7519v-0.75276h-1.7519z" fill="#abb927"/><path d="m138.67 388.45h-1.7584l3e-3 1.0653-0.63993 5.6e-4v0.39887h-2.0626l4.8e-4 -0.39991h-0.66608v-1.0654h-1.7503v-4.5866l6.8735-0.0149z" fill="#1a1a1a"/><path d="m133.39 388.73h-1.7367v0.74886h1.7367z" fill="#abb927"/><path d="m138.83 388.73h-1.7519v0.75276h1.7519z" fill="#abb927"/></g></g><g transform="translate(105.18,-53.544)"><path d="m96.88 409.02h46.207l-0.023-14.075-46.184-2.4e-4z" fill="#3a3a3a"/><g transform="matrix(1.0006 0 0 .99268 14.144 58.805)"><path d="m113.63 340.44h1.7574l-3e-3 -1.0731 0.63956-5.7e-4v-0.40181h2.0614l-4.8e-4 0.40286h0.6657v1.0732h1.7493v4.6204l-6.8696 0.015z" fill="#1a1a1a"/><path d="m118.91 340.16h1.7357v-0.75438h-1.7357z" fill="#abb927"/><path d="m113.48 340.16h1.751v-0.75831h-1.751z" fill="#abb927"/><path d="m120.51 350.97h-1.7574l3e-3 1.0731-0.63956 5.7e-4v0.40181h-2.0614l4.8e-4 -0.40286h-0.6657v-1.0732h-1.7493v-4.6204l6.8696-0.015z" fill="#1a1a1a"/><path d="m115.23 351.26h-1.7357v0.75438h1.7357z" fill="#abb927"/><path d="m120.67 351.26h-1.751v0.75831h1.751z" fill="#abb927"/><path transform="matrix(.53079 0 0 .53501 55.446 333.8)" d="m56.703 9.0898-5.2734 0.00195 0.0039 26.316 5.2969 2e-3v-1.2656l-4.2578 2e-3v-1.6387l0.41992-0.01367v-8.9844l12.945-0.0078 2e-3 8.9922 0.41992 0.01367v1.6387l-4.2344-2e-3v1.2656l4.3613-2e-3h0.0059l4.4082 2e-3v-1.2656l-4.2598 2e-3v-1.6387l0.41992-0.01367 2e-3 -8.9844 12.945-0.0078v8.9922l0.41992 0.01367v1.6387l-4.2344-2e-3v1.2656l4.5156-2e-3h0.0078l4.4062 2e-3v-1.2656l-4.2598 2e-3v-1.6387l0.41992-0.01367 2e-3 -8.9844 12.945-0.0078v8.9922l0.41992 0.01367v1.6387l-4.2324-2e-3v1.2656l4.5137-2e-3 4.4141 2e-3v-1.2656l-4.2598 2e-3v-1.6387l0.42188-0.01367v-8.9844l12.945-0.0078v8.9922l0.42187 0.01367v1.6387l-4.2344-2e-3v1.2656l4.5137-2e-3h0.01l4.4043 2e-3v-1.2656l-4.2578 2e-3v-1.6387l0.41992-0.01367v-8.9844l12.945-0.0078 2e-3 8.9922 0.41993 0.01367v1.6387l-4.2344-2e-3v1.2656l4.5-2e-3h0.0234l4.3691 2e-3v-1.2656l-4.2598 2e-3v-1.6387l0.41993-0.01367 2e-3 -9.0391 0.01-0.0098 12.936-0.01953v9.0684l0.42188 0.01367v1.6387l-4.2344-2e-3v1.2656l5.2734-2e-3 -4e-3 -26.316-5.2988-0.00195v1.2656l4.2598-2e-3v1.6387l-0.42187 0.01367v8.9844l-12.945 0.0078v-8.9922l-0.42187-0.01367v-1.6387l4.2344 2e-3v-1.2656l-4.3438 0.00195h-0.0234l-4.5254-0.00195v1.2656l4.2598-2e-3v1.6387l-0.41992 0.01367-2e-3 9.0391-8e-3 0.0098-12.936 0.01758-2e-3 -9.0664-0.41992-0.01367v-1.6387l4.2344 2e-3v-1.2656l-4.3809 0.00195h-8e-3l-4.541-0.00195v1.2656l4.2598-2e-3v1.6387l-0.41992 0.01367-2e-3 9.0391-0.01 0.0098-12.936 0.01758v-9.0664l-0.41992-0.01367v-1.6387l4.2344 2e-3v-1.2656l-4.3809 0.00195-4.5488-0.00195v1.2656l4.2598-2e-3v1.6387l-0.42188 0.01367v9.0391l-0.0098 0.0098-12.936 0.01758v-9.0664l-0.41992-0.01367v-1.6387l4.2324 2e-3v-1.2656l-4.3809 0.00195h-0.0078l-4.5391-0.00195v1.2656l4.2578-2e-3v1.6387l-0.41992 0.01367v9.0391l-0.0098 0.0098-12.936 0.01758v-9.0664l-0.42188-0.01367v-1.6387l4.2344 2e-3v-1.2656l-4.3809 0.00195h-0.0078l-4.3867-0.00195v1.2656l4.2598-2e-3v1.6387l-0.41992 0.01367-2e-3 9.0391-0.0078 0.0098-12.936 0.01758-2e-3 -9.0664-0.41992-0.01367v-1.6387l4.2344 2e-3v-1.2656z" fill="#ebebeb"/></g><g transform="matrix(1.0006 0 0 .99268 6.5907 58.805)"><path d="m113.63 340.44h1.7574l-3e-3 -1.0731 0.63956-5.7e-4v-0.40181h2.0614l-4.8e-4 0.40286h0.6657v1.0732h1.7493v4.6204l-6.8696 0.015z" fill="#1a1a1a"/><path d="m118.91 340.16h1.7357v-0.75438h-1.7357z" fill="#abb927"/><path d="m113.48 340.16h1.751v-0.75831h-1.751z" fill="#abb927"/><path d="m120.51 350.97h-1.7574l3e-3 1.0731-0.63956 5.7e-4v0.40181h-2.0614l4.8e-4 -0.40286h-0.6657v-1.0732h-1.7493v-4.6204l6.8696-0.015z" fill="#1a1a1a"/><path d="m115.23 351.26h-1.7357v0.75438h1.7357z" fill="#abb927"/><path d="m120.67 351.26h-1.751v0.75831h1.751z" fill="#abb927"/></g><g transform="matrix(1.0006 0 0 .99268 -.96302 58.805)"><path d="m113.63 340.44h1.7574l-3e-3 -1.0731 0.63956-5.7e-4v-0.40181h2.0614l-4.8e-4 0.40286h0.6657v1.0732h1.7493v4.6204l-6.8696 0.015z" fill="#1a1a1a"/><path d="m118.91 340.16h1.7357v-0.75438h-1.7357z" fill="#abb927"/><path d="m113.48 340.16h1.751v-0.75831h-1.751z" fill="#abb927"/><path d="m120.51 350.97h-1.7574l3e-3 1.0731-0.63956 5.7e-4v0.40181h-2.0614l4.8e-4 -0.40286h-0.6657v-1.0732h-1.7493v-4.6204l6.8696-0.015z" fill="#1a1a1a"/><path d="m115.23 351.26h-1.7357v0.75438h1.7357z" fill="#abb927"/><path d="m120.67 351.26h-1.751v0.75831h1.751z" fill="#abb927"/></g><g transform="matrix(1.0006 0 0 .99268 -8.5168 58.805)"><path d="m113.63 340.44h1.7574l-3e-3 -1.0731 0.63956-5.7e-4v-0.40181h2.0614l-4.8e-4 0.40286h0.6657v1.0732h1.7493v4.6204l-6.8696 0.015z" fill="#1a1a1a"/><path d="m118.91 340.16h1.7357v-0.75438h-1.7357z" fill="#abb927"/><path d="m113.48 340.16h1.751v-0.75831h-1.751z" fill="#abb927"/><path d="m120.51 350.97h-1.7574l3e-3 1.0731-0.63956 5.7e-4v0.40181h-2.0614l4.8e-4 -0.40286h-0.6657v-1.0732h-1.7493v-4.6204l6.8696-0.015z" fill="#1a1a1a"/><path d="m115.23 351.26h-1.7357v0.75438h1.7357z" fill="#abb927"/><path d="m120.67 351.26h-1.751v0.75831h1.751z" fill="#abb927"/></g><g transform="matrix(1.0006 0 0 .99268 -15.989 58.804)"><path d="m113.63 340.44h1.7574l-3e-3 -1.0731 0.63956-5.7e-4v-0.40181h2.0614l-4.8e-4 0.40286h0.6657v1.0732h1.7493v4.6204l-6.8696 0.015z" fill="#1a1a1a"/><path d="m118.91 340.16h1.7357v-0.75438h-1.7357z" fill="#abb927"/><path d="m113.48 340.16h1.751v-0.75831h-1.751z" fill="#abb927"/><path d="m120.51 350.97h-1.7574l3e-3 1.0731-0.63956 5.7e-4v0.40181h-2.0614l4.8e-4 -0.40286h-0.6657v-1.0732h-1.7493v-4.6204l6.8696-0.015z" fill="#1a1a1a"/><path d="m115.23 351.26h-1.7357v0.75438h1.7357z" fill="#abb927"/><path d="m120.67 351.26h-1.751v0.75831h1.751z" fill="#abb927"/></g><g transform="translate(3.5862,18.762)"><path d="m131.79 378h1.7584l-3e-3 -1.0653 0.63993-5.6e-4v-0.39887h2.0626l-4.8e-4 0.39991h0.66608v1.0654h1.7503v4.5866l-6.8735 0.0149z" fill="#1a1a1a"/><path d="m137.07 377.72h1.7367v-0.74886h-1.7367z" fill="#abb927"/><path d="m131.63 377.71h1.7519v-0.75276h-1.7519z" fill="#abb927"/><path d="m138.67 388.45h-1.7584l3e-3 1.0653-0.63993 5.6e-4v0.39887h-2.0626l4.8e-4 -0.39991h-0.66608v-1.0654h-1.7503v-4.5866l6.8735-0.0149z" fill="#1a1a1a"/><path d="m133.39 388.73h-1.7367v0.74886h1.7367z" fill="#abb927"/><path d="m138.83 388.73h-1.7519v0.75276h1.7519z" fill="#abb927"/></g></g></g></g><path d="m86.922 419.65-0.0074-42.822" fill="none" stroke="#333" stroke-linejoin="round" stroke-width="1.0653"/><g transform="matrix(1.8818 0 0 1.0587 -94.003 196.29)"><path d="m110.68 204.3h3.7977c0.31236-0.0253 0.47172 0.26313 0.46384 0.53195v1.167c-0.0177 0.40759-0.69625 1.0145-1.2147 0.97148h-2.4609c-0.16724 0.0534-1.0983-0.60543-1.0629-1.0023v-1.1665c-0.0205-0.34162 0.30491-0.50905 0.47686-0.50159" fill="#e6e6e6"/><path d="m110.82 204.48h3.492c0.37167-0.0222 0.41803 0.25189 0.41125 0.48766v1.0611c-0.0156 0.26619-0.58392 0.79942-1.0385 0.76155h-2.3058c-0.14683 0.0469-0.93886-0.53989-0.95768-0.7883v-1.0612c-0.0176-0.29936 0.24811-0.46751 0.3988-0.46085" fill="#1d1d1d"/><path transform="matrix(.53109 0 0 .53109 35 368.35)" d="m144.09-307.32c-4e-3 -1.6e-4 -9e-3 2e-3 -0.0137 2e-3h-0.0117c-0.17447-7e-3 -0.45217 0.11055-0.43164 0.42579v1.0488c6e-3 0.0693 0.0738 0.16195 0.17187 0.25782 0.2624 0.2717 0.80298 0.59446 0.93164 0.55664h2.4942c0.52548 0.0402 1.2155-0.47741 1.2324-0.75782v-1.0781c8e-3 -0.24841-2e-3 -0.47824-0.43164-0.45508h-3.9414z" fill="#404040"/><g fill="#070707"><path d="m111.56 205.87h0.1884v-0.41664h-0.1884z"/><path d="m112.01 205.87h0.18839v-0.41664h-0.18839z"/><path d="m112.48 205.87h0.18799v-0.41664h-0.18799z"/><path d="m112.96 205.87h0.18799v-0.41664h-0.18799z"/><path d="m113.42 205.87h0.18837v-0.41664h-0.18837z"/></g></g><g transform="matrix(2.8538 0 0 3.12 -125.69 -820.27)"><polygon points="70.389 396.19 70.389 395.79 69.989 395.79 69.989 395.19 68.589 395.19 68.589 392.59 73.389 392.59 73.389 395.19 71.989 395.19 71.989 395.79 71.589 395.79 71.589 396.19"/><polygon points="70.389 396.19 70.389 395.79 69.989 395.79 69.989 395.19 68.589 395.19 68.589 392.59 73.389 392.59 73.389 395.19 71.989 395.19 71.989 395.79 71.589 395.79 71.589 396.19" fill="none" stroke="#7f7f7f" stroke-width=".2"/></g><rect x="89.189" y="378.37" width="19.351" height="11.457" rx=".41275" ry=".54386" fill="none" stroke="#fff" stroke-width=".19495"/><g transform="matrix(1.9503 0 0 1.8079 -57.831 -321.92)" fill="#fff" aria-label="2530-24G"><path d="m76.094 389.1h0.54183v0.23339h-0.8948v-0.23339l0.44946-0.39669q0.0602-0.0544 0.08907-0.10638 0.02886-0.052 0.02886-0.10804 0-0.0866-0.05855-0.13937-0.05773-0.0528-0.15422-0.0528-0.07422 0-0.16247 0.0322-0.08824 0.0313-0.18886 0.094v-0.2705q0.10721-0.0355 0.21195-0.0536 0.10474-0.019 0.20535-0.019 0.22102 0 0.34308 0.0973 0.12288 0.0973 0.12288 0.27133 0 0.10061-0.05196 0.18803-0.05196 0.0866-0.21855 0.23257z"/><path d="m76.96 388.1h0.78924v0.2334h-0.53606v0.1905q0.03629-0.01 0.07257-0.0148 0.03711-6e-3 0.0767-6e-3 0.22514 0 0.3505 0.11299 0.12536 0.11216 0.12536 0.31339 0 0.19958-0.1369 0.31256-0.13608 0.11298-0.37854 0.11298-0.10474 0-0.20782-0.0206-0.10226-0.0198-0.2037-0.061v-0.24975q0.10061 0.0577 0.19051 0.0866 0.09072 0.0289 0.17071 0.0289 0.11546 0 0.18144-0.0561 0.0668-0.0569 0.0668-0.15339 0-0.0973-0.0668-0.1534-0.06598-0.0561-0.18144-0.0561-0.06845 0-0.14597 0.0181-0.07752 0.0173-0.16659 0.0544z"/><path d="m78.742 388.67q0.12453 0.0322 0.18886 0.11216 0.06515 0.0792 0.06515 0.20205 0 0.18309-0.1402 0.27875-0.1402 0.0948-0.40905 0.0948-0.09484 0-0.19051-0.0157-0.09484-0.0148-0.18803-0.0454v-0.24494q0.08907 0.0445 0.17649 0.0676 0.08824 0.0223 0.17319 0.0223 0.12618 0 0.19298-0.0437 0.06763-0.0437 0.06763-0.12535 0-0.0841-0.06928-0.12701-0.06845-0.0437-0.20288-0.0437h-0.127v-0.20452h0.1336q0.11958 0 0.17814-0.0371 0.05855-0.0379 0.05855-0.11464 0-0.0709-0.05691-0.10968-0.05691-0.0388-0.16082-0.0388-0.0767 0-0.15504 0.0173-0.07835 0.0173-0.15587 0.0511v-0.23257q0.09402-0.0264 0.18638-0.0396 0.09237-0.0132 0.18144-0.0132 0.23999 0 0.35875 0.0792 0.11958 0.0784 0.11958 0.23669 0 0.10804-0.05691 0.17731-0.0569 0.0684-0.16824 0.0965z"/><path d="m79.907 388.72q0-0.23092-0.04371-0.32493-0.04288-0.0949-0.14515-0.0949-0.10226 0-0.14597 0.0949-0.04371 0.094-0.04371 0.32493 0 0.23339 0.04371 0.32906 0.04371 0.0957 0.14597 0.0957 0.10144 0 0.14515-0.0957t0.04371-0.32906zm0.31751 2e-3q0 0.30597-0.13195 0.47256-0.13195 0.16576-0.37442 0.16576-0.24329 0-0.37524-0.16576-0.13195-0.16659-0.13195-0.47256 0-0.30679 0.13195-0.47255 0.13195-0.16659 0.37524-0.16659 0.24246 0 0.37442 0.16659 0.13195 0.16576 0.13195 0.47255z"/><path d="m80.396 388.73h0.51791v0.23999h-0.51791z"/><path d="m81.494 389.1h0.54183v0.23339h-0.8948v-0.23339l0.44946-0.39669q0.0602-0.0544 0.08907-0.10638 0.02887-0.052 0.02887-0.10804 0-0.0866-0.05855-0.13937-0.05773-0.0528-0.15422-0.0528-0.07422 0-0.16247 0.0322-0.08824 0.0313-0.18886 0.094v-0.2705q0.10721-0.0355 0.21195-0.0536 0.10474-0.019 0.20535-0.019 0.22102 0 0.34308 0.0973 0.12288 0.0973 0.12288 0.27133 0 0.10061-0.05196 0.18803-0.05196 0.0866-0.21855 0.23257z"/><path d="m82.803 388.36-0.34802 0.51544h0.34802zm-0.05278-0.26144h0.35297v0.77688h0.17566v0.23009h-0.17566v0.22432h-0.30019v-0.22432h-0.54595v-0.27215z"/><path d="m84.618 389.24q-0.11876 0.0577-0.24659 0.0866t-0.2639 0.0289q-0.30762 0-0.4874-0.17153-0.17978-0.17237-0.17978-0.46679 0-0.29771 0.18308-0.46843 0.18308-0.17071 0.50142-0.17071 0.12288 0 0.23504 0.0231 0.11298 0.0231 0.21277 0.0684v0.25483q-0.10309-0.0586-0.20535-0.0874-0.10144-0.0289-0.2037-0.0289-0.18968 0-0.29277 0.10639-0.10226 0.10556-0.10226 0.30266 0 0.19546 0.09897 0.30185 0.09896 0.10638 0.28122 0.10638 0.04948 0 0.09154-6e-3 0.04288-7e-3 0.0767-0.0198v-0.23917h-0.19381v-0.21277h0.49482z"/></g><g transform="matrix(2.0059 0 0 2.0059 -66.878 -368.95)" stroke-width=".93615"><rect x="70.403" y="378.83" width="5.7113" height="1.0617" rx=".296" ry=".14465" fill="#00ff1f"/><rect x="70.444" y="380.75" width="5.7113" height="1.0617" rx=".296" ry=".14465" fill="#838383"/><ellipse cx="73.279" cy="383.51" rx=".71461" ry=".71523" fill="#838383"/></g><g transform="matrix(1.9503 0 0 1.8079 -64.688 -321.87)" fill="#fff"><path d="m79.811 389.94v0.16217q-0.06312-0.0282-0.12317-0.0426t-0.11342-0.0144q-0.07082 0-0.1047 0.0195-0.03387 0.0195-0.03387 0.0606 0 0.0308 0.02258 0.0482 0.02309 0.0169 0.08314 0.0292l0.08417 0.0169q0.12779 0.0257 0.18168 0.078t0.05389 0.14883q0 0.12676-0.07544 0.18886-0.07493 0.0616-0.22941 0.0616-0.07288 0-0.14626-0.0139-0.07339-0.0139-0.14678-0.0411v-0.16679q0.07339 0.039 0.14165 0.059 0.06877 0.0195 0.13241 0.0195 0.06467 0 0.09905-0.0215 0.03439-0.0216 0.03439-0.0616 0-0.0359-0.02361-0.0554-0.02309-0.0195-0.09289-0.0349l-0.07647-0.0169q-0.11496-0.0246-0.16833-0.0785-0.05286-0.0539-0.05286-0.14524 0-0.11445 0.0739-0.17603 0.0739-0.0616 0.21247-0.0616 0.06312 0 0.12984 0.01 0.06672 9e-3 0.13805 0.0282z"/><path d="m79.975 390.1h0.1786l0.09648 0.3962 0.097-0.3962h0.15345l0.09648 0.39209 0.097-0.39209h0.1786l-0.1514 0.57479h-0.20066l-0.097-0.39517-0.09648 0.39517h-0.20067z"/><path d="m80.998 390.1h0.18373v0.57479h-0.18373zm0-0.22376h0.18373v0.14985h-0.18373z"/><path d="m81.56 389.94v0.1632h0.18938v0.13138h-0.18938v0.24377q0 0.04 0.01591 0.0544 0.01591 0.0139 0.06312 0.0139h0.09443v0.13138h-0.15756q-0.1088 0-0.15448-0.0452-0.04516-0.0457-0.04516-0.15448v-0.24377h-0.09135v-0.13138h0.09135v-0.1632h0.18373z"/><path d="m82.326 390.12v0.14986q-0.03746-0.0257-0.07544-0.038-0.03746-0.0123-0.07801-0.0123-0.07698 0-0.12009 0.0452-0.0426 0.0446-0.0426 0.12523 0 0.0806 0.0426 0.12574 0.04311 0.0446 0.12009 0.0446 0.04311 0 0.0816-0.0128 0.039-0.0128 0.07185-0.038v0.15037q-0.04311 0.0159-0.08776 0.0236-0.04414 8e-3 -0.08879 8e-3 -0.1555 0-0.24326-0.0796-0.08776-0.0801-0.08776-0.22222 0-0.14216 0.08776-0.22171 0.08776-0.0801 0.24326-0.0801 0.04516 0 0.08879 8e-3 0.04414 8e-3 0.08776 0.0236z"/><path d="m83.064 390.33v0.35001h-0.18476v-0.26691q0-0.0754-0.0036-0.10367-0.0031-0.0282-0.01129-0.0416-0.01078-0.018-0.02925-0.0277-0.01848-0.0103-0.04208-0.0103-0.05748 0-0.09033 0.0447-0.03285 0.0441-0.03285 0.12265v0.28278h-0.18373v-0.79855h0.18373v0.30792q0.04157-0.0503 0.08827-0.0739 0.0467-0.0241 0.10316-0.0241 0.09956 0 0.15088 0.0611 0.05183 0.0611 0.05183 0.17757z"/></g><g transform="matrix(2.0059 0 0 2.0059 -66.878 -368.95)" stroke-width=".93615"><ellipse cx="82.1" cy="386.43" rx=".71461" ry=".71523"/><ellipse cx="77.981" cy="390.27" rx=".36331" ry=".36385"/><ellipse cx="82.808" cy="390.27" rx=".36331" ry=".36385"/></g><g transform="matrix(2.0059 0 0 2.0059 -66.878 -364.29)"><g transform="matrix(.93545 0 0 .93685 -5.4544 8.9791)"><rect x="95.462" y="396.24" width="3.3193" height="1.9916" rx=".089249" ry=".043549"/><g fill="#0f0" stroke-width="1px"><path d="m96.52 397.61h-0.47876l-0.07555 0.21632h-0.30778l0.43979-1.1874h0.36504l0.43979 1.1874h-0.30778l-0.07476-0.21632zm-0.40241-0.22029h0.32527l-0.16224-0.4724z"/><path d="m97.75 396.96v0.23222q-0.05805-0.0398-0.11691-0.0589-0.05806-0.0191-0.12088-0.0191-0.11929 0-0.1861 0.07-0.06601 0.0692-0.06601 0.19405 0 0.12486 0.06601 0.19484 0.0668 0.0692 0.1861 0.0692 0.0668 0 0.12645-0.0199 0.06044-0.0199 0.11134-0.0589v0.23302q-0.0668 0.0247-0.13599 0.0366-0.0684 0.0127-0.13758 0.0127-0.24097 0-0.37696-0.12327-0.13599-0.12406-0.13599-0.34435 0-0.2203 0.13599-0.34357 0.13599-0.12406 0.37696-0.12406 0.06999 0 0.13758 0.0127 0.06839 0.0119 0.13599 0.0366z"/><path d="m98.292 396.68v0.2529h0.29346v0.2036h-0.29346v0.37775q0 0.062 0.02465 0.0843 0.02465 0.0215 0.09782 0.0215h0.14633v0.20359h-0.24415q-0.1686 0-0.23938-0.07-0.06999-0.0708-0.06999-0.23939v-0.37775h-0.14156v-0.2036h0.14156v-0.2529h0.28471z"/></g></g><g transform="matrix(.93545 0 0 .93685 -1.6337 21.821)"><rect x="91.461" y="384.9" width="3.3193" height="1.9916" rx=".089249" ry=".043549"/><g fill="#b3b3b3" stroke-width="1px"><path d="m91.636 385.3h0.8263v0.23143h-0.52012v0.22108h0.4891v0.23143h-0.4891v0.50342h-0.30618z"/><path d="m92.87 385.53v0.7245h0.10975q0.18769 0 0.2863-0.0931 0.09941-0.0931 0.09941-0.2704 0-0.17655-0.09861-0.2688-0.09862-0.0922-0.2871-0.0922zm-0.30618-0.23143h0.32288q0.2704 0 0.40241 0.039 0.13281 0.0382 0.22745 0.13042 0.08351 0.0803 0.12406 0.1853 0.04056 0.10498 0.04056 0.23779 0 0.13441-0.04056 0.24018-0.04056 0.10498-0.12406 0.1853-0.09543 0.0923-0.22904 0.13122-0.13361 0.0382-0.40082 0.0382h-0.32288v-1.1874z"/><path d="m93.942 386.03-0.3213-0.43502h0.30141l0.18212 0.26403 0.18451-0.26403h0.30141l-0.32129 0.43343 0.3372 0.45729h-0.30141l-0.20041-0.28153-0.19803 0.28153h-0.30141z"/></g></g><g transform="matrix(.93545 0 0 .93685 -1.6337 21.821)"><rect x="91.467" y="387.41" width="3.3193" height="1.9916" rx=".089249" ry=".043549"/><g fill="#b3b3b3" stroke-width="1px"><path d="m92.545 387.71v0.25131q-0.09782-0.0437-0.19087-0.066t-0.17576-0.0223q-0.10975 0-0.16224 0.0302t-0.05249 0.0938q0 0.0477 0.03499 0.0748 0.03579 0.0262 0.12884 0.0453l0.13043 0.0263q0.19803 0.0398 0.28153 0.12088 0.08351 0.0811 0.08351 0.23063 0 0.19644-0.11691 0.29267-0.11611 0.0954-0.35549 0.0954-0.11293 0-0.22666-0.0215t-0.22745-0.0636v-0.25846q0.11372 0.0604 0.2195 0.0914 0.10657 0.0302 0.20518 0.0302 0.10021 0 0.15349-0.0334t0.05328-0.0954q0-0.0557-0.03658-0.0859-0.03579-0.0302-0.14395-0.0541l-0.1185-0.0262q-0.17814-0.0382-0.26085-0.12168-0.08191-0.0835-0.08191-0.22507 0-0.17735 0.11452-0.27278 0.11452-0.0954 0.32925-0.0954 0.09782 0 0.20121 0.0151 0.10339 0.0143 0.21393 0.0437z"/><path d="m92.979 388.73v0.46763h-0.28471v-1.2295h0.28471v0.13043q0.05885-0.0779 0.13043-0.11453 0.07158-0.0374 0.16462-0.0374 0.16462 0 0.2704 0.13122 0.10577 0.13042 0.10577 0.3364t-0.10577 0.3372q-0.10577 0.13043-0.2704 0.13043-0.09305 0-0.16462-0.0366-0.07158-0.0374-0.13043-0.11532zm0.18928-0.57658q-0.09146 0-0.14077 0.0676-0.04851 0.0668-0.04851 0.19325t0.04851 0.19405q0.04931 0.0668 0.14077 0.0668t0.13917-0.0668q0.04851-0.0668 0.04851-0.19405 0-0.12724-0.04851-0.19405-0.04772-0.0668-0.13917-0.0668z"/><path d="m94.282 388.1v-0.47718h0.2863v1.2375h-0.2863v-0.12884q-0.05885 0.0787-0.12963 0.11532-0.07078 0.0366-0.16383 0.0366-0.16462 0-0.2704-0.13043-0.10577-0.13122-0.10577-0.3372t0.10577-0.3364q0.10577-0.13122 0.2704-0.13122 0.09225 0 0.16303 0.0374 0.07157 0.0366 0.13043 0.11453zm-0.18769 0.57658q0.09146 0 0.13918-0.0668 0.04851-0.0668 0.04851-0.19405 0-0.12724-0.04851-0.19405-0.04772-0.0668-0.13918-0.0668-0.09066 0-0.13918 0.0668-0.04772 0.0668-0.04772 0.19405t0.04772 0.19405q0.04851 0.0668 0.13918 0.0668z"/></g></g></g><path d="m101.19 411.1h-3.4084v-3.0873" fill="none" stroke="#fff" stroke-width=".3196"/><path d="m101.19 398.48h-3.4194v1.1031" fill="none" stroke="#fff" stroke-width=".29605"/><g transform="matrix(2.0059 0 0 2.0059 -66.878 -368.95)" fill="#fff" stroke-width="1px"><g transform="matrix(.93545 0 0 .93685 3.4224 23.471)"><path d="m86.372 391.23v0.10875q-0.05208-0.0485-0.1113-0.0725-0.05871-0.024-0.12509-0.024-0.1307 0-0.20014 0.0802-0.06944 0.0796-0.06944 0.23077 0 0.15062 0.06944 0.23077 0.06943 0.0797 0.20014 0.0797 0.06637 0 0.12509-0.024 0.05922-0.024 0.1113-0.0725v0.10773q-0.05412 0.0368-0.11488 0.0551-0.06025 0.0184-0.12764 0.0184-0.17308 0-0.27264-0.10568-0.09956-0.1062-0.09956-0.28949 0-0.1838 0.09956-0.28948 0.09956-0.1062 0.27264-0.1062 0.06841 0 0.12866 0.0184 0.06076 0.0179 0.11385 0.0541z"/><path d="m86.518 391.14h0.09394v0.79443h-0.09394z"/><path d="m87.287 391.62v0.046h-0.43193q0.0061 0.097 0.0582 0.14806 0.05259 0.0505 0.14602 0.0505 0.05412 0 0.10466-0.0133 0.05106-0.0133 0.10109-0.0398v0.0888q-0.05054 0.0215-0.10364 0.0327t-0.10773 0.0112q-0.13683 0-0.21698-0.0796-0.07965-0.0797-0.07965-0.21546 0-0.1404 0.07556-0.2226 0.07607-0.0827 0.20473-0.0827 0.11538 0 0.18227 0.0745 0.06739 0.074 0.06739 0.20167zm-0.09394-0.0276q-1e-3 -0.0771-0.0434-0.12304-0.04187-0.046-0.1113-0.046-0.07863 0-0.12611 0.0444-0.04697 0.0444-0.05412 0.12509l0.33492-5.1e-4z"/><path d="m87.69 391.65q-0.11385 0-0.15776 0.026t-0.04391 0.0888q0 0.05 0.03267 0.0796 0.03319 0.0291 0.08986 0.0291 0.07812 0 0.12509-0.0551 0.04748-0.0556 0.04748-0.14755v-0.0209h-0.09343zm0.18737-0.0388v0.32625h-0.09394v-0.0868q-0.03217 0.0521-0.08016 0.0771-0.04799 0.0245-0.11743 0.0245-0.08782 0-0.13989-0.049-0.05157-0.0495-0.05157-0.13224 0-0.0965 0.06433-0.1455 0.06484-0.049 0.19299-0.049h0.13172v-9e-3q0-0.0648-0.04289-0.10007-0.04238-0.0357-0.11947-0.0357-0.04901 0-0.09547 0.0117t-0.08935 0.0352v-0.0868q0.05157-0.0199 0.10007-0.0296 0.0485-0.0102 0.09445-0.0102 0.12406 0 0.18533 0.0643t0.06127 0.19503z"/><path d="m88.393 391.45q-0.01583-9e-3 -0.03472-0.0133-0.01838-5e-3 -0.04084-5e-3 -0.07965 0-0.12253 0.0521-0.04238 0.0516-0.04238 0.14857v0.30123h-0.09445v-0.57183h0.09445v0.0888q0.02961-0.0521 0.07709-0.0771 0.04748-0.0255 0.11538-0.0255 0.0097 0 0.02144 2e-3 0.01174 1e-3 0.02604 4e-3l5.11e-4 0.0965z"/></g><g transform="matrix(.93545 0 0 .93685 4.4324 23.471)"><path d="m79.781 391.48q0.03319 0.0112 0.06433 0.048 0.03165 0.0368 0.06331 0.10109l0.10466 0.2083h-0.11079l-0.09752-0.19554q-0.03778-0.0766-0.07352-0.1016-0.03523-0.025-0.0965-0.025h-0.11232v0.32216h-0.10313v-0.76226h0.23281q0.1307 0 0.19503 0.0546t0.06433 0.16491q0 0.072-0.0337 0.11947-0.03319 0.0475-0.09701 0.0659zm-0.25834-0.32011v0.27059h0.12968q0.07454 0 0.11232-0.0342 0.03829-0.0347 0.03829-0.1016t-0.03829-0.10058q-0.03778-0.0342-0.11232-0.0342h-0.12968z"/><path d="m80.574 391.53v0.046h-0.43193q0.0061 0.097 0.0582 0.14806 0.05259 0.0505 0.14602 0.0505 0.05412 0 0.10466-0.0133 0.05106-0.0133 0.10109-0.0398v0.0888q-0.05054 0.0214-0.10364 0.0327-0.0531 0.0112-0.10773 0.0112-0.13683 0-0.21699-0.0796-0.07965-0.0796-0.07965-0.21545 0-0.1404 0.07556-0.2226 0.07607-0.0827 0.20473-0.0827 0.11538 0 0.18227 0.0745 0.06739 0.074 0.06739 0.20167zm-0.09394-0.0276q-1e-3 -0.0771-0.0434-0.12305-0.04187-0.046-0.1113-0.046-0.07863 0-0.12611 0.0444-0.04697 0.0444-0.05412 0.12509l0.33492-5.1e-4z"/><path d="m81.082 391.28v0.0888q-0.03982-0.0204-0.08271-0.0306t-0.08884-0.0102q-0.06995 0-0.10517 0.0214-0.03472 0.0214-0.03472 0.0643 0 0.0327 0.02502 0.0516 0.02502 0.0184 0.10058 0.0352l0.03217 7e-3q0.10007 0.0214 0.14193 0.0607 0.04238 0.0388 0.04238 0.10875 0 0.0797-0.06331 0.12611-0.0628 0.0465-0.17308 0.0465-0.04595 0-0.09598-9e-3 -0.04952-9e-3 -0.10466-0.0265v-0.097q0.05208 0.0271 0.10262 0.0409 0.05054 0.0133 0.10007 0.0133 0.06637 0 0.10211-0.0225 0.03574-0.023 0.03574-0.0643 0-0.0383-0.02604-0.0587-0.02553-0.0204-0.11283-0.0393l-0.03267-8e-3q-0.08731-0.0184-0.12611-0.0562-0.0388-0.0383-0.0388-0.10466 0-0.0807 0.05718-0.12458 0.05718-0.0439 0.16236-0.0439 0.05208 0 0.09803 8e-3t0.08475 0.023z"/><path d="m81.742 391.53v0.046h-0.43193q0.0061 0.097 0.0582 0.14806 0.05259 0.0505 0.14602 0.0505 0.05412 0 0.10466-0.0133 0.05106-0.0133 0.10109-0.0398v0.0888q-0.05054 0.0214-0.10364 0.0327-0.0531 0.0112-0.10773 0.0112-0.13683 0-0.21699-0.0796-0.07965-0.0796-0.07965-0.21545 0-0.1404 0.07556-0.2226 0.07607-0.0827 0.20473-0.0827 0.11539 0 0.18227 0.0745 0.06739 0.074 0.06739 0.20167zm-0.09394-0.0276q-1e-3 -0.0771-0.0434-0.12305-0.04187-0.046-0.1113-0.046-0.07863 0-0.12611 0.0444-0.04697 0.0444-0.05412 0.12509l0.33492-5.1e-4z"/><path d="m81.978 391.1v0.16236h0.1935v0.073h-0.1935v0.31042q0 0.0699 0.01889 0.0899 0.0194 0.0199 0.07811 0.0199h0.0965v0.0786h-0.0965q-0.10875 0-0.1501-0.0403-0.04135-0.0408-0.04135-0.14806v-0.31042h-0.06893v-0.073h0.06893v-0.16236h0.09445z"/></g><g transform="matrix(.70875 0 0 .70981 24.364 111.63)"><path d="m80.397 383.16h0.10313v0.67547h0.37117v0.0868h-0.47431v-0.76226z"/><path d="m80.969 383.16h0.48196v0.0868h-0.37883v0.22566h0.363v0.0868h-0.363v0.27621h0.38802v0.0868h-0.49115v-0.76226z"/><path d="m81.723 383.24v0.59276h0.12458q0.15776 0 0.23077-0.0715 0.07352-0.0715 0.07352-0.22566 0-0.15317-0.07352-0.22414-0.07301-0.0715-0.23077-0.0715h-0.12458zm-0.10313-0.0847h0.21188q0.22158 0 0.32522 0.0924 0.10364 0.0919 0.10364 0.28796 0 0.19707-0.10415 0.28948-0.10415 0.0924-0.32471 0.0924h-0.21188v-0.76226z"/><path d="m80.397 383.98h0.15368l0.19452 0.51873 0.19554-0.51873h0.15368v0.76226h-0.10058v-0.66934l-0.19656 0.52281h-0.10364l-0.19656-0.52281v0.66934h-0.10007z"/><path d="m81.507 384.24q-0.07556 0-0.11947 0.0592-0.04391 0.0587-0.04391 0.16133 0 0.10262 0.0434 0.16185 0.04391 0.0587 0.11998 0.0587 0.07505 0 0.11896-0.0592t0.04391-0.16134q0-0.1016-0.04391-0.16082-0.04391-0.0597-0.11896-0.0597zm0-0.0797q0.12253 0 0.19248 0.0797 0.06995 0.0796 0.06995 0.22056 0 0.1404-0.06995 0.22056-0.06995 0.0797-0.19248 0.0797-0.12304 0-0.19299-0.0797-0.06944-0.0802-0.06944-0.22056 0-0.14091 0.06944-0.22056 0.06995-0.0797 0.19299-0.0797z"/><path d="m82.29 384.26v-0.30939h0.09394v0.79442h-0.09394v-0.0858q-0.02961 0.051-0.07505 0.0761-0.04493 0.0245-0.10824 0.0245-0.10364 0-0.16899-0.0827-0.06484-0.0827-0.06484-0.2175 0-0.13479 0.06484-0.2175 0.06535-0.0827 0.16899-0.0827 0.06331 0 0.10824 0.025 0.04544 0.0245 0.07505 0.0756zm-0.32012 0.19963q0 0.10364 0.04238 0.16287 0.04289 0.0587 0.11743 0.0587t0.11743-0.0587q0.04289-0.0592 0.04289-0.16287 0-0.10364-0.04289-0.16236-0.04289-0.0592-0.11743-0.0592t-0.11743 0.0592q-0.04238 0.0587-0.04238 0.16236z"/><path d="m83.057 384.44v0.046h-0.43193q0.0061 0.097 0.0582 0.14807 0.05259 0.0505 0.14602 0.0505 0.05412 0 0.10466-0.0133 0.05106-0.0133 0.10109-0.0398v0.0888q-0.05054 0.0214-0.10364 0.0327-0.0531 0.0112-0.10773 0.0112-0.13683 0-0.21699-0.0797-0.07965-0.0796-0.07965-0.21545 0-0.14041 0.07556-0.22261 0.07607-0.0827 0.20473-0.0827 0.11539 0 0.18227 0.0745 0.06739 0.074 0.06739 0.20166zm-0.09394-0.0276q-1e-3 -0.0771-0.0434-0.12304-0.04187-0.046-0.1113-0.046-0.07863 0-0.12611 0.0444-0.04697 0.0444-0.05412 0.12509l0.33492-5.2e-4z"/></g></g><path d="m97.77 403.54v0.54054" fill="none" stroke="#fff" stroke-width=".29605"/><g transform="matrix(2.0059 0 0 2.0059 -66.878 -368.95)" fill="#fff" stroke-width="1px"><g transform="matrix(.93545 0 0 .93685 16.86 36.181)"><path d="m79.049 379.4v0.10874q-0.05208-0.0485-0.1113-0.0725-0.05871-0.024-0.12509-0.024-0.1307 0-0.20014 0.0802-0.06943 0.0796-0.06943 0.23077 0 0.15061 0.06943 0.23077 0.06943 0.0797 0.20014 0.0797 0.06637 0 0.12509-0.024 0.05922-0.024 0.1113-0.0725v0.10773q-0.05412 0.0368-0.11488 0.0551-0.06025 0.0184-0.12764 0.0184-0.17308 0-0.27264-0.10569-0.09956-0.10619-0.09956-0.28948 0-0.1838 0.09956-0.28949 0.09956-0.10619 0.27264-0.10619 0.06841 0 0.12866 0.0184 0.06076 0.0179 0.11385 0.0541z"/><path d="m79.417 379.59q-0.07556 0-0.11947 0.0592-0.04391 0.0587-0.04391 0.16133 0 0.10262 0.0434 0.16185 0.04391 0.0587 0.11998 0.0587 0.07505 0 0.11896-0.0592t0.04391-0.16134q0-0.1016-0.04391-0.16082-0.04391-0.0597-0.11896-0.0597zm0-0.0797q0.12253 0 0.19248 0.0797t0.06995 0.22056q0 0.1404-0.06995 0.22056-0.06995 0.0796-0.19248 0.0796-0.12304 0-0.19299-0.0796-0.06943-0.0802-0.06943-0.22056 0-0.14091 0.06943-0.22056 0.06995-0.0797 0.19299-0.0797z"/><path d="m80.299 379.75v0.34513h-0.09394v-0.34207q0-0.0812-0.03166-0.12151-0.03165-0.0403-0.09496-0.0403-0.07607 0-0.11998 0.0485t-0.04391 0.13223v0.32318h-0.09445v-0.57182h0.09445v0.0888q0.0337-0.0516 0.07914-0.0771 0.04595-0.0255 0.10568-0.0255 0.09854 0 0.14908 0.0613 0.05054 0.0608 0.05054 0.17921z"/><path d="m80.842 379.54v0.0888q-0.03982-0.0204-0.08271-0.0306t-0.08884-0.0102q-0.06995 0-0.10517 0.0214-0.03472 0.0215-0.03472 0.0643 0 0.0327 0.02502 0.0516 0.02502 0.0184 0.10058 0.0352l0.03216 7e-3q0.10007 0.0214 0.14193 0.0607 0.04238 0.0388 0.04238 0.10875 0 0.0796-0.06331 0.12611-0.0628 0.0465-0.17308 0.0465-0.04595 0-0.09598-9e-3 -0.04952-9e-3 -0.10466-0.0265v-0.097q0.05208 0.0271 0.10262 0.0409 0.05054 0.0133 0.10007 0.0133 0.06637 0 0.10211-0.0225 0.03574-0.023 0.03574-0.0643 0-0.0383-0.02604-0.0587-0.02553-0.0204-0.11283-0.0393l-0.03268-8e-3q-0.0873-0.0184-0.12611-0.0562-0.0388-0.0383-0.0388-0.10466 0-0.0807 0.05718-0.12458 0.05718-0.0439 0.16236-0.0439 0.05208 0 0.09803 8e-3t0.08475 0.023z"/><path d="m81.233 379.59q-0.07556 0-0.11947 0.0592-0.04391 0.0587-0.04391 0.16133 0 0.10262 0.0434 0.16185 0.04391 0.0587 0.11998 0.0587 0.07505 0 0.11896-0.0592t0.04391-0.16134q0-0.1016-0.04391-0.16082-0.04391-0.0597-0.11896-0.0597zm0-0.0797q0.12253 0 0.19248 0.0797t0.06995 0.22056q0 0.1404-0.06995 0.22056-0.06995 0.0796-0.19248 0.0796-0.12304 0-0.19299-0.0796-0.06943-0.0802-0.06943-0.22056 0-0.14091 0.06943-0.22056 0.06995-0.0797 0.19299-0.0797z"/><path d="m81.641 379.31h0.09394v0.79442h-0.09394z"/><path d="m82.409 379.79v0.046h-0.43193q0.0061 0.097 0.0582 0.14806 0.05259 0.0505 0.14602 0.0505 0.05412 0 0.10466-0.0133 0.05105-0.0133 0.10109-0.0398v0.0888q-0.05054 0.0214-0.10364 0.0327-0.0531 0.0112-0.10773 0.0112-0.13683 0-0.21699-0.0796-0.07965-0.0797-0.07965-0.21545 0-0.14041 0.07556-0.22261 0.07607-0.0827 0.20473-0.0827 0.11539 0 0.18227 0.0745 0.06739 0.074 0.06739 0.20167zm-0.09394-0.0276q-1e-3 -0.0771-0.0434-0.12305-0.04187-0.046-0.1113-0.046-0.07863 0-0.12611 0.0444-0.04697 0.0444-0.05412 0.12509l0.33492-5.1e-4z"/></g><g transform="matrix(.93545 0 0 .93685 4.51 23.445)"><g transform="translate(-.08298 .02737)"><path d="m67.35 379.57v0.28642h0.12968q0.07199 0 0.1113-0.0373t0.03931-0.1062q0-0.0684-0.03931-0.10568-0.03931-0.0373-0.1113-0.0373h-0.12968zm-0.10313-0.0848h0.23281q0.12815 0 0.1935 0.0582 0.06586 0.0577 0.06586 0.1695 0 0.11284-0.06586 0.17053-0.06535 0.0577-0.1935 0.0577h-0.12968v0.30633h-0.10313v-0.76225z"/><path d="m68.048 379.74q-0.07556 0-0.11947 0.0592-0.04391 0.0587-0.04391 0.16133t0.0434 0.16185q0.04391 0.0587 0.11998 0.0587 0.07505 0 0.11896-0.0592t0.04391-0.16134q0-0.1016-0.04391-0.16082-0.04391-0.0597-0.11896-0.0597zm0-0.0796q0.12253 0 0.19248 0.0796t0.06995 0.22056q0 0.14041-0.06995 0.22056-0.06995 0.0796-0.19248 0.0796-0.12304 0-0.19299-0.0796-0.06944-0.0802-0.06944-0.22056 0-0.14091 0.06944-0.22056 0.06995-0.0796 0.19299-0.0796z"/><path d="m68.401 379.68h0.09394l0.11743 0.44623 0.11692-0.44623h0.11079l0.11743 0.44623 0.11692-0.44623h0.09394l-0.14959 0.57182h-0.11079l-0.12304-0.46868-0.12355 0.46868h-0.11079l-0.14959-0.57182z"/><path d="m69.79 379.94v0.046h-0.43193q0.0061 0.097 0.0582 0.14806 0.05259 0.0505 0.14602 0.0505 0.05412 0 0.10466-0.0133 0.05106-0.0133 0.10109-0.0398v0.0888q-0.05054 0.0215-0.10364 0.0327t-0.10773 0.0112q-0.13683 0-0.21698-0.0796-0.07965-0.0796-0.07965-0.21545 0-0.1404 0.07556-0.2226 0.07607-0.0827 0.20473-0.0827 0.11538 0 0.18227 0.0745 0.06739 0.074 0.06739 0.20167zm-0.09394-0.0276q-1e-3 -0.0771-0.0434-0.12305-0.04187-0.046-0.1113-0.046-0.07863 0-0.12611 0.0444-0.04697 0.0444-0.05412 0.12509l0.33492-5.1e-4z"/><path d="m70.265 379.77q-0.01583-9e-3 -0.03472-0.0133-0.01838-5e-3 -0.04084-5e-3 -0.07965 0-0.12253 0.0521-0.04238 0.0516-0.04238 0.14857v0.30122h-0.09445v-0.57182h0.09445v0.0888q0.02961-0.0521 0.07709-0.0771 0.04748-0.0255 0.11539-0.0255 0.0097 0 0.02144 2e-3 0.01174 1e-3 0.02604 4e-3l5.11e-4 0.0965z"/></g><g transform="translate(-.08298 .02737)"><path d="m67.247 381.56h0.43806v0.0868h-0.33492v0.22464h0.30225v0.0868h-0.30225v0.36403h-0.10313v-0.76226z"/><path d="m67.999 382.03q-0.11385 0-0.15776 0.026t-0.04391 0.0888q0 0.05 0.03268 0.0797 0.03319 0.0291 0.08986 0.0291 0.07811 0 0.12509-0.0551 0.04748-0.0557 0.04748-0.14755v-0.0209h-0.09343zm0.18737-0.0388v0.32624h-0.09394v-0.0868q-0.03216 0.0521-0.08016 0.0771-0.04799 0.0245-0.11743 0.0245-0.08781 0-0.13989-0.049-0.05157-0.0495-0.05157-0.13223 0-0.0965 0.06433-0.14551 0.06484-0.049 0.19299-0.049h0.13172v-9e-3q0-0.0648-0.04289-0.10007-0.04238-0.0357-0.11947-0.0357-0.04901 0-0.09547 0.0117-0.04646 0.0118-0.08935 0.0352v-0.0868q0.05157-0.0199 0.10007-0.0296 0.0485-0.0102 0.09445-0.0102 0.12406 0 0.18533 0.0643t0.06127 0.19504z"/><path d="m68.36 382.09v-0.34616h0.09394v0.34258q0 0.0812 0.03165 0.12202 0.03166 0.0403 0.09496 0.0403 0.07607 0 0.11998-0.0485 0.04442-0.0485 0.04442-0.13223v-0.3242h0.09394v0.57182h-0.09394v-0.0878q-0.03421 0.0521-0.07965 0.0776-0.04493 0.025-0.10466 0.025-0.09854 0-0.14959-0.0613-0.05106-0.0613-0.05106-0.1792zm0.23639-0.35995z"/><path d="m69.023 381.52h0.09394v0.79442h-0.09394z"/><path d="m69.395 381.58v0.16236h0.1935v0.073h-0.1935v0.31042q0 0.0699 0.01889 0.0899 0.0194 0.0199 0.07811 0.0199h0.0965v0.0786h-0.0965q-0.10875 0-0.1501-0.0403-0.04135-0.0409-0.04135-0.14806v-0.31042h-0.06892v-0.073h0.06892v-0.16236h0.09445z"/></g><g transform="translate(-.08298 .02737)"><path d="m67.247 383.92h0.10313v0.67546h0.37117v0.0868h-0.47431z"/><path d="m68.018 384.18q-0.07556 0-0.11947 0.0592-0.04391 0.0587-0.04391 0.16133t0.0434 0.16185q0.04391 0.0587 0.11998 0.0587 0.07505 0 0.11896-0.0592t0.04391-0.16134q0-0.1016-0.04391-0.16082-0.04391-0.0597-0.11896-0.0597zm0-0.0797q0.12253 0 0.19248 0.0797 0.06995 0.0796 0.06995 0.22055 0 0.14041-0.06995 0.22056-0.06995 0.0796-0.19248 0.0796-0.12304 0-0.19299-0.0796-0.06944-0.0802-0.06944-0.22056 0-0.14091 0.06944-0.22055 0.06995-0.0797 0.19299-0.0797z"/><path d="m68.836 384.13v0.0878q-0.03982-0.022-0.08016-0.0327-0.03982-0.0112-0.08067-0.0112-0.09139 0-0.14194 0.0582-0.05054 0.0577-0.05054 0.16235 0 0.10467 0.05054 0.16287 0.05054 0.0577 0.14194 0.0577 0.04084 0 0.08067-0.0107 0.04033-0.0112 0.08016-0.0332v0.0868q-0.03931 0.0184-0.08169 0.0276-0.04187 9e-3 -0.08935 9e-3 -0.12917 0-0.20524-0.0812t-0.07607-0.21903q0-0.13989 0.07658-0.22004 0.07709-0.0802 0.21086-0.0802 0.0434 0 0.08475 9e-3t0.08016 0.0265z"/><path d="m69.25 384.4q-0.11385 0-0.15776 0.026t-0.04391 0.0888q0 0.05 0.03268 0.0796 0.03319 0.0291 0.08986 0.0291 0.07811 0 0.12509-0.0551 0.04748-0.0557 0.04748-0.14755v-0.0209h-0.09343zm0.18737-0.0388v0.32625h-0.09394v-0.0868q-0.03216 0.0521-0.08016 0.0771-0.04799 0.0245-0.11743 0.0245-0.08782 0-0.13989-0.049-0.05157-0.0495-0.05157-0.13224 0-0.0965 0.06433-0.1455 0.06484-0.049 0.19299-0.049h0.13172v-9e-3q0-0.0648-0.04289-0.10007-0.04238-0.0357-0.11947-0.0357-0.04901 0-0.09547 0.0117t-0.08935 0.0352v-0.0868q0.05157-0.0199 0.10007-0.0296 0.0485-0.0102 0.09445-0.0102 0.12406 0 0.18533 0.0643t0.06127 0.19503z"/><path d="m69.714 383.95v0.16235h0.1935v0.073h-0.1935v0.31042q0 0.07 0.01889 0.0899 0.0194 0.0199 0.07812 0.0199h0.09649v0.0786h-0.09649q-0.10875 0-0.1501-0.0403-0.04136-0.0408-0.04136-0.14806v-0.31042h-0.06892v-0.073h0.06892v-0.16235h0.09445z"/><path d="m70.243 384.18q-0.07556 0-0.11947 0.0592-0.04391 0.0587-0.04391 0.16133t0.0434 0.16185q0.04391 0.0587 0.11998 0.0587 0.07505 0 0.11896-0.0592t0.04391-0.16134q0-0.1016-0.04391-0.16082-0.04391-0.0597-0.11896-0.0597zm0-0.0797q0.12253 0 0.19248 0.0797 0.06995 0.0796 0.06995 0.22055 0 0.14041-0.06995 0.22056-0.06995 0.0796-0.19248 0.0796-0.12304 0-0.19299-0.0796-0.06943-0.0802-0.06943-0.22056 0-0.14091 0.06943-0.22055 0.06995-0.0797 0.19299-0.0797z"/><path d="m70.981 384.2q-0.01583-9e-3 -0.03472-0.0133-0.01838-5e-3 -0.04084-5e-3 -0.07965 0-0.12253 0.0521-0.04238 0.0516-0.04238 0.14857v0.30123h-0.09445v-0.57183h0.09445v0.0888q0.02961-0.0521 0.07709-0.0771 0.04748-0.0255 0.11539-0.0255 0.0097 0 0.02144 2e-3 0.01174 1e-3 0.02604 4e-3l5.11e-4 0.0965z"/></g></g><g transform="matrix(.93545 0 0 .93685 4.4324 23.471)"><path d="m70.512 393.35v0.10875q-0.05208-0.0485-0.1113-0.0725-0.05871-0.024-0.12509-0.024-0.1307 0-0.20014 0.0802-0.06943 0.0797-0.06943 0.23077 0 0.15061 0.06943 0.23077 0.06944 0.0797 0.20014 0.0797 0.06637 0 0.12509-0.024 0.05922-0.024 0.1113-0.0725v0.10773q-0.05412 0.0368-0.11488 0.0551-0.06025 0.0184-0.12764 0.0184-0.17308 0-0.27264-0.10569-0.09956-0.10619-0.09956-0.28948 0-0.1838 0.09956-0.28948 0.09956-0.1062 0.27264-0.1062 0.06842 0 0.12866 0.0184 0.06076 0.0179 0.11385 0.0541z"/><path d="m70.879 393.54q-0.07556 0-0.11947 0.0592-0.04391 0.0587-0.04391 0.16133 0 0.10262 0.0434 0.16185 0.04391 0.0587 0.11998 0.0587 0.07505 0 0.11896-0.0592t0.04391-0.16134q0-0.1016-0.04391-0.16082-0.04391-0.0597-0.11896-0.0597zm0-0.0796q0.12253 0 0.19248 0.0796t0.06995 0.22056q0 0.14041-0.06995 0.22056-0.06995 0.0797-0.19248 0.0797-0.12304 0-0.19299-0.0797-0.06944-0.0802-0.06944-0.22056 0-0.14091 0.06944-0.22056 0.06995-0.0796 0.19299-0.0796z"/><path d="m71.761 393.7v0.34513h-0.09394v-0.34207q0-0.0812-0.03165-0.12151-0.03166-0.0403-0.09496-0.0403-0.07607 0-0.11998 0.0485t-0.04391 0.13223v0.32318h-0.09445v-0.57182h0.09445v0.0888q0.0337-0.0516 0.07914-0.0771 0.04595-0.0255 0.10568-0.0255 0.09854 0 0.14908 0.0613 0.05054 0.0608 0.05054 0.17921z"/><path d="m72.304 393.49v0.0888q-0.03982-0.0204-0.08271-0.0306t-0.08884-0.0102q-0.06995 0-0.10518 0.0215-0.03472 0.0214-0.03472 0.0643 0 0.0327 0.02502 0.0516 0.02502 0.0184 0.10058 0.0352l0.03216 7e-3q0.10007 0.0214 0.14193 0.0607 0.04238 0.0388 0.04238 0.10875 0 0.0797-0.06331 0.12611-0.0628 0.0465-0.17308 0.0465-0.04595 0-0.09598-9e-3 -0.04952-9e-3 -0.10466-0.0265v-0.097q0.05208 0.0271 0.10262 0.0408 0.05054 0.0133 0.10007 0.0133 0.06637 0 0.10211-0.0225 0.03574-0.023 0.03574-0.0643 0-0.0383-0.02604-0.0587-0.02553-0.0204-0.11283-0.0393l-0.03268-8e-3q-0.08731-0.0184-0.12611-0.0562-0.0388-0.0383-0.0388-0.10466 0-0.0807 0.05718-0.12458 0.05718-0.0439 0.16236-0.0439 0.05208 0 0.09803 8e-3t0.08475 0.023z"/><path d="m72.696 393.54q-0.07556 0-0.11947 0.0592-0.04391 0.0587-0.04391 0.16133 0 0.10262 0.0434 0.16185 0.04391 0.0587 0.11998 0.0587 0.07505 0 0.11896-0.0592t0.04391-0.16134q0-0.1016-0.04391-0.16082-0.04391-0.0597-0.11896-0.0597zm0-0.0796q0.12253 0 0.19248 0.0796t0.06995 0.22056q0 0.14041-0.06995 0.22056-0.06995 0.0797-0.19248 0.0797-0.12304 0-0.19299-0.0797-0.06944-0.0802-0.06944-0.22056 0-0.14091 0.06944-0.22056 0.06995-0.0796 0.19299-0.0796z"/><path d="m73.103 393.26h0.09394v0.79442h-0.09394z"/><path d="m73.872 393.74v0.046h-0.43193q0.0061 0.097 0.0582 0.14806 0.05259 0.0505 0.14602 0.0505 0.05412 0 0.10466-0.0133 0.05106-0.0133 0.10109-0.0398v0.0888q-0.05054 0.0214-0.10364 0.0327-0.0531 0.0112-0.10773 0.0112-0.13683 0-0.21699-0.0797-0.07965-0.0796-0.07965-0.21545 0-0.1404 0.07556-0.2226 0.07607-0.0827 0.20473-0.0827 0.11538 0 0.18227 0.0745 0.06739 0.074 0.06739 0.20167zm-0.09394-0.0276q-1e-3 -0.0771-0.0434-0.12305-0.04187-0.0459-0.1113-0.0459-0.07863 0-0.12611 0.0444-0.04697 0.0444-0.05412 0.12509l0.33492-5.1e-4z"/></g></g><g transform="matrix(1.8764 0 0 1.8792 -57.707 -321.6)"><rect x="77.967" y="387.91" width="3.3193" height="1.9916" rx=".089249" ry=".043549"/><g fill="#b3b3b3" stroke-width="1px"><path d="m78.058 388.5h0.92418v0.19545h-0.33246v0.80731h-0.25858v-0.80731h-0.33313z"/><path d="m79.659 389.12v0.0685h-0.56216q0.0087 0.0846 0.06112 0.12693 0.05239 0.0423 0.14642 0.0423 0.0759 0 0.15515-0.0222 0.07993-0.0228 0.16388-0.0685v0.18537q-0.0853 0.0322-0.1706 0.0484-0.0853 0.0168-0.1706 0.0168-0.20418 0-0.31768-0.10343-0.11284-0.10411-0.11284-0.2915 0-0.18402 0.11082-0.28947 0.11149-0.10545 0.30627-0.10545 0.17731 0 0.28343 0.10679 0.10679 0.10679 0.10679 0.28545zm-0.24716-0.0799q0-0.0685-0.0403-0.11015-0.03963-0.0423-0.1041-0.0423-0.06985 0-0.11351 0.0396-0.04366 0.0389-0.0544 0.11283h0.31231z"/><path d="m80.415 388.77v0.18269q-0.07724-0.0322-0.1491-0.0484-0.07186-0.0161-0.13567-0.0161-0.06851 0-0.10209 0.0175-0.03291 0.0168-0.03291 0.0524 0 0.0289 0.02485 0.0443 0.02552 0.0154 0.09067 0.0228l0.04231 6e-3q0.1847 0.0235 0.24851 0.0772t0.06381 0.16858q0 0.12022-0.08866 0.18067-0.08866 0.0605-0.26462 0.0605-0.07455 0-0.15448-0.0121-0.07925-0.0114-0.16321-0.0349v-0.18268q0.07187 0.0349 0.14709 0.0524 0.0759 0.0175 0.15381 0.0175 0.07052 0 0.10612-0.0195t0.0356-0.0578q0-0.0322-0.02485-0.0477-0.02418-0.0161-0.09739-0.0248l-0.04231-5e-3q-0.16052-0.0202-0.225-0.0745-0.06448-0.0544-0.06448-0.16523 0-0.11955 0.08194-0.17731 0.08194-0.0578 0.25119-0.0578 0.06649 0 0.1397 0.0101t0.15918 0.0316z"/><path d="m80.895 388.54v0.21358h0.24784v0.17194h-0.24784v0.31903q0 0.0524 0.02082 0.0712 0.02082 0.0181 0.08261 0.0181h0.12358v0.17194h-0.20619q-0.14239 0-0.20216-0.0591-0.05911-0.0598-0.05911-0.20217v-0.31903h-0.11955v-0.17194h0.11955v-0.21358h0.24045z"/></g></g><g transform="matrix(1.8764 0 0 1.8792 -57.248 -321.93)"><rect x="77.722" y="385.68" width="3.3193" height="1.9916" rx=".089249" ry=".043549"/><g fill="#00ff1f" stroke-width="1px"><path d="m77.784 386.06h0.84512v0.2367h-0.53196v0.22612h0.50024v0.2367h-0.50024v0.51488h-0.31316z"/><path d="m79.204 386.87q-0.0911 0-0.13746 0.0309-0.04555 0.0309-0.04555 0.0911 0 0.0553 0.0366 0.087 0.03742 0.0309 0.1033 0.0309 0.08215 0 0.13828-0.0586 0.05612-0.0594 0.05612-0.14804v-0.0334h-0.15129zm0.44493-0.10981v0.51976h-0.29364v-0.13502q-0.05856 0.083-0.13177 0.12119-0.07321 0.0374-0.17813 0.0374-0.14153 0-0.23019-0.0821-0.08785-0.083-0.08785-0.21474 0-0.16024 0.10981-0.23507 0.11062-0.0748 0.34651-0.0748h0.17163v-0.0228q0-0.0691-0.0545-0.10086-0.0545-0.0325-0.17-0.0325-0.09354 0-0.17407 0.0187t-0.14966 0.0561v-0.22205q0.09354-0.0228 0.1879-0.0342 0.09435-0.0122 0.18871-0.0122 0.24646 0 0.35545 0.0976 0.10981 0.0968 0.10981 0.3156z"/><path d="m80.821 386.72v0.55474h-0.29282v-0.4246q0-0.11795-0.0057-0.16268-0.0049-0.0447-0.01789-0.0659-0.01708-0.0285-0.04636-0.0439-0.02928-0.0163-0.0667-0.0163-0.0911 0-0.14316 0.0708-0.05206 0.07-0.05206 0.1944v0.44818h-0.2912v-0.911h0.2912v0.13339q0.06588-0.0797 0.1399-0.11713 0.07402-0.0382 0.16349-0.0382 0.1578 0 0.23914 0.0968 0.08215 0.0968 0.08215 0.28143z"/></g></g><g transform="matrix(1.8764 0 0 1.8792 -57.987 -317.87)" fill="#fff" stroke-width="1px"><path d="m78.685 381.76v0.10058q-0.05871-0.0281-0.11079-0.0419t-0.10058-0.0138q-0.08424 0-0.13019 0.0327-0.04544 0.0327-0.04544 0.0929 0 0.0505 0.03012 0.0766 0.03063 0.0255 0.11538 0.0414l0.06229 0.0128q0.11539 0.022 0.17002 0.0776 0.05514 0.0551 0.05514 0.14807 0 0.11079-0.07454 0.16797-0.07403 0.0572-0.2175 0.0572-0.05412 0-0.11538-0.0123-0.06076-0.0123-0.12611-0.0362v-0.1062q0.0628 0.0352 0.12304 0.0531t0.11845 0.0179q0.08833 0 0.13632-0.0347t0.04799-0.099q0-0.0562-0.03472-0.0878-0.03421-0.0317-0.11283-0.0475l-0.0628-0.0123q-0.11538-0.023-0.16695-0.072t-0.05157-0.13632q0-0.10109 0.07097-0.1593 0.07148-0.0582 0.19656-0.0582 0.05361 0 0.10926 0.01t0.11385 0.0291z"/><path d="m78.97 381.76v0.16235h0.1935v0.073h-0.1935v0.31042q0 0.07 0.01889 0.0899 0.0194 0.0199 0.07811 0.0199h0.0965v0.0786h-0.0965q-0.10875 0-0.1501-0.0403-0.04135-0.0408-0.04135-0.14806v-0.31042h-0.06892v-0.073h0.06892v-0.16235h0.09445z"/><path d="m79.537 382.21q-0.11385 0-0.15776 0.026t-0.04391 0.0888q0 0.05 0.03268 0.0796 0.03319 0.0291 0.08986 0.0291 0.07812 0 0.12509-0.0551 0.04748-0.0557 0.04748-0.14756v-0.0209h-0.09343zm0.18737-0.0388v0.32624h-0.09394v-0.0868q-0.03216 0.0521-0.08016 0.0771-0.04799 0.0245-0.11743 0.0245-0.08782 0-0.13989-0.049-0.05157-0.0495-0.05157-0.13224 0-0.0965 0.06433-0.1455 0.06484-0.049 0.19299-0.049h0.13172v-9e-3q0-0.0648-0.04289-0.10007-0.04238-0.0357-0.11947-0.0357-0.04901 0-0.09547 0.0118-0.04646 0.0117-0.08935 0.0352v-0.0868q0.05157-0.0199 0.10007-0.0296 0.0485-0.0102 0.09445-0.0102 0.12406 0 0.18533 0.0643t0.06127 0.19503z"/><path d="m80.001 381.76v0.16235h0.1935v0.073h-0.1935v0.31042q0 0.07 0.01889 0.0899 0.0194 0.0199 0.07812 0.0199h0.09649v0.0786h-0.09649q-0.10875 0-0.1501-0.0403-0.04136-0.0408-0.04136-0.14806v-0.31042h-0.06892v-0.073h0.06892v-0.16235h0.09445z"/><path d="m80.298 382.27v-0.34616h0.09394v0.34259q0 0.0812 0.03165 0.12202 0.03166 0.0403 0.09496 0.0403 0.07607 0 0.11998-0.0485 0.04442-0.0485 0.04442-0.13223v-0.32421h0.09394v0.57182h-0.09394v-0.0878q-0.03421 0.0521-0.07965 0.0776-0.04493 0.025-0.10466 0.025-0.09854 0-0.14959-0.0613-0.05106-0.0613-0.05106-0.1792zm0.23639-0.35994z"/><path d="m81.326 381.94v0.0888q-0.03982-0.0204-0.08271-0.0306t-0.08884-0.0102q-0.06995 0-0.10517 0.0214-0.03472 0.0214-0.03472 0.0643 0 0.0327 0.02502 0.0516 0.02502 0.0184 0.10058 0.0352l0.03216 7e-3q0.10007 0.0214 0.14193 0.0607 0.04238 0.0388 0.04238 0.10875 0 0.0796-0.06331 0.12611-0.0628 0.0465-0.17308 0.0465-0.04595 0-0.09598-9e-3 -0.04952-9e-3 -0.10466-0.0265v-0.097q0.05208 0.0271 0.10262 0.0408 0.05054 0.0133 0.10007 0.0133 0.06637 0 0.10211-0.0225 0.03574-0.023 0.03574-0.0643 0-0.0383-0.02604-0.0587-0.02553-0.0204-0.11283-0.0393l-0.03268-8e-3q-0.08731-0.0184-0.12611-0.0562-0.0388-0.0383-0.0388-0.10466 0-0.0807 0.05718-0.12457 0.05718-0.0439 0.16236-0.0439 0.05208 0 0.09803 8e-3t0.08475 0.023z"/></g><g transform="matrix(1.8413 0 0 1.844 -54.621 -294.41)"><rect x="66.097" y="364.4" width="10.428" height="4.9758" rx=".16805" ry=".081999" fill="#231f20" stroke="#000" stroke-linejoin="round" stroke-width=".2125"/><path class="st1" d="m71.919 367.15c0 0.48887-0.3911 0.88609-0.86776 0.88609-0.47665 0-0.86775-0.39722-0.86775-0.88609v-0.75165s0.41555 0.10389 0.41555 0.54388v0.20777c0 0.26888 0.20166 0.48276 0.4522 0.48276 0.25055 0 0.45221-0.21388 0.45221-0.48276v-0.43388 6e-3c0.01835-0.36666 0.32999-0.48277 0.40944-0.52555h0.0064v0.95331zm-2.2305-0.87997c0.11612 0 0.22611 0.0183 0.32388 0.0611v0.46443c-0.08555-0.0733-0.20166-0.11611-0.32388-0.11611-0.27499 0-0.49498 0.21389-0.49498 0.48277v0.87386h-0.41555v-1.6011s0.17111 6e-3 0.2811 0.0856c0.15888-0.15889 0.38499-0.25055 0.62943-0.25055m-1.9922 1.3688c-0.27499 0-0.5011-0.22-0.5011-0.48888s0.2261-0.48888 0.5011-0.48888 0.50109 0.22 0.50109 0.48888-0.2261 0.48888-0.50109 0.48888m0-1.3688c-0.5011 0-0.90442 0.39721-0.90442 0.87997 0 0.48888 0.40333 0.87998 0.90442 0.87998 0.20777 0 0.39721-0.0672 0.54998-0.18333 0.09167 0.15277 0.35444 0.18333 0.35444 0.18333v-0.87998c0-0.48276-0.40333-0.87997-0.90442-0.87997m7.2293 1.3688c-0.275 0-0.5011-0.22-0.5011-0.48888s0.2261-0.48888 0.5011-0.48888c0.27499 0 0.50109 0.22 0.50109 0.48888s-0.2261 0.48888-0.50109 0.48888m0-1.3688c-0.5011 0-0.90442 0.39721-0.90442 0.87997 0 0.48888 0.40332 0.87998 0.90442 0.87998 0.20777 0 0.39721-0.0672 0.54998-0.18333 0.09167 0.15277 0.35443 0.18333 0.35443 0.18333v-0.87998c0-0.48276-0.40332-0.87997-0.90442-0.87997m-1.9188 1.3688c-0.275 0-0.5011-0.22-0.5011-0.48888s0.2261-0.48888 0.5011-0.48888c0.27499 0 0.50109 0.22 0.50109 0.48888 0.0064 0.26888-0.22 0.48888-0.50109 0.48888m0-1.3688c-0.18333 0-0.35443 0.055-0.5011 0.14666v-0.14055c-0.01835-0.36666-0.31777-0.48277-0.39721-0.52555h-0.0064v2.2855s0.26888-0.0306 0.37277-0.17722c0.15277 0.10389 0.3361 0.17111 0.53166 0.17111 0.5011 0 0.90442-0.39721 0.90442-0.87998 0.0064-0.48276-0.40332-0.87997-0.90442-0.87997" fill="#f5831f"/></g><g transform="matrix(.030393 0 0 .030393 87.287 376.44)" fill="#fff" stroke-width=".4979px" aria-label="J9776A"><path d="m99.041 302.47h8.8396v60.783q0 11.815-4.5073 17.154-4.4636 5.3388-14.397 5.3388h-3.3696v-7.4393h2.7569q5.8639 0 8.2707-3.282t2.4068-11.772z"/><path d="m126.32 366.45v-8.0519q3.3258 1.5754 6.7391 2.4068 3.4133 0.83145 6.6954 0.83145 8.7521 0 13.347-5.8639 4.6386-5.9077 5.295-17.898-2.5381 3.7634-6.4328 5.7764t-8.6208 2.013q-9.8024 0-15.535-5.9077-5.6889-5.9514-5.6889-16.235 0-10.065 5.9514-16.148 5.9514-6.0827 15.841-6.0827 11.334 0 17.285 8.7084 5.9952 8.6646 5.9952 25.206 0 15.447-7.3518 24.681-7.308 9.1897-19.692 9.1897-3.3258 0-6.7391-0.65641t-7.0892-1.9692zm17.592-27.7q5.9514 0 9.4085-4.0697 3.5008-4.0697 3.5008-11.159 0-7.0454-3.5008-11.115-3.4571-4.1135-9.4085-4.1135t-9.4523 4.1135q-3.4571 4.0697-3.4571 11.115 0 7.0892 3.4571 11.159 3.5008 4.0697 9.4523 4.0697z"/><path d="m180.69 302.47h42.01v3.7634l-23.718 61.571h-9.2335l22.318-57.895h-31.376z"/><path d="m237.56 302.47h42.01v3.7634l-23.718 61.571h-9.2335l22.318-57.895h-31.376z"/><path d="m316.65 331.62q-5.9514 0-9.4523 4.0697-3.4571 4.0697-3.4571 11.159 0 7.0454 3.4571 11.159 3.5008 4.0697 9.4523 4.0697 5.9514 0 9.4085-4.0697 3.5008-4.1135 3.5008-11.159 0-7.0892-3.5008-11.159-3.4571-4.0697-9.4085-4.0697zm17.548-27.7v8.0519q-3.3258-1.5754-6.7391-2.4068-3.3696-0.83145-6.6954-0.83145-8.7521 0-13.391 5.9077-4.5949 5.9077-5.2513 17.854 2.5819-3.8072 6.4766-5.8202 3.8947-2.0567 8.5771-2.0567 9.8461 0 15.535 5.9952 5.7326 5.9514 5.7326 16.235 0 10.065-5.9514 16.148-5.9514 6.0827-15.841 6.0827-11.334 0-17.329-8.6646-5.9952-8.7084-5.9952-25.206 0-15.491 7.3518-24.681 7.3518-9.2335 19.736-9.2335 3.3258 0 6.6954 0.65641 3.4133 0.65641 7.0892 1.9692z"/><path d="m374.57 311.18-11.99 32.514h24.025zm-4.9887-8.7084h10.021l24.9 65.334h-9.1897l-5.9514-16.76h-29.451l-5.9514 16.76h-9.321z"/></g></svg>
