<svg width="254" height="44.5" version="1.1" viewBox="66 376 254 44.5" xmlns="http://www.w3.org/2000/svg"><rect x="66.248" y="376.25" width="253.5" height="44.003" fill="#2f2524" fill-rule="evenodd" stroke="#000" stroke-linecap="round" stroke-miterlimit="4.4" stroke-width=".49672"/><text transform="scale(1.0397 .96177)" x="74.660637" y="391.9072" fill="#ffffff" font-family="sans-serif" font-size="2.4768px" font-weight="700"/><g transform="matrix(1.9791 0 0 1.7913 -58.353 -323.43)" fill="#fff" aria-label="2530-8 G"><path d="m81.31 393.43h0.71868v0.33302h-0.71868z"/><path d="m75.339 393.95h0.75187v0.32386h-1.2417v-0.32386l0.6237-0.55046c0.1446-0.0922 0.16364-0.24012 0.16364-0.29754 0-0.34712-0.41946-0.32329-0.78277-0.0915v-0.37536c0.55817-0.17999 1.2257-0.15406 1.2257 0.41085 0 0.28603-0.22653 0.42897-0.37536 0.58364z"/><path d="m76.542 392.57h1.0952v0.32386h-0.74386v0.26436c0.46422-0.10936 0.86746 0.10078 0.86746 0.56305 0 0.66185-0.78078 0.68329-1.2863 0.47721v-0.34676c0.42713 0.25588 0.84572 0.1998 0.84572-0.13039 0-0.35126-0.42617-0.342-0.7782-0.18996z"/><path d="m79.015 393.35c0.2737 0.0544 0.35248 0.26914 0.35248 0.43602 0 0.59577-0.76678 0.56161-1.2874 0.43381v-0.33989c0.37533 0.20068 0.84685 0.16744 0.84685-0.10995 0-0.23517-0.24862-0.23489-0.55389-0.23694v-0.28381c0.40695 0 0.51383-0.0467 0.51383-0.21057 0-0.28039-0.48345-0.23113-0.73356-0.11111v-0.32272c0.17124-0.0591 0.34638-0.0558 0.5104-0.0732 0.46117 0 0.66375 0.1544 0.66375 0.4383 0.0015 0.26983-0.17805 0.34016-0.31242 0.37994z"/><path d="m80.631 393.42c0-0.29727-0.02415-0.58249-0.26206-0.58249-0.23791 0-0.26321 0.26555-0.26321 0.58249s0.01862 0.57915 0.26321 0.58937c0.24459 0.0102 0.26206-0.2921 0.26206-0.58937zm0.44059 3e-3c0 0.51176-0.20129 0.88576-0.70266 0.88576s-0.7038-0.36853-0.7038-0.88576 0.21244-0.88691 0.7038-0.88691 0.70266 0.37515 0.70266 0.88691z"/><path d="m82.974 393.51c-0.13142 0-0.25635 0.0804-0.25635 0.2609 0 0.18049 0.12054 0.2598 0.25635 0.2598s0.25291-0.0681 0.25291-0.2598c0-0.19174-0.12149-0.2609-0.25291-0.2609zm-0.32158-0.14534c-0.08998-0.0266-0.31508-0.0933-0.31356-0.38681 0.0015-0.29352 0.23592-0.44288 0.63514-0.44288s0.63285 0.15691 0.63285 0.44288-0.21144 0.35015-0.31471 0.38681c0.07437 0.0279 0.34301 0.0724 0.35133 0.42915 0.0083 0.35673-0.28484 0.51383-0.66947 0.51383s-0.67291-0.14696-0.67291-0.51383 0.31521-0.40611 0.35133-0.42915zm0.103-0.34218c0 0.15611 0.10901 0.21169 0.21858 0.21169s0.21515-0.0571 0.21515-0.21169c0-0.15458-0.09413-0.21053-0.21515-0.21053-0.12102 0-0.21858 0.0544-0.21858 0.21053z"/><path d="m86.353 394.15c-0.7286 0.324-1.6342 0.19289-1.6342-0.7255 0-0.89678 0.90018-1.0334 1.5713-0.75991v0.35362c-0.65805-0.33403-1.1158-0.13581-1.1158 0.40621 0 0.47902 0.34981 0.65271 0.76103 0.53097v-0.33188h-0.26893v-0.29525h0.68664z"/></g><text transform="scale(1.0003 .99968)" x="79.690422" y="368.06918" fill="#000000" font-family="sans-serif" font-size="21.25px" letter-spacing="0px" stroke-width="1px" word-spacing="0px" style="line-height:125%" xml:space="preserve"/><g transform="matrix(1.1824 0 0 1.9915 84.897 -368.32)"><rect x="119.8" y="379.65" width="78.083" height="15.703" rx=".6" ry=".6" fill="#bebebe"/></g><rect x="252.75" y="397.64" width="15.83" height="13.388" fill="#3a3a3a" stroke="#000" stroke-width=".5"/><g transform="matrix(1.8829 0 0 1.8829 -58.353 -323.43)" fill="#fff"><g transform="scale(1.0397 .96177)" aria-label="9T"><path d="m154.27 395.55h1.1793v0.24939h-0.42423v1.0302h-0.32995v-1.0302h-0.42509z"/><path d="m153.21 396.8v-0.23655c0.39621 0.1667 0.59536 0.0269 0.61959-0.2511-0.34397 0.21406-0.70448 7e-3 -0.70448-0.32996 5e-3 -0.36772 0.30616-0.45509 0.49365-0.45509 0.42332 0 0.5245 0.34865 0.5245 0.6462 0 0.63852-0.48074 0.77972-0.93331 0.62653zm0.4071-0.61621c0.11315 0 0.17396-0.0854 0.17396-0.22453 0-0.13912-0.0496-0.22458-0.17396-0.22458-0.12433 0-0.17397 0.0756-0.17397 0.22458 0 0.14895 0.0608 0.22453 0.17397 0.22453z"/></g><g transform="scale(1.0397 .96177)" aria-label="10T"><path d="m161.25 396.6h0.2914v-0.82704l-0.29911 0.0617v-0.22455l0.29739-0.0617h0.31368v1.0516h0.29139v0.22797h-0.89475z"/><path d="m163.49 395.55h1.1793v0.24939h-0.42423v1.0302h-0.32996v-1.0302h-0.42508z"/><path d="m163.07 396.19c0-0.29305-0.045-0.43627-0.19624-0.43627-0.15126 0-0.19709 0.15032-0.19709 0.43627s0.0434 0.44135 0.19709 0.44135c0.15365 0 0.19624-0.1483 0.19624-0.44135zm0.32995 3e-3c0 0.36054-0.13995 0.66317-0.52622 0.66334s-0.52696-0.29852-0.52707-0.66334c-9e-5 -0.2917 0.10772-0.6642 0.52707-0.6642s0.52622 0.30366 0.52622 0.6642z"/></g><g transform="scale(1.0397 .96177)" aria-label="9S"><path d="m175.9 397.98v0.27082c-0.30145-0.12832-0.62653-0.13555-0.62653 0.0386 0 0.22343 0.71048 0.0417 0.71048 0.53651-5.7e-4 0.51125-0.57821 0.45597-0.99845 0.32653v-0.27854c0.31066 0.19389 0.68047 0.17053 0.68047-8e-3 0-0.25681-0.69162-0.0543-0.69162-0.55287 0-0.47253 0.51691-0.43314 0.9256-0.3334z"/></g><g transform="scale(1.0397 .96177)" aria-label="10S"><path d="m184 398.99h0.2914v-0.82703l-0.29911 0.0617v-0.22454l0.29739-0.0617h0.31368v1.0516h0.29139v0.22798h-0.89475z"/></g></g><rect x="88.87" y="378.24" width="27.551" height="14.363" rx=".16805" ry=".081999" fill="none" stroke="#fff" stroke-linejoin="round" stroke-width=".50016"/><path d="m86.854 420.17-0.0075-44.094" fill="none" stroke="#1b0b0a" stroke-linejoin="round"/><g transform="matrix(1.8477 0 0 1.8477 -55.181 -295.67)"><rect x="66.097" y="364.4" width="10.174" height="4.855" rx=".16805" ry=".081999" fill="#2f2524" stroke="#000" stroke-linejoin="round" stroke-width=".10446"/><path class="st1" d="m71.792 367.15c0 0.48887-0.3911 0.88609-0.86776 0.88609-0.47665 0-0.86775-0.39722-0.86775-0.88609v-0.75165s0.41555 0.10389 0.41555 0.54388v0.20777c0 0.26888 0.20166 0.48276 0.4522 0.48276 0.25055 0 0.45221-0.21388 0.45221-0.48276v-0.43388 6e-3c0.01835-0.36666 0.32999-0.48277 0.40944-0.52555h0.0064v0.95331zm-2.2305-0.87997c0.11612 0 0.22611 0.0183 0.32388 0.0611v0.46443c-0.08555-0.0733-0.20166-0.11611-0.32388-0.11611-0.27499 0-0.49498 0.21389-0.49498 0.48277v0.87386h-0.41555v-1.6011s0.17111 6e-3 0.2811 0.0856c0.15888-0.15889 0.38499-0.25055 0.62943-0.25055m-1.9922 1.3688c-0.27499 0-0.5011-0.22-0.5011-0.48888s0.2261-0.48888 0.5011-0.48888 0.50109 0.22 0.50109 0.48888-0.2261 0.48888-0.50109 0.48888m0-1.3688c-0.5011 0-0.90442 0.39721-0.90442 0.87997 0 0.48888 0.40333 0.87998 0.90442 0.87998 0.20777 0 0.39721-0.0672 0.54998-0.18333 0.09167 0.15277 0.35444 0.18333 0.35444 0.18333v-0.87998c0-0.48276-0.40333-0.87997-0.90442-0.87997m7.2293 1.3688c-0.275 0-0.5011-0.22-0.5011-0.48888s0.2261-0.48888 0.5011-0.48888c0.27499 0 0.50109 0.22 0.50109 0.48888s-0.2261 0.48888-0.50109 0.48888m0-1.3688c-0.5011 0-0.90442 0.39721-0.90442 0.87997 0 0.48888 0.40332 0.87998 0.90442 0.87998 0.20777 0 0.39721-0.0672 0.54998-0.18333 0.09167 0.15277 0.35443 0.18333 0.35443 0.18333v-0.87998c0-0.48276-0.40332-0.87997-0.90442-0.87997m-1.9188 1.3688c-0.275 0-0.5011-0.22-0.5011-0.48888s0.2261-0.48888 0.5011-0.48888c0.27499 0 0.50109 0.22 0.50109 0.48888 0.0064 0.26888-0.22 0.48888-0.50109 0.48888m0-1.3688c-0.18333 0-0.35443 0.055-0.5011 0.14666v-0.14055c-0.01835-0.36666-0.31777-0.48277-0.39721-0.52555h-0.0064v2.2855s0.26888-0.0306 0.37277-0.17722c0.15277 0.10389 0.3361 0.17111 0.53166 0.17111 0.5011 0 0.90442-0.39721 0.90442-0.87998 0.0064-0.48276-0.40332-0.87997-0.90442-0.87997" fill="#f5831f"/></g><g transform="matrix(1.8829 0 0 1.8829 -315.28 -335.18)"><g transform="scale(1.0397 .96177)"><path d="m242.28 396.3h0.29139v-0.82704l-0.29911 0.0617v-0.22455l0.29739-0.0617h0.31368v1.0516h0.29139v0.22797h-0.89474v-0.22797z" fill="#fff"/></g></g><g transform="matrix(1.8829 0 0 1.8829 -300.89 -335.18)"><g transform="scale(1.0397 .96177)"><path d="m242.89 395.84c0.19785 0.0573 0.26396 0.19177 0.26396 0.32652 0 0.44854-0.60887 0.42779-0.96416 0.32488v-0.25454c0.31108 0.1535 0.63423 0.1236 0.63423-0.0823 8e-3 -0.18976-0.28283-0.17739-0.28283-0.17739h-0.13198v-0.21254h0.13884c0.0749 0 0.24602-3e-3 0.24602-0.15773 0-0.22229-0.3928-0.15669-0.54932-0.0832v-0.24168c0.42075-0.12187 0.87932-0.0677 0.87932 0.27347 0 0.2523-0.20257 0.26497-0.23393 0.28454z" fill="#fff"/></g></g><g transform="matrix(1.8829 0 0 1.8829 -286.51 -335.18)"><g transform="scale(1.0397 .96177)"><path d="m242.26 395.25h0.82018v0.24254h-0.55707v0.19797c0.39494-0.0756 0.6496 0.0995 0.6496 0.42168 0 0.48078-0.55165 0.50834-0.9633 0.35743v-0.25968c0.34221 0.21416 0.63333 0.11878 0.63333-0.0977 0-0.25919-0.30699-0.26247-0.58277-0.14231v-0.7199z" fill="#fff"/></g></g><g transform="matrix(1.8829 0 0 1.8829 -272.12 -335.18)"><g transform="scale(1.0397 .96177)"><path d="m242.19 395.25h0.96416v0.18597l-0.49879 1.0936h-0.32139l0.47223-1.037h-0.61621z" fill="#fff"/></g></g><g transform="matrix(1.8829 0 0 1.8829 -307.6 -302.39)"><g transform="scale(1.0397 .96177)"><path d="m242.58 396.29h0.56307v0.24254h-0.92988v-0.24254l0.46708-0.41224c0.34444-0.37235-0.10689-0.56413-0.46356-0.29132v-0.2811c0.44809-0.14659 0.91788-0.0888 0.91788 0.30769-0.01 0.21497-0.14 0.309-0.28111 0.43709l-0.27339 0.23997z" fill="#fff"/></g></g><g transform="matrix(1.8829 0 0 1.8829 -293.23 -302.39)"><g transform="scale(1.0397 .96177)"><path d="m242.72 395.52-0.36167 0.53564h0.36167zm-0.0549-0.27168h0.36681v0.80732h0.18255v0.23911h-0.18255v0.23312h-0.31196v-0.23312h-0.56735v-0.28282z" fill="#fff"/></g></g><g transform="matrix(1.8829 0 0 1.8829 -278.86 -302.39)"><g transform="scale(1.0397 .96177)"><path d="m242.71 395.9c-0.13779 0-0.17307 0.0912-0.17307 0.22458s0.0394 0.22453 0.17307 0.22453c0.13364 0 0.17397-0.1085 0.17397-0.22453s-0.0362-0.22458-0.17397-0.22458zm0.40795-0.61449v0.23654c-0.4219-0.17401-0.61965-2e-3 -0.61965 0.24934 0.3497-0.21826 0.70363-2e-3 0.70363 0.33166-3e-3 0.3632-0.29284 0.45337-0.49537 0.45337-0.36424 0-0.52279-0.27758-0.52279-0.6462 0-0.6213 0.45414-0.76388 0.93417-0.62483z" fill="#fff"/></g></g><g transform="matrix(1.8829 0 0 1.8829 -264.48 -302.39)"><g transform="scale(1.0397 .96177)"><path d="m242.69 395.96c-0.11923 0-0.19197 0.0685-0.19197 0.19544 0 0.12699 0.0866 0.19454 0.19197 0.19454s0.18936-0.0572 0.18936-0.19454c0-0.13731-0.0701-0.19544-0.18936-0.19544zm-0.24082-0.10884c-0.21253-0.0607-0.2348-0.21482-0.2348-0.28968 0-0.2755 0.25088-0.33163 0.47565-0.33163 0.34902 0 0.47394 0.14503 0.47394 0.33163 0 0.19004-0.1495 0.26472-0.23569 0.28968 0.20464 0.0593 0.26306 0.19479 0.26306 0.32138 0 0.31789-0.25191 0.38477-0.50137 0.38477-0.35371 8e-3 -0.50393-0.14779-0.50393-0.38477 0-0.23375 0.18884-0.29986 0.26312-0.32138zm0.0771-0.25626c0 0.11946 0.0824 0.15852 0.1637 0.15852s0.16113-0.0358 0.16113-0.15852c0-0.12267-0.0785-0.15765-0.16113-0.15765-0.0826 0-0.1637 0.0382-0.1637 0.15765z" fill="#fff"/></g></g><rect x="156.15" y="383.95" width="58.888" height="27.14" rx="1.3878e-16" ry="1.3878e-16" fill="#3a3a3a" fill-rule="evenodd" stroke="#000" stroke-linecap="round" stroke-miterlimit="5.5" stroke-width=".5"/><g transform="matrix(1.884 0 0 1.8691 -13.743 -248.75)"><path transform="matrix(.53079 0 0 .53502 42.326 334.25)" d="m91.539 9.625v1.418h3.2988v-1.418h-3.2988zm14.068 0v1.418h3.2988v-1.418h-3.2988zm14.225 0v1.418h3.2988v-1.418h-3.2988zm14.221 0v1.418h3.2988v-1.418h-3.2988zm-32.285 0.0078125v1.4102h3.2715v-1.4102h-3.2715zm14.07 0v1.4102h3.2695v-1.4102h-3.2695zm14.223 0v1.4102h3.2715v-1.4102h-3.2715zm14.223 0v1.4102h3.2695v-1.4102h-3.2695zm-52.719 22.158v1.4082h3.2715v-1.4082h-3.2715zm10.221 0v1.416h3.2988v-1.416h-3.2988zm3.8496 0v1.4082h3.2695v-1.4082h-3.2695zm10.219 0v1.416h3.2988v-1.416h-3.2988zm4.0039 0v1.4082h3.2715v-1.4082h-3.2715zm10.221 0v1.416h3.2988v-1.416h-3.2988zm4.002 0v1.4082h3.2695v-1.4082h-3.2695zm10.221 0v1.416h3.2988v-1.416h-3.2988z" fill="#abb927" stroke-width="1.8765"/></g><g transform="matrix(1.884 0 0 1.8691 -56.258 -248.75)"><path d="m113.63 340.44h1.7574l-3e-3 -1.0731 0.63956-5.7e-4v-0.40181h2.0614l-4.8e-4 0.40286h0.6657v1.0732l4.1044-5.8e-4 -3e-3 -1.0731 0.63956-5.7e-4v-0.40181h2.0614l-4.8e-4 0.40286h0.6657v1.0732l4.1867-5.8e-4 -3e-3 -1.0731 0.63956-5.7e-4v-0.40181h2.0614l-4.8e-4 0.40286h0.6657v1.0732l4.1856-5.8e-4 -3e-3 -1.0731 0.63956-5.7e-4v-0.40181h2.0614l-4.8e-4 0.40286h0.6657v1.0732h1.7493l0.0101 10.529h-1.7574l3e-3 1.0731-0.63956 5.7e-4v0.40181h-2.0614l4.8e-4 -0.40286h-0.6657v-1.0732l-4.1856 5.8e-4 3e-3 1.0731-0.63956 5.7e-4v0.40181h-2.0614l4.8e-4 -0.40286h-0.6657v-1.0732l-4.1867 5.8e-4 3e-3 1.0731-0.63956 5.7e-4v0.40181h-2.0614l4.8e-4 -0.40286h-0.6657v-1.0732l-4.1044 5.8e-4 3e-3 1.0731-0.63956 5.7e-4v0.40181h-2.0614l4.8e-4 -0.40286h-0.6657v-1.0732h-1.7493z"/></g><g transform="matrix(1.8829 0 0 1.8829 -56.794 -345.9)"><rect x="174.75" y="398.19" width="1.6824" height="1.2864" rx=".086274" ry=".042097" fill="#e6e6e6" stroke="#000" stroke-width=".21244"/><rect x="174.8" y="400.36" width="1.6824" height="1.2864" rx=".086274" ry=".042097" fill="#e6e6e6" stroke="#000" stroke-width=".21244"/><g transform="translate(-102.93,6.3607)"><g transform="matrix(0,-1.3729,1.3727,0,43.123,1033.3)"><rect x="464.5" y="172.59" width="4" height="5.6"/></g><g transform="matrix(0,-1.3729,1.3727,0,43.123,1033.3)"><polygon points="464.7 172.79 464.7 174.19 464.9 174.19 464.9 176.79 464.7 176.79 464.7 177.99 468.3 177.99 468.3 172.79" fill="none" stroke="#ccc" stroke-width=".1"/></g></g></g><g transform="matrix(1.8829 0 0 1.8829 -58.773 -345.9)"><g transform="translate(.099239 12.109)" fill="#e6e6e6" stroke="#000" stroke-width=".21244"><rect x="186.81" y="386.08" width="1.6824" height="1.2864" rx=".086274" ry=".042097"/><rect x="186.86" y="388.25" width="1.6824" height="1.2864" rx=".086274" ry=".042097"/></g><g transform="translate(-90.617,6.3607)"><g transform="matrix(0,-1.3729,1.3727,0,43.123,1033.3)"><rect x="464.5" y="172.59" width="4" height="5.6"/></g><g transform="matrix(0,-1.3729,1.3727,0,43.123,1033.3)"><polygon points="468.3 177.99 468.3 172.79 464.7 172.79 464.7 174.19 464.9 174.19 464.9 176.79 464.7 176.79 464.7 177.99" fill="none" stroke="#ccc" stroke-width=".1"/></g></g></g><g transform="matrix(1.884 0 0 1.8691 .48029 -248.75)"><path d="m85.543 338.66-2.7991 1e-3 0.0021 14.079 2.8115 1e-3v-0.67711l-2.26 1e-3v-0.87672l0.22289-7e-3v-4.8067l6.8711-4e-3 0.0011 4.8109 0.22289 7e-3v0.87672l-2.2476-1e-3v0.67711l2.3149-1e-3h0.0031l2.3398 1e-3v-0.67711l-2.2611 1e-3v-0.87672l0.22289-7e-3 0.0011-4.8067 6.8711-4e-3v4.8109l0.22289 7e-3v0.87672l-2.2476-1e-3v0.67711l2.3968-1e-3h0.0041l2.3388 1e-3v-0.67711l-2.2611 1e-3v-0.87672l0.22289-7e-3 0.0011-4.8067 6.8711-4e-3v4.8109l0.22289 7e-3v0.87672l-2.2465-1e-3v0.67711l2.3958-1e-3 2.343 1e-3v-0.67711l-2.2611 1e-3v-0.87672l0.22393-7e-3v-4.8067l6.8461-0.0449v4.8517l0.22393 7e-3v0.87672l-2.2476-1e-3v0.67711l2.7991-1e-3 -2e-3 -14.079-2.8126-1e-3v0.67711l2.2611-1e-3v0.87672l-0.22392 7e-3v4.8068l-6.8461 0.0439v-4.8506l-0.22289-7e-3v-0.87672l2.2476 1e-3v-0.67711l-2.3253 1e-3 -2.4145-1e-3v0.67711l2.2611-1e-3v0.87672l-0.22393 7e-3v4.836l-5e-3 5e-3 -6.8663 9e-3v-4.8506l-0.22289-7e-3v-0.87672l2.2465 1e-3v-0.67711l-2.3253 1e-3h-0.0041l-2.4093-1e-3v0.67711l2.26-1e-3v0.87672l-0.22289 7e-3v4.836l-0.0052 5e-3 -6.8663 9e-3v-4.8506l-0.22393-7e-3v-0.87672l2.2476 1e-3v-0.67711l-2.3253 1e-3h-0.0041l-2.3284-1e-3v0.67711l2.2611-1e-3v0.87672l-0.22289 7e-3 -0.0011 4.836-0.0041 5e-3 -6.8663 9e-3 -0.0011-4.8506-0.22289-7e-3v-0.87672l2.2476 1e-3v-0.67711z" fill="#ebebeb" stroke-width=".5329"/></g><rect x="87.898" y="377.06" width="231.51" height="42.618" rx="1" ry="1" fill="none" stroke="#fff" stroke-linecap="round" stroke-miterlimit="4.4" stroke-width=".5"/><g fill="#fff" stroke-width="1.8829"><path d="m281.89 399.46v-0.42837c0.77564 0.30188 1.1655 0.0487 1.2129-0.45472-0.67337 0.38764-1.3791 0.0127-1.3791-0.59753 0.01-0.66591 0.59936-0.82413 0.9664-0.82413 0.82871 0 1.0268 0.63138 1.0268 1.1702 0 1.1563-0.94112 1.412-1.8271 1.1346zm0.79696-1.1159c0.22151 0 0.34055-0.15465 0.34055-0.40661 0-0.25193-0.0971-0.40669-0.34055-0.40669-0.2434 0-0.34057 0.1369-0.34057 0.40669 0 0.26974 0.11902 0.40661 0.34057 0.40661z"/><path d="m308.3 397.28v0.49043c-0.59014-0.23237-1.2265-0.24547-1.2265 0.0699 0 0.40462 1.3909 0.0755 1.3909 0.97158-1e-3 0.92583-1.1319 0.82572-1.9546 0.59132v-0.50442c0.60817 0.35112 1.3321 0.30882 1.3321-0.0145 0-0.46506-1.354-0.0983-1.354-1.0012 0-0.85572 1.0119-0.78438 1.812-0.60376z"/><path d="m305.44 398.37c0-0.53069-0.0881-0.79005-0.38417-0.79005-0.29611 0-0.38583 0.27222-0.38583 0.79005s0.085 0.79925 0.38583 0.79925c0.30079 0 0.38417-0.26856 0.38417-0.79925zm0.64593 5e-3c0 0.65291-0.27398 1.2009-1.0302 1.2012-0.75618 7.4e-4 -1.0316-0.54016-1.0318-1.2008-1.7e-4 -0.52824 0.21088-1.2028 1.0318-1.2028s1.0302 0.5499 1.0302 1.2028z"/></g><g transform="matrix(1.8884 0 0 1.8726 131.61 66.594)"><path d="m64.912 178.62h1.7532l-0.0026-1.0712 0.63806-5.7e-4v-0.40106h2.0566l-4.83e-4 0.40211h0.66414v1.0712h1.7452v4.6119l-6.8535 0.015z" style=""/><path d="m70.173 178.34h1.7316v-0.75298h-1.7316z" fill="#abb927"/><path d="m64.756 178.34h1.7468v-0.7569h-1.7468z" fill="#abb927"/><path d="m72.539 183.87 2e-3 -7.0242-2.8056-9.6e-4v0.67597l2.2553-1e-3v0.87506l-0.22259 7e-3 -5.64e-4 4.8323c-2.3858 9.4e-4 -4.8121 0.0124-6.8546 0.0128v4e-5l-4.83e-4 -4.8452-0.22259-7e-3v-0.87506l2.242 1e-3v-0.67597l-2.7924 9.6e-4c4.08e-4 2.3412 0.0022 4.6824 0.0022 7.0237 2.7992 3.3e-4 5.5983 6.8e-4 8.3975 1e-3z" fill="#ebebeb"/></g><rect x="235.78" y="397.64" width="15.83" height="13.388" fill="#3a3a3a" stroke="#000" stroke-width=".5"/><g stroke-width="1.8805"><path d="m237.22 401.08h3.3107l-5e-3 -2.0059 1.2049-1e-3v-0.75103h3.8836l-9.1e-4 0.75299h1.2541v2.0059h3.2956v8.6362l-12.942 0.0281z"/><path transform="translate(66,376)" d="m170.93 23.137v1.418h3.2988v-1.418h-3.2988zm10.23 0.007812v1.4102h3.2695v-1.4102h-3.2695z" fill="#abb927"/><path d="m251.63 410.91 4e-3 -13.154-5.298-2e-3v1.2658l4.2588-2e-3v1.6386l-0.42033 0.0131-1e-3 9.049c-4.5052 2e-3 -9.087 0.0232-12.944 0.024v8e-5l-9.2e-4 -9.0731-0.42033-0.0131v-1.6386l4.2337 2e-3v-1.2658l-5.2731 2e-3c7.7e-4 4.3841 4e-3 8.7683 4e-3 13.153 5.2859 6.2e-4 10.572 1e-3 15.858 2e-3z" fill="#ebebeb"/></g><g transform="matrix(1.0667 0 0 1.0667 -299.39 -284.8)"><g transform="matrix(1.7704 0 0 .9945 191.9 450.74)"><path d="m110.82 204.48h3.492c0.37167-0.0222 0.41803 0.25189 0.41125 0.48766v1.0611c-0.0156 0.26619-0.58392 0.79942-1.0385 0.76155h-2.3058c-0.14683 0.0469-0.93886-0.53989-0.95768-0.7883v-1.0612c-0.0176-0.29936 0.24811-0.46751 0.3988-0.46085" fill="#1d1d1d" stroke="#ececec" stroke-width=".29321"/><path transform="matrix(.53109 0 0 .53109 35 368.35)" d="m144.09-307.32c-4e-3 -1.6e-4 -9e-3 2e-3 -0.0137 2e-3h-0.0117c-0.17447-7e-3 -0.45217 0.11055-0.43164 0.42579v1.0488c0 0.52147 0.58352 0.81446 1.1035 0.81446h2.4942c0.52548 0.0402 1.2155-0.47741 1.2324-0.75782v-1.0781c8e-3 -0.24841-2e-3 -0.47824-0.43164-0.45508h-3.9414z" fill="#404040"/><g fill="#070707"><path d="m111.56 205.87h0.1884v-0.41664h-0.1884z"/><path d="m112.01 205.87h0.18839v-0.41664h-0.18839z"/><path d="m112.48 205.87h0.18799v-0.41664h-0.18799z"/><path d="m112.96 205.87h0.18799v-0.41664h-0.18799z"/><path d="m113.42 205.87h0.18837v-0.41664h-0.18837z"/></g></g><g transform="matrix(.9375 0 0 .9375 280.68 267)" stroke-width="1.8829"><rect x="74.231" y="391.02" width="11.496" height="2.1339" rx=".59579" ry=".29072" fill="#00ff1f"/><rect x="74.313" y="394.88" width="11.496" height="2.1339" rx=".59579" ry=".29072" fill="#838383"/><ellipse cx="80.019" cy="400.44" rx="1.4384" ry="1.4375" fill="#838383"/><ellipse cx="90.179" cy="416.91" rx=".68834" ry=".68833"/><ellipse cx="99.322" cy="416.91" rx=".68834" ry=".68833"/></g><g transform="matrix(1.7652 0 0 1.7652 225.97 -36.216)" fill="#fff" stroke-width="1px"><g transform="matrix(.94127 0 0 .94127 3.861 24.662)"><path d="m86.518 391.14h0.09394v0.79443h-0.09394z"/><path d="m86.372 391.23v0.10875c-0.24252-0.18118-0.50597-0.0756-0.50597 0.21447 0 0.36488 0.32064 0.36841 0.50597 0.21397v0.10773c-0.32446 0.18733-0.61472 4e-3 -0.61472-0.32167 0.01374-0.44717 0.40038-0.45308 0.61471-0.32318z"/><path d="m88.393 391.45c-0.24047-0.0882-0.24047 0.18237-0.24047 0.18237v0.30123h-0.09445v-0.57183h0.09445v0.0888c0.06607-0.12403 0.21391-0.1006 0.23995-0.0966l5.11e-4 0.0965z"/></g><g transform="matrix(.94127 0 0 .94127 4.8773 24.662)"><path d="m80.574 391.58h-0.43193c0.02389 0.27384 0.26585 0.20128 0.40997 0.14546v0.0888c-0.34155 0.11706-0.50576-0.0228-0.50801-0.25115 0.0195-0.44127 0.57742-0.37112 0.52997 0.0169zm-0.09394-0.0736c0-0.26154-0.33518-0.187-0.33493 4.4e-4l0.33492-5.1e-4z"/><path d="m79.781 391.48c0.02213 7e-3 0.04357 0.0235 0.06433 0.048 0.07112 0.0938 0.10861 0.20005 0.16797 0.30939h-0.11079c-0.10882-0.25006-0.17104-0.29714-0.17104-0.29714-0.06695-0.0417-0.1319-0.0158-0.20882-0.025v0.32216h-0.10313v-0.76226h0.23281c0.407 0.0116 0.24895 0.41133 0.12865 0.40488zm-0.25834-0.32011v0.27059h0.12968c0.23582 0 0.18073-0.28821 0-0.27058h-0.12968z"/></g><g transform="translate(13.176,13.695)"><path d="m81.641 379.31h0.09394v0.79442h-0.09394z"/><path d="m79.049 379.4v0.10874c-0.29196-0.229-0.50596-0.0296-0.50596 0.21447 0 0.34281 0.29488 0.38554 0.50596 0.21397v0.10773c-0.3171 0.18308-0.61472 8e-3 -0.61472-0.32167 0-0.41585 0.38897-0.46115 0.61471-0.32318z"/><path d="m79.417 379.59c-0.11209 0-0.16338 0.11227-0.16338 0.22053s0.04897 0.22055 0.16338 0.22055c0.11441 0 0.16287-0.0957 0.16287-0.22054 0-0.12481-0.05078-0.22054-0.16287-0.22054zm0-0.0797c0.17695 0 0.26243 0.12934 0.26243 0.30026s-0.09137 0.30016-0.26243 0.30016c-0.17106 0-0.26242-0.13107-0.26242-0.30016s0.08547-0.30026 0.26242-0.30026z"/><path d="m80.299 379.75v0.34513h-0.09394v-0.34207c0-0.24817-0.29051-0.18786-0.29051 0.0189v0.32318h-0.09445v-0.57182h0.09445v0.0888c0.10808-0.15989 0.38859-0.13884 0.38444 0.13791z"/><path d="m80.842 379.54v0.0888c-0.17363-0.066-0.31144-0.0447-0.31144 0.0449 0 0.13687 0.34207 0.0322 0.34207 0.26325 0 0.19222-0.22901 0.18911-0.43703 0.13711v-0.097c0.14178 0.0831 0.34054 0.0696 0.34054-0.0326 0-0.14532-0.33646-0.0276-0.33646-0.26686 0-0.18632 0.22762-0.1911 0.40232-0.13748z"/><path d="m82.409 379.79v0.046h-0.43193c0.03632 0.28994 0.29765 0.19776 0.40997 0.14546v0.0888c-0.33744 0.11738-0.50801-0.0249-0.50801-0.25115 0-0.16908 0.10366-0.30531 0.28029-0.30531s0.24233 0.14201 0.24966 0.27617zm-0.09394-0.0276c0-0.13993-0.09002-0.16905-0.1547-0.16905s-0.18023 0.0296-0.18023 0.16949l0.33492-5.1e-4z"/></g><g transform="translate(-.10893 .12844)"><path d="m68.401 379.68h0.09394l0.11743 0.44623 0.11692-0.44623h0.11079l0.11743 0.44623 0.11692-0.44623h0.09394l-0.14959 0.57182h-0.11079l-0.12304-0.46868-0.12355 0.46868h-0.11079l-0.14959-0.57182z"/><path d="m67.35 379.57v0.28642h0.12968c0.12004 0 0.15061-0.0531 0.15061-0.1435s-0.06066-0.14298-0.15061-0.14298h-0.12968zm-0.10313-0.0848h0.23281c0.18383 0 0.25936 0.0867 0.25936 0.2277s-0.07651 0.22823-0.25936 0.22823h-0.12968v0.30633h-0.10313v-0.76225z"/><path d="m68.048 379.74c-0.08915 0-0.16338 0.0709-0.16338 0.22053 0 0.14962 0.0798 0.22055 0.16338 0.22055s0.16287-0.0488 0.16287-0.22054c0-0.17176-0.07372-0.22054-0.16287-0.22054zm0-0.0796c0.15664 0 0.26243 0.0974 0.26243 0.30016 0 0.20279-0.09973 0.30016-0.26243 0.30016-0.1627 0-0.26243-0.0978-0.26243-0.30016s0.10579-0.30016 0.26243-0.30016z"/><path d="m69.79 379.99h-0.43193c0.01728 0.23783 0.22379 0.22272 0.40997 0.14546v0.0888c-0.30358 0.11277-0.508 5e-3 -0.508-0.25115 0-0.26696 0.185-0.30595 0.28029-0.3053 0.25236 0 0.24967 0.22829 0.24967 0.32219zm-0.09394-0.0736c0-0.11253-0.06735-0.16905-0.1547-0.16905s-0.18023 0.0611-0.18023 0.16949l0.33492-5.1e-4z"/><path d="m70.265 379.77c-0.12815-0.0449-0.24047 5.7e-4 -0.24047 0.18237v0.30122h-0.09445v-0.57182h0.09445v0.0888c0.07878-0.11366 0.17151-0.11054 0.23996-0.0966l5.11e-4 0.0965z"/></g><g transform="translate(-.10893 .12844)"><path d="m67.247 381.56h0.43806v0.0868h-0.33492v0.22464h0.30225v0.0868h-0.30225v0.36403h-0.10313v-0.76226z"/><path d="m69.023 381.52h0.09394v0.79442h-0.09394z"/><path d="m67.797 382.14c0.0054 0.21686 0.29511 0.0842 0.29511-0.11475-0.23048 0-0.29511 0.0142-0.29511 0.11475zm0.38904-0.1536v0.32624h-0.09394v-0.0868c-0.21434 0.21435-0.38905 0.0427-0.38905-0.0796 0-0.22322 0.24064-0.19451 0.38904-0.19451v-9e-3c0.0025-0.19799-0.25868-0.13663-0.34718-0.0889v-0.0868c0.31356-0.11269 0.44112 0.027 0.44112 0.21954z"/><path d="m68.36 382.09v-0.34616h0.09394v0.34258c0 0.24166 0.29101 0.22921 0.29101-0.0184v-0.3242h0.09394v0.57182h-0.09394v-0.0878c-0.22098 0.22097-0.38496 0.0464-0.38496-0.1379z"/><path d="m69.395 381.58v0.16236h0.1935v0.073h-0.1935v0.31042c0 0.10554 0.01522 0.1098 0.097 0.1098h0.0965v0.0786h-0.0965c-0.16632 0-0.19145-0.0858-0.19145-0.18836v-0.31042h-0.06892v-0.073h0.06892v-0.16236h0.09445z"/></g><g transform="translate(-.10893 .12844)"><path d="m67.247 383.92h0.10313v0.67546h0.37117v0.0868h-0.47431z"/><path d="m68.018 384.18c-0.11262 0-0.16338 0.0937-0.16338 0.22053 0 0.12684 0.05778 0.22055 0.16338 0.22055s0.16287-0.10613 0.16287-0.22054-0.05025-0.22054-0.16287-0.22054zm0-0.0797c0.15629 0 0.26243 0.0933 0.26243 0.30025 0 0.20694-0.10788 0.30016-0.26243 0.30016s-0.26243-0.11242-0.26243-0.30016 0.10614-0.30025 0.26243-0.30025z"/><path d="m68.836 384.13v0.0878c-0.25599-0.12147-0.35331 0.0325-0.35331 0.17665 0.0073 0.26676 0.2308 0.24175 0.35331 0.17667v0.0868c-0.30692 0.10808-0.45235-0.0542-0.45235-0.26363 0-0.27822 0.23833-0.35225 0.45235-0.26474z"/><path d="m69.048 384.51c0 0.15793 0.2951 0.17265 0.29511-0.11485-0.26209 0-0.29511 0.0231-0.29511 0.11485zm0.38904-0.1536v0.32625h-0.09394v-0.0868c-0.13601 0.20633-0.38905 0.0689-0.38905-0.0796 0-0.21878 0.22123-0.18953 0.38904-0.1945 0-0.21646-0.27639-0.13874-0.34718-0.0979v-0.0868c0.31355-0.11269 0.44112 0.0145 0.44112 0.21953z"/><path d="m70.981 384.2c-0.14682-0.0615-0.24047 0.043-0.24047 0.18237v0.30123h-0.09445v-0.57183h0.09445v0.0888c0.05181-0.10743 0.17151-0.11261 0.23996-0.0966l5.11e-4 0.0965z"/></g><g transform="translate(-.10893 .12844)"><path d="m70.512 393.35v0.10875q-0.05208-0.0485-0.1113-0.0725-0.05871-0.024-0.12509-0.024-0.1307 0-0.20014 0.0802-0.06943 0.0797-0.06943 0.23077 0 0.15061 0.06943 0.23077 0.06944 0.0797 0.20014 0.0797 0.06637 0 0.12509-0.024 0.05922-0.024 0.1113-0.0725v0.10773q-0.05412 0.0368-0.11488 0.0551-0.06025 0.0184-0.12764 0.0184-0.17308 0-0.27264-0.10569-0.09956-0.10619-0.09956-0.28948 0-0.1838 0.09956-0.28948 0.09956-0.1062 0.27264-0.1062 0.06842 0 0.12866 0.0184 0.06076 0.0179 0.11385 0.0541z"/><path d="m70.879 393.54q-0.07556 0-0.11947 0.0592-0.04391 0.0587-0.04391 0.16133 0 0.10262 0.0434 0.16185 0.04391 0.0587 0.11998 0.0587 0.07505 0 0.11896-0.0592t0.04391-0.16134q0-0.1016-0.04391-0.16082-0.04391-0.0597-0.11896-0.0597zm0-0.0796q0.12253 0 0.19248 0.0796t0.06995 0.22056q0 0.14041-0.06995 0.22056-0.06995 0.0797-0.19248 0.0797-0.12304 0-0.19299-0.0797-0.06944-0.0802-0.06944-0.22056 0-0.14091 0.06944-0.22056 0.06995-0.0796 0.19299-0.0796z"/><path d="m71.761 393.7v0.34513h-0.09394v-0.34207q0-0.0812-0.03165-0.12151-0.03166-0.0403-0.09496-0.0403-0.07607 0-0.11998 0.0485t-0.04391 0.13223v0.32318h-0.09445v-0.57182h0.09445v0.0888q0.0337-0.0516 0.07914-0.0771 0.04595-0.0255 0.10568-0.0255 0.09854 0 0.14908 0.0613 0.05054 0.0608 0.05054 0.17921z"/><path d="m72.304 393.49v0.0888q-0.03982-0.0204-0.08271-0.0306t-0.08884-0.0102q-0.06995 0-0.10518 0.0215-0.03472 0.0214-0.03472 0.0643 0 0.0327 0.02502 0.0516 0.02502 0.0184 0.10058 0.0352l0.03216 7e-3q0.10007 0.0214 0.14193 0.0607 0.04238 0.0388 0.04238 0.10875 0 0.0797-0.06331 0.12611-0.0628 0.0465-0.17308 0.0465-0.04595 0-0.09598-9e-3 -0.04952-9e-3 -0.10466-0.0265v-0.097q0.05208 0.0271 0.10262 0.0408 0.05054 0.0133 0.10007 0.0133 0.06637 0 0.10211-0.0225 0.03574-0.023 0.03574-0.0643 0-0.0383-0.02604-0.0587-0.02553-0.0204-0.11283-0.0393l-0.03268-8e-3q-0.08731-0.0184-0.12611-0.0562-0.0388-0.0383-0.0388-0.10466 0-0.0807 0.05718-0.12458 0.05718-0.0439 0.16236-0.0439 0.05208 0 0.09803 8e-3t0.08475 0.023z"/><path d="m72.696 393.54q-0.07556 0-0.11947 0.0592-0.04391 0.0587-0.04391 0.16133 0 0.10262 0.0434 0.16185 0.04391 0.0587 0.11998 0.0587 0.07505 0 0.11896-0.0592t0.04391-0.16134q0-0.1016-0.04391-0.16082-0.04391-0.0597-0.11896-0.0597zm0-0.0796q0.12253 0 0.19248 0.0796t0.06995 0.22056q0 0.14041-0.06995 0.22056-0.06995 0.0797-0.19248 0.0797-0.12304 0-0.19299-0.0797-0.06944-0.0802-0.06944-0.22056 0-0.14091 0.06944-0.22056 0.06995-0.0796 0.19299-0.0796z"/><path d="m73.103 393.26h0.09394v0.79442h-0.09394z"/><path d="m73.872 393.74v0.046h-0.43193q0.0061 0.097 0.0582 0.14806 0.05259 0.0505 0.14602 0.0505 0.05412 0 0.10466-0.0133 0.05106-0.0133 0.10109-0.0398v0.0888q-0.05054 0.0214-0.10364 0.0327-0.0531 0.0112-0.10773 0.0112-0.13683 0-0.21699-0.0797-0.07965-0.0796-0.07965-0.21545 0-0.1404 0.07556-0.2226 0.07607-0.0827 0.20473-0.0827 0.11538 0 0.18227 0.0745 0.06739 0.074 0.06739 0.20167zm-0.09394-0.0276q-1e-3 -0.0771-0.0434-0.12305-0.04187-0.0459-0.1113-0.0459-0.07863 0-0.12611 0.0444-0.04697 0.0444-0.05412 0.12509l0.33492-5.1e-4z"/></g></g><ellipse cx="372.53" cy="651.04" rx="1.2693" ry="1.2685" stroke-width="1.7652"/><g transform="translate(-71.484 -6.0455)"><g transform="matrix(1.6615 0 0 1.6615 288.5 -12.388)"><rect x="95.462" y="396.24" width="3.3193" height="1.9916" rx=".089249" ry=".043549"/><g fill="#0f0" stroke-width="1px"><path d="m96.52 397.61h-0.47876l-0.07555 0.21632h-0.30778l0.43979-1.1874h0.36504l0.43979 1.1874h-0.30778l-0.07476-0.21632zm-0.40241-0.22029h0.32527l-0.16224-0.4724z"/><path d="m97.75 396.96v0.23222c-0.29535-0.17666-0.4899-0.0273-0.4899 0.18605 0 0.30643 0.3067 0.31939 0.4899 0.18524v0.23302c-0.43706 0.14259-0.78652-0.0355-0.78652-0.41832 0-0.43879 0.45486-0.54649 0.78652-0.41833z"/><path d="m98.292 396.68v0.2529h0.29346v0.2036h-0.29346v0.37775c0 0.10599 0.05559 0.1058 0.12247 0.1058h0.14633v0.20359h-0.24415c-0.29586 0-0.30937-0.17013-0.30937-0.30939v-0.37775h-0.14156v-0.2036h0.14156v-0.2529h0.28471z"/></g></g><g transform="matrix(1.6615 0 0 1.6615 295.29 10.387)"><rect x="91.461" y="384.9" width="3.3193" height="1.9916" rx=".089249" ry=".043549"/><g fill="#b3b3b3" stroke-width="1px"><path d="m91.636 385.3h0.8263v0.23143h-0.52012v0.22108h0.4891v0.23143h-0.4891v0.50342h-0.30618z"/><path d="m93.942 386.03-0.3213-0.43502h0.30141l0.18212 0.26403 0.18451-0.26403h0.30141l-0.32129 0.43343 0.3372 0.45729h-0.30141l-0.20041-0.28153-0.19803 0.28153h-0.30141z"/><path d="m92.87 385.53v0.7245c0.37498 0.0318 0.49546-0.13472 0.49546-0.3635 0-0.32634-0.20873-0.361-0.49546-0.361zm-0.30618-0.23143h0.32288c0.53862-0.0172 0.79448 0.18571 0.79448 0.59251 0 0.50652-0.37625 0.5949-0.79448 0.5949h-0.32288v-1.1874z"/></g></g><g transform="matrix(1.6615 0 0 1.6615 295.29 10.387)"><rect x="91.467" y="387.41" width="3.3193" height="1.9916" rx=".089249" ry=".043549"/><g fill="#b3b3b3" stroke-width="1px"><path d="m92.545 387.71v0.25131c-0.28319-0.12887-0.58136-0.12415-0.58136 0.0357 0 0.20034 0.6593 0.0315 0.6593 0.49791-0.0017 0.49367-0.56758 0.42281-0.92651 0.30297v-0.25846c0.30842 0.18163 0.65218 0.14301 0.63145-7e-3 0-0.24297-0.64179-0.0486-0.64179-0.51295 0.01914-0.41718 0.42294-0.41242 0.85891-0.30938z"/><path d="m92.979 388.73v0.46763h-0.28471v-1.2295h0.28471v0.13043c0.29703-0.33814 0.67122-0.0701 0.67122 0.31569 0 0.50152-0.47042 0.58709-0.67122 0.31571zm0-0.31573c0 0.39673 0.37696 0.324 0.37696 0 0-0.37422-0.37696-0.31571-0.37696 0z"/><path d="m94.37 388.1v-0.47718h0.2863v1.2375h-0.2863v-0.12884c-0.26716 0.33241-0.66963 0.0912-0.66963-0.31571 0-0.48264 0.46279-0.59626 0.66963-0.31569zm0 0.31573c0-0.41612-0.37459-0.26449-0.37459 0 0 0.42949 0.37459 0.26669 0.37459 0z"/></g></g></g><path d="m375.53 655.4h-3.0182v-2.7295" fill="none" stroke="#fff" stroke-width=".26473"/><path d="m375.53 640.53h-3.0279v1.4715" fill="none" stroke="#fff" stroke-width=".24524"/><g transform="matrix(1.2589 0 0 1.2589 269.98 160.65)" fill="#fff" stroke-width="1px"><path d="m80.397 383.16h0.10313v0.67547h0.37117v0.0868h-0.47431v-0.76226z"/><path d="m80.969 383.16h0.48196v0.0868h-0.37883v0.22566h0.363v0.0868h-0.363v0.27621h0.38802v0.0868h-0.49115v-0.76226z"/><path d="m80.397 383.98h0.15368l0.19452 0.51873 0.19554-0.51873h0.15368v0.76226h-0.10058v-0.66934l-0.19656 0.52281h-0.10364l-0.19656-0.52281v0.66934h-0.10007z"/><path d="m81.723 383.24v0.59276h0.12458c0.23511 0 0.30429-0.12563 0.30429-0.29716 0-0.27088-0.17046-0.29564-0.30429-0.29564h-0.12458zm-0.10313-0.0847h0.21188c0.48647 0 0.42886 0.38036 0.42886 0.38036 0 0.37292-0.32458 0.38188-0.42886 0.38188h-0.21188v-0.76226z"/><path d="m81.507 384.24c-0.15184-0.0218-0.16338 0.22053-0.16338 0.22053 0 0.17765 0.08414 0.22055 0.16338 0.22055 0.14854 0 0.16287-0.16011 0.16287-0.22054 0-0.17029-0.10138-0.22052-0.16287-0.22052zm0-0.0797c0.2283 0 0.26468 0.21755 0.26243 0.30026 0 0.22083-0.14153 0.30026-0.26243 0.30026-0.22621 0-0.26243-0.17938-0.26243-0.30026 0-0.30518 0.26243-0.30026 0.26243-0.30026z"/><path d="m82.29 384.26v-0.30939h0.09394v0.79442h-0.09394v-0.0858c-0.20092 0.23025-0.41712 0.0169-0.41712-0.1996 0-0.42057 0.40547-0.31203 0.41712-0.1996zm-0.32012 0.19963c0 0.14833 0.04713 0.21742 0.1472 0.21651 0.10006-9.1e-4 0.17911-0.0889 0.17294-0.21651-0.0062-0.12762-0.0776-0.219-0.16006-0.22158-0.1033-3e-3 -0.16006 0.0733-0.16006 0.22158z"/><path d="m83.057 384.49h-0.43193c0 0.16037 0.13323 0.20169 0.20422 0.19857 0.07099-3e-3 0.13616-0.0162 0.20575-0.0531v0.0888c-0.06701 0.0385-0.15039 0.0439-0.21137 0.0439-0.25696-6e-3 -0.29664-0.18419-0.29664-0.29515 0-0.28735 0.21526-0.30531 0.28029-0.30531 0.22133 0 0.2555 0.18902 0.24968 0.32229zm-0.09394-0.0736c0-0.1252-0.08329-0.16904-0.1547-0.16904-0.13337 0-0.18023 0.0865-0.18023 0.16949l0.33492-5.2e-4z"/></g><g transform="matrix(1.6615 0 0 1.6615 234.83 7.5562)"><rect x="77.967" y="387.91" width="3.3193" height="1.9916" rx=".089249" ry=".043549"/><g fill="#b3b3b3" stroke-width="1px"><path d="m78.058 388.5h0.92418v0.19545h-0.33246v0.80731h-0.25858v-0.80731h-0.33313z"/><path d="m80.415 388.77v0.18269c-0.22216-0.0934-0.42713-0.083-0.41977 5e-3 0.0109 0.14169 0.47963-0.0111 0.47015 0.31888-0.0084 0.30734-0.38389 0.25739-0.67097 0.19417v-0.18268c0.19012 0.0919 0.44745 0.0945 0.44262-7e-3 0.0011-0.12371-0.44262 7e-3 -0.45403-0.31723 0.01556-0.30473 0.35746-0.24317 0.63201-0.19341z"/><path d="m79.659 389.19h-0.56216c0.05124 0.27332 0.34529 0.15656 0.52657 0.0785v0.18537c-0.45474 0.14839-0.77094 0.0322-0.77172-0.32973 0.01337-0.57913 0.88331-0.49888 0.80731 0.0658zm-0.24716-0.1484c-0.02634-0.24979-0.32701-0.1521-0.31231-2e-5h0.31231z"/><path d="m80.895 388.54v0.21358h0.24784v0.17194h-0.24784v0.31903c0 0.0886 0.03131 0.0843 0.10343 0.0893h0.12358v0.17194h-0.20619c-0.2492 0-0.26127-0.13689-0.26127-0.26127v-0.31903h-0.11955v-0.17194h0.11955v-0.21358h0.24045z"/></g></g><path d="m358.74 653.49h-2.1665l5e-3 3.523h-7.8206v-3.5241h-2.1522v-7.1588l12.133-0.0263z" stroke-width="1.7652"/><g transform="translate(-71.484 -9.1678)" fill="#fff"><g transform="matrix(1.6615 0 0 1.6615 306.06 20.756)" stroke-width="1px"><path d="m78.685 381.76v0.10058c-0.23745-0.10902-0.39158-0.0472-0.387 0.0699-0.0033 0.21204 0.43433 0.0319 0.43295 0.35647 0 0.25979-0.29724 0.2611-0.53353 0.17667v-0.1062c0.25099 0.13373 0.4258 0.0627 0.4258-0.0627 0-0.23617-0.42887-0.0467-0.42887-0.35592 0.0119-0.26406 0.29181-0.23099 0.49064-0.1784z"/><path d="m78.97 381.76v0.16235h0.1935v0.073h-0.1935v0.31042c0 0.0972 0.02208 0.1098 0.097 0.1098h0.0965v0.0786h-0.0965c-0.18513 0-0.18531-0.0969-0.19145-0.18836v-0.31042h-0.06892v-0.073h0.06892v-0.16235h0.09445z"/><path d="m79.335 382.32c0.0015 0.15963 0.2951 0.17264 0.29511-0.11486-0.21594 0-0.29511 0.0114-0.29511 0.11486zm0.38904-0.1536v0.32624h-0.09394v-0.0868c-0.11242 0.18069-0.39186 0.0996-0.39186-0.0719 0-0.17335 0.09126-0.20858 0.39185-0.20228 0-0.22219-0.28767-0.13397-0.34718-0.0978v-0.0868c0.31868-0.10383 0.44112 0.0242 0.44112 0.21953z"/><path d="m80.298 382.27v-0.34616h0.09394v0.34259c0 0.22685 0.29101 0.2292 0.29101-0.0184v-0.32421h0.09394v0.57182h-0.09394v-0.0878c-0.12018 0.17417-0.38496 0.12769-0.38496-0.1379z"/><path d="m81.326 381.94v0.0888c-0.25944-0.0989-0.31144 0.0132-0.31144 0.0427 0 0.1335 0.34207 0.0437 0.34207 0.26545 0 0.19928-0.23748 0.19058-0.43703 0.13711v-0.097c0.16248 0.0938 0.34054 0.0601 0.34054-0.0327 0-0.15495-0.33646-0.0307-0.33646-0.26686 0-0.22181 0.28502-0.16647 0.40232-0.13747z"/></g><path d="m438.99 655.06v0.26975h0.32151v0.12129h-0.32151v0.51577c0 0.1615 0.0367 0.18244 0.16117 0.18244h0.16034v0.13059h-0.16034c-0.3076 0-0.30789-0.161-0.3181-0.31296v-0.51577h-0.11451v-0.1213h0.11451v-0.26975h0.15693z" stroke-width="1.6615px"/></g><g fill="#fff"><path d="m369.3 657.45v0.14754c-0.43107-0.16432-0.51747 0.0219-0.51747 0.0709 0 0.22181 0.56836 0.0726 0.56836 0.44105 0 0.33111-0.39458 0.31666-0.72614 0.22782v-0.16117c0.26997 0.15585 0.56582 0.0999 0.56582-0.0543 0-0.25746-0.55904-0.051-0.55904-0.4434 0-0.36855 0.47357-0.2766 0.66847-0.22841z" stroke-width="1.6615px"/><path d="m370.79 657.15v0.26975h0.32151v0.12129h-0.32151v0.51577c0 0.1615 0.0367 0.18244 0.16117 0.18244h0.16034v0.13059h-0.16034c-0.3076 0-0.30789-0.161-0.3181-0.31296v-0.51577h-0.11451v-0.1213h0.11451v-0.26975h0.15693z" stroke-width="1.6615px"/><path d="m370.39 657.94h-0.71767c0.0397 0.455 0.44172 0.33443 0.68118 0.24169v0.14754c-0.56751 0.1945-0.84033-0.0379-0.84408-0.4173 0.0324-0.73319 0.95941-0.61663 0.88057 0.0281zm-0.15609-0.12229c0-0.43456-0.55691-0.31071-0.5565 7.3e-4l0.55649-8.5e-4z" stroke-width="1.6615px"/><path d="m377.81 658.09h-0.71767c0.0397 0.455 0.44172 0.33443 0.68118 0.24169v0.14754c-0.56751 0.1945-0.84033-0.0379-0.84408-0.4173 0.0324-0.73319 0.95941-0.61663 0.88057 0.0281zm-0.15609-0.12229c0-0.43456-0.55691-0.31071-0.5565 7.3e-4l0.55649-8.5e-4z" stroke-width="1.6615px"/><path d="m378.15 658.25c2e-3 0.26523 0.49031 0.28684 0.49033-0.19085-0.35879 0-0.49033 0.0189-0.49033 0.19085zm0.6464-0.25522v0.54206h-0.15609v-0.14422c-0.18679 0.30022-0.65109 0.16549-0.65109-0.11946 0-0.28803 0.15163-0.34656 0.65108-0.3361 0-0.36917-0.47797-0.22259-0.57685-0.16249v-0.14423c0.52948-0.17251 0.73293 0.0402 0.73293 0.36476z" stroke-width="1.6615px"/><g stroke-width="1.7652px"><path d="m348.84 641.77v0.2866h0.34157v0.12886h-0.34157v0.54796c0 0.1863 0.0269 0.19382 0.17122 0.19382h0.17035v0.13875h-0.17035c-0.29358 0-0.33795-0.15146-0.33795-0.3325v-0.54796h-0.12166v-0.12886h0.12166v-0.2866h0.16673z"/><path d="m349.77 642.17c-0.1988 0-0.2884 0.1654-0.2884 0.38928 0 0.2239 0.10199 0.38932 0.2884 0.38932s0.2875-0.18734 0.2875-0.3893-0.0887-0.3893-0.2875-0.3893zm0-0.14069c0.27589 0 0.46325 0.1647 0.46325 0.53001 0 0.36529-0.19043 0.52985-0.46325 0.52985s-0.46325-0.19845-0.46325-0.52985 0.18736-0.53001 0.46325-0.53001z"/><path d="m392.62 658.02c-0.19788 0-0.28841 0.19818-0.28841 0.38928 0 0.19111 0.0865 0.38932 0.28841 0.38932 0.20195 0 0.2875-0.16893 0.2875-0.3893 0-0.22031-0.0896-0.3893-0.2875-0.3893zm0-0.14069c0.31235 0 0.46324 0.22832 0.46324 0.53003s-0.16129 0.52985-0.46324 0.52985c-0.30196 0-0.46323-0.23137-0.46323-0.52985s0.15087-0.53003 0.46323-0.53003z"/></g></g><g transform="matrix(1.6616 0 0 1.6543 235.67 14.731)"><rect x="77.456" y="382.84" width="3.3193" height="1.9916" rx=".089249" ry=".043549"/><g fill="#0f0" stroke-width="1px"><path d="m79.85 383.22h0.84512v0.2367h-0.53196v0.22612h0.50024v0.2367h-0.50024v0.27819h0.54986v0.23669h-0.86302z"/><path d="m77.518 383.22h0.51976c0.32701-3.5e-4 0.4799 0.15627 0.4799 0.39613s-0.14684 0.39693-0.4799 0.39693h-0.2066v0.42134h-0.31316zm0.31316 0.22694v0.33919h0.17325c0.08801 0 0.19034-0.0323 0.19034-0.16997 0-0.13771-0.10867-0.16917-0.19034-0.16917h-0.17325z"/><path d="m79.142 383.71c-0.12988 0-0.19847 0.0975-0.19847 0.27009 0 0.17255 0.06533 0.27001 0.19847 0.27001 0.13314 0 0.19603-0.0963 0.19603-0.27001 0-0.17366-0.06615-0.27009-0.19603-0.27009zm0-0.20823c0.3308 0 0.49942 0.18488 0.49942 0.47827s-0.1684 0.47828-0.49942 0.47828-0.50186-0.18162-0.50186-0.47828 0.17106-0.47827 0.50186-0.47827z"/></g></g><g transform="matrix(1.6616 0 0 1.6543 246.93 18.777)"><rect x="77.456" y="382.84" width="3.3193" height="1.9916" rx=".089249" ry=".043549"/><g fill="#b3b3b3" stroke-width="1px"><path d="m79.85 383.22h0.84512v0.2367h-0.53196v0.22612h0.50024v0.2367h-0.50024v0.27819h0.54986v0.23669h-0.86302z"/><path d="m77.518 383.22h0.51976c0.32701-3.5e-4 0.4799 0.15627 0.4799 0.39613s-0.14684 0.39693-0.4799 0.39693h-0.2066v0.42134h-0.31316zm0.31316 0.22694v0.33919h0.17325c0.08801 0 0.19034-0.0323 0.19034-0.16997 0-0.13771-0.10867-0.16917-0.19034-0.16917h-0.17325z"/><path d="m79.142 383.71c-0.12988 0-0.19847 0.0975-0.19847 0.27009 0 0.17255 0.06533 0.27001 0.19847 0.27001 0.13314 0 0.19603-0.0963 0.19603-0.27001 0-0.17366-0.06615-0.27009-0.19603-0.27009zm0-0.20823c0.3308 0 0.49942 0.18488 0.49942 0.47827s-0.1684 0.47828-0.49942 0.47828-0.50186-0.18162-0.50186-0.47828 0.17106-0.47827 0.50186-0.47827z"/></g></g><path d="m372.51 646.67v2.0436" fill="none" stroke="#fff" stroke-width=".25995"/></g><g fill="#fff" stroke-width="2.2935"><path d="m93.346 383.8h1.2739v0.3288h-0.80188v0.31413h0.75405v0.32879h-0.75405v0.38643h0.82886v0.3288h-1.3009z"/><path d="m96.029 384.04v0.59207h0.64004v0.26666h-0.64004v0.59207h-0.29181v-0.59207h-0.64004v-0.26666h0.64004v-0.59207z"/><path d="m89.779 383.8h0.78349c0.54958 0 0.7234 0.30284 0.7234 0.5503 0 0.24747-0.1142 0.55149-0.7234 0.55149h-0.31145v0.58529h-0.47207v-1.687zm0.47207 0.31523v0.47118h0.26116c0.21717 0 0.28693-0.12197 0.28693-0.23602 0-0.2118-0.18736-0.23491-0.28693-0.23491h-0.26116z"/><path d="m92.254 384.48c-0.17412 0-0.29917 0.11493-0.29917 0.37505 0 0.26019 0.11422 0.37508 0.29917 0.37508 0.18492 0 0.29549-0.10943 0.29549-0.37508 0-0.26574-0.12137-0.37505-0.29549-0.37505zm0-0.28925c0.5143 0 0.75284 0.28628 0.75284 0.66448s-0.25532 0.66448-0.75284 0.66448-0.75652-0.2708-0.75652-0.66448 0.24222-0.66448 0.75652-0.66448z"/></g><g transform="matrix(.01088 0 0 .010832 107.66 383.76)"><path d="m140.67 377.74h516.56c0.0674 0 0.12168 0.0244 0.12168 0.0548v315.04c0 0.0303-0.0543 0.0548-0.12168 0.0548h-516.56c-0.0674 0-0.12168-0.0244-0.12168-0.0548v-315.04c0-0.0303 0.0543-0.0548 0.12168-0.0548z" fill="#ff0" stroke="#ff0" stroke-linejoin="round" stroke-width="85.598"/><path d="m311.33 637.13h169.3v72.062l203.74-175.44-203.74-172.33v72.062h-169.3l188.08 72.062v-28.202l94.083 56.404-94.083 56.404v-25.088c-1.0798-1.9134-188.08 72.062-188.08 72.062z" stroke="#000"/><g stroke-width="1px"><path d="m277.43 493.56h57.016v15.969h-35.889v15.255h33.749v15.969h-33.749v18.767h37.096v15.969h-58.223z"/><path d="m396.43 505.03v28.755h28.645v12.951h-28.645v28.755h-13.06v-28.755h-28.645v-12.951h28.645v-28.755z"/><path d="m120.1 493.56h35.066c30.092 0 32.377 16.54 32.377 26.724 0 26.657-22.907 26.779-32.377 26.779h-13.938v28.426h-21.127zm21.127 15.31v22.883h11.689c9.649 0 12.841-6.3561 12.841-11.469 0-10.597-12.841-11.414-12.841-11.414z"/><path d="m229.66 526.59c-11.143 0-13.39 8.2513-13.39 18.218s3.371 18.218 13.39 18.218 13.225-9.7953 13.225-18.218-2.0819-18.218-13.225-18.218zm0-14.048c17.863 0 33.694 11.149 33.694 32.267s-16.149 32.267-33.694 32.267-33.859-9.619-33.859-32.267 15.996-32.267 33.859-32.267z"/></g></g><g transform="matrix(1.9571 0 0 1.8115 -50.087 -323.39)" fill="#fff" stroke-width=".79734" aria-label="Switch"><path d="m76.501 390.63h0.20863l0.11271 0.46281 0.1133-0.46281h0.17925l0.11271 0.45801 0.1133-0.45801h0.20863l-0.17685 0.67144h-0.2344l-0.1133-0.46162-0.11271 0.46162h-0.2344z"/><path d="m77.695 390.63h0.21462v0.67144h-0.21462zm0-0.26139h0.21462v0.17506h-0.21462z"/><path d="m76.309 390.43v0.18944c-0.26562-0.11196-0.43824-0.0782-0.43824 0.0269 0 0.16638 0.49699 0.0308 0.49699 0.37535 0 0.37895-0.42803 0.3066-0.69843 0.22832v-0.19483c0.23986 0.14962 0.48986 0.10072 0.476-5e-3 0-0.18724-0.48381-0.0281-0.48381-0.38666 0-0.33306 0.41184-0.30133 0.64746-0.23312z"/><path d="m78.352 390.44v0.19065h0.22122v0.15347h-0.22122v0.28476c0 0.0889 0.06209 0.0797 0.09233 0.0797h0.11031v0.15348h-0.18405c-0.25271 0-0.23321-0.1619-0.23321-0.23325v-0.28476h-0.10671v-0.15347h0.10671v-0.19065z"/><path d="m79.247 390.65v0.17505c-0.22966-0.14325-0.36929-7e-3 -0.36929 0.14027 0 0.27417 0.26189 0.20902 0.36929 0.13968v0.17565c-0.31153 0.1064-0.59289-0.0139-0.59289-0.31489 0-0.36527 0.3475-0.38592 0.59289-0.31488z"/><path d="m80.109 390.89v0.40886h-0.21582s0.0018-0.20788 0-0.31179c0.0039-0.34608-0.2446-0.2156-0.2446-0.0186v0.33033h-0.21462v-0.93283h0.21462v0.3597c0.18832-0.21334 0.46041-0.11735 0.46041 0.16423z"/></g><g transform="matrix(1.8829 0 0 1.8746 -235.08 -358.51)"><rect x="209.93" y="392.62" width="26.458" height="1.46" fill="#f9ff00"/><g transform="translate(13.426,20.696)" stroke-width="1px"><path d="m198.17 372.01h0.64998v0.11705h-0.5109v0.30434h0.48955v0.11705h-0.48955v0.3725h0.52329v0.11706h-0.66237z"/><path d="m199.49 372.01h0.13909v1.028h-0.13909z"/><path d="m205.79 372.92h0.22722v-0.78425l-0.24718 0.0496v-0.12669l0.24581-0.0496h0.13908v0.91094h0.22722v0.11706h-0.59215z"/><path d="m207.74 372.01h0.11705l-0.35804 1.1588h-0.11705z"/><path d="m208.02 372.92h0.22722v-0.78425l-0.24719 0.0496v-0.12669l0.24581-0.0496h0.13909v0.91094h0.22721v0.11706h-0.59214z"/><path d="m219.53 372.92h0.22722v-0.78425l-0.24719 0.0496v-0.12669l0.24581-0.0496h0.13909v0.91094h0.22722v0.11706h-0.59215z"/><path d="m220.31 372.6h0.37113v0.11292h-0.37113z"/><path d="m196.68 372.13v0.38627h0.17489c0.16785 0 0.2031-0.10966 0.2031-0.19352 0-0.0839-0.0371-0.19283-0.2031-0.19283h-0.17489zm-0.13909-0.1143h0.31398c0.2483 0 0.34975 0.13406 0.34975 0.30709s-0.094 0.30778-0.34975 0.30778h-0.17489v0.41313h-0.13909z"/><path d="m197.62 372.36c-0.17612 0-0.22032 0.17207-0.22032 0.29748s0.0466 0.29747 0.22031 0.29747c0.17373 0 0.21963-0.16945 0.21963-0.29748s-0.0435-0.29747-0.21962-0.29747zm0-0.10741c0.24311 0 0.35388 0.16861 0.35388 0.40486s-0.1253 0.40486-0.35388 0.40486-0.35387-0.15313-0.35387-0.40486 0.11076-0.40486 0.35387-0.40486z"/><path d="m200.52 372.58v0.46546h-0.1267v-0.46133c0-0.20773-0.11303-0.21827-0.17077-0.21827-0.19251 0-0.221 0.17158-0.221 0.24373v0.43585h-0.12738v-0.77117h0.12738v0.1198c0.0689-0.11993 0.17806-0.13837 0.24926-0.13837 0.25046 0 0.26925 0.20607 0.26925 0.32428z"/><path d="m200.89 372.05v0.21896h0.26096v0.0985h-0.26096v0.41863c0 0.11666 0.021 0.14799 0.13084 0.14799h0.13014v0.10604h-0.13014c-0.2508 0-0.25823-0.13211-0.25823-0.25408v-0.41863h-0.093v-0.0985h0.093v-0.21896h0.12738z"/><path d="m201.96 372.62v0.062h-0.58251c0 0.28247 0.29092 0.32999 0.55291 0.19628v0.11981c-0.37877 0.15384-0.6851 7e-3 -0.6851-0.33877 0-0.52974 0.71472-0.55723 0.71472-0.0392zm-0.1267-0.0372c0-0.0796-0.0345-0.22794-0.2086-0.22794-0.17406 0-0.24307 0.13656-0.24307 0.2286l0.45168-6.9e-4z"/><path d="m202.66 372.65c0-0.27126-0.16406-0.28915-0.21625-0.28915-0.20218 0-0.21556 0.19852-0.21556 0.28915 0 0.20615 0.10949 0.28846 0.21556 0.28846 0.16866 0 0.21625-0.17462 0.21625-0.28846zm0.12669 0.29883c0 0.39355-0.27456 0.43885-0.59624 0.34843v-0.12325c0.31417 0.13613 0.46962 0.0183 0.46962-0.20233v-0.0627c-0.18761 0.26492-0.56258 0.1209-0.56258-0.25893 0-0.46208 0.43683-0.47839 0.56258-0.25962v-0.11705h0.12669v0.67546z"/><path d="m203.48 372.39c-0.24763-0.0899-0.32435 0.10068-0.32435 0.24667v0.40624h-0.12738v-0.77117h0.12738v0.1198c0.0919-0.14573 0.23879-0.15192 0.32358-0.13137l6.9e-4 0.13014z"/><path d="m204.23 372.62v0.062h-0.5825c0.0331 0.35343 0.3552 0.2879 0.55291 0.19628v0.11981c-0.36839 0.14551-0.6851 0.0116-0.6851-0.33877 0-0.51088 0.71472-0.57386 0.71472-0.0392zm-0.12669-0.0372c-0.0356-0.36278-0.45583-0.23905-0.45168 6.6e-4l0.45168-6.9e-4z"/><path d="m204.94 372.39v-0.41726h0.12669v1.0714h-0.12669v-0.11568c-0.0498 0.10474-0.16888 0.13559-0.24719 0.13559-0.14893 0-0.31531-0.11032-0.31531-0.40486s0.16283-0.40486 0.31531-0.40486 0.21607 0.0816 0.24719 0.1356v7e-5zm-0.43172 0.26922c0 0.14097 0.051 0.29885 0.21556 0.29885 0.16457 0 0.21617-0.15775 0.21617-0.29885s-0.06-0.29886-0.21617-0.29886c-0.1562 0-0.21556 0.15789-0.21556 0.29886z"/><path d="m206.94 372.1c-0.18274 0-0.2155 0.21203-0.2155 0.42345s0.0349 0.42277 0.2155 0.42277c0.18061 0 0.21621-0.21643 0.21621-0.42277s-0.0335-0.42345-0.21621-0.42345zm0-0.11017c0.30317 0 0.35531 0.32638 0.35531 0.53362 0 0.37079-0.14061 0.53293-0.35531 0.53293-0.27899 0-0.3553-0.27121-0.3553-0.53293 0-0.32644 0.11191-0.53362 0.3553-0.53362z"/><path d="m215.2 372.13v0.38627h0.17489c0.12542 0 0.2031-0.0559 0.2031-0.19352s-0.0944-0.19283-0.2031-0.19283h-0.17489zm-0.13908-0.1143h0.31397c0.2059 0 0.34976 0.0972 0.34976 0.30709 0 0.2099-0.13162 0.30778-0.34976 0.30778h-0.17489v0.41313h-0.13908z"/><path d="m216.14 372.36c-0.13848 0-0.22032 0.10981-0.22032 0.29748s0.0823 0.29747 0.22031 0.29747c0.13805 0 0.21963-0.11451 0.21963-0.29748 0-0.17157-0.0811-0.29747-0.21962-0.29747zm0-0.10741c0.25306 0 0.35388 0.16831 0.35388 0.40486s-0.0965 0.40486-0.35388 0.40486-0.35387-0.18133-0.35387-0.40486 0.10081-0.40486 0.35387-0.40486z"/><path d="m217.14 372.39c-0.264-0.0887-0.32435 0.12218-0.32435 0.24667v0.40624h-0.12738v-0.77117h0.12738v0.1198c0.0712-0.11225 0.183-0.1541 0.32358-0.13137l6.9e-4 0.13014z"/><path d="m217.39 372.05v0.21896h0.26095v0.0985h-0.26095v0.41863c0 0.1621 0.0608 0.14799 0.13085 0.14799h0.13013v0.10604h-0.13013c-0.25819 0-0.25823-0.15546-0.25823-0.25408v-0.41863h-0.093v-0.0985h0.093v-0.21896h0.12738z"/><path d="m218.29 372.29v0.11981c-0.2267-0.0972-0.41999-0.063-0.41999 0.0606 0 0.18246 0.45715 0.0497 0.46137 0.35556 0 0.2575-0.32944 0.27059-0.58941 0.18447v-0.13083c0.22932 0.13299 0.45926 0.0764 0.45926-0.044 0-0.19915-0.45374-0.0556-0.45374-0.35935 0-0.25388 0.30215-0.25434 0.54256-0.18591z"/><path d="m219.26 371.97c-0.28587 0.52729-0.19583 0.88127 0 1.2559h-0.11016c-0.30072-0.46588-0.24658-0.86849 0-1.2559z"/><path d="m221.66 371.97h0.11016c0.3214 0.49392 0.23834 0.86939 0 1.2559h-0.11016c0.27658-0.51503 0.18853-0.87006 0-1.2559z"/></g></g><g transform="matrix(1.8829 0 0 1.8746 -57.451 -320.95)" aria-label="8"><path d="m140.26 373.2c-0.14001 0-0.20944 0.0855-0.20944 0.19588 0 0.11037 0.0866 0.19587 0.20944 0.19587 0.12283 0 0.21014-0.0706 0.21014-0.19587 0-0.12531-0.0701-0.19588-0.21014-0.19588zm-0.1369-0.0583s-0.18637-0.0546-0.18637-0.22906c0-0.1745 0.1473-0.26229 0.3233-0.26229s0.32329 0.0924 0.32329 0.26229c0 0.16992-0.12255 0.20665-0.18572 0.22906 0.0929 0.025 0.20944 0.0867 0.20944 0.25411 0 0.16742-0.0809 0.30427-0.34695 0.30427-0.26607 0-0.34693-0.15735-0.34693-0.30427 0-0.2243 0.20994-0.25411 0.20994-0.25411zm-0.0502-0.21619c0 0.12023 0.0727 0.16677 0.18705 0.16677 0.1143 0 0.18777-0.0576 0.18777-0.16677s-0.0875-0.16666-0.18777-0.16666c-0.10025 0-0.18705 0.0464-0.18705 0.16666z" stroke-width=".0077107px"/></g><g transform="matrix(1.8829 0 0 1.8746 -59.59 -320.58)"><path d="m131.08 372.47h0.11705l-0.35804 1.1588h-0.11705z"/><path d="m131.36 373.38h0.22722v-0.78425l-0.24719 0.0496v-0.12669l0.24581-0.0496h0.13909v0.91094h0.22721v0.11706h-0.59214z"/></g><g stroke-width="1.8787px"><path d="m184.05 377.82c-0.34408 0-0.40576 0.39748-0.40576 0.7938 0 0.39633 0.0657 0.79253 0.40576 0.79253 0.34007 0 0.4071-0.40572 0.4071-0.79253 0-0.3868-0.0631-0.7938-0.4071-0.7938zm0-0.20652c0.57084 0 0.66902 0.61183 0.66902 1.0003 0 0.69509-0.26476 0.99903-0.66902 0.99903-0.52531 0-0.66899-0.50841-0.66899-0.99903 0-0.61194 0.21071-1.0003 0.66899-1.0003z"/><path d="m185.73 377.82c-0.34408 0-0.40577 0.39748-0.40577 0.7938 0 0.39633 0.0657 0.79253 0.40577 0.79253s0.4071-0.40572 0.4071-0.79253c0-0.3868-0.0631-0.7938-0.4071-0.7938zm0-0.20652c0.57084 0 0.66901 0.61183 0.66901 1.0003 0 0.69509-0.26475 0.99903-0.66901 0.99903-0.52531 0-0.66899-0.50841-0.66899-0.99903 0-0.61194 0.21071-1.0003 0.66899-1.0003z"/><path d="m189.91 377.82c-0.34408 0-0.40576 0.39748-0.40576 0.7938 0 0.39633 0.0657 0.79253 0.40576 0.79253 0.34007 0 0.4071-0.40572 0.4071-0.79253 0-0.3868-0.0631-0.7938-0.4071-0.7938zm0-0.20652c0.57084 0 0.66902 0.61183 0.66902 1.0003 0 0.69509-0.26476 0.99903-0.66902 0.99903-0.52531 0-0.66899-0.50841-0.66899-0.99903 0-0.61194 0.21071-1.0003 0.66899-1.0003z"/><path d="m191.55 377.82c-0.34408 0-0.40576 0.39748-0.40576 0.7938 0 0.39633 0.0657 0.79253 0.40576 0.79253 0.34007 0 0.4071-0.40572 0.4071-0.79253 0-0.3868-0.0631-0.7938-0.4071-0.7938zm0-0.20652c0.57084 0 0.66902 0.61183 0.66902 1.0003 0 0.69509-0.26476 0.99903-0.66902 0.99903-0.52531 0-0.66899-0.50841-0.66899-0.99903 0-0.61194 0.21071-1.0003 0.66899-1.0003z"/><path d="m193.18 377.82c-0.34408 0-0.40576 0.39748-0.40576 0.7938 0 0.39633 0.0657 0.79253 0.40576 0.79253 0.34007 0 0.4071-0.40572 0.4071-0.79253 0-0.3868-0.0631-0.7938-0.4071-0.7938zm0-0.20652c0.57084 0 0.66902 0.61183 0.66902 1.0003 0 0.69509-0.26476 0.99903-0.66902 0.99903-0.52531 0-0.66899-0.50841-0.66899-0.99903 0-0.61194 0.21071-1.0003 0.66899-1.0003z"/></g></svg>
