<svg width="254" height="44.5" version="1.1" viewBox="66 376 254 44.5" xmlns="http://www.w3.org/2000/svg"><rect x="66.248" y="376.25" width="253.5" height="44.003" fill="#2f2524" fill-rule="evenodd" stroke="#000" stroke-linecap="round" stroke-miterlimit="4.4" stroke-width=".49672"/><text transform="scale(1.0397 .96177)" x="74.660637" y="391.9072" fill="#ffffff" font-family="sans-serif" font-size="2.4768px" font-weight="700"/><text transform="scale(1.0003 .99968)" x="79.690422" y="368.06918" fill="#000000" font-family="sans-serif" font-size="21.25px" letter-spacing="0px" stroke-width="1px" word-spacing="0px" style="line-height:125%" xml:space="preserve"/><rect x="226.55" y="387.75" width="92.325" height="31.273" rx=".70944" ry="1.1949" fill="#bebebe" stroke-width="1.5345"/><g fill="#fff" stroke-width="1.8829"><path d="m243.65 392.88h2.3086v0.45163h-0.83049v1.8656h-0.64593v-1.8656h-0.83218z"/><path d="m241.58 394.71c0.77564 0.30188 1.1655 0.0487 1.2129-0.45472-0.67338 0.38765-1.3791 0.0127-1.3791-0.59753 0.01-0.66591 0.59935-0.82413 0.96639-0.82413 0.82872 0 1.0268 0.63138 1.0268 1.1702 0 1.1563-0.94112 1.412-1.8271 1.1346zm0.79695-0.68753c0.22151 0 0.34056-0.15465 0.34056-0.4066 0-0.25194-0.0971-0.4067-0.34056-0.4067-0.24339 0-0.34057 0.13691-0.34057 0.4067 0 0.26973 0.11903 0.4066 0.34057 0.4066z"/><path d="m257.32 394.78h0.57046v-1.4977l-0.58555 0.11174v-0.40665l0.58218-0.11173h0.61408v1.9044h0.57044v0.41284h-1.7516z"/><path d="m261.7 392.88h2.3087v0.45163h-0.8305v1.8656h-0.64594v-1.8656h-0.83216z"/><path d="m260.88 394.04c0-0.53069-0.0881-0.79005-0.38416-0.79005-0.29612 0-0.38584 0.27222-0.38584 0.79005s0.085 0.79925 0.38584 0.79925c0.30079 0 0.38416-0.26856 0.38416-0.79925zm0.64593 5e-3c0 0.65291-0.27397 1.201-1.0302 1.2012-0.75619 3.1e-4 -1.0316-0.54059-1.0318-1.2012-1.8e-4 -0.52824 0.21088-1.2028 1.0318-1.2028s1.0302 0.5499 1.0302 1.2028z"/><path d="m286 397.77c-0.59014-0.23238-1.2265-0.24547-1.2265 0.0699 0 0.40462 1.3909 0.0755 1.3909 0.97158-1e-3 0.92583-1.1319 0.82572-1.9546 0.59132v-0.50442c0.60816 0.35112 1.3321 0.30882 1.3321-0.0145 0-0.46507-1.354-0.0983-1.354-1.0012 0-0.85571 1.0119-0.78438 1.812-0.60376z"/><path d="m301.85 399.11h0.57046v-1.4977l-0.58555 0.11174v-0.40663l0.58218-0.11173h0.61408v1.9044h0.57044v0.41285h-1.7516z"/></g><path d="m86.854 420.17-0.0075-44.094" fill="none" stroke="#1b0b0a" stroke-linejoin="round"/><rect x="66.946" y="377.63" width="18.798" height="8.9706" rx=".31051" ry=".15151" fill="none" stroke="#000" stroke-linejoin="round" stroke-width=".19301"/><rect x="156.15" y="383.95" width="58.888" height="27.14" rx="1.3878e-16" ry="1.3878e-16" fill="#3a3a3a" fill-rule="evenodd" stroke="#000" stroke-linecap="round" stroke-miterlimit="5.5" stroke-width=".5"/><path d="m157.54 385.62v1.418h3.2988v-1.418zm14.068 0v1.418h3.2988v-1.418zm14.225 0v1.418h3.2988v-1.418zm14.221 0v1.418h3.2988v-1.418zm-32.285 8e-3v1.4102h3.2715v-1.4102zm14.07 0v1.4102h3.2695v-1.4102zm14.223 0v1.4102h3.2715v-1.4102zm14.223 0v1.4102h3.2695v-1.4102zm-52.719 22.158v1.4082h3.2715v-1.4082zm10.221 0v1.416h3.2988v-1.416zm3.8496 0v1.4082h3.2695v-1.4082zm10.219 0v1.416h3.2988v-1.416zm4.0039 0v1.4082h3.2715v-1.4082zm10.221 0v1.416h3.2988v-1.416zm4.002 0v1.4082h3.2695v-1.4082zm10.221 0v1.416h3.2988v-1.416z" fill="#abb927" stroke-width="1.8765"/><path d="m157.82 387.57h3.3109l-6e-3 -2.0057 1.2049-1e-3v-0.75103h3.8837l-9.1e-4 0.75299h1.2542v2.0059l7.7327-1e-3 -6e-3 -2.0057 1.2049-1e-3v-0.75103h3.8837l-9.1e-4 0.75299h1.2542v2.0059l7.8878-1e-3 -6e-3 -2.0057 1.2049-1e-3v-0.75103h3.8837l-9e-4 0.75299h1.2542v2.0059l7.8857-1e-3 -6e-3 -2.0057 1.2049-1e-3v-0.75103h3.8837l-9e-4 0.75299h1.2542v2.0059h3.2957l0.019 19.68h-3.3109l6e-3 2.0057-1.2049 1e-3v0.75102h-3.8837l9e-4 -0.75298h-1.2542v-2.0059l-7.8857 1e-3 6e-3 2.0057-1.2049 1e-3v0.75102h-3.8837l9e-4 -0.75298h-1.2542v-2.0059l-7.8877 1e-3 6e-3 2.0057-1.2049 1e-3v0.75102h-3.8837l9.1e-4 -0.75298h-1.2542v-2.0059l-7.7327 1e-3 6e-3 2.0057-1.2049 1e-3v0.75102h-3.8837l9.1e-4 -0.75298h-1.2542v-2.0059h-3.2957z" stroke-width="1.8765"/><g fill="#e6e6e6" stroke="#000" stroke-width=".4"><rect x="272.24" y="403.85" width="3.1678" height="2.4222" rx=".16245" ry=".079264"/><rect x="272.34" y="407.94" width="3.1678" height="2.4222" rx=".16245" ry=".079264"/><rect x="293.16" y="403.85" width="3.1678" height="2.4222" rx=".16245" ry=".079264"/><rect x="293.25" y="407.94" width="3.1678" height="2.4222" rx=".16245" ry=".079264"/></g><path d="m161.64 384.24-5.2735 2e-3 4e-3 26.315 5.2969 2e-3v-1.2656l-4.2578 2e-3v-1.6387l0.41992-0.0131v-8.9842l12.945-7e-3 2e-3 8.992 0.41992 0.0131v1.6387l-4.2345-2e-3v1.2656l4.3613-2e-3h6e-3l4.4082 2e-3v-1.2656l-4.2599 2e-3v-1.6387l0.41992-0.0131 2e-3 -8.9842 12.945-7e-3v8.992l0.41992 0.0131v1.6387l-4.2345-2e-3v1.2656l4.5156-2e-3h8e-3l4.4063 2e-3v-1.2656l-4.2599 2e-3v-1.6387l0.41992-0.0131 2e-3 -8.9842 12.945-7e-3v8.9921l0.41992 0.0131v1.6387l-4.2324-2e-3v1.2656l4.5137-2e-3 4.4142 2e-3v-1.2656l-4.2599 2e-3v-1.6387l0.42189-0.0131v-8.9842l12.898-0.0839v9.0683l0.42188 0.0131v1.6387l-4.2345-2e-3v1.2656l5.2735-2e-3 -4e-3 -26.315-5.2989-2e-3v1.2656l4.2599-2e-3v1.6387l-0.42186 0.0131v8.9844l-12.898 0.0821v-9.0663l-0.41993-0.0131v-1.6387l4.2345 2e-3v-1.2656l-4.3809 2e-3 -4.5489-2e-3v1.2656l4.2599-2e-3v1.6387l-0.42188 0.0131v9.039l-9e-3 9e-3 -12.936 0.0168v-9.0662l-0.41993-0.0131v-1.6387l4.2324 2e-3v-1.2656l-4.3809 2e-3h-8e-3l-4.5391-2e-3v1.2656l4.2578-2e-3v1.6387l-0.41993 0.0131v9.039l-0.01 9e-3 -12.936 0.0168v-9.0662l-0.42189-0.0131v-1.6387l4.2345 2e-3v-1.2656l-4.3809 2e-3h-8e-3l-4.3867-2e-3v1.2656l4.2599-2e-3v1.6387l-0.41993 0.0131-2e-3 9.039-8e-3 9e-3 -12.936 0.0168-2e-3 -9.0662-0.41992-0.0131v-1.6387l4.2345 2e-3v-1.2656z" fill="#ebebeb"/><rect x="87.898" y="377.06" width="231.51" height="42.618" rx="1" ry="1" fill="none" stroke="#fff" stroke-linecap="round" stroke-miterlimit="4.4" stroke-width=".5"/><g fill="#fff" stroke-width="1.8829"><path d="m281.89 399.03c0.77564 0.30188 1.1655 0.0487 1.2129-0.45472-0.67337 0.38764-1.3791 0.0127-1.3791-0.59753 0.01-0.66591 0.59936-0.82413 0.9664-0.82413 0.82871 0 1.0268 0.63138 1.0268 1.1702 0 1.1563-0.94112 1.412-1.8271 1.1346zm0.79696-0.68753c0.22151 0 0.34055-0.15465 0.34055-0.40661 0-0.25193-0.0971-0.40669-0.34055-0.40669-0.2434 0-0.34057 0.1369-0.34057 0.40669 0 0.26974 0.11902 0.40661 0.34057 0.40661z"/><path d="m308.3 397.77c-0.59014-0.23237-1.2265-0.24547-1.2265 0.0699 0 0.40462 1.3909 0.0755 1.3909 0.97158-1e-3 0.92583-1.1319 0.82572-1.9546 0.59132v-0.50442c0.60817 0.35112 1.3321 0.30882 1.3321-0.0145 0-0.46506-1.354-0.0983-1.354-1.0012 0-0.85572 1.0119-0.78438 1.812-0.60376z"/><path d="m305.44 398.37c0-0.53069-0.0881-0.79005-0.38417-0.79005-0.29611 0-0.38583 0.27222-0.38583 0.79005s0.085 0.79925 0.38583 0.79925c0.30079 0 0.38417-0.26856 0.38417-0.79925zm0.64593 5e-3c0 0.65291-0.27398 1.2009-1.0302 1.2012-0.75618 7.4e-4 -1.0316-0.54016-1.0318-1.2008-1.7e-4 -0.52824 0.21088-1.2028 1.0318-1.2028s1.0302 0.5499 1.0302 1.2028z"/></g><g stroke-width="1.883"><rect x="74.245" y="391.04" width="11.496" height="2.134" rx=".59581" ry=".29073" fill="#00ff1f"/><rect x="74.327" y="394.9" width="11.496" height="2.134" rx=".59581" ry=".29073" fill="#838383"/><ellipse cx="80.033" cy="400.46" rx="1.4384" ry="1.4375" fill="#838383"/></g><path d="m83.278 412.28h-2.311l0.0053 3.758h-8.3422v-3.7592h-2.2957v-7.6363l12.942-0.0281z" stroke-width="1.8829"/><rect x="160.2" y="377.5" width="49.818" height="2.7369" fill="#f9ff00" stroke-width="1.8787"/><g stroke-width="1.8787px"><path d="m167.33 377.66h1.2238v0.21942h-0.96198v0.57051h0.92178v0.21943h-0.92178v0.69828h0.98531v0.21944h-1.2472z"/><path d="m169.81 377.66h0.26189v1.9271h-0.26189z"/><path d="m181.67 379.36h0.42783v-1.4702l-0.46541 0.093v-0.2375l0.46283-0.093h0.26188v1.7076h0.42783v0.21944h-1.115z"/><path d="m185.35 377.66h0.2204l-0.67416 2.1723h-0.22039z"/><path d="m185.87 379.36h0.42783v-1.4702l-0.46544 0.093v-0.2375l0.46284-0.093h0.26189v1.7076h0.42782v0.21944h-1.1149z"/><path d="m201.56 379.36h0.42784v-1.4702l-0.46544 0.093v-0.2375l0.46284-0.093h0.26189v1.7076h0.42783v0.21944h-1.115z"/><path d="m203.03 378.76h0.69881v0.21168h-0.69881z"/><path d="m164.52 377.88v0.7241h0.3293c0.31605 0 0.38242-0.20557 0.38242-0.36277 0-0.15728-0.0699-0.36148-0.38242-0.36148zm-0.26189-0.21427h0.59119c0.46752 0 0.65854 0.25131 0.65854 0.57567s-0.17699 0.57697-0.65854 0.57697h-0.3293v0.77445h-0.26189z"/><path d="m166.29 378.31c-0.33162 0-0.41484 0.32256-0.41484 0.55765 0 0.2351 0.0877 0.55764 0.41482 0.55764 0.32711 0 0.41354-0.31765 0.41354-0.55766 0-0.24-0.0819-0.55763-0.41352-0.55763zm0-0.20135c0.45775 0 0.66632 0.31607 0.66632 0.75895 0 0.44287-0.23593 0.75895-0.66632 0.75895-0.4304 0-0.66631-0.28706-0.66631-0.75895 0-0.4719 0.20855-0.75895 0.66631-0.75895z"/><path d="m171.75 379.6h-0.23857v-0.86481c0-0.38941-0.21282-0.40917-0.32154-0.40917-0.36248 0-0.41612 0.32165-0.41612 0.4569v0.81704h-0.23984v-1.4456h0.23984v0.22457c0.12973-0.22482 0.33527-0.25938 0.46933-0.25938 0.47159 0 0.50697 0.38629 0.50697 0.60789z"/><path d="m172.45 377.73v0.41046h0.49136v0.18465h-0.49136v0.78476c0 0.2187 0.0395 0.27743 0.24636 0.27743h0.24504v0.19878h-0.24504c-0.47223 0-0.48622-0.24765-0.48622-0.4763v-0.78476h-0.17511v-0.18465h0.17511v-0.41046z"/><path d="m174.46 378.92h-1.0968c0 0.52952 0.54778 0.6186 1.0411 0.36794v0.2246c-0.71319 0.28839-1.29 0.0131-1.29-0.63506 0-0.99305 1.3458-1.0446 1.3458-0.0735zm-0.23856-0.18593c0-0.14922-0.065-0.4273-0.39277-0.4273-0.32774 0-0.45768 0.256-0.45768 0.42853z"/><path d="m175.78 378.86c0-0.5085-0.30891-0.54204-0.40718-0.54204-0.38068 0-0.40587 0.37215-0.40587 0.54204 0 0.38645 0.20616 0.54075 0.40587 0.54075 0.31757 0 0.40718-0.32735 0.40718-0.54075zm0.23855 0.56019c0 0.73775-0.51697 0.82266-1.1227 0.65316v-0.23104c0.59155 0.25519 0.88424 0.0343 0.88424-0.37929v-0.11754c-0.35325 0.49662-1.0593 0.22664-1.0593-0.48539 0-0.86621 0.82251-0.89679 1.0593-0.48668v-0.21942h0.23855z"/><path d="m177.32 378.37c-0.46626-0.16852-0.61072 0.18874-0.61072 0.46241v0.76154h-0.23984v-1.4456h0.23984v0.22458c0.17304-0.27318 0.44962-0.28479 0.60927-0.24627l1e-3 0.24397z"/><path d="m178.74 378.92h-1.0968c0.0623 0.66254 0.6688 0.53969 1.0411 0.36794v0.2246c-0.69364 0.27277-1.29 0.0217-1.29-0.63506 0-0.95769 1.3457-1.0758 1.3457-0.0735zm-0.23854-0.18593c-0.067-0.68007-0.85828-0.44813-0.85047 1e-3z"/><path d="m180.07 377.59h0.23855v2.0084h-0.23855v-0.21685c-0.0938 0.19635-0.31798 0.25418-0.46543 0.25418-0.28042 0-0.5937-0.20681-0.5937-0.75895 0-0.55215 0.3066-0.75895 0.5937-0.75895s0.40684 0.15296 0.46543 0.25419zm-0.81288 1.2869c0 0.26427 0.096 0.56023 0.40588 0.56023 0.30987 0 0.40702-0.29572 0.40702-0.56023 0-0.2645-0.11297-0.56024-0.40702-0.56024-0.29411 0-0.40588 0.29598-0.40588 0.56024z"/><path d="m183.84 377.83c-0.34408 0-0.40576 0.39747-0.40576 0.7938s0.0657 0.79252 0.40576 0.79252c0.34007 0 0.40711-0.40572 0.40711-0.79252 0-0.38681-0.0631-0.7938-0.40711-0.7938zm0-0.20652c0.57084 0 0.66902 0.61183 0.66902 1.0003 0 0.69508-0.26476 0.99903-0.66902 0.99903-0.52531 0-0.66899-0.50841-0.66899-0.99903 0-0.61195 0.21071-1.0003 0.66899-1.0003z"/><path d="m193.4 377.88v0.7241h0.3293c0.23615 0 0.38241-0.10479 0.38241-0.36277 0-0.25799-0.17774-0.36148-0.38241-0.36148zm-0.26188-0.21427h0.59118c0.38769 0 0.65856 0.18221 0.65856 0.57567 0 0.39348-0.24783 0.57697-0.65856 0.57697h-0.3293v0.77445h-0.26188z"/><path d="m195.17 378.31c-0.26074 0-0.41484 0.20585-0.41484 0.55765 0 0.35181 0.15496 0.55764 0.41482 0.55764 0.25994 0 0.41354-0.21466 0.41354-0.55766 0-0.32162-0.1527-0.55763-0.41352-0.55763zm0-0.20135c0.47649 0 0.66632 0.31551 0.66632 0.75895 0 0.44343-0.1817 0.75895-0.66632 0.75895s-0.6663-0.33992-0.6663-0.75895 0.18982-0.75895 0.6663-0.75895z"/><path d="m197.06 378.37c-0.49708-0.16627-0.61072 0.22904-0.61072 0.46241v0.76154h-0.23984v-1.4456h0.23984v0.22458c0.13407-0.21042 0.34457-0.28887 0.60927-0.24627z"/><path d="m197.53 377.73v0.41046h0.49134v0.18465h-0.49134v0.78476c0 0.30388 0.11448 0.27743 0.24637 0.27743h0.24503v0.19878h-0.24503c-0.48614 0-0.48622-0.29143-0.48622-0.4763v-0.78476h-0.17511v-0.18465h0.17511v-0.41046z"/><path d="m199.22 378.18v0.2246c-0.42686-0.18221-0.7908-0.1181-0.7908 0.1136 0 0.34204 0.86077 0.0932 0.86871 0.66653 0 0.48271-0.6203 0.50725-1.1098 0.34581v-0.24525c0.43179 0.2493 0.86474 0.14322 0.86474-0.0825 0-0.37332-0.85435-0.10422-0.85435-0.67363 0-0.47593 0.56892-0.47679 1.0216-0.34851z"/><path d="m201.05 377.58c-0.53826 0.98846-0.36873 1.652 0 2.3543h-0.20742c-0.56623-0.87334-0.46429-1.6281 0-2.3543z"/><path d="m205.57 377.58h0.20742c0.60516 0.9259 0.44877 1.6298 0 2.3543h-0.20742c0.52077-0.96547 0.35498-1.631 0-2.3543z"/></g><path d="m204.65 378.65c-0.26362 0-0.39435 0.16028-0.39435 0.3672 0 0.2069 0.16305 0.36717 0.39435 0.36717 0.23128 0 0.39567-0.13234 0.39567-0.36717 0-0.23491-0.13199-0.3672-0.39567-0.3672zm-0.25777-0.10929s-0.35092-0.10235-0.35092-0.4294c0-0.32711 0.27736-0.49168 0.60875-0.49168s0.60872 0.17321 0.60872 0.49168c0 0.31854-0.23075 0.38739-0.34969 0.4294 0.17492 0.0469 0.39435 0.16253 0.39435 0.47636 0 0.31384-0.15232 0.57038-0.65327 0.57038-0.50098 0-0.65324-0.29497-0.65324-0.57038 0-0.42048 0.3953-0.47636 0.3953-0.47636zm-0.0945-0.40527c0 0.22538 0.13689 0.31263 0.3522 0.31263 0.21521 0 0.35355-0.10798 0.35355-0.31263s-0.16476-0.31242-0.35355-0.31242c-0.18876 0-0.3522 0.087-0.3522 0.31242z" stroke-width=".014486px"/><path d="m188.05 377.82c-0.34408 0-0.40576 0.39748-0.40576 0.7938 0 0.39633 0.0657 0.79253 0.40576 0.79253 0.34007 0 0.4071-0.40572 0.4071-0.79253 0-0.3868-0.0631-0.7938-0.4071-0.7938zm0-0.20652c0.57084 0 0.66902 0.61183 0.66902 1.0003 0 0.69509-0.26476 0.99903-0.66902 0.99903-0.52531 0-0.66899-0.50841-0.66899-0.99903 0-0.61194 0.21071-1.0003 0.66899-1.0003z" stroke-width="1.8787px"/><path d="m189.73 377.82c-0.34408 0-0.40577 0.39748-0.40577 0.7938 0 0.39633 0.0657 0.79253 0.40577 0.79253s0.4071-0.40572 0.4071-0.79253c0-0.3868-0.0631-0.7938-0.4071-0.7938zm0-0.20652c0.57084 0 0.66901 0.61183 0.66901 1.0003 0 0.69509-0.26475 0.99903-0.66901 0.99903-0.52531 0-0.66899-0.50841-0.66899-0.99903 0-0.61194 0.21071-1.0003 0.66899-1.0003z" stroke-width="1.8787px"/><g fill="#fff"><g transform="translate(-9.1585 1.5456)"><path d="m70.633 391.58 0.22111 0.84023 0.22015-0.84023h0.20861l0.22111 0.84023 0.22015-0.84023h0.17688l-0.28167 1.0767h-0.20861l-0.23168-0.8825-0.23264 0.8825h-0.20861l-0.28167-1.0767z"/><path d="m68.477 391.38v0.53931h0.24418c0.22603 0 0.28359-0.1 0.28359-0.2702 0-0.17022-0.11422-0.26922-0.28359-0.26922zm-0.19419-0.15967h0.43837c0.34614 0 0.48836 0.16325 0.48836 0.42874 0 0.2655-0.14406 0.42975-0.48836 0.42975h-0.24418v0.5768h-0.19419z"/><path d="m69.791 391.7c-0.16786 0-0.30763 0.1335-0.30763 0.41524 0 0.28173 0.15026 0.41529 0.30763 0.41529s0.30668-0.0919 0.30668-0.41527c0-0.32341-0.13881-0.41526-0.30668-0.41526zm0-0.14988c0.29494 0 0.49414 0.1834 0.49414 0.56518 0 0.38184-0.18778 0.56518-0.49414 0.56518-0.30635 0-0.49414-0.18415-0.49414-0.56518s0.1992-0.56518 0.49414-0.56518z"/><path d="m73.071 392.17h-0.8133c0.03254 0.44782 0.42138 0.41937 0.77195 0.2739v0.1672c-0.57162 0.21234-0.95653 9e-3 -0.95653-0.4729 0-0.50267 0.34834-0.57608 0.52777-0.57486 0.47518 0 0.47011 0.42986 0.47011 0.60666zm-0.17688-0.13858c0-0.21189-0.12682-0.31831-0.29129-0.31831s-0.33936 0.11505-0.33936 0.31914z"/><path d="m73.966 391.75c-0.2413-0.0845-0.45279 1e-3 -0.45279 0.34339v0.56718h-0.17784v-1.0767h0.17784v0.1672c0.14834-0.21401 0.32294-0.20814 0.45183-0.18189z"/><path d="m68.283 395.12h0.82484v0.16344h-0.63063v0.42298h0.56912v0.16344h-0.56912v0.68545h-0.19419z"/><path d="m71.627 395.05h0.17688v1.4958h-0.17688z"/><path d="m69.319 396.22c0.01017 0.40834 0.55567 0.15855 0.55567-0.21606-0.43398 0-0.55567 0.0267-0.55567 0.21606zm0.73254 0.32507h-0.17688v-0.16344c-0.40359 0.40361-0.73256 0.0804-0.73256-0.14988 0-0.42031 0.45311-0.36625 0.73254-0.36625 0.01337-0.42439-0.49993-0.26033-0.65372-0.1843v-0.16344c0.59041-0.21219 0.8306 0.0508 0.8306 0.41338z"/><path d="m70.379 395.47h0.17688v0.64506c0 0.45503 0.54795 0.43158 0.54795-0.0346v-0.61045h0.17688v1.0767h-0.17688v-0.16532c-0.41609 0.41607-0.72486 0.0874-0.72486-0.25966 1.6e-5 -0.88391 2.9e-5 0.23218 3e-5 -0.65173z"/><path d="m72.328 395.16v0.30571h0.36435v0.13746h-0.36435v0.5845c0 0.19872 0.02866 0.20674 0.18264 0.20674h0.1817v0.148h-0.1817c-0.31317 0-0.36049-0.16155-0.36049-0.35467v-0.5845h-0.12977v-0.13745h0.12977v-0.30572z"/><path d="m68.283 399.57h0.19419v1.2718h0.69889v0.16344h-0.8931z"/><path d="m69.735 400.06c-0.21206 0-0.30763 0.17643-0.30763 0.41524 0 0.23883 0.1088 0.41528 0.30763 0.41528 0.19884 0 0.30668-0.19983 0.30668-0.41526s-0.09462-0.41526-0.30668-0.41526zm0-0.15007c0.29428 0 0.49414 0.17568 0.49414 0.56535 0 0.38966-0.20313 0.56518-0.49414 0.56518s-0.49414-0.21168-0.49414-0.56518 0.19986-0.56535 0.49414-0.56535z"/><path d="m71.275 400.12c-0.48201-0.22872-0.66526 0.0612-0.66526 0.33262 0.01375 0.5023 0.43458 0.4552 0.66526 0.33266v0.16344c-0.57791 0.20351-0.85175-0.10205-0.85175-0.4964 0-0.52387 0.44876-0.66326 0.85175-0.49849z"/><path d="m71.674 400.68c0 0.29737 0.55566 0.32509 0.55567-0.21626-0.4935 0-0.55567 0.0435-0.55567 0.21626zm0.73254 0.32509h-0.17688v-0.16344c-0.2561 0.38851-0.73256 0.12973-0.73256-0.14988 0-0.41195 0.41656-0.35688 0.73254-0.36624 0-0.40758-0.52043-0.26123-0.65372-0.18433v-0.16344c0.5904-0.21219 0.8306 0.0273 0.8306 0.41336z"/><path d="m75.314 400.1c-0.27645-0.1158-0.45279 0.081-0.45279 0.34339v0.5672h-0.17784v-1.0767h0.17784v0.1672c0.09755-0.20228 0.32294-0.21204 0.45183-0.18189z"/></g><path d="m70.419 391.72 0.22111 0.84023 0.22015-0.84023h0.20861l0.22111 0.84023 0.22015-0.84023h0.17688l-0.28167 1.0767h-0.20861l-0.23168-0.8825-0.23264 0.8825h-0.20861l-0.28167-1.0767z"/><path d="m68.263 391.52v0.53931h0.24418c0.22603 0 0.28359-0.1 0.28359-0.2702 0-0.17022-0.11422-0.26922-0.28359-0.26922zm-0.19419-0.15967h0.43837c0.34614 0 0.48836 0.16325 0.48836 0.42874 0 0.2655-0.14406 0.42975-0.48836 0.42975h-0.24418v0.5768h-0.19419z"/><path d="m69.577 391.84c-0.16786 0-0.30763 0.1335-0.30763 0.41524 0 0.28173 0.15026 0.41529 0.30763 0.41529s0.30668-0.0919 0.30668-0.41527c0-0.32341-0.13881-0.41526-0.30668-0.41526zm0-0.14988c0.29494 0 0.49414 0.1834 0.49414 0.56518 0 0.38184-0.18778 0.56518-0.49414 0.56518-0.30635 0-0.49414-0.18415-0.49414-0.56518s0.1992-0.56518 0.49414-0.56518z"/><path d="m72.857 392.31h-0.8133c0.03254 0.44782 0.42138 0.41937 0.77195 0.2739v0.1672c-0.57162 0.21234-0.95653 9e-3 -0.95653-0.4729 0-0.50267 0.34834-0.57608 0.52777-0.57486 0.47518 0 0.47011 0.42986 0.47011 0.60666zm-0.17688-0.13858c0-0.21189-0.12682-0.31831-0.29129-0.31831s-0.33936 0.11505-0.33936 0.31914z"/><path d="m73.752 391.89c-0.2413-0.0845-0.45279 1e-3 -0.45279 0.34339v0.56718h-0.17784v-1.0767h0.17784v0.1672c0.14834-0.21401 0.32294-0.20814 0.45183-0.18189z"/><path d="m68.069 395.26h0.82484v0.16344h-0.63063v0.42298h0.56912v0.16344h-0.56912v0.68545h-0.19419z"/><path d="m71.413 395.19h0.17688v1.4958h-0.17688z"/><path d="m69.105 396.36c0.01017 0.40834 0.55567 0.15855 0.55567-0.21606-0.43398 0-0.55567 0.0267-0.55567 0.21606zm0.73254 0.32507h-0.17688v-0.16344c-0.40359 0.40361-0.73256 0.0804-0.73256-0.14988 0-0.42031 0.45311-0.36625 0.73254-0.36625 0.01337-0.42439-0.49993-0.26033-0.65372-0.1843v-0.16344c0.59041-0.21219 0.8306 0.0508 0.8306 0.41338z"/><path d="m70.165 395.61h0.17688v0.64506c0 0.45503 0.54795 0.43158 0.54795-0.0346v-0.61045h0.17688v1.0767h-0.17688v-0.16532c-0.41609 0.41607-0.72486 0.0874-0.72486-0.25966 1.6e-5 -0.88391 2.9e-5 0.23218 3e-5 -0.65173z"/><path d="m72.114 395.3v0.30571h0.36435v0.13746h-0.36435v0.5845c0 0.19872 0.02866 0.20674 0.18264 0.20674h0.1817v0.148h-0.1817c-0.31317 0-0.36049-0.16155-0.36049-0.35467v-0.5845h-0.12977v-0.13745h0.12977v-0.30572z"/><path d="m68.069 399.71h0.19419v1.2718h0.69889v0.16344h-0.8931z"/><path d="m69.521 400.2c-0.21206 0-0.30763 0.17643-0.30763 0.41524 0 0.23883 0.1088 0.41528 0.30763 0.41528 0.19884 0 0.30668-0.19983 0.30668-0.41526s-0.09462-0.41526-0.30668-0.41526zm0-0.15007c0.29428 0 0.49414 0.17568 0.49414 0.56535 0 0.38966-0.20313 0.56518-0.49414 0.56518s-0.49414-0.21168-0.49414-0.56518 0.19986-0.56535 0.49414-0.56535z"/><path d="m71.061 400.26c-0.48201-0.22872-0.66526 0.0612-0.66526 0.33262 0.01375 0.5023 0.43458 0.4552 0.66526 0.33266v0.16344c-0.57791 0.20351-0.85175-0.10205-0.85175-0.4964 0-0.52387 0.44876-0.66326 0.85175-0.49849z"/><path d="m71.46 400.82c0 0.29737 0.55566 0.32509 0.55567-0.21626-0.4935 0-0.55567 0.0435-0.55567 0.21626zm0.73254 0.32509h-0.17688v-0.16344c-0.2561 0.38851-0.73256 0.12973-0.73256-0.14988 0-0.41195 0.41656-0.35688 0.73254-0.36624 0-0.40758-0.52043-0.26123-0.65372-0.18433v-0.16344c0.5904-0.21219 0.8306 0.0273 0.8306 0.41336z"/><path d="m75.1 400.24c-0.27645-0.1158-0.45279 0.081-0.45279 0.34339v0.5672h-0.17784v-1.0767h0.17784v0.1672c0.09755-0.20228 0.32294-0.21204 0.45183-0.18189z"/><path d="m72.718 399.78v0.30572h0.36435v0.13745h-0.36435v0.58451c0 0.19873 0.02869 0.20675 0.18264 0.20675h0.18171v0.148h-0.18171c-0.31316 0-0.36049-0.16156-0.36049-0.35468v-0.58451h-0.12978v-0.13745h0.12978v-0.30572z" stroke-width="1.8829px"/><path d="m73.71 400.2c-0.21206 0-0.30764 0.17643-0.30764 0.41524 0 0.23884 0.10879 0.41529 0.30764 0.41529s0.30668-0.19983 0.30668-0.41526c0-0.21544-0.09462-0.41527-0.30668-0.41527zm0-0.15008c0.29429 0 0.49415 0.17569 0.49415 0.56537 0 0.38965-0.20313 0.56519-0.49415 0.56519s-0.49415-0.21169-0.49415-0.56519c0-0.35351 0.19986-0.56537 0.49415-0.56537z" stroke-width="1.8829px"/></g><path class="st1" d="m77.267 382.51c0 0.74182-0.59257 1.3446-1.3148 1.3446-0.72219 0-1.3148-0.60276-1.3148-1.3446v-1.1406s0.62961 0.15765 0.62961 0.8253v0.31528c0 0.408 0.30554 0.73255 0.68514 0.73255 0.37962 0 0.68516-0.32455 0.68516-0.73255v-0.64928c0.0278-0.55638 0.50968-0.73257 0.63005-0.79748zm-2.8888-0.53784c-0.12962-0.11123-0.30554-0.17619-0.49072-0.17619-0.41665 0-0.74996 0.32456-0.74996 0.73257v1.326h-0.62961v-2.4296s0.25926 9e-3 0.4259 0.12989c0.24072-0.24111 0.58331-0.3802 0.95367-0.3802 0.17594 0 0.34258 0.0278 0.49072 0.0927zm-4.2684 0.53776c0-0.408 0.34257-0.74184 0.75923-0.74184s0.75922 0.33384 0.75922 0.74184c0 0.40801-0.34257 0.74185-0.75922 0.74185s-0.75923-0.33384-0.75923-0.74185zm-0.61108 8e-5c0 0.74184 0.6111 1.3353 1.3703 1.3353 0.3148 0 0.60182-0.10197 0.83329-0.2782 0.13889 0.23182 0.53702 0.2782 0.53702 0.2782v-1.3353c0-0.73256-0.6111-1.3353-1.3703-1.3353-0.75923 0-1.3703 0.60274-1.3703 1.3353zm11.565-8e-5c0-0.408 0.34257-0.74184 0.75923-0.74184 0.41665 0 0.75922 0.33384 0.75922 0.74184 0 0.40801-0.34257 0.74185-0.75922 0.74185-0.41666 0-0.75923-0.33384-0.75923-0.74185zm-0.61107 8e-5c0 0.74184 0.61108 1.3353 1.3703 1.3353 0.3148 0 0.60183-0.10197 0.83329-0.2782 0.13889 0.23182 0.53701 0.2782 0.53701 0.2782v-1.3353c0-0.73256-0.61108-1.3353-1.3703-1.3353s-1.3703 0.60274-1.3703 1.3353zm-2.2961-8e-5c0-0.408 0.34257-0.74184 0.75923-0.74184 0.41665 0 0.75922 0.33384 0.75922 0.74184 0.0097 0.40801-0.33333 0.74185-0.75922 0.74185-0.41666 0-0.75923-0.33384-0.75923-0.74185zm0-1.3259c-0.0278-0.55638-0.49116-0.73256-0.61152-0.79748v3.4681s0.40739-0.0464 0.5648-0.26892c0.23147 0.15765 0.50924 0.25965 0.80554 0.25965 0.75923 0 1.3703-0.60274 1.3703-1.3353 0.0097-0.73256-0.61108-1.3353-1.3701-1.3353-0.27756 0-0.5368 0.0835-0.75902 0.22255z" fill="#f5831f" stroke-width="1.5163"/><g transform="translate(.40485 1.7842)" fill="#fff"><path d="m78.692 415.51h0.17688v1.4958h-0.17688z"/><path d="m74.502 416.04c-0.21106 0-0.30763 0.2114-0.30763 0.41524 0 0.20385 0.0922 0.41529 0.30763 0.41529s0.30668-0.1802 0.30668-0.41527c0-0.23501-0.0956-0.41526-0.30668-0.41526zm0-0.15007c0.33319 0 0.49414 0.24354 0.49414 0.56537s-0.17204 0.56518-0.49414 0.56518c-0.32209 0-0.49412-0.24679-0.49412-0.56518s0.16094-0.56537 0.49412-0.56537z"/><path d="m76.162 416.99h-0.17688v-0.6441c0-0.46729-0.54701-0.35373-0.54701 0.0356v0.60853h-0.17785v-1.0767h0.17785v0.16721c0.20351-0.30106 0.73169-0.26143 0.72387 0.25968z"/><path d="m77.182 416.12c-0.32694-0.12428-0.58642-0.0842-0.58642 0.0845 0 0.25772 0.64409 0.0606 0.64409 0.49568 0 0.36194-0.43121 0.35609-0.8229 0.25817v-0.18264c0.26697 0.15647 0.64122 0.13105 0.64122-0.0614 0-0.27363-0.63353-0.052-0.63353-0.50249 0-0.35082 0.42859-0.35983 0.75754-0.25886z"/><path d="m80.132 416.42v0.0866h-0.81329c0.0684 0.54594 0.56045 0.37237 0.77195 0.27389v0.16721c-0.63538 0.22102-0.95656-0.0469-0.95656-0.4729 0-0.31837 0.19519-0.57488 0.52777-0.57488 0.40181 0 0.47013 0.37281 0.47013 0.52008zm-0.17688-0.052c0-0.26348-0.1695-0.31831-0.29129-0.31831s-0.33936 0.0557-0.33936 0.31914z"/><path d="m77.922 416.05c-0.21107 0-0.30764 0.2114-0.30764 0.41525 0 0.20386 0.0923 0.41529 0.30764 0.41529 0.21542 0 0.30668-0.1802 0.30668-0.41527 0-0.235-0.0956-0.41527-0.30668-0.41527zm0-0.15007c0.33319 0 0.49414 0.24355 0.49414 0.56538 0 0.32184-0.17205 0.56519-0.49414 0.56519-0.3221 0-0.49412-0.2468-0.49412-0.56519s0.16093-0.56538 0.49412-0.56538z"/><path d="m73.812 415.68v0.20475c-0.54974-0.43119-0.95269-0.0557-0.95269 0.40384 0 0.64549 0.55524 0.72594 0.95269 0.40289v0.20285c-0.59708 0.34473-1.1575 0.0151-1.1575-0.60569 0-0.79995 0.71506-0.86365 1.1575-0.60864z"/></g><g transform="translate(40.025 15.585)"><ellipse cx="49.511" cy="401.5" rx=".72969" ry=".73078" stroke-width="1.8802"/><ellipse cx="59.205" cy="401.5" rx=".72969" ry=".73078" stroke-width="1.8802"/><g transform="translate(-36.216 -15.29)" fill="#fff"><path d="m88.502 416.93c0.04234 0.48534 0.47118 0.35674 0.72661 0.25781v0.15738c-0.60535 0.20747-0.89638-0.0404-0.90037-0.44512 0.03456-0.78209 1.0234-0.65776 0.93929 0.0299zm0.59903-0.13044c0-0.46355-0.59406-0.33143-0.59361 7.8e-4z" stroke-width="1.7724px"/><path d="m87.976 416.83c0.12605 0.16625 0.1925 0.35456 0.2977 0.54835h-0.19636c-0.19287-0.4432-0.30314-0.52664-0.30314-0.52664-0.11866-0.0739-0.23377-0.028-0.3701-0.0443v0.57098h-0.18278v-1.351h0.41262c0.62762 0 0.44123 0.72902 0.22801 0.71759 0.05138 0.0234 0.08239 0.0455 0.11405 0.085zm-0.57189-0.65245v0.47958h0.22984c0.41796 0 0.34396-0.47956 0-0.47956z" stroke-width="1.7724px"/><path d="m90.168 416.56c-0.45982-0.17528-0.55198 0.0234-0.55198 0.0756 0 0.23661 0.60627 0.0774 0.60627 0.47047 0 0.3532-0.4209 0.33778-0.77457 0.24302v-0.17192c0.28798 0.16624 0.60356 0.10656 0.60356-0.0579 0-0.27464-0.59633-0.0544-0.59633-0.47298 0-0.39313 0.50516-0.29505 0.71306-0.24364z" stroke-width="1.7723px"/><path d="m91.758 416.09v0.28775h0.34296v0.12938h-0.34296v0.55017c0 0.17227 0.03915 0.19461 0.17192 0.19461h0.17104v0.1393h-0.17104c-0.32812 0-0.32843-0.17174-0.33932-0.33384v-0.55017h-0.12215v-0.12939h0.12215v-0.28774z" stroke-width="1.7723px"/><g stroke-width="1.7724px"><path d="m98.139 415.97h0.1665v1.408h-0.1665z"/><path d="m97.889 416.33c-0.42983-0.32111-0.89676-0.13399-0.89676 0.38012 0 0.64669 0.56829 0.65295 0.89676 0.37923v0.19093c-0.57506 0.33202-1.0895 7e-3 -1.0895-0.57011 0.0244-0.79254 0.70961-0.80302 1.0895-0.57279z"/><path d="m101.47 416.52c-0.4262-0.15633-0.4262 0.32322-0.4262 0.32322v0.53389h-0.1674v-1.0135h0.1674v0.15739c0.1171-0.21983 0.37912-0.1783 0.42527-0.17121z"/></g><path d="m98.734 416.91c0.0423 0.48535 0.47118 0.35674 0.72661 0.25781v0.15738c-0.60536 0.20748-0.89638-0.0404-0.90038-0.44513 0.0346-0.78209 1.0234-0.65776 0.93931 0.03zm0.59904-0.13044c0-0.46355-0.59406-0.33144-0.59362 7.7e-4z" stroke-width="1.7723px"/><path d="m99.859 417.08c2e-3 0.28293 0.52302 0.30598 0.52304-0.20357-0.38272 0-0.52304 0.0202-0.52304 0.20357zm0.68952 0.30598h-0.1665v-0.15384c-0.19925 0.32024-0.69452 0.17653-0.69452-0.12743 0-0.30724 0.16174-0.36968 0.69451-0.35852 0-0.39379-0.50984-0.23743-0.61532-0.17333v-0.15385c0.5648-0.18401 0.78182 0.0429 0.78182 0.38909 1e-5 0.85929 2e-5 -0.28141 2e-5 0.57788z" stroke-width="1.7723px"/></g><ellipse cx="57.962" cy="394.08" rx="1.354" ry="1.3531"/><rect x="61.263" y="382.2" width="5.8828" height="3.5297" rx=".15818" ry=".077182"/><g transform="translate(-36.216 -15.29)" fill="#0f0"><path d="m99.354 399.92h-0.84851l-0.1339 0.38339h-0.54548l0.77944-2.1044h0.64696l0.77944 2.1044h-0.54547zm-0.7132-0.39042h0.57648l-0.28754-0.83723z"/><path d="m101.53 399.18c-0.52344-0.31309-0.86824-0.0484-0.86824 0.32974 0 0.54308 0.54356 0.56605 0.86824 0.3283v0.41298c-0.7746 0.25271-1.3939-0.0629-1.3939-0.74139 0-0.77767 0.80614-0.96854 1.3939-0.7414z"/><path d="m102.49 398.27v0.44822h0.5201v0.36084h-0.5201v0.66949c0 0.18784 0.0985 0.1875 0.21706 0.1875h0.25934v0.36083h-0.43271c-0.52435 0-0.5483-0.30152-0.5483-0.54833v-0.66949h-0.25088v-0.36084h0.25088v-0.44822z"/></g><rect x="61.415" y="386.4" width="5.8828" height="3.5297" rx=".15818" ry=".077182"/><g transform="translate(-36.216 -15.29)" fill="#b3b3b3"><path d="m97.941 402.39h1.4644v0.41016h-0.9218v0.39182h0.86683v0.41017h-0.86683v0.89221h-0.54265z"/><path d="m102.03 403.69-0.56944-0.77099h0.53419l0.32277 0.46794 0.327-0.46794h0.53419l-0.56942 0.76817 0.59762 0.81046h-0.53419l-0.35519-0.49896-0.35096 0.49896h-0.53419z"/><path d="m100.13 402.8v1.284c0.66458 0.0564 0.8781-0.23876 0.8781-0.64423 0-0.57837-0.36993-0.6398-0.8781-0.6398zm-0.54264-0.41016h0.57224c0.95459-0.0305 1.4081 0.32913 1.4081 1.0501 0 0.89771-0.66683 1.0543-1.4081 1.0543h-0.57224z"/></g><rect x="61.425" y="390.84" width="5.8828" height="3.5297" rx=".15818" ry=".077182"/><g transform="translate(-36.216 -15.29)" fill="#b3b3b3"><path d="m99.552 407.11c-0.50189-0.2284-1.0303-0.22003-1.0303 0.0633 0 0.35506 1.1685 0.0558 1.1685 0.88245-3e-3 0.87493-1.0059 0.74934-1.6421 0.53695v-0.45807c0.54662 0.3219 1.1559 0.25346 1.1191-0.0124 0-0.43062-1.1374-0.0861-1.1374-0.90911 0.0339-0.73936 0.74957-0.73093 1.5222-0.54831z"/><path d="m100.32 408.47v0.82878h-0.50458v-2.179h0.50458v0.23116c0.52643-0.59929 1.1896-0.12424 1.1896 0.5595 0 0.88884-0.83372 1.0405-1.1896 0.55953zm0-0.55957c0 0.70313 0.66809 0.57423 0.66809 0 0-0.66323-0.66809-0.55953-0.66809 0z"/><path d="m102.79 406.51h0.50741v2.1932h-0.50741v-0.22835c-0.47349 0.58913-1.1868 0.16164-1.1868-0.55953 0-0.85538 0.8202-1.0568 1.1868-0.5595zm0 1.4053c0-0.73749-0.66388-0.46876-0.66388 0 0 0.76118 0.66388 0.47265 0.66388 0z"/></g><path d="m61.162 398.73h-3.2195v-2.9116" fill="none" stroke="#fff" stroke-width=".28239"/><path d="m61.162 382.87h-3.2299v1.5696" fill="none" stroke="#fff" stroke-width=".2616"/><g transform="translate(-36.216 -15.29)" fill="#fff"><path d="m92.753 400.81h0.13849v0.90709h0.49844v0.11657h-0.63695z"/><path d="m93.521 400.81h0.64722v0.11657h-0.50873v0.30304h0.48747v0.11656h-0.48747v0.37092h0.52107v0.11657h-0.65956z"/><path d="m92.753 401.91h0.20638l0.26122 0.6966 0.26259-0.6966h0.20638v1.0236h-0.13507v-0.89886l-0.26396 0.70209h-0.13918l-0.26396-0.70209v0.89886h-0.13438z"/><path d="m94.534 400.92v0.79601h0.1673c0.31573 0 0.40863-0.16871 0.40863-0.39905 0-0.36377-0.22891-0.39702-0.40863-0.39702zm-0.13849-0.11375h0.28453c0.65328 0 0.57592 0.51079 0.57592 0.51079 0 0.50079-0.43588 0.51282-0.57592 0.51282h-0.28453z"/><path d="m94.244 402.26c-0.1948 0-0.2194 0.17687-0.2194 0.29615 0 0.11925 0.0079 0.29617 0.2194 0.29617 0.21154 0 0.21872-0.17057 0.21872-0.29616 0-0.12556-0.02392-0.29616-0.21872-0.29616zm0-0.10703c0.30658 0 0.35544 0.29214 0.35242 0.40322 0 0.29655-0.19006 0.40322-0.35242 0.40322-0.30378 0-0.35242-0.24089-0.35242-0.40322 0-0.40983 0.35242-0.40322 0.35242-0.40322z"/><path d="m95.295 401.87h0.12615v1.0668h-0.12615v-0.11522c-0.26982 0.3092-0.56015 0.0227-0.56015-0.26804 0-0.56479 0.5445-0.41903 0.56015-0.26805zm-0.23221 0.97432c0.13437-1e-3 0.24053-0.11939 0.23224-0.29075-0.0083-0.17138-0.10421-0.2941-0.21494-0.29756-0.13872-4e-3 -0.21494 0.0984-0.21496 0.2976-1.3e-5 0.19915 0.06328 0.29193 0.19766 0.29071z"/><path d="m95.745 402.6c0 0.21536 0.17891 0.27085 0.27425 0.26666 0.09534-4e-3 0.18285-0.0217 0.27631-0.0713v0.11925c-0.09 0.0517-0.20196 0.059-0.28385 0.059-0.34507-8e-3 -0.39836-0.24735-0.39836-0.39636 0-0.38588 0.28907-0.41 0.3764-0.41 0.29722 0 0.34311 0.25383 0.3353 0.4328zm0.45388-0.0988c0-0.16813-0.11185-0.227-0.20774-0.227-0.1791 0-0.24203 0.11616-0.24203 0.22761z"/></g><rect x="49.258" y="395.16" width="5.8828" height="3.5297" rx=".15818" ry=".077182"/><g transform="translate(-36.216 -15.29)" fill="#fff"><path d="m86.481 400.04c-0.42084-0.19322-0.69401-0.0837-0.68589 0.12388-0.0058 0.37581 0.76977 0.0565 0.76733 0.63178 0 0.46043-0.5268 0.46276-0.94559 0.31312v-0.18822c0.44484 0.23701 0.75466 0.11112 0.75466-0.11113 0-0.41857-0.7601-0.0828-0.7601-0.6308 0.02109-0.468 0.51718-0.40939 0.86957-0.31618z"/><path d="m86.986 400.15h0.34294v0.12938h-0.34292v0.55017c0 0.17227 0.03913 0.1946 0.17192 0.1946h0.17103v0.1393h-0.17103c-0.32811 0-0.32843-0.17174-0.33931-0.33383v-0.55017h-0.12215v-0.12938h0.12215v-0.28773h0.1674z"/><path d="m87.633 400.85c0.0027 0.28291 0.52301 0.30597 0.52303-0.20357-0.38272 0-0.52303 0.0202-0.52303 0.20357zm0.6895 0.30597h-0.16649v-0.15384c-0.19924 0.32024-0.6945 0.17653-0.6945-0.12743 0-0.30723 0.16174-0.36967 0.69448-0.3585 0-0.39379-0.50984-0.23744-0.61531-0.17334v-0.15383c0.5648-0.18402 0.78181 0.0429 0.78182 0.21581z"/><path d="m89.339 400.15h0.16649v0.60718c0 0.40205 0.51576 0.40622 0.51576-0.0326v-0.5746h0.16649v1.0134h-0.16649v-0.15561c-0.213 0.30868-0.68227 0.22631-0.68227-0.24441z"/><path d="m91.161 400.34c-0.45981-0.17529-0.55197 0.0234-0.55197 0.0757 0 0.2366 0.60626 0.0774 0.60626 0.47046 0 0.35319-0.42089 0.33777-0.77456 0.243v-0.17191c0.28797 0.16624 0.60355 0.10651 0.60355-0.058 0-0.27462-0.59632-0.0544-0.59632-0.47296 0-0.39312 0.50515-0.29504 0.71304-0.24364z"/><path d="m88.822 399.87v0.28774h0.34296v0.12938h-0.34296v0.55018c0 0.17227 0.03915 0.1946 0.17192 0.1946h0.17104v0.13931h-0.17104c-0.32812 0-0.32843-0.17174-0.33932-0.33384v-0.55017h-0.12215v-0.12939h0.12215v-0.28774z"/></g><rect x="49.258" y="390.9" width="5.8832" height="3.5145" rx=".15819" ry=".076848" stroke-width="1.7685"/><rect x="61.267" y="395.2" width="5.8831" height="3.5144" rx=".15818" ry=".076847" stroke-width="1.7685"/><g transform="translate(-36.216 -15.29)" fill="#b3b3b3"><path d="m101.73 411.16h1.4979v0.41768h-0.94285v0.39901h0.88663v0.41768h-0.88663v0.4909h0.97458v0.41766h-1.5296z"/><path d="m97.593 411.16h0.92123c0.57959-6.2e-4 0.85057 0.27576 0.85057 0.69901 0 0.42326-0.26026 0.70043-0.85057 0.70043h-0.36618v0.74349h-0.55505zm0.55505 0.40046v0.59853h0.30707c0.15599 0 0.33735-0.057 0.33735-0.29992 0-0.24301-0.1926-0.29852-0.33735-0.29852z"/><path d="m100.47 412.02c-0.2302 0-0.35177 0.17204-0.35177 0.4766 0 0.30448 0.11579 0.47646 0.35177 0.47646s0.34744-0.16993 0.34744-0.47646c0-0.30644-0.11724-0.4766-0.34744-0.4766zm0-0.36745c0.58631 0 0.88517 0.32624 0.88517 0.84396 0 0.51771-0.29847 0.84397-0.88517 0.84397s-0.8895-0.32049-0.8895-0.84397c0-0.52349 0.30319-0.84396 0.8895-0.84396z"/></g><path d="m57.94 389.42v2.1799" fill="none" stroke="#fff" stroke-width=".27729"/><g transform="translate(-36.216 -15.29)" fill="#b3b3b3"><path d="m85.722 406.85h1.4978v0.42014h-0.94279v0.40137h0.88658v0.42014h-0.88658v0.91391h-0.55501z"/><path d="m88.506 408.29c-1.3642-0.10401-0.04624 1.026 0 0zm0.52042-0.19466v0.92257h-0.52042v-0.23966c-0.38766 0.51237-1.1129 0.2725-1.1129-0.24539 0-0.61041 0.64172-0.54314 1.1129-0.55002 0.02712-0.418-0.6537-0.29176-0.97163-0.14449v-0.39414c0.866-0.18959 1.4958-0.12513 1.492 0.65113z"/><path d="m91.104 408.02v0.98466h-0.51896v-0.75366c0.05303-0.56616-0.24077-0.5123-0.24218-0.51259-0.30087 0-0.35439 0.36883-0.34599 0.47073v0.79552h-0.51609v-1.617h0.51609v0.23677c0.19302-0.21125 0.3311-0.27571 0.5377-0.27571 0.59337-0.0225 0.56944 0.5792 0.56944 0.6713z"/></g><rect x="49.259" y="386.43" width="5.8832" height="3.5145" rx=".15819" ry=".076848" stroke-width="1.7685"/><g transform="translate(-36.216 -15.29)" fill="#0f0"><path d="m89.654 402.43h1.4237v0.39876h-0.89617v0.38094h0.84273v0.39876h-0.84273v0.46865h0.92633v0.39874h-1.4539z"/><path d="m85.725 402.43h0.87562c0.5509-5.9e-4 0.80847 0.26326 0.80847 0.66735 0 0.40408-0.24738 0.66869-0.80847 0.66869h-0.34805v0.70981h-0.52757zm0.52757 0.38232v0.57142h0.29187c0.14827 0 0.32066-0.0544 0.32066-0.28634 0-0.232-0.18307-0.285-0.32066-0.285z"/><path d="m88.461 403.26c-0.2188 0-0.33436 0.16425-0.33436 0.45501 0 0.29068 0.11006 0.45487 0.33436 0.45487s0.33024-0.16223 0.33024-0.45487c0-0.29256-0.11144-0.45501-0.33024-0.45501zm0-0.3508c0.55728 0 0.84135 0.31146 0.84135 0.80572s-0.2837 0.80574-0.84135 0.80574-0.84546-0.30597-0.84546-0.80574 0.28818-0.80572 0.84546-0.80572z"/></g><g transform="translate(-36.216 -15.29)" fill="#b3b3b3"><path d="m85.682 411.31h1.6379v0.3464h-0.58922v1.4308h-0.45828v-1.4308h-0.59041z"/><path d="m89.86 411.78v0.32378c-0.39374-0.16553-0.757-0.1471-0.74396 9e-3 0.01932 0.25112 0.85005-0.0197 0.83325 0.56516-0.01489 0.54469-0.68037 0.45617-1.1892 0.34412v-0.32376c0.33695 0.16287 0.79302 0.16748 0.78446-0.0124 0.0019-0.21925-0.78446 0.0124-0.80468-0.56222 0.02758-0.54008 0.63353-0.43097 1.1201-0.34278z"/><path d="m87.524 412.53c0.09081 0.4844 0.61196 0.27747 0.93324 0.13912v0.32853c-0.80594 0.263-1.3663 0.0571-1.3677-0.58438 0.0237-1.0264 1.5655-0.88416 1.4308 0.11662zm0.55827-0.26301c-0.04668-0.44271-0.57956-0.26957-0.55351-4e-5z"/><path d="m90.71 411.38v0.37853h0.43925v0.30473h-0.43925v0.56542c0 0.15702 0.05549 0.1494 0.18331 0.15826h0.21902v0.30473h-0.36543c-0.44166 0-0.46305-0.24261-0.46305-0.46305v-0.56541h-0.21188v-0.30473h0.21188v-0.37853z"/></g></g><g transform="translate(-2.1974 -11.714)"><path d="m123.68 424.46c0.6005 0 0.87402 0.2704 0.87402 0.56389v1.2371c0 0.43207-1.3157 1.0298-2.2888 1.0298h-4.6371c-0.31518 0-2.0028-0.60234-2.0028-1.0625v-1.2366c0-0.36682 0.57454-0.53963 0.89861-0.53171z" fill="#e6e6e6"/><path d="m123.37 424.65c0.70034-0.0235 0.77491 0.24709 0.77491 0.51695v1.1248c0 0.28222-1.0963 0.80728-1.9568 0.80728h-4.3449c-0.30819 0-1.7691-0.57231-1.8046-0.83564v-1.1249c0-0.32517 0.46752-0.49559 0.6095-0.49204z" fill="#1d1d1d" stroke-width="1.8802"/><path d="m118.12 425.35c-0.26656 0-0.45733 0.11228-0.45733 0.24071v0.59047c0.26309 0.29347 0.68364 0.45864 1.1043 0.45864h2.496c0.52585 0.0226 1.2164-0.26879 1.2333-0.42666v-0.60696c0-0.14761-1e-3 -0.25622-0.43196-0.25622z" fill="#404040" stroke-width="1.8802"/><path d="m118.19 425.67v0.4414h0.35547v-0.4414zm0.84375 0v0.4414h0.35547v-0.4414zm0.89453 0v0.4414h0.35547v-0.4414zm0.89648 0v0.4414h0.35352v-0.4414zm0.86914 0v0.4414h0.35352v-0.4414z" fill="#070707"/></g><g transform="translate(28.774 22.762)" fill="#fff"><path d="m91.412 393.81h0.17688v1.4958h-0.17688z"/><path d="m87.222 394.34c-0.21106 0-0.30763 0.2114-0.30763 0.41524 0 0.20385 0.0922 0.41529 0.30763 0.41529s0.30668-0.1802 0.30668-0.41527c0-0.23501-0.0956-0.41526-0.30668-0.41526zm0-0.15007c0.33319 0 0.49414 0.24354 0.49414 0.56537s-0.17204 0.56518-0.49414 0.56518c-0.32209 0-0.49412-0.24679-0.49412-0.56518s0.16094-0.56537 0.49412-0.56537z"/><path d="m88.882 395.29h-0.17688v-0.6441c0-0.46729-0.54701-0.35373-0.54701 0.0356v0.60853h-0.17785v-1.0767h0.17785v0.16721c0.20351-0.30106 0.73169-0.26143 0.72387 0.25968z"/><path d="m89.902 394.42c-0.32694-0.12428-0.58642-0.0842-0.58642 0.0845 0 0.25772 0.64409 0.0606 0.64409 0.49568 0 0.36194-0.43121 0.35609-0.8229 0.25817v-0.18264c0.26697 0.15647 0.64122 0.13105 0.64122-0.0614 0-0.27363-0.63353-0.052-0.63353-0.50249 0-0.35082 0.42859-0.35983 0.75754-0.25886z"/><path d="m92.852 394.72v0.0866h-0.81329c0.0684 0.54594 0.56045 0.37237 0.77195 0.27389v0.16721c-0.63538 0.22102-0.95656-0.0469-0.95656-0.4729 0-0.31837 0.19519-0.57488 0.52777-0.57488 0.40181 0 0.47013 0.37281 0.47013 0.52008zm-0.17688-0.052c0-0.26348-0.1695-0.31831-0.29129-0.31831s-0.33936 0.0557-0.33936 0.31914z"/><path d="m90.642 394.35c-0.21107 0-0.30764 0.2114-0.30764 0.41525 0 0.20386 0.0923 0.41529 0.30764 0.41529 0.21542 0 0.30668-0.1802 0.30668-0.41527 0-0.235-0.0956-0.41527-0.30668-0.41527zm0-0.15007c0.33319 0 0.49414 0.24355 0.49414 0.56538 0 0.32184-0.17205 0.56519-0.49414 0.56519-0.3221 0-0.49412-0.2468-0.49412-0.56519s0.16093-0.56538 0.49412-0.56538z"/><path d="m86.532 393.98v0.20475c-0.54974-0.43119-0.95269-0.0557-0.95269 0.40384 0 0.64549 0.55524 0.72594 0.95269 0.40289v0.20285c-0.59708 0.34473-1.1575 0.0151-1.1575-0.60569 0-0.79995 0.71506-0.86365 1.1575-0.60864z"/></g><g transform="translate(-30.085 .0051)"><rect x="119.09" y="378.5" width="19.624" height="11.471" rx=".41328" ry=".54455" fill="none" stroke="#fff" stroke-width=".18255"/><path d="m132.16 385.87h5.6202l1e-3 3.4131-5.6215 5.9e-4z" fill="#ff0" stroke="#ff0" stroke-linejoin="round" stroke-width=".92925"/><path d="m135.85 388.68v0.78058l2.2167-1.9004-2.2167-1.8667v0.78058h-1.842l2.0463 0.78057v-0.30548l1.0236 0.61097-1.0236 0.61097v-0.27176c-0.0118-0.0207-2.0463 0.78058-2.0463 0.78058z"/><path d="m133.64 387.13h0.62032v0.17298h-0.39047v0.16524h0.36719v0.17298h-0.36719v0.20328h0.4036v0.17298h-0.63346z"/><path d="m134.94 387.25v0.31148h0.31166v0.14028h-0.31166v0.31148h-0.14209v-0.31148h-0.31166v-0.14028h0.31166v-0.31148z"/><path d="m131.93 387.13h0.38152c0.3274 0 0.35226 0.17916 0.35226 0.28948 0 0.28874-0.24923 0.29007-0.35226 0.29007h-0.15165v0.30791h-0.22986zm0.22986 0.16584v0.24787h0.12718c0.10498 0 0.13971-0.0688 0.13971-0.12423 0-0.11479-0.13971-0.12364-0.13971-0.12364z"/><path d="m133.12 387.48c-0.12124 0-0.14568 0.0894-0.14568 0.19734 0 0.10796 0.0367 0.19734 0.14568 0.19734 0.10901 0 0.14389-0.10611 0.14389-0.19734 0-0.0912-0.0226-0.19734-0.14389-0.19734zm0-0.15217c0.19435 0 0.36659 0.12077 0.36659 0.34952s-0.1757 0.34952-0.36659 0.34952-0.36839-0.1042-0.36839-0.34952 0.17404-0.34952 0.36839-0.34952z"/><g fill="#fff"><path d="m128.88 381.01h1.0089v0.42313h-1.0089z" stroke-width="1.3355"/><path d="m120.5 381.67h1.0555v0.41149h-1.7431v-0.41149l0.87554-0.6994c0.20299-0.11715 0.22971-0.30509 0.22971-0.37805 0-0.44104-0.58883-0.41076-1.0988-0.11625v-0.47693c0.78355-0.22869 1.7206-0.19574 1.7206 0.52202 0 0.36342-0.318 0.54504-0.52692 0.74155z"/><path d="m122.19 379.92h1.5374v0.41149h-1.0442v0.33588c0.65166-0.13895 1.2177 0.12805 1.2177 0.7154 0 0.84093-1.096 0.86817-1.8057 0.60633v-0.44058c0.5996 0.32511 1.1872 0.25386 1.1872-0.16567 0-0.4463-0.59825-0.43454-1.0924-0.24136z"/><g stroke-width="1.3355"><path d="m127.93 381c0-0.3777-0.0339-0.74009-0.36788-0.74009-0.33397 0-0.36949 0.3374-0.36949 0.74009 0 0.4027 0.0261 0.73586 0.36949 0.74884 0.34335 0.013 0.36788-0.37113 0.36788-0.74884zm0.61849 4e-3c0 0.65022-0.28257 1.1254-0.98638 1.1254s-0.98798-0.46825-0.98798-1.1254c0-0.65718 0.29822-1.1269 0.98798-1.1269s0.98638 0.47666 0.98638 1.1269z"/><path d="m131.24 381.11c-0.18449 0-0.35986 0.10215-0.35986 0.33149 0 0.22932 0.16921 0.33009 0.35986 0.33009 0.19064 0 0.35502-0.0865 0.35502-0.33009 0-0.24362-0.17054-0.33149-0.35502-0.33149zm-0.45143-0.18467c-0.12631-0.0338-0.4423-0.11854-0.44017-0.49147 2e-3 -0.37294 0.33118-0.56271 0.8916-0.56271 0.5604 0 0.88838 0.19937 0.88838 0.56271 0 0.36335-0.29682 0.44489-0.44179 0.49147 0.1044 0.0354 0.48151 0.092 0.49319 0.54527 0.0117 0.45325-0.39985 0.65286-0.93978 0.65286-0.53994 0-0.94462-0.18673-0.94462-0.65286 0-0.46614 0.44248-0.51599 0.49319-0.54527zm0.14459-0.43476c0 0.19835 0.15302 0.26896 0.30684 0.26896 0.15381 0 0.30202-0.0725 0.30202-0.26896 0-0.19641-0.13214-0.2675-0.30202-0.2675-0.16989 0-0.30684 0.0691-0.30684 0.2675z"/><path d="m125.66 380.91c0.38421 0.0691 0.4948 0.34197 0.4948 0.554 0 0.75697-1.0764 0.71357-1.8072 0.55119v-0.43186c0.52688 0.25498 1.1888 0.21275 1.1888-0.1397 0-0.2988-0.34901-0.29844-0.77754-0.30105v-0.3606c0.57127 0 0.7213-0.0593 0.7213-0.26754 0-0.35626-0.67866-0.29367-1.0298-0.14118v-0.41003c0.24038-0.0751 0.48624-0.0709 0.71649-0.093 0.64738 0 0.93176 0.20053 0.93176 0.55689s-0.26933 0.43134-0.43861 0.48288z"/></g><g transform="translate(33.723 .19366)" stroke-width="1.6268"><path d="m88.62 382.58h0.90358v0.23322h-0.56877v0.22281h0.53485v0.23321h-0.53485v0.2741h0.58791v0.23321h-0.92273z"/><path d="m90.523 382.75v0.41996h0.45398v0.18914h-0.45398v0.41995h-0.20698v-0.41995h-0.45398v-0.18914h0.45398v-0.41996z"/><path d="m86.09 382.58h0.55573c0.38982 0 0.51311 0.2148 0.51311 0.39033s-0.081 0.39117-0.51311 0.39117h-0.22091v0.41515h-0.33484zm0.33484 0.22359v0.33421h0.18524c0.15404 0 0.20352-0.0865 0.20352-0.16741 0-0.15023-0.13289-0.16662-0.20352-0.16662z"/><path d="m87.845 383.06c-0.1235 0-0.2122 0.0815-0.2122 0.26603 0 0.18455 0.08102 0.26604 0.2122 0.26604 0.13116 0 0.20959-0.0776 0.20959-0.26604 0-0.18849-0.08609-0.26603-0.20959-0.26603zm0-0.20516c0.36479 0 0.53399 0.20306 0.53399 0.47131 0 0.26826-0.1811 0.47132-0.53399 0.47132s-0.5366-0.19208-0.5366-0.47132c0-0.27923 0.17181-0.47131 0.5366-0.47131z"/></g><g transform="translate(33.723 .19366)" stroke-width="1.0649"><path d="m93.082 382.89h0.28962l0.15646 0.59466 0.15728-0.59466h0.24884l0.15646 0.58849 0.15728-0.58849h0.28962l-0.2455 0.86273h-0.32539l-0.15728-0.59314-0.15646 0.59314h-0.32539z"/><path d="m94.739 382.89h0.29794v0.86273h-0.29794zm0-0.33586h0.29794v0.22493h-0.29794z"/><path d="m92.815 382.88c-0.36873-0.14386-0.60836-0.10048-0.60836 0.0346 0 0.21378 0.68992 0.0396 0.68992 0.48229 0 0.48691-0.59419 0.39395-0.96956 0.29337v-0.25034c0.33297 0.19225 0.68002 0.12942 0.66078-6e-3 0-0.24059-0.67162-0.0361-0.67162-0.49682 0-0.42795 0.57172-0.38718 0.8988-0.29954z"/><path d="m95.651 382.65v0.24496h0.3071v0.1972h-0.3071v0.36588c0 0.11423 0.08619 0.10241 0.12817 0.10241h0.15313v0.19721h-0.2555c-0.35081 0-0.32374-0.20803-0.32374-0.29971v-0.36588h-0.14814v-0.1972h0.14814v-0.24496z"/><path d="m96.894 383.14c-0.31882-0.18407-0.51265-9e-3 -0.51265 0.18023 0 0.35228 0.36355 0.26857 0.51265 0.17947v0.2257c-0.43247 0.13671-0.82305-0.0179-0.82305-0.4046 0-0.46934 0.4824-0.49587 0.82305-0.40459z"/><path d="m98.09 383.75h-0.2996s3e-3 -0.26711 0-0.40062c5e-3 -0.44468-0.33955-0.27703-0.33955-0.0239v0.42444h-0.29794v-1.1986h0.29794v0.46218c0.26142-0.27412 0.63914-0.15078 0.63914 0.21102z"/></g></g></g><g fill="#fff"><path d="m159.02 382.49h0.57044v-1.4977l-0.58555 0.11174v-0.40664l0.58218-0.11174h0.61408v1.9044h0.57044v0.41284h-1.7516z"/><path d="m168.64 415.22h1.0987v0.44065h-1.8144v-0.44065l0.9114-0.74898c0.67208-0.67649-0.20858-1.0249-0.90453-0.52927v-0.51072c0.87434-0.26632 1.791-0.16132 1.791 0.55902-0.0194 0.39057-0.27317 0.56141-0.54851 0.79412z"/><path d="m181.86 413.85-0.69846 0.98427h0.69846zm-0.10604-0.49923h0.70839v1.4835h0.35255v0.43938h-0.35255v0.42837h-0.60246v-0.42837h-1.0957v-0.5197z"/><path d="m187.25 380.54h1.583v0.44029h-1.0752v0.35939c0.76225-0.13724 1.2538 0.18063 1.2538 0.76549 0 0.87279-1.0647 0.92282-1.8592 0.64886v-0.47141c0.66048 0.38878 1.2224 0.21563 1.2224-0.17736 0-0.47051-0.5925-0.47647-1.1248-0.25834z"/><path d="m201.69 380.58h1.8955v0.33699l-0.98062 1.9816h-0.63185l0.9284-1.8791h-1.2115z"/><path d="m211.27 414.63c-0.23504 0-0.37844 0.12412-0.37844 0.35415 0 0.2301 0.17072 0.35249 0.37844 0.35249 0.20771 0 0.37328-0.10365 0.37328-0.35249 0-0.24882-0.13818-0.35415-0.37328-0.35415zm-0.47473-0.19722c-0.41897-0.10998-0.46287-0.38925-0.46287-0.52489 0-0.49921 0.49456-0.60092 0.93766-0.60092 0.68803 0 0.93428 0.2628 0.93428 0.60092 0 0.34435-0.29471 0.47967-0.46462 0.52489 0.40341 0.10745 0.51857 0.35296 0.51857 0.58235 0 0.57601-0.49659 0.69719-0.98835 0.69719-0.69727 0.0145-0.9934-0.26779-0.9934-0.69719 0-0.42356 0.37226-0.54335 0.51869-0.58235zm0.15198-0.46434c0 0.21646 0.16244 0.28724 0.3227 0.28724 0.16028 0 0.31764-0.0649 0.31764-0.28724 0-0.22227-0.15474-0.28566-0.31764-0.28566-0.16283 0-0.3227 0.0692-0.3227 0.28566z"/><path d="m173.73 381.62c0.38662 0.10336 0.51581 0.34599 0.51581 0.58911 0 0.80926-1.1898 0.77182-1.8841 0.58615v-0.45925c0.60788 0.27696 1.2394 0.223 1.2394-0.14848 0.0157-0.34236-0.55269-0.32006-0.55269-0.32006h-0.2579v-0.38346h0.27131c0.14637 0 0.48075-5e-3 0.48075-0.28458 0-0.40106-0.76758-0.2827-1.0734-0.1501v-0.43604c0.82218-0.21988 1.7183-0.12215 1.7183 0.49339 0 0.35557-0.25306 0.45854-0.45748 0.51332z"/><path d="m195.17 414.54c0 0.66792 0.31197 1.1699 1.0312 1.1699 0.39994 0 0.97352-0.16221 0.97852-0.82031 0-0.60496-0.6981-0.99705-1.3887-0.60156 0-0.45581 0.38951-0.76648 1.2226-0.45117v-0.4297c-1.1218-0.3006-1.8436 0.14901-1.8436 1.1328zm1.039-0.0195c0.27204 0 0.34375 0.19796 0.34375 0.40822 0 0.21024-0.0798 0.40625-0.34375 0.40625-0.26397 0-0.3418-0.16458-0.3418-0.40625 0-0.24169 0.0697-0.40822 0.3418-0.40822z"/></g><g transform="translate(32.943 -42.631)"><rect x="264.96" y="443.23" width="14.443" height="10.318"/><path d="m269.1 453v-0.52812h6.725v0.52812h3.0438v-9.2094h-13.372v9.2094z" fill="none" stroke="#ccc" stroke-width=".3"/></g><g transform="translate(29.448 -42.631)"><rect x="247.25" y="443.23" width="14.443" height="10.318"/><path d="m251.39 453v-0.52812h6.725v0.52812h3.0438v-9.2094h-13.372v9.2094z" fill="none" stroke="#ccc" stroke-width=".3"/></g><path d="m235.79 410.9h15.828v-13.125h-15.828z" fill="#3a3a3a" stroke="#000" stroke-width=".5"/><path d="m236.95 399.15v1.4141h3.291v-1.4141zm10.211 8e-3v1.4062h3.2617v-1.4062z" fill="#abb927"/><path d="m237.25 401.09h3.3035l-6e-3 -2.0016 1.2023-9.4e-4v-0.7494h3.8752l-9.1e-4 0.75138h1.2514v2.0016h3.2884v8.6175l-12.914 0.028z" fill="#1a1a1a"/><path d="m251.61 410.9 4e-3 -13.126-5.2866-2e-3v1.2624l4.2497-2e-3v1.6342l-0.41943 0.0131-1e-3 9.0326-12.915 0.0239-9.1e-4 -9.0566-0.41942-0.0131v-1.6342l4.2244 2e-3v-1.2624l-5.2617 2e-3 4e-3 13.124z" fill="#ebebeb"/><g transform="translate(6.6178 -5.4734)"><path d="m246.14 416.37h15.828v-13.125h-15.828z" fill="#3a3a3a" stroke="#000" stroke-width=".5"/><path d="m247.3 404.62v1.4141h3.291v-1.4141zm10.211 8e-3v1.4062h3.2617v-1.4062z" fill="#abb927"/><path d="m247.6 406.56h3.3035l-6e-3 -2.0016 1.2023-9.4e-4v-0.7494h3.8752l-9.1e-4 0.75138h1.2514v2.0016h3.2884v8.6175l-12.914 0.028z" fill="#1a1a1a"/><path d="m261.96 416.37 4e-3 -13.126-5.2866-2e-3v1.2624l4.2497-2e-3v1.6342l-0.41943 0.0131-1e-3 9.0326-12.915 0.0239-9.1e-4 -9.0566-0.41942-0.0131v-1.6342l4.2244 2e-3v-1.2624l-5.2617 2e-3 4e-3 13.124z" fill="#ebebeb"/></g></svg>
