<svg width="442" height="44.5" version="1.1" viewBox="70.4 401.06667 442 44.5" xmlns="http://www.w3.org/2000/svg"><g transform="matrix(2.1415 0 0 1.9866 -71.77 -346.67)"><rect x="66.589" y="376.59" width="206" height="22" fill="#4d4d4d"/><rect x="66.589" y="376.59" width="206" height="22" fill="none" stroke="#000" stroke-width=".4"/></g><rect x="92.245" y="402.28" width="418.87" height="42.117" rx="1.2849" ry="1.192" fill="#e7e7e7" stroke-width="1.8808"/><rect x="92.245" y="402.28" width="418.87" height="42.117" rx="1.2849" ry="1.192" fill="none" stroke="#e7e7e7" stroke-linejoin="round" stroke-width=".41252"/><rect x="92.247" y="403" width="19.418" height="12.159" rx=".60545" ry=".79839" fill="#1e90ff" stroke-width="1.8808"/><g transform="matrix(2.8572 0 0 3.1261 -121.38 -797.63)"><polygon points="70.389 396.19 70.389 395.79 69.989 395.79 69.989 395.19 68.589 395.19 68.589 392.59 73.389 392.59 73.389 395.19 71.989 395.19 71.989 395.79 71.589 395.79 71.589 396.19"/><polygon points="70.389 396.19 70.389 395.79 69.989 395.79 69.989 395.19 68.589 395.19 68.589 392.59 73.389 392.59 73.389 395.19 71.989 395.19 71.989 395.79 71.589 395.79 71.589 396.19" fill="none" stroke="#7f7f7f" stroke-width=".2"/></g><g transform="matrix(1.7612 0 0 1.7652 -53.593 -298.26)"><rect transform="scale(1.0667)" x="70.371" y="379.34" width="6.1054" height="1.1333" rx=".31642" ry=".1544" fill="#00ff1f"/><rect transform="scale(1.0667)" x="70.371" y="381.39" width="6.1054" height="1.1333" rx=".31642" ry=".1544" fill="#838383"/><ellipse transform="scale(1.0667)" cx="73.401" cy="384.34" rx=".76392" ry=".76344" fill="#838383"/></g><path d="m91.569 444.78-0.0078-42.908" fill="none" stroke="#333" stroke-linejoin="round" stroke-width=".9989"/><g transform="matrix(1.9527 0 0 1.8115 -62.659 -299.02)" fill="#fff"><path d="m80.355 391.19v0.23759q-0.09248-0.0414-0.18045-0.0624-0.08797-0.0211-0.16616-0.0211-0.10376 0-0.15338 0.0286t-0.04962 0.0887q0 0.0451 0.03308 0.0707 0.03383 0.0248 0.1218 0.0429l0.12331 0.0248q0.18722 0.0376 0.26616 0.11428 0.07895 0.0767 0.07895 0.21805 0 0.18571-0.11052 0.27669-0.10977 0.0902-0.33609 0.0902-0.10677 0-0.21428-0.0203t-0.21504-0.0602v-0.24436q0.10752 0.0571 0.20752 0.0865 0.10075 0.0286 0.19398 0.0286 0.09474 0 0.14511-0.0316t0.05037-0.0902q0-0.0526-0.03459-0.0812-0.03383-0.0286-0.13609-0.0511l-0.11203-0.0248q-0.16842-0.0361-0.24661-0.11503-0.07744-0.079-0.07744-0.21278 0-0.16767 0.10827-0.2579 0.10827-0.0902 0.31128-0.0902 0.09248 0 0.19022 0.0143 0.09774 0.0135 0.20225 0.0414z"/><path d="m80.596 391.44h0.26165l0.14135 0.58044 0.1421-0.58044h0.22481l0.14135 0.57443 0.1421-0.57443h0.26165l-0.2218 0.8421h-0.29398l-0.1421-0.57895-0.14135 0.57895h-0.29398z"/><path d="m82.094 391.44h0.26917v0.8421h-0.26917zm0-0.32782h0.26917v0.21955h-0.26917z"/><path d="m82.917 391.2v0.2391h0.27744v0.19248h-0.27744v0.35714q0 0.0586 0.02331 0.0797 0.02331 0.0203 0.09248 0.0203h0.13834v0.19248h-0.23082q-0.1594 0-0.22631-0.0662-0.06617-0.0669-0.06617-0.22631v-0.35714h-0.13383v-0.19248h0.13383v-0.2391h0.26917z"/><path d="m84.041 391.46v0.21955q-0.05489-0.0376-0.11053-0.0556-0.05489-0.018-0.11428-0.018-0.11278 0-0.17594 0.0662-0.0624 0.0654-0.0624 0.18346 0 0.11804 0.0624 0.18421 0.06316 0.0654 0.17594 0.0654 0.06316 0 0.11955-0.0188 0.05714-0.0188 0.10526-0.0556v0.22029q-0.06316 0.0233-0.12857 0.0346-0.06466 0.012-0.13007 0.012-0.22782 0-0.35639-0.11654-0.12857-0.11729-0.12857-0.32556t0.12857-0.32481q0.12857-0.11729 0.35639-0.11729 0.06616 0 0.13007 0.012 0.06466 0.0113 0.12857 0.0346z"/><path d="m85.121 391.76v0.51278h-0.27067v-0.39102q0-0.11052-0.0053-0.15188-0.0045-0.0414-0.01654-0.0609-0.01579-0.0263-0.04286-0.0406-0.02707-0.015-0.06165-0.015-0.08421 0-0.13233 0.0654-0.04812 0.0647-0.04812 0.17969v0.41429h-0.26917v-1.1699h0.26917v0.45113q0.0609-0.0737 0.12932-0.10827 0.06842-0.0353 0.15113-0.0353 0.14586 0 0.22105 0.0895 0.07594 0.0895 0.07594 0.26015z"/></g><g transform="matrix(1.7612 0 0 1.7652 -53.593 -298.26)"><ellipse transform="scale(1.0667)" cx="79.778" cy="387.09" rx=".76392" ry=".76344"/><circle transform="scale(1.0667)" cx="79.452" cy="391.9" r=".34144"/><circle transform="scale(1.0667)" cx="82.358" cy="391.95" r=".38838"/></g><g transform="matrix(1.8787 0 0 1.883 -76.126 -322.02)"><rect x="95.462" y="396.24" width="3.3193" height="1.9916" rx=".089249" ry=".043549"/><g fill="#0f0" stroke-width="1px"><path d="m96.52 397.61h-0.47876l-0.07555 0.21632h-0.30778l0.43979-1.1874h0.36504l0.43979 1.1874h-0.30778l-0.07476-0.21632zm-0.40241-0.22029h0.32527l-0.16224-0.4724z"/><path d="m97.75 396.96v0.23222q-0.05805-0.0398-0.11691-0.0589-0.05806-0.0191-0.12088-0.0191-0.11929 0-0.1861 0.07-0.06601 0.0692-0.06601 0.19405 0 0.12486 0.06601 0.19484 0.0668 0.0692 0.1861 0.0692 0.0668 0 0.12645-0.0199 0.06044-0.0199 0.11134-0.0589v0.23302q-0.0668 0.0247-0.13599 0.0366-0.0684 0.0127-0.13758 0.0127-0.24097 0-0.37696-0.12327-0.13599-0.12406-0.13599-0.34435 0-0.2203 0.13599-0.34357 0.13599-0.12406 0.37696-0.12406 0.06999 0 0.13758 0.0127 0.06839 0.0119 0.13599 0.0366z"/><path d="m98.292 396.68v0.2529h0.29346v0.2036h-0.29346v0.37775q0 0.062 0.02465 0.0843 0.02465 0.0215 0.09782 0.0215h0.14633v0.20359h-0.24415q-0.1686 0-0.23938-0.07-0.06999-0.0708-0.06999-0.23939v-0.37775h-0.14156v-0.2036h0.14156v-0.2529h0.28471z"/></g></g><g transform="matrix(1.8787 0 0 1.883 -68.453 -296.22)"><rect x="91.461" y="384.9" width="3.3193" height="1.9916" rx=".089249" ry=".043549"/><g fill="#666" stroke-width="1px"><path d="m91.636 385.3h0.8263v0.23143h-0.52012v0.22108h0.4891v0.23143h-0.4891v0.50342h-0.30618v-1.1874z"/><path d="m92.87 385.53v0.7245h0.10975q0.18769 0 0.2863-0.0931 0.09941-0.0931 0.09941-0.2704 0-0.17655-0.09861-0.2688-0.09862-0.0922-0.2871-0.0922zm-0.30618-0.23143h0.32288q0.2704 0 0.40241 0.039 0.13281 0.0382 0.22745 0.13042 0.08351 0.0803 0.12406 0.1853 0.04056 0.10498 0.04056 0.23779 0 0.13441-0.04056 0.24018-0.04056 0.10498-0.12406 0.1853-0.09543 0.0923-0.22904 0.13122-0.13361 0.0382-0.40082 0.0382h-0.32288v-1.1874z"/><path d="m93.942 386.03-0.3213-0.43502h0.30141l0.18212 0.26403 0.18451-0.26403h0.30141l-0.32129 0.43343 0.3372 0.45729h-0.30141l-0.20041-0.28153-0.19803 0.28153h-0.30141z"/></g></g><g transform="matrix(1.8787 0 0 1.883 -68.453 -296.22)"><rect x="91.467" y="387.41" width="3.3193" height="1.9916" rx=".089249" ry=".043549"/><g fill="#4d4d4d" stroke-width="1px"><path d="m92.545 387.71v0.25131q-0.09782-0.0437-0.19087-0.066t-0.17576-0.0223q-0.10975 0-0.16224 0.0302t-0.05249 0.0938q0 0.0477 0.03499 0.0748 0.03579 0.0262 0.12884 0.0453l0.13043 0.0263q0.19803 0.0398 0.28153 0.12088 0.08351 0.0811 0.08351 0.23063 0 0.19644-0.11691 0.29267-0.11611 0.0954-0.35549 0.0954-0.11293 0-0.22666-0.0215t-0.22745-0.0636v-0.25846q0.11372 0.0604 0.2195 0.0914 0.10657 0.0302 0.20518 0.0302 0.10021 0 0.15349-0.0334t0.05328-0.0954q0-0.0557-0.03658-0.0859-0.03579-0.0302-0.14395-0.0541l-0.1185-0.0262q-0.17814-0.0382-0.26085-0.12168-0.08191-0.0835-0.08191-0.22507 0-0.17735 0.11452-0.27278 0.11452-0.0954 0.32925-0.0954 0.09782 0 0.20121 0.0151 0.10339 0.0143 0.21393 0.0437z"/><path d="m92.979 388.73v0.46763h-0.28471v-1.2295h0.28471v0.13043q0.05885-0.0779 0.13043-0.11453 0.07158-0.0374 0.16462-0.0374 0.16462 0 0.2704 0.13122 0.10577 0.13042 0.10577 0.3364t-0.10577 0.3372q-0.10577 0.13043-0.2704 0.13043-0.09305 0-0.16462-0.0366-0.07158-0.0374-0.13043-0.11532zm0.18928-0.57658q-0.09146 0-0.14077 0.0676-0.04851 0.0668-0.04851 0.19325t0.04851 0.19405q0.04931 0.0668 0.14077 0.0668t0.13917-0.0668q0.04851-0.0668 0.04851-0.19405 0-0.12724-0.04851-0.19405-0.04772-0.0668-0.13917-0.0668z"/><path d="m94.282 388.1v-0.47718h0.2863v1.2375h-0.2863v-0.12884q-0.05885 0.0787-0.12963 0.11532-0.07078 0.0366-0.16383 0.0366-0.16462 0-0.2704-0.13043-0.10577-0.13122-0.10577-0.3372t0.10577-0.3364q0.10577-0.13122 0.2704-0.13122 0.09225 0 0.16303 0.0374 0.07157 0.0366 0.13043 0.11453zm-0.18769 0.57658q0.09146 0 0.13918-0.0668 0.04851-0.0668 0.04851-0.19405 0-0.12724-0.04851-0.19405-0.04772-0.0668-0.13918-0.0668-0.09066 0-0.13918 0.0668-0.04772 0.0668-0.04772 0.19405t0.04772 0.19405q0.04851 0.0668 0.13918 0.0668z"/></g></g><g transform="matrix(1.7612 0 0 1.7652 -53.593 -298.26)"><path transform="scale(1.0667)" d="m82.828 390.61h-3.0628v-1.6428" fill="none" stroke="#000" stroke-width=".15933"/><path transform="scale(1.0667)" d="m82.828 383.5h-3.0687v1.6491" fill="none" stroke="#000" stroke-width=".14759"/><rect transform="scale(1.0667)" x="68.136" y="372.58" width="7.6112" height="4.5534" rx=".16805" ry=".081999" fill="#e6e6e6" stroke="#333" stroke-linejoin="round" stroke-width=".2125"/></g><g transform="matrix(1.8787 0 0 1.883 -52.98 -299.11)"><path d="m71.657 377.52c-0.02159 0-0.04309-4.1e-4 -0.06454-7.9e-4l0.44389-1.2199h0.61088c0.10722 0 0.22493-0.0824 0.2616-0.18314l0.48159-1.3228c0.07878-0.21657-0.04526-0.39375-0.27571-0.39375h-0.84749l-0.71109 1.954h-2.03e-4l-0.40312 1.1077c-0.9564-0.22738-1.6678-1.0871-1.6678-2.1131 0-0.99637 0.67093-1.836 1.5856-2.0919l-0.41595 1.1433h-1.14e-4l-0.6915 1.8997 0.46033 4e-5 0.58807-1.6142h0.34596l-0.58807 1.6142 0.46016 8e-5 0.54802-1.506c0.07884-0.21657-0.04522-0.39375-0.27546-0.39375h-0.38696l0.44432-1.2212c0.03239-2e-3 0.0649-2e-3 0.09762-2e-3 1.1996 0 2.172 0.97244 2.172 2.172 0 1.1996-0.97245 2.172-2.172 2.172zm1.3142-2.8363h-0.34587l-0.48435 1.329h0.34588z"/></g><g transform="matrix(1.1797 0 0 1.9915 128.2 -397.52)" fill="#4d4d4d"><rect x="111.71" y="401.38" width="58.975" height="21.431" fill="#4d4d4d"/></g><g transform="matrix(1.8787 0 0 1.883 -53.593 -298.26)" fill="#fff" stroke-width="1px"><path d="m78.248 373.91h0.60626v0.26114h-1.0012v-0.26114l0.50291-0.44386q0.06736-0.0609 0.09966-0.11904 0.0323-0.0581 0.0323-0.12088 0-0.0969-0.06552-0.15595-0.06459-0.0591-0.17256-0.0591-0.08305 0-0.18179 0.036-0.09874 0.0351-0.21132 0.1052v-0.30268q0.11996-0.0397 0.23715-0.06 0.11719-0.0212 0.22977-0.0212 0.2473 0 0.38388 0.10889 0.13749 0.10889 0.13749 0.30359 0 0.11258-0.05814 0.2104-0.05813 0.0969-0.24454 0.26022l-0.29437 0.25838z"/><path d="m79.656 373.55q-0.09966 0-0.15318 0.0544t-0.05352 0.15595q0 0.10151 0.05352 0.15595 0.05352 0.0535 0.15318 0.0535 0.09874 0 0.15134-0.0535 0.0526-0.0544 0.0526-0.15595 0-0.10243-0.0526-0.15595-0.0526-0.0544-0.15134-0.0544zm-0.2593-0.1172q-0.1255-0.0378-0.18917-0.11627-0.06367-0.0784-0.06367-0.19562 0-0.17441 0.13011-0.26576 0.13011-0.0914 0.38203-0.0914 0.25007 0 0.38018 0.0914 0.13011 0.0904 0.13011 0.26576 0 0.11719-0.06459 0.19562-0.06367 0.0784-0.18917 0.11627 0.14026 0.0388 0.21132 0.12642 0.07198 0.0867 0.07198 0.21963 0 0.20485-0.13657 0.31005-0.13565 0.10427-0.40325 0.10427-0.26853 0-0.40602-0.10427-0.13657-0.1052-0.13657-0.31005 0-0.13288 0.07105-0.21963 0.07198-0.0877 0.21224-0.12642zm0.08305-0.27591q0 0.0821 0.04522 0.12642 0.04614 0.0443 0.13104 0.0443 0.08305 0 0.12827-0.0443t0.04522-0.12642q0-0.0821-0.04522-0.12549-0.04522-0.0443-0.12827-0.0443-0.0849 0-0.13104 0.0443-0.04522 0.0443-0.04522 0.12549z"/><path d="m80.515 373.92h0.31374v-0.89048l-0.32205 0.0664v-0.24176l0.3202-0.0664h0.33774v1.1322h0.31374v0.24546h-0.96338v-0.24546z"/><path d="m82.458 373.48q0-0.25837-0.04891-0.36357-0.04798-0.10612-0.16241-0.10612-0.11442 0-0.16333 0.10612-0.04891 0.1052-0.04891 0.36357 0 0.26115 0.04891 0.36819t0.16333 0.10704q0.1135 0 0.16241-0.10704t0.04891-0.36819zm0.35527 3e-3q0 0.34235-0.14764 0.52875-0.14764 0.18548-0.41894 0.18548-0.27222 0-0.41986-0.18548-0.14764-0.1864-0.14764-0.52875 0-0.34327 0.14764-0.52875 0.14764-0.1864 0.41986-0.1864 0.2713 0 0.41894 0.1864 0.14764 0.18548 0.14764 0.52875z"/><path d="m82.986 373.49h0.5795v0.26853h-0.5795z"/><path d="m84.195 373.91h0.60626v0.26114h-1.0012v-0.26114l0.50291-0.44386q0.06736-0.0609 0.09966-0.11904 0.0323-0.0581 0.0323-0.12088 0-0.0969-0.06552-0.15595-0.06459-0.0591-0.17256-0.0591-0.08305 0-0.18179 0.036-0.09874 0.0351-0.21132 0.1052v-0.30268q0.11996-0.0397 0.23715-0.06 0.11719-0.0212 0.22977-0.0212 0.2473 0 0.38388 0.10889 0.13749 0.10889 0.13749 0.30359 0 0.11258-0.05813 0.2104-0.05814 0.0969-0.24454 0.26022l-0.29437 0.25838z"/><path d="m85.642 373.08-0.38941 0.57673h0.38941zm-0.05906-0.29252h0.39495v0.86925h0.19655v0.25746h-0.19655v0.25099h-0.33589v-0.25099h-0.61088v-0.30452z"/><path d="m87.653 374.07q-0.13288 0.0646-0.27591 0.0969t-0.29529 0.0323q-0.3442 0-0.54536-0.19194-0.20116-0.19286-0.20116-0.52229 0-0.33312 0.20486-0.52413 0.20486-0.19102 0.56105-0.19102 0.13749 0 0.26299 0.0258 0.12642 0.0258 0.23808 0.0766v0.28514q-0.11535-0.0655-0.22977-0.0978-0.1135-0.0323-0.22793-0.0323-0.21224 0-0.32759 0.11903-0.11442 0.11812-0.11442 0.33866 0 0.2187 0.11073 0.33774t0.31467 0.11904q0.05537 0 0.10243-6e-3 0.04798-7e-3 0.08582-0.0222v-0.2676h-0.21685v-0.23808h0.55367v0.66255z"/></g><g transform="matrix(1.8787 0 0 1.883 -192.93 -297.24)"><rect x="162.8" y="375.47" width="46.438" height="14.406" rx=".16873" ry=".074248"/><g transform="matrix(1.0006 0 0 .99268 65.111 14.93)"><g transform="translate(-15.07,24.778)"><path d="m112.86 345.71 7.9403 1e-5v-7.0375l-7.9403 2.2e-4z" fill="#3a3a3a"/><g transform="matrix(.0080706 0 0 .0080636 100.22 374.68)"><path d="m2550.5-3593.2v-872.75l-983.84 0.025v872.71z" fill="none" stroke="#000" stroke-linecap="square" stroke-width=".67568"/></g><path d="m113.63 340.44h1.7574l-3e-3 -1.0731 0.63956-5.7e-4v-0.40181h2.0614l-4.8e-4 0.40286h0.6657v1.0732h1.7493v4.6204l-6.8696 0.015z" fill="#1a1a1a"/><path d="m118.91 340.16h1.7357v-0.75438h-1.7357z" fill="#abb927"/><path d="m113.48 340.16h1.751v-0.75831h-1.751z" fill="#abb927"/><path d="m120.8 345.71-7.9401-2e-5v7.0373l7.9401 2.4e-4z" fill="#3a3a3a"/><g transform="matrix(-.0080706 0 0 -.0080636 133.93 316.74)"><path d="m2609.9-3593.3v-872.71l-983.83-0.028v872.75z" fill="none" stroke="#000" stroke-linecap="square" stroke-width=".67568"/></g><path d="m120.51 350.97h-1.7574l3e-3 1.0731-0.63956 5.7e-4v0.40181h-2.0614l4.8e-4 -0.40286h-0.6657v-1.0732h-1.7493v-4.6204l6.8696-0.015z" fill="#1a1a1a"/><path d="m115.23 351.26h-1.7357v0.75438h1.7357z" fill="#abb927"/><path d="m120.67 351.26h-1.751v0.75831h1.751z" fill="#abb927"/><path transform="matrix(.53109 0 0 .53109 66 374.35)" d="m103.18-67.181-4.3903-0.0018v1.2752l4.2565-0.0019v1.6507l-0.4201 0.01318-1e-3 9.1065-9e-3 0.0099-12.928 0.01807-9.03e-4 -9.1344-0.42012-0.01318v-1.6507l4.2317 0.0019v-1.2752l-5.2703 0.0018 0.0034 26.511 5.2951 0.0018v-1.2752l-4.2565 0.0019v-1.6507l0.4201-0.01318 0.0011-9.0518 12.937-0.0075 9.1e-4 9.0588 0.42011 0.01318v1.6507l-4.2317-0.0019v1.2752l4.3658-0.0018z" fill="#ebebeb"/></g><g transform="translate(-7.5957,24.778)"><path d="m113.33 345.71h7.5536v-7.0373l-7.5536-2.3e-4z" fill="#3a3a3a"/><g transform="matrix(.0080706 0 0 .0080636 100.22 374.68)"><path d="m2560.5-3593.3v-872.71l-935.94-0.027v872.74z" fill="none" stroke="#000" stroke-linecap="square" stroke-width=".67568"/></g><path d="m113.63 340.44h1.7574l-3e-3 -1.0731 0.63956-5.7e-4v-0.40181h2.0614l-4.8e-4 0.40286h0.6657v1.0732h1.7493v4.6204l-6.8696 0.015z" fill="#1a1a1a"/><path d="m118.91 340.16h1.7357v-0.75438h-1.7357z" fill="#abb927"/><path d="m113.48 340.16h1.751v-0.75831h-1.751z" fill="#abb927"/><path d="m120.88 345.71h-7.5536v7.0373h7.5536z" fill="#3a3a3a"/><g transform="matrix(-.0080706 0 0 -.0080636 133.93 316.74)"><path d="m2551.9-3593.3v-872.72h-935.94v872.71z" fill="none" stroke="#000" stroke-linecap="square" stroke-width=".67568"/></g><path d="m120.51 350.97h-1.7574l3e-3 1.0731-0.63956 5.7e-4v0.40181h-2.0614l4.8e-4 -0.40286h-0.6657v-1.0732h-1.7493v-4.6204l6.8696-0.015z" fill="#1a1a1a"/><path d="m115.23 351.26h-1.7357v0.75438h1.7357z" fill="#abb927"/><path d="m120.67 351.26h-1.751v0.75831h1.751z" fill="#abb927"/><path transform="matrix(.53109 0 0 .53109 66 374.35)" d="m103.34-67.181-4.5453-0.0018v1.2752l4.2565-0.0019v1.6507l-0.4201 0.01318-1e-3 9.1065-9e-3 0.0099-12.928 0.01807-9.03e-4 -9.1344-0.42012-0.01318v-1.6507l4.2317 0.0019v-1.2752l-4.3863 0.0018 0.0033 26.511 4.4112 0.0018v-1.2752l-4.2565 0.0019v-1.6507l0.4201-0.01318 0.0011-9.0518 12.937-0.0075 9.1e-4 9.0588 0.42011 0.01318v1.6507l-4.2317-0.0019v1.2752l4.5207-0.0018z" fill="#ebebeb"/></g><g transform="rotate(180,128.38,358.1)"><path d="m112.86 345.71 7.9403 1e-5v-7.0375l-7.9403 2.2e-4z" fill="#3a3a3a"/><g transform="matrix(.0080706 0 0 .0080636 100.22 374.68)"><path d="m2550.5-3593.2v-872.75l-983.84 0.025v872.71z" fill="none" stroke="#000" stroke-linecap="square" stroke-width=".67568"/></g><path d="m113.63 340.44h1.7574l-3e-3 -1.0731 0.63956-5.7e-4v-0.40181h2.0614l-4.8e-4 0.40286h0.6657v1.0732h1.7493v4.6204l-6.8696 0.015z" fill="#1a1a1a"/><path d="m118.91 340.16h1.7357v-0.75438h-1.7357z" fill="#abb927"/><path d="m113.48 340.16h1.751v-0.75831h-1.751z" fill="#abb927"/><path d="m120.8 345.71-7.9401-2e-5v7.0373l7.9401 2.4e-4z" fill="#3a3a3a"/><g transform="matrix(-.0080706 0 0 -.0080636 133.93 316.74)"><path d="m2609.9-3593.3v-872.71l-983.83-0.028v872.75z" fill="none" stroke="#000" stroke-linecap="square" stroke-width=".67568"/></g><path d="m120.51 350.97h-1.7574l3e-3 1.0731-0.63956 5.7e-4v0.40181h-2.0614l4.8e-4 -0.40286h-0.6657v-1.0732h-1.7493v-4.6204l6.8696-0.015z" fill="#1a1a1a"/><path d="m115.23 351.26h-1.7357v0.75438h1.7357z" fill="#abb927"/><path d="m120.67 351.26h-1.751v0.75831h1.751z" fill="#abb927"/><path transform="matrix(.53109 0 0 .53109 66 374.35)" d="m103.19-67.181-4.3904-0.0018v1.2752l4.2565-0.0019v1.6507l-0.4201 0.01318-1e-3 9.1065-9e-3 0.0099-12.928 0.01807-9.03e-4 -9.1344-0.42012-0.01318v-1.6507l4.2317 0.0019v-1.2752l-5.2703 0.0018 0.0034 26.511 5.2951 0.0018v-1.2752l-4.2565 0.0019v-1.6507l0.4201-0.01318 0.0011-9.0518 12.937-0.0075 9.1e-4 9.0588 0.42011 0.01318v1.6507l-4.2317-0.0019v1.2752l4.3658-0.0018z" fill="#ebebeb"/></g><g transform="translate(-.039301 24.778)"><path d="m113.33 345.71h7.5536v-7.0373l-7.5536-2.3e-4z" fill="#3a3a3a"/><g transform="matrix(.0080706 0 0 .0080636 100.22 374.68)"><path d="m2560.5-3593.3v-872.71l-935.94-0.027v872.74z" fill="none" stroke="#000" stroke-linecap="square" stroke-width=".67568"/></g><path d="m113.63 340.44h1.7574l-3e-3 -1.0731 0.63956-5.7e-4v-0.40181h2.0614l-4.8e-4 0.40286h0.6657v1.0732h1.7493v4.6204l-6.8696 0.015z" fill="#1a1a1a"/><path d="m118.91 340.16h1.7357v-0.75438h-1.7357z" fill="#abb927"/><path d="m113.48 340.16h1.751v-0.75831h-1.751z" fill="#abb927"/><path d="m120.88 345.71h-7.5536v7.0373h7.5536z" fill="#3a3a3a"/><g transform="matrix(-.0080706 0 0 -.0080636 133.93 316.74)"><path d="m2551.9-3593.3v-872.72h-935.94v872.71z" fill="none" stroke="#000" stroke-linecap="square" stroke-width=".67568"/></g><path d="m120.51 350.97h-1.7574l3e-3 1.0731-0.63956 5.7e-4v0.40181h-2.0614l4.8e-4 -0.40286h-0.6657v-1.0732h-1.7493v-4.6204l6.8696-0.015z" fill="#1a1a1a"/><path d="m115.23 351.26h-1.7357v0.75438h1.7357z" fill="#abb927"/><path d="m120.67 351.26h-1.751v0.75831h1.751z" fill="#abb927"/><path transform="matrix(.53109 0 0 .53109 66 374.35)" d="m103.34-67.181-4.5453-0.0018v1.2752l4.2565-0.0019v1.6507l-0.4201 0.01318-1e-3 9.1065-9e-3 0.0099-12.928 0.01807-9.03e-4 -9.1344-0.42012-0.01318v-1.6507l4.2317 0.0019v-1.2752l-4.3863 0.0018 0.0033 26.511 4.4112 0.0018v-1.2752l-4.2565 0.0019v-1.6507l0.4201-0.01318 0.0011-9.0518 12.937-0.0075 9.1e-4 9.0588 0.42011 0.01318v1.6507l-4.2317-0.0019v1.2752l4.5207-0.0018z" fill="#ebebeb"/></g><g transform="translate(7.5171,24.778)"><path d="m113.33 345.71h7.5536v-7.0373l-7.5536-2.3e-4z" fill="#3a3a3a"/><g transform="matrix(.0080706 0 0 .0080636 100.22 374.68)"><path d="m2560.5-3593.3v-872.71l-935.94-0.027v872.74z" fill="none" stroke="#000" stroke-linecap="square" stroke-width=".67568"/></g><path d="m113.63 340.44h1.7574l-3e-3 -1.0731 0.63956-5.7e-4v-0.40181h2.0614l-4.8e-4 0.40286h0.6657v1.0732h1.7493v4.6204l-6.8696 0.015z" fill="#1a1a1a"/><path d="m118.91 340.16h1.7357v-0.75438h-1.7357z" fill="#abb927"/><path d="m113.48 340.16h1.751v-0.75831h-1.751z" fill="#abb927"/><path d="m120.88 345.71h-7.5536v7.0373h7.5536z" fill="#3a3a3a"/><g transform="matrix(-.0080706 0 0 -.0080636 133.93 316.74)"><path d="m2551.9-3593.3v-872.72h-935.94v872.71z" fill="none" stroke="#000" stroke-linecap="square" stroke-width=".67568"/></g><path d="m120.51 350.97h-1.7574l3e-3 1.0731-0.63956 5.7e-4v0.40181h-2.0614l4.8e-4 -0.40286h-0.6657v-1.0732h-1.7493v-4.6204l6.8696-0.015z" fill="#1a1a1a"/><path d="m115.23 351.26h-1.7357v0.75438h1.7357z" fill="#abb927"/><path d="m120.67 351.26h-1.751v0.75831h1.751z" fill="#abb927"/><path transform="matrix(.53109 0 0 .53109 66 374.35)" d="m103.34-67.181-4.5453-0.0018v1.2752l4.2565-0.0019v1.6507l-0.4201 0.01318-1e-3 9.1065-9e-3 0.0099-12.928 0.01807-9.03e-4 -9.1344-0.42012-0.01318v-1.6507l4.2317 0.0019v-1.2752l-4.3863 0.0018 0.0033 26.511 4.4112 0.0018v-1.2752l-4.2565 0.0019v-1.6507l0.4201-0.01318 0.0011-9.0518 12.937-0.0075 9.1e-4 9.0588 0.42011 0.01318v1.6507l-4.2317-0.0019v1.2752l4.5207-0.0018z" fill="#ebebeb"/></g><g transform="translate(15.073,24.778)"><path d="m113.33 345.71h7.5536v-7.0373l-7.5536-2.3e-4z" fill="#3a3a3a"/><g transform="matrix(.0080706 0 0 .0080636 100.22 374.68)"><path d="m2560.5-3593.3v-872.71l-935.94-0.027v872.74z" fill="none" stroke="#000" stroke-linecap="square" stroke-width=".67568"/></g><path d="m113.63 340.44h1.7574l-3e-3 -1.0731 0.63956-5.7e-4v-0.40181h2.0614l-4.8e-4 0.40286h0.6657v1.0732h1.7493v4.6204l-6.8696 0.015z" fill="#1a1a1a"/><path d="m118.91 340.16h1.7357v-0.75438h-1.7357z" fill="#abb927"/><path d="m113.48 340.16h1.751v-0.75831h-1.751z" fill="#abb927"/><path d="m120.88 345.71h-7.5536v7.0373h7.5536z" fill="#3a3a3a"/><g transform="matrix(-.0080706 0 0 -.0080636 133.93 316.74)"><path d="m2551.9-3593.3v-872.72h-935.94v872.71z" fill="none" stroke="#000" stroke-linecap="square" stroke-width=".67568"/></g><path d="m120.51 350.97h-1.7574l3e-3 1.0731-0.63956 5.7e-4v0.40181h-2.0614l4.8e-4 -0.40286h-0.6657v-1.0732h-1.7493v-4.6204l6.8696-0.015z" fill="#1a1a1a"/><path d="m115.23 351.26h-1.7357v0.75438h1.7357z" fill="#abb927"/><path d="m120.67 351.26h-1.751v0.75831h1.751z" fill="#abb927"/><path transform="matrix(.53109 0 0 .53109 66 374.35)" d="m103.34-67.181-4.5453-0.0018v1.2752l4.2565-0.0019v1.6507l-0.4201 0.01318-1e-3 9.1065-9e-3 0.0099-12.928 0.01807-9.03e-4 -9.1344-0.42012-0.01318v-1.6507l4.2317 0.0019v-1.2752l-4.3863 0.0018 0.0033 26.511 4.4112 0.0018v-1.2752l-4.2565 0.0019v-1.6507l0.4201-0.01318 0.0011-9.0518 12.937-0.0075 9.1e-4 9.0588 0.42011 0.01318v1.6507l-4.2317-0.0019v1.2752l4.5207-0.0018z" fill="#ebebeb"/></g></g><rect x="210.24" y="375.47" width="46.438" height="14.414" rx=".16873" ry=".074248"/><g transform="matrix(1.0006 0 0 .99268 112.53 14.93)"><g transform="translate(-15.07,24.778)"><path d="m112.86 345.71 7.9403 1e-5v-7.0375l-7.9403 2.2e-4z" fill="#3a3a3a"/><g transform="matrix(.0080706 0 0 .0080636 100.22 374.68)"><path d="m2550.5-3593.2v-872.75l-983.84 0.025v872.71z" fill="none" stroke="#000" stroke-linecap="square" stroke-width=".67568"/></g><path d="m113.63 340.44h1.7574l-3e-3 -1.0731 0.63956-5.7e-4v-0.40181h2.0614l-4.8e-4 0.40286h0.6657v1.0732h1.7493v4.6204l-6.8696 0.015z" fill="#1a1a1a"/><path d="m118.91 340.16h1.7357v-0.75438h-1.7357z" fill="#abb927"/><path d="m113.48 340.16h1.751v-0.75831h-1.751z" fill="#abb927"/><path d="m120.8 345.71-7.9401-2e-5v7.0373l7.9401 2.4e-4z" fill="#3a3a3a"/><g transform="matrix(-.0080706 0 0 -.0080636 133.93 316.74)"><path d="m2609.9-3593.3v-872.71l-983.83-0.028v872.75z" fill="none" stroke="#000" stroke-linecap="square" stroke-width=".67568"/></g><path d="m120.51 350.97h-1.7574l3e-3 1.0731-0.63956 5.7e-4v0.40181h-2.0614l4.8e-4 -0.40286h-0.6657v-1.0732h-1.7493v-4.6204l6.8696-0.015z" fill="#1a1a1a"/><path d="m115.23 351.26h-1.7357v0.75438h1.7357z" fill="#abb927"/><path d="m120.67 351.26h-1.751v0.75831h1.751z" fill="#abb927"/><path transform="matrix(.53109 0 0 .53109 66 374.35)" d="m103.18-67.181-4.3903-0.0018v1.2752l4.2565-0.0019v1.6507l-0.4201 0.01318-1e-3 9.1065-9e-3 0.0099-12.928 0.01807-9.03e-4 -9.1344-0.42012-0.01318v-1.6507l4.2317 0.0019v-1.2752l-5.2703 0.0018 0.0034 26.511 5.2951 0.0018v-1.2752l-4.2565 0.0019v-1.6507l0.4201-0.01318 0.0011-9.0518 12.937-0.0075 9.1e-4 9.0588 0.42011 0.01318v1.6507l-4.2317-0.0019v1.2752l4.3658-0.0018z" fill="#ebebeb"/></g><g transform="translate(-7.5957,24.778)"><path d="m113.33 345.71h7.5536v-7.0373l-7.5536-2.3e-4z" fill="#3a3a3a"/><g transform="matrix(.0080706 0 0 .0080636 100.22 374.68)"><path d="m2560.5-3593.3v-872.71l-935.94-0.027v872.74z" fill="none" stroke="#000" stroke-linecap="square" stroke-width=".67568"/></g><path d="m113.63 340.44h1.7574l-3e-3 -1.0731 0.63956-5.7e-4v-0.40181h2.0614l-4.8e-4 0.40286h0.6657v1.0732h1.7493v4.6204l-6.8696 0.015z" fill="#1a1a1a"/><path d="m118.91 340.16h1.7357v-0.75438h-1.7357z" fill="#abb927"/><path d="m113.48 340.16h1.751v-0.75831h-1.751z" fill="#abb927"/><path d="m120.88 345.71h-7.5536v7.0373h7.5536z" fill="#3a3a3a"/><g transform="matrix(-.0080706 0 0 -.0080636 133.93 316.74)"><path d="m2551.9-3593.3v-872.72h-935.94v872.71z" fill="none" stroke="#000" stroke-linecap="square" stroke-width=".67568"/></g><path d="m120.51 350.97h-1.7574l3e-3 1.0731-0.63956 5.7e-4v0.40181h-2.0614l4.8e-4 -0.40286h-0.6657v-1.0732h-1.7493v-4.6204l6.8696-0.015z" fill="#1a1a1a"/><path d="m115.23 351.26h-1.7357v0.75438h1.7357z" fill="#abb927"/><path d="m120.67 351.26h-1.751v0.75831h1.751z" fill="#abb927"/><path transform="matrix(.53109 0 0 .53109 66 374.35)" d="m103.34-67.181-4.5453-0.0018v1.2752l4.2565-0.0019v1.6507l-0.4201 0.01318-1e-3 9.1065-9e-3 0.0099-12.928 0.01807-9.03e-4 -9.1344-0.42012-0.01318v-1.6507l4.2317 0.0019v-1.2752l-4.3863 0.0018 0.0033 26.511 4.4112 0.0018v-1.2752l-4.2565 0.0019v-1.6507l0.4201-0.01318 0.0011-9.0518 12.937-0.0075 9.1e-4 9.0588 0.42011 0.01318v1.6507l-4.2317-0.0019v1.2752l4.5207-0.0018z" fill="#ebebeb"/></g><g transform="rotate(180,128.38,358.1)"><path d="m112.86 345.71 7.9403 1e-5v-7.0375l-7.9403 2.2e-4z" fill="#3a3a3a"/><g transform="matrix(.0080706 0 0 .0080636 100.22 374.68)"><path d="m2550.5-3593.2v-872.75l-983.84 0.025v872.71z" fill="none" stroke="#000" stroke-linecap="square" stroke-width=".67568"/></g><path d="m113.63 340.44h1.7574l-3e-3 -1.0731 0.63956-5.7e-4v-0.40181h2.0614l-4.8e-4 0.40286h0.6657v1.0732h1.7493v4.6204l-6.8696 0.015z" fill="#1a1a1a"/><path d="m118.91 340.16h1.7357v-0.75438h-1.7357z" fill="#abb927"/><path d="m113.48 340.16h1.751v-0.75831h-1.751z" fill="#abb927"/><path d="m120.8 345.71-7.9401-2e-5v7.0373l7.9401 2.4e-4z" fill="#3a3a3a"/><g transform="matrix(-.0080706 0 0 -.0080636 133.93 316.74)"><path d="m2609.9-3593.3v-872.71l-983.83-0.028v872.75z" fill="none" stroke="#000" stroke-linecap="square" stroke-width=".67568"/></g><path d="m120.51 350.97h-1.7574l3e-3 1.0731-0.63956 5.7e-4v0.40181h-2.0614l4.8e-4 -0.40286h-0.6657v-1.0732h-1.7493v-4.6204l6.8696-0.015z" fill="#1a1a1a"/><path d="m115.23 351.26h-1.7357v0.75438h1.7357z" fill="#abb927"/><path d="m120.67 351.26h-1.751v0.75831h1.751z" fill="#abb927"/><path transform="matrix(.53109 0 0 .53109 66 374.35)" d="m103.19-67.181-4.3904-0.0018v1.2752l4.2565-0.0019v1.6507l-0.4201 0.01318-1e-3 9.1065-9e-3 0.0099-12.928 0.01807-9.03e-4 -9.1344-0.42012-0.01318v-1.6507l4.2317 0.0019v-1.2752l-5.2703 0.0018 0.0034 26.511 5.2951 0.0018v-1.2752l-4.2565 0.0019v-1.6507l0.4201-0.01318 0.0011-9.0518 12.937-0.0075 9.1e-4 9.0588 0.42011 0.01318v1.6507l-4.2317-0.0019v1.2752l4.3658-0.0018z" fill="#ebebeb"/></g><g transform="translate(-.039301 24.778)"><path d="m113.33 345.71h7.5536v-7.0373l-7.5536-2.3e-4z" fill="#3a3a3a"/><g transform="matrix(.0080706 0 0 .0080636 100.22 374.68)"><path d="m2560.5-3593.3v-872.71l-935.94-0.027v872.74z" fill="none" stroke="#000" stroke-linecap="square" stroke-width=".67568"/></g><path d="m113.63 340.44h1.7574l-3e-3 -1.0731 0.63956-5.7e-4v-0.40181h2.0614l-4.8e-4 0.40286h0.6657v1.0732h1.7493v4.6204l-6.8696 0.015z" fill="#1a1a1a"/><path d="m118.91 340.16h1.7357v-0.75438h-1.7357z" fill="#abb927"/><path d="m113.48 340.16h1.751v-0.75831h-1.751z" fill="#abb927"/><path d="m120.88 345.71h-7.5536v7.0373h7.5536z" fill="#3a3a3a"/><g transform="matrix(-.0080706 0 0 -.0080636 133.93 316.74)"><path d="m2551.9-3593.3v-872.72h-935.94v872.71z" fill="none" stroke="#000" stroke-linecap="square" stroke-width=".67568"/></g><path d="m120.51 350.97h-1.7574l3e-3 1.0731-0.63956 5.7e-4v0.40181h-2.0614l4.8e-4 -0.40286h-0.6657v-1.0732h-1.7493v-4.6204l6.8696-0.015z" fill="#1a1a1a"/><path d="m115.23 351.26h-1.7357v0.75438h1.7357z" fill="#abb927"/><path d="m120.67 351.26h-1.751v0.75831h1.751z" fill="#abb927"/><path transform="matrix(.53109 0 0 .53109 66 374.35)" d="m103.34-67.181-4.5453-0.0018v1.2752l4.2565-0.0019v1.6507l-0.4201 0.01318-1e-3 9.1065-9e-3 0.0099-12.928 0.01807-9.03e-4 -9.1344-0.42012-0.01318v-1.6507l4.2317 0.0019v-1.2752l-4.3863 0.0018 0.0033 26.511 4.4112 0.0018v-1.2752l-4.2565 0.0019v-1.6507l0.4201-0.01318 0.0011-9.0518 12.937-0.0075 9.1e-4 9.0588 0.42011 0.01318v1.6507l-4.2317-0.0019v1.2752l4.5207-0.0018z" fill="#ebebeb"/></g><g transform="translate(7.5171,24.778)"><path d="m113.33 345.71h7.5536v-7.0373l-7.5536-2.3e-4z" fill="#3a3a3a"/><g transform="matrix(.0080706 0 0 .0080636 100.22 374.68)"><path d="m2560.5-3593.3v-872.71l-935.94-0.027v872.74z" fill="none" stroke="#000" stroke-linecap="square" stroke-width=".67568"/></g><path d="m113.63 340.44h1.7574l-3e-3 -1.0731 0.63956-5.7e-4v-0.40181h2.0614l-4.8e-4 0.40286h0.6657v1.0732h1.7493v4.6204l-6.8696 0.015z" fill="#1a1a1a"/><path d="m118.91 340.16h1.7357v-0.75438h-1.7357z" fill="#abb927"/><path d="m113.48 340.16h1.751v-0.75831h-1.751z" fill="#abb927"/><path d="m120.88 345.71h-7.5536v7.0373h7.5536z" fill="#3a3a3a"/><g transform="matrix(-.0080706 0 0 -.0080636 133.93 316.74)"><path d="m2551.9-3593.3v-872.72h-935.94v872.71z" fill="none" stroke="#000" stroke-linecap="square" stroke-width=".67568"/></g><path d="m120.51 350.97h-1.7574l3e-3 1.0731-0.63956 5.7e-4v0.40181h-2.0614l4.8e-4 -0.40286h-0.6657v-1.0732h-1.7493v-4.6204l6.8696-0.015z" fill="#1a1a1a"/><path d="m115.23 351.26h-1.7357v0.75438h1.7357z" fill="#abb927"/><path d="m120.67 351.26h-1.751v0.75831h1.751z" fill="#abb927"/><path transform="matrix(.53109 0 0 .53109 66 374.35)" d="m103.34-67.181-4.5453-0.0018v1.2752l4.2565-0.0019v1.6507l-0.4201 0.01318-1e-3 9.1065-9e-3 0.0099-12.928 0.01807-9.03e-4 -9.1344-0.42012-0.01318v-1.6507l4.2317 0.0019v-1.2752l-4.3863 0.0018 0.0033 26.511 4.4112 0.0018v-1.2752l-4.2565 0.0019v-1.6507l0.4201-0.01318 0.0011-9.0518 12.937-0.0075 9.1e-4 9.0588 0.42011 0.01318v1.6507l-4.2317-0.0019v1.2752l4.5207-0.0018z" fill="#ebebeb"/></g><g transform="translate(15.073,24.778)"><path d="m113.33 345.71h7.5536v-7.0373l-7.5536-2.3e-4z" fill="#3a3a3a"/><g transform="matrix(.0080706 0 0 .0080636 100.22 374.68)"><path d="m2560.5-3593.3v-872.71l-935.94-0.027v872.74z" fill="none" stroke="#000" stroke-linecap="square" stroke-width=".67568"/></g><path d="m113.63 340.44h1.7574l-3e-3 -1.0731 0.63956-5.7e-4v-0.40181h2.0614l-4.8e-4 0.40286h0.6657v1.0732h1.7493v4.6204l-6.8696 0.015z" fill="#1a1a1a"/><path d="m118.91 340.16h1.7357v-0.75438h-1.7357z" fill="#abb927"/><path d="m113.48 340.16h1.751v-0.75831h-1.751z" fill="#abb927"/><path d="m120.88 345.71h-7.5536v7.0373h7.5536z" fill="#3a3a3a"/><g transform="matrix(-.0080706 0 0 -.0080636 133.93 316.74)"><path d="m2551.9-3593.3v-872.72h-935.94v872.71z" fill="none" stroke="#000" stroke-linecap="square" stroke-width=".67568"/></g><path d="m120.51 350.97h-1.7574l3e-3 1.0731-0.63956 5.7e-4v0.40181h-2.0614l4.8e-4 -0.40286h-0.6657v-1.0732h-1.7493v-4.6204l6.8696-0.015z" fill="#1a1a1a"/><path d="m115.23 351.26h-1.7357v0.75438h1.7357z" fill="#abb927"/><path d="m120.67 351.26h-1.751v0.75831h1.751z" fill="#abb927"/><path transform="matrix(.53109 0 0 .53109 66 374.35)" d="m103.34-67.181-4.5453-0.0018v1.2752l4.2565-0.0019v1.6507l-0.4201 0.01318-1e-3 9.1065-9e-3 0.0099-12.928 0.01807-9.03e-4 -9.1344-0.42012-0.01318v-1.6507l4.2317 0.0019v-1.2752l-4.3863 0.0018 0.0033 26.511 4.4112 0.0018v-1.2752l-4.2565 0.0019v-1.6507l0.4201-0.01318 0.0011-9.0518 12.937-0.0075 9.1e-4 9.0588 0.42011 0.01318v1.6507l-4.2317-0.0019v1.2752l4.5207-0.0018z" fill="#ebebeb"/></g></g></g><g transform="matrix(1.8787 0 0 1.883 -357.21 -310.04)"><rect x="250.4" y="379.77" width="3.9417" height="1.9916" rx=".047399" ry=".023128"/><g transform="scale(1.0397 .96177)"><path d="m242.28 396.3h0.29139v-0.82704l-0.29911 0.0617v-0.22455l0.29739-0.0617h0.31368v1.0516h0.29139v0.22797h-0.89474v-0.22797z" fill="#fff"/></g></g><g transform="matrix(1.8787 0 0 1.883 -342.73 -310.04)"><rect x="250.4" y="379.77" width="3.9417" height="1.9916" rx=".047399" ry=".023128"/><g transform="scale(1.0397 .96177)"><path d="m242.89 395.84q0.12941 0.0334 0.19626 0.11655 0.0677 0.0823 0.0677 0.20997 0 0.19027-0.14569 0.28968-0.1457 0.0986-0.42509 0.0986-0.0986 0-0.19798-0.0163-0.0985-0.0154-0.1954-0.0471v-0.25454q0.0926 0.0463 0.18341 0.0703 0.0917 0.0231 0.17997 0.0231 0.13113 0 0.20055-0.0454 0.0703-0.0454 0.0703-0.13026 0-0.0874-0.072-0.13199-0.0711-0.0454-0.21083-0.0454h-0.13198v-0.21254h0.13884q0.12427 0 0.18512-0.0386 0.0609-0.0394 0.0609-0.11913 0-0.0737-0.0591-0.11398-0.0591-0.0403-0.16712-0.0403-0.0797 0-0.16112 0.018-0.0814 0.018-0.16198 0.0531v-0.24168q0.0977-0.0274 0.19369-0.0411 0.096-0.0137 0.18855-0.0137 0.24939 0 0.37281 0.0823 0.12427 0.0814 0.12427 0.24597 0 0.11227-0.0591 0.18426-0.0591 0.0711-0.17483 0.10028z" fill="#fff"/></g></g><g transform="matrix(1.8787 0 0 1.883 -328.26 -310.04)"><rect x="250.4" y="379.77" width="3.9417" height="1.9916" rx=".047399" ry=".023128"/><g transform="scale(1.0397 .96177)"><path d="m242.26 395.25h0.82018v0.24254h-0.55707v0.19797q0.0377-0.0103 0.0754-0.0154 0.0386-6e-3 0.0797-6e-3 0.23397 0 0.36423 0.11741 0.13027 0.11656 0.13027 0.32567 0 0.2074-0.14226 0.32482-0.14141 0.11741-0.39338 0.11741-0.10884 0-0.21597-0.0214-0.10628-0.0206-0.21169-0.0634v-0.25968q0.10456 0.06 0.19797 0.09 0.0943 0.03 0.17741 0.03 0.11998 0 0.18855-0.0583 0.0694-0.0591 0.0694-0.15941 0-0.10113-0.0694-0.15941-0.0686-0.0583-0.18855-0.0583-0.0711 0-0.1517 0.0188-0.0806 0.018-0.17312 0.0566v-0.7199z" fill="#fff"/></g></g><g transform="matrix(1.8787 0 0 1.883 -313.78 -310.04)"><rect x="250.4" y="379.77" width="3.9417" height="1.9916" rx=".047399" ry=".023128"/><g transform="scale(1.0397 .96177)"><path d="m242.19 395.25h0.96416v0.18597l-0.49879 1.0936h-0.32139l0.47223-1.037h-0.61621v-0.24254z" fill="#fff"/></g></g><g transform="matrix(1.8787 0 0 1.883 -299.3 -310.04)"><rect x="250.4" y="379.77" width="3.9417" height="1.9916" rx=".047399" ry=".023128"/><g transform="scale(1.0397 .96177)"><path d="m242.25 396.5v-0.23654q0.0788 0.0369 0.15084 0.0557 0.072 0.018 0.14226 0.018 0.14741 0 0.22969-0.0814 0.0823-0.0823 0.0968-0.2434-0.0583 0.0428-0.12427 0.0643-0.066 0.0214-0.14312 0.0214-0.19626 0-0.3171-0.11399-0.11999-0.11484-0.11999-0.30167 0-0.20655 0.1337-0.33082 0.13455-0.12427 0.35995-0.12427 0.25026 0 0.38738 0.16884 0.13713 0.16883 0.13713 0.47736 0 0.31711-0.16027 0.4988-0.16026 0.18083-0.43965 0.18083-0.09 0-0.17227-0.0137-0.0823-0.0129-0.16112-0.0394zm0.40709-0.6162q0.0866 0 0.13027-0.0557 0.0437-0.0566 0.0437-0.16883 0-0.11142-0.0437-0.16798-0.0437-0.0566-0.13027-0.0566-0.0866 0-0.13027 0.0566-0.0437 0.0566-0.0437 0.16798 0 0.11227 0.0437 0.16883 0.0437 0.0557 0.13027 0.0557z" fill="#fff"/></g></g><g transform="matrix(1.8787 0 0 1.883 -284.84 -310.04)"><rect x="250.4" y="379.77" width="3.9417" height="1.9916" rx=".047399" ry=".023128"/><g transform="scale(1.0397 .96177)" fill="#fff"><path d="m241.67 396.3h0.29139v-0.82704l-0.2991 0.0617v-0.22455l0.29739-0.0617h0.31367v1.0516h0.29139v0.22797h-0.89474v-0.22797z"/><path d="m242.89 396.3h0.29139v-0.82704l-0.2991 0.0617v-0.22455l0.29739-0.0617h0.31367v1.0516h0.29139v0.22797h-0.89474v-0.22797z"/></g></g><g transform="matrix(1.8787 0 0 1.883 -268.74 -310.04)"><rect x="250.4" y="379.77" width="3.9417" height="1.9916" rx=".047399" ry=".023128"/><g transform="scale(1.0397 .96177)" fill="#fff"><path d="m241.67 396.3h0.29139v-0.82704l-0.2991 0.0617v-0.22455l0.29739-0.0617h0.31367v1.0516h0.29139v0.22797h-0.89474v-0.22797z"/><path d="m243.5 395.84q0.12942 0.0334 0.19626 0.11655 0.0677 0.0823 0.0677 0.20997 0 0.19027-0.1457 0.28968-0.14569 0.0986-0.42508 0.0986-0.0986 0-0.19798-0.0163-0.0986-0.0154-0.1954-0.0471v-0.25454q0.0926 0.0463 0.1834 0.0703 0.0917 0.0231 0.17998 0.0231 0.13113 0 0.20055-0.0454 0.0703-0.0454 0.0703-0.13026 0-0.0874-0.072-0.13199-0.0711-0.0454-0.21083-0.0454h-0.13198v-0.21254h0.13884q0.12427 0 0.18512-0.0386 0.0609-0.0394 0.0609-0.11913 0-0.0737-0.0591-0.11398-0.0591-0.0403-0.16712-0.0403-0.0797 0-0.16112 0.018-0.0814 0.018-0.16198 0.0531v-0.24168q0.0977-0.0274 0.19369-0.0411 0.096-0.0137 0.18854-0.0137 0.2494 0 0.37281 0.0823 0.12427 0.0814 0.12427 0.24597 0 0.11227-0.0591 0.18426-0.0591 0.0711-0.17484 0.10028z"/></g></g><g transform="matrix(1.8787 0 0 1.883 -254.27 -310.04)"><rect x="250.4" y="379.77" width="3.9417" height="1.9916" rx=".047399" ry=".023128"/><g transform="scale(1.0397 .96177)" fill="#fff"><path d="m241.67 396.3h0.29139v-0.82704l-0.2991 0.0617v-0.22455l0.29739-0.0617h0.31367v1.0516h0.29139v0.22797h-0.89474v-0.22797z"/><path d="m242.87 395.25h0.82018v0.24254h-0.55707v0.19797q0.0377-0.0103 0.0754-0.0154 0.0386-6e-3 0.0797-6e-3 0.23397 0 0.36424 0.11741 0.13027 0.11656 0.13027 0.32567 0 0.2074-0.14227 0.32482-0.14141 0.11741-0.39337 0.11741-0.10885 0-0.21598-0.0214-0.10627-0.0206-0.21168-0.0634v-0.25968q0.10455 0.06 0.19797 0.09 0.0943 0.03 0.17741 0.03 0.11998 0 0.18854-0.0583 0.0694-0.0591 0.0694-0.15941 0-0.10113-0.0694-0.15941-0.0686-0.0583-0.18854-0.0583-0.0711 0-0.1517 0.0188-0.0806 0.018-0.17312 0.0566v-0.7199z"/></g></g><g transform="matrix(1.8787 0 0 1.883 -239.79 -310.04)"><rect x="250.4" y="379.77" width="3.9417" height="1.9916" rx=".047399" ry=".023128"/><g transform="scale(1.0397 .96177)" fill="#fff"><path d="m241.67 396.3h0.29139v-0.82704l-0.2991 0.0617v-0.22455l0.29739-0.0617h0.31367v1.0516h0.29139v0.22797h-0.89474v-0.22797z"/><path d="m242.8 395.25h0.96416v0.18597l-0.49879 1.0936h-0.32139l0.47222-1.037h-0.6162v-0.24254z"/></g></g><g transform="matrix(1.8787 0 0 1.883 -225.32 -310.04)"><rect x="250.4" y="379.77" width="3.9417" height="1.9916" rx=".047399" ry=".023128"/><g transform="scale(1.0397 .96177)" fill="#fff"><path d="m241.67 396.3h0.29139v-0.82704l-0.2991 0.0617v-0.22455l0.29739-0.0617h0.31367v1.0516h0.29139v0.22797h-0.89474v-0.22797z"/><path d="m242.86 396.5v-0.23654q0.0788 0.0369 0.15083 0.0557 0.072 0.018 0.14227 0.018 0.14741 0 0.22969-0.0814 0.0823-0.0823 0.0968-0.2434-0.0583 0.0428-0.12427 0.0643-0.066 0.0214-0.14312 0.0214-0.19626 0-0.31711-0.11399-0.11998-0.11484-0.11998-0.30167 0-0.20655 0.1337-0.33082 0.13455-0.12427 0.35995-0.12427 0.25025 0 0.38738 0.16884 0.13712 0.16883 0.13712 0.47736 0 0.31711-0.16026 0.4988-0.16027 0.18083-0.43966 0.18083-0.09 0-0.17226-0.0137-0.0823-0.0129-0.16112-0.0394zm0.40709-0.6162q0.0866 0 0.13027-0.0557 0.0437-0.0566 0.0437-0.16883 0-0.11142-0.0437-0.16798-0.0437-0.0566-0.13027-0.0566-0.0866 0-0.13027 0.0566-0.0437 0.0566-0.0437 0.16798 0 0.11227 0.0437 0.16883 0.0437 0.0557 0.13027 0.0557z"/></g></g><g transform="matrix(1.8787 0 0 1.883 -349.69 -277.25)"><rect x="250.4" y="379.77" width="3.9417" height="1.9916" rx=".047399" ry=".023128"/><g transform="scale(1.0397 .96177)"><path d="m242.58 396.29h0.56307v0.24254h-0.92988v-0.24254l0.46708-0.41224q0.0626-0.0566 0.0926-0.11055 0.03-0.054 0.03-0.11227 0-0.09-0.0608-0.14484-0.06-0.0548-0.16027-0.0548-0.0771 0-0.16883 0.0334-0.0917 0.0326-0.19626 0.0977v-0.2811q0.11141-0.0369 0.22025-0.0557 0.10885-0.0197 0.2134-0.0197 0.22969 0 0.35653 0.10113 0.1277 0.10113 0.1277 0.28196 0 0.10456-0.054 0.1954-0.054 0.09-0.22711 0.24169l-0.27339 0.23997z" fill="#fff"/></g></g><g transform="matrix(1.8787 0 0 1.883 -334.75 -277.25)"><rect x="250.4" y="379.77" width="3.9417" height="1.9916" rx=".047399" ry=".023128"/><g transform="scale(1.0397 .96177)"><path d="m242.72 395.52-0.36167 0.53564h0.36167zm-0.0549-0.27168h0.36681v0.80732h0.18255v0.23911h-0.18255v0.23312h-0.31196v-0.23312h-0.56735v-0.28282z" fill="#fff"/></g></g><g transform="matrix(1.8787 0 0 1.883 -320.54 -277.25)"><rect x="250.4" y="379.77" width="3.9417" height="1.9916" rx=".047399" ry=".023128"/><g transform="scale(1.0397 .96177)"><path d="m242.71 395.9q-0.0866 0-0.13027 0.0566-0.0428 0.0557-0.0428 0.16798 0 0.11227 0.0428 0.16883 0.0437 0.0557 0.13027 0.0557 0.0874 0 0.13027-0.0557 0.0437-0.0566 0.0437-0.16883 0-0.11228-0.0437-0.16798-0.0428-0.0566-0.13027-0.0566zm0.40795-0.61449v0.23654q-0.0814-0.0386-0.15341-0.0566-0.072-0.0189-0.14056-0.0189-0.14741 0-0.22968 0.0823-0.0823 0.0814-0.096 0.24254 0.0566-0.042 0.12256-0.0626 0.066-0.0214 0.14398-0.0214 0.19626 0 0.31624 0.11484 0.12085 0.11484 0.12085 0.30082 0 0.20569-0.13456 0.32996-0.13455 0.12341-0.36081 0.12341-0.2494 0-0.38652-0.16798-0.13627-0.16883-0.13627-0.47822 0-0.3171 0.15941-0.49794 0.16026-0.18169 0.4388-0.18169 0.0883 0 0.17141 0.0137 0.0831 0.0137 0.16455 0.0411z" fill="#fff"/></g></g><g transform="matrix(1.8787 0 0 1.883 -306.35 -277.25)"><rect x="250.4" y="379.77" width="3.9417" height="1.9916" rx=".047399" ry=".023128"/><g transform="scale(1.0397 .96177)"><path d="m242.69 395.96q-0.0926 0-0.14227 0.0506-0.0497 0.0506-0.0497 0.14484 0 0.0943 0.0497 0.14484 0.0497 0.0497 0.14227 0.0497 0.0917 0 0.14056-0.0497 0.0488-0.0506 0.0488-0.14484 0-0.0951-0.0488-0.14484-0.0489-0.0506-0.14056-0.0506zm-0.24082-0.10884q-0.11656-0.0351-0.1757-0.10799-0.0591-0.0729-0.0591-0.18169 0-0.16198 0.12084-0.24683 0.12084-0.0848 0.35481-0.0848 0.23226 0 0.3531 0.0848 0.12084 0.084 0.12084 0.24683 0 0.10884-0.06 0.18169-0.0591 0.0729-0.17569 0.10799 0.13027 0.036 0.19626 0.11741 0.0668 0.0806 0.0668 0.20397 0 0.19026-0.12684 0.28797-0.12599 0.0968-0.37453 0.0968-0.24939 0-0.37709-0.0968-0.12684-0.0977-0.12684-0.28797 0-0.12341 0.066-0.20397 0.0669-0.0814 0.19712-0.11741zm0.0771-0.25626q0 0.0763 0.042 0.11742 0.0429 0.0411 0.1217 0.0411 0.0771 0 0.11913-0.0411 0.042-0.0411 0.042-0.11742 0-0.0763-0.042-0.11655-0.042-0.0411-0.11913-0.0411-0.0788 0-0.1217 0.0411-0.042 0.0411-0.042 0.11655z" fill="#fff"/></g></g><g transform="matrix(1.8787 0 0 1.883 -292.13 -277.25)"><rect x="250.4" y="379.77" width="3.9417" height="1.9916" rx=".047399" ry=".023128"/><g transform="scale(1.0397 .96177)" fill="#fff"><path d="m241.67 396.3h0.29139v-0.82704l-0.2991 0.0617v-0.22455l0.29739-0.0617h0.31367v1.0516h0.29139v0.22797h-0.89474v-0.22797z"/><path d="m243.49 395.89q0-0.23997-0.0454-0.33767-0.0446-0.0986-0.15084-0.0986-0.10627 0-0.1517 0.0986-0.0454 0.0977-0.0454 0.33767 0 0.24254 0.0454 0.34195 0.0454 0.0994 0.1517 0.0994 0.10541 0 0.15084-0.0994 0.0454-0.0994 0.0454-0.34195zm0.32996 3e-3q0 0.31796-0.13713 0.49108-0.13712 0.17226-0.38909 0.17226-0.25283 0-0.38995-0.17226-0.13713-0.17312-0.13713-0.49108 0-0.31882 0.13713-0.49108 0.13712-0.17312 0.38995-0.17312 0.25197 0 0.38909 0.17312 0.13713 0.17226 0.13713 0.49108z"/></g></g><g transform="matrix(1.8787 0 0 1.883 -278.61 -277.25)"><rect x="250.4" y="379.77" width="3.9417" height="1.9916" rx=".047399" ry=".023128"/><g transform="scale(1.0397 .96177)" fill="#fff"><path d="m241.67 396.3h0.29139v-0.82704l-0.2991 0.0617v-0.22455l0.29739-0.0617h0.31367v1.0516h0.29139v0.22797h-0.89474v-0.22797z"/><path d="m243.19 396.29h0.56307v0.24254h-0.92988v-0.24254l0.46709-0.41224q0.0626-0.0566 0.0926-0.11055 0.03-0.054 0.03-0.11227 0-0.09-0.0608-0.14484-0.06-0.0548-0.16026-0.0548-0.0771 0-0.16884 0.0334-0.0917 0.0326-0.19626 0.0977v-0.2811q0.11142-0.0369 0.22026-0.0557 0.10884-0.0197 0.2134-0.0197 0.22969 0 0.35653 0.10113 0.12769 0.10113 0.12769 0.28196 0 0.10456-0.054 0.1954-0.054 0.09-0.22711 0.24169l-0.2734 0.23997z"/></g></g><g transform="matrix(1.8787 0 0 1.883 -260.59 -277.25)"><rect x="250.4" y="379.77" width="3.9417" height="1.9916" rx=".047399" ry=".023128"/><g transform="scale(1.0397 .96177)" fill="#fff"><path d="m241.67 396.3h0.29139v-0.82704l-0.2991 0.0617v-0.22455l0.29739-0.0617h0.31367v1.0516h0.29139v0.22797h-0.89474v-0.22797z"/><path d="m243.33 395.52-0.36167 0.53564h0.36167zm-0.0548-0.27168h0.36681v0.80732h0.18254v0.23911h-0.18254v0.23312h-0.31196v-0.23312h-0.56736v-0.28282z"/></g></g><g transform="matrix(1.8787 0 0 1.883 -245.65 -277.25)"><rect x="250.4" y="379.77" width="3.9417" height="1.9916" rx=".047399" ry=".023128"/><g transform="scale(1.0397 .96177)" fill="#fff"><path d="m241.67 396.3h0.29139v-0.82704l-0.2991 0.0617v-0.22455l0.29739-0.0617h0.31367v1.0516h0.29139v0.22797h-0.89474v-0.22797z"/><path d="m243.32 395.9q-0.0866 0-0.13027 0.0566-0.0428 0.0557-0.0428 0.16798 0 0.11227 0.0428 0.16883 0.0437 0.0557 0.13027 0.0557 0.0874 0 0.13026-0.0557 0.0437-0.0566 0.0437-0.16883 0-0.11228-0.0437-0.16798-0.0429-0.0566-0.13026-0.0566zm0.40794-0.61449v0.23654q-0.0814-0.0386-0.15341-0.0566-0.072-0.0189-0.14055-0.0189-0.14741 0-0.22968 0.0823-0.0823 0.0814-0.096 0.24254 0.0566-0.042 0.12255-0.0626 0.066-0.0214 0.14399-0.0214 0.19626 0 0.31624 0.11484 0.12084 0.11484 0.12084 0.30082 0 0.20569-0.13455 0.32996-0.13456 0.12341-0.36081 0.12341-0.2494 0-0.38652-0.16798-0.13627-0.16883-0.13627-0.47822 0-0.3171 0.15941-0.49794 0.16026-0.18169 0.4388-0.18169 0.0883 0 0.1714 0.0137t0.16455 0.0411z"/></g></g><g transform="matrix(1.8787 0 0 1.883 -231.46 -277.25)"><rect x="250.4" y="379.77" width="3.9417" height="1.9916" rx=".047399" ry=".023128"/><g transform="scale(1.0397 .96177)" fill="#fff"><path d="m241.67 396.3h0.29139v-0.82704l-0.2991 0.0617v-0.22455l0.29739-0.0617h0.31367v1.0516h0.29139v0.22797h-0.89474v-0.22797z"/><path d="m243.3 395.96q-0.0926 0-0.14227 0.0506-0.0497 0.0506-0.0497 0.14484 0 0.0943 0.0497 0.14484 0.0497 0.0497 0.14227 0.0497 0.0917 0 0.14055-0.0497 0.0488-0.0506 0.0488-0.14484 0-0.0951-0.0488-0.14484-0.0489-0.0506-0.14055-0.0506zm-0.24083-0.10884q-0.11655-0.0351-0.17569-0.10799-0.0591-0.0729-0.0591-0.18169 0-0.16198 0.12084-0.24683 0.12084-0.0848 0.35481-0.0848 0.23225 0 0.3531 0.0848 0.12084 0.084 0.12084 0.24683 0 0.10884-0.06 0.18169-0.0591 0.0729-0.1757 0.10799 0.13027 0.036 0.19626 0.11741 0.0668 0.0806 0.0668 0.20397 0 0.19026-0.12684 0.28797-0.12598 0.0968-0.37452 0.0968-0.2494 0-0.3771-0.0968-0.12684-0.0977-0.12684-0.28797 0-0.12341 0.066-0.20397 0.0668-0.0814 0.19711-0.11741zm0.0771-0.25626q0 0.0763 0.042 0.11742 0.0428 0.0411 0.1217 0.0411 0.0771 0 0.11913-0.0411 0.042-0.0411 0.042-0.11742 0-0.0763-0.042-0.11655-0.042-0.0411-0.11913-0.0411-0.0789 0-0.1217 0.0411-0.042 0.0411-0.042 0.11655z"/></g></g><g transform="matrix(1.8787 0 0 1.883 -217.25 -277.25)"><rect x="250.4" y="379.77" width="3.9417" height="1.9916" rx=".047399" ry=".023128"/><g transform="scale(1.0397 .96177)" fill="#fff"><path d="m241.97 396.29h0.56307v0.24254h-0.92988v-0.24254l0.46708-0.41224q0.0626-0.0566 0.0926-0.11055 0.03-0.054 0.03-0.11227 0-0.09-0.0609-0.14484-0.06-0.0548-0.16027-0.0548-0.0771 0-0.16883 0.0334-0.0917 0.0326-0.19626 0.0977v-0.2811q0.11141-0.0369 0.22026-0.0557 0.10884-0.0197 0.2134-0.0197 0.22968 0 0.35652 0.10113 0.1277 0.10113 0.1277 0.28196 0 0.10456-0.054 0.1954-0.054 0.09-0.22712 0.24169l-0.27339 0.23997z"/><path d="m243.49 395.89q0-0.23997-0.0454-0.33767-0.0446-0.0986-0.15084-0.0986-0.10627 0-0.1517 0.0986-0.0454 0.0977-0.0454 0.33767 0 0.24254 0.0454 0.34195 0.0454 0.0994 0.1517 0.0994 0.10541 0 0.15084-0.0994 0.0454-0.0994 0.0454-0.34195zm0.32996 3e-3q0 0.31796-0.13713 0.49108-0.13712 0.17226-0.38909 0.17226-0.25283 0-0.38995-0.17226-0.13713-0.17312-0.13713-0.49108 0-0.31882 0.13713-0.49108 0.13712-0.17312 0.38995-0.17312 0.25197 0 0.38909 0.17312 0.13713 0.17226 0.13713 0.49108z"/></g></g><rect x="291.92" y="409.7" width="28.641" height="26.921" rx=".31699" ry=".13981" stroke-width="1.8808"/><rect x="292.28" y="409.87" width="27.934" height="26.567" fill="#ebebeb" stroke-width="1.8808"/><g transform="matrix(1.8787 0 0 1.883 -53.785 -298.26)"><g transform="matrix(0,-1.3729,1.3727,0,-52.675,1019.4)"><rect x="464.5" y="172.66" width="3.9658" height="10.644"/><polygon points="464.9 174.19 464.9 176.79 464.7 176.79 464.7 177.99 468.3 177.99 468.3 172.79 464.7 172.79 464.7 174.19"/><polygon points="464.9 174.19 464.9 176.79 464.7 176.79 464.7 177.99 468.3 177.99 468.3 172.79 464.7 172.79 464.7 174.19" fill="none" stroke="#ebebeb" stroke-width=".1"/></g><g transform="matrix(0,-1.3729,1.3727,0,-45.082,1019.4)"><polygon transform="translate(0 -.3204)" points="464.9 176.79 464.7 176.79 464.7 177.99 468.3 177.99 468.3 172.79 464.7 172.79 464.7 174.19 464.9 174.19" fill="none" stroke="#ebebeb" stroke-width=".1"/></g></g><g transform="matrix(-1.8787 0 0 -1.883 666.45 1144.8)"><g transform="matrix(0,-1.3729,1.3727,0,-52.675,1019.4)"><rect x="464.5" y="172.66" width="3.9658" height="10.644"/><polygon points="464.7 174.19 464.9 174.19 464.9 176.79 464.7 176.79 464.7 177.99 468.3 177.99 468.3 172.79 464.7 172.79"/><polygon points="464.7 174.19 464.9 174.19 464.9 176.79 464.7 176.79 464.7 177.99 468.3 177.99 468.3 172.79 464.7 172.79" fill="none" stroke="#ebebeb" stroke-width=".1"/></g><g transform="matrix(0,-1.3729,1.3727,0,-45.082,1019.4)"><polygon transform="translate(0 -.3204)" points="464.9 174.19 464.9 176.79 464.7 176.79 464.7 177.99 468.3 177.99 468.3 172.79 464.7 172.79 464.7 174.19" fill="none" stroke="#ebebeb" stroke-width=".1"/></g></g><g transform="matrix(1.8787 0 0 1.883 -53.593 -297.84)" fill="#008000" fill-rule="evenodd" stroke="#008000" stroke-linecap="round" stroke-linejoin="round" stroke-width=".098574"><g transform="translate(.27778 25.762)"><path d="m184.73 356.56h0.83713l-0.41857 1.267z"/><path d="m190.67 357.83h-0.83713l0.41857-1.267z"/><path d="m187.27 357.83h-0.83713l0.41857-1.267z"/><path d="m188.13 356.56h0.83713l-0.41857 1.267z"/></g><g transform="translate(7.431,25.762)"><path d="m184.73 356.56h0.83713l-0.41857 1.267z"/><path d="m190.67 357.83h-0.83713l0.41857-1.267z"/><path d="m187.27 357.83h-0.83713l0.41857-1.267z"/><path d="m188.13 356.56h0.83713l-0.41857 1.267z"/></g></g><g transform="matrix(1.8787 0 0 1.883 -47.447 -342.16)"><rect x="163.87" y="396.83" width="3.9417" height="1.9916" rx=".047399" ry=".023128"/><g transform="scale(1.0397 .96177)" fill="#fff"><path d="m158.15 414.02h0.56307v0.24254h-0.92988v-0.24254l0.46709-0.41224q0.0626-0.0566 0.0926-0.11055 0.03-0.054 0.03-0.11227 0-0.09-0.0608-0.14484-0.06-0.0549-0.16026-0.0549-0.0771 0-0.16884 0.0334-0.0917 0.0326-0.19626 0.0977v-0.2811q0.11142-0.0369 0.22026-0.0557 0.10884-0.0197 0.2134-0.0197 0.22969 0 0.35653 0.10113 0.12769 0.10113 0.12769 0.28196 0 0.10456-0.054 0.19541-0.054 0.09-0.22711 0.24168l-0.2734 0.23997z"/><path d="m159.07 414.04h0.29139v-0.82704l-0.29911 0.0617v-0.22455l0.29739-0.0617h0.31368v1.0516h0.29139v0.22797h-0.89474v-0.22797z"/><path d="m160.1 412.99h1.1793v0.24939h-0.42423v1.0302h-0.32996v-1.0302h-0.42509v-0.24939z"/></g></g><g transform="matrix(1.8787 0 0 1.883 -52.846 -343.41)"><rect x="174.3" y="397.49" width="3.9417" height="1.9916" rx=".047399" ry=".023128"/><g transform="scale(1.0397 .96177)" fill="#fff"><path d="m168.18 414.71h0.56307v0.24254h-0.92988v-0.24254l0.46708-0.41223q0.0626-0.0566 0.0926-0.11056 0.03-0.054 0.03-0.11227 0-0.09-0.0609-0.14484-0.06-0.0548-0.16027-0.0548-0.0771 0-0.16883 0.0334-0.0917 0.0326-0.19626 0.0977v-0.28111q0.11141-0.0369 0.22026-0.0557 0.10884-0.0197 0.2134-0.0197 0.22968 0 0.35652 0.10113 0.1277 0.10113 0.1277 0.28197 0 0.10456-0.054 0.1954-0.054 0.09-0.22712 0.24168l-0.27339 0.23997z"/><path d="m169.71 414.27q0.12941 0.0334 0.19626 0.11656 0.0677 0.0823 0.0677 0.20997 0 0.19026-0.1457 0.28968-0.14569 0.0986-0.42508 0.0986-0.0986 0-0.19798-0.0163-0.0986-0.0154-0.1954-0.0471v-0.25454q0.0926 0.0463 0.1834 0.0703 0.0917 0.0231 0.17998 0.0231 0.13113 0 0.20054-0.0454 0.0703-0.0454 0.0703-0.13027 0-0.0874-0.072-0.13198-0.0711-0.0454-0.21083-0.0454h-0.13198v-0.21255h0.13884q0.12427 0 0.18512-0.0386 0.0609-0.0394 0.0609-0.11913 0-0.0737-0.0591-0.11399-0.0591-0.0403-0.16712-0.0403-0.0797 0-0.16112 0.018-0.0814 0.018-0.16198 0.0531v-0.24169q0.0977-0.0274 0.19369-0.0411 0.096-0.0137 0.18854-0.0137 0.2494 0 0.37281 0.0823 0.12427 0.0814 0.12427 0.24597 0 0.11227-0.0591 0.18426-0.0591 0.0711-0.17484 0.10027z"/><path d="m170.12 413.68h1.1793v0.2494h-0.42423v1.0302h-0.32995v-1.0302h-0.42509v-0.2494z"/></g></g><g transform="matrix(1.8787 0 0 1.883 -50.535 -317.37)"><rect x="168.45" y="401.08" width="3.9417" height="1.9916" rx=".047399" ry=".023128"/><g transform="scale(1.0397 .96177)" fill="#fff"><path d="m162.56 418.44h0.56307v0.24254h-0.92988v-0.24254l0.46708-0.41223q0.0626-0.0566 0.0926-0.11056 0.03-0.054 0.03-0.11227 0-0.09-0.0608-0.14484-0.06-0.0548-0.16026-0.0548-0.0771 0-0.16884 0.0334-0.0917 0.0326-0.19626 0.0977v-0.28111q0.11141-0.0369 0.22026-0.0557 0.10884-0.0197 0.2134-0.0197 0.22968 0 0.35652 0.10113 0.1277 0.10113 0.1277 0.28196 0 0.10456-0.054 0.19541-0.054 0.09-0.22711 0.24168l-0.2734 0.23997z"/><path d="m163.78 418.44h0.56307v0.24254h-0.92988v-0.24254l0.46708-0.41223q0.0626-0.0566 0.0926-0.11056 0.03-0.054 0.03-0.11227 0-0.09-0.0609-0.14484-0.06-0.0548-0.16026-0.0548-0.0771 0-0.16884 0.0334-0.0917 0.0326-0.19626 0.0977v-0.28111q0.11142-0.0369 0.22026-0.0557 0.10884-0.0197 0.2134-0.0197 0.22969 0 0.35653 0.10113 0.1277 0.10113 0.1277 0.28196 0 0.10456-0.054 0.19541-0.054 0.09-0.22711 0.24168l-0.27339 0.23997z"/><path d="m164.5 417.4h1.1793v0.2494h-0.42423v1.0302h-0.32996v-1.0302h-0.42509v-0.2494z"/></g></g><g transform="matrix(1.8787 0 0 1.883 -50.82 -319.74)"><rect x="176.16" y="402.34" width="3.9417" height="1.9916" rx=".047399" ry=".023128"/><g transform="scale(1.0397 .96177)" fill="#fff"><path d="m169.96 419.75h0.56307v0.24254h-0.92988v-0.24254l0.46708-0.41223q0.0626-0.0566 0.0926-0.11056 0.03-0.054 0.03-0.11227 0-0.09-0.0608-0.14484-0.06-0.0548-0.16027-0.0548-0.0771 0-0.16883 0.0334-0.0917 0.0326-0.19626 0.0977v-0.28111q0.11141-0.0368 0.22026-0.0557 0.10884-0.0197 0.2134-0.0197 0.22968 0 0.35652 0.10113 0.1277 0.10113 0.1277 0.28197 0 0.10456-0.054 0.1954-0.054 0.09-0.22712 0.24168l-0.27339 0.23997z"/><path d="m171.33 418.99-0.36167 0.53565h0.36167zm-0.0548-0.27168h0.36681v0.80733h0.18254v0.23911h-0.18254v0.23311h-0.31196v-0.23311h-0.56736v-0.28282z"/><path d="m171.91 418.72h1.1793v0.2494h-0.42423v1.0302h-0.32995v-1.0302h-0.42509v-0.2494z"/></g></g><g transform="matrix(1.8787 0 0 1.883 -15.159 -342.16)"><rect x="163.87" y="396.83" width="3.9417" height="1.9916" rx=".047399" ry=".023128"/><g transform="scale(1.0397 .96177)" fill="#fff"><path d="m158.12 414.02h0.56307v0.24254h-0.92988v-0.24254l0.46709-0.41224q0.0626-0.0566 0.0925-0.11055 0.03-0.054 0.03-0.11227 0-0.09-0.0608-0.14484-0.06-0.0549-0.16026-0.0549-0.0771 0-0.16884 0.0334-0.0917 0.0326-0.19626 0.0977v-0.2811q0.11142-0.0369 0.22026-0.0557 0.10884-0.0197 0.2134-0.0197 0.22968 0 0.35652 0.10113 0.1277 0.10113 0.1277 0.28196 0 0.10456-0.054 0.19541-0.054 0.09-0.22711 0.24168l-0.2734 0.23997z"/><path d="m159.04 414.04h0.29139v-0.82704l-0.29911 0.0617v-0.22455l0.29739-0.0617h0.31368v1.0516h0.29139v0.22797h-0.89474v-0.22797z"/><path d="m161.11 413.03v0.27082q-0.10542-0.0471-0.20569-0.0711t-0.1894-0.024q-0.11827 0-0.17484 0.0326-0.0566 0.0326-0.0566 0.10113 0 0.0514 0.0377 0.0806 0.0386 0.0283 0.13884 0.0489l0.14055 0.0283q0.2134 0.0428 0.30339 0.13027 0.09 0.0874 0.09 0.24854 0 0.21169-0.12598 0.31539-0.12513 0.10284-0.3831 0.10284-0.1217 0-0.24425-0.0231-0.12256-0.0231-0.24511-0.0686v-0.27854q0.12255 0.0651 0.23654 0.0986 0.11484 0.0326 0.22111 0.0326 0.10799 0 0.16541-0.036 0.0574-0.036 0.0574-0.10284 0-0.06-0.0394-0.0926-0.0386-0.0326-0.15513-0.0583l-0.12769-0.0283q-0.19198-0.0411-0.28111-0.13113-0.0883-0.09-0.0883-0.24254 0-0.19111 0.12342-0.29396 0.12341-0.10284 0.35481-0.10284 0.10541 0 0.21683 0.0163 0.11141 0.0154 0.23054 0.0471z"/></g></g><g transform="matrix(1.8787 0 0 1.883 -14.696 -343.41)"><path d="m174.34 397.49h3.8469c0.0263 0 0.0474 0.0103 0.0474 0.0231v1.9454c0 0.0128-0.0211 0.0231-0.0474 0.0231h-3.8469c-0.0263 0-0.0474-0.0103-0.0474-0.0231v-1.9454c0-0.0128 0.0211-0.0231 0.0474-0.0231z"/><g transform="scale(1.0397 .96177)" fill="#fff"><path d="m168.14 414.71h0.56307v0.24254h-0.92988v-0.24254l0.46708-0.41223q0.0626-0.0566 0.0926-0.11056 0.03-0.054 0.03-0.11227 0-0.09-0.0609-0.14484-0.06-0.0548-0.16027-0.0548-0.0771 0-0.16883 0.0334-0.0917 0.0326-0.19626 0.0977v-0.28111q0.11141-0.0369 0.22025-0.0557 0.10885-0.0197 0.2134-0.0197 0.22969 0 0.35653 0.10113 0.1277 0.10113 0.1277 0.28197 0 0.10456-0.054 0.1954-0.054 0.09-0.22712 0.24168l-0.27339 0.23997z"/><path d="m169.68 414.27q0.12941 0.0334 0.19626 0.11656 0.0677 0.0823 0.0677 0.20997 0 0.19026-0.1457 0.28968-0.14569 0.0986-0.42509 0.0986-0.0985 0-0.19797-0.0163-0.0986-0.0154-0.1954-0.0471v-0.25454q0.0926 0.0463 0.1834 0.0703 0.0917 0.0231 0.17998 0.0231 0.13112 0 0.20054-0.0454 0.0703-0.0454 0.0703-0.13027 0-0.0874-0.072-0.13198-0.0711-0.0454-0.21083-0.0454h-0.13198v-0.21255h0.13884q0.12427 0 0.18511-0.0386 0.0609-0.0394 0.0609-0.11913 0-0.0737-0.0591-0.11399-0.0591-0.0403-0.16712-0.0403-0.0797 0-0.16112 0.018-0.0814 0.018-0.16198 0.0531v-0.24169q0.0977-0.0274 0.19369-0.0411 0.096-0.0137 0.18854-0.0137 0.2494 0 0.37281 0.0823 0.12427 0.0814 0.12427 0.24597 0 0.11227-0.0591 0.18426-0.0591 0.0711-0.17484 0.10027z"/><path d="m171.13 413.72v0.27082q-0.10542-0.0471-0.20569-0.0711-0.10028-0.024-0.18941-0.024-0.11827 0-0.17483 0.0326-0.0566 0.0326-0.0566 0.10113 0 0.0514 0.0377 0.0806 0.0386 0.0283 0.13884 0.0489l0.14056 0.0283q0.2134 0.0428 0.30339 0.13027 0.09 0.0874 0.09 0.24854 0 0.21168-0.12598 0.31538-0.12513 0.10285-0.38309 0.10285-0.1217 0-0.24426-0.0231-0.12255-0.0231-0.24511-0.0686v-0.27854q0.12256 0.0651 0.23654 0.0986 0.11485 0.0326 0.22112 0.0326 0.10798 0 0.1654-0.036 0.0574-0.036 0.0574-0.10284 0-0.06-0.0394-0.0926-0.0386-0.0326-0.15512-0.0583l-0.1277-0.0283q-0.19197-0.0411-0.28111-0.13113-0.0883-0.09-0.0883-0.24254 0-0.19112 0.12341-0.29396 0.12342-0.10285 0.35481-0.10285 0.10542 0 0.21683 0.0163 0.11142 0.0154 0.23055 0.0471z"/></g></g><g transform="matrix(1.8787 0 0 1.883 -23.766 -317.37)"><rect x="168.45" y="401.08" width="3.9417" height="1.9916" rx=".047399" ry=".023128"/><g transform="scale(1.0397 .96177)" fill="#fff"><path d="m162.52 418.44h0.56307v0.24254h-0.92988v-0.24254l0.46708-0.41223q0.0626-0.0566 0.0926-0.11056 0.03-0.054 0.03-0.11227 0-0.09-0.0608-0.14484-0.06-0.0548-0.16027-0.0548-0.0771 0-0.16883 0.0334-0.0917 0.0326-0.19626 0.0977v-0.28111q0.11141-0.0369 0.22026-0.0557 0.10884-0.0197 0.2134-0.0197 0.22968 0 0.35652 0.10113 0.1277 0.10113 0.1277 0.28196 0 0.10456-0.054 0.19541-0.054 0.09-0.22712 0.24168l-0.27339 0.23997z"/><path d="m163.74 418.44h0.56307v0.24254h-0.92988v-0.24254l0.46709-0.41223q0.0626-0.0566 0.0926-0.11056 0.03-0.054 0.03-0.11227 0-0.09-0.0608-0.14484-0.06-0.0548-0.16026-0.0548-0.0771 0-0.16884 0.0334-0.0917 0.0326-0.19626 0.0977v-0.28111q0.11142-0.0369 0.22026-0.0557 0.10884-0.0197 0.2134-0.0197 0.22969 0 0.35653 0.10113 0.12769 0.10113 0.12769 0.28196 0 0.10456-0.054 0.19541-0.054 0.09-0.22711 0.24168l-0.2734 0.23997z"/><path d="m165.51 417.45v0.27082q-0.10542-0.0471-0.20569-0.0711t-0.1894-0.024q-0.11827 0-0.17484 0.0326-0.0566 0.0326-0.0566 0.10113 0 0.0514 0.0377 0.0806 0.0386 0.0283 0.13884 0.0489l0.14055 0.0283q0.2134 0.0429 0.30339 0.13027 0.09 0.0874 0.09 0.24854 0 0.21169-0.12599 0.31539-0.12512 0.10284-0.38309 0.10284-0.1217 0-0.24425-0.0231-0.12256-0.0231-0.24512-0.0686v-0.27853q0.12256 0.0651 0.23655 0.0985 0.11484 0.0326 0.22111 0.0326 0.10799 0 0.16541-0.036 0.0574-0.036 0.0574-0.10285 0-0.06-0.0394-0.0926-0.0386-0.0326-0.15512-0.0583l-0.1277-0.0283q-0.19197-0.0411-0.2811-0.13112-0.0883-0.09-0.0883-0.24254 0-0.19112 0.12342-0.29397 0.12341-0.10284 0.35481-0.10284 0.10541 0 0.21683 0.0163 0.11141 0.0154 0.23054 0.0471z"/></g></g><g transform="matrix(1.8787 0 0 1.883 -18.189 -319.74)"><rect x="176.16" y="402.34" width="3.9417" height="1.9916" rx=".047399" ry=".023128"/><g transform="scale(1.0397 .96177)" fill="#fff"><path d="m169.93 419.75h0.56307v0.24254h-0.92988v-0.24254l0.46708-0.41223q0.0626-0.0566 0.0926-0.11056 0.03-0.054 0.03-0.11227 0-0.09-0.0608-0.14484-0.06-0.0548-0.16027-0.0548-0.0771 0-0.16883 0.0334-0.0917 0.0326-0.19626 0.0977v-0.28111q0.11141-0.0368 0.22025-0.0557 0.10885-0.0197 0.21341-0.0197 0.22968 0 0.35652 0.10113 0.1277 0.10113 0.1277 0.28197 0 0.10456-0.054 0.1954-0.054 0.09-0.22712 0.24168l-0.27339 0.23997z"/><path d="m171.29 418.99-0.36167 0.53565h0.36167zm-0.0548-0.27168h0.36681v0.80733h0.18254v0.23911h-0.18254v0.23311h-0.31196v-0.23311h-0.56736v-0.28282z"/><path d="m172.92 418.76v0.27083q-0.10542-0.0471-0.20569-0.0711t-0.18941-0.024q-0.11827 0-0.17483 0.0326-0.0566 0.0326-0.0566 0.10113 0 0.0514 0.0377 0.0806 0.0386 0.0283 0.13884 0.0489l0.14056 0.0283q0.2134 0.0428 0.30339 0.13027 0.09 0.0874 0.09 0.24853 0 0.21169-0.12598 0.31539-0.12513 0.10285-0.38309 0.10285-0.1217 0-0.24426-0.0231-0.12255-0.0231-0.24511-0.0686v-0.27853q0.12256 0.0651 0.23654 0.0986 0.11485 0.0326 0.22112 0.0326 0.10798 0 0.1654-0.036 0.0574-0.036 0.0574-0.10284 0-0.06-0.0394-0.0926-0.0386-0.0326-0.15512-0.0583l-0.1277-0.0283q-0.19197-0.0411-0.2811-0.13113-0.0883-0.09-0.0883-0.24254 0-0.19112 0.12341-0.29396 0.12342-0.10285 0.35481-0.10285 0.10542 0 0.21683 0.0163 0.11142 0.0154 0.23055 0.0471z"/></g></g></svg>
