<svg width="442" height="44.5" version="1.1" viewBox="66 376 220.07 13.54" xmlns="http://www.w3.org/2000/svg"><rect x="66.248" y="371.94" width="219.57" height="21.66" stroke="#3f3230" stroke-width=".49638"/><rect transform="scale(-1,1)" x="-285.32" y="372.44" width="218.58" height="20.663" rx=".99579" ry=".99579" fill="#3f3230" fill-opacity=".99149"/><g fill="#fff" stroke-width=".93613"><g transform="matrix(.74978 0 0 .74978 6.7887 87.466)"><path d="m93.235 386.73h0.54763v0.21854h-0.90439v-0.21854l0.45428-0.37143q0.0609-0.051 0.0901-0.0996 0.0292-0.0487 0.0292-0.10116 0-0.0811-0.0592-0.13051-0.0584-0.0494-0.15587-0.0494-0.075 0-0.16421 0.0301-0.0892 0.0294-0.19088 0.088v-0.25329q0.10836-0.0331 0.21422-0.0502 0.10586-0.0177 0.20755-0.0177 0.22339 0 0.34675 0.0911 0.1242 0.0911 0.1242 0.25406 0 0.0942-0.0525 0.17606-0.0525 0.0811-0.22089 0.21777l-0.2659 0.21622z"/><path d="m94.548 386.38q-0.0842 0-0.1267 0.051-0.0417 0.0502-0.0417 0.15135 0 0.10116 0.0417 0.15213 0.0425 0.0502 0.1267 0.0502 0.085 0 0.1267-0.0502 0.0425-0.051 0.0425-0.15213 0-0.10116-0.0425-0.15135-0.0417-0.051-0.1267-0.051zm0.39676-0.55368v0.21313q-0.0792-0.0348-0.1492-0.051-0.07-0.017-0.1367-0.017-0.14337 0-0.22339 0.0742-0.08 0.0733-0.0934 0.21854 0.055-0.0378 0.11921-0.0564 0.0642-0.0193 0.14003-0.0193 0.19088 0 0.30757 0.10347 0.11753 0.10348 0.11753 0.27105 0 0.18533-0.13086 0.2973-0.13087 0.11121-0.35092 0.11121-0.24257 0-0.37593-0.15136-0.13253-0.15213-0.13253-0.4309 0-0.28572 0.15504-0.44865 0.15586-0.16371 0.42677-0.16371 0.0859 0 0.1667 0.0123t0.16004 0.037z"/></g><g transform="matrix(.74924 0 0 .74924 8.4672 87.609)"><path d="m103.81 386.73h0.54764v0.21853h-0.90439v-0.21853l0.45428-0.37144q0.0609-0.051 0.0901-0.0996 0.0292-0.0487 0.0292-0.10116 0-0.0811-0.0592-0.1305-0.0584-0.0494-0.15587-0.0494-0.075 0-0.16421 0.0301-0.0892 0.0294-0.19088 0.088v-0.25329q0.10837-0.0333 0.21422-0.0502 0.10586-0.0177 0.20755-0.0177 0.22339 0 0.34676 0.0911 0.12419 0.0911 0.12419 0.25406 0 0.0942-0.0525 0.17606-0.0525 0.0811-0.22088 0.21777l-0.26591 0.21621z"/><path d="m105.09 386.44q-0.0901 0-0.13837 0.0456-0.0483 0.0456-0.0483 0.1305 0 0.085 0.0483 0.13051 0.0483 0.0448 0.13837 0.0448 0.0892 0 0.1367-0.0448 0.0476-0.0456 0.0476-0.13051 0-0.0857-0.0476-0.1305-0.0476-0.0456-0.1367-0.0456zm-0.23422-0.0981q-0.11337-0.0316-0.17089-0.0973-0.0575-0.0657-0.0575-0.16371 0-0.14595 0.11753-0.22241 0.11753-0.0764 0.34508-0.0764 0.2259 0 0.34343 0.0764 0.11752 0.0757 0.11752 0.22241 0 0.0981-0.0584 0.16371-0.0575 0.0657-0.17088 0.0973 0.1267 0.0324 0.19088 0.1058 0.0651 0.0726 0.0651 0.18378 0 0.17143-0.12336 0.25946-0.12254 0.0873-0.36427 0.0873-0.24255 0-0.36675-0.0873-0.12336-0.088-0.12336-0.25946 0-0.11119 0.0642-0.18378 0.065-0.0734 0.19172-0.1058zm0.075-0.23089q0 0.0688 0.0408 0.10579 0.0417 0.037 0.11837 0.037 0.075 0 0.11586-0.037 0.0409-0.037 0.0409-0.10579 0-0.0687-0.0409-0.10503-0.0408-0.037-0.11586-0.037-0.0766 0-0.11837 0.037-0.0408 0.037-0.0408 0.10503z"/></g><g transform="matrix(.7507 0 0 .7507 .17623 91.252)"><path d="m93.311 381.11h0.54763v0.21853h-0.90439v-0.21853l0.45428-0.37144q0.0609-0.051 0.0901-0.0996t0.0292-0.10116q0-0.0811-0.0592-0.1305-0.0584-0.0494-0.15588-0.0494-0.075 0-0.1642 0.0301-0.0892 0.0294-0.19088 0.088v-0.25329q0.10836-0.0332 0.21421-0.0502 0.10587-0.0177 0.20755-0.0177 0.2234 0 0.34676 0.0911 0.1242 0.0911 0.1242 0.25407 0 0.0942-0.0525 0.17606-0.0525 0.0811-0.22089 0.21776l-0.26589 0.21622z"/><path d="m94.186 380.17h0.79769v0.21854h-0.5418v0.17838q0.0367-9e-3 0.0733-0.0139 0.0375-5e-3 0.0775-5e-3 0.22756 0 0.35426 0.10579 0.1267 0.10503 0.1267 0.29345 0 0.18688-0.13837 0.29267-0.13754 0.1058-0.3826 0.1058-0.10586 0-0.21005-0.0193-0.10336-0.0186-0.20589-0.0571v-0.23398q0.1017 0.0541 0.19256 0.0811 0.0917 0.027 0.17253 0.027 0.1167 0 0.18339-0.0525 0.0675-0.0532 0.0675-0.14362 0-0.0911-0.0675-0.14364-0.0667-0.0525-0.18339-0.0525-0.0691 0-0.14753 0.017-0.0784 0.0162-0.16837 0.051v-0.64866z"/></g><g transform="matrix(.7635 0 0 .7635 .4489 86.42)"><path d="m103.88 381.11h0.54764v0.21854h-0.90439v-0.21854l0.45427-0.37143q0.0609-0.051 0.0901-0.0996 0.0292-0.0487 0.0292-0.10116 0-0.0811-0.0591-0.13051-0.0584-0.0495-0.15588-0.0495-0.075 0-0.1642 0.0301-0.0892 0.0294-0.19088 0.088v-0.25329q0.10836-0.0332 0.21421-0.0502 0.10587-0.0177 0.20755-0.0177 0.2234 0 0.34676 0.0911 0.1242 0.0911 0.1242 0.25406 0 0.0942-0.0525 0.17606-0.0525 0.0811-0.22089 0.21777l-0.26589 0.21622z"/><path d="m104.7 380.18h0.93773v0.16757l-0.48513 0.98537h-0.31257l0.45927-0.93437h-0.5993z"/></g></g><rect x="148.75" y="390.35" width="24.75" height="1.3678" fill="#f9ff00" stroke-width=".93615"/><g stroke-width=".93615px"><path d="m149.06 391.29h0.21255v-0.73473l-0.23122 0.0465v-0.11869l0.22994-0.0465h0.13011v0.85342h0.21255v0.10966h-0.55393z"/><path d="m150.13 390.52q-0.10048 0-0.15136 0.0993-0.0502 0.0987-0.0502 0.29738 0 0.19803 0.0502 0.29737 0.0509 0.0987 0.15136 0.0987 0.10112 0 0.15136-0.0987 0.0509-0.0993 0.0509-0.29737 0-0.19868-0.0509-0.29738-0.0502-0.0993-0.15136-0.0993zm0-0.10321q0.16167 0 0.24669 0.12836 0.0857 0.12772 0.0857 0.37156 0 0.24319-0.0857 0.37155-0.085 0.12772-0.24669 0.12772-0.16167 0-0.24733-0.12772-0.085-0.12836-0.085-0.37155 0-0.24384 0.085-0.37156 0.0857-0.12836 0.24733-0.12836z"/><path d="m150.88 390.43h0.10949l-0.33493 1.0856h-0.10949z"/><path d="m151.14 391.29h0.21256v-0.73473l-0.23124 0.0465v-0.11869l0.22995-0.0465h0.13011v0.85342h0.21254v0.10966h-0.55392z"/><path d="m152.22 390.52q-0.10048 0-0.15136 0.0993-0.0502 0.0987-0.0502 0.29738 0 0.19803 0.0502 0.29737 0.0509 0.0987 0.15136 0.0987 0.10112 0 0.15136-0.0987 0.0509-0.0993 0.0509-0.29737 0-0.19868-0.0509-0.29738-0.0502-0.0993-0.15136-0.0993zm0-0.10321q0.16167 0 0.24669 0.12836 0.0857 0.12772 0.0857 0.37156 0 0.24319-0.0857 0.37155-0.085 0.12772-0.24669 0.12772-0.16167 0-0.24733-0.12772-0.085-0.12836-0.085-0.37155 0-0.24384 0.085-0.37156 0.0857-0.12836 0.24733-0.12836z"/><path d="m153.05 390.52q-0.10047 0-0.15135 0.0993-0.0502 0.0987-0.0502 0.29738 0 0.19803 0.0502 0.29737 0.0509 0.0987 0.15135 0.0987 0.10113 0 0.15137-0.0987 0.0509-0.0993 0.0509-0.29737 0-0.19868-0.0509-0.29738-0.0502-0.0993-0.15137-0.0993zm0-0.10321q0.16168 0 0.2467 0.12836 0.0857 0.12772 0.0857 0.37156 0 0.24319-0.0857 0.37155-0.085 0.12772-0.2467 0.12772-0.16166 0-0.24733-0.12772-0.085-0.12836-0.085-0.37155 0-0.24384 0.085-0.37156 0.0857-0.12836 0.24733-0.12836z"/><path d="m153.79 390.43h0.1095l-0.33494 1.0856h-0.10949z"/><path d="m154.05 391.29h0.21256v-0.73473l-0.23124 0.0465v-0.11869l0.22995-0.0465h0.13011v0.85342h0.21255v0.10966h-0.55393z"/><path d="m155.14 390.52q-0.10048 0-0.15137 0.0993-0.0502 0.0987-0.0502 0.29738 0 0.19803 0.0502 0.29737 0.0509 0.0987 0.15137 0.0987 0.10112 0 0.15136-0.0987 0.0509-0.0993 0.0509-0.29737 0-0.19868-0.0509-0.29738-0.0502-0.0993-0.15136-0.0993zm0-0.10321q0.16166 0 0.24668 0.12836 0.0857 0.12772 0.0857 0.37156 0 0.24319-0.0857 0.37155-0.085 0.12772-0.24668 0.12772-0.16167 0-0.24734-0.12772-0.085-0.12836-0.085-0.37155 0-0.24384 0.085-0.37156 0.0857-0.12836 0.24734-0.12836z"/><path d="m155.96 390.52q-0.10048 0-0.15136 0.0993-0.0502 0.0987-0.0502 0.29738 0 0.19803 0.0502 0.29737 0.0509 0.0987 0.15136 0.0987 0.10112 0 0.15136-0.0987 0.0509-0.0993 0.0509-0.29737 0-0.19868-0.0509-0.29738-0.0502-0.0993-0.15136-0.0993zm0-0.10321q0.16167 0 0.24669 0.12836 0.0857 0.12772 0.0857 0.37156 0 0.24319-0.0857 0.37155-0.085 0.12772-0.24669 0.12772-0.16167 0-0.24733-0.12772-0.085-0.12836-0.085-0.37155 0-0.24384 0.085-0.37156 0.0857-0.12836 0.24733-0.12836z"/><path d="m156.78 390.52q-0.10048 0-0.15136 0.0993-0.0502 0.0987-0.0502 0.29738 0 0.19803 0.0502 0.29737 0.0509 0.0987 0.15136 0.0987 0.10113 0 0.15136-0.0987 0.0509-0.0993 0.0509-0.29737 0-0.19868-0.0509-0.29738-0.0502-0.0993-0.15136-0.0993zm0-0.10321q0.16167 0 0.2467 0.12836 0.0857 0.12772 0.0857 0.37156 0 0.24319-0.0857 0.37155-0.085 0.12772-0.2467 0.12772-0.16167 0-0.24733-0.12772-0.085-0.12836-0.085-0.37155 0-0.24384 0.085-0.37156 0.0857-0.12836 0.24733-0.12836z"/><path d="m166.24 390.55v0.36188h0.1636q0.0908 0 0.14041-0.0471 0.0496-0.0471 0.0496-0.13418 0-0.0865-0.0496-0.13353-0.0496-0.0471-0.14041-0.0471h-0.1636zm-0.13011-0.10708h0.29371q0.16167 0 0.24411 0.0736 0.0831 0.0729 0.0831 0.21415 0 0.14256-0.0831 0.21546-0.0824 0.0729-0.24411 0.0729h-0.1636v0.38704h-0.13011z"/><path d="m167.12 390.76q-0.0953 0-0.15072 0.0749-0.0554 0.0742-0.0554 0.20384 0 0.12966 0.0547 0.20449 0.0554 0.0742 0.15137 0.0742 0.0947 0 0.15007-0.0749 0.0554-0.0749 0.0554-0.20384 0-0.12836-0.0554-0.20319-0.0554-0.0755-0.15007-0.0755zm0-0.10063q0.15458 0 0.24282 0.10063 0.0882 0.10063 0.0882 0.27867 0 0.17739-0.0882 0.27866-0.0882 0.10063-0.24282 0.10063-0.15523 0-0.24347-0.10063-0.0876-0.10127-0.0876-0.27866 0-0.17804 0.0876-0.27867 0.0882-0.10063 0.24347-0.10063z"/><path d="m168.05 390.79q-0.0199-0.0116-0.0438-0.0168-0.0232-6e-3 -0.0515-6e-3 -0.10048 0-0.15459 0.0658-0.0535 0.0651-0.0535 0.18772v0.38058h-0.11916v-0.72247h0.11916v0.11224q0.0373-0.0658 0.0973-0.0974 0.0599-0.0322 0.14557-0.0322 0.0122 0 0.027 2e-3 0.0148 9.4e-4 0.0328 5e-3l6.4e-4 0.12193z"/><path d="m168.29 390.47v0.20513h0.24411v0.0923h-0.24411v0.39219q0 0.0883 0.0239 0.11354 0.0245 0.0251 0.0985 0.0251h0.12174v0.0993h-0.12174q-0.13719 0-0.18936-0.051-0.0522-0.0516-0.0522-0.18707v-0.3922h-0.087v-0.0923h0.087v-0.20513h0.11916z"/><path d="m169.13 390.7v0.11224q-0.0502-0.0258-0.10435-0.0387-0.0541-0.0129-0.11207-0.0129-0.0882 0-0.13268 0.0271-0.0438 0.0271-0.0438 0.0813 0 0.0413 0.0315 0.0651 0.0315 0.0232 0.1269 0.0445l0.0406 9e-3q0.12625 0.0271 0.17907 0.0767 0.0535 0.049 0.0535 0.13739 0 0.10063-0.0799 0.15933-0.0792 0.0587-0.21835 0.0587-0.058 0-0.12109-0.0116-0.0625-0.011-0.13204-0.0335v-0.12256q0.0657 0.0342 0.12946 0.0516 0.0638 0.0168 0.12625 0.0168 0.0837 0 0.12882-0.0284 0.0451-0.029 0.0451-0.0812 0-0.0484-0.0328-0.0742-0.0322-0.0258-0.14235-0.0497l-0.0412-0.01q-0.11014-0.0232-0.15909-0.0709-0.0489-0.0483-0.0489-0.13223 0-0.10192 0.0721-0.1574 0.0721-0.0555 0.20482-0.0555 0.0657 0 0.12367 0.01 0.058 0.01 0.10692 0.029z"/><path d="m170.04 390.4q-0.0863 0.14837-0.12817 0.2935-0.0419 0.14514-0.0419 0.29415t0.0419 0.29544q0.0425 0.14579 0.12817 0.2935h-0.10305q-0.0966-0.15159-0.14493-0.29801-0.0477-0.14643-0.0477-0.29093 0-0.14385 0.0477-0.28963t0.14493-0.29802z"/><path d="m170.29 391.29h0.21256v-0.73473l-0.23124 0.0465v-0.11869l0.22995-0.0465h0.13011v0.85342h0.21255v0.10966h-0.55393z"/><path d="m171.02 390.99h0.34717v0.10579h-0.34717z"/><path d="m171.67 391.29h0.45409v0.10966h-0.61061v-0.10966q0.0741-0.0767 0.2016-0.20577 0.12817-0.12966 0.16103-0.16707 0.0625-0.0703 0.087-0.1187 0.0252-0.049 0.0252-0.0961 0-0.0767-0.0541-0.12515-0.0535-0.0483-0.13978-0.0483-0.0612 0-0.12945 0.0213-0.0676 0.0213-0.14492 0.0645v-0.13159q0.0786-0.0316 0.14684-0.0478 0.0683-0.0161 0.12496-0.0161 0.14943 0 0.23832 0.0748 0.0889 0.0749 0.0889 0.19998 0 0.0593-0.0225 0.11289-0.0219 0.0529-0.0805 0.12513-0.0161 0.0187-0.10241 0.10838-0.0863 0.089-0.24346 0.24963z"/><path d="m172.75 390.55-0.32849 0.51411h0.32849zm-0.0341-0.11353h0.1636v0.62764h0.1372v0.10838h-0.1372v0.22706h-0.12945v-0.22706h-0.43413v-0.1258z"/><path d="m173.18 390.4h0.10305q0.0966 0.15224 0.14429 0.29802 0.0483 0.14578 0.0483 0.28963 0 0.1445-0.0483 0.29093-0.0477 0.14642-0.14429 0.29801h-0.10305q0.0857-0.14771 0.12753-0.2935 0.0425-0.14643 0.0425-0.29544t-0.0425-0.29415q-0.0419-0.14513-0.12753-0.2935z"/></g><g fill="#fff"><g stroke-width=".58438"><path d="m179.15 375.74h0.17691v-0.46518l-0.1816 0.0347v-0.1263l0.18056-0.0347h0.19045v0.59149h0.17691v0.12823h-0.54323v-0.12823z"/><path d="m186.54 375.46q0.0786 0.0188 0.11915 0.0655 0.0411 0.0463 0.0411 0.1181 0 0.10702-0.0884 0.16293-0.0885 0.0554-0.2581 0.0554-0.0598 0-0.12021-9e-3 -0.0598-9e-3 -0.11864-0.0265v-0.14317q0.0562 0.026 0.11137 0.0395 0.0557 0.013 0.10926 0.013 0.0796 0 0.12176-0.0255 0.0427-0.0256 0.0427-0.0733 0-0.0491-0.0437-0.0742-0.0431-0.0255-0.128-0.0255h-0.0801v-0.11955h0.0843q0.0755 0 0.11241-0.0217 0.037-0.0222 0.037-0.067 0-0.0415-0.0359-0.0641t-0.10147-0.0226q-0.0484 0-0.0978 0.0101t-0.0984 0.0298v-0.13593q0.0593-0.0154 0.1176-0.0231 0.0583-8e-3 0.11447-8e-3 0.15141 0 0.22634 0.0464 0.0755 0.0457 0.0755 0.13834 0 0.0631-0.0359 0.10364-0.0359 0.04-0.10613 0.0565z"/><path d="m193.21 375.13h0.49797v0.13642h-0.33822v0.11135q0.023-5e-3 0.0457-9e-3 0.0234-3e-3 0.0484-3e-3 0.14205 0 0.22113 0.0661 0.0791 0.0655 0.0791 0.18317 0 0.11666-0.0864 0.18271-0.0858 0.0661-0.23883 0.0661-0.0661 0-0.13112-0.0121-0.0646-0.0116-0.12853-0.0356v-0.14607q0.0635 0.0337 0.12019 0.0506 0.0572 0.0169 0.10772 0.0169 0.0728 0 0.11447-0.0328 0.0421-0.0332 0.0421-0.0897 0-0.0568-0.0421-0.0897-0.0416-0.0328-0.11447-0.0328-0.0432 0-0.0921 0.0106-0.049 0.0101-0.1051 0.0319v-0.40493z"/><path d="m200.25 375.15h0.58537v0.1046l-0.30283 0.61512h-0.19513l0.28671-0.58329h-0.37412z"/><path d="m205.36 375.84v-0.13304q0.0478 0.0207 0.0916 0.0313 0.0437 0.0101 0.0864 0.0101 0.0895 0 0.13946-0.0457 0.0499-0.0463 0.0587-0.1369-0.0354 0.0241-0.0754 0.0361-0.0401 0.0121-0.0869 0.0121-0.11916 0-0.19252-0.0641-0.0728-0.0646-0.0728-0.16968 0-0.11618 0.0812-0.18608 0.0817-0.0699 0.21854-0.0699 0.15194 0 0.2352 0.095 0.0832 0.095 0.0832 0.26851 0 0.17836-0.0973 0.28055-0.0973 0.10172-0.26692 0.10172-0.0546 0-0.10459-8e-3 -0.0499-7e-3 -0.0978-0.0221zm0.24717-0.34659q0.0526 0 0.0791-0.0313 0.0266-0.0319 0.0266-0.095 0-0.0627-0.0266-0.0945-0.0265-0.0319-0.0791-0.0319t-0.0791 0.0319q-0.0266 0.0319-0.0266 0.0945 0 0.0631 0.0266 0.095 0.0265 0.0313 0.0791 0.0313z"/></g><g stroke-width=".93613"><g transform="matrix(.62425 0 0 .62425 80.01 141.66)"><path d="m214.65 374.98h0.2834v-0.74519l-0.2909 0.0556v-0.20232l0.28924-0.0556h0.30507v0.94753h0.2834v0.20541h-0.87021v-0.20541z"/><path d="m215.84 374.98h0.28341v-0.74519l-0.29091 0.0556v-0.20232l0.28924-0.0556h0.30507v0.94753h0.28341v0.20541h-0.87022v-0.20541z"/></g><g transform="matrix(.62425 0 0 .62425 83.609 141.64)"><path d="m223.06 374.98h0.2834v-0.74519l-0.2909 0.0556v-0.20232l0.28924-0.0556h0.30507v0.94753h0.2834v0.20541h-0.87021v-0.20541z"/><path d="m224.84 374.56q0.12588 0.0301 0.19088 0.10502 0.0659 0.0742 0.0659 0.18919 0 0.17144-0.14171 0.26101-0.14169 0.0888-0.41343 0.0888-0.0959 0-0.19255-0.0147-0.0959-0.0139-0.19004-0.0424v-0.22935q0.0901 0.0417 0.17837 0.0633 0.0892 0.0208 0.17505 0.0208 0.12753 0 0.19505-0.0409 0.0684-0.0409 0.0684-0.11737 0-0.0787-0.07-0.11893-0.0692-0.0409-0.20505-0.0409h-0.12837v-0.19151h0.13504q0.12086 0 0.18004-0.0348 0.0592-0.0355 0.0592-0.10734 0-0.0664-0.0575-0.1027t-0.16254-0.0363q-0.0775 0-0.1567 0.0162t-0.15754 0.0478v-0.21776q0.095-0.0247 0.18838-0.037 0.0934-0.0123 0.18337-0.0123 0.24257 0 0.36259 0.0742 0.12087 0.0733 0.12087 0.22163 0 0.10115-0.0575 0.16602-0.0575 0.0641-0.17005 0.0904z"/></g><g transform="matrix(.62425 0 0 .62425 86.145 141.64)"><path d="m230.19 374.98h0.2834v-0.74519l-0.2909 0.0556v-0.20232l0.28923-0.0556h0.30508v0.94753h0.2834v0.20541h-0.87021v-0.20541z"/><path d="m231.35 374.03h0.7977v0.21854h-0.5418v0.17838q0.0367-9e-3 0.0733-0.0139 0.0375-5e-3 0.0775-5e-3 0.22755 0 0.35425 0.10579 0.1267 0.10502 0.1267 0.29344 0 0.18687-0.13837 0.29267-0.13753 0.10579-0.38259 0.10579-0.10586 0-0.21006-0.0193-0.10335-0.0186-0.20587-0.0571v-0.23398q0.10168 0.0541 0.19254 0.0811 0.0917 0.027 0.17255 0.027 0.11669 0 0.18337-0.0525 0.0675-0.0532 0.0675-0.14364 0-0.0911-0.0675-0.14363-0.0667-0.0525-0.18337-0.0525-0.0692 0-0.14754 0.0169-0.0784 0.0162-0.16838 0.051v-0.64866z"/></g><g transform="matrix(.62425 0 0 .62425 88.769 141.66)"><path d="m237.31 374.98h0.2834v-0.74519l-0.2909 0.0556v-0.20232l0.28924-0.0556h0.30507v0.94753h0.2834v0.20541h-0.87021v-0.20541z"/><path d="m238.41 374.03h0.93773v0.16757l-0.48511 0.98537h-0.31258l0.45927-0.93437h-0.59931z"/></g><g transform="matrix(.62425 0 0 .62425 91.379 141.64)"><path d="m244.44 374.98h0.2834v-0.74519l-0.2909 0.0556v-0.20232l0.28923-0.0556h0.30508v0.94753h0.2834v0.20541h-0.87021v-0.20541z"/><path d="m245.59 375.16v-0.21313q0.0766 0.0332 0.1467 0.0502 0.07 0.0162 0.13837 0.0162 0.14337 0 0.22339-0.0733 0.08-0.0742 0.0942-0.21931-0.0567 0.0386-0.12086 0.0579-0.0642 0.0193-0.1392 0.0193-0.19088 0-0.30842-0.10271-0.11669-0.10348-0.11669-0.27182 0-0.18611 0.13004-0.29808 0.13086-0.11197 0.35008-0.11197 0.24339 0 0.37676 0.15213 0.13336 0.15212 0.13336 0.43012 0 0.28573-0.15587 0.44943-0.15587 0.16294-0.4276 0.16294-0.0875 0-0.16754-0.0123-0.08-0.0116-0.1567-0.0355zm0.39594-0.55522q0.0842 0 0.12669-0.0502 0.0425-0.051 0.0425-0.15212 0-0.10039-0.0425-0.15135-0.0425-0.051-0.12669-0.051-0.0842 0-0.1267 0.051t-0.0425 0.15135q0 0.10116 0.0425 0.15212 0.0425 0.0502 0.1267 0.0502z"/></g><g transform="matrix(.62425 0 0 .62425 94.017 141.65)"><path d="m251.85 374.97h0.54764v0.21854h-0.90439v-0.21854l0.45428-0.37144q0.0609-0.051 0.0901-0.0996 0.0292-0.0487 0.0292-0.10116 0-0.0811-0.0592-0.13051-0.0584-0.0494-0.15587-0.0494-0.075 0-0.1642 0.0301-0.0892 0.0294-0.19088 0.088v-0.25328q0.10835-0.0333 0.21422-0.0502 0.10585-0.0178 0.20755-0.0178 0.22338 0 0.34675 0.0911 0.12419 0.0911 0.12419 0.25405 0 0.0942-0.0525 0.17606-0.0525 0.0811-0.2209 0.21777l-0.26589 0.21623z"/><path d="m252.75 374.98h0.2834v-0.74519l-0.2909 0.0556v-0.20232l0.28923-0.0556h0.30508v0.94753h0.2834v0.20541h-0.87021v-0.20541z"/></g><g transform="matrix(.62425 0 0 .62425 96.615 141.64)"><path d="m258.98 374.97h0.54764v0.21854h-0.90439v-0.21854l0.45427-0.37144q0.0609-0.051 0.0901-0.0996 0.0292-0.0487 0.0292-0.10116 0-0.0811-0.0592-0.13051-0.0584-0.0494-0.15587-0.0494-0.075 0-0.16421 0.0301-0.0892 0.0294-0.19088 0.088v-0.25328q0.10836-0.0333 0.21423-0.0502 0.10585-0.0178 0.20755-0.0178 0.22338 0 0.34674 0.0911 0.1242 0.0911 0.1242 0.25405 0 0.0942-0.0525 0.17606-0.0525 0.0811-0.22089 0.21777l-0.2659 0.21623z"/><path d="m260.47 374.56q0.12587 0.0301 0.19088 0.10502 0.0658 0.0742 0.0658 0.18919 0 0.17144-0.1417 0.26101-0.1417 0.0888-0.41343 0.0888-0.0959 0-0.19255-0.0147-0.0959-0.0139-0.19005-0.0424v-0.22935q0.0901 0.0417 0.17838 0.0633 0.0892 0.0208 0.17504 0.0208 0.12754 0 0.19506-0.0409 0.0684-0.0409 0.0684-0.11737 0-0.0787-0.07-0.11893-0.0691-0.0409-0.20505-0.0409h-0.12836v-0.19151h0.13503q0.12087 0 0.18005-0.0348 0.0592-0.0355 0.0592-0.10734 0-0.0664-0.0575-0.1027t-0.16254-0.0363q-0.0775 0-0.1567 0.0162t-0.15754 0.0478v-0.21776q0.095-0.0247 0.18838-0.037 0.0934-0.0123 0.18337-0.0123 0.24256 0 0.36259 0.0742 0.12086 0.0733 0.12086 0.22163 0 0.10115-0.0575 0.16602-0.0575 0.0641-0.17004 0.0904z"/></g></g><g stroke-width=".58438"><path d="m184.44 375.73h0.34186v0.13642h-0.56457v-0.13642l0.28359-0.23188q0.038-0.0319 0.0562-0.0622 0.0182-0.0304 0.0182-0.0631 0-0.0506-0.0369-0.0815-0.0364-0.0308-0.0973-0.0308-0.0468 0-0.10251 0.0188-0.0557 0.0184-0.11916 0.055v-0.15812q0.0676-0.0207 0.13373-0.0313 0.0661-0.011 0.12957-0.011 0.13945 0 0.21645 0.0568 0.0775 0.0568 0.0775 0.15859 0 0.0588-0.0328 0.10991-0.0328 0.0506-0.13788 0.13594l-0.16599 0.13497z"/><path d="m191.51 375.3-0.21959 0.30128h0.21959zm-0.0333-0.15282h0.22271v0.4541h0.11082v0.13449h-0.11082v0.13113h-0.18941v-0.13113h-0.34447v-0.15907z"/><path d="m198.56 375.5q-0.0526 0-0.0791 0.0318-0.0259 0.0313-0.0259 0.0945 0 0.0631 0.0259 0.095 0.0266 0.0313 0.0791 0.0313 0.0531 0 0.0791-0.0313 0.0265-0.0319 0.0265-0.095t-0.0265-0.0945q-0.0259-0.0318-0.0791-0.0318zm0.24767-0.34563v0.13304q-0.0494-0.0217-0.0931-0.0319-0.0437-0.0106-0.0853-0.0106-0.0895 0-0.13944 0.0463-0.0499 0.0458-0.0583 0.13642 0.0343-0.0236 0.0744-0.0352 0.04-0.0121 0.0874-0.0121 0.11916 0 0.19199 0.0646 0.0733 0.0646 0.0733 0.1692 0 0.11569-0.0817 0.18559-0.0817 0.0694-0.21906 0.0694-0.15142 0-0.23467-0.0945-0.0827-0.095-0.0827-0.26898 0-0.17836 0.0968-0.28008 0.0973-0.10219 0.26642-0.10219 0.0536 0 0.10407 8e-3 0.0505 8e-3 0.0999 0.0231z"/><path d="m207.61 375.53q-0.0562 0-0.0864 0.0285-0.0301 0.0285-0.0301 0.0815 0 0.0531 0.0301 0.0815 0.0302 0.028 0.0864 0.028 0.0557 0 0.0853-0.028 0.0296-0.0285 0.0296-0.0815 0-0.0535-0.0296-0.0815-0.0297-0.0285-0.0853-0.0285zm-0.14621-0.0613q-0.0708-0.0197-0.10668-0.0607-0.0359-0.041-0.0359-0.10219 0-0.0911 0.0733-0.13884 0.0733-0.0477 0.21542-0.0477 0.14101 0 0.21437 0.0477 0.0733 0.0472 0.0733 0.13884 0 0.0613-0.0364 0.10219-0.0359 0.041-0.10667 0.0607 0.0791 0.0202 0.11916 0.0661 0.0406 0.0453 0.0406 0.11473 0 0.10701-0.077 0.16198-0.0765 0.0544-0.22738 0.0544-0.15142 0-0.22895-0.0544-0.077-0.055-0.077-0.16198 0-0.0694 0.04-0.11473 0.0406-0.0458 0.11969-0.0661zm0.0468-0.14414q0 0.043 0.0255 0.0661 0.026 0.0231 0.0739 0.0231 0.0468 0 0.0724-0.0231t0.0256-0.0661q0-0.0429-0.0256-0.0655-0.0255-0.0231-0.0724-0.0231-0.0478 0-0.0739 0.0231-0.0255 0.0231-0.0255 0.0655z"/></g><g stroke-width=".93613"><g transform="matrix(.62425 0 0 .62425 79.469 141.42)"><path d="m212.36 375.34h0.2834v-0.74519l-0.2909 0.0556v-0.20233l0.28924-0.0556h0.30507v0.94753h0.2834v0.2054h-0.87021v-0.2054z"/><path d="m214.13 374.97q0-0.21622-0.0442-0.30425-0.0434-0.0888-0.1467-0.0888-0.10336 0-0.14754 0.0888-0.0442 0.088-0.0442 0.30425 0 0.21854 0.0442 0.30811 0.0442 0.0896 0.14754 0.0896 0.10252 0 0.1467-0.0896 0.0442-0.0896 0.0442-0.30811zm0.32091 3e-3q0 0.28649-0.13337 0.44248-0.13336 0.15521-0.37842 0.15521-0.2459 0-0.37926-0.15521-0.13337-0.15599-0.13337-0.44248 0-0.28727 0.13337-0.44248 0.13336-0.15599 0.37926-0.15599 0.24506 0 0.37842 0.15599 0.13337 0.15521 0.13337 0.44248z"/></g><g transform="matrix(.62425 0 0 .62425 82.077 141.43)"><path d="m219.5 375.34h0.2834v-0.74519l-0.2909 0.0556v-0.20233l0.28924-0.0556h0.30507v0.94753h0.2834v0.2054h-0.87021v-0.2054z"/><path d="m220.97 375.33h0.54764v0.21853h-0.90439v-0.21853l0.45428-0.37145q0.0609-0.051 0.0901-0.0996 0.0292-0.0487 0.0292-0.10115 0-0.0811-0.0591-0.13051-0.0584-0.0494-0.15587-0.0494-0.075 0-0.16421 0.0301-0.0892 0.0294-0.19088 0.088v-0.25328q0.10837-0.0332 0.21422-0.0502 0.10586-0.0177 0.20755-0.0177 0.2234 0 0.34676 0.0911 0.12419 0.0911 0.12419 0.25406 0 0.0942-0.0525 0.17606-0.0525 0.0811-0.22088 0.21777l-0.26591 0.21622z"/></g><g transform="matrix(.62425 0 0 .62425 85.666 141.43)"><path d="m227.87 375.34h0.2834v-0.74519l-0.2909 0.0556v-0.20233l0.28924-0.0556h0.30507v0.94753h0.2834v0.2054h-0.87021v-0.2054z"/><path d="m229.48 374.63-0.35175 0.48263h0.35175zm-0.0533-0.24479h0.35675v0.72742h0.17754v0.21545h-0.17754v0.21005h-0.30341v-0.21005h-0.55181v-0.25483z"/></g><g transform="matrix(.62425 0 0 .62425 88.204 141.42)"><path d="m235.01 375.34h0.2834v-0.74519l-0.2909 0.0556v-0.20233l0.28924-0.0556h0.30507v0.94753h0.2834v0.2054h-0.87021v-0.2054z"/><path d="m236.61 374.98q-0.0842 0-0.1267 0.051-0.0416 0.0502-0.0416 0.15136t0.0416 0.15212q0.0425 0.0502 0.1267 0.0502 0.085 0 0.12669-0.0502 0.0425-0.051 0.0425-0.15212 0-0.10117-0.0425-0.15136-0.0417-0.051-0.12669-0.051zm0.39675-0.55367v0.21313q-0.0792-0.0348-0.1492-0.051-0.07-0.017-0.1367-0.017-0.14337 0-0.22338 0.0742-0.08 0.0734-0.0934 0.21854 0.055-0.0378 0.11919-0.0564 0.0642-0.0193 0.14004-0.0193 0.19088 0 0.30757 0.10348 0.11753 0.10347 0.11753 0.27105 0 0.18533-0.13086 0.2973-0.13087 0.1112-0.35092 0.1112-0.24256 0-0.37592-0.15136-0.13254-0.15212-0.13254-0.43089 0-0.28572 0.15504-0.44866 0.15587-0.16371 0.42677-0.16371 0.0859 0 0.1667 0.0124 0.0808 0.0123 0.16004 0.037z"/></g><g transform="matrix(.62425 0 0 .62425 90.816 141.42)"><path d="m242.15 375.34h0.2834v-0.74519l-0.2909 0.0556v-0.20233l0.28924-0.0556h0.30507v0.94753h0.2834v0.2054h-0.87021v-0.2054z"/><path d="m243.73 375.03q-0.0901 0-0.13837 0.0456-0.0483 0.0456-0.0483 0.1305 0 0.085 0.0483 0.13051 0.0483 0.0448 0.13837 0.0448 0.0892 0 0.1367-0.0448 0.0475-0.0456 0.0475-0.13051 0-0.0857-0.0475-0.1305-0.0476-0.0456-0.1367-0.0456zm-0.23423-0.0981q-0.11335-0.0316-0.17087-0.0973-0.0575-0.0657-0.0575-0.16371 0-0.14594 0.11752-0.2224 0.11753-0.0764 0.34509-0.0764 0.22588 0 0.34342 0.0764 0.11753 0.0757 0.11753 0.2224 0 0.0981-0.0584 0.16371-0.0575 0.0657-0.17088 0.0973 0.1267 0.0324 0.19088 0.10579 0.065 0.0726 0.065 0.18378 0 0.17143-0.12337 0.25947-0.12252 0.0872-0.36425 0.0872-0.24256 0-0.36676-0.0872-0.12337-0.088-0.12337-0.25947 0-0.1112 0.0642-0.18378 0.065-0.0734 0.19171-0.10579zm0.075-0.2309q0 0.0688 0.0409 0.1058 0.0416 0.037 0.11836 0.037 0.075 0 0.11586-0.037 0.0409-0.037 0.0409-0.1058 0-0.0687-0.0409-0.10502-0.0408-0.037-0.11586-0.037-0.0767 0-0.11836 0.037-0.0409 0.037-0.0409 0.10502z"/></g><g transform="matrix(.62425 0 0 .62425 93.439 141.42)"><path d="m249.58 375.33h0.54763v0.21853h-0.90439v-0.21853l0.45428-0.37145q0.0609-0.051 0.0901-0.0996 0.0292-0.0487 0.0292-0.10115 0-0.0811-0.0592-0.13051-0.0584-0.0494-0.15588-0.0494-0.075 0-0.1642 0.0301-0.0892 0.0294-0.19088 0.088v-0.25328q0.10835-0.0332 0.21422-0.0502 0.10586-0.0177 0.20755-0.0177 0.22338 0 0.34675 0.0911 0.1242 0.0911 0.1242 0.25406 0 0.0942-0.0525 0.17606-0.0525 0.0811-0.2209 0.21777l-0.26589 0.21622z"/><path d="m251.05 374.97q0-0.21622-0.0442-0.30425-0.0434-0.0888-0.1467-0.0888-0.10336 0-0.14754 0.0888-0.0442 0.088-0.0442 0.30425 0 0.21854 0.0442 0.30811 0.0442 0.0896 0.14754 0.0896 0.10252 0 0.1467-0.0896 0.0442-0.0896 0.0442-0.30811zm0.32091 3e-3q0 0.28649-0.13337 0.44248-0.13336 0.15521-0.37842 0.15521-0.2459 0-0.37926-0.15521-0.13337-0.15599-0.13337-0.44248 0-0.28727 0.13337-0.44248 0.13336-0.15599 0.37926-0.15599 0.24506 0 0.37842 0.15599 0.13337 0.15521 0.13337 0.44248z"/></g><g transform="matrix(.62425 0 0 .62425 96.068 141.43)"><path d="m256.71 375.33h0.54764v0.21853h-0.90439v-0.21853l0.45428-0.37145q0.0609-0.051 0.0901-0.0996 0.0292-0.0487 0.0292-0.10115 0-0.0811-0.0592-0.13051-0.0584-0.0494-0.15587-0.0494-0.075 0-0.1642 0.0301-0.0892 0.0294-0.19088 0.088v-0.25328q0.10835-0.0332 0.21422-0.0502 0.10585-0.0177 0.20755-0.0177 0.22338 0 0.34675 0.0911 0.12419 0.0911 0.12419 0.25406 0 0.0942-0.0525 0.17606-0.0525 0.0811-0.2209 0.21777l-0.26589 0.21622z"/><path d="m257.9 375.33h0.54764v0.21853h-0.90439v-0.21853l0.45428-0.37145q0.0609-0.051 0.0901-0.0996 0.0292-0.0487 0.0292-0.10115 0-0.0811-0.0591-0.13051-0.0584-0.0494-0.15587-0.0494-0.075 0-0.16421 0.0301-0.0892 0.0294-0.19088 0.088v-0.25328q0.10837-0.0332 0.21422-0.0502 0.10586-0.0177 0.20755-0.0177 0.2234 0 0.34676 0.0911 0.12419 0.0911 0.12419 0.25406 0 0.0942-0.0525 0.17606-0.0525 0.0811-0.22089 0.21777l-0.2659 0.21622z"/></g><g transform="matrix(.62425 0 0 .62425 98.635 141.43)"><path d="m263.85 375.33h0.54764v0.21853h-0.90439v-0.21853l0.45427-0.37145q0.0609-0.051 0.0901-0.0996 0.0292-0.0487 0.0292-0.10115 0-0.0811-0.0592-0.13051-0.0584-0.0494-0.15587-0.0494-0.075 0-0.16421 0.0301-0.0892 0.0294-0.19088 0.088v-0.25328q0.10836-0.0332 0.21423-0.0502 0.10585-0.0177 0.20755-0.0177 0.22338 0 0.34674 0.0911 0.1242 0.0911 0.1242 0.25406 0 0.0942-0.0525 0.17606-0.0525 0.0811-0.22089 0.21777l-0.2659 0.21622z"/><path d="m265.18 374.63-0.35175 0.48263h0.35175zm-0.0533-0.24479h0.35676v0.72742h0.17753v0.21545h-0.17753v0.21005h-0.30341v-0.21005h-0.55181v-0.25483z"/></g></g></g><g stroke-width=".93615"><rect x="177.85" y="376.81" width="43.44" height="13.504" rx=".15784" ry=".069559"/><rect x="221.92" y="376.81" width="43.44" height="13.504" rx=".15784" ry=".069559"/><path d="m177.96 390.16h43.224l-0.0215-13.186-43.203-2.3e-4z" fill="#3a3a3a"/></g><g stroke-width=".933"><path d="m206.93 378.66h1.645l-3e-3 -0.99797 0.59863-5.3e-4v-0.37368h1.9295l-4.5e-4 0.37465h0.6231v0.99807h1.6374v4.2969l-6.43 0.014z" fill="#1a1a1a"/><path d="m211.87 378.4h1.6246v-0.70157h-1.6246z" fill="#abb927"/><path d="m206.79 378.4h1.639v-0.70523h-1.639z" fill="#abb927"/><path d="m213.37 388.46h-1.645l3e-3 0.99798-0.59864 5.3e-4v0.37368h-1.9295l4.5e-4 -0.37466h-0.6231v-0.99807h-1.6374v-4.2969l6.43-0.014z" fill="#1a1a1a"/><path d="m208.43 388.73h-1.6246v0.70157h1.6246z" fill="#abb927"/><path d="m213.52 388.73h-1.639v0.70522h1.639z" fill="#abb927"/></g><path d="m180.64 377.01-2.62 9.7e-4 2e-3 13.094 2.6316 9.9e-4v-0.6297l-2.1154 9.9e-4v-0.81534l0.20863-7e-3v-4.4702l6.4314-4e-3 1e-3 4.4741 0.20862 7e-3v0.81534l-2.1038-9.9e-4v0.6297l2.1668-9.9e-4h3e-3l2.1901 9.9e-4v-0.6297l-2.1164 9.9e-4v-0.81534l0.20863-7e-3 9.9e-4 -4.4702 6.4314-4e-3v4.4741l0.20862 7e-3v0.81534l-2.1038-9.9e-4v0.6297l2.2435-9.9e-4h4e-3l2.1891 9.9e-4v-0.6297l-2.1164 9.9e-4v-0.81534l0.20863-7e-3 9.9e-4 -4.4702 6.4314-4e-3v4.4741l0.20862 7e-3v0.81534l-2.1028-9.9e-4v0.6297l2.2425-9.9e-4 2.193 9.9e-4v-0.6297l-2.1164 9.9e-4v-0.81534l0.2096-7e-3v-4.4702l6.4314-4e-3v4.4741l0.20959 7e-3v0.81534l-2.1038-9.9e-4v0.6297l2.2425-9.9e-4h5e-3l2.1882 9.9e-4v-0.6297l-2.1154 9.9e-4v-0.81534l0.20863-7e-3v-4.4702l6.4314-4e-3 1e-3 4.4741 0.20863 7e-3v0.81534l-2.1038-9.9e-4v0.6297l2.2357-9.9e-4h0.0116l2.1707 9.9e-4v-0.6297l-2.1164 9.9e-4v-0.81534l0.20863-7e-3 1e-3 -4.4974 5e-3 -5e-3 6.4269-0.01v4.512l0.2096 7e-3v0.81535l-2.1038-1e-3v0.62971l2.62-1e-3 -2e-3 -13.094-2.6326-9.7e-4v0.62971l2.1164-1e-3v0.81535l-0.20959 7e-3v4.4702l-6.4314 4e-3v-4.4741l-0.20959-7e-3v-0.81447l2.1038 1e-3v-0.62971l-2.1581 9.7e-4h-0.0116l-2.2483-9.7e-4v0.62971l2.1164-1e-3v0.81535l-0.20863 7e-3 -9.9e-4 4.4974-4e-3 5e-3 -6.4269 9e-3 -9.9e-4 -4.511-0.20863-7e-3v-0.81535l2.1038 1e-3v-0.62971l-2.1765 9.7e-4h-4e-3l-2.2561-9.7e-4v0.62971l2.1164-1e-3v0.81535l-0.20863 7e-3 -1e-3 4.4974-5e-3 5e-3 -6.4269 9e-3v-4.511l-0.20862-7e-3v-0.81535l2.1038 1e-3v-0.62971l-2.1765 9.7e-4 -2.26-9.7e-4v0.62971l2.1164-1e-3v0.81535l-0.2096 7e-3v4.4974l-5e-3 5e-3 -6.4269 9e-3v-4.511l-0.20863-7e-3v-0.81535l2.1028 1e-3v-0.62971l-2.1765 9.7e-4h-4e-3l-2.2551-9.7e-4v0.62971l2.1154-1e-3v0.81535l-0.20863 7e-3v4.4974l-5e-3 5e-3 -6.4269 9e-3v-4.511l-0.2096-7e-3v-0.81535l2.1038 1e-3v-0.62971l-2.1766 9.7e-4h-4e-3l-2.1794-9.7e-4v0.62971l2.1164-1e-3v0.81535l-0.20863 7e-3 -9.9e-4 4.4974-4e-3 5e-3 -6.4269 9e-3 -9.9e-4 -4.511-0.20863-7e-3v-0.81535l2.1038 1e-3v-0.62971z" fill="#ebebeb" stroke-width=".49719"/><g stroke-width=".933"><path d="m199.86 378.66h1.645l-3e-3 -0.99797 0.59863-5.3e-4v-0.37368h1.9295l-4.5e-4 0.37465h0.6231v0.99807h1.6374v4.2969l-6.43 0.014z" fill="#1a1a1a"/><path d="m204.8 378.4h1.6246v-0.70157h-1.6246z" fill="#abb927"/><path d="m199.72 378.4h1.639v-0.70523h-1.639z" fill="#abb927"/><path d="m206.3 388.46h-1.645l3e-3 0.99798-0.59864 5.3e-4v0.37368h-1.9295l4.5e-4 -0.37466h-0.6231v-0.99807h-1.6374v-4.2969l6.43-0.014z" fill="#1a1a1a"/><path d="m201.36 388.73h-1.6246v0.70157h1.6246z" fill="#abb927"/><path d="m206.45 388.73h-1.639v0.70522h1.639z" fill="#abb927"/><path d="m192.8 378.66h1.645l-3e-3 -0.99797 0.59864-5.3e-4v-0.37368h1.9295l-4.5e-4 0.37465h0.6231v0.99807h1.6374v4.2969l-6.43 0.014z" fill="#1a1a1a"/><path d="m197.74 378.4h1.6246v-0.70157h-1.6246z" fill="#abb927"/><path d="m192.66 378.4h1.639v-0.70523h-1.639z" fill="#abb927"/><path d="m199.24 388.46h-1.645l3e-3 0.99798-0.59863 5.3e-4v0.37368h-1.9295l4.5e-4 -0.37466h-0.6231v-0.99807h-1.6374v-4.2969l6.43-0.014z" fill="#1a1a1a"/><path d="m194.29 388.73h-1.6246v0.70157h1.6246z" fill="#abb927"/><path d="m199.39 388.73h-1.639v0.70522h1.639z" fill="#abb927"/><path d="m185.73 378.66h1.645l-3e-3 -0.99797 0.59863-5.3e-4v-0.37368h1.9295l-4.5e-4 0.37465h0.6231v0.99807h1.6374v4.2969l-6.43 0.014z" fill="#1a1a1a"/><path d="m190.67 378.4h1.6246v-0.70157h-1.6246z" fill="#abb927"/><path d="m185.59 378.4h1.639v-0.70523h-1.639z" fill="#abb927"/><path d="m192.17 388.46h-1.645l3e-3 0.99798-0.59864 5.3e-4v0.37368h-1.9295l4.5e-4 -0.37466h-0.6231v-0.99807h-1.6374v-4.2969l6.43-0.014z" fill="#1a1a1a"/><path d="m187.23 388.73h-1.6246v0.70157h1.6246z" fill="#abb927"/><path d="m192.32 388.73h-1.639v0.70522h1.639z" fill="#abb927"/><path d="m178.74 378.66h1.645l-3e-3 -0.99798 0.59863-5.3e-4v-0.37368h1.9295l-4.5e-4 0.37466h0.6231v0.99807h1.6374v4.2969l-6.43 0.014z" fill="#1a1a1a"/><path d="m183.68 378.4h1.6246v-0.70157h-1.6246z" fill="#abb927"/><path d="m178.6 378.4h1.639v-0.70522h-1.639z" fill="#abb927"/><path d="m185.18 388.46h-1.645l3e-3 0.99798-0.59864 5.3e-4v0.37368h-1.9295l4.5e-4 -0.37466h-0.6231v-0.99806h-1.6374v-4.2969l6.43-0.014z" fill="#1a1a1a"/><path d="m180.24 388.73h-1.6246v0.70157h1.6246z" fill="#abb927"/><path d="m185.33 388.73h-1.639v0.70522h1.639z" fill="#abb927"/></g><g stroke-width=".93615"><path d="m213.98 378.67h1.6449l-3e-3 -0.99802 0.59862-5.3e-4v-0.37368h1.9295l-4.5e-4 0.37466h0.62308v0.99812h1.6373v4.297l-6.4298 0.014z" fill="#1a1a1a"/><path d="m218.92 378.41h1.6246v-0.70157h-1.6246z" fill="#abb927"/><path d="m213.83 378.4h1.6388v-0.70523h-1.6388z" fill="#abb927"/><path d="m220.41 388.46h-1.6449l3e-3 0.99802-0.59862 5.3e-4v0.37368h-1.9295l4.5e-4 -0.37466h-0.62308v-0.99812h-1.6373v-4.297l6.4298-0.014z" fill="#1a1a1a"/><path d="m215.47 388.72h-1.6246v0.70157h1.6246z" fill="#abb927"/><path d="m220.56 388.72h-1.6388v0.70523h1.6388z" fill="#abb927"/><path d="m222.03 390.16h43.224l-0.0215-13.186-43.203-2.3e-4z" fill="#3a3a3a"/></g><g stroke-width=".933"><path d="m251 378.66h1.645l-3e-3 -0.99797 0.59863-5.3e-4v-0.37368h1.9295l-4.5e-4 0.37465h0.6231v0.99807h1.6374v4.2969l-6.43 0.014z" fill="#1a1a1a"/><path d="m255.94 378.4h1.6246v-0.70157h-1.6246z" fill="#abb927"/><path d="m250.86 378.4h1.639v-0.70523h-1.639z" fill="#abb927"/><path d="m257.44 388.46h-1.645l3e-3 0.99798-0.59864 5.3e-4v0.37368h-1.9295l4.5e-4 -0.37466h-0.6231v-0.99807h-1.6374v-4.2969l6.43-0.014z" fill="#1a1a1a"/><path d="m252.5 388.73h-1.6246v0.70157h1.6246z" fill="#abb927"/><path d="m257.59 388.73h-1.639v0.70522h1.639z" fill="#abb927"/></g><path d="m224.71 377.01-2.62 9.7e-4 2e-3 13.094 2.6316 9.9e-4v-0.6297l-2.1154 9.9e-4v-0.81534l0.20863-7e-3v-4.4702l6.4314-4e-3 1e-3 4.4741 0.20862 7e-3v0.81534l-2.1038-9.9e-4v0.6297l2.1668-9.9e-4h3e-3l2.1901 9.9e-4v-0.6297l-2.1164 9.9e-4v-0.81534l0.20863-7e-3 9.9e-4 -4.4702 6.4314-4e-3v4.4741l0.20862 7e-3v0.81534l-2.1038-9.9e-4v0.6297l2.2435-9.9e-4h4e-3l2.1891 9.9e-4v-0.6297l-2.1164 9.9e-4v-0.81534l0.20863-7e-3 9.9e-4 -4.4702 6.4314-4e-3v4.4741l0.20862 7e-3v0.81534l-2.1028-9.9e-4v0.6297l2.2425-9.9e-4 2.193 9.9e-4v-0.6297l-2.1164 9.9e-4v-0.81534l0.2096-7e-3v-4.4702l6.4314-4e-3v4.4741l0.20959 7e-3v0.81534l-2.1038-9.9e-4v0.6297l2.2425-9.9e-4h5e-3l2.1882 9.9e-4v-0.6297l-2.1154 9.9e-4v-0.81534l0.20863-7e-3v-4.4702l6.4314-4e-3 1e-3 4.4741 0.20863 7e-3v0.81534l-2.1038-9.9e-4v0.6297l2.2357-9.9e-4h0.0116l2.1707 9.9e-4v-0.6297l-2.1164 9.9e-4v-0.81534l0.20863-7e-3 1e-3 -4.4974 5e-3 -5e-3 6.4269-0.01v4.512l0.2096 7e-3v0.81535l-2.1038-1e-3v0.62971l2.62-1e-3 -2e-3 -13.094-2.6326-9.7e-4v0.62971l2.1164-1e-3v0.81535l-0.20959 7e-3v4.4702l-6.4314 4e-3v-4.4741l-0.20959-7e-3v-0.81447l2.1038 1e-3v-0.62971l-2.1581 9.7e-4h-0.0116l-2.2483-9.7e-4v0.62971l2.1164-1e-3v0.81535l-0.20863 7e-3 -9.9e-4 4.4974-4e-3 5e-3 -6.4269 9e-3 -9.9e-4 -4.511-0.20863-7e-3v-0.81535l2.1038 1e-3v-0.62971l-2.1765 9.7e-4h-4e-3l-2.2561-9.7e-4v0.62971l2.1164-1e-3v0.81535l-0.20863 7e-3 -1e-3 4.4974-5e-3 5e-3 -6.4269 9e-3v-4.511l-0.20862-7e-3v-0.81535l2.1038 1e-3v-0.62971l-2.1765 9.7e-4 -2.26-9.7e-4v0.62971l2.1164-1e-3v0.81535l-0.2096 7e-3v4.4974l-5e-3 5e-3 -6.4269 9e-3v-4.511l-0.20863-7e-3v-0.81535l2.1028 1e-3v-0.62971l-2.1765 9.7e-4h-4e-3l-2.2551-9.7e-4v0.62971l2.1154-1e-3v0.81535l-0.20863 7e-3v4.4974l-5e-3 5e-3 -6.4269 9e-3v-4.511l-0.2096-7e-3v-0.81535l2.1038 1e-3v-0.62971l-2.1766 9.7e-4h-4e-3l-2.1794-9.7e-4v0.62971l2.1164-1e-3v0.81535l-0.20863 7e-3 -9.9e-4 4.4974-4e-3 5e-3 -6.4269 9e-3 -9.9e-4 -4.511-0.20863-7e-3v-0.81535l2.1038 1e-3v-0.62971z" fill="#ebebeb" stroke-width=".49719"/><g stroke-width=".933"><path d="m243.93 378.66h1.645l-3e-3 -0.99797 0.59863-5.3e-4v-0.37368h1.9295l-4.5e-4 0.37465h0.6231v0.99807h1.6374v4.2969l-6.43 0.014z" fill="#1a1a1a"/><path d="m248.87 378.4h1.6246v-0.70157h-1.6246z" fill="#abb927"/><path d="m243.79 378.4h1.639v-0.70523h-1.639z" fill="#abb927"/><path d="m250.37 388.46h-1.645l3e-3 0.99798-0.59864 5.3e-4v0.37368h-1.9295l4.5e-4 -0.37466h-0.6231v-0.99807h-1.6374v-4.2969l6.43-0.014z" fill="#1a1a1a"/><path d="m245.43 388.73h-1.6246v0.70157h1.6246z" fill="#abb927"/><path d="m250.52 388.73h-1.639v0.70522h1.639z" fill="#abb927"/><path d="m236.87 378.66h1.645l-3e-3 -0.99797 0.59863-5.3e-4v-0.37368h1.9295l-4.5e-4 0.37465h0.6231v0.99807h1.6374v4.2969l-6.43 0.014z" fill="#1a1a1a"/><path d="m241.81 378.4h1.6246v-0.70157h-1.6246z" fill="#abb927"/><path d="m236.73 378.4h1.639v-0.70523h-1.639z" fill="#abb927"/><path d="m243.31 388.46h-1.645l3e-3 0.99798-0.59864 5.3e-4v0.37368h-1.9295l4.5e-4 -0.37466h-0.6231v-0.99807h-1.6374v-4.2969l6.43-0.014z" fill="#1a1a1a"/><path d="m238.36 388.73h-1.6246v0.70157h1.6246z" fill="#abb927"/><path d="m243.46 388.73h-1.639v0.70522h1.639z" fill="#abb927"/><path d="m229.8 378.66h1.645l-3e-3 -0.99797 0.59863-5.3e-4v-0.37368h1.9295l-4.5e-4 0.37465h0.6231v0.99807h1.6374v4.2969l-6.43 0.014z" fill="#1a1a1a"/><path d="m234.74 378.4h1.6246v-0.70157h-1.6246z" fill="#abb927"/><path d="m229.66 378.4h1.639v-0.70523h-1.639z" fill="#abb927"/><path d="m236.24 388.46h-1.645l3e-3 0.99798-0.59864 5.3e-4v0.37368h-1.9295l4.5e-4 -0.37466h-0.6231v-0.99807h-1.6374v-4.2969l6.43-0.014z" fill="#1a1a1a"/><path d="m231.3 388.73h-1.6246v0.70157h1.6246z" fill="#abb927"/><path d="m236.39 388.73h-1.639v0.70522h1.639z" fill="#abb927"/><path d="m222.81 378.66h1.645l-3e-3 -0.99798 0.59863-5.3e-4v-0.37368h1.9295l-4.5e-4 0.37466h0.6231v0.99807h1.6374v4.2969l-6.43 0.014z" fill="#1a1a1a"/><path d="m227.75 378.4h1.6246v-0.70157h-1.6246z" fill="#abb927"/><path d="m222.67 378.4h1.639v-0.70522h-1.639z" fill="#abb927"/><path d="m229.25 388.46h-1.645l3e-3 0.99798-0.59864 5.3e-4v0.37368h-1.9295l4.5e-4 -0.37466h-0.6231v-0.99806h-1.6374v-4.2969l6.43-0.014z" fill="#1a1a1a"/><path d="m224.31 388.73h-1.6246v0.70157h1.6246z" fill="#abb927"/><path d="m229.4 388.73h-1.639v0.70522h1.639z" fill="#abb927"/></g><g stroke-width=".93615"><path d="m258.05 378.67h1.6449l-3e-3 -0.99802 0.59863-5.3e-4v-0.37368h1.9295l-4.5e-4 0.37466h0.62308v0.99812h1.6373v4.297l-6.4298 0.014z" fill="#1a1a1a"/><path d="m262.99 378.41h1.6246v-0.70157h-1.6246z" fill="#abb927"/><path d="m257.9 378.4h1.6388v-0.70523h-1.6388z" fill="#abb927"/><path d="m264.48 388.46h-1.6449l3e-3 0.99802-0.59862 5.3e-4v0.37368h-1.9295l4.5e-4 -0.37466h-0.62308v-0.99812h-1.6373v-4.297l6.4298-0.014z" fill="#1a1a1a"/><path d="m259.54 388.72h-1.6246v0.70157h1.6246z" fill="#abb927"/><path d="m264.63 388.72h-1.6388v0.70523h1.6388z" fill="#abb927"/></g><g transform="matrix(1.3154 0 0 1.3154 -43.9 -122.29)"><path d="m84.137 376.29h2.0861c2.73e-4 0 4.92e-4 9e-5 4.92e-4 2.2e-4v1.2742c0 1.2e-4 -2.19e-4 2.2e-4 -4.92e-4 2.2e-4h-2.0861c-2.73e-4 0-4.92e-4 -1e-4 -4.92e-4 -2.2e-4v-1.2742c0-1.3e-4 2.19e-4 -2.2e-4 4.92e-4 -2.2e-4z" fill="#ff0" stroke="#ff0" stroke-linejoin="round" stroke-width=".37853"/><path d="m84.826 377.34h0.68372v0.29146l0.82281-0.70958-0.82281-0.697v0.29146h-0.68372l0.75956 0.29146v-0.11407l0.37996 0.22813-0.37996 0.22813v-0.10147c-0.0044-8e-3 -0.75956 0.29146-0.75956 0.29146z" stroke="#000" stroke-width=".0040415"/><g stroke-width=".0040415px"><path d="m84.054 376.76h0.14162q0.06316 0 0.09685 0.0282 0.03391 0.028 0.03391 0.0799 0 0.0521-0.03391 0.0803-0.03369 0.028-0.09685 0.028h-0.05629v0.11497h-0.08532zm0.08532 0.0619v0.0926h0.04721q0.02482 0 0.03834-0.012 0.01352-0.0122 0.01352-0.0344t-0.01352-0.0342-0.03834-0.012z"/><path d="m84.496 376.89q-0.02637 0-0.04034 0.0191-0.01374 0.0189-0.01374 0.0546t0.01374 0.0548q0.01396 0.0189 0.04034 0.0189 0.02593 0 0.03967-0.0189 0.01374-0.0191 0.01374-0.0548t-0.01374-0.0546q-0.01374-0.0191-0.03967-0.0191zm0-0.0568q0.06405 0 0.09995 0.0346 0.03612 0.0346 0.03612 0.0959t-0.03612 0.0959q-0.0359 0.0346-0.09995 0.0346-0.06427 0-0.10062-0.0346-0.03612-0.0346-0.03612-0.0959t0.03612-0.0959q0.03634-0.0346 0.10062-0.0346z"/><path d="m84.689 376.76h0.23026v0.0646h-0.14494v0.0617h0.1363v0.0646h-0.1363v0.0759h0.14981v0.0646h-0.23513z"/><path d="m85.17 376.81v0.1163h0.11568v0.0524h-0.11568v0.1163h-0.05274v-0.1163h-0.11568v-0.0524h0.11568v-0.1163z"/></g></g><g transform="translate(-.11513 -59.631)" fill-opacity=".92742"><rect x="70.249" y="431.92" width="1.7619" height="2.2735" rx="0" ry="0"/><rect x="142.36" y="431.92" width="1.7619" height="2.2735" rx="0" ry="0"/><rect x="72.735" y="431.92" width="1.7619" height="2.2735" rx="0" ry="0"/><rect x="75.222" y="431.92" width="1.7619" height="2.2735" rx="0" ry="0"/><rect x="77.708" y="431.92" width="1.7619" height="2.2735" rx="0" ry="0"/><rect x="80.195" y="431.92" width="1.7619" height="2.2735" rx="0" ry="0"/><rect x="82.682" y="431.92" width="1.7619" height="2.2735" rx="0" ry="0"/><rect x="85.168" y="431.92" width="1.7619" height="2.2735" rx="0" ry="0"/><rect x="87.655" y="431.92" width="1.7619" height="2.2735" rx="0" ry="0"/><rect x="90.141" y="431.92" width="1.7619" height="2.2735" rx="0" ry="0"/><rect x="92.628" y="431.92" width="1.7619" height="2.2735" rx="0" ry="0"/><rect x="95.114" y="431.92" width="1.7619" height="2.2735" rx="0" ry="0"/><rect x="97.601" y="431.92" width="1.7619" height="2.2735" rx="0" ry="0"/><rect x="100.09" y="431.92" width="1.7619" height="2.2735" rx="0" ry="0"/><rect x="102.57" y="431.92" width="1.7619" height="2.2735" rx="0" ry="0"/><rect x="105.06" y="431.92" width="1.7619" height="2.2735" rx="0" ry="0"/><rect x="107.55" y="431.92" width="1.7619" height="2.2735" rx="0" ry="0"/><rect x="110.03" y="431.92" width="1.7619" height="2.2735" rx="0" ry="0"/><rect x="112.52" y="431.92" width="1.7619" height="2.2735" rx="0" ry="0"/><rect x="115.01" y="431.92" width="1.7619" height="2.2735" rx="0" ry="0"/><rect x="117.49" y="431.92" width="1.7619" height="2.2735" rx="0" ry="0"/><rect x="119.98" y="431.92" width="1.7619" height="2.2735" rx="0" ry="0"/><rect x="122.47" y="431.92" width="1.7619" height="2.2735" rx="0" ry="0"/><rect x="124.95" y="431.92" width="1.7619" height="2.2735" rx="0" ry="0"/><rect x="127.44" y="431.92" width="1.7619" height="2.2735" rx="0" ry="0"/><rect x="129.93" y="431.92" width="1.7619" height="2.2735" rx="0" ry="0"/><rect x="132.41" y="431.92" width="1.7619" height="2.2735" rx="0" ry="0"/><rect x="134.9" y="431.92" width="1.7619" height="2.2735" rx="0" ry="0"/><rect x="137.39" y="431.92" width="1.7619" height="2.2735" rx="0" ry="0"/><rect x="139.87" y="431.92" width="1.7619" height="2.2735" rx="0" ry="0"/></g><g transform="rotate(180 276.82 390.23)"><path d="m277.82 388.03h3.5582c0.29266-0.0133 0.44197 0.1387 0.43458 0.2804v0.61514c-0.0166 0.21485-0.65234 0.53476-1.1381 0.51209h-2.3057c-0.15669 0.0281-1.029-0.31913-0.99587-0.52833v-0.61488c-0.0192-0.18007 0.28568-0.26833 0.44679-0.2644" fill="#e6e6e6" stroke-width=".70276"/><path d="m277.95 388.12h3.2718c0.34823-0.0117 0.39166 0.13278 0.38531 0.25706v0.55932c-0.0147 0.14031-0.5471 0.42139-0.97301 0.40142h-2.1604c-0.13757 0.0247-0.87966-0.28458-0.89729-0.41552v-0.55938c-0.0166-0.1578 0.23246-0.24643 0.37365-0.24292" fill="#1d1d1d" stroke-width=".70276"/><path d="m278.61 388.47c-2e-3 -5e-5 -5e-3 5.6e-4 -7e-3 5.6e-4h-6e-3c-0.0868-2e-3 -0.225 0.0309-0.21478 0.11919v0.29361c3e-3 0.0194 0.0367 0.0453 0.0855 0.0722 0.13056 0.0761 0.39956 0.16641 0.46358 0.15583h1.2411c0.26148 0.0113 0.60483-0.13365 0.61324-0.21215v-0.30181c4e-3 -0.0695-1e-3 -0.13388-0.21478-0.1274h-1.9613z" fill="#404040" stroke-width=".37323"/><g fill="#070707" stroke-width=".70276"><path d="m278.64 388.86h0.17651v-0.21961h-0.17651z"/><path d="m279.06 388.86h0.17652v-0.21961h-0.17652z"/><path d="m279.51 388.86h0.17614v-0.21961h-0.17614z"/><path d="m279.96 388.86h0.17614v-0.21961h-0.17614z"/><path d="m280.39 388.86h0.17649v-0.21961h-0.17649z"/></g></g><g transform="translate(-.89452 -49.597)"><rect x="270.96" y="432.87" width="8.1306" height="6.8351" rx=".021557" ry=".03148" fill="#ebebeb" stroke="#000" stroke-width=".19916"/><g transform="translate(2e-4 .00128)"><path d="m271.8 434.67h1.6484l-3e-3 -1.3672h3.1576v1.3676h1.6409v4.2811l-6.4438 0.0139z" stroke-width=".93423"/></g></g><path class="st1" d="m282.1 374.04c0 0.32177-0.25703 0.58322-0.5703 0.58322-0.31326 0-0.57029-0.26145-0.57029-0.58322v-0.49473s0.2731 0.0684 0.2731 0.35798v0.13675c0 0.17697 0.13253 0.31775 0.29719 0.31775s0.2972-0.14078 0.2972-0.31775v-0.28557 4e-3c0.0121-0.24133 0.21687-0.31775 0.26908-0.34591h4e-3v0.62746zm-1.4659-0.57919c0.0763 0 0.14861 0.012 0.21286 0.0402v0.30568c-0.0562-0.0482-0.13253-0.0764-0.21286-0.0764-0.18072 0-0.3253 0.14078-0.3253 0.31775v0.57517h-0.27311v-1.0538s0.11246 4e-3 0.18474 0.0563c0.10443-0.10458 0.25302-0.16491 0.41367-0.16491m-1.3093 0.90094c-0.18073 0-0.32933-0.1448-0.32933-0.32178 0-0.17697 0.14859-0.32178 0.32933-0.32178 0.18073 0 0.32932 0.14481 0.32932 0.32178 0 0.17698-0.14859 0.32178-0.32932 0.32178m0-0.90094c-0.32933 0-0.5944 0.26144-0.5944 0.57919 0 0.32178 0.26508 0.5792 0.5944 0.5792 0.13654 0 0.26105-0.0442 0.36145-0.12067 0.0603 0.10055 0.23295 0.12067 0.23295 0.12067v-0.5792c0-0.31775-0.26508-0.57919-0.5944-0.57919m4.7512 0.90094c-0.18073 0-0.32932-0.1448-0.32932-0.32178 0-0.17697 0.14859-0.32178 0.32932-0.32178s0.32933 0.14481 0.32933 0.32178c0 0.17698-0.1486 0.32178-0.32933 0.32178m0-0.90094c-0.32932 0-0.5944 0.26144-0.5944 0.57919 0 0.32178 0.26508 0.5792 0.5944 0.5792 0.13655 0 0.26106-0.0442 0.36146-0.12067 0.0602 0.10055 0.23293 0.12067 0.23293 0.12067v-0.5792c0-0.31775-0.26506-0.57919-0.59439-0.57919m-1.2611 0.90094c-0.18074 0-0.32933-0.1448-0.32933-0.32178 0-0.17697 0.14859-0.32178 0.32933-0.32178 0.18072 0 0.32932 0.14481 0.32932 0.32178 4e-3 0.17698-0.14459 0.32178-0.32932 0.32178m0-0.90094c-0.12049 0-0.23294 0.0362-0.32933 0.0965v-0.0925c-0.012-0.24133-0.20884-0.31776-0.26105-0.34591h-4e-3v1.5043s0.17672-0.0201 0.24499-0.11664c0.10041 0.0684 0.22089 0.11262 0.34942 0.11262 0.32932 0 0.59439-0.26144 0.59439-0.5792 4e-3 -0.31775-0.26507-0.57919-0.59439-0.57919" fill="#f5831f" stroke-width=".6577"/><ellipse cx="279.97" cy="386.44" rx=".93874" ry=".93955" stroke-width="1.2298"/><g transform="matrix(1.3136 0 0 1.3136 -88.777 -118.32)" fill="#fff" stroke-width=".70928px"><path d="m280.04 381.89h0.0731v0.47946h0.26306v0.0616h-0.33617v-0.54106z"/><path d="m280.45 381.89h0.34159v0.0616h-0.26849v0.16017h0.25727v0.0616h-0.25727v0.19606h0.27501v0.0616h-0.34811v-0.54106z"/><path d="m280.98 381.95v0.42075h0.0883q0.11182 0 0.16356-0.0507 0.0521-0.0507 0.0521-0.16018 0-0.10872-0.0521-0.1591-0.0517-0.0508-0.16356-0.0508h-0.0883zm-0.0731-0.0601h0.15017q0.15705 0 0.2305 0.0656 0.0735 0.0652 0.0735 0.2044 0 0.13989-0.0738 0.20548-0.0738 0.0656-0.23014 0.0656h-0.15017v-0.54107z"/></g><g transform="matrix(1.3136 0 0 1.3136 -89.148 -118.17)" fill="#fff" stroke-width=".70928px"><path d="m280.04 382.47h0.10892l0.13786 0.3682 0.13859-0.3682h0.10892v0.54106h-0.0713v-0.4751l-0.13931 0.3711h-0.0735l-0.13931-0.3711v0.4751h-0.0709z"/><path d="m280.83 382.66q-0.0536 0-0.0847 0.042-0.0311 0.0417-0.0311 0.11452 0 0.0728 0.0308 0.11488 0.0311 0.0417 0.085 0.0417 0.0532 0 0.0843-0.042t0.0311-0.11452q0-0.0721-0.0311-0.11416-0.0311-0.0424-0.0843-0.0424zm0-0.0566q0.0868 0 0.13642 0.0566 0.0496 0.0565 0.0496 0.15656 0 0.0997-0.0496 0.15656-0.0496 0.0566-0.13642 0.0566-0.0872 0-0.13678-0.0566-0.0492-0.0569-0.0492-0.15656 0-0.10002 0.0492-0.15656 0.0496-0.0566 0.13678-0.0566z"/><path d="m281.38 382.67v-0.21961h0.0666v0.56389h-0.0666v-0.0609q-0.021 0.0362-0.0532 0.054-0.0319 0.0174-0.0767 0.0174-0.0734 0-0.11977-0.0587-0.046-0.0587-0.046-0.15438 0-0.0957 0.046-0.15439 0.0463-0.0587 0.11977-0.0587 0.0449 0 0.0767 0.0177 0.0322 0.0174 0.0532 0.0537zm-0.22688 0.1417q0 0.0736 0.03 0.11561 0.0304 0.0417 0.0832 0.0417t0.0832-0.0417q0.0304-0.042 0.0304-0.11561 0-0.0736-0.0304-0.11525-0.0304-0.042-0.0832-0.042t-0.0832 0.042q-0.03 0.0417-0.03 0.11525z"/><path d="m281.93 382.8v0.0327h-0.30613q4e-3 0.0688 0.0413 0.1051 0.0373 0.0358 0.10349 0.0358 0.0384 0 0.0742-9e-3 0.0362-9e-3 0.0717-0.0282v0.063q-0.0358 0.0152-0.0735 0.0232-0.0376 8e-3 -0.0763 8e-3 -0.097 0-0.15379-0.0566-0.0564-0.0565-0.0564-0.15293 0-0.0997 0.0536-0.15801 0.0539-0.0587 0.1451-0.0587 0.0818 0 0.12918 0.0529 0.0478 0.0525 0.0478 0.14314zm-0.0666-0.0196q-7.1e-4 -0.0547-0.0308-0.0873-0.0297-0.0326-0.0789-0.0326-0.0557 0-0.0894 0.0315-0.0333 0.0315-0.0384 0.0888l0.23737-3.6e-4z"/></g><rect x="70.092" y="378.04" width="7.81" height="12.269" rx=".012505" ry=".002878" fill="#ebebeb" fill-rule="evenodd" stroke="#000" stroke-width=".27054"/><path d="m77.469 389.85h-6.9437v-4.3291h1.8804v-0.55508h3.0865v0.55508h1.9767z"/><path d="m70.525 378.4h6.9437v4.3291h-1.8804v0.55508h-3.0865v-0.55508h-1.9767z"/><g fill-rule="evenodd"><rect x="72.592" y="382.34" width="2.8979" height=".17603" rx=".023546" ry=".0054191" fill="#ebebeb" stroke-width=".9364"/><rect transform="scale(-1)" x="-75.446" y="-385.91" width="2.8979" height=".17603" rx=".023546" ry=".0054191" fill="#ebebeb" stroke-width=".9364"/><path d="m72.537 384.62 0.54017-0.99215 0.54017 0.99215z" fill="#005600" fill-opacity=".84677" stroke="#2d5016" stroke-linejoin="round" stroke-width=".09958"/><path d="m75.458 383.63-0.54017 0.99215-0.54017-0.99215z" fill="#005600" fill-opacity=".84706" stroke="#2d5016" stroke-linejoin="round" stroke-width=".09958"/></g><g transform="translate(-8.777,-58.497)"><rect x="88.404" y="436.54" width="7.81" height="12.269" rx=".012505" ry=".002878" fill="#ebebeb" fill-rule="evenodd" stroke="#000" stroke-width=".27054"/><path d="m95.78 448.35h-6.9437v-4.3291h1.8804v-0.55508h3.0865v0.55508h1.9767z"/><path d="m88.837 436.9h6.9437v4.3291h-1.8804v0.55508h-3.0865v-0.55508h-1.9767z"/><g fill-rule="evenodd"><rect x="90.903" y="440.83" width="2.8979" height=".17603" rx=".023546" ry=".0054191" fill="#ebebeb" stroke-width=".9364"/><rect transform="scale(-1)" x="-93.758" y="-444.41" width="2.8979" height=".17603" rx=".023546" ry=".0054191" fill="#ebebeb" stroke-width=".9364"/><g transform="translate(.14714 -.34663)" fill="#005600" stroke="#2d5016" stroke-linejoin="round" stroke-width=".09958"><path d="m90.701 443.47 0.54017-0.99215 0.54017 0.99215z" fill-opacity=".84677"/><path d="m93.622 442.47-0.54017 0.99215-0.54017-0.99215z" fill-opacity=".84706"/></g></g></g><g fill="#fff" fill-rule="evenodd" stroke="#fff" stroke-linejoin="round" stroke-width=".10705"><path d="m71.751 377.48 0.31018-0.56973 0.31018 0.56973z"/><path d="m76.148 376.99-0.31018 0.56973-0.31018-0.56973z"/><path d="m81.374 377.51 0.31018-0.56973 0.31018 0.56973z"/><path d="m85.772 376.94-0.31018 0.56973-0.31018-0.56973z"/><path d="m180 375.81 0.31019-0.56973 0.31018 0.56973z"/><path d="m187 375.81 0.31018-0.56973 0.31019 0.56973z"/><path d="m194.08 375.81 0.31018-0.56973 0.31018 0.56973z"/><path d="m201.07 375.81 0.31018-0.56973 0.31019 0.56973z"/><path d="m208.14 375.81 0.31018-0.56973 0.31018 0.56973z"/><path d="m215.6 375.81 0.31018-0.56973 0.31019 0.56973z"/><path d="m224.48 375.81 0.31019-0.56973 0.31018 0.56973z"/><path d="m231.4 375.81 0.31018-0.56973 0.31019 0.56973z"/><path d="m238.47 375.81 0.31018-0.56973 0.31019 0.56973z"/><path d="m245.54 375.81 0.31018-0.56973 0.31018 0.56973z"/><path d="m252.7 375.81 0.31018-0.56973 0.31018 0.56973z"/><path d="m259.63 375.81 0.31018-0.56973 0.31018 0.56973z"/><path d="m262.88 375.24-0.31018 0.56973-0.31018-0.56973z"/><path d="m255.88 375.24-0.31018 0.56973-0.31018-0.56973z"/><path d="m248.74 375.24-0.31018 0.56973-0.31018-0.56973z"/><path d="m241.7 375.24-0.31018 0.56973-0.31018-0.56973z"/><path d="m234.62 375.24-0.31018 0.56973-0.31018-0.56973z"/><path d="m227.69 375.24-0.31018 0.56973-0.31018-0.56973z"/><path d="m218.88 375.24-0.31018 0.56973-0.31018-0.56973z"/><path d="m211.73 375.24-0.31018 0.56973-0.31018-0.56973z"/><path d="m205.06 375.24-0.31018 0.56973-0.31018-0.56973z"/><path d="m198.01 375.24-0.31018 0.56973-0.31018-0.56973z"/><path d="m190.95 375.24-0.31018 0.56973-0.31018-0.56973z"/><path d="m183.98 375.24-0.31018 0.56973-0.31018-0.56973z"/></g><path d="m158.86 390.59-0.17033 0.46189h0.34128zm-0.0709-0.12371h0.14236l0.35372 0.92812h-0.13055l-0.0845-0.23809h-0.41837l-0.0846 0.23809h-0.13241z"/><path d="m160.23 390.47h0.58683v0.10568h-0.46126v0.27477h0.44199v0.10568h-0.44199v0.33631h0.47245v0.10568h-0.59802z"/><path d="m160.97 391h0.33507v0.10195h-0.33507z"/><path d="m161.25 390.47h0.78515v0.10568h-0.32948v0.82244h-0.12619v-0.82244h-0.32948z"/><path d="m157.8 390.95v0.34004h0.20141c0.13355 0 0.19892-0.0555 0.19892-0.17038 0-0.11492-0.0593-0.16976-0.19892-0.16976zm0-0.38169v0.27974h0.18587c0.0863 0 0.18216-0.0138 0.18216-0.13988 0-0.12609-0.11903-0.13986-0.18216-0.13986zm-0.12558-0.1032h0.32077c0.27628 0 0.29901 0.16825 0.29901 0.22941 0 0.0612-0.011 0.17458-0.15667 0.19832 0.15191 0.0328 0.1952 0.15277 0.1952 0.24057 0 0.2196-0.19302 0.25989-0.32507 0.25989h-0.33321z"/><g transform="translate(0 .123)"><g transform="translate(3.0745 -7.1215)" stroke-width=".93615px"><path d="m159.49 397.54v0.36188h0.1636q0.0908 0 0.14041-0.0471 0.0496-0.0471 0.0496-0.13418 0-0.0865-0.0496-0.13353-0.0496-0.0471-0.14041-0.0471h-0.1636zm-0.13011-0.10708h0.29371q0.16167 0 0.24411 0.0736 0.0831 0.0729 0.0831 0.21415 0 0.14256-0.0831 0.21546-0.0824 0.0729-0.24411 0.0729h-0.1636v0.38704h-0.13011z"/><path d="m160.36 397.76q-0.0953 0-0.15071 0.0749-0.0554 0.0742-0.0554 0.20384 0 0.12966 0.0547 0.20449 0.0554 0.0742 0.15137 0.0742 0.0947 0 0.15007-0.0749 0.0554-0.0749 0.0554-0.20384 0-0.12836-0.0554-0.20319-0.0554-0.0755-0.15007-0.0755zm0-0.10063q0.15459 0 0.24283 0.10063 0.0882 0.10063 0.0882 0.27867 0 0.17739-0.0882 0.27866-0.0882 0.10063-0.24283 0.10063-0.15522 0-0.24346-0.10063-0.0876-0.10127-0.0876-0.27866 0-0.17804 0.0876-0.27867 0.0882-0.10063 0.24346-0.10063z"/><path d="m160.88 397.43h0.60803v0.10966h-0.47793v0.28512h0.45795v0.10966h-0.45795v0.34898h0.48952v0.10966h-0.61962z"/></g><path d="m165.23 390.4v0.34626h0.34625v0.10568h-0.34625v0.34625h-0.10444v-0.34625h-0.34626v-0.10568h0.34626v-0.34626z"/></g><path d="m159.98 390.5v0.12247c-0.0712-0.0391-0.18831-0.064-0.25736-0.0678-0.11436-3e-3 -0.21382 0.0488-0.21382 0.15294 0 0.10413 0.0708 0.12383 0.17719 0.1437l0.0758 0.0155c0.282 0.0555 0.27411 0.22035 0.27411 0.27477 0 0.1954-0.14049 0.27413-0.35562 0.27413-0.10579 8e-3 -0.20368-0.0327-0.29404-0.059v-0.12931c0.10864 0.063 0.2081 0.0864 0.29404 0.0864 0.1823 0 0.22438-0.0895 0.22438-0.1629 0-0.11578-0.0798-0.13686-0.17969-0.16472l-0.0765-0.0149c-0.2337-0.047-0.26608-0.15066-0.26608-0.25358 0-0.22428 0.20855-0.26485 0.32573-0.26485 0.10122 0 0.18018 0.0213 0.27186 0.0471z"/><g fill="#fff"><g stroke-width=".27669"><path d="m280.19 376.31v-0.1121c0-0.0275 0.0123-0.0507 0.0369-0.0694l0.2302-0.22873c0.0698-0.0551 0.12347-0.0998 0.16085-0.13428 0.0383-0.0354 0.0669-0.0679 0.0856-0.0974s0.028-0.0586 0.028-0.0871c0-0.0462-0.0123-0.0826-0.0369-0.1092-0.0246-0.0265-0.062-0.0398-0.11215-0.0398-0.0492 0-0.0881 0.0148-0.11657 0.0443-0.0275 0.0285-0.0447 0.0995-0.0516 0.14575h-0.20821c2e-3 -0.0581 0.0177-0.14327 0.0472-0.19342 0.0305-0.0511 0.0738-0.092 0.12986-0.12248 0.0561-0.0315 0.12198-0.0472 0.19774-0.0472 0.0787 0 0.1456 0.0138 0.20069 0.0413 0.0551 0.0265 0.0964 0.0634 0.12395 0.11067 0.0275 0.0472 0.0413 0.10082 0.0413 0.16085 0 0.0659-0.0187 0.12594-0.0561 0.18003-0.0364 0.0531-0.0935 0.11019-0.17118 0.17118l-0.20512 0.20806h0.45452v0.17897z"/><path d="m283.95 376.31v-1.0329h0.70411v0.17855h-0.49881v0.27743h0.4427v0.17705h-0.4427v0.39989z"/><path d="m281.25 376.31 0.25387-0.34988-0.062 6e-3c-0.14354 0.0139-0.35266-0.12878-0.35266-0.3453s0.1727-0.35854 0.39838-0.35854c0.29617 0 0.40431 0.19215 0.40431 0.35268s-0.10889 0.27552-0.1314 0.30698l-0.27769 0.38806zm0.2396-0.5032c0.11872 0 0.19037-0.0804 0.19037-0.18596 0-0.10554-0.0844-0.18737-0.19037-0.18737-0.10594 0-0.18888 0.0734-0.18888 0.18737 0 0.114 0.0702 0.18596 0.18888 0.18596z"/></g><g transform="translate(-.48409 .68213)" stroke-width=".21038" aria-label="JL261A"><path d="m281.45 376.85c-0.0553 0-0.1062-9e-3 -0.15259-0.0281-0.0456-0.0187-0.0826-0.0468-0.11108-0.0842-0.0277-0.0374-0.0423-0.0827-0.0438-0.13577l0.16624 3e-3c6e-3 0.0389 0.0217 0.0677 0.0471 0.0864 0.0262 0.0187 0.0591 0.0281 0.0987 0.0281 0.0464 0 0.0819-0.015 0.10659-0.0449 0.0255-0.0307 0.0382-0.0733 0.0382-0.12791v-0.49404h0.16174v0.49832c0 0.0621-0.0127 0.11555-0.0381 0.16045-0.0255 0.0449-0.0617 0.0793-0.10883 0.10323-0.0464 0.0232-0.10101 0.0348-0.16382 0.0348z"/><path d="m281.93 376.84v-0.78576h0.15967v0.65095h0.38388v0.135z"/><path d="m282.57 376.84q-0.0112 0-0.0191-8e-3 -8e-3 -8e-3 -8e-3 -0.0191v-0.0583q0-0.0314 0.0281-0.0527l0.17503-0.17391q0.0797-0.0628 0.1223-0.10211 0.0438-0.0404 0.0651-0.074 0.0213-0.0337 0.0213-0.0662 0-0.0527-0.028-0.083-0.0281-0.0303-0.0853-0.0303-0.0561 0-0.0886 0.0337-0.0314 0.0325-0.0393 0.0853-3e-3 0.0135-0.0135 0.0202-9e-3 6e-3 -0.0202 6e-3h-0.10098q-0.0101 0-0.0168-7e-3 -7e-3 -7e-3 -7e-3 -0.0168 2e-3 -0.0662 0.0359-0.12343 0.0348-0.0583 0.0987-0.0931 0.064-0.0359 0.15035-0.0359 0.0898 0 0.1526 0.0314 0.0628 0.0303 0.0942 0.0841 0.0314 0.0539 0.0314 0.1223 0 0.0752-0.0426 0.13689-0.0415 0.0606-0.13016 0.13015l-0.15596 0.1582h0.31753q0.0123 0 0.0202 8e-3 8e-3 8e-3 8e-3 0.0202v0.0808q0 0.0123-8e-3 0.0202-8e-3 7e-3 -0.0202 7e-3z"/><path d="m283.55 376.85q-0.0943 0-0.16606-0.0359-0.0707-0.0359-0.10996-0.0987-0.0381-0.0628-0.0381-0.14138 0-0.0987 0.0875-0.21767l0.20421-0.2805q9e-3 -0.0112 0.0168-0.0168 8e-3 -6e-3 0.0224-6e-3h0.10659q0.0101 0 0.0157 8e-3 7e-3 7e-3 7e-3 0.0168 0 8e-3 -4e-3 0.0146l-0.15708 0.21655q0.0179-4e-3 0.0471-4e-3 0.0752 1e-3 0.138 0.037 0.064 0.0348 0.10099 0.0954 0.0382 0.0606 0.0382 0.13464 0 0.0763-0.0382 0.14025-0.037 0.0628-0.10772 0.10098-0.0696 0.037-0.16269 0.037zm-2e-3 -0.13016q0.0628 0 0.10659-0.0381 0.0438-0.0393 0.0438-0.10772 0-0.0673-0.0438-0.10547-0.0426-0.0393-0.10659-0.0393-0.0628 0-0.1066 0.0393-0.0426 0.0382-0.0426 0.10547 0 0.0684 0.0426 0.10772 0.0438 0.0381 0.1066 0.0381z"/><path d="m284.18 376.84q-0.0112 0-0.0191-8e-3 -8e-3 -8e-3 -8e-3 -0.0191v-0.57896l-0.16942 0.13015q-7e-3 6e-3 -0.0168 6e-3 -0.0135 0-0.0213-0.0112l-0.0482-0.0628q-6e-3 -8e-3 -6e-3 -0.0157 0-0.0135 0.0123-0.0224l0.25134-0.19523q0.0123-8e-3 0.0281-8e-3h0.10098q0.0112 0 0.0191 8e-3 8e-3 8e-3 8e-3 0.0191v0.73156q0 0.0112-8e-3 0.0191-8e-3 8e-3 -0.0191 8e-3z"/><path d="m284.43 376.84q-0.0101 0-0.0168-7e-3 -7e-3 -7e-3 -7e-3 -0.0168l2e-3 -0.0101 0.26928-0.7237q0.0112-0.028 0.0404-0.028h0.12343q0.0292 0 0.0404 0.028l0.26928 0.7237 2e-3 0.0101q0 0.0101-8e-3 0.0168-7e-3 7e-3 -0.0157 7e-3h-0.0999q-0.0236 0-0.0325-0.0213l-0.0516-0.13576h-0.33211l-0.0516 0.13576q-9e-3 0.0213-0.0325 0.0213zm0.22329-0.28724h0.25357l-0.12679-0.34558z"/></g><path d="m282.4 376.33c-0.27483 0-0.40578-0.16623-0.40578-0.27446l0.21116-2e-3c0.0217 0.0698 0.0866 0.10477 0.19478 0.10477 0.0824 0 0.19179-0.0277 0.19179-0.15935 0-0.13163-0.11011-0.14608-0.18296-0.14608h-0.18739v-0.0988c0-0.0187 6e-3 -0.0334 0.0192-0.0443l0.26267-0.25677h-0.42073v-0.1712h0.65223v0.1682l-0.25381 0.26119 0.0177 1e-3c0.21747 0 0.3084 0.1554 0.3084 0.29662 0 0.17527-0.15345 0.32078-0.40726 0.32078z" stroke-width=".27669"/><path d="m283.36 376.33c-0.23198 0-0.3999-0.12349-0.3999-0.39547v-0.27447c0-0.23827 0.15789-0.39253 0.3999-0.39253s0.39991 0.14908 0.39991 0.39253v0.27447c0 0.274-0.16793 0.39547-0.39991 0.39547zm0-0.17265c0.10104 0 0.18594-0.0498 0.18594-0.23018v-0.25972c0-0.10605-0.0356-0.23022-0.18594-0.23022-0.15038 0-0.18593 0.15415-0.18593 0.23022v0.25972c0 0.17398 0.0849 0.23018 0.18593 0.23018z" stroke-width=".27669"/></g><g transform="translate(-1.691 1.6645)" fill="#fff"><g transform="translate(2.7547,-9.59)" stroke-width=".93615px"><path d="m270.41 389.8v0.10187q-0.0487-0.0454-0.10412-0.0679-0.0549-0.0225-0.11701-0.0225-0.12227 0-0.18722 0.0751-0.065 0.0746-0.065 0.2162 0 0.1411 0.065 0.2162 0.065 0.0747 0.18722 0.0747 0.0621 0 0.11701-0.0225 0.0554-0.0225 0.10412-0.0679v0.10092q-0.0506 0.0345-0.10747 0.0516-0.0564 0.0172-0.1194 0.0172-0.1619 0-0.25504-0.099-0.0931-0.0995-0.0931-0.2712 0-0.1722 0.0931-0.27121 0.0931-0.0995 0.25504-0.0995 0.064 0 0.12036 0.0172 0.0568 0.0168 0.1065 0.0507z"/><path d="m270.75 389.98q-0.0707 0-0.11176 0.0555-0.0411 0.055-0.0411 0.15114 0 0.0961 0.0406 0.15163 0.0411 0.055 0.11224 0.055 0.0702 0 0.11128-0.0555 0.0411-0.0555 0.0411-0.15115 0-0.0952-0.0411-0.15066-0.0411-0.0559-0.11128-0.0559zm0-0.0747q0.11462 0 0.18006 0.0747 0.0654 0.0747 0.0654 0.20663 0 0.13154-0.0654 0.20663-0.0654 0.0746-0.18006 0.0746-0.11509 0-0.18053-0.0746-0.065-0.0751-0.065-0.20663 0-0.13201 0.065-0.20663 0.0654-0.0747 0.18053-0.0747z"/><path d="m271.58 390.13v0.32333h-0.0879v-0.32047q0-0.0761-0.0296-0.11383-0.0296-0.0378-0.0888-0.0378-0.0712 0-0.11224 0.0454-0.0411 0.0454-0.0411 0.12388v0.30277h-0.0884v-0.53571h0.0884v0.0832q0.0315-0.0483 0.074-0.0722 0.043-0.0239 0.0988-0.0239 0.0922 0 0.13946 0.0574 0.0473 0.057 0.0473 0.16789z"/><path d="m272.09 389.93v0.0832q-0.0372-0.0191-0.0774-0.0287-0.0401-0.01-0.0831-0.01-0.0654 0-0.0984 0.0201-0.0325 0.0201-0.0325 0.0602 0 0.0306 0.0234 0.0484 0.0234 0.0172 0.0941 0.033l0.0301 7e-3q0.0936 0.0201 0.13277 0.0569 0.0396 0.0364 0.0396 0.10188 0 0.0746-0.0592 0.11815-0.0588 0.0436-0.16191 0.0436-0.043 0-0.0898-8e-3 -0.0463-8e-3 -0.0979-0.0248v-0.0909q0.0487 0.0254 0.096 0.0383 0.0473 0.0125 0.0936 0.0125 0.0621 0 0.0955-0.0211 0.0334-0.0215 0.0334-0.0602 0-0.0359-0.0244-0.055-0.0239-0.0191-0.10555-0.0368l-0.0306-7e-3q-0.0817-0.0172-0.11797-0.0526-0.0363-0.0359-0.0363-0.0981 0-0.0756 0.0535-0.11671 0.0535-0.0411 0.15188-0.0411 0.0487 0 0.0917 7e-3t0.0793 0.0215z"/><path d="m272.45 389.98q-0.0707 0-0.11176 0.0555-0.0411 0.055-0.0411 0.15114 0 0.0961 0.0406 0.15163 0.0411 0.055 0.11224 0.055 0.0702 0 0.11128-0.0555 0.0411-0.0555 0.0411-0.15115 0-0.0952-0.0411-0.15066-0.0411-0.0559-0.11128-0.0559zm0-0.0747q0.11462 0 0.18006 0.0747 0.0654 0.0747 0.0654 0.20663 0 0.13154-0.0654 0.20663-0.0654 0.0746-0.18006 0.0746-0.1151 0-0.18053-0.0746-0.065-0.0751-0.065-0.20663 0-0.13201 0.065-0.20663 0.0654-0.0747 0.18053-0.0747z"/><path d="m272.83 389.72h0.0879v0.74425h-0.0879z"/><path d="m273.55 390.17v0.0431h-0.40405q6e-3 0.0909 0.0544 0.13871 0.0492 0.0473 0.1366 0.0473 0.0506 0 0.0979-0.0125 0.0478-0.0125 0.0946-0.0373v0.0832q-0.0473 0.02-0.0969 0.0306-0.0497 0.0105-0.10078 0.0105-0.128 0-0.20298-0.0746-0.0745-0.0747-0.0745-0.20185 0-0.13154 0.0707-0.20855 0.0712-0.0775 0.19151-0.0775 0.10794 0 0.1705 0.0698 0.063 0.0693 0.063 0.18893zm-0.0879-0.0259q-9.4e-4 -0.0722-0.0406-0.11528-0.0392-0.0431-0.10411-0.0431-0.0736 0-0.11798 0.0416-0.0439 0.0416-0.0506 0.11719l0.31331-4.8e-4z"/></g><g stroke-width=".72241px"><path d="m276.79 380.21v0.27926h0.12625q0.0701 0 0.10835-0.0364 0.0383-0.0364 0.0383-0.10355 0-0.0668-0.0383-0.10304-0.0383-0.0363-0.10835-0.0363h-0.12625zm-0.1004-0.0826h0.22665q0.12476 0 0.18838 0.0568 0.0641 0.0563 0.0641 0.16526 0 0.11001-0.0641 0.16627-0.0636 0.0563-0.18838 0.0563h-0.12625v0.29868h-0.1004z"/><path d="m277.47 380.37q-0.0735 0-0.11631 0.0578-0.0428 0.0573-0.0428 0.1573 0 0.10006 0.0422 0.1578 0.0428 0.0573 0.11681 0.0573 0.0731 0 0.11581-0.0578 0.0428-0.0578 0.0428-0.1573 0-0.0991-0.0428-0.1568-0.0428-0.0583-0.11581-0.0583zm0-0.0777q0.11929 0 0.18738 0.0777 0.0681 0.0777 0.0681 0.21505 0 0.13689-0.0681 0.21504-0.0681 0.0777-0.18738 0.0777-0.11979 0-0.18788-0.0777-0.0676-0.0781-0.0676-0.21504 0-0.13739 0.0676-0.21505 0.0681-0.0777 0.18788-0.0777z"/><path d="m278.19 380.4q-0.0154-9e-3 -0.0338-0.013-0.0179-5e-3 -0.0397-5e-3 -0.0775 0-0.1193 0.0508-0.0413 0.0502-0.0413 0.14486v0.29368h-0.092v-0.55752h0.092v0.0866q0.0288-0.0508 0.0751-0.0752 0.0462-0.0248 0.11233-0.0248 9e-3 0 0.0208 2e-3 0.0114 7.3e-4 0.0253 4e-3l5e-4 0.0941z"/><path d="m278.38 380.15v0.1583h0.18838v0.0712h-0.18838v0.30264q0 0.0681 0.0184 0.0876 0.0189 0.0194 0.076 0.0194h0.0939v0.0766h-0.0939q-0.10587 0-0.14613-0.0394-0.0403-0.0398-0.0403-0.14436v-0.30265h-0.0671v-0.0712h0.0671v-0.1583h0.0919z"/><path d="m279.02 380.33v0.0866q-0.0387-0.0199-0.0805-0.0299-0.0417-0.01-0.0865-0.01-0.0681 0-0.10239 0.0209-0.0338 0.0209-0.0338 0.0627 0 0.0319 0.0243 0.0502 0.0243 0.0179 0.0979 0.0343l0.0313 7e-3q0.0974 0.0209 0.13818 0.0592 0.0413 0.0378 0.0413 0.10602 0 0.0777-0.0617 0.12295-0.0611 0.0453-0.1685 0.0453-0.0448 0-0.0934-9e-3 -0.0482-8e-3 -0.10189-0.0259v-0.0946q0.0507 0.0264 0.0999 0.0398 0.0492 0.013 0.0974 0.013 0.0646 0 0.0994-0.0219 0.0348-0.0224 0.0348-0.0627 0-0.0374-0.0253-0.0573-0.0249-0.0199-0.10985-0.0384l-0.0318-8e-3q-0.085-0.0179-0.12277-0.0547-0.0377-0.0373-0.0377-0.10204 0-0.0786 0.0556-0.12146 0.0556-0.0428 0.15805-0.0428 0.0507 0 0.0954 8e-3 0.0448 8e-3 0.0825 0.0224z"/></g></g><path d="m270.02 382.49 0.31018-0.56973 0.31018 0.56973z" fill="#fff" fill-rule="evenodd" stroke="#fff" stroke-linejoin="round" stroke-width=".10705"/><path d="m278.24 381.92-0.31018 0.56973-0.31018-0.56973z" fill="#fff" fill-rule="evenodd" stroke="#fff" stroke-linejoin="round" stroke-width=".10705"/><ellipse cx="279.07" cy="390.5" rx=".36331" ry=".36385" stroke-width=".93615"/><ellipse cx="282.46" cy="390.5" rx=".36331" ry=".36385" stroke-width=".93615"/><g transform="translate(-1.4743 -.26451)" fill="#fff" stroke-width=".93615px"><path d="m283.27 391.75v0.10188q-0.0487-0.0454-0.10412-0.0679-0.0549-0.0225-0.11702-0.0225-0.12226 0-0.18722 0.0751-0.065 0.0746-0.065 0.2162 0 0.1411 0.065 0.21619 0.0649 0.0747 0.18722 0.0747 0.0621 0 0.11702-0.0225 0.0554-0.0225 0.10412-0.0679v0.10093q-0.0506 0.0345-0.10747 0.0516-0.0564 0.0172-0.1194 0.0172-0.16191 0-0.25504-0.099-0.0931-0.0995-0.0931-0.27121 0-0.17219 0.0931-0.2712 0.0931-0.0995 0.25504-0.0995 0.064 0 0.12035 0.0172 0.0568 0.0168 0.10651 0.0507z"/><path d="m283.4 391.67h0.0879v0.74426h-0.0879z"/><path d="m284.12 392.12v0.0431h-0.40405q6e-3 0.0909 0.0544 0.13871 0.0492 0.0473 0.1366 0.0473 0.0506 0 0.0979-0.0125 0.0478-0.0125 0.0946-0.0373v0.0832q-0.0473 0.0201-0.097 0.0306t-0.10078 0.0105q-0.128 0-0.20297-0.0746-0.0745-0.0747-0.0745-0.20186 0-0.13153 0.0707-0.20854 0.0712-0.0775 0.19151-0.0775 0.10793 0 0.17051 0.0698 0.063 0.0693 0.063 0.18893zm-0.0879-0.0259q-9.3e-4 -0.0722-0.0406-0.11527-0.0392-0.0431-0.10411-0.0431-0.0735 0-0.11797 0.0416-0.0439 0.0416-0.0506 0.11719l0.3133-4.7e-4z"/><path d="m284.5 392.15q-0.1065 0-0.14758 0.0244-0.0411 0.0244-0.0411 0.0832 0 0.0469 0.0306 0.0746 0.031 0.0273 0.0841 0.0273 0.0731 0 0.11702-0.0516 0.0444-0.0521 0.0444-0.13823v-0.0196h-0.0874zm0.17527-0.0364v0.30565h-0.0879v-0.0813q-0.0301 0.0488-0.075 0.0722-0.0449 0.023-0.10985 0.023-0.0821 0-0.13086-0.0459-0.0482-0.0464-0.0482-0.12389 0-0.0904 0.0602-0.13631 0.0607-0.0459 0.18054-0.0459h0.12321v-8e-3q0-0.0607-0.0401-0.0937-0.0396-0.0334-0.11175-0.0334-0.0459 0-0.0893 0.011-0.0435 0.011-0.0836 0.033v-0.0813q0.0482-0.0187 0.0936-0.0277 0.0454-0.01 0.0883-0.01 0.11605 0 0.17336 0.0602 0.0573 0.0602 0.0573 0.18271z"/><path d="m285.16 391.96q-0.0148-8e-3 -0.0325-0.0125-0.0172-5e-3 -0.0382-5e-3 -0.0745 0-0.11462 0.0488-0.0396 0.0483-0.0396 0.13919v0.28221h-0.0884v-0.53572h0.0884v0.0832q0.0277-0.0488 0.0721-0.0722 0.0444-0.0239 0.10793-0.0239 9e-3 0 0.0201 2e-3 0.011 9.4e-4 0.0244 4e-3l4.8e-4 0.0904z"/></g><g transform="translate(0 -.16499)" fill="#fff" stroke-width=".93615px"><path d="m278.11 391.99q0.031 0.0105 0.0602 0.045 0.0296 0.0345 0.0592 0.0947l0.0979 0.19515h-0.10364l-0.0912-0.18319q-0.0353-0.0718-0.0688-0.0952-0.033-0.0234-0.0903-0.0234h-0.10507v0.30182h-0.0965v-0.71412h0.21778q0.12227 0 0.18244 0.0512 0.0602 0.0512 0.0602 0.15449 0 0.0675-0.0315 0.11193-0.031 0.0445-0.0907 0.0617zm-0.24167-0.2999v0.25351h0.12131q0.0697 0 0.10507-0.032 0.0358-0.0325 0.0358-0.0952t-0.0358-0.0942q-0.0353-0.032-0.10507-0.032h-0.12131z"/><path d="m278.85 392.03v0.0431h-0.40405q6e-3 0.0909 0.0544 0.13871 0.0492 0.0473 0.1366 0.0473 0.0506 0 0.0979-0.0125 0.0478-0.0125 0.0946-0.0373v0.0832q-0.0473 0.0201-0.097 0.0306t-0.10078 0.0105q-0.128 0-0.20298-0.0746-0.0745-0.0746-0.0745-0.20185 0-0.13153 0.0707-0.20854 0.0712-0.0775 0.19151-0.0775 0.10793 0 0.17051 0.0698 0.063 0.0693 0.063 0.18893zm-0.0879-0.0258q-9.4e-4 -0.0722-0.0406-0.11528-0.0392-0.0431-0.10412-0.0431-0.0735 0-0.11796 0.0416-0.0439 0.0416-0.0506 0.11719l0.3133-4.8e-4z"/><path d="m279.33 391.8v0.0832q-0.0373-0.0191-0.0774-0.0287-0.0401-0.01-0.0831-0.01-0.0654 0-0.0984 0.0201-0.0325 0.02-0.0325 0.0602 0 0.0306 0.0234 0.0483 0.0234 0.0172 0.0941 0.033l0.0301 7e-3q0.0936 0.0201 0.13277 0.0569 0.0396 0.0364 0.0396 0.10188 0 0.0747-0.0592 0.11815-0.0587 0.0436-0.16191 0.0436-0.043 0-0.0898-8e-3 -0.0463-8e-3 -0.0979-0.0248v-0.0909q0.0487 0.0254 0.096 0.0383 0.0473 0.0125 0.0936 0.0125 0.0621 0 0.0955-0.0211 0.0334-0.0216 0.0334-0.0602 0-0.0359-0.0244-0.055-0.0239-0.0191-0.10555-0.0368l-0.0306-7e-3q-0.0817-0.0172-0.11797-0.0527-0.0363-0.0359-0.0363-0.0981 0-0.0756 0.0535-0.11671 0.0535-0.0411 0.15188-0.0411 0.0487 0 0.0917 7e-3t0.0793 0.0215z"/><path d="m279.95 392.03v0.0431h-0.40405q6e-3 0.0909 0.0544 0.13871 0.0492 0.0473 0.13659 0.0473 0.0506 0 0.0979-0.0125 0.0478-0.0125 0.0946-0.0373v0.0832q-0.0473 0.0201-0.0969 0.0306-0.0497 0.0105-0.10078 0.0105-0.12799 0-0.20298-0.0746-0.0745-0.0746-0.0745-0.20185 0-0.13153 0.0707-0.20854 0.0712-0.0775 0.19152-0.0775 0.10794 0 0.1705 0.0698 0.063 0.0693 0.063 0.18893zm-0.0879-0.0258q-9.4e-4 -0.0722-0.0406-0.11528-0.0392-0.0431-0.10412-0.0431-0.0736 0-0.11797 0.0416-0.0439 0.0416-0.0506 0.11719l0.3133-4.8e-4z"/><path d="m280.17 391.63v0.1521h0.18101v0.0684h-0.18101v0.29082q0 0.0655 0.0177 0.0842 0.0181 0.0186 0.0731 0.0186h0.0903v0.0736h-0.0903q-0.10173 0-0.14041-0.0378-0.0387-0.0382-0.0387-0.13871v-0.29082h-0.0645v-0.0684h0.0645v-0.15211h0.0883z"/></g><rect x="221.25" y="376.81" width=".73999" height="13.35" fill="#fff" fill-opacity=".99149"/><g fill="#fff" stroke-width=".028159" aria-label="1GbE SFP Ports"><path d="m74.827 392.29v-0.67581h-0.0023l-0.21175 0.19148-0.04505-0.10137 0.25906-0.23654h0.1239v0.82224z"/><path d="m75.839 391.9h-0.25906v-0.0969h0.37733v0.4359q-0.12502 0.0619-0.27596 0.0619-0.20274 0-0.32439-0.11376-0.12052-0.11489-0.12052-0.30862t0.11601-0.30749q0.11714-0.11489 0.31763-0.11489 0.14417 0 0.25568 0.0687l-0.03942 0.0901q-0.09912-0.0597-0.205-0.0597-0.1498 0-0.23428 0.0879-0.08448 0.0879-0.08448 0.23541 0 0.14868 0.08898 0.23653 0.08898 0.0867 0.24104 0.0867 0.0811 0 0.14643-0.0282z"/><path d="m76.124 391.44h0.11264v0.33791h0.0023q0.06533-0.0901 0.17796-0.0901 0.11151 0 0.17346 0.0777 0.06308 0.0766 0.06308 0.2264 0 0.14755-0.06533 0.22639-0.0642 0.0777-0.1712 0.0777-0.11714 0-0.18134-0.0957h-0.0023l-0.0023 0.0845h-0.107zm0.419 0.55192q0-0.10701-0.04055-0.15994-0.04055-0.0541-0.11376-0.0541-0.06646 0-0.10926 0.0563-0.0428 0.0552-0.0428 0.15206v0.0113q0 0.098 0.0428 0.15318 0.0428 0.0552 0.10926 0.0552 0.06983 0 0.11151-0.0552 0.0428-0.0552 0.0428-0.15881z"/><path d="m76.918 391.56v0.23428h0.34917v0.0969h-0.34917v0.28835h0.3717v0.10137h-0.49559v-0.82224h0.49559v0.10137z"/><path d="m78.033 391.55q-0.06871 0-0.10588 0.0315-0.03717 0.0304-0.03717 0.0833 0 0.0935 0.13742 0.13516 0.14755 0.0417 0.20838 0.10362 0.06195 0.062 0.06195 0.16107 0 0.11151-0.07209 0.17121-0.07096 0.0597-0.20387 0.0597-0.13967 0-0.25343-0.0676l0.03379-0.10137q0.10137 0.0676 0.21964 0.0676 0.07321 0 0.11264-0.0338 0.03942-0.0338 0.03942-0.0957 0-0.0586-0.03154-0.0924t-0.11489-0.0597q-0.13404-0.0394-0.19711-0.10024-0.06195-0.0608-0.06195-0.14755 0-0.0969 0.06983-0.15544 0.07096-0.0586 0.19486-0.0586 0.1284 0 0.24216 0.0507l-0.02816 0.0957q-0.09799-0.0473-0.21401-0.0473z"/><path d="m78.455 391.46h0.48433v0.10137h-0.36043v0.24555h0.33791v0.0969h-0.33791v0.37846h-0.1239z"/><path d="m79.23 391.98v0.30975h-0.1239v-0.81661q0.11714-0.0169 0.2478-0.0169 0.15544 0 0.23541 0.0665 0.07997 0.0653 0.07997 0.18698 0 0.27595-0.31538 0.27595-0.0597 0-0.1239-6e-3zm0-0.10024q0.05632 9e-3 0.11264 9e-3 0.09912 0 0.15206-0.0428 0.05294-0.0439 0.05294-0.12503 0-0.0811-0.05181-0.12277-0.05181-0.0428-0.15318-0.0428-0.0642 0-0.11264 8e-3z"/><path d="m80.255 391.98v0.30975h-0.1239v-0.81661q0.11714-0.0169 0.2478-0.0169 0.15544 0 0.23541 0.0665 0.07997 0.0653 0.07997 0.18698 0 0.27595-0.31538 0.27595-0.0597 0-0.1239-6e-3zm0-0.10024q0.05632 9e-3 0.11264 9e-3 0.09912 0 0.15206-0.0428 0.05294-0.0439 0.05294-0.12503 0-0.0811-0.05181-0.12277-0.05181-0.0428-0.15318-0.0428-0.0642 0-0.11264 8e-3z"/><path d="m80.826 391.77q0.07772-0.0822 0.205-0.0822 0.12728 0 0.20387 0.0822 0.07772 0.0822 0.07772 0.22189 0 0.13966-0.07772 0.22189-0.07659 0.0822-0.20387 0.0822-0.12728 0-0.205-0.0822-0.07659-0.0822-0.07659-0.22189 0-0.13967 0.07659-0.22189zm0.08335 0.37958q0.04505 0.0563 0.12165 0.0563 0.07659 0 0.12165-0.0563 0.04505-0.0563 0.04505-0.15769 0-0.10137-0.04505-0.15769-0.04506-0.0563-0.12165-0.0563-0.07659 0-0.12165 0.0563-0.04505 0.0563-0.04505 0.15769 0 0.10137 0.04505 0.15769z"/><path d="m81.818 391.69v0.0946q-0.1239 0-0.19598 0.0676-0.07209 0.0665-0.07209 0.17571v0.25906h-0.11489v-0.5857h0.10926l0.0023 0.11263h0.0023q0.10362-0.1239 0.2692-0.1239z"/><path d="m82.169 391.72h0.21175v0.0901h-0.21175v0.27033q0 0.0732 0.01915 0.0991 0.01915 0.0248 0.06871 0.0248 0.05632 0 0.10137-0.0203l0.0169 0.0879q-0.0642 0.0225-0.13516 0.0225-0.09912 0-0.14305-0.0439-0.0428-0.0439-0.0428-0.14755v-0.29285h-0.1239v-0.0901h0.1239v-0.214h0.11489z"/><path d="m82.736 391.78q-0.11264 0-0.11264 0.0732 0 0.0349 0.02591 0.0552 0.02703 0.0192 0.09236 0.0293 0.11827 0.018 0.16895 0.0642 0.05069 0.0451 0.05069 0.12728 0 0.0788-0.0597 0.1239-0.05857 0.0451-0.16557 0.0451-0.12502 0-0.22527-0.0563l0.02253-0.0901q0.09236 0.0563 0.20274 0.0563 0.11038 0 0.11038-0.0788 0-0.0383-0.02591-0.0586-0.02478-0.0214-0.09011-0.0315-0.11601-0.0192-0.16783-0.0631-0.05181-0.0451-0.05181-0.12278 0-0.0743 0.05857-0.11826 0.05857-0.0451 0.1667-0.0451 0.11151 0 0.20274 0.0451l-0.02253 0.0901q-0.08335-0.0451-0.18022-0.0451z"/></g><path d="m69.688 390.75v1.1358h4.2944" fill="none" stroke="#fff" stroke-width=".14937"/><path d="m87.59 390.75v1.1358h-4.2944" fill="none" stroke="#fff" stroke-width=".14937"/></svg>
