<svg width="442" height="44.5" version="1.1" viewBox="70.4 401.06667 442 44.5" xmlns="http://www.w3.org/2000/svg"><rect x="70.829" y="401.46" width="441.13" height="43.706" fill="#4d4d4d" stroke="#000" stroke-width=".763"/><rect x="92.241" y="402.23" width="418.85" height="42.115" rx="1.2848" ry="1.192" fill="#e7e7e7" stroke-width="1.8807"/><rect x="93.389" y="403.38" width="37.251" height="13.971" rx=".60542" ry=".79835" fill="#1e90ff" stroke-width="1.8807"/><g fill="#fff" stroke-width="1.8807"><path d="m96.288 406.7q0.35647 0.0853 0.5406 0.29787 0.1865 0.21024 0.1865 0.53656 0 0.48619-0.40132 0.74024-0.40132 0.25187-1.1709 0.25187-0.27147 0-0.54533-0.0417-0.27147-0.0395-0.53824-0.12046v-0.65046q0.25495 0.11829 0.50518 0.17952 0.25259 0.0591 0.49575 0.0591 0.36118 0 0.5524-0.11612 0.19358-0.11612 0.19358-0.3329 0-0.22339-0.19831-0.33727-0.19594-0.11611-0.58073-0.11611h-0.36356v-0.54314h0.38244q0.34229 0 0.50991-0.0985 0.16761-0.10072 0.16761-0.30442 0-0.18834-0.16289-0.29129-0.16289-0.1029-0.46033-0.1029-0.21955 0-0.44381 0.046t-0.44617 0.13586v-0.61761q0.26911-0.0701 0.53351-0.10507 0.2644-0.035 0.51936-0.035 0.68697 0 1.0269 0.21024 0.34229 0.20807 0.34229 0.62855 0 0.28691-0.16289 0.47087-0.16289 0.18178-0.48157 0.25623z"/><path d="m99.08 406.99q-0.25495 0-0.39187 0.12916t-0.13692 0.37013q0 0.24091 0.13692 0.37012 0.13692 0.12699 0.39187 0.12699 0.25259 0 0.38714-0.12699 0.13456-0.12916 0.13456-0.37012 0-0.24309-0.13456-0.37013-0.13456-0.12916-0.38714-0.12916zm-0.66334-0.27814q-0.32105-0.0898-0.48394-0.27594-0.16289-0.18615-0.16289-0.46429 0-0.41393 0.33286-0.63075t0.97732-0.21682q0.63976 0 0.9726 0.21682 0.33286 0.21463 0.33286 0.63075 0 0.27814-0.16525 0.46429-0.16289 0.18615-0.48394 0.27594 0.35882 0.092 0.54061 0.30004 0.18413 0.20588 0.18413 0.52124 0 0.48621-0.34938 0.73587-0.34702 0.24749-1.0316 0.24749-0.68695 0-1.0387-0.24749-0.34938-0.24966-0.34938-0.73587 0-0.31536 0.18177-0.52124 0.18413-0.20805 0.54296-0.30004zm0.21246-0.65482q0 0.19492 0.11567 0.30004 0.11804 0.10507 0.33522 0.10507 0.21246 0 0.32814-0.10507t0.11567-0.30004q0-0.19492-0.11567-0.29786-0.11567-0.10507-0.32814-0.10507-0.21719 0-0.33522 0.10507-0.11567 0.10506-0.11567 0.29786z"/><path d="m102.98 406.81q0-0.61323-0.12513-0.86289-0.12276-0.25187-0.41547-0.25187-0.29272 0-0.41784 0.25187-0.12513 0.24966-0.12513 0.86289 0 0.61979 0.12513 0.87383 0.12512 0.25405 0.41784 0.25405 0.29035 0 0.41547-0.25405 0.12513-0.25404 0.12513-0.87383zm0.90886 7e-3q0 0.81253-0.37771 1.2549-0.37772 0.44022-1.0718 0.44022-0.6964 0-1.0741-0.44022-0.37771-0.44238-0.37771-1.2549 0-0.81471 0.37771-1.2549 0.37772-0.44239 1.0741-0.44239 0.69403 0 1.0718 0.44239 0.37771 0.44021 0.37771 1.2549z"/><path d="m106.34 406.81q0-0.61323-0.12512-0.86289-0.12276-0.25187-0.41548-0.25187-0.29271 0-0.41784 0.25187-0.12512 0.24966-0.12512 0.86289 0 0.61979 0.12512 0.87383 0.12513 0.25405 0.41784 0.25405 0.29036 0 0.41548-0.25405 0.12512-0.25404 0.12512-0.87383zm0.90887 7e-3q0 0.81253-0.37771 1.2549-0.37772 0.44022-1.0718 0.44022-0.6964 0-1.0741-0.44022-0.37772-0.44238-0.37772-1.2549 0-0.81471 0.37772-1.2549 0.37771-0.44239 1.0741-0.44239 0.69404 0 1.0718 0.44239 0.37771 0.44021 0.37771 1.2549z"/><path d="m107.74 406.85h1.4825v0.63732h-1.4825z"/><path d="m110.89 407.84h1.551v0.6198h-2.5612v-0.6198l1.2866-1.0534q0.17233-0.14456 0.25495-0.28252 0.0826-0.13804 0.0826-0.28689 0-0.22997-0.16761-0.37012-0.16525-0.14021-0.44145-0.14021-0.21246 0-0.46505 0.0853-0.25259 0.0831-0.5406 0.24968v-0.71835q0.30689-0.0942 0.6067-0.14239 0.2998-0.0504 0.58781-0.0504 0.63267 0 0.98205 0.25843 0.35174 0.25843 0.35174 0.72055 0 0.26717-0.14873 0.49932-0.14873 0.22997-0.62558 0.61761z"/><path d="m114.63 405.89-0.99621 1.3688h0.99621zm-0.15108-0.69426h1.0104v2.0631h0.50282v0.61101h-0.50282v0.59572h-0.85928v-0.59572h-1.5628v-0.72271z"/><path d="m119.11 405.29v0.69207q-0.29036-0.12047-0.56658-0.18177-0.27619-0.0612-0.5217-0.0612-0.32577 0-0.48157 0.0831-0.1558 0.0832-0.1558 0.25843 0 0.13133 0.10388 0.20586 0.10622 0.0723 0.38244 0.12481l0.38714 0.0723q0.58782 0.10959 0.83569 0.3329 0.24786 0.22337 0.24786 0.63511 0 0.54095-0.34702 0.80595-0.34465 0.26282-1.0552 0.26282-0.33523 0-0.67279-0.0591-0.33757-0.0591-0.67516-0.17517v-0.71178q0.33757 0.16648 0.65155 0.25188 0.31632 0.0831 0.60906 0.0831 0.29744 0 0.4556-0.092t0.15816-0.26281q0-0.15326-0.10858-0.23653-0.10622-0.0831-0.42729-0.14891l-0.35175-0.0723q-0.52878-0.10507-0.77431-0.3351-0.24316-0.22995-0.24316-0.61978 0-0.48838 0.33994-0.7512 0.33993-0.26281 0.97732-0.26281 0.29035 0 0.59725 0.0417 0.30689 0.0395 0.63503 0.12046z"/><path d="m120.15 405.18h2.4527v0.63732h-1.5439v0.60883h1.4518v0.63732h-1.4518v1.3863h-0.90887z"/><path d="m123.45 405.18h1.5085q0.6728 0 1.0316 0.27814 0.36119 0.27594 0.36119 0.78844 0 0.51466-0.36119 0.7928-0.35881 0.27594-1.0316 0.27594h-0.59961v1.1345h-0.90886zm0.90886 0.61104v0.91327h0.50282q0.2644 0 0.40839-0.1183 0.14401-0.12046 0.14401-0.33945 0-0.21901-0.14401-0.33729-0.144-0.11829-0.40839-0.11829z"/></g><ellipse cx="135.83" cy="406.49" rx="1.4351" ry="1.4375" fill="#333" stroke-width="1.8807"/><path d="m91.565 444.73-0.0077-42.906" fill="none" stroke="#333" stroke-linejoin="round" stroke-width=".99885"/><rect x="492.5" y="405.38" width="7.4049" height="3.75" rx=".089044" ry=".043548" stroke-width="1.8807"/><text transform="scale(1.0385 .96289)" x="475.45117" y="424.14056" fill="#000000" font-family="sans-serif" font-size="3.301px" stroke-width="1.8807" style="line-height:0%"><tspan x="475.45117" y="424.14056" fill="#ffffff" font-family="sans-serif" font-weight="bold" stroke-width="1.8807">25</tspan></text><g fill="#fff" stroke-width="1.8807"><path d="m96.003 409.74v0.43038q-0.18058-0.075-0.35235-0.11304-0.17177-0.0382-0.32445-0.0382-0.2026 0-0.29949 0.0518t-0.09689 0.16068q0 0.0817 0.06459 0.12807 0.06606 0.0449 0.23783 0.0777l0.24076 0.0449q0.36555 0.0681 0.51971 0.20702 0.15416 0.13894 0.15416 0.39498 0 0.33641-0.2158 0.5012-0.21434 0.1634-0.65624 0.1634-0.20846 0-0.41841-0.0368t-0.41987-0.10888v-0.44265q0.20994 0.10343 0.40519 0.15669 0.19673 0.0518 0.37877 0.0518 0.18497 0 0.28334-0.0572 0.09835-0.0572 0.09835-0.1634 0-0.0953-0.06752-0.14709-0.06606-0.0518-0.26573-0.0926l-0.21875-0.0449q-0.32886-0.0654-0.48154-0.20839-0.15121-0.14293-0.15121-0.38544 0-0.30371 0.21141-0.46716 0.21141-0.1634 0.60779-0.1634 0.18058 0 0.37143 0.0259 0.19085 0.0245 0.39492 0.0748z"/><path d="m96.475 410.18h0.5109l0.276 1.0514 0.27747-1.0514h0.43895l0.276 1.0406 0.27747-1.0406h0.5109l-0.43309 1.5254h-0.57403l-0.27747-1.0487-0.276 1.0487h-0.57403z"/><path d="m99.399 410.18h0.52557v1.5254h-0.52557zm0-0.59383h0.52557v0.3977h-0.52557z"/><path d="m101.01 409.76v0.43311h0.54174v0.34868h-0.54174v0.64694q0 0.10615 0.0455 0.14437 0.0455 0.0368 0.18058 0.0368h0.27012v0.34866h-0.4507q-0.31123 0-0.4419-0.11993-0.12918-0.12118-0.12918-0.40996v-0.64694h-0.26132v-0.34867h0.26132v-0.43312z"/><path d="m103.2 410.23v0.39769q-0.10716-0.0681-0.2158-0.10072-0.10718-0.0326-0.22315-0.0326-0.22021 0-0.34354 0.11992-0.12184 0.11847-0.12184 0.33232 0 0.21383 0.12184 0.33369 0.12333 0.11848 0.34354 0.11848 0.12333 0 0.23342-0.0341 0.11157-0.0341 0.20553-0.10072v0.39906q-0.12333 0.0422-0.25105 0.0627-0.12625 0.0217-0.25397 0.0217-0.44483 0-0.69588-0.21109-0.25105-0.21247-0.25105-0.58975 0-0.37727 0.25105-0.58838 0.25105-0.21247 0.69588-0.21247 0.12918 0 0.25397 0.0217 0.12626 0.0205 0.25105 0.0627z"/><path d="m105.31 410.78v0.92888h-0.52852v-0.7083q0-0.20022-0.0104-0.27513-9e-3 -0.075-0.0323-0.11032-0.0308-0.0476-0.0837-0.0735-0.0529-0.0272-0.12038-0.0272-0.16443 0-0.25839 0.11847-0.094 0.11721-0.094 0.32553v0.75045h-0.52557v-2.1193h0.52557v0.8172q0.11891-0.13351 0.25251-0.19613 0.1336-0.0639 0.29508-0.0639 0.28481 0 0.43161 0.16213 0.14828 0.16213 0.14828 0.47125z"/></g><rect x="488.32" y="410.59" width="15.686" height="24.642" rx=".025115" ry=".0057803" fill="#ccc" fill-rule="evenodd" stroke="#000" stroke-width=".54337"/><rect x="95.79" y="418.01" width="17.196" height="21.036" rx=".025115" ry=".0057803" fill="#ebebeb" fill-rule="evenodd" stroke="#000" stroke-width=".54337"/><rect x="492.5" y="438.18" width="7.4049" height="3.75" rx=".089044" ry=".043548" stroke-width="1.8807"/><text transform="scale(1.0385 .96289)" x="475.45117" y="458.19513" fill="#000000" font-family="sans-serif" font-size="3.301px" stroke-width="1.8807" style="line-height:0%"><tspan x="475.45117" y="458.19513" fill="#ffffff" font-family="sans-serif" font-weight="bold" stroke-width="1.8807">26</tspan></text><rect x="375.65" y="410.54" width="86.607" height="24.662" rx=".025014" ry=".0053761" fill="#ccc" fill-rule="evenodd" stroke="#000" stroke-width=".52296"/><rect x="380.61" y="404.85" width="5.3849" height="4.2513"/><rect x="394.9" y="404.85" width="5.3849" height="4.2513"/><rect x="409.15" y="404.85" width="5.3849" height="4.2513"/><rect x="423.44" y="404.85" width="5.3849" height="4.2513"/><rect x="437.64" y="404.85" width="5.3849" height="4.2513"/><rect x="451.89" y="404.85" width="5.3849" height="4.2513"/><rect x="451.89" y="437.49" width="5.3849" height="4.2513"/><rect x="437.64" y="437.49" width="5.3849" height="4.2513"/><rect x="423.44" y="437.49" width="5.3849" height="4.2513"/><rect x="409.15" y="437.49" width="5.3849" height="4.2513"/><rect x="394.9" y="437.49" width="5.3849" height="4.2513"/><rect x="380.61" y="437.49" width="5.3849" height="4.2513"/><g fill="#fff"><path d="m384.28 438.44-0.99023 1.4043v0.51953h1.0957v0.42773h0.60156v-0.42773h0.35352v-0.43946h-0.35352v-1.4844zm-2.4355 0.0351-0.58204 0.11133v0.40625l0.58594-0.11133v1.498h-0.57031v0.41211h1.752v-0.41211h-0.57226v-1.9043zm2.541 0.46485v0.98437h-0.69922z"/><path d="m397.9 405.79v1.3086c0.53227-0.21813 1.125-0.2127 1.125 0.25781 0 0.39299-0.56217 0.56652-1.2226 0.17773v0.47071c0.79449 0.27395 1.8594 0.22435 1.8594-0.64844 0-0.58486-0.49166-0.90286-1.2539-0.76562v-0.35938h1.0762v-0.4414zm-1.7832 0.0449-0.58398 0.11133v0.40821l0.58593-0.11328v1.498h-0.57031v0.41406h1.752v-0.41406h-0.57031v-1.9043z"/><path d="m411.98 405.82v0.43945h1.2109l-0.92774 1.8789h0.63086l0.98047-1.9824v-0.33593zm-1.5879 2e-3 -0.58203 0.11133v0.40625l0.58594-0.11133v1.498h-0.57032v0.4121h1.75v-0.4121h-0.57031v-1.9043z"/><path d="m412.98 438.41c-0.4431 0-0.9375 0.10236-0.9375 0.60157 0 0.13564 0.0439 0.41345 0.46289 0.52343-0.14643 0.039-0.51953 0.16044-0.51953 0.58398 0 0.42942 0.29687 0.71177 0.99414 0.69727 0.49176 0 0.98828-0.12124 0.98828-0.69727 0-0.22937-0.11612-0.47654-0.51953-0.58398 0.16991-0.0452 0.46485-0.17908 0.46485-0.52343 0-0.33812-0.24557-0.60157-0.9336-0.60157zm-2.6797 0.0879-0.58204 0.11327v0.40625l0.58594-0.11133v1.4961h-0.57031v0.41407h1.752v-0.41407h-0.57226v-1.9043zm2.6797 0.28711c0.1629 0 0.31836 0.0648 0.31836 0.2871 0 0.22234-0.15808 0.28711-0.31836 0.28711-0.16026 0-0.32226-0.0707-0.32226-0.28711 0-0.21645 0.15943-0.2871 0.32226-0.2871zm0 0.94727c0.2351 0 0.37305 0.10665 0.37305 0.35547 0 0.24885-0.16534 0.35157-0.37305 0.35157-0.20772 0-0.3789-0.12147-0.3789-0.35157 0-0.23002 0.14386-0.35547 0.3789-0.35547z"/><g stroke-width="1.8828"><path d="m441.14 405.84-0.58203 0.11328v0.40625l0.58399-0.11132v1.4961h-0.57032v0.41406h1.752v-0.41406h-0.57032v-1.9043z"/><path d="m438.99 405.8c-0.20889 0.0163-0.43181 0.0604-0.65039 0.12696v0.51172c0.69595-0.49566 1.5783-0.14719 0.90625 0.5293l-0.91211 0.74804v0.4414h1.8144v-0.4414h-1.0996l0.53516-0.43554c0.27534-0.23271 0.52747-0.40436 0.54687-0.79492 0-0.69658-0.68552-0.72677-1.1406-0.68555z"/><path d="m427.27 438.41c-0.82093 0-1.0334 0.67487-1.0332 1.2031 2.2e-4 0.66066 0.27702 1.2015 1.0332 1.2012 0.75619-3.1e-4 1.0293-0.54826 1.0293-1.2012 0-0.6529-0.20835-1.2031-1.0293-1.2031zm0 0.40817c0.29607 0 0.38282 0.25837 0.38282 0.78906s-0.082 0.80077-0.38282 0.80077c-0.30083 0-0.38671-0.28294-0.38671-0.80077s0.0906-0.78906 0.38671-0.78906z"/><path d="m424.63 438.46c-0.20889 0.0163-0.43181 0.0604-0.65039 0.12695v0.51173c0.69595-0.49566 1.5783-0.1472 0.90625 0.52929l-0.91211 0.74805v0.44139h1.8144v-0.44139h-1.0996l0.53516-0.43555c0.27534-0.23271 0.52747-0.40435 0.54687-0.79492 0-0.65955-0.70488-0.68554-1.1406-0.68554z"/><path d="m438.89 438.44c-0.20889 0.0163-0.43181 0.0604-0.65039 0.12695v0.51173c0.69595-0.49566 1.5783-0.1472 0.90625 0.52929l-0.91211 0.74805v0.44139h1.8144v-0.44139h-1.0996l0.53516-0.43555c0.27534-0.2327 0.54687-0.43065 0.54687-0.79491 0-0.69926-0.65259-0.7129-1.1406-0.68555z"/><path d="m441.27 438.44c-0.20889 0.0163-0.43181 0.0604-0.65039 0.12695v0.51173c0.69595-0.49566 1.5783-0.1472 0.90625 0.52929l-0.91211 0.74805v0.44139h1.8144v-0.44139h-1.0996l0.53516-0.43555c0.27534-0.2327 0.52747-0.40435 0.54687-0.79491 0-0.66476-0.64646-0.71115-1.1406-0.68555z"/></g><path d="m455.68 438.45-0.98828 1.4043v0.51953h1.0957v0.42773h0.60157v-0.42773h0.35351v-0.43945h-0.35351v-1.4844zm0.10742 0.5v0.98438h-0.69921z"/><path d="m453.08 438.44c-0.20889 0.0163-0.43181 0.0604-0.65039 0.12695v0.51173c0.69595-0.49566 1.5783-0.1472 0.90625 0.52929l-0.91211 0.74805v0.44139h1.8144v-0.44139h-1.0996l0.53516-0.43555c0.27534-0.2327 0.54687-0.40728 0.54687-0.79491 0-0.68151-0.65818-0.73068-1.1406-0.68555z" stroke-width="1.8828"/><path d="m381.83 405.86-0.58203 0.11133v0.40625l0.58398-0.11133v1.498h-0.57031v0.41211h1.752v-0.41211h-0.57031v-1.9043z"/><path d="m384.84 406.89c0.38662 0.10336 0.51581 0.34599 0.51581 0.58911 0 0.80926-1.1898 0.77182-1.8841 0.58615v-0.45925c0.60788 0.27695 1.2394 0.223 1.2394-0.14848 0.0157-0.34236-0.55269-0.32007-0.55269-0.32007h-0.2579v-0.38346h0.27131c0.14637 0 0.48075-5e-3 0.48075-0.28458 0-0.40105-0.76758-0.2827-1.0734-0.1501v-0.43604c0.82218-0.21988 1.7183-0.12215 1.7183 0.49339 0 0.35557-0.25306 0.45854-0.45748 0.51333z"/><path d="m453.13 405.82c-0.20889 0.0163-0.43181 0.0604-0.65039 0.12695v0.51173c0.69595-0.49566 1.5783-0.1472 0.90625 0.52929l-0.91211 0.74805v0.4414h1.8144v-0.4414h-1.0996l0.53516-0.43555c0.27534-0.23271 0.52747-0.40435 0.54687-0.79491 0-0.67584-0.63083-0.72677-1.1406-0.68555z" stroke-width="1.8828"/><path d="m456.18 406.89c0.38662 0.10336 0.51581 0.34598 0.51581 0.58911 0 0.80926-1.1898 0.77181-1.8841 0.58614v-0.45925c0.60788 0.27696 1.2394 0.223 1.2394-0.14848 0.0157-0.34236-0.55269-0.32006-0.55269-0.32006h-0.2579v-0.38346h0.27131c0.14637 0 0.48075-5e-3 0.48075-0.28458 0-0.40106-0.76758-0.2827-1.0734-0.1501v-0.43604c0.82218-0.21988 1.7183-0.12215 1.7183 0.49339 0 0.35557-0.25306 0.45854-0.45748 0.51333z"/><path d="m396.03 438.49-0.58204 0.11135v0.40821l0.58594-0.11329v1.498h-0.57031v0.41406h1.752v-0.41406h-0.57226v-1.9043z"/><path d="m397.72 439.64c0 0.66793 0.31197 1.1699 1.0312 1.1699 0.39994 0 0.97352-0.16222 0.97852-0.82032 0-0.60496-0.6981-0.99704-1.3887-0.60156 0-0.4558 0.38951-0.76647 1.2226-0.45117v-0.42969c-1.1969-0.3207-1.8436 0.25418-1.8436 1.1328zm1.039-0.0195c0.27204 0 0.34375 0.19797 0.34375 0.40821s-0.0798 0.40625-0.34375 0.40625c-0.26397 0-0.3418-0.16457-0.3418-0.40625 0-0.24167 0.0697-0.40821 0.3418-0.40821z"/><path d="m427.19 405.77c-0.36704 0-0.95484 0.15831-0.96484 0.82423 0 0.61023 0.70554 0.9853 1.3789 0.59766-0.0474 0.50342-0.43725 0.755-1.2129 0.45312v0.42969c0.88597 0.27741 1.8262 0.0215 1.8262-1.1348 0-0.91568-0.46932-1.1699-1.0274-1.1699zm-2.5527 0.0899-0.58203 0.11132v0.40625l0.58594-0.11132v1.498h-0.57032v0.41211h1.75v-0.41211h-0.57031v-1.9043zm2.5508 0.28515c0.24345 0 0.33985 0.15432 0.33985 0.40625 0 0.25196-0.11834 0.40625-0.33985 0.40625-0.22155 0-0.3418-0.1365-0.3418-0.40625 0-0.26979 0.0984-0.40625 0.3418-0.40625z"/></g><rect x="447.73" y="411.18" width="13.946" height="7.5532" stroke="#7f7f7f" stroke-width=".25728"/><polygon transform="matrix(2.7669 0 0 2.6334 -249.7 -599.55)" points="252.18 383.94 252.18 386.54 256.98 386.54 256.98 383.94 253.58 383.94" fill="none" stroke="#7f7f7f" stroke-width=".023002"/><rect x="451.8" y="417.73" width="5.8203" height=".35355" rx=".04729" ry=".010884" fill="#999" fill-rule="evenodd" stroke-width="1.8807"/><rect x="376.39" y="411.18" width="13.946" height="7.5532" stroke="#7f7f7f" stroke-width=".25728"/><polygon transform="matrix(2.7669 0 0 2.6334 -321.04 -599.55)" points="256.98 386.54 256.98 383.94 253.58 383.94 252.18 383.94 252.18 386.54" fill="none" stroke="#7f7f7f" stroke-width=".023002"/><rect x="380.46" y="417.73" width="5.8203" height=".35355" rx=".04729" ry=".010884" fill="#999" fill-rule="evenodd" stroke-width="1.8807"/><rect x="390.65" y="411.18" width="13.946" height="7.5532" stroke="#7f7f7f" stroke-width=".25728"/><polygon transform="matrix(2.7669 0 0 2.6334 -306.78 -599.55)" points="252.18 386.54 256.98 386.54 256.98 383.94 253.58 383.94 252.18 383.94" fill="none" stroke="#7f7f7f" stroke-width=".023002"/><rect x="394.73" y="417.73" width="5.8203" height=".35355" rx=".04729" ry=".010884" fill="#999" fill-rule="evenodd" stroke-width="1.8807"/><rect x="404.92" y="411.18" width="13.946" height="7.5532" stroke="#7f7f7f" stroke-width=".25728"/><polygon transform="matrix(2.7669 0 0 2.6334 -292.51 -599.55)" points="252.18 386.54 256.98 386.54 256.98 383.94 253.58 383.94 252.18 383.94" fill="none" stroke="#7f7f7f" stroke-width=".023002"/><rect x="409" y="417.73" width="5.8203" height=".35355" rx=".04729" ry=".010884" fill="#999" fill-rule="evenodd" stroke-width="1.8807"/><rect x="419.19" y="411.18" width="13.946" height="7.5532" stroke="#7f7f7f" stroke-width=".25728"/><polygon transform="matrix(2.7669 0 0 2.6334 -278.24 -599.55)" points="252.18 386.54 256.98 386.54 256.98 383.94 253.58 383.94 252.18 383.94" fill="none" stroke="#7f7f7f" stroke-width=".023002"/><rect x="423.27" y="417.73" width="5.8203" height=".35355" rx=".04729" ry=".010884" fill="#999" fill-rule="evenodd" stroke-width="1.8807"/><rect x="433.46" y="411.18" width="13.946" height="7.5532" stroke="#7f7f7f" stroke-width=".25728"/><polygon transform="matrix(2.7669 0 0 2.6334 -263.97 -599.55)" points="252.18 386.54 256.98 386.54 256.98 383.94 253.58 383.94 252.18 383.94" fill="none" stroke="#7f7f7f" stroke-width=".023002"/><rect x="437.53" y="417.73" width="5.8203" height=".35355" rx=".04729" ry=".010884" fill="#999" fill-rule="evenodd" stroke-width="1.8807"/><rect transform="scale(-1)" x="-390.17" y="-434.57" width="13.946" height="7.5532" stroke="#7f7f7f" stroke-width=".25728"/><polygon transform="matrix(-2.7669 0 0 -2.6334 1087.6 1445.3)" points="256.98 386.54 256.98 383.94 253.58 383.94 252.18 383.94 252.18 386.54" fill="none" stroke="#7f7f7f" stroke-width=".023002"/><rect transform="scale(-1)" x="-386.09" y="-428.02" width="5.8203" height=".35355" rx=".04729" ry=".010884" fill="#999" fill-rule="evenodd" stroke-width="1.8807"/><rect transform="scale(-1)" x="-461.51" y="-434.57" width="13.946" height="7.5532" stroke="#7f7f7f" stroke-width=".25728"/><polygon transform="matrix(-2.7669 0 0 -2.6334 1158.9 1445.3)" points="253.58 383.94 252.18 383.94 252.18 386.54 256.98 386.54 256.98 383.94" fill="none" stroke="#7f7f7f" stroke-width=".023002"/><rect transform="scale(-1)" x="-457.43" y="-428.02" width="5.8203" height=".35355" rx=".04729" ry=".010884" fill="#999" fill-rule="evenodd" stroke-width="1.8807"/><rect transform="scale(-1)" x="-447.24" y="-434.57" width="13.946" height="7.5532" stroke="#7f7f7f" stroke-width=".25728"/><polygon transform="matrix(-2.7669 0 0 -2.6334 1144.7 1445.3)" points="256.98 383.94 253.58 383.94 252.18 383.94 252.18 386.54 256.98 386.54" fill="none" stroke="#7f7f7f" stroke-width=".023002"/><rect transform="scale(-1)" x="-443.16" y="-428.02" width="5.8203" height=".35355" rx=".04729" ry=".010884" fill="#999" fill-rule="evenodd" stroke-width="1.8807"/><rect transform="scale(-1)" x="-432.97" y="-434.57" width="13.946" height="7.5532" stroke="#7f7f7f" stroke-width=".25728"/><polygon transform="matrix(-2.7669 0 0 -2.6334 1130.4 1445.3)" points="256.98 383.94 253.58 383.94 252.18 383.94 252.18 386.54 256.98 386.54" fill="none" stroke="#7f7f7f" stroke-width=".023002"/><rect transform="scale(-1)" x="-428.9" y="-428.02" width="5.8203" height=".35355" rx=".04729" ry=".010884" fill="#999" fill-rule="evenodd" stroke-width="1.8807"/><rect transform="scale(-1)" x="-418.7" y="-434.57" width="13.946" height="7.5532" stroke="#7f7f7f" stroke-width=".25728"/><polygon transform="matrix(-2.7669 0 0 -2.6334 1116.1 1445.3)" points="256.98 383.94 253.58 383.94 252.18 383.94 252.18 386.54 256.98 386.54" fill="none" stroke="#7f7f7f" stroke-width=".023002"/><rect transform="scale(-1)" x="-414.63" y="-428.02" width="5.8203" height=".35355" rx=".04729" ry=".010884" fill="#999" fill-rule="evenodd" stroke-width="1.8807"/><rect transform="scale(-1)" x="-404.44" y="-434.57" width="13.946" height="7.5532" stroke="#7f7f7f" stroke-width=".25728"/><polygon transform="matrix(-2.7669 0 0 -2.6334 1101.9 1445.3)" points="256.98 383.94 253.58 383.94 252.18 383.94 252.18 386.54 256.98 386.54" fill="none" stroke="#7f7f7f" stroke-width=".023002"/><rect transform="scale(-1)" x="-400.36" y="-428.02" width="5.8203" height=".35355" rx=".04729" ry=".010884" fill="#999" fill-rule="evenodd" stroke-width="1.8807"/><g fill="#008000" fill-rule="evenodd" stroke="#2d5016" stroke-linejoin="round"><path d="m458.56 424.34 1.0849-2.9714 1.0849 2.9714z" stroke-width=".44698"/><path d="m458.82 421.4-1.0849 2.9714-1.0849-2.9714z" stroke-width=".447"/><path d="m452.72 421.39-1.0849 2.9714-1.0849-2.9714z" stroke-width=".44698"/><path d="m448.65 424.32 1.0849-2.9714 1.0849 2.9714z" stroke-width=".447"/><path d="m387.22 424.34 1.0849-2.9714 1.0849 2.9714z" stroke-width=".44698"/><path d="m387.48 421.4-1.0849 2.9714-1.0849-2.9714z" stroke-width=".447"/><path d="m381.38 421.39-1.0849 2.9714-1.0849-2.9714z" stroke-width=".44698"/><path d="m377.31 424.32 1.0849-2.9714 1.0849 2.9714z" stroke-width=".447"/><path d="m401.48 424.34 1.0849-2.9714 1.0849 2.9714z" stroke-width=".44698"/><path d="m401.75 421.4-1.0849 2.9714-1.0849-2.9714z" stroke-width=".447"/><path d="m395.65 421.39-1.0849 2.9714-1.0849-2.9714z" stroke-width=".44698"/><path d="m391.58 424.32 1.0849-2.9714 1.0849 2.9714z" stroke-width=".447"/><path d="m415.75 424.34 1.0849-2.9714 1.0849 2.9714z" stroke-width=".44698"/><path d="m416.02 421.4-1.0849 2.9714-1.0849-2.9714z" stroke-width=".447"/><path d="m409.92 421.39-1.0849 2.9714-1.0849-2.9714z" stroke-width=".44698"/><path d="m405.85 424.32 1.0849-2.9714 1.0849 2.9714z" stroke-width=".447"/><path d="m430.02 424.34 1.0849-2.9714 1.0849 2.9714z" stroke-width=".44698"/><path d="m430.28 421.4-1.0849 2.9714-1.0849-2.9714z" stroke-width=".447"/><path d="m424.18 421.39-1.0849 2.9714-1.0849-2.9714z" stroke-width=".44698"/><path d="m420.11 424.32 1.0849-2.9714 1.0849 2.9714z" stroke-width=".447"/><path d="m444.29 424.34 1.0849-2.9714 1.0849 2.9714z" stroke-width=".44698"/><path d="m444.55 421.4-1.0849 2.9714-1.0849-2.9714z" stroke-width=".447"/><path d="m438.45 421.39-1.0849 2.9714-1.0849-2.9714z" stroke-width=".44698"/><path d="m434.38 424.32 1.0849-2.9714 1.0849 2.9714z" stroke-width=".447"/></g><rect x="276.48" y="410.51" width="86.607" height="24.662" rx=".025014" ry=".0053761" fill="#ccc" fill-rule="evenodd" stroke="#000" stroke-width=".52296"/><rect x="352.86" y="404.85" width="5.3849" height="4.2513"/><rect x="281.53" y="404.85" width="5.3849" height="4.2513"/><rect x="295.7" y="404.85" width="5.3849" height="4.2513"/><rect x="310" y="404.85" width="5.3849" height="4.2513"/><rect x="324.24" y="404.85" width="5.3849" height="4.2513"/><rect x="338.5" y="404.85" width="5.3849" height="4.2513"/><rect x="281.53" y="437.49" width="5.3849" height="4.2513"/><rect x="295.7" y="437.49" width="5.3849" height="4.2513"/><rect x="310" y="437.49" width="5.3849" height="4.2513"/><rect x="324.24" y="437.49" width="5.3849" height="4.2513"/><rect x="338.5" y="437.49" width="5.3849" height="4.2513"/><rect x="352.86" y="437.49" width="5.3849" height="4.2513"/><g fill="#fff"><path d="m283.34 407.56h0.57044v-1.4977l-0.58555 0.11174v-0.40663l0.58218-0.11174h0.61408v1.9044h0.57044v0.41284h-1.7516z"/><path d="m340.36 407.65c0.77564 0.30187 1.1655 0.0487 1.2129-0.45473-0.67337 0.38764-1.3791 0.0127-1.3791-0.59753 0.01-0.66591 0.59936-0.82413 0.9664-0.82413 0.82871 0 1.0268 0.63138 1.0268 1.1702 0 1.1563-0.94113 1.412-1.8271 1.1346zm0.79696-0.68753c0.22151 0 0.34055-0.15465 0.34055-0.40661 0-0.25193-0.0971-0.4067-0.34055-0.4067-0.2434 0-0.34057 0.13691-0.34057 0.4067 0 0.26974 0.11902 0.40661 0.34057 0.40661z"/><path d="m284.03 440.36h1.0987v0.44066h-1.8144v-0.44066l0.9114-0.74897c0.67208-0.67649-0.20858-1.0249-0.90453-0.52927v-0.51072c0.87434-0.26633 1.791-0.16133 1.791 0.55902-0.0194 0.39057-0.27317 0.56141-0.54851 0.79412z"/><path d="m298.46 438.94-0.69846 0.98428h0.69846zm-0.10604-0.49923h0.70839v1.4835h0.35255v0.43938h-0.35255v0.42837h-0.60246v-0.42837h-1.0957v-0.5197z"/><path d="m311.86 405.79h1.583v0.44029h-1.0752v0.35939c0.76225-0.13724 1.2538 0.18063 1.2538 0.76549 0 0.87279-1.0647 0.92282-1.8592 0.64886v-0.47141c0.66048 0.38878 1.2224 0.21563 1.2224-0.17736 0-0.47051-0.5925-0.47647-1.1248-0.25834z"/><path d="m325.98 405.82h1.8955v0.33699l-0.98062 1.9816h-0.63185l0.9284-1.8791h-1.2115z"/><path d="m326.94 439.74c-0.23504 0-0.37844 0.12413-0.37844 0.35414 0 0.2301 0.17072 0.3525 0.37844 0.3525 0.20771 0 0.37328-0.10365 0.37328-0.3525 0-0.24881-0.13818-0.35414-0.37328-0.35414zm-0.47473-0.19722c-0.41897-0.10998-0.46287-0.38925-0.46287-0.52489 0-0.49921 0.49456-0.60092 0.93766-0.60092 0.68803 0 0.93428 0.26281 0.93428 0.60092 0 0.34435-0.29471 0.47967-0.46462 0.52489 0.40341 0.10745 0.51857 0.35296 0.51857 0.58234 0 0.57602-0.49659 0.6972-0.98835 0.6972-0.69727 0.0145-0.9934-0.26779-0.9934-0.6972 0-0.431 0.30669-0.52552 0.51873-0.58234zm0.15198-0.46434c0 0.21646 0.16244 0.28724 0.3227 0.28724 0.16028 0 0.31764-0.0649 0.31764-0.28724 0-0.22226-0.15474-0.28566-0.31764-0.28566-0.16283 0-0.3227 0.0692-0.3227 0.28566z"/><path d="m342.27 438.41c-0.82094 0-1.0334 0.67489-1.0332 1.2031 2.2e-4 0.66066 0.27702 1.2015 1.0332 1.2012s1.0293-0.54826 1.0293-1.2012c0-0.6529-0.20836-1.2031-1.0293-1.2031zm-2.6035 0.0879-0.58203 0.11134v0.40625l0.58593-0.11134v1.498h-0.57031v0.41211h1.752v-0.41211h-0.57031v-1.9043zm2.6035 0.32032c0.29607 0 0.38282 0.25838 0.38282 0.78906 0 0.53069-0.082 0.80078-0.38282 0.80078-0.30083 0-0.38672-0.28294-0.38672-0.80078 0-0.51783 0.0906-0.78906 0.38672-0.78906z"/><path d="m354.06 405.82-0.58203 0.11328v0.40625l0.58594-0.11134v1.4961h-0.57031v0.41406h1.752v-0.41406h-0.57227v-1.9043zm2.3789 0-0.58203 0.11328v0.40625l0.58593-0.11134v1.4961h-0.57031v0.41406h1.752v-0.41406h-0.57032v-1.9043z"/><path d="m354.09 438.48-0.58204 0.11133v0.40625l0.58594-0.11133v1.498h-0.57031v0.4121h1.752v-0.4121h-0.57031v-1.9043z" stroke-width="1.8828"/><path d="m356.43 438.44c-0.20889 0.0163-0.43181 0.0604-0.65039 0.12695v0.51172c0.69595-0.49566 1.5783-0.14719 0.90625 0.5293l-0.91211 0.74805v0.4414h1.8144v-0.4414h-1.0996l0.53516-0.43555c0.27534-0.23271 0.54687-0.39254 0.54687-0.79492 0-0.60982-0.5733-0.71806-1.1406-0.68555z" stroke-width="1.8828"/><path d="m298.82 406.89c0.38662 0.10336 0.51581 0.34598 0.51581 0.58911 0 0.80926-1.1898 0.77182-1.8841 0.58614v-0.45925c0.60788 0.27696 1.2394 0.22301 1.2394-0.14848 0.0157-0.34236-0.55269-0.32006-0.55269-0.32006h-0.2579v-0.38346h0.27131c0.14637 0 0.48075-5e-3 0.48075-0.28458 0-0.40106-0.76758-0.2827-1.0734-0.1501v-0.43604c0.82218-0.21988 1.7183-0.12215 1.7183 0.49339 0 0.35557-0.25306 0.45854-0.45748 0.51333z"/><path d="m311.69 439.64c0 0.66794 0.31197 1.1699 1.0312 1.1699 0.39994 0 0.97352-0.16222 0.97852-0.82032 0-0.60496-0.6981-0.99704-1.3887-0.60156 0-0.4558 0.38951-0.76647 1.2226-0.45117v-0.42968c-1.1262-0.30177-1.8436 0.23517-1.8436 1.1328zm1.039-0.0195c0.27204 0 0.34375 0.19797 0.34375 0.40821s-0.0798 0.40625-0.34375 0.40625c-0.26397 0-0.3418-0.16457-0.3418-0.40625 0-0.24167 0.0697-0.40821 0.3418-0.40821z"/></g><rect x="348.56" y="411.15" width="13.946" height="7.5532" stroke="#7f7f7f" stroke-width=".25728"/><polygon transform="matrix(2.7669 0 0 2.6334 -348.87 -599.59)" points="256.98 383.94 253.58 383.94 252.18 383.94 252.18 386.54 256.98 386.54" fill="none" stroke="#7f7f7f" stroke-width=".023002"/><rect x="352.64" y="417.7" width="5.8203" height=".35355" rx=".04729" ry=".010884" fill="#999" fill-rule="evenodd" stroke-width="1.8807"/><rect x="277.23" y="411.15" width="13.946" height="7.5532" stroke="#7f7f7f" stroke-width=".25728"/><polygon transform="matrix(2.7669 0 0 2.6334 -420.21 -599.59)" points="252.18 383.94 252.18 386.54 256.98 386.54 256.98 383.94 253.58 383.94" fill="none" stroke="#7f7f7f" stroke-width=".023002"/><rect x="281.3" y="417.7" width="5.8203" height=".35355" rx=".04729" ry=".010884" fill="#999" fill-rule="evenodd" stroke-width="1.8807"/><rect x="291.49" y="411.15" width="13.946" height="7.5532" stroke="#7f7f7f" stroke-width=".25728"/><polygon transform="matrix(2.7669 0 0 2.6334 -405.94 -599.59)" points="253.58 383.94 252.18 383.94 252.18 386.54 256.98 386.54 256.98 383.94" fill="none" stroke="#7f7f7f" stroke-width=".023002"/><rect x="295.57" y="417.7" width="5.8203" height=".35355" rx=".04729" ry=".010884" fill="#999" fill-rule="evenodd" stroke-width="1.8807"/><rect x="305.76" y="411.15" width="13.946" height="7.5532" stroke="#7f7f7f" stroke-width=".25728"/><polygon transform="matrix(2.7669 0 0 2.6334 -391.67 -599.59)" points="253.58 383.94 252.18 383.94 252.18 386.54 256.98 386.54 256.98 383.94" fill="none" stroke="#7f7f7f" stroke-width=".023002"/><rect x="309.83" y="417.7" width="5.8203" height=".35355" rx=".04729" ry=".010884" fill="#999" fill-rule="evenodd" stroke-width="1.8807"/><rect x="320.03" y="411.15" width="13.946" height="7.5532" stroke="#7f7f7f" stroke-width=".25728"/><polygon transform="matrix(2.7669 0 0 2.6334 -377.4 -599.59)" points="253.58 383.94 252.18 383.94 252.18 386.54 256.98 386.54 256.98 383.94" fill="none" stroke="#7f7f7f" stroke-width=".023002"/><rect x="324.1" y="417.7" width="5.8203" height=".35355" rx=".04729" ry=".010884" fill="#999" fill-rule="evenodd" stroke-width="1.8807"/><rect x="334.29" y="411.15" width="13.946" height="7.5532" stroke="#7f7f7f" stroke-width=".25728"/><polygon transform="matrix(2.7669 0 0 2.6334 -363.14 -599.59)" points="253.58 383.94 252.18 383.94 252.18 386.54 256.98 386.54 256.98 383.94" fill="none" stroke="#7f7f7f" stroke-width=".023002"/><rect x="338.37" y="417.7" width="5.8203" height=".35355" rx=".04729" ry=".010884" fill="#999" fill-rule="evenodd" stroke-width="1.8807"/><rect transform="scale(-1)" x="-291" y="-434.53" width="13.946" height="7.5532" stroke="#7f7f7f" stroke-width=".25728"/><polygon transform="matrix(-2.7669 0 0 -2.6334 988.43 1445.2)" points="252.18 383.94 252.18 386.54 256.98 386.54 256.98 383.94 253.58 383.94" fill="none" stroke="#7f7f7f" stroke-width=".023002"/><rect transform="scale(-1)" x="-286.93" y="-427.99" width="5.8203" height=".35355" rx=".04729" ry=".010884" fill="#999" fill-rule="evenodd" stroke-width="1.8807"/><rect transform="scale(-1)" x="-362.34" y="-434.53" width="13.946" height="7.5532" stroke="#7f7f7f" stroke-width=".25728"/><polygon transform="matrix(-2.7669 0 0 -2.6334 1059.8 1445.2)" points="256.98 386.54 256.98 383.94 253.58 383.94 252.18 383.94 252.18 386.54" fill="none" stroke="#7f7f7f" stroke-width=".023002"/><rect transform="scale(-1)" x="-358.27" y="-427.99" width="5.8203" height=".35355" rx=".04729" ry=".010884" fill="#999" fill-rule="evenodd" stroke-width="1.8807"/><rect transform="scale(-1)" x="-348.08" y="-434.53" width="13.946" height="7.5532" stroke="#7f7f7f" stroke-width=".25728"/><polygon transform="matrix(-2.7669 0 0 -2.6334 1045.5 1445.2)" points="252.18 386.54 256.98 386.54 256.98 383.94 253.58 383.94 252.18 383.94" fill="none" stroke="#7f7f7f" stroke-width=".023002"/><rect transform="scale(-1)" x="-344" y="-427.99" width="5.8203" height=".35355" rx=".04729" ry=".010884" fill="#999" fill-rule="evenodd" stroke-width="1.8807"/><rect transform="scale(-1)" x="-333.81" y="-434.53" width="13.946" height="7.5532" stroke="#7f7f7f" stroke-width=".25728"/><polygon transform="matrix(-2.7669 0 0 -2.6334 1031.2 1445.2)" points="252.18 386.54 256.98 386.54 256.98 383.94 253.58 383.94 252.18 383.94" fill="none" stroke="#7f7f7f" stroke-width=".023002"/><rect transform="scale(-1)" x="-329.73" y="-427.99" width="5.8203" height=".35355" rx=".04729" ry=".010884" fill="#999" fill-rule="evenodd" stroke-width="1.8807"/><rect transform="scale(-1)" x="-319.54" y="-434.53" width="13.946" height="7.5532" stroke="#7f7f7f" stroke-width=".25728"/><polygon transform="matrix(-2.7669 0 0 -2.6334 1017 1445.2)" points="252.18 386.54 256.98 386.54 256.98 383.94 253.58 383.94 252.18 383.94" fill="none" stroke="#7f7f7f" stroke-width=".023002"/><rect transform="scale(-1)" x="-315.46" y="-427.99" width="5.8203" height=".35355" rx=".04729" ry=".010884" fill="#999" fill-rule="evenodd" stroke-width="1.8807"/><rect transform="scale(-1)" x="-305.27" y="-434.53" width="13.946" height="7.5532" stroke="#7f7f7f" stroke-width=".25728"/><polygon transform="matrix(-2.7669 0 0 -2.6334 1002.7 1445.2)" points="252.18 386.54 256.98 386.54 256.98 383.94 253.58 383.94 252.18 383.94" fill="none" stroke="#7f7f7f" stroke-width=".023002"/><rect transform="scale(-1)" x="-301.2" y="-427.99" width="5.8203" height=".35355" rx=".04729" ry=".010884" fill="#999" fill-rule="evenodd" stroke-width="1.8807"/><g fill="#008000" fill-rule="evenodd" stroke="#2d5016" stroke-linejoin="round"><path d="m358.52 424.32 1.0849-2.9714 1.0849 2.9714z" stroke-width=".44698"/><path d="m358.78 421.38-1.0849 2.9714-1.0849-2.9714z" stroke-width=".447"/><path d="m352.68 421.37-1.0849 2.9714-1.0849-2.9714z" stroke-width=".44698"/><path d="m348.62 424.3 1.0849-2.9714 1.0849 2.9714z" stroke-width=".447"/><path d="m287.18 424.32 1.0849-2.9714 1.0849 2.9714z" stroke-width=".44698"/><path d="m287.44 421.38-1.0849 2.9714-1.0849-2.9714z" stroke-width=".447"/><path d="m281.34 421.37-1.0849 2.9714-1.0849-2.9714z" stroke-width=".44698"/><path d="m277.27 424.3 1.0849-2.9714 1.0849 2.9714z" stroke-width=".447"/><path d="m301.45 424.32 1.0849-2.9714 1.0849 2.9714z" stroke-width=".44698"/><path d="m301.71 421.38-1.0849 2.9714-1.0849-2.9714z" stroke-width=".447"/><path d="m295.61 421.37-1.0849 2.9714-1.0849-2.9714z" stroke-width=".44698"/><path d="m291.54 424.3 1.0849-2.9714 1.0849 2.9714z" stroke-width=".447"/><path d="m315.72 424.32 1.0849-2.9714 1.0849 2.9714z" stroke-width=".44698"/><path d="m315.98 421.38-1.0849 2.9714-1.0849-2.9714z" stroke-width=".447"/><path d="m309.88 421.37-1.0849 2.9714-1.0849-2.9714z" stroke-width=".44698"/><path d="m305.81 424.3 1.0849-2.9714 1.0849 2.9714z" stroke-width=".447"/><path d="m329.99 424.32 1.0849-2.9714 1.0849 2.9714z" stroke-width=".44698"/><path d="m330.25 421.38-1.0849 2.9714-1.0849-2.9714z" stroke-width=".447"/><path d="m324.15 421.37-1.0849 2.9714-1.0849-2.9714z" stroke-width=".44698"/><path d="m320.08 424.3 1.0849-2.9714 1.0849 2.9714z" stroke-width=".447"/><path d="m344.25 424.32 1.0849-2.9714 1.0849 2.9714z" stroke-width=".44698"/><path d="m344.52 421.38-1.0849 2.9714-1.0849-2.9714z" stroke-width=".447"/><path d="m338.42 421.37-1.0849 2.9714-1.0849-2.9714z" stroke-width=".44698"/><path d="m334.35 424.3 1.0849-2.9714 1.0849 2.9714z" stroke-width=".447"/></g><rect x="489.27" y="411.21" width="13.946" height="7.5532" stroke="#7f7f7f" stroke-width=".25728"/><polygon transform="matrix(2.7669 0 0 2.6334 -208.16 -599.52)" points="253.58 383.94 252.18 383.94 252.18 386.54 256.98 386.54 256.98 383.94" fill="none" stroke="#7f7f7f" stroke-width=".023002"/><rect x="493.34" y="417.76" width="5.8203" height=".35355" rx=".04729" ry=".010884" fill="#999" fill-rule="evenodd" stroke-width="1.8807"/><rect transform="scale(-1)" x="-503.05" y="-434.6" width="13.946" height="7.5532" stroke="#7f7f7f" stroke-width=".25728"/><polygon transform="matrix(-2.7669 0 0 -2.6334 1200.5 1445.3)" points="256.98 383.94 253.58 383.94 252.18 383.94 252.18 386.54 256.98 386.54" fill="none" stroke="#7f7f7f" stroke-width=".023002"/><rect transform="scale(-1)" x="-498.97" y="-428.05" width="5.8203" height=".35355" rx=".04729" ry=".010884" fill="#999" fill-rule="evenodd" stroke-width="1.8807"/><g fill="#008000" fill-rule="evenodd" stroke="#2d5016" stroke-linejoin="round"><path d="m500.1 424.37 1.0849-2.9714 1.0849 2.9714z" stroke-width=".44698"/><path d="m500.36 421.43-1.0849 2.9714-1.0849-2.9714z" stroke-width=".447"/><path d="m494.26 421.42-1.0849 2.9714-1.0849-2.9714z" stroke-width=".44698"/><path d="m490.19 424.35 1.0849-2.9714 1.0849 2.9714z" stroke-width=".447"/></g><rect x="79.94" y="415.98" width="9.0137" height="1.6732" rx=".46716" ry=".22795" fill="#00ff1f" stroke-width="1.4764"/><rect x="80.004" y="419.86" width="9.0137" height="1.6732" rx=".46716" ry=".22795" fill="#838383" stroke-width="1.4764"/><ellipse cx="85.728" cy="425.28" rx="1.4384" ry="1.4375" fill="#838383" stroke-width="1.883"/><g fill="#fff"><path d="m76.114 416.54 0.22111 0.84023 0.22015-0.84023h0.20861l0.22111 0.84023 0.22015-0.84023h0.17688l-0.28167 1.0767h-0.20861l-0.23168-0.8825-0.23264 0.8825h-0.20861l-0.28167-1.0767z"/><path d="m73.958 416.34v0.53931h0.24418c0.22603 0 0.28359-0.1 0.28359-0.2702 0-0.17022-0.11422-0.26922-0.28359-0.26922zm-0.19419-0.15967h0.43837c0.34614 0 0.48836 0.16325 0.48836 0.42874 0 0.2655-0.14406 0.42975-0.48836 0.42975h-0.24418v0.5768h-0.19419z"/><path d="m75.272 416.66c-0.16786 0-0.30763 0.1335-0.30763 0.41524 0 0.28173 0.15026 0.41529 0.30763 0.41529s0.30668-0.0919 0.30668-0.41527c0-0.32341-0.13881-0.41526-0.30668-0.41526zm0-0.14988c0.29494 0 0.49414 0.1834 0.49414 0.56518 0 0.38184-0.18778 0.56518-0.49414 0.56518-0.30635 0-0.49414-0.18415-0.49414-0.56518s0.1992-0.56518 0.49414-0.56518z"/><path d="m78.552 417.13h-0.8133c0.03254 0.44782 0.42138 0.41937 0.77195 0.2739v0.1672c-0.57162 0.21234-0.95653 9e-3 -0.95653-0.4729 0-0.50267 0.34834-0.57608 0.52777-0.57486 0.47518 0 0.47011 0.42986 0.47011 0.60666zm-0.17688-0.13858c0-0.21189-0.12682-0.31831-0.29129-0.31831s-0.33936 0.11505-0.33936 0.31914z"/><path d="m79.447 416.71c-0.2413-0.0845-0.45279 1e-3 -0.45279 0.34339v0.56718h-0.17784v-1.0767h0.17784v0.1672c0.14834-0.21401 0.32294-0.20814 0.45183-0.18189z"/><path d="m73.764 420.08h0.82484v0.16344h-0.63063v0.42298h0.56912v0.16344h-0.56912v0.68545h-0.19419z"/><path d="m77.108 420.01h0.17688v1.4958h-0.17688z"/><path d="m74.8 421.18c0.01017 0.40834 0.55567 0.15855 0.55567-0.21606-0.43398 0-0.55567 0.0267-0.55567 0.21606zm0.73254 0.32507h-0.17688v-0.16344c-0.40359 0.40361-0.73256 0.0804-0.73256-0.14988 0-0.42031 0.45311-0.36625 0.73254-0.36625 0.01337-0.42439-0.49993-0.26033-0.65372-0.1843v-0.16344c0.59041-0.21219 0.8306 0.0508 0.8306 0.41338z"/><path d="m75.86 420.43h0.17688v0.64506c0 0.45503 0.54795 0.43158 0.54795-0.0346v-0.61045h0.17688v1.0767h-0.17688v-0.16532c-0.41609 0.41607-0.72486 0.0874-0.72486-0.25966 1.6e-5 -0.88391 2.9e-5 0.23218 3e-5 -0.65173z"/><path d="m77.809 420.12v0.30571h0.36435v0.13746h-0.36435v0.5845c0 0.19872 0.02866 0.20674 0.18264 0.20674h0.1817v0.148h-0.1817c-0.31317 0-0.36049-0.16155-0.36049-0.35467v-0.5845h-0.12977v-0.13745h0.12977v-0.30572z"/><path d="m73.764 424.53h0.19419v1.2718h0.69889v0.16344h-0.8931z"/><path d="m75.216 425.02c-0.21206 0-0.30763 0.17643-0.30763 0.41524 0 0.23883 0.1088 0.41528 0.30763 0.41528 0.19884 0 0.30668-0.19983 0.30668-0.41526s-0.09462-0.41526-0.30668-0.41526zm0-0.15007c0.29428 0 0.49414 0.17568 0.49414 0.56535 0 0.38966-0.20313 0.56518-0.49414 0.56518s-0.49414-0.21168-0.49414-0.56518 0.19986-0.56535 0.49414-0.56535z"/><path d="m76.756 425.08c-0.48201-0.22872-0.66526 0.0612-0.66526 0.33262 0.01375 0.5023 0.43458 0.4552 0.66526 0.33266v0.16344c-0.57791 0.20351-0.85175-0.10205-0.85175-0.4964 0-0.52387 0.44876-0.66326 0.85175-0.49849z"/><path d="m77.155 425.64c0 0.29737 0.55566 0.32509 0.55567-0.21626-0.4935 0-0.55567 0.0435-0.55567 0.21626zm0.73254 0.32509h-0.17688v-0.16344c-0.2561 0.38851-0.73256 0.12973-0.73256-0.14988 0-0.41195 0.41656-0.35688 0.73254-0.36624 0-0.40758-0.52043-0.26123-0.65372-0.18433v-0.16344c0.5904-0.21219 0.8306 0.0273 0.8306 0.41336z"/><path d="m80.795 425.06c-0.27645-0.1158-0.45279 0.081-0.45279 0.34339v0.5672h-0.17784v-1.0767h0.17784v0.1672c0.09755-0.20228 0.32294-0.21204 0.45183-0.18189z"/></g><path d="m87.598 436.28h-2.0655l5e-3 3.3588h-7.456v-3.3599h-2.0518v-6.8251l11.567-0.0251z" stroke-width="1.6829"/><g fill="#fff"><path d="m78.413 424.6v0.30572h0.36435v0.13745h-0.36435v0.58451c0 0.19873 0.0287 0.20675 0.18264 0.20675h0.18171v0.148h-0.18171c-0.31316 0-0.36049-0.16156-0.36049-0.35468v-0.58451h-0.12978v-0.13745h0.12978v-0.30572z" stroke-width="1.8829px"/><path d="m79.405 425.02c-0.21206 0-0.30764 0.17643-0.30764 0.41524 0 0.23884 0.10879 0.41529 0.30764 0.41529s0.30668-0.19983 0.30668-0.41526c0-0.21544-0.0946-0.41527-0.30668-0.41527zm0-0.15008c0.29429 0 0.49415 0.17569 0.49415 0.56537 0 0.38965-0.20313 0.56519-0.49415 0.56519s-0.49415-0.21169-0.49415-0.56519c0-0.35351 0.19986-0.56537 0.49415-0.56537z" stroke-width="1.8829px"/><path d="m84.173 440.47h0.17688v1.4958h-0.17688z"/><path d="m79.983 441c-0.21106 0-0.30763 0.2114-0.30763 0.41524 0 0.20385 0.0922 0.41529 0.30763 0.41529s0.30668-0.1802 0.30668-0.41527c0-0.23501-0.0956-0.41526-0.30668-0.41526zm0-0.15007c0.33319 0 0.49414 0.24354 0.49414 0.56537s-0.17204 0.56518-0.49414 0.56518c-0.32209 0-0.49412-0.24679-0.49412-0.56518s0.16094-0.56537 0.49412-0.56537z"/><path d="m81.643 441.95h-0.17688v-0.6441c0-0.46729-0.54701-0.35373-0.54701 0.0356v0.60853h-0.17785v-1.0767h0.17785v0.16721c0.20351-0.30106 0.73169-0.26143 0.72387 0.25968z"/><path d="m82.663 441.08c-0.32694-0.12428-0.58642-0.0842-0.58642 0.0845 0 0.25772 0.64409 0.0606 0.64409 0.49568 0 0.36194-0.43121 0.35609-0.8229 0.25817v-0.18264c0.26697 0.15647 0.64122 0.13105 0.64122-0.0614 0-0.27363-0.63353-0.052-0.63353-0.50249 0-0.35082 0.42859-0.35983 0.75754-0.25886z"/><path d="m85.613 441.38v0.0866h-0.81329c0.0684 0.54594 0.56045 0.37237 0.77195 0.27389v0.16721c-0.63538 0.22102-0.95656-0.0469-0.95656-0.4729 0-0.31837 0.19519-0.57488 0.52777-0.57488 0.40181 0 0.47013 0.37281 0.47013 0.52008zm-0.17688-0.052c0-0.26348-0.1695-0.31831-0.29129-0.31831s-0.33936 0.0557-0.33936 0.31914z"/><path d="m83.403 441.01c-0.21107 0-0.30764 0.2114-0.30764 0.41525 0 0.20386 0.0923 0.41529 0.30764 0.41529 0.21542 0 0.30668-0.1802 0.30668-0.41527 0-0.235-0.0956-0.41527-0.30668-0.41527zm0-0.15007c0.33319 0 0.49414 0.24355 0.49414 0.56538 0 0.32184-0.17205 0.56519-0.49414 0.56519-0.3221 0-0.49412-0.2468-0.49412-0.56519s0.16093-0.56538 0.49412-0.56538z"/><path d="m79.293 440.64v0.20475c-0.54974-0.43119-0.95269-0.0557-0.95269 0.40384 0 0.64549 0.55524 0.72594 0.95269 0.40289v0.20285c-0.59708 0.34473-1.1575 0.0151-1.1575-0.60569 0-0.79995 0.71506-0.86365 1.1575-0.60864z"/></g><rect transform="rotate(-90)" x="-438.23" y="97.535" width="5.413" height="13.705" stroke="#e3e3df" stroke-width=".33645"/><path d="m110.01 435.67h-11.018v1.1996h11.018z" fill="#a09a9a" stroke-width="1.6543"/><rect x="96.454" y="419.05" width="15.868" height="13.263" fill="#ebebeb" fill-rule="evenodd"/><path d="m110.85 428.96h-3.3095l6e-3 2.0211-1.2045 1e-3v0.75672h-3.8822l9.2e-4 -0.75871h-1.2537v-2.0211h-3.2944v-8.7017l12.937-0.0283z" fill="#1a1a1a" stroke-width="1.8872"/><path d="m81.41 411.83 0.83389-2.297h1.1476c0.20142 0 0.42255-0.15515 0.49144-0.34483l0.90472-2.4907c0.148-0.40778-0.08503-0.7414-0.51795-0.7414h-1.5921l-2.0935 5.7649c-1.7967-0.42813-3.1331-2.0469-3.1331-3.9788 0-1.8761 1.2604-3.457 2.9787-3.9388l-2.0807 5.7297 0.86478 7e-5 1.1047-3.0394h0.64992l-1.1047 3.0394 0.86446 1.6e-4 1.0295-2.8356c0.14811-0.40778-0.08495-0.74139-0.51748-0.74139h-0.72694l0.8347-2.2994c3.0143 0 4.2637 2.2972 4.2637 4.0857 0 2.323-1.8202 4.0875-4.2016 4.0875zm2.5901-5.3395h-0.64975l-0.9099 2.5024h0.64977z" fill="#1a1a1a" stroke-width="1.8807"/><path d="m81.254 411.67 0.83389-2.297h1.1476c0.20142 0 0.42255-0.15515 0.49144-0.34483l0.90472-2.4907c0.148-0.40778-0.08503-0.7414-0.51795-0.7414h-1.5921l-2.0935 5.7649c-1.7967-0.42813-3.1331-2.0469-3.1331-3.9788 0-1.8761 1.2604-3.457 2.9787-3.9388l-2.0807 5.7297 0.86478 7e-5 1.1047-3.0394h0.64992l-1.1047 3.0394 0.86446 1.6e-4 1.0295-2.8356c0.14811-0.40778-0.08495-0.74139-0.51748-0.74139h-0.72694l0.8347-2.2994c3.0143 0 4.2637 2.2972 4.2637 4.0857 0 2.323-1.8202 4.0875-4.2016 4.0875zm2.5901-5.3395h-0.64975l-0.9099 2.5024h0.64977z" fill="#ccc" stroke-width="1.8807"/></svg>
