<svg width="472.53" height="47.467" version="1.1" viewBox="70.4 401.066666667 250.958144 15.4055701333" xmlns="http://www.w3.org/2000/svg">
 <g transform="scale(1.0667)">
  <g transform="matrix(1.1399 0 0 1.0551 -9.6758 -25.71)">
   <rect x="66.589" y="376.59" width="206" height="22" fill="#4d4d4d"/>
   <rect x="66.589" y="376.59" width="206" height="22" fill="none" stroke="#000" stroke-width=".4"/>
  </g>
  <rect x="77.627" y="372.04" width="222.96" height="22.367" rx=".68393" ry=".63304" fill="#e7e7e7"/>
  <rect x="77.627" y="372.04" width="222.96" height="22.367" rx=".68393" ry=".63304" fill="none" stroke="#e7e7e7" stroke-linejoin="round" stroke-width=".21933"/>
  <rect x="78.238" y="372.65" width="19.829" height="7.4199" rx=".32227" ry=".424" fill="#1e90ff"/>
  <text transform="scale(1.0394 .96208)" x="75.603439" y="390.13831" fill="#ffffff" font-family="sans-serif" font-size="2.476px" font-weight="700" style="line-height:0%">
   <tspan x="75.603439" y="390.13831">3800-24SFP</tspan>
  </text>
  <g transform="matrix(1.5209 0 0 1.6602 -36.082 -265.21)">
   <polygon points="71.989 395.79 71.589 395.79 71.589 396.19 70.389 396.19 70.389 395.79 69.989 395.79 69.989 395.19 68.589 395.19 68.589 392.59 73.389 392.59 73.389 395.19 71.989 395.19"/>
   <polygon points="71.989 395.79 71.589 395.79 71.589 396.19 70.389 396.19 70.389 395.79 69.989 395.79 69.989 395.19 68.589 395.19 68.589 392.59 73.389 392.59 73.389 395.19 71.989 395.19" fill="none" stroke="#7f7f7f" stroke-width=".2"/>
  </g>
  <g transform="translate(.57958)">
   <rect x="177.26" y="373.7" width="3.9417" height="1.9916" rx=".047399" ry=".023128"/>
   <text transform="scale(1.0397 .96177)" x="173.45682" y="390.23068" fill="#000000" font-family="sans-serif" font-size="1.7552px" style="line-height:0%">
    <tspan x="172.35254" y="390.23068" fill="#ffffff" font-family="sans-serif" font-weight="bold" text-align="center" text-anchor="middle">1</tspan>
   </text>
  </g>
  <g>
   <rect x="70.371" y="379.34" width="6.1054" height="1.1333" rx=".31642" ry=".1544" fill="#00ff1f"/>
   <rect x="70.371" y="381.39" width="6.1054" height="1.1333" rx=".31642" ry=".1544" fill="#838383"/>
   <ellipse cx="73.401" cy="384.34" rx=".76392" ry=".76344" fill="#838383"/>
   <ellipse cx="100.83" cy="374.3" rx=".76392" ry=".76344" fill="#333"/>
  </g>
  <path d="m77.267 394.61-0.0041-22.787" fill="none" stroke="#333" stroke-linejoin="round" stroke-width=".53109"/>
  <g transform="translate(8.377 -9.7166)">
   <rect x="282.31" y="383.43" width="3.9417" height="1.9916" rx=".047399" ry=".023128"/>
   <text transform="scale(1.0397 .96177)" x="272.18457" y="400.33725" fill="#000000" font-family="sans-serif" font-size="1.7552px" style="line-height:0%">
    <tspan x="272.18457" y="400.33725" fill="#ffffff" font-family="sans-serif" font-weight="bold">25</tspan>
   </text>
  </g>
  <g transform="translate(.26892 -.38499)">
   <path d="m71.657 377.52c-0.02159 0-0.04309-4.1e-4 -0.06454-7.9e-4l0.44389-1.2199h0.61088c0.10722 0 0.22493-0.0824 0.2616-0.18314l0.48159-1.3228c0.07878-0.21657-0.04526-0.39375-0.27571-0.39375h-0.84749l-0.71109 1.954h-2.03e-4l-0.40312 1.1077c-0.9564-0.22738-1.6678-1.0871-1.6678-2.1131 0-0.99637 0.67093-1.836 1.5856-2.0919l-0.41595 1.1433h-1.14e-4l-0.6915 1.8997 0.46033 4e-5 0.58807-1.6142h0.34596l-0.58807 1.6142 0.46016 8e-5 0.54802-1.506c0.07884-0.21657-0.04522-0.39375-0.27546-0.39375h-0.38696l0.44432-1.2212c0.03239-2e-3 0.0649-2e-3 0.09762-2e-3 1.1996 0 2.172 0.97244 2.172 2.172 0 1.1996-0.97245 2.172-2.172 2.172zm1.3142-2.8363h-0.34587l-0.48435 1.329h0.34588l0.48434-1.329z" fill="#1a1a1a"/>
   <path d="m71.574 377.44c-0.02159 0-0.04309-4.1e-4 -0.06454-7.9e-4l0.44389-1.2199h0.61088c0.10722 0 0.22493-0.0824 0.2616-0.18314l0.48159-1.3228c0.07878-0.21657-0.04526-0.39375-0.27571-0.39375h-0.84749l-0.71109 1.954h-2.03e-4l-0.40312 1.1077c-0.9564-0.22738-1.6678-1.0871-1.6678-2.1131 0-0.99637 0.67093-1.836 1.5856-2.0919l-0.41595 1.1433h-1.14e-4l-0.6915 1.8997 0.46033 4e-5 0.58807-1.6142h0.34596l-0.58807 1.6142 0.46016 8e-5 0.54802-1.506c0.07884-0.21657-0.04522-0.39375-0.27546-0.39375h-0.38696l0.44432-1.2212c0.03239-2e-3 0.0649-2e-3 0.09762-2e-3 1.1996 0 2.172 0.97244 2.172 2.172 0 1.1996-0.97245 2.172-2.172 2.172zm1.3142-2.8363h-0.34587l-0.48435 1.329h0.34588l0.48434-1.329z" fill="#ccc"/>
  </g>
  <text transform="scale(1.0394 .96208)" x="75.688774" y="391.93634" fill="#ffffff" font-family="sans-serif" font-size="1.5398px" font-weight="700" style="line-height:0%">
   <tspan x="75.688774" y="391.93634">Switch</tspan>
  </text>
  <g transform="translate(-1.726 -25.163)">
   <rect x="290.19" y="401.64" width="8.35" height="13.087" rx=".013369" ry=".0030699" fill="#ccc" fill-rule="evenodd" stroke="#000" stroke-width=".28891"/>
   <g transform="translate(.14819 .10861)">
    <g transform="matrix(.57571 0 0 .6712 217.97 133.51)">
     <rect x="125.95" y="399.76" width="13.005" height="6.133" fill="#bfbfbf" stroke="#000" stroke-linecap="round" stroke-linejoin="round" stroke-miterlimit="10" stroke-width=".098128"/>
     <g transform="translate(-151.47 32.922)">
      <g transform="matrix(1.1392 0 0 1.0628 -9.5661 -40.967)">
       <rect x="251.98" y="383.74" width="11.333" height="5.639"/>
       <rect x="251.98" y="383.74" width="11.319" height="5.6234" fill="none" stroke="#7f7f7f" stroke-width=".2"/>
      </g>
      <g transform="matrix(1.1392 0 0 1.0628 -9.5661 -40.967)">
       <polygon points="256.98 383.94 253.58 383.94 252.18 383.94 252.18 386.54 256.98 386.54"/>
       <polygon transform="matrix(2.2457 0 0 1.9606 -314.08 -368.76)" points="252.18 383.94 252.18 386.54 256.98 386.54 256.98 383.94 253.58 383.94" fill="none" stroke="#7f7f7f" stroke-width=".023002"/>
      </g>
     </g>
    </g>
    <rect x="292.69" y="405.33" width="3.0982" height=".18777" rx=".025173" ry=".0057804" fill="#999" fill-rule="evenodd"/>
    <g transform="matrix(-.57571 0 0 -.6712 370.5 682.61)">
     <rect x="125.95" y="399.76" width="13.005" height="6.133" fill="#bfbfbf" stroke="#000" stroke-linecap="round" stroke-linejoin="round" stroke-miterlimit="10" stroke-width=".098128"/>
     <g transform="translate(-151.47 32.922)">
      <g transform="matrix(1.1392 0 0 1.0628 -9.5661 -40.967)">
       <rect x="251.98" y="383.74" width="11.333" height="5.639"/>
       <rect x="251.98" y="383.74" width="11.319" height="5.6234" fill="none" stroke="#7f7f7f" stroke-width=".2"/>
      </g>
      <g transform="matrix(1.1392 0 0 1.0628 -9.5661 -40.967)">
       <polygon points="252.18 383.94 252.18 386.54 256.98 386.54 256.98 383.94 253.58 383.94"/>
       <polygon transform="matrix(2.2457 0 0 1.9606 -314.08 -368.76)" points="256.98 386.54 256.98 383.94 253.58 383.94 252.18 383.94 252.18 386.54" fill="none" stroke="#7f7f7f" stroke-width=".023002"/>
      </g>
     </g>
    </g>
    <rect transform="scale(-1)" x="-295.79" y="-410.79" width="3.0982" height=".18777" rx=".025173" ry=".0057804" fill="#999" fill-rule="evenodd"/>
   </g>
   <g transform="translate(0 -.24421)" fill="#008000" fill-rule="evenodd" stroke="#2d5016" stroke-width=".23766">
    <path d="m292.24 409.19c-6e-3 0.0158-1.1492 0.0158-1.155 0-6e-3 -0.0158 0.56594-1.5781 0.57749-1.5781 0.0115 0 0.58326 1.5623 0.57748 1.5781z"/>
    <path d="m292.15 407.63c6e-3 -0.0158 1.1492-0.0158 1.155 0 6e-3 0.0158-0.56594 1.5781-0.57749 1.5781-0.0115 0-0.58326-1.5623-0.57748-1.5781z"/>
    <path d="m297.54 409.19c-6e-3 0.0158-1.1492 0.0158-1.155 0-6e-3 -0.0158 0.56594-1.5781 0.57749-1.5781 0.0115 0 0.58326 1.5623 0.57748 1.5781z"/>
    <path d="m295.37 407.63c6e-3 -0.0158 1.1492-0.0158 1.155 0 6e-3 0.0158-0.56594 1.5781-0.57749 1.5781-0.0115 0-0.58326-1.5623-0.57748-1.5781z"/>
   </g>
  </g>
  <g transform="translate(1.8777 .7635)">
   <rect x="226.61" y="375.91" width="46.102" height="13.098" rx=".013315" ry=".0028552" fill="#ccc" fill-rule="evenodd" stroke="#000" stroke-width=".27806"/>
   <g transform="translate(-25.554 -25.586)">
    <g transform="matrix(.57571 0 0 .6712 217.97 133.51)">
     <rect x="125.95" y="399.76" width="13.005" height="6.133" fill="#bfbfbf" stroke="#000" stroke-linecap="round" stroke-linejoin="round" stroke-miterlimit="10" stroke-width=".098128"/>
     <g transform="translate(-151.47 32.922)">
      <g transform="matrix(1.1392 0 0 1.0628 -9.5661 -40.967)">
       <rect x="251.98" y="383.74" width="11.333" height="5.639"/>
       <rect x="251.98" y="383.74" width="11.319" height="5.6234" fill="none" stroke="#7f7f7f" stroke-width=".2"/>
      </g>
      <g transform="matrix(1.1392 0 0 1.0628 -9.5661 -40.967)">
       <polygon points="256.98 386.54 256.98 383.94 253.58 383.94 252.18 383.94 252.18 386.54"/>
       <polygon transform="matrix(2.2457 0 0 1.9606 -314.08 -368.76)" points="253.58 383.94 252.18 383.94 252.18 386.54 256.98 386.54 256.98 383.94" fill="none" stroke="#7f7f7f" stroke-width=".023002"/>
      </g>
     </g>
    </g>
    <rect x="292.69" y="405.33" width="3.0982" height=".18777" rx=".025173" ry=".0057804" fill="#999" fill-rule="evenodd"/>
    <g transform="matrix(-.57571 0 0 -.6712 370.5 682.61)">
     <rect x="125.95" y="399.76" width="13.005" height="6.133" fill="#bfbfbf" stroke="#000" stroke-linecap="round" stroke-linejoin="round" stroke-miterlimit="10" stroke-width=".098128"/>
     <g transform="translate(-151.47 32.922)">
      <g transform="matrix(1.1392 0 0 1.0628 -9.5661 -40.967)">
       <rect x="251.98" y="383.74" width="11.333" height="5.639"/>
       <rect x="251.98" y="383.74" width="11.319" height="5.6234" fill="none" stroke="#7f7f7f" stroke-width=".2"/>
      </g>
      <g transform="matrix(1.1392 0 0 1.0628 -9.5661 -40.967)">
       <polygon points="253.58 383.94 252.18 383.94 252.18 386.54 256.98 386.54 256.98 383.94"/>
       <polygon transform="matrix(2.2457 0 0 1.9606 -314.08 -368.76)" points="252.18 386.54 256.98 386.54 256.98 383.94 253.58 383.94 252.18 383.94" fill="none" stroke="#7f7f7f" stroke-width=".023002"/>
      </g>
     </g>
    </g>
    <rect transform="scale(-1)" x="-295.79" y="-410.79" width="3.0982" height=".18777" rx=".025173" ry=".0057804" fill="#999" fill-rule="evenodd"/>
   </g>
   <g transform="translate(-25.702 -25.938)" fill="#008000" fill-rule="evenodd" stroke="#2d5016" stroke-width=".23766">
    <path d="m292.24 409.19c-6e-3 0.0158-1.1492 0.0158-1.155 0-6e-3 -0.0158 0.56594-1.5781 0.57749-1.5781 0.0115 0 0.58326 1.5623 0.57748 1.5781z"/>
    <path d="m292.15 407.63c6e-3 -0.0158 1.1492-0.0158 1.155 0 6e-3 0.0158-0.56594 1.5781-0.57749 1.5781-0.0115 0-0.58326-1.5623-0.57748-1.5781z"/>
    <path d="m297.54 409.19c-6e-3 0.0158-1.1492 0.0158-1.155 0-6e-3 -0.0158 0.56594-1.5781 0.57749-1.5781 0.0115 0 0.58326 1.5623 0.57748 1.5781z"/>
    <path d="m295.37 407.63c6e-3 -0.0158 1.1492-0.0158 1.155 0 6e-3 0.0158-0.56594 1.5781-0.57749 1.5781-0.0115 0-0.58326-1.5623-0.57748-1.5781z"/>
   </g>
   <g transform="translate(-63.529 -25.586)">
    <g transform="matrix(.57571 0 0 .6712 217.97 133.51)">
     <rect x="125.95" y="399.76" width="13.005" height="6.133" fill="#bfbfbf" stroke="#000" stroke-linecap="round" stroke-linejoin="round" stroke-miterlimit="10" stroke-width=".098128"/>
     <g transform="translate(-151.47 32.922)">
      <g transform="matrix(1.1392 0 0 1.0628 -9.5661 -40.967)">
       <rect x="251.98" y="383.74" width="11.333" height="5.639"/>
       <rect x="251.98" y="383.74" width="11.319" height="5.6234" fill="none" stroke="#7f7f7f" stroke-width=".2"/>
      </g>
      <g transform="matrix(1.1392 0 0 1.0628 -9.5661 -40.967)">
       <polygon points="256.98 386.54 256.98 383.94 253.58 383.94 252.18 383.94 252.18 386.54"/>
       <polygon transform="matrix(2.2457 0 0 1.9606 -314.08 -368.76)" points="253.58 383.94 252.18 383.94 252.18 386.54 256.98 386.54 256.98 383.94" fill="none" stroke="#7f7f7f" stroke-width=".023002"/>
      </g>
     </g>
    </g>
    <rect x="292.69" y="405.33" width="3.0982" height=".18777" rx=".025173" ry=".0057804" fill="#999" fill-rule="evenodd"/>
    <g transform="matrix(-.57571 0 0 -.6712 370.5 682.61)">
     <rect x="125.95" y="399.76" width="13.005" height="6.133" fill="#bfbfbf" stroke="#000" stroke-linecap="round" stroke-linejoin="round" stroke-miterlimit="10" stroke-width=".098128"/>
     <g transform="translate(-151.47 32.922)">
      <g transform="matrix(1.1392 0 0 1.0628 -9.5661 -40.967)">
       <rect x="251.98" y="383.74" width="11.333" height="5.639"/>
       <rect x="251.98" y="383.74" width="11.319" height="5.6234" fill="none" stroke="#7f7f7f" stroke-width=".2"/>
      </g>
      <g transform="matrix(1.1392 0 0 1.0628 -9.5661 -40.967)">
       <polygon points="253.58 383.94 252.18 383.94 252.18 386.54 256.98 386.54 256.98 383.94"/>
       <polygon transform="matrix(2.2457 0 0 1.9606 -314.08 -368.76)" points="252.18 386.54 256.98 386.54 256.98 383.94 253.58 383.94 252.18 383.94" fill="none" stroke="#7f7f7f" stroke-width=".023002"/>
      </g>
     </g>
    </g>
    <rect transform="scale(-1)" x="-295.79" y="-410.79" width="3.0982" height=".18777" rx=".025173" ry=".0057804" fill="#999" fill-rule="evenodd"/>
   </g>
   <g transform="translate(-63.678 -25.938)" fill="#008000" fill-rule="evenodd" stroke="#2d5016" stroke-width=".23766">
    <path d="m292.24 409.19c-6e-3 0.0158-1.1492 0.0158-1.155 0-6e-3 -0.0158 0.56594-1.5781 0.57749-1.5781 0.0115 0 0.58326 1.5623 0.57748 1.5781z"/>
    <path d="m292.15 407.63c6e-3 -0.0158 1.1492-0.0158 1.155 0 6e-3 0.0158-0.56594 1.5781-0.57749 1.5781-0.0115 0-0.58326-1.5623-0.57748-1.5781z"/>
    <path d="m297.54 409.19c-6e-3 0.0158-1.1492 0.0158-1.155 0-6e-3 -0.0158 0.56594-1.5781 0.57749-1.5781 0.0115 0 0.58326 1.5623 0.57748 1.5781z"/>
    <path d="m295.37 407.63c6e-3 -0.0158 1.1492-0.0158 1.155 0 6e-3 0.0158-0.56594 1.5781-0.57749 1.5781-0.0115 0-0.58326-1.5623-0.57748-1.5781z"/>
   </g>
   <g transform="translate(-55.934 -25.586)">
    <g transform="matrix(.57571 0 0 .6712 217.97 133.51)">
     <rect x="125.95" y="399.76" width="13.005" height="6.133" fill="#bfbfbf" stroke="#000" stroke-linecap="round" stroke-linejoin="round" stroke-miterlimit="10" stroke-width=".098128"/>
     <g transform="translate(-151.47 32.922)">
      <g transform="matrix(1.1392 0 0 1.0628 -9.5661 -40.967)">
       <rect x="251.98" y="383.74" width="11.333" height="5.639"/>
       <rect x="251.98" y="383.74" width="11.319" height="5.6234" fill="none" stroke="#7f7f7f" stroke-width=".2"/>
      </g>
      <g transform="matrix(1.1392 0 0 1.0628 -9.5661 -40.967)">
       <polygon points="256.98 386.54 256.98 383.94 253.58 383.94 252.18 383.94 252.18 386.54"/>
       <polygon transform="matrix(2.2457 0 0 1.9606 -314.08 -368.76)" points="253.58 383.94 252.18 383.94 252.18 386.54 256.98 386.54 256.98 383.94" fill="none" stroke="#7f7f7f" stroke-width=".023002"/>
      </g>
     </g>
    </g>
    <rect x="292.69" y="405.33" width="3.0982" height=".18777" rx=".025173" ry=".0057804" fill="#999" fill-rule="evenodd"/>
    <g transform="matrix(-.57571 0 0 -.6712 370.5 682.61)">
     <rect x="125.95" y="399.76" width="13.005" height="6.133" fill="#bfbfbf" stroke="#000" stroke-linecap="round" stroke-linejoin="round" stroke-miterlimit="10" stroke-width=".098128"/>
     <g transform="translate(-151.47 32.922)">
      <g transform="matrix(1.1392 0 0 1.0628 -9.5661 -40.967)">
       <rect x="251.98" y="383.74" width="11.333" height="5.639"/>
       <rect x="251.98" y="383.74" width="11.319" height="5.6234" fill="none" stroke="#7f7f7f" stroke-width=".2"/>
      </g>
      <g transform="matrix(1.1392 0 0 1.0628 -9.5661 -40.967)">
       <polygon points="253.58 383.94 252.18 383.94 252.18 386.54 256.98 386.54 256.98 383.94"/>
       <polygon transform="matrix(2.2457 0 0 1.9606 -314.08 -368.76)" points="252.18 386.54 256.98 386.54 256.98 383.94 253.58 383.94 252.18 383.94" fill="none" stroke="#7f7f7f" stroke-width=".023002"/>
      </g>
     </g>
    </g>
    <rect transform="scale(-1)" x="-295.79" y="-410.79" width="3.0982" height=".18777" rx=".025173" ry=".0057804" fill="#999" fill-rule="evenodd"/>
   </g>
   <g transform="translate(-56.082 -25.938)" fill="#008000" fill-rule="evenodd" stroke="#2d5016" stroke-width=".23766">
    <path d="m292.24 409.19c-6e-3 0.0158-1.1492 0.0158-1.155 0-6e-3 -0.0158 0.56594-1.5781 0.57749-1.5781 0.0115 0 0.58326 1.5623 0.57748 1.5781z"/>
    <path d="m292.15 407.63c6e-3 -0.0158 1.1492-0.0158 1.155 0 6e-3 0.0158-0.56594 1.5781-0.57749 1.5781-0.0115 0-0.58326-1.5623-0.57748-1.5781z"/>
    <path d="m297.54 409.19c-6e-3 0.0158-1.1492 0.0158-1.155 0-6e-3 -0.0158 0.56594-1.5781 0.57749-1.5781 0.0115 0 0.58326 1.5623 0.57748 1.5781z"/>
    <path d="m295.37 407.63c6e-3 -0.0158 1.1492-0.0158 1.155 0 6e-3 0.0158-0.56594 1.5781-0.57749 1.5781-0.0115 0-0.58326-1.5623-0.57748-1.5781z"/>
   </g>
   <g transform="translate(-24.113 -.39832)">
    <g transform="translate(-24.226 -25.187)">
     <g transform="matrix(.57571 0 0 .6712 217.97 133.51)">
      <rect x="125.95" y="399.76" width="13.005" height="6.133" fill="#bfbfbf" stroke="#000" stroke-linecap="round" stroke-linejoin="round" stroke-miterlimit="10" stroke-width=".098128"/>
      <g transform="translate(-151.47 32.922)">
       <g transform="matrix(1.1392 0 0 1.0628 -9.5661 -40.967)">
        <rect x="251.98" y="383.74" width="11.333" height="5.639"/>
        <rect x="251.98" y="383.74" width="11.319" height="5.6234" fill="none" stroke="#7f7f7f" stroke-width=".2"/>
       </g>
       <g transform="matrix(1.1392 0 0 1.0628 -9.5661 -40.967)">
        <polygon points="252.18 383.94 252.18 386.54 256.98 386.54 256.98 383.94 253.58 383.94"/>
        <polygon transform="matrix(2.2457 0 0 1.9606 -314.08 -368.76)" points="256.98 386.54 256.98 383.94 253.58 383.94 252.18 383.94 252.18 386.54" fill="none" stroke="#7f7f7f" stroke-width=".023002"/>
       </g>
      </g>
     </g>
     <rect x="292.69" y="405.33" width="3.0982" height=".18777" rx=".025173" ry=".0057804" fill="#999" fill-rule="evenodd"/>
     <g transform="matrix(-.57571 0 0 -.6712 370.5 682.61)">
      <rect x="125.95" y="399.76" width="13.005" height="6.133" fill="#bfbfbf" stroke="#000" stroke-linecap="round" stroke-linejoin="round" stroke-miterlimit="10" stroke-width=".098128"/>
      <g transform="translate(-151.47 32.922)">
       <g transform="matrix(1.1392 0 0 1.0628 -9.5661 -40.967)">
        <rect x="251.98" y="383.74" width="11.333" height="5.639"/>
        <rect x="251.98" y="383.74" width="11.319" height="5.6234" fill="none" stroke="#7f7f7f" stroke-width=".2"/>
       </g>
       <g transform="matrix(1.1392 0 0 1.0628 -9.5661 -40.967)">
        <polygon points="256.98 386.54 256.98 383.94 253.58 383.94 252.18 383.94 252.18 386.54"/>
        <polygon transform="matrix(2.2457 0 0 1.9606 -314.08 -368.76)" points="253.58 383.94 252.18 383.94 252.18 386.54 256.98 386.54 256.98 383.94" fill="none" stroke="#7f7f7f" stroke-width=".023002"/>
       </g>
      </g>
     </g>
     <rect transform="scale(-1)" x="-295.79" y="-410.79" width="3.0982" height=".18777" rx=".025173" ry=".0057804" fill="#999" fill-rule="evenodd"/>
    </g>
    <g transform="translate(-24.375 -25.54)" fill="#008000" fill-rule="evenodd" stroke="#2d5016" stroke-width=".23766">
     <path d="m292.24 409.19c-6e-3 0.0158-1.1492 0.0158-1.155 0-6e-3 -0.0158 0.56594-1.5781 0.57749-1.5781 0.0115 0 0.58326 1.5623 0.57748 1.5781z"/>
     <path d="m292.15 407.63c6e-3 -0.0158 1.1492-0.0158 1.155 0 6e-3 0.0158-0.56594 1.5781-0.57749 1.5781-0.0115 0-0.58326-1.5623-0.57748-1.5781z"/>
     <path d="m297.54 409.19c-6e-3 0.0158-1.1492 0.0158-1.155 0-6e-3 -0.0158 0.56594-1.5781 0.57749-1.5781 0.0115 0 0.58326 1.5623 0.57748 1.5781z"/>
     <path d="m295.37 407.63c6e-3 -0.0158 1.1492-0.0158 1.155 0 6e-3 0.0158-0.56594 1.5781-0.57749 1.5781-0.0115 0-0.58326-1.5623-0.57748-1.5781z"/>
    </g>
   </g>
   <g transform="translate(-1.3277 -.39832)">
    <g transform="translate(-15.19)">
     <g transform="translate(-24.226 -25.187)">
      <g transform="matrix(.57571 0 0 .6712 217.97 133.51)">
       <rect x="125.95" y="399.76" width="13.005" height="6.133" fill="#bfbfbf" stroke="#000" stroke-linecap="round" stroke-linejoin="round" stroke-miterlimit="10" stroke-width=".098128"/>
       <g transform="translate(-151.47 32.922)">
        <g transform="matrix(1.1392 0 0 1.0628 -9.5661 -40.967)">
         <rect x="251.98" y="383.74" width="11.333" height="5.639"/>
         <rect x="251.98" y="383.74" width="11.319" height="5.6234" fill="none" stroke="#7f7f7f" stroke-width=".2"/>
        </g>
        <g transform="matrix(1.1392 0 0 1.0628 -9.5661 -40.967)">
         <polygon points="252.18 383.94 252.18 386.54 256.98 386.54 256.98 383.94 253.58 383.94"/>
         <polygon transform="matrix(2.2457 0 0 1.9606 -314.08 -368.76)" points="256.98 386.54 256.98 383.94 253.58 383.94 252.18 383.94 252.18 386.54" fill="none" stroke="#7f7f7f" stroke-width=".023002"/>
        </g>
       </g>
      </g>
      <rect x="292.69" y="405.33" width="3.0982" height=".18777" rx=".025173" ry=".0057804" fill="#999" fill-rule="evenodd"/>
      <g transform="matrix(-.57571 0 0 -.6712 370.5 682.61)">
       <rect x="125.95" y="399.76" width="13.005" height="6.133" fill="#bfbfbf" stroke="#000" stroke-linecap="round" stroke-linejoin="round" stroke-miterlimit="10" stroke-width=".098128"/>
       <g transform="translate(-151.47 32.922)">
        <g transform="matrix(1.1392 0 0 1.0628 -9.5661 -40.967)">
         <rect x="251.98" y="383.74" width="11.333" height="5.639"/>
         <rect x="251.98" y="383.74" width="11.319" height="5.6234" fill="none" stroke="#7f7f7f" stroke-width=".2"/>
        </g>
        <g transform="matrix(1.1392 0 0 1.0628 -9.5661 -40.967)">
         <polygon points="256.98 386.54 256.98 383.94 253.58 383.94 252.18 383.94 252.18 386.54"/>
         <polygon transform="matrix(2.2457 0 0 1.9606 -314.08 -368.76)" points="253.58 383.94 252.18 383.94 252.18 386.54 256.98 386.54 256.98 383.94" fill="none" stroke="#7f7f7f" stroke-width=".023002"/>
        </g>
       </g>
      </g>
      <rect transform="scale(-1)" x="-295.79" y="-410.79" width="3.0982" height=".18777" rx=".025173" ry=".0057804" fill="#999" fill-rule="evenodd"/>
     </g>
     <g transform="translate(-24.375 -25.54)" fill="#008000" fill-rule="evenodd" stroke="#2d5016" stroke-width=".23766">
      <path d="m292.24 409.19c-6e-3 0.0158-1.1492 0.0158-1.155 0-6e-3 -0.0158 0.56594-1.5781 0.57749-1.5781 0.0115 0 0.58326 1.5623 0.57748 1.5781z"/>
      <path d="m292.15 407.63c6e-3 -0.0158 1.1492-0.0158 1.155 0 6e-3 0.0158-0.56594 1.5781-0.57749 1.5781-0.0115 0-0.58326-1.5623-0.57748-1.5781z"/>
      <path d="m297.54 409.19c-6e-3 0.0158-1.1492 0.0158-1.155 0-6e-3 -0.0158 0.56594-1.5781 0.57749-1.5781 0.0115 0 0.58326 1.5623 0.57748 1.5781z"/>
      <path d="m295.37 407.63c6e-3 -0.0158 1.1492-0.0158 1.155 0 6e-3 0.0158-0.56594 1.5781-0.57749 1.5781-0.0115 0-0.58326-1.5623-0.57748-1.5781z"/>
     </g>
    </g>
   </g>
   <g transform="translate(-1.3277 -.39832)">
    <g transform="translate(-7.595)">
     <g transform="translate(-24.226 -25.187)">
      <g transform="matrix(.57571 0 0 .6712 217.97 133.51)">
       <rect x="125.95" y="399.76" width="13.005" height="6.133" fill="#bfbfbf" stroke="#000" stroke-linecap="round" stroke-linejoin="round" stroke-miterlimit="10" stroke-width=".098128"/>
       <g transform="translate(-151.47 32.922)">
        <g transform="matrix(1.1392 0 0 1.0628 -9.5661 -40.967)">
         <rect x="251.98" y="383.74" width="11.333" height="5.639"/>
         <rect x="251.98" y="383.74" width="11.319" height="5.6234" fill="none" stroke="#7f7f7f" stroke-width=".2"/>
        </g>
        <g transform="matrix(1.1392 0 0 1.0628 -9.5661 -40.967)">
         <polygon points="252.18 383.94 252.18 386.54 256.98 386.54 256.98 383.94 253.58 383.94"/>
         <polygon transform="matrix(2.2457 0 0 1.9606 -314.08 -368.76)" points="256.98 386.54 256.98 383.94 253.58 383.94 252.18 383.94 252.18 386.54" fill="none" stroke="#7f7f7f" stroke-width=".023002"/>
        </g>
       </g>
      </g>
      <rect x="292.69" y="405.33" width="3.0982" height=".18777" rx=".025173" ry=".0057804" fill="#999" fill-rule="evenodd"/>
      <g transform="matrix(-.57571 0 0 -.6712 370.5 682.61)">
       <rect x="125.95" y="399.76" width="13.005" height="6.133" fill="#bfbfbf" stroke="#000" stroke-linecap="round" stroke-linejoin="round" stroke-miterlimit="10" stroke-width=".098128"/>
       <g transform="translate(-151.47 32.922)">
        <g transform="matrix(1.1392 0 0 1.0628 -9.5661 -40.967)">
         <rect x="251.98" y="383.74" width="11.333" height="5.639"/>
         <rect x="251.98" y="383.74" width="11.319" height="5.6234" fill="none" stroke="#7f7f7f" stroke-width=".2"/>
        </g>
        <g transform="matrix(1.1392 0 0 1.0628 -9.5661 -40.967)">
         <polygon points="256.98 386.54 256.98 383.94 253.58 383.94 252.18 383.94 252.18 386.54"/>
         <polygon transform="matrix(2.2457 0 0 1.9606 -314.08 -368.76)" points="253.58 383.94 252.18 383.94 252.18 386.54 256.98 386.54 256.98 383.94" fill="none" stroke="#7f7f7f" stroke-width=".023002"/>
        </g>
       </g>
      </g>
      <rect transform="scale(-1)" x="-295.79" y="-410.79" width="3.0982" height=".18777" rx=".025173" ry=".0057804" fill="#999" fill-rule="evenodd"/>
     </g>
     <g transform="translate(-24.375 -25.54)" fill="#008000" fill-rule="evenodd" stroke="#2d5016" stroke-width=".23766">
      <path d="m292.24 409.19c-6e-3 0.0158-1.1492 0.0158-1.155 0-6e-3 -0.0158 0.56594-1.5781 0.57749-1.5781 0.0115 0 0.58326 1.5623 0.57748 1.5781z"/>
      <path d="m292.15 407.63c6e-3 -0.0158 1.1492-0.0158 1.155 0 6e-3 0.0158-0.56594 1.5781-0.57749 1.5781-0.0115 0-0.58326-1.5623-0.57748-1.5781z"/>
      <path d="m297.54 409.19c-6e-3 0.0158-1.1492 0.0158-1.155 0-6e-3 -0.0158 0.56594-1.5781 0.57749-1.5781 0.0115 0 0.58326 1.5623 0.57748 1.5781z"/>
      <path d="m295.37 407.63c6e-3 -0.0158 1.1492-0.0158 1.155 0 6e-3 0.0158-0.56594 1.5781-0.57749 1.5781-0.0115 0-0.58326-1.5623-0.57748-1.5781z"/>
     </g>
    </g>
   </g>
  </g>
  <g transform="translate(-50.91 .7635)">
   <rect x="226.61" y="375.91" width="46.102" height="13.098" rx=".013315" ry=".0028552" fill="#ccc" fill-rule="evenodd" stroke="#000" stroke-width=".27806"/>
   <g transform="translate(-25.554 -25.586)">
    <g transform="matrix(.57571 0 0 .6712 217.97 133.51)">
     <rect x="125.95" y="399.76" width="13.005" height="6.133" fill="#bfbfbf" stroke="#000" stroke-linecap="round" stroke-linejoin="round" stroke-miterlimit="10" stroke-width=".098128"/>
     <g transform="translate(-151.47 32.922)">
      <g transform="matrix(1.1392 0 0 1.0628 -9.5661 -40.967)">
       <rect x="251.98" y="383.74" width="11.333" height="5.639"/>
       <rect x="251.98" y="383.74" width="11.319" height="5.6234" fill="none" stroke="#7f7f7f" stroke-width=".2"/>
      </g>
      <g transform="matrix(1.1392 0 0 1.0628 -9.5661 -40.967)">
       <polygon points="256.98 383.94 253.58 383.94 252.18 383.94 252.18 386.54 256.98 386.54"/>
       <polygon transform="matrix(2.2457 0 0 1.9606 -314.08 -368.76)" points="252.18 383.94 252.18 386.54 256.98 386.54 256.98 383.94 253.58 383.94" fill="none" stroke="#7f7f7f" stroke-width=".023002"/>
      </g>
     </g>
    </g>
    <rect x="292.69" y="405.33" width="3.0982" height=".18777" rx=".025173" ry=".0057804" fill="#999" fill-rule="evenodd"/>
    <g transform="matrix(-.57571 0 0 -.6712 370.5 682.61)">
     <rect x="125.95" y="399.76" width="13.005" height="6.133" fill="#bfbfbf" stroke="#000" stroke-linecap="round" stroke-linejoin="round" stroke-miterlimit="10" stroke-width=".098128"/>
     <g transform="translate(-151.47 32.922)">
      <g transform="matrix(1.1392 0 0 1.0628 -9.5661 -40.967)">
       <rect x="251.98" y="383.74" width="11.333" height="5.639"/>
       <rect x="251.98" y="383.74" width="11.319" height="5.6234" fill="none" stroke="#7f7f7f" stroke-width=".2"/>
      </g>
      <g transform="matrix(1.1392 0 0 1.0628 -9.5661 -40.967)">
       <polygon points="252.18 383.94 252.18 386.54 256.98 386.54 256.98 383.94 253.58 383.94"/>
       <polygon transform="matrix(2.2457 0 0 1.9606 -314.08 -368.76)" points="256.98 386.54 256.98 383.94 253.58 383.94 252.18 383.94 252.18 386.54" fill="none" stroke="#7f7f7f" stroke-width=".023002"/>
      </g>
     </g>
    </g>
    <rect transform="scale(-1)" x="-295.79" y="-410.79" width="3.0982" height=".18777" rx=".025173" ry=".0057804" fill="#999" fill-rule="evenodd"/>
   </g>
   <g transform="translate(-25.702 -25.938)" fill="#008000" fill-rule="evenodd" stroke="#2d5016" stroke-width=".23766">
    <path d="m292.24 409.19c-6e-3 0.0158-1.1492 0.0158-1.155 0-6e-3 -0.0158 0.56594-1.5781 0.57749-1.5781 0.0115 0 0.58326 1.5623 0.57748 1.5781z"/>
    <path d="m292.15 407.63c6e-3 -0.0158 1.1492-0.0158 1.155 0 6e-3 0.0158-0.56594 1.5781-0.57749 1.5781-0.0115 0-0.58326-1.5623-0.57748-1.5781z"/>
    <path d="m297.54 409.19c-6e-3 0.0158-1.1492 0.0158-1.155 0-6e-3 -0.0158 0.56594-1.5781 0.57749-1.5781 0.0115 0 0.58326 1.5623 0.57748 1.5781z"/>
    <path d="m295.37 407.63c6e-3 -0.0158 1.1492-0.0158 1.155 0 6e-3 0.0158-0.56594 1.5781-0.57749 1.5781-0.0115 0-0.58326-1.5623-0.57748-1.5781z"/>
   </g>
   <g transform="translate(-63.529 -25.586)">
    <g transform="matrix(.57571 0 0 .6712 217.97 133.51)">
     <rect x="125.95" y="399.76" width="13.005" height="6.133" fill="#bfbfbf" stroke="#000" stroke-linecap="round" stroke-linejoin="round" stroke-miterlimit="10" stroke-width=".098128"/>
     <g transform="translate(-151.47 32.922)">
      <g transform="matrix(1.1392 0 0 1.0628 -9.5661 -40.967)">
       <rect x="251.98" y="383.74" width="11.333" height="5.639"/>
       <rect x="251.98" y="383.74" width="11.319" height="5.6234" fill="none" stroke="#7f7f7f" stroke-width=".2"/>
      </g>
      <g transform="matrix(1.1392 0 0 1.0628 -9.5661 -40.967)">
       <polygon points="256.98 383.94 253.58 383.94 252.18 383.94 252.18 386.54 256.98 386.54"/>
       <polygon transform="matrix(2.2457 0 0 1.9606 -314.08 -368.76)" points="252.18 383.94 252.18 386.54 256.98 386.54 256.98 383.94 253.58 383.94" fill="none" stroke="#7f7f7f" stroke-width=".023002"/>
      </g>
     </g>
    </g>
    <rect x="292.69" y="405.33" width="3.0982" height=".18777" rx=".025173" ry=".0057804" fill="#999" fill-rule="evenodd"/>
    <g transform="matrix(-.57571 0 0 -.6712 370.5 682.61)">
     <rect x="125.95" y="399.76" width="13.005" height="6.133" fill="#bfbfbf" stroke="#000" stroke-linecap="round" stroke-linejoin="round" stroke-miterlimit="10" stroke-width=".098128"/>
     <g transform="translate(-151.47 32.922)">
      <g transform="matrix(1.1392 0 0 1.0628 -9.5661 -40.967)">
       <rect x="251.98" y="383.74" width="11.333" height="5.639"/>
       <rect x="251.98" y="383.74" width="11.319" height="5.6234" fill="none" stroke="#7f7f7f" stroke-width=".2"/>
      </g>
      <g transform="matrix(1.1392 0 0 1.0628 -9.5661 -40.967)">
       <polygon points="252.18 383.94 252.18 386.54 256.98 386.54 256.98 383.94 253.58 383.94"/>
       <polygon transform="matrix(2.2457 0 0 1.9606 -314.08 -368.76)" points="256.98 386.54 256.98 383.94 253.58 383.94 252.18 383.94 252.18 386.54" fill="none" stroke="#7f7f7f" stroke-width=".023002"/>
      </g>
     </g>
    </g>
    <rect transform="scale(-1)" x="-295.79" y="-410.79" width="3.0982" height=".18777" rx=".025173" ry=".0057804" fill="#999" fill-rule="evenodd"/>
   </g>
   <g transform="translate(-63.678 -25.938)" fill="#008000" fill-rule="evenodd" stroke="#2d5016" stroke-width=".23766">
    <path d="m292.24 409.19c-6e-3 0.0158-1.1492 0.0158-1.155 0-6e-3 -0.0158 0.56594-1.5781 0.57749-1.5781 0.0115 0 0.58326 1.5623 0.57748 1.5781z"/>
    <path d="m292.15 407.63c6e-3 -0.0158 1.1492-0.0158 1.155 0 6e-3 0.0158-0.56594 1.5781-0.57749 1.5781-0.0115 0-0.58326-1.5623-0.57748-1.5781z"/>
    <path d="m297.54 409.19c-6e-3 0.0158-1.1492 0.0158-1.155 0-6e-3 -0.0158 0.56594-1.5781 0.57749-1.5781 0.0115 0 0.58326 1.5623 0.57748 1.5781z"/>
    <path d="m295.37 407.63c6e-3 -0.0158 1.1492-0.0158 1.155 0 6e-3 0.0158-0.56594 1.5781-0.57749 1.5781-0.0115 0-0.58326-1.5623-0.57748-1.5781z"/>
   </g>
   <g transform="translate(-55.934 -25.586)">
    <g transform="matrix(.57571 0 0 .6712 217.97 133.51)">
     <rect x="125.95" y="399.76" width="13.005" height="6.133" fill="#bfbfbf" stroke="#000" stroke-linecap="round" stroke-linejoin="round" stroke-miterlimit="10" stroke-width=".098128"/>
     <g transform="translate(-151.47 32.922)">
      <g transform="matrix(1.1392 0 0 1.0628 -9.5661 -40.967)">
       <rect x="251.98" y="383.74" width="11.333" height="5.639"/>
       <rect x="251.98" y="383.74" width="11.319" height="5.6234" fill="none" stroke="#7f7f7f" stroke-width=".2"/>
      </g>
      <g transform="matrix(1.1392 0 0 1.0628 -9.5661 -40.967)">
       <polygon points="256.98 383.94 253.58 383.94 252.18 383.94 252.18 386.54 256.98 386.54"/>
       <polygon transform="matrix(2.2457 0 0 1.9606 -314.08 -368.76)" points="252.18 383.94 252.18 386.54 256.98 386.54 256.98 383.94 253.58 383.94" fill="none" stroke="#7f7f7f" stroke-width=".023002"/>
      </g>
     </g>
    </g>
    <rect x="292.69" y="405.33" width="3.0982" height=".18777" rx=".025173" ry=".0057804" fill="#999" fill-rule="evenodd"/>
    <g transform="matrix(-.57571 0 0 -.6712 370.5 682.61)">
     <rect x="125.95" y="399.76" width="13.005" height="6.133" fill="#bfbfbf" stroke="#000" stroke-linecap="round" stroke-linejoin="round" stroke-miterlimit="10" stroke-width=".098128"/>
     <g transform="translate(-151.47 32.922)">
      <g transform="matrix(1.1392 0 0 1.0628 -9.5661 -40.967)">
       <rect x="251.98" y="383.74" width="11.333" height="5.639"/>
       <rect x="251.98" y="383.74" width="11.319" height="5.6234" fill="none" stroke="#7f7f7f" stroke-width=".2"/>
      </g>
      <g transform="matrix(1.1392 0 0 1.0628 -9.5661 -40.967)">
       <polygon points="252.18 383.94 252.18 386.54 256.98 386.54 256.98 383.94 253.58 383.94"/>
       <polygon transform="matrix(2.2457 0 0 1.9606 -314.08 -368.76)" points="256.98 386.54 256.98 383.94 253.58 383.94 252.18 383.94 252.18 386.54" fill="none" stroke="#7f7f7f" stroke-width=".023002"/>
      </g>
     </g>
    </g>
    <rect transform="scale(-1)" x="-295.79" y="-410.79" width="3.0982" height=".18777" rx=".025173" ry=".0057804" fill="#999" fill-rule="evenodd"/>
   </g>
   <g transform="translate(-56.082 -25.938)" fill="#008000" fill-rule="evenodd" stroke="#2d5016" stroke-width=".23766">
    <path d="m292.24 409.19c-6e-3 0.0158-1.1492 0.0158-1.155 0-6e-3 -0.0158 0.56594-1.5781 0.57749-1.5781 0.0115 0 0.58326 1.5623 0.57748 1.5781z"/>
    <path d="m292.15 407.63c6e-3 -0.0158 1.1492-0.0158 1.155 0 6e-3 0.0158-0.56594 1.5781-0.57749 1.5781-0.0115 0-0.58326-1.5623-0.57748-1.5781z"/>
    <path d="m297.54 409.19c-6e-3 0.0158-1.1492 0.0158-1.155 0-6e-3 -0.0158 0.56594-1.5781 0.57749-1.5781 0.0115 0 0.58326 1.5623 0.57748 1.5781z"/>
    <path d="m295.37 407.63c6e-3 -0.0158 1.1492-0.0158 1.155 0 6e-3 0.0158-0.56594 1.5781-0.57749 1.5781-0.0115 0-0.58326-1.5623-0.57748-1.5781z"/>
   </g>
   <g transform="translate(-24.113 -.39832)">
    <g transform="translate(-24.226 -25.187)">
     <g transform="matrix(.57571 0 0 .6712 217.97 133.51)">
      <rect x="125.95" y="399.76" width="13.005" height="6.133" fill="#bfbfbf" stroke="#000" stroke-linecap="round" stroke-linejoin="round" stroke-miterlimit="10" stroke-width=".098128"/>
      <g transform="translate(-151.47 32.922)">
       <g transform="matrix(1.1392 0 0 1.0628 -9.5661 -40.967)">
        <rect x="251.98" y="383.74" width="11.333" height="5.639"/>
        <rect x="251.98" y="383.74" width="11.319" height="5.6234" fill="none" stroke="#7f7f7f" stroke-width=".2"/>
       </g>
       <g transform="matrix(1.1392 0 0 1.0628 -9.5661 -40.967)">
        <polygon points="252.18 386.54 256.98 386.54 256.98 383.94 253.58 383.94 252.18 383.94"/>
        <polygon transform="matrix(2.2457 0 0 1.9606 -314.08 -368.76)" points="256.98 383.94 253.58 383.94 252.18 383.94 252.18 386.54 256.98 386.54" fill="none" stroke="#7f7f7f" stroke-width=".023002"/>
       </g>
      </g>
     </g>
     <rect x="292.69" y="405.33" width="3.0982" height=".18777" rx=".025173" ry=".0057804" fill="#999" fill-rule="evenodd"/>
     <g transform="matrix(-.57571 0 0 -.6712 370.5 682.61)">
      <rect x="125.95" y="399.76" width="13.005" height="6.133" fill="#bfbfbf" stroke="#000" stroke-linecap="round" stroke-linejoin="round" stroke-miterlimit="10" stroke-width=".098128"/>
      <g transform="translate(-151.47 32.922)">
       <g transform="matrix(1.1392 0 0 1.0628 -9.5661 -40.967)">
        <rect x="251.98" y="383.74" width="11.333" height="5.639"/>
        <rect x="251.98" y="383.74" width="11.319" height="5.6234" fill="none" stroke="#7f7f7f" stroke-width=".2"/>
       </g>
       <g transform="matrix(1.1392 0 0 1.0628 -9.5661 -40.967)">
        <polygon points="256.98 383.94 253.58 383.94 252.18 383.94 252.18 386.54 256.98 386.54"/>
        <polygon transform="matrix(2.2457 0 0 1.9606 -314.08 -368.76)" points="252.18 383.94 252.18 386.54 256.98 386.54 256.98 383.94 253.58 383.94" fill="none" stroke="#7f7f7f" stroke-width=".023002"/>
       </g>
      </g>
     </g>
     <rect transform="scale(-1)" x="-295.79" y="-410.79" width="3.0982" height=".18777" rx=".025173" ry=".0057804" fill="#999" fill-rule="evenodd"/>
    </g>
    <g transform="translate(-24.375 -25.54)" fill="#008000" fill-rule="evenodd" stroke="#2d5016" stroke-width=".23766">
     <path d="m292.24 409.19c-6e-3 0.0158-1.1492 0.0158-1.155 0-6e-3 -0.0158 0.56594-1.5781 0.57749-1.5781 0.0115 0 0.58326 1.5623 0.57748 1.5781z"/>
     <path d="m292.15 407.63c6e-3 -0.0158 1.1492-0.0158 1.155 0 6e-3 0.0158-0.56594 1.5781-0.57749 1.5781-0.0115 0-0.58326-1.5623-0.57748-1.5781z"/>
     <path d="m297.54 409.19c-6e-3 0.0158-1.1492 0.0158-1.155 0-6e-3 -0.0158 0.56594-1.5781 0.57749-1.5781 0.0115 0 0.58326 1.5623 0.57748 1.5781z"/>
     <path d="m295.37 407.63c6e-3 -0.0158 1.1492-0.0158 1.155 0 6e-3 0.0158-0.56594 1.5781-0.57749 1.5781-0.0115 0-0.58326-1.5623-0.57748-1.5781z"/>
    </g>
   </g>
   <g transform="translate(-1.3277 -.39832)">
    <g transform="translate(-15.19)">
     <g transform="translate(-24.226 -25.187)">
      <g transform="matrix(.57571 0 0 .6712 217.97 133.51)">
       <rect x="125.95" y="399.76" width="13.005" height="6.133" fill="#bfbfbf" stroke="#000" stroke-linecap="round" stroke-linejoin="round" stroke-miterlimit="10" stroke-width=".098128"/>
       <g transform="translate(-151.47 32.922)">
        <g transform="matrix(1.1392 0 0 1.0628 -9.5661 -40.967)">
         <rect x="251.98" y="383.74" width="11.333" height="5.639"/>
         <rect x="251.98" y="383.74" width="11.319" height="5.6234" fill="none" stroke="#7f7f7f" stroke-width=".2"/>
        </g>
        <g transform="matrix(1.1392 0 0 1.0628 -9.5661 -40.967)">
         <polygon points="252.18 386.54 256.98 386.54 256.98 383.94 253.58 383.94 252.18 383.94"/>
         <polygon transform="matrix(2.2457 0 0 1.9606 -314.08 -368.76)" points="256.98 383.94 253.58 383.94 252.18 383.94 252.18 386.54 256.98 386.54" fill="none" stroke="#7f7f7f" stroke-width=".023002"/>
        </g>
       </g>
      </g>
      <rect x="292.69" y="405.33" width="3.0982" height=".18777" rx=".025173" ry=".0057804" fill="#999" fill-rule="evenodd"/>
      <g transform="matrix(-.57571 0 0 -.6712 370.5 682.61)">
       <rect x="125.95" y="399.76" width="13.005" height="6.133" fill="#bfbfbf" stroke="#000" stroke-linecap="round" stroke-linejoin="round" stroke-miterlimit="10" stroke-width=".098128"/>
       <g transform="translate(-151.47 32.922)">
        <g transform="matrix(1.1392 0 0 1.0628 -9.5661 -40.967)">
         <rect x="251.98" y="383.74" width="11.333" height="5.639"/>
         <rect x="251.98" y="383.74" width="11.319" height="5.6234" fill="none" stroke="#7f7f7f" stroke-width=".2"/>
        </g>
        <g transform="matrix(1.1392 0 0 1.0628 -9.5661 -40.967)">
         <polygon points="256.98 383.94 253.58 383.94 252.18 383.94 252.18 386.54 256.98 386.54"/>
         <polygon transform="matrix(2.2457 0 0 1.9606 -314.08 -368.76)" points="252.18 383.94 252.18 386.54 256.98 386.54 256.98 383.94 253.58 383.94" fill="none" stroke="#7f7f7f" stroke-width=".023002"/>
        </g>
       </g>
      </g>
      <rect transform="scale(-1)" x="-295.79" y="-410.79" width="3.0982" height=".18777" rx=".025173" ry=".0057804" fill="#999" fill-rule="evenodd"/>
     </g>
     <g transform="translate(-24.375 -25.54)" fill="#008000" fill-rule="evenodd" stroke="#2d5016" stroke-width=".23766">
      <path d="m292.24 409.19c-6e-3 0.0158-1.1492 0.0158-1.155 0-6e-3 -0.0158 0.56594-1.5781 0.57749-1.5781 0.0115 0 0.58326 1.5623 0.57748 1.5781z"/>
      <path d="m292.15 407.63c6e-3 -0.0158 1.1492-0.0158 1.155 0 6e-3 0.0158-0.56594 1.5781-0.57749 1.5781-0.0115 0-0.58326-1.5623-0.57748-1.5781z"/>
      <path d="m297.54 409.19c-6e-3 0.0158-1.1492 0.0158-1.155 0-6e-3 -0.0158 0.56594-1.5781 0.57749-1.5781 0.0115 0 0.58326 1.5623 0.57748 1.5781z"/>
      <path d="m295.37 407.63c6e-3 -0.0158 1.1492-0.0158 1.155 0 6e-3 0.0158-0.56594 1.5781-0.57749 1.5781-0.0115 0-0.58326-1.5623-0.57748-1.5781z"/>
     </g>
    </g>
   </g>
   <g transform="translate(-1.3277 -.39832)">
    <g transform="translate(-7.595)">
     <g transform="translate(-24.226 -25.187)">
      <g transform="matrix(.57571 0 0 .6712 217.97 133.51)">
       <rect x="125.95" y="399.76" width="13.005" height="6.133" fill="#bfbfbf" stroke="#000" stroke-linecap="round" stroke-linejoin="round" stroke-miterlimit="10" stroke-width=".098128"/>
       <g transform="translate(-151.47 32.922)">
        <g transform="matrix(1.1392 0 0 1.0628 -9.5661 -40.967)">
         <rect x="251.98" y="383.74" width="11.333" height="5.639"/>
         <rect x="251.98" y="383.74" width="11.319" height="5.6234" fill="none" stroke="#7f7f7f" stroke-width=".2"/>
        </g>
        <g transform="matrix(1.1392 0 0 1.0628 -9.5661 -40.967)">
         <polygon points="252.18 386.54 256.98 386.54 256.98 383.94 253.58 383.94 252.18 383.94"/>
         <polygon transform="matrix(2.2457 0 0 1.9606 -314.08 -368.76)" points="256.98 383.94 253.58 383.94 252.18 383.94 252.18 386.54 256.98 386.54" fill="none" stroke="#7f7f7f" stroke-width=".023002"/>
        </g>
       </g>
      </g>
      <rect x="292.69" y="405.33" width="3.0982" height=".18777" rx=".025173" ry=".0057804" fill="#999" fill-rule="evenodd"/>
      <g transform="matrix(-.57571 0 0 -.6712 370.5 682.61)">
       <rect x="125.95" y="399.76" width="13.005" height="6.133" fill="#bfbfbf" stroke="#000" stroke-linecap="round" stroke-linejoin="round" stroke-miterlimit="10" stroke-width=".098128"/>
       <g transform="translate(-151.47 32.922)">
        <g transform="matrix(1.1392 0 0 1.0628 -9.5661 -40.967)">
         <rect x="251.98" y="383.74" width="11.333" height="5.639"/>
         <rect x="251.98" y="383.74" width="11.319" height="5.6234" fill="none" stroke="#7f7f7f" stroke-width=".2"/>
        </g>
        <g transform="matrix(1.1392 0 0 1.0628 -9.5661 -40.967)">
         <polygon points="256.98 383.94 253.58 383.94 252.18 383.94 252.18 386.54 256.98 386.54"/>
         <polygon transform="matrix(2.2457 0 0 1.9606 -314.08 -368.76)" points="252.18 383.94 252.18 386.54 256.98 386.54 256.98 383.94 253.58 383.94" fill="none" stroke="#7f7f7f" stroke-width=".023002"/>
        </g>
       </g>
      </g>
      <rect transform="scale(-1)" x="-295.79" y="-410.79" width="3.0982" height=".18777" rx=".025173" ry=".0057804" fill="#999" fill-rule="evenodd"/>
     </g>
     <g transform="translate(-24.375 -25.54)" fill="#008000" fill-rule="evenodd" stroke="#2d5016" stroke-width=".23766">
      <path d="m292.24 409.19c-6e-3 0.0158-1.1492 0.0158-1.155 0-6e-3 -0.0158 0.56594-1.5781 0.57749-1.5781 0.0115 0 0.58326 1.5623 0.57748 1.5781z"/>
      <path d="m292.15 407.63c6e-3 -0.0158 1.1492-0.0158 1.155 0 6e-3 0.0158-0.56594 1.5781-0.57749 1.5781-0.0115 0-0.58326-1.5623-0.57748-1.5781z"/>
      <path d="m297.54 409.19c-6e-3 0.0158-1.1492 0.0158-1.155 0-6e-3 -0.0158 0.56594-1.5781 0.57749-1.5781 0.0115 0 0.58326 1.5623 0.57748 1.5781z"/>
      <path d="m295.37 407.63c6e-3 -0.0158 1.1492-0.0158 1.155 0 6e-3 0.0158-0.56594 1.5781-0.57749 1.5781-0.0115 0-0.58326-1.5623-0.57748-1.5781z"/>
     </g>
    </g>
   </g>
  </g>
  <rect x="79.516" y="380.42" width="9.1537" height="11.172" rx=".013369" ry=".0030699" fill="#ebebeb" fill-rule="evenodd" stroke="#000" stroke-width=".28891"/>
  <g transform="matrix(1.0024 0 0 1.0019 -66.551 169.96)">
   <path d="m146.09 217.75h8.4v-7.0242h-8.4v7.0242z" fill="#3a3a3a"/>
   <g transform="matrix(.0080517 0 0 .0080487 133.48 246.67)">
    <path d="m2609.9-3593.3v-872.71h-1043.3v872.71h1043.3z" fill="none" stroke="#000" stroke-linecap="square" stroke-width=".67568"/>
   </g>
   <path d="m146.86 212.5h1.7532l-3e-3 -1.0712 0.63806-5.7e-4v-0.40106h2.0566l-4.9e-4 0.40211h0.66414v1.0712h1.7452v4.6119l-6.8535 0.015z" fill="#1a1a1a"/>
   <g fill="#ffac00">
    <path d="m148.44 217.12h0.21886v-1.3473h-0.21886v1.3473z"/>
    <path d="m148.93 217.12h0.21886v-1.3473h-0.21886v1.3473z"/>
    <path d="m149.43 217.12h0.2188v-1.3473h-0.2188v1.3473z"/>
    <path d="m149.94 217.12h0.21887v-1.3473h-0.21887v1.3473z"/>
    <path d="m150.43 217.12h0.21886v-1.3473h-0.21886v1.3473z"/>
    <path d="m150.93 217.12h0.2188v-1.3473h-0.2188v1.3473z"/>
    <path d="m151.45 217.12h0.21933v-1.3473h-0.21933v1.3473z"/>
    <path d="m151.94 217.12h0.2188v-1.3473h-0.2188v1.3473z"/>
   </g>
   <g fill="#ebebeb">
    <path d="m148.88 211.4v-0.67597l-2.7924 9.6e-4 2e-3 6.9848 0.77137-0.62711-4.8e-4 -4.8021 1.5788-7e-3v-0.87506z"/>
    <path d="m146.89 217.13-0.76557 0.62244 8.3332 1e-3 -0.78248-0.63628"/>
    <path d="m151.68 211.4v-0.67597l2.8056 9.6e-4 -2e-3 6.9848-0.77145-0.63081 5.6e-4 -4.7984-1.5906-7e-3v-0.87506z"/>
   </g>
  </g>
  <g transform="matrix(0 -.31464 .31449 0 4.2257 429.97)">
   <path d="m131.23 266.26v-24.611h-8.376v24.611h8.376z"/>
   <path d="m131.23 266.26v-24.611h-8.3762v24.611h8.3762z" fill="none" stroke="#535353" stroke-linecap="round" stroke-linejoin="round" stroke-miterlimit="4.4615" stroke-width=".10782"/>
   <g stroke="#000" stroke-linejoin="round">
    <path d="m126.34 264.07v-20.304h-1.4326v20.304h1.4326z" fill="none" stroke-linecap="round" stroke-miterlimit="4.4615" stroke-width=".10782"/>
    <path d="m124.91 264.07v-20.304l-0.71578-0.72485v21.754l0.71578-0.72485" fill="#a09a9a" stroke-width=".11578"/>
    <path d="m127.06 264.79v-21.754l-0.71603 0.72485v20.304l0.71603 0.72485" fill="#a09a9a" stroke-width=".11578"/>
    <path d="m127.06 264.79v-21.754l-0.71643 0.72523v20.304l0.71643 0.72472z" fill="none" stroke-linecap="round" stroke-miterlimit="4.4615" stroke-width=".10782"/>
   </g>
   <g>
    <path d="m127.06 264.79-0.71603-0.72485h-1.4333l-0.71578 0.72485h2.8651" fill="#a09a9a" stroke="#000" stroke-linecap="round" stroke-linejoin="round" stroke-width=".11578"/>
    <path d="m127.06 243.04-0.71603 0.72485h-1.4333l-0.71578-0.72485h2.8651" fill="#a09a9a" stroke="#000" stroke-linejoin="round" stroke-width=".11578"/>
    <path d="m126.31 264.05v-20.293h-1.3976v20.293z" fill="#505050"/>
   </g>
  </g>
  <g transform="translate(8.1746)">
   <rect x="177.26" y="373.7" width="3.9417" height="1.9916" rx=".047399" ry=".023128"/>
   <text transform="scale(1.0397 .96177)" x="173.45682" y="390.23068" fill="#000000" font-family="sans-serif" font-size="1.7552px" style="line-height:0%">
    <tspan x="172.35254" y="390.23068" fill="#ffffff" font-family="sans-serif" font-weight="bold" text-align="center" text-anchor="middle">3</tspan>
   </text>
  </g>
  <g transform="translate(15.77)">
   <rect x="177.26" y="373.7" width="3.9417" height="1.9916" rx=".047399" ry=".023128"/>
   <text transform="scale(1.0397 .96177)" x="173.45682" y="390.23068" fill="#000000" font-family="sans-serif" font-size="1.7552px" style="line-height:0%">
    <tspan x="172.35254" y="390.23068" fill="#ffffff" font-family="sans-serif" font-weight="bold" text-align="center" text-anchor="middle">5</tspan>
   </text>
  </g>
  <g transform="translate(23.365)">
   <rect x="177.26" y="373.7" width="3.9417" height="1.9916" rx=".047399" ry=".023128"/>
   <text transform="scale(1.0397 .96177)" x="173.45682" y="390.23068" fill="#000000" font-family="sans-serif" font-size="1.7552px" style="line-height:0%">
    <tspan x="172.35254" y="390.23068" fill="#ffffff" font-family="sans-serif" font-weight="bold" text-align="center" text-anchor="middle">7</tspan>
   </text>
  </g>
  <g transform="translate(30.96)">
   <rect x="177.26" y="373.7" width="3.9417" height="1.9916" rx=".047399" ry=".023128"/>
   <text transform="scale(1.0397 .96177)" x="173.45682" y="390.23068" fill="#000000" font-family="sans-serif" font-size="1.7552px" style="line-height:0%">
    <tspan x="172.35254" y="390.23068" fill="#ffffff" font-family="sans-serif" font-weight="bold" text-align="center" text-anchor="middle">9</tspan>
   </text>
  </g>
  <g transform="translate(38.555)">
   <rect x="177.26" y="373.7" width="3.9417" height="1.9916" rx=".047399" ry=".023128"/>
   <text transform="scale(1.0397 .96177)" x="173.45682" y="390.23068" fill="#000000" font-family="sans-serif" font-size="1.7552px" style="line-height:0%">
    <tspan x="172.35254" y="390.23068" fill="#ffffff" font-family="sans-serif" font-weight="bold" text-align="center" text-anchor="middle">11</tspan>
   </text>
  </g>
  <g transform="translate(-.052355)">
   <g transform="translate(.63193 17.429)">
    <rect x="177.26" y="373.7" width="3.9417" height="1.9916" rx=".047399" ry=".023128"/>
    <text transform="scale(1.0397 .96177)" x="173.45682" y="390.23068" fill="#000000" font-family="sans-serif" font-size="1.7552px" style="line-height:0%">
     <tspan x="172.35254" y="390.23068" fill="#ffffff" font-family="sans-serif" font-weight="bold" text-align="center" text-anchor="middle">2</tspan>
    </text>
   </g>
   <g transform="translate(8.227 17.429)">
    <rect x="177.26" y="373.7" width="3.9417" height="1.9916" rx=".047399" ry=".023128"/>
    <text transform="scale(1.0397 .96177)" x="173.45682" y="390.23068" fill="#000000" font-family="sans-serif" font-size="1.7552px" style="line-height:0%">
     <tspan x="172.35254" y="390.23068" fill="#ffffff" font-family="sans-serif" font-weight="bold" text-align="center" text-anchor="middle">4</tspan>
    </text>
   </g>
   <g transform="translate(15.822 17.429)">
    <rect x="177.26" y="373.7" width="3.9417" height="1.9916" rx=".047399" ry=".023128"/>
    <text transform="scale(1.0397 .96177)" x="173.45682" y="390.23068" fill="#000000" font-family="sans-serif" font-size="1.7552px" style="line-height:0%">
     <tspan x="172.35254" y="390.23068" fill="#ffffff" font-family="sans-serif" font-weight="bold" text-align="center" text-anchor="middle">6</tspan>
    </text>
   </g>
   <g transform="translate(23.417 17.429)">
    <rect x="177.26" y="373.7" width="3.9417" height="1.9916" rx=".047399" ry=".023128"/>
    <text transform="scale(1.0397 .96177)" x="173.45682" y="390.23068" fill="#000000" font-family="sans-serif" font-size="1.7552px" style="line-height:0%">
     <tspan x="172.35254" y="390.23068" fill="#ffffff" font-family="sans-serif" font-weight="bold" text-align="center" text-anchor="middle">8</tspan>
    </text>
   </g>
   <g transform="translate(31.012 17.429)">
    <rect x="177.26" y="373.7" width="3.9417" height="1.9916" rx=".047399" ry=".023128"/>
    <text transform="scale(1.0397 .96177)" x="173.45682" y="390.23068" fill="#000000" font-family="sans-serif" font-size="1.7552px" style="line-height:0%">
     <tspan x="172.35254" y="390.23068" fill="#ffffff" font-family="sans-serif" font-weight="bold" text-align="center" text-anchor="middle">10</tspan>
    </text>
   </g>
   <g transform="translate(38.607 17.429)">
    <rect x="177.26" y="373.7" width="3.9417" height="1.9916" rx=".047399" ry=".023128"/>
    <text transform="scale(1.0397 .96177)" x="173.45682" y="390.23068" fill="#000000" font-family="sans-serif" font-size="1.7552px" style="line-height:0%">
     <tspan x="172.35254" y="390.23068" fill="#ffffff" font-family="sans-serif" font-weight="bold" text-align="center" text-anchor="middle">12</tspan>
    </text>
   </g>
  </g>
  <g transform="translate(1.119)">
   <g transform="translate(52.207)">
    <rect x="177.26" y="373.7" width="3.9417" height="1.9916" rx=".047399" ry=".023128"/>
    <text transform="scale(1.0397 .96177)" x="173.45682" y="390.23068" fill="#000000" font-family="sans-serif" font-size="1.7552px" style="line-height:0%">
     <tspan x="172.35254" y="390.23068" fill="#ffffff" font-family="sans-serif" font-weight="bold" text-align="center" text-anchor="middle">13</tspan>
    </text>
   </g>
   <g transform="translate(59.802)">
    <rect x="177.26" y="373.7" width="3.9417" height="1.9916" rx=".047399" ry=".023128"/>
    <text transform="scale(1.0397 .96177)" x="173.45682" y="390.23068" fill="#000000" font-family="sans-serif" font-size="1.7552px" style="line-height:0%">
     <tspan x="172.35254" y="390.23068" fill="#ffffff" font-family="sans-serif" font-weight="bold" text-align="center" text-anchor="middle">15</tspan>
    </text>
   </g>
   <g transform="translate(67.397)">
    <rect x="177.26" y="373.7" width="3.9417" height="1.9916" rx=".047399" ry=".023128"/>
    <text transform="scale(1.0397 .96177)" x="173.45682" y="390.23068" fill="#000000" font-family="sans-serif" font-size="1.7552px" style="line-height:0%">
     <tspan x="172.35254" y="390.23068" fill="#ffffff" font-family="sans-serif" font-weight="bold" text-align="center" text-anchor="middle">17</tspan>
    </text>
   </g>
   <g transform="translate(74.992)">
    <rect x="177.26" y="373.7" width="3.9417" height="1.9916" rx=".047399" ry=".023128"/>
    <text transform="scale(1.0397 .96177)" x="173.45682" y="390.23068" fill="#000000" font-family="sans-serif" font-size="1.7552px" style="line-height:0%">
     <tspan x="172.35254" y="390.23068" fill="#ffffff" font-family="sans-serif" font-weight="bold" text-align="center" text-anchor="middle">19</tspan>
    </text>
   </g>
   <g transform="translate(82.587)">
    <rect x="177.26" y="373.7" width="3.9417" height="1.9916" rx=".047399" ry=".023128"/>
    <text transform="scale(1.0397 .96177)" x="173.45682" y="390.23068" fill="#000000" font-family="sans-serif" font-size="1.7552px" style="line-height:0%">
     <tspan x="172.35254" y="390.23068" fill="#ffffff" font-family="sans-serif" font-weight="bold" text-align="center" text-anchor="middle">21</tspan>
    </text>
   </g>
   <g transform="translate(90.182)">
    <rect x="177.26" y="373.7" width="3.9417" height="1.9916" rx=".047399" ry=".023128"/>
    <text transform="scale(1.0397 .96177)" x="173.45682" y="390.23068" fill="#000000" font-family="sans-serif" font-size="1.7552px" style="line-height:0%">
     <tspan x="172.35254" y="390.23068" fill="#ffffff" font-family="sans-serif" font-weight="bold" text-align="center" text-anchor="middle">23</tspan>
    </text>
   </g>
  </g>
  <g transform="translate(52.694)">
   <g transform="translate(.63193 17.429)">
    <rect x="177.26" y="373.7" width="3.9417" height="1.9916" rx=".047399" ry=".023128"/>
    <text transform="scale(1.0397 .96177)" x="173.45682" y="390.23068" fill="#000000" font-family="sans-serif" font-size="1.7552px" style="line-height:0%">
     <tspan x="172.35254" y="390.23068" fill="#ffffff" font-family="sans-serif" font-weight="bold" text-align="center" text-anchor="middle">14</tspan>
    </text>
   </g>
   <g transform="translate(8.227 17.429)">
    <rect x="177.26" y="373.7" width="3.9417" height="1.9916" rx=".047399" ry=".023128"/>
    <text transform="scale(1.0397 .96177)" x="173.45682" y="390.23068" fill="#000000" font-family="sans-serif" font-size="1.7552px" style="line-height:0%">
     <tspan x="172.35254" y="390.23068" fill="#ffffff" font-family="sans-serif" font-weight="bold" text-align="center" text-anchor="middle">16</tspan>
    </text>
   </g>
   <g transform="translate(15.822 17.429)">
    <rect x="177.26" y="373.7" width="3.9417" height="1.9916" rx=".047399" ry=".023128"/>
    <text transform="scale(1.0397 .96177)" x="173.45682" y="390.23068" fill="#000000" font-family="sans-serif" font-size="1.7552px" style="line-height:0%">
     <tspan x="172.35254" y="390.23068" fill="#ffffff" font-family="sans-serif" font-weight="bold" text-align="center" text-anchor="middle">18</tspan>
    </text>
   </g>
   <g transform="translate(23.417 17.429)">
    <rect x="177.26" y="373.7" width="3.9417" height="1.9916" rx=".047399" ry=".023128"/>
    <text transform="scale(1.0397 .96177)" x="173.45682" y="390.23068" fill="#000000" font-family="sans-serif" font-size="1.7552px" style="line-height:0%">
     <tspan x="172.35254" y="390.23068" fill="#ffffff" font-family="sans-serif" font-weight="bold" text-align="center" text-anchor="middle">20</tspan>
    </text>
   </g>
   <g transform="translate(31.012 17.429)">
    <rect x="177.26" y="373.7" width="3.9417" height="1.9916" rx=".047399" ry=".023128"/>
    <text transform="scale(1.0397 .96177)" x="173.45682" y="390.23068" fill="#000000" font-family="sans-serif" font-size="1.7552px" style="line-height:0%">
     <tspan x="172.35254" y="390.23068" fill="#ffffff" font-family="sans-serif" font-weight="bold" text-align="center" text-anchor="middle">22</tspan>
    </text>
   </g>
   <g transform="translate(38.607 17.429)">
    <rect x="177.26" y="373.7" width="3.9417" height="1.9916" rx=".047399" ry=".023128"/>
    <text transform="scale(1.0397 .96177)" x="173.45682" y="390.23068" fill="#000000" font-family="sans-serif" font-size="1.7552px" style="line-height:0%">
     <tspan x="172.35254" y="390.23068" fill="#ffffff" font-family="sans-serif" font-weight="bold" text-align="center" text-anchor="middle">24</tspan>
    </text>
   </g>
  </g>
  <g transform="translate(8.377 7.6985)">
   <rect x="282.31" y="383.43" width="3.9417" height="1.9916" rx=".047399" ry=".023128"/>
   <text transform="scale(1.0397 .96177)" x="272.18457" y="400.33725" fill="#000000" font-family="sans-serif" font-size="1.7552px" style="line-height:0%">
    <tspan x="272.18457" y="400.33725" fill="#ffffff" font-family="sans-serif" font-weight="bold">26</tspan>
   </text>
  </g>
 </g>
</svg>
