<?xml version="1.0" encoding="UTF-8"?>
<svg width="442" height="44.5" version="1.1" viewBox="70.4 401.06667 442 44.5" xmlns="http://www.w3.org/2000/svg" xmlns:cc="http://creativecommons.org/ns#" xmlns:dc="http://purl.org/dc/elements/1.1/" xmlns:rdf="http://www.w3.org/1999/02/22-rdf-syntax-ns#">
 <metadata>
  <rdf:RDF>
   <cc:Work rdf:about="">
    <dc:format>image/svg+xml</dc:format>
    <dc:type rdf:resource="http://purl.org/dc/dcmitype/StillImage"/>
    <dc:title/>
   </cc:Work>
  </rdf:RDF>
 </metadata>
 <g transform="matrix(1.8786 0 0 1.8829 -53.589 -298.28)">
  <g transform="matrix(1.1399,0,0,1.0551,-9.6758,-25.71)">
   <rect x="66.589" y="376.59" width="206" height="22" fill="#4d4d4d"/>
   <rect x="66.589" y="376.59" width="206" height="22" fill="none" stroke="#000" stroke-width=".4"/>
  </g>
  <rect x="77.627" y="372.04" width="222.96" height="22.367" rx=".68393" ry=".63304" fill="#e7e7e7"/>
  <rect x="78.238" y="372.65" width="19.829" height="7.4199" rx=".32227" ry=".424" fill="#1e90ff"/>
  <g transform="scale(1.0394 .96208)" fill="#fff" aria-label="3800-24SFP">
   <path d="m76.757 389.17q0.18256 0.0471 0.27686 0.16443 0.09551 0.11606 0.09551 0.2962 0 0.26839-0.20553 0.40863-0.20553 0.13904-0.59966 0.13904-0.13903 0-0.27928-0.023-0.13903-0.0218-0.27565-0.0665v-0.35907q0.13057 0.0653 0.25872 0.0991 0.12936 0.0326 0.25389 0.0326 0.18497 0 0.2829-0.0641 0.09914-0.0641 0.09914-0.18377 0-0.12332-0.10156-0.18618-0.10035-0.0641-0.29741-0.0641h-0.18619v-0.29983h0.19586q0.1753 0 0.26114-0.0544 0.08584-0.0556 0.08584-0.16805 0-0.10397-0.08342-0.1608-0.08342-0.0568-0.23575-0.0568-0.11244 0-0.22729 0.0254t-0.2285 0.075v-0.34094q0.13782-0.0387 0.27323-0.058t0.26598-0.0193q0.35182 0 0.52591 0.11606 0.1753 0.11486 0.1753 0.34698 0 0.15838-0.08342 0.25993-0.08342 0.10035-0.24663 0.14145z" style=""/>
   <path d="m78.187 389.33q-0.13057 0-0.20069 0.0713t-0.07012 0.20432q0 0.13299 0.07012 0.20432 0.07012 0.0701 0.20069 0.0701 0.12936 0 0.19827-0.0701 0.06891-0.0713 0.06891-0.20432 0-0.13419-0.06891-0.20432-0.06891-0.0713-0.19827-0.0713zm-0.33972-0.15354q-0.16442-0.0496-0.24784-0.15233-0.08342-0.10276-0.08342-0.2563 0-0.2285 0.17047-0.34819t0.50052-0.11969q0.32764 0 0.4981 0.11969 0.17047 0.11848 0.17047 0.34819 0 0.15354-0.08463 0.2563-0.08342 0.10276-0.24784 0.15233 0.18376 0.0508 0.27686 0.16563 0.0943 0.11365 0.0943 0.28774 0 0.2684-0.17893 0.40622-0.17772 0.13662-0.52833 0.13662-0.35181 0-0.53195-0.13662-0.17893-0.13782-0.17893-0.40622 0-0.17409 0.09309-0.28774 0.0943-0.11485 0.27807-0.16563zm0.10881-0.36148q0 0.1076 0.05924 0.16563 0.06045 0.058 0.17168 0.058 0.10881 0 0.16805-0.058t0.05924-0.16563q0-0.1076-0.05924-0.16443-0.05924-0.058-0.16805-0.058-0.11123 0-0.17168 0.058-0.05924 0.058-0.05924 0.16443z" style=""/>
   <path d="m80.185 389.23q0-0.33852-0.06408-0.47634-0.06287-0.13904-0.21278-0.13904t-0.21399 0.13904q-0.06408 0.13782-0.06408 0.47634 0 0.34214 0.06408 0.48238t0.21399 0.14024q0.1487 0 0.21278-0.14024t0.06408-0.48238zm0.46546 4e-3q0 0.44854-0.19344 0.69275-0.19344 0.24301-0.54888 0.24301-0.35665 0-0.55009-0.24301-0.19344-0.24421-0.19344-0.69275 0-0.44974 0.19344-0.69275 0.19344-0.24421 0.55009-0.24421 0.35544 0 0.54888 0.24421 0.19344 0.24301 0.19344 0.69275z" style=""/>
   <path d="m81.907 389.23q0-0.33852-0.06408-0.47634-0.06287-0.13904-0.21278-0.13904t-0.21399 0.13904q-0.06408 0.13782-0.06408 0.47634 0 0.34214 0.06408 0.48238t0.21399 0.14024q0.1487 0 0.21278-0.14024t0.06408-0.48238zm0.46546 4e-3q0 0.44854-0.19344 0.69275-0.19344 0.24301-0.54888 0.24301-0.35665 0-0.55009-0.24301-0.19344-0.24421-0.19344-0.69275 0-0.44974 0.19344-0.69275 0.19344-0.24421 0.55009-0.24421 0.35544 0 0.54888 0.24421 0.19344 0.24301 0.19344 0.69275z" style=""/>
   <path d="m82.624 389.25h0.75924v0.35182h-0.75924z" style=""/>
   <path d="m84.233 389.8h0.7943v0.34215h-1.3117v-0.34215l0.6589-0.58152q0.08826-0.0798 0.13057-0.15596 0.04231-0.0762 0.04231-0.15837 0-0.12695-0.08584-0.20432-0.08463-0.0774-0.22608-0.0774-0.10881 0-0.23817 0.0471-0.12936 0.0459-0.27686 0.13783v-0.39655q0.15717-0.052 0.31071-0.0786 0.15354-0.0278 0.30104-0.0278 0.32401 0 0.50294 0.14266 0.18014 0.14266 0.18014 0.39776 0 0.14749-0.07617 0.27564-0.07617 0.12695-0.32038 0.34094z" style=""/>
   <path d="m86.153 388.72-0.51019 0.75562h0.51019zm-0.07737-0.38325h0.51744v1.1389h0.25751v0.3373h-0.25751v0.32885h-0.44007v-0.32885h-0.80035v-0.39896z" style=""/>
   <path d="m88.446 388.39v0.38204q-0.1487-0.0665-0.29016-0.10034-0.14145-0.0338-0.26718-0.0338-0.16684 0-0.24663 0.0459t-0.07979 0.14266q0 0.0725 0.0532 0.11364 0.0544 0.0399 0.19586 0.0689l0.19827 0.0399q0.30104 0.0605 0.42798 0.18377 0.12694 0.12331 0.12694 0.3506 0 0.29862-0.17772 0.44491-0.17651 0.14508-0.54042 0.14508-0.17168 0-0.34456-0.0326t-0.34577-0.0967v-0.39292q0.17288 0.0919 0.33368 0.13904 0.162 0.0459 0.31192 0.0459 0.15233 0 0.23333-0.0508t0.081-0.14508q0-0.0846-0.05561-0.13057-0.0544-0.0459-0.21883-0.0822l-0.18014-0.0399q-0.27081-0.058-0.39655-0.18498-0.12453-0.12694-0.12453-0.34214 0-0.2696 0.17409-0.41468t0.50052-0.14508q0.1487 0 0.30587 0.023 0.15717 0.0218 0.32522 0.0665z" style=""/>
   <path d="m88.975 388.33h1.2561v0.35182h-0.79068v0.33609h0.74352v0.35182h-0.74352v0.76529h-0.46546z" style=""/>
   <path d="m90.667 388.33h0.77254q0.34456 0 0.52833 0.15354 0.18498 0.15233 0.18498 0.43524 0 0.28411-0.18498 0.43765-0.18376 0.15233-0.52833 0.15233h-0.30708v0.62626h-0.46546zm0.46546 0.33731v0.50415h0.25751q0.13541 0 0.20915-0.0653 0.07375-0.0665 0.07375-0.18739 0-0.1209-0.07375-0.18619-0.07375-0.0653-0.20915-0.0653z" style=""/>
  </g>
  <g transform="matrix(1.5209,0,0,1.6602,-36.082,-265.21)">
   <polygon points="71.989 395.79 71.589 395.79 71.589 396.19 70.389 396.19 70.389 395.79 69.989 395.79 69.989 395.19 68.589 395.19 68.589 392.59 73.389 392.59 73.389 395.19 71.989 395.19"/>
   <polygon points="71.989 395.79 71.589 395.79 71.589 396.19 70.389 396.19 70.389 395.79 69.989 395.79 69.989 395.19 68.589 395.19 68.589 392.59 73.389 392.59 73.389 395.19 71.989 395.19" fill="none" stroke="#7f7f7f" stroke-width=".2"/>
  </g>
  <g transform="translate(.57958)">
   <rect x="177.26" y="373.7" width="3.9417" height="1.9916" rx=".047399" ry=".023128"/>
   <text transform="scale(1.0397 .96177)" x="173.45682" y="390.23068" fill="#000000" font-family="sans-serif" font-size="1.7552px" style="line-height:0%">
    <tspan x="172.35254" y="390.23068" fill="#ffffff" font-family="sans-serif" font-weight="bold" text-align="center" text-anchor="middle">1</tspan>
   </text>
  </g>
  <rect x="70.371" y="379.34" width="6.1054" height="1.1333" rx=".31642" ry=".1544" fill="#00ff1f"/>
  <rect x="70.371" y="381.39" width="6.1054" height="1.1333" rx=".31642" ry=".1544" fill="#838383"/>
  <ellipse cx="73.401" cy="384.34" rx=".76392" ry=".76344" fill="#838383"/>
  <ellipse cx="100.83" cy="374.3" rx=".76392" ry=".76344" fill="#333"/>
  <path d="m77.267 394.61-0.0041-22.787" fill="none" stroke="#333" stroke-linejoin="round" stroke-width=".53109"/>
  <g transform="translate(8.377,-9.7166)">
   <rect x="282.31" y="383.43" width="3.9417" height="1.9916" rx=".047399" ry=".023128"/>
   <text transform="scale(1.0397 .96177)" x="272.18457" y="400.33725" fill="#000000" font-family="sans-serif" font-size="1.7552px" style="line-height:0%">
    <tspan x="272.18457" y="400.33725" fill="#ffffff" font-family="sans-serif" font-weight="bold">25</tspan>
   </text>
  </g>
  <g transform="translate(.26892 -.38499)">
   <path d="m71.657 377.52c-0.02159 0-0.04309-4.1e-4 -0.06454-7.9e-4l0.44389-1.2199h0.61088c0.10722 0 0.22493-0.0824 0.2616-0.18314l0.48159-1.3228c0.07878-0.21657-0.04526-0.39375-0.27571-0.39375h-0.84749l-0.71109 1.954h-2.03e-4l-0.40312 1.1077c-0.9564-0.22738-1.6678-1.0871-1.6678-2.1131 0-0.99637 0.67093-1.836 1.5856-2.0919l-0.41595 1.1433h-1.14e-4l-0.6915 1.8997 0.46033 4e-5 0.58807-1.6142h0.34596l-0.58807 1.6142 0.46016 8e-5 0.54802-1.506c0.07884-0.21657-0.04522-0.39375-0.27546-0.39375h-0.38696l0.44432-1.2212c0.03239-2e-3 0.0649-2e-3 0.09762-2e-3 1.1996 0 2.172 0.97244 2.172 2.172 0 1.1996-0.97245 2.172-2.172 2.172zm1.3142-2.8363h-0.34587l-0.48435 1.329h0.34588z" fill="#1a1a1a"/>
   <path d="m71.574 377.44c-0.02159 0-0.04309-4.1e-4 -0.06454-7.9e-4l0.44389-1.2199h0.61088c0.10722 0 0.22493-0.0824 0.2616-0.18314l0.48159-1.3228c0.07878-0.21657-0.04526-0.39375-0.27571-0.39375h-0.84749l-0.71109 1.954h-2.03e-4l-0.40312 1.1077c-0.9564-0.22738-1.6678-1.0871-1.6678-2.1131 0-0.99637 0.67093-1.836 1.5856-2.0919l-0.41595 1.1433h-1.14e-4l-0.6915 1.8997 0.46033 4e-5 0.58807-1.6142h0.34596l-0.58807 1.6142 0.46016 8e-5 0.54802-1.506c0.07884-0.21657-0.04522-0.39375-0.27546-0.39375h-0.38696l0.44432-1.2212c0.03239-2e-3 0.0649-2e-3 0.09762-2e-3 1.1996 0 2.172 0.97244 2.172 2.172 0 1.1996-0.97245 2.172-2.172 2.172zm1.3142-2.8363h-0.34587l-0.48435 1.329h0.34588z" fill="#ccc"/>
  </g>
  <g transform="scale(1.0394 .96208)" fill="#fff" aria-label="Switch">
   <path d="m76.611 390.85v0.23758q-0.09248-0.0414-0.18045-0.0624-0.08797-0.0211-0.16616-0.0211-0.10376 0-0.15338 0.0286t-0.04962 0.0887q0 0.0451 0.03308 0.0707 0.03383 0.0248 0.1218 0.0429l0.1233 0.0248q0.18721 0.0376 0.26616 0.11428 0.07895 0.0767 0.07895 0.21804 0 0.18571-0.11052 0.27668-0.10977 0.0902-0.33608 0.0902-0.10676 0-0.21428-0.0203t-0.21503-0.0601v-0.24436q0.10752 0.0571 0.20751 0.0865 0.10075 0.0286 0.19398 0.0286 0.09473 0 0.14511-0.0316 0.05037-0.0316 0.05037-0.0902 0-0.0526-0.03458-0.0812-0.03383-0.0286-0.13609-0.0511l-0.11203-0.0248q-0.16842-0.0361-0.24661-0.11504-0.07744-0.0789-0.07744-0.21277 0-0.16766 0.10827-0.25789 0.10827-0.0902 0.31127-0.0902 0.09248 0 0.19022 0.0143 0.09774 0.0135 0.20225 0.0413z" style=""/>
   <path d="m76.853 391.09h0.26165l0.14135 0.58043 0.1421-0.58043h0.2248l0.14135 0.57442 0.1421-0.57442h0.26165l-0.2218 0.84208h-0.29398l-0.1421-0.57893-0.14135 0.57893h-0.29398z" style=""/>
   <path d="m78.35 391.09h0.26916v0.84208h-0.26916zm0-0.32781h0.26916v0.21954h-0.26916z" style=""/>
   <path d="m79.174 390.86v0.23909h0.27744v0.19248h-0.27744v0.35713q0 0.0586 0.02331 0.0797 0.02331 0.0203 0.09248 0.0203h0.13834v0.19247h-0.23082q-0.15939 0-0.22631-0.0662-0.06616-0.0669-0.06616-0.22631v-0.35713h-0.13383v-0.19248h0.13383v-0.23909z" style=""/>
   <path d="m80.297 391.12v0.21954q-0.05488-0.0376-0.11052-0.0556-0.05489-0.018-0.11428-0.018-0.11278 0-0.17594 0.0662-0.0624 0.0654-0.0624 0.18345 0 0.11804 0.0624 0.18421 0.06316 0.0654 0.17594 0.0654 0.06316 0 0.11954-0.0188 0.05714-0.0188 0.10526-0.0556v0.22029q-0.06316 0.0233-0.12857 0.0346-0.06466 0.012-0.13007 0.012-0.22781 0-0.35638-0.11653-0.12857-0.11729-0.12857-0.32556 0-0.20826 0.12857-0.3248 0.12857-0.11729 0.35638-0.11729 0.06616 0 0.13007 0.012 0.06466 0.0113 0.12857 0.0346z" style=""/>
   <path d="m81.377 391.42v0.51277h-0.27067v-0.391q0-0.11053-0.0053-0.15188-0.0045-0.0414-0.01654-0.0609-0.01579-0.0263-0.04286-0.0406-0.02707-0.015-0.06165-0.015-0.08421 0-0.13233 0.0654-0.04812 0.0647-0.04812 0.1797v0.41427h-0.26916v-1.1699h0.26916v0.45112q0.0609-0.0737 0.12932-0.10827 0.06842-0.0353 0.15112-0.0353 0.14586 0 0.22104 0.0895 0.07594 0.0895 0.07594 0.26014z" style=""/>
  </g>
  <g transform="translate(-1.726,-25.163)">
   <rect x="290.19" y="401.64" width="8.35" height="13.087" rx=".013369" ry=".0030699" fill="#ccc" fill-rule="evenodd" stroke="#000" stroke-width=".28891"/>
   <g transform="translate(.14819 .10861)">
    <g transform="matrix(.57571 0 0 .6712 217.97 133.51)">
     <rect x="125.95" y="399.76" width="13.005" height="6.133" fill="#bfbfbf" stroke="#000" stroke-linecap="round" stroke-linejoin="round" stroke-miterlimit="10" stroke-width=".098128"/>
     <g transform="translate(-151.47,32.922)">
      <g transform="matrix(1.1392,0,0,1.0628,-9.5661,-40.967)">
       <rect x="251.98" y="383.74" width="11.333" height="5.639"/>
       <rect x="251.98" y="383.74" width="11.319" height="5.6234" fill="none" stroke="#7f7f7f" stroke-width=".2"/>
      </g>
      <g transform="matrix(1.1392,0,0,1.0628,-9.5661,-40.967)">
       <polygon transform="matrix(2.2457,0,0,1.9606,-314.08,-368.76)" points="256.98 386.54 256.98 383.94 253.58 383.94 252.18 383.94 252.18 386.54" fill="none" stroke="#7f7f7f" stroke-width=".023002"/>
      </g>
     </g>
    </g>
    <rect x="292.69" y="405.33" width="3.0982" height=".18777" rx=".025173" ry=".0057804" fill="#999" fill-rule="evenodd"/>
    <g transform="matrix(-.57571 0 0 -.6712 370.5 682.61)">
     <rect x="125.95" y="399.76" width="13.005" height="6.133" fill="#bfbfbf" stroke="#000" stroke-linecap="round" stroke-linejoin="round" stroke-miterlimit="10" stroke-width=".098128"/>
     <g transform="translate(-151.47,32.922)">
      <g transform="matrix(1.1392,0,0,1.0628,-9.5661,-40.967)">
       <rect x="251.98" y="383.74" width="11.333" height="5.639"/>
       <rect x="251.98" y="383.74" width="11.319" height="5.6234" fill="none" stroke="#7f7f7f" stroke-width=".2"/>
      </g>
      <g transform="matrix(1.1392,0,0,1.0628,-9.5661,-40.967)">
       <polygon transform="matrix(2.2457,0,0,1.9606,-314.08,-368.76)" points="253.58 383.94 252.18 383.94 252.18 386.54 256.98 386.54 256.98 383.94" fill="none" stroke="#7f7f7f" stroke-width=".023002"/>
      </g>
     </g>
    </g>
    <rect transform="scale(-1)" x="-295.79" y="-410.79" width="3.0982" height=".18777" rx=".025173" ry=".0057804" fill="#999" fill-rule="evenodd"/>
   </g>
   <g transform="translate(0 -.24421)" fill="#008000" fill-rule="evenodd" stroke="#2d5016" stroke-width=".23766">
    <path d="m292.24 409.19c-6e-3 0.0158-1.1492 0.0158-1.155 0-6e-3 -0.0158 0.56594-1.5781 0.57749-1.5781 0.0115 0 0.58326 1.5623 0.57748 1.5781z"/>
    <path d="m292.15 407.63c6e-3 -0.0158 1.1492-0.0158 1.155 0 6e-3 0.0158-0.56594 1.5781-0.57749 1.5781-0.0115 0-0.58326-1.5623-0.57748-1.5781z"/>
    <path d="m297.54 409.19c-6e-3 0.0158-1.1492 0.0158-1.155 0-6e-3 -0.0158 0.56594-1.5781 0.57749-1.5781 0.0115 0 0.58326 1.5623 0.57748 1.5781z"/>
    <path d="m295.37 407.63c6e-3 -0.0158 1.1492-0.0158 1.155 0 6e-3 0.0158-0.56594 1.5781-0.57749 1.5781-0.0115 0-0.58326-1.5623-0.57748-1.5781z"/>
   </g>
  </g>
  <g transform="translate(1.8777 .7635)">
   <rect x="226.61" y="375.91" width="46.102" height="13.098" rx=".013315" ry=".0028552" fill="#ccc" fill-rule="evenodd" stroke="#000" stroke-width=".27806"/>
   <g transform="translate(-25.554,-25.586)">
    <g transform="matrix(.57571 0 0 .6712 217.97 133.51)">
     <rect x="125.95" y="399.76" width="13.005" height="6.133" fill="#bfbfbf" stroke="#000" stroke-linecap="round" stroke-linejoin="round" stroke-miterlimit="10" stroke-width=".098128"/>
     <g transform="translate(-151.47,32.922)">
      <g transform="matrix(1.1392,0,0,1.0628,-9.5661,-40.967)">
       <rect x="251.98" y="383.74" width="11.333" height="5.639"/>
       <rect x="251.98" y="383.74" width="11.319" height="5.6234" fill="none" stroke="#7f7f7f" stroke-width=".2"/>
      </g>
      <g transform="matrix(1.1392,0,0,1.0628,-9.5661,-40.967)">
       <polygon transform="matrix(2.2457,0,0,1.9606,-314.08,-368.76)" points="252.18 386.54 256.98 386.54 256.98 383.94 253.58 383.94 252.18 383.94" fill="none" stroke="#7f7f7f" stroke-width=".023002"/>
      </g>
     </g>
    </g>
    <rect x="292.69" y="405.33" width="3.0982" height=".18777" rx=".025173" ry=".0057804" fill="#999" fill-rule="evenodd"/>
    <g transform="matrix(-.57571 0 0 -.6712 370.5 682.61)">
     <rect x="125.95" y="399.76" width="13.005" height="6.133" fill="#bfbfbf" stroke="#000" stroke-linecap="round" stroke-linejoin="round" stroke-miterlimit="10" stroke-width=".098128"/>
     <g transform="translate(-151.47,32.922)">
      <g transform="matrix(1.1392,0,0,1.0628,-9.5661,-40.967)">
       <rect x="251.98" y="383.74" width="11.333" height="5.639"/>
       <rect x="251.98" y="383.74" width="11.319" height="5.6234" fill="none" stroke="#7f7f7f" stroke-width=".2"/>
      </g>
      <g transform="matrix(1.1392,0,0,1.0628,-9.5661,-40.967)">
       <polygon transform="matrix(2.2457,0,0,1.9606,-314.08,-368.76)" points="256.98 383.94 253.58 383.94 252.18 383.94 252.18 386.54 256.98 386.54" fill="none" stroke="#7f7f7f" stroke-width=".023002"/>
      </g>
     </g>
    </g>
    <rect transform="scale(-1)" x="-295.79" y="-410.79" width="3.0982" height=".18777" rx=".025173" ry=".0057804" fill="#999" fill-rule="evenodd"/>
   </g>
   <g transform="translate(-25.702,-25.938)" fill="#008000" fill-rule="evenodd" stroke="#2d5016" stroke-width=".23766">
    <path d="m292.24 409.19c-6e-3 0.0158-1.1492 0.0158-1.155 0-6e-3 -0.0158 0.56594-1.5781 0.57749-1.5781 0.0115 0 0.58326 1.5623 0.57748 1.5781z"/>
    <path d="m292.15 407.63c6e-3 -0.0158 1.1492-0.0158 1.155 0 6e-3 0.0158-0.56594 1.5781-0.57749 1.5781-0.0115 0-0.58326-1.5623-0.57748-1.5781z"/>
    <path d="m297.54 409.19c-6e-3 0.0158-1.1492 0.0158-1.155 0-6e-3 -0.0158 0.56594-1.5781 0.57749-1.5781 0.0115 0 0.58326 1.5623 0.57748 1.5781z"/>
    <path d="m295.37 407.63c6e-3 -0.0158 1.1492-0.0158 1.155 0 6e-3 0.0158-0.56594 1.5781-0.57749 1.5781-0.0115 0-0.58326-1.5623-0.57748-1.5781z"/>
   </g>
   <g transform="translate(-63.529,-25.586)">
    <g transform="matrix(.57571 0 0 .6712 217.97 133.51)">
     <rect x="125.95" y="399.76" width="13.005" height="6.133" fill="#bfbfbf" stroke="#000" stroke-linecap="round" stroke-linejoin="round" stroke-miterlimit="10" stroke-width=".098128"/>
     <g transform="translate(-151.47,32.922)">
      <g transform="matrix(1.1392,0,0,1.0628,-9.5661,-40.967)">
       <rect x="251.98" y="383.74" width="11.333" height="5.639"/>
       <rect x="251.98" y="383.74" width="11.319" height="5.6234" fill="none" stroke="#7f7f7f" stroke-width=".2"/>
      </g>
      <g transform="matrix(1.1392,0,0,1.0628,-9.5661,-40.967)">
       <polygon transform="matrix(2.2457,0,0,1.9606,-314.08,-368.76)" points="252.18 386.54 256.98 386.54 256.98 383.94 253.58 383.94 252.18 383.94" fill="none" stroke="#7f7f7f" stroke-width=".023002"/>
      </g>
     </g>
    </g>
    <rect x="292.69" y="405.33" width="3.0982" height=".18777" rx=".025173" ry=".0057804" fill="#999" fill-rule="evenodd"/>
    <g transform="matrix(-.57571 0 0 -.6712 370.5 682.61)">
     <rect x="125.95" y="399.76" width="13.005" height="6.133" fill="#bfbfbf" stroke="#000" stroke-linecap="round" stroke-linejoin="round" stroke-miterlimit="10" stroke-width=".098128"/>
     <g transform="translate(-151.47,32.922)">
      <g transform="matrix(1.1392,0,0,1.0628,-9.5661,-40.967)">
       <rect x="251.98" y="383.74" width="11.333" height="5.639"/>
       <rect x="251.98" y="383.74" width="11.319" height="5.6234" fill="none" stroke="#7f7f7f" stroke-width=".2"/>
      </g>
      <g transform="matrix(1.1392,0,0,1.0628,-9.5661,-40.967)">
       <polygon transform="matrix(2.2457,0,0,1.9606,-314.08,-368.76)" points="256.98 383.94 253.58 383.94 252.18 383.94 252.18 386.54 256.98 386.54" fill="none" stroke="#7f7f7f" stroke-width=".023002"/>
      </g>
     </g>
    </g>
    <rect transform="scale(-1)" x="-295.79" y="-410.79" width="3.0982" height=".18777" rx=".025173" ry=".0057804" fill="#999" fill-rule="evenodd"/>
   </g>
   <g transform="translate(-63.678,-25.938)" fill="#008000" fill-rule="evenodd" stroke="#2d5016" stroke-width=".23766">
    <path d="m292.24 409.19c-6e-3 0.0158-1.1492 0.0158-1.155 0-6e-3 -0.0158 0.56594-1.5781 0.57749-1.5781 0.0115 0 0.58326 1.5623 0.57748 1.5781z"/>
    <path d="m292.15 407.63c6e-3 -0.0158 1.1492-0.0158 1.155 0 6e-3 0.0158-0.56594 1.5781-0.57749 1.5781-0.0115 0-0.58326-1.5623-0.57748-1.5781z"/>
    <path d="m297.54 409.19c-6e-3 0.0158-1.1492 0.0158-1.155 0-6e-3 -0.0158 0.56594-1.5781 0.57749-1.5781 0.0115 0 0.58326 1.5623 0.57748 1.5781z"/>
    <path d="m295.37 407.63c6e-3 -0.0158 1.1492-0.0158 1.155 0 6e-3 0.0158-0.56594 1.5781-0.57749 1.5781-0.0115 0-0.58326-1.5623-0.57748-1.5781z"/>
   </g>
   <g transform="translate(-55.934,-25.586)">
    <g transform="matrix(.57571 0 0 .6712 217.97 133.51)">
     <rect x="125.95" y="399.76" width="13.005" height="6.133" fill="#bfbfbf" stroke="#000" stroke-linecap="round" stroke-linejoin="round" stroke-miterlimit="10" stroke-width=".098128"/>
     <g transform="translate(-151.47,32.922)">
      <g transform="matrix(1.1392,0,0,1.0628,-9.5661,-40.967)">
       <rect x="251.98" y="383.74" width="11.333" height="5.639"/>
       <rect x="251.98" y="383.74" width="11.319" height="5.6234" fill="none" stroke="#7f7f7f" stroke-width=".2"/>
      </g>
      <g transform="matrix(1.1392,0,0,1.0628,-9.5661,-40.967)">
       <polygon transform="matrix(2.2457,0,0,1.9606,-314.08,-368.76)" points="252.18 386.54 256.98 386.54 256.98 383.94 253.58 383.94 252.18 383.94" fill="none" stroke="#7f7f7f" stroke-width=".023002"/>
      </g>
     </g>
    </g>
    <rect x="292.69" y="405.33" width="3.0982" height=".18777" rx=".025173" ry=".0057804" fill="#999" fill-rule="evenodd"/>
    <g transform="matrix(-.57571 0 0 -.6712 370.5 682.61)">
     <rect x="125.95" y="399.76" width="13.005" height="6.133" fill="#bfbfbf" stroke="#000" stroke-linecap="round" stroke-linejoin="round" stroke-miterlimit="10" stroke-width=".098128"/>
     <g transform="translate(-151.47,32.922)">
      <g transform="matrix(1.1392,0,0,1.0628,-9.5661,-40.967)">
       <rect x="251.98" y="383.74" width="11.333" height="5.639"/>
       <rect x="251.98" y="383.74" width="11.319" height="5.6234" fill="none" stroke="#7f7f7f" stroke-width=".2"/>
      </g>
      <g transform="matrix(1.1392,0,0,1.0628,-9.5661,-40.967)">
       <polygon transform="matrix(2.2457,0,0,1.9606,-314.08,-368.76)" points="256.98 383.94 253.58 383.94 252.18 383.94 252.18 386.54 256.98 386.54" fill="none" stroke="#7f7f7f" stroke-width=".023002"/>
      </g>
     </g>
    </g>
    <rect transform="scale(-1)" x="-295.79" y="-410.79" width="3.0982" height=".18777" rx=".025173" ry=".0057804" fill="#999" fill-rule="evenodd"/>
   </g>
   <g transform="translate(-56.082,-25.938)" fill="#008000" fill-rule="evenodd" stroke="#2d5016" stroke-width=".23766">
    <path d="m292.24 409.19c-6e-3 0.0158-1.1492 0.0158-1.155 0-6e-3 -0.0158 0.56594-1.5781 0.57749-1.5781 0.0115 0 0.58326 1.5623 0.57748 1.5781z"/>
    <path d="m292.15 407.63c6e-3 -0.0158 1.1492-0.0158 1.155 0 6e-3 0.0158-0.56594 1.5781-0.57749 1.5781-0.0115 0-0.58326-1.5623-0.57748-1.5781z"/>
    <path d="m297.54 409.19c-6e-3 0.0158-1.1492 0.0158-1.155 0-6e-3 -0.0158 0.56594-1.5781 0.57749-1.5781 0.0115 0 0.58326 1.5623 0.57748 1.5781z"/>
    <path d="m295.37 407.63c6e-3 -0.0158 1.1492-0.0158 1.155 0 6e-3 0.0158-0.56594 1.5781-0.57749 1.5781-0.0115 0-0.58326-1.5623-0.57748-1.5781z"/>
   </g>
   <g transform="translate(-24.113 -.39832)">
    <g transform="translate(-24.226,-25.187)">
     <g transform="matrix(.57571 0 0 .6712 217.97 133.51)">
      <rect x="125.95" y="399.76" width="13.005" height="6.133" fill="#bfbfbf" stroke="#000" stroke-linecap="round" stroke-linejoin="round" stroke-miterlimit="10" stroke-width=".098128"/>
      <g transform="translate(-151.47,32.922)">
       <g transform="matrix(1.1392,0,0,1.0628,-9.5661,-40.967)">
        <rect x="251.98" y="383.74" width="11.333" height="5.639"/>
        <rect x="251.98" y="383.74" width="11.319" height="5.6234" fill="none" stroke="#7f7f7f" stroke-width=".2"/>
       </g>
       <g transform="matrix(1.1392,0,0,1.0628,-9.5661,-40.967)">
        <polygon transform="matrix(2.2457,0,0,1.9606,-314.08,-368.76)" points="253.58 383.94 252.18 383.94 252.18 386.54 256.98 386.54 256.98 383.94" fill="none" stroke="#7f7f7f" stroke-width=".023002"/>
       </g>
      </g>
     </g>
     <rect x="292.69" y="405.33" width="3.0982" height=".18777" rx=".025173" ry=".0057804" fill="#999" fill-rule="evenodd"/>
     <g transform="matrix(-.57571 0 0 -.6712 370.5 682.61)">
      <rect x="125.95" y="399.76" width="13.005" height="6.133" fill="#bfbfbf" stroke="#000" stroke-linecap="round" stroke-linejoin="round" stroke-miterlimit="10" stroke-width=".098128"/>
      <g transform="translate(-151.47,32.922)">
       <g transform="matrix(1.1392,0,0,1.0628,-9.5661,-40.967)">
        <rect x="251.98" y="383.74" width="11.333" height="5.639"/>
        <rect x="251.98" y="383.74" width="11.319" height="5.6234" fill="none" stroke="#7f7f7f" stroke-width=".2"/>
       </g>
       <g transform="matrix(1.1392,0,0,1.0628,-9.5661,-40.967)">
        <polygon transform="matrix(2.2457,0,0,1.9606,-314.08,-368.76)" points="252.18 386.54 256.98 386.54 256.98 383.94 253.58 383.94 252.18 383.94" fill="none" stroke="#7f7f7f" stroke-width=".023002"/>
       </g>
      </g>
     </g>
     <rect transform="scale(-1)" x="-295.79" y="-410.79" width="3.0982" height=".18777" rx=".025173" ry=".0057804" fill="#999" fill-rule="evenodd"/>
    </g>
    <g transform="translate(-24.375,-25.54)" fill="#008000" fill-rule="evenodd" stroke="#2d5016" stroke-width=".23766">
     <path d="m292.24 409.19c-6e-3 0.0158-1.1492 0.0158-1.155 0-6e-3 -0.0158 0.56594-1.5781 0.57749-1.5781 0.0115 0 0.58326 1.5623 0.57748 1.5781z"/>
     <path d="m292.15 407.63c6e-3 -0.0158 1.1492-0.0158 1.155 0 6e-3 0.0158-0.56594 1.5781-0.57749 1.5781-0.0115 0-0.58326-1.5623-0.57748-1.5781z"/>
     <path d="m297.54 409.19c-6e-3 0.0158-1.1492 0.0158-1.155 0-6e-3 -0.0158 0.56594-1.5781 0.57749-1.5781 0.0115 0 0.58326 1.5623 0.57748 1.5781z"/>
     <path d="m295.37 407.63c6e-3 -0.0158 1.1492-0.0158 1.155 0 6e-3 0.0158-0.56594 1.5781-0.57749 1.5781-0.0115 0-0.58326-1.5623-0.57748-1.5781z"/>
    </g>
   </g>
   <g transform="translate(-1.3277 -.39832)">
    <g transform="translate(-15.19)">
     <g transform="translate(-24.226,-25.187)">
      <g transform="matrix(.57571 0 0 .6712 217.97 133.51)">
       <rect x="125.95" y="399.76" width="13.005" height="6.133" fill="#bfbfbf" stroke="#000" stroke-linecap="round" stroke-linejoin="round" stroke-miterlimit="10" stroke-width=".098128"/>
       <g transform="translate(-151.47,32.922)">
        <g transform="matrix(1.1392,0,0,1.0628,-9.5661,-40.967)">
         <rect x="251.98" y="383.74" width="11.333" height="5.639"/>
         <rect x="251.98" y="383.74" width="11.319" height="5.6234" fill="none" stroke="#7f7f7f" stroke-width=".2"/>
        </g>
        <g transform="matrix(1.1392,0,0,1.0628,-9.5661,-40.967)">
         <polygon transform="matrix(2.2457,0,0,1.9606,-314.08,-368.76)" points="253.58 383.94 252.18 383.94 252.18 386.54 256.98 386.54 256.98 383.94" fill="none" stroke="#7f7f7f" stroke-width=".023002"/>
        </g>
       </g>
      </g>
      <rect x="292.69" y="405.33" width="3.0982" height=".18777" rx=".025173" ry=".0057804" fill="#999" fill-rule="evenodd"/>
      <g transform="matrix(-.57571 0 0 -.6712 370.5 682.61)">
       <rect x="125.95" y="399.76" width="13.005" height="6.133" fill="#bfbfbf" stroke="#000" stroke-linecap="round" stroke-linejoin="round" stroke-miterlimit="10" stroke-width=".098128"/>
       <g transform="translate(-151.47,32.922)">
        <g transform="matrix(1.1392,0,0,1.0628,-9.5661,-40.967)">
         <rect x="251.98" y="383.74" width="11.333" height="5.639"/>
         <rect x="251.98" y="383.74" width="11.319" height="5.6234" fill="none" stroke="#7f7f7f" stroke-width=".2"/>
        </g>
        <g transform="matrix(1.1392,0,0,1.0628,-9.5661,-40.967)">
         <polygon transform="matrix(2.2457,0,0,1.9606,-314.08,-368.76)" points="252.18 386.54 256.98 386.54 256.98 383.94 253.58 383.94 252.18 383.94" fill="none" stroke="#7f7f7f" stroke-width=".023002"/>
        </g>
       </g>
      </g>
      <rect transform="scale(-1)" x="-295.79" y="-410.79" width="3.0982" height=".18777" rx=".025173" ry=".0057804" fill="#999" fill-rule="evenodd"/>
     </g>
     <g transform="translate(-24.375,-25.54)" fill="#008000" fill-rule="evenodd" stroke="#2d5016" stroke-width=".23766">
      <path d="m292.24 409.19c-6e-3 0.0158-1.1492 0.0158-1.155 0-6e-3 -0.0158 0.56594-1.5781 0.57749-1.5781 0.0115 0 0.58326 1.5623 0.57748 1.5781z"/>
      <path d="m292.15 407.63c6e-3 -0.0158 1.1492-0.0158 1.155 0 6e-3 0.0158-0.56594 1.5781-0.57749 1.5781-0.0115 0-0.58326-1.5623-0.57748-1.5781z"/>
      <path d="m297.54 409.19c-6e-3 0.0158-1.1492 0.0158-1.155 0-6e-3 -0.0158 0.56594-1.5781 0.57749-1.5781 0.0115 0 0.58326 1.5623 0.57748 1.5781z"/>
      <path d="m295.37 407.63c6e-3 -0.0158 1.1492-0.0158 1.155 0 6e-3 0.0158-0.56594 1.5781-0.57749 1.5781-0.0115 0-0.58326-1.5623-0.57748-1.5781z"/>
     </g>
    </g>
   </g>
   <g transform="translate(-1.3277 -.39832)">
    <g transform="translate(-7.595)">
     <g transform="translate(-24.226,-25.187)">
      <g transform="matrix(.57571 0 0 .6712 217.97 133.51)">
       <rect x="125.95" y="399.76" width="13.005" height="6.133" fill="#bfbfbf" stroke="#000" stroke-linecap="round" stroke-linejoin="round" stroke-miterlimit="10" stroke-width=".098128"/>
       <g transform="translate(-151.47,32.922)">
        <g transform="matrix(1.1392,0,0,1.0628,-9.5661,-40.967)">
         <rect x="251.98" y="383.74" width="11.333" height="5.639"/>
         <rect x="251.98" y="383.74" width="11.319" height="5.6234" fill="none" stroke="#7f7f7f" stroke-width=".2"/>
        </g>
        <g transform="matrix(1.1392,0,0,1.0628,-9.5661,-40.967)">
         <polygon transform="matrix(2.2457,0,0,1.9606,-314.08,-368.76)" points="253.58 383.94 252.18 383.94 252.18 386.54 256.98 386.54 256.98 383.94" fill="none" stroke="#7f7f7f" stroke-width=".023002"/>
        </g>
       </g>
      </g>
      <rect x="292.69" y="405.33" width="3.0982" height=".18777" rx=".025173" ry=".0057804" fill="#999" fill-rule="evenodd"/>
      <g transform="matrix(-.57571 0 0 -.6712 370.5 682.61)">
       <rect x="125.95" y="399.76" width="13.005" height="6.133" fill="#bfbfbf" stroke="#000" stroke-linecap="round" stroke-linejoin="round" stroke-miterlimit="10" stroke-width=".098128"/>
       <g transform="translate(-151.47,32.922)">
        <g transform="matrix(1.1392,0,0,1.0628,-9.5661,-40.967)">
         <rect x="251.98" y="383.74" width="11.333" height="5.639"/>
         <rect x="251.98" y="383.74" width="11.319" height="5.6234" fill="none" stroke="#7f7f7f" stroke-width=".2"/>
        </g>
        <g transform="matrix(1.1392,0,0,1.0628,-9.5661,-40.967)">
         <polygon transform="matrix(2.2457,0,0,1.9606,-314.08,-368.76)" points="252.18 386.54 256.98 386.54 256.98 383.94 253.58 383.94 252.18 383.94" fill="none" stroke="#7f7f7f" stroke-width=".023002"/>
        </g>
       </g>
      </g>
      <rect transform="scale(-1)" x="-295.79" y="-410.79" width="3.0982" height=".18777" rx=".025173" ry=".0057804" fill="#999" fill-rule="evenodd"/>
     </g>
     <g transform="translate(-24.375,-25.54)" fill="#008000" fill-rule="evenodd" stroke="#2d5016" stroke-width=".23766">
      <path d="m292.24 409.19c-6e-3 0.0158-1.1492 0.0158-1.155 0-6e-3 -0.0158 0.56594-1.5781 0.57749-1.5781 0.0115 0 0.58326 1.5623 0.57748 1.5781z"/>
      <path d="m292.15 407.63c6e-3 -0.0158 1.1492-0.0158 1.155 0 6e-3 0.0158-0.56594 1.5781-0.57749 1.5781-0.0115 0-0.58326-1.5623-0.57748-1.5781z"/>
      <path d="m297.54 409.19c-6e-3 0.0158-1.1492 0.0158-1.155 0-6e-3 -0.0158 0.56594-1.5781 0.57749-1.5781 0.0115 0 0.58326 1.5623 0.57748 1.5781z"/>
      <path d="m295.37 407.63c6e-3 -0.0158 1.1492-0.0158 1.155 0 6e-3 0.0158-0.56594 1.5781-0.57749 1.5781-0.0115 0-0.58326-1.5623-0.57748-1.5781z"/>
     </g>
    </g>
   </g>
  </g>
  <g transform="translate(-50.91 .7635)">
   <rect x="226.61" y="375.91" width="46.102" height="13.098" rx=".013315" ry=".0028552" fill="#ccc" fill-rule="evenodd" stroke="#000" stroke-width=".27806"/>
   <g transform="translate(-25.554,-25.586)">
    <g transform="matrix(.57571 0 0 .6712 217.97 133.51)">
     <rect x="125.95" y="399.76" width="13.005" height="6.133" fill="#bfbfbf" stroke="#000" stroke-linecap="round" stroke-linejoin="round" stroke-miterlimit="10" stroke-width=".098128"/>
     <g transform="translate(-151.47,32.922)">
      <g transform="matrix(1.1392,0,0,1.0628,-9.5661,-40.967)">
       <rect x="251.98" y="383.74" width="11.333" height="5.639"/>
       <rect x="251.98" y="383.74" width="11.319" height="5.6234" fill="none" stroke="#7f7f7f" stroke-width=".2"/>
      </g>
      <g transform="matrix(1.1392,0,0,1.0628,-9.5661,-40.967)">
       <polygon transform="matrix(2.2457,0,0,1.9606,-314.08,-368.76)" points="256.98 386.54 256.98 383.94 253.58 383.94 252.18 383.94 252.18 386.54" fill="none" stroke="#7f7f7f" stroke-width=".023002"/>
      </g>
     </g>
    </g>
    <rect x="292.69" y="405.33" width="3.0982" height=".18777" rx=".025173" ry=".0057804" fill="#999" fill-rule="evenodd"/>
    <g transform="matrix(-.57571 0 0 -.6712 370.5 682.61)">
     <rect x="125.95" y="399.76" width="13.005" height="6.133" fill="#bfbfbf" stroke="#000" stroke-linecap="round" stroke-linejoin="round" stroke-miterlimit="10" stroke-width=".098128"/>
     <g transform="translate(-151.47,32.922)">
      <g transform="matrix(1.1392,0,0,1.0628,-9.5661,-40.967)">
       <rect x="251.98" y="383.74" width="11.333" height="5.639"/>
       <rect x="251.98" y="383.74" width="11.319" height="5.6234" fill="none" stroke="#7f7f7f" stroke-width=".2"/>
      </g>
      <g transform="matrix(1.1392,0,0,1.0628,-9.5661,-40.967)">
       <polygon transform="matrix(2.2457,0,0,1.9606,-314.08,-368.76)" points="253.58 383.94 252.18 383.94 252.18 386.54 256.98 386.54 256.98 383.94" fill="none" stroke="#7f7f7f" stroke-width=".023002"/>
      </g>
     </g>
    </g>
    <rect transform="scale(-1)" x="-295.79" y="-410.79" width="3.0982" height=".18777" rx=".025173" ry=".0057804" fill="#999" fill-rule="evenodd"/>
   </g>
   <g transform="translate(-25.702,-25.938)" fill="#008000" fill-rule="evenodd" stroke="#2d5016" stroke-width=".23766">
    <path d="m292.24 409.19c-6e-3 0.0158-1.1492 0.0158-1.155 0-6e-3 -0.0158 0.56594-1.5781 0.57749-1.5781 0.0115 0 0.58326 1.5623 0.57748 1.5781z"/>
    <path d="m292.15 407.63c6e-3 -0.0158 1.1492-0.0158 1.155 0 6e-3 0.0158-0.56594 1.5781-0.57749 1.5781-0.0115 0-0.58326-1.5623-0.57748-1.5781z"/>
    <path d="m297.54 409.19c-6e-3 0.0158-1.1492 0.0158-1.155 0-6e-3 -0.0158 0.56594-1.5781 0.57749-1.5781 0.0115 0 0.58326 1.5623 0.57748 1.5781z"/>
    <path d="m295.37 407.63c6e-3 -0.0158 1.1492-0.0158 1.155 0 6e-3 0.0158-0.56594 1.5781-0.57749 1.5781-0.0115 0-0.58326-1.5623-0.57748-1.5781z"/>
   </g>
   <g transform="translate(-63.529,-25.586)">
    <g transform="matrix(.57571 0 0 .6712 217.97 133.51)">
     <rect x="125.95" y="399.76" width="13.005" height="6.133" fill="#bfbfbf" stroke="#000" stroke-linecap="round" stroke-linejoin="round" stroke-miterlimit="10" stroke-width=".098128"/>
     <g transform="translate(-151.47,32.922)">
      <g transform="matrix(1.1392,0,0,1.0628,-9.5661,-40.967)">
       <rect x="251.98" y="383.74" width="11.333" height="5.639"/>
       <rect x="251.98" y="383.74" width="11.319" height="5.6234" fill="none" stroke="#7f7f7f" stroke-width=".2"/>
      </g>
      <g transform="matrix(1.1392,0,0,1.0628,-9.5661,-40.967)">
       <polygon transform="matrix(2.2457,0,0,1.9606,-314.08,-368.76)" points="256.98 386.54 256.98 383.94 253.58 383.94 252.18 383.94 252.18 386.54" fill="none" stroke="#7f7f7f" stroke-width=".023002"/>
      </g>
     </g>
    </g>
    <rect x="292.69" y="405.33" width="3.0982" height=".18777" rx=".025173" ry=".0057804" fill="#999" fill-rule="evenodd"/>
    <g transform="matrix(-.57571 0 0 -.6712 370.5 682.61)">
     <rect x="125.95" y="399.76" width="13.005" height="6.133" fill="#bfbfbf" stroke="#000" stroke-linecap="round" stroke-linejoin="round" stroke-miterlimit="10" stroke-width=".098128"/>
     <g transform="translate(-151.47,32.922)">
      <g transform="matrix(1.1392,0,0,1.0628,-9.5661,-40.967)">
       <rect x="251.98" y="383.74" width="11.333" height="5.639"/>
       <rect x="251.98" y="383.74" width="11.319" height="5.6234" fill="none" stroke="#7f7f7f" stroke-width=".2"/>
      </g>
      <g transform="matrix(1.1392,0,0,1.0628,-9.5661,-40.967)">
       <polygon transform="matrix(2.2457,0,0,1.9606,-314.08,-368.76)" points="253.58 383.94 252.18 383.94 252.18 386.54 256.98 386.54 256.98 383.94" fill="none" stroke="#7f7f7f" stroke-width=".023002"/>
      </g>
     </g>
    </g>
    <rect transform="scale(-1)" x="-295.79" y="-410.79" width="3.0982" height=".18777" rx=".025173" ry=".0057804" fill="#999" fill-rule="evenodd"/>
   </g>
   <g transform="translate(-63.678,-25.938)" fill="#008000" fill-rule="evenodd" stroke="#2d5016" stroke-width=".23766">
    <path d="m292.24 409.19c-6e-3 0.0158-1.1492 0.0158-1.155 0-6e-3 -0.0158 0.56594-1.5781 0.57749-1.5781 0.0115 0 0.58326 1.5623 0.57748 1.5781z"/>
    <path d="m292.15 407.63c6e-3 -0.0158 1.1492-0.0158 1.155 0 6e-3 0.0158-0.56594 1.5781-0.57749 1.5781-0.0115 0-0.58326-1.5623-0.57748-1.5781z"/>
    <path d="m297.54 409.19c-6e-3 0.0158-1.1492 0.0158-1.155 0-6e-3 -0.0158 0.56594-1.5781 0.57749-1.5781 0.0115 0 0.58326 1.5623 0.57748 1.5781z"/>
    <path d="m295.37 407.63c6e-3 -0.0158 1.1492-0.0158 1.155 0 6e-3 0.0158-0.56594 1.5781-0.57749 1.5781-0.0115 0-0.58326-1.5623-0.57748-1.5781z"/>
   </g>
   <g transform="translate(-55.934,-25.586)">
    <g transform="matrix(.57571 0 0 .6712 217.97 133.51)">
     <rect x="125.95" y="399.76" width="13.005" height="6.133" fill="#bfbfbf" stroke="#000" stroke-linecap="round" stroke-linejoin="round" stroke-miterlimit="10" stroke-width=".098128"/>
     <g transform="translate(-151.47,32.922)">
      <g transform="matrix(1.1392,0,0,1.0628,-9.5661,-40.967)">
       <rect x="251.98" y="383.74" width="11.333" height="5.639"/>
       <rect x="251.98" y="383.74" width="11.319" height="5.6234" fill="none" stroke="#7f7f7f" stroke-width=".2"/>
      </g>
      <g transform="matrix(1.1392,0,0,1.0628,-9.5661,-40.967)">
       <polygon transform="matrix(2.2457,0,0,1.9606,-314.08,-368.76)" points="256.98 386.54 256.98 383.94 253.58 383.94 252.18 383.94 252.18 386.54" fill="none" stroke="#7f7f7f" stroke-width=".023002"/>
      </g>
     </g>
    </g>
    <rect x="292.69" y="405.33" width="3.0982" height=".18777" rx=".025173" ry=".0057804" fill="#999" fill-rule="evenodd"/>
    <g transform="matrix(-.57571 0 0 -.6712 370.5 682.61)">
     <rect x="125.95" y="399.76" width="13.005" height="6.133" fill="#bfbfbf" stroke="#000" stroke-linecap="round" stroke-linejoin="round" stroke-miterlimit="10" stroke-width=".098128"/>
     <g transform="translate(-151.47,32.922)">
      <g transform="matrix(1.1392,0,0,1.0628,-9.5661,-40.967)">
       <rect x="251.98" y="383.74" width="11.333" height="5.639"/>
       <rect x="251.98" y="383.74" width="11.319" height="5.6234" fill="none" stroke="#7f7f7f" stroke-width=".2"/>
      </g>
      <g transform="matrix(1.1392,0,0,1.0628,-9.5661,-40.967)">
       <polygon transform="matrix(2.2457,0,0,1.9606,-314.08,-368.76)" points="253.58 383.94 252.18 383.94 252.18 386.54 256.98 386.54 256.98 383.94" fill="none" stroke="#7f7f7f" stroke-width=".023002"/>
      </g>
     </g>
    </g>
    <rect transform="scale(-1)" x="-295.79" y="-410.79" width="3.0982" height=".18777" rx=".025173" ry=".0057804" fill="#999" fill-rule="evenodd"/>
   </g>
   <g transform="translate(-56.082,-25.938)" fill="#008000" fill-rule="evenodd" stroke="#2d5016" stroke-width=".23766">
    <path d="m292.24 409.19c-6e-3 0.0158-1.1492 0.0158-1.155 0-6e-3 -0.0158 0.56594-1.5781 0.57749-1.5781 0.0115 0 0.58326 1.5623 0.57748 1.5781z"/>
    <path d="m292.15 407.63c6e-3 -0.0158 1.1492-0.0158 1.155 0 6e-3 0.0158-0.56594 1.5781-0.57749 1.5781-0.0115 0-0.58326-1.5623-0.57748-1.5781z"/>
    <path d="m297.54 409.19c-6e-3 0.0158-1.1492 0.0158-1.155 0-6e-3 -0.0158 0.56594-1.5781 0.57749-1.5781 0.0115 0 0.58326 1.5623 0.57748 1.5781z"/>
    <path d="m295.37 407.63c6e-3 -0.0158 1.1492-0.0158 1.155 0 6e-3 0.0158-0.56594 1.5781-0.57749 1.5781-0.0115 0-0.58326-1.5623-0.57748-1.5781z"/>
   </g>
   <g transform="translate(-24.113 -.39832)">
    <g transform="translate(-24.226,-25.187)">
     <g transform="matrix(.57571 0 0 .6712 217.97 133.51)">
      <rect x="125.95" y="399.76" width="13.005" height="6.133" fill="#bfbfbf" stroke="#000" stroke-linecap="round" stroke-linejoin="round" stroke-miterlimit="10" stroke-width=".098128"/>
      <g transform="translate(-151.47,32.922)">
       <g transform="matrix(1.1392,0,0,1.0628,-9.5661,-40.967)">
        <rect x="251.98" y="383.74" width="11.333" height="5.639"/>
        <rect x="251.98" y="383.74" width="11.319" height="5.6234" fill="none" stroke="#7f7f7f" stroke-width=".2"/>
       </g>
       <g transform="matrix(1.1392,0,0,1.0628,-9.5661,-40.967)">
        <polygon transform="matrix(2.2457,0,0,1.9606,-314.08,-368.76)" points="252.18 383.94 252.18 386.54 256.98 386.54 256.98 383.94 253.58 383.94" fill="none" stroke="#7f7f7f" stroke-width=".023002"/>
       </g>
      </g>
     </g>
     <rect x="292.69" y="405.33" width="3.0982" height=".18777" rx=".025173" ry=".0057804" fill="#999" fill-rule="evenodd"/>
     <g transform="matrix(-.57571 0 0 -.6712 370.5 682.61)">
      <rect x="125.95" y="399.76" width="13.005" height="6.133" fill="#bfbfbf" stroke="#000" stroke-linecap="round" stroke-linejoin="round" stroke-miterlimit="10" stroke-width=".098128"/>
      <g transform="translate(-151.47,32.922)">
       <g transform="matrix(1.1392,0,0,1.0628,-9.5661,-40.967)">
        <rect x="251.98" y="383.74" width="11.333" height="5.639"/>
        <rect x="251.98" y="383.74" width="11.319" height="5.6234" fill="none" stroke="#7f7f7f" stroke-width=".2"/>
       </g>
       <g transform="matrix(1.1392,0,0,1.0628,-9.5661,-40.967)">
        <polygon transform="matrix(2.2457,0,0,1.9606,-314.08,-368.76)" points="256.98 386.54 256.98 383.94 253.58 383.94 252.18 383.94 252.18 386.54" fill="none" stroke="#7f7f7f" stroke-width=".023002"/>
       </g>
      </g>
     </g>
     <rect transform="scale(-1)" x="-295.79" y="-410.79" width="3.0982" height=".18777" rx=".025173" ry=".0057804" fill="#999" fill-rule="evenodd"/>
    </g>
    <g transform="translate(-24.375,-25.54)" fill="#008000" fill-rule="evenodd" stroke="#2d5016" stroke-width=".23766">
     <path d="m292.24 409.19c-6e-3 0.0158-1.1492 0.0158-1.155 0-6e-3 -0.0158 0.56594-1.5781 0.57749-1.5781 0.0115 0 0.58326 1.5623 0.57748 1.5781z"/>
     <path d="m292.15 407.63c6e-3 -0.0158 1.1492-0.0158 1.155 0 6e-3 0.0158-0.56594 1.5781-0.57749 1.5781-0.0115 0-0.58326-1.5623-0.57748-1.5781z"/>
     <path d="m297.54 409.19c-6e-3 0.0158-1.1492 0.0158-1.155 0-6e-3 -0.0158 0.56594-1.5781 0.57749-1.5781 0.0115 0 0.58326 1.5623 0.57748 1.5781z"/>
     <path d="m295.37 407.63c6e-3 -0.0158 1.1492-0.0158 1.155 0 6e-3 0.0158-0.56594 1.5781-0.57749 1.5781-0.0115 0-0.58326-1.5623-0.57748-1.5781z"/>
    </g>
   </g>
   <g transform="translate(-1.3277 -.39832)">
    <g transform="translate(-15.19)">
     <g transform="translate(-24.226,-25.187)">
      <g transform="matrix(.57571 0 0 .6712 217.97 133.51)">
       <rect x="125.95" y="399.76" width="13.005" height="6.133" fill="#bfbfbf" stroke="#000" stroke-linecap="round" stroke-linejoin="round" stroke-miterlimit="10" stroke-width=".098128"/>
       <g transform="translate(-151.47,32.922)">
        <g transform="matrix(1.1392,0,0,1.0628,-9.5661,-40.967)">
         <rect x="251.98" y="383.74" width="11.333" height="5.639"/>
         <rect x="251.98" y="383.74" width="11.319" height="5.6234" fill="none" stroke="#7f7f7f" stroke-width=".2"/>
        </g>
        <g transform="matrix(1.1392,0,0,1.0628,-9.5661,-40.967)">
         <polygon transform="matrix(2.2457,0,0,1.9606,-314.08,-368.76)" points="252.18 383.94 252.18 386.54 256.98 386.54 256.98 383.94 253.58 383.94" fill="none" stroke="#7f7f7f" stroke-width=".023002"/>
        </g>
       </g>
      </g>
      <rect x="292.69" y="405.33" width="3.0982" height=".18777" rx=".025173" ry=".0057804" fill="#999" fill-rule="evenodd"/>
      <g transform="matrix(-.57571 0 0 -.6712 370.5 682.61)">
       <rect x="125.95" y="399.76" width="13.005" height="6.133" fill="#bfbfbf" stroke="#000" stroke-linecap="round" stroke-linejoin="round" stroke-miterlimit="10" stroke-width=".098128"/>
       <g transform="translate(-151.47,32.922)">
        <g transform="matrix(1.1392,0,0,1.0628,-9.5661,-40.967)">
         <rect x="251.98" y="383.74" width="11.333" height="5.639"/>
         <rect x="251.98" y="383.74" width="11.319" height="5.6234" fill="none" stroke="#7f7f7f" stroke-width=".2"/>
        </g>
        <g transform="matrix(1.1392,0,0,1.0628,-9.5661,-40.967)">
         <polygon transform="matrix(2.2457,0,0,1.9606,-314.08,-368.76)" points="256.98 386.54 256.98 383.94 253.58 383.94 252.18 383.94 252.18 386.54" fill="none" stroke="#7f7f7f" stroke-width=".023002"/>
        </g>
       </g>
      </g>
      <rect transform="scale(-1)" x="-295.79" y="-410.79" width="3.0982" height=".18777" rx=".025173" ry=".0057804" fill="#999" fill-rule="evenodd"/>
     </g>
     <g transform="translate(-24.375,-25.54)" fill="#008000" fill-rule="evenodd" stroke="#2d5016" stroke-width=".23766">
      <path d="m292.24 409.19c-6e-3 0.0158-1.1492 0.0158-1.155 0-6e-3 -0.0158 0.56594-1.5781 0.57749-1.5781 0.0115 0 0.58326 1.5623 0.57748 1.5781z"/>
      <path d="m292.15 407.63c6e-3 -0.0158 1.1492-0.0158 1.155 0 6e-3 0.0158-0.56594 1.5781-0.57749 1.5781-0.0115 0-0.58326-1.5623-0.57748-1.5781z"/>
      <path d="m297.54 409.19c-6e-3 0.0158-1.1492 0.0158-1.155 0-6e-3 -0.0158 0.56594-1.5781 0.57749-1.5781 0.0115 0 0.58326 1.5623 0.57748 1.5781z"/>
      <path d="m295.37 407.63c6e-3 -0.0158 1.1492-0.0158 1.155 0 6e-3 0.0158-0.56594 1.5781-0.57749 1.5781-0.0115 0-0.58326-1.5623-0.57748-1.5781z"/>
     </g>
    </g>
   </g>
   <g transform="translate(-1.3277 -.39832)">
    <g transform="translate(-7.595)">
     <g transform="translate(-24.226,-25.187)">
      <g transform="matrix(.57571 0 0 .6712 217.97 133.51)">
       <rect x="125.95" y="399.76" width="13.005" height="6.133" fill="#bfbfbf" stroke="#000" stroke-linecap="round" stroke-linejoin="round" stroke-miterlimit="10" stroke-width=".098128"/>
       <g transform="translate(-151.47,32.922)">
        <g transform="matrix(1.1392,0,0,1.0628,-9.5661,-40.967)">
         <rect x="251.98" y="383.74" width="11.333" height="5.639"/>
         <rect x="251.98" y="383.74" width="11.319" height="5.6234" fill="none" stroke="#7f7f7f" stroke-width=".2"/>
        </g>
        <g transform="matrix(1.1392,0,0,1.0628,-9.5661,-40.967)">
         <polygon transform="matrix(2.2457,0,0,1.9606,-314.08,-368.76)" points="252.18 383.94 252.18 386.54 256.98 386.54 256.98 383.94 253.58 383.94" fill="none" stroke="#7f7f7f" stroke-width=".023002"/>
        </g>
       </g>
      </g>
      <rect x="292.69" y="405.33" width="3.0982" height=".18777" rx=".025173" ry=".0057804" fill="#999" fill-rule="evenodd"/>
      <g transform="matrix(-.57571 0 0 -.6712 370.5 682.61)">
       <rect x="125.95" y="399.76" width="13.005" height="6.133" fill="#bfbfbf" stroke="#000" stroke-linecap="round" stroke-linejoin="round" stroke-miterlimit="10" stroke-width=".098128"/>
       <g transform="translate(-151.47,32.922)">
        <g transform="matrix(1.1392,0,0,1.0628,-9.5661,-40.967)">
         <rect x="251.98" y="383.74" width="11.333" height="5.639"/>
         <rect x="251.98" y="383.74" width="11.319" height="5.6234" fill="none" stroke="#7f7f7f" stroke-width=".2"/>
        </g>
        <g transform="matrix(1.1392,0,0,1.0628,-9.5661,-40.967)">
         <polygon transform="matrix(2.2457,0,0,1.9606,-314.08,-368.76)" points="256.98 386.54 256.98 383.94 253.58 383.94 252.18 383.94 252.18 386.54" fill="none" stroke="#7f7f7f" stroke-width=".023002"/>
        </g>
       </g>
      </g>
      <rect transform="scale(-1)" x="-295.79" y="-410.79" width="3.0982" height=".18777" rx=".025173" ry=".0057804" fill="#999" fill-rule="evenodd"/>
     </g>
     <g transform="translate(-24.375,-25.54)" fill="#008000" fill-rule="evenodd" stroke="#2d5016" stroke-width=".23766">
      <path d="m292.24 409.19c-6e-3 0.0158-1.1492 0.0158-1.155 0-6e-3 -0.0158 0.56594-1.5781 0.57749-1.5781 0.0115 0 0.58326 1.5623 0.57748 1.5781z"/>
      <path d="m292.15 407.63c6e-3 -0.0158 1.1492-0.0158 1.155 0 6e-3 0.0158-0.56594 1.5781-0.57749 1.5781-0.0115 0-0.58326-1.5623-0.57748-1.5781z"/>
      <path d="m297.54 409.19c-6e-3 0.0158-1.1492 0.0158-1.155 0-6e-3 -0.0158 0.56594-1.5781 0.57749-1.5781 0.0115 0 0.58326 1.5623 0.57748 1.5781z"/>
      <path d="m295.37 407.63c6e-3 -0.0158 1.1492-0.0158 1.155 0 6e-3 0.0158-0.56594 1.5781-0.57749 1.5781-0.0115 0-0.58326-1.5623-0.57748-1.5781z"/>
     </g>
    </g>
   </g>
  </g>
  <rect x="79.516" y="380.42" width="9.1537" height="11.172" rx=".013369" ry=".0030699" fill="#ebebeb" fill-rule="evenodd" stroke="#000" stroke-width=".28891"/>
  <g transform="matrix(1.0024,0,0,1.0019,-66.551,169.96)">
   <path d="m146.09 217.75h8.4v-7.0242h-8.4z" fill="#3a3a3a"/>
   <g transform="matrix(.0080517 0 0 .0080487 133.48 246.67)">
    <path d="m2609.9-3593.3v-872.71h-1043.3v872.71z" fill="none" stroke="#000" stroke-linecap="square" stroke-width=".67568"/>
   </g>
   <path d="m146.86 212.5h1.7532l-3e-3 -1.0712 0.63806-5.7e-4v-0.40106h2.0566l-4.9e-4 0.40211h0.66414v1.0712h1.7452v4.6119l-6.8535 0.015z" fill="#1a1a1a"/>
   <g fill="#ebebeb">
    <path d="m148.88 211.4v-0.67597l-2.7924 9.6e-4 2e-3 6.9848 0.77137-0.62711-4.8e-4 -4.8021 1.5788-7e-3v-0.87506z"/>
    <path d="m146.89 217.13-0.76557 0.62244 8.3332 1e-3 -0.78248-0.63628"/>
    <path d="m151.68 211.4v-0.67597l2.8056 9.6e-4 -2e-3 6.9848-0.77145-0.63081 5.6e-4 -4.7984-1.5906-7e-3v-0.87506z"/>
   </g>
  </g>
  <g transform="matrix(0 -.31464 .31449 0 4.2257 429.97)">
   <path d="m131.23 266.26v-24.611h-8.376v24.611z"/>
   <path d="m131.23 266.26v-24.611h-8.3762v24.611z" fill="none" stroke="#535353" stroke-linecap="round" stroke-linejoin="round" stroke-miterlimit="4.4615" stroke-width=".10782"/>
   <g stroke="#000" stroke-linejoin="round">
    <path d="m126.34 264.07v-20.304h-1.4326v20.304z" fill="none" stroke-linecap="round" stroke-miterlimit="4.4615" stroke-width=".10782"/>
    <path d="m124.91 264.07v-20.304l-0.71578-0.72485v21.754l0.71578-0.72485" fill="#a09a9a" stroke-width=".11578"/>
    <path d="m127.06 264.79v-21.754l-0.71603 0.72485v20.304l0.71603 0.72485" fill="#a09a9a" stroke-width=".11578"/>
    <path d="m127.06 264.79v-21.754l-0.71643 0.72523v20.304l0.71643 0.72472z" fill="none" stroke-linecap="round" stroke-miterlimit="4.4615" stroke-width=".10782"/>
    <path d="m127.06 264.79-0.71603-0.72485h-1.4333l-0.71578 0.72485h2.8651" fill="#a09a9a" stroke-linecap="round" stroke-width=".11578"/>
    <path d="m127.06 243.04-0.71603 0.72485h-1.4333l-0.71578-0.72485h2.8651" fill="#a09a9a" stroke-width=".11578"/>
   </g>
   <path d="m126.31 264.05v-20.293h-1.3976v20.293z" fill="#505050"/>
  </g>
  <g transform="translate(8.1746)">
   <rect x="177.26" y="373.7" width="3.9417" height="1.9916" rx=".047399" ry=".023128"/>
   <text transform="scale(1.0397 .96177)" x="173.45682" y="390.23068" fill="#000000" font-family="sans-serif" font-size="1.7552px" style="line-height:0%">
    <tspan x="172.35254" y="390.23068" fill="#ffffff" font-family="sans-serif" font-weight="bold" text-align="center" text-anchor="middle">3</tspan>
   </text>
  </g>
  <g transform="translate(15.77)">
   <rect x="177.26" y="373.7" width="3.9417" height="1.9916" rx=".047399" ry=".023128"/>
   <text transform="scale(1.0397 .96177)" x="173.45682" y="390.23068" fill="#000000" font-family="sans-serif" font-size="1.7552px" style="line-height:0%">
    <tspan x="172.35254" y="390.23068" fill="#ffffff" font-family="sans-serif" font-weight="bold" text-align="center" text-anchor="middle">5</tspan>
   </text>
  </g>
  <g transform="translate(23.365)">
   <rect x="177.26" y="373.7" width="3.9417" height="1.9916" rx=".047399" ry=".023128"/>
   <text transform="scale(1.0397 .96177)" x="173.45682" y="390.23068" fill="#000000" font-family="sans-serif" font-size="1.7552px" style="line-height:0%">
    <tspan x="172.35254" y="390.23068" fill="#ffffff" font-family="sans-serif" font-weight="bold" text-align="center" text-anchor="middle">7</tspan>
   </text>
  </g>
  <g transform="translate(30.96)">
   <rect x="177.26" y="373.7" width="3.9417" height="1.9916" rx=".047399" ry=".023128"/>
   <text transform="scale(1.0397 .96177)" x="173.45682" y="390.23068" fill="#000000" font-family="sans-serif" font-size="1.7552px" style="line-height:0%">
    <tspan x="172.35254" y="390.23068" fill="#ffffff" font-family="sans-serif" font-weight="bold" text-align="center" text-anchor="middle">9</tspan>
   </text>
  </g>
  <g transform="translate(38.555)">
   <rect x="177.26" y="373.7" width="3.9417" height="1.9916" rx=".047399" ry=".023128"/>
   <text transform="scale(1.0397 .96177)" x="173.45682" y="390.23068" fill="#000000" font-family="sans-serif" font-size="1.7552px" style="line-height:0%">
    <tspan x="172.35254" y="390.23068" fill="#ffffff" font-family="sans-serif" font-weight="bold" text-align="center" text-anchor="middle">11</tspan>
   </text>
  </g>
  <g transform="translate(-.052355)">
   <g transform="translate(.63193 17.429)">
    <rect x="177.26" y="373.7" width="3.9417" height="1.9916" rx=".047399" ry=".023128"/>
    <text transform="scale(1.0397 .96177)" x="173.45682" y="390.23068" fill="#000000" font-family="sans-serif" font-size="1.7552px" style="line-height:0%">
     <tspan x="172.35254" y="390.23068" fill="#ffffff" font-family="sans-serif" font-weight="bold" text-align="center" text-anchor="middle">2</tspan>
    </text>
   </g>
   <g transform="translate(8.227,17.429)">
    <rect x="177.26" y="373.7" width="3.9417" height="1.9916" rx=".047399" ry=".023128"/>
    <text transform="scale(1.0397 .96177)" x="173.45682" y="390.23068" fill="#000000" font-family="sans-serif" font-size="1.7552px" style="line-height:0%">
     <tspan x="172.35254" y="390.23068" fill="#ffffff" font-family="sans-serif" font-weight="bold" text-align="center" text-anchor="middle">4</tspan>
    </text>
   </g>
   <g transform="translate(15.822,17.429)">
    <rect x="177.26" y="373.7" width="3.9417" height="1.9916" rx=".047399" ry=".023128"/>
    <text transform="scale(1.0397 .96177)" x="173.45682" y="390.23068" fill="#000000" font-family="sans-serif" font-size="1.7552px" style="line-height:0%">
     <tspan x="172.35254" y="390.23068" fill="#ffffff" font-family="sans-serif" font-weight="bold" text-align="center" text-anchor="middle">6</tspan>
    </text>
   </g>
   <g transform="translate(23.417,17.429)">
    <rect x="177.26" y="373.7" width="3.9417" height="1.9916" rx=".047399" ry=".023128"/>
    <text transform="scale(1.0397 .96177)" x="173.45682" y="390.23068" fill="#000000" font-family="sans-serif" font-size="1.7552px" style="line-height:0%">
     <tspan x="172.35254" y="390.23068" fill="#ffffff" font-family="sans-serif" font-weight="bold" text-align="center" text-anchor="middle">8</tspan>
    </text>
   </g>
   <g transform="translate(31.012,17.429)">
    <rect x="177.26" y="373.7" width="3.9417" height="1.9916" rx=".047399" ry=".023128"/>
    <text transform="scale(1.0397 .96177)" x="173.45682" y="390.23068" fill="#000000" font-family="sans-serif" font-size="1.7552px" style="line-height:0%">
     <tspan x="172.35254" y="390.23068" fill="#ffffff" font-family="sans-serif" font-weight="bold" text-align="center" text-anchor="middle">10</tspan>
    </text>
   </g>
   <g transform="translate(38.607,17.429)">
    <rect x="177.26" y="373.7" width="3.9417" height="1.9916" rx=".047399" ry=".023128"/>
    <text transform="scale(1.0397 .96177)" x="173.45682" y="390.23068" fill="#000000" font-family="sans-serif" font-size="1.7552px" style="line-height:0%">
     <tspan x="172.35254" y="390.23068" fill="#ffffff" font-family="sans-serif" font-weight="bold" text-align="center" text-anchor="middle">12</tspan>
    </text>
   </g>
  </g>
  <g transform="translate(1.119)">
   <g transform="translate(52.207)">
    <rect x="177.26" y="373.7" width="3.9417" height="1.9916" rx=".047399" ry=".023128"/>
    <text transform="scale(1.0397 .96177)" x="173.45682" y="390.23068" fill="#000000" font-family="sans-serif" font-size="1.7552px" style="line-height:0%">
     <tspan x="172.35254" y="390.23068" fill="#ffffff" font-family="sans-serif" font-weight="bold" text-align="center" text-anchor="middle">13</tspan>
    </text>
   </g>
   <g transform="translate(59.802)">
    <rect x="177.26" y="373.7" width="3.9417" height="1.9916" rx=".047399" ry=".023128"/>
    <text transform="scale(1.0397 .96177)" x="173.45682" y="390.23068" fill="#000000" font-family="sans-serif" font-size="1.7552px" style="line-height:0%">
     <tspan x="172.35254" y="390.23068" fill="#ffffff" font-family="sans-serif" font-weight="bold" text-align="center" text-anchor="middle">15</tspan>
    </text>
   </g>
   <g transform="translate(67.397)">
    <rect x="177.26" y="373.7" width="3.9417" height="1.9916" rx=".047399" ry=".023128"/>
    <text transform="scale(1.0397 .96177)" x="173.45682" y="390.23068" fill="#000000" font-family="sans-serif" font-size="1.7552px" style="line-height:0%">
     <tspan x="172.35254" y="390.23068" fill="#ffffff" font-family="sans-serif" font-weight="bold" text-align="center" text-anchor="middle">17</tspan>
    </text>
   </g>
   <g transform="translate(74.992)">
    <rect x="177.26" y="373.7" width="3.9417" height="1.9916" rx=".047399" ry=".023128"/>
    <text transform="scale(1.0397 .96177)" x="173.45682" y="390.23068" fill="#000000" font-family="sans-serif" font-size="1.7552px" style="line-height:0%">
     <tspan x="172.35254" y="390.23068" fill="#ffffff" font-family="sans-serif" font-weight="bold" text-align="center" text-anchor="middle">19</tspan>
    </text>
   </g>
   <g transform="translate(82.587)">
    <rect x="177.26" y="373.7" width="3.9417" height="1.9916" rx=".047399" ry=".023128"/>
    <text transform="scale(1.0397 .96177)" x="173.45682" y="390.23068" fill="#000000" font-family="sans-serif" font-size="1.7552px" style="line-height:0%">
     <tspan x="172.35254" y="390.23068" fill="#ffffff" font-family="sans-serif" font-weight="bold" text-align="center" text-anchor="middle">21</tspan>
    </text>
   </g>
   <g transform="translate(90.182)">
    <rect x="177.26" y="373.7" width="3.9417" height="1.9916" rx=".047399" ry=".023128"/>
    <text transform="scale(1.0397 .96177)" x="173.45682" y="390.23068" fill="#000000" font-family="sans-serif" font-size="1.7552px" style="line-height:0%">
     <tspan x="172.35254" y="390.23068" fill="#ffffff" font-family="sans-serif" font-weight="bold" text-align="center" text-anchor="middle">23</tspan>
    </text>
   </g>
  </g>
  <g transform="translate(52.694)">
   <g transform="translate(.63193 17.429)">
    <rect x="177.26" y="373.7" width="3.9417" height="1.9916" rx=".047399" ry=".023128"/>
    <text transform="scale(1.0397 .96177)" x="173.45682" y="390.23068" fill="#000000" font-family="sans-serif" font-size="1.7552px" style="line-height:0%">
     <tspan x="172.35254" y="390.23068" fill="#ffffff" font-family="sans-serif" font-weight="bold" text-align="center" text-anchor="middle">14</tspan>
    </text>
   </g>
   <g transform="translate(8.227,17.429)">
    <rect x="177.26" y="373.7" width="3.9417" height="1.9916" rx=".047399" ry=".023128"/>
    <text transform="scale(1.0397 .96177)" x="173.45682" y="390.23068" fill="#000000" font-family="sans-serif" font-size="1.7552px" style="line-height:0%">
     <tspan x="172.35254" y="390.23068" fill="#ffffff" font-family="sans-serif" font-weight="bold" text-align="center" text-anchor="middle">16</tspan>
    </text>
   </g>
   <g transform="translate(15.822,17.429)">
    <rect x="177.26" y="373.7" width="3.9417" height="1.9916" rx=".047399" ry=".023128"/>
    <text transform="scale(1.0397 .96177)" x="173.45682" y="390.23068" fill="#000000" font-family="sans-serif" font-size="1.7552px" style="line-height:0%">
     <tspan x="172.35254" y="390.23068" fill="#ffffff" font-family="sans-serif" font-weight="bold" text-align="center" text-anchor="middle">18</tspan>
    </text>
   </g>
   <g transform="translate(23.417,17.429)">
    <rect x="177.26" y="373.7" width="3.9417" height="1.9916" rx=".047399" ry=".023128"/>
    <text transform="scale(1.0397 .96177)" x="173.45682" y="390.23068" fill="#000000" font-family="sans-serif" font-size="1.7552px" style="line-height:0%">
     <tspan x="172.35254" y="390.23068" fill="#ffffff" font-family="sans-serif" font-weight="bold" text-align="center" text-anchor="middle">20</tspan>
    </text>
   </g>
   <g transform="translate(31.012,17.429)">
    <rect x="177.26" y="373.7" width="3.9417" height="1.9916" rx=".047399" ry=".023128"/>
    <text transform="scale(1.0397 .96177)" x="173.45682" y="390.23068" fill="#000000" font-family="sans-serif" font-size="1.7552px" style="line-height:0%">
     <tspan x="172.35254" y="390.23068" fill="#ffffff" font-family="sans-serif" font-weight="bold" text-align="center" text-anchor="middle">22</tspan>
    </text>
   </g>
   <g transform="translate(38.607,17.429)">
    <rect x="177.26" y="373.7" width="3.9417" height="1.9916" rx=".047399" ry=".023128"/>
    <text transform="scale(1.0397 .96177)" x="173.45682" y="390.23068" fill="#000000" font-family="sans-serif" font-size="1.7552px" style="line-height:0%">
     <tspan x="172.35254" y="390.23068" fill="#ffffff" font-family="sans-serif" font-weight="bold" text-align="center" text-anchor="middle">24</tspan>
    </text>
   </g>
  </g>
  <g transform="translate(8.377,7.6985)">
   <rect x="282.31" y="383.43" width="3.9417" height="1.9916" rx=".047399" ry=".023128"/>
   <text transform="scale(1.0397 .96177)" x="272.18457" y="400.33725" fill="#000000" font-family="sans-serif" font-size="1.7552px" style="line-height:0%">
    <tspan x="272.18457" y="400.33725" fill="#ffffff" font-family="sans-serif" font-weight="bold">26</tspan>
   </text>
  </g>
 </g>
</svg>
