<svg width="207" height="37.496" version="1.1" viewBox="0 0 54.768751 9.9208167" xmlns="http://www.w3.org/2000/svg"><path d="m0.17053 0.87195c-0.094418 0-0.17053 0.09159-0.17053 0.20567v7.4993c0 0.11408 0.076112 0.20619 0.17053 0.20619h54.427c0.09442 0 0.17001-0.092105 0.17001-0.20619v-7.4993c0-0.11408-0.07559-0.20567-0.17001-0.20567zm1.1508 4.3547a0.93968 0.93968 0 0 1 0.93947 0.93947 0.93968 0.93968 0 0 1 -0.93947 0.93997 0.93968 0.93968 0 0 1 -0.93997 -0.93997 0.93968 0.93968 0 0 1 0.93997 -0.93947z" fill="#2f2524" stroke-width=".33356"/><g transform="matrix(.26458 0 0 .26458 -28.12 -88.405)" fill-rule="evenodd" stroke="#000" stroke-linecap="round" stroke-width=".084846"><circle cx="309.74" cy="349.12" r="2.8437" fill="#bebebe"/><circle cx="309.74" cy="349.12" r="1.1202" fill="#ececec"/></g><g transform="matrix(.26458 0 0 .26458 -81.007 -88.405)" fill-rule="evenodd" stroke="#000" stroke-linecap="round" stroke-width=".084846"><circle cx="309.74" cy="349.12" r="2.8437" fill="#bebebe"/><circle cx="309.74" cy="349.12" r="1.1202" fill="#ececec"/></g><rect x="3.5716" y="5.2371" width="1.4875" height="1.1736" rx=".044309" ry=".021652" stroke-width=".49683"/><text x="3.7614417" y="6.0795059" fill="#00ff00" font-family="sans-serif" font-size="4.1875px" letter-spacing="0px" stroke-width=".10469" word-spacing="0px" style="line-height:1.25" xml:space="preserve"><tspan x="3.7614417" y="6.0795059" dx="0" fill="#00ff00" font-family="sans-serif" font-size=".55834px" letter-spacing="-.037041px" stroke-width=".10469">Actv</tspan></text><rect x="5.3788" y="5.2338" width="1.4875" height="1.1736" rx=".044309" ry=".021652" stroke-width=".49683"/><text x="5.5400119" y="6.0744472" fill="#00ff00" font-family="sans-serif" font-size="4.1875px" letter-spacing="0px" stroke-width=".10469" word-spacing="0px" style="line-height:1.25" xml:space="preserve"><tspan x="5.5400119" y="6.0744472" fill="#00ff00" font-family="sans-serif" font-size=".55834px" letter-spacing="-.037041px" stroke-width=".10469">Stby</tspan></text><rect x="7.1357" y="5.2367" width="1.4875" height="1.1736" rx=".044309" ry=".021652" stroke-width=".49683"/><text x="7.2921009" y="6.0773625" fill="#00ff00" font-family="sans-serif" font-size="4.1875px" letter-spacing="0px" stroke-width=".10469" word-spacing="0px" style="line-height:1.25" xml:space="preserve"><tspan x="7.2921009" y="6.0773625" fill="#00ff00" font-family="sans-serif" font-size=".55834px" letter-spacing="-.037041px" stroke-width=".10469">Dwn</tspan></text><rect x="9.4159" y="5.236" width="1.4875" height="1.1736" rx=".044309" ry=".021652" stroke-width=".49683"/><text x="9.5250607" y="6.0770464" fill="#00ff00" font-family="sans-serif" font-size="4.1875px" letter-spacing="0px" stroke-width=".10469" word-spacing="0px" style="line-height:1.25" xml:space="preserve"><tspan x="9.5250607" y="6.0770464" fill="#00ff00" font-family="sans-serif" font-size=".55834px" letter-spacing="-.037041px" stroke-width=".10469">Chas</tspan></text><rect x="9.4159" y="3.886" width="1.4875" height="1.1736" rx=".044309" ry=".021652" stroke-width=".49683"/><text x="9.673645" y="4.7270465" fill="#b3b3b3" font-family="sans-serif" font-size="4.1875px" letter-spacing="0px" stroke-width=".10469" word-spacing="0px" style="line-height:1.25" xml:space="preserve"><tspan x="9.673645" y="4.7270465" fill="#b3b3b3" font-family="sans-serif" font-size=".55834px" letter-spacing="-.037041px" stroke-width=".10469">Test</tspan></text><rect x="11.044" y="3.876" width="1.4875" height="1.1736" rx=".044309" ry=".021652" stroke-width=".49683"/><text x="11.063867" y="4.7170463" fill="#b3b3b3" font-family="sans-serif" font-size="4.1875px" letter-spacing="0px" stroke-width=".10469" word-spacing="0px" style="line-height:1.25" xml:space="preserve"><tspan x="11.063867" y="4.7170463" fill="#b3b3b3" font-family="sans-serif" font-size=".55834px" letter-spacing="-.037041px" stroke-width=".10469">DIMM</tspan></text><rect x="11.044" y="2.536" width="1.4875" height="1.1736" rx=".044309" ry=".021652" stroke-width=".49683"/><text x="11.12587" y="3.3770466" fill="#b3b3b3" font-family="sans-serif" font-size="4.1875px" letter-spacing="0px" stroke-width=".10469" word-spacing="0px" style="line-height:1.25" xml:space="preserve"><tspan x="11.12587" y="3.3770466" fill="#b3b3b3" font-family="sans-serif" font-size=".55834px" letter-spacing="-.037041px" stroke-width=".10469">Flash</tspan></text><rect x="13.145" y="2.506" width="1.4875" height="1.1736" rx=".044309" ry=".021652" stroke-width=".49683"/><text x="13.410246" y="3.3470464" fill="#b3b3b3" font-family="sans-serif" font-size="4.1875px" letter-spacing="0px" stroke-width=".10469" word-spacing="0px" style="line-height:1.25" xml:space="preserve"><tspan x="13.410246" y="3.3470464" fill="#b3b3b3" font-family="sans-serif" font-size=".55834px" letter-spacing="-.037041px" stroke-width=".10469">PoE</tspan></text><rect x="13.145" y="3.936" width="1.4875" height="1.1736" rx=".044309" ry=".021652" stroke-width=".49683"/><text x="13.215844" y="4.7770467" fill="#b3b3b3" font-family="sans-serif" font-size="4.1875px" letter-spacing="0px" stroke-width=".10469" word-spacing="0px" style="line-height:1.25" xml:space="preserve"><tspan x="13.215844" y="4.7770467" fill="#b3b3b3" font-family="sans-serif" font-size=".55834px" letter-spacing="-.037041px" stroke-width=".10469">Temp</tspan></text><rect x="11.043" y="5.236" width="1.4875" height="1.1736" rx=".044309" ry=".021652" stroke-width=".49683"/><text x="11.022574" y="6.0770464" fill="#00ff00" font-family="sans-serif" font-size="4.1875px" letter-spacing="0px" stroke-width=".10469" word-spacing="0px" style="line-height:1.25" xml:space="preserve"><tspan x="11.022574" y="6.0770464" fill="#00ff00" font-family="sans-serif" font-size=".55834px" letter-spacing="-.037041px" stroke-width=".10469">Mgmt</tspan></text><rect x="13.144" y="5.236" width="1.4875" height="1.1736" rx=".044309" ry=".021652" stroke-width=".49683"/><text x="13.438605" y="6.0770464" fill="#00ff00" font-family="sans-serif" font-size="4.1875px" letter-spacing="0px" stroke-width=".10469" word-spacing="0px" style="line-height:1.25" xml:space="preserve"><tspan x="13.438605" y="6.0770464" fill="#00ff00" font-family="sans-serif" font-size=".55834px" letter-spacing="-.037041px" stroke-width=".10469">Fan</tspan></text><g stroke-width=".49683"><rect x="15.225" y="5.225" width="1.1895" height="1.1736" rx=".04431" ry=".021653"/><rect x="16.588" y="5.235" width="1.1895" height="1.1736" rx=".04431" ry=".021653"/><rect x="15.249" y="3.905" width="1.1895" height="1.1736" rx=".04431" ry=".021653"/><rect x="16.59" y="3.905" width="1.1895" height="1.1736" rx=".04431" ry=".021653"/></g><rect x="18.378" y="2.5019" width="1.4569" height="1.1736" rx=".044309" ry=".021652" stroke-width=".49683"/><g transform="matrix(.26458 0 0 .26458 -25.593 -89.945)" fill="#b3b3b3" aria-label="A"><path d="m169.34 352.12h-0.62031l-0.0979 0.28027h-0.39877l0.56982-1.5384h0.47296l0.56983 1.5384h-0.39878zm-0.52139-0.28543h0.42144l-0.2102-0.61207z" fill="#b3b3b3" stroke-width=".39568"/></g><rect x="19.995" y="2.505" width="1.4569" height="1.1736" rx=".04431" ry=".021653" stroke-width=".49683"/><path d="m20.747 3.045c0.0375-9e-5 0.0504-0.0161 0.0504-0.0431 0-0.0417-0.0236-0.0431-0.0504-0.0431h-0.0581v0.0861zm4e-3 0.17803c0.0411 0 0.0635-0.0188 0.0635-0.0537 0-0.0503-0.0377-0.0529-0.0635-0.0529h-0.0616v0.1066zm0.0976-0.1464c0.06 0.0161 0.0709 0.0695 0.0709 0.10115 0 0.12518-0.13697 0.11668-0.16085 0.11668h-0.17421v-0.40703h0.15758c0.16299 0 0.16086 0.0755 0.16086 0.1077 0 0.0573-0.0247 0.0644-0.0542 0.0815z" fill="#b3b3b3" stroke-width=".26458"/><rect x="18.376" y="3.8797" width="1.4569" height="1.1736" rx=".044309" ry=".021652" stroke-width=".49683"/><g transform="matrix(.26458 0 0 .26458 -25.735 -90.115)" fill="#b3b3b3" aria-label="C"><path d="m170.17 358.16q-0.10922 0.0567-0.22772 0.0855t-0.2473 0.0288q-0.38435 0-0.60898-0.21433-0.22463-0.21536-0.22463-0.58322 0-0.36889 0.22463-0.58321 0.22463-0.21536 0.60898-0.21536 0.1288 0 0.2473 0.0288 0.1185 0.0289 0.22772 0.0855v0.3184q-0.11025-0.0752-0.21741-0.11026-0.10717-0.035-0.22567-0.035-0.21226 0-0.33385 0.13601-0.12159 0.13602-0.12159 0.37507 0 0.23803 0.12159 0.37405 0.12159 0.13601 0.33385 0.13601 0.1185 0 0.22567-0.035 0.10716-0.035 0.21741-0.11026z" fill="#b3b3b3" stroke-width=".39568"/></g><rect x="19.995" y="3.8835" width="1.4569" height="1.1736" rx=".044309" ry=".021652" stroke-width=".49683"/><g transform="matrix(.26458 0 0 .26458 -25.261 -90.135)" fill="#b3b3b3" aria-label="D"><path d="m173.67 357.09v0.93871h0.1422q0.24318 0 0.37095-0.12055 0.1288-0.12056 0.1288-0.35035 0-0.22875-0.12777-0.34828t-0.37198-0.11953zm-0.39671-0.29985h0.41835q0.35034 0 0.52139 0.0505 0.17208 0.0495 0.2947 0.16899 0.1082 0.10407 0.16075 0.24009 0.0525 0.13601 0.0525 0.30809 0 0.17414-0.0525 0.31119-0.0525 0.13601-0.16075 0.24009-0.12365 0.11953-0.29676 0.17002-0.17311 0.0495-0.51933 0.0495h-0.41835z" fill="#b3b3b3" stroke-width=".39568"/></g><rect x="18.377" y="5.2309" width="1.4569" height="1.1736" rx=".044309" ry=".021652" stroke-width=".49683"/><g transform="matrix(.26458 0 0 .26458 -25.62 -89.875)" fill="#b3b3b3" aria-label="E"><path d="m168.51 360.91h1.0706v0.29986h-0.67389v0.28645h0.63371v0.29986h-0.63371v0.3524h0.69656v0.29985h-1.0933z" fill="#b3b3b3" stroke-width=".39568"/></g><rect x="19.994" y="5.2341" width="1.4569" height="1.1736" rx=".044309" ry=".021652" stroke-width=".49683"/><g transform="matrix(.26458 0 0 .26458 -25.307 -89.975)" fill="#b3b3b3" aria-label="F"><path d="m173.45 361.3h1.0706v0.29985h-0.67389v0.28645h0.63371v0.29986h-0.63371v0.65225h-0.39671z" fill="#b3b3b3" stroke-width=".39568"/></g><rect x="21.909" y="2.5057" width="1.4569" height="1.1736" rx=".044309" ry=".021652" stroke-width=".49683"/><g transform="matrix(.26458 0 0 .26458 -25.456 -89.965)" fill="#b3b3b3" aria-label="G"><path d="m182.63 352.37q-0.14839 0.0721-0.3081 0.1082-0.15972 0.0361-0.32973 0.0361-0.38435 0-0.60898-0.21433-0.22463-0.21535-0.22463-0.58321 0-0.37199 0.22875-0.58528 0.22875-0.2133 0.62649-0.2133 0.15354 0 0.29367 0.0288 0.14117 0.0289 0.26585 0.0855v0.3184q-0.1288-0.0732-0.25657-0.10923-0.12674-0.0361-0.25452-0.0361-0.23699 0-0.3658 0.13292-0.12777 0.1319-0.12777 0.37817 0 0.24421 0.12365 0.37713t0.35138 0.13292q0.0618 0 0.11437-7e-3 0.0536-8e-3 0.0958-0.0247v-0.29882h-0.24215v-0.26585h0.61826z" fill="#b3b3b3" stroke-width=".39568"/></g><rect x="23.56" y="2.5107" width="1.4569" height="1.1736" rx=".044309" ry=".021652" stroke-width=".49683"/><g transform="matrix(.26458 0 0 .26458 -25.387 -89.915)" fill="#b3b3b3" aria-label="H"><path d="m187.22 350.77h0.39671v0.58631h0.58528v-0.58631h0.39671v1.5384h-0.39671v-0.65226h-0.58528v0.65226h-0.39671z" fill="#b3b3b3" stroke-width=".39568"/></g><rect x="21.91" y="3.8826" width="1.4569" height="1.1736" rx=".044309" ry=".021652" stroke-width=".49683"/><g transform="matrix(.26458 0 0 .26458 -25.765 -89.665)" fill="#b3b3b3" aria-label="I"><path d="m182.42 355.02h0.39671v1.5384h-0.39671z" fill="#b3b3b3" stroke-width=".39568"/></g><rect x="23.56" y="3.8851" width="1.4569" height="1.1736" rx=".044309" ry=".021652" stroke-width=".49683"/><g transform="matrix(.26458 0 0 .26458 -25.467 -89.845)" fill="#b3b3b3" aria-label="J"><path d="m187.53 355.71h0.39671v1.389q0 0.28749-0.15663 0.42969-0.15559 0.14219-0.47193 0.14219h-0.0804v-0.29985h0.0618q0.12365 0 0.18651-0.069 0.0639-0.069 0.0639-0.20299z" fill="#b3b3b3" stroke-width=".39568"/></g><rect x="21.909" y="5.2302" width="1.4569" height="1.1736" rx=".044309" ry=".021652" stroke-width=".49683"/><g transform="matrix(.26458 0 0 .26458 -25.49 -89.635)" fill="#b3b3b3" aria-label="K"><path d="m181.38 360h0.39671v0.56158l0.57189-0.56158h0.46059l-0.74087 0.72851 0.81712 0.80991h-0.49666l-0.61207-0.60589v0.60589h-0.39671z" fill="#b3b3b3" stroke-width=".39568"/></g><rect x="23.559" y="5.2309" width="1.4569" height="1.1736" rx=".044309" ry=".021652" stroke-width=".49683"/><g transform="matrix(.26458 0 0 .26458 -25.571 -89.875)" fill="#b3b3b3" aria-label="L"><path d="m187.92 360.91h0.39671v1.2386h0.69657v0.29985h-1.0933z" fill="#b3b3b3" stroke-width=".39568"/></g><rect x="28.698" y="3.936" width="1.4875" height="1.1736" rx=".044309" ry=".021652" stroke-width=".49683"/><text x="28.963045" y="4.7217455" fill="#b3b3b3" font-family="sans-serif" font-size="4.1875px" letter-spacing="0px" stroke-width=".10469" word-spacing="0px" style="line-height:1.25" xml:space="preserve"><tspan x="28.963045" y="4.7217455" fill="#b3b3b3" font-family="sans-serif" font-size=".55834px" letter-spacing="-.037041px" stroke-width=".10469">PoE</tspan></text><rect x="27.1" y="2.516" width="1.4875" height="1.1736" rx=".044309" ry=".021652" stroke-width=".49683"/><text x="27.43556" y="3.3017454" fill="#b3b3b3" font-family="sans-serif" font-size="4.1875px" letter-spacing="0px" stroke-width=".10469" word-spacing="0px" style="line-height:1.25" xml:space="preserve"><tspan x="27.43556" y="3.3017454" fill="#b3b3b3" font-family="sans-serif" font-size=".55834px" letter-spacing="-.037041px" stroke-width=".10469">Act</tspan></text><rect x="27.1" y="3.936" width="1.4875" height="1.1736" rx=".044309" ry=".021652" stroke-width=".49683"/><text x="27.294611" y="4.7257018" fill="#b3b3b3" font-family="sans-serif" font-size="4.1875px" letter-spacing="0px" stroke-width=".10469" word-spacing="0px" style="line-height:1.25" xml:space="preserve"><tspan x="27.294611" y="4.7257018" fill="#b3b3b3" font-family="sans-serif" font-size=".55834px" letter-spacing="-.037041px" stroke-width=".10469">FDX</tspan></text><rect x="27.1" y="5.236" width="1.4875" height="1.1736" rx=".044309" ry=".021652" stroke-width=".49683"/><text x="27.355543" y="5.9762139" fill="#b3b3b3" font-family="sans-serif" font-size="4.1875px" letter-spacing="0px" stroke-width=".10469" word-spacing="0px" style="line-height:1.25" xml:space="preserve"><tspan x="27.355543" y="5.9762139" fill="#b3b3b3" font-family="sans-serif" font-size=".55834px" letter-spacing="-.037041px" stroke-width=".10469">Spd</tspan></text><rect x="28.698" y="5.236" width="1.4875" height="1.1736" rx=".044309" ry=".021652" stroke-width=".49683"/><text x="28.98922" y="6.0217452" fill="#b3b3b3" font-family="sans-serif" font-size="4.1875px" letter-spacing="0px" stroke-width=".10469" word-spacing="0px" style="line-height:1.25" xml:space="preserve"><tspan x="28.98922" y="6.0217452" fill="#b3b3b3" font-family="sans-serif" font-size=".55834px" letter-spacing="-.037041px" stroke-width=".10469">Usr</tspan></text><g stroke-width=".49683"><ellipse cx="11.717" cy="7.175" rx=".37925" ry=".3796"/><ellipse cx="14.582" cy="7.175" rx=".37925" ry=".3796"/><ellipse cx="19.212" cy="7.175" rx=".37925" ry=".3796"/><ellipse cx="25.93" cy="5.045" rx=".37925" ry=".3796" fill="#4d4d4d"/></g><rect x="46.29" y="5.295" width="1.2999" height="1.0343" fill="#f9f9f9" stroke="#000" stroke-width=".14631"/><g font-family="sans-serif" font-size="3.175px" letter-spacing="0px" stroke-width=".015568" word-spacing="0px"><text x="1.8938375" y="1.8921483" fill="#000000" style="line-height:1.25" xml:space="preserve"><tspan x="1.8938375" y="1.8921483" fill="#ffffff" font-size=".52917px" stroke-width=".015568" word-spacing="-.042333px">HP 5400R zl2</tspan></text><text x="1.8938375" y="2.5964811" fill="#ffffff" style="line-height:1.25" xml:space="preserve"><tspan x="1.8938375" y="2.5964811" fill="#ffffff" font-size=".44097px" letter-spacing="0px" stroke-width=".015568" word-spacing="-.26458px" style="line-height:1.25">ManagementModule</tspan></text><text x="1.9620273" y="3.2449474" fill="#ffffff" style="line-height:1.25" xml:space="preserve"><tspan x="1.9620273" y="3.2449474" fill="#ffffff" font-size=".52917px" stroke-width=".015568" word-spacing="-.042333px">J9827A</tspan></text></g><g stroke-width=".26458"><rect x="3.0899e-9" y="8.155" width="14.296" height=".63495" fill="#b3b3b3"/><rect x="40.472" y="8.155" width="14.296" height=".63495" fill="#b3b3b3"/><rect x="3.6134" y="8.795" width="47.54" height=".32427" fill="#666"/><rect x="4.0679" y="-.0049915" width="46.633" height=".80318" fill="#e3dedb"/><rect x="4.0679" y="9.115" width="46.633" height=".80318" fill="#e3dedb"/><text x="52.100948" y="6.6775317" fill="#ffffff" font-family="sans-serif" font-size="10.583px" letter-spacing="0px" word-spacing="0px" style="line-height:1.25" xml:space="preserve"><tspan x="52.100948" y="6.6775317" fill="#ffffff" font-size="1.4111px" stroke-width=".26458">zl</tspan></text></g><text x="51.615562" y="7.5114737" fill="#ffffff" font-family="sans-serif" font-size=".55207px" letter-spacing="0px" stroke-width=".10351" word-spacing="0px" style="line-height:1.25" xml:space="preserve"><tspan x="51.615562" y="7.5114737" fill="#ffffff" stroke-width=".10351">Module</tspan></text><g fill="#b3b3b3"><path d="m17.197 4.3735-0.12214 0.17212h0.12214zm-0.01855-0.087302h0.12388v0.25943h0.06165v0.076836h-0.06165v0.07491h-0.10535v-0.07491h-0.19161v-0.090882z" stroke-width=".17487"/><path d="m15.668 5.9419h0.09954v-0.26134l-0.10217 0.019495v-0.070951l0.10159-0.019498h0.10715v0.3323h0.09954v0.072037h-0.30564z" stroke-width=".17449"/><path d="m17.149 5.9516h0.19248v0.0772h-0.31787v-0.0772l0.15967-0.13121c0.11774-0.11852-0.03654-0.17956-0.15847-0.092724v-0.089474c0.15318-0.046661 0.31377-0.028267 0.31377 0.097936-0.0034 0.068425-0.04786 0.098355-0.0961 0.13912z" stroke-width=".17519"/><path d="m15.921 4.4763c0.06981 0.018665 0.09314 0.062472 0.09314 0.10637 0 0.14613-0.21484 0.13937-0.34021 0.10584v-0.082926c0.10976 0.050011 0.2238 0.040266 0.2238-0.026808 0.0029-0.061817-0.0998-0.057791-0.0998-0.057791h-0.04657v-0.069241h0.04899c0.02643 0 0.08681-8.872e-4 0.08681-0.051389 0-0.072419-0.1386-0.051048-0.19382-0.027101v-0.078736c0.14846-0.039706 0.31027-0.022057 0.31027 0.089091 0 0.064206-0.0457 0.082798-0.08261 0.092692z" stroke-width=".18057"/></g><g transform="matrix(.26458 0 0 .26458 10.773 -103.08)" fill="#fff"><path d="m120.42 415.88h0.17688v1.4958h-0.17688z"/><path d="m116.23 416.41c-0.21106 0-0.30763 0.2114-0.30763 0.41524 0 0.20385 0.0922 0.41529 0.30763 0.41529s0.30668-0.1802 0.30668-0.41527c0-0.23501-0.0956-0.41526-0.30668-0.41526zm0-0.15007c0.33319 0 0.49414 0.24354 0.49414 0.56537s-0.17204 0.56518-0.49414 0.56518c-0.32209 0-0.49412-0.24679-0.49412-0.56518s0.16094-0.56537 0.49412-0.56537z"/><path d="m117.89 417.36h-0.17688v-0.6441c0-0.46729-0.54701-0.35373-0.54701 0.0356v0.60853h-0.17785v-1.0767h0.17785v0.16721c0.20351-0.30106 0.73169-0.26143 0.72387 0.25968z"/><path d="m118.91 416.49c-0.32694-0.12428-0.58642-0.0842-0.58642 0.0845 0 0.25772 0.64409 0.0606 0.64409 0.49568 0 0.36194-0.43121 0.35609-0.8229 0.25817v-0.18264c0.26697 0.15647 0.64122 0.13105 0.64122-0.0614 0-0.27363-0.63353-0.052-0.63353-0.50249 0-0.35082 0.42859-0.35983 0.75754-0.25886z"/><path d="m121.86 416.79v0.0866h-0.81329c0.0684 0.54594 0.56045 0.37237 0.77195 0.27389v0.16721c-0.63538 0.22102-0.95656-0.0469-0.95656-0.4729 0-0.31837 0.19519-0.57488 0.52777-0.57488 0.40181 0 0.47013 0.37281 0.47013 0.52008zm-0.17688-0.052c0-0.26348-0.1695-0.31831-0.29129-0.31831s-0.33936 0.0557-0.33936 0.31914z"/><path d="m119.65 416.42c-0.21107 0-0.30764 0.2114-0.30764 0.41525 0 0.20386 0.0923 0.41529 0.30764 0.41529 0.21542 0 0.30668-0.1802 0.30668-0.41527 0-0.235-0.0956-0.41527-0.30668-0.41527zm0-0.15007c0.33319 0 0.49414 0.24355 0.49414 0.56538 0 0.32184-0.17205 0.56519-0.49414 0.56519-0.3221 0-0.49412-0.2468-0.49412-0.56519s0.16093-0.56538 0.49412-0.56538z"/><path d="m115.54 416.05v0.20475c-0.54974-0.43119-0.95269-0.0557-0.95269 0.40384 0 0.64549 0.55524 0.72594 0.95269 0.40289v0.20285c-0.59708 0.34473-1.1575 0.0151-1.1575-0.60569 0-0.79995 0.71506-0.86365 1.1575-0.60864z"/></g><path d="m39.299 5.8504c0.1857-0.00624 0.20886 0.070699 0.20548 0.13687v0.29782c-0.0078 0.07471-0.29176 0.22437-0.51888 0.21374h-1.1521c-0.073361 0.013176-0.46908-0.15153-0.4785-0.22125v-0.29784c-0.0088-0.084021 0.12396-0.13121 0.19926-0.12935z" fill="#1d1d1d" stroke="#ececec" stroke-width=".1098"/><path d="m37.9 6.0357c-0.0463-0.00106-0.11999 0.016484-0.11454 0.063468v0.15634c0 0.077729 0.15484 0.1214 0.29282 0.1214h0.66186c0.13944 0.00598 0.32253-0.071165 0.32702-0.11296v-0.1607c0.0021-0.037028-5.29e-4 -0.071287-0.11454-0.067837z" fill="#404040" stroke-width=".19888"/><g fill="#070707" stroke-width=".37446"><path d="m37.924 6.242h0.094133v-0.11694h-0.09413z"/><path d="m38.148 6.242h0.09412v-0.11694h-0.09412z"/><path d="m38.384 6.242h0.09393v-0.11694h-0.09393z"/><path d="m38.625 6.242h0.09393v-0.11694h-0.09393z"/><path d="m38.855 6.242h0.09412v-0.11694h-0.09412z"/></g><g transform="translate(.016623 -.11177)"><rect x="48.168" y="2.8125" width="1.4322" height="3.6261" stroke="#e3e3df" stroke-width=".089019"/><path d="m48.845 6.113v-2.9153h-0.3174v2.9153z" fill="#a09a9a" stroke-width=".4377"/></g><g transform="translate(1.0063 2.1815)"><rect x="38.92" y=".70607" width="4.1984" height="3.5092" fill="#ebebeb" fill-rule="evenodd" stroke="#000" stroke-linecap="round" stroke-width=".056885"/><path d="m42.73 3.3281h-0.87564l0.0016 0.53475-0.31869 2.645e-4v0.20022h-1.0272l2.44e-4 -0.20074h-0.33171v-0.53475h-0.87164v-2.3023l3.4229-0.00749z" fill="#1a1a1a" stroke-width=".49932"/></g><g transform="translate(.54752 -1.626)" stroke-width=".26458"><path d="m31.425 8.0485h4.1878v-3.4727h-4.1878z" fill="#3a3a3a"/><path d="m31.732 4.9423v0.37415h0.87074v-0.37415zm2.7017 0.00212v0.37206h0.86299v-0.37206z" fill="#abb927"/><path d="m31.811 5.453h0.87405l-0.0016-0.52959 0.31811-2.487e-4v-0.19828h1.0253l-2.38e-4 0.1988h0.3311v0.52959h0.87006v2.28l-3.4168 0.00741z" fill="#1a1a1a"/><path d="m35.611 8.0512 0.0011-3.4729-1.3987-5.292e-4v0.33401l1.1244-5.291e-4v0.43238l-0.11097 0.00347-2.65e-4 2.3899-3.4171 0.00632-2.4e-4 -2.3962-0.11097-0.00347v-0.43238l1.1177 5.292e-4v-0.33401l-1.3922 5.291e-4 0.0011 3.4724z" fill="#ebebeb"/></g></svg>
