<?xml version="1.0" encoding="UTF-8"?>
<!-- Created with Inkscape (http://www.inkscape.org/) -->
<svg width="207" height="37.496" version="1.1" viewBox="0 0 54.768751 9.9208167" xmlns="http://www.w3.org/2000/svg" xmlns:cc="http://creativecommons.org/ns#" xmlns:dc="http://purl.org/dc/elements/1.1/" xmlns:rdf="http://www.w3.org/1999/02/22-rdf-syntax-ns#">
 <metadata>
  <rdf:RDF>
   <cc:Work rdf:about="">
    <dc:format>image/svg+xml</dc:format>
    <dc:type rdf:resource="http://purl.org/dc/dcmitype/StillImage"/>
    <dc:title/>
   </cc:Work>
  </rdf:RDF>
 </metadata>
 <g transform="translate(0 -287.08)">
  <g transform="matrix(1 0 0 1 .18899 10.535)">
   <path transform="matrix(.26458 0 0 .26458 -.18899 276.54)" d="m0.64453 3.3145c-0.35686 0-0.64453 0.34617-0.64453 0.77734v28.344c7.4015e-17 0.43118 0.28767 0.7793 0.64453 0.7793h205.71c0.35686 0 0.64258-0.34812 0.64258-0.7793v-28.344c0-0.43118-0.28572-0.77734-0.64258-0.77734h-205.71zm4.3496 16.459a3.5516 3.5516 0 0 1 3.5508 3.5508 3.5516 3.5516 0 0 1 -3.5508 3.5527 3.5516 3.5516 0 0 1 -3.5527 -3.5527 3.5516 3.5516 0 0 1 3.5527 -3.5508z" fill="#2f2524" stroke-width="1.2607"/>
   <g transform="matrix(.49789 0 0 .28011 -17.81 225.12)">
    <path d="m110.68 204.3h3.7977c0.31236-0.0253 0.47172 0.26313 0.46384 0.53195v1.167c-0.0177 0.40759-0.69625 1.0145-1.2147 0.97148h-2.4609c-0.16724 0.0534-1.0983-0.60543-1.0629-1.0023v-1.1665c-0.0205-0.34162 0.30491-0.50905 0.47686-0.50159" fill="#e6e6e6"/>
    <path d="m110.82 204.48h3.492c0.37167-0.0222 0.41803 0.25189 0.41125 0.48766v1.0611c-0.0156 0.26619-0.58392 0.79942-1.0385 0.76155h-2.3058c-0.14683 0.0469-0.93886-0.53989-0.95768-0.7883v-1.0612c-0.0176-0.29936 0.24811-0.46751 0.3988-0.46085" fill="#1d1d1d"/>
    <path transform="matrix(.53109 0 0 .53109 35 368.35)" d="m144.09-307.32c-4e-3 -1.6e-4 -9e-3 2e-3 -0.0137 2e-3h-0.0117c-0.17447-7e-3 -0.45217 0.11055-0.43164 0.42579v1.0488c6e-3 0.0693 0.0738 0.16195 0.17187 0.25782 0.2624 0.2717 0.80298 0.59446 0.93164 0.55664h2.4942c0.52548 0.0402 1.2155-0.47741 1.2324-0.75782v-1.0781c8e-3 -0.24841-2e-3 -0.47824-0.43164-0.45508h-3.9414z" fill="#404040"/>
    <g fill="#070707">
     <path d="m111.56 205.87h0.1884v-0.41664h-0.1884z"/>
     <path d="m112.01 205.87h0.18839v-0.41664h-0.18839z"/>
     <path d="m112.48 205.87h0.18799v-0.41664h-0.18799z"/>
     <path d="m112.96 205.87h0.18799v-0.41664h-0.18799z"/>
     <path d="m113.42 205.87h0.18837v-0.41664h-0.18837z"/>
    </g>
   </g>
   <path d="m42.622 283.51h0.0466v0.395h-0.0466z" fill="#fff" stroke-width=".49683px"/>
   <path d="m41.334 283.55v0.0541c-0.0543-0.031-0.0455-0.048-0.11737-0.048-0.0718 0-0.13383 0.0412-0.13383 0.15462 0 0.11339 0.0591 0.15437 0.13383 0.15437 0.0747 0 0.0945-0.0346 0.11737-0.048v0.0536c-0.0166 9e-3 -0.0438 0.0365-0.12041 0.0365-0.0766 0-0.18478-0.0381-0.18478-0.19648 0-0.15833 0.11246-0.19674 0.18478-0.19674 0.0723 0 0.0762 0.0167 0.1204 0.0361z" fill="#fff" stroke-width=".49683px"/>
   <g transform="matrix(-.28223 0 0 -.28223 117.53 357.6)" fill-rule="evenodd" stroke-linecap="round">
    <rect x="259.21" y="264.53" width="16.426" height="10.505" fill="#e6e6e6" stroke="#000" stroke-width=".14344"/>
    <path d="m273.35 273.45v-6.8288h-2.611v-1.8863h-6.628v1.8863h-2.611v6.8288z" stroke="#737373" stroke-width=".4"/>
   </g>
   <g transform="matrix(0 .22352 -.22352 0 141.11 257.8)">
    <rect x="96.122" y="410.31" width="16.352" height="6.364" rx=".025173" ry=".0057804" fill="#ebebeb" fill-rule="evenodd" stroke="#000" stroke-width=".144"/>
    <g transform="matrix(0 -.59244 .59215 0 -46.084 488.83)">
     <path d="m131.23 266.26v-24.611h-8.376v24.611z"/>
     <path d="m131.23 266.26v-24.611h-8.3762v24.611z" fill="none" stroke="#535353" stroke-linecap="round" stroke-linejoin="round" stroke-miterlimit="4.4615" stroke-width=".10782"/>
     <g stroke="#000" stroke-linejoin="round">
      <path d="m126.34 264.07v-20.304h-1.4326v20.304z" fill="none" stroke-linecap="round" stroke-miterlimit="4.4615" stroke-width=".10782"/>
      <path d="m124.91 264.07v-20.304l-0.71578-0.72485v21.754l0.71578-0.72485" fill="#a09a9a" stroke-width=".11578"/>
      <path d="m127.06 264.79v-21.754l-0.71603 0.72485v20.304l0.71603 0.72485" fill="#a09a9a" stroke-width=".11578"/>
      <path d="m127.06 264.79v-21.754l-0.71643 0.72523v20.304z" fill="none" stroke-linecap="round" stroke-miterlimit="4.4615" stroke-width=".10782"/>
     </g>
     <path d="m127.06 264.79-0.71603-0.72485h-1.4333l-0.71578 0.72485h2.8651" fill="#a09a9a" stroke="#000" stroke-linecap="round" stroke-linejoin="round" stroke-width=".11578"/>
     <path d="m127.06 243.04-0.71603 0.72485h-1.4333l-0.71578-0.72485h2.8651" fill="#a09a9a" stroke="#000" stroke-linejoin="round" stroke-width=".11578"/>
     <path d="m126.31 264.05v-20.293h-1.3976v20.293z" fill="#505050"/>
    </g>
   </g>
   <g fill-rule="evenodd">
    <g transform="matrix(.26458 0 0 .26458 -28.309 188.14)" stroke="#000" stroke-linecap="round" stroke-width=".084846">
     <circle cx="309.74" cy="349.12" r="2.8437" fill="#bebebe"/>
     <circle cx="309.74" cy="349.12" r="1.1202" fill="#ececec"/>
    </g>
    <g transform="matrix(.28223 0 0 .28223 10.371 201.23)">
     <rect x="75.869" y="278.1" width="14.4" height="11.5" fill="#e6e6e6"/>
     <g transform="translate(0,-1.1875)">
      <path d="m88.994 289.08v-6.8288h-2.611v-1.8863h-1.1603v-0.84919h-4.3075v0.84919h-1.1603v1.8863h-2.611v6.8288z" fill="#1a1a1a"/>
      <path d="m76.351 280.39h3.2686c0.0054 0 0.0099 4e-3 0.0099 0.01v1.734c0 6e-3 -0.0044 0.01-0.0099 0.01h-3.2686c-0.0054 0-0.0099-4e-3 -0.0099-0.01v-1.734c0-6e-3 0.0044-0.01 0.0099-0.01z" fill="#aad400" stroke="#222b00" stroke-linecap="round" stroke-width=".049315"/>
      <path d="m86.518 280.39h3.2686c0.0054 0 0.0099 4e-3 0.0099 0.01v1.734c0 6e-3 -0.0044 0.01-0.0099 0.01h-3.2686c-0.0054 0-0.0099-4e-3 -0.0099-0.01v-1.734c0-6e-3 0.0044-0.01 0.0099-0.01z" fill="#aad400" stroke="#222b00" stroke-linecap="round" stroke-width=".049315"/>
     </g>
    </g>
    <g transform="matrix(.26458 0 0 .26458 -81.196 188.14)" stroke="#000" stroke-linecap="round" stroke-width=".084846">
     <circle cx="309.74" cy="349.12" r="2.8437" fill="#bebebe"/>
     <circle cx="309.74" cy="349.12" r="1.1202" fill="#ececec"/>
    </g>
   </g>
   <g transform="matrix(.26458 0 0 .26458 -25.782 186.61)">
    <rect x="110.23" y="359.71" width="5.622" height="4.4356" rx=".16747" ry=".081837" stroke-width="1.8778"/>
    <text x="110.94736" y="362.89404" fill="#00ff00" font-family="sans-serif" font-size="15.827px" letter-spacing="0px" stroke-width=".39568" word-spacing="0px" style="line-height:1.25" xml:space="preserve"><tspan x="110.94736" y="362.89404" dx="0" fill="#00ff00" font-family="sans-serif" font-size="2.1103px" letter-spacing="-.14px" stroke-width=".39568">Actv</tspan></text>
   </g>
   <g transform="matrix(.26458 0 0 .26458 -25.766 186.62)">
    <rect x="117" y="359.66" width="5.622" height="4.4356" rx=".16747" ry=".081837" stroke-width="1.8778"/>
    <text x="117.60912" y="362.83713" fill="#00ff00" font-family="sans-serif" font-size="15.827px" letter-spacing="0px" stroke-width=".39568" word-spacing="0px" style="line-height:1.25" xml:space="preserve"><tspan x="117.60912" y="362.83713" fill="#00ff00" font-family="sans-serif" font-size="2.1103px" letter-spacing="-.14px" stroke-width=".39568">Stby</tspan></text>
   </g>
   <g transform="matrix(.26458 0 0 .26458 -25.512 187.66)">
    <rect x="122.68" y="355.74" width="5.622" height="4.4356" rx=".16747" ry=".081837" stroke-width="1.8778"/>
    <text x="123.27126" y="358.91739" fill="#00ff00" font-family="sans-serif" font-size="15.827px" letter-spacing="0px" stroke-width=".39568" word-spacing="0px" style="line-height:1.25" xml:space="preserve"><tspan x="123.27126" y="358.91739" fill="#00ff00" font-family="sans-serif" font-size="2.1103px" letter-spacing="-.14px" stroke-width=".39568">Dwn</tspan></text>
   </g>
   <g transform="matrix(.26458 0 0 .26458 -25.74 186.72)">
    <rect x="132.16" y="359.29" width="5.622" height="4.4356" rx=".16747" ry=".081837" stroke-width="1.8778"/>
    <text x="132.57265" y="362.46899" fill="#00ff00" font-family="sans-serif" font-size="15.827px" letter-spacing="0px" stroke-width=".39568" word-spacing="0px" style="line-height:1.25" xml:space="preserve"><tspan x="132.57265" y="362.46899" fill="#00ff00" font-family="sans-serif" font-size="2.1103px" letter-spacing="-.14px" stroke-width=".39568">Chas</tspan></text>
   </g>
   <g transform="matrix(.26458 0 0 .26458 -25.74 185.37)">
    <rect x="132.16" y="359.29" width="5.622" height="4.4356" rx=".16747" ry=".081837" stroke-width="1.8778"/>
    <text x="133.13423" y="362.46899" fill="#b3b3b3" font-family="sans-serif" font-size="15.827px" letter-spacing="0px" stroke-width=".39568" word-spacing="0px" style="line-height:1.25" xml:space="preserve"><tspan x="133.13423" y="362.46899" fill="#b3b3b3" font-family="sans-serif" font-size="2.1103px" letter-spacing="-.14px" stroke-width=".39568">Test</tspan></text>
   </g>
   <g transform="matrix(.26458 0 0 .26458 -24.194 185.36)">
    <rect x="132.47" y="359.29" width="5.622" height="4.4356" rx=".16747" ry=".081837" stroke-width="1.8778"/>
    <text x="132.54546" y="362.46899" fill="#b3b3b3" font-family="sans-serif" font-size="15.827px" letter-spacing="0px" stroke-width=".39568" word-spacing="0px" style="line-height:1.25" xml:space="preserve"><tspan x="132.54546" y="362.46899" fill="#b3b3b3" font-family="sans-serif" font-size="2.1103px" letter-spacing="-.14px" stroke-width=".39568">DIMM</tspan></text>
   </g>
   <g transform="matrix(.26458 0 0 .26458 -24.194 184.02)">
    <rect x="132.47" y="359.29" width="5.622" height="4.4356" rx=".16747" ry=".081837" stroke-width="1.8778"/>
    <text x="132.7798" y="362.46899" fill="#b3b3b3" font-family="sans-serif" font-size="15.827px" letter-spacing="0px" stroke-width=".39568" word-spacing="0px" style="line-height:1.25" xml:space="preserve"><tspan x="132.7798" y="362.46899" fill="#b3b3b3" font-family="sans-serif" font-size="2.1103px" letter-spacing="-.14px" stroke-width=".39568">Flash</tspan></text>
   </g>
   <g transform="matrix(.26458 0 0 .26458 -22.093 183.99)">
    <rect x="132.47" y="359.29" width="5.622" height="4.4356" rx=".16747" ry=".081837" stroke-width="1.8778"/>
    <text x="133.47289" y="362.46899" fill="#b3b3b3" font-family="sans-serif" font-size="15.827px" letter-spacing="0px" stroke-width=".39568" word-spacing="0px" style="line-height:1.25" xml:space="preserve"><tspan x="133.47289" y="362.46899" fill="#b3b3b3" font-family="sans-serif" font-size="2.1103px" letter-spacing="-.14px" stroke-width=".39568">PoE</tspan></text>
   </g>
   <g transform="matrix(.26458 0 0 .26458 -22.093 185.42)">
    <rect x="132.47" y="359.29" width="5.622" height="4.4356" rx=".16747" ry=".081837" stroke-width="1.8778"/>
    <text x="132.73813" y="362.46899" fill="#b3b3b3" font-family="sans-serif" font-size="15.827px" letter-spacing="0px" stroke-width=".39568" word-spacing="0px" style="line-height:1.25" xml:space="preserve"><tspan x="132.73813" y="362.46899" fill="#b3b3b3" font-family="sans-serif" font-size="2.1103px" letter-spacing="-.14px" stroke-width=".39568">Temp</tspan></text>
   </g>
   <g transform="matrix(.26458 0 0 .26458 -24.161 186.72)">
    <rect x="132.34" y="359.29" width="5.622" height="4.4356" rx=".16747" ry=".081837" stroke-width="1.8778"/>
    <text x="132.26466" y="362.46899" fill="#00ff00" font-family="sans-serif" font-size="15.827px" letter-spacing="0px" stroke-width=".39568" word-spacing="0px" style="line-height:1.25" xml:space="preserve"><tspan x="132.26466" y="362.46899" fill="#00ff00" font-family="sans-serif" font-size="2.1103px" letter-spacing="-.14px" stroke-width=".39568">Mgmt</tspan></text>
   </g>
   <g transform="matrix(.26458 0 0 .26458 -22.012 186.72)">
    <rect x="132.16" y="359.29" width="5.622" height="4.4356" rx=".16747" ry=".081837" stroke-width="1.8778"/>
    <text x="133.27393" y="362.46899" fill="#00ff00" font-family="sans-serif" font-size="15.827px" letter-spacing="0px" stroke-width=".39568" word-spacing="0px" style="line-height:1.25" xml:space="preserve"><tspan x="133.27393" y="362.46899" fill="#00ff00" font-family="sans-serif" font-size="2.1103px" letter-spacing="-.14px" stroke-width=".39568">Fan</tspan></text>
   </g>
   <rect x="15.036" y="281.77" width="1.1895" height="1.1736" rx=".04431" ry=".021653" stroke-width=".49683"/>
   <g transform="matrix(.26458 0 0 .26458 -23.308 175.89)" fill="#b3b3b3" aria-label="1">
    <path d="m146.73 402.92h0.35034v-0.99435l-0.35961 0.0742v-0.26997l0.35755-0.0742h0.37714v1.2643h0.35034v0.27409h-1.0758z" fill="#b3b3b3" stroke-width=".39568"/>
   </g>
   <rect x="16.399" y="281.78" width="1.1895" height="1.1736" rx=".04431" ry=".021653" stroke-width=".49683"/>
   <path d="m16.986 282.49h0.17912v0.0772h-0.2958v-0.0772l0.14858-0.13114c0.0426-0.0426 0.0347-0.0548 0.039-0.0709 0-0.0608-0.0571-0.0635-0.0703-0.0635-0.0429-3e-3 -0.0807 0.0213-0.11614 0.0417v-0.0894c0.045-0.0201 0.11158-0.024 0.13795-0.024 0.14832 0 0.15404 0.0953 0.15404 0.12186 0 0.0804-0.0894 0.13905-0.0894 0.13905z" fill="#b3b3b3" stroke-width=".26458"/>
   <rect x="15.06" y="280.45" width="1.1895" height="1.1736" rx=".04431" ry=".021653" stroke-width=".49683"/>
   <path d="m15.737 281.02c0.12837 0.0344 0.11511 0.22738-0.0976 0.22738-0.0473 4e-3 -0.0856-0.0138-0.12514-0.0202v-0.081c0.0353 0.0251 0.0917 0.0256 0.11559 0.0297 0.06 0 0.0861-0.023 0.0861-0.0559 0-0.0524-0.0684-0.0564-0.0899-0.0564h-0.042v-0.0676h0.0442c0.0611 0 0.0766-0.0188 0.0783-0.0502 0-0.0819-0.14896-0.0442-0.17475-0.0264v-0.0769c0.16914-0.0453 0.27971 2.1e-4 0.27971 0.087 0 0.0629-0.0405 0.0782-0.0744 0.0906z" fill="#b3b3b3" stroke-width=".26458"/>
   <rect x="16.401" y="280.45" width="1.1895" height="1.1736" rx=".04431" ry=".021653" stroke-width=".49683"/>
   <g transform="matrix(.26458 0 0 .26458 -23.308 175.89)" fill="#b3b3b3" aria-label="4">
    <path d="m152.44 396.98-0.43484 0.64402h0.43484zm-0.066-0.32664h0.44102v0.97066h0.21948v0.28748h-0.21948v0.28028h-0.37507v-0.28028h-0.68214v-0.34004z" fill="#b3b3b3" stroke-width=".39568"/>
   </g>
   <g transform="matrix(.26458 0 0 .26458 -25.782 186.6)">
    <rect x="166.19" y="349.41" width="5.5065" height="4.4356" rx=".16747" ry=".081837" stroke-width="1.8778"/>
    <g fill="#b3b3b3" aria-label="A">
     <path d="m169.34 352.12h-0.62031l-0.0979 0.28027h-0.39877l0.56982-1.5384h0.47296l0.56983 1.5384h-0.39878zm-0.52139-0.28543h0.42144l-0.2102-0.61207z" fill="#b3b3b3" stroke-width=".39568"/>
    </g>
   </g>
   <rect x="19.806" y="279.05" width="1.4569" height="1.1736" rx=".04431" ry=".021653" stroke-width=".49683"/>
   <path d="m20.558 279.59c0.0375-9e-5 0.0504-0.0161 0.0504-0.0431 0-0.0417-0.0236-0.0431-0.0504-0.0431h-0.0581v0.0861zm4e-3 0.17803c0.0411 0 0.0635-0.0188 0.0635-0.0537 0-0.0503-0.0377-0.0529-0.0635-0.0529h-0.0616v0.1066zm0.0976-0.1464c0.06 0.0161 0.0709 0.0695 0.0709 0.10115 0 0.12518-0.13697 0.11668-0.16085 0.11668h-0.17421v-0.40703h0.15758c0.16299 0 0.16086 0.0755 0.16086 0.1077 0 0.0573-0.0247 0.0644-0.0542 0.0815z" fill="#b3b3b3" stroke-width=".26458"/>
   <g transform="matrix(.26458 0 0 .26458 -25.924 186.43)">
    <rect x="166.72" y="355.26" width="5.5065" height="4.4356" rx=".16747" ry=".081837" stroke-width="1.8778"/>
    <g fill="#b3b3b3" aria-label="C">
     <path d="m170.17 358.16q-0.10922 0.0567-0.22772 0.0855t-0.2473 0.0288q-0.38435 0-0.60898-0.21433-0.22463-0.21536-0.22463-0.58322 0-0.36889 0.22463-0.58321 0.22463-0.21536 0.60898-0.21536 0.1288 0 0.2473 0.0288 0.1185 0.0289 0.22772 0.0855v0.3184q-0.11025-0.0752-0.21741-0.11026-0.10717-0.035-0.22567-0.035-0.21226 0-0.33385 0.13601-0.12159 0.13602-0.12159 0.37507 0 0.23803 0.12159 0.37405 0.12159 0.13601 0.33385 0.13601 0.1185 0 0.22567-0.035 0.10716-0.035 0.21741-0.11026z" fill="#b3b3b3" stroke-width=".39568"/>
    </g>
   </g>
   <g transform="matrix(.26458 0 0 .26458 -25.45 186.41)">
    <rect x="171.05" y="355.35" width="5.5065" height="4.4356" rx=".16747" ry=".081837" stroke-width="1.8778"/>
    <g fill="#b3b3b3" aria-label="D">
     <path d="m173.67 357.09v0.93871h0.1422q0.24318 0 0.37095-0.12055 0.1288-0.12056 0.1288-0.35035 0-0.22875-0.12777-0.34828t-0.37198-0.11953zm-0.39671-0.29985h0.41835q0.35034 0 0.52139 0.0505 0.17208 0.0495 0.2947 0.16899 0.1082 0.10407 0.16075 0.24009 0.0525 0.13601 0.0525 0.30809 0 0.17414-0.0525 0.31119-0.0525 0.13601-0.16075 0.24009-0.12365 0.11953-0.29676 0.17002-0.17311 0.0495-0.51933 0.0495h-0.41835z" fill="#b3b3b3" stroke-width=".39568"/>
    </g>
   </g>
   <g transform="matrix(.26458 0 0 .26458 -25.809 186.67)">
    <rect x="166.29" y="359.46" width="5.5065" height="4.4356" rx=".16747" ry=".081837" stroke-width="1.8778"/>
    <g fill="#b3b3b3" aria-label="E">
     <path d="m168.51 360.91h1.0706v0.29986h-0.67389v0.28645h0.63371v0.29986h-0.63371v0.3524h0.69656v0.29985h-1.0933z" fill="#b3b3b3" stroke-width=".39568"/>
    </g>
   </g>
   <g transform="matrix(.26458 0 0 .26458 -25.496 186.57)">
    <rect x="171.22" y="359.85" width="5.5065" height="4.4356" rx=".16747" ry=".081837" stroke-width="1.8778"/>
    <g fill="#b3b3b3" aria-label="F">
     <path d="m173.45 361.3h1.0706v0.29985h-0.67389v0.28645h0.63371v0.29986h-0.63371v0.65225h-0.39671z" fill="#b3b3b3" stroke-width=".39568"/>
    </g>
   </g>
   <g transform="matrix(.26458 0 0 .26458 -25.645 186.58)">
    <rect x="179.02" y="349.5" width="5.5065" height="4.4356" rx=".16747" ry=".081837" stroke-width="1.8778"/>
    <g fill="#b3b3b3" aria-label="G">
     <path d="m182.63 352.37q-0.14839 0.0721-0.3081 0.1082-0.15972 0.0361-0.32973 0.0361-0.38435 0-0.60898-0.21433-0.22463-0.21535-0.22463-0.58321 0-0.37199 0.22875-0.58528 0.22875-0.2133 0.62649-0.2133 0.15354 0 0.29367 0.0288 0.14117 0.0289 0.26585 0.0855v0.3184q-0.1288-0.0732-0.25657-0.10923-0.12674-0.0361-0.25452-0.0361-0.23699 0-0.3658 0.13292-0.12777 0.1319-0.12777 0.37817 0 0.24421 0.12365 0.37713t0.35138 0.13292q0.0618 0 0.11437-7e-3 0.0536-8e-3 0.0958-0.0247v-0.29882h-0.24215v-0.26585h0.61826z" fill="#b3b3b3" stroke-width=".39568"/>
    </g>
   </g>
   <g transform="matrix(.26458 0 0 .26458 -25.576 186.63)">
    <rect x="185" y="349.33" width="5.5065" height="4.4356" rx=".16747" ry=".081837" stroke-width="1.8778"/>
    <g fill="#b3b3b3" aria-label="H">
     <path d="m187.22 350.77h0.39671v0.58631h0.58528v-0.58631h0.39671v1.5384h-0.39671v-0.65226h-0.58528v0.65226h-0.39671z" fill="#b3b3b3" stroke-width=".39568"/>
    </g>
   </g>
   <g transform="matrix(.26458 0 0 .26458 -25.954 186.88)">
    <rect x="180.19" y="353.57" width="5.5065" height="4.4356" rx=".16747" ry=".081837" stroke-width="1.8778"/>
    <g fill="#b3b3b3" aria-label="I">
     <path d="m182.42 355.02h0.39671v1.5384h-0.39671z" fill="#b3b3b3" stroke-width=".39568"/>
    </g>
   </g>
   <g transform="matrix(.26458 0 0 .26458 -25.656 186.7)">
    <rect x="185.3" y="354.26" width="5.5065" height="4.4356" rx=".16747" ry=".081837" stroke-width="1.8778"/>
    <g fill="#b3b3b3" aria-label="J">
     <path d="m187.53 355.71h0.39671v1.389q0 0.28749-0.15663 0.42969-0.15559 0.14219-0.47193 0.14219h-0.0804v-0.29985h0.0618q0.12365 0 0.18651-0.069 0.0639-0.069 0.0639-0.20299z" fill="#b3b3b3" stroke-width=".39568"/>
    </g>
   </g>
   <g transform="matrix(.26458 0 0 .26458 -25.679 186.91)">
    <rect x="179.15" y="358.55" width="5.5065" height="4.4356" rx=".16747" ry=".081837" stroke-width="1.8778"/>
    <g fill="#b3b3b3" aria-label="K">
     <path d="m181.38 360h0.39671v0.56158l0.57189-0.56158h0.46059l-0.74087 0.72851 0.81712 0.80991h-0.49666l-0.61207-0.60589v0.60589h-0.39671z" fill="#b3b3b3" stroke-width=".39568"/>
    </g>
   </g>
   <g transform="matrix(.26458 0 0 .26458 -25.76 186.67)">
    <rect x="185.69" y="359.46" width="5.5065" height="4.4356" rx=".16747" ry=".081837" stroke-width="1.8778"/>
    <g fill="#b3b3b3" aria-label="L">
     <path d="m187.92 360.91h0.39671v1.2386h0.69657v0.29985h-1.0933z" fill="#b3b3b3" stroke-width=".39568"/>
    </g>
   </g>
   <g transform="matrix(.26458 0 0 .26458 -6.5402 185.42)">
    <rect x="132.47" y="359.29" width="5.622" height="4.4356" rx=".16747" ry=".081837" stroke-width="1.8778"/>
    <text x="133.47289" y="362.25998" fill="#b3b3b3" font-family="sans-serif" font-size="15.827px" letter-spacing="0px" stroke-width=".39568" word-spacing="0px" style="line-height:1.25" xml:space="preserve"><tspan x="133.47289" y="362.25998" fill="#b3b3b3" font-family="sans-serif" font-size="2.1103px" letter-spacing="-.14px" stroke-width=".39568">PoE</tspan></text>
   </g>
   <g transform="matrix(.26458 0 0 .26458 -8.1383 184)">
    <rect x="132.47" y="359.29" width="5.622" height="4.4356" rx=".16747" ry=".081837" stroke-width="1.8778"/>
    <text x="133.73978" y="362.25998" fill="#b3b3b3" font-family="sans-serif" font-size="15.827px" letter-spacing="0px" stroke-width=".39568" word-spacing="0px" style="line-height:1.25" xml:space="preserve"><tspan x="133.73978" y="362.25998" fill="#b3b3b3" font-family="sans-serif" font-size="2.1103px" letter-spacing="-.14px" stroke-width=".39568">Act</tspan></text>
   </g>
   <g transform="matrix(.26458 0 0 .26458 -8.1383 185.42)">
    <rect x="132.47" y="359.29" width="5.622" height="4.4356" rx=".16747" ry=".081837" stroke-width="1.8778"/>
    <text x="133.20705" y="362.27493" fill="#b3b3b3" font-family="sans-serif" font-size="15.827px" letter-spacing="0px" stroke-width=".39568" word-spacing="0px" style="line-height:1.25" xml:space="preserve"><tspan x="133.20705" y="362.27493" fill="#b3b3b3" font-family="sans-serif" font-size="2.1103px" letter-spacing="-.14px" stroke-width=".39568">FDX</tspan></text>
   </g>
   <g transform="matrix(.26458 0 0 .26458 -8.1383 186.72)">
    <rect x="132.47" y="359.29" width="5.622" height="4.4356" rx=".16747" ry=".081837" stroke-width="1.8778"/>
    <text x="133.43735" y="362.08789" fill="#b3b3b3" font-family="sans-serif" font-size="15.827px" letter-spacing="0px" stroke-width=".39568" word-spacing="0px" style="line-height:1.25" xml:space="preserve"><tspan x="133.43735" y="362.08789" fill="#b3b3b3" font-family="sans-serif" font-size="2.1103px" letter-spacing="-.14px" stroke-width=".39568">Spd</tspan></text>
   </g>
   <g transform="matrix(.26458 0 0 .26458 -6.5402 186.72)">
    <rect x="132.47" y="359.29" width="5.622" height="4.4356" rx=".16747" ry=".081837" stroke-width="1.8778"/>
    <text x="133.57181" y="362.25998" fill="#b3b3b3" font-family="sans-serif" font-size="15.827px" letter-spacing="0px" stroke-width=".39568" word-spacing="0px" style="line-height:1.25" xml:space="preserve"><tspan x="133.57181" y="362.25998" fill="#b3b3b3" font-family="sans-serif" font-size="2.1103px" letter-spacing="-.14px" stroke-width=".39568">Usr</tspan></text>
   </g>
   <g stroke-width=".49683">
    <ellipse cx="11.528" cy="283.72" rx=".37925" ry=".3796"/>
    <ellipse cx="14.393" cy="283.72" rx=".37925" ry=".3796"/>
    <ellipse cx="19.023" cy="283.72" rx=".37925" ry=".3796"/>
    <ellipse cx="25.741" cy="281.59" rx=".37925" ry=".3796" fill="#4d4d4d"/>
   </g>
   <rect x="46.101" y="281.84" width="1.2999" height="1.0343" fill="#f9f9f9" stroke="#000" stroke-width=".14631"/>
   <g transform="matrix(.26458 0 0 .26458 -24.134 175.89)" font-family="sans-serif" font-size="2.3537px" letter-spacing="0px" stroke-width=".058842" word-spacing="0px">
    <text x="97.659866" y="387.58466" fill="#000000" style="line-height:1.25" xml:space="preserve"><tspan x="97.659866" y="387.58466" fill="#ffffff" stroke-width=".058842" word-spacing="-.16px">HP 5400R zl2</tspan></text>
    <text x="97.659866" y="390.24673" fill="#ffffff" style="line-height:1.25" xml:space="preserve"><tspan x="97.659866" y="390.24673" fill="#ffffff" stroke-width=".058842" word-spacing="-.96px">Management Module</tspan></text>
    <text x="97.917595" y="392.69766" fill="#ffffff" style="line-height:1.25" xml:space="preserve"><tspan x="97.917595" y="392.69766" fill="#ffffff" stroke-width=".058842" word-spacing="-.16px">J9827A</tspan></text>
   </g>
   <g fill="#fff" stroke-width=".49683px">
    <path d="m41.516 283.64c-0.0632 0-0.0811 0.0476-0.0811 0.10966 0 0.062 0.0276 0.10966 0.0811 0.10966 0.0536 0 0.0809-0.047 0.0809-0.10966 0-0.0523-0.0177-0.10966-0.0809-0.10966zm0-0.0396c0.0873 0 0.13029 0.064 0.13029 0.14925 0 0.0852-0.0425 0.14924-0.13029 0.14924-0.0878 0-0.13029-0.0546-0.13029-0.14924 0-0.0946 0.043-0.14925 0.13029-0.14925z"/>
    <path d="m42.418 283.64c-0.0632 0-0.0811 0.0476-0.0811 0.10966 0 0.062 0.0276 0.10966 0.0811 0.10966s0.0809-0.047 0.0809-0.10966c0-0.0523-0.0177-0.10966-0.0809-0.10966zm0-0.0396c0.0873 0 0.13029 0.064 0.13029 0.14925 0 0.0852-0.0425 0.14924-0.13029 0.14924-0.0878 0-0.13029-0.0546-0.13029-0.14924 0-0.0946 0.043-0.14925 0.13029-0.14925z"/>
    <path d="m43.003 283.75v0.0229h-0.21444c0 0.0775 0.0575 0.0987 0.10139 0.0987 0.0381 5e-3 0.0705-0.0182 0.10214-0.0264v0.0442c-0.0333 0.0191-0.0635 0.0218-0.10494 0.0218-0.1136 0-0.14726-0.0821-0.14726-0.14671 0-0.1111 0.0751-0.1518 0.13915-0.1518 0.10581 0 0.12395 0.0932 0.12395 0.13732zm-0.0466-0.0137c0-0.0572-0.0381-0.084-0.0768-0.084-0.0717 0-0.0895 0.0615-0.0895 0.0843l0.16627-2.6e-4z"/>
    <path d="m42.225 283.62v0.0442c-0.0313-0.0162-0.0414-0.0203-0.0852-0.0203s-0.0695 0.0101-0.0695 0.0426c3e-3 0.0656 0.16876 0.0212 0.1698 0.13088 1e-3 0.12637-0.19387 0.0815-0.21697 0.0682v-0.0482c0.0774 0.0447 0.16907 0.0344 0.16907-0.0162 0-0.0718-0.16704-0.0244-0.16704-0.13269 0-0.0835 0.0851-0.0838 0.10899-0.0838 0.0239 0 0.0567 1e-3 0.0907 0.0154z"/>
    <path d="m41.955 283.72v0.1716h-0.0466c0-0.16999 0.0163-0.25053-0.0629-0.25053s-0.0814 0.0781-0.0814 0.0898v0.16069h-0.0469v-0.28432h0.0469v0.0442c0.0389-0.046 0.0504-0.051 0.0918-0.051s0.0991 0.0226 0.0991 0.11959z"/>
   </g>
   <g stroke-width=".26458">
    <rect x="-.18899" y="284.7" width="14.296" height=".63495" fill="#b3b3b3"/>
    <rect x="40.283" y="284.7" width="14.296" height=".63495" fill="#b3b3b3"/>
    <rect x="3.4244" y="285.34" width="47.54" height=".32427" fill="#666"/>
    <rect x="3.8789" y="276.54" width="46.633" height=".80318" fill="#e3dedb"/>
    <rect x="3.8789" y="285.66" width="46.633" height=".80318" fill="#e3dedb"/>
   </g>
   <g transform="matrix(.26458 0 0 .26458 -19.37 168.47)" fill="#fff" font-family="sans-serif" letter-spacing="0px" word-spacing="0px">
    <text x="269.41553" y="433.71582" font-size="40px" style="line-height:1.25" xml:space="preserve"><tspan x="269.41553" y="433.71582" fill="#ffffff" font-size="5.3333px">zl</tspan></text>
    <text x="267.58096" y="436.86777" font-size="2.0866px" stroke-width=".39124" style="line-height:1.25" xml:space="preserve"><tspan x="267.58096" y="436.86777" fill="#ffffff" stroke-width=".39124">Module</tspan></text>
   </g>
  </g>
 </g>
</svg>
