<svg width="442" height="175.3" version="1.1" viewBox="66 376 442 175.3" xmlns="http://www.w3.org/2000/svg"><rect x="66.877" y="376.88" width="439.74" height="173.55" stroke="#000" stroke-width="1.7533"/><rect x="66" y="376" width="21.694" height="175.3" fill="#2f2524" stroke-width="4.4101"/><path d="m86.922 549.73-0.0074-172.52" fill="none" stroke="#333" stroke-linejoin="round" stroke-width="1.0653"/><rect x="67.083" y="379.44" width="19.201" height="9.1754" rx=".30943" ry=".15121" fill="#231f20" stroke="#000" stroke-linejoin="round" stroke-width=".39156"/><rect x="87.374" y="377.34" width="10.655" height="173.6" fill="#f9f9f9"/><rect x="286.74" y="377.34" width="9.9277" height="173.6" fill="#f9f9f9"/><rect x="88.852" y="381.44" width="206.87" height="32.114" rx=".64165" ry=".90888" fill="#e6e6e6" stroke-width="1.3597"/><rect x="297.32" y="377.34" width="10.234" height="173.6" fill="#f9f9f9"/><path transform="translate(66,376)" d="m23.84 39.061c-0.54822 0-0.98828 0.35958-0.98828 0.80469v41.094c0 0.44512 0.44007 0.80274 0.98828 0.80274h205.02c0.54822 0 0.98828-0.35762 0.98828-0.80274v-41.094c0-0.44511-0.44006-0.80469-0.98828-0.80469h-205.02zm3.7598 5.5117a3.6599 3.6599 0 0 1 3.6602 3.6602 3.6599 3.6599 0 0 1 -3.6602 3.6602 3.6599 3.6599 0 0 1 -3.6602 -3.6602 3.6599 3.6599 0 0 1 3.6602 -3.6602z" fill="#e6e6e6" stroke-width="1.3871"/><g fill-rule="evenodd" stroke="#000" stroke-linecap="round" stroke-width=".084846"><circle cx="292.69" cy="436.41" r="2.8437" fill="#bebebe"/><circle cx="292.69" cy="436.41" r="1.1202" fill="#ececec"/><circle cx="92.25" cy="436.41" r="2.8437" fill="#bebebe"/><circle cx="92.25" cy="436.41" r="1.1202" fill="#ececec"/></g><rect x="496.22" y="377.34" width="10.395" height="173.6" fill="#f9f9f9"/><rect x="298.66" y="381.44" width="206.88" height="32.114" rx=".64165" ry=".90888" fill="#e6e6e6" stroke-width="1.3597"/><rect x="88.852" y="381.44" width="206.85" height="27.5" rx=".64415" ry=".77829" fill="#2f2524" stroke-width="1.2607"/><g fill-rule="evenodd" stroke="#000" stroke-linecap="round" stroke-width=".084846"><circle cx="288.97" cy="392.98" r="2.8437" fill="#bebebe"/><circle cx="288.97" cy="392.98" r="1.1202" fill="#ececec"/><circle cx="93.062" cy="392.98" r="2.8437" fill="#bebebe"/><circle cx="93.062" cy="392.98" r="1.1202" fill="#ececec"/></g><path d="m89.84 461.39c-0.54822 0-0.98828 0.35958-0.98828 0.80469v41.094c0 0.44512 0.44007 0.80274 0.98828 0.80274h205.02c0.54822 0 0.98828-0.35762 0.98828-0.80274v-41.094c0-0.44511-0.44006-0.80469-0.98828-0.80469zm3.7598 5.5117a3.6599 3.6599 0 0 1 3.6602 3.6602 3.6599 3.6599 0 0 1 -3.6602 3.6602 3.6599 3.6599 0 0 1 -3.6602 -3.6602 3.6599 3.6599 0 0 1 3.6602 -3.6602z" fill="#e6e6e6" stroke-width="1.3871"/><g fill-rule="evenodd" stroke="#000" stroke-linecap="round" stroke-width=".084846"><circle cx="292.69" cy="482.74" r="2.8437" fill="#bebebe"/><circle cx="292.69" cy="482.74" r="1.1202" fill="#ececec"/><circle cx="92.25" cy="482.74" r="2.8437" fill="#bebebe"/><circle cx="92.25" cy="482.74" r="1.1202" fill="#ececec"/></g><path d="m89.84 507.72c-0.54822 0-0.98828 0.35958-0.98828 0.80469v41.094c0 0.44512 0.44007 0.80274 0.98828 0.80274h205.02c0.54822 0 0.98828-0.35762 0.98828-0.80274v-41.094c0-0.44511-0.44006-0.80469-0.98828-0.80469zm3.7598 5.5117a3.6599 3.6599 0 0 1 3.6602 3.6602 3.6599 3.6599 0 0 1 -3.6602 3.6602 3.6599 3.6599 0 0 1 -3.6602 -3.6602 3.6599 3.6599 0 0 1 3.6602 -3.6602z" fill="#e6e6e6" stroke-width="1.3871"/><g fill-rule="evenodd" stroke="#000" stroke-linecap="round" stroke-width=".084846"><circle cx="292.69" cy="529.08" r="2.8437" fill="#bebebe"/><circle cx="292.69" cy="529.08" r="1.1202" fill="#ececec"/><circle cx="92.25" cy="529.08" r="2.8437" fill="#bebebe"/><circle cx="92.25" cy="529.08" r="1.1202" fill="#ececec"/></g><path d="m299.64 415.06c-0.54822 0-0.98828 0.35958-0.98828 0.80469v41.094c0 0.44512 0.44007 0.80274 0.98828 0.80274h205.02c0.54822 0 0.98828-0.35762 0.98828-0.80274v-41.094c0-0.44511-0.44006-0.80469-0.98828-0.80469zm3.7598 5.5117a3.6599 3.6599 0 0 1 3.6602 3.6602 3.6599 3.6599 0 0 1 -3.6602 3.6602 3.6599 3.6599 0 0 1 -3.6602 -3.6602 3.6599 3.6599 0 0 1 3.6602 -3.6602z" fill="#e6e6e6" stroke-width="1.3871"/><g fill-rule="evenodd" stroke="#000" stroke-linecap="round" stroke-width=".084846"><circle cx="502.5" cy="436.41" r="2.8437" fill="#bebebe"/><circle cx="502.5" cy="436.41" r="1.1202" fill="#ececec"/><circle cx="302.05" cy="436.41" r="2.8437" fill="#bebebe"/><circle cx="302.05" cy="436.41" r="1.1202" fill="#ececec"/></g><path d="m299.64 461.39c-0.54822 0-0.98828 0.35958-0.98828 0.80469v41.094c0 0.44512 0.44007 0.80274 0.98828 0.80274h205.02c0.54822 0 0.98828-0.35762 0.98828-0.80274v-41.094c0-0.44511-0.44006-0.80469-0.98828-0.80469zm3.7598 5.5117a3.6599 3.6599 0 0 1 3.6602 3.6602 3.6599 3.6599 0 0 1 -3.6602 3.6602 3.6599 3.6599 0 0 1 -3.6602 -3.6602 3.6599 3.6599 0 0 1 3.6602 -3.6602z" fill="#e6e6e6" stroke-width="1.3871"/><g fill-rule="evenodd" stroke="#000" stroke-linecap="round" stroke-width=".084846"><circle cx="502.5" cy="482.74" r="2.8437" fill="#bebebe"/><circle cx="502.5" cy="482.74" r="1.1202" fill="#ececec"/><circle cx="302.05" cy="482.74" r="2.8437" fill="#bebebe"/><circle cx="302.05" cy="482.74" r="1.1202" fill="#ececec"/></g><path d="m299.64 507.72c-0.54822 0-0.98828 0.35958-0.98828 0.80469v41.094c0 0.44512 0.44007 0.80274 0.98828 0.80274h205.02c0.54822 0 0.98828-0.35762 0.98828-0.80274v-41.094c0-0.44511-0.44006-0.80469-0.98828-0.80469zm3.7598 5.5117a3.6599 3.6599 0 0 1 3.6602 3.6602 3.6599 3.6599 0 0 1 -3.6602 3.6602 3.6599 3.6599 0 0 1 -3.6602 -3.6602 3.6599 3.6599 0 0 1 3.6602 -3.6602z" fill="#e6e6e6" stroke-width="1.3871"/><g fill-rule="evenodd" stroke="#000" stroke-linecap="round" stroke-width=".084846"><circle cx="502.5" cy="529.07" r="2.8437" fill="#bebebe"/><circle cx="502.5" cy="529.07" r="1.1202" fill="#ececec"/><circle cx="302.05" cy="529.07" r="2.8437" fill="#bebebe"/><circle cx="302.05" cy="529.07" r="1.1202" fill="#ececec"/></g><g stroke-width=".18158"><path d="m91.199 426.47h0.90062l0.47936-1.3364h1.9247l0.49389 1.3364h0.89336l-1.8957-5.026h-0.90788zm1.6705-2.1499 0.65368-1.9029 0.67547 1.9029z"/><path d="m305.69 470.58c0-1.5398-1.0604-2.3314-2.7164-2.3314h-1.7141v5.026h1.2638c0.57378 0 0.87883-7e-3 1.3291-0.10169 1.1621-0.32683 1.8376-1.2057 1.8376-2.5929zm-2.6946-1.5107c1.1548 0 1.8012 0.54474 1.8012 1.6342 0 1.2928-0.77715 1.7504-2.0409 1.7504h-0.60283v-3.3846z"/><path d="m91.903 519.28h3.2829v-0.82073h-2.3896v-1.4236h2.1281v-0.82073h-2.1281v-1.1403h2.3896v-0.82072h-3.2829z"/><path d="m302.74 515.07h2.3605v-0.82072h-3.2539v5.026h0.89336v-1.9102h2.07v-0.82073h-2.07z"/></g><text x="284.5499" y="405.02838" fill="#000000" font-family="sans-serif" font-size="40px" letter-spacing="0px" word-spacing="0px" style="line-height:1.25" xml:space="preserve"><tspan x="284.5499" y="440.41901"/></text><circle cx="94.296" cy="400.32" r="4.2136" fill="#fff" stroke-width="1.1864"/><path d="m94.87 402.01v-4.2053h-0.87157l-1.4889 0.66094 0.28326 0.71178 1.1839-0.52294v3.3555h-1.3437v0.82073h3.45v-0.82073z" stroke-width=".18158"/><rect x="298.66" y="381.44" width="206.88" height="27.352" rx=".64415" ry=".77829" fill="#2f2524" stroke-width="1.2607"/><g fill-rule="evenodd" stroke="#000" stroke-linecap="round" stroke-width=".084846"><circle cx="500.49" cy="392.98" r="2.8437" fill="#bebebe"/><circle cx="500.49" cy="392.98" r="1.1202" fill="#ececec"/><circle cx="304.58" cy="392.98" r="2.8437" fill="#bebebe"/><circle cx="304.58" cy="392.98" r="1.1202" fill="#ececec"/></g><circle cx="305.92" cy="400.32" r="4.2136" fill="#fff" stroke-width="1.1864"/><path d="m304.58 398.99c0.34136-0.21789 0.6682-0.414 1.2129-0.414 0.55926 0 0.89336 0.23968 0.89336 0.72631 0 0.53021-0.55926 1.242-2.3242 3.0214v0.55926h3.2684v-0.77715h-1.9538c1.5398-1.6487 1.9029-2.1571 1.9029-2.8399 0-0.91514-0.74084-1.5107-1.6923-1.5107-0.79168 0-1.1911 0.22516-1.685 0.51568z" stroke-width=".18158"/><path class="st1" d="m77.759 384.53c0 0.89556-0.71538 1.6233-1.5873 1.6233-0.87186 0-1.5873-0.72768-1.5873-1.6233v-1.377s0.76009 0.19033 0.76009 0.99634v0.38062c0 0.49256 0.36886 0.88437 0.82713 0.88437 0.4583 0 0.82716-0.39181 0.82716-0.88437v-0.78384c0.03356-0.67168 0.61531-0.88439 0.76062-0.96275zm-3.4875-0.64931c-0.15648-0.13428-0.36886-0.2127-0.59242-0.2127-0.503 0-0.90539 0.39182-0.90539 0.88439v1.6008h-0.76009v-2.9331s0.31299 0.0109 0.51417 0.15681c0.29061-0.29108 0.7042-0.45899 1.1513-0.45899 0.2124 0 0.41358 0.0336 0.59242 0.11191zm-5.153 0.64921c0-0.49255 0.41357-0.89558 0.91658-0.89558s0.91657 0.40303 0.91657 0.89558c0 0.49257-0.41357 0.8956-0.91657 0.8956s-0.91658-0.40303-0.91658-0.8956zm-0.73772 1e-4c0 0.89558 0.73775 1.612 1.6543 1.612 0.38004 0 0.72654-0.1231 1.006-0.33585 0.16768 0.27986 0.64832 0.33585 0.64832 0.33585v-1.612c0-0.88438-0.73775-1.612-1.6543-1.612-0.91658 0-1.6543 0.72766-1.6543 1.612zm13.962-1e-4c0-0.49255 0.41357-0.89558 0.91658-0.89558 0.503 0 0.91656 0.40303 0.91656 0.89558 0 0.49257-0.41357 0.8956-0.91656 0.8956-0.50301 0-0.91658-0.40303-0.91658-0.8956zm-0.73771 1e-4c0 0.89558 0.73772 1.612 1.6543 1.612 0.38004 0 0.72656-0.1231 1.006-0.33585 0.16767 0.27986 0.6483 0.33585 0.6483 0.33585v-1.612c0-0.88438-0.73772-1.612-1.6543-1.612s-1.6543 0.72766-1.6543 1.612zm-2.772-1e-4c0-0.49255 0.41357-0.89558 0.91658-0.89558 0.503 0 0.91657 0.40303 0.91657 0.89558 0.01207 0.49257-0.40241 0.8956-0.91657 0.8956-0.50301 0-0.91658-0.40303-0.91658-0.8956zm0-1.6007c-0.03356-0.67168-0.59295-0.88438-0.73826-0.96275v4.1868s0.49182-0.056 0.68185-0.32465c0.27944 0.19032 0.61478 0.31346 0.97248 0.31346 0.91658 0 1.6543-0.72766 1.6543-1.612 0.01207-0.88438-0.73772-1.612-1.654-1.612-0.33508 0-0.64805 0.1008-0.91632 0.26867z" fill="#f5831f" stroke-width="1.8305"/><rect x="74.343" y="392.85" width="9.0137" height="1.6732" rx=".46716" ry=".22795" fill="#00ff1f" stroke-width="1.4764"/><rect x="74.407" y="396.73" width="9.0137" height="1.6732" rx=".46716" ry=".22795" fill="#838383" stroke-width="1.4764"/><ellipse cx="80.131" cy="402.15" rx="1.4384" ry="1.4375" fill="#838383" stroke-width="1.883"/><g fill="#fff"><path d="m70.517 393.41 0.22111 0.84023 0.22015-0.84023h0.20861l0.22111 0.84023 0.22015-0.84023h0.17688l-0.28167 1.0767h-0.20861l-0.23168-0.8825-0.23264 0.8825h-0.20861l-0.28167-1.0767z"/><path d="m68.361 393.21v0.53931h0.24418c0.22603 0 0.28359-0.1 0.28359-0.2702 0-0.17022-0.11422-0.26922-0.28359-0.26922zm-0.19419-0.15967h0.43837c0.34614 0 0.48836 0.16325 0.48836 0.42874 0 0.2655-0.14406 0.42975-0.48836 0.42975h-0.24418v0.5768h-0.19419z"/><path d="m69.675 393.53c-0.16786 0-0.30763 0.1335-0.30763 0.41524 0 0.28173 0.15026 0.41529 0.30763 0.41529s0.30668-0.0919 0.30668-0.41527c0-0.32341-0.13881-0.41526-0.30668-0.41526zm0-0.14988c0.29494 0 0.49414 0.1834 0.49414 0.56518 0 0.38184-0.18778 0.56518-0.49414 0.56518-0.30635 0-0.49414-0.18415-0.49414-0.56518s0.1992-0.56518 0.49414-0.56518z"/><path d="m72.955 394h-0.8133c0.03254 0.44782 0.42138 0.41937 0.77195 0.2739v0.1672c-0.57162 0.21234-0.95653 9e-3 -0.95653-0.4729 0-0.50267 0.34834-0.57608 0.52777-0.57486 0.47518 0 0.47011 0.42986 0.47011 0.60666zm-0.17688-0.13858c0-0.21189-0.12682-0.31831-0.29129-0.31831s-0.33936 0.11505-0.33936 0.31914z"/><path d="m73.85 393.58c-0.2413-0.0845-0.45279 1e-3 -0.45279 0.34339v0.56718h-0.17784v-1.0767h0.17784v0.1672c0.14834-0.21401 0.32294-0.20814 0.45183-0.18189z"/><path d="m68.167 396.95h0.82484v0.16344h-0.63063v0.42298h0.56912v0.16344h-0.56912v0.68545h-0.19419z"/><path d="m71.511 396.88h0.17688v1.4958h-0.17688z"/><path d="m69.203 398.05c0.01017 0.40834 0.55567 0.15855 0.55567-0.21606-0.43398 0-0.55567 0.0267-0.55567 0.21606zm0.73254 0.32507h-0.17688v-0.16344c-0.40359 0.40361-0.73256 0.0804-0.73256-0.14988 0-0.42031 0.45311-0.36625 0.73254-0.36625 0.01337-0.42439-0.49993-0.26033-0.65372-0.1843v-0.16344c0.59041-0.21219 0.8306 0.0508 0.8306 0.41338z"/><path d="m70.263 397.3h0.17688v0.64506c0 0.45503 0.54795 0.43158 0.54795-0.0346v-0.61045h0.17688v1.0767h-0.17688v-0.16532c-0.41609 0.41607-0.72486 0.0874-0.72486-0.25966 1.6e-5 -0.88391 2.9e-5 0.23218 3e-5 -0.65173z"/><path d="m72.212 396.99v0.30571h0.36435v0.13746h-0.36435v0.5845c0 0.19872 0.02866 0.20674 0.18264 0.20674h0.1817v0.148h-0.1817c-0.31317 0-0.36049-0.16155-0.36049-0.35467v-0.5845h-0.12977v-0.13745h0.12977v-0.30572z"/><path d="m68.167 401.4h0.19419v1.2718h0.69889v0.16344h-0.8931z"/><path d="m69.619 401.89c-0.21206 0-0.30763 0.17643-0.30763 0.41524 0 0.23883 0.1088 0.41528 0.30763 0.41528 0.19884 0 0.30668-0.19983 0.30668-0.41526s-0.09462-0.41526-0.30668-0.41526zm0-0.15007c0.29428 0 0.49414 0.17568 0.49414 0.56535 0 0.38966-0.20313 0.56518-0.49414 0.56518s-0.49414-0.21168-0.49414-0.56518 0.19986-0.56535 0.49414-0.56535z"/><path d="m71.159 401.95c-0.48201-0.22872-0.66526 0.0612-0.66526 0.33262 0.01375 0.5023 0.43458 0.4552 0.66526 0.33266v0.16344c-0.57791 0.20351-0.85175-0.10205-0.85175-0.4964 0-0.52387 0.44876-0.66326 0.85175-0.49849z"/><path d="m71.558 402.51c0 0.29737 0.55566 0.32509 0.55567-0.21626-0.4935 0-0.55567 0.0435-0.55567 0.21626zm0.73254 0.32509h-0.17688v-0.16344c-0.2561 0.38851-0.73256 0.12973-0.73256-0.14988 0-0.41195 0.41656-0.35688 0.73254-0.36624 0-0.40758-0.52043-0.26123-0.65372-0.18433v-0.16344c0.5904-0.21219 0.8306 0.0273 0.8306 0.41336z"/><path d="m75.198 401.93c-0.27645-0.1158-0.45279 0.081-0.45279 0.34339v0.5672h-0.17784v-1.0767h0.17784v0.1672c0.09755-0.20228 0.32294-0.21204 0.45183-0.18189z"/><path d="m72.816 401.47v0.30572h0.36435v0.13745h-0.36435v0.58451c0 0.19873 0.0287 0.20675 0.18264 0.20675h0.18171v0.148h-0.18171c-0.31316 0-0.36049-0.16156-0.36049-0.35468v-0.58451h-0.12978v-0.13745h0.12978v-0.30572z" stroke-width="1.8829px"/><path d="m73.808 401.89c-0.21206 0-0.30764 0.17643-0.30764 0.41524 0 0.23884 0.10879 0.41529 0.30764 0.41529s0.30668-0.19983 0.30668-0.41526c0-0.21544-0.0946-0.41527-0.30668-0.41527zm0-0.15008c0.29429 0 0.49415 0.17569 0.49415 0.56537 0 0.38965-0.20313 0.56519-0.49415 0.56519s-0.49415-0.21169-0.49415-0.56519c0-0.35351 0.19986-0.56537 0.49415-0.56537z" stroke-width="1.8829px"/></g><path d="m91.38 470.65c0 1.5761 0.99504 2.6292 2.5058 2.6292 0.51568 0 1.2202-0.138 1.823-0.37768l-0.24694-0.79168c-0.47936 0.23242-1.1185 0.34863-1.4962 0.34863-1.0168 0-1.6923-0.68273-1.6923-1.8085 0-1.0314 0.55926-1.7504 1.5906-1.7504 0.55926 0 1.0749 0.0654 1.5398 0.38494l0.24694-0.79167c-0.50842-0.31958-1.1403-0.414-1.6778-0.414-1.9002 0-2.5624 1.3162-2.5929 2.5712z" stroke-width=".18158"/><path d="m305.01 422.76c0-0.87157-0.69726-1.3146-1.7504-1.3146h-1.7286v5.026h1.6051c1.3147 0.0159 2.2806-0.41675 2.2806-1.38 0-0.68999-0.45758-1.1911-1.0459-1.3146 0.50041-0.25424 0.63918-0.62089 0.63918-1.0168zm-1.9175-0.49389c0.62463 0 1.0386 0.10169 1.0386 0.552 0 0.47936-0.43578 0.58831-1.0386 0.58831h-0.6682v-1.1403zm-0.0654 1.961c0.77715 0 1.4889 0.10168 1.4889 0.69725 0 0.68273-0.71179 0.72631-1.4889 0.72631h-0.60283v-1.4236z" stroke-width=".18158"/></svg>
