<?xml version="1.0" encoding="UTF-8"?>
<svg width="442" height="175.3" version="1.1" viewBox="66 376 442 175.3" xmlns="http://www.w3.org/2000/svg" xmlns:cc="http://creativecommons.org/ns#" xmlns:dc="http://purl.org/dc/elements/1.1/" xmlns:rdf="http://www.w3.org/1999/02/22-rdf-syntax-ns#">
 <metadata>
  <rdf:RDF>
   <cc:Work rdf:about="">
    <dc:format>image/svg+xml</dc:format>
    <dc:type rdf:resource="http://purl.org/dc/dcmitype/StillImage"/>
    <dc:title/>
   </cc:Work>
  </rdf:RDF>
 </metadata>
 <rect x="66.877" y="376.88" width="439.74" height="173.55" stroke="#000" stroke-width="1.7533"/>
 <rect x="66" y="376" width="21.694" height="175.3" fill="#2f2524" stroke-width="4.4101"/>
 <path d="m86.922 549.73-0.0074-172.52" fill="none" stroke="#333" stroke-linejoin="round" stroke-width="1.0653"/>
 <g transform="matrix(2.0059 0 0 2.0059 -66.878 -367.05)" stroke-width=".93615">
  <rect x="70.403" y="378.83" width="5.7113" height="1.0617" rx=".296" ry=".14465" fill="#00ff1f"/>
  <rect x="70.444" y="380.75" width="5.7113" height="1.0617" rx=".296" ry=".14465" fill="#838383"/>
  <ellipse cx="73.279" cy="383.51" rx=".71461" ry=".71523" fill="#838383"/>
 </g>
 <g fill="#fff" stroke-width="1.8778px">
  <path d="m70.362 393.54h0.17627l0.22035 0.83857 0.21939-0.83857h0.20789l0.22035 0.83857 0.21939-0.83857h0.17627l-0.28069 1.0746h-0.20789l-0.23087-0.88076-0.23183 0.88076h-0.20789l-0.28069-1.0746z"/>
  <path d="m68.39 393.33v0.53825h0.24333c0.2339 0 0.28261-0.13737 0.28261-0.26967 0-0.23223-0.18772-0.26869-0.28261-0.26869h-0.24333zm-0.19352-0.15935h0.43685c0.49022 0 0.48667 0.3419 0.48667 0.4279 0.02263 0.0876-0.02922 0.42889-0.48667 0.42889h-0.24333v0.57567h-0.19352v-1.4324z"/>
  <path d="m68.196 397.07h0.82198v0.16311h-0.62845v0.42215h0.56715v0.16312h-0.56715v0.6841h-0.19352v-1.4325z"/>
  <path d="m71.529 397h0.17627v1.4929h-0.17627z"/>
  <path d="m69.229 398.17c0.0291 0.32768 0.53031 0.2665 0.55375-0.17627v-0.0393c-0.3837 0-0.55375 0.015-0.55375 0.21564zm0.73-0.28865v0.61308h-0.17627v-0.16311c-0.32134 0.37167-0.73002 0.14263-0.73002-0.14959 0-0.39003 0.40768-0.36553 0.73-0.36553 0-0.4331-0.56799-0.23216-0.65146-0.18397v-0.16312c0.63399-0.23938 0.82773 0.0881 0.82773 0.41256z"/>
  <path d="m68.196 401.51h0.19352v1.2694h0.69647v0.16311h-0.89z"/>
  <path d="m75.203 402.03q-0.0297-0.0169-0.06515-0.025-0.03449-9e-3 -0.07663-9e-3 -0.14946 0-0.22992 0.0979-0.07952 0.097-0.07952 0.2792v0.56608h-0.17723v-1.0746h0.17723v0.16688q0.05556-0.0979 0.14465-0.14489 0.08909-0.0479 0.21652-0.0479 0.0182 0 0.04023 4e-3 0.02203 2e-3 0.04886 8e-3l9.59e-4 0.18135z"/>
 </g>
 <g transform="matrix(1.8413 0 0 1.844 -54.621 -292.51)">
  <rect x="66.097" y="364.4" width="10.428" height="4.9758" rx=".16805" ry=".081999" fill="#231f20" stroke="#000" stroke-linejoin="round" stroke-width=".2125"/>
  <path class="st1" d="m71.919 367.15c0 0.48887-0.3911 0.88609-0.86776 0.88609-0.47665 0-0.86775-0.39722-0.86775-0.88609v-0.75165s0.41555 0.10389 0.41555 0.54388v0.20777c0 0.26888 0.20166 0.48276 0.4522 0.48276 0.25055 0 0.45221-0.21388 0.45221-0.48276v-0.43388 6e-3c0.01835-0.36666 0.32999-0.48277 0.40944-0.52555h0.0064v0.95331zm-2.2305-0.87997c0.11612 0 0.22611 0.0183 0.32388 0.0611v0.46443c-0.08555-0.0733-0.20166-0.11611-0.32388-0.11611-0.27499 0-0.49498 0.21389-0.49498 0.48277v0.87386h-0.41555v-1.6011s0.17111 6e-3 0.2811 0.0856c0.15888-0.15889 0.38499-0.25055 0.62943-0.25055m-1.9922 1.3688c-0.27499 0-0.5011-0.22-0.5011-0.48888s0.2261-0.48888 0.5011-0.48888 0.50109 0.22 0.50109 0.48888-0.2261 0.48888-0.50109 0.48888m0-1.3688c-0.5011 0-0.90442 0.39721-0.90442 0.87997 0 0.48888 0.40333 0.87998 0.90442 0.87998 0.20777 0 0.39721-0.0672 0.54998-0.18333 0.09167 0.15277 0.35444 0.18333 0.35444 0.18333v-0.87998c0-0.48276-0.40333-0.87997-0.90442-0.87997m7.2293 1.3688c-0.275 0-0.5011-0.22-0.5011-0.48888s0.2261-0.48888 0.5011-0.48888c0.27499 0 0.50109 0.22 0.50109 0.48888s-0.2261 0.48888-0.50109 0.48888m0-1.3688c-0.5011 0-0.90442 0.39721-0.90442 0.87997 0 0.48888 0.40332 0.87998 0.90442 0.87998 0.20777 0 0.39721-0.0672 0.54998-0.18333 0.09167 0.15277 0.35443 0.18333 0.35443 0.18333v-0.87998c0-0.48276-0.40332-0.87997-0.90442-0.87997m-1.9188 1.3688c-0.275 0-0.5011-0.22-0.5011-0.48888s0.2261-0.48888 0.5011-0.48888c0.27499 0 0.50109 0.22 0.50109 0.48888 0.0064 0.26888-0.22 0.48888-0.50109 0.48888m0-1.3688c-0.18333 0-0.35443 0.055-0.5011 0.14666v-0.14055c-0.01835-0.36666-0.31777-0.48277-0.39721-0.52555h-0.0064v2.2855s0.26888-0.0306 0.37277-0.17722c0.15277 0.10389 0.3361 0.17111 0.53166 0.17111 0.5011 0 0.90442-0.39721 0.90442-0.87998 0.0064-0.48276-0.40332-0.87997-0.90442-0.87997" fill="#f5831f"/>
 </g>
 <rect x="87.374" y="377.34" width="10.655" height="173.6" fill="#f9f9f9"/>
 <rect x="88.852" y="381.44" width="209.18" height="32.114" rx=".64165" ry=".90888" fill="#e6e6e6" stroke-width="1.3597"/>
 <g transform="translate(-.58928)" fill="#f9f9f9">
  <rect x="287.33" y="377.34" width="9.9277" height="173.6"/>
  <rect x="297.91" y="377.34" width="10.234" height="173.6"/>
 </g>
 <path transform="translate(66,376)" d="m23.84 39.061c-0.54822 0-0.98828 0.35958-0.98828 0.80469v41.094c0 0.44512 0.44007 0.80274 0.98828 0.80274h205.02c0.54822 0 0.98828-0.35762 0.98828-0.80274v-41.094c0-0.44511-0.44006-0.80469-0.98828-0.80469h-205.02zm3.7598 5.5117a3.6599 3.6599 0 0 1 3.6602 3.6602 3.6599 3.6599 0 0 1 -3.6602 3.6602 3.6599 3.6599 0 0 1 -3.6602 -3.6602 3.6599 3.6599 0 0 1 3.6602 -3.6602z" fill="#e6e6e6" stroke-width="1.3871"/>
 <g transform="translate(-17.047 87.292)" fill-rule="evenodd" stroke="#000" stroke-linecap="round" stroke-width=".084846">
  <circle cx="309.74" cy="349.12" r="2.8437" fill="#bebebe"/>
  <circle cx="309.74" cy="349.12" r="1.1202" fill="#ececec"/>
 </g>
 <g transform="translate(-217.49 87.292)" fill-rule="evenodd" stroke="#000" stroke-linecap="round" stroke-width=".084846">
  <circle cx="309.74" cy="349.12" r="2.8437" fill="#bebebe"/>
  <circle cx="309.74" cy="349.12" r="1.1202" fill="#ececec"/>
 </g>
 <rect x="496.22" y="377.34" width="10.395" height="173.6" fill="#f9f9f9"/>
 <rect x="298.66" y="381.44" width="206.88" height="32.114" rx=".64165" ry=".90888" fill="#e6e6e6" stroke-width="1.3597"/>
 <rect x="88.852" y="381.44" width="206.85" height="27.5" rx=".64415" ry=".77829" fill="#2f2524" stroke-width="1.2607"/>
 <g transform="translate(-212.38 33.847)" fill-rule="evenodd" stroke="#000" stroke-linecap="round" stroke-width=".084846">
  <g transform="translate(191.61,10.015)">
   <circle cx="309.74" cy="349.12" r="2.8437" fill="#bebebe"/>
   <circle cx="309.74" cy="349.12" r="1.1202" fill="#ececec"/>
  </g>
  <g transform="translate(-4.2978,10.015)">
   <circle cx="309.74" cy="349.12" r="2.8437" fill="#bebebe"/>
   <circle cx="309.74" cy="349.12" r="1.1202" fill="#ececec"/>
  </g>
 </g>
 <g transform="translate(0 46.331)">
  <path transform="translate(66,376)" d="m23.84 39.061c-0.54822 0-0.98828 0.35958-0.98828 0.80469v41.094c0 0.44512 0.44007 0.80274 0.98828 0.80274h205.02c0.54822 0 0.98828-0.35762 0.98828-0.80274v-41.094c0-0.44511-0.44006-0.80469-0.98828-0.80469zm3.7598 5.5117a3.6599 3.6599 0 0 1 3.6602 3.6602 3.6599 3.6599 0 0 1 -3.6602 3.6602 3.6599 3.6599 0 0 1 -3.6602 -3.6602 3.6599 3.6599 0 0 1 3.6602 -3.6602z" fill="#e6e6e6" stroke-width="1.3871"/>
  <g transform="translate(-17.047 87.292)" fill-rule="evenodd" stroke="#000" stroke-linecap="round" stroke-width=".084846">
   <circle cx="309.74" cy="349.12" r="2.8437" fill="#bebebe"/>
   <circle cx="309.74" cy="349.12" r="1.1202" fill="#ececec"/>
  </g>
  <g transform="translate(-217.49 87.292)" fill-rule="evenodd" stroke="#000" stroke-linecap="round" stroke-width=".084846">
   <circle cx="309.74" cy="349.12" r="2.8437" fill="#bebebe"/>
   <circle cx="309.74" cy="349.12" r="1.1202" fill="#ececec"/>
  </g>
 </g>
 <g transform="translate(0 92.663)">
  <path transform="translate(66,376)" d="m23.84 39.061c-0.54822 0-0.98828 0.35958-0.98828 0.80469v41.094c0 0.44512 0.44007 0.80274 0.98828 0.80274h205.02c0.54822 0 0.98828-0.35762 0.98828-0.80274v-41.094c0-0.44511-0.44006-0.80469-0.98828-0.80469zm3.7598 5.5117a3.6599 3.6599 0 0 1 3.6602 3.6602 3.6599 3.6599 0 0 1 -3.6602 3.6602 3.6599 3.6599 0 0 1 -3.6602 -3.6602 3.6599 3.6599 0 0 1 3.6602 -3.6602z" fill="#e6e6e6" stroke-width="1.3871"/>
  <g transform="translate(-17.047 87.292)" fill-rule="evenodd" stroke="#000" stroke-linecap="round" stroke-width=".084846">
   <circle cx="309.74" cy="349.12" r="2.8437" fill="#bebebe"/>
   <circle cx="309.74" cy="349.12" r="1.1202" fill="#ececec"/>
  </g>
  <g transform="translate(-217.49 87.292)" fill-rule="evenodd" stroke="#000" stroke-linecap="round" stroke-width=".084846">
   <circle cx="309.74" cy="349.12" r="2.8437" fill="#bebebe"/>
   <circle cx="309.74" cy="349.12" r="1.1202" fill="#ececec"/>
  </g>
 </g>
 <g transform="translate(-15.436 -3.1395)">
  <g transform="translate(225.24 3.1395)">
   <path transform="translate(66,376)" d="m23.84 39.061c-0.54822 0-0.98828 0.35958-0.98828 0.80469v41.094c0 0.44512 0.44007 0.80274 0.98828 0.80274h205.02c0.54822 0 0.98828-0.35762 0.98828-0.80274v-41.094c0-0.44511-0.44006-0.80469-0.98828-0.80469zm3.7598 5.5117a3.6599 3.6599 0 0 1 3.6602 3.6602 3.6599 3.6599 0 0 1 -3.6602 3.6602 3.6599 3.6599 0 0 1 -3.6602 -3.6602 3.6599 3.6599 0 0 1 3.6602 -3.6602z" fill="#e6e6e6" stroke-width="1.3871"/>
   <g transform="translate(-17.047 87.292)" fill-rule="evenodd" stroke="#000" stroke-linecap="round" stroke-width=".084846">
    <circle cx="309.74" cy="349.12" r="2.8437" fill="#bebebe"/>
    <circle cx="309.74" cy="349.12" r="1.1202" fill="#ececec"/>
   </g>
   <g transform="translate(-217.49 87.292)" fill-rule="evenodd" stroke="#000" stroke-linecap="round" stroke-width=".084846">
    <circle cx="309.74" cy="349.12" r="2.8437" fill="#bebebe"/>
    <circle cx="309.74" cy="349.12" r="1.1202" fill="#ececec"/>
   </g>
  </g>
  <g transform="translate(225.24 49.471)">
   <path transform="translate(66,376)" d="m23.84 39.061c-0.54822 0-0.98828 0.35958-0.98828 0.80469v41.094c0 0.44512 0.44007 0.80274 0.98828 0.80274h205.02c0.54822 0 0.98828-0.35762 0.98828-0.80274v-41.094c0-0.44511-0.44006-0.80469-0.98828-0.80469zm3.7598 5.5117a3.6599 3.6599 0 0 1 3.6602 3.6602 3.6599 3.6599 0 0 1 -3.6602 3.6602 3.6599 3.6599 0 0 1 -3.6602 -3.6602 3.6599 3.6599 0 0 1 3.6602 -3.6602z" fill="#e6e6e6" stroke-width="1.3871"/>
   <g transform="translate(-17.047 87.292)" fill-rule="evenodd" stroke="#000" stroke-linecap="round" stroke-width=".084846">
    <circle cx="309.74" cy="349.12" r="2.8437" fill="#bebebe"/>
    <circle cx="309.74" cy="349.12" r="1.1202" fill="#ececec"/>
   </g>
   <g transform="translate(-217.49 87.292)" fill-rule="evenodd" stroke="#000" stroke-linecap="round" stroke-width=".084846">
    <circle cx="309.74" cy="349.12" r="2.8437" fill="#bebebe"/>
    <circle cx="309.74" cy="349.12" r="1.1202" fill="#ececec"/>
   </g>
  </g>
  <g transform="translate(225.24 95.802)">
   <path transform="translate(66,376)" d="m23.84 39.061c-0.54822 0-0.98828 0.35958-0.98828 0.80469v41.094c0 0.44512 0.44007 0.80274 0.98828 0.80274h205.02c0.54822 0 0.98828-0.35762 0.98828-0.80274v-41.094c0-0.44511-0.44006-0.80469-0.98828-0.80469zm3.7598 5.5117a3.6599 3.6599 0 0 1 3.6602 3.6602 3.6599 3.6599 0 0 1 -3.6602 3.6602 3.6599 3.6599 0 0 1 -3.6602 -3.6602 3.6599 3.6599 0 0 1 3.6602 -3.6602z" fill="#e6e6e6" stroke-width="1.3871"/>
   <g transform="translate(-17.047 87.292)" fill-rule="evenodd" stroke="#000" stroke-linecap="round" stroke-width=".084846">
    <circle cx="309.74" cy="349.12" r="2.8437" fill="#bebebe"/>
    <circle cx="309.74" cy="349.12" r="1.1202" fill="#ececec"/>
   </g>
   <g transform="translate(-217.49 87.292)" fill-rule="evenodd" stroke="#000" stroke-linecap="round" stroke-width=".084846">
    <circle cx="309.74" cy="349.12" r="2.8437" fill="#bebebe"/>
    <circle cx="309.74" cy="349.12" r="1.1202" fill="#ececec"/>
   </g>
  </g>
 </g>
 <g aria-label="A">
  <path d="m91.199 426.47h0.90062l0.47936-1.3364h1.9247l0.49389 1.3364h0.89336l-1.8957-5.026h-0.90788zm1.6705-2.1499 0.65368-1.9029 0.67547 1.9029z" stroke-width=".18158"/>
 </g>
 <g aria-label="B">
  <path d="m305.01 422.76c0-0.87157-0.69726-1.3146-1.7504-1.3146h-1.7286v5.026h1.6051c0.84978 0 1.4381-0.138 1.7722-0.414 0.3341-0.27599 0.50842-0.58831 0.50842-0.96599 0-0.68999-0.45758-1.1911-1.0459-1.3146 0.44305-0.18158 0.63916-0.58105 0.63916-1.0168zm-1.9175-0.49389c0.62463 0 1.0386 0.10169 1.0386 0.552 0 0.47936-0.43578 0.58831-1.0386 0.58831h-0.6682v-1.1403zm-0.0654 1.961c0.77715 0 1.4889 0.10168 1.4889 0.69725 0 0.68273-0.71179 0.72631-1.4889 0.72631h-0.60283v-1.4236z" stroke-width=".18158"/>
 </g>
 <g aria-label="C">
  <path d="m91.38 470.65c0 1.5761 0.99504 2.6292 2.5058 2.6292 0.51568 0 1.2202-0.138 1.823-0.37768l-0.24694-0.79168c-0.47936 0.23242-1.1185 0.34863-1.4962 0.34863-1.0168 0-1.6923-0.68273-1.6923-1.8085 0-1.0314 0.55926-1.7504 1.5906-1.7504 0.55926 0 1.0749 0.0654 1.5398 0.38494l0.24694-0.79167c-0.50842-0.31958-1.1403-0.414-1.6778-0.414-1.5979 0-2.5929 1.0096-2.5929 2.5711z" stroke-width=".18158"/>
 </g>
 <g aria-label="D">
  <path d="m305.69 470.58c0-1.5398-1.0604-2.3314-2.7164-2.3314h-1.7141v5.026h1.2638c0.57378 0 0.87883-7e-3 1.3291-0.10169 1.1621-0.32683 1.8376-1.2057 1.8376-2.5929zm-2.6946-1.5107c1.1548 0 1.8012 0.54474 1.8012 1.6342 0 1.2928-0.77715 1.7504-2.0409 1.7504h-0.60283v-3.3846z" stroke-width=".18158"/>
 </g>
 <g aria-label="E">
  <path d="m91.903 519.28h3.2829v-0.82073h-2.3896v-1.4236h2.1281v-0.82073h-2.1281v-1.1403h2.3896v-0.82072h-3.2829z" stroke-width=".18158"/>
 </g>
 <g aria-label="F">
  <path d="m302.74 515.07h2.3605v-0.82072h-3.2539v5.026h0.89336v-1.9102h2.07v-0.82073h-2.07z" stroke-width=".18158"/>
 </g>
 <text x="284.5499" y="405.02838" fill="#000000" font-family="sans-serif" font-size="40px" letter-spacing="0px" word-spacing="0px" style="line-height:1.25" xml:space="preserve"><tspan x="284.5499" y="440.41901"/></text>
 <g fill="#fff">
  <g stroke-width="1.8778px">
   <path d="m69.699 393.65c-0.2388 0-0.30657 0.18006-0.30657 0.41443s0.10419 0.41446 0.30657 0.41446 0.30561-0.17752 0.30561-0.41444c0-0.19773-0.06681-0.41445-0.30562-0.41445zm0-0.14958c0.33005 0 0.49243 0.24194 0.49243 0.56407s-0.16071 0.56406-0.49243 0.56406-0.49243-0.20645-0.49243-0.56406 0.16238-0.56407 0.49243-0.56407z"/>
   <path d="m72.968 394.03v0.0864h-0.81048c0 0.293 0.21752 0.37314 0.3832 0.37314 0.14419 0.0199 0.26642-0.0689 0.38607-0.0998v0.16687c-0.12568 0.0723-0.24014 0.0825-0.39662 0.0825-0.42937 0-0.5566-0.31021-0.5566-0.55447 0-0.41993 0.28395-0.57373 0.52594-0.57373 0.39992 0 0.46847 0.35241 0.46847 0.51899zm-0.17627-0.0519c0-0.2163-0.14395-0.31764-0.29029-0.31764-0.27113 0-0.33819 0.23235-0.33819 0.31847l0.62845-9.6e-4z"/>
   <path d="m73.859 393.71c-0.33889-0.13125-0.45122 0.14148-0.45122 0.34309v0.56607h-0.17723v-1.0746h0.17723v0.16687c0.13522-0.196 0.31068-0.21148 0.45026-0.18079l9.59e-4 0.18134z"/>
   <path d="m69.643 401.99c-0.2388 0-0.30657 0.18006-0.30657 0.41443s0.10419 0.41446 0.30657 0.41446 0.30561-0.17752 0.30561-0.41444c0-0.19773-0.06681-0.41445-0.30562-0.41445zm0-0.14958c0.33005 0 0.49243 0.24194 0.49243 0.56407s-0.16071 0.56406-0.49243 0.56406-0.49243-0.20645-0.49243-0.56406 0.16238-0.56407 0.49243-0.56407z"/>
   <path d="m70.285 398.07v-0.65052h0.17627v0.64379c0 0.43623 0.42777 0.2944 0.46271 0.2138 0.05557-0.0607 0.08335-0.14356 0.08335-0.24849v-0.60924h0.17627v1.0746h-0.17627v-0.165c-0.2316 0.34259-0.72235 0.21509-0.72235-0.25912z"/>
   <path d="m72.227 397.11v0.30511h0.36309v0.13719h-0.36309v0.58335c0 0.20121 0.07099 0.20634 0.18202 0.20634h0.18107v0.1477h-0.18107c-0.32873 0-0.35924-0.14321-0.35924-0.35394v-0.58335h-0.12932v-0.13718h0.12932v-0.30511h0.17723z"/>
   <path d="m73.818 401.99c-0.2388 0-0.30657 0.18006-0.30657 0.41443s0.10419 0.41446 0.30657 0.41446 0.30561-0.17752 0.30561-0.41444c0-0.19773-0.06681-0.41445-0.30562-0.41445zm0-0.14958c0.33005 0 0.49243 0.24194 0.49243 0.56407s-0.16071 0.56406-0.49243 0.56406-0.49243-0.20645-0.49243-0.56406 0.16238-0.56407 0.49243-0.56407z"/>
   <path d="m71.577 402.63c0.0291 0.32768 0.53031 0.2665 0.55375-0.17627v-0.0393c-0.3837 0-0.55375 0.015-0.55375 0.21564zm0.73-0.28865v0.61308h-0.17627v-0.16311c-0.32134 0.37167-0.73002 0.14263-0.73002-0.14959 0-0.39003 0.40768-0.36553 0.73-0.36553 0-0.4331-0.56799-0.23216-0.65146-0.18397v-0.16312c0.63399-0.23938 0.82773 0.0881 0.82773 0.41256z"/>
   <path d="m72.826 401.56v0.30511h0.36309v0.13719h-0.36309v0.58335c0 0.20121 0.07099 0.20634 0.18202 0.20634h0.18107v0.1477h-0.18107c-0.32873 0-0.35924-0.14321-0.35924-0.35394v-0.58335h-0.12932v-0.13718h0.12932v-0.30511h0.17723z"/>
   <path d="m71.178 401.9v0.165c-0.6558-0.28049-0.64901 0.25177-0.66296 0.33186 0 0.57515 0.56896 0.38627 0.66296 0.332v0.16311c-0.62057 0.19105-0.84571-0.11734-0.8488-0.4954 0.0209-0.50707 0.35885-0.65983 0.8488-0.49752z"/>
  </g>
  <circle cx="94.296" cy="400.32" r="4.2136" stroke-width="1.1864"/>
 </g>
 <g transform="translate(2.1065 -4.1528)" aria-label="1">
  <path d="m92.763 406.16v-4.2053h-0.87157l-1.4889 0.66094 0.28326 0.71178 1.1839-0.52294v3.3555h-1.3437v0.82073h3.45v-0.82073z" stroke-width=".18158"/>
 </g>
 <g transform="translate(.84572)">
  <rect x="297.81" y="381.44" width="206.88" height="27.352" rx=".64415" ry=".77829" fill="#2f2524" stroke-width="1.2607"/>
  <g transform="translate(-1.7037 33.847)" fill-rule="evenodd" stroke="#000" stroke-linecap="round" stroke-width=".084846">
   <g transform="translate(191.61,10.015)">
    <circle cx="309.74" cy="349.12" r="2.8437" fill="#bebebe"/>
    <circle cx="309.74" cy="349.12" r="1.1202" fill="#ececec"/>
   </g>
   <g transform="translate(-4.2978,10.015)">
    <circle cx="309.74" cy="349.12" r="2.8437" fill="#bebebe"/>
    <circle cx="309.74" cy="349.12" r="1.1202" fill="#ececec"/>
   </g>
  </g>
  <circle cx="305.07" cy="400.32" r="4.2136" fill="#fff" stroke-width="1.1864"/>
  <g transform="translate(2.922 -3.2521)" aria-label="2">
   <path d="m300.43 401.52 0.37768 0.71905c0.34136-0.21789 0.6682-0.414 1.2129-0.414 0.55926 0 0.89336 0.23968 0.89336 0.72631 0 0.53021-0.55926 1.242-2.3242 3.0214v0.55926h3.2684v-0.77715h-1.9538c1.5398-1.6487 1.9029-2.1571 1.9029-2.8399 0-0.91514-0.74084-1.5107-1.6923-1.5107-0.79168 0-1.1911 0.22516-1.685 0.51568z" stroke-width=".18158"/>
  </g>
 </g>
</svg>
