<svg width="254" height="43.9" version="1.1" viewBox="66 376 254 43.9" xmlns="http://www.w3.org/2000/svg">
 <rect x="66.248" y="376.25" width="253.5" height="44.003" fill="#2f2524" fill-rule="evenodd" stroke="#000" stroke-linecap="round" stroke-miterlimit="4.4" stroke-width=".49672" style="fill:#242323"/>
 <rect x="187.37" y="385.58" width="87.248" height="27.121" rx=".31701" ry=".13971" fill="#3a3a3a" stroke="#000" stroke-width=".5"/>
 <path d="m259.61 387.35v1.416h3.291v-1.416zm-70.75 4e-3v1.416h3.291v-1.416zm14.039 2e-3v1.416h3.291v-1.416zm14.191 0v1.416h3.293v-1.416zm14.193 0v1.416h3.291v-1.416zm14.186 4e-3v1.416h3.291v-1.416zm-46.4 2e-3v1.4082h3.2617v-1.4085zm14.037 2e-3v1.4082h3.2637v-1.4082zm14.193 0v1.4082h3.2617v-1.4082zm14.191 0v1.4082h3.2637v-1.4082zm14.199 0v1.4082h3.2617v-1.4082zm14.141 0.0137v1.4082h3.2637v-1.4082z" fill="#abb927" style="fill:#abb980"/>
 <path d="m272.85 408.96h-3.2978v2.0044l-1.2023 1e-3v0.75051h-3.8753l9.1e-4 -0.75247h-1.2515v-2.0046l-7.7162-8.1e-4v2.0044l-1.1963 1e-3v0.75051h-3.8753l9.1e-4 -0.75247h-1.2515v-2.0046l-7.8635 1e-3v2.0044l-1.2023 1e-3v0.75051h-3.8753l9e-4 -0.75247h-1.2514v-2.0046l-7.8634 1e-3v2.0044l-1.2023 1e-3v0.75051h-3.8753l9e-4 -0.75247h-1.2515v-2.0046l-7.8662 4e-3v2.0045l-1.1963 1e-3v0.75074h-3.8752l8.8e-4 -0.75247h-1.2514v-2.0047l-7.8348-0.0187v2.0045l-1.1963 9.9e-4v0.75053h-3.8752l9.1e-4 -0.75247h-1.2514v-2.0047h-3.2885l-0.019-19.647h3.3038l-6e-3 -2.0044 1.2023-1e-3v-0.75051h3.8753l-9e-4 0.75247h1.2515v2.0046l7.7162 8e-4 -6e-3 -2.0044 1.2023-1e-3v-0.75051h3.8753l-9e-4 0.75247h1.2515v2.0046l7.8695-1e-3 -6e-3 -2.0044 1.2023-1e-3v-0.75051h3.8753l-9e-4 0.75247h1.2515v2.0046l7.8694-1e-3 -6e-3 -2.0044 1.2023-1e-3v-0.75051h3.8753l-9e-4 0.75247h1.2515v2.0046l7.8662-4e-3 -6e-3 -2.0045 1.2023-9.9e-4v-0.75057h3.8752l-8.8e-4 0.75247h1.2514v2.0047l7.8348 0.0187-6e-3 -2.0045 1.2023-9.9e-4v-0.75053h3.8752l-9.1e-4 0.75247h1.2514v2.0047h3.2885z" fill="#1a1a1a"/>
 <path d="m192.96 385.98-5.262 2e-3 4e-3 26.298 5.2855 2e-3v-1.2647l-0.55135 2e-3v-1.6515h-3.2782v-8.978l12.917-8e-3 2e-3 8.986h-3.2975v1.6513l-0.50877-2e-3v1.2647h8.7566v-1.2647l-0.41303 2e-3v-1.6513h-3.4186l2e-3 -8.9782 12.917-8e-3v8.986l-3.1784 0.0137v1.6376l-0.62786-2e-3v1.2647h8.9106v-1.2647l-0.41654 2e-3v-1.6376l-3.415-0.0137 2e-3 -8.9782 12.917-8e-3v8.986l-3.1758 0.0137v1.6376l-0.62852-2e-3v1.2647h8.9086v-1.2647l-0.41668 2e-3v-1.6376l-3.413-0.0137v-8.9782l12.917-8e-3v8.986l-3.176 0.0137v1.6376l-0.62839-2e-3v1.2647h8.9088v-1.2647l-0.41691 2e-3v-1.6376l-3.4127-0.0137v-8.9782l12.917-8e-3 2e-3 8.986-3.1841 0.0137v1.6376l-0.62213-2e-3v1.2647h8.8733v-1.2647l-0.53497 2e-3v-1.6376l-3.2966-0.0137 2e-3 -9.0328 12.918-0.0295v9.0621l-3.2952 0.0137v1.6376l-0.50912-2e-3v1.2647l5.262-2e-3 -4e-3 -26.298-5.2875-2e-3v1.2647l4.2506-2e-3v1.6376l-0.42096 0.0137v8.9782l-12.917 8e-3v-8.986l-0.42096-0.0137v-1.6376l4.2253 2e-3v-1.2636h-8.8734v1.2647l4.2506-2e-3v1.6376l-0.41901 0.0137-2e-3 9.0328-12.916 0.0276-2e-3 -9.0601-0.41902-0.0137v-1.6376l4.2253 2e-3v-1.2647h-8.9106v1.2647l4.2506-2e-3v1.6376l-0.41901 0.0137-2e-3 9.0328-0.01 0.01-12.908 0.0176v-9.0601l-0.41899-0.0137v-1.6376l4.2253 2e-3v-1.2647h-8.9105v1.2647l4.2506-2e-3v1.6376l-0.42097 0.0137v9.0328l-12.918 0.0274v-9.0601l-0.41902-0.0137v-1.6376l4.2233 2e-3v-1.2647h-8.9088v1.2647l4.2486-2e-3v1.6376l-0.41901 0.0137v9.0328l-12.918 0.0276v-9.0601l-0.42097-0.0137v-1.6376l4.2253 2e-3v-1.2647h-8.7566v1.2647l4.2506-2e-3v1.6376l-0.41902 0.0137-2e-3 9.0328-12.916 0.0276-2e-3 -9.0601-0.41899-0.0137v-1.6376l4.2253 2e-3z" fill="#ebebeb"/>
 <text transform="scale(1.0397 .96177)" x="74.660637" y="391.9072" fill="#ffffff" font-family="sans-serif" font-size="2.4768px" font-weight="700"/>
 <text transform="scale(1.0003 .99968)" x="79.690422" y="368.06918" fill="#000000" font-family="sans-serif" font-size="21.25px" letter-spacing="0px" stroke-width="1px" word-spacing="0px" style="line-height:125%" xml:space="preserve"/>
 <path class="st1" d="m312.27 382.48c0 0.68297-0.54634 1.2378-1.2122 1.2378-0.66581 0-1.2122-0.55485-1.2122-1.2378v-1.0501s0.58058 0.14514 0.58058 0.75978v0.29028c0 0.3756 0.28172 0.67436 0.63165 0.67436 0.35003 0 0.63175-0.29876 0.63175-0.67436v-0.6061 9e-3c0.0257-0.51222 0.461-0.6744 0.57198-0.73419h0.0101v1.3318zm-3.1159-1.2293c0.16226 0 0.31588 0.0256 0.45248 0.0851v0.64879c-0.11956-0.10241-0.28172-0.16224-0.45248-0.16224-0.38418 0-0.69144 0.29885-0.69144 0.67442v1.2208h-0.58049v-2.2366s0.23898 9e-3 0.39269 0.11956c0.22193-0.22195 0.53781-0.35003 0.87924-0.35003m-2.7831 1.9122c-0.38409 0-0.69998-0.30737-0.69998-0.68294 0-0.37566 0.31587-0.68294 0.69998-0.68294 0.38419 0 0.70004 0.30728 0.70004 0.68294 0 0.37557-0.31587 0.68294-0.70004 0.68294m0-1.9122c-0.69998 0-1.2634 0.55494-1.2634 1.2294 0 0.68294 0.56346 1.2293 1.2634 1.2293 0.29023 0 0.55493-0.0943 0.76834-0.25609 0.12801 0.21342 0.49516 0.25609 0.49516 0.25609v-1.2293c0-0.6744-0.56346-1.2293-1.2635-1.2293m10.099 1.9122c-0.38419 0-0.70006-0.30737-0.70006-0.68294 0-0.37566 0.31587-0.68294 0.70006-0.68294 0.38409 0 0.69996 0.30728 0.69996 0.68294 0 0.37557-0.31587 0.68294-0.69996 0.68294m0-1.9122c-0.70006 0-1.2635 0.55494-1.2635 1.2293 0 0.68295 0.56345 1.2293 1.2635 1.2293 0.29024 0 0.55485-0.0943 0.76826-0.25609 0.1281 0.21342 0.49514 0.25609 0.49514 0.25609v-1.2293c0-0.6744-0.56344-1.2293-1.2634-1.2293m-2.6805 1.9122c-0.38418 0-0.70005-0.30737-0.70005-0.68294 0-0.37566 0.31587-0.68294 0.70005-0.68294 0.38409 0 0.69996 0.30728 0.69996 0.68294 0.0101 0.37557-0.30728 0.68294-0.69996 0.68294m0-1.9122c-0.2561 0-0.49514 0.0769-0.70005 0.2049v-0.19631c-0.0257-0.51226-0.44388-0.67441-0.55486-0.73421h-0.0101v3.1928s0.37566-0.0431 0.52079-0.24757c0.21342 0.14512 0.46952 0.23906 0.7427 0.23906 0.70001 0 1.2635-0.55487 1.2635-1.2293 0.0101-0.6744-0.56345-1.2293-1.2635-1.2293" fill="#f5831f" style="stroke-width:1.397"/>
 <g transform="matrix(1.8829 0 0 1.8829 -443.92 -331.69)">
  <g transform="matrix(0,-1.3729,1.3727,0,43.123,1033.3)">
   <rect x="464.5" y="172.59" width="4" height="5.6"/>
   <polygon points="468.3 177.99 468.3 172.79 464.7 172.79 464.7 174.19 464.9 174.19 464.9 176.79 464.7 176.79 464.7 177.99" fill="none" stroke="#ccc" stroke-width=".1"/>
  </g>
 </g>
 <g transform="matrix(1.8829 0 0 1.8829 -417.58 -332.15)">
  <g transform="matrix(0,-1.3729,1.3727,0,43.123,1033.3)">
   <rect x="464.5" y="172.59" width="4" height="5.6"/>
   <polygon points="464.7 176.79 464.7 177.99 468.3 177.99 468.3 172.79 464.7 172.79 464.7 174.19 464.9 174.19 464.9 176.79" fill="none" stroke="#ccc" stroke-width=".1"/>
  </g>
 </g>
 <g transform="translate(36.02 56.476)">
  <rect x="129.18" y="342.84" width="15.83" height="13.388" fill="#3a3a3a" stroke="#000" stroke-width=".5"/>
  <g transform="matrix(1.8884 0 0 1.8726 8.0382 11.793)">
   <path d="m64.912 178.62h1.7532l-0.0026-1.0712 0.63806-5.7e-4v-0.40106h2.0566l-4.83e-4 0.40211h0.66414v1.0712h1.7452v4.6119l-6.8535 0.015z"/>
   <path d="m70.173 178.34h1.7316v-0.75298h-1.7316z" fill="#abb927" style="fill:#abb980"/>
   <path d="m64.756 178.34h1.7468v-0.7569h-1.7468z" fill="#abb927" style="fill:#abb980"/>
   <path d="m72.539 183.87 2e-3 -7.0242-2.8056-9.6e-4v0.67597l2.2553-1e-3v0.87506l-0.22259 7e-3 -5.64e-4 4.8323c-2.3858 9.4e-4 -4.8121 0.0124-6.8546 0.0128v4e-5l-4.83e-4 -4.8452-0.22259-7e-3v-0.87506l2.242 1e-3v-0.67597l-2.7924 9.6e-4c4.08e-4 2.3412 0.0022 4.6824 0.0022 7.0237 2.7992 3.3e-4 5.5983 6.8e-4 8.3975 1e-3z" fill="#ebebeb"/>
  </g>
 </g>
 <g transform="translate(-28.722 44.84)">
  <rect x="165.21" y="354.47" width="15.83" height="13.388" fill="#3a3a3a" stroke="#000" stroke-width=".5"/>
  <g transform="translate(-70.574 -43.166)" stroke-width="1.8805">
   <path d="m237.22 401.08h3.3107l-5e-3 -2.0059 1.2049-1e-3v-0.75103h3.8836l-9.1e-4 0.75299h1.2541v2.0059h3.2956v8.6362l-12.942 0.0281z"/>
   <path transform="translate(66,376)" d="m170.93 23.137v1.418h3.2988v-1.418zm10.23 0.0078v1.4102h3.2695v-1.4102z" fill="#abb927" style="fill:#abb980"/>
   <path d="m251.63 410.91 4e-3 -13.154-5.298-2e-3v1.2658l4.2588-2e-3v1.6386l-0.42033 0.0131-1e-3 9.049c-4.5052 2e-3 -9.087 0.0232-12.944 0.024v8e-5l-9.2e-4 -9.0731-0.42033-0.0131v-1.6386l4.2337 2e-3v-1.2658l-5.2731 2e-3c7.7e-4 4.3841 4e-3 8.7683 4e-3 13.153 5.2859 6.2e-4 10.572 1e-3 15.858 2e-3z" fill="#ebebeb"/>
  </g>
 </g>
 <ellipse cx="300.55" cy="415.51" rx=".68836" ry=".68835" style="stroke-width:1.883"/>
 <g transform="translate(-3.5796 2.0884)">
  <g transform="matrix(1.7724 0 0 1.7724 160.93 -278.42)" style="fill:#fff;stroke-width:1px">
   <path d="m80.574 391.58h-0.43193c0.02389 0.27384 0.26585 0.20128 0.40997 0.14546v0.0888c-0.34155 0.11706-0.50576-0.0228-0.50801-0.25115 0.0195-0.44127 0.57742-0.37112 0.52997 0.0169zm-0.09394-0.0736c0-0.26154-0.33518-0.187-0.33493 4.4e-4l0.33492-5.1e-4z"/>
   <path d="m79.781 391.48c0.02213 7e-3 0.04357 0.0235 0.06433 0.048 0.07112 0.0938 0.10861 0.20005 0.16797 0.30939h-0.11079c-0.10882-0.25006-0.17104-0.29714-0.17104-0.29714-0.06695-0.0417-0.1319-0.0158-0.20882-0.025v0.32216h-0.10313v-0.76226h0.23281c0.407 0.0116 0.24895 0.41133 0.12865 0.40488zm-0.25834-0.32011v0.27059h0.12968c0.23582 0 0.18073-0.28821 0-0.27058h-0.12968z"/>
  </g>
  <g stroke-width="1.7723px">
   <path d="m304.64 415.08v0.15739c-0.45982-0.17528-0.55199 0.0234-0.55199 0.0756 0 0.23661 0.60627 0.0774 0.60627 0.47047 0 0.3532-0.42089 0.33778-0.77457 0.24302v-0.17192c0.28798 0.16624 0.60356 0.10656 0.60356-0.0579 0-0.27464-0.59633-0.0544-0.59633-0.47298 0-0.39313 0.50516-0.29505 0.71306-0.24364z" style="fill:#fff"/>
   <path d="m306.23 414.76v0.28775h0.34296v0.12938h-0.34296v0.55017c0 0.17227 0.0392 0.19461 0.17192 0.19461h0.17104v0.1393h-0.17104c-0.32811 0-0.32842-0.17174-0.33931-0.33384v-0.55017h-0.12215v-0.12939h0.12215v-0.28774h0.16739z" style="fill:#fff"/>
   <path d="m305.8 415.6h-0.76554c0.0423 0.48535 0.47119 0.35673 0.72662 0.25781v0.15738c-0.60536 0.20747-0.89638-0.0404-0.90038-0.44513 0.0346-0.7821 1.0234-0.65776 0.9393 0.03zm-0.1665-0.13045c0-0.46354-0.59405-0.33143-0.59362 7.8e-4l0.59361-9.1e-4z" style="fill:#fff"/>
  </g>
 </g>
 <g transform="translate(-3.6156 4.4518)">
  <g transform="matrix(1.8829 0 0 1.8829 161.43 -306.4)" style="fill:#fff;stroke-width:1px">
   <path d="m81.641 379.31h0.09394v0.79442h-0.09394z"/>
   <path d="m79.049 379.4v0.10874c-0.29196-0.229-0.50596-0.0296-0.50596 0.21447 0 0.34281 0.29488 0.38554 0.50596 0.21397v0.10773c-0.3171 0.18308-0.61472 8e-3 -0.61472-0.32167 0-0.41585 0.38897-0.46115 0.61471-0.32318z"/>
   <path d="m79.417 379.59c-0.11209 0-0.16338 0.11227-0.16338 0.22053s0.04897 0.22055 0.16338 0.22055 0.16287-0.0957 0.16287-0.22054c0-0.12481-0.05078-0.22054-0.16287-0.22054zm0-0.0797c0.17695 0 0.26243 0.12934 0.26243 0.30026s-0.09137 0.30016-0.26243 0.30016-0.26242-0.13107-0.26242-0.30016 0.08547-0.30026 0.26242-0.30026z"/>
   <path d="m80.299 379.75v0.34513h-0.09394v-0.34207c0-0.24817-0.29051-0.18786-0.29051 0.0189v0.32318h-0.09445v-0.57182h0.09445v0.0888c0.10808-0.15989 0.38859-0.13884 0.38444 0.13791z"/>
   <path d="m80.842 379.54v0.0888c-0.17363-0.066-0.31144-0.0447-0.31144 0.0449 0 0.13687 0.34207 0.0322 0.34207 0.26325 0 0.19222-0.22901 0.18911-0.43703 0.13711v-0.097c0.14178 0.0831 0.34054 0.0696 0.34054-0.0326 0-0.14532-0.33646-0.0276-0.33646-0.26686 0-0.18632 0.22762-0.1911 0.40232-0.13748z"/>
   <path d="m82.409 379.79v0.046h-0.43193c0.03632 0.28994 0.29765 0.19776 0.40997 0.14546v0.0888c-0.33744 0.11738-0.50801-0.0249-0.50801-0.25115 0-0.16908 0.10366-0.30531 0.28029-0.30531s0.24233 0.14201 0.24966 0.27617zm-0.09394-0.0276c0-0.13993-0.09002-0.16905-0.1547-0.16905s-0.18023 0.0296-0.18023 0.16949l0.33492-5.1e-4z"/>
  </g>
  <path d="m314.39 408.36c-0.21107 0-0.30764 0.2114-0.30764 0.41525 0 0.20386 0.0923 0.41529 0.30764 0.41529 0.21542 0 0.30668-0.1802 0.30668-0.41527 0-0.235-0.0956-0.41527-0.30668-0.41527zm0-0.15007c0.33319 0 0.49414 0.24355 0.49414 0.56538 0 0.32184-0.17205 0.56519-0.49414 0.56519-0.3221 0-0.49412-0.2468-0.49412-0.56519s0.16093-0.56538 0.49412-0.56538z" style="fill:#fff;stroke-width:1.8829px"/>
 </g>
 <g transform="matrix(.022663 0 0 .022663 304.19 415.59)" style="clip-rule:evenodd;fill-rule:evenodd;stroke-linecap:round;stroke-linejoin:round;stroke-miterlimit:1.5">
  <path d="m353-5e-3c27.596 0 50 22.404 50 50 0 27.595-22.404 49.999-50 50h-260c-27.596 0-50-22.404-50-50s22.404-50 50-50z" style="stroke-width:8px;stroke:#ccc"/>
 </g>
 <g transform="matrix(0 -1.6739 2.3004 0 -595.26 652.28)">
  <path d="m144.46 390.56h7.7398v-2.6354h-7.7398z"/>
  <path d="m144.46 390.56h7.7398v-2.6355h-7.7398z" style="fill:none;stroke-linecap:round;stroke-linejoin:round;stroke-miterlimit:4.4615;stroke-width:.033916;stroke:#535353"/>
  <path d="m144.92 388.34h6.8413v0.9015h-6.8413z" style="fill-rule:evenodd;fill:#a09a9a"/>
  <path d="m145.15 389.01h6.3819v-0.43973h-6.3819z" style="fill:#505050"/>
 </g>
 <g transform="translate(-252.46 -.28224)">
  <circle cx="326.65" cy="387.75" r=".9"/>
  <circle cx="329.75" cy="387.75" r=".9"/>
  <circle cx="332.86" cy="387.75" r=".9"/>
  <circle cx="335.96" cy="387.75" r=".9"/>
  <circle cx="339.07" cy="387.75" r=".9"/>
  <circle cx="342.17" cy="387.75" r=".9"/>
  <circle cx="345.28" cy="387.75" r=".9"/>
  <circle cx="348.38" cy="387.75" r=".9"/>
  <circle cx="351.49" cy="387.75" r=".9"/>
  <circle cx="354.59" cy="387.75" r=".9"/>
  <circle cx="357.69" cy="387.75" r=".9"/>
  <circle cx="360.8" cy="387.75" r=".9"/>
  <circle cx="363.9" cy="387.75" r=".9"/>
  <circle cx="367.01" cy="387.75" r=".9"/>
  <circle cx="370.11" cy="387.75" r=".9"/>
  <circle cx="373.22" cy="387.75" r=".9"/>
  <circle cx="376.32" cy="387.75" r=".9"/>
  <circle cx="379.42" cy="387.75" r=".9"/>
  <circle cx="382.53" cy="387.75" r=".9"/>
  <circle cx="385.63" cy="387.75" r=".9"/>
  <circle cx="388.74" cy="387.75" r=".9"/>
  <circle cx="391.84" cy="387.75" r=".9"/>
  <circle cx="394.95" cy="387.75" r=".9"/>
  <circle cx="398.05" cy="387.75" r=".9"/>
 </g>
 <g transform="translate(0 -44.039)">
  <circle cx="77.133" cy="459.43" r=".9"/>
  <circle cx="81.239" cy="459.43" r=".9"/>
  <circle cx="85.344" cy="459.43" r=".9"/>
  <circle cx="89.45" cy="459.43" r=".9"/>
  <circle cx="93.555" cy="459.43" r=".9"/>
  <circle cx="97.661" cy="459.43" r=".9"/>
  <circle cx="101.77" cy="459.43" r=".9"/>
  <circle cx="105.87" cy="459.43" r=".9"/>
  <circle cx="109.98" cy="459.43" r=".9"/>
  <circle cx="114.08" cy="459.43" r=".9"/>
  <circle cx="118.19" cy="459.43" r=".9"/>
  <circle cx="122.29" cy="459.43" r=".9"/>
  <circle cx="126.4" cy="459.43" r=".9"/>
  <circle cx="130.5" cy="459.43" r=".9"/>
 </g>
 <g transform="translate(-252.46 2.8002)">
  <circle cx="326.65" cy="387.75" r=".9"/>
  <circle cx="329.75" cy="387.75" r=".9"/>
  <circle cx="332.86" cy="387.75" r=".9"/>
  <circle cx="335.96" cy="387.75" r=".9"/>
  <circle cx="339.07" cy="387.75" r=".9"/>
  <circle cx="342.17" cy="387.75" r=".9"/>
  <circle cx="345.28" cy="387.75" r=".9"/>
  <circle cx="348.38" cy="387.75" r=".9"/>
  <circle cx="351.49" cy="387.75" r=".9"/>
  <circle cx="354.59" cy="387.75" r=".9"/>
  <circle cx="357.69" cy="387.75" r=".9"/>
  <circle cx="360.8" cy="387.75" r=".9"/>
  <circle cx="363.9" cy="387.75" r=".9"/>
  <circle cx="367.01" cy="387.75" r=".9"/>
  <circle cx="370.11" cy="387.75" r=".9"/>
  <circle cx="373.22" cy="387.75" r=".9"/>
  <circle cx="376.32" cy="387.75" r=".9"/>
  <circle cx="379.42" cy="387.75" r=".9"/>
  <circle cx="382.53" cy="387.75" r=".9"/>
  <circle cx="385.63" cy="387.75" r=".9"/>
  <circle cx="388.74" cy="387.75" r=".9"/>
  <circle cx="391.84" cy="387.75" r=".9"/>
  <circle cx="394.95" cy="387.75" r=".9"/>
  <circle cx="398.05" cy="387.75" r=".9"/>
 </g>
 <g transform="translate(-252.46 5.8827)">
  <circle cx="326.65" cy="387.75" r=".9"/>
  <circle cx="329.75" cy="387.75" r=".9"/>
  <circle cx="332.86" cy="387.75" r=".9"/>
  <circle cx="335.96" cy="387.75" r=".9"/>
  <circle cx="339.07" cy="387.75" r=".9"/>
  <circle cx="342.17" cy="387.75" r=".9"/>
  <circle cx="345.28" cy="387.75" r=".9"/>
  <circle cx="348.38" cy="387.75" r=".9"/>
  <circle cx="351.49" cy="387.75" r=".9"/>
  <circle cx="354.59" cy="387.75" r=".9"/>
  <circle cx="357.69" cy="387.75" r=".9"/>
  <circle cx="360.8" cy="387.75" r=".9"/>
  <circle cx="363.9" cy="387.75" r=".9"/>
  <circle cx="367.01" cy="387.75" r=".9"/>
  <circle cx="370.11" cy="387.75" r=".9"/>
  <circle cx="373.22" cy="387.75" r=".9"/>
  <circle cx="376.32" cy="387.75" r=".9"/>
  <circle cx="379.42" cy="387.75" r=".9"/>
  <circle cx="382.53" cy="387.75" r=".9"/>
  <circle cx="385.63" cy="387.75" r=".9"/>
  <circle cx="388.74" cy="387.75" r=".9"/>
  <circle cx="391.84" cy="387.75" r=".9"/>
  <circle cx="394.95" cy="387.75" r=".9"/>
  <circle cx="398.05" cy="387.75" r=".9"/>
 </g>
 <circle cx="74.195" cy="396.71" r=".9"/>
 <circle cx="77.299" cy="396.71" r=".9"/>
 <circle cx="80.403" cy="396.71" r=".9"/>
 <circle cx="83.508" cy="396.71" r=".9"/>
 <circle cx="86.612" cy="396.71" r=".9"/>
 <circle cx="89.717" cy="396.71" r=".9"/>
 <circle cx="92.821" cy="396.71" r=".9"/>
 <circle cx="95.925" cy="396.71" r=".9"/>
 <circle cx="99.03" cy="396.71" r=".9"/>
 <circle cx="102.13" cy="396.71" r=".9"/>
 <circle cx="105.24" cy="396.71" r=".9"/>
 <circle cx="108.34" cy="396.71" r=".9"/>
 <circle cx="111.45" cy="396.71" r=".9"/>
 <circle cx="114.55" cy="396.71" r=".9"/>
 <circle cx="117.66" cy="396.71" r=".9"/>
 <circle cx="120.76" cy="396.71" r=".9"/>
 <circle cx="123.86" cy="396.71" r=".9"/>
 <circle cx="126.97" cy="396.71" r=".9"/>
 <circle cx="130.07" cy="396.71" r=".9"/>
 <circle cx="133.18" cy="396.71" r=".9"/>
 <circle cx="130.07" cy="399.8" r=".9"/>
 <circle cx="133.18" cy="399.8" r=".9"/>
 <circle cx="74.195" cy="399.8" r=".9"/>
 <circle cx="77.299" cy="399.8" r=".9"/>
 <rect x="306.12" y="416.42" width="6.2557" height=".60482" rx=".37795" style="fill:#e6e6e6"/>
 <path transform="matrix(.15722 -.27231 .27231 .15722 257 406.3)" d="m7.2091-138.76-0.99098-1.8369-1.0953-1.7767 2.0863 0.0602 2.0863-0.0602-1.0953 1.7767z" style="fill:#fff;stroke-linejoin:round;stroke-opacity:.99692;stroke-width:1.2651;stroke:#fff"/>
 <path transform="matrix(.31444 0 0 .31444 224.76 426.15)" d="m7.2091-138.76-0.99098-1.8369-1.0953-1.7767 2.0863 0.0602 2.0863-0.0602-1.0953 1.7767z" style="fill:#fff;stroke-linejoin:round;stroke-opacity:.99692;stroke-width:1.2651;stroke:#fff"/>
 <path transform="matrix(.15722 -.27231 .27231 .15722 271.79 406.3)" d="m7.2091-138.76-0.99098-1.8369-1.0953-1.7767 2.0863 0.0602 2.0863-0.0602-1.0953 1.7767z" style="fill:#fff;stroke-linejoin:round;stroke-opacity:.99692;stroke-width:1.2651;stroke:#fff"/>
 <path transform="matrix(.31444 0 0 .31444 238.92 426.15)" d="m7.2091-138.76-0.99098-1.8369-1.0953-1.7767 2.0863 0.0602 2.0863-0.0602-1.0953 1.7767z" style="fill:#fff;stroke-linejoin:round;stroke-opacity:.99692;stroke-width:1.2651;stroke:#fff"/>
 <path transform="matrix(.15722 -.27231 .27231 .15722 286.12 406.3)" d="m7.2091-138.76-0.99098-1.8369-1.0953-1.7767 2.0863 0.0602 2.0863-0.0602-1.0953 1.7767z" style="fill:#fff;stroke-linejoin:round;stroke-opacity:.99692;stroke-width:1.2651;stroke:#fff"/>
 <path transform="matrix(.31444 0 0 .31444 252.83 426.15)" d="m7.2091-138.76-0.99098-1.8369-1.0953-1.7767 2.0863 0.0602 2.0863-0.0602-1.0953 1.7767z" style="fill:#fff;stroke-linejoin:round;stroke-opacity:.99692;stroke-width:1.2651;stroke:#fff"/>
 <path transform="matrix(.15722 -.27231 .27231 .15722 300.69 406.3)" d="m7.2091-138.76-0.99098-1.8369-1.0953-1.7767 2.0863 0.0602 2.0863-0.0602-1.0953 1.7767z" style="fill:#fff;stroke-linejoin:round;stroke-opacity:.99692;stroke-width:1.2651;stroke:#fff"/>
 <path transform="matrix(.31444 0 0 .31444 267.2 426.15)" d="m7.2091-138.76-0.99098-1.8369-1.0953-1.7767 2.0863 0.0602 2.0863-0.0602-1.0953 1.7767z" style="fill:#fff;stroke-linejoin:round;stroke-opacity:.99692;stroke-width:1.2651;stroke:#fff"/>
 <path transform="matrix(.15722 -.27231 .27231 .15722 228.92 406.3)" d="m7.2091-138.76-0.99098-1.8369-1.0953-1.7767 2.0863 0.0602 2.0863-0.0602-1.0953 1.7767z" style="fill:#fff;stroke-linejoin:round;stroke-opacity:.99692;stroke-width:1.2651;stroke:#fff"/>
 <path transform="matrix(.31444 0 0 .31444 197.52 426.15)" d="m7.2091-138.76-0.99098-1.8369-1.0953-1.7767 2.0863 0.0602 2.0863-0.0602-1.0953 1.7767z" style="fill:#fff;stroke-linejoin:round;stroke-opacity:.99692;stroke-width:1.2651;stroke:#fff"/>
 <path transform="matrix(.15722 -.27231 .27231 .15722 242.72 406.3)" d="m7.2091-138.76-0.99098-1.8369-1.0953-1.7767 2.0863 0.0602 2.0863-0.0602-1.0953 1.7767z" style="fill:#fff;stroke-linejoin:round;stroke-opacity:.99692;stroke-width:1.2651;stroke:#fff"/>
 <path transform="matrix(.31444 0 0 .31444 211.53 426.15)" d="m7.2091-138.76-0.99098-1.8369-1.0953-1.7767 2.0863 0.0602 2.0863-0.0602-1.0953 1.7767z" style="fill:#fff;stroke-linejoin:round;stroke-opacity:.99692;stroke-width:1.2651;stroke:#fff"/>
 <g transform="scale(1.0196 .98074)" style="fill:#fff;stroke-width:.78685" aria-label="6000">
  <path d="m304.08 395.48c-0.13429 0-0.25878-0.0224-0.37349-0.0671-0.44641-0.16059-0.52773-0.55553-0.5539-0.85189-0.0256-0.23335 0.1344-0.57668 0.25603-0.77216l0.53715-0.92743h0.56234l-0.47841 0.8351c0.61666-0.12486 0.98168 0.43495 0.97785 0.86484-0.0334 0.72962-0.59776 0.93667-0.92739 0.91899zm0.44483-0.91903c0-0.26954-0.20529-0.45324-0.44484-0.45324s-0.44064 0.18044-0.44064 0.45324 0.18585 0.45322 0.44063 0.45322 0.44485-0.18368 0.44485-0.45322z"/>
  <path d="m306.26 395.48c-0.58356 0-0.98614-0.56939-0.98614-1.3303s0.36384-1.3303 0.98614-1.3303 0.98614 0.55661 0.98614 1.3303-0.40258 1.3303-0.98614 1.3303zm0-2.1822c-0.37971 0-0.46581 0.44325-0.46581 0.85195s0.0923 0.85194 0.46581 0.85194c0.37355 0 0.4616-0.46354 0.4616-0.85194s-0.0819-0.85195-0.4616-0.85195z"/>
  <path d="m308.44 395.43c-0.59502 0-1.0055-0.55842-1.0055-1.3046s0.37099-1.3047 1.0055-1.3047c0.63451 0 1.0055 0.54589 1.0055 1.3047s-0.41049 1.3046-1.0055 1.3046zm0-2.1402c-0.38717 0-0.47496 0.43471-0.47496 0.83554s0.0941 0.83553 0.47496 0.83553c0.38088 0 0.47066-0.45461 0.47066-0.83553s-0.0835-0.83554-0.47066-0.83554z" style="fill:#fff;stroke-width:.78685"/>
  <path d="m310.63 395.48c-0.58356 0-0.98614-0.56939-0.98614-1.3303s0.36384-1.3303 0.98614-1.3303 0.98614 0.55661 0.98614 1.3303-0.40258 1.3303-0.98614 1.3303zm0-2.1822c-0.37971 0-0.46581 0.44325-0.46581 0.85195s0.0923 0.85194 0.46581 0.85194c0.37355 0 0.4616-0.46354 0.4616-0.85194s-0.0819-0.85195-0.4616-0.85195z" style="fill:#fff;stroke-width:.78685"/>
 </g>
 <circle cx="103.64" cy="407.64" r="1" style="fill:#abb980;stroke-linejoin:round;stroke-opacity:.99692;stroke-width:.1;stroke:#020202"/>
 <circle cx="131.02" cy="407.64" r="1" style="fill:#abb980;stroke-linejoin:round;stroke-opacity:.99692;stroke-width:.1;stroke:#020202"/>
 <circle cx="76.896" cy="407.64" r="1" style="fill:#abb980;stroke-linejoin:round;stroke-opacity:.99692;stroke-width:.1;stroke:#020202"/>
 <circle cx="159.55" cy="407.64" r="1" style="fill:#abb980;stroke-linejoin:round;stroke-opacity:.99692;stroke-width:.1;stroke:#020202"/>
 <g style="stroke-width:.4684" aria-label="15">
  <path d="m75.739 405.31h0.39221v-0.89184l-0.38722 0.19486v-0.31477l0.49464-0.24482h0.20235v1.2566h0.34475v0.2773h-1.0467z" style="fill:#fff"/>
  <path d="m77.478 404.6q0.11991 0 0.22483 0.035 0.10492 0.0325 0.18237 0.0974 0.07744 0.0649 0.12241 0.15988 0.04497 0.0924 0.04497 0.21485 0 0.11991-0.04497 0.21484-0.04497 0.0949-0.12741 0.15988-0.07994 0.065-0.18986 0.0999-0.10742 0.035-0.23483 0.035-0.1399 0-0.24482-0.0325-0.10242-0.035-0.18236-0.0924v-0.30977q0.08244 0.0774 0.18486 0.12241 0.10492 0.045 0.21984 0.045 0.06495 0 0.12241-0.015 0.05996-0.015 0.10242-0.045 0.04497-0.03 0.06995-0.0749 0.02748-0.0475 0.02748-0.10742 0-0.06-0.02748-0.10493-0.02498-0.0475-0.06995-0.0774-0.04497-0.03-0.10492-0.045-0.05996-0.0175-0.12741-0.0175-0.09743 0-0.18236 0.0175-0.08244 0.015-0.16238 0.0475v-0.86936h0.88934v0.27979h-0.63703v0.2773q0.02748-7e-3 0.06745-0.01 0.03997-5e-3 0.07744-5e-3z" style="fill:#fff"/>
 </g>
 <g style="stroke-width:.4684" aria-label="16">
  <path d="m102.47 405.31h0.39221v-0.89184l-0.38721 0.19486v-0.31477l0.49464-0.24482h0.20235v1.2566h0.34474v0.2773h-1.0467z" style="fill:#fff"/>
  <path d="m104.26 405.62q-0.11991 0-0.22234-0.04-0.0999-0.0425-0.17487-0.11491-0.0725-0.075-0.11491-0.17488-0.04-0.0999-0.04-0.21734 0-0.10242 0.0325-0.20734 0.035-0.10742 0.11991-0.25232l0.31977-0.55209h0.33475l-0.28479 0.49713q0.0125-5e-3 0.035-7e-3 0.025-5e-3 0.045-5e-3 0.11242 5e-3 0.20485 0.0475 0.0924 0.04 0.15738 0.11241 0.0675 0.07 0.10243 0.16488 0.0375 0.0949 0.0375 0.20235 0 0.11742-0.0425 0.21734-0.04 0.0999-0.11241 0.17488-0.0725 0.0724-0.17488 0.11491-0.10242 0.04-0.22233 0.04zm0.2648-0.5471q0-0.055-0.02-0.10492-0.02-0.05-0.055-0.0849-0.035-0.0375-0.0849-0.0575-0.0475-0.0225-0.10492-0.0225-0.0575 0-0.10492 0.0225-0.0475 0.02-0.0824 0.0575-0.035 0.035-0.055 0.0849-0.02 0.05-0.02 0.10492 0 0.11492 0.0725 0.19236 0.0749 0.0774 0.18986 0.0774 0.11741 0 0.18986-0.0774 0.0749-0.0774 0.0749-0.19236z" style="fill:#fff"/>
 </g>
 <g transform="rotate(-90)" style="stroke-width:.63044" aria-label="R8N89A">
  <path d="m-417.44 69.996v0.76998h-0.42702v-2.0645h0.85068q0.32615 0 0.52453 0.16812 0.19837 0.16812 0.19837 0.48754 0 0.24882-0.12776 0.40348-0.12441 0.15131-0.34297 0.2051l0.54471 0.80024h-0.48418l-0.51108-0.76998zm0-0.35305h0.39676q0.16139 0 0.24209-0.07733 0.0841-0.0807 0.0841-0.20847 0-0.13113-0.0841-0.20847-0.0807-0.0807-0.24209-0.0807h-0.39676z" style="fill:#fff"/>
  <path d="m-415.29 70.46q0.14459 0 0.24209-0.07733t0.0975-0.21519q0-0.14122-0.0975-0.21519-0.0975-0.07733-0.24209-0.07733-0.14121 0-0.23872 0.07733-0.0942 0.07397-0.0942 0.21519 0 0.13786 0.0942 0.21519 0.0975 0.07733 0.23872 0.07733zm0-0.93474q0.11769 0 0.20511-0.06725 0.0874-0.07061 0.0874-0.19165 0-0.12777-0.0874-0.19502-0.0874-0.07061-0.20511-0.07061-0.11432 0-0.20174 0.07061-0.0841 0.06725-0.0841 0.19502 0 0.12104 0.0841 0.19165 0.0874 0.06725 0.20174 0.06725zm0 1.2743q-0.15466 0-0.29252-0.04035-0.13449-0.04035-0.23537-0.11768-0.10087-0.07733-0.15803-0.18829-0.0572-0.11096-0.0572-0.25218 0-0.19838 0.10424-0.32615 0.10759-0.12777 0.25554-0.16812-0.12777-0.05716-0.21183-0.17484-0.0841-0.11768-0.0841-0.28244 0-0.14122 0.0538-0.24882 0.0572-0.11096 0.1513-0.18157 0.0942-0.07397 0.21519-0.11096 0.12441-0.04035 0.2589-0.04035 0.13786 0 0.26227 0.04035 0.12441 0.03699 0.21855 0.11096 0.0942 0.07061 0.14795 0.18157 0.0572 0.1076 0.0572 0.24882 0 0.16476-0.0874 0.28244-0.084 0.11768-0.21182 0.17484 0.074 0.02017 0.13785 0.06388 0.0673 0.04371 0.11769 0.1076 0.0504 0.06052 0.0773 0.14458 0.0303 0.0807 0.0303 0.1782 0 0.14122-0.0605 0.25218-0.0572 0.11096-0.15803 0.18829-0.10087 0.07733-0.23873 0.11768-0.13786 0.04035-0.29253 0.04035z" style="fill:#fff"/>
  <path d="m-412.5 70.766h-0.33959l-0.97509-1.3752v1.3752h-0.41357v-2.0645h0.40348l0.9112 1.3046v-1.3046h0.41357z" style="fill:#fff"/>
  <path d="m-411.42 70.46q0.14458 0 0.24209-0.07733 0.0975-0.07733 0.0975-0.21519 0-0.14122-0.0975-0.21519-0.0975-0.07733-0.24209-0.07733-0.14122 0-0.23873 0.07733-0.0941 0.07397-0.0941 0.21519 0 0.13786 0.0941 0.21519 0.0975 0.07733 0.23873 0.07733zm0-0.93474q0.11768 0 0.2051-0.06725 0.0874-0.07061 0.0874-0.19165 0-0.12777-0.0874-0.19502-0.0874-0.07061-0.2051-0.07061-0.11432 0-0.20174 0.07061-0.0841 0.06725-0.0841 0.19502 0 0.12104 0.0841 0.19165 0.0874 0.06725 0.20174 0.06725zm0 1.2743q-0.15467 0-0.29253-0.04035-0.13449-0.04035-0.23536-0.11768-0.10087-0.07733-0.15803-0.18829-0.0572-0.11096-0.0572-0.25218 0-0.19838 0.10423-0.32615 0.1076-0.12777 0.25554-0.16812-0.12777-0.05716-0.21183-0.17484-0.0841-0.11768-0.0841-0.28244 0-0.14122 0.0538-0.24882 0.0572-0.11096 0.15131-0.18157 0.0941-0.07397 0.21519-0.11096 0.1244-0.04035 0.2589-0.04035 0.13786 0 0.26226 0.04035 0.12441 0.03699 0.21856 0.11096 0.0941 0.07061 0.14794 0.18157 0.0572 0.1076 0.0572 0.24882 0 0.16476-0.0874 0.28244-0.0841 0.11768-0.21183 0.17484 0.074 0.02017 0.13786 0.06388 0.0672 0.04371 0.11768 0.1076 0.0504 0.06052 0.0773 0.14458 0.0303 0.0807 0.0303 0.1782 0 0.14122-0.0605 0.25218-0.0572 0.11096-0.15803 0.18829-0.10087 0.07733-0.23873 0.11768-0.13785 0.04035-0.29252 0.04035z" style="fill:#fff"/>
  <path d="m-409.68 68.668q0.16139 0 0.29589 0.05716 0.13785 0.0538 0.23536 0.15467 0.10087 0.09751 0.15467 0.232 0.0572 0.13449 0.0572 0.29252 0 0.13786-0.0471 0.28244-0.0437 0.14122-0.15803 0.33624l-0.43039 0.74308h-0.45055l0.38331-0.66911q-0.0168 0.0067-0.0504 0.01345-0.0303 0.0034-0.0572 0.0034-0.1513-0.0034-0.27571-0.06052-0.12441-0.05716-0.21519-0.15131-0.0874-0.09751-0.13786-0.22192-0.0471-0.12777-0.0471-0.27571 0-0.15803 0.0538-0.29252 0.0572-0.13449 0.15467-0.232 0.0975-0.10087 0.23537-0.15467 0.13786-0.05716 0.29925-0.05716zm-0.35641 0.73636q0 0.07734 0.0269 0.14458 0.0269 0.06388 0.074 0.11432 0.0471 0.04707 0.11096 0.07733 0.0672 0.0269 0.14458 0.0269 0.0773 0 0.14122-0.0269 0.0639-0.03026 0.11096-0.07733 0.0471-0.05043 0.074-0.11432 0.0269-0.06725 0.0269-0.14458 0-0.15467-0.10087-0.2589-0.0975-0.10423-0.25218-0.10423-0.15803 0-0.2589 0.10423-0.0975 0.10423-0.0975 0.2589z" style="fill:#fff"/>
  <path d="m-407.53 68.701 0.79015 2.0645h-0.4371l-0.18493-0.49763h-0.77335l-0.18156 0.49763h-0.43039l0.79016-2.0645zm-0.47073 1.2037h0.50435l-0.25218-0.68592z" style="fill:#fff"/>
 </g>
 <g transform="translate(0 -47.539)">
  <rect x="222.23" y="462.83" width="17.014" height="3.0265" fill="#f9ff00" style="fill:#ffeb00;stroke-width:1.1546"/>
  <g transform="translate(0 .15934)" style="stroke-width:.46304" aria-label="12p 1G BASE-T">
   <path d="m223.21 464.64h0.38771v-0.88161l-0.38277 0.19262v-0.31116l0.48896-0.24201h0.20003v1.2422h0.3408v0.27412h-1.0347z"/>
   <path d="m225.48 464.64v0.27412h-1.0668v-0.01l0.44204-0.57786q0.0543-0.0691 0.0988-0.12595 0.0444-0.0593 0.0765-0.1136 0.0321-0.0568 0.0494-0.11113 0.0173-0.0543 0.0173-0.11359 0-0.0889-0.0543-0.14324-0.0543-0.0543-0.16299-0.0543-0.0642 0-0.12348 0.0173-0.0593 0.0173-0.11359 0.0469-0.0543 0.0272-0.10372 0.0642-0.0469 0.0346-0.0864 0.0691v-0.30869q0.0815-0.0766 0.20744-0.12842 0.12842-0.0519 0.27659-0.0519 0.21979 0 0.3482 0.12101 0.13089 0.121 0.13089 0.32844 0 0.0741-0.0222 0.14817-0.0222 0.0716-0.0617 0.14324-0.037 0.0691-0.0864 0.14076-0.0494 0.0692-0.10372 0.14323l-0.18522 0.24201z"/>
   <path d="m226.06 465.32h-0.30622v-1.5113h0.30622v0.0914q0.037-0.0444 0.11112-0.079 0.0766-0.037 0.16546-0.037 0.12101 0 0.21485 0.0469 0.0938 0.0469 0.15805 0.12595 0.0642 0.079 0.0963 0.18521 0.0346 0.10372 0.0346 0.21979t-0.0346 0.22226q-0.0321 0.10372-0.0963 0.18274-0.0642 0.079-0.15805 0.12595-0.0938 0.0445-0.21485 0.0445-0.0889 0-0.16546-0.0346-0.0741-0.037-0.11112-0.0815zm0-0.7779q0.0272 0.0568 0.084 0.0939 0.0568 0.0346 0.12348 0.0346 0.12594 0 0.19509-0.0864 0.0691-0.0889 0.0691-0.22226t-0.0691-0.22226q-0.0692-0.0889-0.19509-0.0889-0.0692 0-0.12595 0.037-0.0543 0.0346-0.0815 0.0914z"/>
   <path d="m227.58 464.64h0.38771v-0.88161l-0.38277 0.19262v-0.31116l0.48896-0.24201h0.20003v1.2422h0.3408v0.27412h-1.0347z"/>
   <path d="m229.54 464.66q0.0741 0 0.1383-0.0173 0.0667-0.0197 0.11607-0.0617v-0.22967h-0.25684v-0.2593h0.5433v0.63467q-0.11113 0.1136-0.25436 0.16546-0.14323 0.0494-0.29387 0.0494-0.17287 0-0.31116-0.0568-0.1383-0.0568-0.23708-0.16052-0.0963-0.10372-0.14817-0.24695-0.0519-0.14324-0.0519-0.3161 0-0.17534 0.0568-0.31857 0.0593-0.1457 0.16299-0.24942 0.10372-0.10372 0.24695-0.16052t0.31363-0.0568q0.13088 0 0.24201 0.0346 0.11113 0.0321 0.19263 0.0914v0.3161q-0.0939-0.0741-0.19757-0.1136-0.10372-0.0395-0.23707-0.0395-0.10125 0-0.18768 0.0371-0.084 0.0346-0.14571 0.0988-0.0617 0.0642-0.0963 0.15805-0.0321 0.0914-0.0321 0.2025 0 0.11113 0.0296 0.2025 0.0321 0.0914 0.0889 0.15805 0.0568 0.0642 0.13582 0.10125 0.0815 0.037 0.18274 0.037z"/>
   <path d="m231.75 464.13q0.10866 0.0346 0.17781 0.13089 0.0691 0.0963 0.0691 0.22226 0 0.2099-0.13582 0.32103-0.13335 0.10866-0.3729 0.10866h-0.62973v-1.5163h0.58034q0.23954 0 0.37537 0.10372 0.13582 0.10372 0.13582 0.30869 0 0.12347-0.0593 0.20744-0.0568 0.084-0.14076 0.11359zm-0.33091-0.11112q0.22966 0 0.22966-0.18028 0-0.17534-0.22966-0.17534h-0.25684v0.35562zm-0.25684 0.62725h0.29882q0.11113 0 0.16792-0.0519 0.0593-0.0519 0.0593-0.13829 0-0.0889-0.0593-0.13829-0.0568-0.0519-0.16792-0.0519h-0.29882z"/>
   <path d="m233 463.4 0.58034 1.5163h-0.32104l-0.13582-0.36549h-0.56799l-0.13335 0.36549h-0.3161l0.58034-1.5163zm-0.34573 0.88408h0.37043l-0.18521-0.50378z"/>
   <path d="m233.72 464.5q0.10372 0.0766 0.2272 0.12348 0.12348 0.0444 0.25683 0.0444 0.11607 0 0.19262-0.037 0.0766-0.0395 0.0766-0.12842 0-0.0741-0.0469-0.10866-0.0445-0.037-0.13089-0.0691l-0.22226-0.0741q-0.084-0.0272-0.15311-0.0642-0.0691-0.037-0.11853-0.0889-0.0469-0.0543-0.0741-0.12348-0.0272-0.0716-0.0272-0.16545 0-0.10619 0.042-0.18522 0.042-0.0815 0.11607-0.13582 0.0741-0.0568 0.17039-0.084 0.0988-0.0296 0.20991-0.0296 0.14077 0 0.25189 0.0321 0.1136 0.0296 0.20744 0.0864v0.30869q-0.0988-0.0716-0.20744-0.1136-0.10866-0.0444-0.24201-0.0444-0.10372 0-0.17287 0.037-0.0667 0.0346-0.0667 0.1136 0 0.0716 0.0445 0.10619 0.0444 0.0321 0.12347 0.0593l0.23708 0.0815q0.19262 0.0642 0.28152 0.17287 0.0889 0.10619 0.0889 0.27658 0 0.11113-0.0444 0.19757-0.0445 0.084-0.12348 0.14076-0.0766 0.0543-0.18275 0.084-0.10372 0.0272-0.22472 0.0272-0.15311 0-0.28153-0.0371-0.12594-0.0395-0.20744-0.0914z"/>
   <path d="m236.03 463.4v0.27658h-0.71863v0.33092h0.65195v0.26918h-0.65195v0.36055h0.71863v0.27905h-1.0298v-1.5163z"/>
   <path d="m236.22 464.13h0.59515v0.26671h-0.59515z"/>
   <path d="m236.98 463.4h1.294v0.27658h-0.48896v1.2397h-0.31857v-1.2397h-0.4865z"/>
  </g>
 </g>
 <g style="stroke-width:.4684" aria-label="13">
  <path d="m129.87 405.31h0.39221v-0.89184l-0.38721 0.19485v-0.31476l0.49463-0.24482h0.20235v1.2566h0.34475v0.2773h-1.0467z" style="fill:#fff"/>
  <path d="m131.16 404.05h0.99927v7e-3l-0.34225 0.60456q0.15988 0.045 0.25481 0.15988 0.0949 0.11491 0.0949 0.27979 0 0.11991-0.045 0.21484-0.045 0.0924-0.12241 0.15989-0.0774 0.065-0.17987 0.0999-0.10243 0.035-0.21484 0.035-0.16238 0-0.2698-0.035-0.10742-0.0375-0.18737-0.0949v-0.30977q0.0899 0.0799 0.19986 0.12491 0.10992 0.045 0.22983 0.045 0.1299 0 0.21234-0.0575 0.0824-0.06 0.0824-0.17987 0-0.07-0.035-0.11991-0.035-0.05-0.0974-0.0824-0.06-0.0325-0.1399-0.0475t-0.16987-0.0125v-7e-3l0.28479-0.50463h-0.5546z" style="fill:#fff"/>
 </g>
 <g style="stroke-width:.4684" aria-label="14">
  <path d="m158.35 405.34h0.39221v-0.89185l-0.38721 0.19486v-0.31477l0.49463-0.24482h0.20235v1.2566h0.34475v0.27729h-1.0467z" style="fill:#fff"/>
  <path d="m159.95 405.06h0.30727v-0.32726h0.2823v0.32726h0.20484v0.2623h-0.20484v0.29728h-0.2823v-0.29728h-0.71697v-0.01l0.51212-1.2266h0.30228z" style="fill:#fff"/>
 </g>
 <g style="stroke-width:.4684" aria-label="1">
  <path d="m189.15 382.42h0.39221v-0.89184l-0.38722 0.19486v-0.31477l0.49464-0.24482h0.20235v1.2566h0.34475v0.2773h-1.0467z" style="fill:#fff"/>
 </g>
 <g style="stroke-width:.4684" aria-label="2">
  <path d="m202.07 382.44v0.2773h-1.0792v-0.01l0.44717-0.58457q0.055-0.07 0.0999-0.12741 0.045-0.06 0.0774-0.11492 0.0325-0.0575 0.05-0.11241 0.0175-0.055 0.0175-0.11492 0-0.0899-0.055-0.14489-0.055-0.055-0.16488-0.055-0.0649 0-0.1249 0.0175t-0.11492 0.0475q-0.055 0.0275-0.10492 0.065-0.0475 0.035-0.0874 0.07v-0.31227q0.0824-0.0774 0.20985-0.1299 0.1299-0.0525 0.27979-0.0525 0.22234 0 0.35224 0.12241 0.1324 0.12241 0.1324 0.33225 0 0.075-0.0225 0.14989-0.0225 0.0725-0.0624 0.14489-0.0375 0.07-0.0874 0.1424-0.05 0.07-0.10492 0.14489l-0.18736 0.24482z" style="fill:#fff"/>
 </g>
 <g style="stroke-width:.4684" aria-label="3">
  <path d="m203.2 381.18h0.99926v7e-3l-0.34225 0.60456q0.15989 0.045 0.25482 0.15988 0.0949 0.11492 0.0949 0.2798 0 0.11991-0.045 0.21484-0.045 0.0924-0.12241 0.15988-0.0774 0.065-0.17987 0.0999-0.10242 0.035-0.21484 0.035-0.16238 0-0.2698-0.035-0.10742-0.0375-0.18736-0.0949v-0.30978q0.0899 0.0799 0.19985 0.12491 0.10992 0.045 0.22983 0.045 0.1299 0 0.21234-0.0575 0.0824-0.06 0.0824-0.17987 0-0.07-0.035-0.11991-0.035-0.05-0.0974-0.0824-0.06-0.0325-0.1399-0.0475t-0.16987-0.0125v-7e-3l0.28479-0.50463h-0.55459z" style="fill:#fff"/>
 </g>
 <g style="stroke-width:.4684" aria-label="4">
  <path d="m215.32 382.15h0.30727v-0.32726h0.2823v0.32726h0.20485v0.26231h-0.20485v0.29728h-0.2823v-0.29728h-0.71697v-0.01l0.51213-1.2266h0.30227z" style="fill:#fff"/>
 </g>
 <g style="stroke-width:.4684" aria-label="5">
  <path d="m217.83 381.7q0.11992 0 0.22484 0.035 0.10492 0.0325 0.18237 0.0974 0.0774 0.065 0.1224 0.15989 0.045 0.0924 0.045 0.21484 0 0.11991-0.045 0.21484-0.045 0.0949-0.1274 0.15988-0.0799 0.065-0.18986 0.0999-0.10742 0.035-0.23483 0.035-0.1399 0-0.24482-0.0325-0.10242-0.035-0.18236-0.0924v-0.30977q0.0824 0.0774 0.18486 0.12241 0.10492 0.045 0.21984 0.045 0.065 0 0.12241-0.015 0.06-0.015 0.10242-0.045 0.045-0.03 0.0699-0.0749 0.0275-0.0475 0.0275-0.10742 0-0.06-0.0275-0.10493-0.025-0.0475-0.0699-0.0774-0.045-0.03-0.10492-0.045-0.06-0.0175-0.12741-0.0175-0.0974 0-0.18236 0.0175-0.0824 0.015-0.16238 0.0475v-0.86936h0.88934v0.27979h-0.63703v0.2773q0.0275-7e-3 0.0675-0.01 0.04-5e-3 0.0774-5e-3z" style="fill:#fff"/>
 </g>
 <g style="stroke-width:.4684" aria-label="6">
  <path d="m228.85 382.72q-0.11991 0-0.22234-0.04-0.0999-0.0425-0.17487-0.11491-0.0725-0.075-0.11492-0.17487-0.04-0.0999-0.04-0.21734 0-0.10243 0.0325-0.20735 0.035-0.10742 0.11991-0.25232l0.31977-0.55209h0.33475l-0.28479 0.49713q0.0125-5e-3 0.035-7e-3 0.025-5e-3 0.045-5e-3 0.11242 5e-3 0.20485 0.0475 0.0924 0.04 0.15738 0.11242 0.0675 0.0699 0.10243 0.16487 0.0375 0.0949 0.0375 0.20236 0 0.11741-0.0425 0.21734-0.04 0.0999-0.11241 0.17487-0.0724 0.0724-0.17488 0.11491-0.10242 0.04-0.22233 0.04zm0.2648-0.54709q0-0.055-0.02-0.10493-0.02-0.05-0.055-0.0849-0.035-0.0375-0.0849-0.0575-0.0475-0.0225-0.10492-0.0225-0.0575 0-0.10493 0.0225-0.0475 0.02-0.0824 0.0575-0.035 0.035-0.055 0.0849-0.02 0.05-0.02 0.10493 0 0.11491 0.0725 0.19235 0.0749 0.0774 0.18986 0.0774 0.11741 0 0.18986-0.0774 0.0749-0.0774 0.0749-0.19235z" style="fill:#fff"/>
 </g>
 <g style="stroke-width:.4684" aria-label="7">
  <path d="m232.78 382.72h-0.32726l0.57708-1.2541h-0.70698v-0.2798h1.1542v7e-3z" style="fill:#fff"/>
 </g>
 <g style="stroke-width:.4684" aria-label="8">
  <path d="m243.07 382.47q0.10742 0 0.17987-0.0575 0.0725-0.0575 0.0725-0.15988 0-0.10492-0.0725-0.15988-0.0725-0.0575-0.17987-0.0575-0.10492 0-0.17737 0.0575-0.0699 0.055-0.0699 0.15988 0 0.10242 0.0699 0.15988 0.0725 0.0575 0.17737 0.0575zm0-0.69449q0.0874 0 0.15239-0.05 0.0649-0.0525 0.0649-0.1424 0-0.0949-0.0649-0.14489-0.065-0.0525-0.15239-0.0525-0.0849 0-0.14989 0.0525-0.0624 0.05-0.0624 0.14489 0 0.0899 0.0624 0.1424 0.065 0.05 0.14989 0.05zm0 0.9468q-0.11491 0-0.21734-0.03-0.0999-0.03-0.17487-0.0874-0.0749-0.0575-0.11741-0.1399-0.0425-0.0824-0.0425-0.18736 0-0.14739 0.0774-0.24232 0.0799-0.0949 0.18986-0.12491-0.0949-0.0425-0.15738-0.1299-0.0625-0.0874-0.0625-0.20985 0-0.10492 0.04-0.18486 0.0425-0.0824 0.11241-0.1349 0.07-0.055 0.15989-0.0824 0.0924-0.03 0.19235-0.03 0.10243 0 0.19486 0.03 0.0924 0.0275 0.16238 0.0824 0.07 0.0525 0.10992 0.1349 0.0425 0.0799 0.0425 0.18486 0 0.12241-0.065 0.20985-0.0625 0.0874-0.15739 0.1299 0.055 0.015 0.10243 0.0475 0.05 0.0325 0.0874 0.0799 0.0375 0.045 0.0575 0.10742 0.0225 0.0599 0.0225 0.1324 0 0.10492-0.045 0.18736-0.0425 0.0824-0.11742 0.1399-0.0749 0.0575-0.17737 0.0874-0.10242 0.03-0.21734 0.03z" style="fill:#fff"/>
 </g>
 <g style="stroke-width:.4684" aria-label="9">
  <path d="m247.21 381.16q0.11991 0 0.21983 0.0425 0.10243 0.04 0.17488 0.11492 0.0749 0.0724 0.11491 0.17237 0.0425 0.0999 0.0425 0.21734 0 0.10242-0.035 0.20985-0.0325 0.10492-0.11742 0.24981l-0.31976 0.55209h-0.33476l0.28479-0.49713q-0.0125 5e-3 -0.0375 0.01-0.0225 2e-3 -0.0425 2e-3 -0.11241-2e-3 -0.20485-0.045-0.0924-0.0425-0.15988-0.11241-0.0649-0.0725-0.10242-0.16488-0.035-0.0949-0.035-0.20485 0-0.11741 0.04-0.21734 0.0425-0.0999 0.11492-0.17237 0.0725-0.075 0.17487-0.11492 0.10242-0.0425 0.22234-0.0425zm-0.26481 0.5471q0 0.0575 0.02 0.10742 0.02 0.0475 0.055 0.0849 0.035 0.035 0.0824 0.0575 0.05 0.02 0.10742 0.02 0.0574 0 0.10492-0.02 0.0475-0.0225 0.0824-0.0575 0.035-0.0375 0.055-0.0849 0.02-0.05 0.02-0.10742 0-0.11492-0.0749-0.19236-0.0725-0.0774-0.18736-0.0774-0.11742 0-0.19236 0.0774-0.0725 0.0774-0.0725 0.19236z" style="fill:#fff"/>
 </g>
 <g style="stroke-width:.4684" aria-label="10">
  <path d="m256.31 382.42h0.39222v-0.89184l-0.38722 0.19486v-0.31477l0.49464-0.24482h0.20235v1.2566h0.34474v0.2773h-1.0467z" style="fill:#fff"/>
  <path d="m258.1 382.72q-0.1349 0-0.24482-0.0575-0.10742-0.0575-0.18486-0.16238-0.075-0.10492-0.11742-0.24981-0.04-0.14739-0.04-0.32226 0-0.17488 0.04-0.31977 0.0425-0.14739 0.11742-0.25231 0.0774-0.10493 0.18486-0.16238 0.10992-0.0575 0.24482-0.0575t0.24232 0.0575q0.10992 0.0575 0.18487 0.16238 0.0774 0.10492 0.11741 0.25231 0.0425 0.14489 0.0425 0.31977 0 0.17487-0.0425 0.32226-0.04 0.14489-0.11741 0.24981-0.075 0.10493-0.18487 0.16238-0.10742 0.0575-0.24232 0.0575zm0-1.299q-0.0749 0-0.12741 0.04-0.0525 0.0375-0.0874 0.10742-0.0325 0.0675-0.0475 0.15988-0.015 0.0924-0.015 0.19986 0 0.10742 0.015 0.19985 0.015 0.0924 0.0475 0.16238 0.035 0.0675 0.0874 0.10742 0.0525 0.0375 0.12741 0.0375 0.0749 0 0.12491-0.0375 0.0525-0.04 0.0849-0.10742 0.035-0.07 0.05-0.16238 0.015-0.0924 0.015-0.19985 0-0.10743-0.015-0.19986-0.015-0.0924-0.05-0.15988-0.0325-0.07-0.0849-0.10742-0.05-0.04-0.12491-0.04z" style="fill:#fff"/>
 </g>
 <g style="stroke-width:.4684" aria-label="11">
  <path d="m259.93 382.44h0.39221v-0.89184l-0.38721 0.19485v-0.31477l0.49463-0.24482h0.20235v1.2566h0.34475v0.27729h-1.0467z" style="fill:#fff"/>
  <path d="m261.23 382.44h0.39221v-0.89184l-0.38721 0.19485v-0.31477l0.49463-0.24482h0.20235v1.2566h0.34475v0.27729h-1.0467z" style="fill:#fff"/>
 </g>
 <g style="stroke-width:.4684" aria-label="12">
  <path d="m270.55 382.44h0.39221v-0.89184l-0.38721 0.19485v-0.31477l0.49464-0.24482h0.20235v1.2566h0.34474v0.27729h-1.0467z" style="fill:#fff"/>
  <path d="m272.85 382.44v0.27729h-1.0792v-0.01l0.44717-0.58457q0.055-0.07 0.0999-0.1274 0.045-0.06 0.0774-0.11492 0.0325-0.0575 0.05-0.11242 0.0175-0.055 0.0175-0.11491 0-0.0899-0.055-0.14489-0.055-0.055-0.16488-0.055-0.065 0-0.1249 0.0175-0.06 0.0175-0.11492 0.0475-0.055 0.0275-0.10492 0.065-0.0475 0.035-0.0874 0.07v-0.31227q0.0824-0.0774 0.20985-0.12991 0.1299-0.0525 0.27979-0.0525 0.22234 0 0.35224 0.12241 0.1324 0.12241 0.1324 0.33226 0 0.0749-0.0225 0.14989-0.0225 0.0724-0.0625 0.14489-0.0375 0.07-0.0874 0.1424-0.05 0.0699-0.10492 0.14489l-0.18736 0.24482z" style="fill:#fff"/>
 </g>
 <path d="m67.947 376.59c-0.87421 0-1.5781 0.70392-1.5781 1.5781v22.998h4.5039v-16.943h3.7754v-7.6328h-6.377z" style="fill:#ffeb00"/>
</svg>
