<?xml version="1.0" encoding="UTF-8"?>
<svg width="442" height="43.9" version="1.1" viewBox="66 376 442 43.9" xml:space="preserve" xmlns="http://www.w3.org/2000/svg"><rect x="66.248" y="376.25" width="442" height="43.9" fill="#242323" fill-rule="evenodd" stroke="#000" stroke-linecap="round" stroke-miterlimit="4.4" stroke-width=".49672"/><text transform="scale(1.0397 .96177)" x="74.660637" y="391.9072" fill="#ffffff" font-family="sans-serif" font-size="2.4768px" font-weight="700"/><text transform="scale(1.0003 .99968)" x="79.690422" y="368.06918" fill="#000000" font-family="sans-serif" font-size="21.25px" letter-spacing="0px" stroke-width="1px" word-spacing="0px" style="line-height:125%" xml:space="preserve"/><path class="st1" d="m499.01 380.54c0 0.68297-0.54634 1.2378-1.2122 1.2378-0.66581 0-1.2122-0.55485-1.2122-1.2378v-1.0501s0.58058 0.14514 0.58058 0.75978v0.29028c0 0.3756 0.28172 0.67436 0.63165 0.67436 0.35003 0 0.63175-0.29876 0.63175-0.67436v-0.6061 9e-3c0.0257-0.51222 0.461-0.6744 0.57198-0.73419h0.0101v1.3318zm-3.1159-1.2293c0.16226 0 0.31588 0.0256 0.45248 0.0851v0.64879c-0.11956-0.10241-0.28172-0.16224-0.45248-0.16224-0.38418 0-0.69144 0.29885-0.69144 0.67442v1.2208h-0.58049v-2.2366s0.23898 9e-3 0.39269 0.11956c0.22193-0.22195 0.53781-0.35003 0.87924-0.35003m-2.7831 1.9122c-0.38409 0-0.69998-0.30737-0.69998-0.68294 0-0.37566 0.31587-0.68294 0.69998-0.68294 0.38419 0 0.70004 0.30728 0.70004 0.68294 0 0.37557-0.31587 0.68294-0.70004 0.68294m0-1.9122c-0.69998 0-1.2634 0.55494-1.2634 1.2294 0 0.68294 0.56346 1.2293 1.2634 1.2293 0.29023 0 0.55493-0.0943 0.76834-0.25609 0.12801 0.21342 0.49516 0.25609 0.49516 0.25609v-1.2293c0-0.6744-0.56346-1.2293-1.2635-1.2293m10.099 1.9122c-0.38419 0-0.70006-0.30737-0.70006-0.68294 0-0.37566 0.31587-0.68294 0.70006-0.68294 0.38409 0 0.69996 0.30728 0.69996 0.68294 0 0.37557-0.31587 0.68294-0.69996 0.68294m0-1.9122c-0.70006 0-1.2635 0.55494-1.2635 1.2293 0 0.68295 0.56345 1.2293 1.2635 1.2293 0.29024 0 0.55485-0.0943 0.76826-0.25609 0.1281 0.21342 0.49514 0.25609 0.49514 0.25609v-1.2293c0-0.6744-0.56344-1.2293-1.2634-1.2293m-2.6805 1.9122c-0.38418 0-0.70005-0.30737-0.70005-0.68294 0-0.37566 0.31587-0.68294 0.70005-0.68294 0.38409 0 0.69996 0.30728 0.69996 0.68294 0.0101 0.37557-0.30728 0.68294-0.69996 0.68294m0-1.9122c-0.2561 0-0.49514 0.0769-0.70005 0.2049v-0.19631c-0.0257-0.51226-0.44388-0.67441-0.55486-0.73421h-0.0101v3.1928s0.37566-0.0431 0.52079-0.24757c0.21342 0.14512 0.46952 0.23906 0.7427 0.23906 0.70001 0 1.2635-0.55487 1.2635-1.2293 0.0101-0.6744-0.56345-1.2293-1.2635-1.2293" fill="#f5831f" stroke-width="1.397"/><ellipse cx="487.29" cy="413.57" rx=".68836" ry=".68835" stroke-width="1.883"/><g transform="translate(183.16 .14677)" fill="#fff"><g transform="matrix(1.7724,0,0,1.7724,160.93,-278.42)" stroke-width="1px"><path d="m80.574 391.58h-0.43193c0.02389 0.27384 0.26585 0.20128 0.40997 0.14546v0.0888c-0.34155 0.11706-0.50576-0.0228-0.50801-0.25115 0.0195-0.44127 0.57742-0.37112 0.52997 0.0169zm-0.09394-0.0736c0-0.26154-0.33518-0.187-0.33493 4.4e-4l0.33492-5.1e-4z"/><path d="m79.781 391.48c0.02213 7e-3 0.04357 0.0235 0.06433 0.048 0.07112 0.0938 0.10861 0.20005 0.16797 0.30939h-0.11079c-0.10882-0.25006-0.17104-0.29714-0.17104-0.29714-0.06695-0.0417-0.1319-0.0158-0.20882-0.025v0.32216h-0.10313v-0.76226h0.23281c0.407 0.0116 0.24895 0.41133 0.12865 0.40488zm-0.25834-0.32011v0.27059h0.12968c0.23582 0 0.18073-0.28821 0-0.27058h-0.12968z"/></g><g stroke-width="1.7723px"><path d="m304.64 415.08v0.15739c-0.45982-0.17528-0.55199 0.0234-0.55199 0.0756 0 0.23661 0.60627 0.0774 0.60627 0.47047 0 0.3532-0.42089 0.33778-0.77457 0.24302v-0.17192c0.28798 0.16624 0.60356 0.10656 0.60356-0.0579 0-0.27464-0.59633-0.0544-0.59633-0.47298 0-0.39313 0.50516-0.29505 0.71306-0.24364z"/><path d="m306.23 414.76v0.28775h0.34296v0.12938h-0.34296v0.55017c0 0.17227 0.0392 0.19461 0.17192 0.19461h0.17104v0.1393h-0.17104c-0.32811 0-0.32842-0.17174-0.33931-0.33384v-0.55017h-0.12215v-0.12939h0.12215v-0.28774h0.16739z"/><path d="m305.8 415.6h-0.76554c0.0423 0.48535 0.47119 0.35673 0.72662 0.25781v0.15738c-0.60536 0.20747-0.89638-0.0404-0.90038-0.44513 0.0346-0.7821 1.0234-0.65776 0.9393 0.03zm-0.1665-0.13045c0-0.46354-0.59405-0.33143-0.59362 7.8e-4l0.59361-9.1e-4z"/></g></g><g transform="translate(183.12 2.5102)" fill="#fff"><g transform="matrix(1.8829,0,0,1.8829,161.43,-306.4)" stroke-width="1px"><path d="m81.641 379.31h0.09394v0.79442h-0.09394z"/><path d="m79.049 379.4v0.10874c-0.29196-0.229-0.50596-0.0296-0.50596 0.21447 0 0.34281 0.29488 0.38554 0.50596 0.21397v0.10773c-0.3171 0.18308-0.61472 8e-3 -0.61472-0.32167 0-0.41585 0.38897-0.46115 0.61471-0.32318z"/><path d="m79.417 379.59c-0.11209 0-0.16338 0.11227-0.16338 0.22053s0.04897 0.22055 0.16338 0.22055 0.16287-0.0957 0.16287-0.22054c0-0.12481-0.05078-0.22054-0.16287-0.22054zm0-0.0797c0.17695 0 0.26243 0.12934 0.26243 0.30026s-0.09137 0.30016-0.26243 0.30016-0.26242-0.13107-0.26242-0.30016 0.08547-0.30026 0.26242-0.30026z"/><path d="m80.299 379.75v0.34513h-0.09394v-0.34207c0-0.24817-0.29051-0.18786-0.29051 0.0189v0.32318h-0.09445v-0.57182h0.09445v0.0888c0.10808-0.15989 0.38859-0.13884 0.38444 0.13791z"/><path d="m80.842 379.54v0.0888c-0.17363-0.066-0.31144-0.0447-0.31144 0.0449 0 0.13687 0.34207 0.0322 0.34207 0.26325 0 0.19222-0.22901 0.18911-0.43703 0.13711v-0.097c0.14178 0.0831 0.34054 0.0696 0.34054-0.0326 0-0.14532-0.33646-0.0276-0.33646-0.26686 0-0.18632 0.22762-0.1911 0.40232-0.13748z"/><path d="m82.409 379.79v0.046h-0.43193c0.03632 0.28994 0.29765 0.19776 0.40997 0.14546v0.0888c-0.33744 0.11738-0.50801-0.0249-0.50801-0.25115 0-0.16908 0.10366-0.30531 0.28029-0.30531s0.24233 0.14201 0.24966 0.27617zm-0.09394-0.0276c0-0.13993-0.09002-0.16905-0.1547-0.16905s-0.18023 0.0296-0.18023 0.16949l0.33492-5.1e-4z"/></g><path d="m314.39 408.36c-0.21107 0-0.30764 0.2114-0.30764 0.41525 0 0.20386 0.0923 0.41529 0.30764 0.41529 0.21542 0 0.30668-0.1802 0.30668-0.41527 0-0.235-0.0956-0.41527-0.30668-0.41527zm0-0.15007c0.33319 0 0.49414 0.24355 0.49414 0.56538 0 0.32184-0.17205 0.56519-0.49414 0.56519-0.3221 0-0.49412-0.2468-0.49412-0.56519s0.16093-0.56538 0.49412-0.56538z" stroke-width="1.8829px"/></g><g transform="matrix(.022663 0 0 .022663 490.93 413.65)" clip-rule="evenodd" fill-rule="evenodd" stroke-linecap="round" stroke-linejoin="round" stroke-miterlimit="1.5"><path d="m353-5e-3c27.596 0 50 22.404 50 50 0 27.595-22.404 49.999-50 50h-260c-27.596 0-50-22.404-50-50s22.404-50 50-50z" stroke="#ccc" stroke-width="8px"/></g><g transform="matrix(0 -1.6739 2.3004 0 -408.52 650.34)"><path d="m144.46 390.56h7.7398v-2.6354h-7.7398z"/><path d="m144.46 390.56h7.7398v-2.6355h-7.7398z" fill="none" stroke="#535353" stroke-linecap="round" stroke-linejoin="round" stroke-miterlimit="4.4615" stroke-width=".033916"/><path d="m144.92 388.34h6.8413v0.9015h-6.8413z" fill="#a09a9a" fill-rule="evenodd"/><path d="m145.15 389.01h6.3819v-0.43973h-6.3819z" fill="#505050"/></g><g transform="translate(.1684)"><circle transform="rotate(90)" cx="388.46" cy="-92.7" r=".9"/><circle transform="rotate(90)" cx="392.57" cy="-92.7" r=".9"/><circle transform="rotate(90)" cx="396.67" cy="-92.7" r=".9"/><circle transform="rotate(90)" cx="400.78" cy="-92.7" r=".9"/><circle transform="rotate(90)" cx="404.88" cy="-92.7" r=".9"/><circle transform="rotate(90)" cx="408.99" cy="-92.7" r=".9"/><circle transform="rotate(90)" cx="413.1" cy="-92.7" r=".9"/></g><g transform="translate(21.874)"><circle transform="rotate(90)" cx="388.46" cy="-92.7" r=".9"/><circle transform="rotate(90)" cx="392.57" cy="-92.7" r=".9"/><circle transform="rotate(90)" cx="396.67" cy="-92.7" r=".9"/><circle transform="rotate(90)" cx="400.78" cy="-92.7" r=".9"/><circle transform="rotate(90)" cx="404.88" cy="-92.7" r=".9"/><circle transform="rotate(90)" cx="408.99" cy="-92.7" r=".9"/><circle transform="rotate(90)" cx="413.1" cy="-92.7" r=".9"/></g><rect x="492.86" y="414.48" width="6.2557" height=".60482" rx=".37795" fill="#e6e6e6"/><rect x="153.33" y="415.29" width="17.014" height="3.0265" fill="#ffeb00" stroke-width="1.1546"/><g stroke-width=".46304"><path d="m157.16 417.94h-0.30622v-1.5113h0.30622v0.0914q0.037-0.0444 0.11112-0.079 0.0766-0.037 0.16546-0.037 0.12101 0 0.21485 0.0469 0.0938 0.0469 0.15805 0.12595 0.0642 0.079 0.0963 0.18521 0.0346 0.10372 0.0346 0.21979t-0.0346 0.22226q-0.0321 0.10372-0.0963 0.18274-0.0642 0.079-0.15805 0.12595-0.0938 0.0445-0.21485 0.0445-0.0889 0-0.16546-0.0346-0.0741-0.037-0.11112-0.0815zm0-0.7779q0.0272 0.0568 0.084 0.0939 0.0568 0.0346 0.12348 0.0346 0.12594 0 0.19509-0.0864 0.0691-0.0889 0.0691-0.22226t-0.0691-0.22226q-0.0692-0.0889-0.19509-0.0889-0.0692 0-0.12595 0.037-0.0543 0.0346-0.0815 0.0914z"/><path d="m158.68 417.26h0.38771v-0.88161l-0.38277 0.19262v-0.31116l0.48896-0.24201h0.20003v1.2422h0.3408v0.27412h-1.0347z"/><path d="m160.64 417.28q0.0741 0 0.1383-0.0173 0.0667-0.0197 0.11607-0.0617v-0.22967h-0.25684v-0.2593h0.5433v0.63467q-0.11113 0.1136-0.25436 0.16546-0.14323 0.0494-0.29387 0.0494-0.17287 0-0.31116-0.0568-0.1383-0.0568-0.23708-0.16052-0.0963-0.10372-0.14817-0.24695-0.0519-0.14324-0.0519-0.3161 0-0.17534 0.0568-0.31857 0.0593-0.1457 0.16299-0.24942 0.10372-0.10372 0.24695-0.16052t0.31363-0.0568q0.13088 0 0.24201 0.0346 0.11113 0.0321 0.19263 0.0914v0.3161q-0.0939-0.0741-0.19757-0.1136-0.10372-0.0395-0.23707-0.0395-0.10125 0-0.18768 0.0371-0.084 0.0346-0.14571 0.0988-0.0617 0.0642-0.0963 0.15805-0.0321 0.0914-0.0321 0.2025 0 0.11113 0.0296 0.2025 0.0321 0.0914 0.0889 0.15805 0.0568 0.0642 0.13582 0.10125 0.0815 0.037 0.18274 0.037z"/><path d="m162.85 416.75q0.10866 0.0346 0.17781 0.13089 0.0691 0.0963 0.0691 0.22226 0 0.2099-0.13582 0.32103-0.13335 0.10866-0.3729 0.10866h-0.62973v-1.5163h0.58034q0.23954 0 0.37537 0.10372 0.13582 0.10372 0.13582 0.30869 0 0.12347-0.0593 0.20744-0.0568 0.084-0.14076 0.11359zm-0.33091-0.11112q0.22966 0 0.22966-0.18028 0-0.17534-0.22966-0.17534h-0.25684v0.35562zm-0.25684 0.62725h0.29882q0.11113 0 0.16792-0.0519 0.0593-0.0519 0.0593-0.13829 0-0.0889-0.0593-0.13829-0.0568-0.0519-0.16792-0.0519h-0.29882z"/><path d="m164.1 416.02 0.58034 1.5163h-0.32104l-0.13582-0.36549h-0.56799l-0.13335 0.36549h-0.3161l0.58034-1.5163zm-0.34573 0.88408h0.37043l-0.18521-0.50378z"/><path d="m164.82 417.12q0.10372 0.0766 0.2272 0.12348 0.12348 0.0444 0.25683 0.0444 0.11607 0 0.19262-0.037 0.0766-0.0395 0.0766-0.12842 0-0.0741-0.0469-0.10866-0.0445-0.037-0.13089-0.0691l-0.22226-0.0741q-0.084-0.0272-0.15311-0.0642-0.0691-0.037-0.11853-0.0889-0.0469-0.0543-0.0741-0.12348-0.0272-0.0716-0.0272-0.16545 0-0.10619 0.042-0.18522 0.042-0.0815 0.11607-0.13582 0.0741-0.0568 0.17039-0.084 0.0988-0.0296 0.20991-0.0296 0.14077 0 0.25189 0.0321 0.1136 0.0296 0.20744 0.0864v0.30869q-0.0988-0.0716-0.20744-0.1136-0.10866-0.0444-0.24201-0.0444-0.10372 0-0.17287 0.037-0.0667 0.0346-0.0667 0.1136 0 0.0716 0.0445 0.10619 0.0444 0.0321 0.12347 0.0593l0.23708 0.0815q0.19262 0.0642 0.28152 0.17287 0.0889 0.10619 0.0889 0.27658 0 0.11113-0.0444 0.19757-0.0445 0.084-0.12348 0.14076-0.0766 0.0543-0.18275 0.084-0.10372 0.0272-0.22472 0.0272-0.15311 0-0.28153-0.0371-0.12594-0.0395-0.20744-0.0914z"/><path d="m167.13 416.02v0.27658h-0.71863v0.33092h0.65195v0.26918h-0.65195v0.36055h0.71863v0.27905h-1.0298v-1.5163z"/><path d="m167.32 416.75h0.59515v0.26671h-0.59515z"/><path d="m168.08 416.02h1.294v0.27658h-0.48896v1.2397h-0.31857v-1.2397h-0.4865z"/></g><g transform="translate(-68.806 1.3683)"><rect x="187.37" y="385.58" width="87.248" height="27.121" rx=".31701" ry=".13971" fill="#3a3a3a" stroke="#000" stroke-width=".5"/><path d="m259.61 387.35v1.416h3.291v-1.416zm-70.75 4e-3v1.416h3.291v-1.416zm14.039 2e-3v1.416h3.291v-1.416zm14.191 0v1.416h3.293v-1.416zm14.193 0v1.416h3.291v-1.416zm14.186 4e-3v1.416h3.291v-1.416zm-46.4 2e-3v1.4082h3.2617v-1.4085zm14.037 2e-3v1.4082h3.2637v-1.4082zm14.193 0v1.4082h3.2617v-1.4082zm14.191 0v1.4082h3.2637v-1.4082zm14.199 0v1.4082h3.2617v-1.4082zm14.141 0.0137v1.4082h3.2637v-1.4082z" fill="#abb980"/><path d="m272.85 408.96h-3.2978v2.0044l-1.2023 1e-3v0.75051h-3.8753l9.1e-4 -0.75247h-1.2515v-2.0046l-7.7162-8.1e-4v2.0044l-1.1963 1e-3v0.75051h-3.8753l9.1e-4 -0.75247h-1.2515v-2.0046l-7.8635 1e-3v2.0044l-1.2023 1e-3v0.75051h-3.8753l9e-4 -0.75247h-1.2514v-2.0046l-7.8634 1e-3v2.0044l-1.2023 1e-3v0.75051h-3.8753l9e-4 -0.75247h-1.2515v-2.0046l-7.8662 4e-3v2.0045l-1.1963 1e-3v0.75074h-3.8752l8.8e-4 -0.75247h-1.2514v-2.0047l-7.8348-0.0187v2.0045l-1.1963 9.9e-4v0.75053h-3.8752l9.1e-4 -0.75247h-1.2514v-2.0047h-3.2885l-0.019-19.647h3.3038l-6e-3 -2.0044 1.2023-1e-3v-0.75051h3.8753l-9e-4 0.75247h1.2515v2.0046l7.7162 8e-4 -6e-3 -2.0044 1.2023-1e-3v-0.75051h3.8753l-9e-4 0.75247h1.2515v2.0046l7.8695-1e-3 -6e-3 -2.0044 1.2023-1e-3v-0.75051h3.8753l-9e-4 0.75247h1.2515v2.0046l7.8694-1e-3 -6e-3 -2.0044 1.2023-1e-3v-0.75051h3.8753l-9e-4 0.75247h1.2515v2.0046l7.8662-4e-3 -6e-3 -2.0045 1.2023-9.9e-4v-0.75057h3.8752l-8.8e-4 0.75247h1.2514v2.0047l7.8348 0.0187-6e-3 -2.0045 1.2023-9.9e-4v-0.75053h3.8752l-9.1e-4 0.75247h1.2514v2.0047h3.2885z" fill="#1a1a1a"/><path d="m192.96 385.98-5.262 2e-3 4e-3 26.298 5.2855 2e-3v-1.2647l-0.55135 2e-3v-1.6515h-3.2782v-8.978l12.917-8e-3 2e-3 8.986h-3.2975v1.6513l-0.50877-2e-3v1.2647h8.7566v-1.2647l-0.41303 2e-3v-1.6513h-3.4186l2e-3 -8.9782 12.917-8e-3v8.986l-3.1784 0.0137v1.6376l-0.62786-2e-3v1.2647h8.9106v-1.2647l-0.41654 2e-3v-1.6376l-3.415-0.0137 2e-3 -8.9782 12.917-8e-3v8.986l-3.1758 0.0137v1.6376l-0.62852-2e-3v1.2647h8.9086v-1.2647l-0.41668 2e-3v-1.6376l-3.413-0.0137v-8.9782l12.917-8e-3v8.986l-3.176 0.0137v1.6376l-0.62839-2e-3v1.2647h8.9088v-1.2647l-0.41691 2e-3v-1.6376l-3.4127-0.0137v-8.9782l12.917-8e-3 2e-3 8.986-3.1841 0.0137v1.6376l-0.62213-2e-3v1.2647h8.8733v-1.2647l-0.53497 2e-3v-1.6376l-3.2966-0.0137 2e-3 -9.0328 12.918-0.0295v9.0621l-3.2952 0.0137v1.6376l-0.50912-2e-3v1.2647l5.262-2e-3 -4e-3 -26.298-5.2875-2e-3v1.2647l4.2506-2e-3v1.6376l-0.42096 0.0137v8.9782l-12.917 8e-3v-8.986l-0.42096-0.0137v-1.6376l4.2253 2e-3v-1.2636h-8.8734v1.2647l4.2506-2e-3v1.6376l-0.41901 0.0137-2e-3 9.0328-12.916 0.0276-2e-3 -9.0601-0.41902-0.0137v-1.6376l4.2253 2e-3v-1.2647h-8.9106v1.2647l4.2506-2e-3v1.6376l-0.41901 0.0137-2e-3 9.0328-0.01 0.01-12.908 0.0176v-9.0601l-0.41899-0.0137v-1.6376l4.2253 2e-3v-1.2647h-8.9105v1.2647l4.2506-2e-3v1.6376l-0.42097 0.0137v9.0328l-12.918 0.0274v-9.0601l-0.41902-0.0137v-1.6376l4.2233 2e-3v-1.2647h-8.9088v1.2647l4.2486-2e-3v1.6376l-0.41901 0.0137v9.0328l-12.918 0.0276v-9.0601l-0.42097-0.0137v-1.6376l4.2253 2e-3v-1.2647h-8.7566v1.2647l4.2506-2e-3v1.6376l-0.41902 0.0137-2e-3 9.0328-12.916 0.0276-2e-3 -9.0601-0.41899-0.0137v-1.6376l4.2253 2e-3z" fill="#ebebeb"/><g fill="#fff" stroke="#fff" stroke-linejoin="round" stroke-opacity=".99692" stroke-width="1.2651"><path transform="matrix(.15722 -.27231 .27231 .15722 257 406.3)" d="m7.2091-138.76-0.99098-1.8369-1.0953-1.7767 2.0863 0.0602 2.0863-0.0602-1.0953 1.7767z"/><path transform="matrix(.31444 0 0 .31444 224.76 426.15)" d="m7.2091-138.76-0.99098-1.8369-1.0953-1.7767 2.0863 0.0602 2.0863-0.0602-1.0953 1.7767z"/><path transform="matrix(.15722 -.27231 .27231 .15722 271.79 406.3)" d="m7.2091-138.76-0.99098-1.8369-1.0953-1.7767 2.0863 0.0602 2.0863-0.0602-1.0953 1.7767z"/><path transform="matrix(.31444 0 0 .31444 238.92 426.15)" d="m7.2091-138.76-0.99098-1.8369-1.0953-1.7767 2.0863 0.0602 2.0863-0.0602-1.0953 1.7767z"/><path transform="matrix(.15722 -.27231 .27231 .15722 286.12 406.3)" d="m7.2091-138.76-0.99098-1.8369-1.0953-1.7767 2.0863 0.0602 2.0863-0.0602-1.0953 1.7767z"/><path transform="matrix(.31444 0 0 .31444 252.83 426.15)" d="m7.2091-138.76-0.99098-1.8369-1.0953-1.7767 2.0863 0.0602 2.0863-0.0602-1.0953 1.7767z"/><path transform="matrix(.15722 -.27231 .27231 .15722 300.69 406.3)" d="m7.2091-138.76-0.99098-1.8369-1.0953-1.7767 2.0863 0.0602 2.0863-0.0602-1.0953 1.7767z"/><path transform="matrix(.31444 0 0 .31444 267.2 426.15)" d="m7.2091-138.76-0.99098-1.8369-1.0953-1.7767 2.0863 0.0602 2.0863-0.0602-1.0953 1.7767z"/><path transform="matrix(.15722 -.27231 .27231 .15722 228.92 406.3)" d="m7.2091-138.76-0.99098-1.8369-1.0953-1.7767 2.0863 0.0602 2.0863-0.0602-1.0953 1.7767z"/><path transform="matrix(.31444 0 0 .31444 197.52 426.15)" d="m7.2091-138.76-0.99098-1.8369-1.0953-1.7767 2.0863 0.0602 2.0863-0.0602-1.0953 1.7767z"/><path transform="matrix(.15722 -.27231 .27231 .15722 242.72 406.3)" d="m7.2091-138.76-0.99098-1.8369-1.0953-1.7767 2.0863 0.0602 2.0863-0.0602-1.0953 1.7767z"/><path transform="matrix(.31444 0 0 .31444 211.53 426.15)" d="m7.2091-138.76-0.99098-1.8369-1.0953-1.7767 2.0863 0.0602 2.0863-0.0602-1.0953 1.7767z"/></g><g stroke-width=".4684"><g aria-label="1"><path d="m189.15 382.42h0.39221v-0.89184l-0.38722 0.19486v-0.31477l0.49464-0.24482h0.20235v1.2566h0.34475v0.2773h-1.0467z" fill="#fff"/></g><g aria-label="2"><path d="m202.07 382.44v0.2773h-1.0792v-0.01l0.44717-0.58457q0.055-0.07 0.0999-0.12741 0.045-0.06 0.0774-0.11492 0.0325-0.0575 0.05-0.11241 0.0175-0.055 0.0175-0.11492 0-0.0899-0.055-0.14489-0.055-0.055-0.16488-0.055-0.0649 0-0.1249 0.0175t-0.11492 0.0475q-0.055 0.0275-0.10492 0.065-0.0475 0.035-0.0874 0.07v-0.31227q0.0824-0.0774 0.20985-0.1299 0.1299-0.0525 0.27979-0.0525 0.22234 0 0.35224 0.12241 0.1324 0.12241 0.1324 0.33225 0 0.075-0.0225 0.14989-0.0225 0.0725-0.0624 0.14489-0.0375 0.07-0.0874 0.1424-0.05 0.07-0.10492 0.14489l-0.18736 0.24482z" fill="#fff"/></g><g aria-label="3"><path d="m203.2 381.18h0.99926v7e-3l-0.34225 0.60456q0.15989 0.045 0.25482 0.15988 0.0949 0.11492 0.0949 0.2798 0 0.11991-0.045 0.21484-0.045 0.0924-0.12241 0.15988-0.0774 0.065-0.17987 0.0999-0.10242 0.035-0.21484 0.035-0.16238 0-0.2698-0.035-0.10742-0.0375-0.18736-0.0949v-0.30978q0.0899 0.0799 0.19985 0.12491 0.10992 0.045 0.22983 0.045 0.1299 0 0.21234-0.0575 0.0824-0.06 0.0824-0.17987 0-0.07-0.035-0.11991-0.035-0.05-0.0974-0.0824-0.06-0.0325-0.1399-0.0475t-0.16987-0.0125v-7e-3l0.28479-0.50463h-0.55459z" fill="#fff"/></g><g aria-label="4"><path d="m215.32 382.15h0.30727v-0.32726h0.2823v0.32726h0.20485v0.26231h-0.20485v0.29728h-0.2823v-0.29728h-0.71697v-0.01l0.51213-1.2266h0.30227z" fill="#fff"/></g><g aria-label="5"><path d="m217.83 381.7q0.11992 0 0.22484 0.035 0.10492 0.0325 0.18237 0.0974 0.0774 0.065 0.1224 0.15989 0.045 0.0924 0.045 0.21484 0 0.11991-0.045 0.21484-0.045 0.0949-0.1274 0.15988-0.0799 0.065-0.18986 0.0999-0.10742 0.035-0.23483 0.035-0.1399 0-0.24482-0.0325-0.10242-0.035-0.18236-0.0924v-0.30977q0.0824 0.0774 0.18486 0.12241 0.10492 0.045 0.21984 0.045 0.065 0 0.12241-0.015 0.06-0.015 0.10242-0.045 0.045-0.03 0.0699-0.0749 0.0275-0.0475 0.0275-0.10742 0-0.06-0.0275-0.10493-0.025-0.0475-0.0699-0.0774-0.045-0.03-0.10492-0.045-0.06-0.0175-0.12741-0.0175-0.0974 0-0.18236 0.0175-0.0824 0.015-0.16238 0.0475v-0.86936h0.88934v0.27979h-0.63703v0.2773q0.0275-7e-3 0.0675-0.01 0.04-5e-3 0.0774-5e-3z" fill="#fff"/></g><g aria-label="6"><path d="m228.85 382.72q-0.11991 0-0.22234-0.04-0.0999-0.0425-0.17487-0.11491-0.0725-0.075-0.11492-0.17487-0.04-0.0999-0.04-0.21734 0-0.10243 0.0325-0.20735 0.035-0.10742 0.11991-0.25232l0.31977-0.55209h0.33475l-0.28479 0.49713q0.0125-5e-3 0.035-7e-3 0.025-5e-3 0.045-5e-3 0.11242 5e-3 0.20485 0.0475 0.0924 0.04 0.15738 0.11242 0.0675 0.0699 0.10243 0.16487 0.0375 0.0949 0.0375 0.20236 0 0.11741-0.0425 0.21734-0.04 0.0999-0.11241 0.17487-0.0724 0.0724-0.17488 0.11491-0.10242 0.04-0.22233 0.04zm0.2648-0.54709q0-0.055-0.02-0.10493-0.02-0.05-0.055-0.0849-0.035-0.0375-0.0849-0.0575-0.0475-0.0225-0.10492-0.0225-0.0575 0-0.10493 0.0225-0.0475 0.02-0.0824 0.0575-0.035 0.035-0.055 0.0849-0.02 0.05-0.02 0.10493 0 0.11491 0.0725 0.19235 0.0749 0.0774 0.18986 0.0774 0.11741 0 0.18986-0.0774 0.0749-0.0774 0.0749-0.19235z" fill="#fff"/></g><g aria-label="7"><path d="m232.78 382.72h-0.32726l0.57708-1.2541h-0.70698v-0.2798h1.1542v7e-3z" fill="#fff"/></g><g aria-label="8"><path d="m243.07 382.47q0.10742 0 0.17987-0.0575 0.0725-0.0575 0.0725-0.15988 0-0.10492-0.0725-0.15988-0.0725-0.0575-0.17987-0.0575-0.10492 0-0.17737 0.0575-0.0699 0.055-0.0699 0.15988 0 0.10242 0.0699 0.15988 0.0725 0.0575 0.17737 0.0575zm0-0.69449q0.0874 0 0.15239-0.05 0.0649-0.0525 0.0649-0.1424 0-0.0949-0.0649-0.14489-0.065-0.0525-0.15239-0.0525-0.0849 0-0.14989 0.0525-0.0624 0.05-0.0624 0.14489 0 0.0899 0.0624 0.1424 0.065 0.05 0.14989 0.05zm0 0.9468q-0.11491 0-0.21734-0.03-0.0999-0.03-0.17487-0.0874-0.0749-0.0575-0.11741-0.1399-0.0425-0.0824-0.0425-0.18736 0-0.14739 0.0774-0.24232 0.0799-0.0949 0.18986-0.12491-0.0949-0.0425-0.15738-0.1299-0.0625-0.0874-0.0625-0.20985 0-0.10492 0.04-0.18486 0.0425-0.0824 0.11241-0.1349 0.07-0.055 0.15989-0.0824 0.0924-0.03 0.19235-0.03 0.10243 0 0.19486 0.03 0.0924 0.0275 0.16238 0.0824 0.07 0.0525 0.10992 0.1349 0.0425 0.0799 0.0425 0.18486 0 0.12241-0.065 0.20985-0.0625 0.0874-0.15739 0.1299 0.055 0.015 0.10243 0.0475 0.05 0.0325 0.0874 0.0799 0.0375 0.045 0.0575 0.10742 0.0225 0.0599 0.0225 0.1324 0 0.10492-0.045 0.18736-0.0425 0.0824-0.11742 0.1399-0.0749 0.0575-0.17737 0.0874-0.10242 0.03-0.21734 0.03z" fill="#fff"/></g><g aria-label="9"><path d="m247.21 381.16q0.11991 0 0.21983 0.0425 0.10243 0.04 0.17488 0.11492 0.0749 0.0724 0.11491 0.17237 0.0425 0.0999 0.0425 0.21734 0 0.10242-0.035 0.20985-0.0325 0.10492-0.11742 0.24981l-0.31976 0.55209h-0.33476l0.28479-0.49713q-0.0125 5e-3 -0.0375 0.01-0.0225 2e-3 -0.0425 2e-3 -0.11241-2e-3 -0.20485-0.045-0.0924-0.0425-0.15988-0.11241-0.0649-0.0725-0.10242-0.16488-0.035-0.0949-0.035-0.20485 0-0.11741 0.04-0.21734 0.0425-0.0999 0.11492-0.17237 0.0725-0.075 0.17487-0.11492 0.10242-0.0425 0.22234-0.0425zm-0.26481 0.5471q0 0.0575 0.02 0.10742 0.02 0.0475 0.055 0.0849 0.035 0.035 0.0824 0.0575 0.05 0.02 0.10742 0.02 0.0574 0 0.10492-0.02 0.0475-0.0225 0.0824-0.0575 0.035-0.0375 0.055-0.0849 0.02-0.05 0.02-0.10742 0-0.11492-0.0749-0.19236-0.0725-0.0774-0.18736-0.0774-0.11742 0-0.19236 0.0774-0.0725 0.0774-0.0725 0.19236z" fill="#fff"/></g><g fill="#fff" aria-label="10"><path d="m256.31 382.42h0.39222v-0.89184l-0.38722 0.19486v-0.31477l0.49464-0.24482h0.20235v1.2566h0.34474v0.2773h-1.0467z"/><path d="m258.1 382.72q-0.1349 0-0.24482-0.0575-0.10742-0.0575-0.18486-0.16238-0.075-0.10492-0.11742-0.24981-0.04-0.14739-0.04-0.32226 0-0.17488 0.04-0.31977 0.0425-0.14739 0.11742-0.25231 0.0774-0.10493 0.18486-0.16238 0.10992-0.0575 0.24482-0.0575t0.24232 0.0575q0.10992 0.0575 0.18487 0.16238 0.0774 0.10492 0.11741 0.25231 0.0425 0.14489 0.0425 0.31977 0 0.17487-0.0425 0.32226-0.04 0.14489-0.11741 0.24981-0.075 0.10493-0.18487 0.16238-0.10742 0.0575-0.24232 0.0575zm0-1.299q-0.0749 0-0.12741 0.04-0.0525 0.0375-0.0874 0.10742-0.0325 0.0675-0.0475 0.15988-0.015 0.0924-0.015 0.19986 0 0.10742 0.015 0.19985 0.015 0.0924 0.0475 0.16238 0.035 0.0675 0.0874 0.10742 0.0525 0.0375 0.12741 0.0375 0.0749 0 0.12491-0.0375 0.0525-0.04 0.0849-0.10742 0.035-0.07 0.05-0.16238 0.015-0.0924 0.015-0.19985 0-0.10743-0.015-0.19986-0.015-0.0924-0.05-0.15988-0.0325-0.07-0.0849-0.10742-0.05-0.04-0.12491-0.04z"/></g><g fill="#fff" aria-label="11"><path d="m259.93 382.44h0.39221v-0.89184l-0.38721 0.19485v-0.31477l0.49463-0.24482h0.20235v1.2566h0.34475v0.27729h-1.0467z"/><path d="m261.23 382.44h0.39221v-0.89184l-0.38721 0.19485v-0.31477l0.49463-0.24482h0.20235v1.2566h0.34475v0.27729h-1.0467z"/></g><g fill="#fff" aria-label="12"><path d="m270.55 382.44h0.39221v-0.89184l-0.38721 0.19485v-0.31477l0.49464-0.24482h0.20235v1.2566h0.34474v0.27729h-1.0467z"/><path d="m272.85 382.44v0.27729h-1.0792v-0.01l0.44717-0.58457q0.055-0.07 0.0999-0.1274 0.045-0.06 0.0774-0.11492 0.0325-0.0575 0.05-0.11242 0.0175-0.055 0.0175-0.11491 0-0.0899-0.055-0.14489-0.055-0.055-0.16488-0.055-0.065 0-0.1249 0.0175-0.06 0.0175-0.11492 0.0475-0.055 0.0275-0.10492 0.065-0.0475 0.035-0.0874 0.07v-0.31227q0.0824-0.0774 0.20985-0.12991 0.1299-0.0525 0.27979-0.0525 0.22234 0 0.35224 0.12241 0.1324 0.12241 0.1324 0.33226 0 0.0749-0.0225 0.14989-0.0225 0.0724-0.0625 0.14489-0.0375 0.07-0.0874 0.1424-0.05 0.0699-0.10492 0.14489l-0.18736 0.24482z"/></g></g></g><rect x="207.93" y="386.95" width="87.248" height="27.121" rx=".31701" ry=".13971" fill="#3a3a3a" stroke="#000" stroke-width=".5"/><path d="m280.17 388.72v1.416h3.291v-1.416zm-70.75 4e-3v1.416h3.291v-1.416zm14.039 2e-3v1.416h3.291v-1.416zm14.191 0v1.416h3.293v-1.416zm14.193 0v1.416h3.291v-1.416zm14.186 4e-3v1.416h3.291v-1.416zm-46.4 2e-3v1.4082h3.2617v-1.4085zm14.037 2e-3v1.4082h3.2637v-1.4082zm14.193 0v1.4082h3.2617v-1.4082zm14.191 0v1.4082h3.2637v-1.4082zm14.199 0v1.4082h3.2617v-1.4082zm14.141 0.0137v1.4082h3.2637v-1.4082z" fill="#abb980"/><path d="m293.41 410.33h-3.2978v2.0044l-1.2023 1e-3v0.75051h-3.8753l9.1e-4 -0.75247h-1.2515v-2.0046l-7.7162-8.1e-4v2.0044l-1.1963 1e-3v0.75051h-3.8753l9.1e-4 -0.75247h-1.2515v-2.0046l-7.8635 1e-3v2.0044l-1.2023 1e-3v0.75051h-3.8753l9e-4 -0.75247h-1.2514v-2.0046l-7.8634 1e-3v2.0044l-1.2023 1e-3v0.75051h-3.8753l9e-4 -0.75247h-1.2515v-2.0046l-7.8662 4e-3v2.0045l-1.1963 1e-3v0.75074h-3.8752l8.8e-4 -0.75247h-1.2514v-2.0047l-7.8348-0.0187v2.0045l-1.1963 9.9e-4v0.75053h-3.8752l9.1e-4 -0.75247h-1.2514v-2.0047h-3.2885l-0.019-19.647h3.3038l-6e-3 -2.0044 1.2023-1e-3v-0.75051h3.8753l-9e-4 0.75247h1.2515v2.0046l7.7162 8e-4 -6e-3 -2.0044 1.2023-1e-3v-0.75051h3.8753l-9e-4 0.75247h1.2515v2.0046l7.8695-1e-3 -6e-3 -2.0044 1.2023-1e-3v-0.75051h3.8753l-9e-4 0.75247h1.2515v2.0046l7.8694-1e-3 -6e-3 -2.0044 1.2023-1e-3v-0.75051h3.8753l-9e-4 0.75247h1.2515v2.0046l7.8662-4e-3 -6e-3 -2.0045 1.2023-9.9e-4v-0.75057h3.8752l-8.8e-4 0.75247h1.2514v2.0047l7.8348 0.0187-6e-3 -2.0045 1.2023-9.9e-4v-0.75053h3.8752l-9.1e-4 0.75247h1.2514v2.0047h3.2885z" fill="#1a1a1a"/><path d="m213.52 387.35-5.262 2e-3 4e-3 26.298 5.2855 2e-3v-1.2647l-0.55135 2e-3v-1.6515h-3.2782v-8.978l12.917-8e-3 2e-3 8.986h-3.2975v1.6513l-0.50877-2e-3v1.2647h8.7566v-1.2647l-0.41303 2e-3v-1.6513h-3.4186l2e-3 -8.9782 12.917-8e-3v8.986l-3.1784 0.0137v1.6376l-0.62786-2e-3v1.2647h8.9106v-1.2647l-0.41654 2e-3v-1.6376l-3.415-0.0137 2e-3 -8.9782 12.917-8e-3v8.986l-3.1758 0.0137v1.6376l-0.62852-2e-3v1.2647h8.9086v-1.2647l-0.41668 2e-3v-1.6376l-3.413-0.0137v-8.9782l12.917-8e-3v8.986l-3.176 0.0137v1.6376l-0.62839-2e-3v1.2647h8.9088v-1.2647l-0.41691 2e-3v-1.6376l-3.4127-0.0137v-8.9782l12.917-8e-3 2e-3 8.986-3.1841 0.0137v1.6376l-0.62213-2e-3v1.2647h8.8733v-1.2647l-0.53497 2e-3v-1.6376l-3.2966-0.0137 2e-3 -9.0328 12.918-0.0295v9.0621l-3.2952 0.0137v1.6376l-0.50912-2e-3v1.2647l5.262-2e-3 -4e-3 -26.298-5.2875-2e-3v1.2647l4.2506-2e-3v1.6376l-0.42096 0.0137v8.9782l-12.917 8e-3v-8.986l-0.42096-0.0137v-1.6376l4.2253 2e-3v-1.2636h-8.8734v1.2647l4.2506-2e-3v1.6376l-0.41901 0.0137-2e-3 9.0328-12.916 0.0276-2e-3 -9.0601-0.41902-0.0137v-1.6376l4.2253 2e-3v-1.2647h-8.9106v1.2647l4.2506-2e-3v1.6376l-0.41901 0.0137-2e-3 9.0328-0.01 0.01-12.908 0.0176v-9.0601l-0.41899-0.0137v-1.6376l4.2253 2e-3v-1.2647h-8.9105v1.2647l4.2506-2e-3v1.6376l-0.42097 0.0137v9.0328l-12.918 0.0274v-9.0601l-0.41902-0.0137v-1.6376l4.2233 2e-3v-1.2647h-8.9088v1.2647l4.2486-2e-3v1.6376l-0.41901 0.0137v9.0328l-12.918 0.0276v-9.0601l-0.42097-0.0137v-1.6376l4.2253 2e-3v-1.2647h-8.7566v1.2647l4.2506-2e-3v1.6376l-0.41902 0.0137-2e-3 9.0328-12.916 0.0276-2e-3 -9.0601-0.41899-0.0137v-1.6376l4.2253 2e-3z" fill="#ebebeb"/><g fill="#fff" stroke="#fff" stroke-linejoin="round" stroke-opacity=".99692" stroke-width=".3978"><path d="m241.66 383.89-0.65601-0.0189-0.65602 0.0189 0.34441-0.55866 0.31161-0.57758 0.31161 0.57759z"/><path d="m247.59 383.88-0.3116-0.5776-0.34441-0.55866 0.65602 0.0189 0.65601-0.0189-0.3444 0.55866z"/><path d="m255.7 383.89-0.65601-0.0189-0.65602 0.0189 0.34441-0.55866 0.31161-0.57758 0.31161 0.57759z"/><path d="m261.75 383.88-0.3116-0.5776-0.34441-0.55866 0.65602 0.0189 0.65601-0.0189-0.3444 0.55866z"/><path d="m270.03 383.89-0.65601-0.0189-0.65602 0.0189 0.34441-0.55866 0.31161-0.57758 0.31161 0.57759z"/><path d="m275.66 383.88-0.3116-0.5776-0.34441-0.55866 0.65602 0.0189 0.65601-0.0189-0.3444 0.55866z"/><path d="m283.96 383.89-0.65601-0.0189-0.65602 0.0189 0.34441-0.55866 0.31161-0.57758 0.31161 0.57759z"/><path d="m290.03 383.88-0.3116-0.5776-0.34441-0.55866 0.65602 0.0189 0.65601-0.0189-0.3444 0.55866z"/><path d="m233.22 383.88-0.3116-0.5776-0.34441-0.55866 0.65602 0.0189 0.65601-0.0189-0.3444 0.55866z"/><path d="m219.34 383.95-0.3116-0.5776-0.34441-0.55866 0.65602 0.0189 0.65602-0.0189-0.34441 0.55866z"/><path d="m227.64 383.95-0.65601-0.0189-0.65602 0.0189 0.34441-0.55866 0.31161-0.57758 0.31161 0.57759z"/></g><g fill="#fff" aria-label="14"><path d="m220.45 384.04v-0.2041h0.34082v-0.93847l-0.33008 0.20605v-0.21582l0.34472-0.22363h0.25977v1.1719h0.31543v0.2041z"/><path d="m222.35 383.76v0.28027h-0.26172v-0.28027h-0.62597v-0.20605l0.58105-0.88965h0.30664v0.8916h0.1836v0.2041zm-0.26172-0.6543q0-0.0527 3e-3 -0.11425 4e-3 -0.0615 6e-3 -0.0791-0.0254 0.0547-0.0918 0.1582l-0.31934 0.48535h0.40234z"/></g><g fill="#fff" aria-label="15"><path d="m223.77 384.02v-0.2041h0.34082v-0.93847l-0.33008 0.20605v-0.21582l0.34473-0.22363h0.25976v1.1719h0.31543v0.2041z"/><path d="m225.81 383.57q0 0.21875-0.13672 0.34863-0.13574 0.1289-0.37305 0.1289-0.20703 0-0.33203-0.0928-0.12402-0.0937-0.15332-0.27051l0.27441-0.0225q0.0215 0.0879 0.0762 0.12793 0.0547 0.04 0.13769 0.04 0.10254 0 0.16309-0.0654 0.0615-0.0654 0.0615-0.18847 0-0.1084-0.0576-0.17286-0.0576-0.0654-0.16113-0.0654-0.11426 0-0.18652 0.0889h-0.26758l0.0479-0.77441h0.82715v0.2041h-0.57813l-0.0225 0.34765q0.0996-0.0879 0.24903-0.0879 0.19629 0 0.31347 0.12207 0.11817 0.12207 0.11817 0.33204z"/></g><g fill="#fff" aria-label="16"><path d="m234.5 384.02v-0.2041h0.34082v-0.93847l-0.33008 0.20605v-0.21582l0.34473-0.22363h0.25976v1.1719h0.31543v0.2041z"/><path d="m236.52 383.57q0 0.21972-0.12305 0.34472t-0.33984 0.125q-0.24317 0-0.37403-0.16992-0.12988-0.1709-0.12988-0.50586 0-0.36816 0.13184-0.55371 0.13281-0.18652 0.3789-0.18652 0.17481 0 0.27539 0.0772 0.10157 0.0771 0.14356 0.23926l-0.25879 0.0361q-0.0371-0.13574-0.16602-0.13574-0.11035 0-0.17383 0.11035-0.0625 0.11035-0.0625 0.33496 0.044-0.0732 0.12208-0.11231 0.0781-0.0391 0.17675-0.0391 0.18457 0 0.292 0.11719 0.10742 0.11719 0.10742 0.31836zm-0.27539 8e-3q0-0.11719-0.0547-0.17871-0.0537-0.0625-0.14844-0.0625-0.0908 0-0.14551 0.0586-0.0547 0.0576-0.0547 0.15332 0 0.12012 0.0566 0.19922 0.0576 0.0781 0.15039 0.0781 0.0928 0 0.14453-0.0654 0.0518-0.0664 0.0518-0.18262z"/></g><path d="m213.9 383.93-0.65601-0.0189-0.65602 0.0189 0.34441-0.55866 0.31161-0.57758 0.31161 0.57759z" fill="#fff" stroke="#fff" stroke-linejoin="round" stroke-opacity=".99692" stroke-width=".3978"/><rect x="297.05" y="386.95" width="87.248" height="27.121" rx=".31701" ry=".13971" fill="#3a3a3a" stroke="#000" stroke-width=".5"/><path d="m369.29 388.72v1.416h3.291v-1.416zm-70.75 4e-3v1.416h3.291v-1.416zm14.039 2e-3v1.416h3.291v-1.416zm14.191 0v1.416h3.293v-1.416zm14.193 0v1.416h3.291v-1.416zm14.186 4e-3v1.416h3.291v-1.416zm-46.4 2e-3v1.4082h3.2617v-1.4085zm14.037 2e-3v1.4082h3.2637v-1.4082zm14.193 0v1.4082h3.2617v-1.4082zm14.191 0v1.4082h3.2637v-1.4082zm14.199 0v1.4082h3.2617v-1.4082zm14.141 0.0137v1.4082h3.2637v-1.4082z" fill="#abb980"/><path d="m382.53 410.33h-3.2978v2.0044l-1.2023 1e-3v0.75051h-3.8753l9.1e-4 -0.75247h-1.2515v-2.0046l-7.7162-8.1e-4v2.0044l-1.1963 1e-3v0.75051h-3.8753l9.1e-4 -0.75247h-1.2515v-2.0046l-7.8635 1e-3v2.0044l-1.2023 1e-3v0.75051h-3.8753l9e-4 -0.75247h-1.2514v-2.0046l-7.8634 1e-3v2.0044l-1.2023 1e-3v0.75051h-3.8753l9e-4 -0.75247h-1.2515v-2.0046l-7.8662 4e-3v2.0045l-1.1963 1e-3v0.75074h-3.8752l8.8e-4 -0.75247h-1.2514v-2.0047l-7.8348-0.0187v2.0045l-1.1963 9.9e-4v0.75053h-3.8752l9.1e-4 -0.75247h-1.2514v-2.0047h-3.2885l-0.019-19.647h3.3038l-6e-3 -2.0044 1.2023-1e-3v-0.75051h3.8753l-9e-4 0.75247h1.2515v2.0046l7.7162 8e-4 -6e-3 -2.0044 1.2023-1e-3v-0.75051h3.8753l-9e-4 0.75247h1.2515v2.0046l7.8695-1e-3 -6e-3 -2.0044 1.2023-1e-3v-0.75051h3.8753l-9e-4 0.75247h1.2515v2.0046l7.8694-1e-3 -6e-3 -2.0044 1.2023-1e-3v-0.75051h3.8753l-9e-4 0.75247h1.2515v2.0046l7.8662-4e-3 -6e-3 -2.0045 1.2023-9.9e-4v-0.75057h3.8752l-8.8e-4 0.75247h1.2514v2.0047l7.8348 0.0187-6e-3 -2.0045 1.2023-9.9e-4v-0.75053h3.8752l-9.1e-4 0.75247h1.2514v2.0047h3.2885z" fill="#1a1a1a"/><path d="m302.64 387.35-5.262 2e-3 4e-3 26.298 5.2855 2e-3v-1.2647l-0.55135 2e-3v-1.6515h-3.2782v-8.978l12.917-8e-3 2e-3 8.986h-3.2975v1.6513l-0.50877-2e-3v1.2647h8.7566v-1.2647l-0.41303 2e-3v-1.6513h-3.4186l2e-3 -8.9782 12.917-8e-3v8.986l-3.1784 0.0137v1.6376l-0.62786-2e-3v1.2647h8.9106v-1.2647l-0.41654 2e-3v-1.6376l-3.415-0.0137 2e-3 -8.9782 12.917-8e-3v8.986l-3.1758 0.0137v1.6376l-0.62852-2e-3v1.2647h8.9086v-1.2647l-0.41668 2e-3v-1.6376l-3.413-0.0137v-8.9782l12.917-8e-3v8.986l-3.176 0.0137v1.6376l-0.62839-2e-3v1.2647h8.9088v-1.2647l-0.41691 2e-3v-1.6376l-3.4127-0.0137v-8.9782l12.917-8e-3 2e-3 8.986-3.1841 0.0137v1.6376l-0.62213-2e-3v1.2647h8.8733v-1.2647l-0.53497 2e-3v-1.6376l-3.2966-0.0137 2e-3 -9.0328 12.918-0.0295v9.0621l-3.2952 0.0137v1.6376l-0.50912-2e-3v1.2647l5.262-2e-3 -4e-3 -26.298-5.2875-2e-3v1.2647l4.2506-2e-3v1.6376l-0.42096 0.0137v8.9782l-12.917 8e-3v-8.986l-0.42096-0.0137v-1.6376l4.2253 2e-3v-1.2636h-8.8734v1.2647l4.2506-2e-3v1.6376l-0.41901 0.0137-2e-3 9.0328-12.916 0.0276-2e-3 -9.0601-0.41902-0.0137v-1.6376l4.2253 2e-3v-1.2647h-8.9106v1.2647l4.2506-2e-3v1.6376l-0.41901 0.0137-2e-3 9.0328-0.01 0.01-12.908 0.0176v-9.0601l-0.41899-0.0137v-1.6376l4.2253 2e-3v-1.2647h-8.9105v1.2647l4.2506-2e-3v1.6376l-0.42097 0.0137v9.0328l-12.918 0.0274v-9.0601l-0.41902-0.0137v-1.6376l4.2233 2e-3v-1.2647h-8.9088v1.2647l4.2486-2e-3v1.6376l-0.41901 0.0137v9.0328l-12.918 0.0276v-9.0601l-0.42097-0.0137v-1.6376l4.2253 2e-3v-1.2647h-8.7566v1.2647l4.2506-2e-3v1.6376l-0.41902 0.0137-2e-3 9.0328-12.916 0.0276-2e-3 -9.0601-0.41899-0.0137v-1.6376l4.2253 2e-3z" fill="#ebebeb"/><g fill="#fff" stroke="#fff" stroke-linejoin="round" stroke-opacity=".99692" stroke-width=".3978"><path d="m330.59 383.89-0.65601-0.0189-0.65602 0.0189 0.34441-0.55866 0.31161-0.57758 0.31161 0.57759z"/><path d="m336.71 383.89-0.3116-0.5776-0.34441-0.55866 0.65602 0.0189 0.65601-0.0189-0.3444 0.55866z"/><path d="m344.82 383.89-0.65601-0.0189-0.65602 0.0189 0.34441-0.55866 0.31161-0.57758 0.31161 0.57759z"/><path d="m350.87 383.89-0.3116-0.5776-0.34441-0.55866 0.65602 0.0189 0.65601-0.0189-0.3444 0.55866z"/><path d="m359.15 383.89-0.65601-0.0189-0.65602 0.0189 0.34441-0.55866 0.31161-0.57758 0.31161 0.57759z"/><path d="m364.78 383.89-0.3116-0.5776-0.34441-0.55866 0.65602 0.0189 0.65601-0.0189-0.3444 0.55866z"/><path d="m373.72 383.89-0.65601-0.0189-0.65602 0.0189 0.34441-0.55866 0.31161-0.57758 0.31161 0.57759z"/><path d="m379.15 383.89-0.3116-0.5776-0.34441-0.55866 0.65602 0.0189 0.65601-0.0189-0.3444 0.55866z"/><path d="m301.95 383.89-0.65601-0.0189-0.65602 0.0189 0.34441-0.55866 0.31161-0.57758 0.31161 0.57759z"/><path d="m308.19 383.89-0.3116-0.5776-0.34441-0.55866 0.65602 0.0189 0.65601-0.0189-0.3444 0.55866z"/><path d="m316.87 383.89-0.65601-0.0189-0.65602 0.0189 0.34441-0.55866 0.31161-0.57758 0.31161 0.57759z"/><path d="m322.16 383.89-0.3116-0.5776-0.34441-0.55866 0.65602 0.0189 0.65601-0.0189-0.3444 0.55866z"/></g><rect x="386.83" y="386.95" width="87.248" height="27.121" rx=".31701" ry=".13971" fill="#3a3a3a" stroke="#000" stroke-width=".5"/><path d="m459.07 388.72v1.416h3.291v-1.416zm-70.75 4e-3v1.416h3.291v-1.416zm14.039 2e-3v1.416h3.291v-1.416zm14.191 0v1.416h3.293v-1.416zm14.193 0v1.416h3.291v-1.416zm14.186 4e-3v1.416h3.291v-1.416zm-46.4 2e-3v1.4082h3.2617v-1.4085zm14.037 2e-3v1.4082h3.2637v-1.4082zm14.193 0v1.4082h3.2617v-1.4082zm14.191 0v1.4082h3.2637v-1.4082zm14.199 0v1.4082h3.2617v-1.4082zm14.141 0.0137v1.4082h3.2637v-1.4082z" fill="#abb980"/><path d="m472.31 410.33h-3.2978v2.0044l-1.2023 1e-3v0.75051h-3.8753l9.1e-4 -0.75247h-1.2515v-2.0046l-7.7162-8.1e-4v2.0044l-1.1963 1e-3v0.75051h-3.8753l9.1e-4 -0.75247h-1.2515v-2.0046l-7.8635 1e-3v2.0044l-1.2023 1e-3v0.75051h-3.8753l9e-4 -0.75247h-1.2514v-2.0046l-7.8634 1e-3v2.0044l-1.2023 1e-3v0.75051h-3.8753l9e-4 -0.75247h-1.2515v-2.0046l-7.8662 4e-3v2.0045l-1.1963 1e-3v0.75074h-3.8752l8.8e-4 -0.75247h-1.2514v-2.0047l-7.8348-0.0187v2.0045l-1.1963 9.9e-4v0.75053h-3.8752l9.1e-4 -0.75247h-1.2514v-2.0047h-3.2885l-0.019-19.647h3.3038l-6e-3 -2.0044 1.2023-1e-3v-0.75051h3.8753l-9e-4 0.75247h1.2515v2.0046l7.7162 8e-4 -6e-3 -2.0044 1.2023-1e-3v-0.75051h3.8753l-9e-4 0.75247h1.2515v2.0046l7.8695-1e-3 -6e-3 -2.0044 1.2023-1e-3v-0.75051h3.8753l-9e-4 0.75247h1.2515v2.0046l7.8694-1e-3 -6e-3 -2.0044 1.2023-1e-3v-0.75051h3.8753l-9e-4 0.75247h1.2515v2.0046l7.8662-4e-3 -6e-3 -2.0045 1.2023-9.9e-4v-0.75057h3.8752l-8.8e-4 0.75247h1.2514v2.0047l7.8348 0.0187-6e-3 -2.0045 1.2023-9.9e-4v-0.75053h3.8752l-9.1e-4 0.75247h1.2514v2.0047h3.2885z" fill="#1a1a1a"/><path d="m392.42 387.35-5.262 2e-3 4e-3 26.298 5.2855 2e-3v-1.2647l-0.55135 2e-3v-1.6515h-3.2782v-8.978l12.917-8e-3 2e-3 8.986h-3.2975v1.6513l-0.50877-2e-3v1.2647h8.7566v-1.2647l-0.41303 2e-3v-1.6513h-3.4186l2e-3 -8.9782 12.917-8e-3v8.986l-3.1784 0.0137v1.6376l-0.62786-2e-3v1.2647h8.9106v-1.2647l-0.41654 2e-3v-1.6376l-3.415-0.0137 2e-3 -8.9782 12.917-8e-3v8.986l-3.1758 0.0137v1.6376l-0.62852-2e-3v1.2647h8.9086v-1.2647l-0.41668 2e-3v-1.6376l-3.413-0.0137v-8.9782l12.917-8e-3v8.986l-3.176 0.0137v1.6376l-0.62839-2e-3v1.2647h8.9088v-1.2647l-0.41691 2e-3v-1.6376l-3.4127-0.0137v-8.9782l12.917-8e-3 2e-3 8.986-3.1841 0.0137v1.6376l-0.62213-2e-3v1.2647h8.8733v-1.2647l-0.53497 2e-3v-1.6376l-3.2966-0.0137 2e-3 -9.0328 12.918-0.0295v9.0621l-3.2952 0.0137v1.6376l-0.50912-2e-3v1.2647l5.262-2e-3 -4e-3 -26.298-5.2875-2e-3v1.2647l4.2506-2e-3v1.6376l-0.42096 0.0137v8.9782l-12.917 8e-3v-8.986l-0.42096-0.0137v-1.6376l4.2253 2e-3v-1.2636h-8.8734v1.2647l4.2506-2e-3v1.6376l-0.41901 0.0137-2e-3 9.0328-12.916 0.0276-2e-3 -9.0601-0.41902-0.0137v-1.6376l4.2253 2e-3v-1.2647h-8.9106v1.2647l4.2506-2e-3v1.6376l-0.41901 0.0137-2e-3 9.0328-0.01 0.01-12.908 0.0176v-9.0601l-0.41899-0.0137v-1.6376l4.2253 2e-3v-1.2647h-8.9105v1.2647l4.2506-2e-3v1.6376l-0.42097 0.0137v9.0328l-12.918 0.0274v-9.0601l-0.41902-0.0137v-1.6376l4.2233 2e-3v-1.2647h-8.9088v1.2647l4.2486-2e-3v1.6376l-0.41901 0.0137v9.0328l-12.918 0.0276v-9.0601l-0.42097-0.0137v-1.6376l4.2253 2e-3v-1.2647h-8.7566v1.2647l4.2506-2e-3v1.6376l-0.41902 0.0137-2e-3 9.0328-12.916 0.0276-2e-3 -9.0601-0.41899-0.0137v-1.6376l4.2253 2e-3z" fill="#ebebeb"/><g fill="#fff" stroke="#fff" stroke-linejoin="round" stroke-opacity=".99692" stroke-width=".3978"><path d="m420.29 383.89-0.65601-0.0189-0.65602 0.0189 0.34441-0.55866 0.31161-0.57758 0.31161 0.57759z"/><path d="m426.48 383.89-0.3116-0.5776-0.34441-0.55866 0.65602 0.0189 0.65601-0.0189-0.3444 0.55866z"/><path d="m434.59 383.89-0.65601-0.0189-0.65602 0.0189 0.34441-0.55866 0.31161-0.57758 0.31161 0.57759z"/><path d="m440.64 383.89-0.3116-0.5776-0.34441-0.55866 0.65602 0.0189 0.65601-0.0189-0.3444 0.55866z"/><path d="m448.92 383.89-0.65601-0.0189-0.65602 0.0189 0.34441-0.55866 0.31161-0.57758 0.31161 0.57759z"/><path d="m454.55 383.89-0.3116-0.5776-0.34441-0.55866 0.65602 0.0189 0.65601-0.0189-0.3444 0.55866z"/><path d="m463.49 383.89-0.65601-0.0189-0.65602 0.0189 0.34441-0.55866 0.31161-0.57758 0.31161 0.57759z"/><path d="m469.98 383.89-0.3116-0.5776-0.34441-0.55866 0.65602 0.0189 0.65601-0.0189-0.3444 0.55866z"/><path d="m391.72 383.89-0.65601-0.0189-0.65602 0.0189 0.34441-0.55866 0.31161-0.57758 0.31161 0.57759z"/><path d="m398.34 383.89-0.3116-0.5776-0.34441-0.55866 0.65602 0.0189 0.65601-0.0189-0.3444 0.55866z"/><path d="m406.26 383.89-0.65601-0.0189-0.65602 0.0189 0.34441-0.55866 0.31161-0.57758 0.31161 0.57759z"/><path d="m412.66 383.95-0.3116-0.5776-0.34441-0.55866 0.65602 0.0189 0.65601-0.0189-0.3444 0.55866z"/></g><path d="m67.947 376.59c-0.87421 0-1.5781 0.70392-1.5781 1.5781v22.998h4.5039v-16.943h3.7754v-7.6328h-6.377z" fill="#ffeb00"/><g fill="#fff" aria-label="13"><path d="m210.1 384.1v-0.2041h0.34082v-0.93848l-0.33008 0.20606v-0.21582l0.34473-0.22364h0.25977v1.1719h0.31543v0.2041z"/><path d="m212.12 383.72q0 0.19335-0.12695 0.29882-0.12696 0.10547-0.36133 0.10547-0.22168 0-0.35254-0.10156-0.13086-0.10254-0.15332-0.29492l0.2793-0.0244q0.0264 0.19825 0.22558 0.19825 0.0986 0 0.15332-0.0488 0.0547-0.0488 0.0547-0.14942 0-0.0918-0.0664-0.14062-0.0664-0.0488-0.19726-0.0488h-0.0957v-0.22168h0.0899q0.11816 0 0.17773-0.0478 0.0596-0.0488 0.0596-0.13867 0-0.085-0.0479-0.13282-0.0469-0.0488-0.13769-0.0488-0.085 0-0.1377 0.0469-0.0518 0.0469-0.0596 0.13281l-0.27441-0.0195q0.0215-0.17773 0.14746-0.27832 0.12597-0.10058 0.3291-0.10058 0.21582 0 0.33691 0.0976 0.12207 0.0967 0.12207 0.26856 0 0.1289-0.0762 0.21191-0.0752 0.083-0.21777 0.11035v4e-3q0.1582 0.0186 0.24316 0.10449 0.0859 0.085 0.0859 0.21778z"/></g><g fill="#fff" aria-label="17"><path d="m238.12 384.04v-0.2041h0.34082v-0.93847l-0.33008 0.20605v-0.21582l0.34473-0.22363h0.25976v1.1719h0.31543v0.2041z"/><path d="m240.13 382.89q-0.0928 0.14649-0.17578 0.28418-0.082 0.1377-0.14356 0.27735-0.0615 0.13867-0.0977 0.28613-0.0352 0.14648-0.0352 0.31054h-0.28613q0-0.17187 0.0449-0.33203 0.0449-0.16113 0.12988-0.32714 0.085-0.167 0.3086-0.49122h-0.6836v-0.22558h0.93848z"/></g><g fill="#fff" aria-label="18"><path d="m248.7 384.02v-0.2041h0.34082v-0.93847l-0.33008 0.20605v-0.21582l0.34473-0.22363h0.25977v1.1719h0.31543v0.2041z"/><path d="m250.74 383.64q0 0.19336-0.12793 0.30078-0.12793 0.10644-0.36523 0.10644-0.23535 0-0.36524-0.10644-0.1289-0.10645-0.1289-0.29883 0-0.13183 0.0762-0.22168 0.0762-0.0908 0.2041-0.1123v-4e-3q-0.11133-0.0244-0.17969-0.11035-0.0684-0.0859-0.0684-0.19824 0-0.16895 0.11914-0.2666 0.12012-0.0977 0.33887-0.0977 0.22363 0 0.34277 0.0957 0.12012 0.0947 0.12012 0.27051 0 0.1123-0.0684 0.19727-0.0674 0.085-0.18164 0.10742v4e-3q0.13281 0.0215 0.20801 0.10938 0.0762 0.0869 0.0762 0.22461zm-0.31641-0.62793q0-0.0977-0.0449-0.14258-0.0449-0.0459-0.13574-0.0459-0.17773 0-0.17773 0.18848 0 0.19726 0.17968 0.19726 0.0899 0 0.13379-0.0459 0.0449-0.0459 0.0449-0.15137zm0.0322 0.60547q0-0.21582-0.21484-0.21582-0.0996 0-0.15332 0.0566-0.0527 0.0566-0.0527 0.16308 0 0.1211 0.0527 0.17676 0.0527 0.0557 0.16113 0.0557 0.10645 0 0.15625-0.0557 0.0508-0.0557 0.0508-0.18066z"/></g><g fill="#fff" aria-label="19"><path d="m252 384.02v-0.2041h0.34082v-0.93847l-0.33007 0.20605v-0.21582l0.34472-0.22363h0.25977v1.1719h0.31543v0.2041z"/><path d="m254.03 383.31q0 0.36621-0.13379 0.54785t-0.37988 0.18164q-0.18164 0-0.28516-0.0771-0.10254-0.0781-0.14551-0.2461l0.25782-0.0361q0.0381 0.14355 0.17578 0.14355 0.11523 0 0.17675-0.11035 0.0625-0.11035 0.0645-0.32715-0.0371 0.0733-0.12207 0.11524-0.084 0.041-0.18164 0.041-0.18164 0-0.28907-0.12304-0.10644-0.12403-0.10644-0.33496 0-0.2168 0.125-0.33887 0.12598-0.12207 0.35547-0.12207 0.24707 0 0.36718 0.17187 0.1211 0.1709 0.1211 0.51465zm-0.29004-0.19238q0-0.12793-0.0566-0.20313-0.0557-0.0762-0.14844-0.0762-0.0908 0-0.14355 0.0664-0.0518 0.0654-0.0518 0.18164 0 0.11426 0.0518 0.18359 0.0517 0.0684 0.14453 0.0684 0.0879 0 0.14551-0.0596 0.0586-0.0605 0.0586-0.16113z"/></g><g fill="#fff" aria-label="20"><path d="m262.84 384.02v-0.19043q0.0537-0.11816 0.15234-0.23046 0.0996-0.11231 0.25-0.23438 0.14454-0.11719 0.20215-0.19336 0.0586-0.0762 0.0586-0.14941 0-0.17969-0.18067-0.17969-0.0879 0-0.13476 0.0478-0.0459 0.0469-0.0596 0.1416l-0.27637-0.0156q0.0234-0.19141 0.14258-0.29199 0.12011-0.10059 0.32617-0.10059 0.22266 0 0.3418 0.10156t0.11914 0.28516q0 0.0967-0.0381 0.1748t-0.0977 0.14453q-0.0596 0.0654-0.13281 0.12305-0.0723 0.0576-0.14062 0.11231-0.0684 0.0547-0.125 0.11035-0.0557 0.0557-0.083 0.11914h0.63867v0.22558z"/><path d="m264.92 383.34q0 0.34863-0.12011 0.52832-0.11915 0.17968-0.3584 0.17968-0.47266 0-0.47266-0.708 0-0.24707 0.0518-0.40332t0.15527-0.23047q0.10352-0.0742 0.27344-0.0742 0.24414 0 0.35742 0.17676 0.11328 0.17675 0.11328 0.53125zm-0.27539 0q0-0.19043-0.0186-0.2959t-0.0596-0.15137-0.11914-0.0459q-0.083 0-0.12598 0.0469-0.042 0.0459-0.0606 0.15137-0.0176 0.10449-0.0176 0.29492 0 0.18847 0.0186 0.29492 0.0195 0.10547 0.0605 0.15137 0.042 0.0459 0.12109 0.0459 0.0781 0 0.12012-0.0478 0.043-0.0488 0.0615-0.15527 0.0195-0.10645 0.0195-0.28906z"/></g><g fill="#fff" aria-label="21"><path d="m266.15 384.04v-0.19042q0.0537-0.11817 0.15234-0.23047 0.0996-0.11231 0.25-0.23438 0.14453-0.11719 0.20215-0.19336 0.0586-0.0762 0.0586-0.14941 0-0.17969-0.18066-0.17969-0.0879 0-0.13476 0.0479-0.0459 0.0469-0.0596 0.1416l-0.27636-0.0156q0.0234-0.19141 0.14258-0.29199 0.12011-0.10059 0.32617-0.10059 0.22265 0 0.34179 0.10156 0.11915 0.10157 0.11915 0.28516 0 0.0967-0.0381 0.1748t-0.0977 0.14454q-0.0596 0.0654-0.13281 0.12304-0.0723 0.0576-0.14062 0.11231-0.0684 0.0547-0.125 0.11035-0.0557 0.0557-0.083 0.11914h0.63867v0.22558z"/><path d="m267.32 384.04v-0.2041h0.34082v-0.93847l-0.33007 0.20605v-0.21582l0.34472-0.22363h0.25977v1.1719h0.31543v0.2041z"/></g><path d="m84.607 386.4-0.3116-0.5776-0.34441-0.55866 0.65602 0.0189 0.65601-0.0189-0.3444 0.55866z" fill="#fff" stroke="#fff" stroke-linejoin="round" stroke-opacity=".99692" stroke-width=".3978"/><path d="m79.28 386.4-0.65601-0.0189-0.65602 0.0189 0.34441-0.55866 0.31161-0.57758 0.31161 0.57759z" fill="#fff" stroke="#fff" stroke-linejoin="round" stroke-opacity=".99692" stroke-width=".3978"/><g fill="#fff" aria-label="50"><path d="m86.646 386.12q0 0.21875-0.13672 0.34864-0.13574 0.1289-0.37305 0.1289-0.20703 0-0.33203-0.0928-0.12402-0.0937-0.15332-0.27051l0.27441-0.0225q0.02148 0.0879 0.07617 0.12793 0.05469 0.04 0.1377 0.04 0.10254 0 0.16309-0.0654 0.06152-0.0654 0.06152-0.18848 0-0.1084-0.05762-0.17285-0.05762-0.0654-0.16113-0.0654-0.11426 0-0.18652 0.0889h-0.26758l0.04785-0.77441h0.82715v0.2041h-0.57812l-0.02246 0.34765q0.09961-0.0879 0.24902-0.0879 0.19629 0 0.31348 0.12207 0.11816 0.12207 0.11816 0.33203z"/><path d="m87.732 385.89q0 0.34863-0.12012 0.52832-0.11914 0.17968-0.3584 0.17968-0.47266 0-0.47266-0.708 0-0.24708 0.05176-0.40333t0.15527-0.23046q0.10352-0.0742 0.27344-0.0742 0.24414 0 0.35742 0.17676 0.11328 0.17675 0.11328 0.53125zm-0.27539 0q0-0.19043-0.01856-0.2959-0.01855-0.10547-0.05957-0.15137t-0.11914-0.0459q-0.08301 0-0.12598 0.0469-0.04199 0.0459-0.06055 0.15136-0.01758 0.1045-0.01758 0.29493 0 0.18847 0.01856 0.29492 0.01953 0.10547 0.06055 0.15136 0.04199 0.0459 0.12109 0.0459 0.07813 0 0.12012-0.0478 0.04297-0.0488 0.06152-0.15527 0.01953-0.10645 0.01953-0.28906z"/></g><g fill="#fff" aria-label="49"><path d="m76.373 386.26v0.28027h-0.26172v-0.28027h-0.62598v-0.20606l0.58106-0.88965h0.30664v0.89161h0.18359v0.2041zm-0.26172-0.6543q0-0.0527 0.0029-0.11426 0.0039-0.0615 0.0059-0.0791-0.02539 0.0547-0.0918 0.1582l-0.31934 0.48536h0.40234z"/><path d="m77.606 385.83q0 0.36621-0.13379 0.54785t-0.37988 0.18164q-0.18164 0-0.28516-0.0771-0.10254-0.0781-0.14551-0.24609l0.25781-0.0361q0.03809 0.14355 0.17578 0.14355 0.11524 0 0.17676-0.11035 0.0625-0.11035 0.06445-0.32715-0.03711 0.0732-0.12207 0.11524-0.08398 0.041-0.18164 0.041-0.18164 0-0.28906-0.12304-0.10644-0.12403-0.10644-0.33497 0-0.21679 0.125-0.33886 0.12598-0.12207 0.35547-0.12207 0.24707 0 0.36719 0.17187 0.12109 0.1709 0.12109 0.51465zm-0.29004-0.19238q0-0.12793-0.05664-0.20313-0.05566-0.0762-0.14844-0.0762-0.09082 0-0.14355 0.0664-0.05176 0.0654-0.05176 0.18164 0 0.11426 0.05176 0.18359 0.05176 0.0684 0.14453 0.0684 0.08789 0 0.14551-0.0596 0.05859-0.0605 0.05859-0.16113z"/></g><path d="m107.13 386.4-0.3116-0.5776-0.34441-0.55866 0.65602 0.0189 0.65601-0.0189-0.3444 0.55866z" fill="#fff" stroke="#fff" stroke-linejoin="round" stroke-opacity=".99692" stroke-width=".3978"/><path d="m101.8 386.4-0.65601-0.0189-0.65602 0.0189 0.34441-0.55866 0.31161-0.57758 0.31161 0.57759z" fill="#fff" stroke="#fff" stroke-linejoin="round" stroke-opacity=".99692" stroke-width=".3978"/><g fill="#fff" aria-label="52"><path d="m109.16 386.12q0 0.21875-0.13672 0.34864-0.13574 0.1289-0.37305 0.1289-0.20703 0-0.33203-0.0928-0.12402-0.0937-0.15332-0.27051l0.27441-0.0225q0.0215 0.0879 0.0762 0.12793 0.0547 0.04 0.13769 0.04 0.10254 0 0.16309-0.0654 0.0615-0.0654 0.0615-0.18848 0-0.1084-0.0576-0.17285-0.0576-0.0654-0.16113-0.0654-0.11426 0-0.18652 0.0889h-0.26758l0.0479-0.77441h0.82715v0.2041h-0.57813l-0.0225 0.34765q0.0996-0.0879 0.24903-0.0879 0.19629 0 0.31347 0.12207 0.11817 0.12207 0.11817 0.33203z"/><path d="m109.29 386.58v-0.19043q0.0537-0.11816 0.15234-0.23047 0.0996-0.1123 0.25-0.23437 0.14453-0.11719 0.20215-0.19336 0.0586-0.0762 0.0586-0.14942 0-0.17968-0.18066-0.17968-0.0879 0-0.13477 0.0479-0.0459 0.0469-0.0596 0.1416l-0.27636-0.0156q0.0234-0.19141 0.14257-0.292 0.12012-0.10058 0.32618-0.10058 0.22265 0 0.34179 0.10156t0.11914 0.28516q0 0.0967-0.0381 0.1748t-0.0977 0.14453q-0.0596 0.0654-0.13281 0.12305-0.0723 0.0576-0.14063 0.1123-0.0684 0.0547-0.125 0.11036-0.0557 0.0557-0.083 0.11914h0.63867v0.22558z"/></g><g stroke-width=".73342" aria-label="48"><path d="m154.92 417.21v0.30834h-0.28793v-0.30834h-0.68865v-0.22669l0.63923-0.97872h0.33735v0.98087h0.20197v0.22454zm-0.28793-0.71981q0-0.058 3e-3 -0.1257 4e-3 -0.0677 6e-3 -0.087-0.0279 0.0602-0.10099 0.17405l-0.35131 0.53394h0.44263z"/><path d="m156.29 417.1q0 0.21272-0.14074 0.3309-0.14074 0.1171-0.4018 0.1171-0.25892 0-0.40181-0.1171-0.14181-0.1171-0.14181-0.32875 0-0.14503 0.0838-0.24387 0.0838-0.0999 0.22454-0.12355v-4e-3q-0.12248-0.0269-0.19768-0.1214t-0.0752-0.21809q0-0.18586 0.13107-0.2933 0.13215-0.10743 0.3728-0.10743 0.24602 0 0.37709 0.10528 0.13215 0.10422 0.13215 0.2976 0 0.12355-0.0752 0.21701-0.0741 0.0935-0.19982 0.11818v4e-3q0.14611 0.0236 0.22883 0.12032 0.0838 0.0956 0.0838 0.2471zm-0.34809-0.6908q0-0.10743-0.0494-0.15685-0.0494-0.0505-0.14933-0.0505-0.19553 0-0.19553 0.20735 0 0.21702 0.19768 0.21702 0.0988 0 0.14718-0.0505 0.0494-0.0505 0.0494-0.16652zm0.0355 0.66609q0-0.23743-0.23636-0.23743-0.10958 0-0.16867 0.0623-0.058 0.0623-0.058 0.17941 0 0.13322 0.058 0.19446 0.058 0.0612 0.17727 0.0612 0.1171 0 0.17189-0.0612 0.0559-0.0612 0.0559-0.19876z"/></g><g fill="#fff" aria-label="51"><path d="m99.03 386.08q0 0.21875-0.13672 0.34864-0.13574 0.1289-0.37305 0.1289-0.20703 0-0.33203-0.0928-0.12402-0.0937-0.15332-0.27051l0.27441-0.0225q0.02148 0.0879 0.07617 0.12793 0.05469 0.04 0.1377 0.04 0.10254 0 0.16309-0.0654 0.06152-0.0654 0.06152-0.18848 0-0.1084-0.05762-0.17285-0.05762-0.0654-0.16113-0.0654-0.11426 0-0.18652 0.0889h-0.26758l0.04785-0.77442h0.82715v0.20411h-0.57812l-0.02246 0.34765q0.09961-0.0879 0.24902-0.0879 0.19629 0 0.31348 0.12207 0.11816 0.12207 0.11816 0.33203z"/><path d="m99.212 386.54v-0.2041h0.34082v-0.93848l-0.33008 0.20606v-0.21582l0.34473-0.22364h0.25977v1.1719h0.31543v0.2041z"/></g><g fill="#fff" aria-label="22"><path d="m276.84 384.04v-0.19042q0.0537-0.11817 0.15234-0.23047 0.0996-0.11231 0.25-0.23438 0.14453-0.11719 0.20215-0.19336 0.0586-0.0762 0.0586-0.14941 0-0.17969-0.18067-0.17969-0.0879 0-0.13476 0.0479-0.0459 0.0469-0.0596 0.1416l-0.27637-0.0156q0.0234-0.19141 0.14258-0.29199 0.12011-0.10059 0.32617-0.10059 0.22265 0 0.34179 0.10156 0.11915 0.10157 0.11915 0.28516 0 0.0967-0.0381 0.1748t-0.0977 0.14454q-0.0596 0.0654-0.13281 0.12304-0.0723 0.0576-0.14062 0.11231-0.0684 0.0547-0.125 0.11035-0.0557 0.0557-0.083 0.11914h0.63867v0.22558z"/><path d="m277.95 384.04v-0.19042q0.0537-0.11817 0.15235-0.23047 0.0996-0.11231 0.25-0.23438 0.14453-0.11719 0.20215-0.19336 0.0586-0.0762 0.0586-0.14941 0-0.17969-0.18066-0.17969-0.0879 0-0.13477 0.0479-0.0459 0.0469-0.0596 0.1416l-0.27637-0.0156q0.0234-0.19141 0.14258-0.29199 0.12012-0.10059 0.32617-0.10059 0.22266 0 0.3418 0.10156 0.11914 0.10157 0.11914 0.28516 0 0.0967-0.0381 0.1748t-0.0976 0.14454q-0.0596 0.0654-0.13281 0.12304-0.0723 0.0576-0.14063 0.11231-0.0684 0.0547-0.125 0.11035-0.0557 0.0557-0.083 0.11914h0.63867v0.22558z"/></g><g fill="#fff" aria-label="23"><path d="m280.07 384.02v-0.19043q0.0537-0.11816 0.15234-0.23046 0.0996-0.11231 0.25-0.23438 0.14453-0.11719 0.20215-0.19336 0.0586-0.0762 0.0586-0.14941 0-0.17969-0.18066-0.17969-0.0879 0-0.13477 0.0478-0.0459 0.0469-0.0596 0.1416l-0.27637-0.0156q0.0234-0.19141 0.14258-0.29199 0.12012-0.10059 0.32617-0.10059 0.22266 0 0.3418 0.10156t0.11914 0.28516q0 0.0967-0.0381 0.1748t-0.0977 0.14453q-0.0596 0.0654-0.13281 0.12305-0.0723 0.0576-0.14063 0.11231-0.0684 0.0547-0.125 0.11035-0.0557 0.0557-0.083 0.11914h0.63868v0.22558z"/><path d="m282.15 383.64q0 0.19336-0.12695 0.29883-0.12695 0.10546-0.36133 0.10546-0.22168 0-0.35254-0.10156-0.13086-0.10254-0.15332-0.29492l0.2793-0.0244q0.0264 0.19824 0.22559 0.19824 0.0986 0 0.15332-0.0488 0.0547-0.0488 0.0547-0.14941 0-0.0918-0.0664-0.14063-0.0664-0.0488-0.19727-0.0488h-0.0957v-0.22168h0.0898q0.11817 0 0.17774-0.0478 0.0596-0.0488 0.0596-0.13867 0-0.085-0.0478-0.13281-0.0469-0.0488-0.1377-0.0488-0.085 0-0.1377 0.0469-0.0518 0.0469-0.0596 0.13282l-0.27441-0.0195q0.0215-0.17774 0.14746-0.27832 0.12598-0.10059 0.3291-0.10059 0.21582 0 0.33692 0.0977 0.12207 0.0967 0.12207 0.26855 0 0.12891-0.0762 0.21191-0.0752 0.083-0.21778 0.11036v4e-3q0.15821 0.0186 0.24317 0.10449 0.0859 0.085 0.0859 0.21778z"/></g><g fill="#fff" aria-label="24"><path d="m291.16 384.04v-0.19042q0.0537-0.11817 0.15234-0.23047 0.0996-0.11231 0.25-0.23438 0.14453-0.11719 0.20215-0.19336 0.0586-0.0762 0.0586-0.14941 0-0.17969-0.18066-0.17969-0.0879 0-0.13476 0.0479-0.0459 0.0469-0.0596 0.1416l-0.27636-0.0156q0.0234-0.19141 0.14258-0.29199 0.12011-0.10059 0.32617-0.10059 0.22265 0 0.34179 0.10156 0.11915 0.10157 0.11915 0.28516 0 0.0967-0.0381 0.1748t-0.0977 0.14454q-0.0596 0.0654-0.13281 0.12304-0.0723 0.0576-0.14062 0.11231-0.0684 0.0547-0.125 0.11035-0.0557 0.0557-0.083 0.11914h0.63867v0.22558z"/><path d="m293.12 383.76v0.28027h-0.26172v-0.28027h-0.62598v-0.20605l0.58106-0.88965h0.30664v0.8916h0.18359v0.2041zm-0.26172-0.6543q0-0.0527 3e-3 -0.11425 4e-3 -0.0615 6e-3 -0.0791-0.0254 0.0547-0.0918 0.1582l-0.31934 0.48535h0.40235z"/></g><g fill="#fff" aria-label="25"><path d="m297.78 384.02v-0.19043q0.0537-0.11816 0.15235-0.23046 0.0996-0.11231 0.25-0.23438 0.14453-0.11719 0.20214-0.19336 0.0586-0.0762 0.0586-0.14941 0-0.17969-0.18067-0.17969-0.0879 0-0.13476 0.0478-0.0459 0.0469-0.0596 0.1416l-0.27637-0.0156q0.0234-0.19141 0.14258-0.29199 0.12012-0.10059 0.32617-0.10059 0.22266 0 0.3418 0.10156t0.11914 0.28516q0 0.0967-0.0381 0.1748t-0.0976 0.14453q-0.0596 0.0654-0.13282 0.12305-0.0723 0.0576-0.14062 0.11231-0.0684 0.0547-0.125 0.11035-0.0557 0.0557-0.083 0.11914h0.63867v0.22558z"/><path d="m299.88 383.57q0 0.21875-0.13672 0.34863-0.13574 0.1289-0.37304 0.1289-0.20704 0-0.33204-0.0928-0.12402-0.0937-0.15332-0.27051l0.27442-0.0225q0.0215 0.0879 0.0762 0.12793 0.0547 0.04 0.13769 0.04 0.10254 0 0.16309-0.0654 0.0615-0.0654 0.0615-0.18847 0-0.1084-0.0576-0.17286-0.0576-0.0654-0.16114-0.0654-0.11425 0-0.18652 0.0889h-0.26758l0.0478-0.77441h0.82715v0.2041h-0.57812l-0.0225 0.34765q0.0996-0.0879 0.24902-0.0879 0.19629 0 0.31348 0.12207 0.11816 0.12207 0.11816 0.33204z"/></g><g fill="#fff" aria-label="26"><path d="m309.23 384.02v-0.19043q0.0537-0.11816 0.15235-0.23046 0.0996-0.11231 0.25-0.23438 0.14453-0.11719 0.20214-0.19336 0.0586-0.0762 0.0586-0.14941 0-0.17969-0.18067-0.17969-0.0879 0-0.13476 0.0478-0.0459 0.0469-0.0596 0.1416l-0.27637-0.0156q0.0234-0.19141 0.14258-0.29199 0.12012-0.10059 0.32617-0.10059 0.22266 0 0.3418 0.10156t0.11914 0.28516q0 0.0967-0.0381 0.1748t-0.0976 0.14453q-0.0596 0.0654-0.13282 0.12305-0.0723 0.0576-0.14062 0.11231-0.0684 0.0547-0.125 0.11035-0.0557 0.0557-0.083 0.11914h0.63867v0.22558z"/><path d="m311.31 383.57q0 0.21972-0.12305 0.34472-0.12304 0.125-0.33984 0.125-0.24316 0-0.37402-0.16992-0.12989-0.1709-0.12989-0.50586 0-0.36816 0.13184-0.55371 0.13281-0.18652 0.37891-0.18652 0.1748 0 0.27539 0.0772 0.10156 0.0771 0.14355 0.23926l-0.25879 0.0361q-0.0371-0.13574-0.16601-0.13574-0.11036 0-0.17383 0.11035-0.0625 0.11035-0.0625 0.33496 0.0439-0.0732 0.12207-0.11231 0.0781-0.0391 0.17676-0.0391 0.18457 0 0.29199 0.11719t0.10742 0.31836zm-0.27539 8e-3q0-0.11719-0.0547-0.17871-0.0537-0.0625-0.14844-0.0625-0.0908 0-0.1455 0.0586-0.0547 0.0576-0.0547 0.15332 0 0.12012 0.0566 0.19922 0.0576 0.0781 0.15039 0.0781 0.0928 0 0.14453-0.0654 0.0518-0.0664 0.0518-0.18262z"/></g><g fill="#fff" aria-label="27"><path d="m313.09 384.04v-0.19042q0.0537-0.11817 0.15234-0.23047 0.0996-0.11231 0.25-0.23438 0.14453-0.11719 0.20215-0.19336 0.0586-0.0762 0.0586-0.14941 0-0.17969-0.18066-0.17969-0.0879 0-0.13477 0.0479-0.0459 0.0469-0.0596 0.1416l-0.27636-0.0156q0.0234-0.19141 0.14257-0.29199 0.12012-0.10059 0.32618-0.10059 0.22265 0 0.34179 0.10156 0.11914 0.10157 0.11914 0.28516 0 0.0967-0.0381 0.1748t-0.0977 0.14454q-0.0596 0.0654-0.13281 0.12304-0.0723 0.0576-0.14063 0.11231-0.0684 0.0547-0.125 0.11035-0.0557 0.0557-0.083 0.11914h0.63867v0.22558z"/><path d="m315.16 382.89q-0.0928 0.14649-0.17578 0.28418-0.082 0.1377-0.14356 0.27735-0.0615 0.13867-0.0976 0.28613-0.0352 0.14648-0.0352 0.31054h-0.28613q0-0.17187 0.0449-0.33203 0.0449-0.16113 0.12988-0.32714 0.085-0.167 0.3086-0.49122h-0.6836v-0.22558h0.93848z"/></g><g fill="#fff" aria-label="28"><path d="m323.26 384.02v-0.19043q0.0537-0.11816 0.15234-0.23046 0.0996-0.11231 0.25-0.23438 0.14453-0.11719 0.20215-0.19336 0.0586-0.0762 0.0586-0.14941 0-0.17969-0.18066-0.17969-0.0879 0-0.13477 0.0478-0.0459 0.0469-0.0596 0.1416l-0.27636-0.0156q0.0234-0.19141 0.14258-0.29199 0.12011-0.10059 0.32617-0.10059 0.22265 0 0.34179 0.10156t0.11914 0.28516q0 0.0967-0.0381 0.1748t-0.0977 0.14453q-0.0596 0.0654-0.13281 0.12305-0.0723 0.0576-0.14063 0.11231-0.0684 0.0547-0.125 0.11035-0.0557 0.0557-0.083 0.11914h0.63867v0.22558z"/><path d="m325.36 383.64q0 0.19336-0.12793 0.30078-0.12793 0.10644-0.36524 0.10644-0.23535 0-0.36523-0.10644-0.12891-0.10645-0.12891-0.29883 0-0.13183 0.0762-0.22168 0.0762-0.0908 0.2041-0.1123v-4e-3q-0.11133-0.0244-0.17969-0.11035-0.0684-0.0859-0.0684-0.19824 0-0.16895 0.11914-0.2666 0.12012-0.0977 0.33887-0.0977 0.22363 0 0.34277 0.0957 0.12012 0.0947 0.12012 0.27051 0 0.1123-0.0684 0.19727-0.0674 0.085-0.18164 0.10742v4e-3q0.13281 0.0215 0.20801 0.10938 0.0762 0.0869 0.0762 0.22461zm-0.31641-0.62793q0-0.0977-0.0449-0.14258-0.0449-0.0459-0.13574-0.0459-0.17774 0-0.17774 0.18848 0 0.19726 0.17969 0.19726 0.0898 0 0.13379-0.0459 0.0449-0.0459 0.0449-0.15137zm0.0322 0.60547q0-0.21582-0.21485-0.21582-0.0996 0-0.15332 0.0566-0.0527 0.0566-0.0527 0.16308 0 0.1211 0.0527 0.17676 0.0527 0.0557 0.16114 0.0557 0.10644 0 0.15625-0.0557 0.0508-0.0557 0.0508-0.18066z"/></g><g fill="#fff" aria-label="29"><path d="m326.75 384.02v-0.19043q0.0537-0.11816 0.15234-0.23046 0.0996-0.11231 0.25-0.23438 0.14454-0.11719 0.20215-0.19336 0.0586-0.0762 0.0586-0.14941 0-0.17969-0.18067-0.17969-0.0879 0-0.13476 0.0478-0.0459 0.0469-0.0596 0.1416l-0.27637-0.0156q0.0234-0.19141 0.14258-0.29199 0.12011-0.10059 0.32617-0.10059 0.22266 0 0.3418 0.10156t0.11914 0.28516q0 0.0967-0.0381 0.1748t-0.0977 0.14453q-0.0596 0.0654-0.13281 0.12305-0.0723 0.0576-0.14062 0.11231-0.0684 0.0547-0.125 0.11035-0.0557 0.0557-0.083 0.11914h0.63867v0.22558z"/><path d="m328.83 383.31q0 0.36621-0.13379 0.54785t-0.37989 0.18164q-0.18164 0-0.28515-0.0771-0.10254-0.0781-0.14551-0.2461l0.25781-0.0361q0.0381 0.14355 0.17578 0.14355 0.11524 0 0.17676-0.11035 0.0625-0.11035 0.0644-0.32715-0.0371 0.0733-0.12207 0.11524-0.084 0.041-0.18164 0.041-0.18164 0-0.28906-0.12304-0.10644-0.12403-0.10644-0.33496 0-0.2168 0.125-0.33887 0.12597-0.12207 0.35546-0.12207 0.24707 0 0.36719 0.17187 0.1211 0.1709 0.1211 0.51465zm-0.29004-0.19238q0-0.12793-0.0566-0.20313-0.0557-0.0762-0.14844-0.0762-0.0908 0-0.14356 0.0664-0.0518 0.0654-0.0518 0.18164 0 0.11426 0.0518 0.18359 0.0518 0.0684 0.14453 0.0684 0.0879 0 0.14551-0.0596 0.0586-0.0605 0.0586-0.16113z"/></g><g fill="#fff" aria-label="30"><path d="m338.75 383.64q0 0.19336-0.12695 0.29883-0.12695 0.10546-0.36133 0.10546-0.22168 0-0.35254-0.10156-0.13086-0.10254-0.15332-0.29492l0.2793-0.0244q0.0264 0.19824 0.22559 0.19824 0.0986 0 0.15332-0.0488 0.0547-0.0488 0.0547-0.14941 0-0.0918-0.0664-0.14063-0.0664-0.0488-0.19727-0.0488h-0.0957v-0.22168h0.0898q0.11817 0 0.17774-0.0478 0.0596-0.0488 0.0596-0.13867 0-0.085-0.0479-0.13281-0.0469-0.0488-0.13769-0.0488-0.085 0-0.1377 0.0469-0.0518 0.0469-0.0596 0.13282l-0.27441-0.0195q0.0215-0.17774 0.14746-0.27832 0.12598-0.10059 0.3291-0.10059 0.21582 0 0.33692 0.0977 0.12207 0.0967 0.12207 0.26855 0 0.12891-0.0762 0.21191-0.0752 0.083-0.21777 0.11036v4e-3q0.1582 0.0186 0.24317 0.10449 0.0859 0.085 0.0859 0.21778z"/><path d="m339.86 383.33q0 0.34863-0.12012 0.52832-0.11914 0.17969-0.35839 0.17969-0.47266 0-0.47266-0.70801 0-0.24707 0.0518-0.40332t0.15527-0.23047q0.10352-0.0742 0.27344-0.0742 0.24414 0 0.35742 0.17676t0.11328 0.53125zm-0.27539 0q0-0.19043-0.0186-0.2959t-0.0596-0.15137-0.11914-0.0459q-0.083 0-0.12598 0.0469-0.042 0.0459-0.0605 0.15137-0.0176 0.10449-0.0176 0.29492 0 0.18847 0.0186 0.29492 0.0195 0.10547 0.0606 0.15137 0.042 0.0459 0.12109 0.0459 0.0781 0 0.12012-0.0478 0.043-0.0488 0.0615-0.15527 0.0195-0.10645 0.0195-0.28906z"/></g><g fill="#fff" aria-label="31"><path d="m341.94 383.64q0 0.19336-0.12696 0.29883-0.12695 0.10546-0.36132 0.10546-0.22168 0-0.35254-0.10156-0.13086-0.10254-0.15332-0.29492l0.27929-0.0244q0.0264 0.19824 0.22559 0.19824 0.0986 0 0.15332-0.0488 0.0547-0.0488 0.0547-0.14941 0-0.0918-0.0664-0.14063-0.0664-0.0488-0.19726-0.0488h-0.0957v-0.22168h0.0899q0.11816 0 0.17773-0.0478 0.0596-0.0488 0.0596-0.13867 0-0.085-0.0479-0.13281-0.0469-0.0488-0.1377-0.0488-0.085 0-0.13769 0.0469-0.0518 0.0469-0.0596 0.13282l-0.27442-0.0195q0.0215-0.17774 0.14746-0.27832 0.12598-0.10059 0.32911-0.10059 0.21582 0 0.33691 0.0977 0.12207 0.0967 0.12207 0.26855 0 0.12891-0.0762 0.21191-0.0752 0.083-0.21777 0.11036v4e-3q0.1582 0.0186 0.24316 0.10449 0.0859 0.085 0.0859 0.21778z"/><path d="m342.13 384.02v-0.2041h0.34082v-0.93847l-0.33008 0.20605v-0.21582l0.34473-0.22363h0.25976v1.1719h0.31543v0.2041z"/></g><g fill="#fff" aria-label="32"><path d="m352.96 383.64q0 0.19336-0.12695 0.29883-0.12695 0.10546-0.36133 0.10546-0.22168 0-0.35254-0.10156-0.13086-0.10254-0.15332-0.29492l0.2793-0.0244q0.0264 0.19824 0.22558 0.19824 0.0986 0 0.15332-0.0488 0.0547-0.0488 0.0547-0.14941 0-0.0918-0.0664-0.14063-0.0664-0.0488-0.19727-0.0488h-0.0957v-0.22168h0.0898q0.11816 0 0.17773-0.0478 0.0596-0.0488 0.0596-0.13867 0-0.085-0.0479-0.13281-0.0469-0.0488-0.13769-0.0488-0.085 0-0.1377 0.0469-0.0518 0.0469-0.0596 0.13282l-0.27441-0.0195q0.0215-0.17774 0.14746-0.27832 0.12598-0.10059 0.3291-0.10059 0.21582 0 0.33692 0.0977 0.12207 0.0967 0.12207 0.26855 0 0.12891-0.0762 0.21191-0.0752 0.083-0.21777 0.11036v4e-3q0.1582 0.0186 0.24316 0.10449 0.0859 0.085 0.0859 0.21778z"/><path d="m353.11 384.02v-0.19043q0.0537-0.11816 0.15235-0.23046 0.0996-0.11231 0.25-0.23438 0.14453-0.11719 0.20215-0.19336 0.0586-0.0762 0.0586-0.14941 0-0.17969-0.18066-0.17969-0.0879 0-0.13477 0.0478-0.0459 0.0469-0.0596 0.1416l-0.27637-0.0156q0.0234-0.19141 0.14258-0.29199 0.12012-0.10059 0.32617-0.10059 0.22266 0 0.3418 0.10156t0.11914 0.28516q0 0.0967-0.0381 0.1748t-0.0976 0.14453q-0.0596 0.0654-0.13282 0.12305-0.0723 0.0576-0.14062 0.11231-0.0684 0.0547-0.125 0.11035-0.0557 0.0557-0.083 0.11914h0.63867v0.22558z"/></g><g fill="#fff" aria-label="33"><path d="m356.35 383.64q0 0.19336-0.12695 0.29883-0.12695 0.10546-0.36133 0.10546-0.22168 0-0.35254-0.10156-0.13086-0.10254-0.15332-0.29492l0.2793-0.0244q0.0264 0.19824 0.22559 0.19824 0.0986 0 0.15332-0.0488 0.0547-0.0488 0.0547-0.14941 0-0.0918-0.0664-0.14063-0.0664-0.0488-0.19727-0.0488h-0.0957v-0.22168h0.0898q0.11817 0 0.17774-0.0478 0.0596-0.0488 0.0596-0.13867 0-0.085-0.0479-0.13281-0.0469-0.0488-0.1377-0.0488-0.085 0-0.13769 0.0469-0.0518 0.0469-0.0596 0.13282l-0.27442-0.0195q0.0215-0.17774 0.14746-0.27832 0.12598-0.10059 0.3291-0.10059 0.21582 0 0.33692 0.0977 0.12207 0.0967 0.12207 0.26855 0 0.12891-0.0762 0.21191-0.0752 0.083-0.21778 0.11036v4e-3q0.15821 0.0186 0.24317 0.10449 0.0859 0.085 0.0859 0.21778z"/><path d="m357.46 383.64q0 0.19336-0.12695 0.29883-0.12696 0.10546-0.36133 0.10546-0.22168 0-0.35254-0.10156-0.13086-0.10254-0.15332-0.29492l0.2793-0.0244q0.0264 0.19824 0.22558 0.19824 0.0986 0 0.15332-0.0488 0.0547-0.0488 0.0547-0.14941 0-0.0918-0.0664-0.14063-0.0664-0.0488-0.19726-0.0488h-0.0957v-0.22168h0.0899q0.11816 0 0.17773-0.0478 0.0596-0.0488 0.0596-0.13867 0-0.085-0.0478-0.13281-0.0469-0.0488-0.13769-0.0488-0.085 0-0.1377 0.0469-0.0518 0.0469-0.0596 0.13282l-0.27441-0.0195q0.0215-0.17774 0.14746-0.27832 0.12597-0.10059 0.3291-0.10059 0.21582 0 0.33691 0.0977 0.12207 0.0967 0.12207 0.26855 0 0.12891-0.0762 0.21191-0.0752 0.083-0.21777 0.11036v4e-3q0.1582 0.0186 0.24316 0.10449 0.0859 0.085 0.0859 0.21778z"/></g><g fill="#fff" aria-label="34"><path d="m366.9 383.64q0 0.19336-0.12695 0.29883-0.12695 0.10546-0.36133 0.10546-0.22168 0-0.35254-0.10156-0.13086-0.10254-0.15332-0.29492l0.2793-0.0244q0.0264 0.19824 0.22558 0.19824 0.0986 0 0.15332-0.0488 0.0547-0.0488 0.0547-0.14941 0-0.0918-0.0664-0.14063-0.0664-0.0488-0.19727-0.0488h-0.0957v-0.22168h0.0898q0.11816 0 0.17774-0.0478 0.0596-0.0488 0.0596-0.13867 0-0.085-0.0479-0.13281-0.0469-0.0488-0.13769-0.0488-0.085 0-0.1377 0.0469-0.0518 0.0469-0.0596 0.13282l-0.27441-0.0195q0.0215-0.17774 0.14746-0.27832 0.12598-0.10059 0.3291-0.10059 0.21582 0 0.33692 0.0977 0.12207 0.0967 0.12207 0.26855 0 0.12891-0.0762 0.21191-0.0752 0.083-0.21777 0.11036v4e-3q0.1582 0.0186 0.24316 0.10449 0.0859 0.085 0.0859 0.21778z"/><path d="m367.89 383.74v0.28027h-0.26172v-0.28027h-0.62598v-0.20605l0.58106-0.88965h0.30664v0.8916h0.18359v0.2041zm-0.26172-0.6543q0-0.0527 3e-3 -0.11425 4e-3 -0.0615 6e-3 -0.0791-0.0254 0.0547-0.0918 0.15821l-0.31934 0.48535h0.40235z"/></g><g fill="#fff" aria-label="35"><path d="m370.86 383.64q0 0.19336-0.12696 0.29883-0.12695 0.10546-0.36132 0.10546-0.22168 0-0.35254-0.10156-0.13086-0.10254-0.15332-0.29492l0.27929-0.0244q0.0264 0.19824 0.22559 0.19824 0.0986 0 0.15332-0.0488 0.0547-0.0488 0.0547-0.14941 0-0.0918-0.0664-0.14063-0.0664-0.0488-0.19726-0.0488h-0.0957v-0.22168h0.0898q0.11816 0 0.17773-0.0478 0.0596-0.0488 0.0596-0.13867 0-0.085-0.0478-0.13281-0.0469-0.0488-0.1377-0.0488-0.085 0-0.13769 0.0469-0.0518 0.0469-0.0596 0.13282l-0.27442-0.0195q0.0215-0.17774 0.14747-0.27832 0.12597-0.10059 0.3291-0.10059 0.21582 0 0.33691 0.0977 0.12207 0.0967 0.12207 0.26855 0 0.12891-0.0762 0.21191-0.0752 0.083-0.21777 0.11036v4e-3q0.1582 0.0186 0.24316 0.10449 0.0859 0.085 0.0859 0.21778z"/><path d="m371.99 383.56q0 0.21875-0.13671 0.34863-0.13575 0.12891-0.37305 0.12891-0.20703 0-0.33203-0.0928-0.12403-0.0937-0.15332-0.27051l0.27441-0.0225q0.0215 0.0879 0.0762 0.12793 0.0547 0.04 0.1377 0.04 0.10254 0 0.16308-0.0654 0.0615-0.0654 0.0615-0.18847 0-0.1084-0.0576-0.17286-0.0576-0.0654-0.16113-0.0654-0.11426 0-0.18653 0.0889h-0.26757l0.0478-0.77441h0.82715v0.2041h-0.57813l-0.0225 0.34766q0.0996-0.0879 0.24902-0.0879 0.19629 0 0.31348 0.12207 0.11816 0.12208 0.11816 0.33204z"/></g><g fill="#fff" aria-label="36"><path d="m381.3 383.64q0 0.19336-0.12696 0.29883-0.12695 0.10546-0.36132 0.10546-0.22168 0-0.35254-0.10156-0.13086-0.10254-0.15332-0.29492l0.27929-0.0244q0.0264 0.19824 0.22559 0.19824 0.0986 0 0.15332-0.0488 0.0547-0.0488 0.0547-0.14941 0-0.0918-0.0664-0.14063-0.0664-0.0488-0.19726-0.0488h-0.0957v-0.22168h0.0899q0.11816 0 0.17773-0.0478 0.0596-0.0488 0.0596-0.13867 0-0.085-0.0479-0.13281-0.0469-0.0488-0.1377-0.0488-0.085 0-0.13769 0.0469-0.0518 0.0469-0.0596 0.13282l-0.27442-0.0195q0.0215-0.17774 0.14747-0.27832 0.12597-0.10059 0.3291-0.10059 0.21582 0 0.33691 0.0977 0.12207 0.0967 0.12207 0.26855 0 0.12891-0.0762 0.21191-0.0752 0.083-0.21777 0.11036v4e-3q0.1582 0.0186 0.24316 0.10449 0.0859 0.085 0.0859 0.21778z"/><path d="m382.41 383.57q0 0.21973-0.12304 0.34473-0.12305 0.125-0.33985 0.125-0.24316 0-0.37402-0.16993-0.12988-0.1709-0.12988-0.50586 0-0.36816 0.13183-0.55371 0.13281-0.18652 0.37891-0.18652 0.1748 0 0.27539 0.0771 0.10156 0.0772 0.14355 0.23926l-0.25879 0.0361q-0.0371-0.13574-0.16601-0.13574-0.11035 0-0.17383 0.11035-0.0625 0.11035-0.0625 0.33496 0.0439-0.0732 0.12207-0.11231 0.0781-0.0391 0.17676-0.0391 0.18457 0 0.29199 0.11719t0.10742 0.31836zm-0.27539 8e-3q0-0.11719-0.0547-0.17871-0.0537-0.0625-0.14843-0.0625-0.0908 0-0.14551 0.0586-0.0547 0.0576-0.0547 0.15332 0 0.12012 0.0566 0.19922 0.0576 0.0781 0.15039 0.0781 0.0928 0 0.14453-0.0654 0.0518-0.0664 0.0518-0.18262z"/></g><g fill="#fff" aria-label="37"><path d="m388.46 383.64q0 0.19336-0.12696 0.29883-0.12695 0.10546-0.36132 0.10546-0.22168 0-0.35254-0.10156-0.13086-0.10254-0.15332-0.29492l0.27929-0.0244q0.0264 0.19824 0.22559 0.19824 0.0986 0 0.15332-0.0488 0.0547-0.0488 0.0547-0.14941 0-0.0918-0.0664-0.14063-0.0664-0.0488-0.19726-0.0488h-0.0957v-0.22168h0.0899q0.11816 0 0.17773-0.0478 0.0596-0.0488 0.0596-0.13867 0-0.085-0.0478-0.13281-0.0469-0.0488-0.1377-0.0488-0.085 0-0.13769 0.0469-0.0518 0.0469-0.0596 0.13282l-0.27442-0.0195q0.0215-0.17774 0.14747-0.27832 0.12597-0.10059 0.3291-0.10059 0.21582 0 0.33691 0.0977 0.12207 0.0967 0.12207 0.26855 0 0.12891-0.0762 0.21191-0.0752 0.083-0.21777 0.11036v4e-3q0.1582 0.0186 0.24316 0.10449 0.0859 0.085 0.0859 0.21778z"/><path d="m389.55 382.86q-0.0928 0.14649-0.17578 0.28418-0.082 0.1377-0.14356 0.27734-0.0615 0.13868-0.0977 0.28614-0.0351 0.14648-0.0351 0.31054h-0.28613q0-0.17187 0.0449-0.33203 0.0449-0.16113 0.12988-0.32715 0.085-0.16699 0.30859-0.49121h-0.68359v-0.22558h0.93848z"/></g><g fill="#fff" aria-label="38"><path d="m400.38 383.64q0 0.19336-0.12695 0.29883-0.12696 0.10546-0.36133 0.10546-0.22168 0-0.35254-0.10156-0.13086-0.10254-0.15332-0.29492l0.2793-0.0244q0.0264 0.19824 0.22558 0.19824 0.0986 0 0.15332-0.0488 0.0547-0.0488 0.0547-0.14941 0-0.0918-0.0664-0.14063-0.0664-0.0488-0.19726-0.0488h-0.0957v-0.22168h0.0899q0.11816 0 0.17773-0.0478 0.0596-0.0488 0.0596-0.13867 0-0.085-0.0478-0.13281-0.0469-0.0488-0.13769-0.0488-0.085 0-0.1377 0.0469-0.0518 0.0469-0.0596 0.13282l-0.27441-0.0195q0.0215-0.17774 0.14746-0.27832 0.12597-0.10059 0.3291-0.10059 0.21582 0 0.33691 0.0977 0.12207 0.0967 0.12207 0.26855 0 0.12891-0.0762 0.21191-0.0752 0.083-0.21777 0.11036v4e-3q0.1582 0.0186 0.24316 0.10449 0.0859 0.085 0.0859 0.21778z"/><path d="m401.51 383.63q0 0.19336-0.12793 0.30078-0.12793 0.10645-0.36524 0.10645-0.23535 0-0.36523-0.10645-0.12891-0.10645-0.12891-0.29883 0-0.13183 0.0762-0.22168 0.0762-0.0908 0.20411-0.1123v-4e-3q-0.11133-0.0244-0.17969-0.11035-0.0684-0.0859-0.0684-0.19824 0-0.16895 0.11914-0.2666 0.12012-0.0977 0.33887-0.0977 0.22363 0 0.34277 0.0957 0.12012 0.0947 0.12012 0.27051 0 0.11231-0.0684 0.19727-0.0674 0.085-0.18164 0.10742v4e-3q0.13281 0.0215 0.208 0.10938 0.0762 0.0869 0.0762 0.22461zm-0.31641-0.62793q0-0.0977-0.0449-0.14258-0.0449-0.0459-0.13574-0.0459-0.17774 0-0.17774 0.18848 0 0.19726 0.17969 0.19726 0.0898 0 0.13379-0.0459 0.0449-0.0459 0.0449-0.15137zm0.0322 0.60547q0-0.21582-0.21485-0.21582-0.0996 0-0.15332 0.0566-0.0527 0.0566-0.0527 0.16308 0 0.1211 0.0527 0.17676 0.0527 0.0557 0.16114 0.0557 0.10644 0 0.15625-0.0557 0.0508-0.0557 0.0508-0.18066z"/></g><g fill="#fff" aria-label="39"><path d="m403.34 383.64q0 0.19336-0.12696 0.29883-0.12695 0.10546-0.36132 0.10546-0.22168 0-0.35254-0.10156-0.13086-0.10254-0.15332-0.29492l0.27929-0.0244q0.0264 0.19824 0.22559 0.19824 0.0986 0 0.15332-0.0488 0.0547-0.0488 0.0547-0.14941 0-0.0918-0.0664-0.14063-0.0664-0.0488-0.19726-0.0488h-0.0957v-0.22168h0.0899q0.11816 0 0.17773-0.0478 0.0596-0.0488 0.0596-0.13867 0-0.085-0.0478-0.13281-0.0469-0.0488-0.1377-0.0488-0.085 0-0.13769 0.0469-0.0518 0.0469-0.0596 0.13282l-0.27442-0.0195q0.0215-0.17774 0.14747-0.27832 0.12597-0.10059 0.3291-0.10059 0.21582 0 0.33691 0.0977 0.12207 0.0967 0.12207 0.26855 0 0.12891-0.0762 0.21191-0.0752 0.083-0.21777 0.11036v4e-3q0.1582 0.0186 0.24316 0.10449 0.0859 0.085 0.0859 0.21778z"/><path d="m404.45 383.31q0 0.36621-0.13379 0.54785-0.13379 0.18165-0.37988 0.18165-0.18164 0-0.28516-0.0772-0.10254-0.0781-0.14551-0.2461l0.25782-0.0361q0.0381 0.14355 0.17578 0.14355 0.11523 0 0.17675-0.11035 0.0625-0.11035 0.0645-0.32715-0.0371 0.0733-0.12207 0.11524-0.084 0.041-0.18164 0.041-0.18164 0-0.28907-0.12304-0.10644-0.12403-0.10644-0.33496 0-0.2168 0.125-0.33887 0.12598-0.12207 0.35547-0.12207 0.24707 0 0.36719 0.17187 0.12109 0.1709 0.12109 0.51465zm-0.29004-0.19238q0-0.12793-0.0566-0.20312-0.0557-0.0762-0.14844-0.0762-0.0908 0-0.14355 0.0664-0.0518 0.0654-0.0518 0.18164 0 0.11426 0.0518 0.18359 0.0518 0.0684 0.14453 0.0684 0.0879 0 0.14551-0.0596 0.0586-0.0605 0.0586-0.16113z"/></g><g fill="#fff" aria-label="40"><path d="m414.39 383.81v0.28027h-0.26172v-0.28027h-0.62598v-0.20606l0.58106-0.88965h0.30664v0.89161h0.18359v0.2041zm-0.26172-0.6543q0-0.0527 3e-3 -0.11426 4e-3 -0.0615 6e-3 -0.0791-0.0254 0.0547-0.0918 0.1582l-0.31933 0.48536h0.40234z"/><path d="m415.61 383.4q0 0.34864-0.12012 0.52832-0.11914 0.17969-0.3584 0.17969-0.47265 0-0.47265-0.70801 0-0.24707 0.0518-0.40332t0.15528-0.23046q0.10351-0.0742 0.27344-0.0742 0.24414 0 0.35742 0.17675 0.11328 0.17676 0.11328 0.53125zm-0.27539 0q0-0.19043-0.0186-0.29589-0.0185-0.10547-0.0596-0.15137-0.041-0.0459-0.11914-0.0459-0.083 0-0.12597 0.0469-0.042 0.0459-0.0606 0.15136-0.0176 0.10449-0.0176 0.29492 0 0.18848 0.0186 0.29493 0.0195 0.10547 0.0605 0.15136 0.042 0.0459 0.1211 0.0459 0.0781 0 0.12011-0.0478 0.043-0.0488 0.0615-0.15527 0.0195-0.10645 0.0195-0.28907z"/></g><g fill="#fff" aria-label="41"><path d="m417.27 383.76v0.28027h-0.26172v-0.28027h-0.62598v-0.20605l0.58106-0.88965h0.30664v0.8916h0.18359v0.2041zm-0.26172-0.6543q0-0.0527 3e-3 -0.11425 4e-3 -0.0615 6e-3 -0.0791-0.0254 0.0547-0.0918 0.1582l-0.31934 0.48535h0.40235z"/><path d="m417.59 384.04v-0.2041h0.34082v-0.93847l-0.33008 0.20605v-0.21582l0.34473-0.22363h0.25976v1.1719h0.31543v0.2041z"/></g><g fill="#fff" aria-label="42"><path d="m428.27 383.76v0.28027h-0.26172v-0.28027h-0.62597v-0.20605l0.58105-0.88965h0.30664v0.8916h0.1836v0.2041zm-0.26172-0.6543q0-0.0527 3e-3 -0.11425 4e-3 -0.0615 6e-3 -0.0791-0.0254 0.0547-0.0918 0.1582l-0.31934 0.48535h0.40234z"/><path d="m428.53 384.04v-0.19042q0.0537-0.11817 0.15235-0.23047 0.0996-0.11231 0.25-0.23438 0.14453-0.11719 0.20215-0.19336 0.0586-0.0762 0.0586-0.14941 0-0.17969-0.18066-0.17969-0.0879 0-0.13477 0.0479-0.0459 0.0469-0.0596 0.1416l-0.27637-0.0156q0.0234-0.19141 0.14258-0.29199 0.12012-0.10059 0.32617-0.10059 0.22266 0 0.3418 0.10156 0.11914 0.10157 0.11914 0.28516 0 0.0967-0.0381 0.1748t-0.0976 0.14454q-0.0596 0.0654-0.13281 0.12304-0.0723 0.0576-0.14063 0.11231-0.0684 0.0547-0.125 0.11035-0.0557 0.0557-0.083 0.11914h0.63867v0.22558z"/></g><g fill="#fff" aria-label="43"><path d="m431.66 383.74v0.28027h-0.26172v-0.28027h-0.62597v-0.20605l0.58105-0.88965h0.30664v0.8916h0.1836v0.2041zm-0.26172-0.6543q0-0.0527 3e-3 -0.11425 4e-3 -0.0615 6e-3 -0.0791-0.0254 0.0547-0.0918 0.15821l-0.31934 0.48535h0.40234z"/><path d="m432.89 383.64q0 0.19336-0.12696 0.29883-0.12695 0.10546-0.36132 0.10546-0.22168 0-0.35254-0.10156-0.13086-0.10254-0.15332-0.29492l0.27929-0.0244q0.0264 0.19824 0.22559 0.19824 0.0986 0 0.15332-0.0488 0.0547-0.0488 0.0547-0.14941 0-0.0918-0.0664-0.14063-0.0664-0.0488-0.19726-0.0488h-0.0957v-0.22168h0.0899q0.11816 0 0.17773-0.0478 0.0596-0.0488 0.0596-0.13867 0-0.085-0.0479-0.13281-0.0469-0.0488-0.1377-0.0488-0.085 0-0.13769 0.0469-0.0518 0.0469-0.0596 0.13282l-0.27442-0.0195q0.0215-0.17774 0.14747-0.27832 0.12597-0.10059 0.3291-0.10059 0.21582 0 0.33691 0.0977 0.12207 0.0967 0.12207 0.26855 0 0.12891-0.0762 0.21191-0.0752 0.083-0.21777 0.11036v4e-3q0.1582 0.0186 0.24316 0.10449 0.0859 0.085 0.0859 0.21778z"/></g><g fill="#fff" aria-label="44"><path d="m442.5 383.76v0.28027h-0.26171v-0.28027h-0.62598v-0.20605l0.58105-0.88965h0.30664v0.8916h0.1836v0.2041zm-0.26171-0.6543q0-0.0527 3e-3 -0.11425 4e-3 -0.0615 6e-3 -0.0791-0.0254 0.0547-0.0918 0.1582l-0.31934 0.48535h0.40235z"/><path d="m443.61 383.76v0.28027h-0.26172v-0.28027h-0.62598v-0.20605l0.58106-0.88965h0.30664v0.8916h0.18359v0.2041zm-0.26172-0.6543q0-0.0527 3e-3 -0.11425 4e-3 -0.0615 6e-3 -0.0791-0.0254 0.0547-0.0918 0.1582l-0.31933 0.48535h0.40234z"/></g><g fill="#fff" aria-label="45"><path d="m445.96 383.74v0.28027h-0.26172v-0.28027h-0.62598v-0.20605l0.58106-0.88965h0.30664v0.8916h0.18359v0.2041zm-0.26172-0.6543q0-0.0527 3e-3 -0.11425 4e-3 -0.0615 6e-3 -0.0791-0.0254 0.0547-0.0918 0.15821l-0.31933 0.48535h0.40234z"/><path d="m447.21 383.57q0 0.21875-0.13671 0.34863-0.13575 0.1289-0.37305 0.1289-0.20703 0-0.33203-0.0928-0.12403-0.0937-0.15332-0.27051l0.27441-0.0225q0.0215 0.0879 0.0762 0.12793 0.0547 0.04 0.1377 0.04 0.10254 0 0.16308-0.0654 0.0615-0.0654 0.0615-0.18847 0-0.1084-0.0576-0.17286-0.0576-0.0654-0.16113-0.0654-0.11426 0-0.18653 0.0889h-0.26757l0.0478-0.77441h0.82715v0.2041h-0.57813l-0.0225 0.34765q0.0996-0.0879 0.24902-0.0879 0.19629 0 0.31348 0.12207 0.11816 0.12207 0.11816 0.33204z"/></g><g fill="#fff" aria-label="46"><path d="m456.68 383.74v0.28027h-0.26172v-0.28027h-0.62598v-0.20605l0.58106-0.88965h0.30664v0.8916h0.18359v0.2041zm-0.26172-0.6543q0-0.0527 3e-3 -0.11425 4e-3 -0.0615 6e-3 -0.0791-0.0254 0.0547-0.0918 0.15821l-0.31934 0.48535h0.40235z"/><path d="m457.91 383.57q0 0.21972-0.12304 0.34472-0.12305 0.125-0.33985 0.125-0.24316 0-0.37402-0.16992-0.12988-0.1709-0.12988-0.50586 0-0.36816 0.13183-0.55371 0.13281-0.18652 0.37891-0.18652 0.1748 0 0.27539 0.0772 0.10156 0.0771 0.14355 0.23926l-0.25879 0.0361q-0.0371-0.13574-0.16601-0.13574-0.11035 0-0.17383 0.11035-0.0625 0.11035-0.0625 0.33496 0.0439-0.0732 0.12207-0.11231 0.0781-0.0391 0.17676-0.0391 0.18457 0 0.29199 0.11719t0.10742 0.31836zm-0.27539 8e-3q0-0.11719-0.0547-0.17871-0.0537-0.0625-0.14843-0.0625-0.0908 0-0.14551 0.0586-0.0547 0.0576-0.0547 0.15332 0 0.12012 0.0566 0.19922 0.0576 0.0781 0.15039 0.0781 0.0928 0 0.14453-0.0654 0.0518-0.0664 0.0518-0.18262z"/></g><g fill="#fff" aria-label="47"><path d="m460.37 383.76v0.28027h-0.26172v-0.28027h-0.62597v-0.20605l0.58105-0.88965h0.30664v0.8916h0.1836v0.2041zm-0.26172-0.6543q0-0.0527 3e-3 -0.11425 4e-3 -0.0615 6e-3 -0.0791-0.0254 0.0547-0.0918 0.1582l-0.31933 0.48535h0.40234z"/><path d="m461.58 382.89q-0.0928 0.14649-0.17578 0.28418-0.082 0.1377-0.14355 0.27735-0.0615 0.13867-0.0977 0.28613-0.0352 0.14648-0.0352 0.31054h-0.28613q0-0.17187 0.0449-0.33203 0.0449-0.16113 0.12988-0.32714 0.085-0.167 0.3086-0.49122h-0.6836v-0.22558h0.93848z"/></g><g fill="#fff" aria-label="48"><path d="m472.21 383.74v0.28027h-0.26172v-0.28027h-0.62598v-0.20605l0.58106-0.88965h0.30664v0.8916h0.18359v0.2041zm-0.26172-0.6543q0-0.0527 3e-3 -0.11425 4e-3 -0.0615 6e-3 -0.0791-0.0254 0.0547-0.0918 0.15821l-0.31933 0.48535h0.40234z"/><path d="m473.45 383.64q0 0.19336-0.12793 0.30078-0.12793 0.10644-0.36524 0.10644-0.23535 0-0.36523-0.10644-0.12891-0.10645-0.12891-0.29883 0-0.13183 0.0762-0.22168 0.0762-0.0908 0.2041-0.1123v-4e-3q-0.11132-0.0244-0.17968-0.11035-0.0684-0.0859-0.0684-0.19824 0-0.16895 0.11914-0.2666 0.12011-0.0977 0.33886-0.0977 0.22364 0 0.34278 0.0957 0.12012 0.0947 0.12012 0.27051 0 0.1123-0.0684 0.19727-0.0674 0.085-0.18164 0.10742v4e-3q0.13281 0.0215 0.208 0.10938 0.0762 0.0869 0.0762 0.22461zm-0.31641-0.62793q0-0.0977-0.0449-0.14258-0.0449-0.0459-0.13575-0.0459-0.17773 0-0.17773 0.18848 0 0.19726 0.17969 0.19726 0.0898 0 0.13379-0.0459 0.0449-0.0459 0.0449-0.15137zm0.0322 0.60547q0-0.21582-0.21485-0.21582-0.0996 0-0.15332 0.0566-0.0527 0.0566-0.0527 0.16308 0 0.1211 0.0527 0.17676 0.0527 0.0557 0.16113 0.0557 0.10645 0 0.15625-0.0557 0.0508-0.0557 0.0508-0.18066z"/></g><rect x="74.206" y="388.23" width="14.806" height="25.418" rx=".025121" ry=".0057844" fill="#ccc" fill-rule="evenodd" stroke="#000" stroke-width=".54363"/><g transform="matrix(1.0002 0 0 1.0007 -414.72 -22.254)" fill="#47541e" fill-rule="evenodd" stroke-linejoin="round"><path d="m500.1 424.37 1.0849-2.9714 1.0849 2.9714z" stroke-width=".44698"/><path d="m500.36 421.43-1.0849 2.9714-1.0849-2.9714z" stroke-width=".447"/><path d="m494.26 421.42-1.0849 2.9714-1.0849-2.9714z" stroke-width=".44698"/><path d="m490.19 424.35 1.0849-2.9714 1.0849 2.9714z" stroke-width=".447"/></g><g transform="translate(5.1903 1.5731)"><g transform="translate(17.945 7.0595)"><rect x="51.805" y="380.04" width="13.336" height="8.3357" stroke="#b3b3b3" stroke-width=".2"/><rect x="55.524" y="387.46" width="5.898" height="1" rx=".047" ry=".010884" fill="#999" fill-rule="evenodd" stroke="#000" stroke-width=".5"/></g><g transform="rotate(180 67.446 395.83)"><rect x="51.805" y="380.04" width="13.336" height="8.3357" stroke="#b3b3b3" stroke-width=".2"/><rect x="55.524" y="387.46" width="5.898" height="1" rx=".047" ry=".010884" fill="#999" fill-rule="evenodd" stroke="#000" stroke-width=".5"/></g></g><g transform="translate(22.518)"><rect x="74.206" y="388.23" width="14.806" height="25.418" rx=".025121" ry=".0057844" fill="#ccc" fill-rule="evenodd" stroke="#000" stroke-width=".54363"/><g transform="matrix(1.0002 0 0 1.0007 -414.72 -22.254)" fill="#47541e" fill-rule="evenodd" stroke-linejoin="round"><path d="m500.1 424.37 1.0849-2.9714 1.0849 2.9714z" stroke-width=".44698"/><path d="m500.36 421.43-1.0849 2.9714-1.0849-2.9714z" stroke-width=".447"/><path d="m494.26 421.42-1.0849 2.9714-1.0849-2.9714z" stroke-width=".44698"/><path d="m490.19 424.35 1.0849-2.9714 1.0849 2.9714z" stroke-width=".447"/></g><g transform="translate(5.1903 1.5731)"><g transform="translate(17.945 7.0595)"><rect x="51.805" y="380.04" width="13.336" height="8.3357" stroke="#b3b3b3" stroke-width=".2"/><rect x="55.524" y="387.46" width="5.898" height="1" rx=".047" ry=".010884" fill="#999" fill-rule="evenodd" stroke="#000" stroke-width=".5"/></g><g transform="rotate(180 67.446 395.83)"><rect x="51.805" y="380.04" width="13.336" height="8.3357" stroke="#b3b3b3" stroke-width=".2"/><rect x="55.524" y="387.46" width="5.898" height="1" rx=".047" ry=".010884" fill="#999" fill-rule="evenodd" stroke="#000" stroke-width=".5"/></g></g></g><g fill="#fff"><path d="m496.79 386.07q-0.20553 0-0.38108-0.0685-0.17127-0.0728-0.29973-0.19697-0.12417-0.12845-0.19696-0.29973-0.0685-0.17127-0.0685-0.37252 0-0.17555 0.0557-0.35539 0.06-0.18412 0.20553-0.43247l0.54807-0.94628h0.57377l-0.48813 0.85208q0.0214-9e-3 0.0599-0.0128 0.0428-9e-3 0.0771-9e-3 0.19268 9e-3 0.35111 0.0814 0.15843 0.0685 0.26976 0.19268 0.11561 0.11989 0.17555 0.2826 0.0642 0.16271 0.0642 0.34683 0 0.20125-0.0728 0.37252-0.0685 0.17128-0.19268 0.29973-0.12418 0.12417-0.29973 0.19697-0.17556 0.0685-0.38109 0.0685zm0.45388-0.93773q0-0.0942-0.0343-0.17983-0.0342-0.0856-0.0942-0.14559-0.0599-0.0642-0.14558-0.0985-0.0813-0.0385-0.17984-0.0385-0.0985 0-0.17983 0.0385-0.0814 0.0343-0.1413 0.0985-0.0599 0.06-0.0942 0.14559-0.0342 0.0856-0.0342 0.17983 0 0.19697 0.12417 0.3297 0.12846 0.13274 0.32542 0.13274 0.20125 0 0.32542-0.13274 0.12846-0.13273 0.12846-0.3297zm0.92488 0.41962h0.67225v-1.5286l-0.66369 0.33398v-0.53951l0.84781-0.41962h0.34682v2.1538h0.5909v0.47529h-1.7941zm3.0744 0.51811q-0.23122 0-0.41962-0.0985-0.18412-0.0985-0.31686-0.27832-0.12845-0.17983-0.20124-0.42818-0.0685-0.25263-0.0685-0.55236t0.0685-0.54807q0.0728-0.25263 0.20124-0.43247 0.13274-0.17984 0.31686-0.27832 0.1884-0.0985 0.41962-0.0985t0.41534 0.0985q0.1884 0.0985 0.31686 0.27832 0.13273 0.17984 0.20124 0.43247 0.0728 0.24834 0.0728 0.54807t-0.0728 0.55236q-0.0685 0.24835-0.20124 0.42818-0.12846 0.17984-0.31686 0.27832-0.18412 0.0985-0.41534 0.0985zm0-2.2266q-0.12845 0-0.21837 0.0685-0.0899 0.0642-0.14987 0.18412-0.0557 0.11561-0.0814 0.27403-0.0257 0.15843-0.0257 0.34255t0.0257 0.34255 0.0814 0.27832q0.0599 0.11561 0.14987 0.18412 0.0899 0.0642 0.21837 0.0642 0.12846 0 0.21409-0.0642 0.0899-0.0685 0.14559-0.18412 0.0599-0.11989 0.0856-0.27832t0.0257-0.34255-0.0257-0.34255q-0.0257-0.15842-0.0856-0.27403-0.0557-0.11989-0.14559-0.18412-0.0856-0.0685-0.21409-0.0685zm2.2266 2.2266q-0.23122 0-0.41962-0.0985-0.18412-0.0985-0.31686-0.27832-0.12845-0.17983-0.20124-0.42818-0.0685-0.25263-0.0685-0.55236t0.0685-0.54807q0.0728-0.25263 0.20124-0.43247 0.13274-0.17984 0.31686-0.27832 0.1884-0.0985 0.41962-0.0985t0.41534 0.0985q0.1884 0.0985 0.31685 0.27832 0.13274 0.17984 0.20125 0.43247 0.0728 0.24834 0.0728 0.54807t-0.0728 0.55236q-0.0685 0.24835-0.20125 0.42818-0.12845 0.17984-0.31685 0.27832-0.18412 0.0985-0.41534 0.0985zm0-2.2266q-0.12846 0-0.21837 0.0685-0.0899 0.0642-0.14987 0.18412-0.0557 0.11561-0.0814 0.27403-0.0257 0.15843-0.0257 0.34255t0.0257 0.34255 0.0814 0.27832q0.0599 0.11561 0.14987 0.18412 0.0899 0.0642 0.21837 0.0642 0.12845 0 0.21409-0.0642 0.0899-0.0685 0.14558-0.18412 0.06-0.11989 0.0856-0.27832 0.0257-0.15843 0.0257-0.34255t-0.0257-0.34255q-0.0257-0.15842-0.0856-0.27403-0.0557-0.11989-0.14558-0.18412-0.0856-0.0685-0.21409-0.0685z" stroke-width=".30749" aria-label="6100"/><path transform="rotate(-90)" d="m-417.59 69.998q0.0926 0.06387 0.18203 0.10219 0.0894 0.03513 0.20119 0.03513 0.15329 0 0.21397-0.08942 0.0607-0.09261 0.0607-0.30019v-1.2295h0.41196v1.2774q0 0.37364-0.16925 0.54609-0.16926 0.16926-0.48222 0.16926-0.12774 0-0.24271-0.03513-0.11177-0.03513-0.17564-0.07664zm1.4115-1.4818h0.40877v1.5999h0.91334v0.36086h-1.3221zm2.261 1.9927q-0.15329 0-0.28423-0.0511-0.12773-0.05429-0.22354-0.1469-0.0926-0.0958-0.1469-0.22354-0.0511-0.12774-0.0511-0.27783 0-0.13093 0.0415-0.26506 0.0447-0.13732 0.15329-0.32254l0.40876-0.70576h0.42793l-0.36406 0.6355q0.016-0.0064 0.0447-0.0096 0.0319-0.0064 0.0575-0.0064 0.1437 0.0064 0.26186 0.06068 0.11816 0.0511 0.20119 0.14371 0.0862 0.08942 0.13093 0.21077 0.0479 0.12135 0.0479 0.25867 0 0.1501-0.0543 0.27783-0.0511 0.12774-0.14371 0.22354-0.0926 0.09261-0.22354 0.1469-0.13094 0.0511-0.28422 0.0511zm0.33851-0.69938q0-0.07026-0.0256-0.13413-0.0256-0.06387-0.0703-0.10858-0.0447-0.0479-0.10858-0.07345-0.0607-0.02874-0.13412-0.02874-0.0735 0-0.13413 0.02874-0.0607 0.02555-0.10539 0.07345-0.0447 0.04471-0.0702 0.10858-0.0256 0.06387-0.0256 0.13413 0 0.1469 0.0926 0.2459 0.0958 0.099 0.24271 0.099 0.15009 0 0.2427-0.099 0.0958-0.099 0.0958-0.2459zm1.2008 0.66744h-0.41835l0.7377-1.6031h-0.90376v-0.35767h1.4754v0.0096zm1.7117-1.2678q0.15329 0 0.28742 0.04471 0.13412 0.04152 0.23312 0.12455 0.099 0.08303 0.15648 0.20438 0.0575 0.11816 0.0575 0.27464 0 0.15329-0.0575 0.27464t-0.16287 0.20438q-0.10219 0.08303-0.2427 0.12774-0.13732 0.04471-0.30019 0.04471-0.17884 0-0.31296-0.04152-0.13094-0.04471-0.23313-0.11816v-0.39599q0.10539 0.099 0.23632 0.15648 0.13413 0.05748 0.28103 0.05748 0.083 0 0.15648-0.01916 0.0766-0.01916 0.13093-0.05748 0.0575-0.03832 0.0894-0.0958 0.0351-0.06068 0.0351-0.13732t-0.0351-0.13413q-0.0319-0.06068-0.0894-0.099t-0.13412-0.05748q-0.0766-0.02235-0.16287-0.02235-0.12455 0-0.23313 0.02235-0.10538 0.01916-0.20757 0.06068v-1.1113h1.1369v0.35767h-0.81434v0.35448q0.0351-0.0096 0.0862-0.01277 0.0511-0.0064 0.099-0.0064zm2.1045-0.69299 0.75047 1.9608h-0.41515l-0.17564-0.47264h-0.73451l-0.17244 0.47264h-0.40877l0.75047-1.9608zm-0.44709 1.1433h0.47903l-0.23951-0.65147z" stroke-width=".22933" aria-label="JL675A"/><path d="m86.559 415.64-0.59718 1.3061h0.58122v-0.47263h0.23312v0.47263h0.32574v0.21078h-0.32574v0.44389h-0.23312v-0.44389h-0.92292v-0.0128l0.68979-1.5041zm1.0826 0.96443v0.57483q0.05429 0.10858 0.15329 0.17245 0.099 0.0607 0.21077 0.0607 0.20119 0 0.31616-0.1469 0.11497-0.15009 0.11497-0.37363 0-0.22355-0.11497-0.37045-0.11497-0.15009-0.31616-0.15009-0.11177 0-0.21077 0.0639-0.099 0.0607-0.15329 0.16925zm0 0.83031v0.70895h-0.23951v-1.9608h0.23951v0.16606q0.05429-0.0766 0.15967-0.13412 0.10858-0.0607 0.23951-0.0607 0.31296 0 0.47583 0.22354 0.16287 0.22035 0.16287 0.51416 0 0.2938-0.16287 0.51734-0.16287 0.22035-0.47583 0.22035-0.13093 0-0.23951-0.0575-0.10538-0.0607-0.15967-0.13732zm2.0726 0.16606v-0.22354h0.55886v-1.4371l-0.54928 0.28102v-0.25548l0.64508-0.32893h0.15009v1.7405h0.4918v0.22354zm2.2738 0.0287q-0.32574 0-0.52693-0.28103-0.20119-0.28102-0.20119-0.72811t0.20119-0.72812q0.20119-0.28102 0.52693-0.28102t0.52693 0.28102q0.20119 0.28103 0.20119 0.72812t-0.20119 0.72811q-0.20119 0.28103-0.52693 0.28103zm0-1.7916q-0.23951 0-0.36406 0.22035-0.12135 0.22036-0.12135 0.56206t0.12135 0.56205q0.12455 0.22035 0.36406 0.22035 0.23632 0 0.35767-0.22035 0.12455-0.22035 0.12455-0.56205t-0.12455-0.56206q-0.12135-0.22035-0.35767-0.22035zm1.8714 1.568q0.13413 0 0.2427-0.0351 0.11177-0.0351 0.20758-0.11497v-0.46305h-0.43112v-0.21077h0.66425v0.76643q-0.14051 0.15649-0.32574 0.22036-0.18203 0.0607-0.36406 0.0607-0.40877 0-0.66425-0.27783-0.25228-0.27784-0.25228-0.73131 0-0.45667 0.27145-0.73131 0.27145-0.27783 0.67383-0.27783 0.17245 0 0.31616 0.0479 0.1469 0.0479 0.24909 0.12774v0.26825q-0.12455-0.11177-0.26506-0.16287-0.14051-0.0543-0.30019-0.0543-0.30658 0-0.50138 0.21716-0.19161 0.21396-0.19161 0.56525 0 0.35128 0.18203 0.56844t0.4886 0.21716zm1.6894 0.0415v-0.27144q0.13732 0.11816 0.29061 0.17564 0.15329 0.0543 0.32574 0.0543 0.18842 0 0.30338-0.0798t0.11497-0.22993q0-0.12774-0.07984-0.1948-0.07664-0.0703-0.23312-0.13413l-0.28741-0.11177q-0.17245-0.0671-0.30658-0.18203-0.13413-0.11816-0.13413-0.34809 0-0.25229 0.18842-0.38322t0.4407-0.13093q0.15967 0 0.30658 0.0415 0.1469 0.0415 0.25548 0.11816v0.26506q-0.11816-0.0926-0.25548-0.1469-0.13413-0.0575-0.30338-0.0575-0.16287 0-0.27464 0.0735-0.11177 0.0702-0.11177 0.21715 0 0.12455 0.07664 0.19161 0.07984 0.0639 0.21716 0.11497l0.30977 0.12135q0.22354 0.0862 0.32893 0.21397 0.10538 0.12774 0.10538 0.32893 0 0.24909-0.18842 0.39279-0.18842 0.14371-0.47264 0.14371-0.198 0-0.35767-0.0511-0.15968-0.0511-0.25867-0.13094zm1.8905 0.15329h-0.25229v-1.9608h1.1976v0.22354h-0.94527v0.66105h0.88779v0.22355h-0.88779zm2.0215-0.7856h-0.47264v0.7856h-0.25228v-1.9608h0.72492q0.297 0 0.47583 0.15009 0.17884 0.1501 0.17884 0.43751t-0.17884 0.43751q-0.17884 0.15009-0.47583 0.15009zm-0.0032-0.22354q0.198 0 0.30338-0.099 0.10538-0.10219 0.10538-0.26506 0-0.16606-0.10538-0.26506-0.10538-0.10219-0.30338-0.10219h-0.46944v0.73131z" stroke-width=".22933" aria-label="4p 10G SFP"/><path d="m74.206 413.65 0.02609 3.2342" stroke-width=".383"/></g><g><path d="m74.126 415.27 0.01304 1.6171h9.5991" fill="none" stroke="#fff" stroke-width=".383"/><path d="m111.61 415.07-0.013 1.6171h-9.4405" fill="none" stroke="#fff" stroke-width=".383"/><circle cx="495.99" cy="406.82" r=".7" fill="#666" stroke="#000" stroke-width=".1"/></g><g fill="#fff" stroke-width=".028575" aria-label="LED
Mode"><path d="m494.83 403.67v-0.93572h0.1204v0.82752h0.477v0.1082zm0.76809-0.93572h0.59587v0.10668h-0.477v0.29565h0.43281v0.10668h-0.43281v0.31851h0.477v0.1082h-0.59587zm0.78485 0.93572v-0.93572h0.30022q0.20421 0 0.32918 0.12801 0.12497 0.12649 0.12497 0.33985t-0.12497 0.34137q-0.12497 0.12649-0.32918 0.12649zm0.12039-0.1082h0.17831q0.15849 0 0.24688-0.0975 0.0899-0.0991 0.0899-0.26213 0-0.16306-0.0899-0.26212-0.0884-0.0991-0.24688-0.0991h-0.17831z"/><path d="m494.87 404.68h-6e-3l-0.32156-0.51053v0.71932h-0.11735v-0.93573h0.11125l0.33223 0.53797 0.3307-0.53797h0.10516v0.93573h-0.11735v-0.71932zm1.2207-0.12954q0 0.15393-0.0869 0.25298-0.0869 0.0991-0.22403 0.0991-0.13868 0-0.22555-0.0991-0.0853-0.099-0.0853-0.25298 0-0.15392 0.0853-0.25298 0.0869-0.0991 0.22555-0.0991 0.13716 0 0.22403 0.0991 0.0869 0.0991 0.0869 0.25298zm-0.11582 0q0-0.10972-0.0518-0.17983-0.0518-0.0716-0.14325-0.0716-0.0914 0-0.14325 0.0716-0.0518 0.0701-0.0518 0.17983t0.0518 0.18136q0.0518 0.0701 0.14325 0.0701 0.0914 0 0.14325-0.0701 0.0518-0.0716 0.0518-0.18136zm0.72084 0.13716v-0.27431q-0.0259-0.0518-0.0731-0.0808-0.0472-0.0305-0.10058-0.0305-0.096 0-0.15087 0.0716-0.0549 0.0701-0.0549 0.17678t0.0549 0.17831q0.0549 0.0701 0.15087 0.0701 0.0533 0 0.10058-0.0289 0.0472-0.0305 0.0731-0.0823zm0 0.20117v-0.0793q-0.0244 0.0366-0.0762 0.0655-0.0518 0.0274-0.1143 0.0274-0.14783 0-0.22708-0.10363-0.0777-0.10515-0.0777-0.24841 0-0.14173 0.0777-0.24688 0.0793-0.10516 0.22708-0.10516 0.0625 0 0.1143 0.029 0.0518 0.0274 0.0762 0.064v-0.39319h0.11583v0.99059zm0.57302-0.59283q-0.0655 0-0.11734 0.0457-0.0518 0.0457-0.0671 0.13868h0.34899q-3e-3 -0.0747-0.0427-0.12954-0.0396-0.0549-0.12192-0.0549zm0.2286 0.54711q-0.0411 0.032-0.093 0.0457-0.0518 0.0137-0.11278 0.0137-0.1463 0-0.23622-0.093-0.0899-0.0945-0.0899-0.25298 0-0.15697 0.0838-0.25755 0.0838-0.10059 0.21793-0.10059 0.13716 0 0.20726 0.0914t0.0701 0.23927v0.0411h-0.46634q5e-3 0.11734 0.0701 0.17525 0.0655 0.0564 0.15697 0.0564 0.0564 0 0.10058-0.0152 0.0457-0.0152 0.0914-0.0488z"/></g></svg>
