<svg width="442" height="43.9" version="1.1" viewBox="66 376 442 43.9" xml:space="preserve" xmlns="http://www.w3.org/2000/svg"><rect x="66.248" y="376.25" width="442" height="43.9" fill="#242323" fill-rule="evenodd" stroke="#000" stroke-linecap="round" stroke-miterlimit="4.4" stroke-width=".49672"/><text transform="scale(1.0397 .96177)" x="74.660637" y="391.9072" fill="#ffffff" font-family="sans-serif" font-size="2.4768px" font-weight="700"/><text transform="scale(1.0003 .99968)" x="79.690422" y="368.06918" fill="#000000" font-family="sans-serif" font-size="21.25px" letter-spacing="0px" stroke-width="1px" word-spacing="0px" style="line-height:125%" xml:space="preserve"/><g fill="#fff" stroke-width="1.1807px"><path d="m481.11 380.87h0.11092v0.93794h-0.11092z"/><path d="m478.05 380.97v0.12838c-0.34471-0.27037-0.59737-0.0349-0.59737 0.25322 0 0.40475 0.34816 0.4552 0.59737 0.25263v0.1272c-0.37439 0.21615-0.72575 9e-3 -0.72575-0.37979 0-0.49099 0.45925-0.54447 0.72575-0.38158z"/><path d="m478.49 381.2c-0.13234 0-0.1929 0.13256-0.1929 0.26038s0.0578 0.2604 0.1929 0.2604c0.13508 0 0.1923-0.11299 0.1923-0.26039 0-0.14736-0.0599-0.26039-0.1923-0.26039zm0-0.0941c0.20892 0 0.30984 0.15272 0.30984 0.35451 0 0.20181-0.10787 0.3544-0.30984 0.3544s-0.30983-0.15475-0.30983-0.3544c0-0.19964 0.10091-0.35451 0.30983-0.35451z"/><path d="m479.53 381.39v0.40749h-0.11092v-0.40388c0-0.29301-0.34299-0.2218-0.34299 0.0223v0.38157h-0.11152v-0.67515h0.11152v0.10485c0.1276-0.18879 0.45879-0.16393 0.4539 0.16282z"/><path d="m480.17 381.14v0.10484c-0.205-0.0779-0.36771-0.0528-0.36771 0.053 0 0.1616 0.40388 0.038 0.40388 0.31081 0 0.22695-0.27039 0.22328-0.51599 0.16189v-0.11453c0.16739 0.0981 0.40206 0.0822 0.40206-0.0385 0-0.17157-0.39725-0.0326-0.39725-0.31507 0-0.21999 0.26875-0.22563 0.47501-0.16232z"/><path d="m482.02 381.44v0.0543h-0.50997c0.0429 0.34233 0.35143 0.23349 0.48404 0.17174v0.10484c-0.39841 0.1386-0.59979-0.0294-0.59979-0.29652 0-0.19963 0.12238-0.36048 0.33092-0.36048 0.20855 0 0.28612 0.16767 0.29477 0.32607zm-0.11091-0.0326c0-0.16521-0.10629-0.19959-0.18266-0.19959-0.0764 0-0.21279 0.0349-0.21279 0.20011l0.39543-6e-4z"/><path d="m480.64 381.22c-0.13235 0-0.1929 0.13256-0.1929 0.26038 0 0.12783 0.0579 0.26041 0.1929 0.26041 0.13508 0 0.19231-0.113 0.19231-0.2604 0-0.14735-0.06-0.26039-0.19231-0.26039zm0-0.0941c0.20893 0 0.30985 0.15272 0.30985 0.35453s-0.10788 0.3544-0.30985 0.3544-0.30984-0.15475-0.30984-0.3544 0.10091-0.35453 0.30984-0.35453z"/></g><path d="m482.62 378.18c0.62541 0 1.1332 0.50774 1.1332 1.1332 0 0.62538-0.50774 1.1331-1.1332 1.1332h-5.8924c-0.62541 0-1.1332-0.50775-1.1332-1.1332 0-0.62541 0.50774-1.1332 1.1332-1.1332z" clip-rule="evenodd" fill-rule="evenodd" stroke="#ccc" stroke-linecap="round" stroke-linejoin="round" stroke-miterlimit="1.5" stroke-width=".1813px"/><rect x="476.55" y="379.01" width="6.2557" height=".60482" rx=".37795" fill="#e6e6e6"/><path d="m503.87 381.16h-8.5027v-1.5763h8.5027zm0.60741-2.1837h-9.7177v2.7907h9.7177z" fill="#00b188" stroke-width=".020684"/><g stroke-linejoin="round" stroke-width=".15"><path d="m76.484 418.29a1.2 1.2 0 0 0-1.2012 1.1992 1.2 1.2 0 0 0 0.41797 0.91016h1.5645a1.2 1.2 0 0 0 0.41797-0.91016 1.2 1.2 0 0 0-1.1992-1.1992zm4.0859 0a1.2 1.2 0 0 0-1.2012 1.1992 1.2 1.2 0 0 0 0.41797 0.91016h1.5645a1.2 1.2 0 0 0 0.41797-0.91016 1.2 1.2 0 0 0-1.1992-1.1992zm4.084 0a1.2 1.2 0 0 0-1.1992 1.1992 1.2 1.2 0 0 0 0.41797 0.91016h1.5645a1.2 1.2 0 0 0 0.41797-0.91016 1.2 1.2 0 0 0-1.2012-1.1992zm4.0859 0a1.2 1.2 0 0 0-1.2012 1.1992 1.2 1.2 0 0 0 0.41797 0.91016h1.5645a1.2 1.2 0 0 0 0.41797-0.91016 1.2 1.2 0 0 0-1.1992-1.1992zm4.0859 0a1.2 1.2 0 0 0-1.2012 1.1992 1.2 1.2 0 0 0 0.41797 0.91016h1.5645a1.2 1.2 0 0 0 0.41797-0.91016 1.2 1.2 0 0 0-1.1992-1.1992zm4.084 0a1.2 1.2 0 0 0-1.1992 1.1992 1.2 1.2 0 0 0 0.41797 0.91016h1.5645a1.2 1.2 0 0 0 0.41797-0.91016 1.2 1.2 0 0 0-1.2012-1.1992zm4.0859 0a1.2 1.2 0 0 0-1.2012 1.1992 1.2 1.2 0 0 0 0.41797 0.91016h1.5644a1.2 1.2 0 0 0 0.41797-0.91016 1.2 1.2 0 0 0-1.1992-1.1992zm4.0859 0a1.2 1.2 0 0 0-1.2012 1.1992 1.2 1.2 0 0 0 0.41797 0.91016h1.5644a1.2 1.2 0 0 0 0.41797-0.91016 1.2 1.2 0 0 0-1.1992-1.1992zm4.084 0a1.2 1.2 0 0 0-1.1992 1.1992 1.2 1.2 0 0 0 0.41797 0.91016h1.5644a1.2 1.2 0 0 0 0.41797-0.91016 1.2 1.2 0 0 0-1.2012-1.1992zm4.0859 0a1.2 1.2 0 0 0-1.2012 1.1992 1.2 1.2 0 0 0 0.41797 0.91016h1.5644a1.2 1.2 0 0 0 0.41797-0.91016 1.2 1.2 0 0 0-1.1992-1.1992zm4.0859 0a1.2 1.2 0 0 0-1.2012 1.1992 1.2 1.2 0 0 0 0.41797 0.91016h1.5644a1.2 1.2 0 0 0 0.41797-0.91016 1.2 1.2 0 0 0-1.1992-1.1992zm4.084 0a1.2 1.2 0 0 0-1.1992 1.1992 1.2 1.2 0 0 0 0.41796 0.91016h1.5645a1.2 1.2 0 0 0 0.41797-0.91016 1.2 1.2 0 0 0-1.2012-1.1992zm4.0859 0a1.2 1.2 0 0 0-1.1992 1.1992 1.2 1.2 0 0 0 0.41797 0.91016h1.5625a1.2 1.2 0 0 0 0.41797-0.91016 1.2 1.2 0 0 0-1.1992-1.1992zm4.0859 0a1.2 1.2 0 0 0-1.2012 1.1992 1.2 1.2 0 0 0 0.41797 0.91016h1.5644a1.2 1.2 0 0 0 0.41797-0.91016 1.2 1.2 0 0 0-1.1992-1.1992zm4.084 0a1.2 1.2 0 0 0-1.1992 1.1992 1.2 1.2 0 0 0 0.41796 0.91016h1.5645a1.2 1.2 0 0 0 0.41797-0.91016 1.2 1.2 0 0 0-1.2012-1.1992zm4.0859 0a1.2 1.2 0 0 0-1.1992 1.1992 1.2 1.2 0 0 0 0.41797 0.91016h1.5625a1.2 1.2 0 0 0 0.41797-0.91016 1.2 1.2 0 0 0-1.1992-1.1992zm4.0859 0a1.2 1.2 0 0 0-1.2012 1.1992 1.2 1.2 0 0 0 0.41797 0.91016h1.5644a1.2 1.2 0 0 0 0.41797-0.91016 1.2 1.2 0 0 0-1.1992-1.1992zm4.084 0a1.2 1.2 0 0 0-1.1992 1.1992 1.2 1.2 0 0 0 0.41796 0.91016h1.5645a1.2 1.2 0 0 0 0.41797-0.91016 1.2 1.2 0 0 0-1.2012-1.1992zm4.0859 0a1.2 1.2 0 0 0-1.1992 1.1992 1.2 1.2 0 0 0 0.41797 0.91016h1.5625a1.2 1.2 0 0 0 0.41797-0.91016 1.2 1.2 0 0 0-1.1992-1.1992zm4.0859 0a1.2 1.2 0 0 0-1.2012 1.1992 1.2 1.2 0 0 0 0.41797 0.91016h1.5644a1.2 1.2 0 0 0 0.41797-0.91016 1.2 1.2 0 0 0-1.1992-1.1992zm4.084 0a1.2 1.2 0 0 0-1.1992 1.1992 1.2 1.2 0 0 0 0.41797 0.91016h1.5645a1.2 1.2 0 0 0 0.41796-0.91016 1.2 1.2 0 0 0-1.2012-1.1992zm4.0859 0a1.2 1.2 0 0 0-1.1992 1.1992 1.2 1.2 0 0 0 0.41797 0.91016h1.5625a1.2 1.2 0 0 0 0.41797-0.91016 1.2 1.2 0 0 0-1.1992-1.1992zm4.0859 0a1.2 1.2 0 0 0-1.2012 1.1992 1.2 1.2 0 0 0 0.41796 0.91016h1.5645a1.2 1.2 0 0 0 0.41797-0.91016 1.2 1.2 0 0 0-1.1992-1.1992zm4.084 0a1.2 1.2 0 0 0-1.1992 1.1992 1.2 1.2 0 0 0 0.41797 0.91016h1.5645a1.2 1.2 0 0 0 0.41796-0.91016 1.2 1.2 0 0 0-1.2012-1.1992zm4.0859 0a1.2 1.2 0 0 0-1.1992 1.1992 1.2 1.2 0 0 0 0.41797 0.91016h1.5625a1.2 1.2 0 0 0 0.41797-0.91016 1.2 1.2 0 0 0-1.1992-1.1992zm4.0859 0a1.2 1.2 0 0 0-1.2012 1.1992 1.2 1.2 0 0 0 0.41796 0.91016h1.5645a1.2 1.2 0 0 0 0.41797-0.91016 1.2 1.2 0 0 0-1.1992-1.1992zm4.084 0a1.2 1.2 0 0 0-1.1992 1.1992 1.2 1.2 0 0 0 0.41797 0.91016h1.5645a1.2 1.2 0 0 0 0.41796-0.91016 1.2 1.2 0 0 0-1.2012-1.1992zm4.0859 0a1.2 1.2 0 0 0-1.1992 1.1992 1.2 1.2 0 0 0 0.41797 0.91016h1.5625a1.2 1.2 0 0 0 0.41797-0.91016 1.2 1.2 0 0 0-1.1992-1.1992zm4.0859 0a1.2 1.2 0 0 0-1.2012 1.1992 1.2 1.2 0 0 0 0.41796 0.91016h1.5645a1.2 1.2 0 0 0 0.41797-0.91016 1.2 1.2 0 0 0-1.1992-1.1992zm4.084 0a1.2 1.2 0 0 0-1.1992 1.1992 1.2 1.2 0 0 0 0.41797 0.91016h1.5644a1.2 1.2 0 0 0 0.41797-0.91016 1.2 1.2 0 0 0-1.2012-1.1992zm4.0859 0a1.2 1.2 0 0 0-1.1992 1.1992 1.2 1.2 0 0 0 0.41797 0.91016h1.5625a1.2 1.2 0 0 0 0.41797-0.91016 1.2 1.2 0 0 0-1.1992-1.1992zm4.0859 0a1.2 1.2 0 0 0-1.2012 1.1992 1.2 1.2 0 0 0 0.41797 0.91016h1.5645a1.2 1.2 0 0 0 0.41796-0.91016 1.2 1.2 0 0 0-1.1992-1.1992zm4.084 0a1.2 1.2 0 0 0-1.1992 1.1992 1.2 1.2 0 0 0 0.41797 0.91016h1.5644a1.2 1.2 0 0 0 0.41797-0.91016 1.2 1.2 0 0 0-1.2012-1.1992zm4.0859 0a1.2 1.2 0 0 0-1.1992 1.1992 1.2 1.2 0 0 0 0.41797 0.91016h1.5625a1.2 1.2 0 0 0 0.41797-0.91016 1.2 1.2 0 0 0-1.1992-1.1992zm4.0859 0a1.2 1.2 0 0 0-1.2012 1.1992 1.2 1.2 0 0 0 0.41797 0.91016h1.5645a1.2 1.2 0 0 0 0.41796-0.91016 1.2 1.2 0 0 0-1.1992-1.1992zm4.084 0a1.2 1.2 0 0 0-1.1992 1.1992 1.2 1.2 0 0 0 0.41797 0.91016h1.5644a1.2 1.2 0 0 0 0.41797-0.91016 1.2 1.2 0 0 0-1.2012-1.1992zm4.0859 0a1.2 1.2 0 0 0-1.1992 1.1992 1.2 1.2 0 0 0 0.41797 0.91016h1.5625a1.2 1.2 0 0 0 0.41797-0.91016 1.2 1.2 0 0 0-1.1992-1.1992zm4.0859 0a1.2 1.2 0 0 0-1.2012 1.1992 1.2 1.2 0 0 0 0.41797 0.91016h1.5645a1.2 1.2 0 0 0 0.41796-0.91016 1.2 1.2 0 0 0-1.1992-1.1992zm4.084 0a1.2 1.2 0 0 0-1.1992 1.1992 1.2 1.2 0 0 0 0.41797 0.91016h1.5644a1.2 1.2 0 0 0 0.41797-0.91016 1.2 1.2 0 0 0-1.2012-1.1992zm4.0859 0a1.2 1.2 0 0 0-1.1992 1.1992 1.2 1.2 0 0 0 0.41797 0.91016h1.5625a1.2 1.2 0 0 0 0.41797-0.91016 1.2 1.2 0 0 0-1.1992-1.1992zm4.0859 0a1.2 1.2 0 0 0-1.2012 1.1992 1.2 1.2 0 0 0 0.41797 0.91016h1.5644a1.2 1.2 0 0 0 0.41797-0.91016 1.2 1.2 0 0 0-1.1992-1.1992zm4.084 0a1.2 1.2 0 0 0-1.1992 1.1992 1.2 1.2 0 0 0 0.41797 0.91016h1.5644a1.2 1.2 0 0 0 0.41797-0.91016 1.2 1.2 0 0 0-1.2012-1.1992zm4.0859 0a1.2 1.2 0 0 0-1.1992 1.1992 1.2 1.2 0 0 0 0.41797 0.91016h1.5625a1.2 1.2 0 0 0 0.41796-0.91016 1.2 1.2 0 0 0-1.1992-1.1992zm4.0859 0a1.2 1.2 0 0 0-1.2012 1.1992 1.2 1.2 0 0 0 0.41797 0.91016h1.5644a1.2 1.2 0 0 0 0.41797-0.91016 1.2 1.2 0 0 0-1.1992-1.1992zm4.084 0a1.2 1.2 0 0 0-1.1992 1.1992 1.2 1.2 0 0 0 0.41797 0.91016h1.5644a1.2 1.2 0 0 0 0.41797-0.91016 1.2 1.2 0 0 0-1.2012-1.1992zm4.0859 0a1.2 1.2 0 0 0-1.1992 1.1992 1.2 1.2 0 0 0 0.41797 0.91016h1.5625a1.2 1.2 0 0 0 0.41796-0.91016 1.2 1.2 0 0 0-1.1992-1.1992zm4.0859 0a1.2 1.2 0 0 0-1.2012 1.1992 1.2 1.2 0 0 0 0.41797 0.91016h1.5644a1.2 1.2 0 0 0 0.41797-0.91016 1.2 1.2 0 0 0-1.1992-1.1992zm4.084 0a1.2 1.2 0 0 0-1.1992 1.1992 1.2 1.2 0 0 0 0.41797 0.91016h1.5644a1.2 1.2 0 0 0 0.41797-0.91016 1.2 1.2 0 0 0-1.2012-1.1992zm4.0859 0a1.2 1.2 0 0 0-1.1992 1.1992 1.2 1.2 0 0 0 0.41797 0.91016h1.5625a1.2 1.2 0 0 0 0.41796-0.91016 1.2 1.2 0 0 0-1.1992-1.1992zm4.0859 0a1.2 1.2 0 0 0-1.2012 1.1992 1.2 1.2 0 0 0 0.41797 0.91016h1.5644a1.2 1.2 0 0 0 0.41797-0.91016 1.2 1.2 0 0 0-1.1992-1.1992zm4.084 0a1.2 1.2 0 0 0-1.1992 1.1992 1.2 1.2 0 0 0 0.41797 0.91016h1.5644a1.2 1.2 0 0 0 0.41797-0.91016 1.2 1.2 0 0 0-1.2012-1.1992zm4.0859 0a1.2 1.2 0 0 0-1.1992 1.1992 1.2 1.2 0 0 0 0.41796 0.91016h1.5625a1.2 1.2 0 0 0 0.41797-0.91016 1.2 1.2 0 0 0-1.1992-1.1992zm4.0859 0a1.2 1.2 0 0 0-1.2012 1.1992 1.2 1.2 0 0 0 0.41797 0.91016h1.5644a1.2 1.2 0 0 0 0.41797-0.91016 1.2 1.2 0 0 0-1.1992-1.1992zm4.084 0a1.2 1.2 0 0 0-1.1992 1.1992 1.2 1.2 0 0 0 0.41797 0.91016h1.5644a1.2 1.2 0 0 0 0.41797-0.91016 1.2 1.2 0 0 0-1.2012-1.1992zm4.0859 0a1.2 1.2 0 0 0-1.1992 1.1992 1.2 1.2 0 0 0 0.41797 0.91016h1.5625a1.2 1.2 0 0 0 0.41797-0.91016 1.2 1.2 0 0 0-1.1992-1.1992zm4.0859 0a1.2 1.2 0 0 0-1.2012 1.1992 1.2 1.2 0 0 0 0.41797 0.91016h1.5644a1.2 1.2 0 0 0 0.41797-0.91016 1.2 1.2 0 0 0-1.1992-1.1992zm4.084 0a1.2 1.2 0 0 0-1.1992 1.1992 1.2 1.2 0 0 0 0.41797 0.91016h1.5644a1.2 1.2 0 0 0 0.41797-0.91016 1.2 1.2 0 0 0-1.2012-1.1992zm4.0859 0a1.2 1.2 0 0 0-1.1992 1.1992 1.2 1.2 0 0 0 0.41797 0.91016h1.5625a1.2 1.2 0 0 0 0.41797-0.91016 1.2 1.2 0 0 0-1.1992-1.1992zm4.0859 0a1.2 1.2 0 0 0-1.2012 1.1992 1.2 1.2 0 0 0 0.41797 0.91016h1.5644a1.2 1.2 0 0 0 0.41797-0.91016 1.2 1.2 0 0 0-1.1992-1.1992zm4.084 0a1.2 1.2 0 0 0-1.1992 1.1992 1.2 1.2 0 0 0 0.41797 0.91016h1.5644a1.2 1.2 0 0 0 0.41797-0.91016 1.2 1.2 0 0 0-1.2012-1.1992zm4.0859 0a1.2 1.2 0 0 0-1.1992 1.1992 1.2 1.2 0 0 0 0.41797 0.91016h1.5625a1.2 1.2 0 0 0 0.41797-0.91016 1.2 1.2 0 0 0-1.1992-1.1992zm4.0859 0a1.2 1.2 0 0 0-1.2012 1.1992 1.2 1.2 0 0 0 0.41797 0.91016h1.5644a1.2 1.2 0 0 0 0.41797-0.91016 1.2 1.2 0 0 0-1.1992-1.1992zm4.084 0a1.2 1.2 0 0 0-1.1992 1.1992 1.2 1.2 0 0 0 0.41796 0.91016h1.5645a1.2 1.2 0 0 0 0.41797-0.91016 1.2 1.2 0 0 0-1.2012-1.1992zm4.0859 0a1.2 1.2 0 0 0-1.1992 1.1992 1.2 1.2 0 0 0 0.41797 0.91016h1.5625a1.2 1.2 0 0 0 0.41797-0.91016 1.2 1.2 0 0 0-1.1992-1.1992zm4.0859 0a1.2 1.2 0 0 0-1.2012 1.1992 1.2 1.2 0 0 0 0.41797 0.91016h1.5644a1.2 1.2 0 0 0 0.41797-0.91016 1.2 1.2 0 0 0-1.1992-1.1992zm4.084 0a1.2 1.2 0 0 0-1.1992 1.1992 1.2 1.2 0 0 0 0.41797 0.91016h1.5645a1.2 1.2 0 0 0 0.41797-0.91016 1.2 1.2 0 0 0-1.2012-1.1992zm4.0859 0a1.2 1.2 0 0 0-1.1992 1.1992 1.2 1.2 0 0 0 0.41797 0.91016h1.5625a1.2 1.2 0 0 0 0.41797-0.91016 1.2 1.2 0 0 0-1.1992-1.1992zm4.0859 0a1.2 1.2 0 0 0-1.2012 1.1992 1.2 1.2 0 0 0 0.41797 0.91016h1.5644a1.2 1.2 0 0 0 0.41797-0.91016 1.2 1.2 0 0 0-1.1992-1.1992zm4.084 0a1.2 1.2 0 0 0-1.1992 1.1992 1.2 1.2 0 0 0 0.41797 0.91016h1.5645a1.2 1.2 0 0 0 0.41797-0.91016 1.2 1.2 0 0 0-1.2012-1.1992zm4.0859 0a1.2 1.2 0 0 0-1.1992 1.1992 1.2 1.2 0 0 0 0.41797 0.91016h1.5625a1.2 1.2 0 0 0 0.41797-0.91016 1.2 1.2 0 0 0-1.1992-1.1992zm4.0859 0a1.2 1.2 0 0 0-1.2012 1.1992 1.2 1.2 0 0 0 0.41797 0.91016h1.5644a1.2 1.2 0 0 0 0.41797-0.91016 1.2 1.2 0 0 0-1.1992-1.1992zm4.084 0a1.2 1.2 0 0 0-1.1992 1.1992 1.2 1.2 0 0 0 0.41797 0.91016h1.5645a1.2 1.2 0 0 0 0.41796-0.91016 1.2 1.2 0 0 0-1.2012-1.1992zm4.0859 0a1.2 1.2 0 0 0-1.1992 1.1992 1.2 1.2 0 0 0 0.41797 0.91016h1.5644a1.2 1.2 0 0 0 0.41797-0.91016 1.2 1.2 0 0 0-1.2012-1.1992zm4.0859 0a1.2 1.2 0 0 0-1.2012 1.1992 1.2 1.2 0 0 0 0.41796 0.91016h1.5645a1.2 1.2 0 0 0 0.41797-0.91016 1.2 1.2 0 0 0-1.1992-1.1992zm4.084 0a1.2 1.2 0 0 0-1.1992 1.1992 1.2 1.2 0 0 0 0.41797 0.91016h1.5644a1.2 1.2 0 0 0 0.41797-0.91016 1.2 1.2 0 0 0-1.2012-1.1992zm4.0859 0a1.2 1.2 0 0 0-1.1992 1.1992 1.2 1.2 0 0 0 0.41797 0.91016h1.5644a1.2 1.2 0 0 0 0.41797-0.91016 1.2 1.2 0 0 0-1.2012-1.1992zm4.0859 0a1.2 1.2 0 0 0-1.2012 1.1992 1.2 1.2 0 0 0 0.41797 0.91016h1.5645a1.2 1.2 0 0 0 0.41797-0.91016 1.2 1.2 0 0 0-1.1992-1.1992zm4.084 0a1.2 1.2 0 0 0-1.1992 1.1992 1.2 1.2 0 0 0 0.41797 0.91016h1.5644a1.2 1.2 0 0 0 0.41797-0.91016 1.2 1.2 0 0 0-1.2012-1.1992zm4.0859 0a1.2 1.2 0 0 0-1.1992 1.1992 1.2 1.2 0 0 0 0.41797 0.91016h1.5644a1.2 1.2 0 0 0 0.41797-0.91016 1.2 1.2 0 0 0-1.2012-1.1992zm4.0859 0a1.2 1.2 0 0 0-1.2012 1.1992 1.2 1.2 0 0 0 0.41797 0.91016h1.5645a1.2 1.2 0 0 0 0.41797-0.91016 1.2 1.2 0 0 0-1.1992-1.1992zm4.084 0a1.2 1.2 0 0 0-1.1992 1.1992 1.2 1.2 0 0 0 0.41797 0.91016h1.5644a1.2 1.2 0 0 0 0.41797-0.91016 1.2 1.2 0 0 0-1.2012-1.1992zm4.0859 0a1.2 1.2 0 0 0-1.1992 1.1992 1.2 1.2 0 0 0 0.41797 0.91016h1.5644a1.2 1.2 0 0 0 0.41797-0.91016 1.2 1.2 0 0 0-1.2012-1.1992zm4.0859 0a1.2 1.2 0 0 0-1.2012 1.1992 1.2 1.2 0 0 0 0.41797 0.91016h1.5645a1.2 1.2 0 0 0 0.41796-0.91016 1.2 1.2 0 0 0-1.1992-1.1992zm4.084 0a1.2 1.2 0 0 0-1.1992 1.1992 1.2 1.2 0 0 0 0.41797 0.91016h1.5644a1.2 1.2 0 0 0 0.41797-0.91016 1.2 1.2 0 0 0-1.2012-1.1992zm4.0859 0a1.2 1.2 0 0 0-1.1992 1.1992 1.2 1.2 0 0 0 0.41797 0.91016h1.5644a1.2 1.2 0 0 0 0.41797-0.91016 1.2 1.2 0 0 0-1.2012-1.1992zm4.0859 0a1.2 1.2 0 0 0-1.2012 1.1992 1.2 1.2 0 0 0 0.41797 0.91016h1.5644a1.2 1.2 0 0 0 0.41797-0.91016 1.2 1.2 0 0 0-1.1992-1.1992zm4.084 0a1.2 1.2 0 0 0-1.1992 1.1992 1.2 1.2 0 0 0 0.41797 0.91016h1.5644a1.2 1.2 0 0 0 0.41797-0.91016 1.2 1.2 0 0 0-1.2012-1.1992zm4.0859 0a1.2 1.2 0 0 0-1.1992 1.1992 1.2 1.2 0 0 0 0.41797 0.91016h1.5644a1.2 1.2 0 0 0 0.41797-0.91016 1.2 1.2 0 0 0-1.2012-1.1992zm4.0859 0a1.2 1.2 0 0 0-1.2012 1.1992 1.2 1.2 0 0 0 0.41797 0.91016h1.5644a1.2 1.2 0 0 0 0.41797-0.91016 1.2 1.2 0 0 0-1.1992-1.1992zm4.084 0a1.2 1.2 0 0 0-1.1992 1.1992 1.2 1.2 0 0 0 0.41797 0.91016h1.5644a1.2 1.2 0 0 0 0.41797-0.91016 1.2 1.2 0 0 0-1.2012-1.1992zm4.0859 0a1.2 1.2 0 0 0-1.1992 1.1992 1.2 1.2 0 0 0 0.41797 0.91016h1.5644a1.2 1.2 0 0 0 0.41797-0.91016 1.2 1.2 0 0 0-1.2012-1.1992zm4.0859 0a1.2 1.2 0 0 0-1.2012 1.1992 1.2 1.2 0 0 0 0.41797 0.91016h1.5644a1.2 1.2 0 0 0 0.41797-0.91016 1.2 1.2 0 0 0-1.1992-1.1992zm4.0859 0a1.2 1.2 0 0 0-1.2012 1.1992 1.2 1.2 0 0 0 0.41797 0.91016h1.5644a1.2 1.2 0 0 0 0.41797-0.91016 1.2 1.2 0 0 0-1.1992-1.1992zm4.084 0a1.2 1.2 0 0 0-1.1992 1.1992 1.2 1.2 0 0 0 0.41797 0.91016h1.5644a1.2 1.2 0 0 0 0.41797-0.91016 1.2 1.2 0 0 0-1.2012-1.1992zm4.0859 0a1.2 1.2 0 0 0-1.2012 1.1992 1.2 1.2 0 0 0 0.41797 0.91016h1.5644a1.2 1.2 0 0 0 0.41797-0.91016 1.2 1.2 0 0 0-1.1992-1.1992zm4.0859 0a1.2 1.2 0 0 0-1.2012 1.1992 1.2 1.2 0 0 0 0.41797 0.91016h1.5644a1.2 1.2 0 0 0 0.41797-0.91016 1.2 1.2 0 0 0-1.1992-1.1992zm4.084 0a1.2 1.2 0 0 0-1.1992 1.1992 1.2 1.2 0 0 0 0.41796 0.91016h1.5645a1.2 1.2 0 0 0 0.41797-0.91016 1.2 1.2 0 0 0-1.2012-1.1992zm4.0859 0a1.2 1.2 0 0 0-1.2012 1.1992 1.2 1.2 0 0 0 0.41797 0.91016h1.5644a1.2 1.2 0 0 0 0.41797-0.91016 1.2 1.2 0 0 0-1.1992-1.1992zm4.0859 0a1.2 1.2 0 0 0-1.2012 1.1992 1.2 1.2 0 0 0 0.41797 0.91016h1.5644a1.2 1.2 0 0 0 0.41797-0.91016 1.2 1.2 0 0 0-1.1992-1.1992zm4.084 0a1.2 1.2 0 0 0-1.1992 1.1992 1.2 1.2 0 0 0 0.41796 0.91016h1.5645a1.2 1.2 0 0 0 0.41797-0.91016 1.2 1.2 0 0 0-1.2012-1.1992zm4.0859 0a1.2 1.2 0 0 0-1.2012 1.1992 1.2 1.2 0 0 0 0.41797 0.91016h1.5644a1.2 1.2 0 0 0 0.41797-0.91016 1.2 1.2 0 0 0-1.1992-1.1992zm4.0859 0a1.2 1.2 0 0 0-1.2012 1.1992 1.2 1.2 0 0 0 0.41797 0.91016h1.5644a1.2 1.2 0 0 0 0.41797-0.91016 1.2 1.2 0 0 0-1.1992-1.1992zm4.084 0a1.2 1.2 0 0 0-1.1992 1.1992 1.2 1.2 0 0 0 0.41796 0.91016h1.5645a1.2 1.2 0 0 0 0.41797-0.91016 1.2 1.2 0 0 0-1.2012-1.1992zm4.0859 0a1.2 1.2 0 0 0-1.2012 1.1992 1.2 1.2 0 0 0 0.41797 0.91016h1.5644a1.2 1.2 0 0 0 0.41797-0.91016 1.2 1.2 0 0 0-1.1992-1.1992z"/><circle cx="79.351" cy="380.24" r="1.2"/><circle cx="84.236" cy="380.24" r="1.2"/><circle cx="89.12" cy="380.24" r="1.2"/><circle cx="94.004" cy="380.24" r="1.2"/><circle cx="98.889" cy="380.24" r="1.2"/><circle cx="103.77" cy="380.24" r="1.2"/><circle cx="108.66" cy="380.24" r="1.2"/><circle cx="113.54" cy="380.24" r="1.2"/><circle cx="118.43" cy="380.24" r="1.2"/><circle cx="123.31" cy="380.24" r="1.2"/><circle cx="128.19" cy="380.24" r="1.2"/><circle cx="133.08" cy="380.24" r="1.2"/><circle cx="137.96" cy="380.24" r="1.2"/><circle cx="142.85" cy="380.24" r="1.2"/><circle cx="147.73" cy="380.24" r="1.2"/><circle cx="152.62" cy="380.24" r="1.2"/><circle cx="157.5" cy="380.24" r="1.2"/><circle cx="162.39" cy="380.24" r="1.2"/><circle cx="167.27" cy="380.24" r="1.2"/><circle cx="172.15" cy="380.24" r="1.2"/><circle cx="177.04" cy="380.24" r="1.2"/><circle cx="181.92" cy="380.24" r="1.2"/><circle cx="186.81" cy="380.24" r="1.2"/><circle cx="191.69" cy="380.24" r="1.2"/><circle cx="196.58" cy="380.24" r="1.2"/><circle cx="201.46" cy="380.24" r="1.2"/><circle cx="206.34" cy="380.24" r="1.2"/><circle cx="211.23" cy="380.24" r="1.2"/><circle cx="216.11" cy="380.24" r="1.2"/><circle cx="221" cy="380.24" r="1.2"/><circle cx="225.88" cy="380.24" r="1.2"/><circle cx="230.77" cy="380.24" r="1.2"/><circle cx="235.65" cy="380.24" r="1.2"/><circle cx="240.53" cy="380.24" r="1.2"/><circle cx="245.42" cy="380.24" r="1.2"/><circle cx="250.3" cy="380.24" r="1.2"/><circle cx="255.19" cy="380.24" r="1.2"/><circle cx="260.07" cy="380.24" r="1.2"/><circle cx="264.96" cy="380.24" r="1.2"/><circle cx="269.84" cy="380.24" r="1.2"/><circle cx="274.73" cy="380.24" r="1.2"/><circle cx="279.61" cy="380.24" r="1.2"/><circle cx="284.49" cy="380.24" r="1.2"/><circle cx="289.38" cy="380.24" r="1.2"/><circle cx="294.26" cy="380.24" r="1.2"/><path d="m75.311 376a1.7978 1.7978 0 0 0-0.21484 0.84961 1.7978 1.7978 0 0 0 1.7969 1.7988 1.7978 1.7978 0 0 0 1.7988-1.7988 1.7978 1.7978 0 0 0-0.21484-0.84961zm4.9121 0a1.7978 1.7978 0 0 0-0.21484 0.84961 1.7978 1.7978 0 0 0 1.7969 1.7988 1.7978 1.7978 0 0 0 1.7988-1.7988 1.7978 1.7978 0 0 0-0.21484-0.84961zm4.9102 0a1.7978 1.7978 0 0 0-0.21484 0.84961 1.7978 1.7978 0 0 0 1.7988 1.7988 1.7978 1.7978 0 0 0 1.7969-1.7988 1.7978 1.7978 0 0 0-0.21484-0.84961zm4.9121 0a1.7978 1.7978 0 0 0-0.21484 0.84961 1.7978 1.7978 0 0 0 1.7988 1.7988 1.7978 1.7978 0 0 0 1.7969-1.7988 1.7978 1.7978 0 0 0-0.21484-0.84961zm4.9121 0a1.7978 1.7978 0 0 0-0.21484 0.84961 1.7978 1.7978 0 0 0 1.7969 1.7988 1.7978 1.7978 0 0 0 1.7988-1.7988 1.7978 1.7978 0 0 0-0.21484-0.84961zm4.9102 0a1.7978 1.7978 0 0 0-0.21484 0.84961 1.7978 1.7978 0 0 0 1.7988 1.7988 1.7978 1.7978 0 0 0 1.7969-1.7988 1.7978 1.7978 0 0 0-0.21485-0.84961zm4.9121 0a1.7978 1.7978 0 0 0-0.21485 0.84961 1.7978 1.7978 0 0 0 1.7988 1.7988 1.7978 1.7978 0 0 0 1.7969-1.7988 1.7978 1.7978 0 0 0-0.21485-0.84961zm4.9121 0a1.7978 1.7978 0 0 0-0.21485 0.84961 1.7978 1.7978 0 0 0 1.7969 1.7988 1.7978 1.7978 0 0 0 1.7988-1.7988 1.7978 1.7978 0 0 0-0.21485-0.84961zm4.9121 0a1.7978 1.7978 0 0 0-0.21485 0.84961 1.7978 1.7978 0 0 0 1.7969 1.7988 1.7978 1.7978 0 0 0 1.7988-1.7988 1.7978 1.7978 0 0 0-0.21485-0.84961zm4.9102 0a1.7978 1.7978 0 0 0-0.21484 0.84961 1.7978 1.7978 0 0 0 1.7988 1.7988 1.7978 1.7978 0 0 0 1.7969-1.7988 1.7978 1.7978 0 0 0-0.21484-0.84961zm4.9121 0a1.7978 1.7978 0 0 0-0.21484 0.84961 1.7978 1.7978 0 0 0 1.7988 1.7988 1.7978 1.7978 0 0 0 1.7969-1.7988 1.7978 1.7978 0 0 0-0.21484-0.84961zm4.9121 0a1.7978 1.7978 0 0 0-0.21484 0.84961 1.7978 1.7978 0 0 0 1.7969 1.7988 1.7978 1.7978 0 0 0 1.7988-1.7988 1.7978 1.7978 0 0 0-0.21484-0.84961zm4.9102 0a1.7978 1.7978 0 0 0-0.21485 0.84961 1.7978 1.7978 0 0 0 1.7988 1.7988 1.7978 1.7978 0 0 0 1.7969-1.7988 1.7978 1.7978 0 0 0-0.21485-0.84961zm4.9121 0a1.7978 1.7978 0 0 0-0.21485 0.84961 1.7978 1.7978 0 0 0 1.7988 1.7988 1.7978 1.7978 0 0 0 1.7969-1.7988 1.7978 1.7978 0 0 0-0.21485-0.84961zm4.9121 0a1.7978 1.7978 0 0 0-0.21485 0.84961 1.7978 1.7978 0 0 0 1.7969 1.7988 1.7978 1.7978 0 0 0 1.7988-1.7988 1.7978 1.7978 0 0 0-0.21484-0.84961zm4.9121 0a1.7978 1.7978 0 0 0-0.21485 0.84961 1.7978 1.7978 0 0 0 1.7969 1.7988 1.7978 1.7978 0 0 0 1.7988-1.7988 1.7978 1.7978 0 0 0-0.21484-0.84961zm4.9102 0a1.7978 1.7978 0 0 0-0.21484 0.84961 1.7978 1.7978 0 0 0 1.7988 1.7988 1.7978 1.7978 0 0 0 1.7969-1.7988 1.7978 1.7978 0 0 0-0.21484-0.84961zm4.9121 0a1.7978 1.7978 0 0 0-0.21484 0.84961 1.7978 1.7978 0 0 0 1.7988 1.7988 1.7978 1.7978 0 0 0 1.7969-1.7988 1.7978 1.7978 0 0 0-0.21484-0.84961zm4.9121 0a1.7978 1.7978 0 0 0-0.21484 0.84961 1.7978 1.7978 0 0 0 1.7969 1.7988 1.7978 1.7978 0 0 0 1.7988-1.7988 1.7978 1.7978 0 0 0-0.21484-0.84961zm4.9121 0a1.7978 1.7978 0 0 0-0.21484 0.84961 1.7978 1.7978 0 0 0 1.7969 1.7988 1.7978 1.7978 0 0 0 1.7969-1.7988 1.7978 1.7978 0 0 0-0.21485-0.84961zm4.9102 0a1.7978 1.7978 0 0 0-0.21485 0.84961 1.7978 1.7978 0 0 0 1.7988 1.7988 1.7978 1.7978 0 0 0 1.7969-1.7988 1.7978 1.7978 0 0 0-0.21485-0.84961zm4.9121 0a1.7978 1.7978 0 0 0-0.21484 0.84961 1.7978 1.7978 0 0 0 1.7969 1.7988 1.7978 1.7978 0 0 0 1.7988-1.7988 1.7978 1.7978 0 0 0-0.21484-0.84961zm4.9121 0a1.7978 1.7978 0 0 0-0.21484 0.84961 1.7978 1.7978 0 0 0 1.7969 1.7988 1.7978 1.7978 0 0 0 1.7988-1.7988 1.7978 1.7978 0 0 0-0.21484-0.84961zm4.9102 0a1.7978 1.7978 0 0 0-0.21484 0.84961 1.7978 1.7978 0 0 0 1.7988 1.7988 1.7978 1.7978 0 0 0 1.7969-1.7988 1.7978 1.7978 0 0 0-0.21484-0.84961zm4.9121 0a1.7978 1.7978 0 0 0-0.21484 0.84961 1.7978 1.7978 0 0 0 1.7988 1.7988 1.7978 1.7978 0 0 0 1.7969-1.7988 1.7978 1.7978 0 0 0-0.21484-0.84961zm4.9121 0a1.7978 1.7978 0 0 0-0.21484 0.84961 1.7978 1.7978 0 0 0 1.7969 1.7988 1.7978 1.7978 0 0 0 1.7988-1.7988 1.7978 1.7978 0 0 0-0.21485-0.84961zm4.9121 0a1.7978 1.7978 0 0 0-0.21484 0.84961 1.7978 1.7978 0 0 0 1.7969 1.7988 1.7978 1.7978 0 0 0 1.7969-1.7988 1.7978 1.7978 0 0 0-0.21484-0.84961zm4.9102 0a1.7978 1.7978 0 0 0-0.21485 0.84961 1.7978 1.7978 0 0 0 1.7988 1.7988 1.7978 1.7978 0 0 0 1.7969-1.7988 1.7978 1.7978 0 0 0-0.21484-0.84961zm4.9121 0a1.7978 1.7978 0 0 0-0.21484 0.84961 1.7978 1.7978 0 0 0 1.7969 1.7988 1.7978 1.7978 0 0 0 1.7988-1.7988 1.7978 1.7978 0 0 0-0.21484-0.84961zm4.9121 0a1.7978 1.7978 0 0 0-0.21484 0.84961 1.7978 1.7978 0 0 0 1.7969 1.7988 1.7978 1.7978 0 0 0 1.7988-1.7988 1.7978 1.7978 0 0 0-0.21484-0.84961zm4.9102 0a1.7978 1.7978 0 0 0-0.21484 0.84961 1.7978 1.7978 0 0 0 1.7988 1.7988 1.7978 1.7978 0 0 0 1.7969-1.7988 1.7978 1.7978 0 0 0-0.21484-0.84961zm4.9121 0a1.7978 1.7978 0 0 0-0.21484 0.84961 1.7978 1.7978 0 0 0 1.7988 1.7988 1.7978 1.7978 0 0 0 1.7969-1.7988 1.7978 1.7978 0 0 0-0.21484-0.84961zm4.9121 0a1.7978 1.7978 0 0 0-0.21485 0.84961 1.7978 1.7978 0 0 0 1.7969 1.7988 1.7978 1.7978 0 0 0 1.7988-1.7988 1.7978 1.7978 0 0 0-0.21485-0.84961zm4.9121 0a1.7978 1.7978 0 0 0-0.21485 0.84961 1.7978 1.7978 0 0 0 1.7969 1.7988 1.7978 1.7978 0 0 0 1.7969-1.7988 1.7978 1.7978 0 0 0-0.21484-0.84961zm4.9102 0a1.7978 1.7978 0 0 0-0.21484 0.84961 1.7978 1.7978 0 0 0 1.7988 1.7988 1.7978 1.7978 0 0 0 1.7969-1.7988 1.7978 1.7978 0 0 0-0.21484-0.84961zm4.9121 0a1.7978 1.7978 0 0 0-0.21484 0.84961 1.7978 1.7978 0 0 0 1.7969 1.7988 1.7978 1.7978 0 0 0 1.7988-1.7988 1.7978 1.7978 0 0 0-0.21484-0.84961zm4.9121 0a1.7978 1.7978 0 0 0-0.21484 0.84961 1.7978 1.7978 0 0 0 1.7969 1.7988 1.7978 1.7978 0 0 0 1.7988-1.7988 1.7978 1.7978 0 0 0-0.21484-0.84961zm4.9102 0a1.7978 1.7978 0 0 0-0.21484 0.84961 1.7978 1.7978 0 0 0 1.7988 1.7988 1.7978 1.7978 0 0 0 1.7969-1.7988 1.7978 1.7978 0 0 0-0.21485-0.84961zm4.9121 0a1.7978 1.7978 0 0 0-0.21484 0.84961 1.7978 1.7978 0 0 0 1.7988 1.7988 1.7978 1.7978 0 0 0 1.7969-1.7988 1.7978 1.7978 0 0 0-0.21485-0.84961zm4.9121 0a1.7978 1.7978 0 0 0-0.21485 0.84961 1.7978 1.7978 0 0 0 1.7969 1.7988 1.7978 1.7978 0 0 0 1.7988-1.7988 1.7978 1.7978 0 0 0-0.21485-0.84961zm4.9121 0a1.7978 1.7978 0 0 0-0.21485 0.84961 1.7978 1.7978 0 0 0 1.7969 1.7988 1.7978 1.7978 0 0 0 1.7969-1.7988 1.7978 1.7978 0 0 0-0.21484-0.84961zm4.9102 0a1.7978 1.7978 0 0 0-0.21484 0.84961 1.7978 1.7978 0 0 0 1.7988 1.7988 1.7978 1.7978 0 0 0 1.7969-1.7988 1.7978 1.7978 0 0 0-0.21484-0.84961zm4.9121 0a1.7978 1.7978 0 0 0-0.21484 0.84961 1.7978 1.7978 0 0 0 1.7969 1.7988 1.7978 1.7978 0 0 0 1.7988-1.7988 1.7978 1.7978 0 0 0-0.21484-0.84961zm4.9121 0a1.7978 1.7978 0 0 0-0.21484 0.84961 1.7978 1.7978 0 0 0 1.7969 1.7988 1.7978 1.7978 0 0 0 1.7988-1.7988 1.7978 1.7978 0 0 0-0.21484-0.84961zm4.9102 0a1.7978 1.7978 0 0 0-0.21485 0.84961 1.7978 1.7978 0 0 0 1.7988 1.7988 1.7978 1.7978 0 0 0 1.7969-1.7988 1.7978 1.7978 0 0 0-0.21485-0.84961zm4.9121 0a1.7978 1.7978 0 0 0-0.21485 0.84961 1.7978 1.7978 0 0 0 1.7988 1.7988 1.7978 1.7978 0 0 0 1.7969-1.7988 1.7978 1.7978 0 0 0-0.21485-0.84961zm4.9121 0a1.7978 1.7978 0 0 0-0.21485 0.84961 1.7978 1.7978 0 0 0 1.7969 1.7988 1.7978 1.7978 0 0 0 1.7988-1.7988 1.7978 1.7978 0 0 0-0.21485-0.84961zm4.9121 0a1.7978 1.7978 0 0 0-0.21485 0.84961 1.7978 1.7978 0 0 0 1.7969 1.7988 1.7978 1.7978 0 0 0 1.7969-1.7988 1.7978 1.7978 0 0 0-0.21484-0.84961zm4.9102 0a1.7978 1.7978 0 0 0-0.21484 0.84961 1.7978 1.7978 0 0 0 1.7988 1.7988 1.7978 1.7978 0 0 0 1.7969-1.7988 1.7978 1.7978 0 0 0-0.21484-0.84961zm4.9121 0a1.7978 1.7978 0 0 0-0.21484 0.84961 1.7978 1.7978 0 0 0 1.7969 1.7988 1.7978 1.7978 0 0 0 1.7988-1.7988 1.7978 1.7978 0 0 0-0.21484-0.84961zm4.9121 0a1.7978 1.7978 0 0 0-0.21484 0.84961 1.7978 1.7978 0 0 0 1.7969 1.7988 1.7978 1.7978 0 0 0 1.7988-1.7988 1.7978 1.7978 0 0 0-0.21484-0.84961zm4.9102 0a1.7978 1.7978 0 0 0-0.21485 0.84961 1.7978 1.7978 0 0 0 1.7988 1.7988 1.7978 1.7978 0 0 0 1.7969-1.7988 1.7978 1.7978 0 0 0-0.21485-0.84961zm4.9121 0a1.7978 1.7978 0 0 0-0.21485 0.84961 1.7978 1.7978 0 0 0 1.7988 1.7988 1.7978 1.7978 0 0 0 1.7969-1.7988 1.7978 1.7978 0 0 0-0.21485-0.84961zm4.9121 0a1.7978 1.7978 0 0 0-0.21485 0.84961 1.7978 1.7978 0 0 0 1.7969 1.7988 1.7978 1.7978 0 0 0 1.7988-1.7988 1.7978 1.7978 0 0 0-0.21485-0.84961zm4.9121 0a1.7978 1.7978 0 0 0-0.21485 0.84961 1.7978 1.7978 0 0 0 1.7969 1.7988 1.7978 1.7978 0 0 0 1.7969-1.7988 1.7978 1.7978 0 0 0-0.21484-0.84961zm4.9102 0a1.7978 1.7978 0 0 0-0.21484 0.84961 1.7978 1.7978 0 0 0 1.7988 1.7988 1.7978 1.7978 0 0 0 1.7969-1.7988 1.7978 1.7978 0 0 0-0.21484-0.84961zm4.9121 0a1.7978 1.7978 0 0 0-0.21484 0.84961 1.7978 1.7978 0 0 0 1.7969 1.7988 1.7978 1.7978 0 0 0 1.7988-1.7988 1.7978 1.7978 0 0 0-0.21484-0.84961zm4.9121 0a1.7978 1.7978 0 0 0-0.21484 0.84961 1.7978 1.7978 0 0 0 1.7969 1.7988 1.7978 1.7978 0 0 0 1.7988-1.7988 1.7978 1.7978 0 0 0-0.21484-0.84961zm4.9102 0a1.7978 1.7978 0 0 0-0.21485 0.84961 1.7978 1.7978 0 0 0 1.7988 1.7988 1.7978 1.7978 0 0 0 1.7969-1.7988 1.7978 1.7978 0 0 0-0.21485-0.84961zm4.9121 0a1.7978 1.7978 0 0 0-0.21485 0.84961 1.7978 1.7978 0 0 0 1.7988 1.7988 1.7978 1.7978 0 0 0 1.7969-1.7988 1.7978 1.7978 0 0 0-0.21485-0.84961zm4.9121 0a1.7978 1.7978 0 0 0-0.21485 0.84961 1.7978 1.7978 0 0 0 1.7969 1.7988 1.7978 1.7978 0 0 0 1.7988-1.7988 1.7978 1.7978 0 0 0-0.21485-0.84961zm4.9121 0a1.7978 1.7978 0 0 0-0.21485 0.84961 1.7978 1.7978 0 0 0 1.7969 1.7988 1.7978 1.7978 0 0 0 1.7969-1.7988 1.7978 1.7978 0 0 0-0.21484-0.84961z"/><path d="m447.22 376c-0.1406 0.26115-0.21441 0.55302-0.21485 0.84961-5.7e-4 0.99294 0.80394 1.7983 1.7969 1.7988 0.9937 5.8e-4 1.7994-0.80512 1.7988-1.7988-4.4e-4 -0.29659-0.0743-0.58846-0.21485-0.84961zm4.9121 0c-0.1406 0.26115-0.21441 0.55302-0.21485 0.84961-5.7e-4 0.99294 0.80394 1.7983 1.7969 1.7988 0.9937 5.8e-4 1.7994-0.80512 1.7988-1.7988-4.4e-4 -0.29659-0.0743-0.58846-0.21485-0.84961zm4.9102 0c-0.1406 0.26115-0.21441 0.55302-0.21484 0.84961-5.7e-4 0.9937 0.80513 1.7994 1.7988 1.7988 0.99294-5.1e-4 1.7974-0.80588 1.7969-1.7988-4.3e-4 -0.29659-0.0742-0.58846-0.21484-0.84961zm4.9121 0c-0.1406 0.26115-0.21441 0.55302-0.21484 0.84961-5.7e-4 0.9937 0.80513 1.7994 1.7988 1.7988 0.99294-5.1e-4 1.7974-0.80588 1.7969-1.7988-4.3e-4 -0.29659-0.0742-0.58846-0.21484-0.84961zm4.9121 0c-0.1406 0.26115-0.21441 0.55302-0.21484 0.84961-5.7e-4 0.99294 0.80393 1.7983 1.7969 1.7988 0.9937 5.8e-4 1.7994-0.80512 1.7988-1.7988-4.3e-4 -0.29659-0.0742-0.58846-0.21484-0.84961z"/><circle cx="250.61" cy="389.22" r="1.7978"/><circle cx="250.61" cy="393.76" r="1.7978"/><circle cx="250.61" cy="398.99" r="1.7978"/><circle cx="250.61" cy="404.02" r="1.7978"/><circle cx="250.61" cy="409.11" r="1.7978"/><circle cx="440.62" cy="389.22" r="1.7978"/><circle cx="440.62" cy="393.76" r="1.7978"/><circle cx="440.62" cy="398.99" r="1.7978"/><circle cx="440.62" cy="404.02" r="1.7978"/><circle cx="440.62" cy="409.11" r="1.7978"/><circle cx="476.48" cy="389.22" r="1.7978"/><circle cx="476.48" cy="393.76" r="1.7978"/><circle cx="476.48" cy="398.99" r="1.7978"/><circle cx="476.48" cy="404.02" r="1.7978"/><circle cx="476.48" cy="409.11" r="1.7978"/></g><rect x="479.42" y="389.5" width="18.46" height="22.828" fill="#ebebeb" fill-rule="evenodd" stroke="#000" stroke-linecap="round" stroke-width=".27099"/><rect transform="rotate(90)" x="406" y="-494.88" width="4.9794" height="12.469" rx=".30561" ry=".30214" stroke="#e3e3df" stroke-width=".30781"/><path d="m483.54 408.35h10.026v-1.1035h-10.026z" fill="#333" stroke-width="1.5134"/><path d="m481.63 393.43h3.9535l-5e-3 -1.9405 1.1439-9.5e-4v-0.72654h3.6868l-8.8e-4 0.72844h1.1906v1.9405h4.055v8.3546l-14.023 0.0272z" stroke-width="1.802"/><path d="m484.69 391.52h-3.0564v1.343h3.0564z" fill="#250" stroke-width="1.7743"/><path d="m495.66 391.49h-3.0832v1.35h3.0832z" fill="#250" stroke-width="1.7743"/><rect x="253.63" y="384.83" width="59.28" height="27.601" rx=".1" ry=".1" fill="#b3b3b3" stroke="#000" stroke-linejoin="round" stroke-width=".15"/><rect x="253.96" y="385.7" width="14.173" height="9.4748" stroke="#b3b3b3" stroke-width=".21392"/><rect x="257.89" y="394.19" width="6.3084" height="1.0696" rx=".05027" ry=".011641" fill="#999" fill-rule="evenodd" stroke="#000" stroke-width=".53479"/><rect x="268.69" y="385.7" width="14.173" height="9.4748" stroke="#b3b3b3" stroke-width=".21392"/><rect x="272.62" y="394.19" width="6.3084" height="1.0696" rx=".05027" ry=".011641" fill="#999" fill-rule="evenodd" stroke="#000" stroke-width=".53479"/><rect x="283.41" y="385.7" width="14.173" height="9.4748" stroke="#b3b3b3" stroke-width=".21392"/><rect x="287.35" y="394.19" width="6.3084" height="1.0696" rx=".05027" ry=".011641" fill="#999" fill-rule="evenodd" stroke="#000" stroke-width=".53479"/><rect x="298.14" y="385.7" width="14.173" height="9.4748" stroke="#b3b3b3" stroke-width=".21392"/><rect x="302.07" y="394.19" width="6.3084" height="1.0696" rx=".05027" ry=".011641" fill="#999" fill-rule="evenodd" stroke="#000" stroke-width=".53479"/><rect transform="scale(-1)" x="-312.31" y="-411.97" width="14.173" height="9.4748" stroke="#b3b3b3" stroke-width=".21392"/><rect transform="scale(-1)" x="-308.38" y="-403.48" width="6.3084" height="1.0696" rx=".05027" ry=".011641" fill="#999" fill-rule="evenodd" stroke="#000" stroke-width=".53479"/><g fill="#fff"><path d="m303.46 382.68 0.66123 1.4087c-0.44756-0.20211-0.88837-0.20874-1.3224-0.0199z"/><path d="m306.88 384.09-0.66123-1.4087c0.44756 0.20211 0.88837 0.20874 1.3224 0.0199z"/><path d="m308.42 383.43q-0.12336 0-0.18961 0.0674-0.0663 0.0674-0.0663 0.19304 0 0.12565 0.0663 0.19304 0.0663 0.0663 0.18961 0.0663 0.12222 0 0.18733-0.0663 0.0651-0.0674 0.0651-0.19304 0-0.12679-0.0651-0.19304-0.0651-0.0674-0.18733-0.0674zm-0.32097-0.14507q-0.15535-0.0468-0.23417-0.14393-0.0788-0.0971-0.0788-0.24216 0-0.21588 0.16106-0.32897 0.16105-0.11308 0.47289-0.11308 0.30955 0 0.47061 0.11308 0.16106 0.11194 0.16106 0.32897 0 0.14507-0.08 0.24216-0.0788 0.0971-0.23416 0.14393 0.17362 0.048 0.26158 0.15649 0.0891 0.10737 0.0891 0.27186 0 0.25358-0.16905 0.3838-0.16791 0.12907-0.49917 0.12907-0.3324 0-0.50259-0.12907-0.16906-0.13022-0.16906-0.3838 0-0.16449 0.088-0.27186 0.0891-0.10852 0.26272-0.15649zm0.1028-0.34154q0 0.10166 0.056 0.15649 0.0571 0.0548 0.1622 0.0548 0.1028 0 0.15878-0.0548 0.056-0.0548 0.056-0.15649 0-0.10166-0.056-0.15535-0.056-0.0548-0.15878-0.0548-0.10509 0-0.1622 0.0548-0.056 0.0548-0.056 0.15535z" stroke-linecap="round" stroke-linejoin="round" stroke-width=".13159" aria-label="8"/><path d="m301.32 382.48h1.285v0.24787l-0.6648 1.4575h-0.42834l0.62938-1.3821h-0.82128z" stroke-linecap="round" stroke-linejoin="round" stroke-width=".13159" aria-label="7"/></g><rect transform="scale(-1)" x="-312.2" y="-401.72" width="13.957" height="5.7642" fill="none" stroke="#4d4d4d" stroke-width=".21633"/><path d="m300.7 397.67 1.0917 2.3258-2.1834-0.0328z" fill="#2d5016" stroke="#433a2d" stroke-linecap="round" stroke-linejoin="round" stroke-width=".17232"/><path d="m309.75 400-1.0917-2.3258 2.1834 0.0328z" fill="#2d5016" stroke="#433a2d" stroke-linecap="round" stroke-linejoin="round" stroke-width=".17232"/><g><circle cx="305.23" cy="398.83" r=".86952"/><circle cx="302.83" cy="398.83" r=".67"/><circle cx="307.62" cy="398.83" r=".67"/></g><rect transform="scale(-1)" x="-297.59" y="-411.97" width="14.173" height="9.4748" stroke="#b3b3b3" stroke-width=".21392"/><rect transform="scale(-1)" x="-293.65" y="-403.48" width="6.3084" height="1.0696" rx=".05027" ry=".011641" fill="#999" fill-rule="evenodd" stroke="#000" stroke-width=".53479"/><rect transform="scale(-1)" x="-282.86" y="-411.97" width="14.173" height="9.4748" stroke="#b3b3b3" stroke-width=".21392"/><rect transform="scale(-1)" x="-278.93" y="-403.48" width="6.3084" height="1.0696" rx=".05027" ry=".011641" fill="#999" fill-rule="evenodd" stroke="#000" stroke-width=".53479"/><rect transform="scale(-1)" x="-268.14" y="-411.97" width="14.173" height="9.4748" stroke="#b3b3b3" stroke-width=".21392"/><rect transform="scale(-1)" x="-264.2" y="-403.48" width="6.3084" height="1.0696" rx=".05027" ry=".011641" fill="#999" fill-rule="evenodd" stroke="#000" stroke-width=".53479"/><rect transform="scale(-1)" x="-268.03" y="-401.72" width="13.957" height="5.7642" fill="none" stroke="#4d4d4d" stroke-width=".21633"/><path d="m256.53 397.67 1.0917 2.3258-2.1834-0.0328z" fill="#2d5016" stroke="#433a2d" stroke-linecap="round" stroke-linejoin="round" stroke-width=".17232"/><path d="m265.57 400-1.0917-2.3258 2.1834 0.0328z" fill="#2d5016" stroke="#433a2d" stroke-linecap="round" stroke-linejoin="round" stroke-width=".17232"/><g><circle cx="261.05" cy="398.83" r=".86952"/><circle cx="258.65" cy="398.83" r=".67"/><circle cx="263.44" cy="398.83" r=".67"/></g><rect transform="scale(-1)" x="-282.75" y="-401.72" width="13.957" height="5.7642" fill="none" stroke="#4d4d4d" stroke-width=".21633"/><path d="m271.25 397.67 1.0917 2.3258-2.1834-0.0328z" fill="#2d5016" stroke="#433a2d" stroke-linecap="round" stroke-linejoin="round" stroke-width=".17232"/><path d="m280.3 400-1.0917-2.3258 2.1834 0.0328z" fill="#2d5016" stroke="#433a2d" stroke-linecap="round" stroke-linejoin="round" stroke-width=".17232"/><g><circle cx="275.77" cy="398.83" r=".86952"/><circle cx="273.38" cy="398.83" r=".67"/><circle cx="278.17" cy="398.83" r=".67"/></g><rect transform="scale(-1)" x="-297.48" y="-401.72" width="13.957" height="5.7642" fill="none" stroke="#4d4d4d" stroke-width=".21633"/><path d="m285.98 397.67 1.0917 2.3258-2.1834-0.0328z" fill="#2d5016" stroke="#433a2d" stroke-linecap="round" stroke-linejoin="round" stroke-width=".17232"/><path d="m295.02 400-1.0917-2.3258 2.1834 0.0328z" fill="#2d5016" stroke="#433a2d" stroke-linecap="round" stroke-linejoin="round" stroke-width=".17232"/><g><circle cx="290.5" cy="398.83" r=".86952"/><circle cx="288.1" cy="398.83" r=".67"/><circle cx="292.9" cy="398.83" r=".67"/></g><g fill="#fff"><path d="m259.29 382.68 0.66123 1.4087c-0.44756-0.20211-0.88837-0.20874-1.3224-0.0199z"/><path d="m262.7 384.09-0.66123-1.4087c0.44756 0.20211 0.88837 0.20874 1.3224 0.0199z"/><path d="m264.1 383.87h0.75047v0.32326h-1.2394v-0.32326l0.62253-0.54943q0.0834-0.0754 0.12336-0.14735 0.04-0.072 0.04-0.14964 0-0.11994-0.0811-0.19304-0.08-0.0731-0.2136-0.0731-0.10281 0-0.22503 0.0446-0.12222 0.0434-0.26158 0.13022v-0.37466q0.1485-0.0491 0.29357-0.0743 0.14506-0.0263 0.28442-0.0263 0.30612 0 0.47518 0.13479 0.1702 0.13478 0.1702 0.3758 0 0.13936-0.072 0.26044-0.072 0.11993-0.3027 0.32211z" stroke-linecap="round" stroke-linejoin="round" stroke-width=".13159" aria-label="2"/><path d="m257.26 383.89h0.38837v-1.1023l-0.39865 0.0822v-0.29928l0.39636-0.0822h0.41807v1.4016h0.38837v0.30385h-1.1925z" stroke-linecap="round" stroke-linejoin="round" stroke-width=".13159" aria-label="1"/><path d="m274.01 382.68 0.66123 1.4087c-0.44756-0.20211-0.88837-0.20874-1.3224-0.0199z"/><path d="m277.42 384.09-0.66123-1.4087c0.44756 0.20211 0.88837 0.20874 1.3224 0.0199z"/><path d="m279.01 382.85-0.48203 0.71391h0.48203zm-0.0731-0.3621h0.48889v1.076h0.2433v0.31869h-0.2433v0.3107h-0.41579v-0.3107h-0.75617v-0.37694z" stroke-linecap="round" stroke-linejoin="round" stroke-width=".13159" aria-label="4"/><path d="m272.8 383.27q0.17249 0.0445 0.26158 0.15534 0.0902 0.10966 0.0902 0.27986 0 0.25358-0.19418 0.38608-0.19419 0.13136-0.56657 0.13136-0.13136 0-0.26386-0.0217-0.13136-0.0206-0.26043-0.0628v-0.33925q0.12336 0.0617 0.24444 0.0937 0.12222 0.0308 0.23988 0.0308 0.17476 0 0.26728-0.0605 0.0937-0.0605 0.0937-0.17362 0-0.11651-0.096-0.17591-0.0948-0.0605-0.281-0.0605h-0.1759v-0.28328h0.18504q0.16563 0 0.24673-0.0514 0.0811-0.0525 0.0811-0.15878 0-0.0982-0.0788-0.15192-0.0788-0.0537-0.22274-0.0537-0.10623 0-0.21474 0.024-0.10852 0.024-0.21589 0.0708v-0.32212q0.13022-0.0366 0.25815-0.0548 0.12794-0.0183 0.2513-0.0183 0.3324 0 0.49688 0.10966 0.16563 0.10851 0.16563 0.32783 0 0.14963-0.0788 0.24558-0.0788 0.0948-0.23302 0.13365z" stroke-linecap="round" stroke-linejoin="round" stroke-width=".13159" aria-label="3"/><path d="m288.74 382.68 0.66123 1.4087c-0.44756-0.20211-0.88837-0.20874-1.3224-0.0199z"/><path d="m292.15 384.09-0.66123-1.4087c0.44756 0.20211 0.88837 0.20874 1.3224 0.0199z"/><path d="m293.72 383.35q-0.11536 0-0.17362 0.0754-0.0571 0.0743-0.0571 0.22388 0 0.14964 0.0571 0.22503 0.0583 0.0742 0.17362 0.0742 0.11651 0 0.17363-0.0742 0.0582-0.0754 0.0582-0.22503t-0.0582-0.22388q-0.0571-0.0754-0.17363-0.0754zm0.54372-0.819v0.31526q-0.10851-0.0514-0.20446-0.0754-0.096-0.0251-0.18733-0.0251-0.19647 0-0.30613 0.10966-0.10966 0.10852-0.12793 0.32326 0.0754-0.056 0.16334-0.0834 0.0879-0.0286 0.1919-0.0286 0.26158 0 0.42149 0.15306 0.16106 0.15307 0.16106 0.40094 0 0.27414-0.17933 0.43977-0.17934 0.16448-0.48089 0.16448-0.3324 0-0.51516-0.22388-0.18162-0.22503-0.18162-0.63738 0-0.42264 0.21246-0.66366 0.2136-0.24216 0.58483-0.24216 0.11766 0 0.22846 0.0183t0.21931 0.0548z" stroke-linecap="round" stroke-linejoin="round" stroke-width=".13159" aria-label="6"/><path d="m286.69 382.48h1.0931v0.32326h-0.74247v0.26386q0.0503-0.0137 0.10052-0.0206 0.0514-8e-3 0.10623-8e-3 0.31184 0 0.48546 0.15649 0.17363 0.15534 0.17363 0.43405 0 0.27643-0.18962 0.43292-0.18847 0.15649-0.5243 0.15649-0.14506 0-0.28785-0.0285-0.14164-0.0274-0.28214-0.0845v-0.34611q0.13936 0.08 0.26387 0.11994 0.12564 0.04 0.23644 0.04 0.15992 0 0.2513-0.0777 0.0925-0.0788 0.0925-0.21247 0-0.13478-0.0925-0.21246-0.0914-0.0777-0.2513-0.0777-0.0948 0-0.20218 0.0251-0.10737 0.024-0.23073 0.0754z" stroke-linecap="round" stroke-linejoin="round" stroke-width=".13159" aria-label="5"/></g><g><rect x="446.16" y="383.13" width="3.3588" height="2.1213" rx=".5" ry=".5"/><rect x="452.79" y="383.13" width="3.3588" height="2.1213" rx=".5" ry=".5"/><rect x="460.41" y="383.13" width="3.3588" height="2.1213" rx=".5" ry=".5"/><rect x="466.79" y="383.13" width="3.3588" height="2.1213" rx=".5" ry=".5"/></g><rect x="443.2" y="384.83" width="29.905" height="27.601" rx=".1" ry=".1" fill="#b3b3b3" stroke="#000" stroke-linejoin="round" stroke-width=".15"/><rect x="443.53" y="385.7" width="14.173" height="9.4748" stroke="#b3b3b3" stroke-width=".21392"/><rect x="447.46" y="394.19" width="6.3084" height="1.0696" rx=".05027" ry=".011641" fill="#999" fill-rule="evenodd" stroke="#000" stroke-width=".53479"/><rect x="458.25" y="385.7" width="14.173" height="9.4748" stroke="#b3b3b3" stroke-width=".21392"/><rect x="462.19" y="394.19" width="6.3084" height="1.0696" rx=".05027" ry=".011641" fill="#999" fill-rule="evenodd" stroke="#000" stroke-width=".53479"/><rect transform="scale(-1)" x="-472.43" y="-411.97" width="14.173" height="9.4748" stroke="#b3b3b3" stroke-width=".21392"/><rect transform="scale(-1)" x="-468.5" y="-403.48" width="6.3084" height="1.0696" rx=".05027" ry=".011641" fill="#999" fill-rule="evenodd" stroke="#000" stroke-width=".53479"/><rect transform="scale(-1)" x="-457.7" y="-411.97" width="14.173" height="9.4748" stroke="#b3b3b3" stroke-width=".21392"/><rect transform="scale(-1)" x="-453.77" y="-403.48" width="6.3084" height="1.0696" rx=".05027" ry=".011641" fill="#999" fill-rule="evenodd" stroke="#000" stroke-width=".53479"/><rect transform="scale(-1)" x="-457.59" y="-401.72" width="13.957" height="5.7642" fill="none" stroke="#4d4d4d" stroke-width=".21633"/><path d="m446.09 397.67 1.0917 2.3258-2.1834-0.0328z" fill="#2d5016" stroke="#433a2d" stroke-linecap="round" stroke-linejoin="round" stroke-width=".17232"/><path d="m455.14 400-1.0917-2.3258 2.1834 0.0328z" fill="#2d5016" stroke="#433a2d" stroke-linecap="round" stroke-linejoin="round" stroke-width=".17232"/><g><circle cx="450.62" cy="398.83" r=".86952"/><circle cx="448.22" cy="398.83" r=".67"/><circle cx="453.01" cy="398.83" r=".67"/></g><rect transform="scale(-1)" x="-472.32" y="-401.72" width="13.957" height="5.7642" fill="none" stroke="#4d4d4d" stroke-width=".21633"/><path d="m460.82 397.67 1.0917 2.3258-2.1834-0.0328z" fill="#2d5016" stroke="#433a2d" stroke-linecap="round" stroke-linejoin="round" stroke-width=".17232"/><path d="m469.86 400-1.0917-2.3258 2.1834 0.0328z" fill="#2d5016" stroke="#433a2d" stroke-linecap="round" stroke-linejoin="round" stroke-width=".17232"/><g><circle cx="465.34" cy="398.83" r=".86952"/><circle cx="462.95" cy="398.83" r=".67"/><circle cx="467.74" cy="398.83" r=".67"/></g><g fill="#fff"><path d="m449.29 380.72 0.66123 1.4087c-0.44756-0.20211-0.88837-0.20874-1.3224-0.0199z"/><path d="m452.7 382.13-0.66123-1.4087c0.44756 0.20211 0.88837 0.20874 1.3224 0.0199z"/><path d="m454.19 381.91h0.75047v0.32326h-1.2394v-0.32326l0.62253-0.54943q0.0834-0.0754 0.12336-0.14735 0.04-0.072 0.04-0.14963 0-0.11994-0.0811-0.19305-0.08-0.0731-0.2136-0.0731-0.10281 0-0.22503 0.0446-0.12222 0.0434-0.26157 0.13021v-0.37466q0.14849-0.0491 0.29356-0.0742 0.14506-0.0263 0.28442-0.0263 0.30613 0 0.47518 0.13479 0.1702 0.13479 0.1702 0.3758 0 0.13936-0.072 0.26044-0.072 0.11994-0.3027 0.32212zm1.7651-0.51859q-0.11537 0-0.17363 0.0754-0.0571 0.0743-0.0571 0.22389 0 0.14963 0.0571 0.22502 0.0583 0.0743 0.17363 0.0743 0.11651 0 0.17362-0.0743 0.0583-0.0754 0.0583-0.22502 0-0.14964-0.0583-0.22389-0.0571-0.0754-0.17362-0.0754zm0.54371-0.819v0.31527q-0.10851-0.0514-0.20446-0.0754-0.096-0.0251-0.18733-0.0251-0.19647 0-0.30613 0.10966-0.10966 0.10851-0.12793 0.32325 0.0754-0.056 0.16334-0.0834 0.088-0.0286 0.1919-0.0286 0.26158 0 0.4215 0.15307 0.16105 0.15306 0.16105 0.40093 0 0.27414-0.17933 0.43977-0.17934 0.16449-0.48089 0.16449-0.3324 0-0.51516-0.22389-0.18162-0.22502-0.18162-0.63738 0-0.42264 0.21246-0.66365 0.2136-0.24216 0.58484-0.24216 0.11765 0 0.22845 0.0183t0.21931 0.0548z" stroke-linecap="round" stroke-linejoin="round" stroke-width=".13159" aria-label="26"/><path d="m445.98 381.91h0.75047v0.32326h-1.2394v-0.32326l0.62253-0.54943q0.0834-0.0754 0.12337-0.14735 0.04-0.072 0.04-0.14963 0-0.11994-0.0811-0.19305-0.08-0.0731-0.21361-0.0731-0.1028 0-0.22502 0.0446-0.12222 0.0434-0.26158 0.13021v-0.37466q0.1485-0.0491 0.29356-0.0742 0.14507-0.0263 0.28443-0.0263 0.30612 0 0.47518 0.13479 0.17019 0.13479 0.17019 0.3758 0 0.13936-0.072 0.26044-0.072 0.11994-0.3027 0.32212zm1.1666-1.3821h1.0931v0.32326h-0.74247v0.26387q0.0503-0.0137 0.10052-0.0206 0.0514-8e-3 0.10623-8e-3 0.31184 0 0.48546 0.15649 0.17363 0.15535 0.17363 0.43406 0 0.27643-0.18962 0.43292-0.18847 0.15649-0.5243 0.15649-0.14506 0-0.28785-0.0286-0.14164-0.0274-0.28214-0.0845v-0.3461q0.13936 0.08 0.26387 0.11993 0.12565 0.04 0.23645 0.04 0.15991 0 0.25129-0.0777 0.0925-0.0788 0.0925-0.21246 0-0.13479-0.0925-0.21246-0.0914-0.0777-0.25129-0.0777-0.0948 0-0.20218 0.0251-0.10738 0.024-0.23074 0.0754z" stroke-linecap="round" stroke-linejoin="round" stroke-width=".13159" aria-label="25"/><path d="m464.02 380.72 0.66123 1.4087c-0.44756-0.20211-0.88837-0.20874-1.3224-0.0199z"/><path d="m467.43 382.13-0.66123-1.4087c0.44756 0.20211 0.88837 0.20874 1.3224 0.0199z"/><path d="m469.05 381.91h0.75047v0.32326h-1.2394v-0.32326l0.62253-0.54943q0.0834-0.0754 0.12336-0.14735 0.04-0.072 0.04-0.14963 0-0.11994-0.0811-0.19305-0.08-0.0731-0.2136-0.0731-0.10281 0-0.22503 0.0446-0.12222 0.0434-0.26157 0.13021v-0.37466q0.14849-0.0491 0.29356-0.0742 0.14506-0.0263 0.28442-0.0263 0.30613 0 0.47518 0.13479 0.1702 0.13479 0.1702 0.3758 0 0.13936-0.072 0.26044-0.072 0.11994-0.3027 0.32212zm1.7331-0.43977q-0.12336 0-0.18961 0.0674-0.0663 0.0674-0.0663 0.19305 0 0.12564 0.0663 0.19304 0.0662 0.0663 0.18961 0.0663 0.12223 0 0.18733-0.0663 0.0651-0.0674 0.0651-0.19304 0-0.1268-0.0651-0.19305-0.0651-0.0674-0.18733-0.0674zm-0.32097-0.14507q-0.15535-0.0468-0.23417-0.14392-0.0788-0.0971-0.0788-0.24216 0-0.21589 0.16106-0.32897 0.16106-0.11309 0.47289-0.11309 0.30956 0 0.47061 0.11309 0.16106 0.11194 0.16106 0.32897 0 0.14507-0.0799 0.24216-0.0788 0.0971-0.23417 0.14392 0.17363 0.048 0.26158 0.15649 0.0891 0.10738 0.0891 0.27186 0 0.25358-0.16906 0.3838-0.16791 0.12908-0.49917 0.12908-0.33239 0-0.50259-0.12908-0.16906-0.13022-0.16906-0.3838 0-0.16448 0.088-0.27186 0.0891-0.10851 0.26272-0.15649zm0.1028-0.34153q0 0.10166 0.056 0.15649 0.0571 0.0548 0.1622 0.0548 0.10281 0 0.15878-0.0548 0.056-0.0548 0.056-0.15649 0-0.10166-0.056-0.15535-0.056-0.0548-0.15878-0.0548-0.10508 0-0.1622 0.0548-0.056 0.0548-0.056 0.15535z" stroke-linecap="round" stroke-linejoin="round" stroke-width=".13159" aria-label="28"/><path d="m460.71 381.91h0.75047v0.32326h-1.2394v-0.32326l0.62254-0.54943q0.0834-0.0754 0.12336-0.14735 0.04-0.072 0.04-0.14963 0-0.11994-0.0811-0.19305-0.08-0.0731-0.2136-0.0731-0.10281 0-0.22503 0.0446-0.12222 0.0434-0.26158 0.13021v-0.37466q0.1485-0.0491 0.29356-0.0742 0.14507-0.0263 0.28443-0.0263 0.30612 0 0.47518 0.13479 0.17019 0.13479 0.17019 0.3758 0 0.13936-0.072 0.26044-0.072 0.11994-0.3027 0.32212zm1.0752-1.3821h1.285v0.24788l-0.66479 1.4575h-0.42835l0.62938-1.3821h-0.82128z" stroke-linecap="round" stroke-linejoin="round" stroke-width=".13159" aria-label="27"/></g><rect x="315.68" y="384.83" width="59.28" height="27.601" rx=".1" ry=".1" fill="#b3b3b3" stroke="#000" stroke-linejoin="round" stroke-width=".15"/><rect x="316.01" y="385.7" width="14.173" height="9.4748" stroke="#b3b3b3" stroke-width=".21392"/><rect x="319.94" y="394.19" width="6.3084" height="1.0696" rx=".05027" ry=".011641" fill="#999" fill-rule="evenodd" stroke="#000" stroke-width=".53479"/><rect x="330.74" y="385.7" width="14.173" height="9.4748" stroke="#b3b3b3" stroke-width=".21392"/><rect x="334.67" y="394.19" width="6.3084" height="1.0696" rx=".05027" ry=".011641" fill="#999" fill-rule="evenodd" stroke="#000" stroke-width=".53479"/><rect x="345.46" y="385.7" width="14.173" height="9.4748" stroke="#b3b3b3" stroke-width=".21392"/><rect x="349.4" y="394.19" width="6.3084" height="1.0696" rx=".05027" ry=".011641" fill="#999" fill-rule="evenodd" stroke="#000" stroke-width=".53479"/><rect x="360.19" y="385.7" width="14.173" height="9.4748" stroke="#b3b3b3" stroke-width=".21392"/><rect x="364.12" y="394.19" width="6.3084" height="1.0696" rx=".05027" ry=".011641" fill="#999" fill-rule="evenodd" stroke="#000" stroke-width=".53479"/><rect transform="scale(-1)" x="-374.36" y="-411.97" width="14.173" height="9.4748" stroke="#b3b3b3" stroke-width=".21392"/><rect transform="scale(-1)" x="-370.43" y="-403.48" width="6.3084" height="1.0696" rx=".05027" ry=".011641" fill="#999" fill-rule="evenodd" stroke="#000" stroke-width=".53479"/><g fill="#fff"><path d="m365.51 382.68 0.66123 1.4087c-0.44756-0.20211-0.88837-0.20874-1.3224-0.0199z"/><path d="m368.93 384.09-0.66123-1.4087c0.44756 0.20211 0.88837 0.20874 1.3224 0.0199z"/><path d="m370.06 383.89h0.38837v-1.1023l-0.39865 0.0822v-0.29928l0.39636-0.0822h0.41807v1.4016h0.38837v0.30385h-1.1925zm2.1649-0.538q-0.11537 0-0.17362 0.0754-0.0571 0.0743-0.0571 0.22388 0 0.14964 0.0571 0.22503 0.0582 0.0742 0.17362 0.0742 0.11651 0 0.17363-0.0742 0.0582-0.0754 0.0582-0.22503t-0.0582-0.22388q-0.0571-0.0754-0.17363-0.0754zm0.54372-0.819v0.31526q-0.10852-0.0514-0.20447-0.0754-0.096-0.0251-0.18733-0.0251-0.19647 0-0.30612 0.10966-0.10966 0.10851-0.12794 0.32326 0.0754-0.056 0.16335-0.0834 0.0879-0.0285 0.1919-0.0285 0.26157 0 0.42149 0.15306 0.16106 0.15306 0.16106 0.40093 0 0.27415-0.17934 0.43978-0.17933 0.16448-0.48089 0.16448-0.3324 0-0.51516-0.22388-0.18162-0.22503-0.18162-0.63738 0-0.42264 0.21246-0.66366 0.21361-0.24216 0.58484-0.24216 0.11765 0 0.22845 0.0183t0.21932 0.0548z" stroke-linecap="round" stroke-linejoin="round" stroke-width=".13159" aria-label="16"/><path d="m361.76 383.89h0.38836v-1.1023l-0.39865 0.0822v-0.29928l0.39637-0.0822h0.41807v1.4016h0.38837v0.30385h-1.1925zm1.5664-1.4016h1.0932v0.32326h-0.74247v0.26386q0.0503-0.0137 0.10052-0.0206 0.0514-8e-3 0.10623-8e-3 0.31183 0 0.48546 0.15649 0.17362 0.15534 0.17362 0.43405 0 0.27643-0.18961 0.43292-0.18848 0.15649-0.5243 0.15649-0.14507 0-0.28785-0.0286-0.14164-0.0274-0.28214-0.0845v-0.34611q0.13936 0.08 0.26386 0.11994 0.12565 0.04 0.23645 0.04 0.15992 0 0.2513-0.0777 0.0925-0.0788 0.0925-0.21246 0-0.13478-0.0925-0.21246-0.0914-0.0777-0.2513-0.0777-0.0948 0-0.20218 0.0251-0.10737 0.024-0.23074 0.0754z" stroke-linecap="round" stroke-linejoin="round" stroke-width=".13159" aria-label="15"/></g><path transform="scale(-1)" d="m-374.26-401.72h13.957v5.7642h-13.957z" fill="none" stroke="#4d4d4d" stroke-width=".21633"/><path d="m362.75 397.67 1.0917 2.3258-2.1834-0.0328z" fill="#2d5016" stroke="#433a2d" stroke-linecap="round" stroke-linejoin="round" stroke-width=".17232"/><path d="m371.8 400-1.0917-2.3258 2.1834 0.0328z" fill="#2d5016" stroke="#433a2d" stroke-linecap="round" stroke-linejoin="round" stroke-width=".17232"/><g><circle cx="367.28" cy="398.83" r=".86952"/><circle cx="364.88" cy="398.83" r=".67"/><circle cx="369.67" cy="398.83" r=".67"/></g><rect transform="scale(-1)" x="-359.64" y="-411.97" width="14.173" height="9.4748" stroke="#b3b3b3" stroke-width=".21392"/><rect transform="scale(-1)" x="-355.71" y="-403.48" width="6.3084" height="1.0696" rx=".05027" ry=".011641" fill="#999" fill-rule="evenodd" stroke="#000" stroke-width=".53479"/><rect transform="scale(-1)" x="-344.91" y="-411.97" width="14.173" height="9.4748" stroke="#b3b3b3" stroke-width=".21392"/><rect transform="scale(-1)" x="-340.98" y="-403.48" width="6.3084" height="1.0696" rx=".05027" ry=".011641" fill="#999" fill-rule="evenodd" stroke="#000" stroke-width=".53479"/><rect transform="scale(-1)" x="-330.19" y="-411.97" width="14.173" height="9.4748" stroke="#b3b3b3" stroke-width=".21392"/><rect transform="scale(-1)" x="-326.25" y="-403.48" width="6.3084" height="1.0696" rx=".05027" ry=".011641" fill="#999" fill-rule="evenodd" stroke="#000" stroke-width=".53479"/><rect transform="scale(-1)" x="-330.08" y="-401.72" width="13.957" height="5.7642" fill="none" stroke="#4d4d4d" stroke-width=".21633"/><path d="m318.58 397.67 1.0917 2.3258-2.1834-0.0328z" fill="#2d5016" stroke="#433a2d" stroke-linecap="round" stroke-linejoin="round" stroke-width=".17232"/><path d="m327.62 400-1.0917-2.3258 2.1834 0.0328z" fill="#2d5016" stroke="#433a2d" stroke-linecap="round" stroke-linejoin="round" stroke-width=".17232"/><g><circle cx="323.1" cy="398.83" r=".86952"/><circle cx="320.7" cy="398.83" r=".67"/><circle cx="325.49" cy="398.83" r=".67"/></g><rect transform="scale(-1)" x="-344.8" y="-401.72" width="13.957" height="5.7642" fill="none" stroke="#4d4d4d" stroke-width=".21633"/><path d="m333.3 397.67 1.0917 2.3258-2.1834-0.0328z" fill="#2d5016" stroke="#433a2d" stroke-linecap="round" stroke-linejoin="round" stroke-width=".17232"/><path d="m342.35 400-1.0917-2.3258 2.1834 0.0328z" fill="#2d5016" stroke="#433a2d" stroke-linecap="round" stroke-linejoin="round" stroke-width=".17232"/><g><circle cx="337.82" cy="398.83" r=".86952"/><circle cx="335.43" cy="398.83" r=".67"/><circle cx="340.22" cy="398.83" r=".67"/></g><rect transform="scale(-1)" x="-359.53" y="-401.72" width="13.957" height="5.7642" fill="none" stroke="#4d4d4d" stroke-width=".21633"/><path d="m348.03 397.67 1.0917 2.3258-2.1834-0.0328z" fill="#2d5016" stroke="#433a2d" stroke-linecap="round" stroke-linejoin="round" stroke-width=".17232"/><path d="m357.07 400-1.0917-2.3258 2.1834 0.0328z" fill="#2d5016" stroke="#433a2d" stroke-linecap="round" stroke-linejoin="round" stroke-width=".17232"/><g><circle cx="352.55" cy="398.83" r=".86952"/><circle cx="350.16" cy="398.83" r=".67"/><circle cx="354.95" cy="398.83" r=".67"/></g><g fill="#fff"><path d="m321.34 382.68 0.66123 1.4087c-0.44756-0.20211-0.88837-0.20874-1.3224-0.0199z"/><path d="m324.75 384.09-0.66123-1.4087c0.44756 0.20211 0.88837 0.20874 1.3224 0.0199z"/><path d="m325.74 383.89h0.38837v-1.1023l-0.39865 0.0822v-0.29928l0.39636-0.0822h0.41807v1.4016h0.38837v0.30385h-1.1925zm2.3945-0.55057q0-0.31983-0.0605-0.45005-0.0594-0.13136-0.20104-0.13136t-0.20218 0.13136q-0.0605 0.13022-0.0605 0.45005 0 0.32326 0.0605 0.45577 0.0605 0.1325 0.20218 0.1325 0.1405 0 0.20104-0.1325 0.0605-0.13251 0.0605-0.45577zm0.43977 3e-3q0 0.42378-0.18276 0.65452-0.18277 0.22959-0.51859 0.22959-0.33697 0-0.51973-0.22959-0.18276-0.23074-0.18276-0.65452 0-0.42492 0.18276-0.65451 0.18276-0.23074 0.51973-0.23074 0.33582 0 0.51859 0.23074 0.18276 0.22959 0.18276 0.65451z" stroke-linecap="round" stroke-linejoin="round" stroke-width=".13159" aria-label="10"/><path d="m319.27 384.15v-0.31526q0.10509 0.0491 0.20104 0.0742 0.096 0.024 0.18961 0.024 0.19647 0 0.30613-0.10851 0.10966-0.10966 0.12907-0.32441-0.0777 0.0571-0.16562 0.0857-0.088 0.0286-0.19076 0.0286-0.26158 0-0.42264-0.15192-0.15991-0.15306-0.15991-0.40208 0-0.27528 0.17819-0.44091 0.17933-0.16563 0.47975-0.16563 0.33354 0 0.5163 0.22503 0.18276 0.22502 0.18276 0.63624 0 0.42263-0.2136 0.66479-0.2136 0.24102-0.58598 0.24102-0.11994 0-0.2296-0.0183-0.10965-0.0171-0.21474-0.0525zm0.54257-0.82128q0.11537 0 0.17363-0.0743 0.0583-0.0754 0.0583-0.22503 0-0.14849-0.0583-0.22388-0.0583-0.0754-0.17363-0.0754-0.11537 0-0.17362 0.0754-0.0583 0.0754-0.0583 0.22388 0 0.14964 0.0583 0.22503 0.0582 0.0743 0.17362 0.0743z" stroke-linecap="round" stroke-linejoin="round" stroke-width=".13159" aria-label="9"/><path d="m336.06 382.68 0.66123 1.4087c-0.44756-0.20211-0.88837-0.20874-1.3224-0.0199z"/><path d="m339.47 384.09-0.66123-1.4087c0.44756 0.20211 0.88837 0.20874 1.3224 0.0199z"/><path d="m340.34 383.89h0.38837v-1.1023l-0.39865 0.0822v-0.29928l0.39636-0.0822h0.41807v1.4016h0.38837v0.30385h-1.1925zm1.9924-0.0194h0.75047v0.32326h-1.2394v-0.32326l0.62254-0.54943q0.0834-0.0754 0.12336-0.14735 0.04-0.072 0.04-0.14964 0-0.11994-0.0811-0.19304-0.08-0.0731-0.2136-0.0731-0.10281 0-0.22503 0.0445-0.12222 0.0434-0.26158 0.13022v-0.37466q0.1485-0.0491 0.29356-0.0743 0.14507-0.0263 0.28443-0.0263 0.30612 0 0.47518 0.13479 0.17019 0.13478 0.17019 0.3758 0 0.13936-0.072 0.26043-0.072 0.11994-0.3027 0.32212z" stroke-linecap="round" stroke-linejoin="round" stroke-width=".13159" aria-label="12"/><path d="m332.32 383.89h0.38837v-1.1023l-0.39865 0.0822v-0.29928l0.39636-0.0822h0.41807v1.4016h0.38837v0.30385h-1.1925zm1.5926 0h0.38837v-1.1023l-0.39865 0.0822v-0.29928l0.39637-0.0822h0.41806v1.4016h0.38837v0.30385h-1.1925z" stroke-linecap="round" stroke-linejoin="round" stroke-width=".13159" aria-label="11"/><path d="m350.79 382.68 0.66123 1.4087c-0.44756-0.20211-0.88837-0.20874-1.3224-0.0199z"/><path d="m354.2 384.09-0.66123-1.4087c0.44756 0.20211 0.88837 0.20874 1.3224 0.0199z"/><path d="m355.24 383.89h0.38837v-1.1023l-0.39865 0.0822v-0.29928l0.39636-0.0822h0.41807v1.4016h0.38837v0.30385h-1.1925zm2.1798-1.0394-0.48203 0.71391h0.48203zm-0.0731-0.3621h0.48888v1.076h0.24331v0.31869h-0.24331v0.3107h-0.41578v-0.3107h-0.75618v-0.37695z" stroke-linecap="round" stroke-linejoin="round" stroke-width=".13159" aria-label="14"/><path d="m346.99 383.89h0.38837v-1.1023l-0.39865 0.0822v-0.29928l0.39637-0.0822h0.41807v1.4016h0.38836v0.30385h-1.1925zm2.4082-0.61567q0.17248 0.0445 0.26158 0.15534 0.0902 0.10966 0.0902 0.27986 0 0.25358-0.19419 0.38608-0.19418 0.13136-0.56656 0.13136-0.13136 0-0.26386-0.0217-0.13136-0.0206-0.26044-0.0628v-0.33925q0.12337 0.0617 0.24445 0.0937 0.12222 0.0308 0.23987 0.0308 0.17477 0 0.26729-0.0605 0.0937-0.0605 0.0937-0.17363 0-0.11651-0.0959-0.1759-0.0948-0.0605-0.281-0.0605h-0.17591v-0.28328h0.18505q0.16563 0 0.24673-0.0514 0.0811-0.0525 0.0811-0.15877 0-0.0982-0.0788-0.15192-0.0788-0.0537-0.22274-0.0537-0.10623 0-0.21474 0.024-0.10852 0.024-0.21589 0.0708v-0.32212q0.13022-0.0365 0.25815-0.0548t0.2513-0.0183q0.33239 0 0.49688 0.10966 0.16563 0.10851 0.16563 0.32782 0 0.14964-0.0788 0.24559-0.0788 0.0948-0.23302 0.13365z" stroke-linecap="round" stroke-linejoin="round" stroke-width=".13159" aria-label="13"/></g><rect x="377.73" y="384.83" width="59.28" height="27.601" rx=".1" ry=".1" fill="#b3b3b3" stroke="#000" stroke-linejoin="round" stroke-width=".15"/><rect x="378.06" y="385.7" width="14.173" height="9.4748" stroke="#b3b3b3" stroke-width=".21392"/><rect x="381.99" y="394.19" width="6.3084" height="1.0696" rx=".05027" ry=".011641" fill="#999" fill-rule="evenodd" stroke="#000" stroke-width=".53479"/><rect x="392.79" y="385.7" width="14.173" height="9.4748" stroke="#b3b3b3" stroke-width=".21392"/><rect x="396.72" y="394.19" width="6.3084" height="1.0696" rx=".05027" ry=".011641" fill="#999" fill-rule="evenodd" stroke="#000" stroke-width=".53479"/><rect x="407.51" y="385.7" width="14.173" height="9.4748" stroke="#b3b3b3" stroke-width=".21392"/><rect x="411.45" y="394.19" width="6.3084" height="1.0696" rx=".05027" ry=".011641" fill="#999" fill-rule="evenodd" stroke="#000" stroke-width=".53479"/><rect x="422.24" y="385.7" width="14.173" height="9.4748" stroke="#b3b3b3" stroke-width=".21392"/><rect x="426.17" y="394.19" width="6.3084" height="1.0696" rx=".05027" ry=".011641" fill="#999" fill-rule="evenodd" stroke="#000" stroke-width=".53479"/><rect transform="scale(-1)" x="-436.41" y="-411.97" width="14.173" height="9.4748" stroke="#b3b3b3" stroke-width=".21392"/><rect transform="scale(-1)" x="-432.48" y="-403.48" width="6.3084" height="1.0696" rx=".05027" ry=".011641" fill="#999" fill-rule="evenodd" stroke="#000" stroke-width=".53479"/><g fill="#fff"><path d="m427.56 382.68 0.66123 1.4087c-0.44756-0.20211-0.88837-0.20874-1.3224-0.0199z"/><path d="m430.97 384.09-0.66123-1.4087c0.44756 0.20211 0.88837 0.20874 1.3224 0.0199z"/><path d="m432.45 383.87h0.75047v0.32326h-1.2394v-0.32326l0.62253-0.54943q0.0834-0.0754 0.12336-0.14735 0.04-0.072 0.04-0.14964 0-0.11994-0.0811-0.19304-0.08-0.0731-0.2136-0.0731-0.10281 0-0.22503 0.0445-0.12222 0.0434-0.26158 0.13022v-0.37466q0.1485-0.0491 0.29357-0.0743 0.14506-0.0263 0.28442-0.0263 0.30612 0 0.47518 0.13479 0.1702 0.13478 0.1702 0.3758 0 0.13936-0.072 0.26043-0.072 0.11994-0.3027 0.32212zm1.78-1.02-0.48204 0.71391h0.48204zm-0.0731-0.3621h0.48889v1.076h0.2433v0.31869h-0.2433v0.3107h-0.41578v-0.3107h-0.75618v-0.37695z" stroke-linecap="round" stroke-linejoin="round" stroke-width=".13159" aria-label="24"/><path d="m424.17 383.87h0.75047v0.32326h-1.2394v-0.32326l0.62254-0.54943q0.0834-0.0754 0.12336-0.14735 0.04-0.072 0.04-0.14964 0-0.11994-0.0811-0.19304-0.08-0.0731-0.2136-0.0731-0.10281 0-0.22503 0.0445-0.12222 0.0434-0.26158 0.13022v-0.37466q0.1485-0.0491 0.29356-0.0743 0.14507-0.0263 0.28443-0.0263 0.30612 0 0.47518 0.13479 0.17019 0.13478 0.17019 0.3758 0 0.13936-0.072 0.26043-0.072 0.11994-0.3027 0.32212zm2.0084-0.59626q0.17248 0.0445 0.26157 0.15534 0.0902 0.10966 0.0902 0.27986 0 0.25358-0.19418 0.38608-0.19419 0.13136-0.56656 0.13136-0.13136 0-0.26387-0.0217-0.13136-0.0206-0.26043-0.0628v-0.33925q0.12336 0.0617 0.24444 0.0937 0.12222 0.0308 0.23988 0.0308 0.17476 0 0.26729-0.0605 0.0937-0.0605 0.0937-0.17363 0-0.11651-0.096-0.1759-0.0948-0.0605-0.28099-0.0605h-0.17591v-0.28328h0.18504q0.16563 0 0.24673-0.0514 0.0811-0.0525 0.0811-0.15877 0-0.0982-0.0788-0.15192-0.0788-0.0537-0.22274-0.0537-0.10624 0-0.21475 0.024t-0.21589 0.0708v-0.32212q0.13022-0.0365 0.25815-0.0548 0.12794-0.0183 0.2513-0.0183 0.3324 0 0.49688 0.10966 0.16563 0.10851 0.16563 0.32782 0 0.14964-0.0788 0.24559-0.0788 0.0948-0.23302 0.13365z" stroke-linecap="round" stroke-linejoin="round" stroke-width=".13159" aria-label="23"/></g><path transform="scale(-1)" d="m-436.3-401.72h13.957v5.7642h-13.957z" fill="none" stroke="#4d4d4d" stroke-width=".21633"/><path d="m424.8 397.67 1.0917 2.3258-2.1834-0.0328z" fill="#2d5016" stroke="#433a2d" stroke-linecap="round" stroke-linejoin="round" stroke-width=".17232"/><path d="m433.85 400-1.0917-2.3258 2.1834 0.0328z" fill="#2d5016" stroke="#433a2d" stroke-linecap="round" stroke-linejoin="round" stroke-width=".17232"/><g><circle cx="429.33" cy="398.83" r=".86952"/><circle cx="426.93" cy="398.83" r=".67"/><circle cx="431.72" cy="398.83" r=".67"/></g><rect transform="scale(-1)" x="-421.69" y="-411.97" width="14.173" height="9.4748" stroke="#b3b3b3" stroke-width=".21392"/><rect transform="scale(-1)" x="-417.75" y="-403.48" width="6.3084" height="1.0696" rx=".05027" ry=".011641" fill="#999" fill-rule="evenodd" stroke="#000" stroke-width=".53479"/><rect transform="scale(-1)" x="-406.96" y="-411.97" width="14.173" height="9.4748" stroke="#b3b3b3" stroke-width=".21392"/><rect transform="scale(-1)" x="-403.03" y="-403.48" width="6.3084" height="1.0696" rx=".05027" ry=".011641" fill="#999" fill-rule="evenodd" stroke="#000" stroke-width=".53479"/><rect transform="scale(-1)" x="-392.23" y="-411.97" width="14.173" height="9.4748" stroke="#b3b3b3" stroke-width=".21392"/><rect transform="scale(-1)" x="-388.3" y="-403.48" width="6.3084" height="1.0696" rx=".05027" ry=".011641" fill="#999" fill-rule="evenodd" stroke="#000" stroke-width=".53479"/><rect transform="scale(-1)" x="-392.13" y="-401.72" width="13.957" height="5.7642" fill="none" stroke="#4d4d4d" stroke-width=".21633"/><path d="m380.62 397.67 1.0917 2.3258-2.1834-0.0328z" fill="#2d5016" stroke="#433a2d" stroke-linecap="round" stroke-linejoin="round" stroke-width=".17232"/><path d="m389.67 400-1.0917-2.3258 2.1834 0.0328z" fill="#2d5016" stroke="#433a2d" stroke-linecap="round" stroke-linejoin="round" stroke-width=".17232"/><g><circle cx="385.15" cy="398.83" r=".86952"/><circle cx="382.75" cy="398.83" r=".67"/><circle cx="387.54" cy="398.83" r=".67"/></g><rect transform="scale(-1)" x="-406.85" y="-401.72" width="13.957" height="5.7642" fill="none" stroke="#4d4d4d" stroke-width=".21633"/><path d="m395.35 397.67 1.0917 2.3258-2.1834-0.0328z" fill="#2d5016" stroke="#433a2d" stroke-linecap="round" stroke-linejoin="round" stroke-width=".17232"/><path d="m404.4 400-1.0917-2.3258 2.1834 0.0328z" fill="#2d5016" stroke="#433a2d" stroke-linecap="round" stroke-linejoin="round" stroke-width=".17232"/><g><circle cx="399.87" cy="398.83" r=".86952"/><circle cx="397.48" cy="398.83" r=".67"/><circle cx="402.27" cy="398.83" r=".67"/></g><rect transform="scale(-1)" x="-421.58" y="-401.72" width="13.957" height="5.7642" fill="none" stroke="#4d4d4d" stroke-width=".21633"/><path d="m410.08 397.67 1.0917 2.3258-2.1834-0.0328z" fill="#2d5016" stroke="#433a2d" stroke-linecap="round" stroke-linejoin="round" stroke-width=".17232"/><path d="m419.12 400-1.0917-2.3258 2.1834 0.0328z" fill="#2d5016" stroke="#433a2d" stroke-linecap="round" stroke-linejoin="round" stroke-width=".17232"/><g><circle cx="414.6" cy="398.83" r=".86952"/><circle cx="412.2" cy="398.83" r=".67"/><circle cx="417" cy="398.83" r=".67"/></g><g fill="#fff"><path d="m383.39 382.68 0.66123 1.4087c-0.44756-0.20211-0.88837-0.20874-1.3224-0.0199z"/><path d="m386.8 384.09-0.66123-1.4087c0.44756 0.20211 0.88837 0.20874 1.3224 0.0199z"/><path d="m387.88 383.89h0.38837v-1.1023l-0.39865 0.0822v-0.29928l0.39636-0.0822h0.41807v1.4016h0.38837v0.30385h-1.1925zm2.1329-0.45918q-0.12336 0-0.18961 0.0674-0.0663 0.0674-0.0663 0.19304 0 0.12565 0.0663 0.19304 0.0663 0.0663 0.18961 0.0663 0.12222 0 0.18733-0.0663 0.0651-0.0674 0.0651-0.19304 0-0.12679-0.0651-0.19304-0.0651-0.0674-0.18733-0.0674zm-0.32097-0.14507q-0.15535-0.0468-0.23417-0.14393-0.0788-0.0971-0.0788-0.24216 0-0.21588 0.16106-0.32897 0.16105-0.11308 0.47289-0.11308 0.30955 0 0.47061 0.11308 0.16106 0.11194 0.16106 0.32897 0 0.14507-0.08 0.24216-0.0788 0.0971-0.23416 0.14393 0.17362 0.048 0.26158 0.15649 0.0891 0.10737 0.0891 0.27186 0 0.25358-0.16905 0.3838-0.16791 0.12907-0.49917 0.12907-0.3324 0-0.50259-0.12907-0.16906-0.13022-0.16906-0.3838 0-0.16449 0.088-0.27186 0.0891-0.10852 0.26272-0.15649zm0.1028-0.34154q0 0.10166 0.056 0.15649 0.0571 0.0548 0.1622 0.0548 0.1028 0 0.15878-0.0548 0.056-0.0548 0.056-0.15649 0-0.10166-0.056-0.15535-0.056-0.0548-0.15878-0.0548-0.10509 0-0.1622 0.0548-0.056 0.0548-0.056 0.15535z" stroke-linecap="round" stroke-linejoin="round" stroke-width=".13159" aria-label="18"/><path d="m379.77 383.89h0.38836v-1.1023l-0.39864 0.0822v-0.29928l0.39636-0.0822h0.41807v1.4016h0.38837v0.30385h-1.1925zm1.475-1.4016h1.285v0.24787l-0.6648 1.4575h-0.42835l0.62939-1.3821h-0.82129z" stroke-linecap="round" stroke-linejoin="round" stroke-width=".13159" aria-label="17"/><path d="m398.11 382.68 0.66123 1.4087c-0.44756-0.20211-0.88837-0.20874-1.3224-0.0199z"/><path d="m401.52 384.09-0.66123-1.4087c0.44756 0.20211 0.88837 0.20874 1.3224 0.0199z"/><path d="m403.01 383.87h0.75047v0.32326h-1.2394v-0.32326l0.62254-0.54943q0.0834-0.0754 0.12336-0.14735 0.04-0.072 0.04-0.14964 0-0.11994-0.0811-0.19304-0.08-0.0731-0.2136-0.0731-0.10281 0-0.22503 0.0445-0.12222 0.0434-0.26158 0.13022v-0.37466q0.1485-0.0491 0.29356-0.0743 0.14507-0.0263 0.28443-0.0263 0.30612 0 0.47518 0.13479 0.17019 0.13478 0.17019 0.3758 0 0.13936-0.072 0.26043-0.072 0.11994-0.3027 0.32212zm1.9947-0.53116q0-0.31983-0.0605-0.45005-0.0594-0.13136-0.20104-0.13136t-0.20218 0.13136q-0.0605 0.13022-0.0605 0.45005 0 0.32326 0.0605 0.45577 0.0605 0.1325 0.20218 0.1325 0.1405 0 0.20104-0.1325 0.0605-0.13251 0.0605-0.45577zm0.43977 3e-3q0 0.42378-0.18276 0.65452-0.18276 0.22959-0.51859 0.22959-0.33697 0-0.51973-0.22959-0.18276-0.23074-0.18276-0.65452 0-0.42492 0.18276-0.65451 0.18276-0.23074 0.51973-0.23074 0.33583 0 0.51859 0.23074 0.18276 0.22959 0.18276 0.65451z" stroke-linecap="round" stroke-linejoin="round" stroke-width=".13159" aria-label="20"/><path d="m394.23 383.89h0.38837v-1.1023l-0.39865 0.0822v-0.29928l0.39636-0.0822h0.41807v1.4016h0.38837v0.30385h-1.1925zm1.5526 0.26615v-0.31526q0.10509 0.0491 0.20104 0.0742 0.0959 0.024 0.18961 0.024 0.19647 0 0.30613-0.10851 0.10966-0.10966 0.12908-0.32441-0.0777 0.0571-0.16563 0.0857-0.088 0.0286-0.19076 0.0286-0.26158 0-0.42264-0.15192-0.15991-0.15306-0.15991-0.40208 0-0.27528 0.17819-0.44091 0.17934-0.16563 0.47975-0.16563 0.33354 0 0.5163 0.22503 0.18276 0.22502 0.18276 0.63624 0 0.42263-0.2136 0.66479-0.2136 0.24102-0.58598 0.24102-0.11994 0-0.22959-0.0183-0.10966-0.0171-0.21475-0.0525zm0.54258-0.82128q0.11536 0 0.17362-0.0743 0.0582-0.0754 0.0582-0.22503 0-0.14849-0.0582-0.22388-0.0583-0.0754-0.17362-0.0754-0.11537 0-0.17363 0.0754-0.0582 0.0754-0.0582 0.22388 0 0.14964 0.0582 0.22503 0.0583 0.0743 0.17363 0.0743z" stroke-linecap="round" stroke-linejoin="round" stroke-width=".13159" aria-label="19"/><path d="m412.84 382.68 0.66123 1.4087c-0.44756-0.20211-0.88837-0.20874-1.3224-0.0199z"/><path d="m416.25 384.09-0.66123-1.4087c0.44756 0.20211 0.88837 0.20874 1.3224 0.0199z"/><g stroke-linecap="round" stroke-linejoin="round"><path d="m417.91 383.87h0.75047v0.32326h-1.2394v-0.32326l0.62254-0.54943q0.0834-0.0754 0.12336-0.14735 0.04-0.072 0.04-0.14964 0-0.11994-0.0811-0.19304-0.08-0.0731-0.2136-0.0731-0.10281 0-0.22503 0.0445-0.12222 0.0434-0.26158 0.13022v-0.37466q0.1485-0.0491 0.29356-0.0743 0.14507-0.0263 0.28443-0.0263 0.30612 0 0.47518 0.13479 0.17019 0.13478 0.17019 0.3758 0 0.13936-0.072 0.26043-0.072 0.11994-0.3027 0.32212zm1.5926 0h0.75047v0.32326h-1.2394v-0.32326l0.62254-0.54943q0.0834-0.0754 0.12336-0.14735 0.04-0.072 0.04-0.14964 0-0.11994-0.0811-0.19304-0.08-0.0731-0.2136-0.0731-0.10281 0-0.22503 0.0445-0.12222 0.0434-0.26158 0.13022v-0.37466q0.1485-0.0491 0.29356-0.0743 0.14507-0.0263 0.28443-0.0263 0.30612 0 0.47518 0.13479 0.1702 0.13478 0.1702 0.3758 0 0.13936-0.072 0.26043-0.072 0.11994-0.3027 0.32212z" stroke-width=".13159" aria-label="22"/><path d="m409.18 383.87h0.75047v0.32326h-1.2394v-0.32326l0.62253-0.54943q0.0834-0.0754 0.12336-0.14735 0.04-0.072 0.04-0.14964 0-0.11994-0.0811-0.19304-0.08-0.0731-0.2136-0.0731-0.10281 0-0.22503 0.0445-0.12222 0.0434-0.26158 0.13022v-0.37466q0.1485-0.0491 0.29357-0.0743 0.14506-0.0263 0.28442-0.0263 0.30612 0 0.47518 0.13479 0.1702 0.13478 0.1702 0.3758 0 0.13936-0.072 0.26043-0.072 0.11994-0.3027 0.32212zm1.1928 0.0194h0.38837v-1.1023l-0.39865 0.0822v-0.29928l0.39637-0.0822h0.41806v1.4016h0.38837v0.30385h-1.1925z" stroke-width=".13159" aria-label="21"/><path d="m495.81 385.95c0.45925 0 0.78205-0.32946 0.78205-0.78871 0-0.46257-0.32613-0.79203-0.78205-0.79203-0.02 0-0.0366 0-0.0566 3e-3l0.45592-0.75876c0.0732-0.11647-0.0133-0.25957-0.14976-0.25957-0.0599 0-0.11314 0.0299-0.15308 0.0932l-0.75543 1.2613c-0.0799 0.12314-0.12645 0.27954-0.12645 0.45259 0 0.45925 0.3228 0.78871 0.78537 0.78871zm-3e-3 -0.29951c-0.27288 0-0.46257-0.19967-0.46257-0.4892 0-0.28952 0.18969-0.49252 0.46257-0.49252 0.27289 0 0.46591 0.203 0.46591 0.49252 0 0.28953-0.19302 0.4892-0.46591 0.4892zm1.9235 0.29951c0.43595 0 0.80535-0.31948 0.80535-0.75543 0-0.30949-0.14976-0.56573-0.49918-0.68554 0.19967-0.0899 0.39601-0.25957 0.39601-0.51915 0-0.36606-0.30283-0.64227-0.69552-0.64227-0.4293 0-0.75876 0.28952-0.75876 0.67555 0 0.0965 0.0666 0.16972 0.15309 0.16972 0.0865 0 0.15308-0.0765 0.15308-0.1797 0-0.20633 0.203-0.36939 0.45924-0.36939 0.22297 0 0.37938 0.15308 0.37938 0.34609 0 0.20633-0.19302 0.36274-0.37938 0.36274-0.0965 0-0.16972 0.0732-0.16972 0.16972 0 0.0998 0.0732 0.17305 0.16972 0.17305 0.25625 0 0.45592 0.21631 0.45592 0.49586 0 0.29285-0.19634 0.46257-0.4892 0.46257-0.2995 0-0.52913-0.2263-0.52913-0.50251 0-0.0998-0.0666-0.17305-0.15308-0.17305-0.0865 0-0.15308 0.0732-0.15308 0.17305 0 0.45592 0.35608 0.79869 0.85526 0.79869zm1.8669 0c0.50584 0 0.79536-0.49585 0.79536-1.3012 0-0.80534-0.28952-1.3012-0.79536-1.3012s-0.79536 0.48254-0.79536 1.3012c0 0.81866 0.28952 1.3012 0.79536 1.3012zm0-0.3461c-0.30284 0-0.45259-0.39934-0.45259-0.9551 0-0.5491 0.14643-0.95842 0.45259-0.95842 0.30284 0 0.45259 0.41598 0.45259 0.95842 0 0.54577-0.14643 0.9551-0.45259 0.9551zm1.8736 0.3461c0.50583 0 0.79536-0.49585 0.79536-1.3012 0-0.80534-0.28953-1.3012-0.79536-1.3012-0.50584 0-0.79536 0.48254-0.79536 1.3012 0 0.81866 0.28952 1.3012 0.79536 1.3012zm0-0.3461c-0.30284 0-0.45259-0.39934-0.45259-0.9551 0-0.5491 0.14642-0.95842 0.45259-0.95842 0.30283 0 0.45259 0.41598 0.45259 0.95842 0 0.54577-0.14643 0.9551-0.45259 0.9551zm1.4177 0.3461c0.0965 0 0.17305-0.0765 0.17305-0.17305v-1.624l0.79536 1.594c0.0333 0.0699 0.0865 0.10316 0.15974 0.10316 0.0666 0 0.11314-0.0299 0.14975-0.0865l0.80534-1.6406v1.654c0 0.0965 0.0765 0.17305 0.17305 0.17305 0.0932 0 0.17305-0.0765 0.17305-0.17305v-2.253c0-0.0998-0.0765-0.17305-0.17305-0.17305-0.0632 0-0.11647 0.0299-0.15308 0.0932l-0.96175 1.9801-0.98838-1.9801c-0.0366-0.0632-0.0865-0.0932-0.15308-0.0932-0.0965 0-0.17305 0.0732-0.17305 0.17305v2.253c0 0.0965 0.0765 0.17305 0.17305 0.17305z" stroke-width=".18719" aria-label="6300M"/></g></g><rect x="479.06" y="418.08" width="19.334" height="2.0329" rx="1" ry=".57453" fill="#ff7f2a"/><g fill="#fff" stroke-linecap="round" stroke-linejoin="round"><path d="m499.47 396.19h0.22903l0.2899 0.77305 0.29142-0.77305h0.22902v1.136h-0.14989v-0.99752l-0.29294 0.77914h-0.15446l-0.29294-0.77914v0.99752h-0.14914zm1.8758 0.70001q0-0.15218-0.0632-0.23588-0.0624-0.0837-0.17576-0.0837-0.11261 0-0.17577 0.0837-0.0624 0.0837-0.0624 0.23588 0 0.15141 0.0624 0.23511 0.0632 0.0837 0.17577 0.0837 0.11337 0 0.17576-0.0837 0.0632-0.0837 0.0632-0.23511zm0.14 0.33022q0 0.21762-0.0966 0.32338-0.0966 0.10652-0.29599 0.10652-0.0738 0-0.13924-0.0114-0.0654-0.0106-0.12707-0.0335v-0.1362q0.0616 0.0335 0.12174 0.0495 0.0601 0.016 0.12251 0.016 0.13772 0 0.2062-0.0723 0.0685-0.0715 0.0685-0.21685v-0.0692q-0.0434 0.0753-0.11109 0.11261-0.0677 0.0373-0.16207 0.0373-0.15674 0-0.25261-0.11946-0.0959-0.11946-0.0959-0.31653 0-0.19783 0.0959-0.31729t0.25261-0.11946q0.0944 0 0.16207 0.0373 0.0677 0.0373 0.11109 0.11262v-0.12935h0.14zm0.92849-0.58283q0.0525-0.0944 0.12555-0.13925 0.073-0.0449 0.17196-0.0449 0.13315 0 0.20543 0.0936 0.0723 0.0928 0.0723 0.26479v0.51436h-0.14077v-0.5098q0-0.1225-0.0434-0.18185-0.0434-0.0593-0.13239-0.0593-0.10881 0-0.17196 0.0723-0.0631 0.0723-0.0631 0.19707v0.48164h-0.14077v-0.5098q0-0.12326-0.0434-0.18185-0.0434-0.0593-0.13391-0.0593-0.10729 0-0.17044 0.0731-0.0632 0.0723-0.0632 0.19631v0.48164h-0.14077v-0.85219h0.14077v0.13239q0.0479-0.0784 0.11489-0.11566 0.067-0.0373 0.15902-0.0373 0.0928 0 0.15751 0.0472 0.0654 0.0472 0.0966 0.13696zm0.96958-0.40556v0.24197h0.28837v0.1088h-0.28837v0.46262q0 0.10424 0.0281 0.13391 0.0289 0.0297 0.11642 0.0297h0.1438v0.11718h-0.1438q-0.16207 0-0.2237-0.0601-0.0616-0.0609-0.0616-0.22066v-0.46262h-0.10272v-0.1088h0.10272v-0.24197z" stroke-width=".087654" aria-label="Mgmt"/><path d="m499.99 408.31-0.20848 0.56534h0.41772zm-0.0867-0.15141h0.17424l0.43294 1.136h-0.15978l-0.10348-0.29142h-0.51208l-0.10348 0.29142h-0.16206zm0.72914 0.79969v-0.51588h0.14v0.51055q0 0.12098 0.0472 0.18185 0.0472 0.0601 0.14152 0.0601 0.11337 0 0.17881-0.0723 0.0662-0.0723 0.0662-0.19707v-0.48316h0.14001v0.85219h-0.14001v-0.13088q-0.051 0.0776-0.11869 0.11566-0.067 0.0373-0.15598 0.0373-0.14685 0-0.22294-0.0913-0.0761-0.0913-0.0761-0.26707zm1.6871-0.51588-0.30816 0.41468 0.32414 0.43751h-0.16511l-0.24805-0.33479-0.24805 0.33479h-0.16511l0.33098-0.44588-0.30283-0.40631h0.16511l0.22599 0.30359 0.22598-0.30359z" stroke-width=".087654" aria-label="Aux"/><path d="m451.14 414.27-0.54948 0.81381h0.54948zm-0.0833-0.41276h0.55729v1.2266h0.27734v0.36328h-0.27734v0.35417h-0.47396v-0.35417h-0.86198v-0.42969zm1.6071 1.7331v0.76562h-0.46614v-2.013h0.46614v0.21354q0.0964-0.1276 0.21355-0.1875 0.11718-0.0612 0.26953-0.0612 0.26953 0 0.44271 0.21485 0.17317 0.21354 0.17317 0.55078t-0.17317 0.55208q-0.17318 0.21355-0.44271 0.21355-0.15235 0-0.26953-0.0599-0.11719-0.0612-0.21355-0.1888zm0.3099-0.94401q-0.14974 0-0.23047 0.11067-0.0794 0.10938-0.0794 0.31641t0.0794 0.31771q0.0807 0.10937 0.23047 0.10937 0.14974 0 0.22786-0.10937 0.0794-0.10938 0.0794-0.31771t-0.0794-0.31771q-0.0781-0.10937-0.22786-0.10937zm2.0398-0.78907h1.2461v0.36849h-0.84636v0.30078q0.0573-0.0156 0.11459-0.0234 0.0586-9e-3 0.12109-9e-3 0.35547 0 0.55339 0.17839 0.19791 0.17708 0.19791 0.49479 0 0.3151-0.21614 0.49349-0.21485 0.17839-0.59766 0.17839-0.16536 0-0.32812-0.0326-0.16146-0.0312-0.32162-0.0963v-0.39453q0.15886 0.0911 0.30078 0.13672 0.14323 0.0456 0.26953 0.0456 0.1823 0 0.28646-0.0885 0.10547-0.0898 0.10547-0.24219 0-0.15365-0.10547-0.24219-0.10416-0.0885-0.28646-0.0885-0.10807 0-0.23047 0.0286-0.12239 0.0273-0.26302 0.0859zm2.7595 0.97006q0-0.36459-0.069-0.51303-0.0677-0.14974-0.22917-0.14974-0.16146 0-0.23047 0.14974-0.069 0.14844-0.069 0.51303 0 0.36849 0.069 0.51953t0.23047 0.15104q0.16016 0 0.22917-0.15104 0.069-0.15104 0.069-0.51953zm0.5013 4e-3q0 0.48308-0.20833 0.7461-0.20834 0.26172-0.59115 0.26172-0.38412 0-0.59245-0.26172-0.20833-0.26302-0.20833-0.7461 0-0.48437 0.20833-0.74609 0.20833-0.26302 0.59245-0.26302 0.38281 0 0.59115 0.26302 0.20833 0.26172 0.20833 0.74609zm2.0798 0.82552q-0.1875 0.0911-0.38932 0.13672-0.20182 0.0456-0.41667 0.0456-0.48568 0-0.76953-0.27084-0.28385-0.27213-0.28385-0.73698 0-0.47005 0.28906-0.73958t0.79167-0.26953q0.19401 0 0.37109 0.0365 0.17839 0.0365 0.33594 0.10808v0.40234q-0.16276-0.0924-0.32422-0.13802-0.16016-0.0456-0.32162-0.0456-0.29948 0-0.46224 0.16797-0.16145 0.16666-0.16145 0.47786 0 0.3086 0.15625 0.47657 0.15625 0.16796 0.44401 0.16796 0.0781 0 0.14453-9e-3 0.0677-0.0104 0.12109-0.0312v-0.3776h-0.30599v-0.33594h0.78125zm2.6427-1.7383v0.41146q-0.16015-0.0716-0.3125-0.10807-0.15234-0.0365-0.28776-0.0365-0.17969 0-0.26562 0.0495-0.0859 0.0495-0.0859 0.15364 0 0.0781 0.0573 0.1224 0.0586 0.043 0.21094 0.0742l0.21354 0.043q0.32422 0.0651 0.46094 0.19791 0.13672 0.13282 0.13672 0.37761 0 0.32161-0.19141 0.47917-0.1901 0.15625-0.58203 0.15625-0.1849 0-0.37109-0.0352-0.1862-0.0352-0.3724-0.10417v-0.42317q0.1862 0.099 0.35937 0.14974 0.17448 0.0495 0.33594 0.0495 0.16407 0 0.2513-0.0547 0.0872-0.0547 0.0872-0.15625 0-0.0912-0.0599-0.14063-0.0586-0.0495-0.23568-0.0885l-0.19401-0.043q-0.29167-0.0625-0.42708-0.19922-0.13412-0.13672-0.13412-0.36849 0-0.29036 0.1875-0.44661t0.53907-0.15625q0.16015 0 0.32942 0.0247 0.16927 0.0234 0.35026 0.0716zm0.52771-0.0612h1.3529v0.37891h-0.85156v0.36198h0.80078v0.37891h-0.80078v0.82422h-0.50131zm1.7816 0h0.83203q0.3711 0 0.56901 0.16537 0.19922 0.16406 0.19922 0.46875 0 0.30599-0.19922 0.47135-0.19791 0.16407-0.56901 0.16407h-0.33073v0.67448h-0.5013zm0.5013 0.36328v0.54297h0.27735q0.14583 0 0.22526-0.0703 0.0794-0.0716 0.0794-0.20182 0-0.13021-0.0794-0.20052-0.0794-0.0703-0.22526-0.0703z" stroke-width=".15" aria-label="4p 50G SFP"/><path d="m76.032 416.39h0.85547v0.36849h-1.4128v-0.36849l0.70964-0.62631q0.09505-0.0859 0.14063-0.16797 0.04557-0.082 0.04557-0.17057 0-0.13672-0.09245-0.22005-0.09115-0.0833-0.24349-0.0833-0.11719 0-0.25651 0.0508-0.13932 0.0495-0.29818 0.14843v-0.42708q0.16927-0.056 0.33464-0.0846 0.16536-0.0299 0.32422-0.0299 0.34896 0 0.54167 0.15364 0.19401 0.15365 0.19401 0.42839 0 0.15885-0.08203 0.29687-0.08203 0.13672-0.34505 0.36719zm2.029-1.1628-0.54948 0.81381h0.54948zm-0.08333-0.41276h0.55729v1.2266h0.27734v0.36328h-0.27734v0.35417h-0.47396v-0.35417h-0.86198v-0.42969zm1.6071 1.7331v0.76562h-0.46615v-2.013h0.46615v0.21354q0.09635-0.1276 0.21354-0.1875 0.11719-0.0612 0.26953-0.0612 0.26953 0 0.44271 0.21485 0.17318 0.21354 0.17318 0.55078t-0.17318 0.55208q-0.17318 0.21355-0.44271 0.21355-0.15234 0-0.26953-0.0599-0.11719-0.0612-0.21354-0.1888zm0.3099-0.94401q-0.14974 0-0.23047 0.11067-0.07943 0.10938-0.07943 0.31641t0.07943 0.31771q0.08073 0.10937 0.23047 0.10937 0.14974 0 0.22786-0.10937 0.07943-0.10938 0.07943-0.31771t-0.07943-0.31771q-0.07813-0.10937-0.22786-0.10937zm2.0697 0.80859h0.44271v-1.2565l-0.45443 0.0937v-0.34115l0.45182-0.0937h0.47656v1.5977h0.44271v0.34636h-1.3594zm2.7295-0.6276q0-0.36459-0.06901-0.51302-0.06771-0.14974-0.22917-0.14974-0.16146 0-0.23047 0.14974-0.06901 0.14843-0.06901 0.51302 0 0.36849 0.06901 0.51953t0.23047 0.15104q0.16016 0 0.22917-0.15104t0.06901-0.51953zm0.5013 4e-3q0 0.48308-0.20833 0.7461-0.20833 0.26172-0.59115 0.26172-0.38412 0-0.59245-0.26172-0.20833-0.26302-0.20833-0.7461 0-0.48437 0.20833-0.74609 0.20833-0.26302 0.59245-0.26302 0.38281 0 0.59115 0.26302 0.20833 0.26172 0.20833 0.74609zm2.0798 0.82552q-0.1875 0.0912-0.38932 0.13672-0.20182 0.0456-0.41667 0.0456-0.48568 0-0.76953-0.27084-0.28385-0.27213-0.28385-0.73698 0-0.47005 0.28906-0.73958t0.79167-0.26953q0.19401 0 0.3711 0.0365 0.17838 0.0365 0.33594 0.10807v0.40234q-0.16276-0.0924-0.32422-0.13802-0.16016-0.0456-0.32162-0.0456-0.29948 0-0.46224 0.16797-0.16146 0.16666-0.16146 0.47786 0 0.3086 0.15625 0.47657 0.15625 0.16796 0.44401 0.16796 0.07813 0 0.14453-9e-3 0.06771-0.0104 0.12109-0.0312v-0.3776h-0.30599v-0.33594h0.78125zm2.6427-1.7383v0.41146q-0.16016-0.0716-0.3125-0.10807-0.15234-0.0365-0.28776-0.0365-0.17969 0-0.26563 0.0495-0.08594 0.0495-0.08594 0.15364 0 0.0781 0.05729 0.1224 0.05859 0.043 0.21094 0.0742l0.21354 0.043q0.32422 0.0651 0.46094 0.19791 0.13672 0.13282 0.13672 0.37761 0 0.32161-0.19141 0.47917-0.1901 0.15625-0.58203 0.15625-0.1849 0-0.3711-0.0352-0.1862-0.0352-0.3724-0.10417v-0.42317q0.1862 0.099 0.35938 0.14974 0.17448 0.0495 0.33594 0.0495 0.16406 0 0.2513-0.0547t0.08724-0.15625q0-0.0912-0.0599-0.14063-0.05859-0.0495-0.23568-0.0885l-0.19401-0.043q-0.29167-0.0625-0.42708-0.19922-0.13412-0.13672-0.13412-0.36849 0-0.29036 0.1875-0.44661 0.1875-0.15625 0.53906-0.15625 0.16016 0 0.32943 0.0247 0.16927 0.0234 0.35026 0.0716zm0.52771-0.0612h1.3529v0.37891h-0.85156v0.36198h0.80078v0.37891h-0.80078v0.82422h-0.5013zm1.7816 0h0.83203q0.37109 0 0.56901 0.16537 0.19922 0.16406 0.19922 0.46875 0 0.30599-0.19922 0.47135-0.19792 0.16407-0.56901 0.16407h-0.33073v0.67448h-0.5013zm0.5013 0.36328v0.54297h0.27734q0.14583 0 0.22526-0.0703 0.07943-0.0716 0.07943-0.20182 0-0.13021-0.07943-0.20052-0.07943-0.0703-0.22526-0.0703z" stroke-width=".15" aria-label="24p 10G SFP"/></g></svg>
