<svg width="225" height="224" version="1.1" viewBox="35 370 119.49545 72.700444" xmlns="http://www.w3.org/2000/svg" xmlns:xlink="http://www.w3.org/1999/xlink">
 <defs>
  <radialGradient id="radialGradient14839" cx="113.08" cy="452.2" r="27.12" gradientTransform="matrix(-.051075 .10781 -2.0043 -.94656 947.64 839.85)" gradientUnits="userSpaceOnUse">
   <stop stop-color="#bcbcbb" offset="0"/>
   <stop stop-color="#989898" offset=".23212"/>
   <stop stop-color="#dbdcd9" offset="1"/>
  </radialGradient>
 </defs>
 <g transform="matrix(1.4901 0 0 1.4852 -16.756 -237.77)">
  <path d="m43.458 402.78c7.6203-7.7303 20.466-9.0144 31.329-8.9643 10.585 0.0488 22.943 1.5588 30.444 9.0155 7.7232 7.6778 9.4283 20.375 9.4331 31.257 5e-3 10.955-1.5691 23.874-9.4695 31.477-7.5417 7.2574-19.888 7.9344-30.407 7.9124-10.52-0.022-23.074-0.74293-30.637-8.1089-7.787-7.5846-9.029-20.419-9.1416-31.28-0.11201-10.808 0.8561-23.605 8.4496-31.308z" fill="#dbdcd9" stroke="#ededed" stroke-linecap="round" stroke-linejoin="round" stroke-width=".53109"/>
  <path d="m35.383 423.97c-0.28102 3.1583-0.38258 6.6911-0.35068 10.096 0.11253 10.861 1.3553 23.695 9.1424 31.28 7.324 7.1336 19.324 8.0325 29.63 8.1022l14.775-24.654c-19.539-7.0289-37.959-15.93-53.196-24.824z" fill="url(#radialGradient14839)" fill-rule="evenodd"/>
  <g transform="matrix(.98853 0 0 .98698 -18.97 62.666)">
   <text transform="scale(.99918 1.0008)" x="74.919693" y="399.53143" fill="#000000" font-family="sans-serif" letter-spacing="0px" stroke-width="1px" text-align="center" text-anchor="middle" word-spacing="0px" style="line-height:0%" xml:space="preserve"><tspan x="74.919693" y="399.53143" font-family="'PakType Naskh Basic'" font-size="9.2876px" style="line-height:1.25">335</tspan></text>
   <path class="st1" d="m76.174 389.93c0 1.1851-0.9481 2.148-2.1036 2.148-1.1555 0-2.1036-0.96291-2.1036-2.148v-1.8221s1.0074 0.25184 1.0074 1.3184v0.50367c0 0.65181 0.48885 1.1703 1.0962 1.1703s1.0962-0.5185 1.0962-1.1703v-1.0518 0.0148c0.04444-0.88884 0.79995-1.1703 0.99254-1.274h0.01481v2.311zm-5.4071-2.1332c0.28147 0 0.54812 0.0444 0.78514 0.14813v1.1259c-0.2074-0.17776-0.48886-0.28146-0.78514-0.28146-0.66663 0-1.1999 0.5185-1.1999 1.1703v2.1184h-1.0074v-3.8813s0.41479 0.0148 0.68144 0.20738c0.38516-0.38516 0.93328-0.60736 1.5258-0.60736m-4.8294 3.3183c-0.66663 0-1.2148-0.53331-1.2148-1.1851 0-0.65182 0.54812-1.1851 1.2148-1.1851s1.2147 0.5333 1.2147 1.1851c0 0.65181-0.54811 1.1851-1.2147 1.1851m0-3.3183c-1.2148 0-2.1925 0.96291-2.1925 2.1332 0 1.1851 0.97773 2.1332 2.1925 2.1332 0.50368 0 0.96291-0.16296 1.3333-0.44442 0.22221 0.37035 0.85922 0.44442 0.85922 0.44442v-2.1332c0-1.1703-0.97773-2.1332-2.1925-2.1332m17.525 3.3183c-0.66663 0-1.2148-0.53331-1.2148-1.1851 0-0.65182 0.54812-1.1851 1.2148-1.1851s1.2148 0.5333 1.2148 1.1851c0 0.65181-0.54812 1.1851-1.2148 1.1851m0-3.3183c-1.2148 0-2.1925 0.96291-2.1925 2.1332 0 1.1851 0.97772 2.1332 2.1925 2.1332 0.50368 0 0.96291-0.16296 1.3333-0.44442 0.22221 0.37035 0.85921 0.44442 0.85921 0.44442v-2.1332c0-1.1703-0.97772-2.1332-2.1925-2.1332m-4.6516 3.3183c-0.66663 0-1.2148-0.53331-1.2148-1.1851 0-0.65182 0.54812-1.1851 1.2148-1.1851 0.66663 0 1.2148 0.5333 1.2148 1.1851 0.01481 0.65181-0.53331 1.1851-1.2148 1.1851m0-3.3183c-0.44442 0-0.85921 0.13332-1.2148 0.35553v-0.34072c-0.04444-0.88884-0.77033-1.1703-0.96291-1.274h-0.01481v5.5404s0.65181-0.0741 0.90365-0.42961c0.37036 0.25184 0.81476 0.4148 1.2888 0.4148 1.2148 0 2.1925-0.96291 2.1925-2.1332 0.01481-1.1703-0.97772-2.1332-2.1925-2.1332"/>
  </g>
 </g>
 <g transform="translate(.096811)" fill-rule="evenodd">
  <rect x="87.503" y="458" width="6.2628" height="3.3156" rx=".97598" ry=".99644" opacity=".908"/>
  <rect x="95.536" y="458" width="6.2628" height="3.3156" rx=".97598" ry=".99644" opacity=".908"/>
 </g>
</svg>
