<svg width="86" height="150" version="1.1" viewBox="35 370 86 150" xmlns="http://www.w3.org/2000/svg" xmlns:xlink="http://www.w3.org/1999/xlink"><defs><linearGradient id="linearGradient4809"><stop stop-color="#fff" offset="0"/><stop stop-color="#808080" offset="1"/></linearGradient><linearGradient id="linearGradient6911" x1="-142.7" x2="-141.53" y1="349.43" y2="349.43" gradientTransform="matrix(1.323 -1.3263 1.323 1.3263 -223.21 -265.13)" gradientUnits="userSpaceOnUse" xlink:href="#linearGradient4809"/><linearGradient id="linearGradient6913" x1="-144.8" x2="-143.76" y1="349.45" y2="349.47" gradientTransform="matrix(1.323 -1.3263 1.323 1.3263 -223.21 -265.13)" gradientUnits="userSpaceOnUse" xlink:href="#linearGradient4809"/><linearGradient id="linearGradient6915" x1="-146.93" x2="-145.85" y1="349.25" y2="349.25" gradientTransform="matrix(1.323 -1.3263 1.323 1.3263 -223.21 -265.13)" gradientUnits="userSpaceOnUse" xlink:href="#linearGradient4809"/><linearGradient id="linearGradient6917" x1="-148.96" x2="-147.96" y1="349.38" y2="349.38" gradientTransform="matrix(1.323 -1.3263 1.323 1.3263 -223.21 -265.13)" gradientUnits="userSpaceOnUse" xlink:href="#linearGradient4809"/><linearGradient id="linearGradient6929" x1="-140.59" x2="-139.46" y1="349.43" y2="349.43" gradientTransform="matrix(1.323 -1.3263 1.323 1.3263 -223.21 -265.13)" gradientUnits="userSpaceOnUse" xlink:href="#linearGradient4809"/><linearGradient id="linearGradient6931" x1="-138.44" x2="-137.37" y1="349.43" y2="349.43" gradientTransform="matrix(1.323 -1.3263 1.323 1.3263 -223.21 -265.13)" gradientUnits="userSpaceOnUse" xlink:href="#linearGradient4809"/><linearGradient id="linearGradient6933" x1="-136.3" x2="-135.27" y1="349.43" y2="349.43" gradientTransform="matrix(1.323 -1.3263 1.323 1.3263 -223.21 -265.13)" gradientUnits="userSpaceOnUse" xlink:href="#linearGradient4809"/><linearGradient id="linearGradient6935" x1="-134.16" x2="-133.07" y1="349.43" y2="349.43" gradientTransform="matrix(1.323 -1.3263 1.323 1.3263 -223.21 -265.13)" gradientUnits="userSpaceOnUse" xlink:href="#linearGradient4809"/><linearGradient id="linearGradient6937" x1="-132.09" x2="-131.08" y1="349.43" y2="349.43" gradientTransform="matrix(1.323 -1.3263 1.323 1.3263 -223.21 -265.13)" gradientUnits="userSpaceOnUse" xlink:href="#linearGradient4809"/><linearGradient id="linearGradient6939" x1="-129.89" x2="-128.85" y1="353" y2="353" gradientTransform="matrix(1.323 -1.3263 1.323 1.3263 -223.21 -265.13)" gradientUnits="userSpaceOnUse" xlink:href="#linearGradient4809"/><linearGradient id="linearGradient6941" x1="-127.82" x2="-126.79" y1="354.4" y2="354.4" gradientTransform="matrix(1.323 -1.3263 1.323 1.3263 -223.21 -265.13)" gradientUnits="userSpaceOnUse" xlink:href="#linearGradient4809"/><linearGradient id="linearGradient6943" x1="-125.71" x2="-124.65" y1="356.02" y2="356.02" gradientTransform="matrix(1.323 -1.3263 1.323 1.3263 -223.21 -265.13)" gradientUnits="userSpaceOnUse" xlink:href="#linearGradient4809"/><linearGradient id="linearGradient6968" x1="-49.879" x2="-49.165" y1="392.87" y2="392.16" gradientTransform="matrix(1.871,0,0,1.8757,132.75,-332.15)" gradientUnits="userSpaceOnUse" xlink:href="#linearGradient4809"/><linearGradient id="linearGradient7123" x1="-8.2796" x2="-7.4864" y1="428.7" y2="427.91" gradientTransform="matrix(1.871,0,0,1.8757,132.75,-332.15)" gradientUnits="userSpaceOnUse" xlink:href="#linearGradient4809"/><linearGradient id="linearGradient7125" x1="-8.2149" x2="-7.4255" y1="431.85" y2="431.06" gradientTransform="matrix(1.871,0,0,1.8757,132.75,-332.15)" gradientUnits="userSpaceOnUse" xlink:href="#linearGradient4809"/><linearGradient id="linearGradient7127" x1="-8.2909" x2="-7.5052" y1="434.71" y2="433.92" gradientTransform="matrix(1.871,0,0,1.8757,132.75,-332.15)" gradientUnits="userSpaceOnUse" xlink:href="#linearGradient4809"/><linearGradient id="linearGradient7129" x1="-10.391" x2="-9.5999" y1="435.6" y2="434.81" gradientTransform="matrix(1.871,0,0,1.8757,132.75,-332.15)" gradientUnits="userSpaceOnUse" xlink:href="#linearGradient4809"/><linearGradient id="linearGradient7131" x1="-8.8073" x2="-8.0502" y1="440.15" y2="439.39" gradientTransform="matrix(1.871,0,0,1.8757,132.75,-332.15)" gradientUnits="userSpaceOnUse" xlink:href="#linearGradient4809"/><linearGradient id="linearGradient7133" x1="-9.1601" x2="-8.364" y1="442.87" y2="442.07" gradientTransform="matrix(1.871,0,0,1.8757,132.75,-332.15)" gradientUnits="userSpaceOnUse" xlink:href="#linearGradient4809"/><linearGradient id="linearGradient7135" x1="-9.447" x2="-8.6216" y1="445.57" y2="444.74" gradientTransform="matrix(1.871,0,0,1.8757,132.75,-332.15)" gradientUnits="userSpaceOnUse" xlink:href="#linearGradient4809"/><linearGradient id="linearGradient7137" x1="-10.126" x2="-9.2826" y1="447.92" y2="447.08" gradientTransform="matrix(1.871,0,0,1.8757,132.75,-332.15)" gradientUnits="userSpaceOnUse" xlink:href="#linearGradient4809"/><linearGradient id="linearGradient7139" x1="-11.484" x2="-10.654" y1="449.55" y2="448.72" gradientTransform="matrix(1.871,0,0,1.8757,132.75,-332.15)" gradientUnits="userSpaceOnUse" xlink:href="#linearGradient4809"/><linearGradient id="linearGradient7141" x1="-13.047" x2="-12.227" y1="451.05" y2="450.23" gradientTransform="matrix(1.871,0,0,1.8757,132.75,-332.15)" gradientUnits="userSpaceOnUse" xlink:href="#linearGradient4809"/><linearGradient id="linearGradient7143" x1="-16.901" x2="-16.06" y1="450.21" y2="449.37" gradientTransform="matrix(1.871,0,0,1.8757,132.75,-332.15)" gradientUnits="userSpaceOnUse" xlink:href="#linearGradient4809"/><linearGradient id="linearGradient7145" x1="-20.843" x2="-20.141" y1="449.17" y2="448.46" gradientTransform="matrix(1.871,0,0,1.8757,132.75,-332.15)" gradientUnits="userSpaceOnUse" xlink:href="#linearGradient4809"/><linearGradient id="linearGradient7149" x1="-24.7" x2="-23.951" y1="451.34" y2="450.59" gradientTransform="matrix(1.871,0,0,1.8757,132.75,-332.15)" gradientUnits="userSpaceOnUse" xlink:href="#linearGradient4809"/><linearGradient id="linearGradient7151" x1="-26.584" x2="-25.872" y1="452.4" y2="451.68" gradientTransform="matrix(1.871,0,0,1.8757,132.75,-332.15)" gradientUnits="userSpaceOnUse" xlink:href="#linearGradient4809"/><linearGradient id="linearGradient7153" x1="-29.299" x2="-28.622" y1="452.58" y2="451.9" gradientTransform="matrix(1.871,0,0,1.8757,132.75,-332.15)" gradientUnits="userSpaceOnUse" xlink:href="#linearGradient4809"/><linearGradient id="linearGradient7155" x1="-31.836" x2="-31.216" y1="452.97" y2="452.35" gradientTransform="matrix(1.871,0,0,1.8757,132.75,-332.15)" gradientUnits="userSpaceOnUse" xlink:href="#linearGradient4809"/><linearGradient id="linearGradient4811" x1="-22.878" x2="-22.067" y1="450.14" y2="449.33" gradientTransform="matrix(1.871,0,0,1.8757,132.75,-332.15)" gradientUnits="userSpaceOnUse" xlink:href="#linearGradient4809"/><linearGradient id="linearGradient4821" x1="-50.656" x2="-49.84" y1="395.15" y2="394.33" gradientTransform="matrix(1.871,0,0,1.8757,132.75,-332.15)" gradientUnits="userSpaceOnUse" xlink:href="#linearGradient4809"/><linearGradient id="linearGradient4823" x1="-50.956" x2="-50.154" y1="397.92" y2="397.12" gradientTransform="matrix(1.871,0,0,1.8757,132.75,-332.15)" gradientUnits="userSpaceOnUse" xlink:href="#linearGradient4809"/><linearGradient id="linearGradient4825" x1="-50.846" x2="-50.231" y1="400.74" y2="400.12" gradientTransform="matrix(1.871,0,0,1.8757,132.75,-332.15)" gradientUnits="userSpaceOnUse" xlink:href="#linearGradient4809"/><linearGradient id="linearGradient1159" x1="-49.459" x2="-48.656" y1="390.38" y2="389.58" gradientTransform="matrix(1.871,0,0,1.8757,132.75,-332.15)" gradientUnits="userSpaceOnUse" xlink:href="#linearGradient4809"/></defs><path d="m49.741 370.26c-7.9917 0-14.47 6.4949-14.47 14.506 8.84e-4 41.942 0 83.979 0 125.96 0 3.0353 4.8749 8.9655 10.93 8.9655 20.933-0.13344 42.117 0.10404 60.055 0 7.9917 0 14.47-6.4948 14.47-14.506-1e-3 -41.277 0-82.651 0-123.96 0-6.0706-4.8749-10.958-10.93-10.958h-60.055z" fill="#f0f0f0" fill-rule="evenodd" stroke="#e4e4e0" stroke-linejoin="round" stroke-width=".54318"/><path d="m38.027 431.65 1.6155 1.6195" fill="none" stroke="#008000" stroke-linecap="round" stroke-width="1.7485"/><path d="m37.655 439.12 1.6098 1.5516" fill="none" stroke="#008000" stroke-linecap="round" stroke-width="1.7485"/><path d="m38.407 507.84c0 2.9017 4.5467 8.5712 10.195 8.5712 77.624 0 69.508-59.75 69.508-132.38 0-5.8036-4.5467-10.476-10.195-10.476-82.595-0.18063-69.508 63.177-69.508 134.28z" fill="#e6e6e6" fill-rule="evenodd" stroke-width="1.8733"/><g fill="#ccc" fill-rule="evenodd" shape-rendering="auto" stroke-linecap="round" stroke-width=".37604"><path d="m40.427 376.17a0.87327 0.87546 0 0 0 0.02067 1.2382l12.855 12.888a0.87338 0.87558 0 1 0 1.2351 -1.2382l-12.855-12.888a0.87327 0.87546 0 0 0 -1.2558 0z" color="#000000" color-rendering="auto" dominant-baseline="auto" image-rendering="auto" solid-color="#000000" stroke="url(#linearGradient6911)" style="font-feature-settings:normal;font-variant-alternates:normal;font-variant-caps:normal;font-variant-ligatures:normal;font-variant-numeric:normal;font-variant-position:normal;isolation:auto;mix-blend-mode:normal;shape-padding:0;text-decoration-color:#000000;text-decoration-line:none;text-decoration-style:solid;text-indent:0;text-orientation:mixed;text-transform:none;white-space:normal"/><path d="m38.12 379.49a0.87327 0.87546 0 0 0 0.01815 1.2356l12.377 12.408a0.87338 0.87558 0 1 0 1.2351 -1.2382l-12.377-12.408a0.87327 0.87546 0 0 0 -1.2532 2e-3z" color="#000000" color-rendering="auto" dominant-baseline="auto" image-rendering="auto" solid-color="#000000" stroke="url(#linearGradient6913)" style="font-feature-settings:normal;font-variant-alternates:normal;font-variant-caps:normal;font-variant-ligatures:normal;font-variant-numeric:normal;font-variant-position:normal;isolation:auto;mix-blend-mode:normal;shape-padding:0;text-decoration-color:#000000;text-decoration-line:none;text-decoration-style:solid;text-indent:0;text-orientation:mixed;text-transform:none;white-space:normal"/><path d="m37.424 384.42a0.87327 0.87546 0 0 0 0.02067 1.2382l10.574 10.6a0.87339 0.87558 0 1 0 1.2352 -1.2383l-10.574-10.6a0.87327 0.87546 0 0 0 -1.2558 0z" color="#000000" color-rendering="auto" dominant-baseline="auto" image-rendering="auto" solid-color="#000000" stroke="url(#linearGradient6915)" style="font-feature-settings:normal;font-variant-alternates:normal;font-variant-caps:normal;font-variant-ligatures:normal;font-variant-numeric:normal;font-variant-position:normal;isolation:auto;mix-blend-mode:normal;shape-padding:0;text-decoration-color:#000000;text-decoration-line:none;text-decoration-style:solid;text-indent:0;text-orientation:mixed;text-transform:none;white-space:normal"/><path d="m37.292 389.92a0.87327 0.87546 0 0 0 0.01815 1.2356l8.5581 8.5796a0.87338 0.87558 0 1 0 1.2351 -1.2382l-8.5581-8.5796a0.87327 0.87546 0 0 0 -1.2532 2e-3z" color="#000000" color-rendering="auto" dominant-baseline="auto" image-rendering="auto" solid-color="#000000" stroke="url(#linearGradient6917)" style="font-feature-settings:normal;font-variant-alternates:normal;font-variant-caps:normal;font-variant-ligatures:normal;font-variant-numeric:normal;font-variant-position:normal;isolation:auto;mix-blend-mode:normal;shape-padding:0;text-decoration-color:#000000;text-decoration-line:none;text-decoration-style:solid;text-indent:0;text-orientation:mixed;text-transform:none;white-space:normal"/><path d="m36.743 400.61a0.87327 0.87546 0 0 0 0.01553 1.2383l5.5297 5.5436a0.87338 0.87558 0 1 0 1.2351 -1.2382l-5.5297-5.5436a0.87327 0.87546 0 0 0 -1.2507 -2e-5z" color="#000000" color-rendering="auto" dominant-baseline="auto" image-rendering="auto" solid-color="#000000" stroke="url(#linearGradient6968)" style="font-feature-settings:normal;font-variant-alternates:normal;font-variant-caps:normal;font-variant-ligatures:normal;font-variant-numeric:normal;font-variant-position:normal;isolation:auto;mix-blend-mode:normal;shape-padding:0;text-decoration-color:#000000;text-decoration-line:none;text-decoration-style:solid;text-indent:0;text-orientation:mixed;text-transform:none;white-space:normal"/><path d="m36.916 406.41a0.87327 0.87546 0 0 0 0.01815 1.2408l3.6642 3.6734a0.87338 0.87558 0 1 0 1.2351 -1.2382l-3.6642-3.6734a0.87327 0.87546 0 0 0 -1.2532 -2e-3z" color="#000000" color-rendering="auto" dominant-baseline="auto" image-rendering="auto" solid-color="#000000" stroke="url(#linearGradient4821)" style="font-feature-settings:normal;font-variant-alternates:normal;font-variant-caps:normal;font-variant-ligatures:normal;font-variant-numeric:normal;font-variant-position:normal;isolation:auto;mix-blend-mode:normal;shape-padding:0;text-decoration-color:#000000;text-decoration-line:none;text-decoration-style:solid;text-indent:0;text-orientation:mixed;text-transform:none;white-space:normal"/><path d="m37.061 412.18a0.87327 0.87546 0 0 0 0.01815 1.2356l2.2377 2.2433a0.87327 0.87546 0 1 0 1.2326 -1.2356l-2.2377-2.2433a0.87327 0.87546 0 0 0 -1.2507 2e-5z" color="#000000" color-rendering="auto" dominant-baseline="auto" image-rendering="auto" solid-color="#000000" stroke="url(#linearGradient4823)" style="font-feature-settings:normal;font-variant-alternates:normal;font-variant-caps:normal;font-variant-ligatures:normal;font-variant-numeric:normal;font-variant-position:normal;isolation:auto;mix-blend-mode:normal;shape-padding:0;text-decoration-color:#000000;text-decoration-line:none;text-decoration-style:solid;text-indent:0;text-orientation:mixed;text-transform:none;white-space:normal"/><path d="m37.299 418.05a0.87327 0.87546 0 0 0 0.01815 1.2357l0.69251 0.69425a0.87338 0.87558 0 1 0 1.2352 -1.2382l-0.69251-0.69426a0.87327 0.87546 0 0 0 -1.2532 2e-3z" color="#000000" color-rendering="auto" dominant-baseline="auto" image-rendering="auto" solid-color="#000000" stroke="url(#linearGradient4825)" style="font-feature-settings:normal;font-variant-alternates:normal;font-variant-caps:normal;font-variant-ligatures:normal;font-variant-numeric:normal;font-variant-position:normal;isolation:auto;mix-blend-mode:normal;shape-padding:0;text-decoration-color:#000000;text-decoration-line:none;text-decoration-style:solid;text-indent:0;text-orientation:mixed;text-transform:none;white-space:normal"/><path d="m43.541 373.68a0.87327 0.87546 0 0 0 0.02067 1.2383l12.375 12.406a0.87339 0.87558 0 1 0 1.2352 -1.2383l-12.375-12.406a0.87327 0.87546 0 0 0 -1.2558 0z" color="#000000" color-rendering="auto" dominant-baseline="auto" image-rendering="auto" solid-color="#000000" stroke="url(#linearGradient6929)" style="font-feature-settings:normal;font-variant-alternates:normal;font-variant-caps:normal;font-variant-ligatures:normal;font-variant-numeric:normal;font-variant-position:normal;isolation:auto;mix-blend-mode:normal;shape-padding:0;text-decoration-color:#000000;text-decoration-line:none;text-decoration-style:solid;text-indent:0;text-orientation:mixed;text-transform:none;white-space:normal"/><path d="m48.461 372.98a0.87327 0.87546 0 0 0 0.01815 1.2357l10.574 10.6a0.87327 0.87546 0 1 0 1.2326 -1.2356l-10.574-10.6a0.87327 0.87546 0 0 0 -1.2507 0z" color="#000000" color-rendering="auto" dominant-baseline="auto" image-rendering="auto" solid-color="#000000" stroke="url(#linearGradient6931)" style="font-feature-settings:normal;font-variant-alternates:normal;font-variant-caps:normal;font-variant-ligatures:normal;font-variant-numeric:normal;font-variant-position:normal;isolation:auto;mix-blend-mode:normal;shape-padding:0;text-decoration-color:#000000;text-decoration-line:none;text-decoration-style:solid;text-indent:0;text-orientation:mixed;text-transform:none;white-space:normal"/><path d="m53.936 372.83a0.87327 0.87546 0 0 0 0.01553 1.2382l8.5581 8.5796a0.87338 0.87558 0 1 0 1.2351 -1.2382l-8.5581-8.5796a0.87327 0.87546 0 0 0 -1.2507 0z" color="#000000" color-rendering="auto" dominant-baseline="auto" image-rendering="auto" solid-color="#000000" stroke="url(#linearGradient6933)" style="font-feature-settings:normal;font-variant-alternates:normal;font-variant-caps:normal;font-variant-ligatures:normal;font-variant-numeric:normal;font-variant-position:normal;isolation:auto;mix-blend-mode:normal;shape-padding:0;text-decoration-color:#000000;text-decoration-line:none;text-decoration-style:solid;text-indent:0;text-orientation:mixed;text-transform:none;white-space:normal"/><path d="m59.164 372.46a0.87327 0.87546 0 0 0 0.01815 1.2408l6.739 6.7559a0.87338 0.87558 0 1 0 1.2351 -1.2382l-6.739-6.7559a0.87327 0.87546 0 0 0 -1.2532 -2e-3z" color="#000000" color-rendering="auto" dominant-baseline="auto" image-rendering="auto" solid-color="#000000" stroke="url(#linearGradient6935)" style="font-feature-settings:normal;font-variant-alternates:normal;font-variant-caps:normal;font-variant-ligatures:normal;font-variant-numeric:normal;font-variant-position:normal;isolation:auto;mix-blend-mode:normal;shape-padding:0;text-decoration-color:#000000;text-decoration-line:none;text-decoration-style:solid;text-indent:0;text-orientation:mixed;text-transform:none;white-space:normal"/><path d="m64.425 372.1a0.87327 0.87546 0 0 0 0.01553 1.2382l5.5297 5.5436a0.87339 0.87558 0 1 0 1.2352 -1.2382l-5.5297-5.5436a0.87327 0.87546 0 0 0 -1.2507 2e-5z" color="#000000" color-rendering="auto" dominant-baseline="auto" image-rendering="auto" solid-color="#000000" stroke="url(#linearGradient6937)" style="font-feature-settings:normal;font-variant-alternates:normal;font-variant-caps:normal;font-variant-ligatures:normal;font-variant-numeric:normal;font-variant-position:normal;isolation:auto;mix-blend-mode:normal;shape-padding:0;text-decoration-color:#000000;text-decoration-line:none;text-decoration-style:solid;text-indent:0;text-orientation:mixed;text-transform:none;white-space:normal"/><path d="m69.959 372.03a0.87327 0.87546 0 0 0 0.02068 1.2382l3.6642 3.6734a0.87338 0.87558 0 1 0 1.2351 -1.2382l-3.6642-3.6734a0.87327 0.87546 0 0 0 -1.2558 0z" color="#000000" color-rendering="auto" dominant-baseline="auto" image-rendering="auto" solid-color="#000000" stroke="url(#linearGradient6939)" style="font-feature-settings:normal;font-variant-alternates:normal;font-variant-caps:normal;font-variant-ligatures:normal;font-variant-numeric:normal;font-variant-position:normal;isolation:auto;mix-blend-mode:normal;shape-padding:0;text-decoration-color:#000000;text-decoration-line:none;text-decoration-style:solid;text-indent:0;text-orientation:mixed;text-transform:none;white-space:normal"/><path d="m75.655 372.12a0.87327 0.87546 0 0 0 0.01815 1.2357l2.2377 2.2433a0.87339 0.87558 0 1 0 1.2352 -1.2383l-2.2377-2.2433a0.87327 0.87546 0 0 0 -1.2532 2e-3z" color="#000000" color-rendering="auto" dominant-baseline="auto" image-rendering="auto" solid-color="#000000" stroke="url(#linearGradient6941)" style="font-feature-settings:normal;font-variant-alternates:normal;font-variant-caps:normal;font-variant-ligatures:normal;font-variant-numeric:normal;font-variant-position:normal;isolation:auto;mix-blend-mode:normal;shape-padding:0;text-decoration-color:#000000;text-decoration-line:none;text-decoration-style:solid;text-indent:0;text-orientation:mixed;text-transform:none;white-space:normal"/><path d="m81.378 372.23a0.87327 0.87546 0 0 0 0.02067 1.2382l0.69251 0.69426a0.87338 0.87558 0 1 0 1.2351 -1.2382l-0.69251-0.69425a0.87327 0.87546 0 0 0 -1.2558 0z" color="#000000" color-rendering="auto" dominant-baseline="auto" image-rendering="auto" solid-color="#000000" stroke="url(#linearGradient6943)" style="font-feature-settings:normal;font-variant-alternates:normal;font-variant-caps:normal;font-variant-ligatures:normal;font-variant-numeric:normal;font-variant-position:normal;isolation:auto;mix-blend-mode:normal;shape-padding:0;text-decoration-color:#000000;text-decoration-line:none;text-decoration-style:solid;text-indent:0;text-orientation:mixed;text-transform:none;white-space:normal"/><path d="m115.57 513.81a0.87327 0.87546 0 0 0 -0.0207 -1.2382l-12.855-12.888a0.87338 0.87558 0 1 0 -1.2351 1.2382l12.855 12.888a0.87327 0.87546 0 0 0 1.2558 0z" color="#000000" color-rendering="auto" dominant-baseline="auto" image-rendering="auto" solid-color="#000000" stroke="url(#linearGradient7139)" style="font-feature-settings:normal;font-variant-alternates:normal;font-variant-caps:normal;font-variant-ligatures:normal;font-variant-numeric:normal;font-variant-position:normal;isolation:auto;mix-blend-mode:normal;shape-padding:0;text-decoration-color:#000000;text-decoration-line:none;text-decoration-style:solid;text-indent:0;text-orientation:mixed;text-transform:none;white-space:normal"/><path d="m117.88 510.51a0.87327 0.87546 0 0 0 -0.0181 -1.2356l-12.377-12.408a0.87338 0.87558 0 1 0 -1.2351 1.2382l12.377 12.408a0.87327 0.87546 0 0 0 1.2532 -2e-3z" color="#000000" color-rendering="auto" dominant-baseline="auto" image-rendering="auto" solid-color="#000000" stroke="url(#linearGradient7137)" style="font-feature-settings:normal;font-variant-alternates:normal;font-variant-caps:normal;font-variant-ligatures:normal;font-variant-numeric:normal;font-variant-position:normal;isolation:auto;mix-blend-mode:normal;shape-padding:0;text-decoration-color:#000000;text-decoration-line:none;text-decoration-style:solid;text-indent:0;text-orientation:mixed;text-transform:none;white-space:normal"/><path d="m118.58 505.58a0.87327 0.87546 0 0 0 -0.0207 -1.2383l-10.574-10.6a0.87338 0.87558 0 1 0 -1.2352 1.2382l10.574 10.6a0.87327 0.87546 0 0 0 1.2558 0z" color="#000000" color-rendering="auto" dominant-baseline="auto" image-rendering="auto" solid-color="#000000" stroke="url(#linearGradient7135)" style="font-feature-settings:normal;font-variant-alternates:normal;font-variant-caps:normal;font-variant-ligatures:normal;font-variant-numeric:normal;font-variant-position:normal;isolation:auto;mix-blend-mode:normal;shape-padding:0;text-decoration-color:#000000;text-decoration-line:none;text-decoration-style:solid;text-indent:0;text-orientation:mixed;text-transform:none;white-space:normal"/><path d="m118.71 500.08a0.87327 0.87546 0 0 0 -0.0181 -1.2356l-8.5581-8.5796a0.87338 0.87558 0 1 0 -1.2351 1.2382l8.5581 8.5796a0.87327 0.87546 0 0 0 1.2532 -2e-3z" color="#000000" color-rendering="auto" dominant-baseline="auto" image-rendering="auto" solid-color="#000000" stroke="url(#linearGradient7133)" style="font-feature-settings:normal;font-variant-alternates:normal;font-variant-caps:normal;font-variant-ligatures:normal;font-variant-numeric:normal;font-variant-position:normal;isolation:auto;mix-blend-mode:normal;shape-padding:0;text-decoration-color:#000000;text-decoration-line:none;text-decoration-style:solid;text-indent:0;text-orientation:mixed;text-transform:none;white-space:normal"/><path d="m118.85 494.6a0.87327 0.87546 0 0 0 -0.0181 -1.2408l-6.739-6.7559a0.87339 0.87558 0 1 0 -1.2352 1.2382l6.739 6.7559a0.87327 0.87546 0 0 0 1.2532 2e-3z" color="#000000" color-rendering="auto" dominant-baseline="auto" image-rendering="auto" solid-color="#000000" stroke="url(#linearGradient7131)" style="font-feature-settings:normal;font-variant-alternates:normal;font-variant-caps:normal;font-variant-ligatures:normal;font-variant-numeric:normal;font-variant-position:normal;isolation:auto;mix-blend-mode:normal;shape-padding:0;text-decoration-color:#000000;text-decoration-line:none;text-decoration-style:solid;text-indent:0;text-orientation:mixed;text-transform:none;white-space:normal"/><path d="m119.26 489.39a0.87327 0.87546 0 0 0 -0.0155 -1.2382l-5.5297-5.5436a0.87338 0.87558 0 1 0 -1.2352 1.2382l5.5297 5.5436a0.87327 0.87546 0 0 0 1.2507 0z" color="#000000" color-rendering="auto" dominant-baseline="auto" image-rendering="auto" solid-color="#000000" stroke="url(#linearGradient7129)" style="font-feature-settings:normal;font-variant-alternates:normal;font-variant-caps:normal;font-variant-ligatures:normal;font-variant-numeric:normal;font-variant-position:normal;isolation:auto;mix-blend-mode:normal;shape-padding:0;text-decoration-color:#000000;text-decoration-line:none;text-decoration-style:solid;text-indent:0;text-orientation:mixed;text-transform:none;white-space:normal"/><path d="m119.09 483.59a0.87327 0.87546 0 0 0 -0.0181 -1.2408l-3.6642-3.6734a0.87338 0.87558 0 1 0 -1.2351 1.2382l3.6642 3.6734a0.87327 0.87546 0 0 0 1.2532 2e-3z" color="#000000" color-rendering="auto" dominant-baseline="auto" image-rendering="auto" solid-color="#000000" stroke="url(#linearGradient7127)" style="font-feature-settings:normal;font-variant-alternates:normal;font-variant-caps:normal;font-variant-ligatures:normal;font-variant-numeric:normal;font-variant-position:normal;isolation:auto;mix-blend-mode:normal;shape-padding:0;text-decoration-color:#000000;text-decoration-line:none;text-decoration-style:solid;text-indent:0;text-orientation:mixed;text-transform:none;white-space:normal"/><path d="m118.94 477.81a0.87327 0.87546 0 0 0 -0.0181 -1.2356l-2.2377-2.2433a0.87327 0.87546 0 1 0 -1.2326 1.2356l2.2377 2.2433a0.87327 0.87546 0 0 0 1.2506 0z" color="#000000" color-rendering="auto" dominant-baseline="auto" image-rendering="auto" solid-color="#000000" stroke="url(#linearGradient7125)" style="font-feature-settings:normal;font-variant-alternates:normal;font-variant-caps:normal;font-variant-ligatures:normal;font-variant-numeric:normal;font-variant-position:normal;isolation:auto;mix-blend-mode:normal;shape-padding:0;text-decoration-color:#000000;text-decoration-line:none;text-decoration-style:solid;text-indent:0;text-orientation:mixed;text-transform:none;white-space:normal"/><path d="m118.7 471.94a0.87327 0.87546 0 0 0 -0.0181 -1.2356l-0.69251-0.69425a0.87338 0.87558 0 1 0 -1.2351 1.2383l0.69251 0.69425a0.87327 0.87546 0 0 0 1.2532 -2e-3z" color="#000000" color-rendering="auto" dominant-baseline="auto" image-rendering="auto" solid-color="#000000" stroke="url(#linearGradient7123)" style="font-feature-settings:normal;font-variant-alternates:normal;font-variant-caps:normal;font-variant-ligatures:normal;font-variant-numeric:normal;font-variant-position:normal;isolation:auto;mix-blend-mode:normal;shape-padding:0;text-decoration-color:#000000;text-decoration-line:none;text-decoration-style:solid;text-indent:0;text-orientation:mixed;text-transform:none;white-space:normal"/><path d="m112.46 516.32a0.87327 0.87546 0 0 0 -0.0207 -1.2382l-12.375-12.406a0.87338 0.87558 0 1 0 -1.2352 1.2382l12.375 12.406a0.87327 0.87546 0 0 0 1.2558 0z" color="#000000" color-rendering="auto" dominant-baseline="auto" image-rendering="auto" solid-color="#000000" stroke="url(#linearGradient7141)" style="font-feature-settings:normal;font-variant-alternates:normal;font-variant-caps:normal;font-variant-ligatures:normal;font-variant-numeric:normal;font-variant-position:normal;isolation:auto;mix-blend-mode:normal;shape-padding:0;text-decoration-color:#000000;text-decoration-line:none;text-decoration-style:solid;text-indent:0;text-orientation:mixed;text-transform:none;white-space:normal"/><path d="m107.54 517.02a0.87327 0.87546 0 0 0 -0.0181 -1.2356l-10.574-10.6a0.87327 0.87546 0 1 0 -1.2326 1.2356l10.574 10.6a0.87327 0.87546 0 0 0 1.2506 0z" color="#000000" color-rendering="auto" dominant-baseline="auto" image-rendering="auto" solid-color="#000000" stroke="url(#linearGradient7143)" style="font-feature-settings:normal;font-variant-alternates:normal;font-variant-caps:normal;font-variant-ligatures:normal;font-variant-numeric:normal;font-variant-position:normal;isolation:auto;mix-blend-mode:normal;shape-padding:0;text-decoration-color:#000000;text-decoration-line:none;text-decoration-style:solid;text-indent:0;text-orientation:mixed;text-transform:none;white-space:normal"/><path d="m102.07 517.15a0.87327 0.87546 0 0 0 -0.0155 -1.2382l-8.5581-8.5796a0.87338 0.87558 0 1 0 -1.2351 1.2382l8.5581 8.5796a0.87327 0.87546 0 0 0 1.2506 0z" color="#000000" color-rendering="auto" dominant-baseline="auto" image-rendering="auto" solid-color="#000000" stroke="url(#linearGradient7145)" style="font-feature-settings:normal;font-variant-alternates:normal;font-variant-caps:normal;font-variant-ligatures:normal;font-variant-numeric:normal;font-variant-position:normal;isolation:auto;mix-blend-mode:normal;shape-padding:0;text-decoration-color:#000000;text-decoration-line:none;text-decoration-style:solid;text-indent:0;text-orientation:mixed;text-transform:none;white-space:normal"/><path d="m96.838 517.54a0.87327 0.87546 0 0 0 -0.01815 -1.2408l-6.739-6.7559a0.87338 0.87558 0 1 0 -1.2351 1.2382l6.739 6.7559a0.87327 0.87546 0 0 0 1.2532 2e-3z" color="#000000" color-rendering="auto" dominant-baseline="auto" image-rendering="auto" solid-color="#000000" stroke="url(#linearGradient4811)" style="font-feature-settings:normal;font-variant-alternates:normal;font-variant-caps:normal;font-variant-ligatures:normal;font-variant-numeric:normal;font-variant-position:normal;isolation:auto;mix-blend-mode:normal;shape-padding:0;text-decoration-color:#000000;text-decoration-line:none;text-decoration-style:solid;text-indent:0;text-orientation:mixed;text-transform:none;white-space:normal"/><path d="m91.577 517.9a0.87327 0.87546 0 0 0 -0.01553 -1.2382l-5.5297-5.5436a0.87339 0.87558 0 1 0 -1.2352 1.2383l5.5297 5.5436a0.87327 0.87546 0 0 0 1.2507 -2e-5z" color="#000000" color-rendering="auto" dominant-baseline="auto" image-rendering="auto" solid-color="#000000" stroke="url(#linearGradient7149)" style="font-feature-settings:normal;font-variant-alternates:normal;font-variant-caps:normal;font-variant-ligatures:normal;font-variant-numeric:normal;font-variant-position:normal;isolation:auto;mix-blend-mode:normal;shape-padding:0;text-decoration-color:#000000;text-decoration-line:none;text-decoration-style:solid;text-indent:0;text-orientation:mixed;text-transform:none;white-space:normal"/><path d="m86.042 517.97a0.87327 0.87546 0 0 0 -0.02067 -1.2382l-3.6642-3.6734a0.87338 0.87558 0 1 0 -1.2351 1.2382l3.6642 3.6734a0.87327 0.87546 0 0 0 1.2558 0z" color="#000000" color-rendering="auto" dominant-baseline="auto" image-rendering="auto" solid-color="#000000" stroke="url(#linearGradient7151)" style="font-feature-settings:normal;font-variant-alternates:normal;font-variant-caps:normal;font-variant-ligatures:normal;font-variant-numeric:normal;font-variant-position:normal;isolation:auto;mix-blend-mode:normal;shape-padding:0;text-decoration-color:#000000;text-decoration-line:none;text-decoration-style:solid;text-indent:0;text-orientation:mixed;text-transform:none;white-space:normal"/><path d="m80.329 516.64-2.2377-2.2433c-0.82343-0.8256-2.0586 0.41265-1.2352 1.2382l2.2377 2.2433c0.99894 0.99894 2.0443-0.4291 1.2352-1.2382z" color="#000000" color-rendering="auto" dominant-baseline="auto" image-rendering="auto" solid-color="#000000" stroke="url(#linearGradient7153)" style="font-feature-settings:normal;font-variant-alternates:normal;font-variant-caps:normal;font-variant-ligatures:normal;font-variant-numeric:normal;font-variant-position:normal;isolation:auto;mix-blend-mode:normal;shape-padding:0;text-decoration-color:#000000;text-decoration-line:none;text-decoration-style:solid;text-indent:0;text-orientation:mixed;text-transform:none;white-space:normal"/><path d="m74.624 517.77a0.87327 0.87546 0 0 0 -0.02067 -1.2382l-0.69251-0.69423a0.87338 0.87558 0 1 0 -1.2351 1.2382l0.69251 0.69425a0.87327 0.87546 0 0 0 1.2558 0z" color="#000000" color-rendering="auto" dominant-baseline="auto" image-rendering="auto" solid-color="#000000" stroke="url(#linearGradient7155)" style="font-feature-settings:normal;font-variant-alternates:normal;font-variant-caps:normal;font-variant-ligatures:normal;font-variant-numeric:normal;font-variant-position:normal;isolation:auto;mix-blend-mode:normal;shape-padding:0;text-decoration-color:#000000;text-decoration-line:none;text-decoration-style:solid;text-indent:0;text-orientation:mixed;text-transform:none;white-space:normal"/></g><g stroke-width=".80647px"><path d="m71.544 455.84h2.1607v0.52775h-2.8249v-0.52775l1.7227-2.0011q0.54016-0.64502 0.54016-1.2021 0-0.43247-0.26644-0.71467-0.26644-0.28218-0.6971-0.28218h-0.01458q-0.32117 0-0.54747 0.19057-0.22628 0.19057-0.24088 0.43979h-0.51827q0.0073-0.45445 0.40878-0.78795 0.40149-0.33353 0.89785-0.33353 0.67886 0 1.0913 0.38849 0.41244 0.38849 0.41242 1.0555v0.022q0 0.74765-0.51098 1.3634z"/><path d="m76.859 453.89q0-2.199-1.0147-2.199-1.0147 0-1.0147 2.199 0 2.199 1.0147 2.199 1.0147 0 1.0147-2.199zm-1.0147-2.6681q0.74457 0 1.1497 0.68169 0.40513 0.68167 0.40513 1.9864 0 1.2974-0.40149 1.9643-0.40149 0.667-1.1533 0.667-0.75186 0-1.146-0.66334-0.39418-0.66335-0.39418-1.9681t0.39418-1.9865q0.39418-0.68168 1.146-0.68168z"/><path d="m78.764 451.15h2.0074l-0.11679 0.52042h-1.5548l-0.38688 1.312q0.20439-0.0439 0.41609-0.0586 0.73726 0 1.1825 0.46178 0.44527 0.46179 0.44527 1.2754 0 0.82094-0.44893 1.2644-0.44893 0.44347-1.2665 0.44347-0.64237 0-1.1679-0.57174l0.29199-0.41047q0.40149 0.48378 0.86136 0.50576 0.55476 0 0.87596-0.32616 0.32117-0.32619 0.32117-0.90525 0-0.57172-0.32484-0.90522-0.32484-0.3335-0.87229-0.3335-0.45258 0-0.97814 0.2712z"/><path d="m81.727 451.24h0.55476v2.1182h2.2994v-2.1182h0.56207v5.131h-0.56207v-2.4775h-2.2994v2.4775h-0.55476z"/></g><path class="st1" d="m79.827 445.78c0 1.4714-1.1741 2.6669-2.6052 2.6669-1.431 0-2.6052-1.1955-2.6052-2.6669v-2.2621s1.2475 0.31268 1.2475 1.6369v0.6253c0 0.80925 0.6054 1.453 1.3576 1.453 0.75218 0 1.3576-0.64374 1.3576-1.453v-1.3058 0.0169c0.05503-1.1035 0.99068-1.453 1.2292-1.5817h0.01834v2.8691zm-6.6961-2.6485c0.34857 0 0.6788 0.0552 0.97232 0.18401v1.3978c-0.25685-0.22062-0.60542-0.34945-0.97232-0.34945-0.82556 0-1.486 0.64371-1.486 1.453v2.6301h-1.2475v-4.8187s0.51366 0.0169 0.8439 0.25753c0.47699-0.47819 1.1558-0.75405 1.8895-0.75405m-5.9807 4.1198c-0.82556 0-1.5044-0.6621-1.5044-1.4714 0-0.80924 0.6788-1.4713 1.5044-1.4713s1.5043 0.66208 1.5043 1.4713c0 0.80925-0.67878 1.4714-1.5043 1.4714m0-4.1198c-1.5044 0-2.7152 1.1955-2.7152 2.6485 0 1.4714 1.2108 2.6485 2.7152 2.6485 0.62375 0 1.1925-0.20244 1.6511-0.55174 0.27519 0.45981 1.0641 0.55174 1.0641 0.55174v-2.6485c0-1.4529-1.2108-2.6485-2.7152-2.6485m21.704 4.1198c-0.82556 0-1.5044-0.6621-1.5044-1.4714 0-0.80924 0.6788-1.4713 1.5044-1.4713s1.5044 0.66208 1.5044 1.4713c0 0.80925-0.6788 1.4714-1.5044 1.4714m0-4.1198c-1.5044 0-2.7152 1.1955-2.7152 2.6485 0 1.4714 1.2108 2.6485 2.7152 2.6485 0.62375 0 1.1925-0.20244 1.6511-0.55174 0.27519 0.45981 1.064 0.55174 1.064 0.55174v-2.6485c0-1.4529-1.2108-2.6485-2.7152-2.6485m-5.7606 4.1198c-0.82556 0-1.5044-0.6621-1.5044-1.4714 0-0.80924 0.6788-1.4713 1.5044-1.4713s1.5044 0.66208 1.5044 1.4713c0.01834 0.80925-0.66044 1.4714-1.5044 1.4714m0-4.1198c-0.55037 0-1.064 0.16544-1.5044 0.44141v-0.42304c-0.05503-1.1035-0.95398-1.453-1.1925-1.5817h-0.01833v6.8786s0.8072-0.0921 1.1191-0.53337c0.45866 0.31268 1.009 0.51497 1.5961 0.51497 1.5044 0 2.7152-1.1955 2.7152-2.6485 0.01833-1.4529-1.2108-2.6485-2.7152-2.6485" stroke-width="1.24"/><path d="m41.223 434.76 0.35534-0.9526c0.01907-0.0496 0.01104-0.0614-0.04249-0.0614l-0.50322-6e-3 1.1349-1.327-0.41722 0.88414c-0.03847 0.0509 0.01762 0.0704 0.01907 0.0762 0.1337-1.1e-4 0.25428 2.3e-4 0.37742 3.4e-4 0.05189 2.7e-4 0.08388 0.0528 0.02127 0.11846z" fill="#333" stroke-width=".19899"/><path d="m41.004 440.19h-0.27907v-0.35006h0.27907zm0 1.7076h-0.27907v-0.90271l0.0275-0.49201h0.2227l0.02887 0.49201z" fill="#333" stroke-width=".015661px"/><g transform="matrix(1.8829 0 0 1.8829 -30.539 -303.5)" letter-spacing="-.0043698px" stroke-width=".010924px" word-spacing="0px"><g aria-label="E0/PT"><path d="m41.546 431.47h0.90639v0.16322h-0.71244v0.42439h0.68267v0.16323h-0.68267v0.51944h0.72972v0.16323h-0.92367z"/><path d="m43.218 431.6q-0.14978 0-0.22564 0.14786-0.07489 0.14691-0.07489 0.44263 0 0.29477 0.07489 0.44264 0.07585 0.1469 0.22564 0.1469 0.15074 0 0.22564-0.1469 0.07585-0.14787 0.07585-0.44264 0-0.29572-0.07585-0.44263-0.07489-0.14786-0.22564-0.14786zm0-0.15363q0.241 0 0.36774 0.19107 0.1277 0.19012 0.1277 0.55305 0 0.36198-0.1277 0.55305-0.12674 0.19012-0.36774 0.19012t-0.3687-0.19012q-0.12674-0.19107-0.12674-0.55305 0-0.36293 0.12674-0.55305 0.1277-0.19107 0.3687-0.19107z"/><path d="m44.34 431.47h0.16323l-0.49928 1.6159h-0.16323z"/><path d="m44.888 431.63v0.53865h0.24388q0.13538 0 0.20931-0.0701t0.07393-0.19971q0-0.12866-0.07393-0.19875-0.07393-0.0701-0.20931-0.0701zm-0.19395-0.15938h0.43783q0.241 0 0.3639 0.10946 0.12386 0.10849 0.12386 0.31877 0 0.21219-0.12386 0.32069-0.1229 0.1085-0.3639 0.1085h-0.24388v0.57609h-0.19395z"/><path d="m45.677 431.47h1.2127v0.16322h-0.50888v1.2703h-0.19491v-1.2703h-0.50888z"/></g><g aria-label="E1"><path d="m52.645 431.66h0.90639v0.16323h-0.71244v0.42439h0.68267v0.16322h-0.68267v0.51945h0.72972v0.16323h-0.92367z"/><path d="m53.936 432.93h0.31685v-1.0936l-0.3447 0.0691v-0.17667l0.34278-0.0691h0.19395v1.2703h0.31685v0.16323h-0.82573z"/></g><g aria-label="E2"><path d="m62.138 431.66h0.90639v0.16323h-0.71244v0.42439h0.68267v0.16322h-0.68267v0.51945h0.72972v0.16323h-0.92367z"/><path d="m63.562 432.93h0.67691v0.16323h-0.91023v-0.16323q0.11042-0.11426 0.30053-0.30629 0.19107-0.19299 0.24004-0.24868 0.09314-0.10466 0.12962-0.17667 0.03745-0.073 0.03745-0.14306 0-0.11426-0.08065-0.18627-0.07969-0.072-0.20835-0.072-0.09122 0-0.19299 0.0317-0.10082 0.0317-0.21604 0.096v-0.19587q0.11714-0.047 0.21892-0.0711 0.10178-0.024 0.18627-0.024 0.22276 0 0.35526 0.11138 0.1325 0.11137 0.1325 0.29764 0 0.0883-0.03361 0.16803-0.03265 0.0787-0.12002 0.18627-0.024 0.0279-0.15266 0.16131-0.12866 0.1325-0.36294 0.37158z"/></g><g aria-label="E3"><path d="m71.604 431.63h0.90639v0.16323h-0.71244v0.42438h0.68267v0.16323h-0.68267v0.51945h0.72972v0.16322h-0.92367z"/><path d="m73.449 432.29q0.13922 0.0298 0.217 0.12386 0.07873 0.0941 0.07873 0.23235 0 0.2122-0.14594 0.32838t-0.41479 0.11618q-0.09025 0-0.18627-0.0183-0.09506-0.0173-0.19683-0.0528v-0.18723q0.08065 0.047 0.17667 0.0711 0.09602 0.024 0.20067 0.024 0.18243 0 0.27748-0.072 0.09602-0.072 0.09602-0.20932 0-0.12674-0.08929-0.19779-0.08834-0.072-0.24676-0.072h-0.16707v-0.15939h0.17475q0.14306 0 0.21892-0.0566 0.07585-0.0576 0.07585-0.16515 0-0.11042-0.07873-0.16899-0.07777-0.0595-0.22372-0.0595-0.07969 0-0.17091 0.0173-0.09121 0.0173-0.20067 0.0538v-0.17282q0.11042-0.0307 0.20643-0.0461 0.09698-0.0154 0.18243-0.0154 0.22084 0 0.3495 0.10081 0.12866 0.0999 0.12866 0.27077 0 0.11905-0.06817 0.20163-0.06817 0.0816-0.19395 0.1133z"/></g></g><g transform="matrix(1.8829 0 0 1.8829 -30.899 -311.3)" font-size="1.9664px" letter-spacing="-.0043698px" stroke-width=".010924px" word-spacing="0px"><g aria-label="E0"><path d="m68.917 399.89h0.90639v0.16322h-0.71244v0.42439h0.68267v0.16323h-0.68267v0.51944h0.72972v0.16323h-0.92367z"/><path d="m70.589 400.02q-0.14978 0-0.22564 0.14786-0.07489 0.14691-0.07489 0.44263 0 0.29477 0.07489 0.44264 0.07585 0.1469 0.22564 0.1469 0.15074 0 0.22564-0.1469 0.07585-0.14787 0.07585-0.44264 0-0.29572-0.07585-0.44263-0.07489-0.14786-0.22564-0.14786zm0-0.15363q0.241 0 0.36774 0.19107 0.1277 0.19011 0.1277 0.55305 0 0.36198-0.1277 0.55305-0.12674 0.19012-0.36774 0.19012t-0.3687-0.19012q-0.12674-0.19107-0.12674-0.55305 0-0.36294 0.12674-0.55305 0.1277-0.19107 0.3687-0.19107z"/></g><g aria-label="PT"><path d="m44.844 400.08v0.53864h0.24388q0.13538 0 0.20931-0.0701t0.07393-0.19971q0-0.12866-0.07393-0.19875-0.07393-0.0701-0.20931-0.0701zm-0.19395-0.15939h0.43783q0.241 0 0.3639 0.10946 0.12386 0.10849 0.12386 0.31877 0 0.21219-0.12386 0.32069-0.1229 0.1085-0.3639 0.1085h-0.24388v0.57609h-0.19395z"/><path d="m45.633 399.92h1.2127v0.16323h-0.50888v1.2703h-0.19491v-1.2703h-0.50888z"/></g></g><circle cx="40.865" cy="440.86" r="1.7263" fill="none" opacity=".99" stroke="#333" stroke-width=".179"/><circle cx="41.611" cy="433.59" r="1.7263" fill="none" opacity=".99" stroke="#333" stroke-width=".179"/><path d="m37.175 396.64 6.739 6.7559c0.82344 0.82747 2.0606-0.41277 1.2351-1.2383l-6.739-6.7559c-0.99118-0.87488-2.0054 0.53681-1.2351 1.2383z" color="#000000" color-rendering="auto" dominant-baseline="auto" fill="#ccc" fill-rule="evenodd" image-rendering="auto" shape-rendering="auto" solid-color="#000000" stroke="url(#linearGradient1159)" stroke-linecap="round" stroke-width=".37604" style="font-feature-settings:normal;font-variant-alternates:normal;font-variant-caps:normal;font-variant-ligatures:normal;font-variant-numeric:normal;font-variant-position:normal;isolation:auto;mix-blend-mode:normal;shape-padding:0;text-decoration-color:#000000;text-decoration-line:none;text-decoration-style:solid;text-indent:0;text-orientation:mixed;text-transform:none;white-space:normal"/></svg>
