<svg width="318" height="44" version="1.1" viewBox="37.333333 394.66667 168.88571 14.280546" xmlns="http://www.w3.org/2000/svg"><rect x="37.333" y="390.12" width="168.89" height="23.368" fill="#5d6a6f" stroke-width=".93317"/><g transform="matrix(.82149 0 0 1.0458 -17.532 321.24)"><rect x="66.906" y="76.286" width="205.35" height="11.839" fill="#687174"/><rect x="66.906" y="76.286" width="205.35" height="11.839" fill="none" stroke="#687174" stroke-width=".2"/></g><g transform="matrix(1.1373 0 0 1.0432 -71.772 321.45)"><rect x="111" y="71.232" width="54.056" height="15.757" fill="none" stroke="#434b4d" stroke-width=".2"/><rect x="111" y="71.232" width="54.054" height="15.757" rx=".6" ry=".6" fill="#687174"/><rect x="111" y="71.232" width="54.054" height="15.757" rx=".6" ry=".6" fill="none" stroke="#525a5d" stroke-linejoin="round" stroke-width=".2"/></g><g transform="matrix(1.1373 0 0 1.0432 -104.41 321.45)"><rect x="246.82" y="68.947" width="16.659" height="5.1486" fill="#3c584c"/><rect x="246.82" y="68.947" width="16.659" height="5.1486" fill="none" stroke="#7f7f7f" stroke-width=".2"/></g><g transform="matrix(1.1373 0 0 1.0432 -38.647 321.45)"><rect x="67.309" y="76.381" width="1.62" height="10.608" fill="#434b4d"/><rect x="67.309" y="76.381" width="1.62" height="10.608" fill="none" stroke="#434b4d" stroke-width=".2"/><rect x="67.495" y="76.563" width="1.4341" height="10.426" rx=".6" ry=".6" fill="#687174"/><rect x="67.495" y="76.563" width="1.4341" height="10.426" rx=".6" ry=".6" fill="none" stroke="#525a5d" stroke-linejoin="round" stroke-width=".2"/></g><g transform="matrix(1.1373 0 0 1.0432 -38.647 321.45)"><rect x="69.738" y="76.381" width="1.62" height="10.608" fill="#434b4d"/><rect x="69.738" y="76.381" width="1.62" height="10.608" fill="none" stroke="#434b4d" stroke-width=".2"/><rect x="69.924" y="76.563" width="1.4341" height="10.426" rx=".6" ry=".6" fill="#687174"/><rect x="69.924" y="76.563" width="1.4341" height="10.426" rx=".6" ry=".6" fill="none" stroke="#525a5d" stroke-linejoin="round" stroke-width=".2"/></g><g transform="matrix(1.1373 0 0 1.0432 -38.647 321.45)"><rect x="72.166" y="76.381" width="1.62" height="10.608" fill="#434b4d"/><rect x="72.166" y="76.381" width="1.62" height="10.608" fill="none" stroke="#434b4d" stroke-width=".2"/><rect x="72.352" y="76.563" width="1.4341" height="10.426" rx=".6" ry=".6" fill="#687174"/><rect x="72.352" y="76.563" width="1.4341" height="10.426" rx=".6" ry=".6" fill="none" stroke="#525a5d" stroke-linejoin="round" stroke-width=".2"/></g><g transform="matrix(1.1373 0 0 1.0432 -38.647 321.45)"><rect x="74.594" y="76.381" width="1.62" height="10.608" fill="#434b4d"/><rect x="74.594" y="76.381" width="1.62" height="10.608" fill="none" stroke="#434b4d" stroke-width=".2"/><rect x="74.78" y="76.563" width="1.4341" height="10.426" rx=".6" ry=".6" fill="#687174"/><rect x="74.78" y="76.563" width="1.4341" height="10.426" rx=".6" ry=".6" fill="none" stroke="#525a5d" stroke-linejoin="round" stroke-width=".2"/></g><g transform="matrix(1.1373 0 0 1.0432 -38.647 321.45)"><rect x="77.023" y="76.381" width="1.62" height="10.608" fill="#434b4d"/><rect x="77.023" y="76.381" width="1.62" height="10.608" fill="none" stroke="#434b4d" stroke-width=".2"/><rect x="77.209" y="76.563" width="1.4341" height="10.426" rx=".6" ry=".6" fill="#687174"/><rect x="77.209" y="76.563" width="1.4341" height="10.426" rx=".6" ry=".6" fill="none" stroke="#525a5d" stroke-linejoin="round" stroke-width=".2"/></g><g transform="matrix(1.1373 0 0 1.0432 -38.647 321.45)"><rect x="79.451" y="76.381" width="1.62" height="10.608" fill="#434b4d"/><rect x="79.451" y="76.381" width="1.62" height="10.608" fill="none" stroke="#434b4d" stroke-width=".2"/><rect x="79.637" y="76.563" width="1.4341" height="10.426" rx=".6" ry=".6" fill="#687174"/><rect x="79.637" y="76.563" width="1.4341" height="10.426" rx=".6" ry=".6" fill="none" stroke="#525a5d" stroke-linejoin="round" stroke-width=".2"/></g><g transform="matrix(.73934 0 0 1.0436 -36.77 321.42)"><rect x="208.17" y="76.381" width="2.8103" height="10.608" fill="#434b4d"/><rect x="208.17" y="76.381" width="2.8103" height="10.608" fill="none" stroke="#434b4d" stroke-width=".2"/><rect x="208.51" y="76.744" width="2.4642" height="10.245" rx=".6" ry=".6" fill="#687174"/><rect x="208.31" y="76.567" width="2.6643" height="10.422" rx=".6" ry=".6" fill="none" stroke="#525a5d" stroke-linejoin="round" stroke-width=".2"/></g><g transform="matrix(1.1373 0 0 1.0432 -104.41 321.45)"><rect x="270.95" y="76.421" width="1.62" height="10.608" fill="#434b4d"/><rect x="270.95" y="76.421" width="1.62" height="10.608" fill="none" stroke="#434b4d" stroke-width=".2"/><rect x="271.13" y="76.603" width="1.4341" height="10.426" rx=".6" ry=".6" fill="#687174"/><rect x="271.13" y="76.603" width="1.4341" height="10.426" rx=".6" ry=".6" fill="none" stroke="#525a5d" stroke-linejoin="round" stroke-width=".2"/></g><g transform="matrix(1.1373 0 0 1.0432 -120.25 321.45)"><rect x="211.6" y="76.381" width="20.144" height="10.573" fill="#434b4d"/><rect x="211.6" y="76.381" width="20.228" height="10.608" fill="none" stroke="#434b4d" stroke-width=".2"/><rect x="211.89" y="76.563" width="19.527" height="10.419" rx=".6" ry=".6" fill="#687174"/><rect x="211.6" y="76.563" width="20.003" height="10.426" rx=".6" ry=".6" fill="none" stroke="#525a5d" stroke-linejoin="round" stroke-width=".2"/></g><g transform="matrix(1.1373 0 0 1.0432 -104.41 321.45)"><rect x="241.91" y="76.381" width="28.104" height="10.608" fill="#434b4d"/><rect x="241.91" y="76.381" width="28.104" height="10.608" fill="none" stroke="#434b4d" stroke-width=".2"/><rect x="241.91" y="76.563" width="28.017" height="10.426" rx=".6" ry=".6" fill="#687174"/><rect x="241.91" y="76.563" width="28.017" height="10.426" rx=".6" ry=".6" fill="none" stroke="#525a5d" stroke-linejoin="round" stroke-width=".2"/></g><g transform="matrix(1.1373 0 0 1.0432 -121.86 321.45)"><rect x="214" y="80.049" width="6.9545" height="4.596"/><rect x="214" y="80.049" width="6.9545" height="4.596" fill="none" stroke="#7f7f7f" stroke-width=".2"/><polygon points="215.6 80.249 214.2 80.249 214.2 84.356 220.67 84.308 220.62 80.249"/><polygon points="215.6 80.249 214.2 80.249 214.2 84.356 220.67 84.308 220.62 80.249" fill="none" stroke="#7f7f7f" stroke-width=".1"/></g><g transform="matrix(1.1373 0 0 1.0432 -117.42 321.45)"><rect x="221.24" y="80.049" width="6.9545" height="4.596"/><rect x="221.24" y="80.049" width="6.9545" height="4.596" fill="none" stroke="#7f7f7f" stroke-width=".2"/><polygon points="222.84 80.249 221.44 80.249 221.44 84.356 227.9 84.308 227.86 80.249"/><polygon points="222.84 80.249 221.44 80.249 221.44 84.356 227.9 84.308 227.86 80.249" fill="none" stroke="#7f7f7f" stroke-width=".1"/></g><g transform="matrix(1.026 0 0 1.0639 -74.75 319.93)"><ellipse cx="267.67" cy="73.61" rx="1.0624" ry=".99993"/><ellipse cx="267.67" cy="73.61" rx="1.0624" ry=".99993" fill="none" stroke="#e5e5e5"/></g><g fill="#fff" stroke-width=".99819"><g transform="scale(1.0441 .95773)" aria-label="7010"><path d="m146.71 408.44h1.8959l-1.1308 3.3684h-0.38496l1.0105-3.0123h-1.3907z"/><path d="m150.7 410.19q0-1.4436-0.66887-1.4436t-0.66887 1.4436 0.66887 1.4436 0.66887-1.4436zm-0.66887-1.7516q0.49082 0 0.75789 0.44752 0.26707 0.44751 0.26707 1.304 0 0.85173-0.26466 1.2896t-0.7603 0.43789-0.75549-0.43548q-0.25985-0.43549-0.25985-1.292t0.25985-1.304q0.25985-0.44752 0.75549-0.44752z"/><path d="m152.17 408.44v3.3684h-0.38496v-2.9883h-0.47639l0.16842-0.38015z"/><path d="m154.27 410.19q0-1.4436-0.66887-1.4436t-0.66887 1.4436 0.66887 1.4436 0.66887-1.4436zm-0.66887-1.7516q0.49083 0 0.75789 0.44752 0.26707 0.44751 0.26707 1.304 0 0.85173-0.26466 1.2896t-0.7603 0.43789-0.75548-0.43548q-0.25985-0.43549-0.25985-1.292t0.25985-1.304q0.25984-0.44752 0.75548-0.44752z"/></g><g transform="scale(1.0441 .95773)" aria-label="MGMT"><path d="m166.03 429.64 0.34826-1.283 0.32301 0.91668 0.323-0.91668 0.34646 1.283h-0.14797l-0.22556-0.83006-0.29954 0.83006-0.29413-0.83006-0.22557 0.83006z"/><path d="m168.3 429.49v-0.3609h-0.24722v-0.12632h0.38436v0.54857q-0.16962 0.1227-0.41323 0.1227-0.26165 0-0.40781-0.17052-0.14617-0.17052-0.14617-0.4809 0-0.31037 0.14707-0.4818 0.14706-0.17142 0.40691-0.17142 0.20752 0 0.37894 0.11007l-0.074 0.10647q-0.13534-0.0975-0.29413-0.0975-0.42586 0-0.42586 0.53413 0 0.52872 0.42586 0.52872 0.17323 0 0.26526-0.0614z"/><path d="m168.57 429.64 0.34827-1.283 0.323 0.91668 0.323-0.91668 0.34647 1.283h-0.14797l-0.22556-0.83006-0.29955 0.83006-0.29413-0.83006-0.22556 0.83006z"/><path d="m169.96 428.38h0.90044v0.13173h-0.38075v1.1314h-0.13714v-1.1314h-0.38255z"/></g><g transform="scale(1.0441 .95773)" aria-label="Console"><path d="m182.81 428.47-0.0722 0.0992q-0.12631-0.0938-0.27067-0.0938-0.19488 0-0.30225 0.13895-0.10737 0.13894-0.10737 0.40059 0 0.25805 0.10376 0.39519t0.30586 0.13714q0.14436 0 0.26165-0.0866l0.0794 0.0938q-0.14977 0.10827-0.35007 0.10827-0.25083 0-0.39609-0.17233t-0.14526-0.47549q0-0.30495 0.14526-0.48179 0.14526-0.17685 0.39609-0.17685 0.19127 0 0.35187 0.11369z"/><path d="m183.34 428.83q0.16781 0 0.28601 0.1236 0.11819 0.12361 0.11819 0.30226 0 0.17684-0.11819 0.29864-0.1182 0.1218-0.28601 0.1218-0.16963 0-0.28963-0.1209-0.11999-0.1209-0.11999-0.29774 0-0.17864 0.11999-0.30315 0.12-0.12451 0.28963-0.12451zm2e-3 0.11548q-0.11007 0-0.18857 0.0929t-0.0785 0.21924q0 0.12632 0.0785 0.21564 0.0785 0.0893 0.18857 0.0893t0.18767-0.0893 0.0776-0.21564q0-0.12631-0.0785-0.21924-0.0785-0.0929-0.18677-0.0929z"/><path d="m184.6 429.15v0.48721h-0.13714v-0.4818q0-0.22556-0.18406-0.22917-0.11007 0-0.17143 0.0677-0.0614 0.0677-0.065 0.18857v0.45473h-0.13714v-0.80841h0.13714v0.12812q0.0974-0.14616 0.26707-0.14616 0.14075 0 0.21563 0.0857 0.0749 0.0857 0.0749 0.25353z"/><path d="m185.29 428.92-0.0776 0.0884q-0.0848-0.0794-0.17323-0.0794-0.0704 0-0.11459 0.0352-0.0442 0.0352-0.0442 0.0965 5e-3 0.0902 0.18587 0.12811 0.25263 0.065 0.25263 0.22918v4e-3q0 0.11549-0.0785 0.17775-0.0785 0.0623-0.23549 0.0623-0.0758 0-0.15338-0.0343-0.0776-0.0343-0.12631-0.0938l0.0993-0.0848q0.0722 0.0993 0.18405 0.0993 0.0938 0 0.13173-0.0208 0.0379-0.0208 0.0397-0.0803 0-0.0668-0.0361-0.0929-0.0361-0.0262-0.12992-0.0496-0.13173-0.0361-0.19399-0.0893-0.0622-0.0532-0.0641-0.14887 0-0.11368 0.0785-0.18225 0.0785-0.0686 0.21022-0.0686 0.12993 0 0.24541 0.10467z"/><path d="m185.87 428.83q0.16782 0 0.28602 0.1236 0.11819 0.12361 0.11819 0.30226 0 0.17684-0.11819 0.29864-0.1182 0.1218-0.28602 0.1218-0.16962 0-0.28962-0.1209t-0.12-0.29774q0-0.17864 0.12-0.30315t0.28962-0.12451zm2e-3 0.11548q-0.11008 0-0.18857 0.0929-0.0785 0.0929-0.0785 0.21924 0 0.12632 0.0785 0.21564 0.0785 0.0893 0.18857 0.0893t0.18767-0.0893 0.0776-0.21564q0-0.12631-0.0785-0.21924-0.0785-0.0929-0.18676-0.0929z"/><path d="m186.46 428.29h0.13714v1.3534h-0.13714z"/><path d="m187.44 429.44 0.0848 0.0758q-0.10827 0.14616-0.34105 0.14977-0.16963 0-0.28782-0.1209t-0.11819-0.29774q0-0.18045 0.11458-0.30406 0.11459-0.12361 0.2824-0.12361h7e-3q0.1606 0 0.25804 0.10196 0.0975 0.10195 0.11188 0.27879v0.0491h-0.63337q0 0.12451 0.0785 0.21384 0.0785 0.0893 0.18857 0.0893h0.0144q0.14436 0 0.23999-0.11188zm-0.50706-0.30496h0.48q-0.0162-0.10286-0.0812-0.15158-0.065-0.0487-0.15518-0.0487-0.0812 0-0.15519 0.0659-0.074 0.0659-0.0884 0.13443z"/></g></g><path class="st1" d="m45.064 393.57c0 0.59275-0.47577 1.0744-1.0556 1.0744-0.57985 0-1.0556-0.48164-1.0556-1.0744v-0.91139s0.50551 0.12598 0.50551 0.65946v0.25193c0 0.32601 0.24532 0.58535 0.55011 0.58535 0.30479 0 0.55012-0.25934 0.55012-0.58535v-0.52608 7e-3c0.02233-0.44457 0.40144-0.58536 0.49807-0.63723h0.0078v1.1559zm-2.7134-1.0669c0.14126 0 0.27506 0.0222 0.394 0.074v0.56312c-0.10408-0.0889-0.24532-0.14079-0.394-0.14079-0.33453 0-0.60215 0.25935-0.60215 0.58536v1.0596h-0.50551v-1.9413s0.20815 7e-3 0.34196 0.10379c0.19328-0.19265 0.46834-0.30379 0.76569-0.30379m-2.4234 1.6597c-0.33453 0-0.60958-0.26675-0.60958-0.59276 0-0.32602 0.27506-0.59277 0.60958-0.59277 0.33454 0 0.60958 0.26675 0.60958 0.59277 0 0.32601-0.27505 0.59276-0.60958 0.59276m0-1.6597c-0.60958 0-1.1002 0.48161-1.1002 1.0669 0 0.59276 0.49065 1.067 1.1002 1.067 0.25276 0 0.48321-0.0815 0.66906-0.22229 0.11151 0.18523 0.43117 0.22229 0.43117 0.22229v-1.067c0-0.58536-0.49066-1.0669-1.1002-1.0669m8.7944 1.6597c-0.33454 0-0.60959-0.26675-0.60959-0.59276 0-0.32602 0.27506-0.59277 0.60959-0.59277s0.60958 0.26675 0.60958 0.59277c0 0.32601-0.27505 0.59276-0.60958 0.59276m0-1.6597c-0.60959 0-1.1002 0.48161-1.1002 1.0669 0 0.59276 0.49065 1.067 1.1002 1.067 0.25274 0 0.48321-0.0815 0.66906-0.22229 0.11151 0.18523 0.43116 0.22229 0.43116 0.22229v-1.067c0-0.58536-0.49064-1.0669-1.1002-1.0669m-2.3342 1.6597c-0.33454 0-0.60959-0.26675-0.60959-0.59276 0-0.32602 0.27506-0.59277 0.60959-0.59277 0.33453 0 0.60958 0.26675 0.60958 0.59277 0.0078 0.32601-0.26763 0.59276-0.60958 0.59276m0-1.6597c-0.22303 0-0.43116 0.0667-0.60959 0.17782v-0.17041c-0.02233-0.44458-0.38656-0.58537-0.48321-0.63724h-0.0078v2.7712s0.32709-0.0371 0.45347-0.21488c0.18585 0.12596 0.40886 0.20747 0.64676 0.20747 0.60958 0 1.1002-0.48162 1.1002-1.067 0.0078-0.58536-0.49064-1.0669-1.1002-1.0669" fill="#f5831f" stroke-width=".99821"/><g transform="matrix(1.026 0 0 1.0639 -74.75 315.23)"><ellipse cx="267.67" cy="73.61" rx="1.0624" ry=".99993"/><ellipse cx="267.67" cy="73.61" rx="1.0624" ry=".99993" fill="none" stroke="#e5e5e5"/></g><path d="m172.1 409.17h7.5613v-6.9618l-7.5613-2.3e-4z" fill="#3a3a3a" stroke-width=".9985"/><g transform="matrix(.0080788 0 0 .007977 158.97 437.84)"><path d="m2560.5-3593.3v-872.71l-935.94-0.027v872.74z" fill="none" stroke="#000" stroke-linecap="square" stroke-width=".67568"/></g><g stroke-width=".9985"><path d="m172.4 403.97h1.7592l-3e-3 -1.0616 0.64021-5.7e-4v-0.39749h2.0635l-4.8e-4 0.39853h0.66638v1.0617h1.7511v4.5708l-6.8766 0.0149z" fill="#1a1a1a"/><path d="m177.68 403.69h1.7375v-0.74628h-1.7375z" fill="#008000"/><path d="m172.24 403.69h1.7528v-0.75017h-1.7528z" fill="#008000"/><path d="m172.1 409.18-1e-3 -6.9643 2.3318-9.5e-4v0.66996l-2.2497-1e-3v0.86726l0.22335 7e-3 4.8e-4 4.7991 6.8731-0.01 5e-3 -5e-3 5.3e-4 -4.7845 0.22334-7e-3v-0.86728l-2.2629 1e-3v-0.66996l2.4164 9.5e-4 1e-3 6.9643" fill="#ebebeb"/></g><g transform="matrix(1.0022 0 0 .99846 46.858 192.18)"><path d="m146.09 217.75h8.4v-7.0242h-8.4z" fill="#3a3a3a"/><g transform="matrix(.0080517 0 0 .0080487 133.48 246.67)"><path d="m2609.9-3593.3v-872.71h-1043.3v872.71z" fill="none" stroke="#000" stroke-linecap="square" stroke-width=".67568"/></g><path d="m146.86 212.5h1.7532l-3e-3 -1.0712 0.63806-5.7e-4v-0.40106h2.0566l-4.9e-4 0.40211h0.66414v1.0712h1.7452v4.6119l-6.8535 0.015z" fill="#1a1a1a"/><g fill="#ebebeb"><path d="m148.88 211.4v-0.67597l-2.7924 9.6e-4 2e-3 6.9848 0.77137-0.62711-4.8e-4 -4.8021 1.5788-7e-3v-0.87506z"/><path d="m146.89 217.13-0.76557 0.62244 8.3332 1e-3 -0.78248-0.63628"/><path d="m151.68 211.4v-0.67597l2.8056 9.6e-4 -2e-3 6.9848-0.77145-0.63081 5.6e-4 -4.7984-1.5906-7e-3v-0.87506z"/></g></g><g transform="matrix(1.0034 0 0 .56145 73.493 292.91)"><path d="m110.68 204.3h3.7977c0.31236-0.0253 0.47172 0.26313 0.46384 0.53195v1.167c-0.0177 0.40759-0.69625 1.0145-1.2147 0.97148h-2.4609c-0.16724 0.0534-1.0983-0.60543-1.0629-1.0023v-1.1665c-0.0205-0.34162 0.30491-0.50905 0.47686-0.50159" fill="#e6e6e6"/><path d="m110.82 204.48h3.492c0.37167-0.0222 0.41803 0.25189 0.41125 0.48766v1.0611c-0.0156 0.26619-0.58392 0.79942-1.0385 0.76155h-2.3058c-0.14683 0.0469-0.93886-0.53989-0.95768-0.7883v-1.0612c-0.0176-0.29936 0.24811-0.46751 0.3988-0.46085" fill="#1d1d1d"/><g transform="matrix(.0060892 0 0 .0061268 99.791 230.08)"><path d="m1811.4-4178h573.48c61.03-3.61 68.63 41.12 67.53 79.61v173.18c-2.58 43.45-95.9 130.46-170.55 124.27h-378.69c-24.09 7.68-154.17-88.11-157.26-128.66v-173.19c-2.9-48.86 40.74-76.32 65.49-75.21z" fill="none" stroke="#000" stroke-width=".26401"/></g><path transform="matrix(.53109 0 0 .53109 35 368.35)" d="m144.09-307.32c-4e-3 -1.6e-4 -9e-3 2e-3 -0.0137 2e-3h-0.0117c-0.17447-7e-3 -0.45217 0.11055-0.43164 0.42579v1.0488c6e-3 0.0693 0.0738 0.16195 0.17187 0.25782 0.2624 0.2717 0.80298 0.59446 0.93164 0.55664h2.4942c0.52548 0.0402 1.2155-0.47741 1.2324-0.75782v-1.0781c8e-3 -0.24841-2e-3 -0.47824-0.43164-0.45508h-3.9414z" fill="#404040"/><g fill="#070707"><path d="m111.56 205.87h0.1884v-0.41664h-0.1884z"/><path d="m112.01 205.87h0.18839v-0.41664h-0.18839z"/><path d="m112.48 205.87h0.18799v-0.41664h-0.18799z"/><path d="m112.96 205.87h0.18799v-0.41664h-0.18799z"/><path d="m113.42 205.87h0.18837v-0.41664h-0.18837z"/></g><g fill="#ffac00"><path d="m111.59 205.14h0.0896v-0.13628h-0.0896z"/><path d="m112.06 205.14h0.0895v-0.13628h-0.0895z"/><path d="m112.52 205.14h0.0895v-0.13628h-0.0895z"/><path d="m113 205.14h0.0891v-0.13628h-0.0891z"/><path d="m113.47 205.14h0.0891v-0.13628h-0.0891z"/><path d="m111.6 205.78h0.10911v-0.23738h-0.10911z"/><path d="m112.06 205.76h0.0895v-0.19391h-0.0895z"/><path d="m112.53 205.76h0.0895v-0.19391h-0.0895z"/><path d="m113.01 205.76h0.0891v-0.19391h-0.0891z"/><path d="m113.47 205.76h0.0895v-0.19391h-0.0895z"/></g></g><g fill="#008000" fill-rule="evenodd" stroke="#165016" stroke-linejoin="round"><ellipse cx="172.02" cy="394.93" rx=".46826" ry=".46672" stroke-width=".34752"/><ellipse cx="172.02" cy="392.57" rx=".46826" ry=".46672" stroke-width=".34752"/><g transform="matrix(.99985 0 0 .99657 33.623 37.696)" stroke-width=".34814"><circle cx="90.491" cy="365.59" r=".46833"/><circle cx="93.254" cy="365.59" r=".46833"/></g><g transform="matrix(.99985 0 0 .99657 46.301 37.696)" stroke-width=".34814"><circle cx="90.491" cy="365.59" r=".46833"/><circle cx="93.254" cy="365.59" r=".46833"/></g></g><g transform="translate(9.2692 -36.387)"><rect x="45.198" y="432.15" width="61.553" height="14.348" rx=".16836" ry=".074196" stroke-width=".99855"/><path d="m45.315 446.39h61.036l-0.023-14.065-61.013-2.4e-4z" fill="#3a3a3a" stroke-width=".99855"/><g transform="matrix(.9984 0 0 .99198 -37.239 96.419)"><path d="m113.63 340.44h1.7574l-3e-3 -1.0731 0.63956-5.7e-4v-0.40181h2.0614l-4.8e-4 0.40286h0.6657v1.0732h1.7493v4.6204l-6.8696 0.015z" fill="#1a1a1a"/><path d="m118.91 340.16h1.7357v-0.75438h-1.7357z" fill="#008000"/><path d="m113.48 340.16h1.751v-0.75831h-1.751z" fill="#008000"/><path d="m120.51 350.97h-1.7574l3e-3 1.0731-0.63956 5.7e-4v0.40181h-2.0614l4.8e-4 -0.40286h-0.6657v-1.0732h-1.7493v-4.6204l6.8696-0.015z" fill="#1a1a1a"/><path d="m115.23 351.26h-1.7357v0.75438h1.7357z" fill="#008000"/><path d="m120.67 351.26h-1.751v0.75831h1.751z" fill="#008000"/><path transform="matrix(.53194 0 0 .53538 65.022 369.62)" d="m38.578-57.816-5.2617 2e-3 0.0039 26.299 5.2852 2e-3v-1.2656l-4.248 2e-3v-1.6367l0.41797-0.01367v-8.9785l12.918-0.0078 2e-3 8.9863 0.41992 0.01367v1.6367l-4.2266-2e-3v1.2656l4.3516-2e-3h0.0059l4.4004 2e-3v-1.2656l-4.252 2e-3v-1.6367l0.41992-0.01367 2e-3 -8.9785 12.916-0.0078v8.9863l0.41992 0.01367v1.6367l-4.2246-2e-3v1.2656l4.5059-2e-3h0.0078l4.3965 2e-3v-1.2656l-4.252 2e-3v-1.6367l0.41992-0.01367 2e-3 -8.9785 12.916-0.0078v8.9863l0.41992 0.01367v1.6367l-4.2227-2e-3v1.2656l4.5039-2e-3 4.4043 2e-3v-1.2656l-4.25 2e-3v-1.6367l0.41992-0.01367v-8.9785l12.918-0.0078v8.9863l0.41992 0.01367v1.6367l-4.2246-2e-3v1.2656l4.5039-2e-3h0.0098l4.3945 2e-3v-1.2656l-4.248 2e-3v-1.6367l0.41797-0.01367v-8.9785l12.918-0.0078 2e-3 8.9863 0.41992 0.01367v1.6367l-4.2266-2e-3v1.2656l4.4902-2e-3h0.0234l4.3594 2e-3v-1.2656l-4.25 2e-3v-1.6367l0.41993-0.01367 2e-3 -9.0332 0.01-0.0098 12.908-0.01953v9.0625l0.41992 0.01367v1.6367l-4.2246-2e-3v1.2656l4.5039-2e-3h0.65453l3.75 2e-3v-1.2637l-3.75 2e-3 -2e-3 -10.629 12.84-0.0078 2e-3 8.9863 0.41796 0.01172v1.6387l-4.2246-2e-3v1.2637l4.4902-2e-3h0.0234l4.3594 2e-3v-1.2637l-4.25 2e-3v-1.6387l0.41797-0.01172 2e-3 -9.0332 0.01-0.0098 12.908-0.01953v9.0625l0.41993 0.01172v1.6387l-4.2246-2e-3v1.2637l5.2617-2e-3 -4e-3 -26.297-5.2871-2e-3v1.2656l4.252-2e-3v1.6367l-0.42187 0.01367v8.9785l-12.918 0.0059v-8.9844l-0.41992-0.01367v-1.6387l4.2246 2e-3v-1.2637l-4.334 2e-3h-0.0234l-4.5156-2e-3v1.2637l4.25-2e-3v1.6387l-0.41797 0.01367-2e-3 9.0312-8e-3 0.0098-12.828 0.01758-2e-3 -10.711 3.7266 2e-3v-1.2656l-3.7266 2e-3h-0.65235l-4.5312-2e-3v1.2656l4.25-2e-3v1.6367l-0.41992 0.01367v8.9785l-12.918 0.0078v-8.9863l-0.41992-0.01367v-1.6367l4.2246 2e-3v-1.2656l-4.334 2e-3h-0.0234l-4.5156-2e-3v1.2656l4.25-2e-3v1.6367l-0.41992 0.01367-2e-3 9.0332-8e-3 0.0098-12.908 0.01758-2e-3 -9.0605-0.41797-0.01367v-1.6367l4.2246 2e-3v-1.2656l-4.3711 2e-3h-0.0078l-4.5312-2e-3v1.2656l4.25-2e-3v1.6367l-0.41797 0.01367-2e-3 9.0332-0.0098 0.0098-12.908 0.01758v-9.0605l-0.41992-0.01367v-1.6367l4.2243 0.001858v-1.2637l-4.3711 2e-3 -4.5391-2e-3v1.2637l4.252-2e-3v1.6367l-0.42188 0.01367v9.0332l-0.0098 0.0098-12.908 0.01758v-9.0586l-0.41992-0.01367v-1.6387l4.2246 2e-3v-1.2637l-4.3711 2e-3h-0.0078l-4.5293-2e-3v1.2637l4.248-2e-3v1.6387l-0.41992 0.01367v9.0312l-0.0098 0.0098-12.908 0.01758v-9.0586l-0.41992-0.01367v-1.6387l4.2246 2e-3v-1.2637l-4.3711 2e-3h-0.0078l-4.377-2e-3v1.2637l4.25-2e-3v1.6387l-0.41797 0.01367-2e-3 9.0312-0.0078 0.0098-12.908 0.01758-2e-3 -9.0586-0.41992-0.01367v-1.6387l4.2246 2e-3v-1.2637z" fill="#ebebeb" stroke-width=".99858"/></g><g transform="matrix(.9984 0 0 .99198 -44.776 96.419)"><path d="m113.63 340.44h1.7574l-3e-3 -1.0731 0.63956-5.7e-4v-0.40181h2.0614l-4.8e-4 0.40286h0.6657v1.0732h1.7493v4.6204l-6.8696 0.015z" fill="#1a1a1a"/><path d="m118.91 340.16h1.7357v-0.75438h-1.7357z" fill="#008000"/><path d="m113.48 340.16h1.751v-0.75831h-1.751z" fill="#008000"/><path d="m120.51 350.97h-1.7574l3e-3 1.0731-0.63956 5.7e-4v0.40181h-2.0614l4.8e-4 -0.40286h-0.6657v-1.0732h-1.7493v-4.6204l6.8696-0.015z" fill="#1a1a1a"/><path d="m115.23 351.26h-1.7357v0.75438h1.7357z" fill="#008000"/><path d="m120.67 351.26h-1.751v0.75831h1.751z" fill="#008000"/></g><g transform="matrix(.9984 0 0 .99198 -52.313 96.419)"><path d="m113.63 340.44h1.7574l-3e-3 -1.0731 0.63956-5.7e-4v-0.40181h2.0614l-4.8e-4 0.40286h0.6657v1.0732h1.7493v4.6204l-6.8696 0.015z" fill="#1a1a1a"/><path d="m118.91 340.16h1.7357v-0.75438h-1.7357z" fill="#008000"/><path d="m113.48 340.16h1.751v-0.75831h-1.751z" fill="#008000"/><path d="m120.51 350.97h-1.7574l3e-3 1.0731-0.63956 5.7e-4v0.40181h-2.0614l4.8e-4 -0.40286h-0.6657v-1.0732h-1.7493v-4.6204l6.8696-0.015z" fill="#1a1a1a"/><path d="m115.23 351.26h-1.7357v0.75438h1.7357z" fill="#008000"/><path d="m120.67 351.26h-1.751v0.75831h1.751z" fill="#008000"/></g><g transform="matrix(.9984 0 0 .99198 -59.85 96.419)"><path d="m113.63 340.44h1.7574l-3e-3 -1.0731 0.63956-5.7e-4v-0.40181h2.0614l-4.8e-4 0.40286h0.6657v1.0732h1.7493v4.6204l-6.8696 0.015z" fill="#1a1a1a"/><path d="m118.91 340.16h1.7357v-0.75438h-1.7357z" fill="#008000"/><path d="m113.48 340.16h1.751v-0.75831h-1.751z" fill="#008000"/><path d="m120.51 350.97h-1.7574l3e-3 1.0731-0.63956 5.7e-4v0.40181h-2.0614l4.8e-4 -0.40286h-0.6657v-1.0732h-1.7493v-4.6204l6.8696-0.015z" fill="#1a1a1a"/><path d="m115.23 351.26h-1.7357v0.75438h1.7357z" fill="#008000"/><path d="m120.67 351.26h-1.751v0.75831h1.751z" fill="#008000"/></g><g transform="matrix(.9984 0 0 .99198 -67.306 96.418)"><path d="m113.63 340.44h1.7574l-3e-3 -1.0731 0.63956-5.7e-4v-0.40181h2.0614l-4.8e-4 0.40286h0.6657v1.0732h1.7493v4.6204l-6.8696 0.015z" fill="#1a1a1a"/><path d="m118.91 340.16h1.7357v-0.75438h-1.7357z" fill="#008000"/><path d="m113.48 340.16h1.751v-0.75831h-1.751z" fill="#008000"/><path d="m120.51 350.97h-1.7574l3e-3 1.0731-0.63956 5.7e-4v0.40181h-2.0614l4.8e-4 -0.40286h-0.6657v-1.0732h-1.7493v-4.6204l6.8696-0.015z" fill="#1a1a1a"/><path d="m115.23 351.26h-1.7357v0.75438h1.7357z" fill="#008000"/><path d="m120.67 351.26h-1.751v0.75831h1.751z" fill="#008000"/></g><g transform="matrix(.99781 0 0 .9993 -47.774 56.404)"><path d="m131.79 378h1.7584l-3e-3 -1.0653 0.63993-5.6e-4v-0.39887h2.0626l-4.8e-4 0.39991h0.66608v1.0654h1.7503v4.5866l-6.8735 0.0149z" fill="#1a1a1a"/><path d="m137.07 377.72h1.7367v-0.74886h-1.7367z" fill="#008000"/><path d="m131.63 377.71h1.7519v-0.75276h-1.7519z" fill="#008000"/><path d="m138.67 388.45h-1.7584l3e-3 1.0653-0.63993 5.6e-4v0.39887h-2.0626l4.8e-4 -0.39991h-0.66608v-1.0654h-1.7503v-4.5866l6.8735-0.0149z" fill="#1a1a1a"/><path d="m133.39 388.73h-1.7367v0.74886h1.7367z" fill="#008000"/><path d="m138.83 388.73h-1.7519v0.75276h1.7519z" fill="#008000"/></g><g transform="matrix(.9984 0 0 .99198 -14.68 96.417)"><path d="m113.63 340.44h1.7574l-3e-3 -1.0731 0.63956-5.7e-4v-0.40181h2.0614l-4.8e-4 0.40286h0.6657v1.0732h1.7493v4.6204l-6.8696 0.015z" fill="#1a1a1a"/><path d="m118.91 340.16h1.7357v-0.75438h-1.7357z" fill="#008000"/><path d="m113.48 340.16h1.751v-0.75831h-1.751z" fill="#008000"/><path d="m120.51 350.97h-1.7574l3e-3 1.0731-0.63956 5.7e-4v0.40181h-2.0614l4.8e-4 -0.40286h-0.6657v-1.0732h-1.7493v-4.6204l6.8696-0.015z" fill="#1a1a1a"/><path d="m115.23 351.26h-1.7357v0.75438h1.7357z" fill="#008000"/><path d="m120.67 351.26h-1.751v0.75831h1.751z" fill="#008000"/></g><g transform="matrix(.9984 0 0 .99198 -22.136 96.416)"><path d="m113.63 340.44h1.7574l-3e-3 -1.0731 0.63956-5.7e-4v-0.40181h2.0614l-4.8e-4 0.40286h0.6657v1.0732h1.7493v4.6204l-6.8696 0.015z" fill="#1a1a1a"/><path d="m118.91 340.16h1.7357v-0.75438h-1.7357z" fill="#008000"/><path d="m113.48 340.16h1.751v-0.75831h-1.751z" fill="#008000"/><path d="m120.51 350.97h-1.7574l3e-3 1.0731-0.63956 5.7e-4v0.40181h-2.0614l4.8e-4 -0.40286h-0.6657v-1.0732h-1.7493v-4.6204l6.8696-0.015z" fill="#1a1a1a"/><path d="m115.23 351.26h-1.7357v0.75438h1.7357z" fill="#008000"/><path d="m120.67 351.26h-1.751v0.75831h1.751z" fill="#008000"/></g></g><g transform="matrix(.53954 0 0 1.045 32.14 321.31)"><rect x="208.17" y="76.381" width="2.8103" height="10.608" fill="#434b4d"/><rect x="208.17" y="76.381" width="2.8103" height="10.608" fill="none" stroke="#434b4d" stroke-width=".2"/><rect x="208.51" y="76.744" width="2.4642" height="10.245" rx=".6" ry=".6" fill="#687174"/><rect x="208.31" y="76.567" width="2.6643" height="10.422" rx=".6" ry=".6" fill="none" stroke="#525a5d" stroke-linejoin="round" stroke-width=".2"/></g><g transform="matrix(1.1373 0 0 1.0432 -93.649 321.45)"><rect x="211.6" y="76.381" width="18.107" height="10.537" fill="#434b4d"/><rect x="211.6" y="76.381" width="18.107" height="10.537" fill="none" stroke="#434b4d" stroke-width=".2"/><rect x="211.89" y="76.563" width="17.818" height="10.355" rx=".6" ry=".6" fill="#687174"/><rect x="211.6" y="76.563" width="18.107" height="10.355" rx=".6" ry=".6" fill="none" stroke="#525a5d" stroke-linejoin="round" stroke-width=".2"/></g><g transform="matrix(0 .99985 -.99657 0 524.79 181.91)"><g transform="matrix(.31464 0 0 .31449 186.02 288.88)"><path d="m131.23 266.26v-24.611h-8.376v24.611z"/><path d="m131.23 266.26v-24.611h-8.3762v24.611z" fill="none" stroke="#535353" stroke-linecap="round" stroke-linejoin="round" stroke-miterlimit="4.4615" stroke-width=".10782"/><g stroke="#000" stroke-linejoin="round"><path d="m126.34 264.07v-20.304h-1.4326v20.304z" fill="none" stroke-linecap="round" stroke-miterlimit="4.4615" stroke-width=".10782"/><path d="m124.91 264.07v-20.304l-0.71578-0.72485v21.754l0.71578-0.72485" fill="#a09a9a" stroke-width=".11578"/><path d="m127.06 264.79v-21.754l-0.71603 0.72485v20.304l0.71603 0.72485" fill="#a09a9a" stroke-width=".11578"/><path d="m127.06 264.79v-21.754l-0.71643 0.72523v20.304l0.71643 0.72472z" fill="none" stroke-linecap="round" stroke-miterlimit="4.4615" stroke-width=".10782"/><path d="m127.06 264.79-0.71603-0.72485h-1.4333l-0.71578 0.72485h2.8651" fill="#a09a9a" stroke-linecap="round" stroke-width=".11578"/><path d="m127.06 243.04-0.71603 0.72485h-1.4333l-0.71578-0.72485h2.8651" fill="#a09a9a" stroke-width=".11578"/></g><path d="m126.31 264.05v-20.293h-1.3976v20.293z" fill="#505050"/></g></g><g transform="matrix(0 .99985 -.99657 0 524.79 172.21)"><g transform="matrix(.31464 0 0 .31449 186.02 288.88)"><path d="m131.23 266.26v-24.611h-8.376v24.611z"/><path d="m131.23 266.26v-24.611h-8.3762v24.611z" fill="none" stroke="#535353" stroke-linecap="round" stroke-linejoin="round" stroke-miterlimit="4.4615" stroke-width=".10782"/><g stroke="#000" stroke-linejoin="round"><path d="m126.34 264.07v-20.304h-1.4326v20.304z" fill="none" stroke-linecap="round" stroke-miterlimit="4.4615" stroke-width=".10782"/><path d="m124.91 264.07v-20.304l-0.71578-0.72485v21.754l0.71578-0.72485" fill="#a09a9a" stroke-width=".11578"/><path d="m127.06 264.79v-21.754l-0.71603 0.72485v20.304l0.71603 0.72485" fill="#a09a9a" stroke-width=".11578"/><path d="m127.06 264.79v-21.754l-0.71643 0.72523v20.304l0.71643 0.72472z" fill="none" stroke-linecap="round" stroke-miterlimit="4.4615" stroke-width=".10782"/><path d="m127.06 264.79-0.71603-0.72485h-1.4333l-0.71578 0.72485h2.8651" fill="#a09a9a" stroke-linecap="round" stroke-width=".11578"/><path d="m127.06 243.04-0.71603 0.72485h-1.4333l-0.71578-0.72485h2.8651" fill="#a09a9a" stroke-width=".11578"/></g><path d="m126.31 264.05v-20.293h-1.3976v20.293z" fill="#505050"/></g></g><ellipse cx="172.02" cy="397.46" rx=".46826" ry=".46672" fill="#008000" fill-rule="evenodd" stroke="#165016" stroke-linejoin="round" stroke-width=".34752"/><path d="m196.66 411.05h5.0456" fill="none" stroke="#fff" stroke-width=".13047"/><path d="m184.07 411.05h5.0456" fill="none" stroke="#fff" stroke-width=".13047"/><g fill="#f5831f" stroke-width=".99819"><g transform="scale(1.0441 .95773)" aria-label="0"><path d="m56.603 411.23q0-0.54135-0.25082-0.54135-0.25082 0-0.25082 0.54135t0.25082 0.54135q0.25082 0 0.25082-0.54135zm-0.25082-0.65683q0.18406 0 0.28421 0.16781 0.10015 0.16782 0.10015 0.48902 0 0.3194-0.09925 0.48361-0.09925 0.1642-0.28511 0.1642-0.18586 0-0.2833-0.1633-0.09744-0.16331-0.09744-0.48451t0.09744-0.48902q0.09744-0.16781 0.2833-0.16781z" fill="#f5831f" stroke-width=".99819"/></g><g transform="scale(1.0441 .95773)" aria-label="2"><path d="m63.372 411.75h0.53413v0.12992h-0.69834v-0.12992l0.42586-0.49263q0.13353-0.1588 0.13353-0.29594 0-0.10646-0.06586-0.17594-0.06586-0.0695-0.17233-0.0695h-0.0036q-0.0794 0-0.13534 0.0469-0.05594 0.0469-0.05955 0.10827h-0.12813q0.0018-0.11188 0.10105-0.19399 0.09925-0.0821 0.22195-0.0821 0.16782 0 0.26977 0.0956 0.10195 0.0956 0.10195 0.25985v5e-3q0 0.18406-0.12631 0.33563z" fill="#f5831f" stroke-width=".99819"/></g><g transform="scale(1.0441 .95773)" aria-label="4"><path d="m70.857 411-0.28511 0.46917h0.28511zm0.13895-0.40962v0.87879h0.1624v0.13173h-0.1624v0.27428h-0.13895v-0.27428h-0.50526v-0.0361l0.61714-0.97443z" fill="#f5831f" stroke-width=".99819"/></g><g transform="scale(1.0441 .95773)" aria-label="6"><path d="m77.956 411.03q0.16962 0 0.28782 0.12361 0.1182 0.12361 0.1182 0.30225 0 0.17684-0.1182 0.29865-0.11819 0.1218-0.28782 0.1218t-0.28872-0.1209q-0.1191-0.1209-0.1191-0.29774 0-0.15699 0.07759-0.26887l0.45293-0.61714 0.10466 0.065-0.30676 0.41323q9e-3 -5e-3 0.0379-0.0126 0.01985-7e-3 0.0415-7e-3zm0.0018 0.11549q-0.10827 0-0.18676 0.0929-0.07849 0.0929-0.07849 0.21925 0 0.12631 0.07759 0.21563 0.07759 0.0893 0.18767 0.0893 0.11007 0 0.18857-0.0893 0.0785-0.0893 0.0785-0.21563 0-0.12632-0.0785-0.21925-0.0785-0.0929-0.18857-0.0929z" fill="#f5831f" stroke-width=".99819"/></g><g transform="scale(1.0441 .95773)" aria-label="8"><path d="m85.156 411.24q-0.11549 0-0.18045 0.0686-0.06496 0.0686-0.06496 0.19488 0 0.12271 0.06496 0.19218 0.06496 0.0695 0.18045 0.0695 0.11368 0 0.17955-0.0695 0.06586-0.0695 0.06586-0.19218 0-0.1227-0.06406-0.19308-0.06406-0.0704-0.18135-0.0704zm-0.15338-0.0614q-0.09203-0.0253-0.14075-0.10285-0.04872-0.0776-0.04872-0.18947 0-0.14978 0.08932-0.23459 0.08932-0.0848 0.25353-0.0848 0.1606 0 0.25263 0.0821 0.09203 0.0821 0.09203 0.23729 0 0.23458-0.19128 0.29232 0.22015 0.0577 0.22556 0.32481 0 0.17684-0.09744 0.27248-0.09744 0.0956-0.2815 0.0956-0.18406 0-0.2824-0.0929-0.09834-0.0929-0.09834-0.27519 0-0.12451 0.05865-0.21022 0.05865-0.0857 0.16872-0.11459zm-0.05955-0.27608q0 0.10646 0.05504 0.16511 0.05504 0.0586 0.15789 0.0586 0.10105 0 0.15699-0.0595 0.05594-0.0596 0.05594-0.16421 0-0.22015-0.21293-0.22015-0.10286 0-0.15789 0.0559-0.05504 0.0559-0.05504 0.16421z" fill="#f5831f" stroke-width=".99819"/></g><g transform="scale(1.0441 .95773)" aria-label="10"><path d="m92.056 410.57v1.2632h-0.14436v-1.1206h-0.17864l0.06316-0.14256z"/><path d="m92.845 411.23q0-0.54135-0.25082-0.54135-0.25082 0-0.25082 0.54135t0.25082 0.54135q0.25082 0 0.25082-0.54135zm-0.25082-0.65683q0.18406 0 0.28421 0.16781 0.10015 0.16782 0.10015 0.48902 0 0.3194-0.09925 0.48361-0.09925 0.1642-0.28511 0.1642-0.18586 0-0.2833-0.1633-0.09744-0.16331-0.09744-0.48451t0.09744-0.48902q0.09744-0.16781 0.2833-0.16781z"/></g><g transform="scale(1.0441 .95773)" aria-label="1"><path d="m56.516 428.85v1.2632h-0.14436v-1.1206h-0.17864l0.06316-0.14256z" fill="#f5831f" stroke-width=".99819"/></g><g transform="scale(1.0441 .95773)" aria-label="3"><path d="m63.177 429.83h0.14616q0.01985 0.0812 0.0803 0.12541 0.06045 0.0442 0.15068 0.0442 0.11188 0 0.17864-0.0695 0.06677-0.0695 0.06677-0.19218 0-0.11729-0.06226-0.18857-0.06226-0.0713-0.17233-0.0713v-0.1227q0.09564 0 0.15338-0.0568 0.05774-0.0568 0.05774-0.15609 0-0.10647-0.05865-0.16602-0.05865-0.0595-0.16331-0.0595-0.08481 0-0.13985 0.0424-0.05504 0.0424-0.06947 0.12h-0.14436q0.01263-0.12992 0.10556-0.20391 0.09293-0.074 0.24812-0.074 0.1606 0 0.25624 0.0857 0.09564 0.0857 0.09564 0.2391 0 0.10646-0.05413 0.18135-0.05414 0.0749-0.15338 0.10556 0.10827 0.0289 0.17052 0.11278 0.06226 0.0839 0.06406 0.21203 0 0.17684-0.09834 0.27248-0.09835 0.0956-0.2806 0.0956-0.33744 0-0.37714-0.27609z" fill="#f5831f" stroke-width=".99819"/></g><g transform="scale(1.0441 .95773)" aria-label="5"><path d="m70.617 428.83h0.49624l-0.02887 0.12812h-0.38436l-0.09564 0.323q0.05053-0.0108 0.10286-0.0144 0.18225 0 0.29233 0.11369 0.11007 0.11368 0.11007 0.31398 0 0.2021-0.11098 0.31127-0.11098 0.10918-0.31308 0.10918-0.1588 0-0.28872-0.14075l0.07218-0.10106q0.09925 0.1191 0.21293 0.12451 0.13714 0 0.21654-0.0803 0.0794-0.0803 0.0794-0.22285 0-0.14075-0.0803-0.22286-0.0803-0.0821-0.21564-0.0821-0.11188 0-0.2418 0.0668z" fill="#f5831f" stroke-width=".99819"/></g><g transform="scale(1.0441 .95773)" aria-label="7"><path d="m77.6 428.85h0.71097l-0.42406 1.2632h-0.14436l0.37894-1.1296h-0.5215z" fill="#f5831f" stroke-width=".99819"/></g><g transform="scale(1.0441 .95773)" aria-label="9"><path d="m85.154 429.65q-0.16782 0-0.28691-0.12361-0.1191-0.12361-0.1191-0.30225 0-0.17685 0.1191-0.29955 0.1191-0.12271 0.28691-0.12271 0.16962 0 0.28872 0.12181 0.1191 0.1218 0.1191 0.29864 0 0.1606-0.07759 0.26887l-0.45834 0.61714-0.10466-0.0632 0.31218-0.41503q-0.03789 0.018-0.0794 0.0199zm-0.0018-0.11549q0.10827 0 0.18676-0.0929 0.07849-0.0929 0.07849-0.21925 0-0.12631-0.07759-0.21564-0.07759-0.0893-0.18767-0.0893-0.11007 0-0.18857 0.0893-0.0785 0.0893-0.0785 0.21564 0 0.12632 0.0785 0.21925 0.0785 0.0929 0.18857 0.0929z" fill="#f5831f" stroke-width=".99819"/></g><g transform="scale(1.0441 .95773)" aria-label="11"><path d="m92.29 428.85v1.2632h-0.14436v-1.1206h-0.17864l0.06316-0.14256z"/><path d="m92.744 428.85v1.2632h-0.14436v-1.1206h-0.17864l0.06316-0.14256z"/></g></g><g fill="#fff"><g stroke-width=".99819"><g transform="scale(1.0441 .95773)" aria-label="12"><path d="m99.285 410.61v1.2632h-0.14436v-1.1206h-0.17864l0.06316-0.14256z"/><path d="m99.615 411.75h0.53413v0.12992h-0.69834v-0.12992l0.42586-0.49263q0.13353-0.1588 0.13353-0.29594 0-0.10646-0.06586-0.17594-0.06586-0.0695-0.17233-0.0695h-0.0036q-0.0794 0-0.13534 0.0469-0.05594 0.0469-0.05955 0.10827h-0.12812q0.0018-0.11188 0.10105-0.19399 0.09925-0.0821 0.22195-0.0821 0.16782 0 0.26977 0.0956 0.10196 0.0956 0.10196 0.25985v5e-3q0 0.18406-0.12632 0.33563z"/></g><g transform="scale(1.0441 .95773)" aria-label="14"><path d="m106.43 410.61v1.2632h-0.14436v-1.1206h-0.17864l0.0632-0.14256z"/><path d="m107.1 411-0.28511 0.46917h0.28511zm0.13895-0.40962v0.87879h0.1624v0.13173h-0.1624v0.27428h-0.13895v-0.27428h-0.50525v-0.0361l0.61713-0.97443z"/></g><g transform="scale(1.0441 .95773)" aria-label="13"><path d="m99.261 428.85v1.2632h-0.14436v-1.1206h-0.17864l0.06316-0.14256z"/><path d="m99.418 429.83h0.14616q0.01985 0.0812 0.0803 0.12541 0.06045 0.0442 0.15068 0.0442 0.11188 0 0.17864-0.0695 0.06677-0.0695 0.06677-0.19218 0-0.11729-0.06225-0.18857-0.06225-0.0713-0.17233-0.0713v-0.1227q0.09564 0 0.15338-0.0568 0.05774-0.0568 0.05774-0.15609 0-0.10647-0.05864-0.16602-0.05865-0.0595-0.16331-0.0595-0.08481 0-0.13985 0.0424-0.05504 0.0424-0.06947 0.12h-0.14436q0.01263-0.12992 0.10556-0.20391 0.09293-0.074 0.24812-0.074 0.1606 0 0.25624 0.0857 0.0956 0.0857 0.0956 0.2391 0 0.10646-0.0541 0.18135-0.0541 0.0749-0.15338 0.10556 0.10827 0.0289 0.17052 0.11278 0.0623 0.0839 0.0641 0.21203 0 0.17684-0.0983 0.27248-0.09835 0.0956-0.2806 0.0956-0.33744 0-0.37714-0.27609z"/></g><g transform="scale(1.0441 .95773)" aria-label="15"><path d="m106.48 428.85v1.2632h-0.14436v-1.1206h-0.17865l0.0632-0.14256z"/><path d="m106.86 428.83h0.49624l-0.0289 0.12812h-0.38435l-0.0956 0.323q0.0505-0.0108 0.10285-0.0144 0.18226 0 0.29233 0.11369 0.11008 0.11368 0.11008 0.31398 0 0.2021-0.11098 0.31127-0.11098 0.10918-0.31308 0.10918-0.15879 0-0.28872-0.14075l0.0722-0.10106q0.0992 0.1191 0.21293 0.12451 0.13714 0 0.21654-0.0803t0.0794-0.22285q0-0.14075-0.0803-0.22286-0.0803-0.0821-0.21564-0.0821-0.11188 0-0.2418 0.0668z"/></g><g transform="scale(1.0441 .95773)" aria-label="16"><path d="m119.85 428.81v1.2631h-0.14436v-1.1206h-0.17865l0.0632-0.14255z"/><path d="m120.42 429.23q0.16963 0 0.28782 0.1236 0.1182 0.12361 0.1182 0.30226 0 0.17684-0.1182 0.29864-0.11819 0.1218-0.28782 0.1218-0.16962 0-0.28871-0.1209-0.1191-0.1209-0.1191-0.29774 0-0.15699 0.0776-0.26887l0.45293-0.61714 0.10466 0.065-0.30676 0.41322q9e-3 -5e-3 0.0379-0.0126 0.0199-7e-3 0.0415-7e-3zm2e-3 0.11548q-0.10827 0-0.18677 0.0929t-0.0785 0.21925q0 0.12631 0.0776 0.21564 0.0776 0.0893 0.18767 0.0893t0.18857-0.0893 0.0785-0.21564q0-0.12631-0.0785-0.21925-0.0785-0.0929-0.18857-0.0929z"/></g><g transform="scale(1.0441 .95773)" aria-label="17"><path d="m132.04 428.81v1.2631h-0.14436v-1.1206h-0.17864l0.0632-0.14255z"/><path d="m132.22 428.81h0.71097l-0.42406 1.2631h-0.14436l0.37895-1.1296h-0.5215z"/></g><g transform="scale(1.0441 .95773)" aria-label="0"><path d="m147.58 429.05q0-0.54135-0.25082-0.54135t-0.25082 0.54135 0.25082 0.54135 0.25082-0.54135zm-0.25082-0.65684q0.18406 0 0.28421 0.16782t0.10015 0.48902q0 0.31939-0.0992 0.4836-0.0993 0.16421-0.28511 0.16421-0.18586 0-0.28331-0.16331-0.0974-0.1633-0.0974-0.4845t0.0974-0.48902 0.28331-0.16782z" fill="#fff" stroke-width=".99819"/></g><g transform="scale(1.0441 .95773)" aria-label="1"><path d="m154.37 428.42v1.2631h-0.14436v-1.1206h-0.17865l0.0632-0.14255z" fill="#fff" stroke-width=".99819"/></g></g><g stroke-width=".636"><g transform="matrix(.54956 0 0 .50409 79.87 184.32)" aria-label="POWER"><path d="m159.79 412.59v0.47638h0.18586q0.11368 0 0.18135-0.0595 0.0677-0.0596 0.0677-0.17865 0-0.23278-0.24902-0.23819zm-0.13895-0.12451h0.32481q0.38797 0 0.38797 0.3627 0 0.18045-0.10015 0.26977-0.10015 0.0893-0.28782 0.0893h-0.18586v0.54135h-0.13895z"/><path d="m161.08 412.58q-0.2003 0-0.33022 0.14526-0.12993 0.14526-0.12993 0.39248 0 0.24361 0.12812 0.38977t0.33203 0.14616q0.2003 0 0.32932-0.14436t0.12902-0.39157q0-0.24361-0.12812-0.39067-0.12812-0.14707-0.33022-0.14707zm0-0.1191q0.26345 0 0.42586 0.17955 0.1624 0.17955 0.1624 0.47729t-0.15879 0.47278q-0.1588 0.17503-0.42947 0.17503-0.27068 0-0.43037-0.17503-0.1597-0.17504-0.1597-0.47278t0.1615-0.47729 0.42857-0.17955z"/><path d="m161.81 412.48h0.14797l0.22556 0.82465 0.29413-0.82465 0.29955 0.82465 0.22556-0.82465h0.14797l-0.34647 1.2866-0.323-0.91668-0.323 0.91668z"/><path d="m163.25 412.46h0.69834v0.13173h-0.5594v0.323h0.5594v0.13173h-0.5594v0.54856h0.57383v0.12812h-0.71277z"/><path d="m164.07 412.46h0.32981q0.16782 0 0.26346 0.0893 0.0956 0.0893 0.0956 0.26616-9e-3 0.15158-0.0704 0.23008t-0.16962 0.11097l0.28691 0.56661h-0.14977l-0.2815-0.54135h-0.16602v0.54135h-0.13894zm0.13894 0.12451v0.47097h0.18587q0.11368 0 0.17323-0.0614 0.0596-0.0614 0.0596-0.17865 0-0.22556-0.23278-0.23097z"/></g><g transform="matrix(.54956 0 0 .50409 79.646 185.62)" aria-label="STATUS"><path d="m160.27 414.74-0.0866 0.10105q-0.11188-0.13533-0.23639-0.13533-0.25263 0-0.25444 0.22736 2e-3 0.0848 0.0487 0.13263 0.0469 0.0478 0.1606 0.0731l0.092 0.0217q0.16602 0.0379 0.24181 0.12631 0.0758 0.0884 0.0758 0.2418 0 0.17865-0.10736 0.27068-0.10737 0.092-0.31489 0.092-0.0812 0-0.17954-0.037-0.0983-0.037-0.17233-0.10014l0.0902-0.11188q0.1191 0.11909 0.26165 0.12812 0.28331 0 0.28331-0.22737 0-0.0993-0.0487-0.15519-0.0487-0.0559-0.17143-0.083l-0.0938-0.0217q-0.15519-0.0361-0.22647-0.1209-0.0713-0.0848-0.0731-0.22015 0-0.16601 0.0956-0.26075 0.0956-0.0947 0.27428-0.0947 0.20211 2e-3 0.34105 0.15338z"/><path d="m160.4 414.59h0.90044v0.13173h-0.38075v1.1314h-0.13714v-1.1314h-0.38255z"/><path d="m161.84 414.93-0.18045 0.46917h0.36271zm0-0.35729 0.50887 1.283h-0.14797l-0.1227-0.32662h-0.47098l-0.12451 0.32662h-0.14796z"/><path d="m162.39 414.59h0.90044v0.13173h-0.38075v1.1314h-0.13714v-1.1314h-0.38255z"/><path d="m163.41 414.6h0.13895v0.77413q0 0.21112 0.0668 0.30586 0.0668 0.0947 0.22015 0.0947 0.15158 0 0.22015-0.0947 0.0686-0.0947 0.0686-0.30586v-0.77413h0.13353v0.79578q0 0.48902-0.42225 0.48902-0.42586 0-0.42586-0.48902z"/><path d="m165.17 414.74-0.0866 0.10105q-0.11188-0.13533-0.23639-0.13533-0.25263 0-0.25443 0.22736 2e-3 0.0848 0.0487 0.13263 0.0469 0.0478 0.1606 0.0731l0.092 0.0217q0.16601 0.0379 0.2418 0.12631 0.0758 0.0884 0.0758 0.2418 0 0.17865-0.10737 0.27068-0.10737 0.092-0.31488 0.092-0.0812 0-0.17955-0.037-0.0983-0.037-0.17233-0.10014l0.0902-0.11188q0.1191 0.11909 0.26166 0.12812 0.2833 0 0.2833-0.22737 0-0.0993-0.0487-0.15519-0.0487-0.0559-0.17143-0.083l-0.0938-0.0217q-0.15519-0.0361-0.22647-0.1209-0.0713-0.0848-0.0731-0.22015 0-0.16601 0.0956-0.26075 0.0956-0.0947 0.27428-0.0947 0.20211 2e-3 0.34105 0.15338z"/></g><g transform="matrix(.54956 0 0 .50409 79.997 187.04)" aria-label="PEERED"><path d="m159.59 416.93v0.47639h0.18586q0.11368 0 0.18135-0.0596 0.0677-0.0596 0.0677-0.17865 0-0.23278-0.24902-0.23819zm-0.13895-0.12451h0.32481q0.38796 0 0.38796 0.3627 0 0.18045-0.10014 0.26977-0.10015 0.0893-0.28782 0.0893h-0.18586v0.54134h-0.13895z"/><path d="m160.29 416.8h0.69833v0.13173h-0.55939v0.323h0.55939v0.13173h-0.55939v0.54857h0.57383v0.12811h-0.71277z"/><path d="m161.12 416.8h0.69834v0.13173h-0.55939v0.323h0.55939v0.13173h-0.55939v0.54857h0.57383v0.12811h-0.71278z"/><path d="m161.94 416.8h0.32981q0.16782 0 0.26346 0.0893 0.0956 0.0893 0.0956 0.26616-9e-3 0.15158-0.0704 0.23008t-0.16962 0.11097l0.28691 0.56661h-0.14977l-0.2815-0.54134h-0.16601v0.54134h-0.13895zm0.13895 0.12451v0.47097h0.18586q0.11368 0 0.17323-0.0614 0.0596-0.0614 0.0596-0.17865 0-0.22556-0.23278-0.23097z"/><path d="m162.78 416.8h0.69834v0.13173h-0.55939v0.323h0.55939v0.13173h-0.55939v0.54857h0.57383v0.12811h-0.71278z"/><path d="m163.78 416.92v1.0231h0.19127q0.2382 0 0.34917-0.12451 0.11098-0.12451 0.11098-0.38796 0-0.26346-0.11098-0.38707-0.11097-0.1236-0.34917-0.1236zm-0.13895-0.12451h0.30857q0.3194 0 0.47097 0.15248 0.15158 0.15248 0.15158 0.4827 0 0.32841-0.15067 0.48089-0.15068 0.15248-0.47188 0.15248h-0.30857z"/></g></g><g transform="matrix(.60732 0 0 .55707 84.26 164.62)" stroke-width=".99819" aria-label="MENU"><path d="m194.26 411.57 0.34827-1.283 0.323 0.91668 0.323-0.91668 0.34647 1.283h-0.14797l-0.22556-0.83007-0.29955 0.83007-0.29413-0.83007-0.22556 0.83007z"/><path d="m195.7 410.31h0.69834v0.13172h-0.55939v0.32301h0.55939v0.13173h-0.55939v0.54856h0.57383v0.12812h-0.71278z"/><path d="m196.58 410.29 0.70015 0.90405v-0.8842h0.13714v1.283l-0.70015-0.89683v0.87698h-0.13714z"/><path d="m197.65 410.33h0.13895v0.77413q0 0.21113 0.0668 0.30586 0.0668 0.0947 0.22015 0.0947 0.15158 0 0.22015-0.0947 0.0686-0.0947 0.0686-0.30586v-0.77413h0.13353v0.79578q0 0.48902-0.42225 0.48902-0.42586 0-0.42586-0.48902z"/></g><g transform="matrix(.60732 0 0 .55707 83.881 166.3)" stroke-width=".99819" aria-label="ENTER"><path d="m194.88 415.74h0.69834v0.13173h-0.5594v0.323h0.5594v0.13173h-0.5594v0.54857h0.57383v0.12812h-0.71277z"/><path d="m195.76 415.72 0.70014 0.90405v-0.8842h0.13714v1.283l-0.70014-0.89684v0.87699h-0.13714z"/><path d="m196.75 415.74h0.90044v0.13173h-0.38075v1.1314h-0.13714v-1.1314h-0.38255z"/><path d="m197.74 415.74h0.69834v0.13173h-0.55939v0.323h0.55939v0.13173h-0.55939v0.54857h0.57383v0.12812h-0.71278z"/><path d="m198.55 415.74h0.32981q0.16782 0 0.26346 0.0893 0.0956 0.0893 0.0956 0.26617-9e-3 0.15157-0.0704 0.23007t-0.16962 0.11098l0.28692 0.56661h-0.14978l-0.2815-0.54135h-0.16601v0.54135h-0.13895zm0.13895 0.12451v0.47097h0.18586q0.11368 0 0.17323-0.0614 0.0596-0.0614 0.0596-0.17864 0-0.22556-0.23278-0.23098z"/></g><path transform="scale(-1)" d="m-152.34-410.59h-0.7346l0.3673-0.63618z" fill-rule="evenodd" stroke="#fff" stroke-linecap="round" stroke-linejoin="round" stroke-width=".13047"/><path d="m160.69 411.23h-0.7346l0.3673-0.63617z" fill-rule="evenodd" stroke="#fff" stroke-linecap="round" stroke-linejoin="round" stroke-width=".13047"/></g><g transform="matrix(.53954 0 0 1.045 56.094 321.31)"><rect x="208.17" y="76.381" width="2.8103" height="10.608" fill="#434b4d"/><rect x="208.17" y="76.381" width="2.8103" height="10.608" fill="none" stroke="#434b4d" stroke-width=".2"/><rect x="208.51" y="76.744" width="2.4642" height="10.245" rx=".6" ry=".6" fill="#687174"/><rect x="208.31" y="76.567" width="2.6643" height="10.422" rx=".6" ry=".6" fill="none" stroke="#525a5d" stroke-linejoin="round" stroke-width=".2"/></g></svg>
