<svg width="447" height="44.5" version="1.1" viewBox="37.333333 394.66667 447 44.5" xmlns="http://www.w3.org/2000/svg"><g transform="matrix(1.9039 0 0 1.8978 -29.332 -276.03)"><g transform="matrix(1.1375,0,0,1.0468,-40.977,284.5)"><rect x="67.006" y="66.026" width="206" height="22" fill="#5d6a6f"/><rect x="67.006" y="66.026" width="206" height="22" fill="none" stroke="#5d6a6f" stroke-width=".4"/></g><g transform="matrix(1.1375,0,0,1.0468,-40.977,284.5)"><rect x="66.906" y="76.286" width="205.35" height="11.839" fill="#687174"/><rect x="66.906" y="76.286" width="205.35" height="11.839" fill="none" stroke="#687174" stroke-width=".2"/></g><g transform="matrix(1.1375,0,0,1.0468,-40.977,284.5)"><rect x="111.1" y="76.381" width="21.683" height="10.608" fill="#434b4d"/><rect x="111.1" y="76.381" width="21.683" height="10.608" fill="none" stroke="#434b4d" stroke-width=".2"/><rect x="111.28" y="76.563" width="21.408" height="10.426" rx=".6" ry=".6" fill="#687174"/><rect x="111.28" y="76.563" width="21.408" height="10.426" rx=".6" ry=".6" fill="none" stroke="#525a5d" stroke-linejoin="round" stroke-width=".2"/></g><g transform="matrix(1.1375,0,0,1.0468,-40.977,284.5)"><rect x="246.82" y="68.947" width="16.659" height="5.1486" fill="#3c584c"/><rect x="246.82" y="68.947" width="16.659" height="5.1486" fill="none" stroke="#7f7f7f" stroke-width=".2"/></g><g transform="matrix(1.1375,0,0,1.0468,-40.977,284.5)"><rect x="67.309" y="76.381" width="1.62" height="10.608" fill="#434b4d"/><rect x="67.309" y="76.381" width="1.62" height="10.608" fill="none" stroke="#434b4d" stroke-width=".2"/><rect x="67.495" y="76.563" width="1.4341" height="10.426" rx=".6" ry=".6" fill="#687174"/><rect x="67.495" y="76.563" width="1.4341" height="10.426" rx=".6" ry=".6" fill="none" stroke="#525a5d" stroke-linejoin="round" stroke-width=".2"/></g><g transform="matrix(1.1375,0,0,1.0468,-40.977,284.5)"><rect x="69.738" y="76.381" width="1.62" height="10.608" fill="#434b4d"/><rect x="69.738" y="76.381" width="1.62" height="10.608" fill="none" stroke="#434b4d" stroke-width=".2"/><rect x="69.924" y="76.563" width="1.4341" height="10.426" rx=".6" ry=".6" fill="#687174"/><rect x="69.924" y="76.563" width="1.4341" height="10.426" rx=".6" ry=".6" fill="none" stroke="#525a5d" stroke-linejoin="round" stroke-width=".2"/></g><g transform="matrix(1.1375,0,0,1.0468,-40.977,284.5)"><rect x="72.166" y="76.381" width="1.62" height="10.608" fill="#434b4d"/><rect x="72.166" y="76.381" width="1.62" height="10.608" fill="none" stroke="#434b4d" stroke-width=".2"/><rect x="72.352" y="76.563" width="1.4341" height="10.426" rx=".6" ry=".6" fill="#687174"/><rect x="72.352" y="76.563" width="1.4341" height="10.426" rx=".6" ry=".6" fill="none" stroke="#525a5d" stroke-linejoin="round" stroke-width=".2"/></g><g transform="matrix(1.1375,0,0,1.0468,-40.977,284.5)"><rect x="74.594" y="76.381" width="1.62" height="10.608" fill="#434b4d"/><rect x="74.594" y="76.381" width="1.62" height="10.608" fill="none" stroke="#434b4d" stroke-width=".2"/><rect x="74.78" y="76.563" width="1.4341" height="10.426" rx=".6" ry=".6" fill="#687174"/><rect x="74.78" y="76.563" width="1.4341" height="10.426" rx=".6" ry=".6" fill="none" stroke="#525a5d" stroke-linejoin="round" stroke-width=".2"/></g><g transform="matrix(1.1375,0,0,1.0468,-40.977,284.5)"><rect x="77.023" y="76.381" width="1.62" height="10.608" fill="#434b4d"/><rect x="77.023" y="76.381" width="1.62" height="10.608" fill="none" stroke="#434b4d" stroke-width=".2"/><rect x="77.209" y="76.563" width="1.4341" height="10.426" rx=".6" ry=".6" fill="#687174"/><rect x="77.209" y="76.563" width="1.4341" height="10.426" rx=".6" ry=".6" fill="none" stroke="#525a5d" stroke-linejoin="round" stroke-width=".2"/></g><g transform="matrix(1.1375,0,0,1.0468,-40.977,284.5)"><rect x="79.451" y="76.381" width="1.62" height="10.608" fill="#434b4d"/><rect x="79.451" y="76.381" width="1.62" height="10.608" fill="none" stroke="#434b4d" stroke-width=".2"/><rect x="79.637" y="76.563" width="1.4341" height="10.426" rx=".6" ry=".6" fill="#687174"/><rect x="79.637" y="76.563" width="1.4341" height="10.426" rx=".6" ry=".6" fill="none" stroke="#525a5d" stroke-linejoin="round" stroke-width=".2"/></g><g transform="matrix(1.1375,0,0,1.0468,-40.977,284.5)"><rect x="84.308" y="76.381" width="1.62" height="10.608" fill="#434b4d"/><rect x="84.308" y="76.381" width="1.62" height="10.608" fill="none" stroke="#434b4d" stroke-width=".2"/><rect x="84.494" y="76.563" width="1.4341" height="10.426" rx=".6" ry=".6" fill="#687174"/><rect x="84.494" y="76.563" width="1.4341" height="10.426" rx=".6" ry=".6" fill="none" stroke="#525a5d" stroke-linejoin="round" stroke-width=".2"/></g><g transform="matrix(1.1375,0,0,1.0468,-40.977,284.5)"><rect x="86.736" y="76.381" width="1.62" height="10.608" fill="#434b4d"/><rect x="86.736" y="76.381" width="1.62" height="10.608" fill="none" stroke="#434b4d" stroke-width=".2"/><rect x="86.922" y="76.563" width="1.4341" height="10.426" rx=".6" ry=".6" fill="#687174"/><rect x="86.922" y="76.563" width="1.4341" height="10.426" rx=".6" ry=".6" fill="none" stroke="#525a5d" stroke-linejoin="round" stroke-width=".2"/></g><g transform="matrix(1.1375,0,0,1.0468,-40.977,284.5)"><rect x="89.165" y="76.381" width="1.62" height="10.608" fill="#434b4d"/><rect x="89.165" y="76.381" width="1.62" height="10.608" fill="none" stroke="#434b4d" stroke-width=".2"/><rect x="89.351" y="76.563" width="1.4341" height="10.426" rx=".6" ry=".6" fill="#687174"/><rect x="89.351" y="76.563" width="1.4341" height="10.426" rx=".6" ry=".6" fill="none" stroke="#525a5d" stroke-linejoin="round" stroke-width=".2"/></g><g transform="matrix(1.1375,0,0,1.0468,-40.977,284.5)"><rect x="81.88" y="76.381" width="1.62" height="10.608" fill="#434b4d"/><rect x="81.88" y="76.381" width="1.62" height="10.608" fill="none" stroke="#434b4d" stroke-width=".2"/><rect x="82.066" y="76.563" width="1.4341" height="10.426" rx=".6" ry=".6" fill="#687174"/><rect x="82.066" y="76.563" width="1.4341" height="10.426" rx=".6" ry=".6" fill="none" stroke="#525a5d" stroke-linejoin="round" stroke-width=".2"/></g><g transform="matrix(1.1375,0,0,1.0468,-40.977,284.5)"><rect x="91.593" y="76.381" width="1.62" height="10.608" fill="#434b4d"/><rect x="91.593" y="76.381" width="1.62" height="10.608" fill="none" stroke="#434b4d" stroke-width=".2"/><rect x="91.779" y="76.563" width="1.4341" height="10.426" rx=".6" ry=".6" fill="#687174"/><rect x="91.779" y="76.563" width="1.4341" height="10.426" rx=".6" ry=".6" fill="none" stroke="#525a5d" stroke-linejoin="round" stroke-width=".2"/></g><g transform="matrix(1.1375,0,0,1.0468,-40.977,284.5)"><rect x="94.022" y="76.381" width="1.62" height="10.608" fill="#434b4d"/><rect x="94.022" y="76.381" width="1.62" height="10.608" fill="none" stroke="#434b4d" stroke-width=".2"/><rect x="94.207" y="76.563" width="1.4341" height="10.426" rx=".6" ry=".6" fill="#687174"/><rect x="94.207" y="76.563" width="1.4341" height="10.426" rx=".6" ry=".6" fill="none" stroke="#525a5d" stroke-linejoin="round" stroke-width=".2"/></g><g transform="matrix(1.1375,0,0,1.0468,-40.977,284.5)"><rect x="96.45" y="76.381" width="1.62" height="10.608" fill="#434b4d"/><rect x="96.45" y="76.381" width="1.62" height="10.608" fill="none" stroke="#434b4d" stroke-width=".2"/><rect x="96.636" y="76.563" width="1.4341" height="10.426" rx=".6" ry=".6" fill="#687174"/><rect x="96.636" y="76.563" width="1.4341" height="10.426" rx=".6" ry=".6" fill="none" stroke="#525a5d" stroke-linejoin="round" stroke-width=".2"/></g><g transform="matrix(1.1375,0,0,1.0468,-40.977,284.5)"><rect x="98.878" y="76.381" width="1.62" height="10.608" fill="#434b4d"/><rect x="98.878" y="76.381" width="1.62" height="10.608" fill="none" stroke="#434b4d" stroke-width=".2"/><rect x="99.064" y="76.563" width="1.4341" height="10.426" rx=".6" ry=".6" fill="#687174"/><rect x="99.064" y="76.563" width="1.4341" height="10.426" rx=".6" ry=".6" fill="none" stroke="#525a5d" stroke-linejoin="round" stroke-width=".2"/></g><g transform="matrix(1.1375,0,0,1.0468,-40.977,284.5)"><rect x="101.31" y="76.381" width="1.62" height="10.608" fill="#434b4d"/><rect x="101.31" y="76.381" width="1.62" height="10.608" fill="none" stroke="#434b4d" stroke-width=".2"/><rect x="101.49" y="76.563" width="1.4341" height="10.426" rx=".6" ry=".6" fill="#687174"/><rect x="101.49" y="76.563" width="1.4341" height="10.426" rx=".6" ry=".6" fill="none" stroke="#525a5d" stroke-linejoin="round" stroke-width=".2"/></g><g transform="matrix(1.1375,0,0,1.0468,-40.977,284.5)"><rect x="103.74" y="76.381" width="1.62" height="10.608" fill="#434b4d"/><rect x="103.74" y="76.381" width="1.62" height="10.608" fill="none" stroke="#434b4d" stroke-width=".2"/><rect x="103.92" y="76.563" width="1.4341" height="10.426" rx=".6" ry=".6" fill="#687174"/><rect x="103.92" y="76.563" width="1.4341" height="10.426" rx=".6" ry=".6" fill="none" stroke="#525a5d" stroke-linejoin="round" stroke-width=".2"/></g><g transform="matrix(1.1375,0,0,1.0468,-40.977,284.5)"><rect x="106.16" y="76.381" width="1.62" height="10.608" fill="#434b4d"/><rect x="106.16" y="76.381" width="1.62" height="10.608" fill="none" stroke="#434b4d" stroke-width=".2"/><rect x="106.35" y="76.563" width="1.4341" height="10.426" rx=".6" ry=".6" fill="#687174"/><rect x="106.35" y="76.563" width="1.4341" height="10.426" rx=".6" ry=".6" fill="none" stroke="#525a5d" stroke-linejoin="round" stroke-width=".2"/></g><g transform="matrix(1.1375,0,0,1.0468,-40.977,284.5)"><rect x="108.59" y="76.381" width="1.62" height="10.608" fill="#434b4d"/><rect x="108.59" y="76.381" width="1.62" height="10.608" fill="none" stroke="#434b4d" stroke-width=".2"/><rect x="108.78" y="76.563" width="1.4341" height="10.426" rx=".6" ry=".6" fill="#687174"/><rect x="108.78" y="76.563" width="1.4341" height="10.426" rx=".6" ry=".6" fill="none" stroke="#525a5d" stroke-linejoin="round" stroke-width=".2"/></g><g transform="matrix(1.1375,0,0,1.0468,-40.977,284.5)"><rect x="133.57" y="76.381" width="1.62" height="10.608" fill="#434b4d"/><rect x="133.57" y="76.381" width="1.62" height="10.608" fill="none" stroke="#434b4d" stroke-width=".2"/><rect x="133.76" y="76.563" width="1.4341" height="10.426" rx=".6" ry=".6" fill="#687174"/><rect x="133.76" y="76.563" width="1.4341" height="10.426" rx=".6" ry=".6" fill="none" stroke="#525a5d" stroke-linejoin="round" stroke-width=".2"/></g><g transform="matrix(1.1375,0,0,1.0468,-40.977,284.5)"><rect x="158.86" y="76.381" width="1.62" height="10.608" fill="#434b4d"/><rect x="158.86" y="76.381" width="1.62" height="10.608" fill="none" stroke="#434b4d" stroke-width=".2"/><rect x="159.04" y="76.563" width="1.4341" height="10.426" rx=".6" ry=".6" fill="#687174"/><rect x="159.04" y="76.563" width="1.4341" height="10.426" rx=".6" ry=".6" fill="none" stroke="#525a5d" stroke-linejoin="round" stroke-width=".2"/></g><g transform="matrix(1.1375,0,0,1.0468,-40.977,284.5)"><rect x="184.22" y="76.381" width="1.62" height="10.608" fill="#434b4d"/><rect x="184.22" y="76.381" width="1.62" height="10.608" fill="none" stroke="#434b4d" stroke-width=".2"/><rect x="184.4" y="76.563" width="1.4341" height="10.426" rx=".6" ry=".6" fill="#687174"/><rect x="184.4" y="76.563" width="1.4341" height="10.426" rx=".6" ry=".6" fill="none" stroke="#525a5d" stroke-linejoin="round" stroke-width=".2"/></g><g transform="matrix(1.1375,0,0,1.0468,-40.977,284.5)"><rect x="209.36" y="76.381" width="1.62" height="10.608" fill="#434b4d"/><rect x="209.36" y="76.381" width="1.62" height="10.608" fill="none" stroke="#434b4d" stroke-width=".2"/><rect x="209.54" y="76.563" width="1.4341" height="10.426" rx=".6" ry=".6" fill="#687174"/><rect x="209.54" y="76.563" width="1.4341" height="10.426" rx=".6" ry=".6" fill="none" stroke="#525a5d" stroke-linejoin="round" stroke-width=".2"/></g><g transform="matrix(1.1375,0,0,1.0468,-40.977,284.5)"><rect x="239.17" y="76.381" width="1.62" height="10.608" fill="#434b4d"/><rect x="239.17" y="76.381" width="1.62" height="10.608" fill="none" stroke="#434b4d" stroke-width=".2"/><rect x="239.35" y="76.563" width="1.4341" height="10.426" rx=".6" ry=".6" fill="#687174"/><rect x="239.35" y="76.563" width="1.4341" height="10.426" rx=".6" ry=".6" fill="none" stroke="#525a5d" stroke-linejoin="round" stroke-width=".2"/></g><g transform="matrix(1.1375,0,0,1.0468,-40.977,284.5)"><rect x="270.95" y="76.421" width="1.62" height="10.608" fill="#434b4d"/><rect x="270.95" y="76.421" width="1.62" height="10.608" fill="none" stroke="#434b4d" stroke-width=".2"/><rect x="271.13" y="76.603" width="1.4341" height="10.426" rx=".6" ry=".6" fill="#687174"/><rect x="271.13" y="76.603" width="1.4341" height="10.426" rx=".6" ry=".6" fill="none" stroke="#525a5d" stroke-linejoin="round" stroke-width=".2"/></g><g transform="matrix(1.1375,0,0,1.0468,-40.977,284.5)"><rect x="136.14" y="76.381" width="21.683" height="10.608" fill="#434b4d"/><rect x="136.14" y="76.381" width="21.683" height="10.608" fill="none" stroke="#434b4d" stroke-width=".2"/><rect x="136.32" y="76.563" width="21.408" height="10.426" rx=".6" ry=".6" fill="#687174"/><rect x="136.32" y="76.563" width="21.408" height="10.426" rx=".6" ry=".6" fill="none" stroke="#525a5d" stroke-linejoin="round" stroke-width=".2"/></g><g transform="matrix(1.1375,0,0,1.0468,-40.977,284.5)"><rect x="161.65" y="76.381" width="21.683" height="10.608" fill="#434b4d"/><rect x="161.65" y="76.381" width="21.683" height="10.608" fill="none" stroke="#434b4d" stroke-width=".2"/><rect x="161.84" y="76.563" width="21.408" height="10.426" rx=".6" ry=".6" fill="#687174"/><rect x="161.84" y="76.563" width="21.408" height="10.426" rx=".6" ry=".6" fill="none" stroke="#525a5d" stroke-linejoin="round" stroke-width=".2"/></g><g transform="matrix(1.1375,0,0,1.0468,-40.977,284.5)"><rect x="186.86" y="76.381" width="21.683" height="10.608" fill="#434b4d"/><rect x="186.86" y="76.381" width="21.683" height="10.608" fill="none" stroke="#434b4d" stroke-width=".2"/><rect x="187.05" y="76.563" width="21.408" height="10.426" rx=".6" ry=".6" fill="#687174"/><rect x="187.05" y="76.563" width="21.408" height="10.426" rx=".6" ry=".6" fill="none" stroke="#525a5d" stroke-linejoin="round" stroke-width=".2"/></g><g transform="matrix(1.1375,0,0,1.0468,-40.977,284.5)"><rect x="212.4" y="76.381" width="18.214" height="10.608" fill="#434b4d"/><rect x="212.4" y="76.381" width="18.214" height="10.608" fill="none" stroke="#434b4d" stroke-width=".2"/><rect x="212.59" y="76.563" width="17.896" height="10.426" rx=".6" ry=".6" fill="#687174"/><rect x="212.59" y="76.563" width="17.896" height="10.426" rx=".6" ry=".6" fill="none" stroke="#525a5d" stroke-linejoin="round" stroke-width=".2"/></g><g transform="matrix(1.1375,0,0,1.0468,-40.977,284.5)"><rect x="241.43" y="76.381" width="28.587" height="10.608" fill="#434b4d"/><rect x="241.43" y="76.381" width="28.587" height="10.608" fill="none" stroke="#434b4d" stroke-width=".2"/><rect x="241.61" y="76.563" width="28.32" height="10.426" rx=".6" ry=".6" fill="#687174"/><rect x="241.61" y="76.563" width="28.32" height="10.426" rx=".6" ry=".6" fill="none" stroke="#525a5d" stroke-linejoin="round" stroke-width=".2"/></g><g transform="matrix(1.1375,0,0,1.0468,-40.977,284.5)"><rect x="113.9" y="80.049" width="6.9545" height="4.596"/><rect x="113.9" y="80.049" width="6.9545" height="4.596" fill="none" stroke="#7f7f7f" stroke-width=".2"/><polygon points="114.1 80.249 114.1 84.356 120.56 84.308 120.51 80.249 115.5 80.249"/><polygon points="114.1 80.249 114.1 84.356 120.56 84.308 120.51 80.249 115.5 80.249" fill="none" stroke="#7f7f7f" stroke-width=".1"/></g><g transform="matrix(1.1375,0,0,1.0468,-40.977,284.5)"><rect x="139.08" y="80.049" width="6.9545" height="4.596"/><rect x="139.08" y="80.049" width="6.9545" height="4.596" fill="none" stroke="#7f7f7f" stroke-width=".2"/><polygon points="139.28 80.249 139.28 84.356 145.74 84.308 145.7 80.249 140.68 80.249"/><polygon points="139.28 80.249 139.28 84.356 145.74 84.308 145.7 80.249 140.68 80.249" fill="none" stroke="#7f7f7f" stroke-width=".1"/></g><g transform="matrix(1.1375,0,0,1.0468,-40.977,284.5)"><rect x="164.34" y="80.049" width="6.9545" height="4.596"/><rect x="164.34" y="80.049" width="6.9545" height="4.596" fill="none" stroke="#7f7f7f" stroke-width=".2"/><polygon points="164.54 80.249 164.54 84.356 171.01 84.308 170.96 80.249 165.94 80.249"/><polygon points="164.54 80.249 164.54 84.356 171.01 84.308 170.96 80.249 165.94 80.249" fill="none" stroke="#7f7f7f" stroke-width=".1"/></g><g transform="matrix(1.1375,0,0,1.0468,-40.977,284.5)"><rect x="189.6" y="80.049" width="6.9545" height="4.596"/><rect x="189.6" y="80.049" width="6.9545" height="4.596" fill="none" stroke="#7f7f7f" stroke-width=".2"/><polygon points="189.8 80.249 189.8 84.356 196.27 84.308 196.22 80.249 191.2 80.249"/><polygon points="189.8 80.249 189.8 84.356 196.27 84.308 196.22 80.249 191.2 80.249" fill="none" stroke="#7f7f7f" stroke-width=".1"/></g><g transform="matrix(1.1375,0,0,1.0468,-40.977,284.5)"><rect x="214" y="80.049" width="6.9545" height="4.596"/><rect x="214" y="80.049" width="6.9545" height="4.596" fill="none" stroke="#7f7f7f" stroke-width=".2"/><polygon points="214.2 80.249 214.2 84.356 220.67 84.308 220.62 80.249 215.6 80.249"/><polygon points="214.2 80.249 214.2 84.356 220.67 84.308 220.62 80.249 215.6 80.249" fill="none" stroke="#7f7f7f" stroke-width=".1"/></g><g transform="matrix(1.1375,0,0,1.0468,-40.977,284.5)"><rect x="221.24" y="80.049" width="6.9545" height="4.596"/><rect x="221.24" y="80.049" width="6.9545" height="4.596" fill="none" stroke="#7f7f7f" stroke-width=".2"/><polygon points="221.44 80.249 221.44 84.356 227.9 84.308 227.86 80.249 222.84 80.249"/><polygon points="221.44 80.249 221.44 84.356 227.9 84.308 227.86 80.249 222.84 80.249" fill="none" stroke="#7f7f7f" stroke-width=".1"/></g><g transform="matrix(1.1375,0,0,1.0468,-40.977,284.5)"><rect x="231.33" y="76.381" width="7.2407" height="10.608" fill="#434b4d"/><rect x="231.33" y="76.381" width="7.2407" height="10.608" fill="none" stroke="#434b4d" stroke-width=".2"/><rect x="231.51" y="76.563" width="6.9738" height="10.426" rx=".6" ry=".6" fill="#687174"/><rect x="231.51" y="76.563" width="6.9738" height="10.426" rx=".6" ry=".6" fill="none" stroke="#525a5d" stroke-linejoin="round" stroke-width=".2"/></g><g transform="matrix(1.0262,0,0,1.0676,-11.315,282.97)"><ellipse cx="267.67" cy="73.61" rx="1.0624" ry=".99993"/><ellipse cx="267.67" cy="73.61" rx="1.0624" ry=".99993" fill="none" stroke="#e5e5e5"/></g><g fill="#fff" font-weight="700"><g transform="scale(1.0424 .95929)" aria-label="7205"><path d="m212.48 369.52h1.8959l-1.1308 3.3684h-0.38497l1.0105-3.0123h-1.3907z"/><path d="m215.24 372.54h1.4244v0.34646h-1.8622v-0.34646l1.1356-1.3137q0.35609-0.42346 0.35609-0.78917 0-0.28391-0.17564-0.46917t-0.45954-0.18526h-0.01q-0.21173 0-0.3609 0.12511t-0.1588 0.28872h-0.34165q5e-3 -0.29835 0.26947-0.51729 0.26466-0.21895 0.59188-0.21895 0.44752 0 0.7194 0.25504 0.27188 0.25503 0.27188 0.69293v0.0144q0 0.49083-0.33685 0.89504z"/><path d="m218.74 371.26q0-1.4436-0.66886-1.4436-0.66887 0-0.66887 1.4436 0 1.4436 0.66887 1.4436 0.66886 0 0.66886-1.4436zm-0.66886-1.7516q0.49082 0 0.75789 0.44752 0.26706 0.44752 0.26706 1.3041 0 0.85172-0.26466 1.2896-0.26466 0.43789-0.76029 0.43789-0.49564 0-0.75549-0.43549t-0.25985-1.292q0-0.85654 0.25985-1.3041t0.75549-0.44752z"/><path d="m220 369.46h1.3233l-0.077 0.34165h-1.025l-0.25503 0.86135q0.13473-0.0289 0.27428-0.0385 0.48601 0 0.77955 0.30316 0.29353 0.30315 0.29353 0.83729 0 0.53894-0.29594 0.83007-0.29594 0.29112-0.83488 0.29112-0.42346 0-0.76993-0.37533l0.19248-0.26948q0.26467 0.3176 0.56782 0.33203 0.36571 0 0.57744-0.21413 0.21173-0.21414 0.21173-0.59428 0-0.37534-0.21413-0.59429-0.21414-0.21894-0.57504-0.21894-0.29834 0-0.64481 0.17804z"/></g><g font-size="3.0797px"><g transform="scale(1.0424 .95929)" aria-label="0"><path d="m94.956 390.49q0-0.90226-0.41804-0.90226t-0.41804 0.90226q0 0.90225 0.41804 0.90225t0.41804-0.90225zm-0.41804-1.0947q0.30677 0 0.47368 0.2797 0.16692 0.2797 0.16692 0.81504 0 0.53233-0.16541 0.80601-0.16541 0.27369-0.47519 0.27369-0.30977 0-0.47218-0.27218t-0.16241-0.80752 0.16241-0.81504 0.47218-0.2797z"/></g><g transform="scale(1.0424 .95929)" aria-label="1"><path d="m121.73 389.39v2.1053h-0.2406v-1.8677h-0.29775l0.10527-0.23759z"/></g><g transform="scale(1.0424 .95929)" aria-label="2"><path d="m149.36 391.28h0.89023v0.21654h-1.1639v-0.21654l0.70977-0.82105q0.22256-0.26466 0.22256-0.49324 0-0.17744-0.10978-0.29323-0.10977-0.11579-0.28721-0.11579h-6e-3q-0.13233 0-0.22556 0.0782-0.0932 0.0782-0.0993 0.18045h-0.21353q3e-3 -0.18647 0.16842-0.32331 0.16541-0.13684 0.36992-0.13684 0.2797 0 0.44963 0.1594 0.16992 0.1594 0.16992 0.43308v9e-3q0 0.30677-0.21053 0.5594z"/></g><g transform="scale(1.0424 .95929)" aria-label="3"><path d="m176.58 391.04h0.24361q0.0331 0.13534 0.13383 0.20902 0.10075 0.0737 0.25113 0.0737 0.18647 0 0.29774-0.11579 0.11128-0.11579 0.11128-0.3203 0-0.19549-0.10376-0.31429-0.10376-0.11879-0.28721-0.11879v-0.20452q0.15939 0 0.25563-0.0947 0.0962-0.0947 0.0962-0.26015 0-0.17745-0.0977-0.2767-0.0977-0.0992-0.27218-0.0992-0.14135 0-0.23308 0.0707-0.0917 0.0707-0.11579 0.2h-0.2406q0.0211-0.21654 0.17594-0.33985 0.15488-0.1233 0.41353-0.1233 0.26767 0 0.42707 0.14285 0.1594 0.14286 0.1594 0.3985 0 0.17744-0.0902 0.30225-0.0902 0.12482-0.25564 0.17594 0.18045 0.0481 0.28421 0.18797 0.10376 0.13985 0.10677 0.35339 0 0.29474-0.16391 0.45413-0.16391 0.1594-0.46767 0.1594-0.56241 0-0.62857-0.46015z"/></g><g transform="scale(1.0424 .95929)" aria-label="4"><path d="m197.84 389.89-0.47519 0.78196h0.47519zm0.23158-0.68271v1.4647h0.27068v0.21954h-0.27068v0.45715h-0.23158v-0.45715h-0.8421v-0.0602l1.0286-1.6241z"/></g><g transform="scale(1.0424 .95929)" aria-label="5"><path d="m205.71 389.16h0.82706l-0.0481 0.21353h-0.6406l-0.1594 0.53835q0.0842-0.0181 0.17143-0.0241 0.30376 0 0.48722 0.18947 0.18346 0.18948 0.18346 0.52331 0 0.33684-0.18496 0.5188-0.18497 0.18195-0.52181 0.18195-0.26466 0-0.4812-0.23458l0.1203-0.16842q0.16541 0.19849 0.35489 0.20751 0.22857 0 0.3609-0.13383 0.13233-0.13384 0.13233-0.37143 0-0.23459-0.13384-0.37143-0.13383-0.13684-0.35939-0.13684-0.18647 0-0.40301 0.11128z"/></g></g><g transform="scale(1.0424 .95929)" aria-label="MGMT"><path d="m246.02 390.82 0.34827-1.283 0.323 0.91668 0.32301-0.91668 0.34646 1.283h-0.14797l-0.22556-0.83006-0.29955 0.83006-0.29413-0.83006-0.22556 0.83006z"/><path d="m248.29 390.67v-0.3609h-0.24721v-0.12632h0.38436v0.54857q-0.16963 0.12271-0.41323 0.12271-0.26165 0-0.40782-0.17053-0.14616-0.17052-0.14616-0.4809 0-0.31037 0.14706-0.4818 0.14707-0.17142 0.40692-0.17142 0.20751 0 0.37894 0.11007l-0.074 0.10647q-0.13534-0.0975-0.29414-0.0975-0.42586 0-0.42586 0.53413 0 0.52872 0.42586 0.52872 0.17324 0 0.26526-0.0614z"/><path d="m248.56 390.82 0.34826-1.283 0.32301 0.91668 0.323-0.91668 0.34646 1.283h-0.14796l-0.22557-0.83006-0.29954 0.83006-0.29413-0.83006-0.22557 0.83006z"/><path d="m249.96 389.55h0.90044v0.13173h-0.38074v1.1314h-0.13715v-1.1314h-0.38255z"/></g><g transform="scale(1.0424 .95929)" aria-label="Console"><path d="m228.29 389.57-0.0722 0.0992q-0.12631-0.0938-0.27067-0.0938-0.19489 0-0.30225 0.13894-0.10737 0.13895-0.10737 0.4006 0 0.25804 0.10376 0.39518 0.10375 0.13714 0.30586 0.13714 0.14436 0 0.26165-0.0866l0.0794 0.0938q-0.14978 0.10827-0.35007 0.10827-0.25083 0-0.39609-0.17233t-0.14526-0.47548q0-0.30496 0.14526-0.4818t0.39609-0.17684q0.19127 0 0.35187 0.11368z"/><path d="m228.82 389.93q0.16782 0 0.28602 0.12361 0.11819 0.12361 0.11819 0.30225 0 0.17684-0.11819 0.29864-0.1182 0.12181-0.28602 0.12181-0.16962 0-0.28962-0.1209t-0.12-0.29774q0-0.17865 0.12-0.30316t0.28962-0.12451zm2e-3 0.11549q-0.11008 0-0.18857 0.0929-0.0785 0.0929-0.0785 0.21925 0 0.12631 0.0785 0.21563 0.0785 0.0893 0.18857 0.0893t0.18766-0.0893q0.0776-0.0893 0.0776-0.21563 0-0.12632-0.0785-0.21925-0.0785-0.0929-0.18676-0.0929z"/><path d="m230.08 390.26v0.48722h-0.13714v-0.4818q0-0.22556-0.18406-0.22917-0.11008 0-0.17143 0.0677-0.0614 0.0677-0.065 0.18856v0.45474h-0.13714v-0.80842h0.13714v0.12812q0.0974-0.14616 0.26706-0.14616 0.14075 0 0.21564 0.0857 0.0749 0.0857 0.0749 0.25353z"/><path d="m230.78 390.03-0.0776 0.0884q-0.0848-0.0794-0.17323-0.0794-0.0704 0-0.11459 0.0352-0.0442 0.0352-0.0442 0.0965 5e-3 0.0902 0.18586 0.12812 0.25263 0.065 0.25263 0.22917v4e-3q0 0.11549-0.0785 0.17774-0.0785 0.0623-0.23549 0.0623-0.0758 0-0.15338-0.0343-0.0776-0.0343-0.12631-0.0938l0.0992-0.0848q0.0722 0.0992 0.18406 0.0992 0.0938 0 0.13173-0.0208 0.0379-0.0208 0.0397-0.0803 0-0.0668-0.0361-0.0929-0.0361-0.0262-0.12993-0.0496-0.13172-0.0361-0.19398-0.0893-0.0622-0.0532-0.0641-0.14887 0-0.11368 0.0785-0.18225 0.0785-0.0686 0.21022-0.0686 0.12992 0 0.24541 0.10466z"/><path d="m231.35 389.93q0.16782 0 0.28601 0.12361 0.1182 0.12361 0.1182 0.30225 0 0.17684-0.1182 0.29864-0.11819 0.12181-0.28601 0.12181-0.16962 0-0.28962-0.1209t-0.12-0.29774q0-0.17865 0.12-0.30316t0.28962-0.12451zm2e-3 0.11549q-0.11008 0-0.18857 0.0929-0.0785 0.0929-0.0785 0.21925 0 0.12631 0.0785 0.21563 0.0785 0.0893 0.18857 0.0893t0.18766-0.0893q0.0776-0.0893 0.0776-0.21563 0-0.12632-0.0785-0.21925-0.0785-0.0929-0.18676-0.0929z"/><path d="m231.94 389.39h0.13714v1.3534h-0.13714z"/><path d="m232.92 390.54 0.0848 0.0758q-0.10827 0.14617-0.34105 0.14978-0.16962 0-0.28781-0.12091-0.1182-0.1209-0.1182-0.29774 0-0.18045 0.11459-0.30405 0.11458-0.12361 0.2824-0.12361h7e-3q0.1606 0 0.25804 0.10195 0.0974 0.10196 0.11188 0.2788v0.0491h-0.63338q0 0.12451 0.0785 0.21383 0.0785 0.0893 0.18857 0.0893h0.0144q0.14436 0 0.24-0.11188zm-0.50706-0.30496h0.47999q-0.0162-0.10285-0.0812-0.15157-0.065-0.0487-0.15518-0.0487-0.0812 0-0.15519 0.0659-0.074 0.0659-0.0884 0.13443z"/></g></g><g transform="matrix(1.0006 0 0 .99999 -9.5168 19.678)"><path d="m110.02 353.2h7.5579v-6.9858l-7.5579-2.3e-4z" fill="#3a3a3a"/><g transform="matrix(.0080752 0 0 .0080046 96.896 381.97)"><path d="m2560.5-3593.3v-872.71l-935.94-0.027v872.74z" fill="none" stroke="#000" stroke-linecap="square" stroke-width=".67568"/></g><path d="m110.32 347.98h1.7584l-3e-3 -1.0653 0.63992-5.7e-4v-0.39887h2.0626l-4.8e-4 0.39991h0.66608v1.0654h1.7503v4.5866l-6.8735 0.0149z" fill="#1a1a1a"/><path d="m115.6 347.7h1.7367v-0.74886h-1.7367z" fill="#abb927"/><path d="m110.16 347.7h1.752v-0.75276h-1.752z" fill="#ff7d00"/><path d="m110.02 353.21-1e-3 -6.9884 2.3308-9.5e-4v0.67227l-2.2487-1e-3v0.87026l0.22325 7e-3 4.8e-4 4.8157 6.87-0.01 5e-3 -5e-3 5.3e-4 -4.801 0.22324-7e-3v-0.87027l-2.2619 1e-3v-0.67227l2.4153 9.5e-4 1e-3 6.9884" fill="#ebebeb"/></g><path class="st1" d="m42.747 356.87c0 0.5948-0.47584 1.0781-1.0558 1.0781-0.57994 0-1.0558-0.48329-1.0558-1.0781v-0.91452s0.50559 0.12641 0.50559 0.66173v0.25279c0 0.32714 0.24536 0.58737 0.55019 0.58737 0.30484 0 0.5502-0.26023 0.5502-0.58737v-0.52789 7e-3c0.02233-0.44611 0.4015-0.58738 0.49815-0.63943h0.0078v1.1599zm-2.7138-1.0706c0.14128 0 0.2751 0.0223 0.39406 0.0743v0.56506c-0.10409-0.0892-0.24536-0.14127-0.39406-0.14127-0.33458 0-0.60224 0.26024-0.60224 0.58738v1.0632h-0.50559v-1.948s0.20818 7e-3 0.34201 0.10415c0.19331-0.19332 0.46841-0.30484 0.76581-0.30484m-2.4238 1.6654c-0.33458 0-0.60967-0.26767-0.60967-0.59481s0.2751-0.59481 0.60967-0.59481c0.33459 0 0.60967 0.26767 0.60967 0.59481s-0.27509 0.59481-0.60967 0.59481m0-1.6654c-0.60967 0-1.1004 0.48327-1.1004 1.0706 0 0.59481 0.49072 1.0707 1.1004 1.0707 0.2528 0 0.48328-0.0818 0.66916-0.22306 0.11153 0.18587 0.43124 0.22306 0.43124 0.22306v-1.0707c0-0.58737-0.49073-1.0706-1.1004-1.0706m8.7957 1.6654c-0.33459 0-0.60968-0.26767-0.60968-0.59481s0.2751-0.59481 0.60968-0.59481 0.60967 0.26767 0.60967 0.59481-0.27509 0.59481-0.60967 0.59481m0-1.6654c-0.60968 0-1.1004 0.48327-1.1004 1.0706 0 0.59481 0.49072 1.0707 1.1004 1.0707 0.25278 0 0.48328-0.0818 0.66916-0.22306 0.11153 0.18587 0.43123 0.22306 0.43123 0.22306v-1.0707c0-0.58737-0.49072-1.0706-1.1004-1.0706m-2.3346 1.6654c-0.33459 0-0.60968-0.26767-0.60968-0.59481s0.2751-0.59481 0.60968-0.59481 0.60967 0.26767 0.60967 0.59481c0.0078 0.32714-0.26767 0.59481-0.60967 0.59481m0-1.6654c-0.22306 0-0.43123 0.0669-0.60968 0.17843v-0.171c-0.02233-0.44611-0.38662-0.58738-0.48328-0.63943h-0.0078v2.7807s0.32714-0.0372 0.45354-0.21562c0.18588 0.1264 0.40892 0.20819 0.64686 0.20819 0.60967 0 1.1004-0.48328 1.1004-1.0707 0.0078-0.58737-0.49072-1.0706-1.1004-1.0706" fill="#f5831f"/><g transform="matrix(1.0262,0,0,1.0676,-11.315,278.26)"><ellipse cx="267.67" cy="73.61" rx="1.0624" ry=".99993"/><ellipse cx="267.67" cy="73.61" rx="1.0624" ry=".99993" fill="none" stroke="#e5e5e5"/></g><g transform="matrix(1.0006 0 0 .99999 19.058 19.678)"><path d="m110.02 353.2h7.5579v-6.9858l-7.5579-2.3e-4z" fill="#3a3a3a"/><g transform="matrix(.0080752 0 0 .0080046 96.896 381.97)"><path d="m2560.5-3593.3v-872.71l-935.94-0.027v872.74z" fill="none" stroke="#000" stroke-linecap="square" stroke-width=".67568"/></g><path d="m110.32 347.98h1.7584l-3e-3 -1.0653 0.63992-5.7e-4v-0.39887h2.0626l-4.8e-4 0.39991h0.66608v1.0654h1.7503v4.5866l-6.8735 0.0149z" fill="#1a1a1a"/><path d="m115.6 347.7h1.7367v-0.74886h-1.7367z" fill="#abb927"/><path d="m110.16 347.7h1.752v-0.75276h-1.752z" fill="#ff7d00"/><path d="m110.02 353.21-1e-3 -6.9884 2.3308-9.5e-4v0.67227l-2.2487-1e-3v0.87026l0.22325 7e-3 4.8e-4 4.8157 6.87-0.01 5e-3 -5e-3 5.3e-4 -4.801 0.22324-7e-3v-0.87027l-2.2619 1e-3v-0.67227l2.4153 9.5e-4 1e-3 6.9884" fill="#ebebeb"/></g><g transform="matrix(1.0006 0 0 .99999 48.034 19.678)"><path d="m110.02 353.2h7.5579v-6.9858l-7.5579-2.3e-4z" fill="#3a3a3a"/><g transform="matrix(.0080752 0 0 .0080046 96.896 381.97)"><path d="m2560.5-3593.3v-872.71l-935.94-0.027v872.74z" fill="none" stroke="#000" stroke-linecap="square" stroke-width=".67568"/></g><path d="m110.32 347.98h1.7584l-3e-3 -1.0653 0.63992-5.7e-4v-0.39887h2.0626l-4.8e-4 0.39991h0.66608v1.0654h1.7503v4.5866l-6.8735 0.0149z" fill="#1a1a1a"/><path d="m115.6 347.7h1.7367v-0.74886h-1.7367z" fill="#abb927"/><path d="m110.16 347.7h1.752v-0.75276h-1.752z" fill="#ff7d00"/><path d="m110.02 353.21-1e-3 -6.9884 2.3308-9.5e-4v0.67227l-2.2487-1e-3v0.87026l0.22325 7e-3 4.8e-4 4.8157 6.87-0.01 5e-3 -5e-3 5.3e-4 -4.801 0.22324-7e-3v-0.87027l-2.2619 1e-3v-0.67227l2.4153 9.5e-4 1e-3 6.9884" fill="#ebebeb"/></g><g transform="matrix(1.0006 0 0 .99999 76.841 19.678)"><path d="m110.02 353.2h7.5579v-6.9858l-7.5579-2.3e-4z" fill="#3a3a3a"/><g transform="matrix(.0080752 0 0 .0080046 96.896 381.97)"><path d="m2560.5-3593.3v-872.71l-935.94-0.027v872.74z" fill="none" stroke="#000" stroke-linecap="square" stroke-width=".67568"/></g><path d="m110.32 347.98h1.7584l-3e-3 -1.0653 0.63992-5.7e-4v-0.39887h2.0626l-4.8e-4 0.39991h0.66608v1.0654h1.7503v4.5866l-6.8735 0.0149z" fill="#1a1a1a"/><path d="m115.6 347.7h1.7367v-0.74886h-1.7367z" fill="#abb927"/><path d="m110.16 347.7h1.752v-0.75276h-1.752z" fill="#ff7d00"/><path d="m110.02 353.21-1e-3 -6.9884 2.3308-9.5e-4v0.67227l-2.2487-1e-3v0.87026l0.22325 7e-3 4.8e-4 4.8157 6.87-0.01 5e-3 -5e-3 5.3e-4 -4.801 0.22324-7e-3v-0.87027l-2.2619 1e-3v-0.67227l2.4153 9.5e-4 1e-3 6.9884" fill="#ebebeb"/></g><g transform="matrix(1.0006 0 0 .99999 145.62 19.678)"><path d="m110.02 353.2h7.5579v-6.9858l-7.5579-2.3e-4z" fill="#3a3a3a"/><g transform="matrix(.0080752 0 0 .0080046 96.896 381.97)"><path d="m2560.5-3593.3v-872.71l-935.94-0.027v872.74z" fill="none" stroke="#000" stroke-linecap="square" stroke-width=".67568"/></g><path d="m110.32 347.98h1.7584l-3e-3 -1.0653 0.63992-5.7e-4v-0.39887h2.0626l-4.8e-4 0.39991h0.66608v1.0654h1.7503v4.5866l-6.8735 0.0149z" fill="#1a1a1a"/><path d="m115.6 347.7h1.7367v-0.74886h-1.7367z" fill="#abb927"/><path d="m110.16 347.7h1.752v-0.75276h-1.752z" fill="#ff7d00"/><path d="m110.02 353.21-1e-3 -6.9884 2.3308-9.5e-4v0.67227l-2.2487-1e-3v0.87026l0.22325 7e-3 4.8e-4 4.8157 6.87-0.01 5e-3 -5e-3 5.3e-4 -4.801 0.22324-7e-3v-0.87027l-2.2619 1e-3v-0.67227l2.4153 9.5e-4 1e-3 6.9884" fill="#ebebeb"/></g><g transform="matrix(1.0024,0,0,1.0019,89.331,154.78)"><path d="m146.09 217.75h8.4v-7.0242h-8.4z" fill="#3a3a3a"/><g transform="matrix(.0080517 0 0 .0080487 133.48 246.67)"><path d="m2609.9-3593.3v-872.71h-1043.3v872.71z" fill="none" stroke="#000" stroke-linecap="square" stroke-width=".67568"/></g><path d="m146.86 212.5h1.7532l-3e-3 -1.0712 0.63806-5.7e-4v-0.40106h2.0566l-4.9e-4 0.40211h0.66414v1.0712h1.7452v4.6119l-6.8535 0.015z" fill="#1a1a1a"/><g fill="#ebebeb"><path d="m148.88 211.4v-0.67597l-2.7924 9.6e-4 2e-3 6.9848 0.77137-0.62711-4.8e-4 -4.8021 1.5788-7e-3v-0.87506z"/><path d="m146.89 217.13-0.76557 0.62244 8.3332 1e-3 -0.78248-0.63628"/><path d="m151.68 211.4v-0.67597l2.8056 9.6e-4 -2e-3 6.9848-0.77145-0.63081 5.6e-4 -4.7984-1.5906-7e-3v-0.87506z"/></g></g><g transform="matrix(1.0036 0 0 .56338 136.95 255.86)"><path d="m110.68 204.3h3.7977c0.31236-0.0253 0.47172 0.26313 0.46384 0.53195v1.167c-0.0177 0.40759-0.69625 1.0145-1.2147 0.97148h-2.4609c-0.16724 0.0534-1.0983-0.60543-1.0629-1.0023v-1.1665c-0.0205-0.34162 0.30491-0.50905 0.47686-0.50159" fill="#e6e6e6"/><path d="m110.82 204.48h3.492c0.37167-0.0222 0.41803 0.25189 0.41125 0.48766v1.0611c-0.0156 0.26619-0.58392 0.79942-1.0385 0.76155h-2.3058c-0.14683 0.0469-0.93886-0.53989-0.95768-0.7883v-1.0612c-0.0176-0.29936 0.24811-0.46751 0.3988-0.46085" fill="#1d1d1d"/><path transform="matrix(.53109 0 0 .53109 35 368.35)" d="m144.09-307.32c-4e-3 -1.6e-4 -9e-3 2e-3 -0.0137 2e-3h-0.0117c-0.17447-7e-3 -0.45217 0.11055-0.43164 0.42579v1.0488c6e-3 0.0693 0.0738 0.16195 0.17187 0.25782 0.2624 0.2717 0.80298 0.59446 0.93164 0.55664h2.4942c0.52548 0.0402 1.2155-0.47741 1.2324-0.75782v-1.0781c8e-3 -0.24841-2e-3 -0.47824-0.43164-0.45508h-3.9414z" fill="#404040"/><g fill="#070707"><path d="m111.56 205.87h0.1884v-0.41664h-0.1884z"/><path d="m112.01 205.87h0.18839v-0.41664h-0.18839z"/><path d="m112.48 205.87h0.18799v-0.41664h-0.18799z"/><path d="m112.96 205.87h0.18799v-0.41664h-0.18799z"/><path d="m113.42 205.87h0.18837v-0.41664h-0.18837z"/></g></g><g transform="translate(-.046942 .21106)"><g transform="matrix(.31464 0 0 .31449 186.02 288.88)"><path d="m131.23 266.26v-24.611h-8.376v24.611z"/><path d="m131.23 266.26v-24.611h-8.3762v24.611z" fill="none" stroke="#535353" stroke-linecap="round" stroke-linejoin="round" stroke-miterlimit="4.4615" stroke-width=".10782"/><g stroke="#000" stroke-linejoin="round"><path d="m126.34 264.07v-20.304h-1.4326v20.304z" fill="none" stroke-linecap="round" stroke-miterlimit="4.4615" stroke-width=".10782"/><path d="m124.91 264.07v-20.304l-0.71578-0.72485v21.754l0.71578-0.72485" fill="#a09a9a" stroke-width=".11578"/><path d="m127.06 264.79v-21.754l-0.71603 0.72485v20.304l0.71603 0.72485" fill="#a09a9a" stroke-width=".11578"/><path d="m127.06 264.79v-21.754l-0.71643 0.72523v20.304l0.71643 0.72472z" fill="none" stroke-linecap="round" stroke-miterlimit="4.4615" stroke-width=".10782"/></g><path d="m127.06 264.79-0.71603-0.72485h-1.4333l-0.71578 0.72485h2.8651" fill="#a09a9a" stroke="#000" stroke-linecap="round" stroke-linejoin="round" stroke-width=".11578"/><path d="m127.06 243.04-0.71603 0.72485h-1.4333l-0.71578-0.72485h2.8651" fill="#a09a9a" stroke="#000" stroke-linejoin="round" stroke-width=".11578"/><path d="m126.31 264.05v-20.293h-1.3976v20.293z" fill="#505050"/></g></g><g fill="#008000" fill-rule="evenodd" stroke="#165016" stroke-linejoin="round" stroke-width=".34814"><g transform="translate(.66556 -.23471)"><circle cx="90.491" cy="365.59" r=".46833"/><circle cx="93.254" cy="365.59" r=".46833"/></g><g transform="translate(29.312 -.23471)"><circle cx="90.491" cy="365.59" r=".46833"/><circle cx="93.254" cy="365.59" r=".46833"/></g><g transform="translate(58.05 -.23471)"><circle cx="90.491" cy="365.59" r=".46833"/><circle cx="93.254" cy="365.59" r=".46833"/></g><g transform="translate(86.788 -.23471)"><circle cx="90.491" cy="365.59" r=".46833"/><circle cx="93.254" cy="365.59" r=".46833"/></g><g transform="translate(114.54 -.23471)"><circle cx="90.491" cy="365.59" r=".46833"/><circle cx="93.254" cy="365.59" r=".46833"/></g><g transform="translate(122.77 -.23471)"><circle cx="90.491" cy="365.59" r=".46833"/><circle cx="93.254" cy="365.59" r=".46833"/></g></g></g></svg>
