<svg width="162.13" height="162.13" version="1.1" viewBox="37.333333 394.66667 162.13 162.13" xmlns="http://www.w3.org/2000/svg"><g transform="matrix(2.0084 0 0 2.0084 -32.96 -316.92)"><path d="m42.002 361.56c6.612-6.2165 27.279-7.3201 33.383-7.2518 6.1039 0.0683 27.479-0.0249 33.383 7.2518 5.9038 7.2766 7.003 19.616 6.9572 33.552-0.0459 13.936-0.33385 28.576-6.9572 33.552-8.5509 6.9121-25.103 6.3571-33.383 6.3571s-25.22 0.41531-33.383-6.3571c-8.163-6.7724-6.7429-21.483-6.8578-33.552-0.11483-12.069-1.4389-24.977 6.8578-33.552z" fill="#dbdcd9"/><path d="m43.397 363c6.3044-5.9729 26.01-7.0332 31.829-6.9675 5.8199 0.0657 26.2-0.0239 31.829 6.9675 5.6292 6.9914 6.6772 18.847 6.6335 32.237s-0.31832 27.456-6.6335 32.237c-8.1531 6.6411-23.936 6.1079-31.829 6.1079-7.8939 0-24.046 0.39904-31.829-6.1079-7.7832-6.5069-6.4292-20.641-6.5387-32.237-0.10948-11.596-1.372-23.998 6.5387-32.237z" fill="#d6d5d3"/><g fill="none" stroke="#bfbfbc" stroke-linecap="round"><g stroke-width=".5842"><g transform="matrix(-.99849 0 0 -1.0001 285.12 748.92)"><path d="m172.15 353.46h13.019"/><g shape-rendering="auto"><path d="m172.12 351.7 12.017-0.44595" color="#000000" color-rendering="auto" image-rendering="auto" solid-color="#000000" style="isolation:auto;mix-blend-mode:normal"/><path d="m172.07 350.03 12.299-0.91538" color="#000000" color-rendering="auto" image-rendering="auto" solid-color="#000000" style="isolation:auto;mix-blend-mode:normal"/><path d="m172.17 348.08 13.66-1.197" color="#000000" color-rendering="auto" image-rendering="auto" solid-color="#000000" style="isolation:auto;mix-blend-mode:normal"/><path d="m172.28 346.48 14.177-1.4787" color="#000000" color-rendering="auto" image-rendering="auto" solid-color="#000000" style="isolation:auto;mix-blend-mode:normal"/><path d="m172.38 344.77 10.468-1.4083" color="#000000" color-rendering="auto" image-rendering="auto" solid-color="#000000" style="isolation:auto;mix-blend-mode:normal"/><path d="m172.45 343.18 9.9752-1.6195" color="#000000" color-rendering="auto" image-rendering="auto" solid-color="#000000" style="isolation:auto;mix-blend-mode:normal"/><path d="m172.59 341.53 10.773-1.6899" color="#000000" color-rendering="auto" image-rendering="auto" solid-color="#000000" style="isolation:auto;mix-blend-mode:normal"/><path d="m172.68 339.8 8.7313-1.3379" color="#000000" color-rendering="auto" image-rendering="auto" solid-color="#000000" style="isolation:auto;mix-blend-mode:normal"/><path d="m172.85 338.32 7.9802-1.3613" color="#000000" color-rendering="auto" image-rendering="auto" solid-color="#000000" style="isolation:auto;mix-blend-mode:normal"/><path d="m173.13 336.74 6.5484-0.70413" color="#000000" color-rendering="auto" image-rendering="auto" solid-color="#000000" style="isolation:auto;mix-blend-mode:normal"/><path d="m173.13 335.1 6.2198-0.58678" color="#000000" color-rendering="auto" image-rendering="auto" solid-color="#000000" style="isolation:auto;mix-blend-mode:normal"/><path d="m173.32 333.67 6.4076-0.61024" color="#000000" color-rendering="auto" image-rendering="auto" solid-color="#000000" style="isolation:auto;mix-blend-mode:normal"/><path d="m173.5 332.03 5.0932-0.0235" color="#000000" color-rendering="auto" image-rendering="auto" solid-color="#000000" style="isolation:auto;mix-blend-mode:normal"/><path d="m173.9 330.57 3.9901 0.16429" color="#000000" color-rendering="auto" image-rendering="auto" solid-color="#000000" style="isolation:auto;mix-blend-mode:normal"/><path d="m174.25 329.14 4.2248 0.42248" color="#000000" color-rendering="auto" image-rendering="auto" solid-color="#000000" style="isolation:auto;mix-blend-mode:normal"/><path d="m174.54 327.66 4.436 1.0562" color="#000000" color-rendering="auto" image-rendering="auto" solid-color="#000000" style="isolation:auto;mix-blend-mode:normal"/><path d="m175.01 326.07 3.4737 1.5491" color="#000000" color-rendering="auto" image-rendering="auto" solid-color="#000000" style="isolation:auto;mix-blend-mode:normal"/><path d="m175.57 324.77 2.9104 1.6195" color="#000000" color-rendering="auto" image-rendering="auto" solid-color="#000000" style="isolation:auto;mix-blend-mode:normal"/><path d="m176.46 323.2 2.2063 1.643" color="#000000" color-rendering="auto" image-rendering="auto" solid-color="#000000" style="isolation:auto;mix-blend-mode:normal"/><path d="m177.49 322.05 2.7461 2.7461" color="#000000" color-rendering="auto" image-rendering="auto" solid-color="#000000" style="isolation:auto;mix-blend-mode:normal"/></g></g><g transform="matrix(.99849 0 0 1.0001 -134.86 42.29)"><path d="m172.15 353.46h13.019"/><g shape-rendering="auto"><path d="m172.12 351.7 12.017-0.44595" color="#000000" color-rendering="auto" image-rendering="auto" solid-color="#000000" style="isolation:auto;mix-blend-mode:normal"/><path d="m172.07 350.03 12.299-0.91538" color="#000000" color-rendering="auto" image-rendering="auto" solid-color="#000000" style="isolation:auto;mix-blend-mode:normal"/><path d="m172.17 348.08 13.66-1.197" color="#000000" color-rendering="auto" image-rendering="auto" solid-color="#000000" style="isolation:auto;mix-blend-mode:normal"/><path d="m172.28 346.48 14.177-1.4787" color="#000000" color-rendering="auto" image-rendering="auto" solid-color="#000000" style="isolation:auto;mix-blend-mode:normal"/><path d="m172.38 344.77 10.468-1.4083" color="#000000" color-rendering="auto" image-rendering="auto" solid-color="#000000" style="isolation:auto;mix-blend-mode:normal"/><path d="m172.45 343.18 9.9752-1.6195" color="#000000" color-rendering="auto" image-rendering="auto" solid-color="#000000" style="isolation:auto;mix-blend-mode:normal"/><path d="m172.59 341.53 10.773-1.6899" color="#000000" color-rendering="auto" image-rendering="auto" solid-color="#000000" style="isolation:auto;mix-blend-mode:normal"/><path d="m172.68 339.8 8.7313-1.3379" color="#000000" color-rendering="auto" image-rendering="auto" solid-color="#000000" style="isolation:auto;mix-blend-mode:normal"/><path d="m172.85 338.32 7.9802-1.3613" color="#000000" color-rendering="auto" image-rendering="auto" solid-color="#000000" style="isolation:auto;mix-blend-mode:normal"/><path d="m173.13 336.74 6.5484-0.70413" color="#000000" color-rendering="auto" image-rendering="auto" solid-color="#000000" style="isolation:auto;mix-blend-mode:normal"/><path d="m173.13 335.1 6.2198-0.58678" color="#000000" color-rendering="auto" image-rendering="auto" solid-color="#000000" style="isolation:auto;mix-blend-mode:normal"/><path d="m173.32 333.67 6.4076-0.61024" color="#000000" color-rendering="auto" image-rendering="auto" solid-color="#000000" style="isolation:auto;mix-blend-mode:normal"/><path d="m173.5 332.03 5.0932-0.0235" color="#000000" color-rendering="auto" image-rendering="auto" solid-color="#000000" style="isolation:auto;mix-blend-mode:normal"/><path d="m173.9 330.57 3.9901 0.16429" color="#000000" color-rendering="auto" image-rendering="auto" solid-color="#000000" style="isolation:auto;mix-blend-mode:normal"/><path d="m174.25 329.14 4.2248 0.42248" color="#000000" color-rendering="auto" image-rendering="auto" solid-color="#000000" style="isolation:auto;mix-blend-mode:normal"/><path d="m174.54 327.66 4.436 1.0562" color="#000000" color-rendering="auto" image-rendering="auto" solid-color="#000000" style="isolation:auto;mix-blend-mode:normal"/><path d="m175.01 326.07 3.4737 1.5491" color="#000000" color-rendering="auto" image-rendering="auto" solid-color="#000000" style="isolation:auto;mix-blend-mode:normal"/><path d="m175.57 324.77 2.9104 1.6195" color="#000000" color-rendering="auto" image-rendering="auto" solid-color="#000000" style="isolation:auto;mix-blend-mode:normal"/><path d="m176.46 323.2 2.2063 1.643" color="#000000" color-rendering="auto" image-rendering="auto" solid-color="#000000" style="isolation:auto;mix-blend-mode:normal"/><path d="m177.49 322.05 2.7461 2.7461" color="#000000" color-rendering="auto" image-rendering="auto" solid-color="#000000" style="isolation:auto;mix-blend-mode:normal"/></g></g><g transform="matrix(0 1.0001 -.99849 0 427.78 184.46)"><path d="m172.15 353.46h13.019"/><g shape-rendering="auto"><path d="m172.12 351.7 12.017-0.44595" color="#000000" color-rendering="auto" image-rendering="auto" solid-color="#000000" style="isolation:auto;mix-blend-mode:normal"/><path d="m172.07 350.03 12.299-0.91538" color="#000000" color-rendering="auto" image-rendering="auto" solid-color="#000000" style="isolation:auto;mix-blend-mode:normal"/><path d="m172.17 348.08 13.66-1.197" color="#000000" color-rendering="auto" image-rendering="auto" solid-color="#000000" style="isolation:auto;mix-blend-mode:normal"/><path d="m172.28 346.48 14.177-1.4787" color="#000000" color-rendering="auto" image-rendering="auto" solid-color="#000000" style="isolation:auto;mix-blend-mode:normal"/><path d="m172.38 344.77 10.468-1.4083" color="#000000" color-rendering="auto" image-rendering="auto" solid-color="#000000" style="isolation:auto;mix-blend-mode:normal"/><path d="m172.45 343.18 9.9752-1.6195" color="#000000" color-rendering="auto" image-rendering="auto" solid-color="#000000" style="isolation:auto;mix-blend-mode:normal"/><path d="m172.59 341.53 10.773-1.6899" color="#000000" color-rendering="auto" image-rendering="auto" solid-color="#000000" style="isolation:auto;mix-blend-mode:normal"/><path d="m172.68 339.8 8.7313-1.3379" color="#000000" color-rendering="auto" image-rendering="auto" solid-color="#000000" style="isolation:auto;mix-blend-mode:normal"/><path d="m172.85 338.32 7.9802-1.3613" color="#000000" color-rendering="auto" image-rendering="auto" solid-color="#000000" style="isolation:auto;mix-blend-mode:normal"/><path d="m173.13 336.74 6.5484-0.70413" color="#000000" color-rendering="auto" image-rendering="auto" solid-color="#000000" style="isolation:auto;mix-blend-mode:normal"/><path d="m173.13 335.1 6.2198-0.58678" color="#000000" color-rendering="auto" image-rendering="auto" solid-color="#000000" style="isolation:auto;mix-blend-mode:normal"/><path d="m173.32 333.67 6.4076-0.61024" color="#000000" color-rendering="auto" image-rendering="auto" solid-color="#000000" style="isolation:auto;mix-blend-mode:normal"/><path d="m173.5 332.03 5.0932-0.0235" color="#000000" color-rendering="auto" image-rendering="auto" solid-color="#000000" style="isolation:auto;mix-blend-mode:normal"/><path d="m173.9 330.57 3.9901 0.16429" color="#000000" color-rendering="auto" image-rendering="auto" solid-color="#000000" style="isolation:auto;mix-blend-mode:normal"/><path d="m174.25 329.14 4.2248 0.42248" color="#000000" color-rendering="auto" image-rendering="auto" solid-color="#000000" style="isolation:auto;mix-blend-mode:normal"/><path d="m174.54 327.66 4.436 1.0562" color="#000000" color-rendering="auto" image-rendering="auto" solid-color="#000000" style="isolation:auto;mix-blend-mode:normal"/><path d="m175.01 326.07 3.4737 1.5491" color="#000000" color-rendering="auto" image-rendering="auto" solid-color="#000000" style="isolation:auto;mix-blend-mode:normal"/><path d="m175.57 324.77 2.9104 1.6195" color="#000000" color-rendering="auto" image-rendering="auto" solid-color="#000000" style="isolation:auto;mix-blend-mode:normal"/><path d="m176.46 323.2 2.2063 1.643" color="#000000" color-rendering="auto" image-rendering="auto" solid-color="#000000" style="isolation:auto;mix-blend-mode:normal"/><path d="m177.49 322.05 2.7461 2.7461" color="#000000" color-rendering="auto" image-rendering="auto" solid-color="#000000" style="isolation:auto;mix-blend-mode:normal"/></g></g><g transform="matrix(0 -1.0001 .99849 0 -277.59 604.79)"><path d="m172.15 353.46h13.019"/><g shape-rendering="auto"><path d="m172.12 351.7 12.017-0.44595" color="#000000" color-rendering="auto" image-rendering="auto" solid-color="#000000" style="isolation:auto;mix-blend-mode:normal"/><path d="m172.07 350.03 12.299-0.91538" color="#000000" color-rendering="auto" image-rendering="auto" solid-color="#000000" style="isolation:auto;mix-blend-mode:normal"/><path d="m172.17 348.08 13.66-1.197" color="#000000" color-rendering="auto" image-rendering="auto" solid-color="#000000" style="isolation:auto;mix-blend-mode:normal"/><path d="m172.28 346.48 14.177-1.4787" color="#000000" color-rendering="auto" image-rendering="auto" solid-color="#000000" style="isolation:auto;mix-blend-mode:normal"/><path d="m172.38 344.77 10.468-1.4083" color="#000000" color-rendering="auto" image-rendering="auto" solid-color="#000000" style="isolation:auto;mix-blend-mode:normal"/><path d="m172.45 343.18 9.9752-1.6195" color="#000000" color-rendering="auto" image-rendering="auto" solid-color="#000000" style="isolation:auto;mix-blend-mode:normal"/><path d="m172.59 341.53 10.773-1.6899" color="#000000" color-rendering="auto" image-rendering="auto" solid-color="#000000" style="isolation:auto;mix-blend-mode:normal"/><path d="m172.68 339.8 8.7313-1.3379" color="#000000" color-rendering="auto" image-rendering="auto" solid-color="#000000" style="isolation:auto;mix-blend-mode:normal"/><path d="m172.85 338.32 7.9802-1.3613" color="#000000" color-rendering="auto" image-rendering="auto" solid-color="#000000" style="isolation:auto;mix-blend-mode:normal"/><path d="m173.13 336.74 6.5484-0.70413" color="#000000" color-rendering="auto" image-rendering="auto" solid-color="#000000" style="isolation:auto;mix-blend-mode:normal"/><path d="m173.13 335.1 6.2198-0.58678" color="#000000" color-rendering="auto" image-rendering="auto" solid-color="#000000" style="isolation:auto;mix-blend-mode:normal"/><path d="m173.32 333.67 6.4076-0.61024" color="#000000" color-rendering="auto" image-rendering="auto" solid-color="#000000" style="isolation:auto;mix-blend-mode:normal"/><path d="m173.5 332.03 5.0932-0.0235" color="#000000" color-rendering="auto" image-rendering="auto" solid-color="#000000" style="isolation:auto;mix-blend-mode:normal"/><path d="m173.9 330.57 3.9901 0.16429" color="#000000" color-rendering="auto" image-rendering="auto" solid-color="#000000" style="isolation:auto;mix-blend-mode:normal"/><path d="m174.25 329.14 4.2248 0.42248" color="#000000" color-rendering="auto" image-rendering="auto" solid-color="#000000" style="isolation:auto;mix-blend-mode:normal"/><path d="m174.54 327.66 4.436 1.0562" color="#000000" color-rendering="auto" image-rendering="auto" solid-color="#000000" style="isolation:auto;mix-blend-mode:normal"/><path d="m175.01 326.07 3.4737 1.5491" color="#000000" color-rendering="auto" image-rendering="auto" solid-color="#000000" style="isolation:auto;mix-blend-mode:normal"/><path d="m175.57 324.77 2.9104 1.6195" color="#000000" color-rendering="auto" image-rendering="auto" solid-color="#000000" style="isolation:auto;mix-blend-mode:normal"/><path d="m176.46 323.2 2.2063 1.643" color="#000000" color-rendering="auto" image-rendering="auto" solid-color="#000000" style="isolation:auto;mix-blend-mode:normal"/><path d="m177.19 321.95 2.7461 2.7461" color="#000000" color-rendering="auto" image-rendering="auto" solid-color="#000000" style="isolation:auto;mix-blend-mode:normal"/></g></g><g transform="matrix(0 -1.0001 -.99849 0 428.31 604.92)"><g shape-rendering="auto"><path d="m172.12 351.7 12.017-0.44595" color="#000000" color-rendering="auto" image-rendering="auto" solid-color="#000000" style="isolation:auto;mix-blend-mode:normal"/><path d="m172.07 350.03 12.299-0.91538" color="#000000" color-rendering="auto" image-rendering="auto" solid-color="#000000" style="isolation:auto;mix-blend-mode:normal"/><path d="m172.17 348.08 13.66-1.197" color="#000000" color-rendering="auto" image-rendering="auto" solid-color="#000000" style="isolation:auto;mix-blend-mode:normal"/><path d="m172.28 346.48 14.177-1.4787" color="#000000" color-rendering="auto" image-rendering="auto" solid-color="#000000" style="isolation:auto;mix-blend-mode:normal"/><path d="m172.38 344.77 10.468-1.4083" color="#000000" color-rendering="auto" image-rendering="auto" solid-color="#000000" style="isolation:auto;mix-blend-mode:normal"/><path d="m172.45 343.18 9.9752-1.6195" color="#000000" color-rendering="auto" image-rendering="auto" solid-color="#000000" style="isolation:auto;mix-blend-mode:normal"/><path d="m172.59 341.53 10.773-1.6899" color="#000000" color-rendering="auto" image-rendering="auto" solid-color="#000000" style="isolation:auto;mix-blend-mode:normal"/><path d="m172.68 339.8 8.7313-1.3379" color="#000000" color-rendering="auto" image-rendering="auto" solid-color="#000000" style="isolation:auto;mix-blend-mode:normal"/><path d="m172.85 338.32 7.9802-1.3613" color="#000000" color-rendering="auto" image-rendering="auto" solid-color="#000000" style="isolation:auto;mix-blend-mode:normal"/><path d="m173.13 336.74 6.5484-0.70413" color="#000000" color-rendering="auto" image-rendering="auto" solid-color="#000000" style="isolation:auto;mix-blend-mode:normal"/><path d="m173.13 335.1 6.2198-0.58678" color="#000000" color-rendering="auto" image-rendering="auto" solid-color="#000000" style="isolation:auto;mix-blend-mode:normal"/><path d="m173.32 333.67 6.4076-0.61024" color="#000000" color-rendering="auto" image-rendering="auto" solid-color="#000000" style="isolation:auto;mix-blend-mode:normal"/><path d="m173.5 332.03 5.0932-0.0235" color="#000000" color-rendering="auto" image-rendering="auto" solid-color="#000000" style="isolation:auto;mix-blend-mode:normal"/><path d="m173.9 330.57 3.9901 0.16429" color="#000000" color-rendering="auto" image-rendering="auto" solid-color="#000000" style="isolation:auto;mix-blend-mode:normal"/><path d="m174.25 329.14 4.2248 0.42248" color="#000000" color-rendering="auto" image-rendering="auto" solid-color="#000000" style="isolation:auto;mix-blend-mode:normal"/><path d="m174.54 327.66 4.436 1.0562" color="#000000" color-rendering="auto" image-rendering="auto" solid-color="#000000" style="isolation:auto;mix-blend-mode:normal"/><path d="m175.01 326.07 3.4737 1.5491" color="#000000" color-rendering="auto" image-rendering="auto" solid-color="#000000" style="isolation:auto;mix-blend-mode:normal"/><path d="m175.57 324.77 2.9104 1.6195" color="#000000" color-rendering="auto" image-rendering="auto" solid-color="#000000" style="isolation:auto;mix-blend-mode:normal"/><path d="m176.46 323.2 2.2063 1.643" color="#000000" color-rendering="auto" image-rendering="auto" solid-color="#000000" style="isolation:auto;mix-blend-mode:normal"/><path d="m177.49 322.05 2.7461 2.7461" color="#000000" color-rendering="auto" image-rendering="auto" solid-color="#000000" style="isolation:auto;mix-blend-mode:normal"/></g></g><g transform="matrix(-.99849 0 0 1.0001 285.15 41.909)"><g shape-rendering="auto"><path d="m172.12 351.7 12.017-0.44595" color="#000000" color-rendering="auto" image-rendering="auto" solid-color="#000000" style="isolation:auto;mix-blend-mode:normal"/><path d="m172.07 350.03 12.299-0.91538" color="#000000" color-rendering="auto" image-rendering="auto" solid-color="#000000" style="isolation:auto;mix-blend-mode:normal"/><path d="m172.17 348.08 13.66-1.197" color="#000000" color-rendering="auto" image-rendering="auto" solid-color="#000000" style="isolation:auto;mix-blend-mode:normal"/><path d="m172.28 346.48 14.177-1.4787" color="#000000" color-rendering="auto" image-rendering="auto" solid-color="#000000" style="isolation:auto;mix-blend-mode:normal"/><path d="m172.38 344.77 10.468-1.4083" color="#000000" color-rendering="auto" image-rendering="auto" solid-color="#000000" style="isolation:auto;mix-blend-mode:normal"/><path d="m172.45 343.18 9.9752-1.6195" color="#000000" color-rendering="auto" image-rendering="auto" solid-color="#000000" style="isolation:auto;mix-blend-mode:normal"/><path d="m172.59 341.53 10.773-1.6899" color="#000000" color-rendering="auto" image-rendering="auto" solid-color="#000000" style="isolation:auto;mix-blend-mode:normal"/><path d="m172.68 339.8 8.7313-1.3379" color="#000000" color-rendering="auto" image-rendering="auto" solid-color="#000000" style="isolation:auto;mix-blend-mode:normal"/><path d="m172.85 338.32 7.9802-1.3613" color="#000000" color-rendering="auto" image-rendering="auto" solid-color="#000000" style="isolation:auto;mix-blend-mode:normal"/><path d="m173.13 336.74 6.5484-0.70413" color="#000000" color-rendering="auto" image-rendering="auto" solid-color="#000000" style="isolation:auto;mix-blend-mode:normal"/><path d="m173.13 335.1 6.2198-0.58678" color="#000000" color-rendering="auto" image-rendering="auto" solid-color="#000000" style="isolation:auto;mix-blend-mode:normal"/><path d="m173.32 333.67 6.4076-0.61024" color="#000000" color-rendering="auto" image-rendering="auto" solid-color="#000000" style="isolation:auto;mix-blend-mode:normal"/><path d="m173.5 332.03 5.0932-0.0235" color="#000000" color-rendering="auto" image-rendering="auto" solid-color="#000000" style="isolation:auto;mix-blend-mode:normal"/><path d="m173.9 330.57 3.9901 0.16429" color="#000000" color-rendering="auto" image-rendering="auto" solid-color="#000000" style="isolation:auto;mix-blend-mode:normal"/><path d="m174.25 329.14 4.2248 0.42248" color="#000000" color-rendering="auto" image-rendering="auto" solid-color="#000000" style="isolation:auto;mix-blend-mode:normal"/><path d="m174.54 327.66 4.436 1.0562" color="#000000" color-rendering="auto" image-rendering="auto" solid-color="#000000" style="isolation:auto;mix-blend-mode:normal"/><path d="m175.01 326.07 3.4737 1.5491" color="#000000" color-rendering="auto" image-rendering="auto" solid-color="#000000" style="isolation:auto;mix-blend-mode:normal"/><path d="m175.57 324.77 2.9104 1.6195" color="#000000" color-rendering="auto" image-rendering="auto" solid-color="#000000" style="isolation:auto;mix-blend-mode:normal"/><path d="m176.46 323.2 2.2063 1.643" color="#000000" color-rendering="auto" image-rendering="auto" solid-color="#000000" style="isolation:auto;mix-blend-mode:normal"/><path d="m177.49 322.05 2.7461 2.7461" color="#000000" color-rendering="auto" image-rendering="auto" solid-color="#000000" style="isolation:auto;mix-blend-mode:normal"/></g></g><g transform="matrix(0 1.0001 .99849 0 -278.12 185)"><g shape-rendering="auto"><path d="m172.12 351.7 12.017-0.44595" color="#000000" color-rendering="auto" image-rendering="auto" solid-color="#000000" style="isolation:auto;mix-blend-mode:normal"/><path d="m172.07 350.03 12.299-0.91538" color="#000000" color-rendering="auto" image-rendering="auto" solid-color="#000000" style="isolation:auto;mix-blend-mode:normal"/><path d="m172.17 348.08 13.66-1.197" color="#000000" color-rendering="auto" image-rendering="auto" solid-color="#000000" style="isolation:auto;mix-blend-mode:normal"/><path d="m172.28 346.48 14.177-1.4787" color="#000000" color-rendering="auto" image-rendering="auto" solid-color="#000000" style="isolation:auto;mix-blend-mode:normal"/><path d="m172.38 344.77 10.468-1.4083" color="#000000" color-rendering="auto" image-rendering="auto" solid-color="#000000" style="isolation:auto;mix-blend-mode:normal"/><path d="m172.45 343.18 9.9752-1.6195" color="#000000" color-rendering="auto" image-rendering="auto" solid-color="#000000" style="isolation:auto;mix-blend-mode:normal"/><path d="m172.59 341.53 10.773-1.6899" color="#000000" color-rendering="auto" image-rendering="auto" solid-color="#000000" style="isolation:auto;mix-blend-mode:normal"/><path d="m172.68 339.8 8.7313-1.3379" color="#000000" color-rendering="auto" image-rendering="auto" solid-color="#000000" style="isolation:auto;mix-blend-mode:normal"/><path d="m172.85 338.32 7.9802-1.3613" color="#000000" color-rendering="auto" image-rendering="auto" solid-color="#000000" style="isolation:auto;mix-blend-mode:normal"/><path d="m173.13 336.74 6.5484-0.70413" color="#000000" color-rendering="auto" image-rendering="auto" solid-color="#000000" style="isolation:auto;mix-blend-mode:normal"/><path d="m173.13 335.1 6.2198-0.58678" color="#000000" color-rendering="auto" image-rendering="auto" solid-color="#000000" style="isolation:auto;mix-blend-mode:normal"/><path d="m173.32 333.67 6.4076-0.61024" color="#000000" color-rendering="auto" image-rendering="auto" solid-color="#000000" style="isolation:auto;mix-blend-mode:normal"/><path d="m173.5 332.03 5.0932-0.0235" color="#000000" color-rendering="auto" image-rendering="auto" solid-color="#000000" style="isolation:auto;mix-blend-mode:normal"/><path d="m173.9 330.57 3.9901 0.16429" color="#000000" color-rendering="auto" image-rendering="auto" solid-color="#000000" style="isolation:auto;mix-blend-mode:normal"/><path d="m174.25 329.14 4.2248 0.42248" color="#000000" color-rendering="auto" image-rendering="auto" solid-color="#000000" style="isolation:auto;mix-blend-mode:normal"/><path d="m174.54 327.66 4.436 1.0562" color="#000000" color-rendering="auto" image-rendering="auto" solid-color="#000000" style="isolation:auto;mix-blend-mode:normal"/><path d="m175.01 326.07 3.4737 1.5491" color="#000000" color-rendering="auto" image-rendering="auto" solid-color="#000000" style="isolation:auto;mix-blend-mode:normal"/><path d="m175.57 324.77 2.9104 1.6195" color="#000000" color-rendering="auto" image-rendering="auto" solid-color="#000000" style="isolation:auto;mix-blend-mode:normal"/><path d="m176.46 323.2 2.2063 1.643" color="#000000" color-rendering="auto" image-rendering="auto" solid-color="#000000" style="isolation:auto;mix-blend-mode:normal"/><path d="m177.49 322.05 2.7461 2.7461" color="#000000" color-rendering="auto" image-rendering="auto" solid-color="#000000" style="isolation:auto;mix-blend-mode:normal"/></g></g><g transform="matrix(.99849 0 0 -1.0001 -134.75 749.3)"><g shape-rendering="auto"><path d="m172.12 351.7 12.017-0.44595" color="#000000" color-rendering="auto" image-rendering="auto" solid-color="#000000" style="isolation:auto;mix-blend-mode:normal"/><path d="m172.07 350.03 12.299-0.91538" color="#000000" color-rendering="auto" image-rendering="auto" solid-color="#000000" style="isolation:auto;mix-blend-mode:normal"/><path d="m172.17 348.08 13.66-1.197" color="#000000" color-rendering="auto" image-rendering="auto" solid-color="#000000" style="isolation:auto;mix-blend-mode:normal"/><path d="m172.28 346.48 14.177-1.4787" color="#000000" color-rendering="auto" image-rendering="auto" solid-color="#000000" style="isolation:auto;mix-blend-mode:normal"/><path d="m172.38 344.77 10.468-1.4083" color="#000000" color-rendering="auto" image-rendering="auto" solid-color="#000000" style="isolation:auto;mix-blend-mode:normal"/><path d="m172.45 343.18 9.9752-1.6195" color="#000000" color-rendering="auto" image-rendering="auto" solid-color="#000000" style="isolation:auto;mix-blend-mode:normal"/><path d="m172.59 341.53 10.773-1.6899" color="#000000" color-rendering="auto" image-rendering="auto" solid-color="#000000" style="isolation:auto;mix-blend-mode:normal"/><path d="m172.68 339.8 8.7313-1.3379" color="#000000" color-rendering="auto" image-rendering="auto" solid-color="#000000" style="isolation:auto;mix-blend-mode:normal"/><path d="m172.85 338.32 7.9802-1.3613" color="#000000" color-rendering="auto" image-rendering="auto" solid-color="#000000" style="isolation:auto;mix-blend-mode:normal"/><path d="m173.13 336.74 6.5484-0.70413" color="#000000" color-rendering="auto" image-rendering="auto" solid-color="#000000" style="isolation:auto;mix-blend-mode:normal"/><path d="m173.13 335.1 6.2198-0.58678" color="#000000" color-rendering="auto" image-rendering="auto" solid-color="#000000" style="isolation:auto;mix-blend-mode:normal"/><path d="m173.32 333.67 6.4076-0.61024" color="#000000" color-rendering="auto" image-rendering="auto" solid-color="#000000" style="isolation:auto;mix-blend-mode:normal"/><path d="m173.5 332.03 5.0932-0.0235" color="#000000" color-rendering="auto" image-rendering="auto" solid-color="#000000" style="isolation:auto;mix-blend-mode:normal"/><path d="m173.9 330.57 3.9901 0.16429" color="#000000" color-rendering="auto" image-rendering="auto" solid-color="#000000" style="isolation:auto;mix-blend-mode:normal"/><path d="m174.25 329.14 4.2248 0.42248" color="#000000" color-rendering="auto" image-rendering="auto" solid-color="#000000" style="isolation:auto;mix-blend-mode:normal"/><path d="m174.54 327.66 4.436 1.0562" color="#000000" color-rendering="auto" image-rendering="auto" solid-color="#000000" style="isolation:auto;mix-blend-mode:normal"/><path d="m175.01 326.07 3.4737 1.5491" color="#000000" color-rendering="auto" image-rendering="auto" solid-color="#000000" style="isolation:auto;mix-blend-mode:normal"/><path d="m175.57 324.77 2.9104 1.6195" color="#000000" color-rendering="auto" image-rendering="auto" solid-color="#000000" style="isolation:auto;mix-blend-mode:normal"/><path d="m176.78 323.43 2.2063 1.643" color="#000000" color-rendering="auto" image-rendering="auto" solid-color="#000000" style="isolation:auto;mix-blend-mode:normal"/><path d="m177.81 322.28 2.7461 2.7461" color="#000000" color-rendering="auto" image-rendering="auto" solid-color="#000000" style="isolation:auto;mix-blend-mode:normal"/></g></g></g><path d="m107.04 362.82-2.742 2.7465" color="#000000" color-rendering="auto" image-rendering="auto" shape-rendering="auto" solid-color="#000000" stroke-width=".58379" style="isolation:auto;mix-blend-mode:normal"/></g><path d="m45.268 365.06c5.9529-5.5968 24.559 2.0409 30.055 2.1024 5.4954 0.0615 24.16-9.3685 30.055-2.1024 5.8953 7.266-2.0471 17.66-2.0884 30.207s11.034 22.541 2.0884 30.207c-7.6985 6.223-22.601-2.6424-30.055-2.6424s-22.706 8.7396-30.055 2.6424c-7.3492-6.0973 1.9498-19.341 1.8465-30.207-0.10338-10.866-9.3161-22.487-1.8465-30.207z" fill="#d6d5d3" stroke="#c5c6c1" stroke-linecap="round" stroke-linejoin="round" stroke-width=".47782"/><g stroke-width="1px"><g transform="matrix(.9585 -.28267 .2822 .96007 0 0)"><path d="m-58.416 424.43v0.3637h0.16467q0.09141 0 0.14133-0.0473t0.04992-0.13485q0-0.0869-0.04992-0.1342t-0.14133-0.0473h-0.16467zm-0.13096-0.10761h0.29563q0.16272 0 0.24571 0.0739 0.08363 0.0733 0.08363 0.21524 0 0.14327-0.08363 0.21653-0.08298 0.0733-0.24571 0.0733h-0.16467v0.38898h-0.13096v-0.96791z"/><path d="m-57.832 424.32h0.13225l0.20357 0.81816 0.20292-0.81816h0.14716l0.20357 0.81816 0.20292-0.81816h0.1329l-0.24311 0.96791h-0.16467l-0.20422-0.8402-0.20616 0.8402h-0.16467l-0.24247-0.96791z"/><path d="m-55.975 424.84q0.04214 0.0143 0.08169 0.0609 0.04019 0.0467 0.08039 0.12837l0.1329 0.2645h-0.14068l-0.12383-0.2483q-0.04797-0.0972-0.09336-0.12901-0.04473-0.0318-0.12253-0.0318h-0.14263v0.40908h-0.13096v-0.96791h0.29563q0.16597 0 0.24765 0.0694 0.08169 0.0694 0.08169 0.20941 0 0.0914-0.04279 0.1517-0.04214 0.0603-0.12318 0.0836zm-0.32804-0.40649v0.34361h0.16467q0.09465 0 0.14263-0.0434 0.04862-0.0441 0.04862-0.12901 0-0.0849-0.04862-0.12772-0.04797-0.0434-0.14263-0.0434h-0.16467z"/></g><g transform="matrix(.97592 -.21471 .21435 .97752 0 0)"><path d="m-22.988 426.85h0.612v0.11021h-0.48104v0.28655h0.46094v0.11022h-0.46094v0.35073h0.49271v0.11021h-0.62367z"/><path d="m-22.148 426.85h0.17634l0.42918 0.80973v-0.80973h0.12707v0.96792h-0.17634l-0.42918-0.80973v0.80973h-0.12707z"/><path d="m-21.155 426.85h0.612v0.11021h-0.48104v0.28655h0.46094v0.11022h-0.46094v0.35073h0.49271v0.11021h-0.62367z"/><path d="m-20.449 426.85h0.81881v0.11021h-0.3436v0.85771h-0.13161v-0.85771h-0.3436z"/></g><g transform="matrix(.95747 .28616 -.28569 .95904 0 0)"><path d="m195.6 381.01h0.5141v0.11022h-0.39416v0.23728q0.0285-0.01 0.0571-0.0143 0.0285-5e-3 0.0571-5e-3 0.16207 0 0.25673 0.0888 0.0947 0.0888 0.0947 0.24053 0 0.15624-0.0973 0.24311-0.0972 0.0862-0.27423 0.0862-0.0609 0-0.12447-0.0104-0.0629-0.0104-0.13031-0.0311v-0.1316q0.0583 0.0318 0.12058 0.0473 0.0622 0.0156 0.13161 0.0156 0.11215 0 0.17763-0.059 0.0655-0.059 0.0655-0.16013 0-0.10114-0.0655-0.16014t-0.17763-0.059q-0.0525 0-0.10503 0.0117-0.0519 0.0117-0.10632 0.0363v-0.48623z"/><path d="m197.09 381.84v-0.25997h-0.21394v-0.10761h0.3436v0.41556q-0.0759 0.0538-0.16727 0.0817-0.0914 0.0272-0.19514 0.0272-0.2269 0-0.35527-0.13225-0.12771-0.1329-0.12771-0.36953 0-0.23728 0.12771-0.36954 0.12837-0.1329 0.35527-0.1329 0.0947 0 0.17958 0.0233 0.0856 0.0233 0.15754 0.0687v0.13938q-0.0726-0.0616-0.15429-0.0927-0.0817-0.0311-0.1718-0.0311-0.17764 0-0.26711 0.0992-0.0888 0.0992-0.0888 0.29563 0 0.19578 0.0888 0.29497 0.0895 0.0992 0.26711 0.0992 0.0694 0 0.12382-0.0117 0.0545-0.0123 0.0979-0.0376z"/><path d="m197.46 381.01h0.13096v0.39677h0.47585v-0.39677h0.13096v0.96792h-0.13096v-0.46094h-0.47585v0.46094h-0.13096z"/><path d="m198.41 381.01h0.76046v0.0998l-0.61199 0.75787h0.62691v0.11021h-0.79029v-0.0998l0.612-0.75786h-0.59709z"/></g><g transform="matrix(.95504 .29418 -.2937 .95661 0 0)"><path d="m204.19 380.16h0.45705v0.11021h-0.61459v-0.11021q0.0745-0.0772 0.20292-0.20681 0.12901-0.13031 0.16207-0.16791 0.0629-0.0707 0.0875-0.11929 0.0253-0.0493 0.0253-0.0966 0-0.0771-0.0545-0.12577-0.0538-0.0486-0.14068-0.0486-0.0616 0-0.13031 0.0214-0.0681 0.0214-0.14587 0.0648v-0.13225q0.0791-0.0318 0.14781-0.048 0.0687-0.0162 0.12578-0.0162 0.1504 0 0.23987 0.0752 0.0895 0.0752 0.0895 0.20098 0 0.0596-0.0227 0.11345-0.022 0.0532-0.081 0.12577-0.0162 0.0188-0.10308 0.10892-0.0869 0.0895-0.24506 0.25089z"/><path d="m204.92 380.1h0.13679v0.16467h-0.13679z"/><path d="m205.71 379.41-0.33063 0.5167h0.33063zm-0.0344-0.1141h0.16467v0.6308h0.13809v0.10892h-0.13809v0.2282h-0.13031v-0.2282h-0.43695v-0.12642z"/><path d="m206.84 380.13v-0.25997h-0.21394v-0.10762h0.3436v0.41557q-0.0759 0.0538-0.16726 0.0817-0.0914 0.0272-0.19514 0.0272-0.22691 0-0.35527-0.13225-0.12772-0.13291-0.12772-0.36954 0-0.23728 0.12772-0.36953 0.12836-0.1329 0.35527-0.1329 0.0947 0 0.17958 0.0233 0.0856 0.0233 0.15753 0.0687v0.13938q-0.0726-0.0616-0.15429-0.0927-0.0817-0.0311-0.1718-0.0311-0.17764 0-0.2671 0.0992-0.0888 0.0992-0.0888 0.29562 0 0.19579 0.0888 0.29498 0.0895 0.0992 0.2671 0.0992 0.0694 0 0.12382-0.0117 0.0545-0.0123 0.0979-0.0376z"/><path d="m207.21 379.3h0.13096v0.39676h0.47585v-0.39676h0.13096v0.96792h-0.13096v-0.46094h-0.47585v0.46094h-0.13096z"/><path d="m208.15 379.3h0.76046v0.0998l-0.612 0.75787h0.62691v0.11021h-0.79029v-0.0998l0.612-0.75787h-0.59708z"/></g></g><g fill="none" stroke="#008000" stroke-width=".53109px"><path d="m71.216 423.69 0.25818 3.0982"/><path d="m79.466 423.53-0.18777 3.239"/><path d="m85.005 425.24-0.37249 3.0484"/><path d="m65.707 425.21 0.47394 3.2808"/></g><g transform="translate(.90948 1.6977)"><g transform="scale(.99918 1.0008)" stroke-width="1px" aria-label="103"><path d="m71.056 393.18v6.3489h-0.72559v-5.6324h-0.89792l0.31745-0.71652z"/><path d="m75.019 396.47q0-2.721-1.2607-2.721t-1.2607 2.721 1.2607 2.721 1.2607-2.721zm-1.2607-3.3014q0.92513 0 1.4285 0.8435 0.50338 0.8435 0.50338 2.458 0 1.6054-0.49884 2.4307-0.49885 0.82536-1.433 0.82536t-1.424-0.82083q-0.48978-0.82082-0.48978-2.4353t0.48978-2.458q0.48978-0.8435 1.424-0.8435z"/><path d="m76.289 398.14h0.73466q0.09977 0.40814 0.40361 0.63035 0.30384 0.22222 0.75734 0.22222 0.56234 0 0.89792-0.34919 0.33559-0.3492 0.33559-0.96595 0-0.58955-0.31291-0.94781t-0.86618-0.35826v-0.61675q0.48071 0 0.77094-0.28571 0.29024-0.2857 0.29024-0.78454 0-0.53513-0.29477-0.83444-0.29477-0.29931-0.82083-0.29931-0.42629 0-0.70292 0.21315-0.27663 0.21314-0.34919 0.60315h-0.72559q0.06349-0.65304 0.53059-1.0249 0.4671-0.37187 1.2471-0.37187 0.80722 0 1.2879 0.43082 0.4807 0.43082 0.4807 1.2018 0 0.53512-0.2721 0.91152-0.2721 0.3764-0.77094 0.53059 0.5442 0.14512 0.85711 0.56687t0.32198 1.0657q0 0.88885-0.49431 1.3696-0.49431 0.4807-1.4104 0.4807-1.6961 0-1.8956-1.3877z"/></g><path class="st1" d="m76.174 389.93c0 1.1851-0.9481 2.148-2.1036 2.148s-2.1036-0.96291-2.1036-2.148v-1.8221s1.0074 0.25184 1.0074 1.3184v0.50367c0 0.65181 0.48885 1.1703 1.0962 1.1703s1.0962-0.5185 1.0962-1.1703v-1.0518 0.0148c0.04444-0.88884 0.79995-1.1703 0.99254-1.274h0.01481v2.311zm-5.4071-2.1332c0.28147 0 0.54812 0.0444 0.78514 0.14813v1.1259c-0.2074-0.17776-0.48886-0.28146-0.78514-0.28146-0.66663 0-1.1999 0.5185-1.1999 1.1703v2.1184h-1.0074v-3.8813s0.41479 0.0148 0.68144 0.20738c0.38516-0.38516 0.93328-0.60736 1.5258-0.60736m-4.8294 3.3183c-0.66663 0-1.2148-0.53331-1.2148-1.1851 0-0.65182 0.54812-1.1851 1.2148-1.1851s1.2147 0.5333 1.2147 1.1851c0 0.65181-0.54811 1.1851-1.2147 1.1851m0-3.3183c-1.2148 0-2.1925 0.96291-2.1925 2.1332 0 1.1851 0.97773 2.1332 2.1925 2.1332 0.50368 0 0.96291-0.16296 1.3333-0.44442 0.22221 0.37035 0.85922 0.44442 0.85922 0.44442v-2.1332c0-1.1703-0.97773-2.1332-2.1925-2.1332m17.525 3.3183c-0.66663 0-1.2148-0.53331-1.2148-1.1851 0-0.65182 0.54812-1.1851 1.2148-1.1851s1.2148 0.5333 1.2148 1.1851c0 0.65181-0.54812 1.1851-1.2148 1.1851m0-3.3183c-1.2148 0-2.1925 0.96291-2.1925 2.1332 0 1.1851 0.97772 2.1332 2.1925 2.1332 0.50368 0 0.96291-0.16296 1.3333-0.44442 0.22221 0.37035 0.85921 0.44442 0.85921 0.44442v-2.1332c0-1.1703-0.97772-2.1332-2.1925-2.1332m-4.6516 3.3183c-0.66663 0-1.2148-0.53331-1.2148-1.1851 0-0.65182 0.54812-1.1851 1.2148-1.1851 0.66663 0 1.2148 0.5333 1.2148 1.1851 0.01481 0.65181-0.53331 1.1851-1.2148 1.1851m0-3.3183c-0.44442 0-0.85921 0.13332-1.2148 0.35553v-0.34072c-0.04444-0.88884-0.77033-1.1703-0.96291-1.274h-0.01481v5.5404s0.65181-0.0741 0.90365-0.42961c0.37036 0.25184 0.81476 0.4148 1.2888 0.4148 1.2148 0 2.1925-0.96291 2.1925-2.1332 0.01481-1.1703-0.97772-2.1332-2.1925-2.1332"/></g></g></svg>
