<svg width="160" height="160" version="1.1" viewBox="37.333333 394.66667 160 160" xmlns="http://www.w3.org/2000/svg"><defs><radialGradient id="radialGradient14839" cx="113.08" cy="452.2" r="27.12" gradientTransform="matrix(-.10254 .21644 -4.0239 -1.9003 1870.1 1289.6)" gradientUnits="userSpaceOnUse"><stop stop-color="#bcbcbb" offset="0"/><stop stop-color="#989898" offset=".23212"/><stop stop-color="#dbdcd9" offset="1"/></radialGradient></defs><path d="m54.845 412.2c15.299-15.519 41.088-17.504 62.897-17.404 21.251 0.098 46.061 2.5363 61.12 17.507 15.505 15.414 18.483 40.905 18.493 62.752 0.01 21.993-2.7053 47.93-18.566 63.193-15.141 14.57-39.928 15.929-61.046 15.885-21.12-0.0442-46.324-1.4915-61.508-16.28-15.633-15.227-18.127-40.993-18.353-62.798 0-20.075 0.08822-44.402 16.963-62.855z" fill="#dbdcd9" stroke="#ededed" stroke-linecap="round" stroke-linejoin="round" stroke-width="1.0662"/><path d="m38.634 454.74c-0.56418 6.3406-0.76808 13.433-0.70403 20.269 0.22592 21.805 2.7209 47.57 18.354 62.798 14.704 14.321 38.795 16.126 59.486 16.266l29.663-49.496c-39.227-14.111-76.207-31.981-106.8-49.837z" fill="url(#radialGradient14839)" fill-rule="evenodd" stroke-width="2.0076"/><path d="m83.159 509.05h7.0858l-4.2263 12.59h-1.4388l3.7768-11.259h-5.1975z" stroke-width="1.9829px"/><path d="m67.298 520.35h5.3234v1.295h-6.9601v-1.295l4.2443-4.9101c0.88723-1.0552 1.3308-1.9476 1.3308-2.9497 0-1.4047-0.95348-2.446-2.374-2.446-1.4205 0-1.9783 1.0728-1.9783 1.5468h-1.2769c0-1.5121 1.6578-2.7518 3.2192-2.7518s3.7049 0.76498 3.7049 3.5432c0 2.0261-0.95542 2.9867-1.2589 3.3992z" stroke-width="1.9829px"/><path d="m42.418 457.11 6.1485 3.3485" fill="none" stroke="#000" stroke-linecap="round" stroke-width=".94786"/><path d="m51.009 461.73 4.728 2.6278" fill="none" stroke="#000" stroke-linecap="round" stroke-width="1.0532px"/><path class="st1" d="m80.655 501.34c0 2.3633-1.8878 4.2836-4.1886 4.2836-2.3007 0-4.1886-1.9202-4.1886-4.2836v-3.6337s2.0058 0.50223 2.0058 2.6292v1.0044c0 1.2998 0.97338 2.3337 2.1827 2.3337 1.2094 0 2.1828-1.0339 2.1828-2.3337v-2.0684c0.08856-1.7725 1.6237-2.3338 2.0072-2.5406zm-9.203-1.7134c-0.41294-0.35436-0.97338-0.5613-1.5633-0.5613-1.3273 0-2.3892 1.034-2.3892 2.3338v4.2243h-2.0058v-7.7401s0.82594 0.0287 1.3568 0.41379c0.76688-0.76811 1.8583-1.2112 3.0382-1.2112 0.5605 0 1.0914 0.0886 1.5633 0.29532zm-13.598 1.7132c0-1.2998 1.0913-2.3633 2.4187-2.3633 1.3274 0 2.4187 1.0635 2.4187 2.3633 0 1.2998-1.0913 2.3634-2.4187 2.3634s-2.4187-1.0635-2.4187-2.3634zm-1.9468 2.5e-4c0 2.3633 1.9468 4.254 4.3654 4.254 1.0029 0 1.9173-0.32486 2.6547-0.88628 0.44247 0.73852 1.7108 0.88628 1.7108 0.88628v-4.254c0-2.3338-1.9468-4.2539-4.3654-4.2539-2.4187 0-4.3654 1.9202-4.3654 4.2539zm36.843-2.5e-4c0-1.2998 1.0913-2.3633 2.4187-2.3633 1.3273 0 2.4187 1.0635 2.4187 2.3633 0 1.2998-1.0913 2.3634-2.4187 2.3634-1.3274 0-2.4187-1.0635-2.4187-2.3634zm-1.9467 2.5e-4c0 2.3633 1.9468 4.254 4.3654 4.254 1.0029 0 1.9173-0.32486 2.6547-0.88628 0.44247 0.73852 1.7108 0.88628 1.7108 0.88628v-4.254c0-2.3338-1.9468-4.2539-4.3654-4.2539-2.4187 0-4.3654 1.9202-4.3654 4.2539zm-7.3148-2.5e-4c0-1.2998 1.0913-2.3633 2.4187-2.3633 1.3273 0 2.4187 1.0635 2.4187 2.3633 0.03186 1.2998-1.0619 2.3634-2.4187 2.3634-1.3274 0-2.4187-1.0635-2.4187-2.3634zm0-4.224c-0.08856-1.7725-1.5647-2.3338-1.9482-2.5406v11.049s1.2978-0.14782 1.7993-0.85671c0.73741 0.50223 1.6223 0.82718 2.5663 0.82718 2.4187 0 4.3654-1.9202 4.3654-4.2539 0.03186-2.3338-1.9468-4.254-4.3648-4.254-0.88424 0-1.7101 0.26602-2.4181 0.709z" stroke-width="4.8306"/><path d="m80.391 515.57c0-3.5971-0.83327-5.3957-2.4998-5.3957s-2.4998 1.7986-2.4998 5.3957 0.83327 5.3957 2.4998 5.3957 2.4998-1.7986 2.4998-5.3957zm-2.4998-6.5466c3.2184 0 3.8307 3.8073 3.8307 6.5468s-0.6202 6.4567-3.8306 6.4567-3.8046-3.6453-3.7948-6.4569c0.0098-2.8116 0.57636-6.5467 3.7947-6.5467z" stroke-width="1.9829px"/></svg>
