<svg width="210" height="44.5" version="1.1" viewBox="35 370 210 44.5" xmlns="http://www.w3.org/2000/svg"><g fill="#e3e0e0"><rect x="55.673" y="410.25" width="16.66" height="4.2509" rx=".11396" ry="1.2202" stroke-width="1.8832"/><rect x="205.84" y="409.99" width="16.66" height="4.5167" rx=".11396" ry="1.2965" stroke-width="1.8832"/><path d="m38.184 379.41c7.7034-12.272 196.59-10.234 204.65 0 0.0687 0.0874 0.18569 0.0908 0.20086 0.20077 1.2258 8.9269 1.5992 17.712 0 26.169-0.0205 0.10922-0.19675 0.0896-0.20086 0.20076-0.34485 9.3034-207.06 10.527-204.65 0 0.02482-0.10847-0.18256-0.0911-0.20086-0.20076-1.4177-8.4866-1.4177-17.209 0-26.169 0.01732-0.10998 0.14173-0.10659 0.20086-0.20077z" stroke="#fffcfa" stroke-linecap="round" stroke-linejoin="round" stroke-width="1.8873"/></g><path d="m37.207 379.04h204.65c0.11111 0 0.18568 0.0908 0.20086 0.20076 1.2258 8.9268 1.5992 17.712 0 26.169-0.0205 0.10923-0.0896 0.20077-0.20086 0.20077h-204.65c-0.11128 0-0.18256-0.0911-0.20086-0.20077-1.4177-8.4865-1.4177-17.209 0-26.169 0.01732-0.10998 0.08958-0.20076 0.20086-0.20076z" fill="#ebe7e6" stroke="#e9e2db" stroke-linecap="round" stroke-linejoin="round" stroke-width="1.8873"/><rect x="65.721" y="383.05" width="72.34" height="17.262" rx=".3782" ry=".37801" fill="#ddd4ca" stroke-width="1.8832"/><rect x="67.195" y="385.71" width="68.365" height="13.252" rx=".3782" ry=".37801" fill="#ebebeb" stroke="#000" stroke-linejoin="round" stroke-width=".42106"/><g stroke-width="1.8872"><path d="m68.656 389.07h3.3095l-0.0049-2.0211 1.2045-1e-3v-0.75672h3.8822l-9.12e-4 0.7587h1.2537v2.0211h3.2944v8.7017l-12.937 0.0283z" fill="#1a1a1a"/><path d="m78.588 388.54h3.2687v-1.4207h-3.2687z" fill="#008000"/><path d="m68.362 388.54h3.2974v-1.4281h-3.2974z" fill="#008000"/><path d="m86.158 389.07h3.3095l-0.0049-2.0211 1.2045-1e-3v-0.75672h3.8822l-9.12e-4 0.7587h1.2537v2.0211h3.2944v8.7017l-12.937 0.0283z" fill="#1a1a1a"/><path d="m96.09 388.54h3.2687v-1.4207h-3.2687z" fill="#008000"/><path d="m85.864 388.54h3.2974v-1.4281h-3.2974z" fill="#008000"/><path d="m103.66 389.07h3.3095l-5e-3 -2.0211 1.2045-1e-3v-0.75672h3.8822l-9.1e-4 0.7587h1.2537v2.0211h3.2944v8.7017l-12.937 0.0283z" fill="#1a1a1a"/><path d="m113.59 388.54h3.2687v-1.4207h-3.2687z" fill="#008000"/><path d="m103.37 388.54h3.2974v-1.4281h-3.2974z" fill="#008000"/><path d="m121.16 389.07h3.3095l-5e-3 -2.0211 1.2045-1e-3v-0.75672h3.8822l-9.1e-4 0.7587h1.2537v2.0211h3.2944v8.7017l-12.937 0.0283z" fill="#1a1a1a"/><path d="m131.1 388.54h3.2687v-1.4207h-3.2687z" fill="#008000"/><path d="m120.87 388.54h3.2974v-1.4281h-3.2974z" fill="#008000"/></g><g stroke-width="1.8832"><rect x="139.78" y="383.07" width="19.834" height="16.886" rx=".3782" ry=".37801" fill="#ddd4ca"/><rect x="163.26" y="391.75" width="12.879" height="7.8056" rx=".3782" ry=".37801" fill="#ddd4ca"/><rect x="164.15" y="392.47" width="11.567" height="6.5676" rx=".3782" ry=".37801" fill="#e3e3df"/></g><path d="m173.32 393.17c0.58965-0.0477 0.89047 0.49647 0.8756 1.0037v2.2019c-0.0334 0.76904-1.3143 1.9142-2.293 1.833h-4.6454c-0.31569 0.10075-2.0733-1.1423-2.0064-1.8911v-2.201c-0.0387-0.64457 0.57558-0.96048 0.90023-0.94645z" fill="#fff" stroke-width="1.8872"/><path d="m173 393.51c0.7016-0.0419 0.78912 0.47527 0.77632 0.92012v2.0021c-0.0294 0.50225-1.1023 1.5084-1.9604 1.4369h-4.3527c-0.27717 0.0885-1.7723-1.0187-1.8078-1.4874v-2.0023c-0.0332-0.56483 0.46836-0.8821 0.7528-0.86947z" fill="#1d1d1d" stroke-width="1.8872"/><path d="m167.74 394.75c-4e-3 -1.6e-4 -9e-3 2e-3 -0.0137 2e-3h-0.0117c-0.17491-7e-3 -0.45332 0.11078-0.43273 0.42667v1.051c6e-3 0.0694 0.074 0.16228 0.1723 0.25835 0.26307 0.27226 0.80502 0.59569 0.93401 0.55779h2.5005c0.52681 0.0403 1.2186-0.4784 1.2355-0.75938v-1.0803c8e-3 -0.24892-2e-3 -0.47922-0.43274-0.45601h-3.9514z" fill="#404040" stroke-width="1.0023"/><path transform="translate(35,370)" d="m132.81 25.348v0.78711h0.35547v-0.78711zm0.84961 0v0.78711h0.35546v-0.78711zm0.88672 0v0.78711h0.35546v-0.78711zm0.90624 0v0.78711h0.35547v-0.78711zm0.86915 0v0.78711h0.35546v-0.78711z" fill="#070707" stroke-width="1.8872"/><rect x="189.63" y="382.66" width="7.2969" height="16.662" rx=".3782" ry=".37801" fill="#ddd4ca" stroke-width="1.8832"/><rect x="190.16" y="383.43" width="6.1621" height="15.601" rx=".3782" ry=".37801" stroke="#e3e3df" stroke-width=".383"/><g stroke-linecap="round" stroke-linejoin="round"><path d="m192.83 397.39v-12.025h-0.84885v12.025z" fill="none" stroke="#000" stroke-miterlimit="4.4615" stroke-width=".063871"/><path d="m208.9 385.7h1.9521c0.0761 0 0.13729 0.0612 0.13729 0.13728v1.0096c0 0.0761-0.0612 0.13728-0.13729 0.13728h-1.9521c-0.0761 0-0.13729-0.0612-0.13729-0.13728v-1.0096c0-0.0761 0.0612-0.13728 0.13729-0.13728z" fill="#008000" stroke="#008000" stroke-width="1.2898"/><path d="m208.9 393.87h1.9521c0.0761 0 0.13729 0.0612 0.13729 0.13728v1.0096c0 0.0761-0.0612 0.13729-0.13729 0.13729h-1.9521c-0.0761 0-0.13729-0.0612-0.13729-0.13729v-1.0096c0-0.0761 0.0612-0.13728 0.13729-0.13728z" fill="#008000" stroke="#008000" stroke-width="1.2898"/></g><g stroke-width="1.8832"><path d="m169.75 383.32v-0.4774h-3.1946v0.64659h2.2598l-1.5714 3.5351h0.81816z"/><path d="m170.19 384.91c0 1.1058 0.51297 2.1633 1.7013 2.1633 1.1753 0 1.6623-1.0636 1.6623-2.1633 0-1.1179-0.46751-2.1633-1.6623-2.1633-1.1883 0-1.7013 1.0575-1.7013 2.1633zm0.81167 0c0-0.81579 0.25324-1.4805 0.87659-1.4805 0.62336 0 0.87659 0.66473 0.87659 1.4805s-0.25323 1.4805-0.87659 1.4805c-0.62335 0-0.87659-0.66471-0.87659-1.4805z"/><path d="m173.92 384.91c0 1.1058 0.51298 2.1633 1.7012 2.1633 1.1753 0 1.6623-1.0636 1.6623-2.1633 0-1.1179-0.46753-2.1633-1.6623-2.1633-1.1883 0-1.7012 1.0575-1.7012 2.1633zm0.81167 0c0-0.81579 0.25324-1.4805 0.87659-1.4805 0.62336 0 0.87659 0.66473 0.87659 1.4805s-0.25323 1.4805-0.87659 1.4805c-0.62335 0-0.87659-0.66471-0.87659-1.4805z"/><path d="m177.76 386.85c1.2731 0.49378 3.1103 0.25845 3.1103-1.1662 0-1.1349-1.0969-1.4711-2.1493-1.2992l0.065-0.85206h1.8636v-0.68889h-2.5973l-0.12981 2.0485 0.18174 0.30819c0.95164-0.24219 1.9674-0.36247 1.9674 0.48958 0 0.84041-1.1499 0.82976-2.0779 0.50139z"/></g><path d="m74.241 403.63c0 0.8847 0.41037 1.7307 1.361 1.7307 0.94023 0 1.3298-0.85085 1.3298-1.7307 0-0.89434-0.37402-1.7307-1.3298-1.7307-0.95061 0-1.361 0.846-1.361 1.7307zm0.64933 0c0-0.65263 0.20259-1.1844 0.70127-1.1844s0.70127 0.53176 0.70127 1.1844c0 0.65265-0.20259 1.1844-0.70127 1.1844s-0.70127-0.53177-0.70127-1.1844z" fill="#ff8900" stroke-width="1.8832"/><g stroke-width="1.8832"><path d="m93.592 404.41v-2.7992h-0.62336l-1.0649 0.43993 0.20259 0.47376 0.84672-0.34808v2.2334h-0.961v0.54629h2.4675v-0.54629z"/><path d="m109.27 402.54c0.77274-0.47686 1.5064-0.32755 1.5064 0.20787 0 0.35291-0.39999 0.82667-1.6623 2.0111v0.37224h2.3376v-0.51727h-1.3974c1.1013-1.0974 1.361-1.4358 1.361-1.8903 0-1.0846-1.5275-1.2698-2.4155-0.66229z"/><path d="m126.16 402.36c0.76256-0.38341 1.4129-0.28001 1.4129 0.19337-0.0337 0.50297-0.44695 0.46913-1.0649 0.47376v0.51244c0.65115 0 1.2519-0.0224 1.2519 0.50277 0 0.62585-1.1206 0.55038-1.7714 0.20788l-0.24415 0.51244c1.2868 0.58403 2.6545 0.27241 2.6545-0.69614 0-0.46893-0.24415-0.73482-0.59738-0.88951 0.22335-0.14988 0.41037-0.38193 0.41037-0.68165 0-1.0234-1.3195-1.0999-2.3011-0.60912z"/></g><g stroke-width="1.8832"><path d="m152.64 401.28c-1.0389 0-1.6934 0.7735-1.6934 1.7404 0 0.96687 0.65452 1.721 1.6934 1.721 1.0389 0 1.6934-0.75415 1.6934-1.721 0-0.96686-0.65452-1.7404-1.6934-1.7404zm0 3.1084c-0.83114 0-1.2623-0.58979-1.2623-1.3681 0-0.77833 0.43116-1.3874 1.2623-1.3874 0.83115 0 1.2623 0.60912 1.2623 1.3874 0 0.77831-0.43116 1.3681-1.2623 1.3681z"/><path d="m155.05 401.34v3.3453h0.43116v-2.8377l1.9116 2.8377h0.59738v-3.3453h-0.43116v2.8377l-1.9168-2.8377z"/><path d="m163.43 401.28c-1.0389 0-1.6934 0.7735-1.6934 1.7404 0 0.96687 0.65452 1.721 1.6934 1.721 1.0389 0 1.6934-0.75415 1.6934-1.721 0-0.96686-0.65452-1.7404-1.6934-1.7404zm0 3.1084c-0.83115 0-1.2623-0.58979-1.2623-1.3681 0-0.77833 0.43116-1.3874 1.2623-1.3874s1.2623 0.60912 1.2623 1.3874c0 0.77831-0.43116 1.3681-1.2623 1.3681z"/><path d="m165.84 401.34v3.3453h2.0466v-0.35291h-1.6155v-2.9925z"/><path d="m168.38 404.7h2.109v-0.35292h-1.6779v-1.2521h1.5376v-0.35292h-1.5376v-1.0345h1.6779v-0.35292h-2.109z"/><path d="m150.43 404.5-0.16622-0.33357c-1.2383 0.55137-2.1713-0.0628-2.1713-1.1506 0-1.3234 1.258-1.6881 2.1713-1.1699l0.16622-0.33357c-1.2587-0.57377-2.8131-0.0189-2.7687 1.5035 0 1.4295 1.3583 2.1199 2.7687 1.4841z"/></g><rect transform="scale(-1)" x="-78.722" y="-409.94" width="1.8284" height="3.0354" fill="#f2dcc6" stroke-width=".87186"/><rect transform="scale(-1)" x="-78.675" y="-409.82" width="1.7815" height="2.9101" fill="#f3ece1" stroke-width=".87186"/><rect transform="scale(-1)" x="-78.525" y="-409.65" width="1.6288" height="2.7438" rx=".6946" ry=".39396" fill="#e3e0e0" stroke="#cac6c4" stroke-linejoin="round" stroke-width=".17437"/><rect transform="scale(-1)" x="-83.471" y="-410.81" width="1.9836" height="3.899" fill="#f2dcc6" stroke-width=".87186"/><rect transform="scale(-1)" x="-83.343" y="-410.65" width="1.859" height="3.7405" fill="#f3ece1" stroke-width=".87186"/><rect transform="scale(-1)" x="-83.204" y="-410.41" width="1.7175" height="3.5077" rx=".6946" ry=".39396" fill="#e3e0e0" stroke="#cac6c4" stroke-linejoin="round" stroke-width=".17437"/><rect transform="scale(-1)" x="-88.054" y="-410.95" width="1.8063" height="4.0429" fill="#f2dcc6" stroke-width=".87186"/><rect transform="scale(-1)" x="-87.95" y="-410.87" width="1.704" height="3.962" fill="#f3ece1" stroke-width=".87186"/><rect transform="scale(-1)" x="-87.857" y="-410.82" width="1.6178" height="3.9173" rx=".6946" ry=".39396" fill="#e3e0e0" stroke="#cac6c4" stroke-linejoin="round" stroke-width=".17437"/><rect transform="scale(-1)" x="-74.043" y="-409.12" width="1.7842" height="2.2161" fill="#f2dcc6" stroke-width=".87186"/><rect transform="scale(-1)" x="-73.916" y="-409.01" width="1.6596" height="2.1019" fill="#f3ece1" stroke-width=".87186"/><rect transform="scale(-1)" x="-73.777" y="-408.91" width="1.5181" height="2.0019" rx=".6946" ry=".39396" fill="#e3e0e0" stroke="#cac6c4" stroke-linejoin="round" stroke-width=".17437"/><rect transform="scale(-1)" x="-92.705" y="-411.38" width="1.7984" height="4.4735" fill="#f2dcc6" stroke-width=".87186"/><rect transform="scale(-1)" x="-92.589" y="-411.31" width="1.6817" height="4.4048" fill="#f3ece1" stroke-width=".87186"/><rect transform="scale(-1)" x="-92.532" y="-411.25" width="1.6256" height="4.34" rx=".6946" ry=".39396" fill="#e3e0e0" stroke="#cac6c4" stroke-linejoin="round" stroke-width=".17437"/><rect transform="scale(-1)" x="-97.368" y="-411.38" width="1.7984" height="4.4735" fill="#f2dcc6" stroke-width=".87186"/><rect transform="scale(-1)" x="-97.252" y="-411.31" width="1.6817" height="4.4048" fill="#f3ece1" stroke-width=".87186"/><rect transform="scale(-1)" x="-97.194" y="-411.25" width="1.6256" height="4.34" rx=".6946" ry=".39396" fill="#e3e0e0" stroke="#cac6c4" stroke-linejoin="round" stroke-width=".17437"/><rect transform="scale(-1)" x="-102.03" y="-411.38" width="1.7984" height="4.4735" fill="#f2dcc6" stroke-width=".87186"/><rect transform="scale(-1)" x="-101.91" y="-411.31" width="1.6817" height="4.4048" fill="#f3ece1" stroke-width=".87186"/><rect transform="scale(-1)" x="-101.86" y="-411.25" width="1.6256" height="4.34" rx=".6946" ry=".39396" fill="#e3e0e0" stroke="#cac6c4" stroke-linejoin="round" stroke-width=".17437"/><rect transform="scale(-1)" x="-106.69" y="-411.38" width="1.7984" height="4.4735" fill="#f2dcc6" stroke-width=".87186"/><rect transform="scale(-1)" x="-106.58" y="-411.31" width="1.6817" height="4.4048" fill="#f3ece1" stroke-width=".87186"/><rect transform="scale(-1)" x="-106.52" y="-411.25" width="1.6256" height="4.34" rx=".6946" ry=".39396" fill="#e3e0e0" stroke="#cac6c4" stroke-linejoin="round" stroke-width=".17437"/><rect transform="scale(-1)" x="-111.36" y="-411.38" width="1.7984" height="4.4735" fill="#f2dcc6" stroke-width=".87186"/><rect transform="scale(-1)" x="-111.24" y="-411.31" width="1.6817" height="4.4048" fill="#f3ece1" stroke-width=".87186"/><rect transform="scale(-1)" x="-111.18" y="-411.25" width="1.6256" height="4.34" rx=".6946" ry=".39396" fill="#e3e0e0" stroke="#cac6c4" stroke-linejoin="round" stroke-width=".17437"/><rect transform="scale(-1)" x="-116.02" y="-411.38" width="1.7984" height="4.4735" fill="#f2dcc6" stroke-width=".87186"/><rect transform="scale(-1)" x="-115.9" y="-411.31" width="1.6817" height="4.4048" fill="#f3ece1" stroke-width=".87186"/><rect transform="scale(-1)" x="-115.84" y="-411.25" width="1.6256" height="4.34" rx=".6946" ry=".39396" fill="#e3e0e0" stroke="#cac6c4" stroke-linejoin="round" stroke-width=".17437"/><rect transform="scale(-1)" x="-120.68" y="-411.38" width="1.7984" height="4.4735" fill="#f2dcc6" stroke-width=".87186"/><rect transform="scale(-1)" x="-120.57" y="-411.31" width="1.6817" height="4.4048" fill="#f3ece1" stroke-width=".87186"/><rect transform="scale(-1)" x="-120.51" y="-411.25" width="1.6256" height="4.34" rx=".6946" ry=".39396" fill="#e3e0e0" stroke="#cac6c4" stroke-linejoin="round" stroke-width=".17437"/><rect transform="scale(-1)" x="-125.34" y="-411.38" width="1.7984" height="4.4735" fill="#f2dcc6" stroke-width=".87186"/><rect transform="scale(-1)" x="-125.23" y="-411.31" width="1.6817" height="4.4048" fill="#f3ece1" stroke-width=".87186"/><rect transform="scale(-1)" x="-125.17" y="-411.25" width="1.6256" height="4.34" rx=".6946" ry=".39396" fill="#e3e0e0" stroke="#cac6c4" stroke-linejoin="round" stroke-width=".17437"/><rect transform="scale(-1)" x="-130.01" y="-411.38" width="1.7984" height="4.4735" fill="#f2dcc6" stroke-width=".87186"/><rect transform="scale(-1)" x="-129.89" y="-411.31" width="1.6817" height="4.4048" fill="#f3ece1" stroke-width=".87186"/><rect transform="scale(-1)" x="-129.83" y="-411.25" width="1.6256" height="4.34" rx=".6946" ry=".39396" fill="#e3e0e0" stroke="#cac6c4" stroke-linejoin="round" stroke-width=".17437"/><rect transform="scale(-1)" x="-134.67" y="-411.38" width="1.7984" height="4.4735" fill="#f2dcc6" stroke-width=".87186"/><rect transform="scale(-1)" x="-134.55" y="-411.31" width="1.6817" height="4.4048" fill="#f3ece1" stroke-width=".87186"/><rect transform="scale(-1)" x="-134.5" y="-411.25" width="1.6256" height="4.34" rx=".6946" ry=".39396" fill="#e3e0e0" stroke="#cac6c4" stroke-linejoin="round" stroke-width=".17437"/><rect transform="scale(-1)" x="-139.33" y="-411.38" width="1.7984" height="4.4735" fill="#f2dcc6" stroke-width=".87186"/><rect transform="scale(-1)" x="-139.22" y="-411.31" width="1.6817" height="4.4048" fill="#f3ece1" stroke-width=".87186"/><rect transform="scale(-1)" x="-139.16" y="-411.25" width="1.6256" height="4.34" rx=".6946" ry=".39396" fill="#e3e0e0" stroke="#cac6c4" stroke-linejoin="round" stroke-width=".17437"/><rect transform="scale(-1)" x="-143.99" y="-411.38" width="1.7984" height="4.4735" fill="#f2dcc6" stroke-width=".87186"/><rect transform="scale(-1)" x="-143.88" y="-411.31" width="1.6817" height="4.4048" fill="#f3ece1" stroke-width=".87186"/><rect transform="scale(-1)" x="-143.82" y="-411.25" width="1.6256" height="4.34" rx=".6946" ry=".39396" fill="#e3e0e0" stroke="#cac6c4" stroke-linejoin="round" stroke-width=".17437"/><rect transform="scale(-1)" x="-148.66" y="-411.38" width="1.7984" height="4.4735" fill="#f2dcc6" stroke-width=".87186"/><rect transform="scale(-1)" x="-148.54" y="-411.31" width="1.6817" height="4.4048" fill="#f3ece1" stroke-width=".87186"/><rect transform="scale(-1)" x="-148.48" y="-411.25" width="1.6256" height="4.34" rx=".6946" ry=".39396" fill="#e3e0e0" stroke="#cac6c4" stroke-linejoin="round" stroke-width=".17437"/><rect transform="scale(-1)" x="-199.93" y="-409.12" width="1.7842" height="2.2161" fill="#f2dcc6" stroke-width=".87186"/><rect transform="scale(-1)" x="-199.81" y="-409.01" width="1.6596" height="2.1019" fill="#f3ece1" stroke-width=".87186"/><rect transform="scale(-1)" x="-199.67" y="-408.91" width="1.5181" height="2.0019" rx=".6946" ry=".39396" fill="#e3e0e0" stroke="#cac6c4" stroke-linejoin="round" stroke-width=".17437"/><rect transform="scale(-1)" x="-195.27" y="-409.94" width="1.8284" height="3.0354" fill="#f2dcc6" stroke-width=".87186"/><rect transform="scale(-1)" x="-195.22" y="-409.82" width="1.7815" height="2.9101" fill="#f3ece1" stroke-width=".87186"/><rect transform="scale(-1)" x="-195.07" y="-409.65" width="1.6288" height="2.7438" rx=".6946" ry=".39396" fill="#e3e0e0" stroke="#cac6c4" stroke-linejoin="round" stroke-width=".17437"/><rect transform="scale(-1)" x="-190.69" y="-410.81" width="1.9836" height="3.899" fill="#f2dcc6" stroke-width=".87186"/><rect transform="scale(-1)" x="-190.56" y="-410.65" width="1.859" height="3.7405" fill="#f3ece1" stroke-width=".87186"/><rect transform="scale(-1)" x="-190.43" y="-410.41" width="1.7175" height="3.5077" rx=".6946" ry=".39396" fill="#e3e0e0" stroke="#cac6c4" stroke-linejoin="round" stroke-width=".17437"/><rect transform="scale(-1)" x="-185.95" y="-410.95" width="1.8063" height="4.0429" fill="#f2dcc6" stroke-width=".87186"/><rect transform="scale(-1)" x="-185.85" y="-410.87" width="1.704" height="3.962" fill="#f3ece1" stroke-width=".87186"/><rect transform="scale(-1)" x="-185.75" y="-410.82" width="1.6178" height="3.9173" rx=".6946" ry=".39396" fill="#e3e0e0" stroke="#cac6c4" stroke-linejoin="round" stroke-width=".17437"/><rect transform="scale(-1)" x="-181.28" y="-411.38" width="1.7984" height="4.4735" fill="#f2dcc6" stroke-width=".87186"/><rect transform="scale(-1)" x="-181.16" y="-411.31" width="1.6817" height="4.4048" fill="#f3ece1" stroke-width=".87186"/><rect transform="scale(-1)" x="-181.1" y="-411.25" width="1.6256" height="4.34" rx=".6946" ry=".39396" fill="#e3e0e0" stroke="#cac6c4" stroke-linejoin="round" stroke-width=".17437"/><rect transform="scale(-1)" x="-153.32" y="-411.38" width="1.7984" height="4.4735" fill="#f2dcc6" stroke-width=".87186"/><rect transform="scale(-1)" x="-153.2" y="-411.31" width="1.6817" height="4.4048" fill="#f3ece1" stroke-width=".87186"/><rect transform="scale(-1)" x="-153.15" y="-411.25" width="1.6256" height="4.34" rx=".6946" ry=".39396" fill="#e3e0e0" stroke="#cac6c4" stroke-linejoin="round" stroke-width=".17437"/><rect transform="scale(-1)" x="-157.96" y="-411.38" width="1.7984" height="4.4735" fill="#f2dcc6" stroke-width=".87186"/><rect transform="scale(-1)" x="-157.85" y="-411.31" width="1.6817" height="4.4048" fill="#f3ece1" stroke-width=".87186"/><rect transform="scale(-1)" x="-157.79" y="-411.25" width="1.6256" height="4.34" rx=".6946" ry=".39396" fill="#e3e0e0" stroke="#cac6c4" stroke-linejoin="round" stroke-width=".17437"/><rect transform="scale(-1)" x="-162.63" y="-411.38" width="1.7984" height="4.4735" fill="#f2dcc6" stroke-width=".87186"/><rect transform="scale(-1)" x="-162.51" y="-411.31" width="1.6817" height="4.4048" fill="#f3ece1" stroke-width=".87186"/><rect transform="scale(-1)" x="-162.45" y="-411.25" width="1.6256" height="4.34" rx=".6946" ry=".39396" fill="#e3e0e0" stroke="#cac6c4" stroke-linejoin="round" stroke-width=".17437"/><rect transform="scale(-1)" x="-167.29" y="-411.38" width="1.7984" height="4.4735" fill="#f2dcc6" stroke-width=".87186"/><rect transform="scale(-1)" x="-167.17" y="-411.31" width="1.6817" height="4.4048" fill="#f3ece1" stroke-width=".87186"/><rect transform="scale(-1)" x="-167.11" y="-411.25" width="1.6256" height="4.34" rx=".6946" ry=".39396" fill="#e3e0e0" stroke="#cac6c4" stroke-linejoin="round" stroke-width=".17437"/><rect transform="scale(-1)" x="-171.95" y="-411.38" width="1.7984" height="4.4735" fill="#f2dcc6" stroke-width=".87186"/><rect transform="scale(-1)" x="-171.84" y="-411.31" width="1.6817" height="4.4048" fill="#f3ece1" stroke-width=".87186"/><rect transform="scale(-1)" x="-171.78" y="-411.25" width="1.6256" height="4.34" rx=".6946" ry=".39396" fill="#e3e0e0" stroke="#cac6c4" stroke-linejoin="round" stroke-width=".17437"/><rect transform="scale(-1)" x="-176.61" y="-411.38" width="1.7984" height="4.4735" fill="#f2dcc6" stroke-width=".87186"/><rect transform="scale(-1)" x="-176.5" y="-411.31" width="1.6817" height="4.4048" fill="#f3ece1" stroke-width=".87186"/><rect transform="scale(-1)" x="-176.44" y="-411.25" width="1.6256" height="4.34" rx=".6946" ry=".39396" fill="#e3e0e0" stroke="#cac6c4" stroke-linejoin="round" stroke-width=".17437"/><path d="m193.07 397.63v-12.543h-1.3656v12.543z" fill="#a09a9a" stroke-width="1.8832"/><g stroke-width=".0078716px"><path d="m208.1 383.19h0.87381v0.1177h-0.36668v0.91531h-0.14049v-0.91531h-0.36667z"/><path d="m209.35 383.34-0.18959 0.51404h0.37983zm-0.0789-0.13766h0.15838l0.39366 1.0329h-0.14538l-0.0942-0.26498h-0.46562l-0.0942 0.26498h-0.14746z"/><path d="m209.72 383.19h0.8738v0.1177h-0.36668v0.91531h-0.14048v-0.91531h-0.36668z"/><path d="m207.97 383.23v0.13634c-0.35841-0.18286-0.52447-0.0113-0.52447 0.0947 0 0.25045 0.58667 0.075 0.58667 0.48256 0 0.37746-0.49637 0.31654-0.72277 0.23892v-0.14388c0.23706 0.16817 0.57682 0.11676 0.57682-0.0851 0-0.30438-0.58121-0.0945-0.58121-0.48266 8e-3 -0.339 0.37856-0.32081 0.66485-0.24222z"/><path d="m209.22 391.8h0.14105l0.21725 0.8731 0.21655-0.8731h0.15706l0.21724 0.8731 0.21655-0.8731h0.14181l-0.25945 1.0329h-0.1757l-0.21793-0.89663-0.22001 0.89663h-0.1757z"/><path d="m210.7 391.8h0.65309v0.11751h-0.51334v0.30579h0.49189v0.1177h-0.49189v0.37431h0.52579v0.11751h-0.66554z"/><path d="m207.48 391.91v0.38813h0.1757c0.14802 0 0.20414-0.0684 0.20414-0.19435 0-0.12599-0.0928-0.19378-0.20414-0.19378zm-0.13974-0.11488h0.3155c0.28103 0 0.35146 0.13145 0.35146 0.3086 0 0.17721-0.0906 0.30922-0.35146 0.30922h-0.17571v0.41512h-0.13973z"/></g><path d="m161.2 403.83c0-1.0829-1.9843-0.90401-1.9843-1.6437 0-0.68452 1.0318-0.65524 1.6935-0.33841l0.16622-0.33357c-1.1379-0.54684-2.2908-0.1538-2.2908 0.67198 0 1.0829 1.9843 0.90401 1.9843 1.6437 0 0.62892-1.1016 0.75175-1.9012 0.29006l-0.16622 0.33358c1.1536 0.55614 2.4986 0.25282 2.4986-0.62364z" stroke-width="1.8832"/><rect x="141.83" y="385.41" width="15.868" height="13.263" fill="#ebebeb" fill-rule="evenodd" stroke="#000" stroke-linecap="round" stroke-width=".215"/><path d="m156.23 395.32h-3.3095l6e-3 2.0211-1.2045 1e-3v0.75672h-3.8822l9.2e-4 -0.75871h-1.2537v-2.0211h-3.2944v-8.7017l12.937-0.0283z" fill="#1a1a1a" stroke-width="1.8872"/><g stroke-width=".0078716px"><path d="m210.7 383.19h0.14049v0.6275c0 0.20824 0.0745 0.31208 0.2554 0.31208 0.18089 0 0.25472-0.0959 0.25472-0.31208v-0.6275h0.14049v0.64479c0 0.28917-0.16335 0.40811-0.39511 0.40811s-0.3957-0.10446-0.3957-0.40811z"/><path d="m212.38 383.23v0.13634c-0.35841-0.18286-0.52447-0.0113-0.52447 0.0947 0 0.25045 0.58667 0.075 0.58667 0.48256 0 0.37746-0.49637 0.31654-0.72277 0.23892v-0.14388c0.23706 0.16817 0.57682 0.11676 0.57682-0.0851 0-0.30438-0.58121-0.0945-0.58121-0.48266 8e-3 -0.339 0.37856-0.32081 0.66485-0.24222z"/><path d="m208.61 391.89c-0.22117 0-0.33144 0.20363-0.33144 0.4226s0.10788 0.42194 0.33144 0.42194 0.33007-0.18721 0.33007-0.42194-0.1089-0.4226-0.33007-0.4226zm0-0.11337c0.29404 0 0.47743 0.23721 0.47743 0.53614s-0.16799 0.5354-0.47743 0.5354-0.47882-0.22077-0.47882-0.5354 0.18478-0.53614 0.47882-0.53614z"/><path d="m212.1 392.34c0.17332 0.0912 0.15515 0.19247 0.3147 0.48419h-0.15009c-0.17866-0.37998-0.18708-0.43655-0.3625-0.43655h-0.15216v0.43656h-0.13973v-1.0329h0.31547c0.28244 0 0.35149 0.15987 0.35149 0.29746s-0.0819 0.22575-0.17705 0.25125zm-0.35007-0.43379v0.36668h0.1757c0.15704 0 0.20417-0.0961 0.20417-0.18396 0-0.0879-0.0613-0.18265-0.20417-0.18265z"/></g></svg>
