<svg width="471.47" height="46.933" version="1.1" viewBox="37.3333333333 394.666666667 250.391648 15.2324736" xmlns="http://www.w3.org/2000/svg">
 <g transform="matrix(1.0665 0 0 1.063 -.011273 14.153)">
  <g transform="matrix(1.1375 0 0 1.0468 -40.977 284.5)">
   <rect x="67.006" y="66.026" width="206" height="22" fill="#5d6a6f"/>
   <rect x="67.006" y="66.026" width="206" height="22" fill="none" stroke="#5d6a6f" stroke-width=".4"/>
  </g>
  <g transform="matrix(1.1375 0 0 1.0468 -40.977 284.5)">
   <rect x="66.906" y="76.286" width="205.35" height="11.839" fill="#687174"/>
   <rect x="66.906" y="76.286" width="205.35" height="11.839" fill="none" stroke="#687174" stroke-width=".2"/>
  </g>
  <g transform="matrix(1.1375 0 0 1.0468 -40.977 284.5)">
   <rect x="111.1" y="76.381" width="21.683" height="10.608" fill="#434b4d"/>
   <rect x="111.1" y="76.381" width="21.683" height="10.608" fill="none" stroke="#434b4d" stroke-width=".2"/>
   <rect x="111.28" y="76.563" width="21.408" height="10.426" rx=".6" ry=".6" fill="#687174"/>
   <rect x="111.28" y="76.563" width="21.408" height="10.426" rx=".6" ry=".6" fill="none" stroke="#525a5d" stroke-linejoin="round" stroke-width=".2"/>
  </g>
  <g transform="matrix(1.1375 0 0 1.0468 -40.977 284.5)">
   <rect x="246.82" y="68.947" width="16.659" height="5.1486" fill="#3c584c"/>
   <rect x="246.82" y="68.947" width="16.659" height="5.1486" fill="none" stroke="#7f7f7f" stroke-width=".2"/>
  </g>
  <g transform="matrix(1.1375 0 0 1.0468 -40.977 284.5)">
   <rect x="67.309" y="76.381" width="1.62" height="10.608" fill="#434b4d"/>
   <rect x="67.309" y="76.381" width="1.62" height="10.608" fill="none" stroke="#434b4d" stroke-width=".2"/>
   <rect x="67.495" y="76.563" width="1.4341" height="10.426" rx=".6" ry=".6" fill="#687174"/>
   <rect x="67.495" y="76.563" width="1.4341" height="10.426" rx=".6" ry=".6" fill="none" stroke="#525a5d" stroke-linejoin="round" stroke-width=".2"/>
  </g>
  <g transform="matrix(1.1375 0 0 1.0468 -40.977 284.5)">
   <rect x="69.738" y="76.381" width="1.62" height="10.608" fill="#434b4d"/>
   <rect x="69.738" y="76.381" width="1.62" height="10.608" fill="none" stroke="#434b4d" stroke-width=".2"/>
   <rect x="69.924" y="76.563" width="1.4341" height="10.426" rx=".6" ry=".6" fill="#687174"/>
   <rect x="69.924" y="76.563" width="1.4341" height="10.426" rx=".6" ry=".6" fill="none" stroke="#525a5d" stroke-linejoin="round" stroke-width=".2"/>
  </g>
  <g transform="matrix(1.1375 0 0 1.0468 -40.977 284.5)">
   <rect x="72.166" y="76.381" width="1.62" height="10.608" fill="#434b4d"/>
   <rect x="72.166" y="76.381" width="1.62" height="10.608" fill="none" stroke="#434b4d" stroke-width=".2"/>
   <rect x="72.352" y="76.563" width="1.4341" height="10.426" rx=".6" ry=".6" fill="#687174"/>
   <rect x="72.352" y="76.563" width="1.4341" height="10.426" rx=".6" ry=".6" fill="none" stroke="#525a5d" stroke-linejoin="round" stroke-width=".2"/>
  </g>
  <g transform="matrix(1.1375 0 0 1.0468 -40.977 284.5)">
   <rect x="74.594" y="76.381" width="1.62" height="10.608" fill="#434b4d"/>
   <rect x="74.594" y="76.381" width="1.62" height="10.608" fill="none" stroke="#434b4d" stroke-width=".2"/>
   <rect x="74.78" y="76.563" width="1.4341" height="10.426" rx=".6" ry=".6" fill="#687174"/>
   <rect x="74.78" y="76.563" width="1.4341" height="10.426" rx=".6" ry=".6" fill="none" stroke="#525a5d" stroke-linejoin="round" stroke-width=".2"/>
  </g>
  <g transform="matrix(1.1375 0 0 1.0468 -40.977 284.5)">
   <rect x="77.023" y="76.381" width="1.62" height="10.608" fill="#434b4d"/>
   <rect x="77.023" y="76.381" width="1.62" height="10.608" fill="none" stroke="#434b4d" stroke-width=".2"/>
   <rect x="77.209" y="76.563" width="1.4341" height="10.426" rx=".6" ry=".6" fill="#687174"/>
   <rect x="77.209" y="76.563" width="1.4341" height="10.426" rx=".6" ry=".6" fill="none" stroke="#525a5d" stroke-linejoin="round" stroke-width=".2"/>
  </g>
  <g transform="matrix(1.1375 0 0 1.0468 -40.977 284.5)">
   <rect x="79.451" y="76.381" width="1.62" height="10.608" fill="#434b4d"/>
   <rect x="79.451" y="76.381" width="1.62" height="10.608" fill="none" stroke="#434b4d" stroke-width=".2"/>
   <rect x="79.637" y="76.563" width="1.4341" height="10.426" rx=".6" ry=".6" fill="#687174"/>
   <rect x="79.637" y="76.563" width="1.4341" height="10.426" rx=".6" ry=".6" fill="none" stroke="#525a5d" stroke-linejoin="round" stroke-width=".2"/>
  </g>
  <g transform="matrix(1.1375 0 0 1.0468 -40.977 284.5)">
   <rect x="84.308" y="76.381" width="1.62" height="10.608" fill="#434b4d"/>
   <rect x="84.308" y="76.381" width="1.62" height="10.608" fill="none" stroke="#434b4d" stroke-width=".2"/>
   <rect x="84.494" y="76.563" width="1.4341" height="10.426" rx=".6" ry=".6" fill="#687174"/>
   <rect x="84.494" y="76.563" width="1.4341" height="10.426" rx=".6" ry=".6" fill="none" stroke="#525a5d" stroke-linejoin="round" stroke-width=".2"/>
  </g>
  <g transform="matrix(1.1375 0 0 1.0468 -40.977 284.5)">
   <rect x="86.736" y="76.381" width="1.62" height="10.608" fill="#434b4d"/>
   <rect x="86.736" y="76.381" width="1.62" height="10.608" fill="none" stroke="#434b4d" stroke-width=".2"/>
   <rect x="86.922" y="76.563" width="1.4341" height="10.426" rx=".6" ry=".6" fill="#687174"/>
   <rect x="86.922" y="76.563" width="1.4341" height="10.426" rx=".6" ry=".6" fill="none" stroke="#525a5d" stroke-linejoin="round" stroke-width=".2"/>
  </g>
  <g transform="matrix(1.1375 0 0 1.0468 -40.977 284.5)">
   <rect x="89.165" y="76.381" width="1.62" height="10.608" fill="#434b4d"/>
   <rect x="89.165" y="76.381" width="1.62" height="10.608" fill="none" stroke="#434b4d" stroke-width=".2"/>
   <rect x="89.351" y="76.563" width="1.4341" height="10.426" rx=".6" ry=".6" fill="#687174"/>
   <rect x="89.351" y="76.563" width="1.4341" height="10.426" rx=".6" ry=".6" fill="none" stroke="#525a5d" stroke-linejoin="round" stroke-width=".2"/>
  </g>
  <g transform="matrix(1.1375 0 0 1.0468 -40.977 284.5)">
   <rect x="81.88" y="76.381" width="1.62" height="10.608" fill="#434b4d"/>
   <rect x="81.88" y="76.381" width="1.62" height="10.608" fill="none" stroke="#434b4d" stroke-width=".2"/>
   <rect x="82.066" y="76.563" width="1.4341" height="10.426" rx=".6" ry=".6" fill="#687174"/>
   <rect x="82.066" y="76.563" width="1.4341" height="10.426" rx=".6" ry=".6" fill="none" stroke="#525a5d" stroke-linejoin="round" stroke-width=".2"/>
  </g>
  <g transform="matrix(1.1375 0 0 1.0468 -40.977 284.5)">
   <rect x="91.593" y="76.381" width="1.62" height="10.608" fill="#434b4d"/>
   <rect x="91.593" y="76.381" width="1.62" height="10.608" fill="none" stroke="#434b4d" stroke-width=".2"/>
   <rect x="91.779" y="76.563" width="1.4341" height="10.426" rx=".6" ry=".6" fill="#687174"/>
   <rect x="91.779" y="76.563" width="1.4341" height="10.426" rx=".6" ry=".6" fill="none" stroke="#525a5d" stroke-linejoin="round" stroke-width=".2"/>
  </g>
  <g transform="matrix(1.1375 0 0 1.0468 -40.977 284.5)">
   <rect x="94.022" y="76.381" width="1.62" height="10.608" fill="#434b4d"/>
   <rect x="94.022" y="76.381" width="1.62" height="10.608" fill="none" stroke="#434b4d" stroke-width=".2"/>
   <rect x="94.207" y="76.563" width="1.4341" height="10.426" rx=".6" ry=".6" fill="#687174"/>
   <rect x="94.207" y="76.563" width="1.4341" height="10.426" rx=".6" ry=".6" fill="none" stroke="#525a5d" stroke-linejoin="round" stroke-width=".2"/>
  </g>
  <g transform="matrix(1.1375 0 0 1.0468 -40.977 284.5)">
   <rect x="96.45" y="76.381" width="1.62" height="10.608" fill="#434b4d"/>
   <rect x="96.45" y="76.381" width="1.62" height="10.608" fill="none" stroke="#434b4d" stroke-width=".2"/>
   <rect x="96.636" y="76.563" width="1.4341" height="10.426" rx=".6" ry=".6" fill="#687174"/>
   <rect x="96.636" y="76.563" width="1.4341" height="10.426" rx=".6" ry=".6" fill="none" stroke="#525a5d" stroke-linejoin="round" stroke-width=".2"/>
  </g>
  <g transform="matrix(1.1375 0 0 1.0468 -40.977 284.5)">
   <rect x="98.878" y="76.381" width="1.62" height="10.608" fill="#434b4d"/>
   <rect x="98.878" y="76.381" width="1.62" height="10.608" fill="none" stroke="#434b4d" stroke-width=".2"/>
   <rect x="99.064" y="76.563" width="1.4341" height="10.426" rx=".6" ry=".6" fill="#687174"/>
   <rect x="99.064" y="76.563" width="1.4341" height="10.426" rx=".6" ry=".6" fill="none" stroke="#525a5d" stroke-linejoin="round" stroke-width=".2"/>
  </g>
  <g transform="matrix(1.1375 0 0 1.0468 -40.977 284.5)">
   <rect x="101.31" y="76.381" width="1.62" height="10.608" fill="#434b4d"/>
   <rect x="101.31" y="76.381" width="1.62" height="10.608" fill="none" stroke="#434b4d" stroke-width=".2"/>
   <rect x="101.49" y="76.563" width="1.4341" height="10.426" rx=".6" ry=".6" fill="#687174"/>
   <rect x="101.49" y="76.563" width="1.4341" height="10.426" rx=".6" ry=".6" fill="none" stroke="#525a5d" stroke-linejoin="round" stroke-width=".2"/>
  </g>
  <g transform="matrix(1.1375 0 0 1.0468 -40.977 284.5)">
   <rect x="103.74" y="76.381" width="1.62" height="10.608" fill="#434b4d"/>
   <rect x="103.74" y="76.381" width="1.62" height="10.608" fill="none" stroke="#434b4d" stroke-width=".2"/>
   <rect x="103.92" y="76.563" width="1.4341" height="10.426" rx=".6" ry=".6" fill="#687174"/>
   <rect x="103.92" y="76.563" width="1.4341" height="10.426" rx=".6" ry=".6" fill="none" stroke="#525a5d" stroke-linejoin="round" stroke-width=".2"/>
  </g>
  <g transform="matrix(1.1375 0 0 1.0468 -40.977 284.5)">
   <rect x="106.16" y="76.381" width="1.62" height="10.608" fill="#434b4d"/>
   <rect x="106.16" y="76.381" width="1.62" height="10.608" fill="none" stroke="#434b4d" stroke-width=".2"/>
   <rect x="106.35" y="76.563" width="1.4341" height="10.426" rx=".6" ry=".6" fill="#687174"/>
   <rect x="106.35" y="76.563" width="1.4341" height="10.426" rx=".6" ry=".6" fill="none" stroke="#525a5d" stroke-linejoin="round" stroke-width=".2"/>
  </g>
  <g transform="matrix(1.1375 0 0 1.0468 -40.977 284.5)">
   <rect x="108.59" y="76.381" width="1.62" height="10.608" fill="#434b4d"/>
   <rect x="108.59" y="76.381" width="1.62" height="10.608" fill="none" stroke="#434b4d" stroke-width=".2"/>
   <rect x="108.78" y="76.563" width="1.4341" height="10.426" rx=".6" ry=".6" fill="#687174"/>
   <rect x="108.78" y="76.563" width="1.4341" height="10.426" rx=".6" ry=".6" fill="none" stroke="#525a5d" stroke-linejoin="round" stroke-width=".2"/>
  </g>
  <g transform="matrix(1.1375 0 0 1.0468 -40.977 284.5)">
   <rect x="133.57" y="76.381" width="1.62" height="10.608" fill="#434b4d"/>
   <rect x="133.57" y="76.381" width="1.62" height="10.608" fill="none" stroke="#434b4d" stroke-width=".2"/>
   <rect x="133.76" y="76.563" width="1.4341" height="10.426" rx=".6" ry=".6" fill="#687174"/>
   <rect x="133.76" y="76.563" width="1.4341" height="10.426" rx=".6" ry=".6" fill="none" stroke="#525a5d" stroke-linejoin="round" stroke-width=".2"/>
  </g>
  <g transform="matrix(1.1375 0 0 1.0468 -40.977 284.5)">
   <rect x="158.86" y="76.381" width="1.62" height="10.608" fill="#434b4d"/>
   <rect x="158.86" y="76.381" width="1.62" height="10.608" fill="none" stroke="#434b4d" stroke-width=".2"/>
   <rect x="159.04" y="76.563" width="1.4341" height="10.426" rx=".6" ry=".6" fill="#687174"/>
   <rect x="159.04" y="76.563" width="1.4341" height="10.426" rx=".6" ry=".6" fill="none" stroke="#525a5d" stroke-linejoin="round" stroke-width=".2"/>
  </g>
  <g transform="matrix(1.1375 0 0 1.0468 -40.977 284.5)">
   <rect x="184.22" y="76.381" width="1.62" height="10.608" fill="#434b4d"/>
   <rect x="184.22" y="76.381" width="1.62" height="10.608" fill="none" stroke="#434b4d" stroke-width=".2"/>
   <rect x="184.4" y="76.563" width="1.4341" height="10.426" rx=".6" ry=".6" fill="#687174"/>
   <rect x="184.4" y="76.563" width="1.4341" height="10.426" rx=".6" ry=".6" fill="none" stroke="#525a5d" stroke-linejoin="round" stroke-width=".2"/>
  </g>
  <g transform="matrix(1.1375 0 0 1.0468 -40.977 284.5)">
   <rect x="209.36" y="76.381" width="1.62" height="10.608" fill="#434b4d"/>
   <rect x="209.36" y="76.381" width="1.62" height="10.608" fill="none" stroke="#434b4d" stroke-width=".2"/>
   <rect x="209.54" y="76.563" width="1.4341" height="10.426" rx=".6" ry=".6" fill="#687174"/>
   <rect x="209.54" y="76.563" width="1.4341" height="10.426" rx=".6" ry=".6" fill="none" stroke="#525a5d" stroke-linejoin="round" stroke-width=".2"/>
  </g>
  <g transform="matrix(1.1375 0 0 1.0468 -40.977 284.5)">
   <rect x="239.17" y="76.381" width="1.62" height="10.608" fill="#434b4d"/>
   <rect x="239.17" y="76.381" width="1.62" height="10.608" fill="none" stroke="#434b4d" stroke-width=".2"/>
   <rect x="239.35" y="76.563" width="1.4341" height="10.426" rx=".6" ry=".6" fill="#687174"/>
   <rect x="239.35" y="76.563" width="1.4341" height="10.426" rx=".6" ry=".6" fill="none" stroke="#525a5d" stroke-linejoin="round" stroke-width=".2"/>
  </g>
  <g transform="matrix(1.1375 0 0 1.0468 -40.977 284.5)">
   <rect x="270.95" y="76.421" width="1.62" height="10.608" fill="#434b4d"/>
   <rect x="270.95" y="76.421" width="1.62" height="10.608" fill="none" stroke="#434b4d" stroke-width=".2"/>
   <rect x="271.13" y="76.603" width="1.4341" height="10.426" rx=".6" ry=".6" fill="#687174"/>
   <rect x="271.13" y="76.603" width="1.4341" height="10.426" rx=".6" ry=".6" fill="none" stroke="#525a5d" stroke-linejoin="round" stroke-width=".2"/>
  </g>
  <g transform="matrix(1.1375 0 0 1.0468 -40.977 284.5)">
   <rect x="136.14" y="76.381" width="21.683" height="10.608" fill="#434b4d"/>
   <rect x="136.14" y="76.381" width="21.683" height="10.608" fill="none" stroke="#434b4d" stroke-width=".2"/>
   <rect x="136.32" y="76.563" width="21.408" height="10.426" rx=".6" ry=".6" fill="#687174"/>
   <rect x="136.32" y="76.563" width="21.408" height="10.426" rx=".6" ry=".6" fill="none" stroke="#525a5d" stroke-linejoin="round" stroke-width=".2"/>
  </g>
  <g transform="matrix(1.1375 0 0 1.0468 -40.977 284.5)">
   <rect x="161.65" y="76.381" width="21.683" height="10.608" fill="#434b4d"/>
   <rect x="161.65" y="76.381" width="21.683" height="10.608" fill="none" stroke="#434b4d" stroke-width=".2"/>
   <rect x="161.84" y="76.563" width="21.408" height="10.426" rx=".6" ry=".6" fill="#687174"/>
   <rect x="161.84" y="76.563" width="21.408" height="10.426" rx=".6" ry=".6" fill="none" stroke="#525a5d" stroke-linejoin="round" stroke-width=".2"/>
  </g>
  <g transform="matrix(1.1375 0 0 1.0468 -40.977 284.5)">
   <rect x="186.86" y="76.381" width="21.683" height="10.608" fill="#434b4d"/>
   <rect x="186.86" y="76.381" width="21.683" height="10.608" fill="none" stroke="#434b4d" stroke-width=".2"/>
   <rect x="187.05" y="76.563" width="21.408" height="10.426" rx=".6" ry=".6" fill="#687174"/>
   <rect x="187.05" y="76.563" width="21.408" height="10.426" rx=".6" ry=".6" fill="none" stroke="#525a5d" stroke-linejoin="round" stroke-width=".2"/>
  </g>
  <g transform="matrix(1.1375 0 0 1.0468 -40.977 284.5)">
   <rect x="212.4" y="76.381" width="18.214" height="10.608" fill="#434b4d"/>
   <rect x="212.4" y="76.381" width="18.214" height="10.608" fill="none" stroke="#434b4d" stroke-width=".2"/>
   <rect x="212.59" y="76.563" width="17.896" height="10.426" rx=".6" ry=".6" fill="#687174"/>
   <rect x="212.59" y="76.563" width="17.896" height="10.426" rx=".6" ry=".6" fill="none" stroke="#525a5d" stroke-linejoin="round" stroke-width=".2"/>
  </g>
  <g transform="matrix(1.1375 0 0 1.0468 -40.977 284.5)">
   <rect x="241.43" y="76.381" width="28.587" height="10.608" fill="#434b4d"/>
   <rect x="241.43" y="76.381" width="28.587" height="10.608" fill="none" stroke="#434b4d" stroke-width=".2"/>
   <rect x="241.61" y="76.563" width="28.32" height="10.426" rx=".6" ry=".6" fill="#687174"/>
   <rect x="241.61" y="76.563" width="28.32" height="10.426" rx=".6" ry=".6" fill="none" stroke="#525a5d" stroke-linejoin="round" stroke-width=".2"/>
  </g>
  <g transform="matrix(1.1375 0 0 1.0468 -40.977 284.5)">
   <rect x="113.9" y="80.049" width="6.9545" height="4.596"/>
   <rect x="113.9" y="80.049" width="6.9545" height="4.596" fill="none" stroke="#7f7f7f" stroke-width=".2"/>
   <polygon points="114.1 84.356 120.56 84.308 120.51 80.249 115.5 80.249 114.1 80.249"/>
   <polygon points="114.1 84.356 120.56 84.308 120.51 80.249 115.5 80.249 114.1 80.249" fill="none" stroke="#7f7f7f" stroke-width=".1"/>
  </g>
  <g transform="matrix(1.1375 0 0 1.0468 -40.977 284.5)">
   <rect x="139.08" y="80.049" width="6.9545" height="4.596"/>
   <rect x="139.08" y="80.049" width="6.9545" height="4.596" fill="none" stroke="#7f7f7f" stroke-width=".2"/>
   <polygon points="139.28 84.356 145.74 84.308 145.7 80.249 140.68 80.249 139.28 80.249"/>
   <polygon points="139.28 84.356 145.74 84.308 145.7 80.249 140.68 80.249 139.28 80.249" fill="none" stroke="#7f7f7f" stroke-width=".1"/>
  </g>
  <g transform="matrix(1.1375 0 0 1.0468 -40.977 284.5)">
   <rect x="164.34" y="80.049" width="6.9545" height="4.596"/>
   <rect x="164.34" y="80.049" width="6.9545" height="4.596" fill="none" stroke="#7f7f7f" stroke-width=".2"/>
   <polygon points="164.54 84.356 171.01 84.308 170.96 80.249 165.94 80.249 164.54 80.249"/>
   <polygon points="164.54 84.356 171.01 84.308 170.96 80.249 165.94 80.249 164.54 80.249" fill="none" stroke="#7f7f7f" stroke-width=".1"/>
  </g>
  <g transform="matrix(1.1375 0 0 1.0468 -40.977 284.5)">
   <rect x="189.6" y="80.049" width="6.9545" height="4.596"/>
   <rect x="189.6" y="80.049" width="6.9545" height="4.596" fill="none" stroke="#7f7f7f" stroke-width=".2"/>
   <polygon points="189.8 84.356 196.27 84.308 196.22 80.249 191.2 80.249 189.8 80.249"/>
   <polygon points="189.8 84.356 196.27 84.308 196.22 80.249 191.2 80.249 189.8 80.249" fill="none" stroke="#7f7f7f" stroke-width=".1"/>
  </g>
  <g transform="matrix(1.1375 0 0 1.0468 -40.977 284.5)">
   <rect x="214" y="80.049" width="6.9545" height="4.596"/>
   <rect x="214" y="80.049" width="6.9545" height="4.596" fill="none" stroke="#7f7f7f" stroke-width=".2"/>
   <polygon points="214.2 84.356 220.67 84.308 220.62 80.249 215.6 80.249 214.2 80.249"/>
   <polygon points="214.2 84.356 220.67 84.308 220.62 80.249 215.6 80.249 214.2 80.249" fill="none" stroke="#7f7f7f" stroke-width=".1"/>
  </g>
  <g transform="matrix(1.1375 0 0 1.0468 -40.977 284.5)">
   <rect x="221.24" y="80.049" width="6.9545" height="4.596"/>
   <rect x="221.24" y="80.049" width="6.9545" height="4.596" fill="none" stroke="#7f7f7f" stroke-width=".2"/>
   <polygon points="221.44 84.356 227.9 84.308 227.86 80.249 222.84 80.249 221.44 80.249"/>
   <polygon points="221.44 84.356 227.9 84.308 227.86 80.249 222.84 80.249 221.44 80.249" fill="none" stroke="#7f7f7f" stroke-width=".1"/>
  </g>
  <g transform="matrix(1.1375 0 0 1.0468 -40.977 284.5)">
   <rect x="231.33" y="76.381" width="7.2407" height="10.608" fill="#434b4d"/>
   <rect x="231.33" y="76.381" width="7.2407" height="10.608" fill="none" stroke="#434b4d" stroke-width=".2"/>
   <rect x="231.51" y="76.563" width="6.9738" height="10.426" rx=".6" ry=".6" fill="#687174"/>
   <rect x="231.51" y="76.563" width="6.9738" height="10.426" rx=".6" ry=".6" fill="none" stroke="#525a5d" stroke-linejoin="round" stroke-width=".2"/>
  </g>
  <g transform="matrix(1.0262 0 0 1.0676 -11.315 282.97)">
   <ellipse cx="267.67" cy="73.61" rx="1.0624" ry=".99993"/>
   <ellipse cx="267.67" cy="73.61" rx="1.0624" ry=".99993" fill="none" stroke="#e5e5e5"/>
  </g>
  <g fill="#ffffff" font-family="'PakType Naskh Basic'" font-weight="700">
   <text transform="scale(1.0424 .95929)" x="212.25096" y="372.88348" font-size="4.9275px" style="line-height:0%">
    <tspan x="212.25096" y="372.88348">7205</tspan>
   </text>
   <g font-size="3.0797px">
    <text transform="scale(1.0424 .95929)" x="93.804237" y="391.50012" style="line-height:0%">
     <tspan x="93.804237" y="391.50012">0</tspan>
    </text>
    <text transform="scale(1.0424 .95929)" x="121.1306" y="391.50012" style="line-height:0%">
     <tspan x="121.1306" y="391.50012">1</tspan>
    </text>
    <text transform="scale(1.0424 .95929)" x="148.97093" y="391.50012" style="line-height:0%">
     <tspan x="148.97093" y="391.50012">2</tspan>
    </text>
    <text transform="scale(1.0424 .95929)" x="176.485" y="391.50012" style="line-height:0%">
     <tspan x="176.485" y="391.50012">3</tspan>
    </text>
    <text transform="scale(1.0424 .95929)" x="196.87885" y="391.34833" style="line-height:0%">
     <tspan x="196.87885" y="391.34833">4</tspan>
    </text>
    <text transform="scale(1.0424 .95929)" x="205.24306" y="391.30499" style="line-height:0%">
     <tspan x="205.24306" y="391.30499">5</tspan>
    </text>
   </g>
   <text transform="scale(1.0424 .95929)" x="245.97508" y="390.81689" font-size="1.8478px" style="line-height:0%">
    <tspan x="245.97508" y="390.81689">MGMT</tspan>
   </text>
   <text transform="scale(1.0424 .95929)" x="227.34503" y="390.74393" font-size="1.8478px" style="line-height:0%">
    <tspan x="227.34503" y="390.74393">Console</tspan>
   </text>
  </g>
  <g transform="matrix(1.0006 0 0 .99999 -9.5168 19.678)">
   <path d="m110.02 353.2h7.5579v-6.9858l-7.5579-2.3e-4z" fill="#3a3a3a"/>
   <g transform="matrix(.0080752 0 0 .0080046 96.896 381.97)">
    <path d="m2560.5-3593.3v-872.71l-935.94-0.027v872.74z" fill="none" stroke="#000" stroke-linecap="square" stroke-width=".67568"/>
   </g>
   <path d="m110.32 347.98h1.7584l-3e-3 -1.0653 0.63992-5.7e-4v-0.39887h2.0626l-4.8e-4 0.39991h0.66608v1.0654h1.7503v4.5866l-6.8735 0.0149z" fill="#1a1a1a"/>
   <g fill="#ffac00">
    <path d="m111.9 352.58h0.2195v-1.34h-0.2195v1.34z"/>
    <path d="m112.39 352.58h0.2195v-1.34h-0.2195v1.34z"/>
    <path d="m112.89 352.58h0.21944v-1.34h-0.21944v1.34z"/>
    <path d="m113.41 352.58h0.21951v-1.34h-0.21951v1.34z"/>
    <path d="m113.9 352.58h0.21951v-1.34h-0.21951v1.34z"/>
    <path d="m114.4 352.58h0.21944v-1.34h-0.21944v1.34z"/>
    <path d="m114.92 352.58h0.21999v-1.34h-0.21999v1.34z"/>
    <path d="m115.41 352.58h0.21944v-1.34h-0.21944v1.34z"/>
   </g>
   <g>
    <path d="m115.6 347.7h1.7367v-0.74886h-1.7367v0.74886z" fill="#abb927"/>
    <path d="m110.16 347.7h1.752v-0.75276h-1.752v0.75276z" fill="#ff7d00"/>
    <path d="m110.02 353.21-1e-3 -6.9884 2.3308-9.5e-4v0.67227l-2.2487-1e-3v0.87026l0.22325 7e-3 4.8e-4 4.8157 6.87-0.01 5e-3 -5e-3 5.3e-4 -4.801 0.22324-7e-3v-0.87027l-2.2619 1e-3v-0.67227l2.4153 9.5e-4 1e-3 6.9884" fill="#ebebeb"/>
   </g>
  </g>
  <path class="st1" d="m42.747 356.87c0 0.5948-0.47584 1.0781-1.0558 1.0781-0.57994 0-1.0558-0.48329-1.0558-1.0781v-0.91452s0.50559 0.12641 0.50559 0.66173v0.25279c0 0.32714 0.24536 0.58737 0.55019 0.58737 0.30484 0 0.5502-0.26023 0.5502-0.58737v-0.52789 7e-3c0.02233-0.44611 0.4015-0.58738 0.49815-0.63943h0.0078v0.62455 0.53533zm-2.7138-1.0706c0.14128 0 0.2751 0.0223 0.39406 0.0743v0.56506c-0.10409-0.0892-0.24536-0.14127-0.39406-0.14127-0.33458 0-0.60224 0.26024-0.60224 0.58738v1.0632h-0.50559v-1.948s0.20818 7e-3 0.34201 0.10415c0.19331-0.19332 0.46841-0.30484 0.76581-0.30484m-2.4238 1.6654c-0.33458 0-0.60967-0.26767-0.60967-0.59481s0.2751-0.59481 0.60967-0.59481c0.33459 0 0.60967 0.26767 0.60967 0.59481s-0.27509 0.59481-0.60967 0.59481m0-1.6654c-0.60967 0-1.1004 0.48327-1.1004 1.0706 0 0.59481 0.49072 1.0707 1.1004 1.0707 0.2528 0 0.48328-0.0818 0.66916-0.22306 0.11153 0.18587 0.43124 0.22306 0.43124 0.22306v-1.0707c0-0.58737-0.49073-1.0706-1.1004-1.0706m8.7957 1.6654c-0.33459 0-0.60968-0.26767-0.60968-0.59481s0.2751-0.59481 0.60968-0.59481c0.33458 0 0.60967 0.26767 0.60967 0.59481s-0.27509 0.59481-0.60967 0.59481m0-1.6654c-0.60968 0-1.1004 0.48327-1.1004 1.0706 0 0.59481 0.49072 1.0707 1.1004 1.0707 0.25278 0 0.48328-0.0818 0.66916-0.22306 0.11153 0.18587 0.43123 0.22306 0.43123 0.22306v-1.0707c0-0.58737-0.49072-1.0706-1.1004-1.0706m-2.3346 1.6654c-0.33459 0-0.60968-0.26767-0.60968-0.59481s0.2751-0.59481 0.60968-0.59481c0.33458 0 0.60967 0.26767 0.60967 0.59481 0.0078 0.32714-0.26767 0.59481-0.60967 0.59481m0-1.6654c-0.22306 0-0.43123 0.0669-0.60968 0.17843v-0.171c-0.02233-0.44611-0.38662-0.58738-0.48328-0.63943h-0.0078v2.7807s0.32714-0.0372 0.45354-0.21562c0.18588 0.1264 0.40892 0.20819 0.64686 0.20819 0.60967 0 1.1004-0.48328 1.1004-1.0707 0.0078-0.58737-0.49072-1.0706-1.1004-1.0706" fill="#f5831f"/>
  <g transform="matrix(1.0262 0 0 1.0676 -11.315 278.26)">
   <ellipse cx="267.67" cy="73.61" rx="1.0624" ry=".99993"/>
   <ellipse cx="267.67" cy="73.61" rx="1.0624" ry=".99993" fill="none" stroke="#e5e5e5"/>
  </g>
  <g transform="matrix(1.0006 0 0 .99999 19.058 19.678)">
   <path d="m110.02 353.2h7.5579v-6.9858l-7.5579-2.3e-4z" fill="#3a3a3a"/>
   <g transform="matrix(.0080752 0 0 .0080046 96.896 381.97)">
    <path d="m2560.5-3593.3v-872.71l-935.94-0.027v872.74z" fill="none" stroke="#000" stroke-linecap="square" stroke-width=".67568"/>
   </g>
   <path d="m110.32 347.98h1.7584l-3e-3 -1.0653 0.63992-5.7e-4v-0.39887h2.0626l-4.8e-4 0.39991h0.66608v1.0654h1.7503v4.5866l-6.8735 0.0149z" fill="#1a1a1a"/>
   <g fill="#ffac00">
    <path d="m111.9 352.58h0.2195v-1.34h-0.2195v1.34z"/>
    <path d="m112.39 352.58h0.2195v-1.34h-0.2195v1.34z"/>
    <path d="m112.89 352.58h0.21944v-1.34h-0.21944v1.34z"/>
    <path d="m113.41 352.58h0.21951v-1.34h-0.21951v1.34z"/>
    <path d="m113.9 352.58h0.21951v-1.34h-0.21951v1.34z"/>
    <path d="m114.4 352.58h0.21944v-1.34h-0.21944v1.34z"/>
    <path d="m114.92 352.58h0.21999v-1.34h-0.21999v1.34z"/>
    <path d="m115.41 352.58h0.21944v-1.34h-0.21944v1.34z"/>
   </g>
   <g>
    <path d="m115.6 347.7h1.7367v-0.74886h-1.7367v0.74886z" fill="#abb927"/>
    <path d="m110.16 347.7h1.752v-0.75276h-1.752v0.75276z" fill="#ff7d00"/>
    <path d="m110.02 353.21-1e-3 -6.9884 2.3308-9.5e-4v0.67227l-2.2487-1e-3v0.87026l0.22325 7e-3 4.8e-4 4.8157 6.87-0.01 5e-3 -5e-3 5.3e-4 -4.801 0.22324-7e-3v-0.87027l-2.2619 1e-3v-0.67227l2.4153 9.5e-4 1e-3 6.9884" fill="#ebebeb"/>
   </g>
  </g>
  <g transform="matrix(1.0006 0 0 .99999 48.034 19.678)">
   <path d="m110.02 353.2h7.5579v-6.9858l-7.5579-2.3e-4z" fill="#3a3a3a"/>
   <g transform="matrix(.0080752 0 0 .0080046 96.896 381.97)">
    <path d="m2560.5-3593.3v-872.71l-935.94-0.027v872.74z" fill="none" stroke="#000" stroke-linecap="square" stroke-width=".67568"/>
   </g>
   <path d="m110.32 347.98h1.7584l-3e-3 -1.0653 0.63992-5.7e-4v-0.39887h2.0626l-4.8e-4 0.39991h0.66608v1.0654h1.7503v4.5866l-6.8735 0.0149z" fill="#1a1a1a"/>
   <g fill="#ffac00">
    <path d="m111.9 352.58h0.2195v-1.34h-0.2195v1.34z"/>
    <path d="m112.39 352.58h0.2195v-1.34h-0.2195v1.34z"/>
    <path d="m112.89 352.58h0.21944v-1.34h-0.21944v1.34z"/>
    <path d="m113.41 352.58h0.21951v-1.34h-0.21951v1.34z"/>
    <path d="m113.9 352.58h0.21951v-1.34h-0.21951v1.34z"/>
    <path d="m114.4 352.58h0.21944v-1.34h-0.21944v1.34z"/>
    <path d="m114.92 352.58h0.21999v-1.34h-0.21999v1.34z"/>
    <path d="m115.41 352.58h0.21944v-1.34h-0.21944v1.34z"/>
   </g>
   <g>
    <path d="m115.6 347.7h1.7367v-0.74886h-1.7367v0.74886z" fill="#abb927"/>
    <path d="m110.16 347.7h1.752v-0.75276h-1.752v0.75276z" fill="#ff7d00"/>
    <path d="m110.02 353.21-1e-3 -6.9884 2.3308-9.5e-4v0.67227l-2.2487-1e-3v0.87026l0.22325 7e-3 4.8e-4 4.8157 6.87-0.01 5e-3 -5e-3 5.3e-4 -4.801 0.22324-7e-3v-0.87027l-2.2619 1e-3v-0.67227l2.4153 9.5e-4 1e-3 6.9884" fill="#ebebeb"/>
   </g>
  </g>
  <g transform="matrix(1.0006 0 0 .99999 76.841 19.678)">
   <path d="m110.02 353.2h7.5579v-6.9858l-7.5579-2.3e-4z" fill="#3a3a3a"/>
   <g transform="matrix(.0080752 0 0 .0080046 96.896 381.97)">
    <path d="m2560.5-3593.3v-872.71l-935.94-0.027v872.74z" fill="none" stroke="#000" stroke-linecap="square" stroke-width=".67568"/>
   </g>
   <path d="m110.32 347.98h1.7584l-3e-3 -1.0653 0.63992-5.7e-4v-0.39887h2.0626l-4.8e-4 0.39991h0.66608v1.0654h1.7503v4.5866l-6.8735 0.0149z" fill="#1a1a1a"/>
   <g fill="#ffac00">
    <path d="m111.9 352.58h0.2195v-1.34h-0.2195v1.34z"/>
    <path d="m112.39 352.58h0.2195v-1.34h-0.2195v1.34z"/>
    <path d="m112.89 352.58h0.21944v-1.34h-0.21944v1.34z"/>
    <path d="m113.41 352.58h0.21951v-1.34h-0.21951v1.34z"/>
    <path d="m113.9 352.58h0.21951v-1.34h-0.21951v1.34z"/>
    <path d="m114.4 352.58h0.21944v-1.34h-0.21944v1.34z"/>
    <path d="m114.92 352.58h0.21999v-1.34h-0.21999v1.34z"/>
    <path d="m115.41 352.58h0.21944v-1.34h-0.21944v1.34z"/>
   </g>
   <g>
    <path d="m115.6 347.7h1.7367v-0.74886h-1.7367v0.74886z" fill="#abb927"/>
    <path d="m110.16 347.7h1.752v-0.75276h-1.752v0.75276z" fill="#ff7d00"/>
    <path d="m110.02 353.21-1e-3 -6.9884 2.3308-9.5e-4v0.67227l-2.2487-1e-3v0.87026l0.22325 7e-3 4.8e-4 4.8157 6.87-0.01 5e-3 -5e-3 5.3e-4 -4.801 0.22324-7e-3v-0.87027l-2.2619 1e-3v-0.67227l2.4153 9.5e-4 1e-3 6.9884" fill="#ebebeb"/>
   </g>
  </g>
  <g transform="matrix(1.0006 0 0 .99999 145.62 19.678)">
   <path d="m110.02 353.2h7.5579v-6.9858l-7.5579-2.3e-4z" fill="#3a3a3a"/>
   <g transform="matrix(.0080752 0 0 .0080046 96.896 381.97)">
    <path d="m2560.5-3593.3v-872.71l-935.94-0.027v872.74z" fill="none" stroke="#000" stroke-linecap="square" stroke-width=".67568"/>
   </g>
   <path d="m110.32 347.98h1.7584l-3e-3 -1.0653 0.63992-5.7e-4v-0.39887h2.0626l-4.8e-4 0.39991h0.66608v1.0654h1.7503v4.5866l-6.8735 0.0149z" fill="#1a1a1a"/>
   <g fill="#ffac00">
    <path d="m111.9 352.58h0.2195v-1.34h-0.2195v1.34z"/>
    <path d="m112.39 352.58h0.2195v-1.34h-0.2195v1.34z"/>
    <path d="m112.89 352.58h0.21944v-1.34h-0.21944v1.34z"/>
    <path d="m113.41 352.58h0.21951v-1.34h-0.21951v1.34z"/>
    <path d="m113.9 352.58h0.21951v-1.34h-0.21951v1.34z"/>
    <path d="m114.4 352.58h0.21944v-1.34h-0.21944v1.34z"/>
    <path d="m114.92 352.58h0.21999v-1.34h-0.21999v1.34z"/>
    <path d="m115.41 352.58h0.21944v-1.34h-0.21944v1.34z"/>
   </g>
   <g>
    <path d="m115.6 347.7h1.7367v-0.74886h-1.7367v0.74886z" fill="#abb927"/>
    <path d="m110.16 347.7h1.752v-0.75276h-1.752v0.75276z" fill="#ff7d00"/>
    <path d="m110.02 353.21-1e-3 -6.9884 2.3308-9.5e-4v0.67227l-2.2487-1e-3v0.87026l0.22325 7e-3 4.8e-4 4.8157 6.87-0.01 5e-3 -5e-3 5.3e-4 -4.801 0.22324-7e-3v-0.87027l-2.2619 1e-3v-0.67227l2.4153 9.5e-4 1e-3 6.9884" fill="#ebebeb"/>
   </g>
  </g>
  <g transform="matrix(1.0024 0 0 1.0019 89.331 154.78)">
   <path d="m146.09 217.75h8.4v-7.0242h-8.4v7.0242z" fill="#3a3a3a"/>
   <g transform="matrix(.0080517 0 0 .0080487 133.48 246.67)">
    <path d="m2609.9-3593.3v-872.71h-1043.3v872.71h1043.3z" fill="none" stroke="#000" stroke-linecap="square" stroke-width=".67568"/>
   </g>
   <path d="m146.86 212.5h1.7532l-3e-3 -1.0712 0.63806-5.7e-4v-0.40106h2.0566l-4.9e-4 0.40211h0.66414v1.0712h1.7452v4.6119l-6.8535 0.015z" fill="#1a1a1a"/>
   <g fill="#ffac00">
    <path d="m148.44 217.12h0.21886v-1.3473h-0.21886v1.3473z"/>
    <path d="m148.93 217.12h0.21886v-1.3473h-0.21886v1.3473z"/>
    <path d="m149.43 217.12h0.2188v-1.3473h-0.2188v1.3473z"/>
    <path d="m149.94 217.12h0.21887v-1.3473h-0.21887v1.3473z"/>
    <path d="m150.43 217.12h0.21886v-1.3473h-0.21886v1.3473z"/>
    <path d="m150.93 217.12h0.2188v-1.3473h-0.2188v1.3473z"/>
    <path d="m151.45 217.12h0.21933v-1.3473h-0.21933v1.3473z"/>
    <path d="m151.94 217.12h0.2188v-1.3473h-0.2188v1.3473z"/>
   </g>
   <g fill="#ebebeb">
    <path d="m148.88 211.4v-0.67597l-2.7924 9.6e-4 2e-3 6.9848 0.77137-0.62711-4.8e-4 -4.8021 1.5788-7e-3v-0.87506z"/>
    <path d="m146.89 217.13-0.76557 0.62244 8.3332 1e-3 -0.78248-0.63628"/>
    <path d="m151.68 211.4v-0.67597l2.8056 9.6e-4 -2e-3 6.9848-0.77145-0.63081 5.6e-4 -4.7984-1.5906-7e-3v-0.87506z"/>
   </g>
  </g>
  <g transform="matrix(1.0036 0 0 .56338 136.95 255.86)">
   <path d="m110.68 204.3h3.7977c0.31236-0.0253 0.47172 0.26313 0.46384 0.53195v1.167c-0.0177 0.40759-0.69625 1.0145-1.2147 0.97148h-2.4609c-0.16724 0.0534-1.0983-0.60543-1.0629-1.0023v-1.1665c-0.0205-0.34162 0.30491-0.50905 0.47686-0.50159" fill="#e6e6e6"/>
   <path d="m110.82 204.48h3.492c0.37167-0.0222 0.41803 0.25189 0.41125 0.48766v1.0611c-0.0156 0.26619-0.58392 0.79942-1.0385 0.76155h-2.3058c-0.14683 0.0469-0.93886-0.53989-0.95768-0.7883v-1.0612c-0.0176-0.29936 0.24811-0.46751 0.3988-0.46085" fill="#1d1d1d"/>
   <g transform="matrix(.0060892 0 0 .0061268 99.791 230.08)">
    <path d="m1811.4-4178h573.48c61.03-3.61 68.63 41.12 67.53 79.61v173.18c-2.58 43.45-95.9 130.46-170.55 124.27h-378.69c-24.09 7.68-154.17-88.11-157.26-128.66v-173.19c-2.9-48.86 40.74-76.32 65.49-75.21z" fill="none" stroke="#000" stroke-width=".26401"/>
   </g>
   <path transform="matrix(.53109 0 0 .53109 35 368.35)" d="m144.09-307.32c-4e-3 -1.6e-4 -9e-3 2e-3 -0.0137 2e-3h-0.0117c-0.17447-7e-3 -0.45217 0.11055-0.43164 0.42579v1.0488c6e-3 0.0693 0.0738 0.16195 0.17187 0.25782 0.2624 0.2717 0.80298 0.59446 0.93164 0.55664h2.4942c0.52548 0.0402 1.2155-0.47741 1.2324-0.75782v-1.0781c8e-3 -0.24841-2e-3 -0.47824-0.43164-0.45508h-3.9414z" fill="#404040"/>
   <g fill="#070707">
    <path d="m111.56 205.87h0.1884v-0.41664h-0.1884v0.41664z"/>
    <path d="m112.01 205.87h0.18839v-0.41664h-0.18839v0.41664z"/>
    <path d="m112.48 205.87h0.18799v-0.41664h-0.18799v0.41664z"/>
    <path d="m112.96 205.87h0.18799v-0.41664h-0.18799v0.41664z"/>
    <path d="m113.42 205.87h0.18837v-0.41664h-0.18837v0.41664z"/>
   </g>
   <g fill="#ffac00">
    <path d="m111.59 205.14h0.0896v-0.13628h-0.0896v0.13628z"/>
    <path d="m112.06 205.14h0.0895v-0.13628h-0.0895v0.13628z"/>
    <path d="m112.52 205.14h0.0895v-0.13628h-0.0895v0.13628z"/>
    <path d="m113 205.14h0.0891v-0.13628h-0.0891v0.13628z"/>
    <path d="m113.47 205.14h0.0891v-0.13628h-0.0891v0.13628z"/>
    <path d="m111.6 205.78h0.10911v-0.23738h-0.10911v0.23738z"/>
    <path d="m112.06 205.76h0.0895v-0.19391h-0.0895v0.19391z"/>
    <path d="m112.53 205.76h0.0895v-0.19391h-0.0895v0.19391z"/>
    <path d="m113.01 205.76h0.0891v-0.19391h-0.0891v0.19391z"/>
    <path d="m113.47 205.76h0.0895v-0.19391h-0.0895v0.19391z"/>
   </g>
  </g>
  <g transform="translate(-.046942 .21106)">
   <g transform="matrix(.31464 0 0 .31449 186.02 288.88)">
    <path d="m131.23 266.26v-24.611h-8.376v24.611h8.376z"/>
    <path d="m131.23 266.26v-24.611h-8.3762v24.611h8.3762z" fill="none" stroke="#535353" stroke-linecap="round" stroke-linejoin="round" stroke-miterlimit="4.4615" stroke-width=".10782"/>
    <g stroke="#000" stroke-linejoin="round">
     <path d="m126.34 264.07v-20.304h-1.4326v20.304h1.4326z" fill="none" stroke-linecap="round" stroke-miterlimit="4.4615" stroke-width=".10782"/>
     <path d="m124.91 264.07v-20.304l-0.71578-0.72485v21.754l0.71578-0.72485" fill="#a09a9a" stroke-width=".11578"/>
     <path d="m127.06 264.79v-21.754l-0.71603 0.72485v20.304l0.71603 0.72485" fill="#a09a9a" stroke-width=".11578"/>
     <path d="m127.06 264.79v-21.754l-0.71643 0.72523v20.304l0.71643 0.72472z" fill="none" stroke-linecap="round" stroke-miterlimit="4.4615" stroke-width=".10782"/>
    </g>
    <g>
     <path d="m127.06 264.79-0.71603-0.72485h-1.4333l-0.71578 0.72485h2.8651" fill="#a09a9a" stroke="#000" stroke-linecap="round" stroke-linejoin="round" stroke-width=".11578"/>
     <path d="m127.06 243.04-0.71603 0.72485h-1.4333l-0.71578-0.72485h2.8651" fill="#a09a9a" stroke="#000" stroke-linejoin="round" stroke-width=".11578"/>
     <path d="m126.31 264.05v-20.293h-1.3976v20.293z" fill="#505050"/>
    </g>
   </g>
  </g>
  <g transform="translate(.66556 -.23471)" fill="#008000" fill-rule="evenodd" stroke="#165016" stroke-linejoin="round" stroke-width=".34814">
   <ellipse cx="90.491" cy="365.59" rx=".46833" ry=".46833"/>
   <ellipse cx="93.254" cy="365.59" rx=".46833" ry=".46833"/>
  </g>
  <g transform="translate(29.312 -.23471)" fill="#008000" fill-rule="evenodd" stroke="#165016" stroke-linejoin="round" stroke-width=".34814">
   <ellipse cx="90.491" cy="365.59" rx=".46833" ry=".46833"/>
   <ellipse cx="93.254" cy="365.59" rx=".46833" ry=".46833"/>
  </g>
  <g transform="translate(58.05 -.23471)" fill="#008000" fill-rule="evenodd" stroke="#165016" stroke-linejoin="round" stroke-width=".34814">
   <ellipse cx="90.491" cy="365.59" rx=".46833" ry=".46833"/>
   <ellipse cx="93.254" cy="365.59" rx=".46833" ry=".46833"/>
  </g>
  <g transform="translate(86.788 -.23471)" fill="#008000" fill-rule="evenodd" stroke="#165016" stroke-linejoin="round" stroke-width=".34814">
   <ellipse cx="90.491" cy="365.59" rx=".46833" ry=".46833"/>
   <ellipse cx="93.254" cy="365.59" rx=".46833" ry=".46833"/>
  </g>
  <g transform="translate(114.54 -.23471)" fill="#008000" fill-rule="evenodd" stroke="#165016" stroke-linejoin="round" stroke-width=".34814">
   <ellipse cx="90.491" cy="365.59" rx=".46833" ry=".46833"/>
   <ellipse cx="93.254" cy="365.59" rx=".46833" ry=".46833"/>
  </g>
  <g transform="translate(122.77 -.23471)" fill="#008000" fill-rule="evenodd" stroke="#165016" stroke-linejoin="round" stroke-width=".34814">
   <ellipse cx="90.491" cy="365.59" rx=".46833" ry=".46833"/>
   <ellipse cx="93.254" cy="365.59" rx=".46833" ry=".46833"/>
  </g>
 </g>
</svg>
