<svg width="305" height="44" version="1.1" viewBox="37.333333 394.66667 305 44" xmlns="http://www.w3.org/2000/svg" xmlns:xlink="http://www.w3.org/1999/xlink"><rect x="37.333" y="394.59" width="305" height="44" fill="#5d6a6f" stroke-width="1.7208"/><rect x="87.775" y="406.27" width="137.47" height="30" fill="#555f61" stroke="#687477" stroke-linecap="round" stroke-linejoin="round" stroke-width=".25"/><rect x="285" y="400.79" width="35.647" height="10.106" fill="#3c584c" stroke="#7f7f7f" stroke-width=".249"/><ellipse cx="330.43" cy="409.95" rx="2.0509" ry="2.0016" stroke-width="1.9657"/><ellipse cx="330.43" cy="409.95" rx="2.0509" ry="2.0016" fill="none" stroke="#e5e5e5" stroke-width="1.9657"/><path d="m242.05 396.66h3.7244l-2.2214 6.0698h-0.75624l1.9851-5.4281h-2.732z" fill="#fff" stroke-width="1.8781"/><ellipse cx="330.43" cy="401.11" rx="2.0509" ry="2.0016" stroke-width="1.9657"/><ellipse cx="330.43" cy="401.11" rx="2.0509" ry="2.0016" fill="none" stroke="#e5e5e5" stroke-width="1.9657"/><g fill="#008000" fill-rule="evenodd" stroke="#165016" stroke-linejoin="round" stroke-width=".65386"><ellipse cx="278.22" cy="403.72" rx=".88103" ry=".87813"/><ellipse cx="278.22" cy="399.28" rx=".88103" ry=".87813"/><ellipse cx="278.22" cy="408.48" rx=".88103" ry=".87813"/></g><g transform="translate(-12.525)" fill="#fff" stroke-width=".62983"><path d="m284.68 398.67h0.153l0.23323 0.78214 0.30413-0.78214 0.30973 0.78214 0.23323-0.78214h0.153l-0.35825 1.2203-0.33398-0.86942-0.33398 0.86942z"/><path d="m286.17 398.65h0.72208v0.12494h-0.57842v0.30635h0.57842v0.12494h-0.57842v0.52028h0.59334v0.12151h-0.737z"/><path d="m282.8 403.12h0.93106v0.12494h-0.3937v1.0731h-0.1418v-1.0731h-0.39556z"/><path d="m284.29 403.44-0.18658 0.44498h0.37504zm0-0.33887 0.52617 1.2169h-0.153l-0.12687-0.30979h-0.48699l-0.12875 0.30979h-0.15299z"/><path d="m284.86 403.12h0.93105v0.12494h-0.39369v1.0731h-0.14181v-1.0731h-0.39555z"/><path d="m283.34 407.89h0.72207v0.12494h-0.57841v0.30635h0.57841v0.12494h-0.57841v0.52029h0.59334v0.1215h-0.737z"/><path d="m284.2 407.89h0.72208v0.12494h-0.5784v0.30635h0.5784v0.12494h-0.5784v0.52029h0.59334v0.1215h-0.73702z"/><path d="m285.92 407.89h0.72208v0.12494h-0.57841v0.30635h0.57841v0.12494h-0.57841v0.52029h0.59334v0.1215h-0.73701z"/></g><g transform="translate(-12.728)" fill="#fff" stroke-width="1.0924"><path d="m347.6 401.77 0.39796-1.3448 0.36908 0.9608 0.36908-0.9608 0.39591 1.3448h-0.16909l-0.25774-0.87002-0.34228 0.87002-0.3361-0.87002-0.25774 0.87002z"/><path d="m349.25 400.45h0.79797v0.13806h-0.6392v0.33856h0.6392v0.13807h-0.6392v0.57496h0.6557v0.13428h-0.81447z"/><path d="m350.25 400.43 0.80004 0.94756v-0.92676h0.15671v1.3448l-0.80004-0.93999v0.91919h-0.15671z"/><path d="m347.6 409.3h0.79797v0.13807h-0.63921v0.33855h0.63921v0.13807h-0.63921v0.57497h0.6557v0.13428h-0.81446z"/><path d="m348.6 409.28 0.80003 0.94756v-0.92676h0.15671v1.3448l-0.80004-0.94v0.9192h-0.1567z"/><path d="m349.73 409.3h1.0289v0.13807h-0.43507v1.1858h-0.15671v-1.1858h-0.43713z"/><path d="m350.87 409.3h0.79797v0.13807h-0.6392v0.33855h0.6392v0.13807h-0.6392v0.57497h0.6557v0.13428h-0.81447z"/></g><rect x="124.12" y="406.9" width="30.195" height="26.879" rx=".31677" ry=".1396" fill="#3a3a3a" stroke="#000" stroke-width=".4"/><path d="m139.79 410.09h3.2604v-1.408h-3.2604z" fill="#008000" stroke-width="1.8788"/><path d="m149.66 410.1h3.2605v-1.408h-3.2605z" fill="#008000" stroke-width="1.8724"/><path d="m152.67 430.27h-3.3013l6e-3 2.0028-1.2014 1e-3v0.74994h-3.8723l9.1e-4 -0.7519h-1.2505v-2.003l-7.7111-7.4e-4 6e-3 2.0028-1.2014 1e-3v0.74994h-3.8723l9e-4 -0.7519h-1.2505v-2.003l-3.8951 0.0216 3e-3 -19.646 3.8877-0.027-6e-3 -2.0028 1.2014-1e-3v-0.74994h3.8723l-9.1e-4 0.7519h1.2505v2.003l7.7111 7.5e-4 -6e-3 -2.0028 1.2014-1e-3v-0.74994h3.8723l-9e-4 0.7519h1.2505v2.003h3.286z" fill="#1a1a1a" stroke-width="1.8724"/><g fill="#008000" stroke-width="1.8724"><path d="m143.05 430.81h-3.2605v1.408h3.2605z"/><path d="m152.97 430.81h-3.2892v1.4153h3.2892z"/><path d="m135.63 410.09h3.2605v-1.408h-3.2605z"/><path d="m125.43 410.09h3.2892v-1.4153h-3.2892z"/><path d="m128.72 430.81h-3.2605v1.408h3.2605z"/><path d="m138.94 430.81h-3.2892v1.4153h3.2892z"/></g><path d="m124.37 433.59h5.0999v-1.2627h-3.7482l-1e-3 -10.619 12.83-8e-3 2e-3 10.627h-3.8038v1.2627h8.8663v-1.2627h-3.8291l2e-3 -10.673 12.908-0.0295v10.703h-3.8018v1.2627l5.2577-2e-3 -4e-3 -26.277-5.2831-2e-3v1.2646h3.8272v10.619l-12.908 6e-3v-10.627h3.8018v-1.2627h-8.8663v1.2627h3.8291l-2e-3 10.619h-12.826l-1e-3 -10.621 3.7228 2e-3v-1.2646h-5.0762z" fill="#ebebeb" stroke-width=".99782"/><g fill="#fff"><g stroke-width="1.6451"><path d="m96.722 433.98v1.9938h-0.2484v-1.7688h-0.30739l0.10869-0.22502z"/><path d="m109.47 435.57c0.0176 0.10152 0.12757 0.26775 0.39745 0.26775s0.42228-0.15978 0.42228-0.41303c0-0.25326-0.16127-0.41018-0.40367-0.41018v-0.19367c0.27425 0 0.36328-0.18744 0.36328-0.33602s-0.0903-0.35596-0.38193-0.35596c-0.29159 0-0.34466 0.19842-0.36018 0.25633h-0.2484c0.0468-0.40235 0.44064-0.43865 0.60859-0.43865 0.35664 0 0.60549 0.17246 0.60549 0.51266s-0.27868 0.42412-0.35707 0.45285c0.14925 0.0395 0.40365 0.15621 0.40365 0.51268 0 0.35646-0.21798 0.58097-0.65205 0.58097s-0.61079-0.19233-0.64895-0.43577z"/><path d="m96.873 404.07c0-0.56963-0.14386-0.85445-0.43159-0.85445-0.28774 0-0.4316 0.28482-0.4316 0.85445 0 0.56964 0.14386 0.85447 0.4316 0.85447 0.28773 0 0.43159-0.28483 0.43159-0.85447zm-0.43159-1.0367c0.5 0 0.66137 0.47906 0.66137 1.0367 0 0.55769-0.17185 1.0225-0.66137 1.0225-0.48953 0-0.65515-0.45544-0.65515-1.0225 0-0.56702 0.15514-1.0367 0.65515-1.0367z"/><path d="m109.55 404.88h0.9191v0.20507h-1.2017v-0.20507l0.73279-0.77756c0.4868-0.54364 0.0876-0.86478-0.18009-0.85451-0.28021 0-0.34157 0.1993-0.34157 0.24491h-0.22048c0-0.31025 0.37972-0.43577 0.55579-0.43577 0.81214 3e-3 0.71961 0.82613 0.42228 1.0987z"/><path d="m166.94 403.7-0.4906 0.74053h0.4906zm0.23909-0.64654v1.3871h0.27945v0.20791h-0.27945v0.43293h-0.23909v-0.43293h-0.86942v-0.0569l1.062-1.538z"/><path d="m179.57 433.98h1.2234l-0.72969 1.9938h-0.2484l0.65205-1.7829h-0.89739z"/><path d="m166.53 433.96h0.85389l-0.0497 0.20222h-0.66137l-0.16457 0.50982c0.5341-0.11203 0.86942 0.19976 0.86942 0.65226 0 0.72089-0.8466 0.83848-1.2265 0.44147l0.1242-0.15951c0.2778 0.35628 0.87563 0.21428 0.87563-0.28196 0-0.50939-0.56219-0.57303-0.92533-0.37591z"/><path d="m180.89 404.41c0 0.27796-0.2199 0.66649-0.69864 0.66649-0.47873 0-0.70174-0.37452-0.70174-0.66364 0-0.16899 0.0445-0.31045 0.13351-0.42438l0.78868-0.97412 0.18009 0.0998-0.53718 0.65507c0.32267-0.13049 0.83528 0.15347 0.83528 0.64079zm-0.69513-0.48989c-0.24313 0-0.45643 0.20977-0.45643 0.49269 0 0.28291 0.23302 0.48132 0.45644 0.48132 0.22343 0 0.45956-0.1904 0.45956-0.48132s-0.21644-0.49269-0.45957-0.49269z"/></g><path d="m249.89 399.81c0-1.7342-0.43799-2.6013-1.3139-2.6013-0.87596 0-1.3139 0.86708-1.3139 2.6013s0.43797 2.6013 1.3139 2.6013c0.87594 0 1.3139-0.86711 1.3139-2.6013zm-1.3139-3.1562c1.5222 0 2.0135 1.4584 2.0135 3.1562s-0.52317 3.1129-2.0135 3.1129c-1.4903 0-1.9945-1.3866-1.9945-3.1129s0.47234-3.1562 1.9945-3.1562z" stroke-width="5.0081"/><path d="m260.2 399.81c0-1.7342-0.43799-2.6013-1.3139-2.6013-0.87596 0-1.3139 0.86708-1.3139 2.6013s0.43797 2.6013 1.3139 2.6013c0.87594 0 1.3139-0.86711 1.3139-2.6013zm-1.3139-3.1562c1.5222 0 2.0135 1.4584 2.0135 3.1562s-0.52317 3.1129-2.0135 3.1129c-1.4903 0-1.9945-1.3866-1.9945-3.1129s0.47234-3.1562 1.9945-3.1562z" stroke-width="5.0081"/><path d="m339.06 409.3h0.37687c0.37918 0 0.41029 0.24864 0.41029 0.37258s-0.0487 0.29704-0.27422 0.35746l0.32786 0.59388h-0.17115l-0.32166-0.5674h-0.1897v0.5674h-0.15877zm0.15878 0.1305v0.49364h0.21238c0.1479 0 0.26604-0.0611 0.26604-0.25154 0-0.19042-0.13557-0.2421-0.26599-0.2421z" stroke-width="1.0924"/><path d="m338.75 400.47h0.15877v0.81139c0 0.36925 0.15333 0.41988 0.32786 0.41988s0.32996-0.0576 0.32996-0.41988v-0.81139h0.15258v0.83408c0 0.34171-0.16083 0.51256-0.48249 0.51256-0.32441 0-0.48662-0.17085-0.48662-0.51256z" stroke-width="1.0924"/><g stroke-width=".62983"><path d="m271.4 398.77c-0.33991 0-0.47579 0.27873-0.47579 0.51002s0.12109 0.5083 0.47579 0.5083 0.47393-0.27795 0.47393-0.5083-0.13402-0.51002-0.47393-0.51002zm0-0.11296c0.36972 0 0.60826 0.23493 0.60826 0.62298s-0.23784 0.61441-0.60826 0.61441-0.61013-0.23516-0.61013-0.61441 0.24041-0.62298 0.61013-0.62298z"/><path d="m270.1 408.01v0.45183h0.19218c0.18337 0 0.25751-0.0956 0.25751-0.22594 0-0.13036-0.0858-0.22248-0.25748-0.22591zm-0.14368-0.11809h0.33586c0.26743 0 0.40115 0.10924 0.40115 0.344s-0.14205 0.34056-0.40115 0.34056h-0.19218v0.51343h-0.14368z"/><path d="m272.52 407.89h0.34102c0.28238 0 0.37132 0.16563 0.37132 0.33714s-0.1092 0.28623-0.24819 0.32347l0.29666 0.53739h-0.15486l-0.29107-0.51343h-0.17165v0.51343h-0.14368zm0.14367 0.11809v0.44669h0.19218c0.1824 0 0.24072-0.0915 0.24072-0.22764s-0.0802-0.21564-0.2407-0.21906z"/><path d="m274.42 408v0.97035h0.19777c0.3306 0 0.47579-0.13696 0.47579-0.48605s-0.18141-0.48434-0.47579-0.48434zm-0.14368-0.11809h0.31906c0.51109 0 0.64372 0.24916 0.64372 0.60243s-0.13847 0.60072-0.64372 0.60072h-0.31906z"/><path d="m270.14 403.26-0.0896 0.0958c-0.0771-0.0856-0.1586-0.12836-0.24443-0.12836-0.1468 0-0.26309 0.0479-0.26309 0.21564 0 0.16778 0.15588 0.17135 0.21646 0.19509l0.0951 0.0206c0.20771 0.0539 0.32843 0.13699 0.32843 0.34913s-0.14403 0.3519-0.43661 0.34402c-0.21067-9e-3 -0.25668-0.0656-0.36383-0.1301l0.0933-0.10611c0.0821 0.0753 0.17228 0.1158 0.27055 0.12151 0.19529 0 0.29294-0.0534 0.29294-0.21564 0-0.1622-0.0953-0.19167-0.22756-0.22589l-0.097-0.0206c-0.15105-0.0478-0.30977-0.0983-0.30977-0.32346 0-0.22511 0.16221-0.33711 0.38241-0.33711s0.3527 0.14548 0.3527 0.14548z"/><path d="m275.2 403.26-0.0896 0.0958c-0.0771-0.0856-0.1586-0.12836-0.24443-0.12836-0.1468 0-0.26309 0.0479-0.26309 0.21564 0 0.16778 0.15588 0.17135 0.21646 0.19509l0.0951 0.0206c0.20771 0.0539 0.32843 0.13699 0.32843 0.34913s-0.14403 0.3519-0.43661 0.34402c-0.21067-9e-3 -0.25668-0.0656-0.36383-0.1301l0.0933-0.10611c0.0821 0.0753 0.17228 0.1158 0.27055 0.12151 0.19529 0 0.29294-0.0534 0.29294-0.21564 0-0.1622-0.0953-0.19167-0.22756-0.22589l-0.097-0.0206c-0.15105-0.0478-0.30977-0.0983-0.30977-0.32346 0-0.22511 0.16221-0.33711 0.38241-0.33711s0.3527 0.14548 0.3527 0.14548z"/><path d="m270.06 398.78v0.45183h0.19218c0.18337 0 0.25751-0.0956 0.25751-0.22594 0-0.13036-0.0858-0.22248-0.25748-0.22591zm-0.14368-0.11809h0.33586c0.26743 0 0.40115 0.10924 0.40115 0.344s-0.14205 0.34056-0.40115 0.34056h-0.19218v0.51343h-0.14368z"/><path d="m273.38 403.13h0.14367v0.73422c0 0.2933 0.10306 0.3799 0.29674 0.3799s0.29853-0.10639 0.29853-0.3799v-0.73422h0.13807v0.75476c0 0.30921-0.14553 0.46381-0.4366 0.46381-0.29356 0-0.44034-0.1546-0.44034-0.46381z"/><path d="m274.48 398.65h0.34102c0.28238 0 0.37132 0.16563 0.37132 0.33714s-0.1092 0.28623-0.24819 0.32347l0.29666 0.53739h-0.15486l-0.29107-0.51343h-0.17165v0.51343h-0.14368zm0.14367 0.11809v0.44669h0.19218c0.1824 0 0.24072-0.0915 0.24072-0.22764s-0.0802-0.21564-0.2407-0.21906z"/></g></g><path class="st1" d="m51.876 401.22c0 1.1237-0.89758 2.0367-1.9916 2.0367-1.0939 0-1.9916-0.91302-1.9916-2.0367v-1.7277s0.95369 0.23879 0.95369 1.2501v0.47756c0 0.61801 0.46281 1.1096 1.0378 1.1096 0.57502 0 1.0378-0.49161 1.0378-1.1096v-0.98348c0.04211-0.84276 0.77203-1.1096 0.95436-1.208zm-4.3757-0.81468c-0.19634-0.16848-0.46281-0.26688-0.74331-0.26688-0.63111 0-1.136 0.49162-1.136 1.1096v2.0085h-0.95369v-3.6802s0.39271 0.0136 0.64512 0.19675c0.36463-0.36522 0.88356-0.5759 1.4446-0.5759 0.2665 0 0.51892 0.0421 0.74331 0.14042zm-6.4655 0.81456c0-0.61801 0.5189-1.1237 1.15-1.1237s1.15 0.50567 1.15 1.1237-0.5189 1.1237-1.15 1.1237-1.15-0.50568-1.15-1.1237zm-0.92562 1.2e-4c0 1.1237 0.92565 2.0226 2.0756 2.0226 0.47684 0 0.91159-0.15445 1.2622-0.4214 0.21038 0.35115 0.81344 0.4214 0.81344 0.4214v-2.0226c0-1.1096-0.92565-2.0226-2.0756-2.0226-1.15 0-2.0756 0.91299-2.0756 2.0226zm17.518-1.2e-4c0-0.61801 0.5189-1.1237 1.15-1.1237 0.63111 0 1.15 0.50567 1.15 1.1237s-0.5189 1.1237-1.15 1.1237c-0.63113 0-1.15-0.50568-1.15-1.1237zm-0.9256 1.2e-4c0 1.1237 0.92562 2.0226 2.0756 2.0226 0.47684 0 0.91161-0.15445 1.2622-0.4214 0.21038 0.35115 0.81342 0.4214 0.81342 0.4214v-2.0226c0-1.1096-0.92562-2.0226-2.0756-2.0226-1.15 0-2.0756 0.91299-2.0756 2.0226zm-3.478-1.2e-4c0-0.61801 0.5189-1.1237 1.15-1.1237 0.63111 0 1.15 0.50567 1.15 1.1237 0.01515 0.61803-0.5049 1.1237-1.15 1.1237-0.63113 0-1.15-0.50568-1.15-1.1237zm0-2.0084c-0.04211-0.84276-0.74398-1.1096-0.92629-1.208v5.2532s0.61708-0.0703 0.85552-0.40734c0.35062 0.2388 0.77136 0.3933 1.2202 0.3933 1.15 0 2.0756-0.91299 2.0756-2.0226 0.01515-1.1096-0.92562-2.0226-2.0753-2.0226-0.42043 0-0.81311 0.12648-1.1497 0.33711z" fill="#f5831f" stroke-width="2.2968"/><rect x="88.397" y="406.91" width="28.606" height="26.867" rx=".3166" ry=".13953" stroke="#000" stroke-width=".4"/><rect x="88.753" y="407.08" width="27.9" height="26.514" fill="#ebebeb" stroke-width="1.8778"/><rect transform="rotate(-90)" x="-417.64" y="89.003" width="10.232" height="27.416" stroke-width="2.5778"/><rect transform="rotate(90)" x="423.24" y="-116.59" width="10.232" height="27.416" stroke-width="2.5778"/><g fill="#008000" fill-rule="evenodd" stroke="#008000" stroke-linecap="round" stroke-linejoin="round" stroke-width=".1851"><path d="m90.457 419.25h1.5708l-0.7854 2.381z"/><path d="m101.6 421.64h-1.5708l0.7854-2.381z"/><path d="m95.223 421.64h-1.5708l0.7854-2.381z"/><path d="m96.836 419.25h1.5708l-0.7854 2.381z"/><path d="m103.88 419.25h1.5708l-0.7854 2.381z"/><path d="m115.02 421.64h-1.5708l0.7854-2.381z"/><path d="m108.64 421.64h-1.5708l0.7854-2.381z"/><path d="m110.26 419.25h1.5708l-0.7854 2.381z"/></g><rect x="194.41" y="406.9" width="30.195" height="26.879" rx=".31677" ry=".1396" fill="#3a3a3a" stroke="#000" stroke-width=".4"/><path d="m210.08 410.09h3.2604v-1.408h-3.2604z" fill="#008000" stroke-width="1.8788"/><path d="m219.95 410.1h3.2605v-1.408h-3.2605z" fill="#008000" stroke-width="1.8724"/><path d="m222.96 430.27h-3.3013l6e-3 2.0028-1.2014 1e-3v0.74994h-3.8723l9.1e-4 -0.7519h-1.2505v-2.003l-7.7111-7.4e-4 6e-3 2.0028-1.2014 1e-3v0.74994h-3.8723l9e-4 -0.7519h-1.2505v-2.003l-3.8951 0.0216 3e-3 -19.646 3.8877-0.027-6e-3 -2.0028 1.2014-1e-3v-0.74994h3.8723l-9.1e-4 0.7519h1.2505v2.003l7.7111 7.5e-4 -6e-3 -2.0028 1.2014-1e-3v-0.74994h3.8723l-9e-4 0.7519h1.2505v2.003h3.286z" fill="#1a1a1a" stroke-width="1.8724"/><g fill="#008000" stroke-width="1.8724"><path d="m213.34 430.81h-3.2605v1.408h3.2605z"/><path d="m223.26 430.81h-3.2892v1.4153h3.2892z"/><path d="m205.92 410.09h3.2605v-1.408h-3.2605z"/><path d="m195.72 410.09h3.2892v-1.4153h-3.2892z"/><path d="m199.01 430.81h-3.2605v1.408h3.2605z"/><path d="m209.23 430.81h-3.2892v1.4153h3.2892z"/></g><path d="m194.66 433.59h5.0999v-1.2627h-3.7482l-1e-3 -10.619 12.83-8e-3 2e-3 10.627h-3.8038v1.2627h8.8663v-1.2627h-3.8291l2e-3 -10.673 12.908-0.0295v10.703h-3.8018v1.2627l5.2577-2e-3 -4e-3 -26.277-5.2831-2e-3v1.2646h3.8272v10.619l-12.908 6e-3v-10.627h3.8018v-1.2627h-8.8663v1.2627h3.8291l-2e-3 10.619h-12.826l-1e-3 -10.621 3.7228 2e-3v-1.2646h-5.0762z" fill="#ebebeb" stroke-width=".99782"/><rect x="159.12" y="406.91" width="28.606" height="26.867" rx=".3166" ry=".13953" stroke="#000" stroke-width=".4"/><rect x="159.48" y="407.08" width="27.9" height="26.514" fill="#ebebeb" stroke-width="1.8778"/><rect transform="rotate(-90)" x="-417.64" y="159.73" width="10.232" height="27.416" stroke-width="2.5778"/><rect transform="rotate(90)" x="423.26" y="-187.32" width="10.232" height="27.416" stroke-width="2.5778"/><g fill="#008000" fill-rule="evenodd" stroke="#008000" stroke-linecap="round" stroke-linejoin="round" stroke-width=".1851"><path d="m161.19 419.26h1.5708l-0.7854 2.381z"/><path d="m172.33 421.64h-1.5708l0.7854-2.381z"/><path d="m165.95 421.64h-1.5708l0.7854-2.381z"/><path d="m167.57 419.26h1.5708l-0.7854 2.381z"/><path d="m174.61 419.26h1.5708l-0.7854 2.381z"/><path d="m185.75 421.64h-1.5708l0.7854-2.381z"/><path d="m179.37 421.64h-1.5708l0.7854-2.381z"/><path d="m180.99 419.26h1.5708l-0.7854 2.381z"/></g><rect x="38.408" y="415.81" width="49.015" height="20.462" fill="#555f61" stroke="#687477" stroke-linecap="round" stroke-linejoin="round" stroke-width=".25"/><rect x="225.55" y="415.79" width="115.51" height="20.475" fill="#555f61" stroke="#687477" stroke-width=".25"/><path d="m298.63 436.51h0.22217v2.0112h-0.22217z" fill="#fff" stroke-width="1.5488"/><path d="m278.1 433.18h15.839v-13.196h-15.839z" stroke="#000" stroke-width=".282"/><path d="m283.36 419.98-5.2654 2e-3 4e-3 13.201 15.827 2e-3 4e-3 -13.203-5.2902-2e-3v1.2699l0.83335-3e-3v1.6439l2.9992 0.0131-1e-3 9.0859-12.918 0.024-9.1e-4 -9.1099 2.977-0.0131v-1.6439l0.83077 3e-3" fill="#ebebeb" stroke-width="1.8821"/><path d="m301.7 437.84h7.8286" fill="none" stroke="#fff" stroke-width=".20243"/><path d="m282.16 437.84h7.8286" fill="none" stroke="#fff" stroke-width=".20243"/><g fill="#fff" stroke-width="1.5488"><path d="m292.72 436.77-0.11696 0.1474c-0.15575-0.0801-0.2192-0.13938-0.43849-0.13938s-0.66359 0.0906-0.66359 0.80175 0.4232 0.79104 0.66359 0.79104c0.2404 0 0.3262-0.0751 0.42388-0.12869l0.12862 0.13939c-0.14886 0.0783-0.27442 0.16089-0.56711 0.16089s-0.87702-0.14856-0.87702-0.9627c0-0.81413 0.55138-0.97869 0.87702-0.97869s0.45314 0.1058 0.57006 0.16899z"/><path d="m293.57 437.31c0.37691 0 0.6548 0.28958 0.6548 0.63282s-0.26863 0.62477-0.6548 0.62477c-0.38618 0-0.66359-0.26596-0.66359-0.62209s0.28667-0.6355 0.66359-0.6355zm3e-3 0.1716c-0.25733 0-0.43266 0.2249-0.43266 0.46383 0 0.23894 0.17468 0.45315 0.43266 0.45315 0.25797 0 0.42974-0.24019 0.42974-0.45315 0-0.21295-0.17241-0.46383-0.42974-0.46383z"/><path d="m295.61 438.51h-0.22216v-0.71594c0-0.22346-0.0994-0.33698-0.29818-0.34055-0.30497 0-0.38302 0.23363-0.38302 0.38082v0.67572h-0.22217v-1.2013h0.22217v0.19039c0.10519-0.1448 0.24941-0.2172 0.43265-0.2172 0.40249 0 0.47067 0.30334 0.47067 0.5041z"/></g><path d="m310.39 430.66c0.70186-0.0236 0.78941 0.26721 0.77661 0.51731v1.1256c-0.0295 0.28237-1.1027 0.84802-1.9611 0.80785h-4.3543c-0.27727 0.0498-1.7729-0.57271-1.8085-0.83623v-1.1257c-0.0332-0.31756 0.46853-0.49593 0.75309-0.48887z" fill="#1d1d1d" stroke="#ececec" stroke-width=".41499"/><path d="m305.1 431.36c-0.17498-4e-3 -0.45349 0.0623-0.4329 0.23988v0.59088c0 0.29378 0.58522 0.45885 1.1067 0.45885h2.5015c0.52701 0.0226 1.219-0.26897 1.236-0.42694v-0.60738c8e-3 -0.13995-2e-3 -0.26943-0.4329-0.25639z" fill="#404040" stroke-width=".75168"/><g fill="#070707" stroke-width="1.4153"><path d="m305.2 432.14h0.35578v-0.44198h-0.35578z"/><path d="m306.05 432.14h0.35575v-0.44198h-0.35575z"/><path d="m306.94 432.14h0.355v-0.44198h-0.355z"/><path d="m307.85 432.14h0.35501v-0.44198h-0.35501z"/><path d="m308.72 432.14h0.35572v-0.44198h-0.35572z"/></g><g fill="#fff" stroke-width="1.5488"><path d="m296.73 437.44-0.12571 0.13137s-0.0944-0.11799-0.28063-0.11799c-0.18618 0-0.25722 0.10783-0.25722 0.19568 0 0.0879 0.10587 0.15282 0.30111 0.19037 0.27284 0.0644 0.40926 0.17401 0.40926 0.34056 0 0.16656-0.08 0.3625-0.50867 0.3625-0.25354 0-0.38367-0.12094-0.45309-0.19036l0.16086-0.126c0.078 0.0984 0.17737 0.14755 0.29816 0.14755 0.0689 0 0.27773 0.0106 0.27773-0.15025 0-0.16091-0.10593-0.17054-0.26895-0.21177-0.0466-0.0216-0.41186-0.0637-0.4181-0.35392-7e-3 -0.29015 0.28604-0.37276 0.46772-0.37276s0.35215 0.1038 0.39753 0.15502z"/><path d="m297.67 437.31c0.37692 0 0.65481 0.28958 0.65481 0.63282s-0.26863 0.62477-0.65481 0.62477c-0.38617 0-0.66358-0.26596-0.66358-0.62209s0.28667-0.6355 0.66358-0.6355zm3e-3 0.1716c-0.25733 0-0.43265 0.2249-0.43265 0.46383 0 0.23894 0.17468 0.45315 0.43265 0.45315 0.25798 0 0.42974-0.24019 0.42974-0.45315 0-0.21295-0.17241-0.46383-0.42974-0.46383z"/><path d="m300.21 438.22 0.13737 0.11264c-0.0396 0.0546-0.18017 0.22256-0.5525 0.22256-0.37232 0-0.65774-0.27403-0.65774-0.6221s0.27826-0.63552 0.64609-0.63552c0.36784 0 0.59129 0.24229 0.60768 0.5658v0.073h-1.026c0 0.28069 0.23147 0.45046 0.43004 0.45046 0.19856 0 0.31145-0.0554 0.41473-0.16626zm-0.82144-0.45317h0.7776c-0.0153-0.16213-0.16775-0.29764-0.38294-0.29764s-0.35475 0.18025-0.39466 0.29764z"/></g><g transform="rotate(90 248.2 422.83)"><path d="m244.13 413.93h14.512v-4.9578h-14.512z" stroke="#535353" stroke-width=".091"/><rect x="245.01" y="409.75" width="12.825" height="1.6959" fill="#a09a9a" opacity=".99"/><path d="m245.43 411.03h11.973v-0.84795h-11.973z" fill="#505050" stroke="#808080" stroke-linecap="round" stroke-linejoin="round" stroke-miterlimit="4.4615" stroke-width=".063698"/></g><g fill="#fff" stroke-width="1.6451"><path d="m132.79 433.98v1.9938h-0.2484v-1.7688h-0.30739l0.10869-0.22502z"/><path d="m145.53 435.57c0.0176 0.10152 0.12757 0.26775 0.39745 0.26775s0.42228-0.15978 0.42228-0.41303c0-0.25326-0.16127-0.41018-0.40367-0.41018v-0.19367c0.27425 0 0.36328-0.18744 0.36328-0.33602s-0.0903-0.35596-0.38193-0.35596c-0.29159 0-0.34466 0.19842-0.36018 0.25633h-0.2484c0.0468-0.40235 0.44064-0.43865 0.60859-0.43865 0.35664 0 0.60549 0.17246 0.60549 0.51266s-0.27868 0.42412-0.35707 0.45285c0.14925 0.0395 0.40365 0.15621 0.40365 0.51268 0 0.35646-0.21798 0.58097-0.65205 0.58097s-0.61079-0.19233-0.64895-0.43577z"/><path d="m132.94 404.07c0-0.56963-0.14386-0.85445-0.43159-0.85445-0.28774 0-0.4316 0.28482-0.4316 0.85445 0 0.56964 0.14386 0.85447 0.4316 0.85447 0.28773 0 0.43159-0.28483 0.43159-0.85447zm-0.43159-1.0367c0.5 0 0.66137 0.47906 0.66137 1.0367 0 0.55769-0.17185 1.0225-0.66137 1.0225-0.48953 0-0.65515-0.45544-0.65515-1.0225 0-0.56702 0.15514-1.0367 0.65515-1.0367z"/><path d="m145.62 404.88h0.9191v0.20507h-1.2017v-0.20507l0.73279-0.77756c0.4868-0.54364 0.0876-0.86478-0.18009-0.85451-0.28021 0-0.34157 0.1993-0.34157 0.24491h-0.22048c0-0.31025 0.37972-0.43577 0.55579-0.43577 0.81214 3e-3 0.71961 0.82613 0.42228 1.0987z"/><path d="m202.97 403.7-0.4906 0.74053h0.4906zm0.23909-0.64654v1.3871h0.27945v0.20791h-0.27945v0.43293h-0.23909v-0.43293h-0.86942v-0.0569l1.062-1.538z"/><path d="m215.61 433.98h1.2234l-0.72969 1.9938h-0.2484l0.65205-1.7829h-0.89739z"/><path d="m202.56 433.96h0.85389l-0.0497 0.20222h-0.66137l-0.16457 0.50982c0.5341-0.11203 0.86942 0.19976 0.86942 0.65226 0 0.72089-0.8466 0.83848-1.2265 0.44147l0.1242-0.15951c0.27781 0.35628 0.87564 0.21428 0.87564-0.28196 0-0.50939-0.56219-0.57303-0.92534-0.37591z"/><path d="m216.92 404.41c0 0.27796-0.2199 0.66649-0.69864 0.66649-0.47873 0-0.70174-0.37452-0.70174-0.66364 0-0.16899 0.0445-0.31045 0.13351-0.42438l0.78868-0.97412 0.18009 0.0998-0.53718 0.65507c0.32267-0.13049 0.83528 0.15347 0.83528 0.64079zm-0.69513-0.48989c-0.24313 0-0.45643 0.20977-0.45643 0.49269 0 0.28291 0.23302 0.48132 0.45644 0.48132 0.22343 0 0.45956-0.1904 0.45956-0.48132s-0.21644-0.49269-0.45957-0.49269z"/></g><path d="m102.83 436.85v1.1875h36.562v-1.1875" fill="none" stroke="#fff" stroke-width=".4"/><path d="m173.36 436.85v1.1875h36.562v-1.1875" fill="none" stroke="#fff" stroke-width=".4"/><path d="m254.53 399.55c0.85241 0.17758 1.236 0.80728 1.236 1.4888 0 1.401-1.1318 1.858-2.3436 1.858-0.57012 0.0124-1.1151-0.15178-1.6012-0.29692v-0.78252c0.501 0.30942 1.1398 0.39722 1.5771 0.39722 1.0162-0.0136 1.561-0.41573 1.561-1.1758 0-0.90768-0.84122-1.1276-1.4045-1.1276h-0.69826v-0.66615h0.73036c0.83574 6.3e-4 1.232-0.34251 1.232-0.927 0-0.73698-0.64013-0.95508-1.2641-0.95508-0.55155-8e-3 -1.1226 0.15045-1.553 0.29702v-0.72237c0.54432-0.17806 1.295-0.25693 1.6253-0.25693 1.2152 0 1.9985 0.58769 1.9985 1.553 0 0.83606-0.56778 1.1718-1.0955 1.3163z" fill="#fff"/><g fill="none" stroke="#ebebeb" stroke-width=".25"><path d="m92.568 423.78h-3.0908v9.2725h13.394v-9.2725h-3.606v0.51514h-6.6968z"/><path d="m105.96 423.78h-3.0908v9.2725h13.394v-9.2725h-3.606v0.51514h-6.6968z"/><path d="m113.03 417.06h3.0908v-9.2725h-13.394v9.2725h3.606v-0.51514h6.6968z"/><path d="m99.638 417.06h3.0908v-9.2725h-13.394v9.2725h3.606v-0.51514h6.6968z"/><path d="m163.29 423.78h-3.0908v9.2725h13.394v-9.2725h-3.606v0.51514h-6.6968z"/><path d="m176.68 423.78h-3.0908v9.2725h13.394v-9.2725h-3.606v0.51514h-6.6968z"/><path d="m183.75 417.06h3.0908v-9.2725h-13.394v9.2725h3.606v-0.51514h6.6968z"/><path d="m170.36 417.06h3.0908v-9.2725h-13.394v9.2725h3.606v-0.51514h6.6968z"/></g><g fill="#5d6a6f" stroke="#687477" stroke-linecap="round" stroke-linejoin="round" stroke-width=".30674"><rect x="43.009" y="415.84" width=".99326" height="20.405" rx="0" ry="0"/><rect x="86.754" y="415.84" width=".99326" height="20.405" rx="0" ry="0"/><rect x="48.239" y="415.84" width=".99326" height="20.405" rx="0" ry="0"/><rect x="54.514" y="415.84" width=".99326" height="20.405" rx="0" ry="0"/><rect x="59.729" y="415.84" width=".99326" height="20.405" rx="0" ry="0"/><rect x="65.121" y="415.84" width=".99326" height="20.405" rx="0" ry="0"/><rect x="70.689" y="415.84" width=".99326" height="20.405" rx="0" ry="0"/><rect x="76.258" y="415.84" width=".99326" height="20.405" rx="0" ry="0"/><rect x="80.766" y="415.84" width=".99326" height="20.405" rx="0" ry="0"/><rect x="156.08" y="406.24" width=".99326" height="30" rx="0" ry="0"/><rect x="225.27" y="415.83" width=".99326" height="20.405" rx="0" ry="0"/><rect x="229.75" y="415.83" width=".99326" height="20.405" rx="0" ry="0"/><rect x="234.22" y="415.83" width=".99326" height="20.405" rx="0" ry="0"/><rect x="238.69" y="415.83" width=".99326" height="20.405" rx="0" ry="0"/><rect x="243.17" y="415.83" width=".99326" height="20.405" rx="0" ry="0"/><rect x="247.64" y="415.83" width=".99326" height="20.405" rx="0" ry="0"/><rect x="270.54" y="415.83" width=".99326" height="20.405" rx="0" ry="0"/><rect x="275.26" y="415.83" width=".99326" height="20.405" rx="0" ry="0"/><rect x="315.06" y="415.83" width=".99326" height="20.405" rx="0" ry="0"/><rect x="320.12" y="415.83" width=".99326" height="20.405" rx="0" ry="0"/><rect x="325.6" y="415.83" width=".99326" height="20.405" rx="0" ry="0"/><rect x="330.2" y="415.83" width=".99326" height="20.405" rx="0" ry="0"/><rect x="335.68" y="415.83" width=".99326" height="20.405" rx="0" ry="0"/></g></svg>
