<svg width="445" height="44.5" version="1.1" viewBox="37.333 394.67 445 44.5" xmlns="http://www.w3.org/2000/svg">
 <g transform="matrix(2.156 0 0 1.9867 -106.7 263.89)">
  <rect x="67.006" y="66.026" width="206" height="22" fill="#5d6a6f"/>
  <rect x="67.006" y="66.026" width="206" height="22" fill="none" stroke="#5d6a6f" stroke-width=".4"/>
 </g>
 <g transform="matrix(1.1109 0 0 1.1109 -43.67 -37.718)">
  <path d="m219.84 398.3c0 2.0739-1.6252 3.7577-3.626 3.7577s-3.6247-1.6839-3.6247-3.7577c0-2.0752 1.6238-3.759 3.6247-3.759 2.0008 0 3.626 1.6839 3.626 3.759z" fill="#666" stroke="#000" stroke-width=".092955"/>
  <path d="m218.91 398.3c0 1.5365-1.2078 2.7847-2.696 2.7847s-2.6947-1.2482-2.6947-2.7847 1.2065-2.7834 2.6947-2.7834 2.696 1.2469 2.696 2.7834z" fill="#fff" stroke="#000" stroke-width=".092955"/>
  <g transform="translate(-15.637,3.7357)" stroke-width=".1">
   <path d="m231.3 392.15v1.9609" fill="none" stroke="#999"/>
   <g shape-rendering="auto">
    <path d="m229.39 394.11v1h1.9219v1.9219h1" color="#000000" color-rendering="auto" fill="none" image-rendering="auto" solid-color="#000000" stroke="#999" style="isolation:auto;mix-blend-mode:normal;text-decoration-color:#000000;text-decoration-line:none;text-decoration-style:solid;text-indent:0;text-transform:none;white-space:normal"/>
    <path d="m231.4 392.1v1.9219h-1.9219v1h1.9219v1.9219h1v-1.9219h1.9219v-1h-1.9219v-1.9219z" color="#000000" color-rendering="auto" fill="#333" fill-rule="evenodd" image-rendering="auto" solid-color="#000000" stroke="#000" style="isolation:auto;mix-blend-mode:normal;text-decoration-color:#000000;text-decoration-line:none;text-decoration-style:solid;text-indent:0;text-transform:none;white-space:normal"/>
   </g>
  </g>
 </g>
 <g transform="matrix(.75332 0 0 .75332 -111.06 104.36)">
  <path d="m219.84 398.3c0 2.0739-1.6252 3.7577-3.626 3.7577s-3.6247-1.6839-3.6247-3.7577c0-2.0752 1.6238-3.759 3.6247-3.759 2.0008 0 3.626 1.6839 3.626 3.759z" fill="#666" stroke="#000" stroke-width=".092955"/>
  <path d="m218.91 398.3c0 1.5365-1.2078 2.7847-2.696 2.7847s-2.6947-1.2482-2.6947-2.7847 1.2065-2.7834 2.6947-2.7834 2.696 1.2469 2.696 2.7834z" fill="#fff" stroke="#000" stroke-width=".092955"/>
  <g transform="translate(-15.637,3.7357)" stroke-width=".1">
   <path d="m231.3 392.15v1.9609" fill="none" stroke="#999"/>
   <g shape-rendering="auto">
    <path d="m229.39 394.11v1h1.9219v1.9219h1" color="#000000" color-rendering="auto" fill="none" image-rendering="auto" solid-color="#000000" stroke="#999" style="isolation:auto;mix-blend-mode:normal;text-decoration-color:#000000;text-decoration-line:none;text-decoration-style:solid;text-indent:0;text-transform:none;white-space:normal"/>
    <path d="m231.4 392.1v1.9219h-1.9219v1h1.9219v1.9219h1v-1.9219h1.9219v-1h-1.9219v-1.9219z" color="#000000" color-rendering="auto" fill="#333" fill-rule="evenodd" image-rendering="auto" solid-color="#000000" stroke="#000" style="isolation:auto;mix-blend-mode:normal;text-decoration-color:#000000;text-decoration-line:none;text-decoration-style:solid;text-indent:0;text-transform:none;white-space:normal"/>
   </g>
  </g>
 </g>
 <g transform="matrix(2.1657 0 0 1.9866 -107.35 263.89)">
  <rect x="69.422" y="74.157" width="202.83" height="13.968" fill="#687174"/>
  <rect x="246.82" y="68.947" width="16.659" height="5.1486" fill="#3c584c"/>
  <rect x="246.82" y="68.947" width="16.659" height="5.1486" fill="none" stroke="#7f7f7f" stroke-width=".2"/>
 </g>
 <g transform="matrix(1.9903 0 0 1.941 -104.83 266.86)">
  <rect x="161.65" y="76.381" width="21.683" height="10.608" fill="#434b4d"/>
  <rect x="161.65" y="76.381" width="21.683" height="10.608" fill="none" stroke="#434b4d" stroke-width=".2"/>
  <rect x="161.84" y="76.563" width="21.408" height="10.426" rx=".6" ry=".6" fill="#687174" style="fill:#5d6a6f"/>
  <rect x="161.84" y="76.563" width="21.408" height="10.426" rx=".6" ry=".6" fill="none" stroke="#525a5d" stroke-linejoin="round" stroke-width=".2"/>
 </g>
 <g transform="matrix(1.9903 0 0 1.941 -50.4 266.86)">
  <rect x="161.65" y="76.381" width="21.683" height="10.608" fill="#434b4d"/>
  <rect x="161.65" y="76.381" width="21.683" height="10.608" fill="none" stroke="#434b4d" stroke-width=".2"/>
  <rect x="161.84" y="76.563" width="21.408" height="10.426" rx=".6" ry=".6" fill="#687174" style="fill:#5d6a6f"/>
  <rect x="161.84" y="76.563" width="21.408" height="10.426" rx=".6" ry=".6" fill="none" stroke="#525a5d" stroke-linejoin="round" stroke-width=".2"/>
 </g>
 <g transform="matrix(1.9903 0 0 1.941 72.072 266.86)">
  <rect x="161.65" y="76.381" width="5.8823" height="10.608" fill="#434b4d"/>
  <rect x="161.65" y="76.381" width="5.8823" height="10.608" fill="none" stroke="#434b4d" stroke-width=".2"/>
  <rect x="161.84" y="76.563" width="5.4012" height="10.426" rx=".6" ry=".6" fill="#687174" style="fill:#5d6a6f"/>
  <rect x="161.84" y="76.563" width="5.4012" height="10.426" rx=".6" ry=".6" fill="none" stroke="#525a5d" stroke-linejoin="round" stroke-width=".2"/>
 </g>
 <g transform="matrix(1.9903 0 0 1.941 4.0517 266.86)">
  <rect x="161.65" y="76.381" width="21.683" height="10.608" fill="#434b4d"/>
  <rect x="161.65" y="76.381" width="30.807" height="10.608" fill="none" stroke="#434b4d" stroke-width=".2"/>
  <rect x="161.84" y="76.563" width="30.541" height="10.426" rx=".6" ry=".6" fill="#687174" style="fill:#5d6a6f"/>
  <rect x="161.84" y="76.563" width="30.541" height="10.426" rx=".6" ry=".6" fill="none" stroke="#525a5d" stroke-linejoin="round" stroke-width=".2"/>
 </g>
 <g transform="matrix(2.1657 0 0 1.9866 -106.98 262.7)">
  <rect x="241.43" y="76.381" width="18.736" height="10.608" fill="#434b4d"/>
  <rect x="241.43" y="76.381" width="18.736" height="10.608" fill="none" stroke="#434b4d" stroke-width=".2"/>
  <rect x="241.61" y="76.563" width="18.608" height="10.426" rx=".6" ry=".6" fill="#687174" style="fill:#5d6a6f"/>
  <rect x="241.61" y="76.563" width="18.608" height="10.426" rx=".6" ry=".6" fill="none" stroke="#525a5d" stroke-linejoin="round" stroke-width=".2"/>
 </g>
 <g transform="matrix(1.9538 0 0 2.0261 -50.875 260.99)">
  <ellipse cx="267.67" cy="73.61" rx="1.0624" ry=".99993"/>
  <ellipse cx="267.67" cy="73.61" rx="1.0624" ry=".99993" fill="none" stroke="#e5e5e5"/>
 </g>
 <g transform="matrix(1.2007 0 0 1.1014 124.05 7.3577)" style="fill:#fff" aria-label="0">
  <path d="m94.956 390.49q0-0.90226-0.41804-0.90226t-0.41804 0.90226q0 0.90225 0.41804 0.90225t0.41804-0.90225zm-0.41804-1.0947q0.30677 0 0.47368 0.2797 0.16692 0.2797 0.16692 0.81504 0 0.53233-0.16541 0.80601-0.16541 0.27369-0.47519 0.27369-0.30977 0-0.47218-0.27218t-0.16241-0.80752 0.16241-0.81504 0.47218-0.2797z"/>
 </g>
 <g transform="matrix(1.2007 0 0 1.1014 146.66 7.4397)" style="fill:#fff" aria-label="1">
  <path d="m121.73 389.39v2.1053h-0.2406v-1.8677h-0.29775l0.10527-0.23759z"/>
 </g>
 <g transform="matrix(1.2007 0 0 1.1014 117.31 7.4384)" style="fill:#fff" aria-label="2">
  <path d="m181.28 391.28h0.89023v0.21654h-1.1639v-0.21654l0.70977-0.82105q0.22256-0.26466 0.22256-0.49324 0-0.17744-0.10978-0.29323-0.10977-0.11579-0.28721-0.11579h-6e-3q-0.13233 0-0.22556 0.0782-0.0932 0.0782-0.0993 0.18045h-0.21353q3e-3 -0.18647 0.16842-0.32331 0.16541-0.13684 0.36992-0.13684 0.2797 0 0.44963 0.1594 0.16992 0.1594 0.16992 0.43308v9e-3q0 0.30677-0.21053 0.5594z"/>
 </g>
 <g transform="matrix(1.2007 0 0 1.1014 75.977 6.1563)" style="fill:#fff" aria-label="3">
  <path d="m227.13 392.2h0.24361q0.0331 0.13534 0.13383 0.20902 0.10075 0.0737 0.25113 0.0737 0.18647 0 0.29774-0.11579 0.11128-0.11579 0.11128-0.3203 0-0.19549-0.10376-0.31429-0.10376-0.11879-0.28721-0.11879v-0.20452q0.15939 0 0.25563-0.0947 0.0962-0.0947 0.0962-0.26015 0-0.17745-0.0977-0.2767-0.0977-0.0992-0.27218-0.0992-0.14135 0-0.23308 0.0707-0.0917 0.0707-0.11579 0.2h-0.2406q0.0211-0.21654 0.17594-0.33985 0.15488-0.1233 0.41353-0.1233 0.26767 0 0.42707 0.14285 0.1594 0.14286 0.1594 0.3985 0 0.17744-0.0902 0.30225-0.0902 0.12482-0.25564 0.17594 0.18045 0.0481 0.28421 0.18797 0.10376 0.13985 0.10677 0.35339 0 0.29474-0.16391 0.45413-0.16391 0.1594-0.46767 0.1594-0.56241 0-0.62857-0.46015z"/>
 </g>
 <g transform="matrix(1.2007 0 0 1.1014 75.977 7.6012)" style="fill:#fff" aria-label="4">
  <path d="m239.7 389.89-0.47519 0.78196h0.47519zm0.23158-0.68271v1.4647h0.27068v0.21954h-0.27068v0.45715h-0.23158v-0.45715h-0.8421v-0.0602l1.0286-1.6241z"/>
 </g>
 <g transform="matrix(1.2007 0 0 1.1014 75.977 7.6534)" style="fill:#fff" aria-label="5">
  <path d="m250.88 389.16h0.82706l-0.0481 0.21353h-0.6406l-0.1594 0.53835q0.0842-0.0181 0.17143-0.0241 0.30376 0 0.48722 0.18947 0.18346 0.18948 0.18346 0.52331 0 0.33684-0.18496 0.5188-0.18497 0.18195-0.52181 0.18195-0.26466 0-0.4812-0.23458l0.1203-0.16842q0.16541 0.19849 0.35489 0.20751 0.22857 0 0.3609-0.13383 0.13233-0.13384 0.13233-0.37143 0-0.23459-0.13384-0.37143-0.13383-0.13684-0.35939-0.13684-0.18647 0-0.40301 0.11128z"/>
 </g>
 <g transform="matrix(1.1989 0 0 1.0998 160.75 8.4572)" style="fill:#fff" aria-label="Console">
  <path d="m228.29 389.57-0.0722 0.0992q-0.12631-0.0938-0.27067-0.0938-0.19489 0-0.30225 0.13894-0.10737 0.13895-0.10737 0.4006 0 0.25804 0.10376 0.39518 0.10375 0.13714 0.30586 0.13714 0.14436 0 0.26165-0.0866l0.0794 0.0938q-0.14978 0.10827-0.35007 0.10827-0.25083 0-0.39609-0.17233t-0.14526-0.47548q0-0.30496 0.14526-0.4818t0.39609-0.17684q0.19127 0 0.35187 0.11368z"/>
  <path d="m228.82 389.93q0.16782 0 0.28602 0.12361 0.11819 0.12361 0.11819 0.30225 0 0.17684-0.11819 0.29864-0.1182 0.12181-0.28602 0.12181-0.16962 0-0.28962-0.1209t-0.12-0.29774q0-0.17865 0.12-0.30316t0.28962-0.12451zm2e-3 0.11549q-0.11008 0-0.18857 0.0929-0.0785 0.0929-0.0785 0.21925 0 0.12631 0.0785 0.21563 0.0785 0.0893 0.18857 0.0893t0.18766-0.0893q0.0776-0.0893 0.0776-0.21563 0-0.12632-0.0785-0.21925-0.0785-0.0929-0.18676-0.0929z"/>
  <path d="m230.08 390.26v0.48722h-0.13714v-0.4818q0-0.22556-0.18406-0.22917-0.11008 0-0.17143 0.0677-0.0614 0.0677-0.065 0.18856v0.45474h-0.13714v-0.80842h0.13714v0.12812q0.0974-0.14616 0.26706-0.14616 0.14075 0 0.21564 0.0857 0.0749 0.0857 0.0749 0.25353z"/>
  <path d="m230.78 390.03-0.0776 0.0884q-0.0848-0.0794-0.17323-0.0794-0.0704 0-0.11459 0.0352-0.0442 0.0352-0.0442 0.0965 5e-3 0.0902 0.18586 0.12812 0.25263 0.065 0.25263 0.22917v4e-3q0 0.11549-0.0785 0.17774-0.0785 0.0623-0.23549 0.0623-0.0758 0-0.15338-0.0343-0.0776-0.0343-0.12631-0.0938l0.0992-0.0848q0.0722 0.0992 0.18406 0.0992 0.0938 0 0.13173-0.0208 0.0379-0.0208 0.0397-0.0803 0-0.0668-0.0361-0.0929-0.0361-0.0262-0.12993-0.0496-0.13172-0.0361-0.19398-0.0893-0.0622-0.0532-0.0641-0.14887 0-0.11368 0.0785-0.18225 0.0785-0.0686 0.21022-0.0686 0.12992 0 0.24541 0.10466z"/>
  <path d="m231.35 389.93q0.16782 0 0.28601 0.12361 0.1182 0.12361 0.1182 0.30225 0 0.17684-0.1182 0.29864-0.11819 0.12181-0.28601 0.12181-0.16962 0-0.28962-0.1209t-0.12-0.29774q0-0.17865 0.12-0.30316t0.28962-0.12451zm2e-3 0.11549q-0.11008 0-0.18857 0.0929-0.0785 0.0929-0.0785 0.21925 0 0.12631 0.0785 0.21563 0.0785 0.0893 0.18857 0.0893t0.18766-0.0893q0.0776-0.0893 0.0776-0.21563 0-0.12632-0.0785-0.21925-0.0785-0.0929-0.18676-0.0929z"/>
  <path d="m231.94 389.39h0.13714v1.3534h-0.13714z"/>
  <path d="m232.92 390.54 0.0848 0.0758q-0.10827 0.14617-0.34105 0.14978-0.16962 0-0.28781-0.12091-0.1182-0.1209-0.1182-0.29774 0-0.18045 0.11459-0.30405 0.11458-0.12361 0.2824-0.12361h7e-3q0.1606 0 0.25804 0.10195 0.0974 0.10196 0.11188 0.2788v0.0491h-0.63338q0 0.12451 0.0785 0.21383 0.0785 0.0893 0.18857 0.0893h0.0144q0.14436 0 0.24-0.11188zm-0.50706-0.30496h0.47999q-0.0162-0.10285-0.0812-0.15157-0.065-0.0487-0.15518-0.0487-0.0812 0-0.15519 0.0659-0.074 0.0659-0.0884 0.13443z"/>
 </g>
 <path class="st1" d="m223.72 401.24c0 1.1288-0.90595 2.046-2.0101 2.046-1.1042 0-2.0101-0.91718-2.0101-2.046v-1.7356s0.96259 0.2399 0.96259 1.2558v0.47975c0 0.62084 0.46715 1.1147 1.0475 1.1147 0.58039 0 1.0475-0.49387 1.0475-1.1147v-1.0018 0.0133c0.0425-0.84663 0.76441-1.1147 0.94842-1.2135h0.0149v2.2013zm-5.1668-2.0318c0.26899 0 0.52377 0.0423 0.75025 0.14101v1.0724c-0.19817-0.16929-0.46714-0.2681-0.75025-0.2681-0.637 0-1.1466 0.49388-1.1466 1.1147v2.0177h-0.96259v-3.6969s0.39635 0.0133 0.65115 0.19766c0.36804-0.36688 0.8918-0.57853 1.458-0.57853m-4.6147 3.1606c-0.63701 0-1.1608-0.50798-1.1608-1.1288s0.52376-1.1288 1.1608-1.1288c0.63703 0 1.1608 0.50798 1.1608 1.1288s-0.52374 1.1288-1.1608 1.1288m0-3.1606c-1.1608 0-2.095 0.91715-2.095 2.0318 0 1.1288 0.93428 2.032 2.095 2.032 0.48131 0 0.92012-0.15524 1.274-0.42332 0.21235 0.35274 0.82104 0.42332 0.82104 0.42332v-2.032c0-1.1147-0.9343-2.0318-2.095-2.0318m16.746 3.1606c-0.63702 0-1.1608-0.50798-1.1608-1.1288s0.52377-1.1288 1.1608-1.1288c0.63701 0 1.1608 0.50798 1.1608 1.1288s-0.52375 1.1288-1.1608 1.1288m0-3.1606c-1.1608 0-2.095 0.91715-2.095 2.0318 0 1.1288 0.93428 2.032 2.095 2.032 0.48127 0 0.92012-0.15524 1.274-0.42332 0.21234 0.35274 0.82102 0.42332 0.82102 0.42332v-2.032c0-1.1147-0.93428-2.0318-2.095-2.0318m-4.4448 3.1606c-0.63703 0-1.1608-0.50798-1.1608-1.1288s0.52376-1.1288 1.1608-1.1288 1.1608 0.50798 1.1608 1.1288c0.0148 0.62085-0.50962 1.1288-1.1608 1.1288m0-3.1606c-0.42468 0-0.82102 0.12697-1.1608 0.33863v-0.32453c-0.0425-0.84662-0.73609-1.1147-0.92012-1.2135h-0.0148v5.2772s0.62285-0.0706 0.8635-0.40921c0.3539 0.23988 0.77854 0.39511 1.2316 0.39511 1.1608 0 2.0951-0.91717 2.0951-2.032 0.0148-1.1147-0.93429-2.0318-2.0951-2.0318" fill="#f5831f" style="stroke-width:1.9008"/>
 <g transform="matrix(1.9538 0 0 2.0261 -50.875 252.05)">
  <ellipse cx="267.67" cy="73.61" rx="1.0624" ry=".99993"/>
  <ellipse cx="267.67" cy="73.61" rx="1.0624" ry=".99993" fill="none" stroke="#e5e5e5"/>
 </g>
 <g transform="matrix(1.9085 0 0 1.9014 139.19 18.883)">
  <path d="m146.09 217.75h8.4v-7.0242h-8.4z" fill="#3a3a3a"/>
  <g transform="matrix(.0080517 0 0 .0080487 133.48 246.67)">
   <path d="m2609.9-3593.3v-872.71h-1043.3v872.71z" fill="none" stroke="#000" stroke-linecap="square" stroke-width=".67568"/>
  </g>
  <path d="m146.86 212.5h1.7532l-3e-3 -1.0712 0.63806-5.7e-4v-0.40106h2.0566l-4.9e-4 0.40211h0.66414v1.0712h1.7452v4.6119l-6.8535 0.015z" fill="#1a1a1a"/>
  <g fill="#ebebeb">
   <path d="m148.88 211.4v-0.67597l-2.7924 9.6e-4 2e-3 6.9848 0.77137-0.62711-4.8e-4 -4.8021 1.5788-7e-3v-0.87506z"/>
   <path d="m146.89 217.13-0.76557 0.62244 8.3332 1e-3 -0.78248-0.63628"/>
   <path d="m151.68 211.4v-0.67597l2.8056 9.6e-4 -2e-3 6.9848-0.77145-0.63081 5.6e-4 -4.7984-1.5906-7e-3v-0.87506z"/>
  </g>
 </g>
 <g transform="matrix(1.9108 0 0 1.0692 229.85 210.71)">
  <path d="m110.68 204.3h3.7977c0.31236-0.0253 0.47172 0.26313 0.46384 0.53195v1.167c-0.0177 0.40759-0.69625 1.0145-1.2147 0.97148h-2.4609c-0.16724 0.0534-1.0983-0.60543-1.0629-1.0023v-1.1665c-0.0205-0.34162 0.30491-0.50905 0.47686-0.50159" fill="#e6e6e6"/>
  <path d="m110.82 204.48h3.492c0.37167-0.0222 0.41803 0.25189 0.41125 0.48766v1.0611c-0.0156 0.26619-0.58392 0.79942-1.0385 0.76155h-2.3058c-0.14683 0.0469-0.93886-0.53989-0.95768-0.7883v-1.0612c-0.0176-0.29936 0.24811-0.46751 0.3988-0.46085" fill="#1d1d1d"/>
  <path transform="matrix(.53109 0 0 .53109 35 368.35)" d="m144.09-307.32c-4e-3 -1.6e-4 -9e-3 2e-3 -0.0137 2e-3h-0.0117c-0.17447-7e-3 -0.45217 0.11055-0.43164 0.42579v1.0488c6e-3 0.0693 0.0738 0.16195 0.17187 0.25782 0.2624 0.2717 0.80298 0.59446 0.93164 0.55664h2.4942c0.52548 0.0402 1.2155-0.47741 1.2324-0.75782v-1.0781c8e-3 -0.24841-2e-3 -0.47824-0.43164-0.45508h-3.9414z" fill="#404040"/>
  <g fill="#070707">
   <path d="m111.56 205.87h0.1884v-0.41664h-0.1884z"/>
   <path d="m112.01 205.87h0.18839v-0.41664h-0.18839z"/>
   <path d="m112.48 205.87h0.18799v-0.41664h-0.18799z"/>
   <path d="m112.96 205.87h0.18799v-0.41664h-0.18799z"/>
   <path d="m113.42 205.87h0.18837v-0.41664h-0.18837z"/>
  </g>
 </g>
 <g transform="matrix(1.9039 0 0 1.8978 -30.606 -274.39)">
  <g transform="matrix(.31464 0 0 .31449 186.02 288.88)">
   <path d="m131.23 266.26v-24.611h-8.376v24.611z"/>
   <path d="m131.23 266.26v-24.611h-8.3762v24.611z" fill="none" stroke="#535353" stroke-linecap="round" stroke-linejoin="round" stroke-miterlimit="4.4615" stroke-width=".10782"/>
   <g stroke="#000" stroke-linejoin="round">
    <path d="m126.34 264.07v-20.304h-1.4326v20.304z" fill="none" stroke-linecap="round" stroke-miterlimit="4.4615" stroke-width=".10782"/>
    <path d="m124.91 264.07v-20.304l-0.71578-0.72485v21.754l0.71578-0.72485" fill="#a09a9a" stroke-width=".11578"/>
    <path d="m127.06 264.79v-21.754l-0.71603 0.72485v20.304l0.71603 0.72485" fill="#a09a9a" stroke-width=".11578"/>
    <path d="m127.06 264.79v-21.754l-0.71643 0.72523v20.304l0.71643 0.72472z" fill="none" stroke-linecap="round" stroke-miterlimit="4.4615" stroke-width=".10782"/>
    <path d="m127.06 264.79-0.71603-0.72485h-1.4333l-0.71578 0.72485h2.8651" fill="#a09a9a" stroke-linecap="round" stroke-width=".11578"/>
    <path d="m127.06 243.04-0.71603 0.72485h-1.4333l-0.71578-0.72485h2.8651" fill="#a09a9a" stroke-width=".11578"/>
   </g>
   <path d="m126.31 264.05v-20.293h-1.3976v20.293z" fill="#505050"/>
  </g>
 </g>
 <g transform="translate(79.14 -39.513)">
  <rect x="139.92" y="463.88" width="15.061" height="9.1305" style="stroke-width:2.0742"/>
  <rect x="139.92" y="463.88" width="15.061" height="9.1305" fill="none" stroke="#7f7f7f" stroke-width=".41484"/>
  <polygon transform="matrix(2.1657 0 0 1.9866 -106.75 304.85)" points="115.5 80.249 114.1 80.249 114.1 84.356 120.56 84.308 120.51 80.249"/>
  <polygon transform="matrix(2.1657 0 0 1.9866 -106.75 304.85)" points="115.5 80.249 114.1 80.249 114.1 84.356 120.56 84.308 120.51 80.249" fill="none" stroke="#7f7f7f" stroke-width=".1"/>
  <path d="m162.74 472.57h14.398v-13.258l-14.398-4.4e-4z" fill="#3a3a3a" style="stroke-width:1.9014"/>
  <g transform="matrix(.015384 0 0 .015191 137.74 527.17)">
   <path d="m2560.5-3593.3v-872.71l-935.94-0.027v872.74z" fill="none" stroke="#000" stroke-linecap="square" stroke-width=".67568"/>
  </g>
  <path d="m163.31 462.66h3.3498l-6e-3 -2.0217 1.2191-1e-3v-0.75696h3.9293l-9.1e-4 0.75894h1.2689v2.0219h3.3344v8.7044l-13.094 0.0283z" fill="#1a1a1a" style="stroke-width:1.9014"/>
  <path d="m173.37 462.13h3.3085v-1.4212h-3.3085z" fill="#abb927" style="stroke-width:1.9014"/>
  <path d="m163.01 462.13h3.3376v-1.4286h-3.3376z" fill="#ff7d00" style="stroke-width:1.9014"/>
  <path d="m162.74 472.58-2e-3 -13.262 4.4403-2e-3v1.2758l-4.2839-2e-3v1.6516l0.4253 0.0133 9.2e-4 9.1392 13.088-0.019 0.01-9e-3 1e-3 -9.1112 0.42528-0.0133v-1.6516l-4.309 2e-3v-1.2758l4.6012 2e-3 2e-3 13.262" fill="#ebebeb" style="stroke-width:1.9014"/>
  <g transform="matrix(1.9039 0 0 1.8978 -27.466 -235.52)" style="fill-rule:evenodd;fill:#008000;stroke-linejoin:round;stroke-width:.34814;stroke:#165016">
   <circle cx="90.491" cy="365.59" r=".46833"/>
   <circle cx="93.254" cy="365.59" r=".46833"/>
  </g>
 </g>
 <g transform="translate(134.08 -40.087)">
  <rect x="139.92" y="463.88" width="15.061" height="9.1305" style="stroke-width:2.0742"/>
  <rect x="139.92" y="463.88" width="15.061" height="9.1305" fill="none" stroke="#7f7f7f" stroke-width=".41484"/>
  <polygon transform="matrix(2.1657 0 0 1.9866 -106.75 304.85)" points="120.56 84.308 120.51 80.249 115.5 80.249 114.1 80.249 114.1 84.356"/>
  <polygon transform="matrix(2.1657 0 0 1.9866 -106.75 304.85)" points="120.56 84.308 120.51 80.249 115.5 80.249 114.1 80.249 114.1 84.356" fill="none" stroke="#7f7f7f" stroke-width=".1"/>
  <path d="m162.74 472.57h14.398v-13.258l-14.398-4.4e-4z" fill="#3a3a3a" style="stroke-width:1.9014"/>
  <g transform="matrix(.015384 0 0 .015191 137.74 527.17)">
   <path d="m2560.5-3593.3v-872.71l-935.94-0.027v872.74z" fill="none" stroke="#000" stroke-linecap="square" stroke-width=".67568"/>
  </g>
  <path d="m163.31 462.66h3.3498l-6e-3 -2.0217 1.2191-1e-3v-0.75696h3.9293l-9.1e-4 0.75894h1.2689v2.0219h3.3344v8.7044l-13.094 0.0283z" fill="#1a1a1a" style="stroke-width:1.9014"/>
  <path d="m173.37 462.13h3.3085v-1.4212h-3.3085z" fill="#abb927" style="stroke-width:1.9014"/>
  <path d="m163.01 462.13h3.3376v-1.4286h-3.3376z" fill="#ff7d00" style="stroke-width:1.9014"/>
  <path d="m162.74 472.58-2e-3 -13.262 4.4403-2e-3v1.2758l-4.2839-2e-3v1.6516l0.4253 0.0133 9.2e-4 9.1392 13.088-0.019 0.01-9e-3 1e-3 -9.1112 0.42528-0.0133v-1.6516l-4.309 2e-3v-1.2758l4.6012 2e-3 2e-3 13.262" fill="#ebebeb" style="stroke-width:1.9014"/>
  <g transform="matrix(1.9039 0 0 1.8978 -27.466 -235.52)" style="fill-rule:evenodd;fill:#008000;stroke-linejoin:round;stroke-width:.34814;stroke:#165016">
   <circle cx="90.491" cy="365.59" r=".46833"/>
   <circle cx="93.254" cy="365.59" r=".46833"/>
  </g>
 </g>
 <path d="m62.563 401.42c0.73405 0 1.325 0.59095 1.325 1.325v33.395h-2.65v-33.395c0-0.73405 0.59095-1.325 1.325-1.325z" style="stroke-linejoin:round;stroke-width:2"/>
 <path d="m195.52 412.56v23.582h-2.65v-25.322z" style="stroke-linejoin:round;stroke-width:2"/>
 <path d="m200.27 413.6v22.546h-2.65v-22.546z" style="stroke-linejoin:round;stroke-width:2"/>
 <path d="m214.8 415.12v20.59h-2.65v-20.59z" style="stroke-linejoin:round;stroke-width:2"/>
 <path d="m206.99 394.66v44.551h-1.0964v-44.551z" style="stroke-linejoin:round;stroke-width:1.2864"/>
 <path d="m264.82 415.12v20.59h-2.65v-20.59z" style="stroke-linejoin:round;stroke-width:2"/>
 <path d="m269.17 415.12v20.59h-2.65v-20.59z" style="stroke-linejoin:round;stroke-width:2"/>
 <path d="m319.11 415.12v20.59h-2.65v-20.59z" style="stroke-linejoin:round;stroke-width:2"/>
 <path d="m323.67 415.12v20.59h-2.65v-20.59z" style="stroke-linejoin:round;stroke-width:2"/>
 <path d="m391.75 415.12v20.59h-2.65v-20.59z" style="stroke-linejoin:round;stroke-width:2"/>
 <path d="m409.94 415.12v20.59h-2.65v-20.59z" style="stroke-linejoin:round;stroke-width:2"/>
 <path d="m414.47 415.12v20.59h-2.65v-20.59z" style="stroke-linejoin:round;stroke-width:2"/>
 <path d="m460.02 414.77v20.59h-2.65v-20.59z" style="stroke-linejoin:round;stroke-width:2"/>
 <path d="m464.43 415.12v20.59h-2.65v-20.59z" style="stroke-linejoin:round;stroke-width:2"/>
 <path d="m469.02 415.12v20.59h-2.65v-20.59z" style="stroke-linejoin:round;stroke-width:2"/>
 <path d="m473.61 415.12v20.59h-2.65v-20.59z" style="stroke-linejoin:round;stroke-width:2"/>
 <path d="m478.19 415.12v20.59h-2.65v-20.59z" style="stroke-linejoin:round;stroke-width:2"/>
 <path d="m67.105 401.42c0.73405 0 1.325 0.59095 1.325 1.325v33.395h-2.65v-33.395c0-0.73405 0.59095-1.325 1.325-1.325z" style="stroke-linejoin:round;stroke-width:2"/>
 <path d="m71.646 401.42c0.73405 0 1.325 0.59095 1.325 1.325v33.395h-2.65v-33.395c0-0.73405 0.59095-1.325 1.325-1.325z" style="stroke-linejoin:round;stroke-width:2"/>
 <path d="m76.188 401.42c0.73405 0 1.325 0.59095 1.325 1.325v33.395h-2.65v-33.395c0-0.73405 0.59095-1.325 1.325-1.325z" style="stroke-linejoin:round;stroke-width:2"/>
 <path d="m80.729 401.42c0.73405 0 1.325 0.59095 1.325 1.325v33.395h-2.65v-33.395c0-0.73405 0.59095-1.325 1.325-1.325z" style="stroke-linejoin:round;stroke-width:2"/>
 <path d="m85.271 401.42c0.73405 0 1.325 0.59095 1.325 1.325v33.395h-2.65v-33.395c0-0.73405 0.59095-1.325 1.325-1.325z" style="stroke-linejoin:round;stroke-width:2"/>
 <path d="m89.812 401.42c0.73405 0 1.325 0.59095 1.325 1.325v33.395h-2.65v-33.395c0-0.73405 0.59095-1.325 1.325-1.325z" style="stroke-linejoin:round;stroke-width:2"/>
 <path d="m94.354 401.42c0.73405 0 1.325 0.59095 1.325 1.325v33.395h-2.65v-33.395c0-0.73405 0.59095-1.325 1.325-1.325z" style="stroke-linejoin:round;stroke-width:2"/>
 <path d="m98.895 401.42c0.73405 0 1.325 0.59095 1.325 1.325v33.395h-2.65v-33.395c0-0.73405 0.59095-1.325 1.325-1.325z" style="stroke-linejoin:round;stroke-width:2"/>
 <path d="m103.44 401.42c0.73405 0 1.325 0.59095 1.325 1.325v33.395h-2.65v-33.395c0-0.73405 0.59095-1.325 1.325-1.325z" style="stroke-linejoin:round;stroke-width:2"/>
 <path d="m107.98 401.42c0.73405 0 1.325 0.59095 1.325 1.325v33.395h-2.65v-33.395c0-0.73405 0.59095-1.325 1.325-1.325z" style="stroke-linejoin:round;stroke-width:2"/>
 <path d="m112.52 401.42c0.73405 0 1.325 0.59095 1.325 1.325v33.395h-2.65v-33.395c0-0.73405 0.59095-1.325 1.325-1.325z" style="stroke-linejoin:round;stroke-width:2"/>
 <path d="m117.06 401.42c0.73405 0 1.325 0.59095 1.325 1.325v33.395h-2.65v-33.395c0-0.73405 0.59095-1.325 1.325-1.325z" style="stroke-linejoin:round;stroke-width:2"/>
 <path d="m121.6 401.42c0.73405 0 1.325 0.59095 1.325 1.325v33.395h-2.65v-33.395c0-0.73405 0.59095-1.325 1.325-1.325z" style="stroke-linejoin:round;stroke-width:2"/>
 <path d="m126.14 401.42c0.73405 0 1.325 0.59095 1.325 1.325v33.395h-2.65v-33.395c0-0.73405 0.59095-1.325 1.325-1.325z" style="stroke-linejoin:round;stroke-width:2"/>
 <path d="m130.69 401.42c0.73405 0 1.325 0.59095 1.325 1.325v33.395h-2.65v-33.395c0-0.73405 0.59095-1.325 1.325-1.325z" style="stroke-linejoin:round;stroke-width:2"/>
 <path d="m135.23 401.42c0.73405 0 1.325 0.59095 1.325 1.325v33.395h-2.65v-33.395c0-0.73405 0.59095-1.325 1.325-1.325z" style="stroke-linejoin:round;stroke-width:2"/>
 <path d="m139.77 401.42c0.73405 0 1.325 0.59095 1.325 1.325v33.395h-2.65v-33.395c0-0.73405 0.59095-1.325 1.325-1.325z" style="stroke-linejoin:round;stroke-width:2"/>
 <path d="m144.31 401.42c0.73405 0 1.325 0.59095 1.325 1.325v33.395h-2.65v-33.395c0-0.73405 0.59095-1.325 1.325-1.325z" style="stroke-linejoin:round;stroke-width:2"/>
 <path d="m148.85 401.42c0.73405 0 1.325 0.59095 1.325 1.325v33.395h-2.65v-33.395c0-0.73405 0.59095-1.325 1.325-1.325z" style="stroke-linejoin:round;stroke-width:2"/>
 <path d="m153.39 401.42c0.73405 0 1.325 0.59095 1.325 1.325v33.395h-2.65v-33.395c0-0.73405 0.59095-1.325 1.325-1.325z" style="stroke-linejoin:round;stroke-width:2"/>
 <path d="m157.94 401.42c0.73405 0 1.325 0.59095 1.325 1.325v33.395h-2.65v-33.395c0-0.73405 0.59095-1.325 1.325-1.325z" style="stroke-linejoin:round;stroke-width:2"/>
 <path d="m162.48 401.42c0.73405 0 1.325 0.59095 1.325 1.325v33.395h-2.65v-33.395c0-0.73405 0.59095-1.325 1.325-1.325z" style="stroke-linejoin:round;stroke-width:2"/>
 <path d="m167.02 401.42c0.73405 0 1.325 0.59095 1.325 1.325v33.395h-2.65v-33.395c0-0.73405 0.59095-1.325 1.325-1.325z" style="stroke-linejoin:round;stroke-width:2"/>
 <path d="m171.56 401.42c0.73405 0 1.325 0.59095 1.325 1.325v33.395h-2.65v-33.395c0-0.73405 0.59095-1.325 1.325-1.325z" style="stroke-linejoin:round;stroke-width:2"/>
 <path d="m176.1 401.42c0.73405 0 1.325 0.59095 1.325 1.325v33.395h-2.65v-33.395c0-0.73405 0.59095-1.325 1.325-1.325z" style="stroke-linejoin:round;stroke-width:2"/>
 <path d="m180.64 401.42c0.73405 0 1.325 0.59095 1.325 1.325v33.395h-2.65v-33.395c0-0.73405 0.59095-1.325 1.325-1.325z" style="stroke-linejoin:round;stroke-width:2"/>
 <path d="m185.19 401.42c0.73405 0 1.325 0.59095 1.325 1.325v33.395h-2.65v-33.395c0-0.73405 0.59095-1.325 1.325-1.325z" style="stroke-linejoin:round;stroke-width:2"/>
 <path d="m189.73 401.42c0.73405 0 1.325 0.59095 1.325 1.325v33.395h-2.65v-33.395c0-0.73405 0.59095-1.325 1.325-1.325z" style="stroke-linejoin:round;stroke-width:2"/>
 <g transform="matrix(1.8829 0 0 1.8829 -7.6589 -449.82)">
  <g transform="matrix(.53109 0 0 .53109 130.51 224.83)">
   <rect x="90.599" y="450.24" width="13.336" height="8.3357" stroke="#000" stroke-width=".8"/>
   <rect x="90.599" y="450.24" width="13.336" height="8.3357" fill="none" stroke="#b3b3b3" stroke-width=".2"/>
   <rect x="94.318" y="457.66" width="5.898" height="1" rx=".047" ry=".010884" fill="#999" fill-rule="evenodd" stroke="#000" stroke-width=".5"/>
  </g>
  <g transform="matrix(.53109 0 0 .53109 138 224.83)">
   <rect x="90.599" y="450.24" width="13.336" height="8.3357" stroke="#000" stroke-width=".8"/>
   <rect x="90.599" y="450.24" width="13.336" height="8.3357" fill="none" stroke="#b3b3b3" stroke-width=".2"/>
   <rect x="94.318" y="457.66" width="5.898" height="1" rx=".047" ry=".010884" fill="#999" fill-rule="evenodd" stroke="#000" stroke-width=".5"/>
  </g>
  <g transform="matrix(.53109 0 0 .53109 145.51 224.83)">
   <rect x="90.599" y="450.24" width="13.336" height="8.3357" stroke="#000" stroke-width=".8"/>
   <rect x="90.599" y="450.24" width="13.336" height="8.3357" fill="none" stroke="#b3b3b3" stroke-width=".2"/>
   <rect x="94.318" y="457.66" width="5.898" height="1" rx=".047" ry=".010884" fill="#999" fill-rule="evenodd" stroke="#000" stroke-width=".5"/>
  </g>
  <g transform="matrix(.53109 0 0 .53109 152.89 224.83)">
   <rect x="90.599" y="450.24" width="13.336" height="8.3357" stroke="#000" stroke-width=".8"/>
   <rect x="90.599" y="450.24" width="13.336" height="8.3357" fill="none" stroke="#b3b3b3" stroke-width=".2"/>
   <rect x="94.318" y="457.66" width="5.898" height="1" rx=".047" ry=".010884" fill="#999" fill-rule="evenodd" stroke="#000" stroke-width=".5"/>
  </g>
 </g>
 <text x="387.69089" y="402.81741" style="font-family:sans-serif;font-size:5.0999px;line-height:1.25;stroke-width:.31874" xml:space="preserve"><tspan x="387.69089" y="402.81741" style="fill:#ffffff;stroke-width:.31874">7210</tspan></text>
</svg>
