<svg width="86" height="140" version="1.1" viewBox="35 370 86 140" xmlns="http://www.w3.org/2000/svg"><g transform="matrix(1.8645 0 0 1.8716 -30.257 -294.58)"><rect x="35.225" y="355.32" width="45.674" height="74.353" rx="7.9664" ry="7.9664" fill="#f0f0f0" fill-rule="evenodd" stroke="#e4e4e0" stroke-linecap="round" stroke-linejoin="round" stroke-width=".45066"/><g transform="translate(.33697 .20665)" stroke-width=".010924px"><g aria-label="E0/PT"><path d="m45.831 425.47h0.90639v0.16323h-0.71244v0.42439h0.68267v0.16322h-0.68267v0.51945h0.72972v0.16322h-0.92367z"/><path d="m47.503 425.6q-0.14978 0-0.22564 0.14787-0.07489 0.1469-0.07489 0.44263 0 0.29477 0.07489 0.44263 0.07585 0.1469 0.22564 0.1469 0.15074 0 0.22564-0.1469 0.07585-0.14786 0.07585-0.44263 0-0.29573-0.07585-0.44263-0.07489-0.14787-0.22564-0.14787zm0-0.15362q0.241 0 0.36774 0.19107 0.1277 0.19011 0.1277 0.55305 0 0.36198-0.1277 0.55305-0.12674 0.19011-0.36774 0.19011t-0.3687-0.19011q-0.12674-0.19107-0.12674-0.55305 0-0.36294 0.12674-0.55305 0.1277-0.19107 0.3687-0.19107z"/><path d="m48.625 425.47h0.16323l-0.49928 1.6159h-0.16323z"/><path d="m49.172 425.63v0.53865h0.24388q0.13538 0 0.20931-0.0701t0.07393-0.19971q0-0.12866-0.07393-0.19875-0.07393-0.0701-0.20931-0.0701zm-0.19395-0.15939h0.43783q0.241 0 0.3639 0.10946 0.12386 0.1085 0.12386 0.31877 0 0.2122-0.12386 0.32069-0.1229 0.1085-0.3639 0.1085h-0.24388v0.57609h-0.19395z"/><path d="m49.962 425.47h1.2127v0.16323h-0.50888v1.2703h-0.19491v-1.2703h-0.50888z"/></g><g aria-label="E1"><path d="m67.503 425.58h0.90639v0.16322h-0.71244v0.42439h0.68267v0.16323h-0.68267v0.51944h0.72972v0.16323h-0.92367z"/><path d="m68.794 426.85h0.31685v-1.0936l-0.3447 0.0691v-0.17667l0.34278-0.0691h0.19395v1.2703h0.31685v0.16323h-0.82573z"/></g></g><g transform="matrix(1.6848,0,0,1.6848,-35.904,-264.08)"><path class="st1" d="m56.695 384.4c0 0.78144-0.62357 1.4164-1.3836 1.4164-0.75998 0-1.3836-0.63492-1.3836-1.4164v-1.2014s0.66255 0.16606 0.66255 0.86935v0.3321c0 0.4298 0.32152 0.77169 0.721 0.77169s0.72101-0.34189 0.72101-0.77169v-0.69352 9e-3c0.02923-0.58608 0.52614-0.77168 0.6528-0.84005h0.0097v1.5238zm-3.5562-1.4066c0.18512 0 0.3605 0.0293 0.51639 0.0977v0.74237c-0.13641-0.11717-0.32153-0.18559-0.51639-0.18559-0.43845 0-0.7892 0.34187-0.7892 0.77167v1.3968h-0.66254v-2.5592s0.2728 9e-3 0.44818 0.13678c0.25333-0.25397 0.61382-0.40048 1.0035-0.40048m-3.1763 2.188c-0.43845 0-0.79895-0.35164-0.79895-0.78144 0-0.42979 0.3605-0.78142 0.79895-0.78142s0.79894 0.35163 0.79894 0.78142c0 0.4298-0.36049 0.78144-0.79894 0.78144m0-2.188c-0.79895 0-1.442 0.63492-1.442 1.4066 0 0.78144 0.64305 1.4066 1.442 1.4066 0.33127 0 0.63331-0.10752 0.87688-0.29303 0.14615 0.24421 0.56511 0.29303 0.56511 0.29303v-1.4066c0-0.77165-0.64305-1.4066-1.442-1.4066m11.527 2.188c-0.43845 0-0.79895-0.35164-0.79895-0.78144 0-0.42979 0.3605-0.78142 0.79895-0.78142s0.79895 0.35163 0.79895 0.78142c0 0.4298-0.3605 0.78144-0.79895 0.78144m0-2.188c-0.79895 0-1.442 0.63492-1.442 1.4066 0 0.78144 0.64305 1.4066 1.442 1.4066 0.33127 0 0.63332-0.10752 0.87689-0.29303 0.14615 0.24421 0.5651 0.29303 0.5651 0.29303v-1.4066c0-0.77165-0.64305-1.4066-1.442-1.4066m-3.0594 2.188c-0.43845 0-0.79895-0.35164-0.79895-0.78144 0-0.42979 0.3605-0.78142 0.79895-0.78142s0.79895 0.35163 0.79895 0.78142c0.0097 0.4298-0.35076 0.78144-0.79895 0.78144m0-2.188c-0.2923 0-0.5651 0.0879-0.79895 0.23443v-0.22468c-0.02922-0.58606-0.50665-0.77167-0.6333-0.84003h-0.0097v3.6532s0.4287-0.0489 0.59434-0.28327c0.24359 0.16606 0.53588 0.2735 0.84766 0.2735 0.79895 0 1.442-0.63491 1.442-1.4066 0.0097-0.77165-0.64305-1.4066-1.442-1.4066" fill="#ccc" stroke-width=".66189"/><path class="st1" d="m56.748 384.46c0 0.78144-0.62357 1.4164-1.3836 1.4164-0.75998 0-1.3836-0.63492-1.3836-1.4164v-1.2014s0.66255 0.16606 0.66255 0.86935v0.3321c0 0.4298 0.32152 0.77169 0.721 0.77169s0.72101-0.34189 0.72101-0.77169v-0.69352 9e-3c0.02923-0.58608 0.52614-0.77168 0.6528-0.84005h0.0097v1.5238zm-3.5562-1.4066c0.18512 0 0.3605 0.0293 0.51639 0.0977v0.74237c-0.13641-0.11717-0.32153-0.18559-0.51639-0.18559-0.43845 0-0.7892 0.34187-0.7892 0.77167v1.3968h-0.66254v-2.5592s0.2728 9e-3 0.44818 0.13678c0.25333-0.25397 0.61382-0.40048 1.0035-0.40048m-3.1763 2.188c-0.43845 0-0.79895-0.35164-0.79895-0.78144 0-0.42979 0.3605-0.78142 0.79895-0.78142s0.79894 0.35163 0.79894 0.78142c0 0.4298-0.36049 0.78144-0.79894 0.78144m0-2.188c-0.79895 0-1.442 0.63492-1.442 1.4066 0 0.78144 0.64305 1.4066 1.442 1.4066 0.33127 0 0.63331-0.10752 0.87688-0.29303 0.14615 0.24421 0.56511 0.29303 0.56511 0.29303v-1.4066c0-0.77165-0.64305-1.4066-1.442-1.4066m11.527 2.188c-0.43845 0-0.79895-0.35164-0.79895-0.78144 0-0.42979 0.3605-0.78142 0.79895-0.78142s0.79895 0.35163 0.79895 0.78142c0 0.4298-0.3605 0.78144-0.79895 0.78144m0-2.188c-0.79895 0-1.442 0.63492-1.442 1.4066 0 0.78144 0.64305 1.4066 1.442 1.4066 0.33127 0 0.63332-0.10752 0.87689-0.29303 0.14615 0.24421 0.5651 0.29303 0.5651 0.29303v-1.4066c0-0.77165-0.64305-1.4066-1.442-1.4066m-3.0594 2.188c-0.43845 0-0.79895-0.35164-0.79895-0.78144 0-0.42979 0.3605-0.78142 0.79895-0.78142s0.79895 0.35163 0.79895 0.78142c0.0097 0.4298-0.35076 0.78144-0.79895 0.78144m0-2.188c-0.2923 0-0.5651 0.0879-0.79895 0.23443v-0.22468c-0.02922-0.58606-0.50665-0.77167-0.6333-0.84003h-0.0097v3.6532s0.4287-0.0489 0.59434-0.28327c0.24359 0.16606 0.53588 0.2735 0.84766 0.2735 0.79895 0 1.442-0.63491 1.442-1.4066 0.0097-0.77165-0.64306-1.4066-1.442-1.4066" fill="none" stroke="#fff" stroke-width=".077539"/></g><g transform="translate(-1.2242 .20665)" fill="#ccc" stroke-width=".016819px" aria-label="203H"><path d="m55.885 391.64h1.0422v0.2513h-1.4014v-0.2513q0.17-0.17591 0.46269-0.47156 0.29417-0.29713 0.36956-0.38287 0.14339-0.16113 0.19956-0.27199 0.05765-0.11235 0.05765-0.22026 0-0.17591-0.12417-0.28678-0.12269-0.11087-0.32078-0.11087-0.14043 0-0.29713 0.0488-0.15522 0.0488-0.33261 0.14783v-0.30157q0.18035-0.0724 0.33704-0.10939 0.1567-0.037 0.28678-0.037 0.34295 0 0.54695 0.17147 0.204 0.17148 0.204 0.45826 0 0.136-0.05174 0.25869-0.05026 0.12122-0.18478 0.28678-0.03696 0.0429-0.23504 0.24835-0.19808 0.204-0.55878 0.57208z"/><path d="m58.188 389.88q-0.23061 0-0.34739 0.22765-0.1153 0.22617-0.1153 0.68147 0 0.45382 0.1153 0.68147 0.11678 0.22617 0.34739 0.22617 0.23208 0 0.34739-0.22617 0.11678-0.22765 0.11678-0.68147 0-0.4553-0.11678-0.68147-0.1153-0.22765-0.34739-0.22765zm0-0.23652q0.37104 0 0.56617 0.29417 0.19661 0.29269 0.19661 0.85147 0 0.5573-0.19661 0.85147-0.19513 0.29269-0.56617 0.29269t-0.56765-0.29269q-0.19513-0.29417-0.19513-0.85147 0-0.55878 0.19513-0.85147 0.19661-0.29417 0.56765-0.29417z"/><path d="m60.375 390.7q0.21435 0.0458 0.33408 0.1907 0.12122 0.14487 0.12122 0.35773 0 0.3267-0.22469 0.50556-0.22469 0.17887-0.6386 0.17887-0.13896 0-0.28678-0.0281-0.14635-0.0266-0.30304-0.0813v-0.28826q0.12417 0.0724 0.272 0.10939 0.14782 0.037 0.30895 0.037 0.28087 0 0.42721-0.11087 0.14782-0.11087 0.14782-0.32226 0-0.19512-0.13748-0.30452-0.136-0.11086-0.37991-0.11086h-0.25722v-0.24539h0.26904q0.22026 0 0.33704-0.0872 0.11678-0.0887 0.11678-0.25426 0-0.17-0.12122-0.26017-0.11974-0.0917-0.34443-0.0917-0.1227 0-0.26313 0.0266t-0.30895 0.0828v-0.26609q0.17-0.0473 0.31782-0.0709 0.1493-0.0237 0.28087-0.0237 0.34 0 0.53808 0.15521 0.19809 0.15374 0.19809 0.41687 0 0.1833-0.10496 0.31043-0.10496 0.12565-0.29861 0.17443z"/><path d="m61.364 389.69h0.29861v0.90469h1.085v-0.90469h0.29861v2.207h-0.29861v-1.051h-1.085v1.051h-0.29861z"/></g><g transform="translate(-2.5479 .20665)" stroke-width=".010924px"><g aria-label="E0"><path d="m59.428 402.1h0.98658v0.17767h-0.77547v0.46194h0.74307v0.17767h-0.74307v0.5654h0.79428v0.17767h-1.0054z"/><path d="m61.252 402.23q-0.16304 0-0.2456 0.16095-0.08152 0.1599-0.08152 0.48179 0 0.32085 0.08152 0.4818 0.08256 0.1599 0.2456 0.1599 0.16408 0 0.2456-0.1599 0.08256-0.16095 0.08256-0.4818 0-0.32189-0.08256-0.48179-0.08152-0.16095-0.2456-0.16095zm0-0.16721q0.26232 0 0.40028 0.20797 0.139 0.20693 0.139 0.60198 0 0.39401-0.139 0.60199-0.13796 0.20693-0.40028 0.20693t-0.40132-0.20693q-0.13795-0.20798-0.13795-0.60199 0-0.39505 0.13795-0.60198 0.139-0.20797 0.40132-0.20797z"/></g><g aria-label="PT"><path d="m59.624 406.22v0.5863h0.26546q0.14736 0 0.22783-0.0763t0.08047-0.21738q0-0.14005-0.08047-0.21634-0.08047-0.0763-0.22783-0.0763zm-0.21111-0.17349h0.47657q0.26232 0 0.3961 0.11914 0.13482 0.1181 0.13482 0.34698 0 0.23097-0.13482 0.34906-0.13377 0.1181-0.3961 0.1181h-0.26546v0.62707h-0.21111z"/><path d="m60.487 406.04h1.32v0.17767h-0.55391v1.3827h-0.21216v-1.3827h-0.55391z"/></g></g><g fill="#b3b3b3"><g transform="matrix(1.0001,0,0,1.0002,124.67,-2.7262)"><g transform="matrix(-.015741 0 0 -.015741 -47.172 418.36)" aria-label="!"><path d="m-38.173 394.76h9.4756v11.856h-9.4756zm0-57.834h9.4756v30.574l-0.93356 16.664h-7.5618l-0.98024-16.664z" fill="#b3b3b3" stroke-width=".53109px"/></g><path d="m-46.645 411.63c-0.4839 0-0.87625 0.39235-0.87625 0.87625s0.39234 0.87625 0.87625 0.87625 0.87625-0.39235 0.87625-0.87625-0.39234-0.87625-0.87625-0.87625zm0 1.743c-0.47872 0-0.86677-0.38805-0.86677-0.86677s0.38805-0.86677 0.86677-0.86677 0.86677 0.38805 0.86677 0.86677-0.38805 0.86677-0.86677 0.86677z" stroke="#b3b3b3" stroke-width=".10622"/></g><g transform="translate(-3.6143,2.971)" stroke-width=".0014459px" aria-label="EI"><path d="m81.051 411.94h0.73212v0.13184h-0.57546v0.34279h0.55141v0.13184h-0.55141v0.41957h0.58942v0.13185h-0.74608z"/><path d="m82.055 411.94h0.15666v1.1579h-0.15666z"/></g><path d="m78.177 413.45c0 0.0857-0.06957 0.15521-0.15529 0.15521s-0.15521-0.0696-0.15521-0.15521c0-0.0857 0.0695-0.15522 0.15521-0.15522 0.08572 0 0.15529 0.0696 0.15529 0.15522zm0.06457-0.41062c-0.13369-0.0718-0.30399-0.0721-0.43851-4.1e-4 -0.03782 0.0202-0.05222 0.0671-0.03206 0.10489 0.02001 0.038 0.06699 0.0525 0.10497 0.0321 0.09026-0.0479 0.20266-0.0481 0.29224 1.2e-4 0.01167 6e-3 0.02425 9e-3 0.03669 9e-3 0.02759 0 0.05441-0.0149 0.06836-0.041 0.0203-0.0377 6e-3 -0.0848-0.03169-0.10503zm0.14627-0.27374c-0.22357-0.1199-0.5077-0.1199-0.73112-4.1e-4 -0.03782 0.0202-0.05207 0.0671-0.03184 0.10505 0.02024 0.0377 0.06715 0.0525 0.10504 0.0317 0.1784-0.0955 0.406-0.0955 0.58456 4.1e-4 0.01166 6e-3 0.02425 9e-3 0.03668 9e-3 0.02759 0 0.05442-0.0149 0.06836-0.041 0.02031-0.0377 6e-3 -0.0849-0.03168-0.10503zm0.14551-0.27452c-0.31513-0.16824-0.71589-0.16673-1.0292 4e-3 -0.03767 0.0206-0.05161 0.0676-0.03115 0.10535 0.0141 0.0258 0.04077 0.0404 0.06829 0.0404 0.0125 0 0.02524-3e-3 0.03698-9e-3 0.26829-0.14627 0.61176-0.14733 0.88202-3e-3 0.03759 0.0202 0.08458 6e-3 0.10504-0.032 0.02016-0.0378 0.0059-0.0848-0.03198-0.10506zm0.14688-0.27329c-0.40501-0.2169-0.92052-0.21508-1.3241 4e-3 -0.03766 0.0203-0.05161 0.0676-0.03115 0.10519 0.0141 0.0259 0.04077 0.0406 0.06829 0.0406 0.0125 0 0.02523-3e-3 0.03698-9e-3 0.35848-0.19508 0.81677-0.19659 1.1766-4e-3 0.03775 0.02 0.08488 6e-3 0.10504-0.0318 0.02031-0.0378 0.0061-0.0848-0.03167-0.10504zm0.14506-0.27449c-0.49474-0.26466-1.1243-0.26223-1.6171 5e-3 -0.03767 0.0206-0.05161 0.0677-0.03115 0.10535 0.0141 0.0259 0.04077 0.0404 0.06829 0.0404 0.0125 0 0.02524-3e-3 0.03698-9e-3 0.44768-0.24344 1.02-0.24556 1.4699-5e-3 0.03698 0.02 0.08473 6e-3 0.10489-0.0318 0.02031-0.0379 0.0061-0.0849-0.03183-0.10519z" stroke-width=".0048504"/></g></g></svg>
