<svg width="294.8" height="43.7" version="1.1" viewBox="35 370 294.8 43.7" xml:space="preserve" xmlns="http://www.w3.org/2000/svg"><rect x="35.517" y="370" width="294.8" height="43.7" fill="#2a2a2a" stroke="#000" stroke-width=".51739"/><g fill="#fff" stroke-width=".10084"><path d="m318.86 378.18c0.57851 0 0.9063 0.43182 0.9063 0.8981 0 0.2531-0.0835 0.47027-0.25015 0.75457l-0.52492 0.90631h-0.54952l0.4675-0.81609c-0.0228 9e-3 -0.0958 0.0203-0.1312 0.0203-0.54845-0.0223-0.82427-0.45761-0.82427-0.86528 0-0.49173 0.35534-0.8981 0.90629-0.8981zm-0.4347 0.89811c0 0.24695 0.19117 0.44287 0.43467 0.44287 0.2182 0 0.43057-0.17378 0.43057-0.44287 0-0.25324-0.17399-0.44291-0.4306-0.44291-0.27299 0-0.4347 0.20867-0.4347 0.44291z" aria-label="6100"/><path d="m325.39 380.74c-0.57851 0-0.9063-0.43182-0.9063-0.8981 0-0.2531 0.0835-0.47027 0.25015-0.75457l0.52492-0.90631h0.54952l-0.4675 0.81609c0.0228-9e-3 0.0958-0.0203 0.1312-0.0203 0.54845 0.0223 0.82427 0.45761 0.82427 0.86528 0 0.49173-0.35534 0.8981-0.90629 0.8981zm0.4347-0.89811c0-0.24695-0.19117-0.44287-0.43467-0.44287-0.2182 0-0.43057 0.17378-0.43057 0.44287 0 0.25324 0.17399 0.44291 0.4306 0.44291 0.27299 0 0.4347-0.20867 0.4347-0.44291z" aria-label="6100"/><path d="m320.12 380.29h0.64385v-1.464l-0.63565 0.31987v-0.51671l0.81199-0.4019h0.33218v2.0628h0.56593v0.4552h-1.7183z" aria-label="6100"/></g><rect transform="rotate(90)" x="394.97" y="-308.16" width="6.246" height="15.641" rx=".38335" ry=".37899" stroke="#e3e3df" stroke-width=".3861"/><path d="m293.93 397.92h12.576v-1.3842h-12.576z" fill="#0055d4" stroke-width="1.8984"/><rect x="226.59" y="381.42" width="15.855" height="24.668" fill="#ebebeb" fill-rule="evenodd" stroke="#000" stroke-linecap="round" stroke-width=".27099"/><path d="m228.56 384.28h2.8915l-5e-3 -1.7853 1.0524-8.8e-4v-0.66843h3.3919l-8.1e-4 0.67018h1.0954v1.7853h2.8783v7.6864l-11.303 0.025z" fill="#1a1a1a" stroke-width="1.6579"/><rect transform="scale(-1)" x="-267.57" y="-406.45" width="15.855" height="27.361" fill="#ebebeb" fill-rule="evenodd" stroke="#000" stroke-linecap="round" stroke-width=".27099"/><path d="m266.35 403.59h-3.6373l5e-3 1.7853-1.0524 8.8e-4v0.66843h-3.3919l8.1e-4 -0.67018h-1.0954v-1.7853h-3.7307v-7.6864l12.901-0.025z" fill="#1a1a1a" stroke-width="1.6579"/><rect x="200.85" y="380.67" width="14.806" height="25.418" rx=".025121" ry=".0057844" fill="#ccc" fill-rule="evenodd" stroke="#000" stroke-width=".54363"/><g fill="#47541e" fill-rule="evenodd"><path d="m204.38 391.89-1.0851 2.9735-1.0851-2.9735z" stroke-width=".44718"/><path d="m204.12 394.83 1.0851-2.9735 1.0851 2.9735z" stroke-width=".4472"/><path d="m210.22 394.84 1.0851-2.9735 1.0851 2.9735z" stroke-width=".44718"/><path d="m214.29 391.91-1.0851 2.9735-1.0851-2.9735z" stroke-width=".4472"/></g><rect x="201.59" y="381.11" width="13.336" height="8.3357" stroke="#b3b3b3" stroke-width=".2"/><rect x="205.31" y="388.53" width="5.898" height="1" rx=".047" ry=".010884" fill="#999" fill-rule="evenodd" stroke="#000" stroke-width=".5"/><rect transform="scale(-1)" x="-214.93" y="-405.63" width="13.336" height="8.3357" stroke="#b3b3b3" stroke-width=".2"/><rect transform="scale(-1)" x="-211.21" y="-398.21" width="5.898" height="1" rx=".047" ry=".010884" fill="#999" fill-rule="evenodd" stroke="#000" stroke-width=".5"/><rect transform="rotate(-90)" x="-395.2" y="38.119" width="17.014" height="3.0265" fill="#ffeb00" stroke-width="1.1546"/><path d="m326.69 375.47h-8.5027v-1.5763h8.5027zm0.60741-2.1837h-9.7177v2.7907h9.7177z" fill="#00b188" stroke-width=".020684"/><path d="m237.16 400.77c0.6254 0 1.1332 0.50774 1.1332 1.1332 0 0.62538-0.50774 1.1331-1.1332 1.1332h-5.8924c-0.6254 0-1.1332-0.50775-1.1332-1.1332 0-0.62541 0.50774-1.1332 1.1332-1.1332z" clip-rule="evenodd" fill-rule="evenodd" stroke="#ccc" stroke-linecap="round" stroke-linejoin="round" stroke-miterlimit="1.5" stroke-width=".1813px"/><rect x="231.09" y="401.6" width="6.2557" height=".60482" rx=".37795" fill="#999"/><path d="m263.54 405.35h2.8119v-1.2356h-2.8119z" fill="#250" stroke-width="1.6324"/><path d="m253.45 405.37h2.8366v-1.242h-2.8366z" fill="#250" stroke-width="1.6324"/><rect transform="scale(-1)" x="-95.084" y="-406.15" width="17.702" height="25.869" fill="#ebebeb" fill-rule="evenodd" stroke="#000" stroke-linecap="round" stroke-width=".27099"/><path d="m92.773 405.07h-4.6847v0.67018h-3.3919l8.1e-4 -0.67018h-4.8261v-9.4717l12.901-0.025z" fill="#1a1a1a" stroke-width="1.6579"/><path d="m89.741 404.75h2.8119v-1.2356h-2.8119z" fill="#250" stroke-width="1.6324"/><path d="m80.135 404.75h2.8366v-1.242h-2.8366z" fill="#250" stroke-width="1.6324"/><path d="m79.735 381.22h4.6847v-0.66843h3.3919l-8.1e-4 0.67018 4.8261-2e-3v9.4734l-12.901 0.025z" fill="#1a1a1a" stroke-width="1.6579"/><path d="m82.811 381.61h-2.8119v1.2356h2.8119z" fill="#250" stroke-width="1.6324"/><path d="m92.418 381.61h-2.8366v1.242h2.8366z" fill="#250" stroke-width="1.6324"/><rect x="152.89" y="397.35" width="13.336" height="8.3356" stroke="#000" stroke-width=".79999"/><rect x="152.89" y="397.35" width="13.336" height="8.3356" fill="none" stroke="#b3b3b3" stroke-width=".2"/><rect x="156.61" y="404.77" width="5.8979" height=".99999" rx=".047" ry=".010884" fill="#999" fill-rule="evenodd" stroke="#000" stroke-width=".5"/><path d="m175.29 405.95h14.227v-13.099l-14.227-4.3e-4z" fill="#3a3a3a" stroke="#000" stroke-width=".279"/><g stroke-width="1.8787"><path d="m175.85 396.16h3.3099l-6e-3 -1.9974 1.2046-1e-3v-0.74788h3.8825l-9e-4 0.74984h1.2538v1.9976h3.2947v8.6l-12.938 0.028z" fill="#1a1a1a"/><path d="m185.79 395.64h3.2691v-1.4041h-3.2691z" fill="#008000"/><path d="m175.55 395.64h3.2979v-1.4114h-3.2979z" fill="#008000"/><path d="m175.29 405.96-2e-3 -13.103 4.3873-2e-3v1.2605l-4.2328-2e-3v1.6318l0.42023 0.0132 9.1e-4 9.0295 12.942-0.0188v-9.011l0.42021-0.0132v-1.6318l-4.2576 2e-3v-1.2605l4.5464 2e-3 2e-3 13.103z" fill="#ebebeb"/></g><rect x="105.22" y="397.35" width="13.336" height="8.3356" stroke="#000" stroke-width=".79999"/><rect x="105.22" y="397.35" width="13.336" height="8.3356" fill="none" stroke="#b3b3b3" stroke-width=".2"/><rect x="108.94" y="404.77" width="5.8979" height=".99999" rx=".047" ry=".010884" fill="#999" fill-rule="evenodd" stroke="#000" stroke-width=".5"/><g stroke-width="1.8787"><path d="m127.18 396.28h3.3099l-6e-3 -1.9974 1.2046-1e-3v-0.74788h3.8825l-9e-4 0.74984h1.2538v1.9976h3.2947v8.6l-12.938 0.028z" fill="#1a1a1a"/><path d="m137.12 395.76h3.2691v-1.4041h-3.2691z" fill="#008000"/><path d="m126.88 395.76h3.2979v-1.4114h-3.2979z" fill="#008000"/><path d="m126.62 406.08-2e-3 -13.103 4.3873-2e-3v1.2605l-4.2328-2e-3v1.6318l0.42023 0.0132 9.1e-4 9.0295 12.942-0.0188v-9.011l0.42021-0.0132v-1.6318l-4.2576 2e-3v-1.2605l4.5464 2e-3 2e-3 13.103z" fill="#ebebeb"/></g><g fill="#4f4f4f" stroke="#1a1a1a" stroke-linejoin="round" stroke-width=".1"><circle cx="108.94" cy="393.38" r="1.1"/><circle cx="114.84" cy="393.38" r="1.1"/><circle cx="60.561" cy="391.99" r="1.5"/><circle cx="60.561" cy="396.28" r="1.5"/><circle cx="60.561" cy="400.56" r="1.5"/></g><g stroke="#1a1a1a" stroke-linejoin="round"><circle cx="69.55" cy="401.55" r="1.5" stroke-width=".1"/><circle cx="156.61" cy="393.38" r="1.1" fill="#4f4f4f" stroke-width=".1"/><circle cx="162.51" cy="393.38" r="1.1" fill="#4f4f4f" stroke-width=".1"/></g><g fill="#fff"><path d="m323.16 380.74c-0.58323 0-0.96371-0.51206-0.96371-1.3 0-0.70851 0.33297-1.3 0.96371-1.3 0.65415 0 0.9637 0.62842 0.9637 1.3 0 0.67865-0.32025 1.3-0.9637 1.3zm0-2.1325c-0.39518 0-0.45518 0.51791-0.45518 0.83247 0 0.35136 0.0703 0.83248 0.45518 0.83248 0.39487 0 0.45108-0.53046 0.45108-0.83248 0-0.27119-0.0486-0.83247-0.45108-0.83247z" stroke-width=".10084" aria-label="6100"/><g stroke-linejoin="round" stroke-width=".068303"><path d="m231.82 410.7q-0.0943 0.0489-0.19655 0.0738-0.10228 0.0249-0.21345 0.0249-0.33173 0-0.52561-0.18499-0.19389-0.18588-0.19389-0.50339 0-0.31839 0.19389-0.50338 0.19388-0.18588 0.52561-0.18588 0.11117 0 0.21345 0.0249t0.19655 0.0738v0.27482q-0.0952-0.0649-0.18765-0.0952-0.0925-0.0302-0.19478-0.0302-0.18321 0-0.28815 0.11739-0.10495 0.1174-0.10495 0.32373 0 0.20545 0.10495 0.32285 0.10494 0.11739 0.28815 0.11739 0.10228 0 0.19478-0.0302t0.18765-0.0952zm0.70352-0.7195q-0.10584 0-0.16187 0.0765-0.0551 0.0756-0.0551 0.21879t0.0551 0.21967q0.056 0.0756 0.16187 0.0756 0.10405 0 0.15919-0.0756 0.0551-0.0765 0.0551-0.21967 0-0.14319-0.0551-0.21879-0.0551-0.0765-0.15919-0.0765zm0-0.22768q0.25702 0 0.4011 0.13874 0.14497 0.13874 0.14497 0.38421 0 0.24546-0.14497 0.3842-0.14408 0.13875-0.4011 0.13875-0.25792 0-0.40378-0.13875-0.14497-0.13874-0.14497-0.3842 0-0.24547 0.14497-0.38421 0.14586-0.13874 0.40378-0.13874zm1.7387 0.41355v0.60655h-0.32018v-0.46423q0-0.12896-6e-3 -0.17787-5e-3 -0.0489-0.0196-0.072-0.0187-0.0311-0.0507-0.048-0.032-0.0178-0.0729-0.0178-0.0996 0-0.15653 0.0774-0.0569 0.0765-0.0569 0.21256v0.49004h-0.31839v-0.99609h0.31839v0.14586q0.072-0.0872 0.15297-0.12807 0.0809-0.0418 0.17876-0.0418 0.17254 0 0.26148 0.10583 0.0898 0.10584 0.0898 0.30772zm1.0335-0.35841v0.24191q-0.10228-0.0427-0.19744-0.064-0.0952-0.0213-0.17966-0.0213-0.0907 0-0.13518 0.0231-0.0436 0.0222-0.0436 0.0694 0 0.0382 0.0329 0.0587 0.0338 0.0205 0.12006 0.0302l0.056 8e-3q0.24458 0.0311 0.32907 0.10228 0.0845 0.0711 0.0845 0.22323 0 0.1592-0.1174 0.23924-0.1174 0.0801-0.35041 0.0801-0.0987 0-0.20456-0.016-0.10494-0.0151-0.21611-0.0463v-0.24191q0.0952 0.0462 0.19477 0.0694 0.1005 0.0231 0.20367 0.0231 0.0934 0 0.14052-0.0258 0.0471-0.0258 0.0471-0.0765 0-0.0427-0.0329-0.0632-0.032-0.0213-0.12896-0.0329l-0.056-7e-3q-0.21256-0.0267-0.29794-0.0987-0.0854-0.072-0.0854-0.21878 0-0.15831 0.1085-0.2348 0.1085-0.0765 0.33263-0.0765 0.088 0 0.18498 0.0133 0.0969 0.0133 0.21079 0.0418zm0.73997 0.17254q-0.10583 0-0.16186 0.0765-0.0551 0.0756-0.0551 0.21879t0.0551 0.21967q0.056 0.0756 0.16186 0.0756 0.10406 0 0.1592-0.0756 0.0551-0.0765 0.0551-0.21967 0-0.14319-0.0551-0.21879-0.0551-0.0765-0.1592-0.0765zm0-0.22768q0.25703 0 0.40111 0.13874 0.14497 0.13874 0.14497 0.38421 0 0.24546-0.14497 0.3842-0.14408 0.13875-0.40111 0.13875-0.25791 0-0.40377-0.13875-0.14497-0.13874-0.14497-0.3842 0-0.24547 0.14497-0.38421 0.14586-0.13874 0.40377-0.13874zm0.73731-0.36376h0.3184v1.3839h-0.3184zm1.5787 0.88315v0.0907h-0.74441q0.0116 0.11207 0.0809 0.1681 0.0694 0.056 0.19388 0.056 0.1005 0 0.20544-0.0294 0.10584-0.0302 0.21701-0.0907v0.24547q-0.11295 0.0427-0.2259 0.064-0.11295 0.0222-0.2259 0.0222-0.27037 0-0.42067-0.13697-0.14942-0.13785-0.14942-0.38598 0-0.24369 0.14675-0.38332 0.14763-0.13963 0.40555-0.13963 0.2348 0 0.37532 0.14141 0.14141 0.14141 0.14141 0.37798zm-0.32729-0.10584q0-0.0907-0.0534-0.14585-0.0525-0.056-0.13786-0.056-0.0925 0-0.1503 0.0525-0.0578 0.0516-0.072 0.14941z" aria-label="Console"/><path d="m256.87 409.44h0.43579l0.30238 0.71061 0.30417-0.71061h0.4349v1.3278h-0.32373v-0.97119l-0.30594 0.71595h-0.21701l-0.30594-0.71595v0.97119h-0.32462zm2.436 1.1588q-0.0658 0.0872-0.14496 0.12807-0.0792 0.0409-0.18322 0.0409-0.18232 0-0.30149-0.14318-0.11918-0.14408-0.11918-0.36642 0-0.22324 0.11918-0.36554 0.11917-0.14318 0.30149-0.14318 0.10406 0 0.18322 0.0409 0.0791 0.0409 0.14496 0.12896v-0.14764h0.32018v0.8956q0 0.24013-0.15209 0.36642-0.15119 0.12718-0.43935 0.12718-0.0934 0-0.18054-0.0142-0.0872-0.0142-0.1752-0.0436v-0.24814q0.0836 0.048 0.16364 0.0711 0.08 0.024 0.16098 0.024 0.15653 0 0.22945-0.0685 0.0729-0.0685 0.0729-0.21433zm-0.20989-0.61989q-0.0987 0-0.15386 0.0729-0.0551 0.0729-0.0551 0.20634 0 0.13696 0.0534 0.20811 0.0534 0.0703 0.15564 0.0703 0.0996 0 0.15475-0.0729 0.0551-0.0729 0.0551-0.20544 0-0.13341-0.0551-0.20634-0.0551-0.0729-0.15475-0.0729zm1.7192-0.0418q0.0605-0.0925 0.14318-0.14052 0.0836-0.0489 0.18321-0.0489 0.17165 0 0.26148 0.10583 0.0898 0.10584 0.0898 0.30772v0.60655h-0.32018v-0.51939q8.9e-4 -0.0116 8.9e-4 -0.024 8.9e-4 -0.0125 8.9e-4 -0.0356 0-0.10583-0.0311-0.15297-0.0311-0.048-0.1005-0.048-0.0907 0-0.14052 0.0747-0.0489 0.0747-0.0507 0.21612v0.48915h-0.32017v-0.51939q0-0.16542-0.0285-0.21256-0.0285-0.048-0.10139-0.048-0.0916 0-0.14141 0.0756-0.0498 0.0747-0.0498 0.21434v0.49004h-0.32017v-0.99609h0.32017v0.14586q0.0587-0.0845 0.1343-0.12718 0.0765-0.0427 0.16809-0.0427 0.10317 0 0.18232 0.0498 0.0791 0.0498 0.12007 0.13963zm1.2825-0.44824v0.28282h0.32818v0.22768h-0.32818v0.42245q0 0.0694 0.0276 0.0943 0.0276 0.024 0.10939 0.024h0.16365v0.22767h-0.27304q-0.18855 0-0.2677-0.0783-0.0783-0.0792-0.0783-0.2677v-0.42245h-0.1583v-0.22768h0.1583v-0.28282z" aria-label="Mgmt"/><path d="m203.05 410.52h0.58432v0.25169h-0.96497v-0.25169l0.48471-0.42778q0.0649-0.0587 0.096-0.11473 0.0311-0.056 0.0311-0.11651 0-0.0934-0.0632-0.1503-0.0623-0.0569-0.16631-0.0569-0.08 0-0.1752 0.0347-0.0952 0.0338-0.20367 0.10139v-0.29171q0.11562-0.0383 0.22857-0.0578 0.11295-0.0205 0.22145-0.0205 0.23835 0 0.36998 0.10495 0.13252 0.10494 0.13252 0.2926 0 0.1085-0.056 0.20278-0.056 0.0934-0.23569 0.2508zm1.174 0.10762v0.52295h-0.31839v-1.375h0.31839v0.14586q0.0658-0.0872 0.14586-0.12807 0.08-0.0418 0.1841-0.0418 0.1841 0 0.30239 0.14674 0.11828 0.14586 0.11828 0.37621 0 0.23034-0.11828 0.37709-0.11829 0.14586-0.30239 0.14586-0.10406 0-0.1841-0.0409-0.08-0.0418-0.14586-0.12896zm0.21167-0.6448q-0.10227 0-0.15741 0.0756-0.0543 0.0747-0.0543 0.21612 0 0.14141 0.0543 0.217 0.0551 0.0747 0.15741 0.0747 0.10228 0 0.15564-0.0747 0.0543-0.0747 0.0543-0.217t-0.0543-0.21701q-0.0534-0.0747-0.15564-0.0747zm1.3884 0.5523h0.30239v-0.85824l-0.31039 0.064v-0.23301l0.30861-0.064h0.32551v1.0913h0.30239v0.23657h-0.92851zm1.8517-0.42867q0-0.24903-0.0471-0.35042-0.0463-0.10227-0.15653-0.10227-0.11028 0-0.15742 0.10227-0.0471 0.10139-0.0471 0.35042 0 0.25169 0.0471 0.35485 0.0471 0.10317 0.15742 0.10317 0.10939 0 0.15653-0.10317 0.0471-0.10316 0.0471-0.35485zm0.34241 3e-3q0 0.32996-0.1423 0.50961-0.1423 0.17877-0.40377 0.17877-0.26237 0-0.40466-0.17877-0.1423-0.17965-0.1423-0.50961 0-0.33084 0.1423-0.50961 0.14229-0.17965 0.40466-0.17965 0.26147 0 0.40377 0.17965 0.1423 0.17877 0.1423 0.50961zm1.4079 0.56386q-0.12807 0.0623-0.26593 0.0934-0.13785 0.0311-0.28459 0.0311-0.33174 0-0.52562-0.18499-0.19388-0.18588-0.19388-0.50339 0-0.32106 0.19744-0.50516t0.54073-0.1841q0.13252 0 0.25347 0.0249 0.12185 0.0249 0.22946 0.0738v0.27482q-0.11117-0.0632-0.22145-0.0943-0.10939-0.0311-0.21968-0.0311-0.20455 0-0.31572 0.11472-0.11029 0.11384-0.11029 0.3264 0 0.21078 0.10673 0.32551 0.10672 0.11473 0.30327 0.11473 0.0534 0 0.0987-6e-3 0.0463-7e-3 0.0827-0.0213v-0.25792h-0.20901v-0.22945h0.53363zm1.7797-1.1873v0.28104q-0.10939-0.0489-0.21345-0.0738t-0.19655-0.0249q-0.12273 0-0.18143 0.0338t-0.0587 0.10495q0 0.0534 0.0391 0.0836 0.04 0.0294 0.14408 0.0507l0.14586 0.0293q0.22145 0.0445 0.31483 0.13519 0.0934 0.0907 0.0934 0.25791 0 0.21968-0.13074 0.32729-0.12985 0.10673-0.39755 0.10673-0.12629 0-0.25347-0.024t-0.25436-0.0711v-0.28904q0.12718 0.0676 0.24547 0.10228 0.11917 0.0338 0.22946 0.0338 0.11206 0 0.17164-0.0374 0.0596-0.0374 0.0596-0.10673 0-0.0623-0.0409-0.096-0.04-0.0338-0.16098-0.0605l-0.13251-0.0293q-0.19922-0.0427-0.29172-0.13608-0.0916-0.0934-0.0916-0.25169 0-0.19833 0.12807-0.30505 0.12807-0.10673 0.3682-0.10673 0.10939 0 0.22501 0.0169 0.11562 0.016 0.23924 0.0489zm0.34776-0.0418h0.92406v0.25881h-0.58165v0.24725h0.54696v0.2588h-0.54696v0.56297h-0.34241zm1.2042 0h0.56831q0.25347 0 0.38866 0.11295 0.13607 0.11207 0.13607 0.32018 0 0.209-0.13607 0.32195-0.13519 0.11206-0.38866 0.11206h-0.2259v0.46069h-0.34241zm0.34241 0.24814v0.37087h0.18944q0.0996 0 0.15386-0.048 0.0542-0.0489 0.0542-0.13785 0-0.0889-0.0542-0.13696-0.0542-0.048-0.15386-0.048z" aria-label="2p 10G SFP"/><path d="m112.71 409.96h0.30239v-0.85824l-0.31039 0.064v-0.23301l0.30861-0.064h0.32551v1.0912h0.30238v0.23657h-0.9285zm2.3746 0.13785q-0.12807 0.0623-0.26592 0.0934t-0.2846 0.0311q-0.33173 0-0.52562-0.18499-0.19388-0.18588-0.19388-0.50339 0-0.32106 0.19744-0.50516t0.54074-0.1841q0.13251 0 0.25347 0.0249 0.12184 0.0249 0.22946 0.0738v0.27482q-0.11117-0.0632-0.22146-0.0943-0.10939-0.0311-0.21967-0.0311-0.20456 0-0.31573 0.11473-0.11028 0.11383-0.11028 0.32639 0 0.21078 0.10673 0.32551 0.10672 0.11473 0.30327 0.11473 0.0534 0 0.0987-6e-3 0.0463-7e-3 0.0827-0.0213v-0.25792h-0.209v-0.22945h0.53362zm1.7797-1.1873v0.28104q-0.10939-0.0489-0.21344-0.0738-0.10406-0.0249-0.19655-0.0249-0.12274 0-0.18144 0.0338t-0.0587 0.10495q0 0.0534 0.0391 0.0836 0.04 0.0294 0.14408 0.0507l0.14585 0.0293q0.22146 0.0445 0.31484 0.13519 0.0934 0.0907 0.0934 0.25791 0 0.21968-0.13073 0.32729-0.12985 0.10673-0.39755 0.10673-0.12629 0-0.25347-0.024t-0.25436-0.0711v-0.28904q0.12718 0.0676 0.24546 0.10228 0.11918 0.0338 0.22946 0.0338 0.11206 0 0.17165-0.0374 0.0596-0.0374 0.0596-0.10673 0-0.0623-0.0409-0.096-0.04-0.0338-0.16098-0.0605l-0.13252-0.0294q-0.19922-0.0427-0.29171-0.13608-0.0916-0.0934-0.0916-0.25169 0-0.19833 0.12807-0.30505 0.12807-0.10673 0.3682-0.10673 0.1094 0 0.22501 0.0169 0.11562 0.016 0.23924 0.0489zm0.34777-0.0418h0.92406v0.2588h-0.58165v0.24725h0.54696v0.2588h-0.54696v0.56297h-0.34241zm1.2042 0h0.56831q0.25347 0 0.38865 0.11295 0.13607 0.11206 0.13607 0.32017 0 0.209-0.13607 0.32195-0.13518 0.11206-0.38865 0.11206h-0.2259v0.46069h-0.34241zm0.34241 0.24813v0.37087h0.18943q0.0996 0 0.15386-0.048 0.0543-0.0489 0.0543-0.13785 0-0.0889-0.0543-0.13696-0.0542-0.048-0.15386-0.048zm2.0065 0.28727q-0.10584 0-0.16187 0.0765-0.0551 0.0756-0.0551 0.21879t0.0551 0.21967q0.056 0.0756 0.16187 0.0756 0.10405 0 0.1592-0.0756 0.0551-0.0765 0.0551-0.21967 0-0.14319-0.0551-0.21879-0.0551-0.0765-0.1592-0.0765zm0-0.22768q0.25703 0 0.4011 0.13874 0.14497 0.13874 0.14497 0.38421 0 0.24546-0.14497 0.3842-0.14407 0.13875-0.4011 0.13875-0.25792 0-0.40378-0.13875-0.14496-0.13874-0.14496-0.3842 0-0.24547 0.14496-0.38421 0.14586-0.13874 0.40378-0.13874zm1.4773 0.29527q-0.0418-0.0196-0.0836-0.0285-0.0409-0.01-0.0827-0.01-0.12273 0-0.18943 0.0792-0.0658 0.0783-0.0658 0.22501v0.45891h-0.31839v-0.99609h0.31839v0.16364q0.0614-0.0978 0.14052-0.14229 0.08-0.0454 0.19122-0.0454 0.016 0 0.0347 2e-3 0.0187 8.9e-4 0.0543 5e-3zm0.77291 0.48826h0.30239v-0.85824l-0.31039 0.064v-0.23301l0.30861-0.064h0.32551v1.0912h0.30238v0.23657h-0.9285zm2.3746 0.13785q-0.12807 0.0623-0.26592 0.0934t-0.2846 0.0311q-0.33174 0-0.52562-0.18499-0.19388-0.18588-0.19388-0.50339 0-0.32106 0.19744-0.50516t0.54074-0.1841q0.13251 0 0.25347 0.0249 0.12184 0.0249 0.22945 0.0738v0.27482q-0.11117-0.0632-0.22145-0.0943-0.10939-0.0311-0.21967-0.0311-0.20456 0-0.31573 0.11473-0.11028 0.11383-0.11028 0.32639 0 0.21078 0.10672 0.32551 0.10673 0.11473 0.30328 0.11473 0.0534 0 0.0987-6e-3 0.0463-7e-3 0.0827-0.0213v-0.25792h-0.209v-0.22945h0.53362zm1.3875-0.71505q0.0809 0 0.12273-0.0356 0.0418-0.0356 0.0418-0.10495 0-0.0685-0.0418-0.10406-0.0418-0.0365-0.12273-0.0365h-0.18944v0.28104zm0.0116 0.58076q0.10317 0 0.15475-0.0436 0.0525-0.0436 0.0525-0.13163 0-0.0863-0.0516-0.12895-0.0516-0.0436-0.15564-0.0436h-0.201v0.34774zm0.3184-0.47759q0.11028 0.032 0.17076 0.11828 0.0605 0.0863 0.0605 0.21167 0 0.19211-0.12985 0.28638-0.12984 0.0943-0.39488 0.0943h-0.5683v-1.3278h0.51405q0.2766 0 0.40022 0.0836 0.12451 0.0836 0.12451 0.2677 0 0.0969-0.0454 0.16542-0.0453 0.0676-0.13162 0.1005zm1.2923 0.4687h-0.5354l-0.0845 0.2419h-0.34418l0.49182-1.3278h0.40822l0.49182 1.3278h-0.34419zm-0.45002-0.24636h0.36375l-0.18143-0.52829zm1.938-0.79776v0.28104q-0.10939-0.0489-0.21345-0.0738-0.10405-0.0249-0.19655-0.0249-0.12273 0-0.18143 0.0338t-0.0587 0.10495q0 0.0534 0.0391 0.0836 0.04 0.0294 0.14408 0.0507l0.14586 0.0293q0.22145 0.0445 0.31484 0.13519 0.0934 0.0907 0.0934 0.25791 0 0.21968-0.13074 0.32729-0.12985 0.10673-0.39755 0.10673-0.12629 0-0.25347-0.024t-0.25436-0.0711v-0.28904q0.12718 0.0676 0.24547 0.10228 0.11917 0.0338 0.22946 0.0338 0.11206 0 0.17164-0.0374 0.0596-0.0374 0.0596-0.10673 0-0.0623-0.0409-0.096-0.04-0.0338-0.16097-0.0605l-0.13252-0.0294q-0.19922-0.0427-0.29171-0.13608-0.0916-0.0934-0.0916-0.25169 0-0.19833 0.12807-0.30505 0.12807-0.10673 0.3682-0.10673 0.10939 0 0.22501 0.0169 0.11562 0.016 0.23924 0.0489zm0.34777-0.0418h0.92405v0.2588h-0.58165v0.24725h0.54697v0.2588h-0.54697v0.30417h0.60122v0.2588h-0.94362zm1.1357 0.67414h0.55853v0.2588h-0.55853zm0.35844-0.67414h1.2238v0.2588h-0.44024v1.069h-0.34241v-1.069h-0.44113z" aria-label="1G SFP or 1G BASE-T"/><path d="m80.474 377.52q0-0.24902-0.04714-0.35041-0.04625-0.10228-0.15653-0.10228t-0.15742 0.10228q-0.04714 0.10139-0.04714 0.35041 0 0.2517 0.04714 0.35486 0.04714 0.10317 0.15742 0.10317 0.10939 0 0.15653-0.10317 0.04714-0.10316 0.04714-0.35486zm0.34241 3e-3q0 0.32996-0.1423 0.50961-0.1423 0.17876-0.40377 0.17876-0.26236 0-0.40466-0.17876-0.1423-0.17965-0.1423-0.50961 0-0.33084 0.1423-0.50961 0.1423-0.17965 0.40466-0.17965 0.26148 0 0.40377 0.17965 0.1423 0.17877 0.1423 0.50961z" aria-label="0"/><path d="m91.124 377.95h0.30239v-0.85824l-0.31039 0.064v-0.23301l0.30861-0.064h0.32551v1.0913h0.30239v0.23657h-0.9285z" aria-label="1"/><path d="m77.977 410.52h0.58432v0.25169h-0.96497v-0.25169l0.48471-0.42778q0.06492-0.0587 0.09605-0.11473 0.03113-0.056 0.03113-0.11651 0-0.0934-0.06315-0.1503-0.06226-0.0569-0.16631-0.0569-0.08004 0-0.1752 0.0347-0.09516 0.0338-0.20367 0.10139v-0.29171q0.11562-0.0383 0.22857-0.0578 0.11295-0.0205 0.22145-0.0205 0.23835 0 0.36998 0.10495 0.13252 0.10494 0.13252 0.2926 0 0.1085-0.05603 0.20278-0.05603 0.0934-0.23568 0.2508zm1.174 0.10762v0.52295h-0.3184v-1.375h0.3184v0.14586q0.06581-0.0872 0.14586-0.12807 0.08004-0.0418 0.1841-0.0418 0.1841 0 0.30239 0.14674 0.11829 0.14586 0.11829 0.37621 0 0.23034-0.11829 0.37709-0.11829 0.14586-0.30239 0.14586-0.10406 0-0.1841-0.0409-0.08004-0.0418-0.14586-0.12896zm0.21167-0.6448q-0.10228 0-0.15742 0.0756-0.05425 0.0747-0.05425 0.21612 0 0.14141 0.05425 0.217 0.05514 0.0747 0.15742 0.0747t0.15564-0.0747q0.05425-0.0747 0.05425-0.217t-0.05425-0.21701q-0.05336-0.0747-0.15564-0.0747zm1.3884 0.5523h0.30239v-0.85824l-0.31039 0.064v-0.23301l0.30861-0.064h0.32551v1.0913h0.30239v0.23657h-0.9285zm2.3746 0.13785q-0.12807 0.0623-0.26592 0.0934t-0.2846 0.0311q-0.33174 0-0.52562-0.18499-0.19388-0.18588-0.19388-0.50339 0-0.32106 0.19744-0.50516t0.54074-0.1841q0.13252 0 0.25347 0.0249 0.12184 0.0249 0.22946 0.0738v0.27482q-0.11117-0.0632-0.22145-0.0943-0.10939-0.0311-0.21967-0.0311-0.20456 0-0.31573 0.11472-0.11028 0.11384-0.11028 0.3264 0 0.21078 0.10672 0.32551t0.30328 0.11473q0.05336 0 0.09872-6e-3 0.04625-7e-3 0.08271-0.0213v-0.25792h-0.209v-0.22945h0.53362zm1.3875-0.71505q0.08093 0 0.12273-0.0356t0.0418-0.10495q0-0.0685-0.0418-0.10406-0.0418-0.0365-0.12273-0.0365h-0.18944v0.28104zm0.01156 0.58076q0.10317 0 0.15475-0.0436 0.05247-0.0436 0.05247-0.13163 0-0.0863-0.05158-0.12896-0.05158-0.0436-0.15564-0.0436h-0.201v0.34774zm0.3184-0.47759q0.11028 0.032 0.17076 0.11828 0.06048 0.0863 0.06048 0.21167 0 0.19211-0.12985 0.28638-0.12985 0.0943-0.39488 0.0943h-0.56831v-1.3278h0.51406q0.27659 0 0.40022 0.0836 0.12451 0.0836 0.12451 0.2677 0 0.0969-0.04536 0.16542-0.04536 0.0676-0.13163 0.1005zm1.2923 0.4687h-0.5354l-0.08449 0.2419h-0.34419l0.49182-1.3278h0.40822l0.49182 1.3278h-0.34419zm-0.45002-0.24636h0.36375l-0.18143-0.52829zm1.938-0.79776v0.28104q-0.10939-0.0489-0.21345-0.0738t-0.19655-0.0249q-0.12273 0-0.18143 0.0338t-0.0587 0.10495q0 0.0534 0.03913 0.0836 0.04002 0.0294 0.14408 0.0507l0.14586 0.0293q0.22145 0.0445 0.31484 0.13519 0.09338 0.0907 0.09338 0.25791 0 0.21968-0.13074 0.32729-0.12985 0.10673-0.39755 0.10673-0.12629 0-0.25347-0.024t-0.25436-0.0711v-0.28904q0.12718 0.0676 0.24547 0.10228 0.11918 0.0338 0.22946 0.0338 0.11206 0 0.17165-0.0374t0.05959-0.10673q0-0.0623-0.04091-0.096-0.04002-0.0338-0.16098-0.0605l-0.13252-0.0293q-0.19922-0.0427-0.29171-0.13608-0.0916-0.0934-0.0916-0.25169 0-0.19833 0.12807-0.30505 0.12807-0.10673 0.3682-0.10673 0.10939 0 0.22501 0.0169 0.11562 0.016 0.23924 0.0489zm0.34776-0.0418h0.92406v0.25881h-0.58165v0.24725h0.54696v0.2588h-0.54696v0.30417h0.60122v0.2588h-0.94362zm1.1357 0.67415h0.55852v0.2588h-0.55852zm0.35844-0.67415h1.2238v0.25881h-0.44024v1.069h-0.34241v-1.069h-0.44113zm1.9549 0h0.56831q0.25347 0 0.38865 0.11295 0.13607 0.11207 0.13607 0.32018 0 0.209-0.13607 0.32195-0.13518 0.11206-0.38865 0.11206h-0.2259v0.46069h-0.34241zm0.34241 0.24814v0.37087h0.18944q0.09961 0 0.15386-0.048 0.05425-0.0489 0.05425-0.13785 0-0.0889-0.05425-0.13696-0.05425-0.048-0.15386-0.048zm1.4123 0.28727q-0.10584 0-0.16186 0.0765-0.05514 0.0756-0.05514 0.21879t0.05514 0.21967q0.05603 0.0756 0.16186 0.0756 0.10406 0 0.1592-0.0756 0.05514-0.0765 0.05514-0.21967 0-0.14319-0.05514-0.21879-0.05514-0.0765-0.1592-0.0765zm0-0.22768q0.25703 0 0.40111 0.13874 0.14497 0.13874 0.14497 0.38421 0 0.24546-0.14497 0.3842-0.14408 0.13875-0.40111 0.13875-0.25792 0-0.40377-0.13875-0.14497-0.13874-0.14497-0.3842 0-0.24547 0.14497-0.38421 0.14586-0.13874 0.40377-0.13874zm0.75154-0.30773h0.92406v0.25881h-0.58165v0.24725h0.54696v0.2588h-0.54696v0.30417h0.60121v0.2588h-0.94362z" aria-label="2p 1G BASE-T PoE"/></g></g><g stroke-linejoin="round"><g stroke-width=".068303"><path d="m38.88 394.52v-0.85113h0.25169v0.57809h0.20544q-0.01067-0.0391-0.01601-0.0783-0.0062-0.04-0.0062-0.0827 0-0.2428 0.12184-0.37799 0.12096-0.13518 0.33796-0.13518 0.21523 0 0.33707 0.14763 0.12184 0.14675 0.12184 0.40823 0 0.11295-0.02223 0.22412-0.02134 0.11028-0.06581 0.21967h-0.26948q0.06226-0.1085 0.09338-0.20544 0.03113-0.0978 0.03113-0.1841 0-0.12452-0.06048-0.19566-0.06137-0.072-0.16542-0.072-0.10495 0-0.16542 0.072-0.06048 0.0711-0.06048 0.19566 0 0.0738 0.01957 0.15742 0.01868 0.0836 0.0587 0.17965zm0-1.1562v-1.0006h0.19299l1.1348 0.51762v0.33351l-1.0761-0.49004v0.63946zm0-1.7085v-0.34418l0.98009-0.35219-0.98009-0.35131v-0.34418l1.3278 0.49182v0.40822zm0.49716-3.031q-0.09249-0.0605-0.14052-0.14319-0.04891-0.0836-0.04891-0.18321 0-0.17165 0.10584-0.26148 0.10584-0.0898 0.30772-0.0898h0.60655v0.32017h-0.5194q-0.01156-8.9e-4 -0.02401-8.9e-4 -0.01245-8.9e-4 -0.03558-8.9e-4 -0.10584 0-0.15297 0.0311-0.04803 0.0311-0.04803 0.1005 0 0.0907 0.07471 0.14052 0.07471 0.0489 0.21612 0.0507h0.48915v0.32017h-0.51939q-0.16542 0-0.21256 0.0285-0.04803 0.0285-0.04803 0.10139 0 0.0916 0.0756 0.14141 0.07471 0.0498 0.21434 0.0498h0.49004v0.32017h-0.99609v-0.32017h0.14586q-0.08449-0.0587-0.12718-0.1343-0.04269-0.0765-0.04269-0.16809 0-0.10317 0.0498-0.18232 0.0498-0.0792 0.13963-0.12006zm0.38243-1.3812q0 0.0996 0.0338 0.15031 0.0338 0.0498 0.09961 0.0498 0.06048 0 0.09516-0.04 0.0338-0.0409 0.0338-0.11295 0-0.0898-0.06403-0.15119-0.06492-0.0614-0.16186-0.0614h-0.03646zm-0.12006-0.48648h0.56831v0.32106h-0.14764q0.09072 0.064 0.13252 0.14408 0.04091 0.08 0.04091 0.19477 0 0.15475-0.08983 0.25169-0.09072 0.096-0.23479 0.096-0.17521 0-0.25703-0.12006-0.08182-0.12096-0.08182-0.37887v-0.18766h-0.0249q-0.0756 0-0.11028 0.0596-0.03558 0.0596-0.03558 0.18588 0 0.10227 0.02045 0.19032 0.02046 0.0881 0.06137 0.16364h-0.2428q-0.0249-0.10227-0.03735-0.20544-0.01334-0.10317-0.01334-0.20633 0-0.26948 0.10672-0.38866 0.10584-0.12006 0.34508-0.12006zm0.0587-0.50786-0.48648 0.35931v-0.33707l0.29527-0.20367-0.29527-0.20633v-0.33707l0.48471 0.3593 0.51139-0.37709v0.33707l-0.31484 0.22412 0.31484 0.22146v0.33707zm-0.88226-1.7574h1.8214v0.20188h-1.8214zm0.72662-1.624q-0.24902 0-0.35041 0.0471-0.10228 0.0462-0.10228 0.15653 0 0.11028 0.10228 0.15742 0.10139 0.0471 0.35041 0.0471 0.25169 0 0.35486-0.0471t0.10317-0.15742q0-0.10939-0.10317-0.15653-0.10317-0.0471-0.35486-0.0471zm0.0027-0.3424q0.32996 0 0.50961 0.14229 0.17876 0.1423 0.17876 0.40378 0 0.26236-0.17876 0.40466-0.17965 0.1423-0.50961 0.1423-0.33085 0-0.50961-0.1423-0.17965-0.1423-0.17965-0.40466 0-0.26148 0.17965-0.40378 0.17876-0.14229 0.50961-0.14229zm0.31839-0.23304v-0.32017h0.34419v0.32017zm-0.37176-1.3145q0.03469-0.1343 0.12096-0.20367 0.08538-0.0703 0.2179-0.0703 0.19744 0 0.30061 0.1512 0.10228 0.15119 0.10228 0.44112 0 0.10228-0.0169 0.20545-0.01601 0.10228-0.04891 0.20277h-0.26414q0.04803-0.096 0.07293-0.19032 0.02401-0.0952 0.02401-0.18677 0-0.13607-0.04714-0.20811-0.04714-0.0729-0.13518-0.0729-0.09072 0-0.13696 0.0747-0.04714 0.0738-0.04714 0.21878v0.13697h-0.22056v-0.14408q0-0.12896-0.04002-0.19211-0.04091-0.0631-0.12362-0.0631-0.07649 0-0.11829 0.0614t-0.0418 0.17343q0 0.0827 0.01868 0.1672t0.05514 0.16809h-0.2508q-0.02846-0.10138-0.04269-0.20099-0.01423-0.0996-0.01423-0.19566 0-0.25881 0.08538-0.38688 0.08449-0.12896 0.25525-0.12896 0.11651 0 0.19122 0.0614 0.07382 0.0614 0.10406 0.18143zm0.47404-1.3519v0.5354l0.24191 0.0845v0.34419l-1.3278-0.49182v-0.40822l1.3278-0.49182v0.34418zm-0.24636 0.45002v-0.36375l-0.52829 0.18143z" aria-label="57 V max | 0.3A"/><path d="m67.421 407.42q0.10761 0 0.15386-0.04 0.04714-0.04 0.04714-0.13163 0-0.0907-0.04714-0.12985-0.04625-0.0391-0.15386-0.0391h-0.14408v0.34063zm-0.14408 0.23657v0.5025h-0.34241v-1.3278h0.52295q0.26236 0 0.38421 0.088 0.12273 0.0881 0.12273 0.27838 0 0.13162-0.06404 0.21611-0.06314 0.0845-0.19121 0.12452 0.07026 0.016 0.1254 0.0729 0.05603 0.056 0.11295 0.17076l0.18588 0.3771h-0.36464l-0.16187-0.3299q-0.04891-0.0996-0.09961-0.13607-0.0498-0.0365-0.13341-0.0365zm2.0002 2e-3v0.0907h-0.7444q0.01156 0.11206 0.08093 0.16809 0.06937 0.056 0.19388 0.056 0.1005 0 0.20544-0.0294 0.10584-0.0302 0.21701-0.0907v0.24547q-0.11295 0.0427-0.2259 0.064-0.11295 0.0222-0.2259 0.0222-0.27037 0-0.42067-0.13696-0.14941-0.13786-0.14941-0.38599 0-0.24369 0.14675-0.38332 0.14764-0.13963 0.40555-0.13963 0.23479 0 0.37531 0.14141 0.14141 0.14141 0.14141 0.37798zm-0.32729-0.10583q0-0.0907-0.05336-0.14586-0.05247-0.056-0.13785-0.056-0.09249 0-0.1503 0.0525-0.05781 0.0516-0.07204 0.14942zm1.3065-0.35842v0.24191q-0.10228-0.0427-0.19744-0.064t-0.17965-0.0213q-0.09072 0-0.13518 0.0231-0.04358 0.0222-0.04358 0.0694 0 0.0383 0.03291 0.0587 0.0338 0.0205 0.12006 0.0302l0.05603 8e-3q0.24458 0.0311 0.32907 0.10227 0.08449 0.0711 0.08449 0.22323 0 0.1592-0.1174 0.23925-0.1174 0.08-0.35041 0.08-0.09872 0-0.20456-0.016-0.10495-0.0151-0.21612-0.0462v-0.24191q0.09516 0.0462 0.19477 0.0694 0.1005 0.0231 0.20367 0.0231 0.09338 0 0.14052-0.0258t0.04714-0.0765q0-0.0427-0.03291-0.0631-0.03202-0.0213-0.12896-0.0329l-0.05603-7e-3q-0.21256-0.0267-0.29794-0.0987t-0.08538-0.21878q0-0.15831 0.1085-0.23479 0.1085-0.0765 0.33262-0.0765 0.08805 0 0.18499 0.0133t0.21078 0.0418zm1.2603 0.46425v0.0907h-0.7444q0.01156 0.11206 0.08093 0.16809 0.06937 0.056 0.19388 0.056 0.1005 0 0.20544-0.0294 0.10584-0.0302 0.21701-0.0907v0.24547q-0.11295 0.0427-0.2259 0.064-0.11295 0.0222-0.2259 0.0222-0.27037 0-0.42067-0.13696-0.14942-0.13786-0.14942-0.38599 0-0.24369 0.14675-0.38332 0.14764-0.13963 0.40555-0.13963 0.23479 0 0.37531 0.14141 0.14141 0.14141 0.14141 0.37798zm-0.32729-0.10583q0-0.0907-0.05336-0.14586-0.05247-0.056-0.13785-0.056-0.0925 0-0.1503 0.0525-0.05781 0.0516-0.07204 0.14942zm0.87605-0.67237v0.28282h0.32818v0.22768h-0.32818v0.42245q0 0.0694 0.02757 0.0943 0.02757 0.024 0.10939 0.024h0.16364v0.22768h-0.27304q-0.18855 0-0.2677-0.0783-0.07826-0.0791-0.07826-0.2677v-0.42245h-0.15831v-0.22768h0.15831v-0.28282z" fill="#fff"/><path d="m67.599 410.64q-0.09427 0.0489-0.19655 0.0738t-0.21345 0.0249q-0.33174 0-0.52562-0.18499-0.19388-0.18588-0.19388-0.50338 0-0.3184 0.19388-0.50339 0.19388-0.18587 0.52562-0.18587 0.11117 0 0.21345 0.0249t0.19655 0.0738v0.27481q-0.09516-0.0649-0.18766-0.0952-0.09249-0.0302-0.19477-0.0302-0.18321 0-0.28816 0.1174-0.10495 0.11739-0.10495 0.32373 0 0.20544 0.10495 0.32284t0.28816 0.1174q0.10228 0 0.19477-0.0302t0.18766-0.0952zm0.70351-0.7195q-0.10584 0-0.16186 0.0765-0.05514 0.0756-0.05514 0.21878 0 0.14319 0.05514 0.21968 0.05603 0.0756 0.16186 0.0756 0.10406 0 0.1592-0.0756 0.05514-0.0765 0.05514-0.21968 0-0.14319-0.05514-0.21878-0.05514-0.0765-0.1592-0.0765zm0-0.22768q0.25703 0 0.40111 0.13874 0.14497 0.13874 0.14497 0.38421t-0.14497 0.38421q-0.14408 0.13874-0.40111 0.13874-0.25792 0-0.40377-0.13874-0.14497-0.13874-0.14497-0.38421t0.14497-0.38421q0.14586-0.13874 0.40377-0.13874zm1.7387 0.41356v0.60655h-0.32017v-0.46423q0-0.12896-0.0062-0.17788-0.0053-0.0489-0.01957-0.072-0.01868-0.0311-0.05069-0.048-0.03202-0.0178-0.07293-0.0178-0.09961 0-0.15653 0.0774-0.05692 0.0765-0.05692 0.21256v0.49004h-0.31839v-0.9961h0.31839v0.14586q0.07204-0.0872 0.15297-0.12807 0.08093-0.0418 0.17876-0.0418 0.17254 0 0.26148 0.10584 0.08983 0.10583 0.08983 0.30772zm0.91074-0.77731v0.209h-0.1761q-0.06759 0-0.09427 0.0249-0.02668 0.024-0.02668 0.0845v0.0694h0.27215v0.22768h-0.27215v0.76842h-0.3184v-0.76842h-0.15831v-0.22768h0.15831v-0.0694q0-0.16275 0.09072-0.24013 0.09072-0.0783 0.28104-0.0783zm0.09696 0.38776h0.31839v0.9961h-0.31839zm0-0.38776h0.31839v0.25969h-0.31839zm1.262 1.2149q-0.06581 0.0872-0.14497 0.12807-0.07915 0.0409-0.18321 0.0409-0.18232 0-0.3015-0.14319-0.11918-0.14408-0.11918-0.36642 0-0.22323 0.11918-0.36553 0.11918-0.14319 0.3015-0.14319 0.10406 0 0.18321 0.0409t0.14497 0.12896v-0.14764h0.32017v0.8956q0 0.24013-0.15208 0.36642-0.15119 0.12718-0.43935 0.12718-0.09338 0-0.18054-0.0142t-0.17521-0.0436v-0.24813q0.0836 0.048 0.16364 0.0711 0.08004 0.024 0.16098 0.024 0.15653 0 0.22946-0.0685t0.07293-0.21434zm-0.20989-0.61989q-0.09872 0-0.15386 0.0729t-0.05514 0.20633q0 0.13696 0.05336 0.20811 0.05336 0.0703 0.15564 0.0703 0.09961 0 0.15475-0.0729t0.05514-0.20544q0-0.13341-0.05514-0.20633-0.05514-0.0729-0.15475-0.0729z" fill="#fff"/></g><path d="m140.84 409.53h-6.1273" fill="none" stroke="#fff" stroke-width=".15"/><path d="m110.94 409.53h-6.1273" fill="none" stroke="#fff" stroke-width=".15"/><path d="m160.62 409.96h0.30239v-0.85824l-0.31039 0.064v-0.23301l0.30861-0.064h0.32551v1.0912h0.30238v0.23657h-0.9285zm2.3746 0.13785q-0.12807 0.0623-0.26592 0.0934t-0.2846 0.0311q-0.33173 0-0.52562-0.18499-0.19388-0.18588-0.19388-0.50339 0-0.32106 0.19744-0.50516t0.54074-0.1841q0.13251 0 0.25347 0.0249 0.12184 0.0249 0.22946 0.0738v0.27482q-0.11118-0.0632-0.22146-0.0943-0.10939-0.0311-0.21967-0.0311-0.20456 0-0.31573 0.11473-0.11028 0.11383-0.11028 0.32639 0 0.21078 0.10672 0.32551 0.10673 0.11473 0.30328 0.11473 0.0534 0 0.0987-6e-3 0.0463-7e-3 0.0827-0.0213v-0.25792h-0.209v-0.22945h0.53362zm1.7797-1.1873v0.28104q-0.10939-0.0489-0.21345-0.0738-0.10405-0.0249-0.19655-0.0249-0.12273 0-0.18143 0.0338t-0.0587 0.10495q0 0.0534 0.0391 0.0836 0.04 0.0294 0.14407 0.0507l0.14586 0.0293q0.22145 0.0445 0.31484 0.13519 0.0934 0.0907 0.0934 0.25791 0 0.21968-0.13074 0.32729-0.12984 0.10673-0.39754 0.10673-0.12629 0-0.25347-0.024t-0.25436-0.0711v-0.28904q0.12718 0.0676 0.24546 0.10228 0.11918 0.0338 0.22946 0.0338 0.11206 0 0.17165-0.0374 0.0596-0.0374 0.0596-0.10673 0-0.0623-0.0409-0.096-0.04-0.0338-0.16097-0.0605l-0.13252-0.0294q-0.19922-0.0427-0.29171-0.13608-0.0916-0.0934-0.0916-0.25169 0-0.19833 0.12807-0.30505 0.12807-0.10673 0.3682-0.10673 0.10939 0 0.22501 0.0169 0.11562 0.016 0.23924 0.0489zm0.34777-0.0418h0.92405v0.2588h-0.58164v0.24725h0.54696v0.2588h-0.54696v0.56297h-0.34241zm1.2042 0h0.5683q0.25348 0 0.38866 0.11295 0.13607 0.11206 0.13607 0.32017 0 0.209-0.13607 0.32195-0.13518 0.11206-0.38866 0.11206h-0.2259v0.46069h-0.3424zm0.3424 0.24813v0.37087h0.18944q0.0996 0 0.15386-0.048 0.0542-0.0489 0.0542-0.13785 0-0.0889-0.0542-0.13696-0.0542-0.048-0.15386-0.048zm2.0065 0.28727q-0.10584 0-0.16187 0.0765-0.0551 0.0756-0.0551 0.21879t0.0551 0.21967q0.056 0.0756 0.16187 0.0756 0.10405 0 0.15919-0.0756 0.0551-0.0765 0.0551-0.21967 0-0.14319-0.0551-0.21879-0.0551-0.0765-0.15919-0.0765zm0-0.22768q0.25702 0 0.4011 0.13874 0.14497 0.13874 0.14497 0.38421 0 0.24546-0.14497 0.3842-0.14408 0.13875-0.4011 0.13875-0.25792 0-0.40378-0.13875-0.14496-0.13874-0.14496-0.3842 0-0.24547 0.14496-0.38421 0.14586-0.13874 0.40378-0.13874zm1.4773 0.29527q-0.0418-0.0196-0.0836-0.0285-0.0409-0.01-0.0827-0.01-0.12273 0-0.18944 0.0792-0.0658 0.0783-0.0658 0.22501v0.45891h-0.31839v-0.99609h0.31839v0.16364q0.0614-0.0978 0.14052-0.14229 0.08-0.0454 0.19122-0.0454 0.016 0 0.0347 2e-3 0.0187 8.9e-4 0.0542 5e-3zm0.77291 0.48826h0.30238v-0.85824l-0.31039 0.064v-0.23301l0.30862-0.064h0.3255v1.0912h0.30239v0.23657h-0.9285zm2.3746 0.13785q-0.12807 0.0623-0.26592 0.0934-0.13786 0.0311-0.2846 0.0311-0.33174 0-0.52562-0.18499-0.19388-0.18588-0.19388-0.50339 0-0.32106 0.19744-0.50516t0.54074-0.1841q0.13251 0 0.25347 0.0249 0.12184 0.0249 0.22945 0.0738v0.27482q-0.11117-0.0632-0.22145-0.0943-0.10939-0.0311-0.21967-0.0311-0.20456 0-0.31573 0.11473-0.11028 0.11383-0.11028 0.32639 0 0.21078 0.10672 0.32551 0.10673 0.11473 0.30328 0.11473 0.0534 0 0.0987-6e-3 0.0462-7e-3 0.0827-0.0213v-0.25792h-0.209v-0.22945h0.53362zm1.3875-0.71505q0.0809 0 0.12273-0.0356 0.0418-0.0356 0.0418-0.10495 0-0.0685-0.0418-0.10406-0.0418-0.0365-0.12273-0.0365h-0.18944v0.28104zm0.0116 0.58076q0.10317 0 0.15475-0.0436 0.0525-0.0436 0.0525-0.13163 0-0.0863-0.0516-0.12895-0.0516-0.0436-0.15564-0.0436h-0.201v0.34774zm0.31839-0.47759q0.11029 0.032 0.17076 0.11828 0.0605 0.0863 0.0605 0.21167 0 0.19211-0.12985 0.28638-0.12984 0.0943-0.39488 0.0943h-0.5683v-1.3278h0.51405q0.2766 0 0.40022 0.0836 0.12451 0.0836 0.12451 0.2677 0 0.0969-0.0454 0.16542-0.0454 0.0676-0.13163 0.1005zm1.2923 0.4687h-0.5354l-0.0845 0.2419h-0.34419l0.49183-1.3278h0.40822l0.49182 1.3278h-0.34419zm-0.45002-0.24636h0.36375l-0.18143-0.52829zm1.938-0.79776v0.28104q-0.10939-0.0489-0.21345-0.0738t-0.19655-0.0249q-0.12273 0-0.18143 0.0338t-0.0587 0.10495q0 0.0534 0.0391 0.0836 0.04 0.0294 0.14408 0.0507l0.14586 0.0293q0.22145 0.0445 0.31483 0.13519 0.0934 0.0907 0.0934 0.25791 0 0.21968-0.13074 0.32729-0.12985 0.10673-0.39755 0.10673-0.12629 0-0.25347-0.024t-0.25436-0.0711v-0.28904q0.12718 0.0676 0.24547 0.10228 0.11917 0.0338 0.22946 0.0338 0.11206 0 0.17164-0.0374 0.0596-0.0374 0.0596-0.10673 0-0.0623-0.0409-0.096-0.04-0.0338-0.16098-0.0605l-0.13251-0.0294q-0.19922-0.0427-0.29172-0.13608-0.0916-0.0934-0.0916-0.25169 0-0.19833 0.12807-0.30505 0.12807-0.10673 0.3682-0.10673 0.10939 0 0.22501 0.0169 0.11562 0.016 0.23924 0.0489zm0.34776-0.0418h0.92406v0.2588h-0.58165v0.24725h0.54696v0.2588h-0.54696v0.30417h0.60122v0.2588h-0.94363zm1.1358 0.67414h0.55853v0.2588h-0.55853zm0.35844-0.67414h1.2238v0.2588h-0.44023v1.069h-0.34241v-1.069h-0.44113z" fill="#fff" stroke-width=".068303" aria-label="1G SFP or 1G BASE-T"/></g><g fill="none" stroke="#fff" stroke-linejoin="round" stroke-width=".15"><path d="m188.75 409.53h-6.1273"/><path d="m158.86 409.53h-6.1273"/><path d="m168.52 387.92h-16.034"/><path d="m189.51 387.85h-16.034"/></g><g stroke-linejoin="round"><path d="m170.76 387.8q0.13429 0.0347 0.20366 0.12095 0.0703 0.0854 0.0703 0.2179 0 0.19744-0.15119 0.3006-0.15119 0.10228-0.44113 0.10228-0.10228 0-0.20544-0.0169-0.10228-0.016-0.20278-0.0489v-0.26414q0.096 0.048 0.19033 0.0729 0.0952 0.024 0.18676 0.024 0.13608 0 0.20812-0.0471 0.0729-0.0471 0.0729-0.13518 0-0.0907-0.0747-0.13697-0.0738-0.0471-0.21879-0.0471h-0.13696v-0.22057h0.14408q0.12896 0 0.1921-0.04 0.0632-0.0409 0.0632-0.12362 0-0.0765-0.0614-0.11829-0.0614-0.0418-0.17343-0.0418-0.0827 0-0.1672 0.0187t-0.16809 0.0551v-0.2508q0.10139-0.0285 0.201-0.0427 0.0996-0.0142 0.19566-0.0142 0.25881 0 0.38688 0.0854 0.12895 0.0845 0.12895 0.25525 0 0.1165-0.0614 0.19121-0.0614 0.0738-0.18143 0.10406z" fill="#fff" stroke-width=".068303" aria-label="3"/><path d="m120.85 387.92h-16.034" fill="none" stroke="#fff" stroke-width=".15"/><path d="m141.85 387.85h-16.034" fill="none" stroke="#fff" stroke-width=".15"/></g><g fill="#fff"><path d="m122.77 388.26h0.58432v0.25169h-0.96497v-0.25169l0.48471-0.42779q0.0649-0.0587 0.0961-0.11473 0.0311-0.056 0.0311-0.11651 0-0.0934-0.0631-0.1503-0.0623-0.0569-0.16631-0.0569-0.08 0-0.1752 0.0347-0.0952 0.0338-0.20367 0.10139v-0.29171q0.11562-0.0382 0.22857-0.0578 0.11295-0.0205 0.22145-0.0205 0.23835 0 0.36998 0.10495 0.13252 0.10495 0.13252 0.2926 0 0.10851-0.056 0.20278-0.056 0.0934-0.23568 0.2508z" stroke-linejoin="round" stroke-width=".068303" aria-label="2"/><path d="m82.877 378.18h-1.4081l0.70407-1.2195z"/><path d="m89.296 376.96h1.4081l-0.70407 1.2195z"/><g stroke-linejoin="round"><path d="m202.67 377.14-0.37532 0.55586h0.37532zm-0.0569-0.28193h0.38065v0.83779h0.18943v0.24813h-0.18943v0.24191h-0.32373v-0.24191h-0.58877v-0.29349z" stroke-width=".068303" aria-label="4"/><path d="m213.47 376.86h0.85113v0.25169h-0.57809v0.20545q0.0391-0.0107 0.0783-0.016 0.04-6e-3 0.0827-6e-3 0.2428 0 0.37798 0.12185 0.13519 0.12095 0.13519 0.33796 0 0.21522-0.14764 0.33707-0.14674 0.12184-0.40822 0.12184-0.11295 0-0.22412-0.0222-0.11028-0.0213-0.21967-0.0658v-0.26947q0.1085 0.0622 0.20544 0.0934 0.0978 0.0311 0.1841 0.0311 0.12451 0 0.19566-0.0605 0.072-0.0614 0.072-0.16542 0-0.10495-0.072-0.16543-0.0711-0.0605-0.19566-0.0605-0.0738 0-0.15742 0.0196-0.0836 0.0187-0.17965 0.0587z" stroke-width=".068303" aria-label="5"/><path d="m205.24 378.18h-1.4081l0.70407-1.2195z" stroke-width=".15"/><path d="m211.66 376.97h1.4081l-0.70407 1.2195z" stroke-width=".15"/></g></g></svg>
