<svg width="318" height="44" version="1.1" viewBox="37.333333 394.66667 318 44" xmlns="http://www.w3.org/2000/svg"><rect x="37.333" y="394.67" width="317.76" height="43.967" fill="#5d6a6f" stroke-width="1.7558"/><rect x="69.568" y="405.27" width="115.67" height="30.928" fill="none" stroke="#434b4d" stroke-width=".40988"/><rect x="69.568" y="405.27" width="115.66" height="30.928" rx="1.2839" ry="1.1777" fill="#687174" stroke-width="2.0494"/><rect x="69.568" y="405.27" width="115.66" height="30.928" rx="1.2839" ry="1.1777" fill="none" stroke="#525a5d" stroke-linejoin="round" stroke-width=".40988"/><rect x="298.79" y="400.79" width="35.647" height="10.106" fill="#3c584c" stroke="#7f7f7f" stroke-width=".249"/><rect x="38.408" y="415.38" width="3.4665" height="20.821" fill="#434b4d" stroke-width="2.0494"/><rect x="38.408" y="415.38" width="3.4665" height="20.821" fill="none" stroke="#434b4d" stroke-width=".40988"/><rect x="38.806" y="415.74" width="3.0687" height="20.464" rx="1.2839" ry="1.1777" fill="#687174" stroke-width="2.0494"/><rect x="38.806" y="415.74" width="3.0687" height="20.464" rx="1.2839" ry="1.1777" fill="none" stroke="#525a5d" stroke-linejoin="round" stroke-width=".40988"/><rect x="43.605" y="415.38" width="3.4665" height="20.821" fill="#434b4d" stroke-width="2.0494"/><rect x="43.605" y="415.38" width="3.4665" height="20.821" fill="none" stroke="#434b4d" stroke-width=".40988"/><rect x="44.003" y="415.74" width="3.0687" height="20.464" rx="1.2839" ry="1.1777" fill="#687174" stroke-width="2.0494"/><rect x="44.003" y="415.74" width="3.0687" height="20.464" rx="1.2839" ry="1.1777" fill="none" stroke="#525a5d" stroke-linejoin="round" stroke-width=".40988"/><rect x="48.801" y="415.38" width="3.4665" height="20.821" fill="#434b4d" stroke-width="2.0494"/><rect x="48.801" y="415.38" width="3.4665" height="20.821" fill="none" stroke="#434b4d" stroke-width=".40988"/><rect x="49.199" y="415.74" width="3.0687" height="20.464" rx="1.2839" ry="1.1777" fill="#687174" stroke-width="2.0494"/><rect x="49.199" y="415.74" width="3.0687" height="20.464" rx="1.2839" ry="1.1777" fill="none" stroke="#525a5d" stroke-linejoin="round" stroke-width=".40988"/><rect x="53.996" y="415.38" width="3.4665" height="20.821" fill="#434b4d" stroke-width="2.0494"/><rect x="53.996" y="415.38" width="3.4665" height="20.821" fill="none" stroke="#434b4d" stroke-width=".40988"/><rect x="54.394" y="415.74" width="3.0687" height="20.464" rx="1.2839" ry="1.1777" fill="#687174" stroke-width="2.0494"/><rect x="54.394" y="415.74" width="3.0687" height="20.464" rx="1.2839" ry="1.1777" fill="none" stroke="#525a5d" stroke-linejoin="round" stroke-width=".40988"/><rect x="59.194" y="415.38" width="3.4665" height="20.821" fill="#434b4d" stroke-width="2.0494"/><rect x="59.194" y="415.38" width="3.4665" height="20.821" fill="none" stroke="#434b4d" stroke-width=".40988"/><rect x="59.592" y="415.74" width="3.0687" height="20.464" rx="1.2839" ry="1.1777" fill="#687174" stroke-width="2.0494"/><rect x="59.592" y="415.74" width="3.0687" height="20.464" rx="1.2839" ry="1.1777" fill="none" stroke="#525a5d" stroke-linejoin="round" stroke-width=".40988"/><rect x="64.389" y="415.38" width="3.4665" height="20.821" fill="#434b4d" stroke-width="2.0494"/><rect x="64.389" y="415.38" width="3.4665" height="20.821" fill="none" stroke="#434b4d" stroke-width=".40988"/><rect x="64.787" y="415.74" width="3.0687" height="20.464" rx="1.2839" ry="1.1777" fill="#687174" stroke-width="2.0494"/><rect x="64.787" y="415.74" width="3.0687" height="20.464" rx="1.2839" ry="1.1777" fill="none" stroke="#525a5d" stroke-linejoin="round" stroke-width=".40988"/><rect x="187.5" y="415.38" width="3.9094" height="20.829" fill="#434b4d" stroke-width="1.6527"/><rect x="187.5" y="415.38" width="3.9094" height="20.829" fill="none" stroke="#434b4d" stroke-width=".33054"/><rect x="187.97" y="416.1" width="3.4279" height="20.116" rx=".83466" ry="1.1781" fill="#687174" stroke-width="1.6527"/><rect x="187.69" y="415.75" width="3.7063" height="20.464" rx=".83466" ry="1.1781" fill="none" stroke="#525a5d" stroke-linejoin="round" stroke-width=".33054"/><rect x="350.42" y="415.46" width="3.4665" height="20.821" fill="#434b4d" stroke-width="2.0494"/><rect x="350.42" y="415.46" width="3.4665" height="20.821" fill="none" stroke="#434b4d" stroke-width=".40988"/><rect x="350.8" y="415.82" width="3.0687" height="20.464" rx="1.2839" ry="1.1777" fill="#687174" stroke-width="2.0494"/><rect x="350.8" y="415.82" width="3.0687" height="20.464" rx="1.2839" ry="1.1777" fill="none" stroke="#525a5d" stroke-linejoin="round" stroke-width=".40988"/><rect x="193.62" y="415.38" width="43.104" height="20.753" fill="#434b4d" stroke-width="2.0494"/><rect x="193.62" y="415.38" width="43.284" height="20.821" fill="none" stroke="#434b4d" stroke-width=".40988"/><rect x="194.24" y="415.74" width="41.784" height="20.45" rx="1.2839" ry="1.1777" fill="#687174" stroke-width="2.0494"/><rect x="193.62" y="415.74" width="42.802" height="20.464" rx="1.2839" ry="1.1777" fill="none" stroke="#525a5d" stroke-linejoin="round" stroke-width=".40988"/><rect x="288.28" y="415.38" width="60.137" height="20.821" fill="#434b4d" stroke-width="2.0494"/><rect x="288.28" y="415.38" width="60.137" height="20.821" fill="none" stroke="#434b4d" stroke-width=".40988"/><rect x="288.28" y="415.74" width="59.951" height="20.464" rx="1.2839" ry="1.1777" fill="#687174" stroke-width="2.0494"/><rect x="288.28" y="415.74" width="59.951" height="20.464" rx="1.2839" ry="1.1777" fill="none" stroke="#525a5d" stroke-linejoin="round" stroke-width=".40988"/><ellipse cx="343.16" cy="409.95" rx="2.0509" ry="2.0016" stroke-width="1.9657"/><ellipse cx="343.16" cy="409.95" rx="2.0509" ry="2.0016" fill="none" stroke="#e5e5e5" stroke-width="1.9657"/><g fill="#fff" stroke-width="1.8781"><path d="m255.3 396.66h3.7244l-2.2214 6.0698h-0.75624l1.9851-5.4281h-2.732z"/><path d="m266.03 396.66v6.0698h-0.75624v-5.3848h-0.93586l0.33086-0.68502z"/><path d="m293.25 434.86 0.68415-2.3119 0.63455 1.6518 0.63452-1.6518 0.68061 2.3119h-0.29068l-0.44311-1.4957-0.58843 1.4957-0.57782-1.4957-0.44312 1.4957z"/><path d="m298.24 434.86 0.68417-2.3119 0.63452 1.6518 0.63453-1.6518 0.68063 2.3119h-0.29069l-0.4431-1.4957-0.58846 1.4957-0.57781-1.4957-0.44311 1.4957z"/><path d="m300.97 432.59h1.7689v0.23737h-0.74797v2.0388h-0.26941v-2.0388h-0.75151z"/><path d="m333.39 432.43h0.26941v2.4388h-0.26941z"/></g><ellipse cx="343.16" cy="401.11" rx="2.0509" ry="2.0016" stroke-width="1.9657"/><ellipse cx="343.16" cy="401.11" rx="2.0509" ry="2.0016" fill="none" stroke="#e5e5e5" stroke-width="1.9657"/><path d="m290.9 430.51h14.227v-13.099l-14.227-4.3e-4z" fill="#3a3a3a" stroke="#000" stroke-width=".279"/><g stroke-width="1.8787"><path d="m291.46 420.73h3.3099l-6e-3 -1.9974 1.2046-1e-3v-0.74788h3.8825l-9e-4 0.74984h1.2538v1.9976h3.2947v8.6l-12.938 0.028z" fill="#1a1a1a"/><path d="m301.4 420.2h3.2691v-1.4041h-3.2691z" fill="#008000"/><path d="m291.16 420.2h3.2979v-1.4114h-3.2979z" fill="#008000"/><path d="m290.9 430.53-2e-3 -13.103 4.3873-2e-3v1.2605l-4.2328-2e-3v1.6318l0.42023 0.0132 9.1e-4 9.0295 12.942-0.0188v-9.011l0.42021-0.0132v-1.6318l-4.2576 2e-3v-1.2605l4.5464 2e-3 2e-3 13.103z" fill="#ebebeb"/></g><path d="m330.72 431.31h15.839v-13.196h-15.839z" fill="#3a3a3a" stroke="#000" stroke-width=".282"/><path d="m332.17 421.45h3.3058l-6e-3 -2.0124 1.2031-1e-3v-0.75343h3.8779l-9.2e-4 0.75541h1.2523v2.0124h3.2908v8.6639l-12.923 0.0282z" fill="#1a1a1a" stroke-width="1.8821"/><path d="m346.55 418.11-5.2902-2e-3v1.2699l0.83335-3e-3v1.6439l2.9992 0.0131-1e-3 9.0859-12.918 0.024-9.1e-4 -9.1099 2.977-0.0131v-1.6439l0.83077 3e-3v-1.2699l-5.2654 2e-3 4e-3 13.201 15.827 2e-3z" fill="#ebebeb" stroke-width="1.8821"/><g fill="#008000" fill-rule="evenodd" stroke="#165016" stroke-linejoin="round"><ellipse cx="290.75" cy="403.72" rx=".88103" ry=".87813" stroke-width=".65386"/><ellipse cx="290.75" cy="399.28" rx=".88103" ry=".87813" stroke-width=".65386"/><g stroke-width=".65385"><ellipse cx="200.59" cy="417.08" rx=".88103" ry=".87814"/><ellipse cx="205.78" cy="417.08" rx=".88103" ry=".87814"/><ellipse cx="224.44" cy="417.08" rx=".88103" ry=".87814"/><ellipse cx="229.64" cy="417.08" rx=".88103" ry=".87814"/></g></g><rect x="69.571" y="405.29" width="115.36" height="26.879" rx=".31677" ry=".1396" fill="#3a3a3a" stroke="#000" stroke-width=".179"/><g fill="#008000"><g stroke-width="1.8724"><path d="m137.84 408.49h3.2605v-1.408h-3.2605z"/><path d="m127.64 408.49h3.2892v-1.4153h-3.2892z"/><path d="m130.92 429.21h-3.2605v1.408h3.2605z"/><path d="m141.14 429.21h-3.2892v1.4153h3.2892z"/><path d="m123.66 408.49h3.2605v-1.408h-3.2605z"/><path d="m113.46 408.49h3.2892v-1.4153h-3.2892z"/><path d="m116.74 429.21h-3.2605v1.408h3.2605z"/><path d="m126.96 429.21h-3.2892v1.4153h3.2892z"/><path d="m109.48 408.49h3.2605v-1.408h-3.2605z"/><path d="m99.275 408.49h3.2892v-1.4153h-3.2892z"/><path d="m102.56 429.21h-3.2605v1.408h3.2605z"/><path d="m112.78 429.21h-3.2892v1.4153h3.2892z"/><path d="m95.294 408.49h3.2605v-1.408h-3.2605z"/><path d="m85.094 408.49h3.2892v-1.4153h-3.2892z"/><path d="m88.382 429.21h-3.2605v1.408h3.2605z"/><path d="m98.601 429.21h-3.2892v1.4153h3.2892z"/><path d="m81.266 408.49h3.2605v-1.408h-3.2605z"/><path d="m71.066 408.49h3.2892v-1.4153h-3.2892z"/><path d="m74.353 429.21h-3.2605v1.408h3.2605z"/><path d="m84.572 429.21h-3.2892v1.4153h3.2892z"/></g><g stroke-width="1.8788"><path d="m151.98 408.51h3.2604v-1.408h-3.2604z"/><path d="m141.76 408.49h3.289v-1.4153h-3.289z"/><path d="m145.07 429.21h-3.2604v1.408h3.2604z"/><path d="m155.28 429.21h-3.289v1.4153h3.289z"/></g><path d="m180.28 408.49h3.2605v-1.408h-3.2605z" stroke-width="1.8724"/><path d="m170.08 408.49h3.2892v-1.4153h-3.2892z" stroke-width="1.8724"/></g><path d="m183.29 428.66h-3.3013l6e-3 2.0028-1.2014 1e-3v0.74994h-3.8723l9.1e-4 -0.7519h-1.2505v-2.003l-7.7111-7.4e-4 6e-3 2.0028-1.2014 1e-3v0.74994h-3.8723l9e-4 -0.7519h-1.2505v-2.003l-7.961 0.0216 6e-3 2.003-1.2014 1e-3v0.74995h-3.8723l9e-4 -0.75191h-1.2505v-2.0031l-7.8206-0.0136 6e-3 2.0028-1.2014 1e-3v0.74994h-3.8723l9e-4 -0.7519h-1.2505v-2.003l-7.8635 1e-3 6e-3 2.0028-1.2014 1e-3v0.74994h-3.8723l9e-4 -0.7519h-1.2505v-2.003l-7.8635 1e-3 6e-3 2.0028-1.2014 1e-3v0.74994h-3.8723l9.1e-4 -0.7519h-1.2505v-2.003l-7.8635 1e-3 0.0056 2.0028-1.2014 1e-3v0.74994h-3.8723l9.02e-4 -0.7519h-1.2505v-2.003l-7.7107-7.3e-4 0.0056 2.0028-1.2014 1e-3v0.74994h-3.8723l9.02e-4 -0.7519h-1.2505v-2.003h-3.286l-0.01897-19.652h3.3013l-0.0056-2.0028 1.2014-1e-3v-0.74994h3.8723l-9.02e-4 0.7519h1.2505v2.003l7.7107 7.4e-4 -0.0056-2.0028 1.2014-1e-3v-0.74994h3.8723l-9.02e-4 0.7519h1.2505v2.003l7.8631-1e-3 -6e-3 -2.0028 1.2014-1e-3v-0.74994h3.8723l-9e-4 0.7519h1.2505v2.003l7.8635-1e-3 -6e-3 -2.0028 1.2014-1e-3v-0.74994h3.8723l-9.1e-4 0.7519h1.2505v2.003l7.8635-1e-3 -6e-3 -2.0028 1.2014-1e-3v-0.74994h3.8723l-9e-4 0.7519h1.2505v2.003l7.8281 0.019-6e-3 -2.003 1.2014-1e-3v-0.74994h3.8723l-9e-4 0.7519h1.2505v2.0032l7.9536-0.027-6e-3 -2.0028 1.2014-1e-3v-0.74994h3.8723l-9.1e-4 0.7519h1.2505v2.003l7.7111 7.5e-4 -6e-3 -2.0028 1.2014-1e-3v-0.74994h3.8723l-9e-4 0.7519h1.2505v2.003h3.286z" fill="#1a1a1a" stroke-width="1.8724"/><g fill="#008000" stroke-width="1.8724"><path d="m173.37 429.2h-3.2605v1.408h3.2605z"/><path d="m183.59 429.2h-3.2892v1.4153h3.2892z"/><path d="m166.25 408.48h3.2605v-1.408h-3.2605z"/><path d="m156.05 408.48h3.2892v-1.4153h-3.2892z"/><path d="m159.34 429.2h-3.2605v1.408h3.2605z"/><path d="m169.56 429.2h-3.2892v1.4153h3.2892z"/></g><rect x="238.88" y="415.38" width="2.8527" height="20.857" fill="#434b4d" stroke-width="1.4128"/><rect x="238.88" y="415.38" width="2.8527" height="20.857" fill="none" stroke="#434b4d" stroke-width=".28255"/><rect x="239.22" y="416.09" width="2.5014" height="20.144" rx=".60906" ry="1.1797" fill="#687174" stroke-width="1.4128"/><rect x="239.02" y="415.75" width="2.7045" height="20.492" rx=".60906" ry="1.1797" fill="none" stroke="#525a5d" stroke-linejoin="round" stroke-width=".28255"/><rect x="243.67" y="415.38" width="38.745" height="20.682" fill="#434b4d" stroke="#434b4d" stroke-width=".40988"/><rect x="244.29" y="415.74" width="38.127" height="20.325" rx="1.2839" ry="1.1777" fill="#687174" stroke-width="2.0494"/><rect x="243.67" y="415.74" width="38.745" height="20.325" rx="1.2839" ry="1.1777" fill="none" stroke="#525a5d" stroke-linejoin="round" stroke-width=".40988"/><path d="m255.82 412.29h14.512v-4.9578h-14.512z" stroke="#535353" stroke-width=".091"/><ellipse cx="290.75" cy="408.48" rx=".88103" ry=".87813" fill="#008000" fill-rule="evenodd" stroke="#165016" stroke-linejoin="round" stroke-width=".65386"/><path d="m337.11 434.05h9.4932" fill="none" stroke="#fff" stroke-width=".24548"/><path d="m313.42 434.05h9.4932" fill="none" stroke="#fff" stroke-width=".24548"/><g fill="#f5831f" stroke-width="1.8781"><path d="m106.29 401.27-0.56009 0.84543h0.56009zm0.27296-0.73812v1.5836h0.31904v0.23737h-0.31904v0.49425h-0.27296v-0.49425h-0.99257v-0.065l1.2124-1.7559z"/><path d="m147.93 400.49v2.2762h-0.28359v-2.0193h-0.35094l0.12408-0.25689z"/><path d="m78.115 433.43v2.2762h-0.28359v-2.0193h-0.35093l0.12408-0.25689z"/><path d="m119.53 433.43h1.3967l-0.83305 2.2762h-0.28359l0.74441-2.0355h-1.0245z"/><path d="m148.39 433.43v2.2762h-0.28359v-2.0193h-0.35093l0.12408-0.25689z"/><path d="m149.28 433.43v2.2762h-0.2836v-2.0193h-0.35093l0.12408-0.25689z"/></g><g fill="#fff"><g stroke-width="1.8781"><path d="m162.13 400.57v2.2762h-0.28359v-2.0193h-0.35093l0.12407-0.25689z"/><path d="m176.17 400.57v2.2762h-0.28359v-2.0193h-0.35094l0.12416-0.25689z"/><path d="m177.49 401.27-0.5601 0.84543h0.5601zm0.27296-0.73812v1.5836h0.31903v0.23737h-0.31903v0.49425h-0.27296v-0.49425h-0.99255v-0.065l1.2123-1.7559z"/><path d="m162.09 433.43v2.2762h-0.28359v-2.0193h-0.35093l0.12407-0.25689z"/><path d="m176.27 433.43v2.2762h-0.28359v-2.0193h-0.35095l0.12415-0.25689z"/><path d="m202.53 433.36v2.2761h-0.28359v-2.0193h-0.35095l0.12415-0.25687z"/><path d="m226.48 433.36v2.2761h-0.28359v-2.0193h-0.35093l0.12415-0.25687z"/><path d="m226.83 433.36h1.3967l-0.83306 2.2761h-0.28359l0.74444-2.0355h-1.0245z"/><path d="m270.35 432.66v2.2761h-0.28359v-2.0193h-0.35096l0.12416-0.25687z"/></g><g stroke-width=".62983"><path d="m284.68 398.67h0.153l0.23323 0.78214 0.30413-0.78214 0.30973 0.78214 0.23323-0.78214h0.153l-0.35825 1.2203-0.33398-0.86942-0.33398 0.86942z"/><path d="m286.17 398.65h0.72208v0.12494h-0.57842v0.30635h0.57842v0.12494h-0.57842v0.52028h0.59334v0.12151h-0.737z"/><path d="m282.8 403.12h0.93106v0.12494h-0.3937v1.0731h-0.1418v-1.0731h-0.39556z"/><path d="m284.29 403.44-0.18658 0.44498h0.37504zm0-0.33887 0.52617 1.2169h-0.153l-0.12687-0.30979h-0.48699l-0.12875 0.30979h-0.15299z"/><path d="m284.86 403.12h0.93105v0.12494h-0.39369v1.0731h-0.14181v-1.0731h-0.39555z"/><path d="m283.34 407.89h0.72207v0.12494h-0.57841v0.30635h0.57841v0.12494h-0.57841v0.52029h0.59334v0.1215h-0.737z"/><path d="m284.2 407.89h0.72208v0.12494h-0.5784v0.30635h0.5784v0.12494h-0.5784v0.52029h0.59334v0.1215h-0.73702z"/><path d="m285.92 407.89h0.72208v0.12494h-0.57841v0.30635h0.57841v0.12494h-0.57841v0.52029h0.59334v0.1215h-0.73701z"/></g><g stroke-width="1.0924"><path d="m347.6 401.77 0.39796-1.3448 0.36908 0.9608 0.36908-0.9608 0.39591 1.3448h-0.16909l-0.25774-0.87002-0.34228 0.87002-0.3361-0.87002-0.25774 0.87002z"/><path d="m349.25 400.45h0.79797v0.13806h-0.6392v0.33856h0.6392v0.13807h-0.6392v0.57496h0.6557v0.13428h-0.81447z"/><path d="m350.25 400.43 0.80004 0.94756v-0.92676h0.15671v1.3448l-0.80004-0.93999v0.91919h-0.15671z"/><path d="m347.6 409.3h0.79797v0.13807h-0.63921v0.33855h0.63921v0.13807h-0.63921v0.57497h0.6557v0.13428h-0.81446z"/><path d="m348.6 409.28 0.80003 0.94756v-0.92676h0.15671v1.3448l-0.80004-0.94v0.9192h-0.1567z"/><path d="m349.73 409.3h1.0289v0.13807h-0.43507v1.1858h-0.15671v-1.1858h-0.43713z"/><path d="m350.87 409.3h0.79797v0.13807h-0.6392v0.33855h0.6392v0.13807h-0.6392v0.57497h0.6557v0.13428h-0.81447z"/></g><path d="m253.72 433.19h1.3822l-0.69108 1.197z" fill-rule="evenodd" stroke="#fff" stroke-linecap="round" stroke-linejoin="round" stroke-width=".24548"/><path d="m269.43 434.39h-1.3821l0.69107-1.197z" fill-rule="evenodd" stroke="#fff" stroke-linecap="round" stroke-linejoin="round" stroke-width=".24548"/></g><rect x="283.95" y="415.38" width="2.8527" height="20.857" fill="#434b4d" stroke-width="1.4128"/><rect x="283.95" y="415.38" width="2.8527" height="20.857" fill="none" stroke="#434b4d" stroke-width=".28255"/><rect x="284.29" y="416.09" width="2.5014" height="20.144" rx=".60906" ry="1.1797" fill="#687174" stroke-width="1.4128"/><rect x="284.09" y="415.75" width="2.7045" height="20.492" rx=".60906" ry="1.1797" fill="none" stroke="#525a5d" stroke-linejoin="round" stroke-width=".28255"/><path d="m75.158 405.7-5.2577 2e-3 0.0039 26.279 5.2812 2e-3v-1.2646l-4.2448 2e-3v-1.6354l0.41765-0.0137v-8.9717l12.908-8e-3 2e-3 8.9795 0.4196 0.0137v1.6354l-4.2234-2e-3v1.2646h8.7513v-1.2646l-4.2488 2e-3v-1.6354l0.4196-0.0137 2e-3 -8.9717 12.906-8e-3v8.9795l0.4196 0.0137v1.6354l-4.2214-2e-3v1.2646h8.9035v-1.2646l-4.2488 2e-3v-1.6354l0.4196-0.0137 2e-3 -8.9717 12.906-8e-3v8.9795l0.4196 0.0137v1.6354l-4.2195-2e-3v1.2646h8.9015v-1.2646l-4.2468 2e-3v-1.6354l0.4196-0.0137v-8.9717l12.908-8e-3v8.9795l0.41961 0.0137v1.6354l-4.2214-2e-3v1.2646h8.9017v-1.2646l-4.2448 2e-3v-1.6354l0.41765-0.0137v-8.9717l12.908-8e-3 2e-3 8.9795 0.4196 0.0137v1.6354l-4.2234-2e-3v1.2646h8.8663v-1.2646l-4.2468 2e-3v-1.6354l0.41961-0.0137 2e-3 -9.0263 12.908-0.0295v9.0556l0.41961 0.0137v1.6354l-4.2214-2e-3v1.2646h8.9017v-1.2627l-4.1228 2e-3 -5e-4 -1.6374h0.37515l-1e-3 -8.9836 12.83-8e-3 2e-3 8.9795 0.41764 0.0117v1.6374l-4.2214-2e-3v1.2627h8.8663v-1.2627l-4.2468 2e-3v-1.6374l0.41766-0.0117 2e-3 -9.0263 0.01-0.01 12.898-0.0195v9.0556l0.41961 0.0117v1.6374l-4.2214-2e-3v1.2627l5.2577-2e-3 -4e-3 -26.277-5.2831-2e-3v1.2646l4.2488-2e-3v1.6354l-0.42155 0.0137v8.9717l-12.908 6e-3v-8.9776l-0.4196-0.0137v-1.6374l4.2214 2e-3v-1.2627h-8.8663v1.2627l4.2468-2e-3v1.6374l-0.41766 0.0137-2e-3 8.9699h-12.826l-1e-3 -8.9854h-0.37615l-5e-4 -1.6354 4.0994 2e-3v-1.2646h-8.9034v1.2646l4.2468-2e-3v1.6354l-0.4196 0.0137v8.9717l-12.908 8e-3v-8.9795l-0.41961-0.0137v-1.6354l4.2214 2e-3v-1.2646h-8.8663v1.2646l4.2468-2e-3v1.6354l-0.4196 0.0137-2e-3 9.0263-12.906 0.0276-2e-3 -9.0536-0.41765-0.0137v-1.6354l4.2214 2e-3v-1.2646h-8.9036v1.2646l4.2468-2e-3v1.6354l-0.41766 0.0137-2e-3 9.0263-12.908 0.0276v-9.0536l-0.4196-0.0137v-1.6354l4.2211 2e-3v-1.2627h-8.9035v1.2627l4.2488-2e-3v1.6354l-0.42156 0.0137v9.0263l-12.908 0.0276v-9.0517l-0.4196-0.0137v-1.6374l4.2214 2e-3v-1.2627h-8.9015v1.2627l4.2448-2e-3v1.6374l-0.4196 0.0137v9.0243l-12.908 0.0276v-9.0517l-0.4196-0.0137v-1.6374l4.2214 2e-3v-1.2627h-8.7493v1.2627l4.2468-2e-3v1.6374l-0.41765 0.0137-2e-3 9.0243-12.906 0.0276-2e-3 -9.0517-0.4196-0.0137v-1.6374l4.2214 2e-3v-1.2627z" fill="#ebebeb" stroke-width=".99782"/><g fill="#f5831f" stroke-width="1.8781"><path d="m91.488 435.2c0.02012 0.11591 0.14564 0.30568 0.45375 0.30568s0.4821-0.18241 0.4821-0.47154-0.18412-0.46828-0.46085-0.46828v-0.2211c0.3131 0 0.41474-0.21399 0.41474-0.38362s-0.10313-0.40638-0.43603-0.40638-0.39349 0.22653-0.4112 0.29264h-0.28359c0.05346-0.45934 0.50306-0.50079 0.6948-0.50079 0.40716 0 0.69126 0.19689 0.69126 0.58528s-0.31816 0.4842-0.40765 0.517c0.17039 0.0451 0.46083 0.17834 0.46083 0.5853s-0.24886 0.66327-0.74442 0.66327-0.69731-0.21958-0.74088-0.4975z"/><path d="m105.82 433.4h0.97485l-0.0567 0.23086h-0.75506l-0.18788 0.58204c0.60976-0.1279 0.99257 0.22806 0.99257 0.74465 0 0.82301-0.96652 0.95726-1.4002 0.50401l0.14179-0.18211c0.31716 0.40675 0.99967 0.24464 0.99967-0.3219 0-0.58154-0.64182-0.6542-1.0564-0.42916z"/><path d="m133.58 434.11c0-0.31734 0.25105-0.7609 0.7976-0.7609s0.80115 0.42756 0.80115 0.75764c0 0.19293-0.0508 0.35443-0.15242 0.4845l-0.9004 1.1121-0.2056-0.11389 0.61327-0.74787c-0.36838 0.14898-0.9536-0.1752-0.9536-0.73155zm0.7936 0.55928c0.27757 0 0.52108-0.23948 0.52108-0.56248s-0.26603-0.5495-0.5211-0.5495-0.52465 0.21737-0.52465 0.5495 0.2471 0.56248 0.52467 0.56248z"/></g><path d="m162.68 435.2c0.0201 0.11591 0.14564 0.30568 0.45375 0.30568 0.30812 0 0.48211-0.18241 0.48211-0.47154s-0.18412-0.46828-0.46085-0.46828v-0.2211c0.3131 0 0.41474-0.21399 0.41474-0.38362s-0.10313-0.40638-0.43603-0.40638c-0.33291 0-0.39349 0.22653-0.41121 0.29264h-0.28359c0.0535-0.45934 0.50306-0.50079 0.6948-0.50079 0.40715 0 0.69125 0.19689 0.69125 0.58528s-0.31815 0.4842-0.40764 0.517c0.17039 0.0451 0.46082 0.17834 0.46082 0.5853s-0.24886 0.66327-0.74442 0.66327c-0.49555 0-0.69731-0.21958-0.74088-0.4975z" fill="#fff" stroke-width="1.8781"/><path d="m177.01 433.4h0.97485l-0.0567 0.23086h-0.75506l-0.18788 0.58204c0.60976-0.1279 0.99257 0.22806 0.99257 0.74465 0 0.82301-0.96652 0.95726-1.4002 0.50401l0.14178-0.18211c0.31717 0.40675 0.99968 0.24464 0.99968-0.3219 0-0.58154-0.64182-0.6542-1.0564-0.42916z" fill="#fff" stroke-width="1.8781"/><g fill="#f5831f" stroke-width="1.8781"><path d="m78.286 401.68c0-0.65033-0.16424-0.97549-0.49273-0.97549s-0.49273 0.32516-0.49273 0.97549 0.16424 0.9755 0.49273 0.9755 0.49273-0.32517 0.49273-0.9755zm-0.49273-1.1836c0.57083 0 0.75506 0.54692 0.75506 1.1836s-0.19619 1.1673-0.75506 1.1673-0.74795-0.51996-0.74795-1.1673 0.17712-1.1836 0.74795-1.1836z"/><path d="m91.584 402.62h1.0493v0.23411h-1.3719v-0.23411l0.83659-0.88771c0.55576-0.62065 0.09996-0.98727-0.2056-0.97555-0.3199 0-0.38996 0.22753-0.38996 0.2796h-0.25171c0-0.35419 0.43351-0.4975 0.63452-0.4975 0.92718 4e-3 0.82154 0.94316 0.4821 1.2543z"/><path d="m121.03 402.09c0 0.31734-0.25105 0.7609-0.7976 0.7609s-0.80115-0.42757-0.80115-0.75764c0-0.19293 0.0508-0.35443 0.15242-0.4845l0.9004-1.1121 0.2056 0.1139-0.61327 0.74786c0.36838-0.14897 0.9536 0.17521 0.9536 0.73156zm-0.7936-0.55928c-0.27757 0-0.52108 0.23948-0.52108 0.56248 0 0.32299 0.26603 0.5495 0.5211 0.5495s0.52465-0.21737 0.52465-0.5495-0.2471-0.56248-0.52467-0.56248z"/><path d="m134.38 401.7c-0.31397 0-0.48211 0.17537-0.48211 0.47478s0.19084 0.47154 0.48211 0.47154 0.4821-0.17766 0.4821-0.47154-0.16813-0.47478-0.4821-0.47478zm-0.30131-0.11064c-0.28722-0.0802-0.3722-0.31175-0.3722-0.52675 0-0.27777 0.15848-0.57553 0.67352-0.57553s0.67707 0.28728 0.67707 0.57553-0.12525 0.45738-0.37576 0.52675c0.17504 0.0341 0.46717 0.21451 0.4431 0.5853-0.0241 0.37079-0.18433 0.66327-0.74441 0.66327s-0.74796-0.28558-0.74796-0.66329 0.23094-0.53512 0.44664-0.58528zm-0.11699-0.49749c-7.5e-4 0.18669 0.0925 0.40312 0.4183 0.40312 0.32575 0 0.41829-0.20607 0.41829-0.40312s-0.0836-0.3967-0.41829-0.3967c-0.33468 0-0.41755 0.21001-0.4183 0.3967z"/><path d="m149.48 401.68c0-0.65033-0.16425-0.97549-0.49273-0.97549-0.32849 0-0.49273 0.32516-0.49273 0.97549s0.16424 0.9755 0.49273 0.9755c0.32848 0 0.49273-0.32517 0.49273-0.9755zm-0.49273-1.1836c0.57083 0 0.75506 0.54692 0.75506 1.1836s-0.19619 1.1673-0.75506 1.1673c-0.55888 0-0.74796-0.51996-0.74796-1.1673s0.17713-1.1836 0.74796-1.1836z"/></g><g fill="#fff"><g stroke-width="1.8781"><path d="m162.78 402.62h1.0493v0.23411h-1.3719v-0.23411l0.83659-0.88771c0.55576-0.62065 0.1-0.98727-0.2056-0.97555-0.31989 0-0.38996 0.22753-0.38996 0.2796h-0.2517c0-0.35419 0.4335-0.4975 0.63452-0.4975 0.92718 4e-3 0.82155 0.94316 0.4821 1.2543z"/><path d="m204.45 434.88c0 0.31734-0.25105 0.7609-0.7976 0.7609s-0.80115-0.42757-0.80115-0.75764c0-0.19293 0.0508-0.35443 0.15242-0.4845l0.9004-1.1121 0.2056 0.1139-0.61327 0.74786c0.36838-0.14897 0.9536 0.17521 0.9536 0.73156zm-0.7936-0.55928c-0.27757 0-0.52108 0.23948-0.52108 0.56248 0 0.32299 0.26603 0.5495 0.5211 0.5495s0.52465-0.21737 0.52465-0.5495-0.2471-0.56248-0.52467-0.56248z"/><path d="m257.01 433.79c0-0.65033-0.16425-0.97549-0.49273-0.97549-0.32849 0-0.49273 0.32516-0.49273 0.97549s0.16424 0.9755 0.49273 0.9755c0.32848 0 0.49273-0.32517 0.49273-0.9755zm-0.49273-1.1836c0.57083 0 0.75506 0.54692 0.75506 1.1836s-0.19619 1.1674-0.75506 1.1674c-0.55888 0-0.74796-0.51997-0.74796-1.1674s0.17713-1.1836 0.74796-1.1836z"/></g><path d="m263.14 399.81c0-1.7342-0.43799-2.6013-1.3139-2.6013-0.87596 0-1.3139 0.86708-1.3139 2.6013s0.43797 2.6013 1.3139 2.6013c0.87594 0 1.3139-0.86711 1.3139-2.6013zm-1.3139-3.1562c1.5222 0 2.0135 1.4584 2.0135 3.1562s-0.52317 3.1129-2.0135 3.1129c-1.4903 0-1.9945-1.3866-1.9945-3.1129s0.47234-3.1562 1.9945-3.1562z" stroke-width="5.0081"/><path d="m270.15 399.81c0-1.7342-0.43799-2.6013-1.3139-2.6013-0.87596 0-1.3139 0.86708-1.3139 2.6013s0.43797 2.6013 1.3139 2.6013c0.87594 0 1.3139-0.86711 1.3139-2.6013zm-1.3139-3.1562c1.5222 0 2.0135 1.4584 2.0135 3.1562s-0.52317 3.1129-2.0135 3.1129c-1.4903 0-1.9945-1.3866-1.9945-3.1129s0.47234-3.1562 1.9945-3.1562z" stroke-width="5.0081"/></g><rect x="256.7" y="408.11" width="12.825" height="1.6959" fill="#a09a9a" opacity=".99"/><path d="m257.12 409.39h11.973v-0.84795h-11.973z" fill="#505050" stroke="#808080" stroke-linecap="round" stroke-linejoin="round" stroke-miterlimit="4.4615" stroke-width=".063698"/><path d="m255.82 430.54h14.512v-4.9578h-14.512z" stroke="#535353" stroke-width=".091"/><rect x="256.7" y="426.36" width="12.825" height="1.6959" fill="#a09a9a" opacity=".99"/><path d="m257.12 427.64h11.973v-0.84795h-11.973z" fill="#505050" stroke="#808080" stroke-linecap="round" stroke-linejoin="round" stroke-miterlimit="4.4615" stroke-width=".063698"/><g fill="#fff" stroke-width="1.8781"><path d="m326.22 432.75-0.14183 0.17875c-0.18887-0.0971-0.26581-0.16902-0.53173-0.16902s-0.80469 0.10987-0.80469 0.97223 0.51318 0.95924 0.80469 0.95924 0.39556-0.0911 0.51401-0.15605l0.15597 0.16903c-0.18051 0.0949-0.33277 0.1951-0.6877 0.1951s-1.0635-0.18015-1.0635-1.1674 0.66862-1.1868 1.0635-1.1868 0.54949 0.1283 0.69128 0.20492z"/><path d="m327.26 433.4c0.45706 0 0.79404 0.35115 0.79404 0.76738s-0.32575 0.75762-0.79404 0.75762-0.80469-0.32251-0.80469-0.75437 0.34763-0.77063 0.80469-0.77063zm4e-3 0.20809c-0.31205 0-0.52465 0.27272-0.52465 0.56246s0.21182 0.5495 0.52465 0.5495 0.52112-0.29126 0.52112-0.5495-0.20907-0.56246-0.52112-0.56246z"/><path d="m329.73 434.85h-0.26941v-0.86818c0-0.27097-0.12053-0.40863-0.36158-0.41296-0.36982 0-0.46446 0.28331-0.46446 0.46179v0.81941h-0.26941v-1.4567h0.26941v0.23087c0.12756-0.17559 0.30244-0.26338 0.52465-0.26338 0.48807 0 0.57074 0.36784 0.57074 0.61128z"/></g><path d="m321.18 427.78c0.70186-0.0236 0.78941 0.26721 0.77661 0.51731v1.1256c-0.0295 0.28237-1.1027 0.84802-1.9611 0.80785h-4.3543c-0.27727 0.0498-1.7729-0.57271-1.8085-0.83623v-1.1257c-0.0332-0.31756 0.46853-0.49593 0.75309-0.48887z" fill="#1d1d1d" stroke="#ececec" stroke-width=".41499"/><path d="m315.89 428.48c-0.17498-4e-3 -0.45349 0.0623-0.4329 0.23988v0.59088c0 0.29378 0.58522 0.45885 1.1067 0.45885h2.5015c0.52701 0.0226 1.219-0.26897 1.236-0.42694v-0.60738c8e-3 -0.13995-2e-3 -0.26943-0.4329-0.25639z" fill="#404040" stroke-width=".75168"/><g fill="#070707" stroke-width="1.4153"><path d="m315.98 429.26h0.35578v-0.44198h-0.35578z"/><path d="m316.83 429.26h0.35575v-0.44198h-0.35575z"/><path d="m317.72 429.26h0.355v-0.44198h-0.355z"/><path d="m318.63 429.26h0.35501v-0.44198h-0.35501z"/><path d="m319.5 429.26h0.35572v-0.44198h-0.35572z"/></g><g fill="#fff"><g stroke-width="1.8781"><path d="m297.71 433.94h-0.48566v-0.22763h0.75507v0.98851c-0.22215 0.1474-0.49274 0.2211-0.81178 0.2211-0.60932 0-1.0883-0.35569-1.0883-1.1738s0.48763-1.1771 1.0883-1.1771c0.27178 0 0.51992 0.0661 0.74442 0.19834l-0.14537 0.19186c-0.17725-0.11713-0.36986-0.1757-0.57781-0.1757-0.55773 0-0.8366 0.32083-0.8366 0.96249 0 0.63516 0.27887 0.95274 0.8366 0.95274 0.28137 0 0.36343-0.0357 0.52113-0.11046z"/><path d="m331.09 433.56-0.15245 0.1593s-0.11453-0.14308-0.3403-0.14308-0.31191 0.13076-0.31191 0.23729 0.12838 0.18531 0.36513 0.23085c0.33086 0.0781 0.49629 0.21101 0.49629 0.41298s-0.097 0.43957-0.61683 0.43957c-0.30746 0-0.46526-0.14665-0.54944-0.23083l0.19507-0.1528c0.0946 0.11929 0.21508 0.17893 0.36156 0.17893 0.0836 0 0.33678 0.0129 0.33678-0.1822 0-0.19512-0.12845-0.2068-0.32613-0.2568-0.0565-0.0262-0.49944-0.0773-0.50701-0.42917-8e-3 -0.35185 0.34687-0.45203 0.56718-0.45203s0.42703 0.12587 0.48206 0.18799z"/><path d="m332.23 433.4c0.45706 0 0.79404 0.35115 0.79404 0.76738s-0.32575 0.75762-0.79404 0.75762-0.80469-0.32251-0.80469-0.75437 0.34763-0.77063 0.80469-0.77063zm4e-3 0.20809c-0.31205 0-0.52465 0.27272-0.52465 0.56246s0.21182 0.5495 0.52465 0.5495 0.52112-0.29126 0.52112-0.5495-0.20907-0.56246-0.52112-0.56246z"/><path d="m335.31 434.5 0.16658 0.13659c-0.048 0.0662-0.21848 0.26988-0.66998 0.26988s-0.7976-0.3323-0.7976-0.75438 0.33742-0.77065 0.78347-0.77065 0.71702 0.2938 0.73689 0.6861v0.0885h-1.2442c0 0.34038 0.28069 0.54625 0.52148 0.54625s0.37768-0.0672 0.50292-0.20161zm-0.99611-0.54953h0.94295c-0.0186-0.19661-0.20342-0.36094-0.46437-0.36094s-0.43018 0.21858-0.47858 0.36094z"/></g><path d="m351.79 409.3h0.37687c0.37918 0 0.41029 0.24864 0.41029 0.37258s-0.0487 0.29704-0.27422 0.35746l0.32786 0.59388h-0.17115l-0.32166-0.5674h-0.1897v0.5674h-0.15877zm0.15878 0.1305v0.49364h0.21238c0.1479 0 0.26604-0.0611 0.26604-0.25154 0-0.19042-0.13557-0.2421-0.26599-0.2421z" stroke-width="1.0924"/><path d="m351.48 400.47h0.15877v0.81139c0 0.36925 0.15333 0.41988 0.32786 0.41988s0.32996-0.0576 0.32996-0.41988v-0.81139h0.15258v0.83408c0 0.34171-0.16083 0.51256-0.48249 0.51256-0.32441 0-0.48662-0.17085-0.48662-0.51256z" stroke-width="1.0924"/><g stroke-width=".62983"><path d="m283.92 398.77c-0.33991 0-0.47579 0.27873-0.47579 0.51002s0.12109 0.5083 0.47579 0.5083 0.47393-0.27795 0.47393-0.5083-0.13402-0.51002-0.47393-0.51002zm0-0.11296c0.36972 0 0.60826 0.23493 0.60826 0.62298s-0.23784 0.61441-0.60826 0.61441-0.61013-0.23516-0.61013-0.61441 0.24041-0.62298 0.61013-0.62298z"/><path d="m282.62 408.01v0.45183h0.19218c0.18337 0 0.25751-0.0956 0.25751-0.22594 0-0.13036-0.0858-0.22248-0.25748-0.22591zm-0.14368-0.11809h0.33586c0.26743 0 0.40115 0.10924 0.40115 0.344s-0.14205 0.34056-0.40115 0.34056h-0.19218v0.51343h-0.14368z"/><path d="m285.05 407.89h0.34102c0.28238 0 0.37132 0.16563 0.37132 0.33714s-0.1092 0.28623-0.24819 0.32347l0.29666 0.53739h-0.15486l-0.29107-0.51343h-0.17165v0.51343h-0.14368zm0.14367 0.11809v0.44669h0.19218c0.1824 0 0.24072-0.0915 0.24072-0.22764s-0.0802-0.21564-0.2407-0.21906z"/><path d="m286.95 408v0.97035h0.19777c0.3306 0 0.47579-0.13696 0.47579-0.48605s-0.18141-0.48434-0.47579-0.48434zm-0.14368-0.11809h0.31906c0.51109 0 0.64372 0.24916 0.64372 0.60243s-0.13847 0.60072-0.64372 0.60072h-0.31906z"/><path d="m282.66 403.26-0.0896 0.0958c-0.0771-0.0856-0.1586-0.12836-0.24443-0.12836-0.1468 0-0.26309 0.0479-0.26309 0.21564 0 0.16778 0.15588 0.17135 0.21646 0.19509l0.0951 0.0206c0.20771 0.0539 0.32843 0.13699 0.32843 0.34913s-0.14403 0.3519-0.43661 0.34402c-0.21067-9e-3 -0.25668-0.0656-0.36383-0.1301l0.0933-0.10611c0.0821 0.0753 0.17228 0.1158 0.27055 0.12151 0.19529 0 0.29294-0.0534 0.29294-0.21564 0-0.1622-0.0953-0.19167-0.22756-0.22589l-0.097-0.0206c-0.15105-0.0478-0.30977-0.0983-0.30977-0.32346 0-0.22511 0.16221-0.33711 0.38241-0.33711s0.3527 0.14548 0.3527 0.14548z"/><path d="m287.73 403.26-0.0896 0.0958c-0.0771-0.0856-0.1586-0.12836-0.24443-0.12836-0.1468 0-0.26309 0.0479-0.26309 0.21564 0 0.16778 0.15588 0.17135 0.21646 0.19509l0.0951 0.0206c0.20771 0.0539 0.32843 0.13699 0.32843 0.34913s-0.14403 0.3519-0.43661 0.34402c-0.21067-9e-3 -0.25668-0.0656-0.36383-0.1301l0.0933-0.10611c0.0821 0.0753 0.17228 0.1158 0.27055 0.12151 0.19529 0 0.29294-0.0534 0.29294-0.21564 0-0.1622-0.0953-0.19167-0.22756-0.22589l-0.097-0.0206c-0.15105-0.0478-0.30977-0.0983-0.30977-0.32346 0-0.22511 0.16221-0.33711 0.38241-0.33711s0.3527 0.14548 0.3527 0.14548z"/><path d="m282.59 398.78v0.45183h0.19218c0.18337 0 0.25751-0.0956 0.25751-0.22594 0-0.13036-0.0858-0.22248-0.25748-0.22591zm-0.14368-0.11809h0.33586c0.26743 0 0.40115 0.10924 0.40115 0.344s-0.14205 0.34056-0.40115 0.34056h-0.19218v0.51343h-0.14368z"/><path d="m285.91 403.13h0.14367v0.73422c0 0.2933 0.10306 0.3799 0.29674 0.3799s0.29853-0.10639 0.29853-0.3799v-0.73422h0.13807v0.75476c0 0.30921-0.14553 0.46381-0.4366 0.46381-0.29356 0-0.44034-0.1546-0.44034-0.46381z"/><path d="m287.01 398.65h0.34102c0.28238 0 0.37132 0.16563 0.37132 0.33714s-0.1092 0.28623-0.24819 0.32347l0.29666 0.53739h-0.15486l-0.29107-0.51343h-0.17165v0.51343h-0.14368zm0.14367 0.11809v0.44669h0.19218c0.1824 0 0.24072-0.0915 0.24072-0.22764s-0.0802-0.21564-0.2407-0.21906z"/></g></g><g stroke="#7f7f7f"><rect x="195.73" y="422.58" width="14.881" height="9.021" stroke-width=".2"/><rect x="196.25" y="423.11" width="13.844" height="7.967" fill="none" stroke-width=".21"/></g><g transform="translate(23.85)" stroke="#7f7f7f"><rect x="195.73" y="422.58" width="14.881" height="9.021" stroke-width=".2"/><rect x="196.25" y="423.11" width="13.844" height="7.967" fill="none" stroke-width=".21"/></g><path class="st1" d="m51.876 401.22c0 1.1237-0.89758 2.0367-1.9916 2.0367-1.0939 0-1.9916-0.91302-1.9916-2.0367v-1.7277s0.95369 0.23879 0.95369 1.2501v0.47756c0 0.61801 0.46281 1.1096 1.0378 1.1096 0.57502 0 1.0378-0.49161 1.0378-1.1096v-0.98348c0.04211-0.84276 0.77203-1.1096 0.95436-1.208zm-4.3757-0.81468c-0.19634-0.16848-0.46281-0.26688-0.74331-0.26688-0.63111 0-1.136 0.49162-1.136 1.1096v2.0085h-0.95369v-3.6802s0.39271 0.0136 0.64512 0.19675c0.36463-0.36522 0.88356-0.5759 1.4446-0.5759 0.2665 0 0.51892 0.0421 0.74331 0.14042zm-6.4655 0.81456c0-0.61801 0.5189-1.1237 1.15-1.1237s1.15 0.50567 1.15 1.1237c0 0.61803-0.5189 1.1237-1.15 1.1237s-1.15-0.50568-1.15-1.1237zm-0.92562 1.2e-4c0 1.1237 0.92565 2.0226 2.0756 2.0226 0.47684 0 0.91159-0.15445 1.2622-0.4214 0.21038 0.35115 0.81344 0.4214 0.81344 0.4214v-2.0226c0-1.1096-0.92565-2.0226-2.0756-2.0226-1.15 0-2.0756 0.91299-2.0756 2.0226zm17.518-1.2e-4c0-0.61801 0.5189-1.1237 1.15-1.1237 0.63111 0 1.15 0.50567 1.15 1.1237 0 0.61803-0.5189 1.1237-1.15 1.1237-0.63113 0-1.15-0.50568-1.15-1.1237zm-0.9256 1.2e-4c0 1.1237 0.92562 2.0226 2.0756 2.0226 0.47684 0 0.91161-0.15445 1.2622-0.4214 0.21038 0.35115 0.81342 0.4214 0.81342 0.4214v-2.0226c0-1.1096-0.92562-2.0226-2.0756-2.0226-1.15 0-2.0756 0.91299-2.0756 2.0226zm-3.478-1.2e-4c0-0.61801 0.5189-1.1237 1.15-1.1237 0.63111 0 1.15 0.50567 1.15 1.1237 0.01515 0.61803-0.5049 1.1237-1.15 1.1237-0.63113 0-1.15-0.50568-1.15-1.1237zm0-2.0084c-0.04211-0.84276-0.74398-1.1096-0.92629-1.208v5.2532s0.61708-0.0703 0.85552-0.40734c0.35062 0.2388 0.77136 0.3933 1.2202 0.3933 1.15 0 2.0756-0.91299 2.0756-2.0226 0.01515-1.1096-0.92562-2.0226-2.0753-2.0226-0.42043 0-0.81311 0.12648-1.1497 0.33711z" fill="#f5831f" stroke-width="2.2968"/></svg>
