<svg width="198.5" height="38.2" version="1.1" viewBox="35 370 198.5 38.2" xmlns="http://www.w3.org/2000/svg" xmlns:xlink="http://www.w3.org/1999/xlink">
 <defs>
  <linearGradient id="linearGradient17877" x1="28.596" x2="226.78" y1="476.24" y2="476.24" gradientTransform="matrix(1.0026 0 0 1.0136 6.1828 -94.29)" gradientUnits="userSpaceOnUse">
   <stop style="stop-color:#2f2524" offset="0"/>
   <stop style="stop-color:#554e49" offset=".019637"/>
   <stop style="stop-color:#2f2524" offset=".032365"/>
   <stop style="stop-color:#2f2524" offset=".96634"/>
   <stop style="stop-color:#564f4c" offset=".98065"/>
   <stop style="stop-color:#2f2524" offset="1"/>
  </linearGradient>
 </defs>
 <rect x="35" y="370" width="198.5" height="38.2" fill="#2f2524" stroke="#000" stroke-width=".51739" style="fill:url(#linearGradient17877)"/>
 <path d="m52.368 374.94c-5.7416 0-10.365 4.6719-10.365 10.477v17.851h184.49v-17.851c0-5.8048-4.623-10.477-10.365-10.477z" style="fill:#241c1c;stroke-width:.31788;stroke:#000"/>
 <rect x="73.653" y="384.63" width="58.812" height="11.526" rx=".32535" ry=".32876" fill="#ebebeb" stroke="#000" stroke-linejoin="round" stroke-width=".36421"/>
 <g transform="matrix(.86026 0 0 .86972 15.848 49.165)" stroke-width="1.8872">
  <path d="m68.656 389.07h3.3095l-0.0049-2.0211 1.2045-1e-3v-0.75672h3.8822l-9.12e-4 0.7587h1.2537v2.0211h3.2944v8.7017l-12.937 0.0283z" fill="#1a1a1a"/>
  <path d="m78.588 388.54h3.2687v-1.4207h-3.2687z" fill="#008000" style="fill:#aad400"/>
  <path d="m68.362 388.54h3.2974v-1.4281h-3.2974z" fill="#008000" style="fill:#aad400"/>
  <path d="m86.158 389.07h3.3095l-0.0049-2.0211 1.2045-1e-3v-0.75672h3.8822l-9.12e-4 0.7587h1.2537v2.0211h3.2944v8.7017l-12.937 0.0283z" fill="#1a1a1a"/>
  <path d="m96.09 388.54h3.2687v-1.4207h-3.2687z" fill="#008000" style="fill:#aad400"/>
  <path d="m85.864 388.54h3.2974v-1.4281h-3.2974z" fill="#008000" style="fill:#aad400"/>
  <path d="m103.66 389.07h3.3095l-5e-3 -2.0211 1.2045-1e-3v-0.75672h3.8822l-9.1e-4 0.7587h1.2537v2.0211h3.2944v8.7017l-12.937 0.0283z" fill="#1a1a1a"/>
  <path d="m113.59 388.54h3.2687v-1.4207h-3.2687z" fill="#008000" style="fill:#aad400"/>
  <path d="m103.37 388.54h3.2974v-1.4281h-3.2974z" fill="#008000" style="fill:#aad400"/>
  <path d="m121.16 389.07h3.3095l-5e-3 -2.0211 1.2045-1e-3v-0.75672h3.8822l-9.1e-4 0.7587h1.2537v2.0211h3.2944v8.7017l-12.937 0.0283z" fill="#1a1a1a"/>
  <path d="m131.1 388.54h3.2687v-1.4207h-3.2687z" fill="#008000" style="fill:#aad400"/>
  <path d="m120.87 388.54h3.2974v-1.4281h-3.2974z" fill="#008000" style="fill:#aad400"/>
 </g>
 <rect transform="rotate(90)" x="386.16" y="-185.7" width="6.246" height="15.641" rx=".38335" ry=".37899" stroke="#e3e3df" stroke-width=".3861"/>
 <path d="m71.814 399.33c0 0.64128 0.29422 1.2545 0.9758 1.2545 0.67412 0 0.95343-0.61675 0.95343-1.2545 0-0.64827-0.26816-1.2545-0.95343-1.2545-0.68156 0-0.9758 0.61323-0.9758 1.2545zm0.46555 0c0-0.47307 0.14525-0.85853 0.50279-0.85853 0.35754 0 0.50279 0.38545 0.50279 0.85853 0 0.47307-0.14525 0.85852-0.50279 0.85852-0.35754 0-0.50279-0.38546-0.50279-0.85852z" fill="#ff8900" stroke-width="1.3576" style="fill:#fff"/>
 <path d="m90.665 399.9v-2.029h-0.44694l-0.76351 0.31889 0.14526 0.3434 0.60708-0.2523v1.6189h-0.68901v0.39598h1.7691v-0.39598z" style="fill:#fff;stroke-width:1.3576"/>
 <path d="m107.19 398.54c0.55405-0.34566 1.0801-0.23743 1.0801 0.15067 0 0.25581-0.28678 0.59923-1.1918 1.4578v0.26983h1.676v-0.37495h-1.0019c0.78961-0.79547 0.9758-1.0408 0.9758-1.3702 0-0.78618-1.0952-0.92043-1.7318-0.48007z" style="fill:#fff;stroke-width:1.3576"/>
 <path d="m124.77 398.41c0.54674-0.27792 1.013-0.20297 1.013 0.14017-0.0242 0.36458-0.32046 0.34005-0.76351 0.3434v0.37146c0.46685 0 0.89758-0.0162 0.89758 0.36443 0 0.45366-0.80344 0.39895-1.27 0.15069l-0.17505 0.37145c0.92261 0.42333 1.9032 0.19745 1.9032-0.50461 0-0.33991-0.17505-0.53264-0.42831-0.64477 0.16014-0.10865 0.29424-0.27685 0.29424-0.4941 0-0.74182-0.94606-0.79728-1.6498-0.44153z" style="fill:#fff;stroke-width:1.3576"/>
 <path d="m171.47 389.11h12.576v-1.3842h-12.576z" fill="#a09a9a" stroke-width="1.8984" style="fill:#0055d4"/>
 <g transform="matrix(1.0026 0 0 1.0136 6.1828 -94.842)" style="fill:#fff">
  <g transform="matrix(.46873 0 0 .46873 63.915 298.84)" stroke-width="1.8832" style="fill:#fff">
   <path d="m152.64 401.28c-1.0389 0-1.6934 0.7735-1.6934 1.7404 0 0.96687 0.65452 1.721 1.6934 1.721 1.0389 0 1.6934-0.75415 1.6934-1.721 0-0.96686-0.65452-1.7404-1.6934-1.7404zm0 3.1084c-0.83114 0-1.2623-0.58979-1.2623-1.3681 0-0.77833 0.43116-1.3874 1.2623-1.3874 0.83115 0 1.2623 0.60912 1.2623 1.3874 0 0.77831-0.43116 1.3681-1.2623 1.3681z" style="fill:#fff"/>
   <path d="m155.05 401.34v3.3453h0.43116v-2.8377l1.9116 2.8377h0.59738v-3.3453h-0.43116v2.8377l-1.9168-2.8377z" style="fill:#fff"/>
   <path d="m163.43 401.28c-1.0389 0-1.6934 0.7735-1.6934 1.7404 0 0.96687 0.65452 1.721 1.6934 1.721 1.0389 0 1.6934-0.75415 1.6934-1.721 0-0.96686-0.65452-1.7404-1.6934-1.7404zm0 3.1084c-0.83115 0-1.2623-0.58979-1.2623-1.3681 0-0.77833 0.43116-1.3874 1.2623-1.3874s1.2623 0.60912 1.2623 1.3874c0 0.77831-0.43116 1.3681-1.2623 1.3681z" style="fill:#fff"/>
   <path d="m165.84 401.34v3.3453h2.0466v-0.35291h-1.6155v-2.9925z" style="fill:#fff"/>
   <path d="m168.38 404.7h2.109v-0.35292h-1.6779v-1.2521h1.5376v-0.35292h-1.5376v-1.0345h1.6779v-0.35292h-2.109z" style="fill:#fff"/>
   <path d="m150.43 404.5-0.16622-0.33357c-1.2383 0.55137-2.1713-0.0628-2.1713-1.1506 0-1.3234 1.258-1.6881 2.1713-1.1699l0.16622-0.33357c-1.2587-0.57377-2.8131-0.0189-2.7687 1.5035 0 1.4295 1.3583 2.1199 2.7687 1.4841z" style="fill:#fff"/>
  </g>
  <path d="m139.48 488.13c0-0.5076-0.93011-0.42374-0.93011-0.77046 0-0.32086 0.48364-0.30714 0.7938-0.15863l0.0779-0.15635c-0.53337-0.25633-1.0738-0.0721-1.0738 0.31498 0 0.50759 0.93011 0.42374 0.93011 0.77046 0 0.29479-0.51636 0.35237-0.89116 0.13596l-0.0779 0.15636c0.54073 0.26068 1.1712 0.1185 1.1712-0.29232z" stroke-width=".88272" style="fill:#fff"/>
 </g>
 <rect x="137.09" y="375.45" width="15.855" height="21.087" fill="#ebebeb" fill-rule="evenodd" stroke="#000" stroke-linecap="round" stroke-width=".27099"/>
 <path d="m139.06 378.31h2.8915l-5e-3 -1.7853 1.0524-8.8e-4v-0.66843h3.3919l-8.1e-4 0.67018h1.0954v1.7853h2.8783v7.6864l-11.303 0.025z" fill="#1a1a1a" stroke-width="1.6579"/>
 <path d="m148.13 391.42c0.50896-0.0242 0.7686 0.25245 0.75577 0.51037v1.1196c-0.0289 0.39105-1.1344 0.97335-1.9792 0.93206h-4.0096c-0.27248 0.0512-1.7896-0.58084-1.7318-0.9616v-1.1192c-0.0334-0.32776 0.49681-0.4884 0.77702-0.48126z" fill="#fff" stroke-width="1.2503"/>
 <path d="m148 391.59c0.63544-0.0213 0.7147 0.24167 0.7031 0.46787v1.018c-0.0268 0.25538-0.99832 0.767-1.7755 0.73064h-3.9422c-0.25103 0.045-1.6051-0.518-1.6373-0.75633v-1.0181c-0.0301-0.28722 0.42416-0.44854 0.6818-0.44212z" fill="#1d1d1d" stroke-width="1.2807"/>
 <path d="m143.05 392.13c-4e-3 -6e-5 -9e-3 6.9e-4 -0.0137 6.9e-4h-0.0117c-0.17537-2e-3 -0.4545 0.0383-0.43385 0.14758v0.36355c6e-3 0.024 0.0742 0.0562 0.17274 0.0894 0.26375 0.0942 0.80711 0.20605 0.93643 0.19294h2.507c0.52817 0.014 1.2218-0.16548 1.2387-0.26267v-0.37368c8e-3 -0.0861-2e-3 -0.16577-0.43386-0.15773h-3.9616z" fill="#404040" stroke-width=".59025"/>
 <path d="m143.08 392.33v0.38852h0.35639v-0.38852zm0.85181 0v0.38852h0.35638v-0.38852zm0.88902 0v0.38852h0.35638v-0.38852zm0.90859 0v0.38852h0.35639v-0.38852zm0.8714 0v0.38852h0.35639v-0.38852z" fill="#070707" stroke-width="1.3276"/>
 <path class="st1" d="m54.099 381.21c0 0.75193-0.59411 1.3629-1.3182 1.3629-0.72406 0-1.3182-0.61097-1.3182-1.3629v-1.1561s0.63124 0.1598 0.63124 0.83654v0.31957c0 0.41356 0.30633 0.74253 0.68692 0.74253 0.3806 0 0.68694-0.32897 0.68694-0.74253v-0.65812c0.02787-0.56395 0.511-0.74254 0.63168-0.80834zm-2.8963-0.54516c-0.12996-0.11274-0.30633-0.17859-0.49199-0.17859-0.41773 0-0.7519 0.32898-0.7519 0.74255v1.3441h-0.63124v-2.4627s0.25993 9e-3 0.427 0.13166c0.24134-0.2444 0.58482-0.38538 0.95614-0.38538 0.1764 0 0.34347 0.0282 0.49199 0.094zm-4.2795 0.54508c0-0.41355 0.34346-0.75194 0.7612-0.75194s0.76119 0.33839 0.76119 0.75194c0 0.41357-0.34346 0.75196-0.76119 0.75196s-0.7612-0.33839-0.7612-0.75196zm-0.61266 8e-5c0 0.75195 0.61268 1.3535 1.3739 1.3535 0.31562 0 0.60338-0.10336 0.83545-0.28199 0.13925 0.23498 0.53841 0.28199 0.53841 0.28199v-1.3535c0-0.74253-0.61268-1.3535-1.3739-1.3535-0.7612 0-1.3739 0.61095-1.3739 1.3535zm11.595-8e-5c0-0.41355 0.34346-0.75194 0.7612-0.75194 0.41773 0 0.76119 0.33839 0.76119 0.75194 0 0.41357-0.34346 0.75196-0.76119 0.75196-0.41774 0-0.7612-0.33839-0.7612-0.75196zm-0.61265 8e-5c0 0.75195 0.61266 1.3535 1.3739 1.3535 0.31562 0 0.60339-0.10336 0.83545-0.28199 0.13925 0.23498 0.5384 0.28199 0.5384 0.28199v-1.3535c0-0.74253-0.61266-1.3535-1.3739-1.3535s-1.3739 0.61095-1.3739 1.3535zm-2.3021-8e-5c0-0.41355 0.34346-0.75194 0.7612-0.75194 0.41773 0 0.76119 0.33839 0.76119 0.75194 0.01003 0.41357-0.33419 0.75196-0.76119 0.75196-0.41774 0-0.7612-0.33839-0.7612-0.75196zm0-1.344c-0.02787-0.56396-0.49243-0.74254-0.6131-0.80834v3.5153s0.40845-0.047 0.56626-0.27259c0.23207 0.1598 0.51056 0.26319 0.80763 0.26319 0.7612 0 1.3739-0.61095 1.3739-1.3535 0.01003-0.74254-0.61266-1.3535-1.3737-1.3535-0.27828 0-0.53819 0.0846-0.76099 0.22558z" fill="#f5831f" stroke-width="1.5286"/>
 <rect x="52.357" y="387.1" width="6.4361" height="8.8312" fill="#999" stroke="#000" stroke-width=".46226" style="fill:#1a1a1a"/>
 <ellipse cx="55.561" cy="391.27" rx="1.6443" ry="1.6623" fill="#ebebeb" fill-rule="evenodd" stroke="#000" stroke-width="1.6392"/>
 <ellipse cx="62.038" cy="392.92" rx="1.0855" ry="1.0974"/>
 <path d="m61.239 400.24c0.02927 0.33911 0.32563 0.24926 0.50216 0.18013v0.10997c-0.41836 0.14496-0.61949-0.0283-0.62225-0.31101 0.02388-0.54644 0.70727-0.45958 0.64914 0.0209zm0.41399-0.0911c0-0.32389-0.41056-0.23158-0.41024 5.4e-4z" stroke-width="1.2316px" style="fill:#fff"/>
 <path d="m62.39 399.99c-0.31778-0.12248-0.38147 0.0163-0.38147 0.0528 0 0.16532 0.41899 0.054 0.41899 0.32872 0 0.24678-0.29088 0.23601-0.5353 0.1698v-0.12013c0.19902 0.11615 0.41712 0.0744 0.41712-0.0404 0-0.19189-0.41212-0.038-0.41212-0.33047 0-0.27468 0.34912-0.20615 0.4928-0.17024z" stroke-width="1.2316px" style="fill:#fff"/>
 <path d="m63.489 399.68v0.20105h0.23702v0.0904h-0.23702v0.38441c0 0.12036 0.02706 0.13597 0.11882 0.13597h0.1182v0.0973h-0.1182c-0.22676 0-0.22698-0.11999-0.2345-0.23325v-0.38441h-0.08442v-0.0904h0.08442v-0.20104z" stroke-width="1.2316px" style="fill:#fff"/>
 <path d="m62.665 400.24c0.02923 0.33911 0.32563 0.24926 0.50216 0.18013v0.10997c-0.41836 0.14496-0.61949-0.0283-0.62225-0.31101 0.02391-0.54644 0.70727-0.45958 0.64914 0.0209zm0.41399-0.0911c0-0.32389-0.41055-0.23158-0.41024 5.4e-4z" style="fill:#fff;stroke-width:.69489"/>
 <path d="m61.081 400.58h-0.1357c-0.13329-0.30966-0.2095-0.36796-0.2095-0.36796-0.06767-0.0394-0.15613-0.0309-0.25578-0.0309v0.39894h-0.12632v-0.94394h0.28516c0.43375 0 0.30493 0.50936 0.15758 0.50137 0.15799 0.0922 0.20784 0.31347 0.28456 0.44254zm-0.60097-0.83899v0.33508h0.15884c0.28885 0 0.23771-0.33507 0-0.33507z" stroke-width="1.2316px" style="fill:#fff"/>
 <text transform="scale(.99455 1.0055)" x="208.64696" y="380.10352" style="font-family:sans-serif;font-size:5.3765px;line-height:1.25;stroke-width:1.0081" xml:space="preserve"><tspan x="208.64696" y="380.10352" style="fill:#ffffff;font-size:5.3765px;stroke-width:1.0081">9004</tspan></text>
</svg>
