<svg width="86" height="150" version="1.1" viewBox="35 370 45.673818 48.683334" xmlns="http://www.w3.org/2000/svg" xmlns:xlink="http://www.w3.org/1999/xlink">
 <defs>
  <linearGradient id="linearGradient4809">
   <stop stop-color="#fff" offset="0"/>
   <stop stop-color="#808080" offset="1"/>
  </linearGradient>
  <linearGradient id="linearGradient6911" x1="-142.7" x2="-141.53" y1="349.43" y2="349.43" gradientTransform="rotate(-45 -51.992 247.52)" gradientUnits="userSpaceOnUse" xlink:href="#linearGradient4809"/>
  <linearGradient id="linearGradient6913" x1="-144.8" x2="-143.76" y1="349.45" y2="349.47" gradientTransform="rotate(-45 -51.992 247.52)" gradientUnits="userSpaceOnUse" xlink:href="#linearGradient4809"/>
  <linearGradient id="linearGradient6915" x1="-146.93" x2="-145.85" y1="349.25" y2="349.25" gradientTransform="rotate(-45 -51.992 247.52)" gradientUnits="userSpaceOnUse" xlink:href="#linearGradient4809"/>
  <linearGradient id="linearGradient6917" x1="-148.96" x2="-147.96" y1="349.38" y2="349.38" gradientTransform="rotate(-45 -51.992 247.52)" gradientUnits="userSpaceOnUse" xlink:href="#linearGradient4809"/>
  <linearGradient id="linearGradient6929" x1="-140.59" x2="-139.46" y1="349.43" y2="349.43" gradientTransform="rotate(-45 -51.992 247.52)" gradientUnits="userSpaceOnUse" xlink:href="#linearGradient4809"/>
  <linearGradient id="linearGradient6931" x1="-138.44" x2="-137.37" y1="349.43" y2="349.43" gradientTransform="rotate(-45 -51.992 247.52)" gradientUnits="userSpaceOnUse" xlink:href="#linearGradient4809"/>
  <linearGradient id="linearGradient6933" x1="-136.3" x2="-135.27" y1="349.43" y2="349.43" gradientTransform="rotate(-45 -51.992 247.52)" gradientUnits="userSpaceOnUse" xlink:href="#linearGradient4809"/>
  <linearGradient id="linearGradient6935" x1="-134.16" x2="-133.07" y1="349.43" y2="349.43" gradientTransform="rotate(-45 -51.992 247.52)" gradientUnits="userSpaceOnUse" xlink:href="#linearGradient4809"/>
  <linearGradient id="linearGradient6937" x1="-132.09" x2="-131.08" y1="349.43" y2="349.43" gradientTransform="rotate(-45 -51.992 247.52)" gradientUnits="userSpaceOnUse" xlink:href="#linearGradient4809"/>
  <linearGradient id="linearGradient6939" x1="-129.89" x2="-128.85" y1="353" y2="353" gradientTransform="rotate(-45 -51.992 247.52)" gradientUnits="userSpaceOnUse" xlink:href="#linearGradient4809"/>
  <linearGradient id="linearGradient6941" x1="-127.82" x2="-126.79" y1="354.4" y2="354.4" gradientTransform="rotate(-45 -51.992 247.52)" gradientUnits="userSpaceOnUse" xlink:href="#linearGradient4809"/>
  <linearGradient id="linearGradient6943" x1="-125.71" x2="-124.65" y1="356.02" y2="356.02" gradientTransform="rotate(-45 -51.992 247.52)" gradientUnits="userSpaceOnUse" xlink:href="#linearGradient4809"/>
  <linearGradient id="linearGradient6968" x1="-49.879" x2="-49.165" y1="392.87" y2="392.16" gradientUnits="userSpaceOnUse" xlink:href="#linearGradient4809"/>
  <linearGradient id="linearGradient6976" x1="-49.459" x2="-48.656" y1="390.38" y2="389.58" gradientUnits="userSpaceOnUse" xlink:href="#linearGradient4809"/>
  <linearGradient id="linearGradient7123" x1="-8.2796" x2="-7.4864" y1="428.7" y2="427.91" gradientUnits="userSpaceOnUse" xlink:href="#linearGradient4809"/>
  <linearGradient id="linearGradient7125" x1="-8.2149" x2="-7.4255" y1="431.85" y2="431.06" gradientUnits="userSpaceOnUse" xlink:href="#linearGradient4809"/>
  <linearGradient id="linearGradient7127" x1="-8.2909" x2="-7.5052" y1="434.71" y2="433.92" gradientUnits="userSpaceOnUse" xlink:href="#linearGradient4809"/>
  <linearGradient id="linearGradient7129" x1="-10.391" x2="-9.5999" y1="435.6" y2="434.81" gradientUnits="userSpaceOnUse" xlink:href="#linearGradient4809"/>
  <linearGradient id="linearGradient7131" x1="-8.8073" x2="-8.0502" y1="440.15" y2="439.39" gradientUnits="userSpaceOnUse" xlink:href="#linearGradient4809"/>
  <linearGradient id="linearGradient7133" x1="-9.1601" x2="-8.364" y1="442.87" y2="442.07" gradientUnits="userSpaceOnUse" xlink:href="#linearGradient4809"/>
  <linearGradient id="linearGradient7135" x1="-9.447" x2="-8.6216" y1="445.57" y2="444.74" gradientUnits="userSpaceOnUse" xlink:href="#linearGradient4809"/>
  <linearGradient id="linearGradient7137" x1="-10.126" x2="-9.2826" y1="447.92" y2="447.08" gradientUnits="userSpaceOnUse" xlink:href="#linearGradient4809"/>
  <linearGradient id="linearGradient7139" x1="-11.484" x2="-10.654" y1="449.55" y2="448.72" gradientUnits="userSpaceOnUse" xlink:href="#linearGradient4809"/>
  <linearGradient id="linearGradient7141" x1="-13.047" x2="-12.227" y1="451.05" y2="450.23" gradientUnits="userSpaceOnUse" xlink:href="#linearGradient4809"/>
  <linearGradient id="linearGradient7143" x1="-16.901" x2="-16.06" y1="450.21" y2="449.37" gradientUnits="userSpaceOnUse" xlink:href="#linearGradient4809"/>
  <linearGradient id="linearGradient7145" x1="-20.843" x2="-20.141" y1="449.17" y2="448.46" gradientUnits="userSpaceOnUse" xlink:href="#linearGradient4809"/>
  <linearGradient id="linearGradient7149" x1="-24.7" x2="-23.951" y1="451.34" y2="450.59" gradientUnits="userSpaceOnUse" xlink:href="#linearGradient4809"/>
  <linearGradient id="linearGradient7151" x1="-26.584" x2="-25.872" y1="452.4" y2="451.68" gradientUnits="userSpaceOnUse" xlink:href="#linearGradient4809"/>
  <linearGradient id="linearGradient7153" x1="-29.299" x2="-28.622" y1="452.58" y2="451.9" gradientUnits="userSpaceOnUse" xlink:href="#linearGradient4809"/>
  <linearGradient id="linearGradient7155" x1="-31.836" x2="-31.216" y1="452.97" y2="452.35" gradientUnits="userSpaceOnUse" xlink:href="#linearGradient4809"/>
  <linearGradient id="linearGradient4811" x1="-22.878" x2="-22.067" y1="450.14" y2="449.33" gradientUnits="userSpaceOnUse" xlink:href="#linearGradient4809"/>
  <linearGradient id="linearGradient4821" x1="-50.656" x2="-49.84" y1="395.15" y2="394.33" gradientUnits="userSpaceOnUse" xlink:href="#linearGradient4809"/>
  <linearGradient id="linearGradient4823" x1="-50.956" x2="-50.154" y1="397.92" y2="397.12" gradientUnits="userSpaceOnUse" xlink:href="#linearGradient4809"/>
  <linearGradient id="linearGradient4825" x1="-50.846" x2="-50.231" y1="400.74" y2="400.12" gradientUnits="userSpaceOnUse" xlink:href="#linearGradient4809"/>
 </defs>
 <g transform="matrix(.99367 0 0 .99619 86.913 -18.405)">
  <g>
   <path transform="matrix(.53109 0 0 .53109 35 354.3)" d="m-149.44 38c-8.0426 0-14.562 6.5199-14.562 14.562 8.9e-4 42.103 0 84.302 0 126.44 0 3.047 4.906 9 11 9 21.066-0.13395 42.385 0.10444 60.438 0 8.0426 0 14.562-6.5198 14.562-14.562-0.0012-41.436 0-82.969 0-124.44 0-6.094-4.906-11-11-11-20.136 5e-6 -40.33 0-60.438 0z" fill="#f0f0f0" fill-rule="evenodd" stroke="#e4e4e0" stroke-linejoin="round" stroke-width=".54596"/>
   <path d="m-50.627 407.21 0.86343 0.86343" fill="none" stroke="#008000" stroke-linecap="round" stroke-width=".93338"/>
   <path d="m-50.826 411.19 0.86038 0.82719" fill="none" stroke="#008000" stroke-linecap="round" stroke-width=".93338"/>
  </g>
  <path d="m-50.424 447.83c0 1.547 2.4301 4.5696 5.4487 4.5696 41.488 0 37.15-31.855 37.15-70.574 0-3.0941-2.4301-5.585-5.4487-5.585-44.145-0.0963-37.15 33.682-37.15 71.59z" fill="#e6e6e6" fill-rule="evenodd"/>
  <g fill="#ccc" fill-rule="evenodd" shape-rendering="auto" stroke-linecap="round" stroke-width=".20073">
   <path d="m-49.344 377.63a0.46674 0.46674 0 0 0 0.01105 0.66015l6.8708 6.8708a0.4668 0.4668 0 1 0 0.66015 -0.66015l-6.8708-6.8708a0.46674 0.46674 0 0 0 -0.6712 0z" color="#000000" color-rendering="auto" dominant-baseline="auto" image-rendering="auto" solid-color="#000000" stroke="url(#linearGradient6911)" style="font-feature-settings:normal;font-variant-alternates:normal;font-variant-caps:normal;font-variant-ligatures:normal;font-variant-numeric:normal;font-variant-position:normal;isolation:auto;mix-blend-mode:normal;shape-padding:0;text-decoration-color:#000000;text-decoration-line:none;text-decoration-style:solid;text-indent:0;text-orientation:mixed;text-transform:none;white-space:normal"/>
   <path d="m-50.577 379.4a0.46674 0.46674 0 0 0 0.0097 0.65876l6.6153 6.6153a0.4668 0.4668 0 1 0 0.66015 -0.66015l-6.6153-6.6153a0.46674 0.46674 0 0 0 -0.66981 1e-3z" color="#000000" color-rendering="auto" dominant-baseline="auto" image-rendering="auto" solid-color="#000000" stroke="url(#linearGradient6913)" style="font-feature-settings:normal;font-variant-alternates:normal;font-variant-caps:normal;font-variant-ligatures:normal;font-variant-numeric:normal;font-variant-position:normal;isolation:auto;mix-blend-mode:normal;shape-padding:0;text-decoration-color:#000000;text-decoration-line:none;text-decoration-style:solid;text-indent:0;text-orientation:mixed;text-transform:none;white-space:normal"/>
   <path d="m-50.949 382.03a0.46674 0.46674 0 0 0 0.01105 0.66015l5.6513 5.6513a0.4668 0.4668 0 1 0 0.66016 -0.66016l-5.6513-5.6513a0.46674 0.46674 0 0 0 -0.6712 0z" color="#000000" color-rendering="auto" dominant-baseline="auto" image-rendering="auto" solid-color="#000000" stroke="url(#linearGradient6915)" style="font-feature-settings:normal;font-variant-alternates:normal;font-variant-caps:normal;font-variant-ligatures:normal;font-variant-numeric:normal;font-variant-position:normal;isolation:auto;mix-blend-mode:normal;shape-padding:0;text-decoration-color:#000000;text-decoration-line:none;text-decoration-style:solid;text-indent:0;text-orientation:mixed;text-transform:none;white-space:normal"/>
   <path d="m-51.02 384.96a0.46674 0.46674 0 0 0 0.0097 0.65876l4.5741 4.5741a0.4668 0.4668 0 1 0 0.66015 -0.66015l-4.5741-4.5741a0.46674 0.46674 0 0 0 -0.66982 1e-3z" color="#000000" color-rendering="auto" dominant-baseline="auto" image-rendering="auto" solid-color="#000000" stroke="url(#linearGradient6917)" style="font-feature-settings:normal;font-variant-alternates:normal;font-variant-caps:normal;font-variant-ligatures:normal;font-variant-numeric:normal;font-variant-position:normal;isolation:auto;mix-blend-mode:normal;shape-padding:0;text-decoration-color:#000000;text-decoration-line:none;text-decoration-style:solid;text-indent:0;text-orientation:mixed;text-transform:none;white-space:normal"/>
   <path d="m-51.092 387.88a0.46674 0.46674 0 0 0 0.0097 0.66153l3.6018 3.6018a0.4668 0.4668 0 1 0 0.66015 -0.66016l-3.6018-3.6018a0.46674 0.46674 0 0 0 -0.66982 -1e-3z" color="#000000" color-rendering="auto" dominant-baseline="auto" image-rendering="auto" solid-color="#000000" stroke="url(#linearGradient6976)" style="font-feature-settings:normal;font-variant-alternates:normal;font-variant-caps:normal;font-variant-ligatures:normal;font-variant-numeric:normal;font-variant-position:normal;isolation:auto;mix-blend-mode:normal;shape-padding:0;text-decoration-color:#000000;text-decoration-line:none;text-decoration-style:solid;text-indent:0;text-orientation:mixed;text-transform:none;white-space:normal"/>
   <path d="m-51.313 390.66a0.46674 0.46674 0 0 0 0.0083 0.66016l2.9555 2.9555a0.4668 0.4668 0 1 0 0.66015 -0.66014l-2.9555-2.9555a0.46674 0.46674 0 0 0 -0.66844 -1e-5z" color="#000000" color-rendering="auto" dominant-baseline="auto" image-rendering="auto" solid-color="#000000" stroke="url(#linearGradient6968)" style="font-feature-settings:normal;font-variant-alternates:normal;font-variant-caps:normal;font-variant-ligatures:normal;font-variant-numeric:normal;font-variant-position:normal;isolation:auto;mix-blend-mode:normal;shape-padding:0;text-decoration-color:#000000;text-decoration-line:none;text-decoration-style:solid;text-indent:0;text-orientation:mixed;text-transform:none;white-space:normal"/>
   <path d="m-51.221 393.75a0.46674 0.46674 0 0 0 0.0097 0.66153l1.9584 1.9584a0.4668 0.4668 0 1 0 0.66015 -0.66015l-1.9584-1.9584a0.46674 0.46674 0 0 0 -0.66982 -1e-3z" color="#000000" color-rendering="auto" dominant-baseline="auto" image-rendering="auto" solid-color="#000000" stroke="url(#linearGradient4821)" style="font-feature-settings:normal;font-variant-alternates:normal;font-variant-caps:normal;font-variant-ligatures:normal;font-variant-numeric:normal;font-variant-position:normal;isolation:auto;mix-blend-mode:normal;shape-padding:0;text-decoration-color:#000000;text-decoration-line:none;text-decoration-style:solid;text-indent:0;text-orientation:mixed;text-transform:none;white-space:normal"/>
   <path d="m-51.143 396.83a0.46674 0.46674 0 0 0 0.0097 0.65876l1.196 1.196a0.46674 0.46674 0 1 0 0.65877 -0.65877l-1.196-1.196a0.46674 0.46674 0 0 0 -0.66844 1e-5z" color="#000000" color-rendering="auto" dominant-baseline="auto" image-rendering="auto" solid-color="#000000" stroke="url(#linearGradient4823)" style="font-feature-settings:normal;font-variant-alternates:normal;font-variant-caps:normal;font-variant-ligatures:normal;font-variant-numeric:normal;font-variant-position:normal;isolation:auto;mix-blend-mode:normal;shape-padding:0;text-decoration-color:#000000;text-decoration-line:none;text-decoration-style:solid;text-indent:0;text-orientation:mixed;text-transform:none;white-space:normal"/>
   <path d="m-51.016 399.96a0.46674 0.46674 0 0 0 0.0097 0.65877l0.37013 0.37013a0.4668 0.4668 0 1 0 0.66016 -0.66015l-0.37013-0.37013a0.46674 0.46674 0 0 0 -0.66981 1e-3z" color="#000000" color-rendering="auto" dominant-baseline="auto" image-rendering="auto" solid-color="#000000" stroke="url(#linearGradient4825)" style="font-feature-settings:normal;font-variant-alternates:normal;font-variant-caps:normal;font-variant-ligatures:normal;font-variant-numeric:normal;font-variant-position:normal;isolation:auto;mix-blend-mode:normal;shape-padding:0;text-decoration-color:#000000;text-decoration-line:none;text-decoration-style:solid;text-indent:0;text-orientation:mixed;text-transform:none;white-space:normal"/>
   <path d="m-47.68 376.3a0.46674 0.46674 0 0 0 0.01105 0.66016l6.6139 6.6139a0.4668 0.4668 0 1 0 0.66016 -0.66016l-6.6139-6.6139a0.46674 0.46674 0 0 0 -0.6712 0z" color="#000000" color-rendering="auto" dominant-baseline="auto" image-rendering="auto" solid-color="#000000" stroke="url(#linearGradient6929)" style="font-feature-settings:normal;font-variant-alternates:normal;font-variant-caps:normal;font-variant-ligatures:normal;font-variant-numeric:normal;font-variant-position:normal;isolation:auto;mix-blend-mode:normal;shape-padding:0;text-decoration-color:#000000;text-decoration-line:none;text-decoration-style:solid;text-indent:0;text-orientation:mixed;text-transform:none;white-space:normal"/>
   <path d="m-45.05 375.93a0.46674 0.46674 0 0 0 0.0097 0.65877l5.6513 5.6513a0.46674 0.46674 0 1 0 0.65877 -0.65876l-5.6513-5.6513a0.46674 0.46674 0 0 0 -0.66844 0z" color="#000000" color-rendering="auto" dominant-baseline="auto" image-rendering="auto" solid-color="#000000" stroke="url(#linearGradient6931)" style="font-feature-settings:normal;font-variant-alternates:normal;font-variant-caps:normal;font-variant-ligatures:normal;font-variant-numeric:normal;font-variant-position:normal;isolation:auto;mix-blend-mode:normal;shape-padding:0;text-decoration-color:#000000;text-decoration-line:none;text-decoration-style:solid;text-indent:0;text-orientation:mixed;text-transform:none;white-space:normal"/>
   <path d="m-42.124 375.85a0.46674 0.46674 0 0 0 0.0083 0.66015l4.5741 4.5741a0.4668 0.4668 0 1 0 0.66015 -0.66015l-4.5741-4.5741a0.46674 0.46674 0 0 0 -0.66844 0z" color="#000000" color-rendering="auto" dominant-baseline="auto" image-rendering="auto" solid-color="#000000" stroke="url(#linearGradient6933)" style="font-feature-settings:normal;font-variant-alternates:normal;font-variant-caps:normal;font-variant-ligatures:normal;font-variant-numeric:normal;font-variant-position:normal;isolation:auto;mix-blend-mode:normal;shape-padding:0;text-decoration-color:#000000;text-decoration-line:none;text-decoration-style:solid;text-indent:0;text-orientation:mixed;text-transform:none;white-space:normal"/>
   <path d="m-39.33 375.65a0.46674 0.46674 0 0 0 0.0097 0.66153l3.6018 3.6018a0.4668 0.4668 0 1 0 0.66015 -0.66015l-3.6018-3.6018a0.46674 0.46674 0 0 0 -0.66981 -1e-3z" color="#000000" color-rendering="auto" dominant-baseline="auto" image-rendering="auto" solid-color="#000000" stroke="url(#linearGradient6935)" style="font-feature-settings:normal;font-variant-alternates:normal;font-variant-caps:normal;font-variant-ligatures:normal;font-variant-numeric:normal;font-variant-position:normal;isolation:auto;mix-blend-mode:normal;shape-padding:0;text-decoration-color:#000000;text-decoration-line:none;text-decoration-style:solid;text-indent:0;text-orientation:mixed;text-transform:none;white-space:normal"/>
   <path d="m-36.518 375.46a0.46674 0.46674 0 0 0 0.0083 0.66014l2.9555 2.9555a0.4668 0.4668 0 1 0 0.66016 -0.66015l-2.9555-2.9555a0.46674 0.46674 0 0 0 -0.66844 1e-5z" color="#000000" color-rendering="auto" dominant-baseline="auto" image-rendering="auto" solid-color="#000000" stroke="url(#linearGradient6937)" style="font-feature-settings:normal;font-variant-alternates:normal;font-variant-caps:normal;font-variant-ligatures:normal;font-variant-numeric:normal;font-variant-position:normal;isolation:auto;mix-blend-mode:normal;shape-padding:0;text-decoration-color:#000000;text-decoration-line:none;text-decoration-style:solid;text-indent:0;text-orientation:mixed;text-transform:none;white-space:normal"/>
   <path d="m-33.56 375.42a0.46674 0.46674 0 0 0 0.01105 0.66014l1.9584 1.9584a0.4668 0.4668 0 1 0 0.66015 -0.66015l-1.9584-1.9584a0.46674 0.46674 0 0 0 -0.6712 0z" color="#000000" color-rendering="auto" dominant-baseline="auto" image-rendering="auto" solid-color="#000000" stroke="url(#linearGradient6939)" style="font-feature-settings:normal;font-variant-alternates:normal;font-variant-caps:normal;font-variant-ligatures:normal;font-variant-numeric:normal;font-variant-position:normal;isolation:auto;mix-blend-mode:normal;shape-padding:0;text-decoration-color:#000000;text-decoration-line:none;text-decoration-style:solid;text-indent:0;text-orientation:mixed;text-transform:none;white-space:normal"/>
   <path d="m-30.516 375.47a0.46674 0.46674 0 0 0 0.0097 0.65878l1.196 1.196a0.4668 0.4668 0 1 0 0.66016 -0.66016l-1.196-1.196a0.46674 0.46674 0 0 0 -0.66982 1e-3z" color="#000000" color-rendering="auto" dominant-baseline="auto" image-rendering="auto" solid-color="#000000" stroke="url(#linearGradient6941)" style="font-feature-settings:normal;font-variant-alternates:normal;font-variant-caps:normal;font-variant-ligatures:normal;font-variant-numeric:normal;font-variant-position:normal;isolation:auto;mix-blend-mode:normal;shape-padding:0;text-decoration-color:#000000;text-decoration-line:none;text-decoration-style:solid;text-indent:0;text-orientation:mixed;text-transform:none;white-space:normal"/>
   <path d="m-27.457 375.53a0.46674 0.46674 0 0 0 0.01105 0.66015l0.37013 0.37013a0.4668 0.4668 0 1 0 0.66015 -0.66015l-0.37013-0.37013a0.46674 0.46674 0 0 0 -0.6712 0z" color="#000000" color-rendering="auto" dominant-baseline="auto" image-rendering="auto" solid-color="#000000" stroke="url(#linearGradient6943)" style="font-feature-settings:normal;font-variant-alternates:normal;font-variant-caps:normal;font-variant-ligatures:normal;font-variant-numeric:normal;font-variant-position:normal;isolation:auto;mix-blend-mode:normal;shape-padding:0;text-decoration-color:#000000;text-decoration-line:none;text-decoration-style:solid;text-indent:0;text-orientation:mixed;text-transform:none;white-space:normal"/>
   <path d="m-9.1803 451.01a0.46674 0.46674 0 0 0 -0.011052 -0.66015l-6.8708-6.8708a0.4668 0.4668 0 1 0 -0.66015 0.66015l6.8708 6.8708a0.46674 0.46674 0 0 0 0.6712 0z" color="#000000" color-rendering="auto" dominant-baseline="auto" image-rendering="auto" solid-color="#000000" stroke="url(#linearGradient7139)" style="font-feature-settings:normal;font-variant-alternates:normal;font-variant-caps:normal;font-variant-ligatures:normal;font-variant-numeric:normal;font-variant-position:normal;isolation:auto;mix-blend-mode:normal;shape-padding:0;text-decoration-color:#000000;text-decoration-line:none;text-decoration-style:solid;text-indent:0;text-orientation:mixed;text-transform:none;white-space:normal"/>
   <path d="m-7.947 449.25a0.46674 0.46674 0 0 0 -0.00967 -0.65876l-6.6153-6.6153a0.4668 0.4668 0 1 0 -0.66015 0.66014l6.6153 6.6153a0.46674 0.46674 0 0 0 0.66981 -1e-3z" color="#000000" color-rendering="auto" dominant-baseline="auto" image-rendering="auto" solid-color="#000000" stroke="url(#linearGradient7137)" style="font-feature-settings:normal;font-variant-alternates:normal;font-variant-caps:normal;font-variant-ligatures:normal;font-variant-numeric:normal;font-variant-position:normal;isolation:auto;mix-blend-mode:normal;shape-padding:0;text-decoration-color:#000000;text-decoration-line:none;text-decoration-style:solid;text-indent:0;text-orientation:mixed;text-transform:none;white-space:normal"/>
   <path d="m-7.5755 446.62a0.46674 0.46674 0 0 0 -0.011045 -0.66016l-5.6513-5.6513a0.4668 0.4668 0 1 0 -0.66016 0.66015l5.6513 5.6513a0.46674 0.46674 0 0 0 0.6712 0z" color="#000000" color-rendering="auto" dominant-baseline="auto" image-rendering="auto" solid-color="#000000" stroke="url(#linearGradient7135)" style="font-feature-settings:normal;font-variant-alternates:normal;font-variant-caps:normal;font-variant-ligatures:normal;font-variant-numeric:normal;font-variant-position:normal;isolation:auto;mix-blend-mode:normal;shape-padding:0;text-decoration-color:#000000;text-decoration-line:none;text-decoration-style:solid;text-indent:0;text-orientation:mixed;text-transform:none;white-space:normal"/>
   <path d="m-7.5036 443.69a0.46674 0.46674 0 0 0 -0.00967 -0.65877l-4.5741-4.5741a0.4668 0.4668 0 1 0 -0.66015 0.66015l4.5741 4.5741a0.46674 0.46674 0 0 0 0.66982 -1e-3z" color="#000000" color-rendering="auto" dominant-baseline="auto" image-rendering="auto" solid-color="#000000" stroke="url(#linearGradient7133)" style="font-feature-settings:normal;font-variant-alternates:normal;font-variant-caps:normal;font-variant-ligatures:normal;font-variant-numeric:normal;font-variant-position:normal;isolation:auto;mix-blend-mode:normal;shape-padding:0;text-decoration-color:#000000;text-decoration-line:none;text-decoration-style:solid;text-indent:0;text-orientation:mixed;text-transform:none;white-space:normal"/>
   <path d="m-7.4318 440.77a0.46674 0.46674 0 0 0 -0.00967 -0.66154l-3.6018-3.6018a0.4668 0.4668 0 1 0 -0.66016 0.66015l3.6018 3.6018a0.46674 0.46674 0 0 0 0.66982 1e-3z" color="#000000" color-rendering="auto" dominant-baseline="auto" image-rendering="auto" solid-color="#000000" stroke="url(#linearGradient7131)" style="font-feature-settings:normal;font-variant-alternates:normal;font-variant-caps:normal;font-variant-ligatures:normal;font-variant-numeric:normal;font-variant-position:normal;isolation:auto;mix-blend-mode:normal;shape-padding:0;text-decoration-color:#000000;text-decoration-line:none;text-decoration-style:solid;text-indent:0;text-orientation:mixed;text-transform:none;white-space:normal"/>
   <path d="m-7.2109 437.99a0.46674 0.46674 0 0 0 -0.00829 -0.66015l-2.9555-2.9555a0.4668 0.4668 0 1 0 -0.66015 0.66015l2.9555 2.9555a0.46674 0.46674 0 0 0 0.66844 0z" color="#000000" color-rendering="auto" dominant-baseline="auto" image-rendering="auto" solid-color="#000000" stroke="url(#linearGradient7129)" style="font-feature-settings:normal;font-variant-alternates:normal;font-variant-caps:normal;font-variant-ligatures:normal;font-variant-numeric:normal;font-variant-position:normal;isolation:auto;mix-blend-mode:normal;shape-padding:0;text-decoration-color:#000000;text-decoration-line:none;text-decoration-style:solid;text-indent:0;text-orientation:mixed;text-transform:none;white-space:normal"/>
   <path d="m-7.3034 434.9a0.46674 0.46674 0 0 0 -0.00967 -0.66152l-1.9584-1.9584a0.4668 0.4668 0 1 0 -0.66015 0.66015l1.9584 1.9584a0.46674 0.46674 0 0 0 0.66982 1e-3z" color="#000000" color-rendering="auto" dominant-baseline="auto" image-rendering="auto" solid-color="#000000" stroke="url(#linearGradient7127)" style="font-feature-settings:normal;font-variant-alternates:normal;font-variant-caps:normal;font-variant-ligatures:normal;font-variant-numeric:normal;font-variant-position:normal;isolation:auto;mix-blend-mode:normal;shape-padding:0;text-decoration-color:#000000;text-decoration-line:none;text-decoration-style:solid;text-indent:0;text-orientation:mixed;text-transform:none;white-space:normal"/>
   <path d="m-7.3807 431.82a0.46674 0.46674 0 0 0 -0.00967 -0.65877l-1.196-1.196a0.46674 0.46674 0 1 0 -0.65877 0.65876l1.196 1.196a0.46674 0.46674 0 0 0 0.66844 0z" color="#000000" color-rendering="auto" dominant-baseline="auto" image-rendering="auto" solid-color="#000000" stroke="url(#linearGradient7125)" style="font-feature-settings:normal;font-variant-alternates:normal;font-variant-caps:normal;font-variant-ligatures:normal;font-variant-numeric:normal;font-variant-position:normal;isolation:auto;mix-blend-mode:normal;shape-padding:0;text-decoration-color:#000000;text-decoration-line:none;text-decoration-style:solid;text-indent:0;text-orientation:mixed;text-transform:none;white-space:normal"/>
   <path d="m-7.5078 428.69a0.46674 0.46674 0 0 0 -0.00966 -0.65877l-0.37013-0.37013a0.4668 0.4668 0 1 0 -0.66015 0.66016l0.37013 0.37013a0.46674 0.46674 0 0 0 0.66981 -1e-3z" color="#000000" color-rendering="auto" dominant-baseline="auto" image-rendering="auto" solid-color="#000000" stroke="url(#linearGradient7123)" style="font-feature-settings:normal;font-variant-alternates:normal;font-variant-caps:normal;font-variant-ligatures:normal;font-variant-numeric:normal;font-variant-position:normal;isolation:auto;mix-blend-mode:normal;shape-padding:0;text-decoration-color:#000000;text-decoration-line:none;text-decoration-style:solid;text-indent:0;text-orientation:mixed;text-transform:none;white-space:normal"/>
   <path d="m-10.844 452.35a0.46674 0.46674 0 0 0 -0.01104 -0.66015l-6.6139-6.6139a0.4668 0.4668 0 1 0 -0.66016 0.66015l6.6139 6.6139a0.46674 0.46674 0 0 0 0.6712 0z" color="#000000" color-rendering="auto" dominant-baseline="auto" image-rendering="auto" solid-color="#000000" stroke="url(#linearGradient7141)" style="font-feature-settings:normal;font-variant-alternates:normal;font-variant-caps:normal;font-variant-ligatures:normal;font-variant-numeric:normal;font-variant-position:normal;isolation:auto;mix-blend-mode:normal;shape-padding:0;text-decoration-color:#000000;text-decoration-line:none;text-decoration-style:solid;text-indent:0;text-orientation:mixed;text-transform:none;white-space:normal"/>
   <path d="m-13.474 452.72a0.46674 0.46674 0 0 0 -0.0097 -0.65877l-5.6513-5.6513a0.46674 0.46674 0 1 0 -0.65877 0.65877l5.6513 5.6513a0.46674 0.46674 0 0 0 0.66844 0z" color="#000000" color-rendering="auto" dominant-baseline="auto" image-rendering="auto" solid-color="#000000" stroke="url(#linearGradient7143)" style="font-feature-settings:normal;font-variant-alternates:normal;font-variant-caps:normal;font-variant-ligatures:normal;font-variant-numeric:normal;font-variant-position:normal;isolation:auto;mix-blend-mode:normal;shape-padding:0;text-decoration-color:#000000;text-decoration-line:none;text-decoration-style:solid;text-indent:0;text-orientation:mixed;text-transform:none;white-space:normal"/>
   <path d="m-16.4 452.79a0.46674 0.46674 0 0 0 -0.0083 -0.66014l-4.5741-4.5741a0.4668 0.4668 0 1 0 -0.66015 0.66015l4.5741 4.5741a0.46674 0.46674 0 0 0 0.66844 0z" color="#000000" color-rendering="auto" dominant-baseline="auto" image-rendering="auto" solid-color="#000000" stroke="url(#linearGradient7145)" style="font-feature-settings:normal;font-variant-alternates:normal;font-variant-caps:normal;font-variant-ligatures:normal;font-variant-numeric:normal;font-variant-position:normal;isolation:auto;mix-blend-mode:normal;shape-padding:0;text-decoration-color:#000000;text-decoration-line:none;text-decoration-style:solid;text-indent:0;text-orientation:mixed;text-transform:none;white-space:normal"/>
   <path d="m-19.194 453a0.46674 0.46674 0 0 0 -0.0097 -0.66154l-3.6018-3.6018a0.4668 0.4668 0 1 0 -0.66015 0.66015l3.6018 3.6018a0.46674 0.46674 0 0 0 0.66981 1e-3z" color="#000000" color-rendering="auto" dominant-baseline="auto" image-rendering="auto" solid-color="#000000" stroke="url(#linearGradient4811)" style="font-feature-settings:normal;font-variant-alternates:normal;font-variant-caps:normal;font-variant-ligatures:normal;font-variant-numeric:normal;font-variant-position:normal;isolation:auto;mix-blend-mode:normal;shape-padding:0;text-decoration-color:#000000;text-decoration-line:none;text-decoration-style:solid;text-indent:0;text-orientation:mixed;text-transform:none;white-space:normal"/>
   <path d="m-22.006 453.19a0.46674 0.46674 0 0 0 -0.0083 -0.66015l-2.9555-2.9555a0.4668 0.4668 0 1 0 -0.66016 0.66016l2.9555 2.9555a0.46674 0.46674 0 0 0 0.66844 -1e-5z" color="#000000" color-rendering="auto" dominant-baseline="auto" image-rendering="auto" solid-color="#000000" stroke="url(#linearGradient7149)" style="font-feature-settings:normal;font-variant-alternates:normal;font-variant-caps:normal;font-variant-ligatures:normal;font-variant-numeric:normal;font-variant-position:normal;isolation:auto;mix-blend-mode:normal;shape-padding:0;text-decoration-color:#000000;text-decoration-line:none;text-decoration-style:solid;text-indent:0;text-orientation:mixed;text-transform:none;white-space:normal"/>
   <path d="m-24.964 453.23a0.46674 0.46674 0 0 0 -0.01105 -0.66015l-1.9584-1.9584a0.4668 0.4668 0 1 0 -0.66015 0.66015l1.9584 1.9584a0.46674 0.46674 0 0 0 0.6712 0z" color="#000000" color-rendering="auto" dominant-baseline="auto" image-rendering="auto" solid-color="#000000" stroke="url(#linearGradient7151)" style="font-feature-settings:normal;font-variant-alternates:normal;font-variant-caps:normal;font-variant-ligatures:normal;font-variant-numeric:normal;font-variant-position:normal;isolation:auto;mix-blend-mode:normal;shape-padding:0;text-decoration-color:#000000;text-decoration-line:none;text-decoration-style:solid;text-indent:0;text-orientation:mixed;text-transform:none;white-space:normal"/>
   <path d="m-28.008 453.18a0.46674 0.46674 0 0 0 -0.0097 -0.65877l-1.196-1.196a0.4668 0.4668 0 1 0 -0.66016 0.66015l1.196 1.196a0.46674 0.46674 0 0 0 0.66982 -1e-3z" color="#000000" color-rendering="auto" dominant-baseline="auto" image-rendering="auto" solid-color="#000000" stroke="url(#linearGradient7153)" style="font-feature-settings:normal;font-variant-alternates:normal;font-variant-caps:normal;font-variant-ligatures:normal;font-variant-numeric:normal;font-variant-position:normal;isolation:auto;mix-blend-mode:normal;shape-padding:0;text-decoration-color:#000000;text-decoration-line:none;text-decoration-style:solid;text-indent:0;text-orientation:mixed;text-transform:none;white-space:normal"/>
   <path d="m-31.067 453.12a0.46674 0.46674 0 0 0 -0.01105 -0.66015l-0.37013-0.37012a0.4668 0.4668 0 1 0 -0.66015 0.66014l0.37013 0.37013a0.46674 0.46674 0 0 0 0.6712 0z" color="#000000" color-rendering="auto" dominant-baseline="auto" image-rendering="auto" solid-color="#000000" stroke="url(#linearGradient7155)" style="font-feature-settings:normal;font-variant-alternates:normal;font-variant-caps:normal;font-variant-ligatures:normal;font-variant-numeric:normal;font-variant-position:normal;isolation:auto;mix-blend-mode:normal;shape-padding:0;text-decoration-color:#000000;text-decoration-line:none;text-decoration-style:solid;text-indent:0;text-orientation:mixed;text-transform:none;white-space:normal"/>
  </g>
  <g transform="scale(.99918 1.0008)" stroke-width=".4305px" aria-label="205H">
   <path d="m-32.74 419.77h1.1558v0.28114h-1.5111v-0.28114l0.9215-1.066q0.28894-0.34361 0.28894-0.64036 0-0.23038-0.14252-0.38071-0.14252-0.15032-0.37289-0.15032h-0.0078q-0.1718 0-0.29285 0.10152-0.12104 0.10152-0.12885 0.23428h-0.27723q0.0039-0.24209 0.21866-0.41975 0.21476-0.17767 0.48027-0.17767 0.36313 0 0.58375 0.20695t0.22061 0.56227v0.0117q0 0.39828-0.27333 0.72627z"/>
   <path d="m-29.897 418.73q0-1.1714-0.54275-1.1714t-0.54275 1.1714q0 1.1714 0.54275 1.1714t0.54275-1.1714zm-0.54275-1.4213q0.39828 0 0.61498 0.36314 0.21671 0.36313 0.21671 1.0582 0 0.69112-0.21476 1.0464-0.21476 0.35532-0.61694 0.35532t-0.61303-0.35337q-0.21085-0.35337-0.21085-1.0484t0.21085-1.0582q0.21085-0.36314 0.61303-0.36314z"/>
   <path d="m-28.878 417.27h1.0738l-0.06247 0.27723h-0.83169l-0.20695 0.69894q0.10933-0.0234 0.22257-0.0312 0.39437 0 0.63255 0.24599 0.23818 0.246 0.23818 0.67941 0 0.43732-0.24014 0.67355-0.24014 0.23624-0.67746 0.23624-0.34361 0-0.62474-0.30457l0.15619-0.21866q0.21476 0.25771 0.46075 0.26942 0.29675 0 0.46856-0.17375 0.1718-0.17376 0.1718-0.48223 0-0.30456-0.17376-0.48222t-0.4666-0.17766q-0.24209 0-0.52322 0.14447z"/>
   <path d="m-27.293 417.32h0.29675v1.1284h1.23v-1.1284h0.30066v2.7333h-0.30066v-1.3198h-1.23v1.3198h-0.29675z"/>
  </g>
  <path class="st1" d="m-28.286 414.74c0 0.78443-0.62754 1.4218-1.3924 1.4218-0.76482 0-1.3924-0.63735-1.3924-1.4218v-1.206s0.66677 0.1667 0.66677 0.87268v0.33337c0 0.43144 0.32357 0.77464 0.72559 0.77464 0.40202 0 0.7256-0.3432 0.7256-0.77464v-0.69617 9e-3c0.02941-0.58832 0.52949-0.77463 0.65696-0.84326h0.0098v1.5296zm-3.5789-1.412c0.1863 0 0.3628 0.0294 0.51968 0.0981v0.74521c-0.13728-0.11762-0.32358-0.1863-0.51968-0.1863-0.44124 0-0.79423 0.34318-0.79423 0.77462v1.4022h-0.66676v-2.569s0.27454 9e-3 0.45104 0.1373c0.25494-0.25494 0.61773-0.40201 1.0099-0.40201m-3.1965 2.1964c-0.44124 0-0.80404-0.35299-0.80404-0.78443 0-0.43143 0.3628-0.78441 0.80404-0.78441 0.44124 0 0.80403 0.35298 0.80403 0.78441 0 0.43144-0.36279 0.78443-0.80403 0.78443m0-2.1964c-0.80404 0-1.4512 0.63735-1.4512 1.412 0 0.78443 0.64715 1.412 1.4512 1.412 0.33338 0 0.63734-0.10793 0.88247-0.29415 0.14708 0.24514 0.56871 0.29415 0.56871 0.29415v-1.412c0-0.7746-0.64715-1.412-1.4512-1.412m11.6 2.1964c-0.44124 0-0.80404-0.35299-0.80404-0.78443 0-0.43143 0.3628-0.78441 0.80404-0.78441 0.44124 0 0.80404 0.35298 0.80404 0.78441 0 0.43144-0.3628 0.78443-0.80404 0.78443m0-2.1964c-0.80404 0-1.4512 0.63735-1.4512 1.412 0 0.78443 0.64715 1.412 1.4512 1.412 0.33338 0 0.63735-0.10793 0.88248-0.29415 0.14708 0.24514 0.5687 0.29415 0.5687 0.29415v-1.412c0-0.7746-0.64715-1.412-1.4512-1.412m-3.0789 2.1964c-0.44124 0-0.80404-0.35299-0.80404-0.78443 0-0.43143 0.3628-0.78441 0.80404-0.78441 0.44124 0 0.80404 0.35298 0.80404 0.78441 0.0098 0.43144-0.35299 0.78443-0.80404 0.78443m0-2.1964c-0.29416 0-0.5687 0.0882-0.80404 0.23533v-0.22554c-0.02941-0.5883-0.50988-0.77462-0.63734-0.84325h-0.0098v3.6672s0.43143-0.0491 0.59812-0.28436c0.24514 0.1667 0.53929 0.27455 0.85306 0.27455 0.80404 0 1.4512-0.63734 1.4512-1.412 0.0098-0.7746-0.64715-1.412-1.4512-1.412" stroke-width=".66189"/>
  <g transform="matrix(.0017883 0 0 .0017883 -49.604 407.35)" stroke-width="59.398">
   <path d="m500 10c-270.6 0-490 219.4-490 490s219.4 490 490 490 490-219.4 490-490-219.4-490-490-490zm0 974.7c-267.7 0-484.7-217-484.7-484.7s217-484.7 484.7-484.7 484.7 217 484.7 484.7-217 484.7-484.7 484.7z" stroke="#333"/>
   <path d="m671.6 441.5c-22.8 31.9-45.9 63.6-68.5 95.6-73.3 103.8-146.6 207.7-219.8 311.5-1 1.4-2.1 2.7-4.4 3.3 13.5-35.1 27-70.3 40.5-105.4 23.4-60.6 46.8-121.2 70.1-181.9 5.7-14.8 3.3-18.3-12.7-18.3-45-0.2-90-0.2-135.1-0.4-4 0-8-0.7-15.3-1.5 114.5-133.4 226.8-264.5 339.2-395.6 0.6 0.3 1.1 0.6 1.7 0.8-1.5 3.2-2.8 6.5-4.4 9.7-40.7 84.3-81.3 168.7-122 253-1.2 2.5-2.6 5.1-3.7 7.6-5.1 11.4-2.9 15 9.4 15.1 24.5 0.1 48.9 0 73.4 0 13.1 0 26.2-0.2 39.4 0.1 4.1 0.1 8.2 1.3 12.3 2-0.1 1.6-0.1 3-0.1 4.4z" fill="#333"/>
  </g>
  <g transform="translate(-2.4645 -.38727)">
   <g transform="matrix(-.015741 0 0 -.015741 -47.172 418.36)" fill="#1a1a1a" aria-label="!">
    <path d="m-38.173 394.76h9.4756v11.856h-9.4756zm0-57.834h9.4756v30.574l-0.93356 16.664h-7.5618l-0.98024-16.664z" fill="#1a1a1a" stroke-width=".53109px"/>
   </g>
   <path d="m-46.645 411.63c-0.4839 0-0.87625 0.39235-0.87625 0.87625s0.39234 0.87625 0.87625 0.87625 0.87625-0.39235 0.87625-0.87625-0.39234-0.87625-0.87625-0.87625zm0 1.743c-0.47872 0-0.86677-0.38805-0.86677-0.86677s0.38805-0.86677 0.86677-0.86677 0.86677 0.38805 0.86677 0.86677-0.38805 0.86677-0.86677 0.86677z" stroke="#333" stroke-width=".10622"/>
  </g>
 </g>
 <g transform="translate(.19125 -3.1865)" fill="#000000" font-family="sans-serif" letter-spacing="-.0043698px" stroke-width=".010924px" word-spacing="0px">
  <text x="41.353146" y="432.90808" font-size="1.9664px" style="line-height:0.27311251px" xml:space="preserve"><tspan x="41.353146" y="432.90808" stroke-width=".010924px">E0/PT</tspan></text>
  <text x="52.452122" y="433.09052" font-size="1.9664px" style="line-height:0.27311251px" xml:space="preserve"><tspan x="52.452122" y="433.09052" stroke-width=".010924px">E1</tspan></text>
  <text x="61.945061" y="433.09052" font-size="1.9664px" style="line-height:0.27311251px" xml:space="preserve"><tspan x="61.945061" y="433.09052" stroke-width=".010924px">E2</tspan></text>
  <text x="71.410637" y="433.06265" font-size="1.9664px" style="line-height:0.27311251px" xml:space="preserve"><tspan x="71.410637" y="433.06265" stroke-width=".010924px">E3</tspan></text>
 </g>
 <g transform="translate(0 -7.3284)" fill="#000000" font-family="sans-serif" font-size="1.9664px" letter-spacing="-.0043698px" stroke-width=".010924px" word-spacing="0px">
  <text x="68.723785" y="401.32373" style="line-height:0.27311251px" xml:space="preserve"><tspan x="68.723785" y="401.32373" stroke-width=".010924px">E0</tspan></text>
  <text x="44.456791" y="401.35156" style="line-height:0.27311251px" xml:space="preserve"><tspan x="44.456791" y="401.35156" stroke-width=".010924px">PT</tspan></text>
 </g>
</svg>
