<svg width="210" height="44.5" version="1.1" viewBox="35 370 111.52909 14.442722" xmlns="http://www.w3.org/2000/svg">
 <g fill="#e3e0e0">
  <rect x="45.977" y="386.78" width="8.8469" height="2.2573" rx=".060515" ry=".64796"/>
  <rect x="125.72" y="386.64" width="8.8469" height="2.3984" rx=".060515" ry=".68846"/>
  <path d="m36.69 370.4c4.0906-6.5165 104.39-5.4344 108.67 0 0.0365 0.0464 0.0986 0.0482 0.10666 0.10661 0.65093 4.7403 0.84919 9.4052 0 13.896-0.0109 0.058-0.10448 0.0476-0.10666 0.10661-0.18312 4.9402-109.95 5.5901-108.67 0 0.01318-0.0576-0.09694-0.0484-0.10666-0.10661-0.75284-4.5065-0.75284-9.1384 0-13.896 0.0092-0.0584 0.07526-0.0566 0.10666-0.10661z" stroke="#fffcfa" stroke-linecap="round" stroke-linejoin="round" stroke-width="1.0022"/>
 </g>
 <g>
  <path d="m36.172 370.21h108.67c0.059 0 0.0986 0.0482 0.10666 0.10661 0.65093 4.7403 0.8492 9.4052 0 13.896-0.0109 0.058-0.0476 0.10661-0.10666 0.10661h-108.67c-0.05909 0-0.09694-0.0484-0.10666-0.10661-0.75284-4.5065-0.75284-9.1383 0-13.896 0.0092-0.0584 0.04757-0.10661 0.10666-0.10661z" fill="#ebe7e6" stroke="#e9e2db" stroke-linecap="round" stroke-linejoin="round" stroke-width="1.0022"/>
  <rect x="51.313" y="372.34" width="38.414" height="9.1664" rx=".20083" ry=".20073" fill="#ddd4ca"/>
  <rect x="52.096" y="373.75" width="36.303" height="7.0373" rx=".20083" ry=".20073" fill="#ebebeb" stroke="#000" stroke-linejoin="round" stroke-width=".22359"/>
 </g>
 <g transform="matrix(1.0024 0 0 1.0019 -12.196 196.57)">
  <path d="m64.912 178.62h1.7532l-0.0026-1.0712 0.63806-5.7e-4v-0.40106h2.0566l-4.83e-4 0.40211h0.66414v1.0712h1.7452v4.6119l-6.8535 0.015z" fill="#1a1a1a"/>
  <path d="m70.173 178.34h1.7316v-0.75298h-1.7316v0.75298z" fill="#008000"/>
  <path d="m64.756 178.34h1.7468v-0.7569h-1.7468v0.7569z" fill="#008000"/>
 </g>
 <g transform="matrix(1.0024 0 0 1.0019 -2.9019 196.57)">
  <path d="m64.912 178.62h1.7532l-0.0026-1.0712 0.63806-5.7e-4v-0.40106h2.0566l-4.83e-4 0.40211h0.66414v1.0712h1.7452v4.6119l-6.8535 0.015z" fill="#1a1a1a"/>
  <path d="m70.173 178.34h1.7316v-0.75298h-1.7316v0.75298z" fill="#008000"/>
  <path d="m64.756 178.34h1.7468v-0.7569h-1.7468v0.7569z" fill="#008000"/>
 </g>
 <g transform="matrix(1.0024 0 0 1.0019 6.3923 196.57)">
  <path d="m64.912 178.62h1.7532l-0.0026-1.0712 0.63806-5.7e-4v-0.40106h2.0566l-4.83e-4 0.40211h0.66414v1.0712h1.7452v4.6119l-6.8535 0.015z" fill="#1a1a1a"/>
  <path d="m70.173 178.34h1.7316v-0.75298h-1.7316v0.75298z" fill="#008000"/>
  <path d="m64.756 178.34h1.7468v-0.7569h-1.7468v0.7569z" fill="#008000"/>
 </g>
 <g transform="matrix(1.0024 0 0 1.0019 15.687 196.57)">
  <path d="m64.912 178.62h1.7532l-0.0026-1.0712 0.63806-5.7e-4v-0.40106h2.0566l-4.83e-4 0.40211h0.66414v1.0712h1.7452v4.6119l-6.8535 0.015z" fill="#1a1a1a"/>
  <path d="m70.173 178.34h1.7316v-0.75298h-1.7316v0.75298z" fill="#008000"/>
  <path d="m64.756 178.34h1.7468v-0.7569h-1.7468v0.7569z" fill="#008000"/>
 </g>
 <rect x="90.638" y="372.35" width="10.532" height="8.9668" rx=".20083" ry=".20073" fill="#ddd4ca"/>
 <g transform="matrix(-1.0024 0 0 -1.0019 246.59 591.76)">
  <path d="m146.09 217.75h8.4v-7.0242h-8.4v7.0242z" fill="#ebebeb" stroke="#000" stroke-width=".1521"/>
  <g transform="matrix(.0080517 0 0 .0080487 133.48 246.67)">
   <path d="m2609.9-3593.3v-872.71h-1043.3v872.71h1043.3z" fill="none" stroke="#000" stroke-linecap="square" stroke-width=".67568"/>
  </g>
  <path d="m146.86 212.5h1.7532l-3e-3 -1.0712 0.63806-5.7e-4v-0.40106h2.0566l-4.9e-4 0.40211h0.66414v1.0712h1.7452v4.6119l-6.8535 0.015z" fill="#1a1a1a"/>
 </g>
 <rect x="103.11" y="376.96" width="6.8391" height="4.1449" rx=".20083" ry=".20073" fill="#ddd4ca"/>
 <rect x="103.58" y="377.34" width="6.1424" height="3.4875" rx=".20083" ry=".20073" fill="#e3e3df"/>
 <g transform="matrix(1.0024 0 0 1.0019 -6.3031 173.02)">
  <path d="m110.68 204.3h3.7977c0.31236-0.0253 0.47172 0.26313 0.46384 0.53195v1.167c-0.0177 0.40759-0.69625 1.0145-1.2147 0.97148h-2.4609c-0.16724 0.0534-1.0983-0.60543-1.0629-1.0023v-1.1665c-0.0205-0.34162 0.30491-0.50905 0.47686-0.50159" fill="#e6e6e6"/>
  <path d="m110.82 204.48h3.492c0.37167-0.0222 0.41803 0.25189 0.41125 0.48766v1.0611c-0.0156 0.26619-0.58392 0.79942-1.0385 0.76155h-2.3058c-0.14683 0.0469-0.93886-0.53989-0.95768-0.7883v-1.0612c-0.0176-0.29936 0.24811-0.46751 0.3988-0.46085" fill="#1d1d1d"/>
  <g transform="matrix(.0060892 0 0 .0061268 99.791 230.08)">
   <path d="m1811.4-4178h573.48c61.03-3.61 68.63 41.12 67.53 79.61v173.18c-2.58 43.45-95.9 130.46-170.55 124.27h-378.69c-24.09 7.68-154.17-88.11-157.26-128.66v-173.19c-2.9-48.86 40.74-76.32 65.49-75.21z" fill="none" stroke="#000" stroke-width=".26401"/>
  </g>
  <path transform="matrix(.53109 0 0 .53109 35 368.35)" d="m144.09-307.32c-4e-3 -1.6e-4 -9e-3 2e-3 -0.0137 2e-3h-0.0117c-0.17447-7e-3 -0.45217 0.11055-0.43164 0.42579v1.0488c6e-3 0.0693 0.0738 0.16195 0.17187 0.25782 0.2624 0.2717 0.80298 0.59446 0.93164 0.55664h2.4942c0.52548 0.0402 1.2155-0.47741 1.2324-0.75782v-1.0781c8e-3 -0.24841-2e-3 -0.47824-0.43164-0.45508h-3.9414z" fill="#404040"/>
  <g fill="#070707">
   <path d="m111.56 205.87h0.1884v-0.41664h-0.1884v0.41664z"/>
   <path d="m112.01 205.87h0.18839v-0.41664h-0.18839v0.41664z"/>
   <path d="m112.48 205.87h0.18799v-0.41664h-0.18799v0.41664z"/>
   <path d="m112.96 205.87h0.18799v-0.41664h-0.18799v0.41664z"/>
   <path d="m113.42 205.87h0.18837v-0.41664h-0.18837v0.41664z"/>
  </g>
 </g>
 <g>
  <rect x="117.11" y="372.13" width="3.8748" height="8.8478" rx=".20083" ry=".20073" fill="#ddd4ca"/>
  <rect x="117.39" y="372.54" width="3.2722" height="8.2845" rx=".20083" ry=".20073" fill="#e3e3df"/>
  <path d="m120.35 380.64v-7.7398h-2.6354v7.7398z"/>
 </g>
 <g stroke-linecap="round" stroke-linejoin="round">
  <path d="m120.35 380.64v-7.7398h-2.6355v7.7398z" fill="none" stroke="#535353" stroke-miterlimit="4.4615" stroke-width=".033916"/>
  <path d="m118.81 379.95v-6.3854h-0.45075v6.3854z" fill="none" stroke="#000" stroke-miterlimit="4.4615" stroke-width=".033916"/>
  <path d="m127.34 373.74h1.0366c0.0404 0 0.0729 0.0325 0.0729 0.0729v0.5361c0 0.0404-0.0325 0.0729-0.0729 0.0729h-1.0366c-0.0404 0-0.0729-0.0325-0.0729-0.0729v-0.5361c0-0.0404 0.0325-0.0729 0.0729-0.0729z" fill="#008000" stroke="#008000" stroke-width=".68489"/>
  <path d="m127.34 378.08h1.0366c0.0404 0 0.0729 0.0325 0.0729 0.0729v0.5361c0 0.0404-0.0325 0.0729-0.0729 0.0729h-1.0366c-0.0404 0-0.0729-0.0325-0.0729-0.0729v-0.5361c0-0.0404 0.0325-0.0729 0.0729-0.0729z" fill="#008000" stroke="#008000" stroke-width=".68489"/>
 </g>
 <g transform="scale(1.0366 .9647)" aria-label="7005">
  <path d="m102.79 386.11v-0.26278h-1.6365v0.35591h1.1576l-0.80497 1.9459h0.41912z"/>
  <path d="m103.02 386.99c0 0.60871 0.26278 1.1908 0.8715 1.1908 0.60206 0 0.85153-0.58543 0.85153-1.1908 0-0.61537-0.23949-1.1908-0.85153-1.1908-0.60872 0-0.8715 0.5821-0.8715 1.1908zm0.41579 0c0-0.44905 0.12973-0.81495 0.44905-0.81495 0.31933 0 0.44905 0.3659 0.44905 0.81495s-0.12972 0.81494-0.44905 0.81494c-0.31932 0-0.44905-0.36589-0.44905-0.81494z"/>
  <path d="m104.93 386.99c0 0.60871 0.26278 1.1908 0.87149 1.1908 0.60207 0 0.85154-0.58543 0.85154-1.1908 0-0.61537-0.2395-1.1908-0.85154-1.1908-0.60871 0-0.87149 0.5821-0.87149 1.1908zm0.41579 0c0-0.44905 0.12973-0.81495 0.44905-0.81495 0.31933 0 0.44905 0.3659 0.44905 0.81495s-0.12972 0.81494-0.44905 0.81494c-0.31932 0-0.44905-0.36589-0.44905-0.81494z"/>
  <path d="m107.58 387.81c-0.1264 0-0.29272-0.0299-0.50228-0.0965l-0.0632-0.02-0.11974 0.36257 0.0632 0.02c0.17629 0.0599 0.40913 0.10977 0.62867 0.10977 0.39916 0 0.90143-0.22287 0.90143-0.77171 0-0.46568-0.34261-0.73844-0.81495-0.73844-0.10644 0-0.19292 7e-3 -0.28606 0.0233l0.0333-0.46901h0.95465v-0.3792h-1.3305l-0.0665 1.1276 0.0931 0.16964 0.0532-0.0166c0.17962-0.0565 0.32598-0.0798 0.4291-0.0798 0.35924 0 0.52555 0.0599 0.52555 0.36589 0 0.29271-0.27608 0.3925-0.49894 0.3925z"/>
 </g>
 <g>
  <g transform="scale(1.0366 .9647)" fill="#ff8900" aria-label="0">
   <path d="m53.866 397.29c0 0.48698 0.21022 0.95266 0.69719 0.95266 0.48165 0 0.68123-0.46835 0.68123-0.95266 0-0.49229-0.1916-0.95265-0.68123-0.95265-0.48697 0-0.69719 0.46568-0.69719 0.95265zm0.33263 0c0-0.35924 0.10378-0.65195 0.35924-0.65195 0.25546 0 0.35924 0.29271 0.35924 0.65195 0 0.35925-0.10378 0.65196-0.35924 0.65196-0.25546 0-0.35924-0.29271-0.35924-0.65196z" fill="#ff8900"/>
  </g>
  <g transform="scale(1.0366 .9647)" fill="#ff8900" aria-label="1">
   <path d="m63.779 397.72v-1.5408h-0.31933l-0.54551 0.24216 0.10378 0.26078 0.43375-0.1916v1.2294h-0.49229v0.3007h1.264v-0.3007z" fill="#000"/>
  </g>
  <g transform="scale(1.0366 .9647)" fill="#ff8900" aria-label="2">
   <path d="m71.671 396.43 0.13838 0.26344c0.12507-0.0798 0.24482-0.15168 0.44439-0.15168 0.2049 0 0.32731 0.0878 0.32731 0.2661 0 0.19426-0.2049 0.45504-0.85154 1.107v0.2049h1.1975v-0.28473h-0.71582c0.56414-0.60406 0.69719-0.79033 0.69719-1.0405 0-0.33529-0.27143-0.5535-0.62002-0.5535-0.29005 0-0.43641 0.0825-0.61736 0.18894z" fill="#000"/>
  </g>
  <g transform="scale(1.0366 .9647)" fill="#ff8900" aria-label="3">
   <path d="m80.896 396.17c-0.24216 0-0.4098 0.0825-0.56148 0.16499l0.12773 0.26078c0.13571-0.0718 0.25546-0.12507 0.43375-0.12507 0.15168 0 0.29006 0.0399 0.29006 0.23151 0 0.15434-0.07717 0.26078-0.41512 0.26078h-0.13039v0.28207h0.13305c0.30336 0 0.50826 0.0346 0.50826 0.27675 0 0.17031-0.157 0.2528-0.38585 0.2528-0.2049 0-0.34594-0.0612-0.52156-0.13837l-0.12507 0.28207c0.21554 0.0905 0.37255 0.157 0.66526 0.157 0.37255 0 0.69453-0.17563 0.69453-0.54019 0-0.25812-0.12507-0.40448-0.30602-0.48963 0.11442-0.0825 0.21022-0.21023 0.21022-0.37521 0-0.33795-0.27143-0.50028-0.61736-0.50028z" fill="#000"/>
  </g>
  <g transform="scale(1.0366 .9647)" aria-label="CONSOLE">
   <path d="m92.897 397.77-0.08515-0.18361c-0.11176 0.0718-0.27143 0.11974-0.43907 0.11974-0.42577 0-0.67324-0.32465-0.67324-0.75307 0-0.42843 0.24748-0.76372 0.67324-0.76372 0.16765 0 0.34061 0.0532 0.43907 0.11974l0.08515-0.18361c-0.11709-0.0719-0.30602-0.13039-0.52423-0.13039-0.53221 0-0.89411 0.42577-0.89411 0.95798s0.3619 0.94733 0.89411 0.94733c0.17829 0 0.36989-0.0426 0.52423-0.13039z"/>
   <path d="m94.025 396c-0.53221 0-0.8675 0.42577-0.8675 0.95798s0.33529 0.94733 0.8675 0.94733c0.53221 0 0.8675-0.41512 0.8675-0.94733s-0.33529-0.95798-0.8675-0.95798zm0 1.711c-0.42577 0-0.64664-0.32465-0.64664-0.75307 0-0.42843 0.22087-0.76372 0.64664-0.76372 0.42577 0 0.64663 0.33529 0.64663 0.76372 0 0.42842-0.22087 0.75307-0.64663 0.75307z"/>
   <path d="m95.264 396.03v1.8414h0.22087v-1.562l0.97926 1.562h0.30602v-1.8414h-0.22087v1.562l-0.98193-1.562z"/>
   <path d="m97.732 397.9c0.38851 0 0.67857-0.20756 0.67857-0.50028 0-0.59607-1.0165-0.49761-1.0165-0.90475 0-0.1916 0.16232-0.30602 0.42311-0.30602 0.14902 0 0.34594 0.0479 0.4444 0.11974l0.08515-0.18361c-0.1437-0.0825-0.314-0.13039-0.53487-0.13039-0.34328 0-0.63865 0.14636-0.63865 0.50028 0 0.59607 1.0165 0.49761 1.0165 0.90475 0 0.15434-0.17297 0.30602-0.45238 0.30602-0.21022 0-0.41778-0.0798-0.52156-0.14636l-0.08515 0.18362c0.1437 0.0798 0.31933 0.157 0.6014 0.157z"/>
   <path d="m99.555 396c-0.53221 0-0.8675 0.42577-0.8675 0.95798s0.33529 0.94733 0.8675 0.94733c0.53221 0 0.8675-0.41512 0.8675-0.94733s-0.33529-0.95798-0.8675-0.95798zm0 1.711c-0.42577 0-0.64663-0.32465-0.64663-0.75307 0-0.42843 0.22087-0.76372 0.64663-0.76372 0.42577 0 0.64664 0.33529 0.64664 0.76372 0 0.42842-0.22087 0.75307-0.64664 0.75307z"/>
   <path d="m100.79 396.03v1.8414h1.0484v-0.19426h-0.82758v-1.6472z"/>
   <path d="m102.09 397.88h1.0804v-0.19426h-0.85952v-0.68921h0.78767v-0.19426h-0.78767v-0.56946h0.85952v-0.19426h-1.0804z"/>
  </g>
 </g>
 <g transform="matrix(1.0024 0 0 1.0019 -1.6516 125.47)">
  <g transform="matrix(-.61327 0 0 -.348 123.37 289.31)">
   <g>
    <rect x="103.78" y="82.366" width="1.5794" height="4.6229" fill="#f2dcc6"/>
    <rect x="103.82" y="82.557" width="1.5389" height="4.4321" fill="#f3ece1"/>
   </g>
   <rect x="103.88" y="82.953" width="1.4747" height="4.0356" rx=".6" ry=".6" fill="#e3e0e0"/>
   <rect x="103.95" y="82.81" width="1.407" height="4.1787" rx=".6" ry=".6" fill="none" stroke="#cac6c4" stroke-linejoin="round" stroke-width=".2"/>
  </g>
  <g transform="matrix(-.61327 0 0 -.348 125.8 289.31)">
   <g>
    <rect x="103.64" y="81.051" width="1.7134" height="5.9381" fill="#f2dcc6"/>
    <rect x="103.75" y="81.292" width="1.6058" height="5.6967" fill="#f3ece1"/>
   </g>
   <rect x="103.83" y="81.807" width="1.5225" height="5.1822" rx=".6" ry=".6" fill="#e3e0e0"/>
   <rect x="103.87" y="81.647" width="1.4836" height="5.3421" rx=".6" ry=".6" fill="none" stroke="#cac6c4" stroke-linejoin="round" stroke-width=".2"/>
  </g>
  <g transform="matrix(-.61327 0 0 -.348 128.32 289.31)">
   <g>
    <rect x="103.79" y="80.832" width="1.5603" height="6.1573" fill="#f2dcc6"/>
    <rect x="103.88" y="80.955" width="1.4719" height="6.034" fill="#f3ece1"/>
   </g>
   <rect x="103.99" y="81.166" width="1.3694" height="5.8229" rx=".6" ry=".6" fill="#e3e0e0"/>
   <rect x="103.96" y="81.023" width="1.3975" height="5.966" rx=".6" ry=".6" fill="none" stroke="#cac6c4" stroke-linejoin="round" stroke-width=".2"/>
  </g>
  <g transform="matrix(-.61327 0 0 -.348 120.91 289.31)">
   <g>
    <rect x="103.81" y="83.614" width="1.5412" height="3.3751" fill="#f2dcc6"/>
    <rect x="103.92" y="83.788" width="1.4336" height="3.2012" fill="#f3ece1"/>
   </g>
   <rect x="104.02" y="83.881" width="1.3312" height="3.1082" rx=".6" ry=".6" fill="#e3e0e0"/>
   <rect x="104.04" y="83.94" width="1.3113" height="3.0489" rx=".6" ry=".6" fill="none" stroke="#cac6c4" stroke-linejoin="round" stroke-width=".2"/>
  </g>
  <g transform="matrix(-.61327 0 0 -.348 130.79 289.31)">
   <g>
    <rect x="103.8" y="80.176" width="1.5535" height="6.813" fill="#f2dcc6"/>
    <rect x="103.9" y="80.28" width="1.4527" height="6.7084" fill="#f3ece1"/>
   </g>
   <rect x="103.97" y="80.458" width="1.3886" height="6.5311" rx=".6" ry=".6" fill="#e3e0e0"/>
   <rect x="103.95" y="80.379" width="1.4042" height="6.6098" rx=".6" ry=".6" fill="none" stroke="#cac6c4" stroke-linejoin="round" stroke-width=".2"/>
  </g>
  <g transform="matrix(-.61327 0 0 -.348 133.26 289.31)">
   <g>
    <rect x="103.8" y="80.176" width="1.5535" height="6.813" fill="#f2dcc6"/>
    <rect x="103.9" y="80.28" width="1.4527" height="6.7084" fill="#f3ece1"/>
   </g>
   <rect x="103.97" y="80.458" width="1.3886" height="6.5311" rx=".6" ry=".6" fill="#e3e0e0"/>
   <rect x="103.95" y="80.379" width="1.4042" height="6.6098" rx=".6" ry=".6" fill="none" stroke="#cac6c4" stroke-linejoin="round" stroke-width=".2"/>
  </g>
  <g transform="matrix(-.61327 0 0 -.348 135.73 289.31)">
   <g>
    <rect x="103.8" y="80.176" width="1.5535" height="6.813" fill="#f2dcc6"/>
    <rect x="103.9" y="80.28" width="1.4527" height="6.7084" fill="#f3ece1"/>
   </g>
   <rect x="103.97" y="80.458" width="1.3886" height="6.5311" rx=".6" ry=".6" fill="#e3e0e0"/>
   <rect x="103.95" y="80.379" width="1.4042" height="6.6098" rx=".6" ry=".6" fill="none" stroke="#cac6c4" stroke-linejoin="round" stroke-width=".2"/>
  </g>
  <g transform="matrix(-.61327 0 0 -.348 138.2 289.31)">
   <g>
    <rect x="103.8" y="80.176" width="1.5535" height="6.813" fill="#f2dcc6"/>
    <rect x="103.9" y="80.28" width="1.4527" height="6.7084" fill="#f3ece1"/>
   </g>
   <rect x="103.97" y="80.458" width="1.3886" height="6.5311" rx=".6" ry=".6" fill="#e3e0e0"/>
   <rect x="103.95" y="80.379" width="1.4042" height="6.6098" rx=".6" ry=".6" fill="none" stroke="#cac6c4" stroke-linejoin="round" stroke-width=".2"/>
  </g>
  <g transform="matrix(-.61327 0 0 -.348 140.67 289.31)">
   <g>
    <rect x="103.8" y="80.176" width="1.5535" height="6.813" fill="#f2dcc6"/>
    <rect x="103.9" y="80.28" width="1.4527" height="6.7084" fill="#f3ece1"/>
   </g>
   <rect x="103.97" y="80.458" width="1.3886" height="6.5311" rx=".6" ry=".6" fill="#e3e0e0"/>
   <rect x="103.95" y="80.379" width="1.4042" height="6.6098" rx=".6" ry=".6" fill="none" stroke="#cac6c4" stroke-linejoin="round" stroke-width=".2"/>
  </g>
  <g transform="matrix(-.61327 0 0 -.348 143.14 289.31)">
   <g>
    <rect x="103.8" y="80.176" width="1.5535" height="6.813" fill="#f2dcc6"/>
    <rect x="103.9" y="80.28" width="1.4527" height="6.7084" fill="#f3ece1"/>
   </g>
   <rect x="103.97" y="80.458" width="1.3886" height="6.5311" rx=".6" ry=".6" fill="#e3e0e0"/>
   <rect x="103.95" y="80.379" width="1.4042" height="6.6098" rx=".6" ry=".6" fill="none" stroke="#cac6c4" stroke-linejoin="round" stroke-width=".2"/>
  </g>
  <g transform="matrix(-.61327 0 0 -.348 145.61 289.31)">
   <g>
    <rect x="103.8" y="80.176" width="1.5535" height="6.813" fill="#f2dcc6"/>
    <rect x="103.9" y="80.28" width="1.4527" height="6.7084" fill="#f3ece1"/>
   </g>
   <rect x="103.97" y="80.458" width="1.3886" height="6.5311" rx=".6" ry=".6" fill="#e3e0e0"/>
   <rect x="103.95" y="80.379" width="1.4042" height="6.6098" rx=".6" ry=".6" fill="none" stroke="#cac6c4" stroke-linejoin="round" stroke-width=".2"/>
  </g>
  <g transform="matrix(-.61327 0 0 -.348 148.08 289.31)">
   <g>
    <rect x="103.8" y="80.176" width="1.5535" height="6.813" fill="#f2dcc6"/>
    <rect x="103.9" y="80.28" width="1.4527" height="6.7084" fill="#f3ece1"/>
   </g>
   <rect x="103.97" y="80.458" width="1.3886" height="6.5311" rx=".6" ry=".6" fill="#e3e0e0"/>
   <rect x="103.95" y="80.379" width="1.4042" height="6.6098" rx=".6" ry=".6" fill="none" stroke="#cac6c4" stroke-linejoin="round" stroke-width=".2"/>
  </g>
  <g transform="matrix(-.61327 0 0 -.348 150.55 289.31)">
   <g>
    <rect x="103.8" y="80.176" width="1.5535" height="6.813" fill="#f2dcc6"/>
    <rect x="103.9" y="80.28" width="1.4527" height="6.7084" fill="#f3ece1"/>
   </g>
   <rect x="103.97" y="80.458" width="1.3886" height="6.5311" rx=".6" ry=".6" fill="#e3e0e0"/>
   <rect x="103.95" y="80.379" width="1.4042" height="6.6098" rx=".6" ry=".6" fill="none" stroke="#cac6c4" stroke-linejoin="round" stroke-width=".2"/>
  </g>
  <g transform="matrix(-.61327 0 0 -.348 153.02 289.31)">
   <g>
    <rect x="103.8" y="80.176" width="1.5535" height="6.813" fill="#f2dcc6"/>
    <rect x="103.9" y="80.28" width="1.4527" height="6.7084" fill="#f3ece1"/>
   </g>
   <rect x="103.97" y="80.458" width="1.3886" height="6.5311" rx=".6" ry=".6" fill="#e3e0e0"/>
   <rect x="103.95" y="80.379" width="1.4042" height="6.6098" rx=".6" ry=".6" fill="none" stroke="#cac6c4" stroke-linejoin="round" stroke-width=".2"/>
  </g>
  <g transform="matrix(-.61327 0 0 -.348 155.49 289.31)">
   <g>
    <rect x="103.8" y="80.176" width="1.5535" height="6.813" fill="#f2dcc6"/>
    <rect x="103.9" y="80.28" width="1.4527" height="6.7084" fill="#f3ece1"/>
   </g>
   <rect x="103.97" y="80.458" width="1.3886" height="6.5311" rx=".6" ry=".6" fill="#e3e0e0"/>
   <rect x="103.95" y="80.379" width="1.4042" height="6.6098" rx=".6" ry=".6" fill="none" stroke="#cac6c4" stroke-linejoin="round" stroke-width=".2"/>
  </g>
  <g transform="matrix(-.61327 0 0 -.348 157.96 289.31)">
   <g>
    <rect x="103.8" y="80.176" width="1.5535" height="6.813" fill="#f2dcc6"/>
    <rect x="103.9" y="80.28" width="1.4527" height="6.7084" fill="#f3ece1"/>
   </g>
   <rect x="103.97" y="80.458" width="1.3886" height="6.5311" rx=".6" ry=".6" fill="#e3e0e0"/>
   <rect x="103.95" y="80.379" width="1.4042" height="6.6098" rx=".6" ry=".6" fill="none" stroke="#cac6c4" stroke-linejoin="round" stroke-width=".2"/>
  </g>
  <g transform="matrix(-.61327 0 0 -.348 160.43 289.31)">
   <g>
    <rect x="103.8" y="80.176" width="1.5535" height="6.813" fill="#f2dcc6"/>
    <rect x="103.9" y="80.28" width="1.4527" height="6.7084" fill="#f3ece1"/>
   </g>
   <rect x="103.97" y="80.458" width="1.3886" height="6.5311" rx=".6" ry=".6" fill="#e3e0e0"/>
   <rect x="103.95" y="80.379" width="1.4042" height="6.6098" rx=".6" ry=".6" fill="none" stroke="#cac6c4" stroke-linejoin="round" stroke-width=".2"/>
  </g>
  <g transform="matrix(-.61327 0 0 -.348 187.6 289.31)">
   <g>
    <rect x="103.81" y="83.614" width="1.5412" height="3.3751" fill="#f2dcc6"/>
    <rect x="103.92" y="83.788" width="1.4336" height="3.2012" fill="#f3ece1"/>
   </g>
   <rect x="104.02" y="83.881" width="1.3312" height="3.1082" rx=".6" ry=".6" fill="#e3e0e0"/>
   <rect x="104.04" y="83.94" width="1.3113" height="3.0489" rx=".6" ry=".6" fill="none" stroke="#cac6c4" stroke-linejoin="round" stroke-width=".2"/>
  </g>
  <g transform="matrix(-.61327 0 0 -.348 185.11 289.31)">
   <g>
    <rect x="103.78" y="82.366" width="1.5794" height="4.6229" fill="#f2dcc6"/>
    <rect x="103.82" y="82.557" width="1.5389" height="4.4321" fill="#f3ece1"/>
   </g>
   <rect x="103.88" y="82.953" width="1.4747" height="4.0356" rx=".6" ry=".6" fill="#e3e0e0"/>
   <rect x="103.95" y="82.81" width="1.407" height="4.1787" rx=".6" ry=".6" fill="none" stroke="#cac6c4" stroke-linejoin="round" stroke-width=".2"/>
  </g>
  <g transform="matrix(-.61327 0 0 -.348 182.6 289.31)">
   <g>
    <rect x="103.64" y="81.051" width="1.7134" height="5.9381" fill="#f2dcc6"/>
    <rect x="103.75" y="81.292" width="1.6058" height="5.6967" fill="#f3ece1"/>
   </g>
   <rect x="103.83" y="81.807" width="1.5225" height="5.1822" rx=".6" ry=".6" fill="#e3e0e0"/>
   <rect x="103.87" y="81.647" width="1.4836" height="5.3421" rx=".6" ry=".6" fill="none" stroke="#cac6c4" stroke-linejoin="round" stroke-width=".2"/>
  </g>
  <g transform="matrix(-.61327 0 0 -.348 180.18 289.31)">
   <g>
    <rect x="103.79" y="80.832" width="1.5603" height="6.1573" fill="#f2dcc6"/>
    <rect x="103.88" y="80.955" width="1.4719" height="6.034" fill="#f3ece1"/>
   </g>
   <rect x="103.99" y="81.166" width="1.3694" height="5.8229" rx=".6" ry=".6" fill="#e3e0e0"/>
   <rect x="103.96" y="81.023" width="1.3975" height="5.966" rx=".6" ry=".6" fill="none" stroke="#cac6c4" stroke-linejoin="round" stroke-width=".2"/>
  </g>
  <g transform="matrix(-.61327 0 0 -.348 177.71 289.31)">
   <g>
    <rect x="103.8" y="80.176" width="1.5535" height="6.813" fill="#f2dcc6"/>
    <rect x="103.9" y="80.28" width="1.4527" height="6.7084" fill="#f3ece1"/>
   </g>
   <rect x="103.97" y="80.458" width="1.3886" height="6.5311" rx=".6" ry=".6" fill="#e3e0e0"/>
   <rect x="103.95" y="80.379" width="1.4042" height="6.6098" rx=".6" ry=".6" fill="none" stroke="#cac6c4" stroke-linejoin="round" stroke-width=".2"/>
  </g>
  <g transform="matrix(-.61327 0 0 -.348 162.9 289.31)">
   <g>
    <rect x="103.8" y="80.176" width="1.5535" height="6.813" fill="#f2dcc6"/>
    <rect x="103.9" y="80.28" width="1.4527" height="6.7084" fill="#f3ece1"/>
   </g>
   <rect x="103.97" y="80.458" width="1.3886" height="6.5311" rx=".6" ry=".6" fill="#e3e0e0"/>
   <rect x="103.95" y="80.379" width="1.4042" height="6.6098" rx=".6" ry=".6" fill="none" stroke="#cac6c4" stroke-linejoin="round" stroke-width=".2"/>
  </g>
  <g transform="matrix(-.61327 0 0 -.348 165.36 289.31)">
   <g>
    <rect x="103.8" y="80.176" width="1.5535" height="6.813" fill="#f2dcc6"/>
    <rect x="103.9" y="80.28" width="1.4527" height="6.7084" fill="#f3ece1"/>
   </g>
   <rect x="103.97" y="80.458" width="1.3886" height="6.5311" rx=".6" ry=".6" fill="#e3e0e0"/>
   <rect x="103.95" y="80.379" width="1.4042" height="6.6098" rx=".6" ry=".6" fill="none" stroke="#cac6c4" stroke-linejoin="round" stroke-width=".2"/>
  </g>
  <g transform="matrix(-.61327 0 0 -.348 167.83 289.31)">
   <g>
    <rect x="103.8" y="80.176" width="1.5535" height="6.813" fill="#f2dcc6"/>
    <rect x="103.9" y="80.28" width="1.4527" height="6.7084" fill="#f3ece1"/>
   </g>
   <rect x="103.97" y="80.458" width="1.3886" height="6.5311" rx=".6" ry=".6" fill="#e3e0e0"/>
   <rect x="103.95" y="80.379" width="1.4042" height="6.6098" rx=".6" ry=".6" fill="none" stroke="#cac6c4" stroke-linejoin="round" stroke-width=".2"/>
  </g>
  <g transform="matrix(-.61327 0 0 -.348 170.3 289.31)">
   <g>
    <rect x="103.8" y="80.176" width="1.5535" height="6.813" fill="#f2dcc6"/>
    <rect x="103.9" y="80.28" width="1.4527" height="6.7084" fill="#f3ece1"/>
   </g>
   <rect x="103.97" y="80.458" width="1.3886" height="6.5311" rx=".6" ry=".6" fill="#e3e0e0"/>
   <rect x="103.95" y="80.379" width="1.4042" height="6.6098" rx=".6" ry=".6" fill="none" stroke="#cac6c4" stroke-linejoin="round" stroke-width=".2"/>
  </g>
  <g transform="matrix(-.61327 0 0 -.348 172.77 289.31)">
   <g>
    <rect x="103.8" y="80.176" width="1.5535" height="6.813" fill="#f2dcc6"/>
    <rect x="103.9" y="80.28" width="1.4527" height="6.7084" fill="#f3ece1"/>
   </g>
   <rect x="103.97" y="80.458" width="1.3886" height="6.5311" rx=".6" ry=".6" fill="#e3e0e0"/>
   <rect x="103.95" y="80.379" width="1.4042" height="6.6098" rx=".6" ry=".6" fill="none" stroke="#cac6c4" stroke-linejoin="round" stroke-width=".2"/>
  </g>
  <g transform="matrix(-.61327 0 0 -.348 175.24 289.31)">
   <g>
    <rect x="103.8" y="80.176" width="1.5535" height="6.813" fill="#f2dcc6"/>
    <rect x="103.9" y="80.28" width="1.4527" height="6.7084" fill="#f3ece1"/>
   </g>
   <rect x="103.97" y="80.458" width="1.3886" height="6.5311" rx=".6" ry=".6" fill="#e3e0e0"/>
   <rect x="103.95" y="80.379" width="1.4042" height="6.6098" rx=".6" ry=".6" fill="none" stroke="#cac6c4" stroke-linejoin="round" stroke-width=".2"/>
  </g>
 </g>
 <g>
  <path d="m118.94 380.08v-6.6604h-0.72517v6.6604z" fill="#a09a9a"/>
  <g stroke-width=".0041799px" aria-label="STATUS">
   <path d="m126.85 372.43v0.0724q-0.0423-0.0202-0.0797-0.0301-0.0375-0.01-0.0724-0.01-0.0606 0-0.0937 0.0235-0.0327 0.0235-0.0327 0.0669 0 0.0364 0.0217 0.0551 0.022 0.0184 0.083 0.0298l0.0448 9e-3q0.083 0.0158 0.12233 0.0558 0.0397 0.0397 0.0397 0.10654 0 0.0797-0.0536 0.12087-0.0533 0.0411-0.1565 0.0411-0.0389 0-0.083-9e-3 -0.0437-9e-3 -0.0907-0.0261v-0.0764q0.0452 0.0254 0.0885 0.0382 0.0433 0.0129 0.0852 0.0129 0.0636 0 0.0981-0.025t0.0345-0.0713q0-0.0404-0.025-0.0632-0.0246-0.0228-0.0812-0.0342l-0.0452-9e-3q-0.083-0.0165-0.12013-0.0518-0.0371-0.0353-0.0371-0.0981 0-0.0727 0.0511-0.11462 0.0514-0.0419 0.14144-0.0419 0.0386 0 0.0786 7e-3t0.0819 0.0209z"/>
   <path d="m126.92 372.41h0.464v0.0625h-0.19471v0.48604h-0.0746v-0.48604h-0.19471z"/>
   <path d="m127.58 372.49-0.10067 0.27296h0.20169zm-0.0419-0.0731h0.0841l0.20904 0.54849h-0.0772l-0.05-0.14071h-0.24725l-0.05 0.14071h-0.0783z"/>
   <path d="m127.78 372.41h0.464v0.0625h-0.19471v0.48604h-0.0746v-0.48604h-0.19471z"/>
   <path d="m128.3 372.41h0.0746v0.33321q0 0.0882 0.032 0.12711 0.032 0.0386 0.1036 0.0386 0.0713 0 0.10324-0.0386 0.032-0.0389 0.032-0.12711v-0.33321h0.0746v0.34239q0 0.10728-0.0533 0.16201-0.0529 0.0547-0.15651 0.0547-0.10396 0-0.15723-0.0547-0.0529-0.0547-0.0529-0.16201z"/>
   <path d="m129.19 372.43v0.0724q-0.0423-0.0202-0.0797-0.0301-0.0375-0.01-0.0724-0.01-0.0606 0-0.0937 0.0235-0.0327 0.0235-0.0327 0.0669 0 0.0364 0.0217 0.0551 0.0221 0.0184 0.083 0.0298l0.0448 9e-3q0.083 0.0158 0.12234 0.0558 0.0397 0.0397 0.0397 0.10654 0 0.0797-0.0536 0.12087-0.0533 0.0411-0.15651 0.0411-0.0389 0-0.083-9e-3 -0.0437-9e-3 -0.0907-0.0261v-0.0764q0.0452 0.0254 0.0885 0.0382 0.0434 0.0129 0.0852 0.0129 0.0636 0 0.0981-0.025t0.0345-0.0713q0-0.0404-0.025-0.0632-0.0246-0.0228-0.0812-0.0342l-0.0452-9e-3q-0.083-0.0165-0.12013-0.0518-0.0371-0.0353-0.0371-0.0981 0-0.0727 0.0511-0.11462 0.0514-0.0419 0.14144-0.0419 0.0386 0 0.0786 7e-3t0.0819 0.0209z"/>
  </g>
  <g stroke-width=".0041799px" aria-label="POWER">
   <path d="m126.59 377.04v0.2061h0.0933q0.0518 0 0.0801-0.0268t0.0283-0.0764q0-0.0492-0.0283-0.0761-0.0283-0.0268-0.0801-0.0268zm-0.0742-0.061h0.16753q0.0922 0 0.13923 0.0419 0.0474 0.0415 0.0474 0.12197 0 0.0812-0.0474 0.1227-0.047 0.0415-0.13923 0.0415h-0.0933v0.22043h-0.0742z"/>
   <path d="m127.19 377.03q-0.0808 0-0.12858 0.0602-0.0474 0.0602-0.0474 0.16421 0 0.1036 0.0474 0.16385 0.0478 0.0602 0.12858 0.0602 0.0808 0 0.12785-0.0602 0.0474-0.0602 0.0474-0.16385 0-0.10396-0.0474-0.16421-0.047-0.0602-0.12785-0.0602zm0-0.0602q0.11535 0 0.18442 0.0775 0.0691 0.0771 0.0691 0.2072 0 0.12969-0.0691 0.2072-0.0691 0.0771-0.18442 0.0771-0.11573 0-0.18516-0.0771-0.0691-0.0771-0.0691-0.2072 0-0.13005 0.0691-0.2072 0.0694-0.0775 0.18516-0.0775z"/>
   <path d="m127.51 376.98h0.0749l0.11536 0.46363 0.11499-0.46363h0.0834l0.11536 0.46363 0.11499-0.46363h0.0753l-0.13777 0.54849h-0.0933l-0.11572-0.47612-0.11683 0.47612h-0.0933z"/>
   <path d="m128.3 376.98h0.3468v0.0624h-0.27259v0.16238h0.2612v0.0625h-0.2612v0.19876h0.2792v0.0624h-0.35341z"/>
   <path d="m129.04 377.27q0.0239 8e-3 0.0463 0.0345 0.0228 0.0265 0.0455 0.0727l0.0753 0.14989h-0.0797l-0.0702-0.14071q-0.0272-0.0551-0.0529-0.0731-0.0254-0.018-0.0694-0.018h-0.0808v0.23182h-0.0742v-0.54849h0.16752q0.0941 0 0.14034 0.0393 0.0463 0.0393 0.0463 0.11866 0 0.0518-0.0242 0.086-0.0239 0.0342-0.0698 0.0474zm-0.18589-0.23035v0.19471h0.0933q0.0536 0 0.0808-0.0246 0.0276-0.025 0.0276-0.0731t-0.0276-0.0724q-0.0272-0.0246-0.0808-0.0246z"/>
  </g>
 </g>
</svg>
