<?xml version="1.0" encoding="UTF-8" standalone="no"?>
<svg
   xmlns:dc="http://purl.org/dc/elements/1.1/"
   xmlns:cc="http://creativecommons.org/ns#"
   xmlns:rdf="http://www.w3.org/1999/02/22-rdf-syntax-ns#"
   xmlns:svg="http://www.w3.org/2000/svg"
   xmlns="http://www.w3.org/2000/svg"
   id="svg410"
   viewBox="70.4 401.06667 207 42.700001"
   version="1.1"
   height="42.7"
   width="207">
  <metadata
     id="metadata416">
    <rdf:RDF>
      <cc:Work
         rdf:about="">
        <dc:format>image/svg+xml</dc:format>
        <dc:type
           rdf:resource="http://purl.org/dc/dcmitype/StillImage" />
        <dc:title></dc:title>
      </cc:Work>
    </rdf:RDF>
  </metadata>
  <defs
     id="defs414" />
  <path
     id="path2"
     stroke-width="1.3871"
     fill="#ccc"
     d="m71.389 401.45c-0.54822 0-0.98828 0.35958-0.98828 0.80469v39.46c0 0.44512 0.44007 0.80274 0.98828 0.80274h205.02c0.54822 0 0.98828-0.35762 0.98828-0.80274v-39.46c0-0.44511-0.44006-0.80469-0.98828-0.80469zm3.7598 4.734c2.0215-1.7e-4 3.6604 1.6387 3.6602 3.6602 1.66e-4 2.0215-1.6387 3.6604-3.6602 3.6602-2.0215 1.7e-4 -3.6604-1.6387-3.6602-3.6602-1.66e-4 -2.0215 1.6387-3.6604 3.6602-3.6602z" />
  <g
     id="g18"
     stroke="#000"
     fill-rule="evenodd">
    <g
       id="g12"
       stroke-width=".084846"
       stroke-linecap="round">
      <circle
         id="circle4"
         fill="#bebebe"
         r="2.8437"
         cy="422.8"
         cx="274.24" />
      <circle
         id="circle6"
         fill="#ececec"
         r="1.1202"
         cy="422.8"
         cx="274.24" />
      <circle
         id="circle8"
         fill="#bebebe"
         r="2.8437"
         cy="422.8"
         cx="73.79" />
      <circle
         id="circle10"
         fill="#ececec"
         r="1.1202"
         cy="422.8"
         cx="73.79" />
    </g>
    <rect
       id="rect14"
       stroke-width=".52296"
       fill="#f9f9f9"
       ry=".0053761"
       rx=".025014"
       height="24.662"
       width="86.607"
       y="407.43"
       x="177.83" />
    <rect
       id="rect16"
       stroke-width=".52296"
       fill="#f9f9f9"
       ry=".0053761"
       rx=".025014"
       height="24.662"
       width="86.607"
       y="407.43"
       x="85.52" />
  </g>
  <rect
     id="rect20"
     fill="#b3b3b3"
     height="2.3998"
     width="54.034"
     y="440.12"
     x="70.4" />
  <rect
     id="rect22"
     fill="#b3b3b3"
     height="2.3998"
     width="54.034"
     y="440.12"
     x="223.36" />
  <rect
     id="rect24"
     fill="#666"
     height="1.2256"
     width="179.68"
     y="442.54"
     x="84.057" />
  <g
     id="g48"
     word-spacing="0px"
     letter-spacing="0px"
     font-family="sans-serif"
     fill="#000000">
    <text
       id="text28"
       xml:space="preserve"
       style="line-height:1.25"
       font-size="40px"
       y="434.50723"
       x="269.41553"><tspan
         id="tspan26"
         font-size="5.3333px"
         fill="#000000"
         y="434.50723"
         x="269.41553">zl</tspan></text>
    <text
       id="text32"
       xml:space="preserve"
       style="line-height:1.25"
       stroke-width=".39124"
       font-size="2.0866px"
       y="437.65918"
       x="267.58096"><tspan
         id="tspan30"
         stroke-width=".39124"
         fill="#000000"
         y="437.65918"
         x="267.58096">Module</tspan></text>
    <g
       id="g46"
       stroke-width=".39124"
       font-weight="bold">
      <text
         id="text36"
         xml:space="preserve"
         style="line-height:1.25"
         y="430.63025"
         x="73.47879"><tspan
           id="tspan34"
           stroke-width=".39124"
           font-weight="bold"
           font-size="2px"
           font-family="sans-serif"
           fill="#000000"
           y="430.63025"
           x="73.47879">24p SFP</tspan></text>
      <text
         id="text40"
         xml:space="preserve"
         style="line-height:1.25"
         y="434.1712"
         x="72.780876"><tspan
           id="tspan38"
           stroke-width=".39124"
           font-weight="bold"
           font-size="2px"
           font-family="sans-serif"
           fill="#000000"
           y="434.1712"
           x="72.780876">v2 zl Mod</tspan></text>
      <text
         id="text44"
         xml:space="preserve"
         style="line-height:1.25"
         y="437.271"
         x="74.275032"><tspan
           id="tspan42"
           stroke-width=".39124"
           font-weight="bold"
           font-size="2px"
           font-family="sans-serif"
           fill="#000000"
           y="437.271"
           x="74.275032">J9537A</tspan></text>
    </g>
  </g>
  <rect
     id="rect50"
     height="4.2513"
     width="5.3849"
     y="401.77"
     x="161.9" />
  <rect
     id="rect52"
     height="4.2513"
     width="5.3849"
     y="401.77"
     x="90.564" />
  <rect
     id="rect54"
     height="4.2513"
     width="5.3849"
     y="401.77"
     x="104.74" />
  <rect
     id="rect56"
     height="4.2513"
     width="5.3849"
     y="401.77"
     x="119.04" />
  <rect
     id="rect58"
     height="4.2513"
     width="5.3849"
     y="401.77"
     x="133.28" />
  <rect
     id="rect60"
     height="4.2513"
     width="5.3849"
     y="401.77"
     x="147.54" />
  <rect
     id="rect62"
     height="4.2513"
     width="5.3849"
     y="401.77"
     x="182.77" />
  <rect
     id="rect64"
     height="4.2513"
     width="5.3849"
     y="401.77"
     x="197.06" />
  <rect
     id="rect66"
     height="4.2513"
     width="5.3849"
     y="401.77"
     x="211.31" />
  <rect
     id="rect68"
     height="4.2513"
     width="5.3849"
     y="401.77"
     x="225.6" />
  <rect
     id="rect70"
     height="4.2513"
     width="5.3849"
     y="401.77"
     x="239.8" />
  <rect
     id="rect72"
     height="4.2513"
     width="5.3849"
     y="401.77"
     x="254.05" />
  <rect
     id="rect74"
     height="4.2513"
     width="5.3849"
     y="434.41"
     x="254.05" />
  <rect
     id="rect76"
     height="4.2513"
     width="5.3849"
     y="434.41"
     x="239.8" />
  <rect
     id="rect78"
     height="4.2513"
     width="5.3849"
     y="434.41"
     x="225.6" />
  <rect
     id="rect80"
     height="4.2513"
     width="5.3849"
     y="434.41"
     x="211.31" />
  <rect
     id="rect82"
     height="4.2513"
     width="5.3849"
     y="434.41"
     x="197.06" />
  <rect
     id="rect84"
     height="4.2513"
     width="5.3849"
     y="434.41"
     x="182.77" />
  <rect
     id="rect86"
     height="4.2513"
     width="5.3849"
     y="434.41"
     x="90.564" />
  <rect
     id="rect88"
     height="4.2513"
     width="5.3849"
     y="434.41"
     x="104.74" />
  <rect
     id="rect90"
     height="4.2513"
     width="5.3849"
     y="434.41"
     x="119.04" />
  <rect
     id="rect92"
     height="4.2513"
     width="5.3849"
     y="434.41"
     x="133.28" />
  <rect
     id="rect94"
     height="4.2513"
     width="5.3849"
     y="434.41"
     x="147.54" />
  <rect
     id="rect96"
     height="4.2513"
     width="5.3849"
     y="434.41"
     x="161.9" />
  <g
     id="g166"
     fill="#fff">
    <path
       id="path98"
       d="m92.38 404.48h0.57044v-1.4977l-0.58555 0.11174v-0.40663l0.58218-0.11174h0.61408v1.9044h0.57044v0.41284h-1.7516z" />
    <path
       id="path100"
       d="m149.4 404.57c0.77564 0.30187 1.1655 0.0487 1.2129-0.45473-0.67337 0.38764-1.3791 0.0127-1.3791-0.59753 0.01-0.66591 0.59936-0.82413 0.9664-0.82413 0.82871 0 1.0268 0.63138 1.0268 1.1702 0 1.1563-0.94113 1.412-1.8271 1.1346zm0.79696-0.68753c0.22151 0 0.34055-0.15465 0.34055-0.40661 0-0.25193-0.0971-0.4067-0.34055-0.4067-0.2434 0-0.34057 0.13691-0.34057 0.4067 0 0.26974 0.11902 0.40661 0.34057 0.40661z" />
    <path
       id="path102"
       d="m93.065 437.28h1.0987v0.44066h-1.8144v-0.44066l0.9114-0.74897c0.67208-0.67649-0.20858-1.0249-0.90453-0.52927v-0.51072c0.87434-0.26633 1.791-0.16133 1.791 0.55902-0.0194 0.39057-0.27317 0.56141-0.54851 0.79412z" />
    <path
       id="path104"
       d="m107.5 435.86-0.69846 0.98428h0.69846zm-0.10604-0.49923h0.70839v1.4835h0.35255v0.43938h-0.35255v0.42837h-0.60246v-0.42837h-1.0957v-0.5197z" />
    <path
       id="path106"
       d="m120.9 402.71h1.583v0.44029h-1.0752v0.35939c0.76225-0.13724 1.2538 0.18063 1.2538 0.76549 0 0.87279-1.0647 0.92282-1.8592 0.64886v-0.47141c0.66048 0.38878 1.2224 0.21563 1.2224-0.17736 0-0.47051-0.5925-0.47647-1.1248-0.25834z" />
    <path
       id="path108"
       d="m135.02 402.74h1.8955v0.33699l-0.98062 1.9816h-0.63185l0.9284-1.8791h-1.2115z" />
    <path
       id="path110"
       d="m135.98 436.66c-0.23504 0-0.37844 0.12413-0.37844 0.35414 0 0.2301 0.17072 0.3525 0.37844 0.3525 0.20771 0 0.37328-0.10365 0.37328-0.3525 0-0.24881-0.13818-0.35414-0.37328-0.35414zm-0.47473-0.19722c-0.41897-0.10998-0.46287-0.38925-0.46287-0.52489 0-0.49921 0.49456-0.60092 0.93766-0.60092 0.68803 0 0.93428 0.26281 0.93428 0.60092 0 0.34435-0.29471 0.47967-0.46462 0.52489 0.40341 0.10745 0.51857 0.35296 0.51857 0.58234 0 0.57602-0.49659 0.6972-0.98835 0.6972-0.69727 0.0145-0.9934-0.26779-0.9934-0.6972 0-0.431 0.30669-0.52552 0.51873-0.58234zm0.15198-0.46434c0 0.21646 0.16244 0.28724 0.3227 0.28724 0.16028 0 0.31764-0.0649 0.31764-0.28724 0-0.22226-0.15474-0.28566-0.31764-0.28566-0.16283 0-0.3227 0.0692-0.3227 0.28566z" />
    <path
       id="path112"
       d="m151.31 435.33c-0.82094 0-1.0334 0.67489-1.0332 1.2031 2.2e-4 0.66066 0.27702 1.2015 1.0332 1.2012s1.0293-0.54826 1.0293-1.2012c0-0.6529-0.20836-1.2031-1.0293-1.2031zm-2.6035 0.0879-0.58203 0.11134v0.40625l0.58593-0.11134v1.498h-0.57031v0.41211h1.752v-0.41211h-0.57031v-1.9043zm2.6035 0.32032c0.29607 0 0.38282 0.25838 0.38282 0.78906 0 0.53069-0.082 0.80078-0.38282 0.80078-0.30083 0-0.38672-0.28294-0.38672-0.80078 0-0.51783 0.0906-0.78906 0.38672-0.78906z" />
    <path
       id="path114"
       d="m186.44 435.36-0.99023 1.4043v0.51953h1.0957v0.42773h0.60156v-0.42773h0.35352v-0.43946h-0.35352v-1.4844zm-2.4355 0.0351-0.58204 0.11133v0.40625l0.58594-0.11133v1.498h-0.57031v0.41211h1.752v-0.41211h-0.57226v-1.9043zm2.541 0.46485v0.98437h-0.69922z" />
    <path
       id="path116"
       d="m163.1 402.74-0.58203 0.11328v0.40625l0.58594-0.11134v1.4961h-0.57031v0.41406h1.752v-0.41406h-0.57227v-1.9043zm2.3789 0-0.58203 0.11328v0.40625l0.58593-0.11134v1.4961h-0.57031v0.41406h1.752v-0.41406h-0.57032v-1.9043z" />
    <path
       id="path118"
       d="m200.06 402.71v1.3086c0.53227-0.21813 1.125-0.2127 1.125 0.25781 0 0.39299-0.56217 0.56652-1.2226 0.17774v0.4707c0.79449 0.27396 1.8594 0.22435 1.8594-0.64844 0-0.58486-0.49166-0.90286-1.2539-0.76562v-0.35938h1.0762v-0.4414zm-1.7832 0.0449-0.58398 0.11133v0.4082l0.58593-0.11328v1.498h-0.57031v0.41406h1.752v-0.41406h-0.57031v-1.9043z" />
    <path
       id="path120"
       d="m214.14 402.74v0.43945h1.2109l-0.92774 1.8789h0.63086l0.98047-1.9824v-0.33593zm-1.5879 2e-3 -0.58203 0.11133v0.40625l0.58594-0.11133v1.498h-0.57032v0.4121h1.75v-0.4121h-0.57031v-1.9043z" />
    <path
       id="path122"
       d="m215.14 435.33c-0.4431 0-0.9375 0.10235-0.9375 0.60156 0 0.13564 0.0439 0.41346 0.46289 0.52344-0.14643 0.039-0.51953 0.16043-0.51953 0.58398 0 0.42941 0.29687 0.71177 0.99414 0.69727 0.49176 0 0.98828-0.12125 0.98828-0.69727 0-0.22938-0.11612-0.47654-0.51953-0.58398 0.16991-0.0452 0.46485-0.17909 0.46485-0.52344 0-0.33812-0.24557-0.60156-0.9336-0.60156zm-2.6797 0.0879-0.58204 0.11327v0.40625l0.58594-0.11133v1.4961h-0.57031v0.41407h1.752v-0.41407h-0.57226v-1.9043zm2.6797 0.28711c0.1629 0 0.31836 0.0648 0.31836 0.2871 0 0.22234-0.15808 0.28711-0.31836 0.28711-0.16026 0-0.32226-0.0707-0.32226-0.28711 0-0.21645 0.15943-0.2871 0.32226-0.2871zm0 0.94726c0.2351 0 0.37305 0.10666 0.37305 0.35547 0 0.24885-0.16534 0.35157-0.37305 0.35157-0.20772 0-0.3789-0.12147-0.3789-0.35157 0-0.23002 0.14386-0.35547 0.3789-0.35547z" />
    <g
       id="g136"
       stroke-width="1.8828">
      <path
         id="path124"
         d="m243.3 402.76-0.58203 0.11328v0.40625l0.58399-0.11132v1.4961h-0.57032v0.41406h1.752v-0.41406h-0.57032v-1.9043z" />
      <path
         id="path126"
         d="m241.15 402.72c-0.20889 0.0163-0.43181 0.0604-0.65039 0.12695v0.51172c0.69595-0.49566 1.5783-0.14719 0.90625 0.5293l-0.91211 0.74805v0.44139h1.8144v-0.44139h-1.0996l0.53516-0.43555c0.27534-0.23271 0.52747-0.40435 0.54687-0.79492 0-0.69658-0.68552-0.72677-1.1406-0.68555z" />
      <path
         id="path128"
         d="m229.43 435.33c-0.82093 0-1.0334 0.67487-1.0332 1.2031 2.2e-4 0.66066 0.27702 1.2015 1.0332 1.2012 0.75619-3.1e-4 1.0293-0.54826 1.0293-1.2012 0-0.6529-0.20835-1.2031-1.0293-1.2031zm0 0.40817c0.29607 0 0.38282 0.25837 0.38282 0.78906s-0.082 0.80077-0.38282 0.80077c-0.30083 0-0.38671-0.28294-0.38671-0.80077s0.0906-0.78906 0.38671-0.78906z" />
      <path
         id="path130"
         d="m226.79 435.38c-0.20889 0.0163-0.43181 0.0604-0.65039 0.12695v0.51172c0.69595-0.49566 1.5783-0.14719 0.90625 0.5293l-0.91211 0.74805v0.44139h1.8144v-0.44139h-1.0996l0.53516-0.43555c0.27534-0.23271 0.52747-0.40435 0.54687-0.79492 0-0.65955-0.70488-0.68555-1.1406-0.68555z" />
      <path
         id="path132"
         d="m241.05 435.36c-0.20889 0.0163-0.43181 0.0604-0.65039 0.12695v0.51172c0.69595-0.49566 1.5783-0.14719 0.90625 0.5293l-0.91211 0.74805v0.44139h1.8144v-0.44139h-1.0996l0.53516-0.43555c0.27534-0.23271 0.54687-0.43066 0.54687-0.79492 0-0.69926-0.65259-0.71289-1.1406-0.68555z" />
      <path
         id="path134"
         d="m243.43 435.36c-0.20889 0.0163-0.43181 0.0604-0.65039 0.12695v0.51172c0.69595-0.49566 1.5783-0.14719 0.90625 0.5293l-0.91211 0.74805v0.44139h1.8144v-0.44139h-1.0996l0.53516-0.43555c0.27534-0.23271 0.52747-0.40435 0.54687-0.79492 0-0.66476-0.64646-0.71115-1.1406-0.68555z" />
    </g>
    <path
       id="path138"
       d="m257.84 435.37-0.98828 1.4043v0.51953h1.0957v0.42773h0.60157v-0.42773h0.35351v-0.43945h-0.35351v-1.4844zm0.10742 0.5v0.98438h-0.69921z" />
    <g
       id="g146"
       stroke-width="1.8828">
      <path
         id="path140"
         d="m255.24 435.36c-0.20889 0.0163-0.43181 0.0604-0.65039 0.12695v0.51172c0.69595-0.49566 1.5783-0.14719 0.90625 0.5293l-0.91211 0.74805v0.44139h1.8144v-0.44139h-1.0996l0.53516-0.43555c0.27534-0.23271 0.54687-0.40728 0.54687-0.79492 0-0.6815-0.65818-0.73068-1.1406-0.68555z" />
      <path
         id="path142"
         d="m163.13 435.4-0.58204 0.11133v0.40625l0.58594-0.11133v1.498h-0.57031v0.4121h1.752v-0.4121h-0.57031v-1.9043z" />
      <path
         id="path144"
         d="m165.47 435.36c-0.20889 0.0163-0.43181 0.0604-0.65039 0.12695v0.51172c0.69595-0.49566 1.5783-0.14719 0.90625 0.5293l-0.91211 0.74805v0.4414h1.8144v-0.4414h-1.0996l0.53516-0.43555c0.27534-0.23271 0.54687-0.39254 0.54687-0.79492 0-0.60982-0.5733-0.71806-1.1406-0.68555z" />
    </g>
    <path
       id="path148"
       d="m107.86 403.81c0.38662 0.10336 0.51581 0.34598 0.51581 0.58911 0 0.80926-1.1898 0.77182-1.8841 0.58614v-0.45925c0.60788 0.27696 1.2394 0.22301 1.2394-0.14848 0.0157-0.34236-0.55269-0.32006-0.55269-0.32006h-0.2579v-0.38346h0.27131c0.14637 0 0.48075-5e-3 0.48075-0.28458 0-0.40106-0.76758-0.2827-1.0734-0.1501v-0.43604c0.82218-0.21988 1.7183-0.12215 1.7183 0.49339 0 0.35557-0.25306 0.45854-0.45748 0.51333z" />
    <path
       id="path150"
       d="m183.99 402.78-0.58203 0.11133v0.40625l0.58398-0.11133v1.498h-0.57031v0.41211h1.752v-0.41211h-0.57031v-1.9043z" />
    <path
       id="path152"
       d="m187 403.81c0.38662 0.10336 0.51581 0.34599 0.51581 0.58911 0 0.80926-1.1898 0.77182-1.8841 0.58615v-0.45925c0.60788 0.27695 1.2394 0.223 1.2394-0.14848 0.0157-0.34236-0.55269-0.32007-0.55269-0.32007h-0.2579v-0.38346h0.27131c0.14637 0 0.48075-5e-3 0.48075-0.28458 0-0.40105-0.76758-0.2827-1.0734-0.1501v-0.43604c0.82218-0.21988 1.7183-0.12215 1.7183 0.49339 0 0.35557-0.25306 0.45854-0.45748 0.51333z" />
    <path
       id="path154"
       stroke-width="1.8828"
       d="m255.29 402.74c-0.20889 0.0163-0.43181 0.0604-0.65039 0.12695v0.51172c0.69595-0.49566 1.5783-0.14719 0.90625 0.5293l-0.91211 0.74805v0.4414h1.8144v-0.4414h-1.0996l0.53516-0.43555c0.27534-0.23271 0.52747-0.40435 0.54687-0.79492 0-0.67583-0.63083-0.72677-1.1406-0.68555z" />
    <path
       id="path156"
       d="m258.34 403.81c0.38662 0.10336 0.51581 0.34598 0.51581 0.58911 0 0.80926-1.1898 0.77181-1.8841 0.58614v-0.45925c0.60788 0.27696 1.2394 0.223 1.2394-0.14848 0.0157-0.34236-0.55269-0.32006-0.55269-0.32006h-0.2579v-0.38346h0.27131c0.14637 0 0.48075-5e-3 0.48075-0.28458 0-0.40106-0.76758-0.2827-1.0734-0.1501v-0.43604c0.82218-0.21988 1.7183-0.12215 1.7183 0.49339 0 0.35557-0.25306 0.45854-0.45748 0.51333z" />
    <path
       id="path158"
       d="m198.19 435.41-0.58204 0.11135v0.40821l0.58594-0.11329v1.498h-0.57031v0.41406h1.752v-0.41406h-0.57226v-1.9043z" />
    <path
       id="path160"
       d="m199.88 436.56c0 0.66793 0.31197 1.1699 1.0312 1.1699 0.39994 0 0.97352-0.16222 0.97852-0.82032 0-0.60496-0.6981-0.99704-1.3887-0.60156 0-0.4558 0.38951-0.76647 1.2226-0.45117v-0.42969c-1.1969-0.3207-1.8436 0.25418-1.8436 1.1328zm1.039-0.0195c0.27204 0 0.34375 0.19797 0.34375 0.40821s-0.0798 0.40625-0.34375 0.40625c-0.26397 0-0.3418-0.16457-0.3418-0.40625 0-0.24167 0.0697-0.40821 0.3418-0.40821z" />
    <path
       id="path162"
       d="m120.73 436.56c0 0.66794 0.31197 1.1699 1.0312 1.1699 0.39994 0 0.97352-0.16222 0.97852-0.82032 0-0.60496-0.6981-0.99704-1.3887-0.60156 0-0.4558 0.38951-0.76647 1.2226-0.45117v-0.42968c-1.1262-0.30177-1.8436 0.23517-1.8436 1.1328zm1.039-0.0195c0.27204 0 0.34375 0.19797 0.34375 0.40821s-0.0798 0.40625-0.34375 0.40625c-0.26397 0-0.3418-0.16457-0.3418-0.40625 0-0.24167 0.0697-0.40821 0.3418-0.40821z" />
    <path
       id="path164"
       d="m229.35 402.69c-0.36704 0-0.95484 0.15831-0.96484 0.82423 0 0.61023 0.70554 0.9853 1.3789 0.59766-0.0474 0.50342-0.43725 0.755-1.2129 0.45312v0.42969c0.88597 0.27741 1.8262 0.0215 1.8262-1.1348 0-0.91568-0.46932-1.1699-1.0274-1.1699zm-2.5527 0.0899-0.58203 0.11132v0.40625l0.58594-0.11132v1.498h-0.57032v0.41211h1.75v-0.41211h-0.57031v-1.9043zm2.5508 0.28515c0.24345 0 0.33985 0.15432 0.33985 0.40625 0 0.25196-0.11834 0.40625-0.33985 0.40625-0.22155 0-0.3418-0.1365-0.3418-0.40625 0-0.26979 0.0984-0.40625 0.3418-0.40625z" />
  </g>
  <rect
     id="rect168"
     stroke-width=".25728"
     stroke="#7f7f7f"
     height="7.5532"
     width="13.946"
     y="408.1"
     x="249.89" />
  <polygon
     id="polygon170"
     stroke-width=".023002"
     stroke="#7f7f7f"
     fill="none"
     points="252.18 383.94 252.18 386.54 256.98 386.54 256.98 383.94 253.58 383.94"
     transform="matrix(2.7669 0 0 2.6334 -447.54 -602.63)" />
  <rect
     id="rect172"
     stroke-width="1.8807"
     fill-rule="evenodd"
     fill="#999"
     ry=".010884"
     rx=".04729"
     height=".35355"
     width="5.8203"
     y="414.65"
     x="253.96" />
  <rect
     id="rect174"
     stroke-width=".25728"
     stroke="#7f7f7f"
     height="7.5532"
     width="13.946"
     y="408.1"
     x="178.55" />
  <polygon
     id="polygon176"
     stroke-width=".023002"
     stroke="#7f7f7f"
     fill="none"
     points="256.98 386.54 256.98 383.94 253.58 383.94 252.18 383.94 252.18 386.54"
     transform="matrix(2.7669 0 0 2.6334 -518.88 -602.63)" />
  <rect
     id="rect178"
     stroke-width="1.8807"
     fill-rule="evenodd"
     fill="#999"
     ry=".010884"
     rx=".04729"
     height=".35355"
     width="5.8203"
     y="414.65"
     x="182.62" />
  <rect
     id="rect180"
     stroke-width=".25728"
     stroke="#7f7f7f"
     height="7.5532"
     width="13.946"
     y="408.1"
     x="192.81" />
  <polygon
     id="polygon182"
     stroke-width=".023002"
     stroke="#7f7f7f"
     fill="none"
     points="252.18 386.54 256.98 386.54 256.98 383.94 253.58 383.94 252.18 383.94"
     transform="matrix(2.7669 0 0 2.6334 -504.62 -602.63)" />
  <rect
     id="rect184"
     stroke-width="1.8807"
     fill-rule="evenodd"
     fill="#999"
     ry=".010884"
     rx=".04729"
     height=".35355"
     width="5.8203"
     y="414.65"
     x="196.89" />
  <rect
     id="rect186"
     stroke-width=".25728"
     stroke="#7f7f7f"
     height="7.5532"
     width="13.946"
     y="408.1"
     x="207.08" />
  <polygon
     id="polygon188"
     stroke-width=".023002"
     stroke="#7f7f7f"
     fill="none"
     points="252.18 386.54 256.98 386.54 256.98 383.94 253.58 383.94 252.18 383.94"
     transform="matrix(2.7669 0 0 2.6334 -490.35 -602.63)" />
  <rect
     id="rect190"
     stroke-width="1.8807"
     fill-rule="evenodd"
     fill="#999"
     ry=".010884"
     rx=".04729"
     height=".35355"
     width="5.8203"
     y="414.65"
     x="211.16" />
  <rect
     id="rect192"
     stroke-width=".25728"
     stroke="#7f7f7f"
     height="7.5532"
     width="13.946"
     y="408.1"
     x="221.35" />
  <polygon
     id="polygon194"
     stroke-width=".023002"
     stroke="#7f7f7f"
     fill="none"
     points="252.18 386.54 256.98 386.54 256.98 383.94 253.58 383.94 252.18 383.94"
     transform="matrix(2.7669 0 0 2.6334 -476.08 -602.63)" />
  <rect
     id="rect196"
     stroke-width="1.8807"
     fill-rule="evenodd"
     fill="#999"
     ry=".010884"
     rx=".04729"
     height=".35355"
     width="5.8203"
     y="414.65"
     x="225.43" />
  <rect
     id="rect198"
     stroke-width=".25728"
     stroke="#7f7f7f"
     height="7.5532"
     width="13.946"
     y="408.1"
     x="235.62" />
  <polygon
     id="polygon200"
     stroke-width=".023002"
     stroke="#7f7f7f"
     fill="none"
     points="252.18 386.54 256.98 386.54 256.98 383.94 253.58 383.94 252.18 383.94"
     transform="matrix(2.7669 0 0 2.6334 -461.81 -602.63)" />
  <rect
     id="rect202"
     stroke-width="1.8807"
     fill-rule="evenodd"
     fill="#999"
     ry=".010884"
     rx=".04729"
     height=".35355"
     width="5.8203"
     y="414.65"
     x="239.69" />
  <rect
     id="rect204"
     stroke-width=".25728"
     stroke="#7f7f7f"
     height="7.5532"
     width="13.946"
     y="-431.49"
     x="-192.33"
     transform="scale(-1)" />
  <polygon
     id="polygon206"
     stroke-width=".023002"
     stroke="#7f7f7f"
     fill="none"
     points="256.98 386.54 256.98 383.94 253.58 383.94 252.18 383.94 252.18 386.54"
     transform="matrix(-2.7669 0 0 -2.6334 889.76 1442.2)" />
  <rect
     id="rect208"
     stroke-width="1.8807"
     fill-rule="evenodd"
     fill="#999"
     ry=".010884"
     rx=".04729"
     height=".35355"
     width="5.8203"
     y="-424.94"
     x="-188.25"
     transform="scale(-1)" />
  <rect
     id="rect210"
     stroke-width=".25728"
     stroke="#7f7f7f"
     height="7.5532"
     width="13.946"
     y="-431.49"
     x="-263.67"
     transform="scale(-1)" />
  <polygon
     id="polygon212"
     stroke-width=".023002"
     stroke="#7f7f7f"
     fill="none"
     points="253.58 383.94 252.18 383.94 252.18 386.54 256.98 386.54 256.98 383.94"
     transform="matrix(-2.7669 0 0 -2.6334 961.1 1442.2)" />
  <rect
     id="rect214"
     stroke-width="1.8807"
     fill-rule="evenodd"
     fill="#999"
     ry=".010884"
     rx=".04729"
     height=".35355"
     width="5.8203"
     y="-424.94"
     x="-259.59"
     transform="scale(-1)" />
  <rect
     id="rect216"
     stroke-width=".25728"
     stroke="#7f7f7f"
     height="7.5532"
     width="13.946"
     y="-431.49"
     x="-249.4"
     transform="scale(-1)" />
  <polygon
     id="polygon218"
     stroke-width=".023002"
     stroke="#7f7f7f"
     fill="none"
     points="256.98 383.94 253.58 383.94 252.18 383.94 252.18 386.54 256.98 386.54"
     transform="matrix(-2.7669 0 0 -2.6334 946.83 1442.2)" />
  <rect
     id="rect220"
     stroke-width="1.8807"
     fill-rule="evenodd"
     fill="#999"
     ry=".010884"
     rx=".04729"
     height=".35355"
     width="5.8203"
     y="-424.94"
     x="-245.32"
     transform="scale(-1)" />
  <rect
     id="rect222"
     stroke-width=".25728"
     stroke="#7f7f7f"
     height="7.5532"
     width="13.946"
     y="-431.49"
     x="-235.13"
     transform="scale(-1)" />
  <polygon
     id="polygon224"
     stroke-width=".023002"
     stroke="#7f7f7f"
     fill="none"
     points="256.98 383.94 253.58 383.94 252.18 383.94 252.18 386.54 256.98 386.54"
     transform="matrix(-2.7669 0 0 -2.6334 932.56 1442.2)" />
  <rect
     id="rect226"
     stroke-width="1.8807"
     fill-rule="evenodd"
     fill="#999"
     ry=".010884"
     rx=".04729"
     height=".35355"
     width="5.8203"
     y="-424.94"
     x="-231.06"
     transform="scale(-1)" />
  <rect
     id="rect228"
     stroke-width=".25728"
     stroke="#7f7f7f"
     height="7.5532"
     width="13.946"
     y="-431.49"
     x="-220.86"
     transform="scale(-1)" />
  <polygon
     id="polygon230"
     stroke-width=".023002"
     stroke="#7f7f7f"
     fill="none"
     points="256.98 383.94 253.58 383.94 252.18 383.94 252.18 386.54 256.98 386.54"
     transform="matrix(-2.7669 0 0 -2.6334 918.29 1442.2)" />
  <rect
     id="rect232"
     stroke-width="1.8807"
     fill-rule="evenodd"
     fill="#999"
     ry=".010884"
     rx=".04729"
     height=".35355"
     width="5.8203"
     y="-424.94"
     x="-216.79"
     transform="scale(-1)" />
  <rect
     id="rect234"
     stroke-width=".25728"
     stroke="#7f7f7f"
     height="7.5532"
     width="13.946"
     y="-431.49"
     x="-206.6"
     transform="scale(-1)" />
  <polygon
     id="polygon236"
     stroke-width=".023002"
     stroke="#7f7f7f"
     fill="none"
     points="256.98 383.94 253.58 383.94 252.18 383.94 252.18 386.54 256.98 386.54"
     transform="matrix(-2.7669 0 0 -2.6334 904.03 1442.2)" />
  <rect
     id="rect238"
     stroke-width="1.8807"
     fill-rule="evenodd"
     fill="#999"
     ry=".010884"
     rx=".04729"
     height=".35355"
     width="5.8203"
     y="-424.94"
     x="-202.52"
     transform="scale(-1)" />
  <rect
     id="rect240"
     stroke-width=".25728"
     stroke="#7f7f7f"
     height="7.5532"
     width="13.946"
     y="408.07"
     x="157.6" />
  <polygon
     id="polygon242"
     stroke-width=".023002"
     stroke="#7f7f7f"
     fill="none"
     points="256.98 383.94 253.58 383.94 252.18 383.94 252.18 386.54 256.98 386.54"
     transform="matrix(2.7669 0 0 2.6334 -539.83 -602.67)" />
  <rect
     id="rect244"
     stroke-width="1.8807"
     fill-rule="evenodd"
     fill="#999"
     ry=".010884"
     rx=".04729"
     height=".35355"
     width="5.8203"
     y="414.62"
     x="161.68" />
  <rect
     id="rect246"
     stroke-width=".25728"
     stroke="#7f7f7f"
     height="7.5532"
     width="13.946"
     y="408.07"
     x="86.263" />
  <polygon
     id="polygon248"
     stroke-width=".023002"
     stroke="#7f7f7f"
     fill="none"
     points="252.18 383.94 252.18 386.54 256.98 386.54 256.98 383.94 253.58 383.94"
     transform="matrix(2.7669 0 0 2.6334 -611.17 -602.67)" />
  <rect
     id="rect250"
     stroke-width="1.8807"
     fill-rule="evenodd"
     fill="#999"
     ry=".010884"
     rx=".04729"
     height=".35355"
     width="5.8203"
     y="414.62"
     x="90.338" />
  <rect
     id="rect252"
     stroke-width=".25728"
     stroke="#7f7f7f"
     height="7.5532"
     width="13.946"
     y="408.07"
     x="100.53" />
  <polygon
     id="polygon254"
     stroke-width=".023002"
     stroke="#7f7f7f"
     fill="none"
     points="253.58 383.94 252.18 383.94 252.18 386.54 256.98 386.54 256.98 383.94"
     transform="matrix(2.7669 0 0 2.6334 -596.9 -602.67)" />
  <rect
     id="rect256"
     stroke-width="1.8807"
     fill-rule="evenodd"
     fill="#999"
     ry=".010884"
     rx=".04729"
     height=".35355"
     width="5.8203"
     y="414.62"
     x="104.61" />
  <rect
     id="rect258"
     stroke-width=".25728"
     stroke="#7f7f7f"
     height="7.5532"
     width="13.946"
     y="408.07"
     x="114.8" />
  <polygon
     id="polygon260"
     stroke-width=".023002"
     stroke="#7f7f7f"
     fill="none"
     points="253.58 383.94 252.18 383.94 252.18 386.54 256.98 386.54 256.98 383.94"
     transform="matrix(2.7669 0 0 2.6334 -582.63 -602.67)" />
  <rect
     id="rect262"
     stroke-width="1.8807"
     fill-rule="evenodd"
     fill="#999"
     ry=".010884"
     rx=".04729"
     height=".35355"
     width="5.8203"
     y="414.62"
     x="118.87" />
  <rect
     id="rect264"
     stroke-width=".25728"
     stroke="#7f7f7f"
     height="7.5532"
     width="13.946"
     y="408.07"
     x="129.07" />
  <polygon
     id="polygon266"
     stroke-width=".023002"
     stroke="#7f7f7f"
     fill="none"
     points="253.58 383.94 252.18 383.94 252.18 386.54 256.98 386.54 256.98 383.94"
     transform="matrix(2.7669 0 0 2.6334 -568.36 -602.67)" />
  <rect
     id="rect268"
     stroke-width="1.8807"
     fill-rule="evenodd"
     fill="#999"
     ry=".010884"
     rx=".04729"
     height=".35355"
     width="5.8203"
     y="414.62"
     x="133.14" />
  <rect
     id="rect270"
     stroke-width=".25728"
     stroke="#7f7f7f"
     height="7.5532"
     width="13.946"
     y="408.07"
     x="143.33" />
  <polygon
     id="polygon272"
     stroke-width=".023002"
     stroke="#7f7f7f"
     fill="none"
     points="253.58 383.94 252.18 383.94 252.18 386.54 256.98 386.54 256.98 383.94"
     transform="matrix(2.7669 0 0 2.6334 -554.1 -602.67)" />
  <rect
     id="rect274"
     stroke-width="1.8807"
     fill-rule="evenodd"
     fill="#999"
     ry=".010884"
     rx=".04729"
     height=".35355"
     width="5.8203"
     y="414.62"
     x="147.41" />
  <rect
     id="rect276"
     stroke-width=".25728"
     stroke="#7f7f7f"
     height="7.5532"
     width="13.946"
     y="-431.45"
     x="-100.04"
     transform="scale(-1)" />
  <polygon
     id="polygon278"
     stroke-width=".023002"
     stroke="#7f7f7f"
     fill="none"
     points="252.18 383.94 252.18 386.54 256.98 386.54 256.98 383.94 253.58 383.94"
     transform="matrix(-2.7669 0 0 -2.6334 797.47 1442.2)" />
  <rect
     id="rect280"
     stroke-width="1.8807"
     fill-rule="evenodd"
     fill="#999"
     ry=".010884"
     rx=".04729"
     height=".35355"
     width="5.8203"
     y="-424.91"
     x="-95.969"
     transform="scale(-1)" />
  <rect
     id="rect282"
     stroke-width=".25728"
     stroke="#7f7f7f"
     height="7.5532"
     width="13.946"
     y="-431.45"
     x="-171.38"
     transform="scale(-1)" />
  <polygon
     id="polygon284"
     stroke-width=".023002"
     stroke="#7f7f7f"
     fill="none"
     points="256.98 386.54 256.98 383.94 253.58 383.94 252.18 383.94 252.18 386.54"
     transform="matrix(-2.7669 0 0 -2.6334 868.81 1442.2)" />
  <rect
     id="rect286"
     stroke-width="1.8807"
     fill-rule="evenodd"
     fill="#999"
     ry=".010884"
     rx=".04729"
     height=".35355"
     width="5.8203"
     y="-424.91"
     x="-167.31"
     transform="scale(-1)" />
  <rect
     id="rect288"
     stroke-width=".25728"
     stroke="#7f7f7f"
     height="7.5532"
     width="13.946"
     y="-431.45"
     x="-157.12"
     transform="scale(-1)" />
  <polygon
     id="polygon290"
     stroke-width=".023002"
     stroke="#7f7f7f"
     fill="none"
     points="252.18 386.54 256.98 386.54 256.98 383.94 253.58 383.94 252.18 383.94"
     transform="matrix(-2.7669 0 0 -2.6334 854.55 1442.2)" />
  <rect
     id="rect292"
     stroke-width="1.8807"
     fill-rule="evenodd"
     fill="#999"
     ry=".010884"
     rx=".04729"
     height=".35355"
     width="5.8203"
     y="-424.91"
     x="-153.04"
     transform="scale(-1)" />
  <rect
     id="rect294"
     stroke-width=".25728"
     stroke="#7f7f7f"
     height="7.5532"
     width="13.946"
     y="-431.45"
     x="-142.85"
     transform="scale(-1)" />
  <polygon
     id="polygon296"
     stroke-width=".023002"
     stroke="#7f7f7f"
     fill="none"
     points="252.18 386.54 256.98 386.54 256.98 383.94 253.58 383.94 252.18 383.94"
     transform="matrix(-2.7669 0 0 -2.6334 840.28 1442.2)" />
  <rect
     id="rect298"
     stroke-width="1.8807"
     fill-rule="evenodd"
     fill="#999"
     ry=".010884"
     rx=".04729"
     height=".35355"
     width="5.8203"
     y="-424.91"
     x="-138.77"
     transform="scale(-1)" />
  <rect
     id="rect300"
     stroke-width=".25728"
     stroke="#7f7f7f"
     height="7.5532"
     width="13.946"
     y="-431.45"
     x="-128.58"
     transform="scale(-1)" />
  <polygon
     id="polygon302"
     stroke-width=".023002"
     stroke="#7f7f7f"
     fill="none"
     points="252.18 386.54 256.98 386.54 256.98 383.94 253.58 383.94 252.18 383.94"
     transform="matrix(-2.7669 0 0 -2.6334 826.01 1442.2)" />
  <rect
     id="rect304"
     stroke-width="1.8807"
     fill-rule="evenodd"
     fill="#999"
     ry=".010884"
     rx=".04729"
     height=".35355"
     width="5.8203"
     y="-424.91"
     x="-124.5"
     transform="scale(-1)" />
  <rect
     id="rect306"
     stroke-width=".25728"
     stroke="#7f7f7f"
     height="7.5532"
     width="13.946"
     y="-431.45"
     x="-114.31"
     transform="scale(-1)" />
  <polygon
     id="polygon308"
     stroke-width=".023002"
     stroke="#7f7f7f"
     fill="none"
     points="252.18 386.54 256.98 386.54 256.98 383.94 253.58 383.94 252.18 383.94"
     transform="matrix(-2.7669 0 0 -2.6334 811.74 1442.2)" />
  <rect
     id="rect310"
     stroke-width="1.8807"
     fill-rule="evenodd"
     fill="#999"
     ry=".010884"
     rx=".04729"
     height=".35355"
     width="5.8203"
     y="-424.91"
     x="-110.24"
     transform="scale(-1)" />
  <g
     id="g408"
     stroke-linejoin="round"
     stroke="#2d5016"
     fill-rule="evenodd"
     fill="#008000">
    <path
       id="path312"
       stroke-width=".44698"
       d="m260.72 421.26 1.0849-2.9714 1.0849 2.9714z" />
    <path
       id="path314"
       stroke-width=".447"
       d="m260.98 418.32-1.0849 2.9714-1.0849-2.9714z" />
    <path
       id="path316"
       stroke-width=".44698"
       d="m254.88 418.31-1.0849 2.9714-1.0849-2.9714z" />
    <path
       id="path318"
       stroke-width=".447"
       d="m250.81 421.24 1.0849-2.9714 1.0849 2.9714z" />
    <path
       id="path320"
       stroke-width=".44698"
       d="m189.38 421.26 1.0849-2.9714 1.0849 2.9714z" />
    <path
       id="path322"
       stroke-width=".447"
       d="m189.64 418.32-1.0849 2.9714-1.0849-2.9714z" />
    <path
       id="path324"
       stroke-width=".44698"
       d="m183.54 418.31-1.0849 2.9714-1.0849-2.9714z" />
    <path
       id="path326"
       stroke-width=".447"
       d="m179.47 421.24 1.0849-2.9714 1.0849 2.9714z" />
    <path
       id="path328"
       stroke-width=".44698"
       d="m203.64 421.26 1.0849-2.9714 1.0849 2.9714z" />
    <path
       id="path330"
       stroke-width=".447"
       d="m203.91 418.32-1.0849 2.9714-1.0849-2.9714z" />
    <path
       id="path332"
       stroke-width=".44698"
       d="m197.81 418.31-1.0849 2.9714-1.0849-2.9714z" />
    <path
       id="path334"
       stroke-width=".447"
       d="m193.74 421.24 1.0849-2.9714 1.0849 2.9714z" />
    <path
       id="path336"
       stroke-width=".44698"
       d="m217.91 421.26 1.0849-2.9714 1.0849 2.9714z" />
    <path
       id="path338"
       stroke-width=".447"
       d="m218.18 418.32-1.0849 2.9714-1.0849-2.9714z" />
    <path
       id="path340"
       stroke-width=".44698"
       d="m212.08 418.31-1.0849 2.9714-1.0849-2.9714z" />
    <path
       id="path342"
       stroke-width=".447"
       d="m208.01 421.24 1.0849-2.9714 1.0849 2.9714z" />
    <path
       id="path344"
       stroke-width=".44698"
       d="m232.18 421.26 1.0849-2.9714 1.0849 2.9714z" />
    <path
       id="path346"
       stroke-width=".447"
       d="m232.44 418.32-1.0849 2.9714-1.0849-2.9714z" />
    <path
       id="path348"
       stroke-width=".44698"
       d="m226.34 418.31-1.0849 2.9714-1.0849-2.9714z" />
    <path
       id="path350"
       stroke-width=".447"
       d="m222.27 421.24 1.0849-2.9714 1.0849 2.9714z" />
    <path
       id="path352"
       stroke-width=".44698"
       d="m246.45 421.26 1.0849-2.9714 1.0849 2.9714z" />
    <path
       id="path354"
       stroke-width=".447"
       d="m246.71 418.32-1.0849 2.9714-1.0849-2.9714z" />
    <path
       id="path356"
       stroke-width=".44698"
       d="m240.61 418.31-1.0849 2.9714-1.0849-2.9714z" />
    <path
       id="path358"
       stroke-width=".447"
       d="m236.54 421.24 1.0849-2.9714 1.0849 2.9714z" />
    <path
       id="path360"
       stroke-width=".44698"
       d="m168.36 421.24 1.0849-2.9714 1.0849 2.9714z" />
    <path
       id="path362"
       stroke-width=".447"
       d="m168.62 418.3-1.0849 2.9714-1.0849-2.9714z" />
    <path
       id="path364"
       stroke-width=".44698"
       d="m162.52 418.29-1.0849 2.9714-1.0849-2.9714z" />
    <path
       id="path366"
       stroke-width=".447"
       d="m158.46 421.22 1.0849-2.9714 1.0849 2.9714z" />
    <path
       id="path368"
       stroke-width=".44698"
       d="m97.021 421.24 1.0849-2.9714 1.0849 2.9714z" />
    <path
       id="path370"
       stroke-width=".447"
       d="m97.284 418.3-1.0849 2.9714-1.0849-2.9714z" />
    <path
       id="path372"
       stroke-width=".44698"
       d="m91.185 418.29-1.0849 2.9714-1.0849-2.9714z" />
    <path
       id="path374"
       stroke-width=".447"
       d="m87.115 421.22 1.0849-2.9714 1.0849 2.9714z" />
    <path
       id="path376"
       stroke-width=".44698"
       d="m111.29 421.24 1.0849-2.9714 1.0849 2.9714z" />
    <path
       id="path378"
       stroke-width=".447"
       d="m111.55 418.3-1.0849 2.9714-1.0849-2.9714z" />
    <path
       id="path380"
       stroke-width=".44698"
       d="m105.45 418.29-1.0849 2.9714-1.0849-2.9714z" />
    <path
       id="path382"
       stroke-width=".447"
       d="m101.38 421.22 1.0849-2.9714 1.0849 2.9714z" />
    <path
       id="path384"
       stroke-width=".44698"
       d="m125.56 421.24 1.0849-2.9714 1.0849 2.9714z" />
    <path
       id="path386"
       stroke-width=".447"
       d="m125.82 418.3-1.0849 2.9714-1.0849-2.9714z" />
    <path
       id="path388"
       stroke-width=".44698"
       d="m119.72 418.29-1.0849 2.9714-1.0849-2.9714z" />
    <path
       id="path390"
       stroke-width=".447"
       d="m115.65 421.22 1.0849-2.9714 1.0849 2.9714z" />
    <path
       id="path392"
       stroke-width=".44698"
       d="m139.83 421.24 1.0849-2.9714 1.0849 2.9714z" />
    <path
       id="path394"
       stroke-width=".447"
       d="m140.09 418.3-1.0849 2.9714-1.0849-2.9714z" />
    <path
       id="path396"
       stroke-width=".44698"
       d="m133.99 418.29-1.0849 2.9714-1.0849-2.9714z" />
    <path
       id="path398"
       stroke-width=".447"
       d="m129.92 421.22 1.0849-2.9714 1.0849 2.9714z" />
    <path
       id="path400"
       stroke-width=".44698"
       d="m154.09 421.24 1.0849-2.9714 1.0849 2.9714z" />
    <path
       id="path402"
       stroke-width=".447"
       d="m154.36 418.3-1.0849 2.9714-1.0849-2.9714z" />
    <path
       id="path404"
       stroke-width=".44698"
       d="m148.26 418.29-1.0849 2.9714-1.0849-2.9714z" />
    <path
       id="path406"
       stroke-width=".447"
       d="m144.19 421.22 1.0849-2.9714 1.0849 2.9714z" />
  </g>
</svg>
