<svg width="172.2" height="272.09" version="1.1" viewBox="70.4 401.066666667 91.4552672 88.3092309333" xmlns="http://www.w3.org/2000/svg">
 <g transform="matrix(1.0667 0 0 1.0667 -339.9 96.1)">
  <path d="m384.92 312.75 2.921-3.1865h79.101l3.1865 3.1865 7e-5 79.101-3.1865 2.921-78.835-2e-5 -3.1866-2.921z" fill="#fffdf4" stroke="#000" stroke-linejoin="round" stroke-width=".53109"/>
  <rect x="393.94" y="309.82" width="67.167" height="84.634" rx=".73837" ry=".79889" fill="#d5d2c6"/>
  <g>
   <path d="m389.22 315.45c-0.43609 0-0.7873 0.44595-0.7873 0.99995v2.1327a1.7164 1.7164 0 0 0 -0.92941 1.5248 1.7164 1.7164 0 0 0 0.92941 1.5238v2.1337c0 0.554 0.35121 0.99995 0.7873 0.99995s0.78731-0.44595 0.78731-0.99995v-2.1327a1.7164 1.7164 0 0 0 0.92837 -1.5248 1.7164 1.7164 0 0 0 -0.92837 -1.5227v-2.1347c0-0.554-0.35122-0.99995-0.78731-0.99995z"/>
   <circle cx="389.22" cy="350.81" r="1.361"/>
   <circle cx="389.22" cy="386.73" r="1.361"/>
  </g>
  <g transform="translate(75.961)">
   <path d="m389.22 315.45c-0.43609 0-0.7873 0.44595-0.7873 0.99995v2.1327a1.7164 1.7164 0 0 0 -0.92941 1.5248 1.7164 1.7164 0 0 0 0.92941 1.5238v2.1337c0 0.554 0.35121 0.99995 0.7873 0.99995s0.78731-0.44595 0.78731-0.99995v-2.1327a1.7164 1.7164 0 0 0 0.92837 -1.5248 1.7164 1.7164 0 0 0 -0.92837 -1.5227v-2.1347c0-0.554-0.35122-0.99995-0.78731-0.99995z"/>
   <circle cx="389.22" cy="350.81" r="1.361"/>
   <circle cx="389.22" cy="386.73" r="1.361"/>
  </g>
  <g>
   <rect x="398.5" y="309.81" width="58.042" height="84.663" rx=".63805" ry=".79916" fill="#fffdf4"/>
   <rect x="406.22" y="309.78" width="42.614" height="84.709" rx=".55951" ry=".73474" fill="#d5d2c6"/>
   <rect x="407.38" y="309.81" width="40.292" height="84.663" rx=".61377" ry=".79916" fill="#fffdf4"/>
   <path d="m416.9 328.8v13.277h10.622v-1e-3c-0.0661 0-0.13168-1e-3 -0.19708-3e-3l1.3568-3.728h1.8671c0.32771 0 0.68661-0.25223 0.79871-0.56013l1.473-4.0423c0.24084-0.66193-0.13906-1.2043-0.84331-1.2043h-2.5901l-2.1731 5.9727h-1e-3l-1.2323 3.3857c-2.9232-0.69496-5.0972-3.3235-5.0972-6.4592 0-3.0453 2.0505-5.6107 4.8462-6.3928l-1.2707 3.4936h-1e-3l-2.113 5.8067h1.4066l1.7976-4.9344h1.057l-1.7976 4.9344h1.4066l1.6752-4.6024c0.24084-0.66194-0.13852-1.2043-0.84228-1.2043h-1.1825l1.3578-3.7322c0.099-6e-3 0.19879-6e-3 0.29874-6e-3h-10.622zm10.622 0c3.6664 0 6.6386 2.9722 6.6386 6.6386 0 3.6663-2.9722 6.6386-6.6386 6.6386h10.622v-13.277h-10.622zm2.9594 4.6076h1.057l-1.4802 4.062h-1.057l1.4802-4.062z" fill="#ccc"/>
  </g>
  <g transform="translate(.92941)">
   <g transform="matrix(1.9909 0 0 1.9909 -520.63 85.357)">
    <rect x="461.3" y="111.8" width="3.2" height=".6" fill="#ffa500"/>
    <rect x="461.3" y="111.8" width="3.2" height=".6" fill="none" stroke="#ffa500" stroke-width=".2"/>
    <rect x="461.9" y="110.8" width="2" height="1" fill="#ffa500"/>
    <rect x="461.9" y="110.8" width="2" height="1" fill="none" stroke="#ffa500" stroke-width=".2"/>
   </g>
   <g>
    <rect x="397.61" y="302.7" width="6.7346" height="4.3512" rx=".39214" ry=".42428" fill="#b3b3b3"/>
    <path d="m400.24 259.56h1.0762c1.1127 0 1.1711 1.1156 1.1728 1.1818l1.0622 41.806c2e-3 0.0663-0.0493 0.11967-0.11061 0.11967h-5.3249c-0.0613 0-0.11229-0.0534-0.11061-0.11967l1.0622-41.806c2e-3 -0.0663 0.0729-1.1818 1.1728-1.1818z" fill="#e6e6e6"/>
    <path d="m403.28 292.1 0.26555 10.451c2e-3 0.0663-0.0493 0.11967-0.11061 0.11967h-5.3249c-0.0613 0-0.11229-0.0534-0.11061-0.11967l0.26554-10.451" fill="#f2f2f2"/>
   </g>
  </g>
  <g transform="translate(-6.733 -31.491)">
   <g transform="matrix(1.9909 0 0 1.9909 -462.59 116.85)">
    <rect x="461.3" y="111.8" width="3.2" height=".6" fill="#ffa500"/>
    <rect x="461.3" y="111.8" width="3.2" height=".6" fill="none" stroke="#ffa500" stroke-width=".2"/>
    <rect x="461.9" y="110.8" width="2" height="1" fill="#ffa500"/>
    <rect x="461.9" y="110.8" width="2" height="1" fill="none" stroke="#ffa500" stroke-width=".2"/>
   </g>
   <g>
    <rect x="455.65" y="334.19" width="6.7346" height="4.3512" rx=".39214" ry=".42428" fill="#b3b3b3"/>
    <path d="m458.27 291.05h1.0762c1.1127 0 1.1711 1.1156 1.1728 1.1818l1.0622 41.806c2e-3 0.0663-0.0493 0.11967-0.11061 0.11967h-5.3249c-0.0613 0-0.11229-0.0534-0.11061-0.11967l1.0622-41.806c2e-3 -0.0663 0.0729-1.1818 1.1728-1.1818z" fill="#e6e6e6"/>
    <path d="m461.32 323.59 0.26555 10.451c2e-3 0.0663-0.0493 0.11967-0.11061 0.11967h-5.3249c-0.0613 0-0.11229-0.0534-0.11061-0.11967l0.26554-10.451" fill="#f2f2f2"/>
   </g>
  </g>
  <g fill-rule="evenodd" stroke="#000" stroke-width=".23669">
   <path d="m426.64 313.59h3.5152v-0.20476h-3.5152v0.20476z"/>
   <path d="m428.24 313.83h0.13667v-0.23885h-0.13667v0.23885z"/>
   <path d="m429.71 313.39h0.13667v-0.23919h-0.13667v0.23919z"/>
   <path d="m426.95 313.39h0.13667v-0.23919h-0.13667v0.23919z"/>
  </g>
  <g fill="none" stroke="#000">
   <g stroke-width=".23669">
    <path d="m427.56 315.37h1.5016v-1.4678h-1.5016v1.4678"/>
    <path d="m429.03 313.08h1.4675v-1.4682h-1.4675v1.4682"/>
    <path d="m426.26 313.08h1.4675v-1.4682h-1.4675v1.4682"/>
   </g>
   <path d="m410.91 313.57c-0.0232 0.13649-0.11996 0.51113-0.26214 0.61644-0.14218 0.10532-0.32238 0.13982-0.54948 0.17101-0.22711 0.0312-0.84834 0.0228-1.0716 0-0.22322-0.0229-0.38761-0.0135-0.54712-0.10761-0.15951-0.0941-0.50095-0.35452-0.53354-0.49364-0.0326-0.13911 0.0271-0.33997 0.14205-0.46776 0.11494-0.12778 0.25508-0.33857 0.43763-0.42841 0.18254-0.0899 0.72822-0.26598 0.94304-0.26451 0.21482 2e-3 0.42351 0.24135 0.59251 0.32512 0.16899 0.0838 0.65222-1e-3 0.7749 0.11132 0.12267 0.11279 0.0969 0.40155 0.0737 0.53804z" stroke-linejoin="round" stroke-width=".20341"/>
  </g>
 </g>
</svg>
