<svg width="443" height="44.5" version="1.1" viewBox="66 376 443 44.5" xmlns="http://www.w3.org/2000/svg"><g transform="matrix(2.1463 0 0 1.9866 -76.489 -371.74)"><rect x="66.589" y="376.59" width="206" height="22" fill="#4d4d4d"/><rect x="66.589" y="376.59" width="206" height="22" fill="none" stroke="#000" stroke-width=".4"/></g><g transform="matrix(2.1463 0 0 1.9866 -76.489 -371.74)"><rect x="76.589" y="376.99" width="195.6" height="21.2" rx=".6" ry=".6" fill="#e7e7e7"/><rect x="76.589" y="376.99" width="195.6" height="21.2" rx=".6" ry=".6" fill="none" stroke="#e7e7e7" stroke-linejoin="round" stroke-width=".2"/></g><text transform="scale(1.0394 .96209)" x="84.544571" y="401.59558" fill="#ffffff" font-family="sans-serif" font-size="4.6619px" font-weight="700" stroke-width="1.8828"><tspan x="84.544571" y="401.59558" stroke-width="1.8828"/></text><text x="91.806732" y="369.47281" fill="#000000" font-family="sans-serif" font-size="40px" letter-spacing="0px" stroke-width="1.8829px" word-spacing="0px" style="line-height:125%" xml:space="preserve"><tspan x="91.806732" y="369.47281" stroke-width="1.8829px"/></text><rect x="305.93" y="394.62" width="7.4217" height="3.7499" rx=".089246" ry=".043547" stroke-width="1.8829"/><g transform="matrix(1.9576 0 0 1.8109 -58.271 -323.33)" aria-label="1"><path d="m187.48 397.9h0.29139v-0.82704l-0.2991 0.0617v-0.22454l0.29739-0.0617h0.31367v1.0516h0.29139v0.22797h-0.89474z" fill="#fff"/></g><rect x="322.9" y="394.62" width="7.4217" height="3.7499" rx=".089246" ry=".043547" stroke-width="1.8829"/><g transform="matrix(1.9576 0 0 1.8109 -58.271 -323.33)" aria-label="2"><path d="m196.49 397.9h0.56307v0.24254h-0.92988v-0.24254l0.46708-0.41223q0.0626-0.0566 0.0926-0.11056 0.03-0.054 0.03-0.11227 0-0.09-0.0608-0.14484-0.06-0.0548-0.16027-0.0548-0.0771 0-0.16883 0.0334-0.0917 0.0326-0.19626 0.0977v-0.28111q0.11141-0.0369 0.22025-0.0557 0.10885-0.0197 0.2134-0.0197 0.22969 0 0.35653 0.10113 0.1277 0.10113 0.1277 0.28197 0 0.10455-0.054 0.1954-0.054 0.09-0.22711 0.24168z" fill="#fff"/></g><path d="m302.5 412.89h14.24v-13.153l-14.24-4.3e-4z" fill="#ebebeb" stroke-width="1.8829"/><g transform="matrix(.015214 0 0 .015072 277.8 467.06)"><path d="m2560.5-3593.3v-872.71l-935.94-0.027v872.74z" fill="none" stroke="#000" stroke-linecap="square" stroke-linejoin="round" stroke-width="13.868"/></g><g stroke-width="1.8829"><path d="m303.09 403.06h3.3129l-6e-3 -2.0058 1.2057-1e-3v-0.75102h3.886l-9.1e-4 0.75298h1.2549v2.006h3.2976v8.6359l-12.95 0.0281z" fill="#1a1a1a"/><path d="m313.03 402.53h3.272v-1.41h-3.272z" fill="#008000"/><path d="m302.79 402.53h3.3007v-1.4173h-3.3007z" fill="#008000"/><path d="m319.49 412.89h14.24v-13.153l-14.24-4.3e-4z" fill="#3a3a3a"/></g><g transform="matrix(.015214 0 0 .015072 294.77 467.06)" fill="#ebebeb"><path d="m2560.5-3593.3v-872.71l-935.94-0.027v872.74z" fill="#ebebeb" stroke="#000" stroke-linecap="square" stroke-linejoin="round" stroke-width="13.868"/></g><g stroke-width="1.8829"><path d="m320.05 403.06h3.3129l-6e-3 -2.0058 1.2056-1e-3v-0.75102h3.886l-9.1e-4 0.75298h1.2549v2.006h3.2976v8.6359l-12.95 0.0281z" fill="#1a1a1a"/><path d="m329.99 402.53h3.272v-1.41h-3.272z" fill="#008000"/><path d="m319.75 402.53h3.3007v-1.4173h-3.3007z" fill="#008000"/></g><g transform="matrix(2.8757 0 0 2.8757 -198.42 -702.8)"><rect x="131.12" y="381.31" width="2.2975" height="2.2975" rx=".20795" ry=".13681" fill="#666"/><path d="m131.57 382.54c0.17605 0.0539 0.39267 0.32164 0.4813 0.4896 0.24028-0.63193 0.42522-0.86358 0.87962-1.2696" fill="none" stroke="#fff" stroke-width=".15933"/></g><g transform="matrix(1.8829 0 0 1.8829 -67.015 -323.55)"><rect x="124.98" y="386.26" width="3.509" height="3.509" rx=".3176" ry=".20895" fill="#666"/><g fill="#fff" stroke-width="1px" aria-label="x"><path d="m127.76 386.9-0.80204 1.0793 0.84363 1.1387h-0.42974l-0.64559-0.87135-0.6456 0.87135h-0.42973l0.86145-1.1605-0.78818-1.0575h0.42974l0.58816 0.79016 0.58816-0.79016z"/></g></g><g transform="matrix(0 1.8829 -1.8829 0 899.73 146.46)"><rect x="131.35" y="374.38" width="3.5088" height="3.9269" rx=".31758" ry=".28522" fill="#666"/><path d="m132.18 377.37 0.93558-1.589 0.90836 1.6048z" fill="#fff" stroke="#fff" stroke-linejoin="round" stroke-width=".53109"/></g><g transform="matrix(0 -1.8829 1.8829 0 -536.61 647.68)"><rect x="131.35" y="374.38" width="3.5088" height="3.9269" rx=".31758" ry=".28522" fill="#666"/><path d="m132.18 377.37 0.93558-1.589 0.90836 1.6048z" fill="#fff" stroke="#fff" stroke-linejoin="round" stroke-width=".53109"/></g><g transform="matrix(1.8829 0 0 1.8829 -68.658 -321.11)"><rect x="131.35" y="374.38" width="3.5088" height="3.9269" rx=".31758" ry=".28522" fill="#666"/><path d="m132.18 377.37 0.93558-1.589 0.90836 1.6048z" fill="#fff" stroke="#fff" stroke-linejoin="round" stroke-width=".53109"/></g><g transform="matrix(-1.8829 0 0 -1.8829 432.55 1115.2)"><rect x="131.35" y="374.38" width="3.5088" height="3.9269" rx=".31758" ry=".28522" fill="#666"/><path d="m132.18 377.37 0.93558-1.589 0.90836 1.6048z" fill="#fff" stroke="#fff" stroke-linejoin="round" stroke-width=".53109"/></g><path d="m76.649 387.49c-0.04065 0-0.08113-7.7e-4 -0.12152-1e-3l0.83578-2.2969h1.1502c0.20188 0 0.42351-0.15515 0.49256-0.34482l0.90677-2.4906c0.14833-0.40778-0.08522-0.74138-0.51912-0.74138h-1.5957l-1.3389 3.6791h-3.82e-4l-0.75902 2.0856c-1.8008-0.42813-3.1402-2.0469-3.1402-3.9787 0-1.876 1.2633-3.4569 2.9855-3.9388l-0.78318 2.1527h-2.15e-4l-1.302 3.5769 0.86674 8e-5 1.1073-3.0393h0.65139l-1.1073 3.0393 0.86642 1.5e-4 1.0318-2.8356c0.14844-0.40777-0.08514-0.74138-0.51865-0.74138h-0.72859l0.83659-2.2994c0.06099-4e-3 0.1222-4e-3 0.1838-4e-3 2.2587 0 4.0896 1.831 4.0896 4.0896 0 2.2587-1.831 4.0896-4.0896 4.0896zm2.4745-5.3404h-0.65123l-0.91196 2.5023h0.65124z" fill="#1a1a1a" stroke-width="1.8829"/><path d="m76.493 387.34c-0.04065 0-0.08113-7.7e-4 -0.12152-1e-3l0.83578-2.2969h1.1502c0.20188 0 0.42351-0.15514 0.49256-0.34482l0.90677-2.4906c0.14833-0.40777-0.08522-0.74138-0.51912-0.74138h-1.5957l-1.3389 3.6791h-3.82e-4l-0.75902 2.0856c-1.8008-0.42813-3.1402-2.0469-3.1402-3.9787 0-1.876 1.2633-3.4569 2.9855-3.9388l-0.78318 2.1527h-2.14e-4l-1.302 3.5769 0.86674 8e-5 1.1073-3.0393h0.6514l-1.1073 3.0393 0.86642 1.5e-4 1.0318-2.8356c0.14844-0.40777-0.08514-0.74138-0.51865-0.74138h-0.72859l0.83659-2.2994c0.06099-4e-3 0.1222-4e-3 0.1838-4e-3 2.2587 0 4.0896 1.831 4.0896 4.0896 0 2.2587-1.831 4.0896-4.0896 4.0896zm2.4745-5.3404h-0.65122l-0.91196 2.5023h0.65124z" fill="#ccc" stroke-width="1.8829"/><g transform="matrix(1.8348 0 0 1.7397 -16.179 -224.52)" stroke="#bfbfbf" stroke-width=".21661"><path d="m63.886 356.35h24.417c0.2216 0 0.4 0.1784 0.4 0.4v9.3526c0 0.2216-0.1784 0.4-0.4 0.4h-24.417c-0.2216 0-0.4-0.1784-0.4-0.4v-9.3526c0-0.2216 0.1784-0.4 0.4-0.4z" fill="#add8e6" stroke="#bfbfbf" stroke-width=".21661"/></g><rect x="88.843" y="377.85" width="26.646" height="15.884" rx=".94143" fill="#1e90ff" stroke="#1e90ff" stroke-linejoin="round" stroke-width=".50014"/><g transform="matrix(1.8829 0 0 1.8829 -58.271 -323.33)" fill="#fff"><g transform="scale(1.0511 .95137)"><path d="m74.952 392.14h0.56075l0.3891 0.91437 0.39138-0.91437h0.55961v1.7086h-0.41656v-1.2497l-0.39367 0.92124h-0.27923l-0.39367-0.92124v1.2497h-0.4177v-1.7086z"/><path d="m78.476 392.2v0.36163q-0.14076-0.0629-0.27466-0.095-0.13389-0.032-0.25291-0.032-0.15793 0-0.23346 0.0435t-0.07553 0.13504q0 0.0687 0.05035 0.10758 0.0515 0.0378 0.18539 0.0652l0.18768 0.0378q0.28496 0.0572 0.40512 0.17395 0.12016 0.11673 0.12016 0.33187 0 0.28267-0.16823 0.42114-0.16708 0.13733-0.51154 0.13733-0.1625 0-0.32615-0.0309t-0.3273-0.0915v-0.37193q0.16365 0.087 0.31585 0.13161 0.15335 0.0435 0.29525 0.0435 0.14419 0 0.22087-0.0481 0.07667-0.0481 0.07667-0.13733 0-0.0801-0.05264-0.12359-0.0515-0.0435-0.20714-0.0778l-0.17052-0.0378q-0.25634-0.0549-0.37536-0.17509-0.11787-0.12016-0.11787-0.32387 0-0.2552 0.16479-0.39252 0.16479-0.13733 0.47378-0.13733 0.14076 0 0.28953 0.0217 0.14877 0.0206 0.30784 0.0629z"/><path d="m78.976 392.14h0.56076l0.3891 0.91437 0.39138-0.91437h0.55961v1.7086h-0.41656v-1.2497l-0.39367 0.92124h-0.27923l-0.39367-0.92124v1.2497h-0.4177v-1.7086z"/><path d="m81.252 392.14h1.2874v0.24833l-0.66604 1.4602h-0.42915l0.63056-1.3847h-0.82282v-0.32386z"/><path d="m83.573 393.01q-0.11558 0-0.17395 0.0755-0.05722 0.0744-0.05722 0.2243 0 0.14992 0.05722 0.22545 0.05836 0.0744 0.17395 0.0744 0.11673 0 0.17395-0.0744 0.05836-0.0755 0.05836-0.22545 0-0.14991-0.05836-0.2243-0.05722-0.0755-0.17395-0.0755zm0.54473-0.82053v0.31585q-0.10872-0.0515-0.20485-0.0755-0.09613-0.0252-0.18768-0.0252-0.19684 0-0.3067 0.10986-0.10986 0.10872-0.12817 0.32386 0.07553-0.0561 0.16365-0.0835 0.08812-0.0286 0.19226-0.0286 0.26207 0 0.42228 0.15335 0.16136 0.15335 0.16136 0.40168 0 0.27466-0.17967 0.4406-0.17967 0.16479-0.48179 0.16479-0.33302 0-0.51612-0.2243-0.18196-0.22545-0.18196-0.63858 0-0.42342 0.21286-0.66489 0.214-0.24261 0.58593-0.24261 0.11787 0 0.22888 0.0183t0.21972 0.0549z"/><path d="m85.432 393q0-0.32043-0.06065-0.45089-0.05951-0.1316-0.20141-0.1316t-0.20256 0.1316q-0.06065 0.13046-0.06065 0.45089 0 0.32387 0.06065 0.45662t0.20256 0.13275q0.14076 0 0.20141-0.13275t0.06065-0.45662zm0.44059 3e-3q0 0.42457-0.1831 0.65574-0.1831 0.23002-0.51956 0.23002-0.3376 0-0.5207-0.23002-0.1831-0.23117-0.1831-0.65574 0-0.42572 0.1831-0.65574 0.1831-0.23117 0.5207-0.23117 0.33645 0 0.51956 0.23117 0.1831 0.23002 0.1831 0.65574z"/></g><g stroke-width="1px"><path d="m78.783 375.34h0.20213l0.31112 1.2504 0.31013-1.2504h0.22492l0.31112 1.2504 0.31013-1.2504h0.20312l-0.37156 1.4793h-0.25167l-0.31211-1.2841-0.31508 1.2841h-0.25167l-0.37057-1.4793z"/><path d="m80.849 375.71h0.18231v1.1097h-0.18231zm0-0.432h0.18231v0.23086h-0.18231z"/><path d="m82.034 375.88q-0.03072-0.0178-0.06738-0.0258-0.03567-9e-3 -0.07927-9e-3 -0.15457 0-0.2378 0.10106-0.08224 0.10008-0.08224 0.28833v0.58459h-0.1833v-1.1097h0.1833v0.1724q0.05747-0.10106 0.14961-0.14962 0.09215-0.0495 0.22393-0.0495 0.01882 0 0.04161 3e-3 0.02279 2e-3 0.05053 7e-3l9.91e-4 0.18727z"/><path d="m83.113 376.22v0.0892h-0.83824q0.01189 0.18826 0.11295 0.28734 0.10206 0.0981 0.28338 0.0981 0.10503 0 0.20312-0.0258 0.09908-0.0258 0.19618-0.0773v0.1724q-0.09809 0.0416-0.20114 0.0634t-0.20906 0.0218q-0.26554 0-0.4211-0.15457-0.15457-0.15457-0.15457-0.41812 0-0.27248 0.14664-0.432 0.14763-0.16052 0.39732-0.16052 0.22393 0 0.35372 0.14466 0.13079 0.14367 0.13079 0.39138zm-0.18231-0.0535q-2e-3 -0.14961-0.08422-0.23878-0.08125-0.0892-0.216-0.0892-0.15259 0-0.24473 0.0862-0.09116 0.0862-0.10503 0.24275l0.64998-9.9e-4z"/><path d="m83.392 375.28h0.18231v1.5417h-0.18231z"/><path d="m84.884 376.22v0.0892h-0.83824q0.01189 0.18826 0.11295 0.28734 0.10205 0.0981 0.28338 0.0981 0.10503 0 0.20312-0.0258 0.09908-0.0258 0.19618-0.0773v0.1724q-0.09809 0.0416-0.20114 0.0634t-0.20906 0.0218q-0.26554 0-0.4211-0.15457-0.15457-0.15457-0.15457-0.41812 0-0.27248 0.14664-0.432 0.14763-0.16052 0.39732-0.16052 0.22393 0 0.35372 0.14466 0.13079 0.14367 0.13079 0.39138zm-0.18231-0.0535q-2e-3 -0.14961-0.08422-0.23878-0.08125-0.0892-0.216-0.0892-0.15259 0-0.24473 0.0862-0.09116 0.0862-0.10503 0.24275l0.64998-9.9e-4z"/><path d="m85.87 375.75v0.17241q-0.07728-0.0396-0.16051-0.0595-0.08323-0.0198-0.1724-0.0198-0.13574 0-0.20411 0.0416-0.06738 0.0416-0.06738 0.12485 0 0.0634 0.04855 0.10007 0.04855 0.0357 0.19519 0.0684l0.06242 0.0139q0.1942 0.0416 0.27545 0.11791 0.08224 0.0753 0.08224 0.21104 0 0.15457-0.12286 0.24474-0.12187 0.0902-0.33589 0.0902-0.08917 0-0.18628-0.0178-0.09611-0.0168-0.20312-0.0515v-0.18825q0.10106 0.0525 0.19916 0.0793 0.09809 0.0258 0.1942 0.0258 0.12881 0 0.19816-0.0436 0.06936-0.0446 0.06936-0.12485 0-0.0743-0.05053-0.11394-0.04954-0.0396-0.21897-0.0763l-0.06341-0.0149q-0.16943-0.0357-0.24473-0.10899-0.0753-0.0743-0.0753-0.20312 0-0.15654 0.11097-0.24176 0.11097-0.0852 0.31508-0.0852 0.10106 0 0.19024 0.0149 0.08917 0.0149 0.16448 0.0446z"/><path d="m86.908 375.75v0.17241q-0.07728-0.0396-0.16051-0.0595-0.08323-0.0198-0.1724-0.0198-0.13574 0-0.20411 0.0416-0.06738 0.0416-0.06738 0.12485 0 0.0634 0.04855 0.10007 0.04855 0.0357 0.19519 0.0684l0.06242 0.0139q0.1942 0.0416 0.27545 0.11791 0.08224 0.0753 0.08224 0.21104 0 0.15457-0.12286 0.24474-0.12187 0.0902-0.33589 0.0902-0.08917 0-0.18628-0.0178-0.09611-0.0168-0.20312-0.0515v-0.18825q0.10106 0.0525 0.19916 0.0793 0.09809 0.0258 0.1942 0.0258 0.12881 0 0.19816-0.0436 0.06936-0.0446 0.06936-0.12485 0-0.0743-0.05053-0.11394-0.04954-0.0396-0.21897-0.0763l-0.06341-0.0149q-0.16943-0.0357-0.24473-0.10899-0.0753-0.0743-0.0753-0.20312 0-0.15654 0.11097-0.24176 0.11097-0.0852 0.31508-0.0852 0.10106 0 0.19024 0.0149 0.08917 0.0149 0.16448 0.0446z"/></g><g stroke-width="1px"><path d="m79.976 377.45v0.21105q-0.10106-0.0941-0.216-0.1407-0.11394-0.0466-0.24275-0.0466-0.25365 0-0.3884 0.15556-0.13475 0.15457-0.13475 0.44785 0 0.2923 0.13475 0.44786 0.13475 0.15456 0.3884 0.15456 0.12881 0 0.24275-0.0466 0.11494-0.0466 0.216-0.1407v0.20906q-0.10503 0.0713-0.22294 0.10701-0.11692 0.0357-0.2477 0.0357-0.33589 0-0.5291-0.2051-0.19321-0.20609-0.19321-0.5618 0-0.35669 0.19321-0.56179 0.19321-0.20609 0.5291-0.20609 0.13277 0 0.24969 0.0357 0.11791 0.0347 0.22095 0.10502z"/><path d="m80.689 377.83q-0.14664 0-0.23185 0.11494-0.08521 0.11394-0.08521 0.3131 0 0.19915 0.08422 0.31409 0.08521 0.11394 0.23284 0.11394 0.14565 0 0.23086-0.11493 0.08521-0.11494 0.08521-0.3131 0-0.19718-0.08521-0.31211-0.08521-0.11593-0.23086-0.11593zm0-0.15457q0.2378 0 0.37354 0.15457t0.13574 0.42804q0 0.27247-0.13574 0.42803-0.13574 0.15457-0.37354 0.15457-0.23879 0-0.37453-0.15457-0.13475-0.15556-0.13475-0.42803 0-0.27347 0.13475-0.42804 0.13574-0.15457 0.37453-0.15457z"/><path d="m82.402 378.14v0.6698h-0.18231v-0.66385q0-0.15754-0.06143-0.23582-0.06143-0.0783-0.18429-0.0783-0.14763 0-0.23284 0.0941t-0.08521 0.25663v0.62719h-0.1833v-1.1097h0.1833v0.1724q0.06539-0.10007 0.15358-0.14961 0.08917-0.0495 0.2051-0.0495 0.19123 0 0.28932 0.1189 0.09809 0.11791 0.09809 0.34778z"/><path d="m82.928 377.39v0.31508h0.37552v0.14168h-0.37552v0.60242q0 0.13575 0.03666 0.17439 0.03765 0.0386 0.1516 0.0386h0.18726v0.15259h-0.18726q-0.21104 0-0.2913-0.0783-0.08026-0.0793-0.08026-0.28734v-0.60242h-0.13376v-0.14168h0.13376v-0.31508h0.1833z"/><path d="m84.167 377.87q-0.03072-0.0178-0.06738-0.0258-0.03567-9e-3 -0.07927-9e-3 -0.15457 0-0.2378 0.10106-0.08224 0.10008-0.08224 0.28833v0.58459h-0.1833v-1.1097h0.1833v0.1724q0.05747-0.10106 0.14961-0.14961 0.09215-0.0495 0.22392-0.0495 0.01883 0 0.04161 3e-3 0.02279 2e-3 0.05053 7e-3l9.91e-4 0.18727z"/><path d="m84.726 377.83q-0.14664 0-0.23185 0.11494-0.08521 0.11394-0.08521 0.3131 0 0.19915 0.08422 0.31409 0.08521 0.11394 0.23284 0.11394 0.14565 0 0.23086-0.11493 0.08521-0.11494 0.08521-0.3131 0-0.19718-0.08521-0.31211-0.08521-0.11593-0.23086-0.11593zm0-0.15457q0.2378 0 0.37354 0.15457t0.13574 0.42804q0 0.27247-0.13574 0.42803-0.13574 0.15457-0.37354 0.15457-0.23879 0-0.37453-0.15457-0.13475-0.15556-0.13475-0.42803 0-0.27347 0.13475-0.42804 0.13574-0.15457 0.37453-0.15457z"/><path d="m85.516 377.27h0.18231v1.5417h-0.18231z"/><path d="m87.008 378.21v0.0892h-0.83824q0.01189 0.18826 0.11295 0.28734 0.10205 0.0981 0.28338 0.0981 0.10503 0 0.20312-0.0258 0.09908-0.0258 0.19618-0.0773v0.1724q-0.09809 0.0416-0.20114 0.0634-0.10304 0.0218-0.20906 0.0218-0.26554 0-0.4211-0.15457-0.15457-0.15457-0.15457-0.41812 0-0.27248 0.14664-0.432 0.14763-0.16052 0.39732-0.16052 0.22393 0 0.35372 0.14466 0.13079 0.14367 0.13079 0.39138zm-0.18231-0.0535q-2e-3 -0.14961-0.08422-0.23878-0.08125-0.0892-0.216-0.0892-0.15259 0-0.24473 0.0862-0.09116 0.0862-0.10503 0.24276l0.64998-1e-3z"/><path d="m87.93 377.87q-0.03072-0.0178-0.06738-0.0258-0.03567-9e-3 -0.07927-9e-3 -0.15457 0-0.2378 0.10106-0.08224 0.10008-0.08224 0.28833v0.58459h-0.1833v-1.1097h0.1833v0.1724q0.05747-0.10106 0.14961-0.14961 0.09215-0.0495 0.22393-0.0495 0.01882 0 0.04161 3e-3 0.02279 2e-3 0.05053 7e-3l9.91e-4 0.18727z"/></g></g><g transform="matrix(1.8829 0 0 1.8829 -82.049 -266.05)"><g transform="matrix(1.5209,0,0,1.6602,-23.452,-295.64)"><polygon points="70.389 396.19 70.389 395.79 69.989 395.79 69.989 395.19 68.589 395.19 68.589 392.59 73.389 392.59 73.389 395.19 71.989 395.19 71.989 395.79 71.589 395.79 71.589 396.19"/><polygon points="70.389 396.19 70.389 395.79 69.989 395.79 69.989 395.19 68.589 395.19 68.589 392.59 73.389 392.59 73.389 395.19 71.989 395.19 71.989 395.79 71.589 395.79 71.589 396.19" fill="none" stroke="#7f7f7f" stroke-width=".2"/></g><rect x="83.152" y="348.89" width="6.1054" height="1.1333" rx=".31642" ry=".1544" fill="#00ff1f"/><rect x="83.197" y="350.94" width="6.1054" height="1.1333" rx=".31642" ry=".1544" fill="#838383"/><ellipse cx="86.226" cy="353.89" rx=".76392" ry=".76344" fill="#838383"/><g fill="#fff" stroke-width="1px"><g transform="translate(12.629,-30.423)"><path d="m67.35 379.57v0.28642h0.12968q0.07199 0 0.1113-0.0373t0.03931-0.1062q0-0.0684-0.03931-0.10568-0.03931-0.0373-0.1113-0.0373h-0.12968zm-0.10313-0.0848h0.23281q0.12815 0 0.1935 0.0582 0.06586 0.0577 0.06586 0.1695 0 0.11284-0.06586 0.17053-0.06535 0.0577-0.1935 0.0577h-0.12968v0.30633h-0.10313v-0.76225z"/><path d="m68.048 379.74q-0.07556 0-0.11947 0.0592-0.04391 0.0587-0.04391 0.16133t0.0434 0.16185q0.04391 0.0587 0.11998 0.0587 0.07505 0 0.11896-0.0592t0.04391-0.16134q0-0.1016-0.04391-0.16082-0.04391-0.0597-0.11896-0.0597zm0-0.0796q0.12253 0 0.19248 0.0796t0.06995 0.22056q0 0.14041-0.06995 0.22056-0.06995 0.0796-0.19248 0.0796-0.12304 0-0.19299-0.0796-0.06944-0.0802-0.06944-0.22056 0-0.14091 0.06944-0.22056 0.06995-0.0796 0.19299-0.0796z"/><path d="m68.401 379.68h0.09394l0.11743 0.44623 0.11692-0.44623h0.11079l0.11743 0.44623 0.11692-0.44623h0.09394l-0.14959 0.57182h-0.11079l-0.12304-0.46868-0.12355 0.46868h-0.11079l-0.14959-0.57182z"/><path d="m69.79 379.94v0.046h-0.43193q0.0061 0.097 0.0582 0.14806 0.05259 0.0505 0.14602 0.0505 0.05412 0 0.10466-0.0133 0.05106-0.0133 0.10109-0.0398v0.0888q-0.05054 0.0215-0.10364 0.0327t-0.10773 0.0112q-0.13683 0-0.21698-0.0796-0.07965-0.0796-0.07965-0.21545 0-0.1404 0.07556-0.2226 0.07607-0.0827 0.20473-0.0827 0.11538 0 0.18227 0.0745 0.06739 0.074 0.06739 0.20167zm-0.09394-0.0276q-1e-3 -0.0771-0.0434-0.12305-0.04187-0.046-0.1113-0.046-0.07863 0-0.12611 0.0444-0.04697 0.0444-0.05412 0.12509l0.33492-5.1e-4z"/><path d="m70.265 379.77q-0.01583-9e-3 -0.03472-0.0133-0.01838-5e-3 -0.04084-5e-3 -0.07965 0-0.12253 0.0521-0.04238 0.0516-0.04238 0.14857v0.30122h-0.09445v-0.57182h0.09445v0.0888q0.02961-0.0521 0.07709-0.0771 0.04748-0.0255 0.11539-0.0255 0.0097 0 0.02144 2e-3 0.01174 1e-3 0.02604 4e-3l5.11e-4 0.0965z"/></g><g transform="translate(12.629,-30.423)"><path d="m67.247 381.56h0.43806v0.0868h-0.33492v0.22464h0.30225v0.0868h-0.30225v0.36403h-0.10313v-0.76226z"/><path d="m67.999 382.03q-0.11385 0-0.15776 0.026t-0.04391 0.0888q0 0.05 0.03268 0.0797 0.03319 0.0291 0.08986 0.0291 0.07811 0 0.12509-0.0551 0.04748-0.0557 0.04748-0.14755v-0.0209h-0.09343zm0.18737-0.0388v0.32624h-0.09394v-0.0868q-0.03216 0.0521-0.08016 0.0771-0.04799 0.0245-0.11743 0.0245-0.08781 0-0.13989-0.049-0.05157-0.0495-0.05157-0.13223 0-0.0965 0.06433-0.14551 0.06484-0.049 0.19299-0.049h0.13172v-9e-3q0-0.0648-0.04289-0.10007-0.04238-0.0357-0.11947-0.0357-0.04901 0-0.09547 0.0117-0.04646 0.0118-0.08935 0.0352v-0.0868q0.05157-0.0199 0.10007-0.0296 0.0485-0.0102 0.09445-0.0102 0.12406 0 0.18533 0.0643t0.06127 0.19504z"/><path d="m68.36 382.09v-0.34616h0.09394v0.34258q0 0.0812 0.03165 0.12202 0.03166 0.0403 0.09496 0.0403 0.07607 0 0.11998-0.0485 0.04442-0.0485 0.04442-0.13223v-0.3242h0.09394v0.57182h-0.09394v-0.0878q-0.03421 0.0521-0.07965 0.0776-0.04493 0.025-0.10466 0.025-0.09854 0-0.14959-0.0613-0.05106-0.0613-0.05106-0.1792zm0.23639-0.35995z"/><path d="m69.023 381.52h0.09394v0.79442h-0.09394z"/><path d="m69.395 381.58v0.16236h0.1935v0.073h-0.1935v0.31042q0 0.0699 0.01889 0.0899 0.0194 0.0199 0.07811 0.0199h0.0965v0.0786h-0.0965q-0.10875 0-0.1501-0.0403-0.04135-0.0409-0.04135-0.14806v-0.31042h-0.06892v-0.073h0.06892v-0.16236h0.09445z"/></g><g transform="translate(12.629,-30.423)"><path d="m67.247 383.92h0.10313v0.67546h0.37117v0.0868h-0.47431z"/><path d="m68.018 384.18q-0.07556 0-0.11947 0.0592-0.04391 0.0587-0.04391 0.16133t0.0434 0.16185q0.04391 0.0587 0.11998 0.0587 0.07505 0 0.11896-0.0592t0.04391-0.16134q0-0.1016-0.04391-0.16082-0.04391-0.0597-0.11896-0.0597zm0-0.0797q0.12253 0 0.19248 0.0797 0.06995 0.0796 0.06995 0.22055 0 0.14041-0.06995 0.22056-0.06995 0.0796-0.19248 0.0796-0.12304 0-0.19299-0.0796-0.06944-0.0802-0.06944-0.22056 0-0.14091 0.06944-0.22055 0.06995-0.0797 0.19299-0.0797z"/><path d="m68.836 384.13v0.0878q-0.03982-0.022-0.08016-0.0327-0.03982-0.0112-0.08067-0.0112-0.09139 0-0.14194 0.0582-0.05054 0.0577-0.05054 0.16235 0 0.10467 0.05054 0.16287 0.05054 0.0577 0.14194 0.0577 0.04084 0 0.08067-0.0107 0.04033-0.0112 0.08016-0.0332v0.0868q-0.03931 0.0184-0.08169 0.0276-0.04187 9e-3 -0.08935 9e-3 -0.12917 0-0.20524-0.0812t-0.07607-0.21903q0-0.13989 0.07658-0.22004 0.07709-0.0802 0.21086-0.0802 0.0434 0 0.08475 9e-3t0.08016 0.0265z"/><path d="m69.25 384.4q-0.11385 0-0.15776 0.026t-0.04391 0.0888q0 0.05 0.03268 0.0796 0.03319 0.0291 0.08986 0.0291 0.07811 0 0.12509-0.0551 0.04748-0.0557 0.04748-0.14755v-0.0209h-0.09343zm0.18737-0.0388v0.32625h-0.09394v-0.0868q-0.03216 0.0521-0.08016 0.0771-0.04799 0.0245-0.11743 0.0245-0.08782 0-0.13989-0.049-0.05157-0.0495-0.05157-0.13224 0-0.0965 0.06433-0.1455 0.06484-0.049 0.19299-0.049h0.13172v-9e-3q0-0.0648-0.04289-0.10007-0.04238-0.0357-0.11947-0.0357-0.04901 0-0.09547 0.0117t-0.08935 0.0352v-0.0868q0.05157-0.0199 0.10007-0.0296 0.0485-0.0102 0.09445-0.0102 0.12406 0 0.18533 0.0643t0.06127 0.19503z"/><path d="m69.714 383.95v0.16235h0.1935v0.073h-0.1935v0.31042q0 0.07 0.01889 0.0899 0.0194 0.0199 0.07812 0.0199h0.09649v0.0786h-0.09649q-0.10875 0-0.1501-0.0403-0.04136-0.0408-0.04136-0.14806v-0.31042h-0.06892v-0.073h0.06892v-0.16235h0.09445z"/><path d="m70.243 384.18q-0.07556 0-0.11947 0.0592-0.04391 0.0587-0.04391 0.16133t0.0434 0.16185q0.04391 0.0587 0.11998 0.0587 0.07505 0 0.11896-0.0592t0.04391-0.16134q0-0.1016-0.04391-0.16082-0.04391-0.0597-0.11896-0.0597zm0-0.0797q0.12253 0 0.19248 0.0797 0.06995 0.0796 0.06995 0.22055 0 0.14041-0.06995 0.22056-0.06995 0.0796-0.19248 0.0796-0.12304 0-0.19299-0.0796-0.06943-0.0802-0.06943-0.22056 0-0.14091 0.06943-0.22055 0.06995-0.0797 0.19299-0.0797z"/><path d="m70.981 384.2q-0.01583-9e-3 -0.03472-0.0133-0.01838-5e-3 -0.04084-5e-3 -0.07965 0-0.12253 0.0521-0.04238 0.0516-0.04238 0.14857v0.30123h-0.09445v-0.57183h0.09445v0.0888q0.02961-0.0521 0.07709-0.0771 0.04748-0.0255 0.11539-0.0255 0.0097 0 0.02144 2e-3 0.01174 1e-3 0.02604 4e-3l5.11e-4 0.0965z"/></g></g><g transform="translate(12.629,-30.423)" fill="#fff" stroke-width="1px"><path d="m70.512 393.35v0.10875q-0.05208-0.0485-0.1113-0.0725-0.05871-0.024-0.12509-0.024-0.1307 0-0.20014 0.0802-0.06943 0.0797-0.06943 0.23077 0 0.15061 0.06943 0.23077 0.06944 0.0797 0.20014 0.0797 0.06637 0 0.12509-0.024 0.05922-0.024 0.1113-0.0725v0.10773q-0.05412 0.0368-0.11488 0.0551-0.06025 0.0184-0.12764 0.0184-0.17308 0-0.27264-0.10569-0.09956-0.10619-0.09956-0.28948 0-0.1838 0.09956-0.28948 0.09956-0.1062 0.27264-0.1062 0.06842 0 0.12866 0.0184 0.06076 0.0179 0.11385 0.0541z"/><path d="m70.879 393.54q-0.07556 0-0.11947 0.0592-0.04391 0.0587-0.04391 0.16133 0 0.10262 0.0434 0.16185 0.04391 0.0587 0.11998 0.0587 0.07505 0 0.11896-0.0592t0.04391-0.16134q0-0.1016-0.04391-0.16082-0.04391-0.0597-0.11896-0.0597zm0-0.0796q0.12253 0 0.19248 0.0796t0.06995 0.22056q0 0.14041-0.06995 0.22056-0.06995 0.0797-0.19248 0.0797-0.12304 0-0.19299-0.0797-0.06944-0.0802-0.06944-0.22056 0-0.14091 0.06944-0.22056 0.06995-0.0796 0.19299-0.0796z"/><path d="m71.761 393.7v0.34513h-0.09394v-0.34207q0-0.0812-0.03165-0.12151-0.03166-0.0403-0.09496-0.0403-0.07607 0-0.11998 0.0485t-0.04391 0.13223v0.32318h-0.09445v-0.57182h0.09445v0.0888q0.0337-0.0516 0.07914-0.0771 0.04595-0.0255 0.10568-0.0255 0.09854 0 0.14908 0.0613 0.05054 0.0608 0.05054 0.17921z"/><path d="m72.304 393.49v0.0888q-0.03982-0.0204-0.08271-0.0306t-0.08884-0.0102q-0.06995 0-0.10518 0.0215-0.03472 0.0214-0.03472 0.0643 0 0.0327 0.02502 0.0516 0.02502 0.0184 0.10058 0.0352l0.03216 7e-3q0.10007 0.0214 0.14193 0.0607 0.04238 0.0388 0.04238 0.10875 0 0.0797-0.06331 0.12611-0.0628 0.0465-0.17308 0.0465-0.04595 0-0.09598-9e-3 -0.04952-9e-3 -0.10466-0.0265v-0.097q0.05208 0.0271 0.10262 0.0408 0.05054 0.0133 0.10007 0.0133 0.06637 0 0.10211-0.0225 0.03574-0.023 0.03574-0.0643 0-0.0383-0.02604-0.0587-0.02553-0.0204-0.11283-0.0393l-0.03268-8e-3q-0.08731-0.0184-0.12611-0.0562-0.0388-0.0383-0.0388-0.10466 0-0.0807 0.05718-0.12458 0.05718-0.0439 0.16236-0.0439 0.05208 0 0.09803 8e-3t0.08475 0.023z"/><path d="m72.696 393.54q-0.07556 0-0.11947 0.0592-0.04391 0.0587-0.04391 0.16133 0 0.10262 0.0434 0.16185 0.04391 0.0587 0.11998 0.0587 0.07505 0 0.11896-0.0592t0.04391-0.16134q0-0.1016-0.04391-0.16082-0.04391-0.0597-0.11896-0.0597zm0-0.0796q0.12253 0 0.19248 0.0796t0.06995 0.22056q0 0.14041-0.06995 0.22056-0.06995 0.0797-0.19248 0.0797-0.12304 0-0.19299-0.0797-0.06944-0.0802-0.06944-0.22056 0-0.14091 0.06944-0.22056 0.06995-0.0796 0.19299-0.0796z"/><path d="m73.103 393.26h0.09394v0.79442h-0.09394z"/><path d="m73.872 393.74v0.046h-0.43193q0.0061 0.097 0.0582 0.14806 0.05259 0.0505 0.14602 0.0505 0.05412 0 0.10466-0.0133 0.05106-0.0133 0.10109-0.0398v0.0888q-0.05054 0.0214-0.10364 0.0327-0.0531 0.0112-0.10773 0.0112-0.13683 0-0.21699-0.0797-0.07965-0.0796-0.07965-0.21545 0-0.1404 0.07556-0.2226 0.07607-0.0827 0.20473-0.0827 0.11538 0 0.18227 0.0745 0.06739 0.074 0.06739 0.20167zm-0.09394-0.0276q-1e-3 -0.0771-0.0434-0.12305-0.04187-0.0459-0.1113-0.0459-0.07863 0-0.12611 0.0444-0.04697 0.0444-0.05412 0.12509l0.33492-5.1e-4z"/></g></g><path d="m213.73 412.04h14.573v-4.9621h-14.573z" stroke-width="1.8829"/><path d="m213.73 412.04h14.573v-4.9623h-14.573z" fill="none" stroke="#535353" stroke-linecap="round" stroke-linejoin="round" stroke-miterlimit="4.4615" stroke-width=".063859"/><path d="m214.59 407.86h12.881v1.6974h-12.881z" fill="#a09a9a" fill-rule="evenodd" stroke-width="1.8829"/><path d="m215.03 409.12h12.016v-0.82795h-12.016z" fill="#505050" stroke-width="1.8829"/></svg>
