<svg width="254" height="44" version="1.1" viewBox="66 376 134.89708 14.280444" xmlns="http://www.w3.org/2000/svg">
 <text transform="scale(1.0397 .96177)" x="74.660637" y="391.6311" fill="#ffffff" font-family="sans-serif" font-size="2.4768px" font-weight="700">
  <tspan x="74.660637" y="391.6311"/>
 </text>
 <text transform="scale(1.0003 .99968)" x="79.690422" y="367.80356" fill="#000000" font-family="sans-serif" font-size="21.25px" letter-spacing="0px" stroke-width="1px" word-spacing="0px" style="line-height:125%" xml:space="preserve"><tspan x="79.690422" y="367.80356"/></text>
 <g transform="translate(1.4093 -49.013)">
  <path d="m64.928 443.84h134.22 0.0389l0.0259-0.0129 0.065-0.0129 0.0648-0.0259 0.0389-0.0517 0.0519-0.0388 0.026-0.0646 0.0131-0.0646 0.013-0.0258v-0.0388-22.696-0.0258l-0.013-0.0388-0.0131-0.0518-0.026-0.0646-0.0519-0.0517-0.0389-0.0388-0.0648-0.0258-0.026-0.013-0.039-0.0129h-0.026l-0.0389-0.0129h-134.22l-0.03897 0.0129h-0.03897l-0.02598 0.0129-0.03892 0.013-0.0519 0.0258-0.0519 0.0388-0.03892 0.0517-0.02598 0.0646-0.02599 0.0518v0.0388 0.0258 22.696 0.0388 0.0258l0.02599 0.0646 0.02598 0.0646 0.03892 0.0388 0.0519 0.0517 0.0519 0.0259 0.06489 0.0129 0.03897 0.0129h0.03897z" fill="#005da9" fill-rule="evenodd"/>
  <path d="m162.4 426.88h-9.3001v7.8969h9.3001v-7.8969zm11.109 0h-9.3001v7.8969h9.3001v-7.8969z" fill="#333" fill-rule="evenodd"/>
  <g transform="matrix(.53109 0 0 .53109 89.022 290.95)">
   <path d="m169.78 259.86c-1.1584 0-2.1348 1.033-2.5195 2.4844h-2.5625c-1.0198 0-1.8398 0.82007-1.8398 1.8398v0.2207c0 1.0198 0.82006 1.8398 1.8398 1.8398h2.5625c0.38477 1.4514 1.3612 2.4824 2.5195 2.4824h13.027c1.1584 0 2.1348-1.031 2.5195-2.4824h2.5625c1.0198 0 1.8398-0.82006 1.8398-1.8398v-0.2207c0-1.0198-0.82007-1.8398-1.8398-1.8398h-2.5625c-0.38477-1.4514-1.3612-2.4844-2.5195-2.4844h-13.027z" fill="#ececec" fill-rule="evenodd" stroke="#333" stroke-linecap="round" stroke-width=".098761"/>
   <g transform="translate(-.27702 -1.4531e-5)" stroke="#333" stroke-width=".067244">
    <g transform="translate(-21.189 -6.7388)">
     <path d="m189.01 272.01v-2.0135l-1.7484-1.0068-1.7484 1.0738v2.0135l1.7484 1.0077 1.7484-1.0747z" fill="#b3b3b3"/>
     <path d="m188.61 271.03c0 0.75957-0.60197 1.3766-1.3446 1.3766-0.74258 0-1.3446-0.61707-1.3446-1.3766 0-0.75955 0.60197-1.3757 1.3446-1.3757 0.74259 0 1.3446 0.61613 1.3446 1.3757z" fill="#ddd"/>
     <path d="m187.73 271.03c0 0.2406-0.21132 0.43687-0.47081 0.43687-0.25948 0-0.47084-0.19627-0.47084-0.43687s0.21136-0.43591 0.47084-0.43591c0.25949 0 0.47081 0.19531 0.47081 0.43591z" fill="#a4a4a4"/>
    </g>
    <g transform="translate(-.18874 -6.7388)">
     <path d="m189.01 272.01v-2.0135l-1.7484-1.0068-1.7484 1.0738v2.0135l1.7484 1.0077 1.7484-1.0747z" fill="#b3b3b3"/>
     <path d="m188.61 271.03c0 0.75957-0.60197 1.3766-1.3446 1.3766-0.74258 0-1.3446-0.61707-1.3446-1.3766 0-0.75955 0.60197-1.3757 1.3446-1.3757 0.74259 0 1.3446 0.61613 1.3446 1.3757z" fill="#ddd"/>
     <path d="m187.73 271.03c0 0.2406-0.21132 0.43687-0.47081 0.43687-0.25948 0-0.47084-0.19627-0.47084-0.43687s0.21136-0.43591 0.47084-0.43591c0.25949 0 0.47081 0.19531 0.47081 0.43591z" fill="#a4a4a4"/>
    </g>
   </g>
   <g transform="translate(.43892 .20189)" stroke="#000">
    <g transform="translate(-1.3533 5.9318)" fill-rule="evenodd" stroke-linecap="round">
     <path d="m171.46 254.62h11.509c0.94773 0 1.937 0.7904 1.7107 1.7107l-1.0295 4.187c-0.22629 0.92033-0.76297 1.196-1.7107 1.196h-9.4499c-0.94773 0-1.4844-0.27566-1.7107-1.196l-1.0295-4.187c-0.22628-0.92032 0.76298-1.7107 1.7107-1.7107z" fill="#ececec" stroke-width=".025737"/>
     <path d="m171.64 254.79h11.145c0.91776 0 1.8757 0.75221 1.6566 1.6281l-0.99691 3.9847c-0.21914 0.87586-0.73884 1.1382-1.6566 1.1382h-9.151c-0.91775 0-1.4375-0.26234-1.6566-1.1382l-0.99693-3.9847c-0.21912-0.87586 0.73885-1.6281 1.6566-1.6281z" fill="#666" stroke-width=".024707"/>
    </g>
    <g stroke-width=".067244">
     <path d="m182.01 262.62c0 0.27834-0.2255 0.50385-0.50383 0.50385-0.27837 0-0.50481-0.22551-0.50481-0.50385 0-0.27739 0.22644-0.50384 0.50481-0.50384 0.27833 0 0.50383 0.22645 0.50383 0.50384z"/>
     <path d="m170.78 262.62c0 0.27834-0.24155 0.50385-0.53781 0.50385-0.29722 0-0.53782-0.22551-0.53782-0.50385 0-0.27739 0.2406-0.50384 0.53782-0.50384 0.29626 0 0.53781 0.22645 0.53781 0.50384z"/>
     <path d="m173.62 262.62c0 0.27834-0.2406 0.50385-0.53784 0.50385-0.29719 0-0.53779-0.22551-0.53779-0.50385 0-0.27739 0.2406-0.50384 0.53779-0.50384 0.29724 0 0.53784 0.22645 0.53784 0.50384z"/>
     <path d="m176.46 262.62c0 0.27834-0.2406 0.50385-0.53782 0.50385-0.2972 0-0.53782-0.22551-0.53782-0.50385 0-0.27739 0.24062-0.50384 0.53782-0.50384 0.29722 0 0.53782 0.22645 0.53782 0.50384z"/>
     <path d="m179.24 262.62c0 0.27834-0.2255 0.50385-0.50385 0.50385s-0.50479-0.22551-0.50479-0.50385c0-0.27739 0.22644-0.50384 0.50479-0.50384s0.50385 0.22645 0.50385 0.50384z"/>
     <path d="m172.17 265.57c0 0.27834-0.22552 0.50385-0.50385 0.50385-0.27835 0-0.50481-0.22551-0.50481-0.50385 0-0.27741 0.22646-0.5029 0.50481-0.5029 0.27833 0 0.50385 0.22549 0.50385 0.5029z"/>
     <path d="m175.01 265.57c0 0.27834-0.22551 0.50385-0.50386 0.50385-0.27834 0-0.5048-0.22551-0.5048-0.50385 0-0.27741 0.22646-0.5029 0.5048-0.5029 0.27835 0 0.50386 0.22549 0.50386 0.5029z"/>
     <path d="m177.85 265.57c0 0.27834-0.22644 0.50385-0.50479 0.50385s-0.50385-0.22551-0.50385-0.50385c0-0.27741 0.2255-0.5029 0.50385-0.5029s0.50479 0.22549 0.50479 0.5029z"/>
     <path d="m180.62 265.57c0 0.27834-0.22646 0.50385-0.50481 0.50385-0.27833 0-0.50385-0.22551-0.50385-0.50385 0-0.27741 0.22552-0.5029 0.50385-0.5029 0.27835 0 0.50481 0.22549 0.50481 0.5029z"/>
    </g>
   </g>
  </g>
  <g transform="matrix(.96168 0 0 1 2.4951 -1.1401)" stroke-linecap="round">
   <g transform="translate(-.91758 -.2192)">
    <circle cx="158.04" cy="424.23" r="1.4024" fill="#ccc" fill-rule="evenodd" stroke="#999" stroke-width=".053109"/>
    <path d="m157.44 423.88c0.0889 0.07 0.17226 0.15799 0.2019 0.27003 0.0199 0.0789 7e-3 0.16507-0.0282 0.23766-0.0573 0.0716-0.11089 0.14773-0.17947 0.20949-0.0496 0.0628-7e-3 0.14703 0.0549 0.18166 0.0371 0.0563 0.11163 0.10159 0.17005 0.0466 0.092-0.0605 0.1614-0.15471 0.26553-0.19628 0.10823-0.0302 0.23823-0.019 0.32037 0.0649 0.0678 0.0439 0.11781 0.11309 0.18658 0.15243 0.0793 0.0249 0.13507-0.0498 0.18659-0.096 0.053-0.0489 0.0408-0.12967-3e-3 -0.17953-0.0649-0.0765-0.15821-0.13317-0.18964-0.23397-0.0318-0.10245-0.0155-0.21984 0.0498-0.30633 0.0453-0.0731 0.12559-0.11746 0.16645-0.19321 0.0301-0.0747-0.0394-0.13643-0.0898-0.18066-0.0492-0.0613-0.14758-0.0456-0.19182 0.0133-0.08 0.0689-0.15033 0.16369-0.26219 0.17951-0.11394 0.0228-0.23563-0.0195-0.31109-0.10783-0.0564-0.0555-0.10976-0.13708-0.19941-0.13134-0.0752 0.0159-0.1472 0.0787-0.17309 0.15078-9e-3 0.0402-5e-3 0.0883 0.0262 0.11849" fill="#666" stroke="#e6e6e6" stroke-linejoin="round" stroke-width=".013499px"/>
   </g>
   <g transform="translate(43.908 -.2192)">
    <circle cx="158.04" cy="424.23" r="1.4024" fill="#ccc" fill-rule="evenodd" stroke="#999" stroke-width=".053109"/>
    <path d="m157.44 423.88c0.0889 0.07 0.17226 0.15799 0.2019 0.27003 0.0199 0.0789 7e-3 0.16507-0.0282 0.23766-0.0573 0.0716-0.11089 0.14773-0.17947 0.20949-0.0496 0.0628-7e-3 0.14703 0.0549 0.18166 0.0371 0.0563 0.11163 0.10159 0.17005 0.0466 0.092-0.0605 0.1614-0.15471 0.26553-0.19628 0.10823-0.0302 0.23823-0.019 0.32037 0.0649 0.0678 0.0439 0.11781 0.11309 0.18658 0.15243 0.0793 0.0249 0.13507-0.0498 0.18659-0.096 0.053-0.0489 0.0408-0.12967-3e-3 -0.17953-0.0649-0.0765-0.15821-0.13317-0.18964-0.23397-0.0318-0.10245-0.0155-0.21984 0.0498-0.30633 0.0453-0.0731 0.12559-0.11746 0.16645-0.19321 0.0301-0.0747-0.0394-0.13643-0.0898-0.18066-0.0492-0.0613-0.14758-0.0456-0.19182 0.0133-0.08 0.0689-0.15033 0.16369-0.26219 0.17951-0.11394 0.0228-0.23563-0.0195-0.31109-0.10783-0.0564-0.0555-0.10976-0.13708-0.19941-0.13134-0.0752 0.0159-0.1472 0.0787-0.17309 0.15078-9e-3 0.0402-5e-3 0.0883 0.0262 0.11849" fill="#666" stroke="#e6e6e6" stroke-linejoin="round" stroke-width=".013499px"/>
   </g>
   <g transform="translate(43.908 18.352)">
    <circle cx="158.04" cy="424.23" r="1.4024" fill="#ccc" fill-rule="evenodd" stroke="#999" stroke-width=".053109"/>
    <path d="m157.44 423.88c0.0889 0.07 0.17226 0.15799 0.2019 0.27003 0.0199 0.0789 7e-3 0.16507-0.0282 0.23766-0.0573 0.0716-0.11089 0.14773-0.17947 0.20949-0.0496 0.0628-7e-3 0.14703 0.0549 0.18166 0.0371 0.0563 0.11163 0.10159 0.17005 0.0466 0.092-0.0605 0.1614-0.15471 0.26553-0.19628 0.10823-0.0302 0.23823-0.019 0.32037 0.0649 0.0678 0.0439 0.11781 0.11309 0.18658 0.15243 0.0793 0.0249 0.13507-0.0498 0.18659-0.096 0.053-0.0489 0.0408-0.12967-3e-3 -0.17953-0.0649-0.0765-0.15821-0.13317-0.18964-0.23397-0.0318-0.10245-0.0155-0.21984 0.0498-0.30633 0.0453-0.0731 0.12559-0.11746 0.16645-0.19321 0.0301-0.0747-0.0394-0.13643-0.0898-0.18066-0.0492-0.0613-0.14758-0.0456-0.19182 0.0133-0.08 0.0689-0.15033 0.16369-0.26219 0.17951-0.11394 0.0228-0.23563-0.0195-0.31109-0.10783-0.0564-0.0555-0.10976-0.13708-0.19941-0.13134-0.0752 0.0159-0.1472 0.0787-0.17309 0.15078-9e-3 0.0402-5e-3 0.0883 0.0262 0.11849" fill="#666" stroke="#e6e6e6" stroke-linejoin="round" stroke-width=".013499px"/>
   </g>
   <g transform="translate(-.91758 18.352)">
    <circle cx="158.04" cy="424.23" r="1.4024" fill="#ccc" fill-rule="evenodd" stroke="#999" stroke-width=".053109"/>
    <path d="m157.44 423.88c0.0889 0.07 0.17226 0.15799 0.2019 0.27003 0.0199 0.0789 7e-3 0.16507-0.0282 0.23766-0.0573 0.0716-0.11089 0.14773-0.17947 0.20949-0.0496 0.0628-7e-3 0.14703 0.0549 0.18166 0.0371 0.0563 0.11163 0.10159 0.17005 0.0466 0.092-0.0605 0.1614-0.15471 0.26553-0.19628 0.10823-0.0302 0.23823-0.019 0.32037 0.0649 0.0678 0.0439 0.11781 0.11309 0.18658 0.15243 0.0793 0.0249 0.13507-0.0498 0.18659-0.096 0.053-0.0489 0.0408-0.12967-3e-3 -0.17953-0.0649-0.0765-0.15821-0.13317-0.18964-0.23397-0.0318-0.10245-0.0155-0.21984 0.0498-0.30633 0.0453-0.0731 0.12559-0.11746 0.16645-0.19321 0.0301-0.0747-0.0394-0.13643-0.0898-0.18066-0.0492-0.0613-0.14758-0.0456-0.19182 0.0133-0.08 0.0689-0.15033 0.16369-0.26219 0.17951-0.11394 0.0228-0.23563-0.0195-0.31109-0.10783-0.0564-0.0555-0.10976-0.13708-0.19941-0.13134-0.0752 0.0159-0.1472 0.0787-0.17309 0.15078-9e-3 0.0402-5e-3 0.0883 0.0262 0.11849" fill="#666" stroke="#e6e6e6" stroke-linejoin="round" stroke-width=".013499px"/>
   </g>
   <g transform="translate(-45.744 18.352)">
    <circle cx="158.04" cy="424.23" r="1.4024" fill="#ccc" fill-rule="evenodd" stroke="#999" stroke-width=".053109"/>
    <path d="m157.44 423.88c0.0889 0.07 0.17226 0.15799 0.2019 0.27003 0.0199 0.0789 7e-3 0.16507-0.0282 0.23766-0.0573 0.0716-0.11089 0.14773-0.17947 0.20949-0.0496 0.0628-7e-3 0.14703 0.0549 0.18166 0.0371 0.0563 0.11163 0.10159 0.17005 0.0466 0.092-0.0605 0.1614-0.15471 0.26553-0.19628 0.10823-0.0302 0.23823-0.019 0.32037 0.0649 0.0678 0.0439 0.11781 0.11309 0.18658 0.15243 0.0793 0.0249 0.13507-0.0498 0.18659-0.096 0.053-0.0489 0.0408-0.12967-3e-3 -0.17953-0.0649-0.0765-0.15821-0.13317-0.18964-0.23397-0.0318-0.10245-0.0155-0.21984 0.0498-0.30633 0.0453-0.0731 0.12559-0.11746 0.16645-0.19321 0.0301-0.0747-0.0394-0.13643-0.0898-0.18066-0.0492-0.0613-0.14758-0.0456-0.19182 0.0133-0.08 0.0689-0.15033 0.16369-0.26219 0.17951-0.11394 0.0228-0.23563-0.0195-0.31109-0.10783-0.0564-0.0555-0.10976-0.13708-0.19941-0.13134-0.0752 0.0159-0.1472 0.0787-0.17309 0.15078-9e-3 0.0402-5e-3 0.0883 0.0262 0.11849" fill="#666" stroke="#e6e6e6" stroke-linejoin="round" stroke-width=".013499px"/>
   </g>
   <g transform="translate(-90.569 18.352)">
    <circle cx="158.04" cy="424.23" r="1.4024" fill="#ccc" fill-rule="evenodd" stroke="#999" stroke-width=".053109"/>
    <path d="m157.44 423.88c0.0889 0.07 0.17226 0.15799 0.2019 0.27003 0.0199 0.0789 7e-3 0.16507-0.0282 0.23766-0.0573 0.0716-0.11089 0.14773-0.17947 0.20949-0.0496 0.0628-7e-3 0.14703 0.0549 0.18166 0.0371 0.0563 0.11163 0.10159 0.17005 0.0466 0.092-0.0605 0.1614-0.15471 0.26553-0.19628 0.10823-0.0302 0.23823-0.019 0.32037 0.0649 0.0678 0.0439 0.11781 0.11309 0.18658 0.15243 0.0793 0.0249 0.13507-0.0498 0.18659-0.096 0.053-0.0489 0.0408-0.12967-3e-3 -0.17953-0.0649-0.0765-0.15821-0.13317-0.18964-0.23397-0.0318-0.10245-0.0155-0.21984 0.0498-0.30633 0.0453-0.0731 0.12559-0.11746 0.16645-0.19321 0.0301-0.0747-0.0394-0.13643-0.0898-0.18066-0.0492-0.0613-0.14758-0.0456-0.19182 0.0133-0.08 0.0689-0.15033 0.16369-0.26219 0.17951-0.11394 0.0228-0.23563-0.0195-0.31109-0.10783-0.0564-0.0555-0.10976-0.13708-0.19941-0.13134-0.0752 0.0159-0.1472 0.0787-0.17309 0.15078-9e-3 0.0402-5e-3 0.0883 0.0262 0.11849" fill="#666" stroke="#e6e6e6" stroke-linejoin="round" stroke-width=".013499px"/>
   </g>
   <g transform="translate(-90.569 -.2192)">
    <circle cx="158.04" cy="424.23" r="1.4024" fill="#ccc" fill-rule="evenodd" stroke="#999" stroke-width=".053109"/>
    <path d="m157.44 423.88c0.0889 0.07 0.17226 0.15799 0.2019 0.27003 0.0199 0.0789 7e-3 0.16507-0.0282 0.23766-0.0573 0.0716-0.11089 0.14773-0.17947 0.20949-0.0496 0.0628-7e-3 0.14703 0.0549 0.18166 0.0371 0.0563 0.11163 0.10159 0.17005 0.0466 0.092-0.0605 0.1614-0.15471 0.26553-0.19628 0.10823-0.0302 0.23823-0.019 0.32037 0.0649 0.0678 0.0439 0.11781 0.11309 0.18658 0.15243 0.0793 0.0249 0.13507-0.0498 0.18659-0.096 0.053-0.0489 0.0408-0.12967-3e-3 -0.17953-0.0649-0.0765-0.15821-0.13317-0.18964-0.23397-0.0318-0.10245-0.0155-0.21984 0.0498-0.30633 0.0453-0.0731 0.12559-0.11746 0.16645-0.19321 0.0301-0.0747-0.0394-0.13643-0.0898-0.18066-0.0492-0.0613-0.14758-0.0456-0.19182 0.0133-0.08 0.0689-0.15033 0.16369-0.26219 0.17951-0.11394 0.0228-0.23563-0.0195-0.31109-0.10783-0.0564-0.0555-0.10976-0.13708-0.19941-0.13134-0.0752 0.0159-0.1472 0.0787-0.17309 0.15078-9e-3 0.0402-5e-3 0.0883 0.0262 0.11849" fill="#666" stroke="#e6e6e6" stroke-linejoin="round" stroke-width=".013499px"/>
   </g>
   <g transform="translate(-45.744 -.2192)">
    <circle cx="158.04" cy="424.23" r="1.4024" fill="#ccc" fill-rule="evenodd" stroke="#999" stroke-width=".053109"/>
    <path d="m157.44 423.88c0.0889 0.07 0.17226 0.15799 0.2019 0.27003 0.0199 0.0789 7e-3 0.16507-0.0282 0.23766-0.0573 0.0716-0.11089 0.14773-0.17947 0.20949-0.0496 0.0628-7e-3 0.14703 0.0549 0.18166 0.0371 0.0563 0.11163 0.10159 0.17005 0.0466 0.092-0.0605 0.1614-0.15471 0.26553-0.19628 0.10823-0.0302 0.23823-0.019 0.32037 0.0649 0.0678 0.0439 0.11781 0.11309 0.18658 0.15243 0.0793 0.0249 0.13507-0.0498 0.18659-0.096 0.053-0.0489 0.0408-0.12967-3e-3 -0.17953-0.0649-0.0765-0.15821-0.13317-0.18964-0.23397-0.0318-0.10245-0.0155-0.21984 0.0498-0.30633 0.0453-0.0731 0.12559-0.11746 0.16645-0.19321 0.0301-0.0747-0.0394-0.13643-0.0898-0.18066-0.0492-0.0613-0.14758-0.0456-0.19182 0.0133-0.08 0.0689-0.15033 0.16369-0.26219 0.17951-0.11394 0.0228-0.23563-0.0195-0.31109-0.10783-0.0564-0.0555-0.10976-0.13708-0.19941-0.13134-0.0752 0.0159-0.1472 0.0787-0.17309 0.15078-9e-3 0.0402-5e-3 0.0883 0.0262 0.11849" fill="#666" stroke="#e6e6e6" stroke-linejoin="round" stroke-width=".013499px"/>
   </g>
  </g>
  <circle cx="149.4" cy="432.44" r=".48116" fill-rule="evenodd"/>
  <g transform="translate(-7.4643 4.0092)" fill-rule="evenodd">
   <circle cx="149.73" cy="426.69" r="4.4147" fill="#1a1a1a"/>
   <circle cx="149.73" cy="426.69" r="3.5351" fill="#333"/>
   <circle cx="149.73" cy="426.69" r="3.2031" fill="#ccc"/>
   <circle cx="149.73" cy="426.69" r="2.7882" fill="#1a1a1a"/>
   <g transform="translate(3.0771 -6.6278)">
    <path d="m147.39 431.08v0.50619h-1.4812v-0.50412a2.4586 2.4586 0 0 0 -1.7178 2.3412 2.4586 2.4586 0 0 0 1.2499 2.1368h2.421a2.4586 2.4586 0 0 0 1.2468 -2.1368 2.4586 2.4586 0 0 0 -1.7188 -2.3432z" fill="#4d4d4d"/>
    <g transform="translate(4.3129 2.6483)">
     <circle cx="143.33" cy="429.79" r=".48116"/>
     <circle cx="141.35" cy="430.27" r=".48116"/>
     <circle cx="143.13" cy="431.55" r=".48116"/>
    </g>
   </g>
  </g>
  <g transform="matrix(.025143 0 0 .025143 170.08 435.86)" fill="none" stroke="#fff" stroke-width="7.3296">
   <path d="m-80.43 19.172c-24 0-30 20-10.8 24-19.2 8.8 2.4 28 18 20 10.8 16 46.8 16 58.8 0 24 0 24-16 9-24 15-16-9-32-30-24-15-12-39-12-45 4z" fill="none" pointer-events="none" stroke="#fff" stroke-width="7.3296"/>
  </g>
  <path d="m157.27 437.14v-0.18898h0.97183v0.18898h-0.26993v0.64795h0.63444v-0.64795h-0.28343v-0.18898h0.44545v-0.1215h-0.97198v-0.18898h0.27008v-0.64795h-0.63444v0.64795h0.28342v0.18898h-0.97182v0.1215h0.44544v0.18898h-0.28343v0.64795h0.6343v-0.64795h-0.26993zm-0.26994 0.52646v-0.40496h0.45895v0.40496h-0.45895zm1.0528 0v-0.40496h0.45895v0.40496h-0.45895zm-0.52637-1.1474v-0.40497h0.45893v0.40497h-0.45893z" fill="#fff" fill-rule="evenodd"/>
  <path d="m140.88 437.17h0.78298v-0.17548h-0.78298v0.17548zm0.99895 0h0.78284v-0.17548h-0.78284v0.17548zm0.99882 0h0.78298v-0.17548h-0.78298v0.17548zm-1.9978-0.39147h2.7808v-0.17549h-2.7808v0.17549z" fill="#fff" fill-rule="evenodd"/>
  <rect x="153.12" y="426.89" width="9.1945" height="7.817" fill="#ebebeb" fill-rule="evenodd" stroke="#000" stroke-linecap="round" stroke-width=".18429"/>
  <g transform="matrix(-1.0006 0 0 -.99999 271.58 780.5)">
   <path d="m110.02 353.2h7.5579v-6.9858l-7.5579-2.3e-4z" fill="#3a3a3a"/>
   <g transform="matrix(.0080752 0 0 .0080046 96.896 381.97)">
    <path d="m2560.5-3593.3v-872.71l-935.94-0.027v872.74z" fill="none" stroke="#000" stroke-linecap="square" stroke-width=".67568"/>
   </g>
   <g>
    <path d="m110.32 347.98h1.7584l-3e-3 -1.0653 0.63992-5.7e-4v-0.39887h2.0626l-4.8e-4 0.39991h0.66608v1.0654h1.7503v4.5866l-6.8735 0.0149z" fill="#1a1a1a"/>
    <path d="m115.6 347.7h1.7367v-0.74886h-1.7367v0.74886z" fill="#abb927"/>
    <path d="m110.16 347.7h1.752v-0.75276h-1.752v0.75276z" fill="#abb927"/>
    <path d="m110.02 353.21-1e-3 -6.9884 2.3308-9.5e-4v0.67227l-2.2487-1e-3v0.87026l0.22325 7e-3 4.8e-4 4.8157 6.87-0.01 5e-3 -5e-3 5.3e-4 -4.801 0.22324-7e-3v-0.87027l-2.2619 1e-3v-0.67227l2.4153 9.5e-4 1e-3 6.9884" fill="#ebebeb"/>
   </g>
  </g>
  <g transform="translate(11.111)">
   <rect x="153.12" y="426.89" width="9.1945" height="7.817" fill="#ebebeb" fill-rule="evenodd" stroke="#000" stroke-linecap="round" stroke-width=".18429"/>
   <g transform="matrix(-1.0006 0 0 -.99999 271.58 780.5)">
    <path d="m110.02 353.2h7.5579v-6.9858l-7.5579-2.3e-4z" fill="#3a3a3a"/>
    <g transform="matrix(.0080752 0 0 .0080046 96.896 381.97)">
     <path d="m2560.5-3593.3v-872.71l-935.94-0.027v872.74z" fill="none" stroke="#000" stroke-linecap="square" stroke-width=".67568"/>
    </g>
    <g>
     <path d="m110.32 347.98h1.7584l-3e-3 -1.0653 0.63992-5.7e-4v-0.39887h2.0626l-4.8e-4 0.39991h0.66608v1.0654h1.7503v4.5866l-6.8735 0.0149z" fill="#1a1a1a"/>
     <path d="m115.6 347.7h1.7367v-0.74886h-1.7367v0.74886z" fill="#abb927"/>
     <path d="m110.16 347.7h1.752v-0.75276h-1.752v0.75276z" fill="#abb927"/>
     <path d="m110.02 353.21-1e-3 -6.9884 2.3308-9.5e-4v0.67227l-2.2487-1e-3v0.87026l0.22325 7e-3 4.8e-4 4.8157 6.87-0.01 5e-3 -5e-3 5.3e-4 -4.801 0.22324-7e-3v-0.87027l-2.2619 1e-3v-0.67227l2.4153 9.5e-4 1e-3 6.9884" fill="#ebebeb"/>
    </g>
   </g>
  </g>
 </g>
</svg>
