<svg width="254" height="44.5" version="1.1" viewBox="66 376 134.89708 14.442722" xmlns="http://www.w3.org/2000/svg"><g transform="matrix(.65357 0 0 1.0597 22.653 -27.502)" fill="#4d4d4d"><rect x="66.589" y="376.59" width="206" height="22"/><rect x="66.589" y="376.59" width="206" height="22" stroke="#000" stroke-width=".4"/></g><g transform="matrix(.62797 0 0 1.0577 29.508 -26.739)" fill="#e6e6e6"><rect x="76.589" y="376.99" width="195.6" height="21.2" rx=".6" ry=".6"/><rect x="76.589" y="376.99" width="195.6" height="21.2" rx=".6" ry=".6" stroke="#e7e7e7" stroke-linejoin="round" stroke-width=".2"/></g><text transform="scale(1.0397 .96177)" x="74.660637" y="391.9072" fill="#ffffff" font-family="sans-serif" font-size="2.4768px" font-weight="700"><tspan x="74.660637" y="391.9072"/></text><text transform="scale(1.0003 .99968)" x="79.690422" y="368.06918" fill="#000000" font-family="sans-serif" font-size="21.25px" letter-spacing="0px" stroke-width="1px" word-spacing="0px" style="line-height:125%" xml:space="preserve"><tspan x="79.690422" y="368.06918"/></text><g transform="matrix(.62797 0 0 1.0577 76.079 -23.841)" fill="#666"><rect x="119.8" y="379.65" width="78.083" height="15.703" rx=".6" ry=".6" fill="#666"/></g><rect x="78.919" y="372.98" width="17.141" height="8.3017" rx=".5" fill="#1e90ff" stroke="#1e90ff" stroke-linejoin="round" stroke-width=".26563"/><text transform="scale(1)" x="164.26892" y="412.65744" fill="#000000" font-family="sans-serif" font-size="4.8557px"><tspan x="164.26892" y="412.65744"/></text><g transform="scale(1.0511 .95137)" fill="#fff" aria-label="HP MSM720"><path d="m75.7 392.53h0.44059v0.65116h0.65002v-0.65116h0.44059v1.7086h-0.44059v-0.7244h-0.65002v0.7244h-0.44059z"/><path d="m77.664 392.53h0.73127q0.32615 0 0.5001 0.14534 0.17509 0.14419 0.17509 0.41198 0 0.26893-0.17509 0.41427-0.17395 0.14419-0.5001 0.14419h-0.29068v0.5928h-0.44059zm0.44059 0.31928v0.47722h0.24376q0.12817 0 0.19798-0.0618 0.06981-0.0629 0.06981-0.17738 0-0.11444-0.06981-0.17624t-0.19798-0.0618z"/><path d="m80.196 392.53h0.56076l0.3891 0.91437 0.39138-0.91437h0.55961v1.7086h-0.41656v-1.2497l-0.39367 0.92124h-0.27923l-0.39367-0.92124v1.2497h-0.4177z"/><path d="m83.719 392.58v0.36163q-0.14076-0.0629-0.27466-0.095-0.13389-0.032-0.25291-0.032-0.15793 0-0.23346 0.0435t-0.07553 0.13504q0 0.0687 0.05035 0.10757 0.0515 0.0378 0.18539 0.0652l0.18768 0.0378q0.28496 0.0572 0.40512 0.17395 0.12016 0.11673 0.12016 0.33187 0 0.28267-0.16823 0.42114-0.16708 0.13733-0.51154 0.13733-0.1625 0-0.32615-0.0309t-0.3273-0.0916v-0.37193q0.16365 0.087 0.31585 0.13161 0.15335 0.0435 0.29525 0.0435 0.14419 0 0.22087-0.0481 0.07667-0.0481 0.07667-0.13733 0-0.0801-0.05264-0.12359-0.0515-0.0435-0.20714-0.0778l-0.17052-0.0378q-0.25634-0.0549-0.37536-0.17509-0.11787-0.12016-0.11787-0.32387 0-0.2552 0.16479-0.39252 0.16479-0.13733 0.47378-0.13733 0.14076 0 0.28953 0.0217 0.14877 0.0206 0.30784 0.0629z"/><path d="m84.219 392.53h0.56076l0.3891 0.91437 0.39138-0.91437h0.55961v1.7086h-0.41656v-1.2497l-0.39367 0.92124h-0.27923l-0.39367-0.92124v1.2497h-0.4177z"/><path d="m86.495 392.53h1.2874v0.24833l-0.66604 1.4602h-0.42915l0.63056-1.3847h-0.82282z"/><path d="m88.643 393.92h0.75187v0.32386h-1.2417v-0.32386l0.6237-0.55046q0.08354-0.0755 0.1236-0.14762 0.04005-0.0721 0.04005-0.14992 0-0.12016-0.08125-0.1934-0.08011-0.0732-0.214-0.0732-0.103 0-0.22545 0.0446-0.12245 0.0435-0.26207 0.13046v-0.37536q0.14877-0.0492 0.29411-0.0744 0.14534-0.0263 0.28496-0.0263 0.3067 0 0.47607 0.13504 0.17052 0.13504 0.17052 0.3765 0 0.13962-0.0721 0.26093-0.0721 0.12016-0.30326 0.32272z"/><path d="m90.676 393.38q0-0.32043-0.06065-0.45089-0.05951-0.1316-0.20141-0.1316t-0.20256 0.1316q-0.06065 0.13046-0.06065 0.45089 0 0.32387 0.06065 0.45662t0.20256 0.13275q0.14076 0 0.20141-0.13275t0.06065-0.45662zm0.44059 3e-3q0 0.42457-0.1831 0.65574-0.1831 0.23002-0.51956 0.23002-0.3376 0-0.5207-0.23002-0.1831-0.23117-0.1831-0.65574 0-0.42572 0.1831-0.65574 0.1831-0.23117 0.5207-0.23117 0.33645 0 0.51956 0.23117 0.1831 0.23002 0.1831 0.65574z"/></g><rect x="158.45" y="380.3" width="3.9417" height="1.9916" rx=".047399" ry=".023128"/><g transform="scale(1.0397 .96177)" fill="#fff" aria-label="5T"><path d="m153.2 395.8h0.82018v0.24254h-0.55707v0.19798q0.0377-0.0103 0.0754-0.0154 0.0386-6e-3 0.0797-6e-3 0.23397 0 0.36424 0.11741 0.13027 0.11656 0.13027 0.32568 0 0.2074-0.14227 0.32481-0.14141 0.11742-0.39338 0.11742-0.10884 0-0.21597-0.0214-0.10627-0.0206-0.21169-0.0634v-0.25968q0.10456 0.06 0.19798 0.09 0.0943 0.03 0.1774 0.03 0.11999 0 0.18855-0.0583 0.0694-0.0591 0.0694-0.1594 0-0.10113-0.0694-0.15941-0.0686-0.0583-0.18855-0.0583-0.0711 0-0.15169 0.0189-0.0806 0.018-0.17312 0.0566z"/><path d="m154.24 395.8h1.1793v0.2494h-0.42423v1.0302h-0.32996v-1.0302h-0.42509z"/></g><rect x="167.46" y="380.3" width="3.9417" height="1.9916" rx=".047399" ry=".023128"/><g transform="scale(1.0397 .96177)" fill="#fff" aria-label="6T"><path d="m162.33 396.46q-0.0866 0-0.13027 0.0566-0.0429 0.0557-0.0429 0.16798 0 0.11227 0.0429 0.16884 0.0437 0.0557 0.13027 0.0557 0.0874 0 0.13027-0.0557 0.0437-0.0566 0.0437-0.16884 0-0.11227-0.0437-0.16798-0.0428-0.0566-0.13027-0.0566zm0.40795-0.61449v0.23654q-0.0814-0.0386-0.15341-0.0566-0.072-0.0189-0.14056-0.0189-0.14741 0-0.22968 0.0823-0.0823 0.0814-0.096 0.24254 0.0566-0.042 0.12256-0.0626 0.066-0.0214 0.14398-0.0214 0.19626 0 0.31624 0.11484 0.12084 0.11484 0.12084 0.30082 0 0.20568-0.13455 0.32995-0.13455 0.12342-0.36081 0.12342-0.2494 0-0.38652-0.16798-0.13627-0.16884-0.13627-0.47823 0-0.3171 0.15941-0.49793 0.16026-0.18169 0.4388-0.18169 0.0883 0 0.17141 0.0137 0.0831 0.0137 0.16455 0.0411z"/><path d="m162.92 395.81h1.1793v0.2494h-0.42423v1.0302h-0.32996v-1.0302h-0.42509z"/></g><rect x="179.83" y="381.29" width="3.9417" height="1.9916" rx=".047399" ry=".023128"/><g transform="scale(1.0397 .96177)" fill="#fff" aria-label="5S"><path d="m173.79 396.84h0.82018v0.24255h-0.55707v0.19797q0.0377-0.0103 0.0754-0.0154 0.0386-6e-3 0.0797-6e-3 0.23397 0 0.36424 0.11742 0.13027 0.11655 0.13027 0.32567 0 0.2074-0.14227 0.32481-0.14141 0.11742-0.39338 0.11742-0.10884 0-0.21597-0.0214-0.10627-0.0206-0.21169-0.0634v-0.25968q0.10456 0.06 0.19798 0.09 0.0943 0.03 0.1774 0.03 0.11999 0 0.18855-0.0583 0.0694-0.0591 0.0694-0.15941 0-0.10113-0.0694-0.15941-0.0686-0.0583-0.18855-0.0583-0.0711 0-0.15169 0.0189-0.0806 0.018-0.17312 0.0566z"/><path d="m175.88 396.88v0.27082q-0.10541-0.0471-0.20568-0.0711-0.10028-0.024-0.18941-0.024-0.11827 0-0.17483 0.0326-0.0566 0.0326-0.0566 0.10113 0 0.0514 0.0377 0.0806 0.0386 0.0283 0.13884 0.0489l0.14055 0.0283q0.21341 0.0428 0.30339 0.13027 0.09 0.0874 0.09 0.24854 0 0.21168-0.12598 0.31538-0.12513 0.10285-0.38309 0.10285-0.1217 0-0.24426-0.0231-0.12255-0.0231-0.24511-0.0686v-0.27854q0.12256 0.0651 0.23654 0.0986 0.11484 0.0326 0.22112 0.0326 0.10798 0 0.1654-0.036 0.0574-0.036 0.0574-0.10284 0-0.06-0.0394-0.0926-0.0386-0.0326-0.15512-0.0583l-0.1277-0.0283q-0.19198-0.0411-0.28111-0.13113-0.0883-0.09-0.0883-0.24254 0-0.19112 0.12341-0.29396t0.35481-0.10284q0.10542 0 0.21683 0.0163 0.11142 0.0154 0.23054 0.0471z"/></g><rect x="191.1" y="381.29" width="3.9417" height="1.9916" rx=".047399" ry=".023128"/><g transform="scale(1.0397 .96177)" fill="#fff" aria-label="6S"><path d="m185.09 397.49q-0.0866 0-0.13027 0.0566-0.0429 0.0557-0.0429 0.16797t0.0429 0.16884q0.0437 0.0557 0.13027 0.0557 0.0874 0 0.13027-0.0557 0.0437-0.0566 0.0437-0.16884 0-0.11227-0.0437-0.16797-0.0428-0.0566-0.13027-0.0566zm0.40795-0.61449v0.23654q-0.0814-0.0386-0.15341-0.0566-0.072-0.0189-0.14056-0.0189-0.14741 0-0.22968 0.0823-0.0823 0.0814-0.096 0.24254 0.0566-0.042 0.12256-0.0626 0.066-0.0214 0.14398-0.0214 0.19626 0 0.31624 0.11484 0.12084 0.11484 0.12084 0.30082 0 0.20569-0.13455 0.32996-0.13455 0.12341-0.36081 0.12341-0.2494 0-0.38652-0.16798-0.13627-0.16884-0.13627-0.47822 0-0.31711 0.15941-0.49794 0.16026-0.18169 0.4388-0.18169 0.0883 0 0.17141 0.0137 0.0831 0.0137 0.16455 0.0411z"/><path d="m186.72 396.88v0.27082q-0.10542-0.0471-0.20569-0.0711t-0.1894-0.024q-0.11827 0-0.17484 0.0326-0.0566 0.0326-0.0566 0.10113 0 0.0514 0.0377 0.0806 0.0386 0.0283 0.13884 0.0489l0.14055 0.0283q0.2134 0.0428 0.30339 0.13027 0.09 0.0874 0.09 0.24854 0 0.21168-0.12599 0.31538-0.12512 0.10285-0.38309 0.10285-0.1217 0-0.24425-0.0231-0.12256-0.0231-0.24511-0.0686v-0.27854q0.12255 0.0651 0.23654 0.0986 0.11484 0.0326 0.22111 0.0326 0.10799 0 0.16541-0.036 0.0574-0.036 0.0574-0.10284 0-0.06-0.0394-0.0926-0.0386-0.0326-0.15513-0.0583l-0.12769-0.0283q-0.19198-0.0411-0.28111-0.13113-0.0883-0.09-0.0883-0.24254 0-0.19112 0.12342-0.29396 0.12341-0.10284 0.35481-0.10284 0.10541 0 0.21683 0.0163 0.11141 0.0154 0.23054 0.0471z"/></g><rect x="117.46" y="380.3" width="3.9417" height="1.9916" rx=".047399" ry=".023128"/><g transform="scale(1.0397 .96177)" aria-label="1"><path d="m114.42 396.86h0.29139v-0.82703l-0.29911 0.0617v-0.22454l0.29739-0.0617h0.31368v1.0516h0.29139v0.22797h-0.89474z" fill="#fff"/></g><rect x="124.97" y="380.3" width="3.9417" height="1.9916" rx=".047399" ry=".023128"/><g transform="scale(1.0397 .96177)" aria-label="2"><path d="m121.99 396.86h0.56307v0.24254h-0.92988v-0.24254l0.46709-0.41223q0.0626-0.0566 0.0926-0.11056 0.03-0.054 0.03-0.11227 0-0.09-0.0609-0.14484-0.06-0.0548-0.16026-0.0548-0.0771 0-0.16884 0.0334-0.0917 0.0326-0.19626 0.0977v-0.2811q0.11142-0.0369 0.22026-0.0557 0.10884-0.0197 0.2134-0.0197 0.22968 0 0.35652 0.10113 0.1277 0.10113 0.1277 0.28196 0 0.10456-0.054 0.19541-0.054 0.09-0.22711 0.24168z" fill="#fff"/></g><rect x="132.48" y="380.3" width="3.9417" height="1.9916" rx=".047399" ry=".023128"/><g transform="scale(1.0397 .96177)" aria-label="3"><path d="m129.53 396.4q0.12941 0.0334 0.19626 0.11655 0.0677 0.0823 0.0677 0.20998 0 0.19026-0.1457 0.28967-0.14569 0.0986-0.42508 0.0986-0.0986 0-0.19798-0.0163-0.0986-0.0154-0.1954-0.0471v-0.25454q0.0926 0.0463 0.1834 0.0703 0.0917 0.0231 0.17998 0.0231 0.13112 0 0.20054-0.0454 0.0703-0.0454 0.0703-0.13027 0-0.0874-0.072-0.13199-0.0711-0.0454-0.21083-0.0454h-0.13198v-0.21254h0.13884q0.12427 0 0.18512-0.0386 0.0609-0.0394 0.0609-0.11913 0-0.0737-0.0591-0.11398-0.0591-0.0403-0.16712-0.0403-0.0797 0-0.16112 0.018-0.0814 0.018-0.16198 0.0531v-0.24168q0.0977-0.0274 0.19369-0.0411 0.096-0.0137 0.18854-0.0137 0.2494 0 0.37281 0.0823 0.12427 0.0814 0.12427 0.24597 0 0.11227-0.0591 0.18426-0.0591 0.0711-0.17484 0.10028z" fill="#fff"/></g><rect x="139.98" y="380.3" width="3.9417" height="1.9916" rx=".047399" ry=".023128"/><g transform="scale(1.0397 .96177)" aria-label="4"><path d="m136.57 396.08-0.36166 0.53565h0.36166zm-0.0548-0.27168h0.36681v0.80733h0.18255v0.23911h-0.18255v0.23311h-0.31196v-0.23311h-0.56735v-0.28282z" fill="#fff"/></g><path d="m115.65 390.01h30.086v-6.9857l-30.086-2.3e-4z" fill="#ebebeb" stroke="#000" stroke-width=".097721"/><path d="m115.96 384.78h1.7595l-3e-3 -1.0653 0.64032-5.7e-4v-0.39887h2.0639l-4.8e-4 0.39991h0.6665v1.0654h1.7514v4.5866l-6.8779 0.0149z" fill="#1a1a1a"/><path d="m121.24 384.5h1.7378v-0.74885h-1.7378z" fill="#008000"/><path d="m115.8 384.5h1.753v-0.75275h-1.753z" fill="#008000"/><path d="m123.46 384.78h1.7595l-3e-3 -1.0653 0.64032-5.7e-4v-0.39887h2.0639l-4.8e-4 0.39991h0.6665v1.0654h1.7514v4.5866l-6.8779 0.0149z" fill="#1a1a1a"/><path d="m128.74 384.5h1.7378v-0.74885h-1.7378z" fill="#008000"/><path d="m123.31 384.5h1.753v-0.75275h-1.753z" fill="#008000"/><path d="m130.97 384.78h1.7595l-3e-3 -1.0653 0.64033-5.7e-4v-0.39887h2.0639l-4.8e-4 0.39991h0.6665v1.0654h1.7514v4.5866l-6.8779 0.0149z" fill="#1a1a1a"/><path d="m136.25 384.5h1.7378v-0.74885h-1.7378z" fill="#008000"/><path d="m130.82 384.5h1.753v-0.75275h-1.753z" fill="#008000"/><path d="m138.48 384.78h1.7595l-3e-3 -1.0653 0.64033-5.7e-4v-0.39887h2.0639l-4.8e-4 0.39991h0.6665v1.0654h1.7514v4.5866l-6.8779 0.0149z" fill="#1a1a1a"/><path d="m143.76 384.5h1.7378v-0.74885h-1.7378z" fill="#008000"/><path d="m138.32 384.5h1.753v-0.75275h-1.753z" fill="#008000"/><g transform="matrix(1.0006 0 0 .99999 46.554 36.805)"><path d="m110.02 353.2h7.5579v-6.9858l-7.5579-2.3e-4z" fill="#ebebeb" stroke="#000" stroke-width=".09769"/><g transform="matrix(.0080752 0 0 .0080046 96.896 381.97)"><path d="m2560.5-3593.3v-872.71l-935.94-0.027v872.74z" fill="none" stroke="#000" stroke-linecap="square" stroke-width=".66037"/></g><path d="m110.32 347.98h1.7584l-3e-3 -1.0653 0.63992-5.7e-4v-0.39887h2.0626l-4.8e-4 0.39991h0.66608v1.0654h1.7503v4.5866l-6.8735 0.0149z" fill="#1a1a1a"/><path d="m115.6 347.7h1.7367v-0.74886h-1.7367v0.74886z" fill="#008000"/><path d="m110.16 347.7h1.752v-0.75276h-1.752v0.75276z" fill="#008000"/></g><g transform="matrix(1.0006 0 0 .99999 55.566 36.805)"><path d="m110.02 353.2h7.5579v-6.9858l-7.5579-2.3e-4z" fill="#3a3a3a"/><g transform="matrix(.0080752 0 0 .0080046 96.896 381.97)"><path d="m2560.5-3593.3v-872.71l-935.94-0.027v872.74z" fill="#ebebeb" stroke="#000" stroke-linecap="square" stroke-width="7.264"/></g><path d="m110.32 347.98h1.7584l-3e-3 -1.0653 0.63992-5.7e-4v-0.39887h2.0626l-4.8e-4 0.39991h0.66608v1.0654h1.7503v4.5866l-6.8735 0.0149z" fill="#1a1a1a"/><path d="m115.6 347.7h1.7367v-0.74886h-1.7367v0.74886z" fill="#008000"/><path d="m110.16 347.7h1.752v-0.75276h-1.752v0.75276z" fill="#008000"/></g><g fill="#fff" stroke-width="1px" aria-label="Wireless"><path d="m79.57 375.61h0.20213l0.31112 1.2504 0.31013-1.2504h0.22492l0.31112 1.2504 0.31013-1.2504h0.20312l-0.37156 1.4793h-0.25167l-0.31211-1.2841-0.31508 1.2841h-0.25167z"/><path d="m81.635 375.98h0.18231v1.1097h-0.18231zm0-0.432h0.18231v0.23087h-0.18231z"/><path d="m82.821 376.15q-0.03072-0.0178-0.06738-0.0258-0.03567-9e-3 -0.07927-9e-3 -0.15457 0-0.2378 0.10107-0.08224 0.10007-0.08224 0.28833v0.58458h-0.1833v-1.1097h0.1833v0.17241q0.05747-0.10107 0.14961-0.14962 0.09215-0.0495 0.22392-0.0495 0.01883 0 0.04162 3e-3 0.02279 2e-3 0.05053 7e-3z"/><path d="m83.899 376.49v0.0892h-0.83824q0.01189 0.18825 0.11295 0.28734 0.10206 0.0981 0.28338 0.0981 0.10503 0 0.20312-0.0258 0.09908-0.0258 0.19618-0.0773v0.17241q-0.09809 0.0416-0.20114 0.0634t-0.20906 0.0218q-0.26554 0-0.4211-0.15457-0.15457-0.15457-0.15457-0.41813 0-0.27247 0.14664-0.432 0.14763-0.16051 0.39732-0.16051 0.22393 0 0.35372 0.14466 0.13079 0.14367 0.13079 0.39137zm-0.18231-0.0535q-2e-3 -0.14961-0.08422-0.23879-0.08125-0.0892-0.216-0.0892-0.15259 0-0.24473 0.0862-0.09116 0.0862-0.10503 0.24275z"/><path d="m84.178 375.55h0.18231v1.5417h-0.18231z"/><path d="m85.67 376.49v0.0892h-0.83824q0.01189 0.18825 0.11295 0.28734 0.10206 0.0981 0.28338 0.0981 0.10503 0 0.20312-0.0258 0.09908-0.0258 0.19618-0.0773v0.17241q-0.09809 0.0416-0.20114 0.0634t-0.20906 0.0218q-0.26554 0-0.4211-0.15457-0.15457-0.15457-0.15457-0.41813 0-0.27247 0.14664-0.432 0.14763-0.16051 0.39732-0.16051 0.22393 0 0.35372 0.14466 0.13079 0.14367 0.13079 0.39137zm-0.18231-0.0535q-2e-3 -0.14961-0.08422-0.23879-0.08125-0.0892-0.216-0.0892-0.15259 0-0.24473 0.0862-0.09116 0.0862-0.10503 0.24275z"/><path d="m86.656 376.01v0.1724q-0.07728-0.0396-0.16051-0.0594t-0.1724-0.0198q-0.13574 0-0.20411 0.0416-0.06738 0.0416-0.06738 0.12484 0 0.0634 0.04855 0.10008 0.04855 0.0357 0.19519 0.0684l0.06242 0.0139q0.1942 0.0416 0.27545 0.1179 0.08224 0.0753 0.08224 0.21105 0 0.15457-0.12286 0.24473-0.12187 0.0902-0.33589 0.0902-0.08917 0-0.18627-0.0178-0.09611-0.0168-0.20312-0.0515v-0.18826q0.10106 0.0525 0.19916 0.0793 0.09809 0.0258 0.1942 0.0258 0.12881 0 0.19816-0.0436 0.06936-0.0446 0.06936-0.12484 0-0.0743-0.05053-0.11394-0.04954-0.0396-0.21897-0.0763l-0.06341-0.0149q-0.16943-0.0357-0.24473-0.10899-0.0753-0.0743-0.0753-0.20312 0-0.15655 0.11097-0.24176 0.11097-0.0852 0.31508-0.0852 0.10106 0 0.19024 0.0149 0.08917 0.0149 0.16448 0.0446z"/><path d="m87.694 376.01v0.1724q-0.07728-0.0396-0.16051-0.0594t-0.1724-0.0198q-0.13574 0-0.20411 0.0416-0.06738 0.0416-0.06738 0.12484 0 0.0634 0.04855 0.10008 0.04855 0.0357 0.19519 0.0684l0.06242 0.0139q0.1942 0.0416 0.27545 0.1179 0.08224 0.0753 0.08224 0.21105 0 0.15457-0.12286 0.24473-0.12187 0.0902-0.33589 0.0902-0.08917 0-0.18628-0.0178-0.09611-0.0168-0.20312-0.0515v-0.18826q0.10106 0.0525 0.19916 0.0793 0.09809 0.0258 0.1942 0.0258 0.12881 0 0.19816-0.0436 0.06936-0.0446 0.06936-0.12484 0-0.0743-0.05053-0.11394-0.04954-0.0396-0.21897-0.0763l-0.06341-0.0149q-0.16943-0.0357-0.24473-0.10899-0.0753-0.0743-0.0753-0.20312 0-0.15655 0.11097-0.24176 0.11097-0.0852 0.31508-0.0852 0.10106 0 0.19024 0.0149 0.08917 0.0149 0.16448 0.0446z"/></g><g fill="#fff" stroke-width="1px" aria-label="Controler"><path d="m80.763 377.76v0.21104q-0.10106-0.0941-0.216-0.14069-0.11394-0.0466-0.24275-0.0466-0.25365 0-0.3884 0.15556-0.13475 0.15456-0.13475 0.44785 0 0.29229 0.13475 0.44785 0.13475 0.15457 0.3884 0.15457 0.12881 0 0.24275-0.0466 0.11494-0.0466 0.216-0.1407v0.20906q-0.10503 0.0713-0.22294 0.10701-0.11692 0.0357-0.2477 0.0357-0.33589 0-0.5291-0.2051-0.19321-0.20609-0.19321-0.56179 0-0.3567 0.19321-0.5618 0.19321-0.20609 0.5291-0.20609 0.13277 0 0.24969 0.0357 0.11791 0.0347 0.22095 0.10503z"/><path d="m81.476 378.15q-0.14664 0-0.23185 0.11494-0.08521 0.11394-0.08521 0.3131 0 0.19915 0.08422 0.31409 0.08521 0.11394 0.23284 0.11394 0.14565 0 0.23086-0.11493 0.08521-0.11494 0.08521-0.3131 0-0.19717-0.08521-0.31211-0.08521-0.11593-0.23086-0.11593zm0-0.15456q0.2378 0 0.37354 0.15456 0.13574 0.15457 0.13574 0.42804 0 0.27248-0.13574 0.42803-0.13574 0.15457-0.37354 0.15457-0.23879 0-0.37453-0.15457-0.13475-0.15555-0.13475-0.42803 0-0.27347 0.13475-0.42804 0.13574-0.15456 0.37453-0.15456z"/><path d="m83.188 378.46v0.6698h-0.18231v-0.66385q0-0.15754-0.06143-0.23582-0.06143-0.0783-0.18429-0.0783-0.14763 0-0.23284 0.0941t-0.08521 0.25662v0.62719h-0.1833v-1.1097h0.1833v0.1724q0.06539-0.10007 0.15358-0.14961 0.08917-0.0495 0.2051-0.0495 0.19123 0 0.28932 0.1189 0.09809 0.1179 0.09809 0.34777z"/><path d="m83.714 377.71v0.31508h0.37552v0.14169h-0.37552v0.60242q0 0.13574 0.03666 0.17438 0.03765 0.0386 0.1516 0.0386h0.18726v0.15259h-0.18726q-0.21104 0-0.2913-0.0783-0.08026-0.0793-0.08026-0.28733v-0.60242h-0.13376v-0.14169h0.13376v-0.31508z"/><path d="m84.953 378.19q-0.03072-0.0178-0.06737-0.0258-0.03567-9e-3 -0.07927-9e-3 -0.15457 0-0.2378 0.10107-0.08224 0.10007-0.08224 0.28832v0.58459h-0.1833v-1.1097h0.1833v0.1724q0.05747-0.10106 0.14962-0.14961 0.09215-0.0495 0.22392-0.0495 0.01883 0 0.04161 3e-3 0.02279 2e-3 0.05053 7e-3z"/><path d="m85.512 378.15q-0.14664 0-0.23185 0.11494-0.08521 0.11394-0.08521 0.3131 0 0.19915 0.08422 0.31409 0.08521 0.11394 0.23284 0.11394 0.14565 0 0.23086-0.11493 0.08521-0.11494 0.08521-0.3131 0-0.19717-0.08521-0.31211-0.08521-0.11593-0.23086-0.11593zm0-0.15456q0.2378 0 0.37354 0.15456 0.13574 0.15457 0.13574 0.42804 0 0.27248-0.13574 0.42803-0.13574 0.15457-0.37354 0.15457-0.23879 0-0.37453-0.15457-0.13475-0.15555-0.13475-0.42803 0-0.27347 0.13475-0.42804 0.13574-0.15456 0.37453-0.15456z"/><path d="m86.303 377.59h0.18231v1.5417h-0.18231z"/><path d="m87.794 378.53v0.0892h-0.83824q0.01189 0.18825 0.11295 0.28733 0.10205 0.0981 0.28338 0.0981 0.10503 0 0.20312-0.0258 0.09908-0.0258 0.19618-0.0773v0.1724q-0.09809 0.0416-0.20114 0.0634t-0.20906 0.0218q-0.26554 0-0.4211-0.15457-0.15457-0.15456-0.15457-0.41812 0-0.27248 0.14664-0.432 0.14763-0.16051 0.39732-0.16051 0.22393 0 0.35372 0.14466 0.13079 0.14367 0.13079 0.39137zm-0.18231-0.0535q-2e-3 -0.14962-0.08422-0.23879-0.08125-0.0892-0.216-0.0892-0.15259 0-0.24473 0.0862-0.09116 0.0862-0.10503 0.24275z"/><path d="m88.716 378.19q-0.03072-0.0178-0.06738-0.0258-0.03567-9e-3 -0.07927-9e-3 -0.15457 0-0.2378 0.10107-0.08224 0.10007-0.08224 0.28832v0.58459h-0.1833v-1.1097h0.1833v0.1724q0.05747-0.10106 0.14961-0.14961 0.09215-0.0495 0.22393-0.0495 0.01883 0 0.04161 3e-3 0.02279 2e-3 0.05053 7e-3z"/></g><rect x="175.43" y="386.19" width="1.6824" height="1.2864" rx=".086274" ry=".042097" fill="#e6e6e6" stroke="#000" stroke-width=".21244"/><rect x="175.48" y="388.37" width="1.6824" height="1.2864" rx=".086274" ry=".042097" fill="#e6e6e6" stroke="#000" stroke-width=".21244"/><g transform="translate(-.048821 .11445)" fill="#e6e6e6" stroke="#000" stroke-width=".21244"><rect x="186.81" y="386.08" width="1.6824" height="1.2864" rx=".086274" ry=".042097"/><rect x="186.86" y="388.25" width="1.6824" height="1.2864" rx=".086274" ry=".042097"/></g><g transform="matrix(0 -1.4642 1.4642 0 -75.006 1070)"><rect x="464.5" y="172.59" width="4" height="5.6"/><rect x="464.5" y="172.59" width="4" height="5.6" fill="none" stroke="#7f7f7f" stroke-width=".2"/><polygon points="468.3 172.79 464.7 172.79 464.7 174.19 464.9 174.19 464.9 176.79 464.7 176.79 464.7 177.99 468.3 177.99"/><polygon points="468.3 172.79 464.7 172.79 464.7 174.19 464.9 174.19 464.9 176.79 464.7 176.79 464.7 177.99 468.3 177.99" fill="none" stroke="#7f7f7f" stroke-width=".1"/></g><g transform="matrix(0 -1.4642 1.4642 0 -63.741 1070)"><rect x="464.5" y="172.59" width="4" height="5.6"/><rect x="464.5" y="172.59" width="4" height="5.6" fill="none" stroke="#7f7f7f" stroke-width=".2"/><polygon points="464.7 177.99 468.3 177.99 468.3 172.79 464.7 172.79 464.7 174.19 464.9 174.19 464.9 176.79 464.7 176.79"/><polygon points="464.7 177.99 468.3 177.99 468.3 172.79 464.7 172.79 464.7 174.19 464.9 174.19 464.9 176.79 464.7 176.79" fill="none" stroke="#7f7f7f" stroke-width=".1"/></g><g transform="matrix(1.5209 0 0 1.6602 -36.077 -265.21)"><polygon points="71.589 395.79 71.589 396.19 70.389 396.19 70.389 395.79 69.989 395.79 69.989 395.19 68.589 395.19 68.589 392.59 73.389 392.59 73.389 395.19 71.989 395.19 71.989 395.79"/><polygon points="71.589 395.79 71.589 396.19 70.389 396.19 70.389 395.79 69.989 395.79 69.989 395.19 68.589 395.19 68.589 392.59 73.389 392.59 73.389 395.19 71.989 395.19 71.989 395.79" fill="none" stroke="#7f7f7f" stroke-width=".2"/></g><rect x="70.527" y="379.31" width="6.1054" height="1.1333" rx=".31642" ry=".1544" fill="#00ff1f"/><rect x="70.572" y="381.36" width="6.1054" height="1.1333" rx=".31642" ry=".1544" fill="#838383"/><ellipse cx="73.601" cy="384.31" rx=".76392" ry=".76344" fill="#838383"/><g transform="translate(.46962 -.25176)"><path d="m71.657 377.52c-0.02159 0-0.04309-4.1e-4 -0.06454-7.9e-4l0.44389-1.2199h0.61088c0.10722 0 0.22493-0.0824 0.2616-0.18314l0.48159-1.3228c0.07878-0.21657-0.04526-0.39375-0.27571-0.39375h-0.84749l-0.71109 1.954h-2.03e-4l-0.40312 1.1077c-0.9564-0.22738-1.6678-1.0871-1.6678-2.1131 0-0.99637 0.67093-1.836 1.5856-2.0919l-0.41595 1.1433h-1.14e-4l-0.6915 1.8997 0.46033 4e-5 0.58807-1.6142h0.34596l-0.58807 1.6142 0.46016 8e-5 0.54802-1.506c0.07884-0.21657-0.04522-0.39375-0.27546-0.39375h-0.38696l0.44432-1.2212c0.03239-2e-3 0.0649-2e-3 0.09762-2e-3 1.1996 0 2.172 0.97244 2.172 2.172 0 1.1996-0.97245 2.172-2.172 2.172zm1.3142-2.8363h-0.34587l-0.48435 1.329h0.34588z" fill="#1a1a1a"/><path d="m71.574 377.44c-0.02159 0-0.04309-4.1e-4 -0.06454-7.9e-4l0.44389-1.2199h0.61088c0.10722 0 0.22493-0.0824 0.2616-0.18314l0.48159-1.3228c0.07878-0.21657-0.04526-0.39375-0.27571-0.39375h-0.84749l-0.71109 1.954h-2.03e-4l-0.40312 1.1077c-0.9564-0.22738-1.6678-1.0871-1.6678-2.1131 0-0.99637 0.67093-1.836 1.5856-2.0919l-0.41595 1.1433h-1.14e-4l-0.6915 1.8997 0.46033 4e-5 0.58807-1.6142h0.34596l-0.58807 1.6142 0.46016 8e-5 0.54802-1.506c0.07884-0.21657-0.04522-0.39375-0.27546-0.39375h-0.38696l0.44432-1.2212c0.03239-2e-3 0.0649-2e-3 0.09762-2e-3 1.1996 0 2.172 0.97244 2.172 2.172 0 1.1996-0.97245 2.172-2.172 2.172zm1.3142-2.8363h-0.34587l-0.48435 1.329h0.34588z" fill="#ccc"/></g><ellipse cx="83.032" cy="387.42" rx=".76392" ry=".76344"/><circle cx="78.629" cy="391.52" r=".38838"/><circle cx="83.789" cy="391.52" r=".38838"/><g transform="translate(.004581 2.4797)"><g transform="translate(-10.569 -15.468)"><rect x="95.462" y="396.24" width="3.3193" height="1.9916" rx=".089249" ry=".043549"/><g fill="#0f0" stroke-width="1px"><path d="m96.52 397.61h-0.47876l-0.07555 0.21632h-0.30778l0.43979-1.1874h0.36504l0.43979 1.1874h-0.30778l-0.07476-0.21632zm-0.40241-0.22029h0.32527l-0.16224-0.4724z"/><path d="m97.75 396.96v0.23222q-0.05805-0.0398-0.11691-0.0589-0.05806-0.0191-0.12088-0.0191-0.11929 0-0.1861 0.07-0.06601 0.0692-0.06601 0.19405 0 0.12486 0.06601 0.19484 0.0668 0.0692 0.1861 0.0692 0.0668 0 0.12645-0.0199 0.06044-0.0199 0.11134-0.0589v0.23302q-0.0668 0.0247-0.13599 0.0366-0.0684 0.0127-0.13758 0.0127-0.24097 0-0.37696-0.12327-0.13599-0.12406-0.13599-0.34435 0-0.2203 0.13599-0.34357 0.13599-0.12406 0.37696-0.12406 0.06999 0 0.13758 0.0127 0.06839 0.0119 0.13599 0.0366z"/><path d="m98.292 396.68v0.2529h0.29346v0.2036h-0.29346v0.37775q0 0.062 0.02465 0.0843 0.02465 0.0215 0.09782 0.0215h0.14633v0.20359h-0.24415q-0.1686 0-0.23938-0.07-0.06999-0.0708-0.06999-0.23939v-0.37775h-0.14156v-0.2036h0.14156v-0.2529h0.28471z"/></g></g><g transform="translate(-6.4846 -1.7609)"><rect x="91.461" y="384.9" width="3.3193" height="1.9916" rx=".089249" ry=".043549"/><g fill="#b3b3b3" stroke-width="1px"><path d="m91.636 385.3h0.8263v0.23143h-0.52012v0.22108h0.4891v0.23143h-0.4891v0.50342h-0.30618z"/><path d="m92.87 385.53v0.7245h0.10975q0.18769 0 0.2863-0.0931 0.09941-0.0931 0.09941-0.2704 0-0.17655-0.09861-0.2688-0.09862-0.0922-0.2871-0.0922h-0.10975zm-0.30618-0.23143h0.32288q0.2704 0 0.40241 0.039 0.13281 0.0382 0.22745 0.13042 0.08351 0.0803 0.12406 0.1853 0.04056 0.10498 0.04056 0.23779 0 0.13441-0.04056 0.24018-0.04056 0.10498-0.12406 0.1853-0.09543 0.0923-0.22904 0.13122-0.13361 0.0382-0.40082 0.0382h-0.32288v-1.1874z"/><path d="m93.942 386.03-0.3213-0.43502h0.30141l0.18212 0.26403 0.18451-0.26403h0.30141l-0.32129 0.43343 0.3372 0.45729h-0.30141l-0.20041-0.28153-0.19803 0.28153h-0.30141z"/></g></g><g transform="translate(-6.4846 -1.7609)"><rect x="91.467" y="387.41" width="3.3193" height="1.9916" rx=".089249" ry=".043549"/><g fill="#b3b3b3" stroke-width="1px"><path d="m92.545 387.71v0.25131q-0.09782-0.0437-0.19087-0.066t-0.17576-0.0223q-0.10975 0-0.16224 0.0302t-0.05249 0.0938q0 0.0477 0.03499 0.0748 0.03579 0.0262 0.12884 0.0453l0.13043 0.0263q0.19803 0.0398 0.28153 0.12088 0.08351 0.0811 0.08351 0.23063 0 0.19644-0.11691 0.29267-0.11611 0.0954-0.35549 0.0954-0.11293 0-0.22666-0.0215t-0.22745-0.0636v-0.25846q0.11372 0.0604 0.2195 0.0914 0.10657 0.0302 0.20518 0.0302 0.10021 0 0.15349-0.0334t0.05328-0.0954q0-0.0557-0.03658-0.0859-0.03579-0.0302-0.14395-0.0541l-0.1185-0.0262q-0.17814-0.0382-0.26085-0.12168-0.08191-0.0835-0.08191-0.22507 0-0.17735 0.11452-0.27278 0.11452-0.0954 0.32925-0.0954 0.09782 0 0.20121 0.0151 0.10339 0.0143 0.21393 0.0437z"/><path d="m92.979 388.73v0.46763h-0.28471v-1.2295h0.28471v0.13043q0.05885-0.0779 0.13043-0.11453 0.07158-0.0374 0.16462-0.0374 0.16462 0 0.2704 0.13122 0.10577 0.13042 0.10577 0.3364t-0.10577 0.3372q-0.10577 0.13043-0.2704 0.13043-0.09305 0-0.16462-0.0366-0.07158-0.0374-0.13043-0.11532zm0.18928-0.57658q-0.09146 0-0.14077 0.0676-0.04851 0.0668-0.04851 0.19325t0.04851 0.19405q0.04931 0.0668 0.14077 0.0668t0.13917-0.0668q0.04851-0.0668 0.04851-0.19405 0-0.12724-0.04851-0.19405-0.04772-0.0668-0.13917-0.0668z"/><path d="m94.282 388.1v-0.47718h0.2863v1.2375h-0.2863v-0.12884q-0.05885 0.0787-0.12963 0.11532-0.07078 0.0366-0.16383 0.0366-0.16462 0-0.2704-0.13043-0.10577-0.13122-0.10577-0.3372t0.10577-0.3364q0.10577-0.13122 0.2704-0.13122 0.09225 0 0.16303 0.0374 0.07157 0.0366 0.13043 0.11453zm-0.18769 0.57658q0.09146 0 0.13918-0.0668 0.04851-0.0668 0.04851-0.19405 0-0.12724-0.04851-0.19405-0.04772-0.0668-0.13918-0.0668-0.09066 0-0.13918 0.0668-0.04772 0.0668-0.04772 0.19405t0.04772 0.19405q0.04851 0.0668 0.13918 0.0668z"/></g></g></g><path d="m84.835 390.04h-1.8165v-1.6428" fill="none" stroke="#000" stroke-width=".15933"/><path d="m84.835 383.35h-1.8223v0.88563" fill="none" stroke="#000" stroke-width=".14759"/><g transform="translate(.004581 -5e-6)" stroke-width="1px"><path d="m86.372 391.23v0.10875q-0.05208-0.0485-0.1113-0.0725-0.05871-0.024-0.12509-0.024-0.1307 0-0.20014 0.0802-0.06944 0.0796-0.06944 0.23077 0 0.15062 0.06944 0.23077 0.06943 0.0797 0.20014 0.0797 0.06637 0 0.12509-0.024 0.05922-0.024 0.1113-0.0725v0.10773q-0.05412 0.0368-0.11488 0.0551-0.06025 0.0184-0.12764 0.0184-0.17308 0-0.27264-0.10568-0.09956-0.1062-0.09956-0.28949 0-0.1838 0.09956-0.28948 0.09956-0.1062 0.27264-0.1062 0.06841 0 0.12866 0.0184 0.06076 0.0179 0.11385 0.0541z"/><path d="m86.518 391.14h0.09394v0.79443h-0.09394z"/><path d="m87.287 391.62v0.046h-0.43193q0.0061 0.097 0.0582 0.14806 0.05259 0.0505 0.14602 0.0505 0.05412 0 0.10466-0.0133 0.05106-0.0133 0.10109-0.0398v0.0888q-0.05054 0.0215-0.10364 0.0327t-0.10773 0.0112q-0.13683 0-0.21698-0.0796-0.07965-0.0797-0.07965-0.21546 0-0.1404 0.07556-0.2226 0.07607-0.0827 0.20473-0.0827 0.11538 0 0.18227 0.0745 0.06739 0.074 0.06739 0.20167zm-0.09394-0.0276q-1e-3 -0.0771-0.0434-0.12304-0.04187-0.046-0.1113-0.046-0.07863 0-0.12611 0.0444-0.04697 0.0444-0.05412 0.12509l0.33492-5.1e-4z"/><path d="m87.69 391.65q-0.11385 0-0.15776 0.026t-0.04391 0.0888q0 0.05 0.03267 0.0796 0.03319 0.0291 0.08986 0.0291 0.07812 0 0.12509-0.0551 0.04748-0.0556 0.04748-0.14755v-0.0209h-0.09343zm0.18737-0.0388v0.32625h-0.09394v-0.0868q-0.03217 0.0521-0.08016 0.0771-0.04799 0.0245-0.11743 0.0245-0.08782 0-0.13989-0.049-0.05157-0.0495-0.05157-0.13224 0-0.0965 0.06433-0.1455 0.06484-0.049 0.19299-0.049h0.13172v-9e-3q0-0.0648-0.04289-0.10007-0.04238-0.0357-0.11947-0.0357-0.04901 0-0.09547 0.0117t-0.08935 0.0352v-0.0868q0.05157-0.0199 0.10007-0.0296 0.0485-0.0102 0.09445-0.0102 0.12406 0 0.18533 0.0643t0.06127 0.19503z"/><path d="m88.393 391.45q-0.01583-9e-3 -0.03472-0.0133-0.01838-5e-3 -0.04084-5e-3 -0.07965 0-0.12253 0.0521-0.04238 0.0516-0.04238 0.14857v0.30123h-0.09445v-0.57183h0.09445v0.0888q0.02961-0.0521 0.07709-0.0771 0.04748-0.0255 0.11538-0.0255 0.0097 0 0.02144 2e-3 0.01174 1e-3 0.02604 4e-3l5.11e-4 0.0965z"/></g><g transform="translate(.004581 -5e-6)" stroke-width="1px"><path d="m79.781 391.48q0.03319 0.0112 0.06433 0.048 0.03165 0.0368 0.06331 0.10109l0.10466 0.2083h-0.11079l-0.09752-0.19554q-0.03778-0.0766-0.07352-0.1016-0.03523-0.025-0.0965-0.025h-0.11232v0.32216h-0.10313v-0.76226h0.23281q0.1307 0 0.19503 0.0546t0.06433 0.16491q0 0.072-0.0337 0.11947-0.03319 0.0475-0.09701 0.0659zm-0.25834-0.32011v0.27059h0.12968q0.07454 0 0.11232-0.0342 0.03829-0.0347 0.03829-0.1016t-0.03829-0.10058q-0.03778-0.0342-0.11232-0.0342h-0.12968z"/><path d="m80.574 391.53v0.046h-0.43193q0.0061 0.097 0.0582 0.14806 0.05259 0.0505 0.14602 0.0505 0.05412 0 0.10466-0.0133 0.05106-0.0133 0.10109-0.0398v0.0888q-0.05054 0.0214-0.10364 0.0327-0.0531 0.0112-0.10773 0.0112-0.13683 0-0.21699-0.0796-0.07965-0.0796-0.07965-0.21545 0-0.1404 0.07556-0.2226 0.07607-0.0827 0.20473-0.0827 0.11538 0 0.18227 0.0745 0.06739 0.074 0.06739 0.20167zm-0.09394-0.0276q-1e-3 -0.0771-0.0434-0.12305-0.04187-0.046-0.1113-0.046-0.07863 0-0.12611 0.0444-0.04697 0.0444-0.05412 0.12509l0.33492-5.1e-4z"/><path d="m81.082 391.28v0.0888q-0.03982-0.0204-0.08271-0.0306t-0.08884-0.0102q-0.06995 0-0.10517 0.0214-0.03472 0.0214-0.03472 0.0643 0 0.0327 0.02502 0.0516 0.02502 0.0184 0.10058 0.0352l0.03217 7e-3q0.10007 0.0214 0.14193 0.0607 0.04238 0.0388 0.04238 0.10875 0 0.0797-0.06331 0.12611-0.0628 0.0465-0.17308 0.0465-0.04595 0-0.09598-9e-3 -0.04952-9e-3 -0.10466-0.0265v-0.097q0.05208 0.0271 0.10262 0.0409 0.05054 0.0133 0.10007 0.0133 0.06637 0 0.10211-0.0225 0.03574-0.023 0.03574-0.0643 0-0.0383-0.02604-0.0587-0.02553-0.0204-0.11283-0.0393l-0.03267-8e-3q-0.08731-0.0184-0.12611-0.0562-0.0388-0.0383-0.0388-0.10466 0-0.0807 0.05718-0.12458 0.05718-0.0439 0.16236-0.0439 0.05208 0 0.09803 8e-3t0.08475 0.023z"/><path d="m81.742 391.53v0.046h-0.43193q0.0061 0.097 0.0582 0.14806 0.05259 0.0505 0.14602 0.0505 0.05412 0 0.10466-0.0133 0.05106-0.0133 0.10109-0.0398v0.0888q-0.05054 0.0214-0.10364 0.0327-0.0531 0.0112-0.10773 0.0112-0.13683 0-0.21699-0.0796-0.07965-0.0796-0.07965-0.21545 0-0.1404 0.07556-0.2226 0.07607-0.0827 0.20473-0.0827 0.11539 0 0.18227 0.0745 0.06739 0.074 0.06739 0.20167zm-0.09394-0.0276q-1e-3 -0.0771-0.0434-0.12305-0.04187-0.046-0.1113-0.046-0.07863 0-0.12611 0.0444-0.04697 0.0444-0.05412 0.12509l0.33492-5.1e-4z"/><path d="m81.978 391.1v0.16236h0.1935v0.073h-0.1935v0.31042q0 0.0699 0.01889 0.0899 0.0194 0.0199 0.07811 0.0199h0.0965v0.0786h-0.0965q-0.10875 0-0.1501-0.0403-0.04135-0.0408-0.04135-0.14806v-0.31042h-0.06893v-0.073h0.06893v-0.16236h0.09445z"/></g><g transform="matrix(.75766 0 0 .75766 21.312 94.212)" stroke-width="1px"><path d="m80.397 383.16h0.10313v0.67547h0.37117v0.0868h-0.47431v-0.76226z"/><path d="m80.969 383.16h0.48196v0.0868h-0.37883v0.22566h0.363v0.0868h-0.363v0.27621h0.38802v0.0868h-0.49115v-0.76226z"/><path d="m81.723 383.24v0.59276h0.12458q0.15776 0 0.23077-0.0715 0.07352-0.0715 0.07352-0.22566 0-0.15317-0.07352-0.22414-0.07301-0.0715-0.23077-0.0715h-0.12458zm-0.10313-0.0847h0.21188q0.22158 0 0.32522 0.0924 0.10364 0.0919 0.10364 0.28796 0 0.19707-0.10415 0.28948-0.10415 0.0924-0.32471 0.0924h-0.21188v-0.76226z"/><path d="m80.397 383.98h0.15368l0.19452 0.51873 0.19554-0.51873h0.15368v0.76226h-0.10058v-0.66934l-0.19656 0.52281h-0.10364l-0.19656-0.52281v0.66934h-0.10007z"/><path d="m81.507 384.24q-0.07556 0-0.11947 0.0592-0.04391 0.0587-0.04391 0.16133 0 0.10262 0.0434 0.16185 0.04391 0.0587 0.11998 0.0587 0.07505 0 0.11896-0.0592t0.04391-0.16134q0-0.1016-0.04391-0.16082-0.04391-0.0597-0.11896-0.0597zm0-0.0797q0.12253 0 0.19248 0.0797 0.06995 0.0796 0.06995 0.22056 0 0.1404-0.06995 0.22056-0.06995 0.0797-0.19248 0.0797-0.12304 0-0.19299-0.0797-0.06944-0.0802-0.06944-0.22056 0-0.14091 0.06944-0.22056 0.06995-0.0797 0.19299-0.0797z"/><path d="m82.29 384.26v-0.30939h0.09394v0.79442h-0.09394v-0.0858q-0.02961 0.051-0.07505 0.0761-0.04493 0.0245-0.10824 0.0245-0.10364 0-0.16899-0.0827-0.06484-0.0827-0.06484-0.2175 0-0.13479 0.06484-0.2175 0.06535-0.0827 0.16899-0.0827 0.06331 0 0.10824 0.025 0.04544 0.0245 0.07505 0.0756zm-0.32012 0.19963q0 0.10364 0.04238 0.16287 0.04289 0.0587 0.11743 0.0587t0.11743-0.0587q0.04289-0.0592 0.04289-0.16287 0-0.10364-0.04289-0.16236-0.04289-0.0592-0.11743-0.0592t-0.11743 0.0592q-0.04238 0.0587-0.04238 0.16236z"/><path d="m83.057 384.44v0.046h-0.43193q0.0061 0.097 0.0582 0.14807 0.05259 0.0505 0.14602 0.0505 0.05412 0 0.10466-0.0133 0.05106-0.0133 0.10109-0.0398v0.0888q-0.05054 0.0214-0.10364 0.0327-0.0531 0.0112-0.10773 0.0112-0.13683 0-0.21699-0.0797-0.07965-0.0796-0.07965-0.21545 0-0.14041 0.07556-0.22261 0.07607-0.0827 0.20473-0.0827 0.11539 0 0.18227 0.0745 0.06739 0.074 0.06739 0.20166zm-0.09394-0.0276q-1e-3 -0.0771-0.0434-0.12304-0.04187-0.046-0.1113-0.046-0.07863 0-0.12611 0.0444-0.04697 0.0444-0.05412 0.12509l0.33492-5.2e-4z"/></g><path d="m83.013 385.95v0.34957" fill="none" stroke="#000" stroke-width=".14759"/><g fill="#fff" stroke-width="1px"><g transform="translate(.004581 -5e-6)"><path d="m67.35 379.57v0.28642h0.12968q0.07199 0 0.1113-0.0373t0.03931-0.1062q0-0.0684-0.03931-0.10568-0.03931-0.0373-0.1113-0.0373h-0.12968zm-0.10313-0.0848h0.23281q0.12815 0 0.1935 0.0582 0.06586 0.0577 0.06586 0.1695 0 0.11284-0.06586 0.17053-0.06535 0.0577-0.1935 0.0577h-0.12968v0.30633h-0.10313v-0.76225z"/><path d="m68.048 379.74q-0.07556 0-0.11947 0.0592-0.04391 0.0587-0.04391 0.16133t0.0434 0.16185q0.04391 0.0587 0.11998 0.0587 0.07505 0 0.11896-0.0592t0.04391-0.16134q0-0.1016-0.04391-0.16082-0.04391-0.0597-0.11896-0.0597zm0-0.0796q0.12253 0 0.19248 0.0796t0.06995 0.22056q0 0.14041-0.06995 0.22056-0.06995 0.0796-0.19248 0.0796-0.12304 0-0.19299-0.0796-0.06944-0.0802-0.06944-0.22056 0-0.14091 0.06944-0.22056 0.06995-0.0796 0.19299-0.0796z"/><path d="m68.401 379.68h0.09394l0.11743 0.44623 0.11692-0.44623h0.11079l0.11743 0.44623 0.11692-0.44623h0.09394l-0.14959 0.57182h-0.11079l-0.12304-0.46868-0.12355 0.46868h-0.11079l-0.14959-0.57182z"/><path d="m69.79 379.94v0.046h-0.43193q0.0061 0.097 0.0582 0.14806 0.05259 0.0505 0.14602 0.0505 0.05412 0 0.10466-0.0133 0.05106-0.0133 0.10109-0.0398v0.0888q-0.05054 0.0215-0.10364 0.0327t-0.10773 0.0112q-0.13683 0-0.21698-0.0796-0.07965-0.0796-0.07965-0.21545 0-0.1404 0.07556-0.2226 0.07607-0.0827 0.20473-0.0827 0.11538 0 0.18227 0.0745 0.06739 0.074 0.06739 0.20167zm-0.09394-0.0276q-1e-3 -0.0771-0.0434-0.12305-0.04187-0.046-0.1113-0.046-0.07863 0-0.12611 0.0444-0.04697 0.0444-0.05412 0.12509l0.33492-5.1e-4z"/><path d="m70.265 379.77q-0.01583-9e-3 -0.03472-0.0133-0.01838-5e-3 -0.04084-5e-3 -0.07965 0-0.12253 0.0521-0.04238 0.0516-0.04238 0.14857v0.30122h-0.09445v-0.57182h0.09445v0.0888q0.02961-0.0521 0.07709-0.0771 0.04748-0.0255 0.11539-0.0255 0.0097 0 0.02144 2e-3 0.01174 1e-3 0.02604 4e-3l5.11e-4 0.0965z"/></g><g transform="translate(.004581 -5e-6)"><path d="m67.247 381.56h0.43806v0.0868h-0.33492v0.22464h0.30225v0.0868h-0.30225v0.36403h-0.10313v-0.76226z"/><path d="m67.999 382.03q-0.11385 0-0.15776 0.026t-0.04391 0.0888q0 0.05 0.03268 0.0797 0.03319 0.0291 0.08986 0.0291 0.07811 0 0.12509-0.0551 0.04748-0.0557 0.04748-0.14755v-0.0209h-0.09343zm0.18737-0.0388v0.32624h-0.09394v-0.0868q-0.03216 0.0521-0.08016 0.0771-0.04799 0.0245-0.11743 0.0245-0.08781 0-0.13989-0.049-0.05157-0.0495-0.05157-0.13223 0-0.0965 0.06433-0.14551 0.06484-0.049 0.19299-0.049h0.13172v-9e-3q0-0.0648-0.04289-0.10007-0.04238-0.0357-0.11947-0.0357-0.04901 0-0.09547 0.0117-0.04646 0.0118-0.08935 0.0352v-0.0868q0.05157-0.0199 0.10007-0.0296 0.0485-0.0102 0.09445-0.0102 0.12406 0 0.18533 0.0643t0.06127 0.19504z"/><path d="m68.36 382.09v-0.34616h0.09394v0.34258q0 0.0812 0.03165 0.12202 0.03166 0.0403 0.09496 0.0403 0.07607 0 0.11998-0.0485 0.04442-0.0485 0.04442-0.13223v-0.3242h0.09394v0.57182h-0.09394v-0.0878q-0.03421 0.0521-0.07965 0.0776-0.04493 0.025-0.10466 0.025-0.09854 0-0.14959-0.0613-0.05106-0.0613-0.05106-0.1792zm0.23639-0.35995z"/><path d="m69.023 381.52h0.09394v0.79442h-0.09394z"/><path d="m69.395 381.58v0.16236h0.1935v0.073h-0.1935v0.31042q0 0.0699 0.01889 0.0899 0.0194 0.0199 0.07811 0.0199h0.0965v0.0786h-0.0965q-0.10875 0-0.1501-0.0403-0.04135-0.0409-0.04135-0.14806v-0.31042h-0.06892v-0.073h0.06892v-0.16236h0.09445z"/></g><g transform="translate(.004581 -5e-6)"><path d="m67.247 383.92h0.10313v0.67546h0.37117v0.0868h-0.47431z"/><path d="m68.018 384.18q-0.07556 0-0.11947 0.0592-0.04391 0.0587-0.04391 0.16133t0.0434 0.16185q0.04391 0.0587 0.11998 0.0587 0.07505 0 0.11896-0.0592t0.04391-0.16134q0-0.1016-0.04391-0.16082-0.04391-0.0597-0.11896-0.0597zm0-0.0797q0.12253 0 0.19248 0.0797 0.06995 0.0796 0.06995 0.22055 0 0.14041-0.06995 0.22056-0.06995 0.0796-0.19248 0.0796-0.12304 0-0.19299-0.0796-0.06944-0.0802-0.06944-0.22056 0-0.14091 0.06944-0.22055 0.06995-0.0797 0.19299-0.0797z"/><path d="m68.836 384.13v0.0878q-0.03982-0.022-0.08016-0.0327-0.03982-0.0112-0.08067-0.0112-0.09139 0-0.14194 0.0582-0.05054 0.0577-0.05054 0.16235 0 0.10467 0.05054 0.16287 0.05054 0.0577 0.14194 0.0577 0.04084 0 0.08067-0.0107 0.04033-0.0112 0.08016-0.0332v0.0868q-0.03931 0.0184-0.08169 0.0276-0.04187 9e-3 -0.08935 9e-3 -0.12917 0-0.20524-0.0812t-0.07607-0.21903q0-0.13989 0.07658-0.22004 0.07709-0.0802 0.21086-0.0802 0.0434 0 0.08475 9e-3t0.08016 0.0265z"/><path d="m69.25 384.4q-0.11385 0-0.15776 0.026t-0.04391 0.0888q0 0.05 0.03268 0.0796 0.03319 0.0291 0.08986 0.0291 0.07811 0 0.12509-0.0551 0.04748-0.0557 0.04748-0.14755v-0.0209h-0.09343zm0.18737-0.0388v0.32625h-0.09394v-0.0868q-0.03216 0.0521-0.08016 0.0771-0.04799 0.0245-0.11743 0.0245-0.08782 0-0.13989-0.049-0.05157-0.0495-0.05157-0.13224 0-0.0965 0.06433-0.1455 0.06484-0.049 0.19299-0.049h0.13172v-9e-3q0-0.0648-0.04289-0.10007-0.04238-0.0357-0.11947-0.0357-0.04901 0-0.09547 0.0117t-0.08935 0.0352v-0.0868q0.05157-0.0199 0.10007-0.0296 0.0485-0.0102 0.09445-0.0102 0.12406 0 0.18533 0.0643t0.06127 0.19503z"/><path d="m69.714 383.95v0.16235h0.1935v0.073h-0.1935v0.31042q0 0.07 0.01889 0.0899 0.0194 0.0199 0.07812 0.0199h0.09649v0.0786h-0.09649q-0.10875 0-0.1501-0.0403-0.04136-0.0408-0.04136-0.14806v-0.31042h-0.06892v-0.073h0.06892v-0.16235h0.09445z"/><path d="m70.243 384.18q-0.07556 0-0.11947 0.0592-0.04391 0.0587-0.04391 0.16133t0.0434 0.16185q0.04391 0.0587 0.11998 0.0587 0.07505 0 0.11896-0.0592t0.04391-0.16134q0-0.1016-0.04391-0.16082-0.04391-0.0597-0.11896-0.0597zm0-0.0797q0.12253 0 0.19248 0.0797 0.06995 0.0796 0.06995 0.22055 0 0.14041-0.06995 0.22056-0.06995 0.0796-0.19248 0.0796-0.12304 0-0.19299-0.0796-0.06943-0.0802-0.06943-0.22056 0-0.14091 0.06943-0.22055 0.06995-0.0797 0.19299-0.0797z"/><path d="m70.981 384.2q-0.01583-9e-3 -0.03472-0.0133-0.01838-5e-3 -0.04084-5e-3 -0.07965 0-0.12253 0.0521-0.04238 0.0516-0.04238 0.14857v0.30123h-0.09445v-0.57183h0.09445v0.0888q0.02961-0.0521 0.07709-0.0771 0.04748-0.0255 0.11539-0.0255 0.0097 0 0.02144 2e-3 0.01174 1e-3 0.02604 4e-3l5.11e-4 0.0965z"/></g></g><g transform="translate(.004581 -5e-6)" fill="#fff" stroke-width="1px"><path d="m70.512 393.35v0.10875q-0.05208-0.0485-0.1113-0.0725-0.05871-0.024-0.12509-0.024-0.1307 0-0.20014 0.0802-0.06943 0.0797-0.06943 0.23077 0 0.15061 0.06943 0.23077 0.06944 0.0797 0.20014 0.0797 0.06637 0 0.12509-0.024 0.05922-0.024 0.1113-0.0725v0.10773q-0.05412 0.0368-0.11488 0.0551-0.06025 0.0184-0.12764 0.0184-0.17308 0-0.27264-0.10569-0.09956-0.10619-0.09956-0.28948 0-0.1838 0.09956-0.28948 0.09956-0.1062 0.27264-0.1062 0.06842 0 0.12866 0.0184 0.06076 0.0179 0.11385 0.0541z"/><path d="m70.879 393.54q-0.07556 0-0.11947 0.0592-0.04391 0.0587-0.04391 0.16133 0 0.10262 0.0434 0.16185 0.04391 0.0587 0.11998 0.0587 0.07505 0 0.11896-0.0592t0.04391-0.16134q0-0.1016-0.04391-0.16082-0.04391-0.0597-0.11896-0.0597zm0-0.0796q0.12253 0 0.19248 0.0796t0.06995 0.22056q0 0.14041-0.06995 0.22056-0.06995 0.0797-0.19248 0.0797-0.12304 0-0.19299-0.0797-0.06944-0.0802-0.06944-0.22056 0-0.14091 0.06944-0.22056 0.06995-0.0796 0.19299-0.0796z"/><path d="m71.761 393.7v0.34513h-0.09394v-0.34207q0-0.0812-0.03165-0.12151-0.03166-0.0403-0.09496-0.0403-0.07607 0-0.11998 0.0485t-0.04391 0.13223v0.32318h-0.09445v-0.57182h0.09445v0.0888q0.0337-0.0516 0.07914-0.0771 0.04595-0.0255 0.10568-0.0255 0.09854 0 0.14908 0.0613 0.05054 0.0608 0.05054 0.17921z"/><path d="m72.304 393.49v0.0888q-0.03982-0.0204-0.08271-0.0306t-0.08884-0.0102q-0.06995 0-0.10518 0.0215-0.03472 0.0214-0.03472 0.0643 0 0.0327 0.02502 0.0516 0.02502 0.0184 0.10058 0.0352l0.03216 7e-3q0.10007 0.0214 0.14193 0.0607 0.04238 0.0388 0.04238 0.10875 0 0.0797-0.06331 0.12611-0.0628 0.0465-0.17308 0.0465-0.04595 0-0.09598-9e-3 -0.04952-9e-3 -0.10466-0.0265v-0.097q0.05208 0.0271 0.10262 0.0408 0.05054 0.0133 0.10007 0.0133 0.06637 0 0.10211-0.0225 0.03574-0.023 0.03574-0.0643 0-0.0383-0.02604-0.0587-0.02553-0.0204-0.11283-0.0393l-0.03268-8e-3q-0.08731-0.0184-0.12611-0.0562-0.0388-0.0383-0.0388-0.10466 0-0.0807 0.05718-0.12458 0.05718-0.0439 0.16236-0.0439 0.05208 0 0.09803 8e-3t0.08475 0.023z"/><path d="m72.696 393.54q-0.07556 0-0.11947 0.0592-0.04391 0.0587-0.04391 0.16133 0 0.10262 0.0434 0.16185 0.04391 0.0587 0.11998 0.0587 0.07505 0 0.11896-0.0592t0.04391-0.16134q0-0.1016-0.04391-0.16082-0.04391-0.0597-0.11896-0.0597zm0-0.0796q0.12253 0 0.19248 0.0796t0.06995 0.22056q0 0.14041-0.06995 0.22056-0.06995 0.0797-0.19248 0.0797-0.12304 0-0.19299-0.0797-0.06944-0.0802-0.06944-0.22056 0-0.14091 0.06944-0.22056 0.06995-0.0796 0.19299-0.0796z"/><path d="m73.103 393.26h0.09394v0.79442h-0.09394z"/><path d="m73.872 393.74v0.046h-0.43193q0.0061 0.097 0.0582 0.14806 0.05259 0.0505 0.14602 0.0505 0.05412 0 0.10466-0.0133 0.05106-0.0133 0.10109-0.0398v0.0888q-0.05054 0.0214-0.10364 0.0327-0.0531 0.0112-0.10773 0.0112-0.13683 0-0.21699-0.0797-0.07965-0.0796-0.07965-0.21545 0-0.1404 0.07556-0.2226 0.07607-0.0827 0.20473-0.0827 0.11538 0 0.18227 0.0745 0.06739 0.074 0.06739 0.20167zm-0.09394-0.0276q-1e-3 -0.0771-0.0434-0.12305-0.04187-0.0459-0.1113-0.0459-0.07863 0-0.12611 0.0444-0.04697 0.0444-0.05412 0.12509l0.33492-5.1e-4z"/></g><g transform="translate(.15348 .14388)"><rect x="77.967" y="387.91" width="3.3193" height="1.9916" rx=".089249" ry=".043549"/><g fill="#b3b3b3" stroke-width="1px"><path d="m78.058 388.5h0.92418v0.19545h-0.33246v0.80731h-0.25858v-0.80731h-0.33313z"/><path d="m79.659 389.12v0.0685h-0.56216q0.0087 0.0846 0.06112 0.12693 0.05239 0.0423 0.14642 0.0423 0.0759 0 0.15515-0.0222 0.07993-0.0228 0.16388-0.0685v0.18537q-0.0853 0.0322-0.1706 0.0484-0.0853 0.0168-0.1706 0.0168-0.20418 0-0.31768-0.10343-0.11284-0.10411-0.11284-0.2915 0-0.18402 0.11082-0.28947 0.11149-0.10545 0.30627-0.10545 0.17731 0 0.28343 0.10679 0.10679 0.10679 0.10679 0.28545zm-0.24716-0.0799q0-0.0685-0.0403-0.11015-0.03963-0.0423-0.1041-0.0423-0.06985 0-0.11351 0.0396-0.04366 0.0389-0.0544 0.11283h0.31231z"/><path d="m80.415 388.77v0.18269q-0.07724-0.0322-0.1491-0.0484-0.07186-0.0161-0.13567-0.0161-0.06851 0-0.10209 0.0175-0.03291 0.0168-0.03291 0.0524 0 0.0289 0.02485 0.0443 0.02552 0.0154 0.09067 0.0228l0.04231 6e-3q0.1847 0.0235 0.24851 0.0772t0.06381 0.16858q0 0.12022-0.08866 0.18067-0.08866 0.0605-0.26462 0.0605-0.07455 0-0.15448-0.0121-0.07925-0.0114-0.16321-0.0349v-0.18268q0.07187 0.0349 0.14709 0.0524 0.0759 0.0175 0.15381 0.0175 0.07052 0 0.10612-0.0195t0.0356-0.0578q0-0.0322-0.02485-0.0477-0.02418-0.0161-0.09739-0.0248l-0.04231-5e-3q-0.16052-0.0202-0.225-0.0745-0.06448-0.0544-0.06448-0.16523 0-0.11955 0.08194-0.17731 0.08194-0.0578 0.25119-0.0578 0.06649 0 0.1397 0.0101t0.15918 0.0316z"/><path d="m80.895 388.54v0.21358h0.24784v0.17194h-0.24784v0.31903q0 0.0524 0.02082 0.0712 0.02082 0.0181 0.08261 0.0181h0.12358v0.17194h-0.20619q-0.14239 0-0.20216-0.0591-0.05911-0.0598-0.05911-0.20217v-0.31903h-0.11955v-0.17194h0.11955v-0.21358h0.24045z"/></g></g></svg>
