<svg width="67.77" height="265.75" version="1.1" viewBox="35 370 67.77 265.75" xmlns="http://www.w3.org/2000/svg" xmlns:xlink="http://www.w3.org/1999/xlink">
 <defs>
  <linearGradient id="linearGradient1843" x1="-201.14" x2="-133.49" y1="-38.623" y2="-38.623" gradientTransform="matrix(1.001 0 0 1.0002 236.36 463.51)" gradientUnits="userSpaceOnUse">
   <stop style="stop-color:#808080;stop-opacity:.47484" offset="0"/>
   <stop style="stop-color:#808080;stop-opacity:.42" offset=".010045"/>
   <stop style="stop-color:#808080;stop-opacity:.21" offset=".019"/>
   <stop style="stop-color:#808080;stop-opacity:.41" offset=".02861"/>
   <stop style="stop-color:#808080;stop-opacity:.2" offset=".042064"/>
   <stop style="stop-color:#808080;stop-opacity:.4" offset=".052691"/>
   <stop style="stop-color:#808080;stop-opacity:.18649" offset=".064713"/>
   <stop style="stop-color:#808080;stop-opacity:.39" offset=".07948"/>
   <stop style="stop-color:#808080;stop-opacity:.18" offset=".091677"/>
   <stop style="stop-color:#808080;stop-opacity:.3837" offset=".11055"/>
   <stop style="stop-color:#808080;stop-opacity:.17" offset=".13116"/>
   <stop style="stop-color:#808080;stop-opacity:.37" offset=".14948"/>
   <stop style="stop-color:#808080;stop-opacity:.15848" offset=".16837"/>
   <stop style="stop-color:#808080;stop-opacity:.36" offset=".18698"/>
   <stop style="stop-color:#808080;stop-opacity:.15" offset=".2132"/>
   <stop style="stop-color:#808080;stop-opacity:.32" offset=".23067"/>
   <stop style="stop-color:#808080;stop-opacity:.14" offset=".2566"/>
   <stop style="stop-color:#808080;stop-opacity:.29179" offset=".28028"/>
   <stop style="stop-color:#808080;stop-opacity:.13" offset=".3091"/>
   <stop style="stop-color:#808080;stop-opacity:.27382" offset=".33835"/>
   <stop style="stop-color:#808080;stop-opacity:.12" offset=".36832"/>
   <stop style="stop-color:#808080;stop-opacity:.3" offset=".39684"/>
   <stop style="stop-color:#808080;stop-opacity:.11" offset=".42368"/>
   <stop style="stop-color:#808080;stop-opacity:.29" offset=".45797"/>
   <stop style="stop-color:#808080;stop-opacity:.1" offset=".48299"/>
   <stop style="stop-color:#808080;stop-opacity:.28" offset=".50927"/>
   <stop style="stop-color:#808080;stop-opacity:.11" offset=".54028"/>
   <stop style="stop-color:#808080;stop-opacity:.29" offset=".56018"/>
   <stop style="stop-color:#808080;stop-opacity:.12" offset=".59188"/>
   <stop style="stop-color:#808080;stop-opacity:.3" offset=".62092"/>
   <stop style="stop-color:#808080;stop-opacity:.13" offset=".64173"/>
   <stop style="stop-color:#808080;stop-opacity:.31" offset=".66849"/>
   <stop style="stop-color:#808080;stop-opacity:.14" offset=".69359"/>
   <stop style="stop-color:#808080;stop-opacity:.32" offset=".71984"/>
   <stop style="stop-color:#808080;stop-opacity:.15" offset=".74273"/>
   <stop style="stop-color:#808080;stop-opacity:.33" offset=".7657"/>
   <stop style="stop-color:#808080;stop-opacity:.16" offset=".78738"/>
   <stop style="stop-color:#808080;stop-opacity:.34112" offset=".80673"/>
   <stop style="stop-color:#808080;stop-opacity:.17" offset=".82312"/>
   <stop style="stop-color:#808080;stop-opacity:.35" offset=".8478"/>
   <stop style="stop-color:#808080;stop-opacity:.18" offset=".86902"/>
   <stop style="stop-color:#808080;stop-opacity:.35769" offset=".88702"/>
   <stop style="stop-color:#808080;stop-opacity:.19" offset=".89883"/>
   <stop style="stop-color:#808080;stop-opacity:.37" offset=".91718"/>
   <stop style="stop-color:#808080;stop-opacity:.2" offset=".93138"/>
   <stop style="stop-color:#808080;stop-opacity:.38" offset=".94454"/>
   <stop style="stop-color:#808080;stop-opacity:.21" offset=".95664"/>
   <stop style="stop-color:#808080;stop-opacity:.39" offset=".97093"/>
   <stop style="stop-color:#808080;stop-opacity:.38771" offset=".98191"/>
   <stop style="stop-color:#808080;stop-opacity:.65" offset="1"/>
  </linearGradient>
 </defs>
 <path d="m68.016 370c-18.375 0.0315-33.023 1.0378-33.016 2.2681v261.29c0.58746 1.2229 15.594 2.1939 33.884 2.1939 18.29-2e-5 33.299-0.97102 33.886-2.1939v-261.29c1e-3 -1.2527-15.171-2.2682-33.886-2.2681z" style="fill:#fff"/>
 <path class="st1" d="m70.088 584.29c2.2915 0 4.1534 1.8285 4.1534 4.0573 0 2.2286-1.8619 4.0573-4.1534 4.0573h-3.523s0.48697-1.9428 2.5493-1.9428h0.97384c1.2603 0 2.2629-0.94283 2.2629-2.1143 0-1.1714-1.0025-2.1143-2.2629-2.1143h-2.0336 0.0264c-1.7186-0.0856-2.2629-1.5429-2.4633-1.9143v-0.0285h4.4683zm-4.1247 10.428c0-0.54285 0.086-1.0572 0.28656-1.5143h2.1769c-0.34359 0.40001-0.54422 0.94287-0.54422 1.5143 0 1.2857 1.0025 2.3143 2.2629 2.3143h4.0961v1.9428h-7.5046s0.0264-0.79997 0.40107-1.3143c-0.74472-0.74285-1.1743-1.8-1.1743-2.9427m6.4161 9.3142c0 1.2857-1.0311 2.3429-2.2915 2.3429-1.2603 0-2.2914-1.0572-2.2914-2.3429 0-1.2858 1.0311-2.3428 2.2914-2.3428 1.2603 0 2.2915 1.0571 2.2915 2.3428m-6.4161 0c0 2.3429 1.8618 4.2286 4.1247 4.2286 2.2915 0 4.1247-1.8857 4.1247-4.2286 0-0.97142-0.31528-1.8572-0.85928-2.5714 0.7161-0.42857 0.85928-1.6572 0.85928-1.6572h-4.1247c-2.2627 0-4.1247 1.8857-4.1247 4.2286m6.4161-33.801c0 1.2857-1.0311 2.3429-2.2915 2.3429-1.2603 0-2.2914-1.0572-2.2914-2.3429 0-1.2858 1.0311-2.3429 2.2914-2.3429 1.2603 0 2.2915 1.0572 2.2915 2.3429m-6.4161 0c0 2.3429 1.8618 4.2286 4.1247 4.2286 2.2915 0 4.1247-1.8857 4.1247-4.2286 0-0.97142-0.31528-1.8572-0.85928-2.5714 0.7161-0.42858 0.85928-1.6571 0.85928-1.6571h-4.1247c-2.2627 0-4.1247 1.8857-4.1247 4.2286m6.4161 8.9715c0 1.2857-1.0311 2.3429-2.2915 2.3429-1.2603 0-2.2914-1.0572-2.2914-2.3429 0-1.2858 1.0311-2.3429 2.2914-2.3429 1.2603-0.0285 2.2915 1.0286 2.2915 2.3429m-6.4161 0c0 0.85713 0.25764 1.657 0.68744 2.3429h-0.65883c-1.7186 0.0857-2.2629 1.4857-2.4633 1.8572v0.0285h10.713s-0.14344-1.2571-0.83067-1.7429c0.48697-0.7143 0.80201-1.5714 0.80201-2.4857 0-2.3429-1.8618-4.2286-4.1247-4.2286-2.2627-0.0285-4.1247 1.8857-4.1247 4.2286" stroke-width="1.9312" style="fill:#4d4d4d"/>
 <path d="m68.016 370c-18.375 0.0315-33.023 1.0378-33.016 2.2681v261.29c0.58746 1.2229 15.594 2.1939 33.884 2.1939 18.29-2e-5 33.299-0.97102 33.886-2.1939v-261.29c1e-3 -1.2527-15.171-2.2682-33.886-2.2681z" style="fill:url(#linearGradient1843)"/>
 <path class="st1" d="m69.807 584.18c2.2915 0 4.1534 1.8285 4.1534 4.0573 0 2.2286-1.8618 4.0573-4.1534 4.0573h-3.523s0.48695-1.9428 2.5493-1.9428h0.97383c1.2603 0 2.2629-0.94284 2.2629-2.1143 0-1.1714-1.0026-2.1143-2.2629-2.1143h-2.0336 0.0264c-1.7186-0.0856-2.2629-1.5429-2.4633-1.9143v-0.0285h4.4683zm-4.1247 10.428c0-0.54285 0.086-1.0572 0.28658-1.5143h2.1769c-0.34359 0.40001-0.54423 0.94287-0.54423 1.5143 0 1.2857 1.0025 2.3143 2.2629 2.3143h4.0961v1.9428h-7.5046s0.0264-0.79996 0.40107-1.3143c-0.74472-0.74285-1.1743-1.8-1.1743-2.9427m6.4161 9.3142c0 1.2857-1.0312 2.3429-2.2915 2.3429-1.2603 0-2.2914-1.0572-2.2914-2.3429s1.0311-2.3428 2.2914-2.3428c1.2603 0 2.2915 1.0571 2.2915 2.3428m-6.4161 0c0 2.3429 1.8619 4.2286 4.1247 4.2286 2.2915 0 4.1247-1.8857 4.1247-4.2286 0-0.97141-0.31527-1.8572-0.85926-2.5714 0.7161-0.42858 0.85926-1.6572 0.85926-1.6572h-4.1247c-2.2627 0-4.1247 1.8857-4.1247 4.2286m6.4161-33.801c0 1.2857-1.0312 2.3429-2.2915 2.3429-1.2603 0-2.2914-1.0572-2.2914-2.3429s1.0311-2.3429 2.2914-2.3429c1.2603 0 2.2915 1.0572 2.2915 2.3429m-6.4161 0c0 2.3429 1.8619 4.2286 4.1247 4.2286 2.2915 0 4.1247-1.8857 4.1247-4.2286 0-0.97142-0.31527-1.8572-0.85926-2.5714 0.7161-0.42858 0.85926-1.6571 0.85926-1.6571h-4.1247c-2.2627 0-4.1247 1.8857-4.1247 4.2286m6.4161 8.9715c0 1.2857-1.0312 2.3429-2.2915 2.3429-1.2603 0-2.2914-1.0572-2.2914-2.3429s1.0311-2.3429 2.2914-2.3429c1.2603-0.0285 2.2915 1.0286 2.2915 2.3429m-6.4161 0c0 0.85713 0.25766 1.6571 0.68745 2.3429h-0.65884c-1.7186 0.0856-2.2629 1.4857-2.4633 1.8572v0.0285h10.713s-0.14342-1.2571-0.83065-1.7429c0.48696-0.71431 0.80201-1.5714 0.80201-2.4857 0-2.3429-1.8619-4.2286-4.1247-4.2286-2.2627-0.0285-4.1247 1.8857-4.1247 4.2286" stroke-width="1.9312" style="fill:#e6e6e6"/>
 <text x="51.202137" y="625.5672" style="fill:#000000;font-family:sans-serif;font-size:5.4124px;line-height:1.25;stroke-width:.13531" xml:space="preserve"><tspan x="51.202137" y="625.5672" style="stroke-width:.13531">Sensor UXI G</tspan></text>
</svg>
