<svg width="440" height="75" version="1.1" viewBox="70.4 401.07 440 75" xmlns="http://www.w3.org/2000/svg"><defs><clipPath id="clipPath82"><path d="m0 0h864v612h-864z"/></clipPath></defs><rect x="70.4" y="401.07" width="440" height="75" rx="1.9963" ry="2.0191" fill="#333"/><rect x="75.995" y="414.12" width="428.81" height="61.454" rx="2" ry="2" fill="#dbdee3" stroke="#000" stroke-linecap="round" stroke-linejoin="round"/><g transform="translate(-351.18 -55.287)"><g transform="matrix(1.0667,0,0,1.0667,460.71,203.95)" stroke="#333" stroke-width=".067244"><g transform="translate(-21.189,-6.7388)"><path d="m189.01 272.01v-2.0135l-1.7484-1.0068-1.7484 1.0738v2.0135l1.7484 1.0077z" fill="#808080"/><path d="m188.61 271.03c0 0.75957-0.60197 1.3766-1.3446 1.3766-0.74258 0-1.3446-0.61707-1.3446-1.3766 0-0.75955 0.60197-1.3757 1.3446-1.3757 0.74259 0 1.3446 0.61613 1.3446 1.3757z" fill="#f2f2f2"/><path d="m187.73 271.03c0 0.2406-0.21132 0.43687-0.47081 0.43687-0.25948 0-0.47084-0.19627-0.47084-0.43687s0.21136-0.43591 0.47084-0.43591c0.25949 0 0.47081 0.19531 0.47081 0.43591z" fill="#a4a4a4"/></g><g transform="translate(-.18874 -6.7388)"><path d="m189.01 272.01v-2.0135l-1.7484-1.0068-1.7484 1.0738v2.0135l1.7484 1.0077z" fill="#999"/><path d="m188.61 271.03c0 0.75957-0.60197 1.3766-1.3446 1.3766-0.74258 0-1.3446-0.61707-1.3446-1.3766 0-0.75955 0.60197-1.3757 1.3446-1.3757 0.74259 0 1.3446 0.61613 1.3446 1.3757z" fill="#f2f2f2"/><path d="m187.73 271.03c0 0.2406-0.21132 0.43687-0.47081 0.43687-0.25948 0-0.47084-0.19627-0.47084-0.43687s0.21136-0.43591 0.47084-0.43591c0.25949 0 0.47081 0.19531 0.47081 0.43591z" fill="#a4a4a4"/></g></g><g stroke="#000"><path d="m642.92 482.08h12.276c1.0109 0 2.0661 0.84309 1.8248 1.8248l-1.0981 4.4661c-0.24137 0.98168-0.81383 1.2757-1.8248 1.2757h-10.08c-1.0109 0-1.5834-0.29404-1.8247-1.2757l-1.0981-4.4661c-0.24137-0.98168 0.81384-1.8248 1.8248-1.8248z" fill="#ececec" fill-rule="evenodd" stroke-linecap="round" stroke-width=".227"/><path d="m643.11 482.27h11.888c0.97895 0 2.0008 0.80236 1.767 1.7366l-1.0634 4.2503c-0.23375 0.93425-0.78809 1.2141-1.767 1.2141h-9.7611c-0.97894 0-1.5333-0.27983-1.767-1.2141l-1.0634-4.2503c-0.23372-0.93425 0.78811-1.7366 1.7671-1.7366z" fill="#003380" fill-rule="evenodd" stroke-linecap="round" stroke-width=".026354"/><g transform="matrix(1.0667,0,0,1.0667,461.48,204.17)" stroke-width=".067244"><path d="m182.01 262.62c0 0.27834-0.2255 0.50385-0.50383 0.50385-0.27837 0-0.50481-0.22551-0.50481-0.50385 0-0.27739 0.22644-0.50384 0.50481-0.50384 0.27833 0 0.50383 0.22645 0.50383 0.50384z"/><path d="m170.78 262.62c0 0.27834-0.24155 0.50385-0.53781 0.50385-0.29722 0-0.53782-0.22551-0.53782-0.50385 0-0.27739 0.2406-0.50384 0.53782-0.50384 0.29626 0 0.53781 0.22645 0.53781 0.50384z"/><path d="m173.62 262.62c0 0.27834-0.2406 0.50385-0.53784 0.50385-0.29719 0-0.53779-0.22551-0.53779-0.50385 0-0.27739 0.2406-0.50384 0.53779-0.50384 0.29724 0 0.53784 0.22645 0.53784 0.50384z"/><path d="m176.46 262.62c0 0.27834-0.2406 0.50385-0.53782 0.50385-0.2972 0-0.53782-0.22551-0.53782-0.50385 0-0.27739 0.24062-0.50384 0.53782-0.50384 0.29722 0 0.53782 0.22645 0.53782 0.50384z"/><path d="m179.24 262.62c0 0.27834-0.2255 0.50385-0.50385 0.50385s-0.50479-0.22551-0.50479-0.50385c0-0.27739 0.22644-0.50384 0.50479-0.50384s0.50385 0.22645 0.50385 0.50384z"/><path d="m172.17 265.57c0 0.27834-0.22552 0.50385-0.50385 0.50385-0.27835 0-0.50481-0.22551-0.50481-0.50385 0-0.27741 0.22646-0.5029 0.50481-0.5029 0.27833 0 0.50385 0.22549 0.50385 0.5029z"/><path d="m175.01 265.57c0 0.27834-0.22551 0.50385-0.50386 0.50385-0.27834 0-0.5048-0.22551-0.5048-0.50385 0-0.27741 0.22646-0.5029 0.5048-0.5029 0.27835 0 0.50386 0.22549 0.50386 0.5029z"/><path d="m177.85 265.57c0 0.27834-0.22644 0.50385-0.50479 0.50385s-0.50385-0.22551-0.50385-0.50385c0-0.27741 0.2255-0.5029 0.50385-0.5029s0.50479 0.22549 0.50479 0.5029z"/><path d="m180.62 265.57c0 0.27834-0.22646 0.50385-0.50481 0.50385-0.27833 0-0.50385-0.22551-0.50385-0.50385 0-0.27741 0.22552-0.5029 0.50385-0.5029 0.27835 0 0.50481 0.22549 0.50481 0.5029z"/></g></g></g><g transform="rotate(-90 391.61 528.93)"><rect x="477.5" y="606.43" width="26.94" height="19.678" rx="2" ry="2" fill="#333" stroke="#000" stroke-linecap="round" stroke-linejoin="round"/><g transform="matrix(1.9121,0,0,1.9121,-49.507,-158.71)"><path d="m288.69 409.46v-5.2498l-3.0658-3.0713h-5.7402l-3.2442 3.2498v5.0712h12.05z" stroke="#090909" stroke-width=".035713"/><g fill="#ccc"><path d="m283.24 402.28h-1.0694v2.5356h1.0694z"/><path d="m279.39 405.78h-1.0694v2.5356h1.0694z"/><path d="m287.02 405.78h-1.0694v2.5356h1.0694z"/></g></g></g><g transform="translate(-28.59 -1.3946)"><path d="m420.5 465.93c0 3.1476-2.4666 5.703-5.5032 5.703s-5.5012-2.5556-5.5012-5.703c0-3.1495 2.4644-5.705 5.5012-5.705 3.0366 0 5.5032 2.5556 5.5032 5.705z" fill="#666" stroke="#000" stroke-width=".14108"/><path d="m419.09 465.93c0 2.3319-1.8331 4.2263-4.0917 4.2263s-4.0897-1.8944-4.0897-4.2263 1.8311-4.2244 4.0897-4.2244 4.0917 1.8924 4.0917 4.2244z" fill="#fff" stroke="#000" stroke-width=".14108"/><circle cx="414.97" cy="465.87" r="4.3125" fill="#4d4d4d" stroke="#ccc" stroke-linecap="round" stroke-linejoin="round" stroke-width=".1"/><g transform="translate(-53.119 -147.18)" fill="#f9f9f9" stroke="#ccc" stroke-linecap="round" stroke-linejoin="round" stroke-width=".1"><path transform="translate(70.4,401.07)" d="m401.93 212.74h-8.4863c0.36791 2.0556 2.1558 3.5523 4.2441 3.5527 2.0876-1e-3 3.8744-1.4978 4.2422-3.5527z"/><path transform="translate(70.4,401.07)" d="m397.69 207.67c-2.0876 1e-3 -3.8744 1.4978-4.2422 3.5527h8.4863c-0.36791-2.0556-2.1558-3.5523-4.2441-3.5527z"/></g></g><g transform="translate(5.6989 -127.99)"><rect x="471.24" y="571.77" width="20.052" height="13.97" rx="1" ry="1" fill="#333" stroke="#000" stroke-linecap="round" stroke-linejoin="round" stroke-width=".4"/><path d="m474.14 574.07v9.3712h14.644v-9.3712z" fill="#1a1a1a" stroke="#000" stroke-width=".266"/><g transform="matrix(0 -2.0855 2.0855 0 438.53 1032.9)" fill="#fff" aria-label="I"><path d="m217.63 19.231h0.22557v1.6672h-0.22557z" fill="#fff" stroke-width=".012706px"/></g><rect x="474.14" y="574.09" width="3.5183" height="9.3215"/><path d="m477.66 583.41v-9.3589" fill="none" stroke="#7e7e7e" stroke-width=".066492"/></g><g transform="translate(-.34145 -137.8)"><path transform="rotate(-90,406.92,569.48)" d="m418.07 561.82-1.7433 3.0195h-3.4866l-1.7433-3.0195 1.7433-3.0195h3.4866z"/><path transform="rotate(-90,410.33,565.86)" d="m418.07 561.82-1.7433 3.0195h-3.4866l-1.7433-3.0195 1.7433-3.0195h3.4866z"/><path transform="rotate(-90,414.08,562.57)" d="m418.07 561.82-1.7433 3.0195h-3.4866l-1.7433-3.0195 1.7433-3.0195h3.4866z"/><path transform="rotate(-90,417.6,559.05)" d="m418.07 561.82-1.7433 3.0195h-3.4866l-1.7433-3.0195 1.7433-3.0195h3.4866z"/><path transform="rotate(-90,421.12,555.54)" d="m418.07 561.82-1.7433 3.0195h-3.4866l-1.7433-3.0195 1.7433-3.0195h3.4866z"/><path transform="rotate(-90,424.64,552.02)" d="m418.07 561.82-1.7433 3.0195h-3.4866l-1.7433-3.0195 1.7433-3.0195h3.4866z"/><path transform="rotate(-90,428.04,548.38)" d="m418.07 561.82-1.7433 3.0195h-3.4866l-1.7433-3.0195 1.7433-3.0195h3.4866z"/><path transform="rotate(-90,431.56,544.87)" d="m418.07 561.82-1.7433 3.0195h-3.4866l-1.7433-3.0195 1.7433-3.0195h3.4866z"/><path transform="rotate(-90,435.08,541.35)" d="m418.07 561.82-1.7433 3.0195h-3.4866l-1.7433-3.0195 1.7433-3.0195h3.4866z"/></g><g transform="translate(3.1766 -131.63)"><path transform="rotate(-90,406.92,569.48)" d="m418.07 561.82-1.7433 3.0195h-3.4866l-1.7433-3.0195 1.7433-3.0195h3.4866z"/><path transform="rotate(-90,410.33,565.86)" d="m418.07 561.82-1.7433 3.0195h-3.4866l-1.7433-3.0195 1.7433-3.0195h3.4866z"/><path transform="rotate(-90,414.08,562.57)" d="m418.07 561.82-1.7433 3.0195h-3.4866l-1.7433-3.0195 1.7433-3.0195h3.4866z"/><path transform="rotate(-90,417.6,559.05)" d="m418.07 561.82-1.7433 3.0195h-3.4866l-1.7433-3.0195 1.7433-3.0195h3.4866z"/><path transform="rotate(-90,421.12,555.54)" d="m418.07 561.82-1.7433 3.0195h-3.4866l-1.7433-3.0195 1.7433-3.0195h3.4866z"/><path transform="rotate(-90,424.64,552.02)" d="m418.07 561.82-1.7433 3.0195h-3.4866l-1.7433-3.0195 1.7433-3.0195h3.4866z"/><path transform="rotate(-90,428.04,548.38)" d="m418.07 561.82-1.7433 3.0195h-3.4866l-1.7433-3.0195 1.7433-3.0195h3.4866z"/><path transform="rotate(-90,431.56,544.87)" d="m418.07 561.82-1.7433 3.0195h-3.4866l-1.7433-3.0195 1.7433-3.0195h3.4866z"/></g><g transform="translate(-.34145 -125.46)"><path transform="rotate(-90,406.92,569.48)" d="m418.07 561.82-1.7433 3.0195h-3.4866l-1.7433-3.0195 1.7433-3.0195h3.4866z"/><path transform="rotate(-90,410.33,565.86)" d="m418.07 561.82-1.7433 3.0195h-3.4866l-1.7433-3.0195 1.7433-3.0195h3.4866z"/><path transform="rotate(-90,414.08,562.57)" d="m418.07 561.82-1.7433 3.0195h-3.4866l-1.7433-3.0195 1.7433-3.0195h3.4866z"/><path transform="rotate(-90,417.6,559.05)" d="m418.07 561.82-1.7433 3.0195h-3.4866l-1.7433-3.0195 1.7433-3.0195h3.4866z"/><path transform="rotate(-90,421.12,555.54)" d="m418.07 561.82-1.7433 3.0195h-3.4866l-1.7433-3.0195 1.7433-3.0195h3.4866z"/><path transform="rotate(-90,424.64,552.02)" d="m418.07 561.82-1.7433 3.0195h-3.4866l-1.7433-3.0195 1.7433-3.0195h3.4866z"/><path transform="rotate(-90,428.04,548.38)" d="m418.07 561.82-1.7433 3.0195h-3.4866l-1.7433-3.0195 1.7433-3.0195h3.4866z"/><path transform="rotate(-90,431.56,544.87)" d="m418.07 561.82-1.7433 3.0195h-3.4866l-1.7433-3.0195 1.7433-3.0195h3.4866z"/><path transform="rotate(-90,435.08,541.35)" d="m418.07 561.82-1.7433 3.0195h-3.4866l-1.7433-3.0195 1.7433-3.0195h3.4866z"/></g><g transform="translate(3.1766 -119.28)"><path transform="rotate(-90,406.92,569.48)" d="m418.07 561.82-1.7433 3.0195h-3.4866l-1.7433-3.0195 1.7433-3.0195h3.4866z"/><path transform="rotate(-90,410.33,565.86)" d="m418.07 561.82-1.7433 3.0195h-3.4866l-1.7433-3.0195 1.7433-3.0195h3.4866z"/><path transform="rotate(-90,414.08,562.57)" d="m418.07 561.82-1.7433 3.0195h-3.4866l-1.7433-3.0195 1.7433-3.0195h3.4866z"/><path transform="rotate(-90,417.6,559.05)" d="m418.07 561.82-1.7433 3.0195h-3.4866l-1.7433-3.0195 1.7433-3.0195h3.4866z"/><path transform="rotate(-90,421.12,555.54)" d="m418.07 561.82-1.7433 3.0195h-3.4866l-1.7433-3.0195 1.7433-3.0195h3.4866z"/><path transform="rotate(-90,424.64,552.02)" d="m418.07 561.82-1.7433 3.0195h-3.4866l-1.7433-3.0195 1.7433-3.0195h3.4866z"/><path transform="rotate(-90,428.04,548.38)" d="m418.07 561.82-1.7433 3.0195h-3.4866l-1.7433-3.0195 1.7433-3.0195h3.4866z"/><path transform="rotate(-90,431.56,544.87)" d="m418.07 561.82-1.7433 3.0195h-3.4866l-1.7433-3.0195 1.7433-3.0195h3.4866z"/></g><g transform="translate(-.34145 -113.11)"><path transform="rotate(-90,406.92,569.48)" d="m418.07 561.82-1.7433 3.0195h-3.4866l-1.7433-3.0195 1.7433-3.0195h3.4866z"/><path transform="rotate(-90,410.33,565.86)" d="m418.07 561.82-1.7433 3.0195h-3.4866l-1.7433-3.0195 1.7433-3.0195h3.4866z"/><path transform="rotate(-90,414.08,562.57)" d="m418.07 561.82-1.7433 3.0195h-3.4866l-1.7433-3.0195 1.7433-3.0195h3.4866z"/><path transform="rotate(-90,417.6,559.05)" d="m418.07 561.82-1.7433 3.0195h-3.4866l-1.7433-3.0195 1.7433-3.0195h3.4866z"/><path transform="rotate(-90,421.12,555.54)" d="m418.07 561.82-1.7433 3.0195h-3.4866l-1.7433-3.0195 1.7433-3.0195h3.4866z"/><path transform="rotate(-90,424.64,552.02)" d="m418.07 561.82-1.7433 3.0195h-3.4866l-1.7433-3.0195 1.7433-3.0195h3.4866z"/><path transform="rotate(-90,428.04,548.38)" d="m418.07 561.82-1.7433 3.0195h-3.4866l-1.7433-3.0195 1.7433-3.0195h3.4866z"/><path transform="rotate(-90,431.56,544.87)" d="m418.07 561.82-1.7433 3.0195h-3.4866l-1.7433-3.0195 1.7433-3.0195h3.4866z"/><path transform="rotate(-90,435.08,541.35)" d="m418.07 561.82-1.7433 3.0195h-3.4866l-1.7433-3.0195 1.7433-3.0195h3.4866z"/></g><g transform="translate(3.1766 -106.94)"><path transform="rotate(-90,406.92,569.48)" d="m418.07 561.82-1.7433 3.0195h-3.4866l-1.7433-3.0195 1.7433-3.0195h3.4866z"/><path transform="rotate(-90,410.33,565.86)" d="m418.07 561.82-1.7433 3.0195h-3.4866l-1.7433-3.0195 1.7433-3.0195h3.4866z"/><path transform="rotate(-90,414.08,562.57)" d="m418.07 561.82-1.7433 3.0195h-3.4866l-1.7433-3.0195 1.7433-3.0195h3.4866z"/><path transform="rotate(-90,417.6,559.05)" d="m418.07 561.82-1.7433 3.0195h-3.4866l-1.7433-3.0195 1.7433-3.0195h3.4866z"/><path transform="rotate(-90,421.12,555.54)" d="m418.07 561.82-1.7433 3.0195h-3.4866l-1.7433-3.0195 1.7433-3.0195h3.4866z"/><path transform="rotate(-90,424.64,552.02)" d="m418.07 561.82-1.7433 3.0195h-3.4866l-1.7433-3.0195 1.7433-3.0195h3.4866z"/><path transform="rotate(-90,428.04,548.38)" d="m418.07 561.82-1.7433 3.0195h-3.4866l-1.7433-3.0195 1.7433-3.0195h3.4866z"/><path transform="rotate(-90,431.56,544.87)" d="m418.07 561.82-1.7433 3.0195h-3.4866l-1.7433-3.0195 1.7433-3.0195h3.4866z"/></g><g transform="translate(-.34145 -100.76)"><path transform="rotate(-90,406.92,569.48)" d="m418.07 561.82-1.7433 3.0195h-3.4866l-1.7433-3.0195 1.7433-3.0195h3.4866z"/><path transform="rotate(-90,410.33,565.86)" d="m418.07 561.82-1.7433 3.0195h-3.4866l-1.7433-3.0195 1.7433-3.0195h3.4866z"/><path transform="rotate(-90,414.08,562.57)" d="m418.07 561.82-1.7433 3.0195h-3.4866l-1.7433-3.0195 1.7433-3.0195h3.4866z"/><path transform="rotate(-90,417.6,559.05)" d="m418.07 561.82-1.7433 3.0195h-3.4866l-1.7433-3.0195 1.7433-3.0195h3.4866z"/><path transform="rotate(-90,421.12,555.54)" d="m418.07 561.82-1.7433 3.0195h-3.4866l-1.7433-3.0195 1.7433-3.0195h3.4866z"/><path transform="rotate(-90,424.64,552.02)" d="m418.07 561.82-1.7433 3.0195h-3.4866l-1.7433-3.0195 1.7433-3.0195h3.4866z"/><path transform="rotate(-90,428.04,548.38)" d="m418.07 561.82-1.7433 3.0195h-3.4866l-1.7433-3.0195 1.7433-3.0195h3.4866z"/><path transform="rotate(-90,431.56,544.87)" d="m418.07 561.82-1.7433 3.0195h-3.4866l-1.7433-3.0195 1.7433-3.0195h3.4866z"/><path transform="rotate(-90,435.08,541.35)" d="m418.07 561.82-1.7433 3.0195h-3.4866l-1.7433-3.0195 1.7433-3.0195h3.4866z"/></g><g transform="translate(3.1766 -94.592)"><path transform="rotate(-90,406.92,569.48)" d="m418.07 561.82-1.7433 3.0195h-3.4866l-1.7433-3.0195 1.7433-3.0195h3.4866z"/><path transform="rotate(-90,410.33,565.86)" d="m418.07 561.82-1.7433 3.0195h-3.4866l-1.7433-3.0195 1.7433-3.0195h3.4866z"/><path transform="rotate(-90,414.08,562.57)" d="m418.07 561.82-1.7433 3.0195h-3.4866l-1.7433-3.0195 1.7433-3.0195h3.4866z"/><path transform="rotate(-90,417.6,559.05)" d="m418.07 561.82-1.7433 3.0195h-3.4866l-1.7433-3.0195 1.7433-3.0195h3.4866z"/><path transform="rotate(-90,421.12,555.54)" d="m418.07 561.82-1.7433 3.0195h-3.4866l-1.7433-3.0195 1.7433-3.0195h3.4866z"/><path transform="rotate(-90,424.64,552.02)" d="m418.07 561.82-1.7433 3.0195h-3.4866l-1.7433-3.0195 1.7433-3.0195h3.4866z"/><path transform="rotate(-90,428.04,548.38)" d="m418.07 561.82-1.7433 3.0195h-3.4866l-1.7433-3.0195 1.7433-3.0195h3.4866z"/><path transform="rotate(-90,431.56,544.87)" d="m418.07 561.82-1.7433 3.0195h-3.4866l-1.7433-3.0195 1.7433-3.0195h3.4866z"/></g><g transform="matrix(2.0084 0 0 2.0084 -210.8 -332.9)" fill-rule="evenodd" shape-rendering="auto"><path transform="matrix(.53109 0 0 .53109 66 371.4)" d="m435.08 36.213v1.1211h-2.3086v0.47461h5.2188v-0.47461h-2.3106v-1.1211z" color="#000000" color-rendering="auto" image-rendering="auto" solid-color="#000000" style="isolation:auto;mix-blend-mode:normal;text-decoration-color:#000000;text-decoration-line:none;text-decoration-style:solid;text-indent:0;text-transform:none;white-space:normal"/><path d="m296.34 391.99v0.25196h1.7776v-0.25196z" color="#000000" color-rendering="auto" image-rendering="auto" solid-color="#000000" style="isolation:auto;mix-blend-mode:normal;text-decoration-color:#000000;text-decoration-line:none;text-decoration-style:solid;text-indent:0;text-transform:none;white-space:normal"/><path d="m296.64 392.74v0.25196h1.176v-0.25196z" color="#000000" color-rendering="auto" image-rendering="auto" solid-color="#000000" style="isolation:auto;mix-blend-mode:normal;text-decoration-color:#000000;text-decoration-line:none;text-decoration-style:solid;text-indent:0;text-transform:none;white-space:normal"/></g><g transform="matrix(1.0667 0 0 1.0667 -81.992 -30.015)"><path d="m350.38 462.33c-0.35686 0-0.62127 0.30244-0.62127 0.64298v1.8764c0 0.34526 0.21568 0.53273 0.39627 0.59712l0.3755 0.13388c0.17217 0.0541 0.23045 0.11486 0.3356 0.23433l0.634 0.72027c0.11801 0.13406 0.30084 0.23712 0.5247 0.23712h8.2194c0.22386 0 0.4067-0.10306 0.5247-0.23712l0.63399-0.72027c0.10516-0.11947 0.16343-0.18018 0.33561-0.23433l0.3755-0.13388c0.18059-0.0644 0.39627-0.25186 0.39627-0.59712v-1.8764c0-0.34053-0.26441-0.64298-0.62128-0.64298z" stroke="#b3b3b3" stroke-width=".37345"/><path d="m352.06 464.89s-0.0766-3e-3 -0.12428-0.019l-0.48832-0.16001c-0.0366-0.012-0.0635-0.0539-0.0635-0.0924v-0.34937c0-0.0385 0.0481-0.078 0.0866-0.078h9.3206c0.0385 0 0.0866 0.0395 0.0866 0.078v0.34937c0 0.0385-0.0269 0.0804-0.0635 0.0924l-0.48832 0.16001c-0.0477 0.0156-0.0741 0.019-0.12428 0.019z" fill="#333" stroke="#000" stroke-width=".062746"/></g><text x="293.78894" y="471.80234" fill="#000000" font-family="sans-serif" font-size="3.0533px" letter-spacing="0px" stroke-width=".076331" word-spacing="0px" style="line-height:1.25" xml:space="preserve"><tspan x="293.78894" y="471.80234" fill="#000000" stroke-width=".076331">HDMI</tspan></text><g transform="translate(-2.7024 1.513)"><g transform="matrix(1.0667 0 0 1.0667 71.067 147.15)" stroke="#333" stroke-width=".067244"><g transform="translate(-21.189 -6.7388)"><path d="m189.01 272.01v-2.0135l-1.7484-1.0068-1.7484 1.0738v2.0135l1.7484 1.0077z" fill="#b3b3b3"/><path d="m188.61 271.03c0 0.75957-0.60197 1.3766-1.3446 1.3766-0.74258 0-1.3446-0.61707-1.3446-1.3766 0-0.75955 0.60197-1.3757 1.3446-1.3757 0.74259 0 1.3446 0.61613 1.3446 1.3757z" fill="#ddd"/><path d="m187.73 271.03c0 0.2406-0.21132 0.43687-0.47081 0.43687-0.25948 0-0.47084-0.19627-0.47084-0.43687s0.21136-0.43591 0.47084-0.43591c0.25949 0 0.47081 0.19531 0.47081 0.43591z" fill="#a4a4a4"/></g><g transform="translate(-.18874 -6.7388)"><path d="m189.01 272.01v-2.0135l-1.7484-1.0068-1.7484 1.0738v2.0135l1.7484 1.0077z" fill="#b3b3b3"/><path d="m188.61 271.03c0 0.75957-0.60197 1.3766-1.3446 1.3766-0.74258 0-1.3446-0.61707-1.3446-1.3766 0-0.75955 0.60197-1.3757 1.3446-1.3757 0.74259 0 1.3446 0.61613 1.3446 1.3757z" fill="#ddd"/><path d="m187.73 271.03c0 0.2406-0.21132 0.43687-0.47081 0.43687-0.25948 0-0.47084-0.19627-0.47084-0.43687s0.21136-0.43591 0.47084-0.43591c0.25949 0 0.47081 0.19531 0.47081 0.43591z" fill="#a4a4a4"/></g></g><g transform="matrix(1.0667 0 0 1.0667 71.83 147.36)"><g transform="translate(-1.3533 5.9318)" fill-rule="evenodd" stroke="#000" stroke-linecap="round"><path d="m171.46 254.62h11.509c0.94773 0 1.937 0.7904 1.7107 1.7107l-1.0295 4.187c-0.22629 0.92033-0.76297 1.196-1.7107 1.196h-9.4499c-0.94773 0-1.4844-0.27566-1.7107-1.196l-1.0295-4.187c-0.22628-0.92032 0.76298-1.7107 1.7107-1.7107z" fill="#ececec" stroke-width=".025737"/><path d="m171.64 254.79h11.145c0.91776 0 1.8757 0.75221 1.6566 1.6281l-0.99691 3.9847c-0.21914 0.87586-0.73884 1.1382-1.6566 1.1382h-9.151c-0.91775 0-1.4375-0.26234-1.6566-1.1382l-0.99693-3.9847c-0.21912-0.87586 0.73885-1.6281 1.6566-1.6281z" fill="#333" stroke-width=".024707"/></g><g fill="#ececec" stroke="#ccc" stroke-width=".067244"><path d="m182.01 262.62c0 0.27834-0.2255 0.50385-0.50383 0.50385-0.27837 0-0.50481-0.22551-0.50481-0.50385 0-0.27739 0.22644-0.50384 0.50481-0.50384 0.27833 0 0.50383 0.22645 0.50383 0.50384z"/><path d="m170.78 262.62c0 0.27834-0.24155 0.50385-0.53781 0.50385-0.29722 0-0.53782-0.22551-0.53782-0.50385 0-0.27739 0.2406-0.50384 0.53782-0.50384 0.29626 0 0.53781 0.22645 0.53781 0.50384z"/><path d="m173.62 262.62c0 0.27834-0.2406 0.50385-0.53784 0.50385-0.29719 0-0.53779-0.22551-0.53779-0.50385 0-0.27739 0.2406-0.50384 0.53779-0.50384 0.29724 0 0.53784 0.22645 0.53784 0.50384z"/><path d="m176.46 262.62c0 0.27834-0.2406 0.50385-0.53782 0.50385-0.2972 0-0.53782-0.22551-0.53782-0.50385 0-0.27739 0.24062-0.50384 0.53782-0.50384 0.29722 0 0.53782 0.22645 0.53782 0.50384z"/><path d="m179.24 262.62c0 0.27834-0.2255 0.50385-0.50385 0.50385s-0.50479-0.22551-0.50479-0.50385c0-0.27739 0.22644-0.50384 0.50479-0.50384s0.50385 0.22645 0.50385 0.50384z"/><path d="m172.17 265.57c0 0.27834-0.22552 0.50385-0.50385 0.50385-0.27835 0-0.50481-0.22551-0.50481-0.50385 0-0.27741 0.22646-0.5029 0.50481-0.5029 0.27833 0 0.50385 0.22549 0.50385 0.5029z"/><path d="m175.01 265.57c0 0.27834-0.22551 0.50385-0.50386 0.50385-0.27834 0-0.5048-0.22551-0.5048-0.50385 0-0.27741 0.22646-0.5029 0.5048-0.5029 0.27835 0 0.50386 0.22549 0.50386 0.5029z"/><path d="m177.85 265.57c0 0.27834-0.22644 0.50385-0.50479 0.50385s-0.50385-0.22551-0.50385-0.50385c0-0.27741 0.2255-0.5029 0.50385-0.5029s0.50479 0.22549 0.50479 0.5029z"/><path d="m180.62 265.57c0 0.27834-0.22646 0.50385-0.50481 0.50385-0.27833 0-0.50385-0.22551-0.50385-0.50385 0-0.27741 0.22552-0.5029 0.50385-0.5029 0.27835 0 0.50481 0.22549 0.50481 0.5029z"/></g></g></g><g stroke-width="1.1737"><path d="m113.43 438.57h0.35532v-0.93429l-0.36474 0.0697v-0.25367l0.36265-0.0697h0.38251v1.188h0.35532v0.25754h-1.0911v-0.25754z"/><path d="m142.48 438.01q0.15786 0.0378 0.2393 0.13155 0.0825 0.093 0.0825 0.2372 0 0.21495-0.17755 0.32724-0.17774 0.11127-0.51838 0.11127-0.1201 0-0.24143-0.0181-0.12011-0.0181-0.23829-0.0532v-0.28755q0.11288 0.0522 0.22369 0.0793 0.11187 0.0261 0.21944 0.0261 0.15987 0 0.24455-0.0512 0.0858-0.0514 0.0858-0.14722 0-0.0986-0.0878-0.14903-0.0866-0.0512-0.25708-0.0512h-0.16088v-0.24011h0.16931q0.15164 0 0.22577-0.0436 0.0743-0.0446 0.0743-0.13457 0-0.0833-0.0721-0.12874-0.0721-0.0454-0.20379-0.0454-0.0972 0-0.19643 0.0203-0.0992 0.0203-0.19763 0.0598v-0.27301q0.1191-0.0309 0.23619-0.0464 0.11709-0.0161 0.22991-0.0161 0.3041 0 0.45459 0.0932 0.15164 0.0918 0.15164 0.27785 0 0.12673-0.0721 0.20815-0.0721 0.0803-0.21316 0.11348z"/><path d="m170.07 437.35h1.0002v0.27399h-0.6793v0.22365q0.0462-0.01 0.0918-0.0181 0.047-6e-3 0.0972-6e-3 0.2853 0 0.44413 0.13276 0.15886 0.13156 0.15886 0.36789 0 0.23431-0.17353 0.36697-0.17232 0.13275-0.47967 0.13275-0.13276 0-0.26335-0.0243-0.12975-0.0233-0.25815-0.0715v-0.29337q0.12754 0.0677 0.2414 0.10162 0.11488 0.034 0.21635 0.034 0.14621 0 0.22991-0.0659 0.0846-0.0667 0.0846-0.18016 0-0.11408-0.0846-0.18016-0.0836-0.0659-0.22991-0.0659-0.0868 0-0.18498 0.0213-0.0984 0.0203-0.21109 0.0641v-0.81328z"/><path d="m198.2 437.39h1.1757v0.21008l-0.60822 1.2354h-0.39191l0.57584-1.1715h-0.7514z"/><path d="m113.32 470.5v-0.2672q0.096 0.0416 0.18398 0.0629 0.0878 0.0203 0.17353 0.0203 0.17975 0 0.2801-0.0918 0.10022-0.093 0.11789-0.27496-0.0711 0.0484-0.15144 0.0725-0.0805 0.0243-0.17453 0.0243-0.23933 0-0.38667-0.12874-0.14621-0.12975-0.14621-0.34079 0-0.23335 0.16308-0.37374 0.16409-0.14039 0.43893-0.14039 0.30516 0 0.47239 0.19081 0.1671 0.1908 0.1671 0.53928 0 0.35823-0.19542 0.56348-0.19542 0.2043-0.5361 0.2043-0.10966 0-0.21006-0.0161-0.10022-0.0141-0.19643-0.0444zm0.49643-0.69611q0.10565 0 0.15887-0.0629 0.0534-0.0641 0.0534-0.1908 0-0.12593-0.0534-0.1898-0.0532-0.0641-0.15887-0.0641-0.10564 0-0.15887 0.0641-0.0534 0.0641-0.0534 0.1898 0 0.12673 0.0534 0.1908 0.0532 0.0629 0.15887 0.0629z"/></g><g stroke-width=".93613"><g transform="matrix(1.2538 0 0 1.2538 -128.18 .10831)"><path d="m214.65 374.98h0.2834v-0.74519l-0.2909 0.0556v-0.20232l0.28924-0.0556h0.30507v0.94753h0.2834v0.20541h-0.87021v-0.20541z"/><path d="m215.84 374.98h0.28341v-0.74519l-0.29091 0.0556v-0.20232l0.28924-0.0556h0.30507v0.94753h0.28341v0.20541h-0.87022v-0.20541z"/></g><g transform="matrix(1.2538 0 0 1.2538 -110.33 .13919)"><path d="m223.06 374.98h0.2834v-0.74519l-0.2909 0.0556v-0.20232l0.28924-0.0556h0.30507v0.94753h0.2834v0.20541h-0.87021v-0.20541z"/><path d="m224.84 374.56q0.12588 0.0301 0.19088 0.10502 0.0659 0.0742 0.0659 0.18919 0 0.17144-0.14171 0.26101-0.14169 0.0888-0.41343 0.0888-0.0959 0-0.19255-0.0147-0.0959-0.0139-0.19004-0.0424v-0.22935q0.0901 0.0417 0.17837 0.0633 0.0892 0.0208 0.17505 0.0208 0.12753 0 0.19505-0.0409 0.0684-0.0409 0.0684-0.11737 0-0.0787-0.07-0.11893-0.0692-0.0409-0.20505-0.0409h-0.12837v-0.19151h0.13504q0.12086 0 0.18004-0.0348 0.0592-0.0355 0.0592-0.10734 0-0.0664-0.0575-0.1027t-0.16254-0.0363q-0.0775 0-0.1567 0.0162t-0.15754 0.0478v-0.21776q0.095-0.0247 0.18838-0.037 0.0934-0.0123 0.18337-0.0123 0.24257 0 0.36259 0.0742 0.12087 0.0733 0.12087 0.22163 0 0.10115-0.0575 0.16602-0.0575 0.0641-0.17005 0.0904z"/></g><g transform="matrix(1.2538 0 0 1.2538 -91.076 .11144)"><path d="m230.19 374.98h0.2834v-0.74519l-0.2909 0.0556v-0.20232l0.28923-0.0556h0.30508v0.94753h0.2834v0.20541h-0.87021v-0.20541z"/><path d="m231.35 374.03h0.7977v0.21854h-0.5418v0.17838q0.0367-9e-3 0.0733-0.0139 0.0375-5e-3 0.0775-5e-3 0.22755 0 0.35425 0.10579 0.1267 0.10502 0.1267 0.29344 0 0.18687-0.13837 0.29267-0.13753 0.10579-0.38259 0.10579-0.10586 0-0.21006-0.0193-0.10335-0.0186-0.20587-0.0571v-0.23398q0.10168 0.0541 0.19254 0.0811 0.0917 0.027 0.17255 0.027 0.11669 0 0.18337-0.0525 0.0675-0.0532 0.0675-0.14364 0-0.0911-0.0675-0.14363-0.0667-0.0525-0.18337-0.0525-0.0692 0-0.14754 0.0169-0.0784 0.0162-0.16838 0.051v-0.64866z"/></g></g><g stroke-width="1.1737"><path d="m127.89 438.55h0.6866v0.274h-1.1339v-0.274l0.56958-0.46572q0.0763-0.0641 0.11287-0.12492 0.0366-0.0611 0.0366-0.12674 0-0.10162-0.0741-0.16369-0.0731-0.0619-0.19543-0.0619-0.094 0-0.20588 0.0378-0.11187 0.037-0.23933 0.11047v-0.31758q0.13577-0.0416 0.26859-0.0629 0.13276-0.0221 0.26024-0.0221 0.28007 0 0.43473 0.11408 0.15565 0.11408 0.15565 0.31852 0 0.1181-0.0659 0.22075-0.0659 0.10163-0.27692 0.27303l-0.33338 0.27108z"/><path d="m156.44 437.69-0.44103 0.6051h0.44103zm-0.0669-0.30693h0.4473v0.91203h0.22258v0.27012h-0.22258v0.26337h-0.38042v-0.26337h-0.69185v-0.31948z"/><path d="m184.77 438.09q-0.10565 0-0.15887 0.0639-0.052 0.0629-0.052 0.1898 0 0.12673 0.052 0.1908 0.0534 0.0629 0.15887 0.0629 0.10665 0 0.15887-0.0629 0.0532-0.0641 0.0532-0.1908 0-0.12674-0.0532-0.1898-0.052-0.0639-0.15887-0.0639zm0.49743-0.69418v0.2672q-0.0992-0.0436-0.18698-0.0641-0.0878-0.0213-0.17133-0.0213-0.17975 0-0.28005 0.093-0.10023 0.092-0.1171 0.274 0.0689-0.0474 0.14943-0.0707 0.0803-0.0243 0.17554-0.0243 0.23933 0 0.3856 0.12974 0.14722 0.12975 0.14722 0.33983 0 0.23236-0.16409 0.37275-0.16409 0.13939-0.43997 0.13939-0.30412 0-0.47132-0.1898-0.1661-0.1908-0.1661-0.54023 0-0.35823 0.19442-0.56253 0.19542-0.20524 0.53509-0.20524 0.10765 0 0.20902 0.0161 0.10143 0.0161 0.20064 0.0464z"/><path d="m212.99 438.15q-0.11288 0-0.17353 0.0572-0.0605 0.0572-0.0605 0.16369 0 0.10665 0.0605 0.16369 0.0607 0.0562 0.17353 0.0562 0.11187 0 0.17132-0.0562 0.0594-0.0572 0.0594-0.16369 0-0.10745-0.0594-0.16369-0.0597-0.0572-0.17132-0.0572zm-0.29366-0.12312q-0.1422-0.0396-0.21426-0.12191-0.0721-0.0823-0.0721-0.20524 0-0.18297 0.14722-0.27886 0.14722-0.0958 0.43266-0.0958 0.28321 0 0.43055 0.0958 0.14722 0.0948 0.14722 0.27886 0 0.12312-0.0731 0.20524-0.0721 0.0824-0.21424 0.12191 0.15887 0.0406 0.23933 0.13276 0.0815 0.091 0.0815 0.23043 0 0.21493-0.15465 0.32533-0.15365 0.10926-0.45668 0.10926-0.30412 0-0.45984-0.10926-0.15465-0.11046-0.15465-0.32533 0-0.13938 0.0803-0.23043 0.0815-0.092 0.24039-0.13276zm0.094-0.28949q0 0.0864 0.0512 0.13275 0.0522 0.0464 0.14843 0.0464 0.094 0 0.14541-0.0464 0.0514-0.0464 0.0514-0.13275 0-0.0862-0.0514-0.13156-0.0512-0.0464-0.14541-0.0464-0.096 0-0.14843 0.0464-0.0512 0.0464-0.0512 0.13156z"/></g><g stroke-width=".93613"><g transform="matrix(1.2538 0 0 1.2538 -138.78 -.32053)"><path d="m212.36 375.34h0.2834v-0.74519l-0.2909 0.0556v-0.20233l0.28924-0.0556h0.30507v0.94753h0.2834v0.2054h-0.87021v-0.2054z"/><path d="m214.13 374.97q0-0.21622-0.0442-0.30425-0.0434-0.0888-0.1467-0.0888-0.10336 0-0.14754 0.0888-0.0442 0.088-0.0442 0.30425 0 0.21854 0.0442 0.30811 0.0442 0.0896 0.14754 0.0896 0.10252 0 0.1467-0.0896 0.0442-0.0896 0.0442-0.30811zm0.32091 3e-3q0 0.28649-0.13337 0.44248-0.13336 0.15521-0.37842 0.15521-0.2459 0-0.37926-0.15521-0.13337-0.15599-0.13337-0.44248 0-0.28727 0.13337-0.44248 0.13336-0.15599 0.37926-0.15599 0.24506 0 0.37842 0.15599 0.13337 0.15521 0.13337 0.44248z"/></g><g transform="matrix(1.2538 0 0 1.2538 -120.05 -.32088)"><path d="m219.5 375.34h0.2834v-0.74519l-0.2909 0.0556v-0.20233l0.28924-0.0556h0.30507v0.94753h0.2834v0.2054h-0.87021v-0.2054z"/><path d="m220.97 375.33h0.54764v0.21853h-0.90439v-0.21853l0.45428-0.37145q0.0609-0.051 0.0901-0.0996 0.0292-0.0487 0.0292-0.10115 0-0.0811-0.0591-0.13051-0.0584-0.0494-0.15587-0.0494-0.075 0-0.16421 0.0301-0.0892 0.0294-0.19088 0.088v-0.25328q0.10837-0.0332 0.21422-0.0502 0.10586-0.0177 0.20755-0.0177 0.2234 0 0.34676 0.0911 0.12419 0.0911 0.12419 0.25406 0 0.0942-0.0525 0.17606-0.0525 0.0811-0.22088 0.21777l-0.26591 0.21622z"/></g><g transform="matrix(1.2538 0 0 1.2538 -102.23 -.33392)"><path d="m227.87 375.34h0.2834v-0.74519l-0.2909 0.0556v-0.20233l0.28924-0.0556h0.30507v0.94753h0.2834v0.2054h-0.87021v-0.2054z"/><path d="m229.48 374.63-0.35175 0.48263h0.35175zm-0.0533-0.24479h0.35675v0.72742h0.17754v0.21545h-0.17754v0.21005h-0.30341v-0.21005h-0.55181v-0.25483z"/></g><g transform="matrix(1.2538 0 0 1.2538 -82.939 -.32351)"><path d="m235.01 375.34h0.2834v-0.74519l-0.2909 0.0556v-0.20233l0.28924-0.0556h0.30507v0.94753h0.2834v0.2054h-0.87021v-0.2054z"/><path d="m236.61 374.98q-0.0842 0-0.1267 0.051-0.0416 0.0502-0.0416 0.15136t0.0416 0.15212q0.0425 0.0502 0.1267 0.0502 0.085 0 0.12669-0.0502 0.0425-0.051 0.0425-0.15212 0-0.10117-0.0425-0.15136-0.0417-0.051-0.12669-0.051zm0.39675-0.55367v0.21313q-0.0792-0.0348-0.1492-0.051-0.07-0.017-0.1367-0.017-0.14337 0-0.22338 0.0742-0.08 0.0734-0.0934 0.21854 0.055-0.0378 0.11919-0.0564 0.0642-0.0193 0.14004-0.0193 0.19088 0 0.30757 0.10348 0.11753 0.10347 0.11753 0.27105 0 0.18533-0.13086 0.2973-0.13087 0.1112-0.35092 0.1112-0.24256 0-0.37592-0.15136-0.13254-0.15212-0.13254-0.43089 0-0.28572 0.15504-0.44866 0.15587-0.16371 0.42677-0.16371 0.0859 0 0.1667 0.0124 0.0808 0.0123 0.16004 0.037z"/></g></g><g transform="matrix(2.0085 0 0 2.0085 -298.93 -421.78)"><rect x="270.96" y="432.87" width="8.1306" height="9.8838" rx=".021557" ry=".03148" fill="#ebebeb" stroke="#000" stroke-width=".19916"/><g transform="translate(2e-4 .00128)"><path d="m271.8 434.67h1.6484l-3e-3 -1.3672h3.1576v1.3676h1.6409v4.2811l-6.4438 0.0139z" stroke-width=".93423"/></g></g><g transform="translate(26.923 1.6006)"><rect x="78.808" y="438.75" width="115.72" height="27.122" rx=".31701" ry=".13971" stroke-width="1.8802"/><path d="m79.029 465.56h114.47l-0.0432-26.483-114.43-4.7e-4z" fill="#3a3a3a" stroke-width="1.8802"/><g stroke-width="1.8739"><path d="m137.21 442.46h3.3039l-6e-3 -2.0044 1.2023-1e-3v-0.75052h3.8753l-9.1e-4 0.75247h1.2515v2.0046h3.2886v8.6301l-12.914 0.0281z" fill="#1a1a1a"/><path d="m147.14 441.94h3.2629v-1.4091h-3.2629z" fill="#abb927"/><path d="m136.93 441.94h3.2918v-1.4164h-3.2918z" fill="#abb927"/><path d="m150.15 462.15h-3.3039l6e-3 2.0044-1.2023 1e-3v0.75052h-3.8753l9e-4 -0.75248h-1.2515v-2.0046h-3.2886v-8.6301l12.914-0.0281z" fill="#1a1a1a"/><path d="m140.23 462.69h-3.2629v1.4091h3.2629z" fill="#abb927"/><path d="m150.45 462.69h-3.2918v1.4164h3.2918z" fill="#abb927"/><path d="m123.01 442.46h3.3039l-6e-3 -2.0044 1.2023-1e-3v-0.75052h3.8753l-9e-4 0.75247h1.2515v2.0046h3.2886v8.6301l-12.914 0.0281z" fill="#1a1a1a"/><path d="m132.94 441.94h3.2629v-1.4091h-3.2629z" fill="#abb927"/><path d="m122.73 441.94h3.2919v-1.4164h-3.2919z" fill="#abb927"/><path d="m135.95 462.15h-3.3039l6e-3 2.0044-1.2023 1e-3v0.75052h-3.8753l9.1e-4 -0.75248h-1.2515v-2.0046h-3.2886v-8.6301l12.914-0.0281z" fill="#1a1a1a"/><path d="m126.03 462.69h-3.2629v1.4091h3.2629z" fill="#abb927"/><path d="m136.25 462.69h-3.2918v1.4164h3.2918z" fill="#abb927"/><path d="m108.83 442.46h3.3039l-6e-3 -2.0044 1.2023-1e-3v-0.75052h3.8753l-9e-4 0.75247h1.2515v2.0046h3.2886v8.6301l-12.914 0.0281z" fill="#1a1a1a"/><path d="m118.76 441.94h3.2629v-1.4091h-3.2629z" fill="#abb927"/><path d="m108.55 441.94h3.2919v-1.4164h-3.2919z" fill="#abb927"/><path d="m121.77 462.15h-3.3039l6e-3 2.0044-1.2023 1e-3v0.75052h-3.8753l9e-4 -0.75248h-1.2515v-2.0046h-3.2886v-8.6301l12.914-0.0281z" fill="#1a1a1a"/><path d="m111.83 462.69h-3.2629v1.4091h3.2629z" fill="#abb927"/><path d="m122.07 462.69h-3.2918v1.4164h3.2918z" fill="#abb927"/><path d="m94.635 442.46h3.3039l-6e-3 -2.0044 1.2023-1e-3v-0.75052h3.8753l-9.1e-4 0.75247h1.2515v2.0046h3.2886v8.6301l-12.914 0.0281z" fill="#1a1a1a"/><path d="m104.56 441.94h3.2629v-1.4091h-3.2629z" fill="#abb927"/><path d="m94.353 441.94h3.2919v-1.4164h-3.2919z" fill="#abb927"/><path d="m107.57 462.15h-3.3039l6e-3 2.0044-1.2023 1e-3v0.75052h-3.8753l9.04e-4 -0.75248h-1.2515v-2.0046h-3.2886v-8.6301l12.914-0.0281z" fill="#1a1a1a"/><path d="m97.647 462.69h-3.2629v1.4091h3.2629z" fill="#abb927"/><path d="m107.87 462.69h-3.2918v1.4164h3.2918z" fill="#abb927"/><path d="m80.596 442.46h3.3039l-6e-3 -2.0044 1.2023-1e-3v-0.75052h3.8753l-9.04e-4 0.75249h1.2515v2.0046h3.2886v8.6301l-12.914 0.0281z" fill="#1a1a1a"/><path d="m90.517 441.94h3.2629v-1.4091h-3.2629z" fill="#abb927"/><path d="m80.314 441.94h3.2919v-1.4164h-3.2919z" fill="#abb927"/><path d="m93.53 462.15h-3.3039l6e-3 2.0044-1.2023 1e-3v0.75052h-3.8753l9.04e-4 -0.75248h-1.2515v-2.0046h-3.2886v-8.6301l12.914-0.0281z" fill="#1a1a1a"/><path d="m83.608 462.69h-3.2629v1.4091h3.2629z" fill="#abb927"/><path d="m93.831 462.69h-3.2919v1.4164h3.2919z" fill="#abb927"/></g><g stroke-width="1.8802"><path d="m151.37 442.48h3.3037l-6e-3 -2.0045 1.2023-1e-3v-0.75052h3.8753l-9e-4 0.75249h1.2514v2.0047h3.2884v8.6303l-12.914 0.0281z" fill="#1a1a1a"/><path d="m161.3 441.96h3.2629v-1.4091h-3.2629z" fill="#abb927"/><path d="m151.07 441.94h3.2914v-1.4164h-3.2914z" fill="#abb927"/><path d="m164.29 462.15h-3.3037l6e-3 2.0045-1.2023 1e-3v0.75052h-3.8753l9e-4 -0.75248h-1.2514v-2.0047h-3.2884v-8.6303l12.914-0.0281z" fill="#1a1a1a"/><path d="m154.37 462.67h-3.2629v1.4091h3.2629z" fill="#abb927"/><path d="m164.59 462.67h-3.2914v1.4164h3.2914z" fill="#abb927"/></g><g stroke-width="1.8739"><path d="m179.61 442.46h3.3039l-6e-3 -2.0044 1.2023-1e-3v-0.75052h3.8753l-9.1e-4 0.75247h1.2515v2.0046h3.2886v8.6301l-12.914 0.0281z" fill="#1a1a1a"/><path d="m189.53 441.94h3.2629v-1.4091h-3.2629z" fill="#abb927"/><path d="m179.33 441.94h3.2918v-1.4164h-3.2918z" fill="#abb927"/><path d="m192.54 462.14h-3.3039l6e-3 2.0044-1.2023 1e-3v0.75052h-3.8753l9e-4 -0.75248h-1.2515v-2.0046h-3.2886v-8.6301l12.914-0.0281z" fill="#1a1a1a"/><path d="m182.6 462.68h-3.2629v1.4091h3.2629z" fill="#abb927"/><path d="m192.85 462.68h-3.2918v1.4164h3.2918z" fill="#abb927"/><path d="m165.41 442.46h3.3039l-6e-3 -2.0044 1.2023-1e-3v-0.75052h3.8753l-9e-4 0.75247h1.2515v2.0046h3.2886v8.6301l-12.914 0.0281z" fill="#1a1a1a"/><path d="m175.33 441.94h3.2629v-1.4091h-3.2629z" fill="#abb927"/><path d="m165.13 441.94h3.2919v-1.4164h-3.2919z" fill="#abb927"/><path d="m178.34 462.14h-3.3039l6e-3 2.0044-1.2023 1e-3v0.75052h-3.8753l9.1e-4 -0.75248h-1.2515v-2.0046h-3.2886v-8.6301l12.914-0.0281z" fill="#1a1a1a"/><path d="m168.42 462.68h-3.2629v1.4091h3.2629z" fill="#abb927"/><path d="m178.65 462.68h-3.2918v1.4164h3.2918z" fill="#abb927"/><path d="m151.37 442.46h3.3039l-6e-3 -2.0044 1.2023-1e-3v-0.75052h3.8753l-9e-4 0.75249h1.2515v2.0046h3.2886v8.6301l-12.914 0.0281z" fill="#1a1a1a"/><path d="m161.29 441.94h3.2629v-1.4091h-3.2629z" fill="#abb927"/><path d="m164.31 462.14h-3.3039l6e-3 2.0044-1.2023 1e-3v0.75052h-3.8753l9.1e-4 -0.75248h-1.2515v-2.0046h-3.2886v-8.6301l12.914-0.0281z" fill="#1a1a1a"/><path d="m154.38 462.68h-3.2629v1.4091h3.2629z" fill="#abb927"/><path d="m164.61 462.68h-3.2919v1.4164h3.2919z" fill="#abb927"/></g><path transform="translate(70.4,401.07)" d="m90.064 38.076v1.2656l4.252-2e-3v1.6368l-0.42188 0.01563v8.9766l-12.916 0.0098v-8.9863l-0.42188-0.01563v-1.6348l4.2246 2e-3v-1.2656l-4.334 2e-3h-0.02344l-4.5156-2e-3v1.2656l4.252-2e-3v1.6367l-0.41992 0.01563-2e-3 9.0312-12.916 0.0293-2e-3 -9.0605-0.41992-0.01367v-1.6387l4.2266 2e-3v-1.2637l-4.3711 2e-3h-0.0078l-4.5312-2e-3v1.2637l4.25-2e-3v1.6387l-0.41992 0.01367-2e-3 9.0332-12.918 0.02734v-9.0605l-0.41797-0.01367v-1.6368l4.2246 2e-3v-1.2656l-4.3711 2e-3 -4.5391-2e-3v1.2656l4.25-2e-3v1.6367l-0.41992 0.01367v9.0332l-0.0098 0.0098-12.908 0.01953v-9.0605l-0.41992-0.01367v-1.6387l4.2246 2e-3v-1.2637l-4.373 2e-3h-0.0078l-4.5293-2e-3v1.2637l4.25-2e-3v1.6387l-0.41992 0.01367v9.0332l-0.0098 0.0098-12.908 0.01758v-9.0605l-0.41992-0.01367v-1.6387l4.2246 0.0039v-1.2656l-4.3711 2e-3h-0.0078l-4.3789-2e-3v1.2656l4.252-0.0039v1.6387l-0.41992 0.01367-2e-3 9.0332-0.0078 0.0098-12.908 0.01758-2e-3 -9.0586-0.41797-0.01563v-1.6367l4.2246 2e-3v-1.2656l0.0039-0.0039-5.2617 2e-3 0.00391 26.299 5.2852 2e-3v-1.2637l-4.248 2e-3v-1.6387l0.41797-0.01367v-8.9785l12.918-0.0078 2e-3 8.9863 0.41797 0.01367v1.6387l-4.2246-2e-3v1.2637l4.3516-2e-3h0.0059l4.3984 2e-3v-1.2637l-4.25 2e-3v-1.6387l0.41797-0.01367 2e-3 -8.9785 12.918-0.0078v8.9863l0.41992 0.01367v1.6387l-4.2266-2e-3v1.2637l4.5059-2e-3h0.0078l4.3965 2e-3v-1.2637l-4.25 2e-3v-1.6387l0.41992-0.01367 2e-3 -8.9785 12.916-0.0078v8.9863l0.41992 0.01367v1.6367l-4.2246-2e-3v1.2656l4.5039-2e-3 4.4062 2e-3v-1.2656l-4.252 2e-3v-1.6367l0.42187-0.01367v-8.9785l12.916-0.0078v8.9863l0.42188 0.01367v1.6367l-4.2266-2e-3v1.2656l4.5059-2e-3h0.0098l4.3945 2e-3v-1.2656l-4.25 2e-3v-1.6367l0.41992-0.01367v-8.9785l12.918-0.0078 2e-3 8.9863 0.41797 0.01367v1.6367l-4.2246-2e-3v1.2656l4.4902-2e-3h0.02344l4.3594 2e-3v-1.2656l-4.25 2e-3v-1.6367l0.41797-0.01367 2e-3 -9.0332 0.0098-0.0098 12.908-0.02148v9.0625h0.0059v2e-3l0.41602 0.01367v1.6367l-4.2266-2e-3v1.2637l4.3555-2e-3v2e-3h0.0059l4.3984 2e-3v-1.2637l-4.25 2e-3v-1.6387l0.41797-0.01367 2e-3 -8.9785 12.918-0.0078v8.9863l0.41992 0.01367v1.6387l-4.2266-2e-3v1.2637l4.5058-2e-3h8e-3l4.3965 2e-3v-1.2637l-4.25 2e-3v-1.6387l0.41992-0.01367 2e-3 -8.9785 12.916-0.0078-0.0278 8.9844 0.42187 0.01563v1.6367l-4.2266-2e-3v1.2656l5.2637-0.0039-4e-3 -26.297-5.2891-2e-3v1.2637l4.252-2e-3v1.6387l-0.42188 0.01367 0.0278 9.0349-12.918 0.0293v-9.0605l-0.41992-0.01367v-1.6387l4.2246 2e-3v-1.2637l-4.373 2e-3h-8e-3l-4.5293-2e-3v1.2637l4.25-2e-3v1.6387l-0.41992 0.01367v9.0332l-12.918 0.02734v-9.0605l-0.42188-0.01367v-1.6367l4.2266 2e-3v-1.2656l-4.3711 2e-3v-0.0059z" fill="#ebebeb" stroke-width=".99858"/></g><g transform="matrix(3.7795 0 0 3.7795 109.37 -645.02)"><path d="m36.063 294.15h4.1129v-1.4005h-4.1129z"/><path d="m36.063 294.15h4.1129v-1.4005h-4.1129z" fill="none" stroke="#535353" stroke-linecap="round" stroke-linejoin="round" stroke-miterlimit="4.4615" stroke-width=".018023"/><path d="m36.43 293.33h3.3932v-0.23953h-3.3932z" fill="none" stroke="#000" stroke-linecap="round" stroke-linejoin="round" stroke-miterlimit="4.4615" stroke-width=".018023"/><path d="m36.302 293.45h3.6355v-0.47906h-3.6355z" fill="#003380"/></g><g transform="translate(-15.778 -136.58)"><circle cx="293.08" cy="586.25" r="4.1839" fill="#f00" stroke="#b3b3b3" stroke-linejoin="round" stroke-width=".7"/><circle cx="293.08" cy="586.25" r="1.3365"/></g><g transform="translate(8.0234 -116.37)"><circle cx="269.27" cy="578.96" r="4.1839" fill="#fff" stroke="#b3b3b3" stroke-linejoin="round" stroke-width=".7"/><circle cx="269.27" cy="578.96" r="1.3365"/></g><g font-family="sans-serif" letter-spacing="0px" word-spacing="0px"><g font-size="3.0533px" stroke-width=".076331"><text x="257.23364" y="444.99026" text-align="center" text-anchor="middle" style="line-height:1.25" xml:space="preserve"><tspan x="253.44238" y="444.99026" fill="#000000" stroke-width=".076331" text-align="center" text-anchor="middle">LAN</tspan></text><text x="301.67111" y="423.93079" style="line-height:1.25" xml:space="preserve"><tspan x="297.87985" y="423.93079" fill="#000000" stroke-width=".076331" text-align="center" text-anchor="middle">VGA</tspan></text><text x="260.50491" y="424.18558" style="line-height:1.25" xml:space="preserve"><tspan x="256.71365" y="424.18558" fill="#000000" stroke-width=".076331" text-align="center" text-anchor="middle">RS-232</tspan></text><g text-anchor="middle"><text x="101.14606" y="455.02017" text-align="center" style="line-height:1.25" xml:space="preserve"><tspan x="97.354797" y="455.02017" fill="#000000" stroke-width=".076331" text-align="center" text-anchor="middle">POE</tspan></text><text x="257.20309" y="471.75909" text-align="center" style="line-height:1.25" xml:space="preserve"><tspan x="253.41182" y="471.75909" fill="#000000" stroke-width=".076331" text-align="center" text-anchor="middle">USB3.0</tspan></text><text x="281.05789" y="471.75909" text-align="center" style="line-height:1.25" xml:space="preserve"><tspan x="277.26663" y="471.75909" fill="#000000" stroke-width=".076331" text-align="center" text-anchor="middle">AUDIO</tspan></text></g></g><text x="134.02008" y="426.54254" font-size="8.1927px" stroke-width=".20482" style="line-height:1.25" xml:space="preserve"><tspan x="134.02008" y="426.54254" stroke-width=".20482">SDS-7716NI-K4-16P</tspan></text></g><g transform="matrix(1.0297 0 0 1.0297 118.36 466.49)"><g transform="matrix(.35278 0 0 -.35278 -278.4 -28.967)"><g clip-path="url(#clipPath82)"><g transform="translate(765.58 36.582)"><path d="m0 0c-2.452 3.199-0.467 8.191 4.019 8.245h9.122l-0.822-2.234h-7.375c-1.226-0.015-1.908-1.52-1.229-2.438 1.143-1.757 3.074-2.986 4.291-4.786 2.639-3.551-0.022-8.18-3.953-8.191h-10.033l0.821 2.233h7.923c1.215 0.015 1.893 1.515 1.258 2.414-1.003 1.662-4.022 4.757-4.022 4.757z" fill="#6b737b"/></g></g></g><g transform="matrix(.35278 0 0 -.35278 -27.349 -38.554)"><path d="m0 0h-5.302l6.506 17.649h5.302z" fill="#eb1a2c"/></g><g transform="matrix(.35278 0 0 -.35278 -11.573 -38.554)"><path d="m0 0h-4.995l6.506 17.649h4.995z" fill="#6b737b"/></g><g transform="matrix(.35278 0 0 -.35278 -3.0001 -38.554)"><path d="m0 0h-4.994l6.505 17.649h4.995z" fill="#6b737b"/></g><g transform="matrix(.35278 0 0 -.35278 -.33763 -42.894)"><path d="m8.798 5.515h3.097c2.612-0.122 4.197-2.279 4.331-4.064 0.06947-0.62179-0.03984-1.2049-0.167-1.759-0.547-2.266-1.371-4.576-2.45-6.651-1.74-3.674-5.407-5.627-8.799-5.514l-3.097-1e-3c-2.611 0.123-4.197 2.279-4.331 4.064-0.068921 0.62181 0.040584 1.2045 0.168 1.759 0.547 2.266 1.371 4.577 2.45 6.651 1.74 3.675 5.406 5.627 8.798 5.515zm0.657-1.829c-1.84-0.053-3.388-1.109-4.055-2.834l-3.299-8.987c-0.33626-1.0673 0.1318-2.3385 1.567-2.511h0.488c1.839 0.053 3.386 1.111 4.053 2.835l3.299 8.987c0.33382 1.0673-0.25334 2.4057-1.567 2.512z" fill="#6b737b"/></g><g transform="matrix(.35278 0 0 -.35278 -33.096 -42.384)"><path d="m0 0h6.315l2.505 6.795h5.302l-6.109-16.573v1e-3c-3e-3 -6e-3 -6e-3 -0.011-9e-3 -0.016-0.244-0.618-0.845-1.057-1.547-1.061h-4.143l3.112 8.441h-6.315l-3.112-8.441h-5.302l6.506 17.649h5.302z" fill="#eb1a2c"/></g><g transform="matrix(.35278 0 0 -.35278 -22.773 -42.44)"><path d="m0 0 8.642 6.636h3.962l-8.835-6.784 5.602-10.861h-4.502c0.015 4e-3 0.028 7e-3 0.04 8e-3 -0.7-0.047-1.332 0.348-1.62 0.946-3e-3 5e-3 -6e-3 0.01-0.01 0.016l-2e-3 -8e-3 -3.517 6.82-1.325-1.017-2.495-6.769h-5.302l6.506 17.649h5.302z" fill="#eb1a2c"/></g><g transform="matrix(.35278 0 0 -.35278 -15.655 -40.501)"><path d="m3.3071e-8 0 8.123 12.132h2.932l-11.339-16.903c-0.39528-0.52563-0.87111-0.746-1.343-0.746h-2.929l-1.388 17.649h4.991z" fill="#6b737b"/></g><g transform="matrix(.35278 0 0 -.35278 7.2443 -42.769)"><path d="m0 0-0.022 0.218-4.504-12.164h-2.573l6.535 17.649h3.259l4.703-11.927 4.416 11.927h2.574l-6.536-17.649h-2.354c-0.652 0.035-1.209 0.447-1.452 1.022z" fill="#6b737b"/></g></g><g transform="translate(3.1766 -143.97)"><path transform="rotate(-90,406.92,569.48)" d="m418.07 561.82-1.7433 3.0195h-3.4866l-1.7433-3.0195 1.7433-3.0195h3.4866z"/><path transform="rotate(-90,410.33,565.86)" d="m418.07 561.82-1.7433 3.0195h-3.4866l-1.7433-3.0195 1.7433-3.0195h3.4866z"/><path transform="rotate(-90,414.08,562.57)" d="m418.07 561.82-1.7433 3.0195h-3.4866l-1.7433-3.0195 1.7433-3.0195h3.4866z"/><path transform="rotate(-90,417.6,559.05)" d="m418.07 561.82-1.7433 3.0195h-3.4866l-1.7433-3.0195 1.7433-3.0195h3.4866z"/><path transform="rotate(-90,421.12,555.54)" d="m418.07 561.82-1.7433 3.0195h-3.4866l-1.7433-3.0195 1.7433-3.0195h3.4866z"/><path transform="rotate(-90,424.64,552.02)" d="m418.07 561.82-1.7433 3.0195h-3.4866l-1.7433-3.0195 1.7433-3.0195h3.4866z"/><path transform="rotate(-90,428.04,548.38)" d="m418.07 561.82-1.7433 3.0195h-3.4866l-1.7433-3.0195 1.7433-3.0195h3.4866z"/><path transform="rotate(-90,431.56,544.87)" d="m418.07 561.82-1.7433 3.0195h-3.4866l-1.7433-3.0195 1.7433-3.0195h3.4866z"/></g></svg>
