<svg width="185.05" height="24.996" version="1.1" viewBox="0 0 48.962 6.6136" xmlns="http://www.w3.org/2000/svg"><defs><clipPath id="clipPath82"><path d="m0 0h864v612h-864z"/></clipPath></defs><g transform="translate(36.378 45.105)"><g transform="translate(.13229 -.13229)"><g transform="matrix(.35278 0 0 -.35278 -278.4 -28.967)"><g clip-path="url(#clipPath82)"><g transform="translate(765.58 36.582)"><path d="m0 0c-2.452 3.199-0.467 8.191 4.019 8.245h9.122l-0.822-2.234h-7.375c-1.226-0.015-1.908-1.52-1.229-2.438 1.143-1.757 3.074-2.986 4.291-4.786 2.639-3.551-0.022-8.18-3.953-8.191h-10.033l0.821 2.233h7.923c1.215 0.015 1.893 1.515 1.258 2.414-1.003 1.662-4.022 4.757-4.022 4.757z" fill="#6b737b"/></g></g></g><g transform="matrix(.35278 0 0 -.35278 -27.349 -38.554)"><path d="m0 0h-5.302l6.506 17.649h5.302z" fill="#eb1a2c"/></g><g transform="matrix(.35278 0 0 -.35278 -11.573 -38.554)"><path d="m0 0h-4.995l6.506 17.649h4.995z" fill="#6b737b"/></g><g transform="matrix(.35278 0 0 -.35278 -3.0001 -38.554)"><path d="m0 0h-4.994l6.505 17.649h4.995z" fill="#6b737b"/></g><g transform="matrix(.35278 0 0 -.35278 -.33763 -42.894)"><path d="m8.798 5.515h3.097c2.612-0.122 4.197-2.279 4.331-4.064 0.06947-0.62179-0.03984-1.2049-0.167-1.759-0.547-2.266-1.371-4.576-2.45-6.651-1.74-3.674-5.407-5.627-8.799-5.514l-3.097-1e-3c-2.611 0.123-4.197 2.279-4.331 4.064-0.068921 0.62181 0.040584 1.2045 0.168 1.759 0.547 2.266 1.371 4.577 2.45 6.651 1.74 3.675 5.406 5.627 8.798 5.515zm0.657-1.829c-1.84-0.053-3.388-1.109-4.055-2.834l-3.299-8.987c-0.33626-1.0673 0.1318-2.3385 1.567-2.511h0.488c1.839 0.053 3.386 1.111 4.053 2.835l3.299 8.987c0.33382 1.0673-0.25334 2.4057-1.567 2.512z" fill="#6b737b"/></g><g transform="matrix(.35278 0 0 -.35278 -33.096 -42.384)"><path d="m0 0h6.315l2.505 6.795h5.302l-6.109-16.573v1e-3c-3e-3 -6e-3 -6e-3 -0.011-9e-3 -0.016-0.244-0.618-0.845-1.057-1.547-1.061h-4.143l3.112 8.441h-6.315l-3.112-8.441h-5.302l6.506 17.649h5.302z" fill="#eb1a2c"/></g><g transform="matrix(.35278 0 0 -.35278 -22.773 -42.44)"><path d="m0 0 8.642 6.636h3.962l-8.835-6.784 5.602-10.861h-4.502c0.015 4e-3 0.028 7e-3 0.04 8e-3 -0.7-0.047-1.332 0.348-1.62 0.946-3e-3 5e-3 -6e-3 0.01-0.01 0.016l-2e-3 -8e-3 -3.517 6.82-1.325-1.017-2.495-6.769h-5.302l6.506 17.649h5.302z" fill="#eb1a2c"/></g><g transform="matrix(.35278 0 0 -.35278 -15.655 -40.501)"><path d="m3.3071e-8 0 8.123 12.132h2.932l-11.339-16.903c-0.39528-0.52563-0.87111-0.746-1.343-0.746h-2.929l-1.388 17.649h4.991z" fill="#6b737b"/></g><g transform="matrix(.35278 0 0 -.35278 7.2443 -42.769)"><path d="m0 0-0.022 0.218-4.504-12.164h-2.573l6.535 17.649h3.259l4.703-11.927 4.416 11.927h2.574l-6.536-17.649h-2.354c-0.652 0.035-1.209 0.447-1.452 1.022z" fill="#6b737b"/></g></g></g></svg>
