<svg width="293.33" height="58.667" version="1.1" viewBox="54.4 406.4 160.603253333 19.8684437333" xmlns="http://www.w3.org/2000/svg">
 <rect transform="scale(1.0667)" x="52.246" y="376.51" width="148.21" height="27.729" fill="#fff" stroke="#000" stroke-linejoin="round" stroke-width=".49057"/>
 <rect transform="scale(1.0667)" x="51.544" y="375.8" width="149.48" height="29.025" fill="none" stroke="#214478" stroke-linejoin="round" stroke-width="1.088"/>
 <g transform="matrix(.40627 0 0 .40627 95.773 257.38)">
  <rect x="91.072" y="390.59" width="112.6" height="36.613" fill="#ff0"/>
  <rect x="91.072" y="390.59" width="33.6" height="9.2" fill="none" stroke="#ff0" stroke-width=".2"/>
 </g>
 <g fill="#000000" font-family="sans-serif">
  <text transform="scale(1.0667)" x="57.154797" y="384.14481" font-size="2.1498px" style="line-height:0%">
   <tspan x="57.154797" y="384.14481" font-family="sans-serif" font-size="5.4751px" font-style="italic" font-weight="bold">ONE1540</tspan>
  </text>
  <text transform="scale(1.0667)" x="128.82639" y="392.50723" font-size=".6094px" text-anchor="middle" style="line-height:0%">
   <tspan x="128.82639" y="392.50723" font-size="2.7376px">UTP</tspan>
  </text>
  <text transform="scale(1.0667)" x="128.8391" y="394.69955" font-size=".6094px" text-anchor="middle" style="line-height:0%">
   <tspan x="128.8391" y="394.69955" font-size="2.7376px">1/0</tspan>
  </text>
 </g>
 <g transform="matrix(1.0667 0 0 1.0667 0 .59243)">
  <g transform="matrix(1.2553 0 0 1.2553 15.575 -100.73)">
   <rect x="140.27" y="396.39" width="2.8" height="3.8" fill="#7f7f7f"/>
   <rect x="140.27" y="396.39" width="2.8" height="3.8" fill="none" stroke="#000" stroke-width=".2"/>
  </g>
  <g transform="matrix(1.2553 0 0 1.2553 15.575 -100.73)">
   <circle cx="141.67" cy="398.19" r="1"/>
   <circle cx="141.67" cy="398.19" r="1" fill="none" stroke="#000" stroke-width=".2"/>
  </g>
 </g>
 <g transform="matrix(1.1003 0 0 1.0996 23.621 40.729)">
  <path d="m110.02 353.2h7.5579v-6.9858l-7.5579-2.3e-4z" fill="#3a3a3a"/>
  <g transform="matrix(.0080752 0 0 .0080046 96.896 381.97)">
   <path d="m2560.5-3593.3v-872.71l-935.94-0.027v872.74z" fill="none" stroke="#000" stroke-linecap="square" stroke-width=".67568"/>
  </g>
  <path d="m110.32 347.98h1.7584l-3e-3 -1.0653 0.63992-5.7e-4v-0.39887h2.0626l-4.8e-4 0.39991h0.66608v1.0654h1.7503v4.5866l-6.8735 0.0149z" fill="#1a1a1a"/>
  <g fill="#ffac00">
   <path d="m111.9 352.58h0.2195v-1.34h-0.2195v1.34z"/>
   <path d="m112.39 352.58h0.2195v-1.34h-0.2195v1.34z"/>
   <path d="m112.89 352.58h0.21944v-1.34h-0.21944v1.34z"/>
   <path d="m113.41 352.58h0.21951v-1.34h-0.21951v1.34z"/>
   <path d="m113.9 352.58h0.21951v-1.34h-0.21951v1.34z"/>
   <path d="m114.4 352.58h0.21944v-1.34h-0.21944v1.34z"/>
   <path d="m114.92 352.58h0.21999v-1.34h-0.21999v1.34z"/>
   <path d="m115.41 352.58h0.21944v-1.34h-0.21944v1.34z"/>
  </g>
  <g>
   <path d="m115.6 347.7h1.7367v-0.74886h-1.7367v0.74886z" fill="#abb927"/>
   <path d="m110.16 347.7h1.752v-0.75276h-1.752v0.75276z" fill="#ff7d00"/>
   <path d="m110.02 353.21-1e-3 -6.9884 2.3308-9.5e-4v0.67227l-2.2487-1e-3v0.87026l0.22325 7e-3 4.8e-4 4.8157 6.87-0.01 5e-3 -5e-3 5.3e-4 -4.801 0.22324-7e-3v-0.87027l-2.2619 1e-3v-0.67227l2.4153 9.5e-4 1e-3 6.9884" fill="#ebebeb"/>
  </g>
 </g>
 <g transform="matrix(1.1003 0 0 1.0996 31.93 40.729)">
  <path d="m110.02 353.2h7.5579v-6.9858l-7.5579-2.3e-4z" fill="#3a3a3a"/>
  <g transform="matrix(.0080752 0 0 .0080046 96.896 381.97)">
   <path d="m2560.5-3593.3v-872.71l-935.94-0.027v872.74z" fill="none" stroke="#000" stroke-linecap="square" stroke-width=".67568"/>
  </g>
  <path d="m110.32 347.98h1.7584l-3e-3 -1.0653 0.63992-5.7e-4v-0.39887h2.0626l-4.8e-4 0.39991h0.66608v1.0654h1.7503v4.5866l-6.8735 0.0149z" fill="#1a1a1a"/>
  <g fill="#ffac00">
   <path d="m111.9 352.58h0.2195v-1.34h-0.2195v1.34z"/>
   <path d="m112.39 352.58h0.2195v-1.34h-0.2195v1.34z"/>
   <path d="m112.89 352.58h0.21944v-1.34h-0.21944v1.34z"/>
   <path d="m113.41 352.58h0.21951v-1.34h-0.21951v1.34z"/>
   <path d="m113.9 352.58h0.21951v-1.34h-0.21951v1.34z"/>
   <path d="m114.4 352.58h0.21944v-1.34h-0.21944v1.34z"/>
   <path d="m114.92 352.58h0.21999v-1.34h-0.21999v1.34z"/>
   <path d="m115.41 352.58h0.21944v-1.34h-0.21944v1.34z"/>
  </g>
  <g>
   <path d="m115.6 347.7h1.7367v-0.74886h-1.7367v0.74886z" fill="#abb927"/>
   <path d="m110.16 347.7h1.752v-0.75276h-1.752v0.75276z" fill="#ff7d00"/>
   <path d="m110.02 353.21-1e-3 -6.9884 2.3308-9.5e-4v0.67227l-2.2487-1e-3v0.87026l0.22325 7e-3 4.8e-4 4.8157 6.87-0.01 5e-3 -5e-3 5.3e-4 -4.801 0.22324-7e-3v-0.87027l-2.2619 1e-3v-0.67227l2.4153 9.5e-4 1e-3 6.9884" fill="#ebebeb"/>
  </g>
 </g>
 <g transform="matrix(1.1003 0 0 1.0996 40.239 40.729)">
  <path d="m110.02 353.2h7.5579v-6.9858l-7.5579-2.3e-4z" fill="#3a3a3a"/>
  <g transform="matrix(.0080752 0 0 .0080046 96.896 381.97)">
   <path d="m2560.5-3593.3v-872.71l-935.94-0.027v872.74z" fill="none" stroke="#000" stroke-linecap="square" stroke-width=".67568"/>
  </g>
  <path d="m110.32 347.98h1.7584l-3e-3 -1.0653 0.63992-5.7e-4v-0.39887h2.0626l-4.8e-4 0.39991h0.66608v1.0654h1.7503v4.5866l-6.8735 0.0149z" fill="#1a1a1a"/>
  <g fill="#ffac00">
   <path d="m111.9 352.58h0.2195v-1.34h-0.2195v1.34z"/>
   <path d="m112.39 352.58h0.2195v-1.34h-0.2195v1.34z"/>
   <path d="m112.89 352.58h0.21944v-1.34h-0.21944v1.34z"/>
   <path d="m113.41 352.58h0.21951v-1.34h-0.21951v1.34z"/>
   <path d="m113.9 352.58h0.21951v-1.34h-0.21951v1.34z"/>
   <path d="m114.4 352.58h0.21944v-1.34h-0.21944v1.34z"/>
   <path d="m114.92 352.58h0.21999v-1.34h-0.21999v1.34z"/>
   <path d="m115.41 352.58h0.21944v-1.34h-0.21944v1.34z"/>
  </g>
  <g>
   <path d="m115.6 347.7h1.7367v-0.74886h-1.7367v0.74886z" fill="#abb927"/>
   <path d="m110.16 347.7h1.752v-0.75276h-1.752v0.75276z" fill="#ff7d00"/>
   <path d="m110.02 353.21-1e-3 -6.9884 2.3308-9.5e-4v0.67227l-2.2487-1e-3v0.87026l0.22325 7e-3 4.8e-4 4.8157 6.87-0.01 5e-3 -5e-3 5.3e-4 -4.801 0.22324-7e-3v-0.87027l-2.2619 1e-3v-0.67227l2.4153 9.5e-4 1e-3 6.9884" fill="#ebebeb"/>
  </g>
 </g>
 <g transform="matrix(1.1003 0 0 1.0996 48.547 40.729)">
  <path d="m110.02 353.2h7.5579v-6.9858l-7.5579-2.3e-4z" fill="#3a3a3a"/>
  <g transform="matrix(.0080752 0 0 .0080046 96.896 381.97)">
   <path d="m2560.5-3593.3v-872.71l-935.94-0.027v872.74z" fill="none" stroke="#000" stroke-linecap="square" stroke-width=".67568"/>
  </g>
  <path d="m110.32 347.98h1.7584l-3e-3 -1.0653 0.63992-5.7e-4v-0.39887h2.0626l-4.8e-4 0.39991h0.66608v1.0654h1.7503v4.5866l-6.8735 0.0149z" fill="#1a1a1a"/>
  <g fill="#ffac00">
   <path d="m111.9 352.58h0.2195v-1.34h-0.2195v1.34z"/>
   <path d="m112.39 352.58h0.2195v-1.34h-0.2195v1.34z"/>
   <path d="m112.89 352.58h0.21944v-1.34h-0.21944v1.34z"/>
   <path d="m113.41 352.58h0.21951v-1.34h-0.21951v1.34z"/>
   <path d="m113.9 352.58h0.21951v-1.34h-0.21951v1.34z"/>
   <path d="m114.4 352.58h0.21944v-1.34h-0.21944v1.34z"/>
   <path d="m114.92 352.58h0.21999v-1.34h-0.21999v1.34z"/>
   <path d="m115.41 352.58h0.21944v-1.34h-0.21944v1.34z"/>
  </g>
  <g>
   <path d="m115.6 347.7h1.7367v-0.74886h-1.7367v0.74886z" fill="#abb927"/>
   <path d="m110.16 347.7h1.752v-0.75276h-1.752v0.75276z" fill="#ff7d00"/>
   <path d="m110.02 353.21-1e-3 -6.9884 2.3308-9.5e-4v0.67227l-2.2487-1e-3v0.87026l0.22325 7e-3 4.8e-4 4.8157 6.87-0.01 5e-3 -5e-3 5.3e-4 -4.801 0.22324-7e-3v-0.87027l-2.2619 1e-3v-0.67227l2.4153 9.5e-4 1e-3 6.9884" fill="#ebebeb"/>
  </g>
 </g>
 <g transform="matrix(1.1003 0 0 1.0996 12.279 40.729)">
  <path d="m110.02 353.2h7.5579v-6.9858l-7.5579-2.3e-4z" fill="#3a3a3a"/>
  <g transform="matrix(.0080752 0 0 .0080046 96.896 381.97)">
   <path d="m2560.5-3593.3v-872.71l-935.94-0.027v872.74z" fill="none" stroke="#000" stroke-linecap="square" stroke-width=".67568"/>
  </g>
  <path d="m110.32 347.98h1.7584l-3e-3 -1.0653 0.63992-5.7e-4v-0.39887h2.0626l-4.8e-4 0.39991h0.66608v1.0654h1.7503v4.5866l-6.8735 0.0149z" fill="#1a1a1a"/>
  <g fill="#ffac00">
   <path d="m111.9 352.58h0.2195v-1.34h-0.2195v1.34z"/>
   <path d="m112.39 352.58h0.2195v-1.34h-0.2195v1.34z"/>
   <path d="m112.89 352.58h0.21944v-1.34h-0.21944v1.34z"/>
   <path d="m113.41 352.58h0.21951v-1.34h-0.21951v1.34z"/>
   <path d="m113.9 352.58h0.21951v-1.34h-0.21951v1.34z"/>
   <path d="m114.4 352.58h0.21944v-1.34h-0.21944v1.34z"/>
   <path d="m114.92 352.58h0.21999v-1.34h-0.21999v1.34z"/>
   <path d="m115.41 352.58h0.21944v-1.34h-0.21944v1.34z"/>
  </g>
  <g>
   <path d="m115.6 347.7h1.7367v-0.74886h-1.7367v0.74886z" fill="#abb927"/>
   <path d="m110.16 347.7h1.752v-0.75276h-1.752v0.75276z" fill="#ff7d00"/>
   <path d="m110.02 353.21-1e-3 -6.9884 2.3308-9.5e-4v0.67227l-2.2487-1e-3v0.87026l0.22325 7e-3 4.8e-4 4.8157 6.87-0.01 5e-3 -5e-3 5.3e-4 -4.801 0.22324-7e-3v-0.87027l-2.2619 1e-3v-0.67227l2.4153 9.5e-4 1e-3 6.9884" fill="#ebebeb"/>
  </g>
 </g>
 <g fill="#000000" font-family="sans-serif" font-size=".6094px" text-anchor="middle">
  <text transform="scale(1.0667)" x="139.53256" y="394.69955" style="line-height:0%">
   <tspan x="139.53256" y="394.69955" font-size="2.7376px">0/0</tspan>
  </text>
  <text transform="scale(1.0667)" x="147.35736" y="394.69955" style="line-height:0%">
   <tspan x="147.35736" y="394.69955" font-size="2.7376px">0/1</tspan>
  </text>
  <text transform="scale(1.0667)" x="155.15744" y="394.69955" style="line-height:0%">
   <tspan x="155.15744" y="394.69955" font-size="2.7376px">0/2</tspan>
  </text>
  <text transform="scale(1.0667)" x="162.91942" y="394.69955" style="line-height:0%">
   <tspan x="162.91942" y="394.69955" font-size="2.7376px">0/3</tspan>
  </text>
 </g>
 <g transform="matrix(1.0667 0 0 1.0667 -14.055 1.7079)">
  <g transform="matrix(-1.3011 0 0 -1.4933 185.26 993.98)">
   <rect x="63.072" y="397.39" width="5.6" height="4.4"/>
   <rect x="63.072" y="397.39" width="5.6" height="4.4" fill="none" stroke="#7f7f7f" stroke-width=".2"/>
  </g>
  <g transform="matrix(-1.3011 0 0 -1.4933 185.26 993.98)">
   <polygon points="65.272 398.19 64.872 398.19 64.872 398.79 63.472 398.79 63.472 401.39 68.272 401.39 68.272 398.79 66.872 398.79 66.872 398.19 66.472 398.19 66.472 397.79 65.272 397.79"/>
   <polygon points="65.272 398.19 64.872 398.19 64.872 398.79 63.472 398.79 63.472 401.39 68.272 401.39 68.272 398.79 66.872 398.79 66.872 398.19 66.472 398.19 66.472 397.79 65.272 397.79" fill="none" stroke="#7f7f7f" stroke-width=".2"/>
  </g>
 </g>
</svg>
