<svg width="306" height="44.5" version="1.1" viewBox="51 381 306 44.5" xml:space="preserve" xmlns="http://www.w3.org/2000/svg"><g transform="matrix(1.8264 0 0 1.8263 -42.149 -306.35)"><rect x="51.249" y="376.6" width="167.04" height="23.866" fill="#2a2719" opacity=".99" stroke="#000" stroke-linejoin="round" stroke-width=".49872"/><path d="m77.298 376.66v23.887h36.761v-23.887z" fill="#fff" stroke-linejoin="round" stroke-width=".82129"/><g stroke="#000"><rect x="172.68" y="391.33" width="3.7856" height="4.7297" fill="#1a1a1a" stroke-width=".25945"/><ellipse cx="174.56" cy="393.34" rx=".96714" ry=".89029" fill="#ebebeb" fill-rule="evenodd" stroke-width=".91999"/><rect x="181.99" y="391.33" width="3.7856" height="4.7297" fill="#1a1a1a" stroke-width=".25945"/><ellipse cx="183.87" cy="393.34" rx=".96714" ry=".89029" fill="#ebebeb" fill-rule="evenodd" stroke-width=".91999"/></g><path d="m114.06 376.66v13.033h-11.632v11.025h54.942v-24.058z" fill="#f5d815"/><path d="m60.446 384.2q0-0.26871-0.12214-0.40917-0.12061-0.14046-0.35115-0.14046-0.30535 0-0.51299 0.27482-0.20611 0.27328-0.20611 0.68551 0 0.2626 0.12061 0.40764 0.12061 0.14505 0.33589 0.14505 0.17558 0 0.31146-0.0733 0.13741-0.0748 0.23359-0.21985 0.09161-0.13894 0.14046-0.31299 0.05038-0.17405 0.05038-0.35726zm-0.3878-0.9756q0.45497 0 0.73132 0.25345 0.27787 0.25191 0.27787 0.65955 0 0.27787-0.0855 0.52521-0.08397 0.24733-0.24581 0.44429-0.19848 0.24275-0.47024 0.36336-0.27024 0.11909-0.62444 0.11909-0.45345 0-0.72979-0.25191-0.27634-0.25192-0.27634-0.66109 0-0.2794 0.08397-0.52673 0.08397-0.24734 0.24733-0.44581 0.19542-0.24123 0.46566-0.36032 0.27176-0.11909 0.62597-0.11909zm1.6321 0.0412h0.65651l0.52215 1.5787 0.30688-1.5787h0.55574l-0.44429 2.2794h-0.65651l-0.52215-1.5787-0.30535 1.5787h-0.55727zm2.6169 0h1.5848l-0.08702 0.44428h-0.99697l-0.08245 0.42444h0.93896l-0.08855 0.44429h-0.93743l-0.10077 0.52215h1.029l-0.08397 0.44429h-1.6199zm3.4871 1.8474h0.99086l-0.08397 0.43208h-1.655l0.0855-0.43513 0.96949-0.73132q0.15878-0.12214 0.24123-0.24733 0.08397-0.1252 0.08397-0.24276 0-0.12519-0.0855-0.1939-0.0855-0.0687-0.2397-0.0687-0.14504 0-0.32367 0.058-0.17863 0.0565-0.40306 0.17557l0.09771-0.48398q0.20764-0.0763 0.40764-0.11298 0.2-0.0382 0.39543-0.0382 0.3481 0 0.54811 0.15115 0.20001 0.14962 0.20001 0.40917 0 0.22291-0.12214 0.40612t-0.53742 0.49467zm1.9558-1.8474h1.4611l-0.08397 0.43207h-0.99239l-0.0687 0.35268q0.06718-0.0183 0.13894-0.0275 0.07328-0.0107 0.14657-0.0107 0.34963 0 0.54658 0.16031 0.19695 0.15878 0.19695 0.44123 0 0.44887-0.30382 0.713-0.30382 0.2626-0.82445 0.2626-0.19084 0-0.371-0.0382-0.18016-0.0366-0.35726-0.11298l0.09008-0.46261q0.16947 0.10993 0.32825 0.16184 0.16031 0.0519 0.3252 0.0519 0.24123 0 0.38627-0.12519 0.14504-0.12672 0.14504-0.33131 0-0.14657-0.10993-0.23207-0.10993-0.087-0.29924-0.087-0.12825 0-0.27787 0.0336-0.1481 0.0321-0.3252 0.10076zm2.7543 1.1542q-0.17405 0-0.2855 0.14352t-0.11145 0.36948q0 0.13588 0.0687 0.21221 0.0687 0.0748 0.19084 0.0748 0.17252 0 0.28398-0.14047 0.11298-0.14198 0.11298-0.35726 0-0.14657-0.06718-0.22443-0.06718-0.0779-0.19237-0.0779zm0.93285-1.0947-0.08244 0.42138q-0.1313-0.0672-0.25497-0.10076-0.12367-0.0336-0.24733-0.0336-0.28398 0-0.45955 0.15268-0.17558 0.15267-0.21375 0.42901 0.11909-0.0779 0.24428-0.1145 0.12672-0.0382 0.26871-0.0382 0.28092 0 0.45955 0.16642 0.17863 0.16641 0.17863 0.42443 0 0.42139-0.27634 0.69163-0.27482 0.2687-0.70842 0.2687-0.38932 0-0.60307-0.21985-0.21375-0.22138-0.21375-0.62444 0-0.31146 0.09466-0.59391 0.09466-0.28398 0.26566-0.48856 0.18321-0.21833 0.43207-0.32826 0.25039-0.10992 0.56185-0.10992 0.14352 0 0.2794 0.0244 0.13588 0.0244 0.27482 0.0733zm0.32673 1.8138h0.5191l0.2855-1.4733-0.55421 0.10992 0.07786-0.40001 0.55116-0.10992h0.55879l-0.36184 1.8733h0.51604l-0.07786 0.40612h-1.5955z" fill="#fff" stroke-width=".19543" aria-label="ONE 2561"/><path d="m93.992 378.13h0.47559v0.20486h-0.78541v-0.20486l0.39451-0.34819q0.05284-0.0478 0.07818-0.0934t0.02534-0.0948q0-0.076-0.0514-0.12234-0.05067-0.0463-0.13536-0.0463-0.06515 0-0.1426 0.0282-0.07746 0.0275-0.16577 0.0825v-0.23744q0.0941-0.0311 0.18604-0.0471 0.09193-0.0167 0.18025-0.0167 0.194 0 0.30113 0.0854 0.10786 0.0854 0.10786 0.23816 0 0.0883-0.0456 0.16504-0.0456 0.076-0.19183 0.20413zm0.9852-0.87589h0.1607l-0.38148 1.2183h-0.15998zm0.84259 0.53929q0-0.20269-0.03836-0.28521-0.03764-0.0833-0.1274-0.0833-0.08976 0-0.12813 0.0833-0.03837 0.0825-0.03837 0.28521 0 0.20485 0.03837 0.28882 0.03837 0.084 0.12813 0.084 0.08904 0 0.1274-0.084 0.03836-0.084 0.03836-0.28882zm0.27869 2e-3q0 0.26856-0.11582 0.41478-0.11582 0.1455-0.32864 0.1455-0.21354 0-0.32936-0.1455-0.11582-0.14622-0.11582-0.41478 0-0.26928 0.11582-0.41478 0.11582-0.14623 0.32936-0.14623 0.21282 0 0.32864 0.14623 0.11582 0.1455 0.11582 0.41478z" stroke-width=".092654" aria-label="2/0"/><rect x="157.91" y="386.68" width="9.2408" height="14.037" fill="#999"/><path d="m159.95 387.46v0.14836q-0.0711-0.0662-0.15184-0.0989-0.0801-0.0327-0.17065-0.0327-0.17832 0-0.27304 0.10936-0.0947 0.10866-0.0947 0.31483 0 0.20548 0.0947 0.31484 0.0947 0.10865 0.27304 0.10865 0.0905 0 0.17065-0.0327 0.0808-0.0327 0.15184-0.0989v0.14697q-0.0738 0.0501-0.15672 0.0752-0.0822 0.0251-0.17413 0.0251-0.23613 0-0.37195-0.14418-0.13582-0.14488-0.13582-0.39494 0-0.25075 0.13582-0.39493 0.13582-0.14488 0.37195-0.14488 0.0933 0 0.17552 0.0251 0.0829 0.0244 0.15533 0.0738zm0.63942 0.0153q-0.15324 0-0.24379 0.11423-0.0899 0.11423-0.0899 0.31135 0 0.19643 0.0899 0.31066 0.0905 0.11423 0.24379 0.11423 0.15324 0 0.24239-0.11423 0.0898-0.11423 0.0898-0.31066 0-0.19712-0.0898-0.31135-0.0891-0.11423-0.24239-0.11423zm0-0.11423q0.21871 0 0.34966 0.14697 0.13095 0.14627 0.13095 0.39284 0 0.24588-0.13095 0.39285-0.13095 0.14627-0.34966 0.14627-0.21941 0-0.35105-0.14627-0.13095-0.14627-0.13095-0.39285 0-0.24657 0.13095-0.39284 0.13164-0.14697 0.35105-0.14697zm0.70071 0.0188h0.18946l0.4611 0.86997v-0.86997h0.13652v1.0399h-0.18945l-0.46111-0.86997v0.86997h-0.13652zm1.6905 0.0341v0.13721q-0.0801-0.0383-0.15115-0.0571-0.071-0.0188-0.13722-0.0188-0.11493 0-0.17761 0.0446-0.062 0.0446-0.062 0.12677 0 0.069 0.0411 0.10448 0.0418 0.0348 0.15742 0.0564l0.085 0.0174q0.15742 0.0299 0.23195 0.10587 0.0752 0.0752 0.0752 0.202 0 0.15115-0.10169 0.22916-0.101 0.078-0.29672 0.078-0.0738 0-0.15742-0.0167-0.0829-0.0167-0.17204-0.0494v-0.14488q0.0857 0.0481 0.16786 0.0724 0.0822 0.0244 0.1616 0.0244 0.1205 0 0.18597-0.0474 0.0655-0.0474 0.0655-0.13512 0-0.0766-0.0474-0.11981-0.0467-0.0432-0.15393-0.0648l-0.0857-0.0167q-0.15741-0.0313-0.22776-0.0982-0.0703-0.0669-0.0703-0.18598 0-0.13791 0.0968-0.21732 0.0975-0.0794 0.26816-0.0794 0.0731 0 0.14906 0.0132 0.0759 0.0132 0.15533 0.0397zm0.70419 0.0613q-0.15324 0-0.24378 0.11423-0.0899 0.11423-0.0899 0.31135 0 0.19643 0.0899 0.31066 0.0905 0.11423 0.24378 0.11423 0.15324 0 0.2424-0.11423 0.0898-0.11423 0.0898-0.31066 0-0.19712-0.0898-0.31135-0.0892-0.11423-0.2424-0.11423zm0-0.11423q0.21871 0 0.34966 0.14697 0.13095 0.14627 0.13095 0.39284 0 0.24588-0.13095 0.39285-0.13095 0.14627-0.34966 0.14627-0.21941 0-0.35105-0.14627-0.13095-0.14627-0.13095-0.39285 0-0.24657 0.13095-0.39284 0.13164-0.14697 0.35105-0.14697zm0.70071 0.0188h0.1407v0.92151h0.50638v0.11841h-0.64708zm0.79475 0h0.65753v0.11841h-0.51683v0.30786h0.49523v0.11841h-0.49523v0.37683h0.52936v0.11841h-0.67006z" stroke-width=".089157" aria-label="CONSOLE"/><rect x="158.84" y="389.36" width="7.2861" height="6.5704" fill="#1a1a1a" stroke="#000" stroke-width=".081979"/><path d="m159.13 394.31h1.9558v0.83819h0.55881v0.55879h1.6764v-0.55879h0.55879v-0.83819h1.9558v-4.7316h-6.7056z" stroke="#808080" stroke-width=".082125"/><g stroke-width=".036404"><path d="m196.43 389.07h-4.483v6.9624h4.483z" fill="#484848" stroke="#000"/><path d="m196.26 389.24h-4.1787v6.5984h4.1787z" fill="#1a1a1a" stroke="#000"/><path d="m192.08 390.41h4.1947" fill="none" stroke="#7e7e7e"/></g><path d="m195.1 391.3v0.25755h-1.9036v-0.25755z" fill="#fff" stroke-width=".014508px"/><path d="m194.92 394.56q0-0.2805-0.20911-0.44626-0.20911-0.16448-0.56996-0.16448-0.35956 0-0.56867 0.16448-0.20911 0.16576-0.20911 0.44626 0 0.28052 0.20911 0.44373 0.20911 0.16448 0.56867 0.16448 0.36085 0 0.56996-0.16448 0.20911-0.16321 0.20911-0.44373zm0.20911 0q0 0.40038-0.26905 0.64009-0.26776 0.23971-0.71913 0.23971-0.45009 0-0.71912-0.23971-0.26777-0.23971-0.26777-0.64009 0-0.40164 0.26777-0.64262 0.26776-0.23971 0.71912-0.23971 0.45137 0 0.71913 0.23971 0.26905 0.24098 0.26905 0.64262z" fill="#fff" stroke-width=".014508px"/><rect x="103.8" y="382.41" width="7.5836" height="13.503" rx=".013549" ry=".0029435" fill="#f2f2f2" fill-rule="evenodd" stroke="#000" stroke-width=".066985"/><rect transform="rotate(-90)" x="-387.27" y="103.8" width="4.8728" height="7.5833" stroke="#000" stroke-width=".081683"/><path d="m111.31 382.47h-7.4417v4.7297h2.0035v-0.28298h3.7209v0.28298h1.7173z" fill="none" stroke="#f9f9f9" stroke-width=".1423"/><rect transform="rotate(90)" x="391.05" y="-111.4" width="4.8728" height="7.5833" stroke="#000" stroke-width=".081683"/><path d="m103.88 395.86h7.4417v-4.7297h-2.0035v0.28298h-3.7209v-0.28298h-1.7173z" fill="none" stroke="#f9f9f9" stroke-width=".1423"/><path d="m87.717 398.86h0.24612v-0.69855l-0.25263 0.0521v-0.18965l0.25118-0.0521h0.26494v0.8882h0.24612v0.19255h-0.75573zm1.2386-0.8882h0.1607l-0.38148 1.2183h-0.15998zm0.84259 0.53929q0-0.20269-0.03837-0.28521-0.03764-0.0833-0.1274-0.0833-0.08976 0-0.12813 0.0833-0.03837 0.0825-0.03837 0.28521 0 0.20485 0.03837 0.28882 0.03836 0.084 0.12813 0.084 0.08904 0 0.1274-0.084 0.03837-0.084 0.03837-0.28882zm0.27869 2e-3q0 0.26856-0.11582 0.41478-0.11582 0.1455-0.32864 0.1455-0.21354 0-0.32936-0.1455-0.11582-0.14622-0.11582-0.41478 0-0.26928 0.11582-0.41478 0.11582-0.14623 0.32936-0.14623 0.21282 0 0.32864 0.14623 0.11582 0.1455 0.11582 0.41478z" stroke-width=".092654" aria-label="1/0"/><rect transform="rotate(-90)" x="-395.97" y="91.812" width="4.8728" height="7.5833" stroke="#000" stroke-width=".081683"/><path d="m99.323 391.16h-7.4417v4.7297h2.0035v-0.28298h3.7209v0.28298h1.7173z" fill="none" stroke="#f9f9f9" stroke-width=".1423"/><rect x="115.41" y="380.59" width="18.777" height="15.222" rx="7.5982e-17" ry="0" fill="#3a3a3a" fill-rule="evenodd" stroke="#000" stroke-linecap="round" stroke-miterlimit="5.5" stroke-width=".27374"/><path d="m116.52 381.73v0.77636h1.8061v-0.77636zm9.0328 0v0.77636h1.8061v-0.77636zm-3.4329 4e-3v0.77208h1.7912v-0.77208zm9.0339 0v0.77208h1.7901v-0.77208zm-14.62 12.132v0.77099h1.7912v-0.77099zm5.596 0v0.77527h1.8061v-0.77527zm3.4383 0v0.77099h1.79v-0.77099zm5.5949 0v0.77527h1.8061v-0.77527z" fill="#abb927" stroke-width="1.0274"/><path d="m116.67 382.8h1.8127l-3e-3 -1.0981 0.65968-5.5e-4v-0.4112h2.1263l-4.9e-4 0.41227h0.68667v1.0982l5.5642-5.5e-4 -3e-3 -1.0981 0.65968-5.5e-4v-0.41118l2.1268 1.6e-4 -4.8e-4 0.41226h0.68667v1.0982h1.8044l0.0104 10.775h-1.8127l3e-3 1.0981-0.65968 5.4e-4v0.41119l-2.1268-1.7e-4 4.9e-4 -0.41225h-0.68667v-1.0982l-5.5642 5.5e-4 3e-3 1.0981-0.65969 5.5e-4v0.41118h-2.1263l4.9e-4 -0.41226h-0.68667v-1.0982h-1.8044z" stroke-width="1.0274"/><path d="m118.76 380.97-2.8872 1e-3 2e-3 14.408 2.9 1e-3v-0.69286l-2.3312 1e-3v-0.89719l0.22991-7e-3v-4.9188l7.0874-4e-3 1e-3 4.9232 0.2299 7e-3v0.89718l-2.3184-1e-3v0.69292h6.135v-0.69292l-2.3323 1e-3v-0.89718l0.22991-7e-3 1e-3 -4.9188 7.0872-0.0456v4.9649l0.23098 7e-3v0.89718l-2.3184-1e-3v0.69292l3.1997-1e-3 -2e-3 -14.408-3.2136-1e-3v0.69292l2.3323-1e-3v0.89718l-0.23096 7e-3v4.9189l-7.0878 0.0439v-4.9638l-0.23098-7e-3v-0.89718l2.3184 1e-3v-0.69292h-6.135v0.69292l2.3323-1e-3v0.89718l-0.22992 7e-3 -1e-3 4.9488-4e-3 5e-3 -7.0825 9e-3 -1e-3 -4.9638-0.2299-7e-3v-0.8972l2.3184 1e-3v-0.6929z" fill="#ebebeb" stroke-width=".5475"/><rect x="78.595" y="380.59" width="9.7891" height="15.222" rx="7.5982e-17" ry="0" fill="#3a3a3a" fill-rule="evenodd" stroke="#000" stroke-linecap="round" stroke-miterlimit="5.5" stroke-width=".27374"/><path d="m79.708 381.73v0.77636h1.8061v-0.77636zm5.6 4e-3v0.77208h1.7912v-0.77208zm-5.5863 12.132v0.77099h1.7912v-0.77099zm5.596 0v0.77527h1.8061v-0.77527z" fill="#abb927" stroke-width="1.0274"/><path d="m79.863 382.8h1.8127l-0.0031-1.0981 0.65968-5.5e-4v-0.4112l2.1263 2.6e-4 -4.84e-4 0.41226h0.68667v1.0982h1.8044l0.01041 10.775h-1.8127l0.0031 1.0981-0.65968 5.4e-4v0.41119l-2.1263-2.5e-4 4.95e-4 -0.41226h-0.68667v-1.0982h-1.8044z" stroke-width="1.0274"/><path d="m81.945 380.97-2.8872 1e-3 0.0021 14.408 2.9 1e-3v-0.69286l-2.3312 1e-3v-0.89719l0.22991-7e-3v-4.9188l7.0868-0.0454v4.9649l0.23098 7e-3v0.89718l-2.3184-1e-3v0.69292l3.1997-1e-3 -0.0021-14.408-3.2136-1e-3v0.69292l2.3323-1e-3v0.89718l-0.23096 7e-3v4.9189l-7.0866 0.0434-1e-3 -4.9638-0.2299-7e-3v-0.8972l2.3184 1e-3v-0.6929z" fill="#ebebeb" stroke-width=".5475"/><rect x="138.18" y="380.59" width="18.777" height="15.222" rx="7.5982e-17" ry="0" fill="#3a3a3a" fill-rule="evenodd" stroke="#000" stroke-linecap="round" stroke-miterlimit="5.5" stroke-width=".27374"/><path d="m139.29 381.73v0.77636h1.8061v-0.77636zm9.0328 0v0.77636h1.8061v-0.77636zm-3.4329 4e-3v0.77208h1.7912v-0.77208zm9.0339 0v0.77208h1.7901v-0.77208zm-14.62 12.132v0.77099h1.7912v-0.77099zm5.596 0v0.77527h1.8061v-0.77527zm3.4383 0v0.77099h1.79v-0.77099zm5.5949 0v0.77527h1.8061v-0.77527z" fill="#abb927" stroke-width="1.0274"/><path d="m139.44 382.8h1.8127l-3e-3 -1.0981 0.65968-5.5e-4v-0.4112h2.1263l-4.9e-4 0.41227h0.68667v1.0982l5.5642-5.5e-4 -3e-3 -1.0981 0.65968-5.5e-4v-0.41118l2.1268 1.6e-4 -4.8e-4 0.41226h0.68667v1.0982h1.8044l0.0104 10.775h-1.8127l3e-3 1.0981-0.65968 5.4e-4v0.41119l-2.1268-1.7e-4 4.9e-4 -0.41225h-0.68667v-1.0982l-5.5642 5.5e-4 3e-3 1.0981-0.65969 5.5e-4v0.41118h-2.1263l4.9e-4 -0.41226h-0.68667v-1.0982h-1.8044z" stroke-width="1.0274"/><path d="m141.53 380.97-2.8872 1e-3 2e-3 14.408 2.9 1e-3v-0.69286l-2.3312 1e-3v-0.89719l0.22991-7e-3v-4.9188l7.0874-4e-3 1e-3 4.9232 0.2299 7e-3v0.89718l-2.3184-1e-3v0.69292h6.135v-0.69292l-2.3323 1e-3v-0.89718l0.22991-7e-3 1e-3 -4.9188 7.0872-0.0456v4.9649l0.23098 7e-3v0.89718l-2.3184-1e-3v0.69292l3.1997-1e-3 -2e-3 -14.408-3.2136-1e-3v0.69292l2.3323-1e-3v0.89718l-0.23096 7e-3v4.9189l-7.0878 0.0439v-4.9638l-0.23098-7e-3v-0.89718l2.3184 1e-3v-0.69292h-6.135v0.69292l2.3323-1e-3v0.89718l-0.22992 7e-3 -1e-3 4.9488-4e-3 5e-3 -7.0825 9e-3 -1e-3 -4.9638-0.2299-7e-3v-0.8972l2.3184 1e-3v-0.6929z" fill="#ebebeb" stroke-width=".5475"/><path d="m78.465 397.28h20.858" fill="none" stroke="#000" stroke-linejoin="round" stroke-width=".27376"/><path d="m78.465 379.08h32.85" fill="none" stroke="#000" stroke-linejoin="round" stroke-width=".27376"/><g stroke-width=".092658"><path d="m107.26 397.75q0-0.2027-0.0384-0.28523-0.0376-0.0833-0.12741-0.0833-0.0898 0-0.12813 0.0833-0.0384 0.0825-0.0384 0.28523 0 0.20487 0.0384 0.28885 0.0384 0.084 0.12813 0.084 0.089 0 0.12741-0.084 0.0384-0.084 0.0384-0.28885zm0.27871 2e-3q0 0.26858-0.11583 0.41481-0.11583 0.14551-0.32866 0.14551-0.21356 0-0.32939-0.14551-0.11582-0.14623-0.11582-0.41481 0-0.2693 0.11582-0.41481 0.11583-0.14623 0.32939-0.14623 0.21283 0 0.32866 0.14623 0.11583 0.14551 0.11583 0.41481zm0.45173-0.5415h0.16071l-0.38151 1.2184h-0.15998zm0.67687 0.59724q-0.0782 0-0.12017 0.0427-0.042 0.0427-0.042 0.12234 0 0.0796 0.042 0.12234 0.042 0.042 0.12017 0.042 0.0775 0 0.11872-0.042 0.0413-0.0427 0.0413-0.12234 0-0.0804-0.0413-0.12234-0.0413-0.0427-0.11872-0.0427zm-0.20342-0.0919q-0.0985-0.0297-0.14841-0.0912-0.0499-0.0615-0.0499-0.15347 0-0.13682 0.10208-0.20849 0.10207-0.0717 0.2997-0.0717 0.19618 0 0.29826 0.0717 0.10207 0.0709 0.10207 0.20849 0 0.0919-0.0507 0.15347-0.0499 0.0615-0.14841 0.0912 0.11004 0.0304 0.16578 0.0992 0.0565 0.0681 0.0565 0.1723 0 0.16071-0.10714 0.24324-0.10642 0.0818-0.31636 0.0818-0.21066 0-0.31853-0.0818-0.10714-0.0825-0.10714-0.24324 0-0.10425 0.0557-0.1723 0.0565-0.0688 0.16651-0.0992zm0.0651-0.21646q0 0.0644 0.0355 0.0992 0.0362 0.0348 0.1028 0.0348 0.0652 0 0.10063-0.0348 0.0355-0.0347 0.0355-0.0992 0-0.0644-0.0355-0.0984-0.0355-0.0348-0.10063-0.0348-0.0666 0-0.1028 0.0348-0.0355 0.0347-0.0355 0.0984z" aria-label="0/8"/><path d="m119.72 397.7q0-0.2027-0.0384-0.28522-0.0376-0.0833-0.12741-0.0833-0.0898 0-0.12814 0.0833-0.0384 0.0825-0.0384 0.28522 0 0.20488 0.0384 0.28885 0.0384 0.084 0.12814 0.084 0.089 0 0.12741-0.084 0.0384-0.084 0.0384-0.28885zm0.27872 2e-3q0 0.26857-0.11583 0.41481-0.11583 0.1455-0.32866 0.1455-0.21356 0-0.32939-0.1455-0.11583-0.14624-0.11583-0.41481 0-0.2693 0.11583-0.41481 0.11583-0.14624 0.32939-0.14624 0.21283 0 0.32866 0.14624 0.11583 0.14551 0.11583 0.41481zm0.45173-0.5415h0.16071l-0.38151 1.2184h-0.15999zm0.84265 0.53932q0-0.2027-0.0384-0.28522-0.0376-0.0833-0.12741-0.0833-0.0898 0-0.12814 0.0833-0.0384 0.0825-0.0384 0.28522 0 0.20488 0.0384 0.28885 0.0384 0.084 0.12814 0.084 0.089 0 0.12741-0.084 0.0384-0.084 0.0384-0.28885zm0.27871 2e-3q0 0.26857-0.11583 0.41481-0.11583 0.1455-0.32866 0.1455-0.21356 0-0.32939-0.1455-0.11583-0.14624-0.11583-0.41481 0-0.2693 0.11583-0.41481 0.11583-0.14624 0.32939-0.14624 0.21283 0 0.32866 0.14624 0.11583 0.14551 0.11583 0.41481z" aria-label="0/0"/><path d="m119.73 378.81q0-0.2027-0.0384-0.28522-0.0376-0.0833-0.12741-0.0833-0.0898 0-0.12813 0.0833-0.0384 0.0825-0.0384 0.28522 0 0.20487 0.0384 0.28885 0.0384 0.084 0.12813 0.084 0.089 0 0.12741-0.084 0.0384-0.084 0.0384-0.28885zm0.27871 2e-3q0 0.26858-0.11583 0.41481-0.11583 0.14551-0.32866 0.14551-0.21356 0-0.32939-0.14551-0.11582-0.14623-0.11582-0.41481 0-0.2693 0.11582-0.41481 0.11583-0.14623 0.32939-0.14623 0.21283 0 0.32866 0.14623 0.11583 0.14551 0.11583 0.41481zm0.45173-0.54149h0.16071l-0.38151 1.2184h-0.15998zm0.33445 0.88825h0.24614v-0.69858l-0.25265 0.0521v-0.18967l0.2512-0.0521h0.26496v0.88825h0.24613v0.19257h-0.75578z" aria-label="0/1"/><path d="m128.48 378.67q0-0.2027-0.0384-0.28522-0.0376-0.0833-0.12741-0.0833-0.0898 0-0.12814 0.0833-0.0384 0.0825-0.0384 0.28522 0 0.20487 0.0384 0.28885 0.0384 0.084 0.12814 0.084 0.089 0 0.12741-0.084 0.0384-0.084 0.0384-0.28885zm0.27871 2e-3q0 0.26858-0.11583 0.41481-0.11583 0.14551-0.32866 0.14551-0.21356 0-0.32939-0.14551-0.11583-0.14623-0.11583-0.41481 0-0.2693 0.11583-0.41481 0.11583-0.14623 0.32939-0.14623 0.21283 0 0.32866 0.14623 0.11583 0.14551 0.11583 0.41481zm0.45173-0.54149h0.16071l-0.38151 1.2184h-0.15999zm0.85134 0.49806q0.10931 0.0282 0.16577 0.0985 0.0572 0.0695 0.0572 0.17736 0 0.16072-0.12306 0.24469-0.12307 0.0832-0.35907 0.0832-0.0832 0-0.16723-0.0138-0.0832-0.013-0.16505-0.0398v-0.215q0.0782 0.0391 0.15492 0.0594 0.0775 0.0195 0.15202 0.0195 0.11076 0 0.1694-0.0384 0.0594-0.0384 0.0594-0.11004 0-0.0738-0.0608-0.11149-0.0601-0.0384-0.17808-0.0384h-0.11149v-0.17954h0.11728q0.10497 0 0.15637-0.0326 0.0514-0.0333 0.0514-0.10063 0-0.0623-0.0499-0.0963-0.05-0.034-0.14117-0.034-0.0673 0-0.1361 0.0152t-0.13682 0.0449v-0.20415q0.0825-0.0232 0.16361-0.0348 0.0811-0.0116 0.15926-0.0116 0.21066 0 0.31491 0.0695 0.10497 0.0688 0.10497 0.20776 0 0.0948-0.0499 0.15565-0.05 0.0601-0.14768 0.0847z" aria-label="0/3"/><path d="m128.49 397.7q0-0.2027-0.0384-0.28522-0.0377-0.0833-0.12741-0.0833-0.0898 0-0.12814 0.0833-0.0384 0.0825-0.0384 0.28522 0 0.20488 0.0384 0.28885 0.0384 0.084 0.12814 0.084 0.089 0 0.12741-0.084 0.0384-0.084 0.0384-0.28885zm0.27872 2e-3q0 0.26857-0.11583 0.41481-0.11583 0.1455-0.32866 0.1455-0.21356 0-0.32939-0.1455-0.11583-0.14624-0.11583-0.41481 0-0.2693 0.11583-0.41481 0.11583-0.14624 0.32939-0.14624 0.21283 0 0.32866 0.14624 0.11583 0.14551 0.11583 0.41481zm0.45173-0.5415h0.16071l-0.38151 1.2184h-0.15999zm0.58782 0.87595h0.47562v0.20487h-0.78546v-0.20487l0.39454-0.34821q0.0529-0.0478 0.0782-0.0934t0.0253-0.0948q0-0.076-0.0514-0.12234-0.0507-0.0463-0.13538-0.0463-0.0652 0-0.14261 0.0282-0.0775 0.0275-0.16578 0.0825v-0.23745q0.0941-0.0311 0.18605-0.0471 0.0919-0.0166 0.18026-0.0166 0.19401 0 0.30115 0.0854 0.10786 0.0854 0.10786 0.23817 0 0.0883-0.0456 0.16505-0.0456 0.076-0.19184 0.20415z" aria-label="0/2"/><path d="m142.36 378.81q0-0.2027-0.0384-0.28522-0.0377-0.0833-0.12741-0.0833-0.0898 0-0.12814 0.0833-0.0384 0.0825-0.0384 0.28522 0 0.20487 0.0384 0.28885 0.0384 0.084 0.12814 0.084 0.089 0 0.12741-0.084 0.0384-0.084 0.0384-0.28885zm0.27871 2e-3q0 0.26858-0.11583 0.41481-0.11583 0.14551-0.32866 0.14551-0.21356 0-0.32939-0.14551-0.11583-0.14623-0.11583-0.41481 0-0.2693 0.11583-0.41481 0.11583-0.14623 0.32939-0.14623 0.21283 0 0.32866 0.14623 0.11583 0.14551 0.11583 0.41481zm0.45173-0.54149h0.16071l-0.38151 1.2184h-0.15999zm0.3178 0h0.6928v0.20487h-0.47055v0.16723q0.0319-9e-3 0.0637-0.013 0.0326-5e-3 0.0673-5e-3 0.19763 0 0.30766 0.0992 0.11004 0.0985 0.11004 0.27509 0 0.17519-0.12017 0.27436-0.11945 0.0992-0.33228 0.0992-0.0919 0-0.18243-0.0181-0.0898-0.0174-0.17881-0.0536v-0.21935q0.0883 0.0507 0.16723 0.076 0.0796 0.0253 0.14985 0.0253 0.10135 0 0.15926-0.0492 0.0586-0.0499 0.0586-0.13465 0-0.0854-0.0586-0.13465-0.0579-0.0492-0.15926-0.0492-0.0601 0-0.12814 0.0159-0.068 0.0152-0.14623 0.0478z" aria-label="0/5"/><path d="m151.57 378.81q0-0.2027-0.0384-0.28522-0.0377-0.0833-0.12742-0.0833-0.0898 0-0.12813 0.0833-0.0384 0.0825-0.0384 0.28522 0 0.20487 0.0384 0.28885 0.0384 0.084 0.12813 0.084 0.089 0 0.12742-0.084 0.0384-0.084 0.0384-0.28885zm0.27872 2e-3q0 0.26858-0.11583 0.41481-0.11583 0.14551-0.32867 0.14551-0.21355 0-0.32938-0.14551-0.11583-0.14623-0.11583-0.41481 0-0.2693 0.11583-0.41481 0.11583-0.14623 0.32938-0.14623 0.21284 0 0.32867 0.14623 0.11583 0.14551 0.11583 0.41481zm0.45173-0.54149h0.16071l-0.38151 1.2184h-0.15999zm0.25988 0h0.81442v0.15709l-0.42132 0.92373h-0.27148l0.39889-0.87595h-0.52051z" aria-label="0/7"/><path d="m142.34 397.7q0-0.2027-0.0384-0.28522-0.0376-0.0833-0.12741-0.0833-0.0898 0-0.12813 0.0833-0.0384 0.0825-0.0384 0.28522 0 0.20488 0.0384 0.28885 0.0384 0.084 0.12813 0.084 0.089 0 0.12741-0.084 0.0384-0.084 0.0384-0.28885zm0.27871 2e-3q0 0.26857-0.11583 0.41481-0.11583 0.1455-0.32866 0.1455-0.21356 0-0.32939-0.1455-0.11582-0.14624-0.11582-0.41481 0-0.2693 0.11582-0.41481 0.11583-0.14624 0.32939-0.14624 0.21283 0 0.32866 0.14624 0.11583 0.14551 0.11583 0.41481zm0.45173-0.5415h0.16071l-0.38151 1.2184h-0.15998zm0.70655 0.22948-0.30549 0.45246h0.30549zm-0.0463-0.22948h0.30984v0.68194h0.1542v0.20197h-0.1542v0.19691h-0.26351v-0.19691h-0.47924v-0.23889z" aria-label="0/4"/><path d="m151.55 397.7q0-0.2027-0.0384-0.28522-0.0376-0.0833-0.12741-0.0833-0.0898 0-0.12813 0.0833-0.0384 0.0825-0.0384 0.28522 0 0.20488 0.0384 0.28885 0.0384 0.084 0.12813 0.084 0.0891 0 0.12741-0.084 0.0384-0.084 0.0384-0.28885zm0.27871 2e-3q0 0.26857-0.11582 0.41481-0.11583 0.1455-0.32867 0.1455-0.21356 0-0.32938-0.1455-0.11583-0.14624-0.11583-0.41481 0-0.2693 0.11583-0.41481 0.11582-0.14624 0.32938-0.14624 0.21284 0 0.32867 0.14624 0.11582 0.14551 0.11582 0.41481zm0.45173-0.5415h0.16071l-0.3815 1.2184h-0.15999zm0.69714 0.54729q-0.0731 0-0.11003 0.0478-0.0362 0.047-0.0362 0.14189 0 0.0948 0.0362 0.14261 0.0369 0.0471 0.11003 0.0471 0.0738 0 0.11004-0.0471 0.0369-0.0478 0.0369-0.14261 0-0.0948-0.0369-0.14189-0.0362-0.0478-0.11004-0.0478zm0.34459-0.51906v0.19981q-0.0688-0.0326-0.12958-0.0478-0.0608-0.0159-0.11872-0.0159-0.12452 0-0.19402 0.0695-0.0695 0.0688-0.0811 0.20487 0.0478-0.0355 0.10353-0.0528 0.0557-0.0181 0.12161-0.0181 0.16578 0 0.26713 0.097 0.10208 0.097 0.10208 0.2541 0 0.17374-0.11366 0.27871-0.11366 0.10424-0.30477 0.10424-0.21066 0-0.32649-0.14188-0.11511-0.14262-0.11511-0.40396 0-0.26785 0.13465-0.4206 0.13538-0.15347 0.37065-0.15347 0.0746 0 0.14479 0.0116 0.0702 0.0116 0.13899 0.0348z" aria-label="0/6"/></g></g></svg>
