<?xml version="1.0" encoding="UTF-8" standalone="no"?>
<svg
   xmlns:dc="http://purl.org/dc/elements/1.1/"
   xmlns:cc="http://creativecommons.org/ns#"
   xmlns:rdf="http://www.w3.org/1999/02/22-rdf-syntax-ns#"
   xmlns:svg="http://www.w3.org/2000/svg"
   xmlns="http://www.w3.org/2000/svg"
   xmlns:sodipodi="http://sodipodi.sourceforge.net/DTD/sodipodi-0.dtd"
   xmlns:inkscape="http://www.inkscape.org/namespaces/inkscape"
   width="275"
   height="55"
   version="1.1"
   viewBox="51 381 150.56555 18.626666"
   id="svg180"
   sodipodi:docname="ONE540.svg"
   inkscape:version="0.92+devel unknown">
  <metadata
     id="metadata186">
    <rdf:RDF>
      <cc:Work
         rdf:about="">
        <dc:format>image/svg+xml</dc:format>
        <dc:type
           rdf:resource="http://purl.org/dc/dcmitype/StillImage" />
        <dc:title></dc:title>
      </cc:Work>
    </rdf:RDF>
  </metadata>
  <defs
     id="defs184" />
  <sodipodi:namedview
     pagecolor="#ffffff"
     bordercolor="#666666"
     inkscape:document-rotation="0"
     borderopacity="1"
     objecttolerance="10"
     gridtolerance="10"
     guidetolerance="10"
     inkscape:pageopacity="0"
     inkscape:pageshadow="2"
     inkscape:window-width="1920"
     inkscape:window-height="1043"
     id="namedview182"
     showgrid="false"
     inkscape:zoom="42.181818"
     inkscape:cx="39.026521"
     inkscape:cy="40.280051"
     inkscape:window-x="0"
     inkscape:window-y="0"
     inkscape:window-maximized="1"
     inkscape:current-layer="svg180" />
  <rect
     x="52.246"
     y="376.51"
     width="148.21"
     height="27.729"
     fill="#fff"
     stroke="#000"
     stroke-linejoin="round"
     stroke-width=".49057"
     id="rect2" />
  <rect
     x="51.544"
     y="375.8"
     width="149.48"
     height="29.025"
     fill="none"
     stroke="#214478"
     stroke-linejoin="round"
     stroke-width="1.088"
     id="rect4" />
  <g
     transform="matrix(.38088 0 0 .38088 89.787 241.29)"
     id="g8">
    <rect
       x="89.662"
       y="388.87"
       width="115.2"
       height="37.799"
       fill="#ff0"
       id="rect6" />
  </g>
  <g
     aria-label="ONE540"
     id="g22">
    <path
       d="m60.523 381.79q0-0.47052-0.21387-0.71647-0.2112-0.24596-0.61488-0.24596-0.53468 0-0.89826 0.48122-0.36091 0.47853-0.36091 1.2004 0 0.45982 0.2112 0.7138 0.2112 0.25397 0.58815 0.25397 0.30744 0 0.54537-0.12833 0.24061-0.13099 0.40903-0.38496 0.1604-0.24328 0.24595-0.54805 0.08822-0.30477 0.08822-0.62557zm-0.67904-1.7083q0.79667 0 1.2806 0.44378 0.48656 0.44111 0.48656 1.1549 0 0.48655-0.14971 0.91964-0.14704 0.43309-0.43042 0.77796-0.34754 0.42507-0.82341 0.63627-0.47319 0.20852-1.0934 0.20852-0.794 0-1.2779-0.44111t-0.48388-1.1576q0-0.48923 0.14704-0.92232 0.14704-0.43309 0.43309-0.78063 0.3422-0.42239 0.81538-0.63092 0.47586-0.20852 1.0961-0.20852z"
       id="path10" />
    <path
       d="m62.699 380.15h1.1496l0.9143 2.7643 0.53735-2.7643h0.97312l-0.77796 3.9914h-1.1496l-0.9143-2.7643-0.53468 2.7643h-0.97579z"
       id="path12" />
    <path
       d="m67.287 380.15h2.775l-0.15238 0.77796h-1.7457l-0.14436 0.7432h1.6441l-0.15506 0.77796h-1.6415l-0.17644 0.9143h1.8019l-0.14704 0.77796h-2.8365z"
       id="path14" />
    <path
       d="m71.105 380.15h2.5584l-0.14704 0.75657h-1.7377l-0.1203 0.61755q0.11763-0.0321 0.24328-0.0481 0.12832-0.0187 0.25665-0.0187 0.61221 0 0.95708 0.2807 0.34487 0.27804 0.34487 0.77262 0 0.78597-0.532 1.2485-0.532 0.45982-1.4436 0.45982-0.33417 0-0.64963-0.0668-0.31546-0.0642-0.62557-0.19783l0.15773-0.81004q0.29675 0.19248 0.57478 0.28338 0.28071 0.0909 0.56943 0.0909 0.4224 0 0.67637-0.21922 0.25397-0.22189 0.25397-0.58013 0-0.25665-0.19248-0.40636-0.19248-0.15238-0.52398-0.15238-0.22456 0-0.48656 0.0588-0.25932 0.0561-0.56943 0.17644z"
       id="path16" />
    <path
       d="m76.2 381.03-1.4196 1.6415h1.0961zm-0.02673-0.87687h1.1709l-0.49458 2.5183h0.56943l-0.14169 0.74587h-0.56944l-0.14169 0.72717h-0.97579l0.14436-0.72717h-1.7965l0.17377-0.88222z"
       id="path18" />
    <path
       d="m79.387 383.52q0.20585 0 0.36358-0.12298 0.1604-0.12298 0.26734-0.36091 0.07485-0.16842 0.13634-0.38229 0.06149-0.21655 0.11496-0.51062 0.04545-0.23793 0.06951-0.43844 0.02406-0.2005 0.02406-0.34219 0-0.29942-0.10694-0.43844-0.10694-0.14169-0.3315-0.14169-0.20852 0-0.36626 0.1203-0.15773 0.11763-0.26199 0.36091-0.0802 0.17377-0.14704 0.39566-0.06416 0.22189-0.11228 0.48389-0.04545 0.2406-0.06951 0.44645-0.02406 0.20586-0.02406 0.34755 0 0.29674 0.10961 0.44111 0.10961 0.14169 0.33418 0.14169zm1.9783-2.005q0 0.53201-0.14704 1.0346-0.14704 0.5026-0.4117 0.88222-0.27001 0.39032-0.65231 0.59082-0.3823 0.19783-0.85281 0.19783-0.65498 0-1.0052-0.3716-0.34754-0.3716-0.34754-1.0694 0-0.52399 0.14436-1.0266 0.14704-0.50527 0.40903-0.87954 0.27536-0.39299 0.65498-0.5935 0.37962-0.2005 0.85549-0.2005 0.64964 0 0.99985 0.37427 0.35289 0.3716 0.35289 1.0613z"
       id="path20" />
  </g>
  <g
     transform="translate(0 .55541)"
     id="g36">
    <g
       transform="matrix(1.2553 0 0 1.2553 15.575 -100.73)"
       id="g28">
      <rect
         x="140.27"
         y="396.39"
         width="2.8"
         height="3.8"
         fill="#7f7f7f"
         id="rect24" />
      <rect
         x="140.27"
         y="396.39"
         width="2.8"
         height="3.8"
         fill="none"
         stroke="#000"
         stroke-width=".2"
         id="rect26" />
    </g>
    <g
       transform="matrix(1.2553 0 0 1.2553 15.575 -100.73)"
       id="g34">
      <circle
         cx="141.67"
         cy="398.19"
         r="1"
         id="circle30" />
      <circle
         cx="141.67"
         cy="398.19"
         r="1"
         fill="none"
         stroke="#000"
         stroke-width=".2"
         id="circle32" />
    </g>
  </g>
  <g
     transform="translate(-13.177 1.6012)"
     id="g50">
    <g
       transform="matrix(-1.3011 0 0 -1.4933 185.26 993.98)"
       id="g42">
      <rect
         x="63.072"
         y="397.39"
         width="5.6"
         height="4.4"
         id="rect38" />
      <rect
         x="63.072"
         y="397.39"
         width="5.6"
         height="4.4"
         fill="none"
         stroke="#7f7f7f"
         stroke-width=".2"
         id="rect40" />
    </g>
    <g
       transform="matrix(-1.3011 0 0 -1.4933 185.26 993.98)"
       id="g48">
      <polygon
         points="65.272 398.19 64.872 398.19 64.872 398.79 63.472 398.79 63.472 401.39 68.272 401.39 68.272 398.79 66.872 398.79 66.872 398.19 66.472 398.19 66.472 397.79 65.272 397.79"
         id="polygon44" />
      <polygon
         points="65.272 398.19 64.872 398.19 64.872 398.79 63.472 398.79 63.472 401.39 68.272 401.39 68.272 398.79 66.872 398.79 66.872 398.19 66.472 398.19 66.472 397.79 65.272 397.79"
         fill="none"
         stroke="#7f7f7f"
         stroke-width=".2"
         id="polygon46" />
    </g>
  </g>
  <g
     transform="translate(58.009 -30.558)"
     id="g118">
    <g
       id="g78">
      <path
         d="m77.231 432.62h31.95l-0.0237-7.5289-31.926-2.5e-4z"
         fill="#3a3a3a"
         stroke="#000"
         stroke-width=".48345"
         id="path52" />
      <path
         d="m101.31 426.96h1.8127l-3e-3 -1.0982 0.65971-5.8e-4v-0.4112h2.1264l-5e-4 0.41227h0.68667v1.0983h1.8044v4.7284l-7.086 0.0153z"
         id="path54" />
      <path
         d="m106.75 426.67h1.7904v-0.77201h-1.7904z"
         fill="#55d400"
         id="path56" />
      <path
         d="m101.15 426.67h1.8061v-0.77603h-1.8061z"
         fill="#55d400"
         id="path58" />
      <path
         d="m93.522 426.96h1.8127l-0.0031-1.0982 0.65971-5.8e-4v-0.4112h2.1264l-4.95e-4 0.41227h0.68667v1.0983h1.8044v4.7284l-7.0861 0.0153z"
         id="path60" />
      <path
         d="m98.962 426.67h1.7904v-0.77201h-1.7904z"
         fill="#55d400"
         id="path62" />
      <path
         d="m93.36 426.67h1.8061v-0.77603h-1.8061z"
         fill="#55d400"
         id="path64" />
      <path
         d="m85.735 426.96h1.8127l-0.0031-1.0982 0.65971-5.8e-4v-0.4112h2.1264l-4.95e-4 0.41227h0.68667v1.0983h1.8044v4.7284l-7.0861 0.0153z"
         id="path66" />
      <path
         d="m91.175 426.67h1.7904v-0.77201h-1.7904z"
         fill="#55d400"
         id="path68" />
      <path
         d="m85.573 426.67h1.8061v-0.77603h-1.8061z"
         fill="#55d400"
         id="path70" />
      <path
         d="m78.032 426.96h1.8127l-0.0031-1.0982 0.65971-5.9e-4v-0.4112h2.1264l-4.95e-4 0.41228h0.68667v1.0983h1.8044v4.7284l-7.0861 0.0154z"
         id="path72" />
      <path
         d="m83.472 426.67h1.7904v-0.77202h-1.7904z"
         fill="#55d400"
         id="path74" />
      <path
         d="m77.87 426.67h1.8061v-0.77604h-1.8061z"
         fill="#55d400"
         id="path76" />
    </g>
    <g
       transform="matrix(1.0315 0 0 1.0234 -8.1174 78.559)"
       id="g82">
      <path
         transform="matrix(.53079 0 0 .53501 55.446 333.8)"
         d="m56.703 9.0898-5.2734 0.00195 0.0039 13.667 58.334-0.08396-4e-3 -13.583-5.2988-0.00195v1.2656l4.2598-2e-3v1.6387l-0.42187 0.01367v8.9844l-12.898 0.0821v-9.0664l-0.41992-0.01367v-1.6387l4.2344 2e-3v-1.2656l-4.3809 0.00195-4.5488-0.00195v1.2656l4.2598-2e-3v1.6387l-0.42188 0.01367v9.0391l-0.0098 0.0098-12.936 0.01758v-9.0664l-0.41992-0.01367v-1.6387l4.2324 2e-3v-1.2656l-4.3809 0.00195h-0.0078l-4.5391-0.00195v1.2656l4.2578-2e-3v1.6387l-0.41992 0.01367v9.0391l-0.0098 0.0098-12.936 0.01758v-9.0664l-0.42188-0.01367v-1.6387l4.2344 2e-3v-1.2656l-4.3809 0.00195h-0.0078l-4.3867-0.00195v1.2656l4.2598-2e-3v1.6387l-0.41992 0.01367-2e-3 9.0391-0.0078 0.0098-12.936 0.01758-2e-3 -9.0664-0.41992-0.01367v-1.6387l4.2344 2e-3v-1.2656z"
         fill="#ebebeb"
         id="path80" />
    </g>
    <g
       id="g116">
      <g
         aria-label="0/0"
         id="g90">
        <path
           d="m80.241 421.71q-0.20852 0-0.31412 0.20585-0.10426 0.20451-0.10426 0.61622 0 0.41036 0.10426 0.61621 0.1056 0.20452 0.31412 0.20452 0.20986 0 0.31412-0.20452 0.1056-0.20585 0.1056-0.61621 0-0.41171-0.1056-0.61622-0.10426-0.20585-0.31412-0.20585zm0-0.21387q0.33551 0 0.51196 0.266 0.17778 0.26467 0.17778 0.76994 0 0.50393-0.17778 0.76993-0.17644 0.26467-0.51196 0.26467t-0.51329-0.26467q-0.17644-0.266-0.17644-0.76993 0-0.50527 0.17644-0.76994 0.17778-0.266 0.51329-0.266z"
           id="path84" />
        <path
           d="m81.809 421.53h0.22724l-0.69508 2.2497h-0.22724z"
           id="path86" />
        <path
           d="m82.909 421.71q-0.20852 0-0.31412 0.20585-0.10426 0.20451-0.10426 0.61622 0 0.41036 0.10426 0.61621 0.1056 0.20452 0.31412 0.20452 0.20986 0 0.31412-0.20452 0.1056-0.20585 0.1056-0.61621 0-0.41171-0.1056-0.61622-0.10426-0.20585-0.31412-0.20585zm0-0.21387q0.33551 0 0.51196 0.266 0.17778 0.26467 0.17778 0.76994 0 0.50393-0.17778 0.76993-0.17644 0.26467-0.51196 0.26467-0.33551 0-0.51329-0.26467-0.17644-0.266-0.17644-0.76993 0-0.50527 0.17644-0.76994 0.17778-0.266 0.51329-0.266z"
           id="path88" />
      </g>
      <g
         aria-label="0/1"
         id="g98">
        <path
           d="m88.035 421.71q-0.20852 0-0.31412 0.20585-0.10426 0.20451-0.10426 0.61622 0 0.41036 0.10426 0.61621 0.1056 0.20452 0.31412 0.20452 0.20986 0 0.31412-0.20452 0.1056-0.20585 0.1056-0.61621 0-0.41171-0.1056-0.61622-0.10426-0.20585-0.31412-0.20585zm0-0.21387q0.33551 0 0.51195 0.266 0.17778 0.26467 0.17778 0.76994 0 0.50393-0.17778 0.76993-0.17644 0.26467-0.51195 0.26467-0.33551 0-0.51329-0.26467-0.17644-0.266-0.17644-0.76993 0-0.50527 0.17644-0.76994 0.17778-0.266 0.51329-0.266z"
           id="path92" />
        <path
           d="m89.603 421.53h0.22724l-0.69508 2.2497h-0.22724z"
           id="path94" />
        <path
           d="m90.173 423.3h0.44111v-1.5225l-0.47988 0.0962v-0.24595l0.4772-0.0962h0.27001v1.7684h0.44111v0.22724h-1.1496z"
           id="path96" />
      </g>
      <g
         aria-label="0/2"
         id="g106">
        <path
           d="m95.805 421.71q-0.20852 0-0.31412 0.20585-0.10426 0.20451-0.10426 0.61622 0 0.41036 0.10426 0.61621 0.1056 0.20452 0.31412 0.20452 0.20986 0 0.31412-0.20452 0.1056-0.20585 0.1056-0.61621 0-0.41171-0.1056-0.61622-0.10426-0.20585-0.31412-0.20585zm0-0.21387q0.33551 0 0.51196 0.266 0.17778 0.26467 0.17778 0.76994 0 0.50393-0.17778 0.76993-0.17644 0.26467-0.51196 0.26467t-0.51329-0.26467q-0.17644-0.266-0.17644-0.76993 0-0.50527 0.17644-0.76994 0.17778-0.266 0.51329-0.266z"
           id="path100" />
        <path
           d="m97.373 421.53h0.22724l-0.69508 2.2497h-0.22724z"
           id="path102" />
        <path
           d="m98.128 423.3h0.94237v0.22724h-1.2672v-0.22724q0.15372-0.15907 0.41839-0.42641 0.266-0.26867 0.33417-0.3462 0.12966-0.1457 0.18045-0.24596 0.05213-0.10158 0.05213-0.19916 0-0.15907-0.11228-0.25932-0.11095-0.10025-0.29006-0.10025-0.12699 0-0.26868 0.0441-0.14035 0.0441-0.30076 0.13367v-0.27269q0.16308-0.0655 0.30477-0.0989 0.14169-0.0334 0.25932-0.0334 0.31011 0 0.49458 0.15505 0.18446 0.15506 0.18446 0.41438 0 0.12298-0.04678 0.23392-0.04545 0.10961-0.16709 0.25932-0.03342 0.0388-0.21254 0.22457-0.17912 0.18446-0.50527 0.5173z"
           id="path104" />
      </g>
      <g
         aria-label="0/3"
         id="g114">
        <path
           d="m103.54 421.71q-0.20852 0-0.31412 0.20585-0.10426 0.20451-0.10426 0.61622 0 0.41036 0.10426 0.61621 0.1056 0.20452 0.31412 0.20452 0.20986 0 0.31413-0.20452 0.10559-0.20585 0.10559-0.61621 0-0.41171-0.10559-0.61622-0.10427-0.20585-0.31413-0.20585zm0-0.21387q0.33551 0 0.51196 0.266 0.17778 0.26467 0.17778 0.76994 0 0.50393-0.17778 0.76993-0.17645 0.26467-0.51196 0.26467t-0.51329-0.26467q-0.17644-0.266-0.17644-0.76993 0-0.50527 0.17644-0.76994 0.17778-0.266 0.51329-0.266z"
           id="path108" />
        <path
           d="m105.11 421.53h0.22724l-0.69509 2.2497h-0.22724z"
           id="path110" />
        <path
           d="m106.45 422.45q0.19382 0.0414 0.3021 0.17243 0.10961 0.131 0.10961 0.32348 0 0.29541-0.20318 0.45715t-0.57745 0.16174q-0.12565 0-0.25932-0.0254-0.13234-0.0241-0.27403-0.0735v-0.26065q0.11229 0.0655 0.24596 0.0989t0.27937 0.0334q0.25397 0 0.3863-0.10025 0.13367-0.10025 0.13367-0.2914 0-0.17644-0.12431-0.27536-0.12298-0.10025-0.34353-0.10025h-0.23259v-0.22189h0.24328q0.19917 0 0.30477-0.0789 0.1056-0.0802 0.1056-0.22991 0-0.15372-0.10961-0.23526-0.10828-0.0829-0.31145-0.0829-0.11095 0-0.23794 0.0241-0.12698 0.0241-0.27937 0.0749v-0.2406q0.15372-0.0428 0.28739-0.0642 0.13501-0.0214 0.25398-0.0214 0.30744 0 0.48655 0.14035 0.17912 0.13902 0.17912 0.37695 0 0.16575-0.0949 0.2807-0.0949 0.11362-0.27002 0.15774z"
           id="path112" />
      </g>
    </g>
  </g>
  <g
     transform="translate(.8331 -19.309)"
     id="g160">
    <g
       transform="matrix(1.0309 0 0 1.0309 -37.315 19.313)"
       id="g140">
      <g
         transform="translate(.6581 -19.12)"
         id="g138">
        <g
           transform="matrix(1.0029 0 0 .99453 91.221 226.26)"
           id="g136">
          <path
             d="m64.141 183.87h8.4v-7.0242h-8.4z"
             fill="#ebebeb"
             stroke="#000"
             stroke-width=".46956"
             id="path120" />
          <g
             transform="matrix(.0080517 0 0 .0080487 51.527 212.79)"
             id="g124">
            <path
               d="m2609.9-3593.3v-872.71h-1043.3v872.71z"
               fill="none"
               stroke="#000"
               stroke-linecap="square"
               stroke-width=".67568"
               id="path122" />
          </g>
          <g
             id="g134">
            <path
               d="m64.912 178.62h1.7532l-0.0026-1.0712 0.63806-5.7e-4v-0.40106h2.0566l-4.83e-4 0.40211h0.66414v1.0712h1.7452v4.6119l-6.8535 0.015z"
               id="path126" />
            <path
               d="m70.173 178.34h1.7316v-0.75298h-1.7316z"
               fill="#55d400"
               id="path128" />
            <path
               d="m64.756 178.34h1.7468v-0.7569h-1.7468z"
               fill="#55d400"
               id="path130" />
            <path
               d="m72.539 183.87 2e-3 -7.0242-2.8056-9.6e-4v0.67597l2.2553-1e-3v0.87506l-0.22259 7e-3 -5.64e-4 4.8323c-2.3858 9.4e-4 -4.8121 0.0124-6.8546 0.0128v4e-5l-4.83e-4 -4.8452-0.22259-7e-3v-0.87506l2.242 1e-3v-0.67597l-2.7924 9.6e-4c4.08e-4 2.3412 0.0022 4.6824 0.0022 7.0237 2.7992 3.3e-4 5.5983 6.8e-4 8.3975 1e-3z"
               fill="#ebebeb"
               id="path132" />
          </g>
        </g>
      </g>
    </g>
    <g
       transform="translate(1.5392 1.8387)"
       id="g158">
      <g
         aria-label="UTP"
         id="g148">
        <path
           d="m124.03 407.2h0.27135v1.2124q0 0.32081 0.11629 0.4625 0.11629 0.14035 0.37695 0.14035 0.25932 0 0.37561-0.14035 0.11629-0.14169 0.11629-0.4625v-1.2124h0.27135v1.2458q0 0.39032-0.19382 0.58948-0.19248 0.19917-0.56943 0.19917-0.37829 0-0.57211-0.19917-0.19248-0.19916-0.19248-0.58948z"
           id="path142" />
        <path
           d="m125.79 407.2h1.6882v0.22724h-0.70845v1.7684h-0.27135v-1.7684h-0.70845z"
           id="path144" />
        <path
           d="m128.01 407.43v0.74989h0.33952q0.18848 0 0.2914-0.0976 0.10293-0.0976 0.10293-0.27803 0-0.17912-0.10293-0.2767-0.10292-0.0976-0.2914-0.0976zm-0.27001-0.22189h0.60953q0.33552 0 0.50661 0.15238 0.17244 0.15105 0.17244 0.44379 0 0.29541-0.17244 0.44645-0.17109 0.15105-0.50661 0.15105h-0.33952v0.80202h-0.27001z"
           id="path146" />
      </g>
      <g
         aria-label="1/0"
         id="g156">
        <path
           d="m124.6 411.17h0.44111v-1.5225l-0.47987 0.0962v-0.24596l0.4772-0.0962h0.27001v1.7684h0.44111v0.22724h-1.1496z"
           id="path150" />
        <path
           d="m126.7 409.4h0.22724l-0.69508 2.2497h-0.22724z"
           id="path152" />
        <path
           d="m127.8 409.57q-0.20853 0-0.31413 0.20585-0.10426 0.20452-0.10426 0.61622 0 0.41037 0.10426 0.61622 0.1056 0.20451 0.31413 0.20451 0.20986 0 0.31412-0.20451 0.1056-0.20585 0.1056-0.61622 0-0.4117-0.1056-0.61622-0.10426-0.20585-0.31412-0.20585zm0-0.21387q0.33551 0 0.51195 0.266 0.17778 0.26467 0.17778 0.76994 0 0.50394-0.17778 0.76994-0.17644 0.26466-0.51195 0.26466-0.33552 0-0.5133-0.26466-0.17644-0.266-0.17644-0.76994 0-0.50527 0.17644-0.76994 0.17778-0.266 0.5133-0.266z"
           id="path154" />
      </g>
    </g>
  </g>
  <circle
     cx="193.41"
     cy="399.67"
     r=".35063"
     fill="#ebebeb"
     fill-rule="evenodd"
     id="circle162" />
  <g
     stroke-width=".0070102px"
     aria-label="CONSOLE"
     id="g178">
    <path
       d="m84.153 393.97v0.13124q-0.06285-0.0585-0.13432-0.0875-0.07085-0.029-0.15095-0.029-0.15773 0-0.24152 0.0967-0.08379 0.0961-0.08379 0.2785 0 0.18175 0.08379 0.27849 0.08379 0.0961 0.24152 0.0961 0.0801 0 0.15095-0.029 0.07147-0.029 0.13432-0.0875v0.13q-0.06531 0.0444-0.13863 0.0665-0.0727 0.0222-0.15403 0.0222-0.20887 0-0.32902-0.12754-0.12014-0.12815-0.12014-0.34934 0-0.22181 0.12014-0.34935 0.12015-0.12816 0.32902-0.12816 0.08256 0 0.15526 0.0222 0.07332 0.0216 0.1374 0.0653z"
       id="path164" />
    <path
       d="m84.717 393.98q-0.13555 0-0.21565 0.10104-0.07948 0.10105-0.07948 0.27542 0 0.17375 0.07948 0.27479 0.0801 0.10105 0.21565 0.10105 0.13555 0 0.21441-0.10105 0.07948-0.10104 0.07948-0.27479 0-0.17437-0.07948-0.27542-0.07886-0.10104-0.21441-0.10104zm0-0.10105q0.19346 0 0.3093 0.13001 0.11583 0.12939 0.11583 0.3475 0 0.21749-0.11583 0.34749-0.11583 0.12939-0.3093 0.12939-0.19408 0-0.31053-0.12939-0.11583-0.12938-0.11583-0.34749t0.11583-0.3475q0.11645-0.13001 0.31053-0.13001z"
       id="path166" />
    <path
       d="m85.334 393.9h0.16759l0.40788 0.76955v-0.76955h0.12076v0.91988h-0.16759l-0.40788-0.76954v0.76954h-0.12076z"
       id="path168" />
    <path
       d="m86.827 393.93v0.12138q-0.07086-0.0339-0.1337-0.0505-0.06285-0.0166-0.12138-0.0166-0.10166 0-0.15711 0.0394-0.05484 0.0394-0.05484 0.11214 0 0.061 0.03635 0.0924 0.03697 0.0308 0.13925 0.0499l0.07517 0.0154q0.13925 0.0265 0.20517 0.0936 0.06654 0.0665 0.06654 0.17868 0 0.1337-0.08996 0.20271-0.08934 0.069-0.26247 0.069-0.06531 0-0.13925-0.0148-0.07332-0.0148-0.15218-0.0437v-0.12816q0.07578 0.0425 0.14849 0.0641 0.0727 0.0216 0.14294 0.0216 0.10659 0 0.16451-0.0419 0.05792-0.0419 0.05792-0.11953 0-0.0678-0.0419-0.10597-0.04128-0.0382-0.13616-0.0573l-0.07578-0.0148q-0.13925-0.0277-0.20148-0.0869-0.06223-0.0591-0.06223-0.1645 0-0.122 0.08564-0.19224 0.08626-0.0702 0.23721-0.0702 0.06469 0 0.13185 0.0117 0.06716 0.0117 0.1374 0.0351z"
       id="path170" />
    <path
       d="m87.447 393.98q-0.13555 0-0.21565 0.10104-0.07948 0.10105-0.07948 0.27542 0 0.17375 0.07948 0.27479 0.0801 0.10105 0.21565 0.10105 0.13555 0 0.21441-0.10105 0.07948-0.10104 0.07948-0.27479 0-0.17437-0.07948-0.27542-0.07887-0.10104-0.21441-0.10104zm0-0.10105q0.19346 0 0.3093 0.13001 0.11583 0.12939 0.11583 0.3475 0 0.21749-0.11583 0.34749-0.11583 0.12939-0.3093 0.12939-0.19408 0-0.31053-0.12939-0.11583-0.12938-0.11583-0.34749t0.11583-0.3475q0.11645-0.13001 0.31053-0.13001z"
       id="path172" />
    <path
       d="m88.064 393.9h0.12446v0.81514h0.44793v0.10474h-0.57239z"
       id="path174" />
    <path
       d="m88.764 393.9h0.58163v0.10474h-0.45717v0.27233h0.43807v0.10474h-0.43807v0.33333h0.46826v0.10474h-0.59272z"
       id="path176" />
  </g>
</svg>
