<svg width="90" height="145" version="1.1" viewBox="35 370 47.798182 47.060556" xmlns="http://www.w3.org/2000/svg" xmlns:xlink="http://www.w3.org/1999/xlink"><defs><linearGradient id="linearGradient5212"><stop stop-color="#929292" offset="0"/><stop stop-color="#929292" stop-opacity=".0067568" offset="1"/></linearGradient><linearGradient id="linearGradient8388-7" x1="-84.89" x2="-86.078" y1="182.2" y2="182.2" gradientTransform="matrix(.99988 0 0 1.0741 39.003 -587.03)" gradientUnits="userSpaceOnUse" xlink:href="#linearGradient5212"/><linearGradient id="linearGradient5202" x1="68.193" x2="68.459" y1="351.41" y2="427.09" gradientTransform="translate(.89744 2.4921)" gradientUnits="userSpaceOnUse"><stop stop-color="#e6e6e6" offset="0"/><stop stop-color="#f9f9f9" offset=".30913"/><stop stop-color="#f9f9f9" offset=".71555"/><stop stop-color="#e6e6e6" offset="1"/></linearGradient><linearGradient id="linearGradient8388-7-3" x1="-84.89" x2="-86.078" y1="182.2" y2="182.2" gradientTransform="matrix(.99988 0 0 1.0741 178.79 196.45)" gradientUnits="userSpaceOnUse" xlink:href="#linearGradient5212"/><filter id="filter6662" color-interpolation-filters="sRGB"><feFlood flood-color="rgb(0,0,0)" flood-opacity=".20392" result="flood"/><feComposite in="flood" in2="SourceGraphic" operator="in" result="composite1"/><feGaussianBlur in="composite1" result="blur" stdDeviation="3.1"/><feOffset dx="-0.8" dy="-2.40642" result="offset"/><feComposite in="offset" in2="SourceGraphic" operator="out" result="composite2"/></filter></defs><g transform="matrix(1 0 0 .99656 -10.996 3.135)"><path d="m46.297 353.24h47.197l0.30075 0.50222v76.003c0 0.13911-0.13413 0.50221-0.30075 0.50221h-47.197c-0.16584 0.0191-0.30074-0.3631-0.30074-0.50221s0.15037-76.254 0-76.003z" fill="url(#linearGradient5202)"/><rect transform="scale(-1)" x="-47.057" y="-430.38" width="1.061" height="77.141" rx=".10622" ry=".10622" fill="url(#linearGradient8388-7)"/><rect x="92.733" y="353.11" width="1.061" height="77.141" rx=".10622" ry=".10622" fill="url(#linearGradient8388-7-3)"/><g transform="matrix(.039407 0 0 .039407 80.311 366.36)" fill="#ededed" filter="url(#filter6662)"><g transform="matrix(.53109 0 0 .53109 -922.14 -237.6)"><path d="m846.77 202.07v113.09c0 51.641 22.992 65.219 52.021 65.219 32.416 0 54.66-20.732 54.66-66.35v-111.96h39.201v208.84h-35.811v-22.621h-0.75c-10.557 18.092-35.062 27.898-61.451 27.898-23.741 0-44.479-7.535-59.559-20.73-17.342-15.084-27.521-38.461-27.521-80.303v-113.09z"/><path d="m1208.3 271.43c-6.404-13.191-21.488-39.205-58.812-39.205-50.514 0-68.602 42.223-68.602 73.893 0 36.197 22.993 74.262 67.854 74.262 29.396 0 49.379-16.957 59.182-38.447h43.73c-15.832 46.361-56.547 74.264-102.91 74.264-68.609 0-107.06-56.172-107.06-110.07 0-56.549 41.477-109.7 107.44-109.7 59.189 0 94.629 44.1 102.54 75.012h-43.35l-0.01-0.01z"/><path d="m1653.5 314.03c0 45.611-22.238 66.348-54.664 66.348-29.021 0-52.018-13.578-52.018-65.219v-113.09h-39.205v113.09c0 41.842 10.188 65.219 27.521 80.303 15.09 13.193 35.812 20.73 59.562 20.73 26.386 0 50.888-9.812 61.439-27.898h0.762v22.621h35.812v-208.84h-39.209z"/><g fill="#ededed"><path d="m1357.6 303.43 83.078 107.48h49l-87.832-110.46 75.764-98.383-48.653-0.026z" fill="#ededed"/></g><path d="m1296.5 132.04h39.203v278.86h-39.203z"/><path d="m609.07 223.47h48.463c45.984 0 61.818 22.225 61.818 40.354 0 41.812-60.312 42.396-76.898 42.396h-21.4l74.438 83.78 19.881 20.768h59.188l-81.016-80.561c18.096 0 66.521-9.076 66.521-66.387 0-18.131-7.914-38.016-25.638-51.166-14.694-10.826-35.057-18.127-74.26-18.127h-91.812v216.38h40.713z"/><path d="m1859.3 256.32c-3.293-17.182-15.83-25.377-32.736-25.377-17.842 0-30.408 9.555-30.408 23.518 0 18.379 18.912 23.104 39.391 28.373 19.138 4.9 73.377 17.98 73.377 66.861 0 35.787-29.885 65.295-81.461 65.295-31.151 0-85.53-17.053-85.955-71.342l43.818-0.062c1.789 23.371 17.271 38.064 43.094 38.064 22.138 0 36.896-11.979 36.896-29.688 0-19.309-19.855-26.354-43.896-33.516-26.707-8.305-68.95-18.201-68.95-61.615 0-30.486 30.641-59.215 76.455-59.215 32.885 0 74.194 19.793 74.194 58.633z"/></g></g><g fill="#999" stroke-width=".051269px" aria-label="H510"><path d="m58.404 408.91h0.91023v2.7577h3.3075v-2.7577h0.91023v6.7276h-0.91023v-3.2038h-3.3075v3.2038h-0.91023z"/><path d="m65.413 408.91h3.5733v0.76603h-2.7397v1.6492q0.19827-0.0676 0.39653-0.0991 0.19827-0.036 0.39653-0.036 1.1265 0 1.7844 0.61734 0.65789 0.61733 0.65789 1.6718 0 1.086-0.67591 1.6898-0.67591 0.5993-1.9061 0.5993-0.42357 0-0.86517-0.0721-0.43709-0.0721-0.90572-0.21629v-0.91474q0.40555 0.2208 0.83813 0.32895 0.43258 0.10814 0.91473 0.10814 0.77955 0 1.2347-0.41005 0.45511-0.41005 0.45511-1.113t-0.45511-1.113q-0.45511-0.41005-1.2347-0.41005-0.36499 0-0.72998 0.0811-0.36049 0.0811-0.739 0.25234z"/><path d="m71.417 414.87h1.487v-5.1324l-1.6177 0.32444v-0.82912l1.6087-0.32444h0.91023v5.9615h1.487v0.76603h-3.8752z"/><path d="m79.061 409.51q-0.70295 0-1.0589 0.69393-0.35147 0.68943-0.35147 2.0773 0 1.3834 0.35147 2.0773 0.35598 0.68943 1.0589 0.68943 0.70745 0 1.0589-0.68943 0.35598-0.69393 0.35598-2.0773 0-1.3879-0.35598-2.0773-0.35147-0.69393-1.0589-0.69393zm0-0.72097q1.131 0 1.7258 0.89671 0.59931 0.8922 0.59931 2.5955 0 1.6988-0.59931 2.5955-0.5948 0.8922-1.7258 0.8922t-1.7303-0.8922q-0.5948-0.89671-0.5948-2.5955 0-1.7033 0.5948-2.5955 0.59931-0.89671 1.7303-0.89671z"/></g><g transform="matrix(.0036629 0 0 .0036629 56.221 425.94)"><path d="m140.67 377.74h516.56c0.0674 0 0.12168 0.0244 0.12168 0.0548v315.04c0 0.0303-0.0543 0.0548-0.12168 0.0548h-516.56c-0.0674 0-0.12168-0.0244-0.12168-0.0548v-315.04c0-0.0303 0.0543-0.0548 0.12168-0.0548z" fill="#ff0" stroke="#ff0" stroke-linejoin="round" stroke-width="85.598"/><path d="m311.33 637.13h169.3v72.062l203.74-175.44-203.74-172.33v72.062h-169.3l188.08 72.062v-28.202l94.083 56.404-94.083 56.404v-25.088c-1.0798-1.9134-188.08 72.062-188.08 72.062z" stroke="#000"/><g stroke-width="1px"><path d="m120.1 493.56h35.066q15.64 0 23.981 6.9692 8.396 6.9143 8.396 19.755 0 12.896-8.396 19.865-8.3411 6.9143-23.981 6.9143h-13.938v28.426h-21.127zm21.127 15.31v22.883h11.689q6.1461 0 9.4935-2.9633 3.3474-3.0182 3.3474-8.5057 0-5.4876-3.3474-8.4508-3.3474-2.9633-9.4935-2.9633z"/><path d="m229.66 526.59q-6.5302 0-9.9874 4.7193-3.4023 4.6644-3.4023 13.499 0 8.835 3.4023 13.554 3.4572 4.6644 9.9874 4.6644 6.4204 0 9.8227-4.6644 3.4023-4.7193 3.4023-13.554 0-8.835-3.4023-13.499-3.4023-4.7193-9.8227-4.7193zm0-14.048q15.859 0 24.749 8.5606 8.9447 8.5606 8.9447 23.706 0 15.146-8.9447 23.706-8.8898 8.5606-24.749 8.5606-15.914 0-24.914-8.5606-8.9447-8.5606-8.9447-23.706 0-15.146 8.9447-23.706 8.9996-8.5606 24.914-8.5606z"/><path d="m277.43 493.56h57.016v15.969h-35.889v15.255h33.749v15.969h-33.749v18.767h37.096v15.969h-58.223z"/><path d="m396.43 505.03v28.755h28.645v12.951h-28.645v28.755h-13.06v-28.755h-28.645v-12.951h28.645v-28.755z"/></g></g><g stroke-width=".0092408px"><g aria-label="LAN1"><path d="m52.128 427.29h0.16406v1.0745h0.59046v0.13807h-0.75452z"/><path d="m53.494 427.46-0.22254 0.60345h0.44589zm-0.09259-0.16163h0.18599l0.46213 1.2126h-0.17056l-0.11046-0.31106h-0.5466l-0.11046 0.31106h-0.173z"/><path d="m54.222 427.29h0.22091l0.53766 1.0144v-1.0144h0.15919v1.2126h-0.22091l-0.53766-1.0144v1.0144h-0.15919z"/><path d="m55.506 428.37h0.26802v-0.92508l-0.29157 0.0585v-0.14944l0.28995-0.0585h0.16406v1.0745h0.26802v0.13807h-0.69848z"/></g><g aria-label="LAN2"><path d="m62.651 427.29h0.16406v1.0745h0.59046v0.13807h-0.75452z"/><path d="m64.017 427.46-0.22254 0.60345h0.44589zm-0.09259-0.16163h0.18599l0.46213 1.2126h-0.17056l-0.11046-0.31106h-0.5466l-0.11046 0.31106h-0.173z"/><path d="m64.745 427.29h0.22091l0.53766 1.0144v-1.0144h0.15919v1.2126h-0.22091l-0.53766-1.0144v1.0144h-0.15919z"/><path d="m66.142 428.37h0.57259v0.13807h-0.76995v-0.13807q0.0934-0.0967 0.25421-0.25909 0.16162-0.16324 0.20305-0.21035 0.07878-0.0885 0.10964-0.14944 0.03168-0.0617 0.03168-0.12102 0-0.0967-0.06822-0.15756-0.06741-0.0609-0.17624-0.0609-0.07716 0-0.16325 0.0268-0.08528 0.0268-0.18274 0.0812v-0.16568q0.09909-0.0398 0.18518-0.0601t0.15756-0.0203q0.18843 0 0.30051 0.0942t0.11208 0.25177q0 0.0747-0.02843 0.14214-0.02761 0.0666-0.10152 0.15756-0.02031 0.0236-0.12914 0.13645-0.10883 0.11208-0.30701 0.31431z"/></g><g aria-label="LAN3"><path d="m73.151 427.27h0.16406v1.0745h0.59046v0.13807h-0.75452z"/><path d="m74.517 427.43-0.22254 0.60345h0.44589zm-0.09259-0.16163h0.18599l0.46213 1.2126h-0.17056l-0.11046-0.31106h-0.5466l-0.11046 0.31106h-0.173z"/><path d="m75.245 427.27h0.22091l0.53767 1.0144v-1.0144h0.15919v1.2126h-0.22091l-0.53767-1.0144v1.0144h-0.15919z"/><path d="m76.998 427.83q0.11777 0.0252 0.18355 0.10478 0.0666 0.0796 0.0666 0.19654 0 0.1795-0.12345 0.27777-0.12345 0.0983-0.35086 0.0983-0.07635 0-0.15756-0.0154-0.08041-0.0146-0.1665-0.0447v-0.15837q0.06822 0.0398 0.14944 0.0601t0.16975 0.0203q0.15432 0 0.23472-0.0609 0.08122-0.0609 0.08122-0.17706 0-0.1072-0.07553-0.16731-0.07472-0.0609-0.20873-0.0609h-0.14132v-0.13482h0.14782q0.12102 0 0.18518-0.0479 0.06416-0.0487 0.06416-0.1397 0-0.0934-0.0666-0.14294-0.06579-0.0504-0.18924-0.0504-0.06741 0-0.14457 0.0146t-0.16975 0.0455v-0.1462q0.0934-0.026 0.17462-0.039 0.08203-0.013 0.15432-0.013 0.1868 0 0.29564 0.0853 0.10883 0.0845 0.10883 0.22904 0 0.10071-0.05767 0.17056-0.05767 0.069-0.16406 0.0958z"/></g><g aria-label="LAN4"><path d="m83.648 427.29h0.16406v1.0745h0.59046v0.13807h-0.75452z"/><path d="m85.014 427.46-0.22254 0.60345h0.44589zm-0.09259-0.16163h0.18599l0.46213 1.2126h-0.17056l-0.11046-0.31106h-0.5466l-0.11046 0.31106h-0.173z"/><path d="m85.742 427.29h0.22091l0.53767 1.0144v-1.0144h0.15919v1.2126h-0.22091l-0.53767-1.0144v1.0144h-0.15919z"/><path d="m87.448 427.44-0.41421 0.64731h0.41421zm-0.04305-0.14295h0.2063v0.79026h0.173v0.13644h-0.173v0.28589h-0.16324v-0.28589h-0.54741v-0.15837z"/></g></g></g></svg>
