<svg width="160" height="192" version="1.1" viewBox="37.3333333333 394.666666667 84.9745450667 62.3146666667" xmlns="http://www.w3.org/2000/svg"><defs><linearGradient id="linearGradient56646" x1="65.498" x2="141.4" y1="356.24" y2="448.6" gradientTransform="translate(-7.5108 95.387)" gradientUnits="userSpaceOnUse"><stop stop-color="#f4f4f4" offset="0"/><stop stop-color="#bbb" offset=".079344"/><stop stop-color="#c0c0c0" offset=".39542"/><stop stop-color="#f5f3f3" offset=".43563"/><stop stop-color="#f2f2f4" offset=".58758"/><stop stop-color="#cdcdcd" offset=".60742"/><stop stop-color="#d2d2d2" offset=".93438"/><stop stop-color="#f6f6f6" offset="1"/></linearGradient><radialGradient id="radialGradient56887" cx="87.081" cy="512.05" r="35.063" gradientTransform="matrix(2.0503 .015959 -.012971 1.6657 -76.752 -340.33)" gradientUnits="userSpaceOnUse"><stop stop-color="#fff" offset="0"/><stop stop-color="#d1d1d1" offset="1"/></radialGradient></defs><rect transform="scale(1.0667)" x="35.009" y="379.96" width="73.282" height="71.696" rx=".39612" ry=".46758" fill="#fff" fill-opacity=".8549"/><g transform="matrix(1.0652 0 0 1.0655 -22.743 -104.8)"><g fill-rule="evenodd"><path d="m135.18 544.88c-0.54225 0.54225-1.2922 0.87675-2.1232 0.87675h-73.551c-0.831 0-1.581-0.3345-2.1232-0.87675s-0.87675-1.2922-0.87675-2.1232v-89.484c0-0.831 0.3345-1.581 0.87675-2.1232s1.2922-0.87675 2.1232-0.87675h73.551c0.831 0 1.581 0.3345 2.1232 0.87675s0.87675 1.2922 0.87675 2.1232v89.484c0 0.831-0.3345 1.581-0.87675 2.1232" fill="#ececec" stroke="#333" stroke-width=".21881"/><path d="m135.18 451.14c0.54225 0.54225 0.87675 1.2922 0.87675 2.1232v89.484c0 0.831-0.3345 1.581-0.87675 2.1232-24.319-27.949-25.117-60.058 0-93.73z" fill="#f5f3f3"/><path d="m57.377 451.15c0.54225-0.54225 1.2922-0.87675 2.1232-0.87675h73.551c0.831 0 1.581 0.3345 2.1232 0.87675-24.764 26.81-50.054 41.543-77.797 0z" fill="#c0c0c0"/><path d="m57.383 544.88c-0.54225-0.54225-0.87675-1.2922-0.87675-2.1232v-89.484c0-0.831 0.3345-1.581 0.87675-2.1232 19.59 25.837 42.025 48.478 0 93.73z" fill="#f2f2f4"/><path d="m135.17 544.88c-0.54225 0.54225-1.2922 0.87675-2.1232 0.87675h-73.551c-0.831 0-1.581-0.3345-2.1232-0.87675 42.973-53.357 58.895-23.738 77.797 0z" fill="#cdcdcd"/><path d="m135.1 544.56c-3.4326 4.3157-3.6695-16.998-38.007-17.464-34.338-0.46596-35.873 21.755-39.621 17.464-3.5968-4.1187 16.902-10.573 16.902-45.228s-20.479-43.418-16.902-47.915c3.4327-4.3157 3.3544 16.003 38.007 16.003 34.653 0 35.873-20.294 39.621-16.003 3.5968 4.1187-11.699 4.8258-11.699 46.167s15.275 42.48 11.699 46.976z" fill="url(#linearGradient56646)"/><path d="m130.27 537.82c-3.006 3.6911-3.2135-3.9767-33.284-4.3752-30.07-0.39852-31.415 8.0455-34.697 4.3752-3.1498-3.5226 3.7336-9.3638 3.7337-39.003 1.29e-4 -29.639-6.8658-36.813-3.7337-40.659 3.0061-3.6911 2.9375 4.3752 33.284 4.3752 30.346 0 31.415-8.0455 34.697-4.3752 3.1498 3.5226-3.7337 3.6456-3.7337 39.003s6.8658 36.813 3.7337 40.659z" fill="url(#radialGradient56887)"/></g><g transform="translate(-.093928)"><rect x="83.246" y="536.83" width="26.258" height="7.5096" rx=".023131" ry=".089399" fill="#999" fill-rule="evenodd"/><g stroke-width="1px"><g transform="scale(1.2299 .81309)"><path d="m68.545 665.46v0.59137h0.26775q0.14863 0 0.2298-0.077t0.08117-0.21926q0-0.14125-0.08117-0.21821-0.08117-0.077-0.2298-0.077h-0.26775zm-0.21294-0.17498h0.48069q0.26459 0 0.39952 0.12017 0.13598 0.11911 0.13598 0.34997 0 0.23296-0.13598 0.35208-0.13493 0.11912-0.39952 0.11912h-0.26775v0.63248h-0.21294v-1.5738z"/><path d="m69.495 665.29h0.21504l0.331 1.3303 0.32994-1.3303h0.23929l0.331 1.3303 0.32994-1.3303h0.2161l-0.3953 1.5738h-0.26775l-0.33205-1.3662-0.33522 1.3662h-0.26775l-0.39425-1.5738z"/><path d="m72.515 666.12q0.06852 0.0232 0.13282 0.0991 0.06536 0.0759 0.13071 0.20872l0.2161 0.43009h-0.22875l-0.20134-0.40373q-0.07801-0.15812-0.1518-0.20978-0.07273-0.0516-0.19923-0.0516h-0.23191v0.66516h-0.21294v-1.5738h0.48069q0.26986 0 0.40268 0.11279t0.13282 0.34048q0 0.14864-0.06957 0.24667-0.06852 0.098-0.20029 0.13599zm-0.53339-0.66095v0.55869h0.26775q0.1539 0 0.23191-0.0706 0.07906-0.0717 0.07906-0.20978 0-0.13809-0.07906-0.20766-0.07801-0.0706-0.23191-0.0706h-0.26775z"/></g><g transform="scale(1.2299 .81309)"><path d="m77.817 665.5-0.28883 0.78322h0.57872l-0.28989-0.78322zm-0.12017-0.20977h0.2414l0.5998 1.5738h-0.22137l-0.14336-0.40373h-0.70943l-0.14336 0.40373h-0.22453l0.60086-1.5738z"/><path d="m78.766 665.29h0.21294v1.5738h-0.21294v-1.5738z"/><path d="m80.149 666.12q0.06852 0.0232 0.13282 0.0991 0.06536 0.0759 0.13071 0.20872l0.2161 0.43009h-0.22875l-0.20134-0.40373q-0.07801-0.15812-0.1518-0.20978-0.07274-0.0516-0.19923-0.0516h-0.23191v0.66516h-0.21294v-1.5738h0.48069q0.26986 0 0.40268 0.11279t0.13282 0.34048q0 0.14864-0.06957 0.24667-0.06852 0.098-0.20029 0.13599zm-0.53339-0.66095v0.55869h0.26775q0.1539 0 0.23191-0.0706 0.07906-0.0717 0.07906-0.20978 0-0.13809-0.07906-0.20766-0.07801-0.0706-0.23191-0.0706h-0.26775z"/></g><g transform="scale(1.2299 .81309)"><path d="m73.519 665.46v1.2238h0.25721q0.32573 0 0.47647-0.14758 0.1518-0.14757 0.1518-0.46592 0-0.31624-0.1518-0.46277-0.15074-0.14758-0.47647-0.14758h-0.25721zm-0.21294-0.17498h0.43747q0.4575 0 0.67148 0.19079 0.21399 0.18975 0.21399 0.59454 0 0.40689-0.21504 0.59769t-0.67043 0.1908h-0.43747v-1.5738z"/><path d="m74.967 665.29h0.21294v1.5738h-0.21294v-1.5738z"/><path d="m76.35 666.12q0.06852 0.0232 0.13282 0.0991 0.06536 0.0759 0.13071 0.20872l0.2161 0.43009h-0.22875l-0.20134-0.40373q-0.07801-0.15812-0.1518-0.20978-0.07274-0.0516-0.19923-0.0516h-0.23191v0.66516h-0.21294v-1.5738h0.48069q0.26986 0 0.40268 0.11279t0.13282 0.34048q0 0.14864-0.06957 0.24667-0.06852 0.098-0.20029 0.13599zm-0.53339-0.66095v0.55869h0.26775q0.1539 0 0.23191-0.0706 0.07906-0.0717 0.07906-0.20978 0-0.13809-0.07906-0.20766-0.07801-0.0706-0.23191-0.0706h-0.26775z"/></g><g transform="scale(1.2299 .81309)"><path d="m81.64 666.68h0.74317v0.1792h-0.99932v-0.1792q0.12123-0.12545 0.32994-0.33627 0.20977-0.21188 0.26353-0.27302 0.10225-0.1149 0.14231-0.19396 0.04111-0.0801 0.04111-0.15707 0-0.12544-0.08855-0.2045-0.08749-0.0791-0.22875-0.0791-0.10014 0-0.21188 0.0348-0.11068 0.0348-0.23718 0.10542v-0.21505q0.1286-0.0516 0.24034-0.078t0.2045-0.0264q0.24456 0 0.39003 0.12228t0.14547 0.32679q0 0.097-0.0369 0.18447-0.03584 0.0864-0.13177 0.2045-0.02635 0.0306-0.16761 0.1771-0.14125 0.14547-0.39846 0.40795z"/><path d="m82.831 666.59h0.22242v0.26775h-0.22242v-0.26775z"/><path d="m84.104 665.47-0.53761 0.84015h0.53761v-0.84015zm-0.05587-0.18552h0.26775v1.0257h0.22453v0.17709h-0.22453v0.37106h-0.21188v-0.37106h-0.71049v-0.20555l0.65462-0.99721z"/></g><g transform="scale(1.2299 .81309)"><path d="m86.619 665.26h0.83593v0.1792h-0.64091v0.38581q0.04638-0.0158 0.09276-0.0232 0.04638-8e-3 0.09276-8e-3 0.26353 0 0.41744 0.14442 0.1539 0.14441 0.1539 0.39108 0 0.25405-0.15812 0.3953-0.15812 0.1402-0.4459 0.1402-0.09909 0-0.2024-0.0169-0.10225-0.0169-0.21188-0.0506v-0.21399q0.09487 0.0516 0.19607 0.077 0.1012 0.0253 0.21399 0.0253 0.18236 0 0.28883-0.0959t0.10647-0.26037q0-0.16444-0.10647-0.26037-0.10647-0.0959-0.28883-0.0959-0.08539 0-0.17077 0.019-0.08433 0.019-0.17288 0.059v-0.7906z"/></g></g><g fill-rule="evenodd"><ellipse cx="96.99" cy="538.25" rx="1.1736" ry=".77579" fill="#008000"/><ellipse cx="91.949" cy="538.25" rx="1.1736" ry=".77579" fill="#666"/><ellipse cx="102.03" cy="538.25" rx="1.1736" ry=".77579" fill="#a40"/><ellipse cx="107.07" cy="538.25" rx="1.1736" ry=".77579" fill="#a40"/><ellipse cx="86.907" cy="538.25" rx="1.1736" ry=".77579" fill="#666"/></g></g><g transform="matrix(.035192 0 0 .035192 52.692 477.41)" fill="#333"><path d="m846.77 202.07v113.09c0 51.641 22.992 65.219 52.021 65.219 32.416 0 54.66-20.732 54.66-66.35v-111.96h39.201v208.84h-35.811v-22.621h-0.75c-10.557 18.092-35.062 27.898-61.451 27.898-23.741 0-44.479-7.535-59.559-20.73-17.342-15.084-27.521-38.461-27.521-80.303v-113.09h39.21z"/><path d="m1208.3 271.43c-6.404-13.191-21.488-39.205-58.812-39.205-50.514 0-68.602 42.223-68.602 73.893 0 36.197 22.993 74.262 67.854 74.262 29.396 0 49.379-16.957 59.182-38.447h43.73c-15.832 46.361-56.547 74.264-102.91 74.264-68.609 0-107.06-56.172-107.06-110.07 0-56.549 41.477-109.7 107.44-109.7 59.189 0 94.629 44.1 102.54 75.012h-43.35l-0.01-0.01z"/><path d="m1653.5 314.03c0 45.611-22.238 66.348-54.664 66.348-29.021 0-52.018-13.578-52.018-65.219v-113.09h-39.205v113.09c0 41.842 10.188 65.219 27.521 80.303 15.09 13.193 35.812 20.73 59.562 20.73 26.386 0 50.888-9.812 61.439-27.898h0.762v22.621h35.812v-208.84h-39.209v111.96z"/><g fill="#333"><polygon points="1440.7 410.91 1489.7 410.91 1401.8 300.45 1477.6 202.07 1428.9 202.04 1357.6 303.43" fill="#333"/></g><rect x="1296.5" y="132.04" width="39.203" height="278.86"/><path d="m609.07 223.47h48.463c45.984 0 61.818 22.225 61.818 40.354 0 41.812-60.312 42.396-76.898 42.396h-21.4l74.438 83.78 19.881 20.768h59.188l-81.016-80.561c18.096 0 66.521-9.076 66.521-66.387 0-18.131-7.914-38.016-25.638-51.166-14.694-10.826-35.057-18.127-74.26-18.127h-91.812v216.38h40.713l2e-3 -187.44z"/><path d="m1859.3 256.32c-3.293-17.182-15.83-25.377-32.736-25.377-17.842 0-30.408 9.555-30.408 23.518 0 18.379 18.912 23.104 39.391 28.373 19.138 4.9 73.377 17.98 73.377 66.861 0 35.787-29.885 65.295-81.461 65.295-31.151 0-85.53-17.053-85.955-71.342l43.818-0.062c1.789 23.371 17.271 38.064 43.094 38.064 22.138 0 36.896-11.979 36.896-29.688 0-19.309-19.855-26.354-43.896-33.516-26.707-8.305-68.95-18.201-68.95-61.615 0-30.486 30.641-59.215 76.455-59.215 32.885 0 74.194 19.793 74.194 58.633l-43.819 0.071z"/></g><text transform="scale(.99995 1)" x="96.564079" y="510.58609" fill="#000000" font-family="sans-serif" letter-spacing="0px" stroke-width="1px" text-align="center" text-anchor="middle" word-spacing="0px" style="line-height:0%" xml:space="preserve"><tspan x="96.564079" y="510.58609" fill="#333333" font-size="7.9658px" style="line-height:1.25">T310</tspan></text></g></svg>
