<svg width="147.2" height="144" version="1.1" viewBox="37.3333333333 394.666666667 78.1765813333 46.736" xmlns="http://www.w3.org/2000/svg" xmlns:xlink="http://www.w3.org/1999/xlink"><defs><linearGradient id="linearGradient8382"><stop stop-color="#929292" offset="0"/><stop stop-color="#929292" stop-opacity="0" offset="1"/></linearGradient><linearGradient id="linearGradient8388" x1="-109.53" x2="-81.513" y1="188.77" y2="187.91" gradientTransform="translate(-.0088898 -.13239)" gradientUnits="userSpaceOnUse" xlink:href="#linearGradient8382"/><linearGradient id="linearGradient8388-7" x1="-84.89" x2="-96.383" y1="182.2" y2="182.2" gradientTransform="translate(243.33 -363.51)" gradientUnits="userSpaceOnUse" xlink:href="#linearGradient8382"/><linearGradient id="linearGradient8420" x1="-148.23" x2="-95.648" y1="181.69" y2="181.82" gradientTransform="translate(.0088818 9.3267e-6)" gradientUnits="userSpaceOnUse"><stop stop-color="#f0f0f0" offset="0"/><stop stop-color="#f0f0f0" stop-opacity="0" offset="1"/></linearGradient></defs><g transform="matrix(1.0665 0 0 1.0666 206.18 224.24)"><rect x="-158.31" y="145.84" width="73.291" height="71.697" rx=".39617" ry=".46759" fill="#fff" fill-opacity=".8549"/><path d="m-147.88 145.84h52.441l0.33416 0.46759v70.762c0 0.25904-0.14904 0.46759-0.33416 0.46759h-52.441c-0.18426 0.0178-0.33416-0.20855-0.33416-0.46759 0 0 0.33416-71.23 0-70.762z" fill="#ccc"/><rect x="-95.108" y="145.84" width="10.091" height="71.697" rx=".054544" ry=".46759" fill="url(#linearGradient8388)"/><rect transform="scale(-1)" x="148.23" y="-217.54" width="10.091" height="71.697" rx=".054544" ry=".46759" fill="url(#linearGradient8388-7)"/><rect x="-121.6" y="215.05" width="1.1266" height="2.4732" rx=".028968" ry=".24833" fill="#0f0"/><rect x="-132.72" y="215.45" width="1.1266" height="2.0749" rx=".028968" ry=".24833" fill="#0f0"/><rect x="-127.16" y="215.12" width="1.1266" height="2.4068" rx=".028968" ry=".24833" fill="#999"/><rect x="-116.04" y="215.25" width="1.1266" height="2.2741" rx=".028968" ry=".24833" fill="#d45500"/><rect x="-110.48" y="215.71" width="1.1266" height="1.8093" rx=".028968" ry=".24833" fill="#d45500"/><path d="m-147.88 145.84s17.169 2.1516 25.939 2.1593c8.7697 8e-3 26.502-2.1593 26.502-2.1593 0.18452-0.015 0.33416 0.20855 0.33416 0.46759v70.762c0 0.25904-0.14904 0.46759-0.33416 0.46759 0 0-17.44-2.5349-26.22-2.5349s-26.22 2.5349-26.22 2.5349c-0.18426 0.0178-0.33416-0.20855-0.33416-0.46759v-70.762c0-0.25904 0.14904-0.46759 0.33416-0.46759z" fill="url(#linearGradient8420)"/><g font-family="sans-serif" letter-spacing="0px" stroke-width="1px" word-spacing="0px"><text x="-121.32793" y="167.26601" fill="#333333" font-size="7.9664px" text-align="center" text-anchor="middle" style="line-height:0%" xml:space="preserve"><tspan x="-121.32793" y="167.26601" style="line-height:1.25">Ruckus </tspan><tspan x="-121.32793" y="177.22395" style="line-height:1.25">R310</tspan></text><g fill="#000000"><text x="-135.55894" y="214.54472" style="line-height:0%" xml:space="preserve"><tspan x="-135.55894" y="214.54472" font-size="2.6555px" style="line-height:1.25">PWR</tspan></text><text x="-129.06099" y="214.50713" style="line-height:0%" xml:space="preserve"><tspan x="-129.06099" y="214.50713" font-size="2.6555px" style="line-height:1.25">OPT</tspan></text><text x="-123.29146" y="214.54472" style="line-height:0%" xml:space="preserve"><tspan x="-123.29146" y="214.54472" font-size="2.6555px" style="line-height:1.25">DIR</tspan></text><text x="-117.51585" y="214.54472" style="line-height:0%" xml:space="preserve"><tspan x="-117.51585" y="214.54472" font-size="2.6555px" style="line-height:1.25">2.4</tspan></text><text x="-110.54527" y="214.50713" style="line-height:0%" xml:space="preserve"><tspan x="-110.54527" y="214.50713" font-size="2.6555px" style="line-height:1.25">5</tspan></text></g></g></g></svg>
