<svg width="472.53" height="47.467" version="1.1" viewBox="70.4 401.066666667 250.958144 15.4055701333" xmlns="http://www.w3.org/2000/svg"><g transform="matrix(1.2159 0 0 1.1254 -10.321 -27.424)" fill="#1a1a1a"><rect x="66.589" y="376.59" width="206" height="22" fill="#1a1a1a"/><rect x="66.589" y="376.59" width="206" height="22" fill-opacity="0" stroke="#000" stroke-width=".4"/></g><rect transform="scale(1.0667)" x="71.813" y="373.2" width="220.04" height="20.044" rx="3" ry="3" fill="#b3b3b3"/><path transform="scale(1.0667)" d="m232.6 373.2h57.637c1.662 0 3 1.338 3 3v14.044c0 1.662-1.338 3-3 3h-51.066c1.2688-3.8162 7.1462-9.1176-6.5719-20.044z" fill="#f60"/><path transform="scale(1.0667)" d="m237.59 373.2h57.637c1.662 0 3 1.338 3 3v14.044c0 1.662-1.338 3-3 3h-51.066c1.2688-3.8162 7.1462-9.1176-6.5719-20.044z" fill="#fff"/><g transform="matrix(.042034 0 0 .042034 308.44 412.21)"><g transform="matrix(.53109 0 0 .53109 -922.14 -237.6)"><path d="m1936.7 168.99c11.562 0 21.264 9.064 21.264 20.979 0 12.131-9.697 21.213-21.264 21.213-11.564 0-21.264-9.082-21.264-20.979 0-12.145 9.702-21.213 21.264-21.213zm0 39.121c9.93 0 17.863-7.816 17.863-18.145 0-10.152-7.938-17.926-17.863-17.926-9.924 0-17.863 7.771-17.863 18.156 0 10.099 7.937 17.915 17.863 17.915zm-7.883-30.109h8.963c5.84 0 8.618 2.154 8.618 7.029 0 4.367-2.836 6.24-6.469 6.639l7.031 10.779h-3.688l-6.688-10.5h-4.361v10.5h-3.404v-24.447zm3.407 10.88h4.195c3.396 0 6.576-0.172 6.576-4.02 0-3.412-2.896-3.812-5.502-3.812h-5.271v7.832z"/></g><g transform="matrix(.53109 0 0 .53109 -922.14 -237.6)"><path d="m846.77 202.07v113.09c0 51.641 22.992 65.219 52.021 65.219 32.416 0 54.66-20.732 54.66-66.35v-111.96h39.201v208.84h-35.811v-22.621h-0.75c-10.557 18.092-35.062 27.898-61.451 27.898-23.741 0-44.479-7.535-59.559-20.73-17.342-15.084-27.521-38.461-27.521-80.303v-113.09h39.21z"/><path d="m1208.3 271.43c-6.404-13.191-21.488-39.205-58.812-39.205-50.514 0-68.602 42.223-68.602 73.893 0 36.197 22.993 74.262 67.854 74.262 29.396 0 49.379-16.957 59.182-38.447h43.73c-15.832 46.361-56.547 74.264-102.91 74.264-68.609 0-107.06-56.172-107.06-110.07 0-56.549 41.477-109.7 107.44-109.7 59.189 0 94.629 44.1 102.54 75.012h-43.35l-0.01-0.01z"/><path d="m1653.5 314.03c0 45.611-22.238 66.348-54.664 66.348-29.021 0-52.018-13.578-52.018-65.219v-113.09h-39.205v113.09c0 41.842 10.188 65.219 27.521 80.303 15.09 13.193 35.812 20.73 59.562 20.73 26.386 0 50.888-9.812 61.439-27.898h0.762v22.621h35.812v-208.84h-39.209v111.96z"/><polygon points="1477.6 202.07 1428.9 202.04 1357.6 303.43 1440.7 410.91 1489.7 410.91 1401.8 300.45"/><rect x="1296.5" y="132.04" width="39.203" height="278.86"/><path d="m609.07 223.47h48.463c45.984 0 61.818 22.225 61.818 40.354 0 41.812-60.312 42.396-76.898 42.396h-21.4l74.438 83.78 19.881 20.768h59.188l-81.016-80.561c18.096 0 66.521-9.076 66.521-66.387 0-18.131-7.914-38.016-25.638-51.166-14.694-10.826-35.057-18.127-74.26-18.127h-91.812v216.38h40.713l2e-3 -187.44z"/><path d="m1859.3 256.32c-3.293-17.182-15.83-25.377-32.736-25.377-17.842 0-30.408 9.555-30.408 23.518 0 18.379 18.912 23.104 39.391 28.373 19.138 4.9 73.377 17.98 73.377 66.861 0 35.787-29.885 65.295-81.461 65.295-31.151 0-85.53-17.053-85.955-71.342l43.818-0.062c1.789 23.371 17.271 38.064 43.094 38.064 22.138 0 36.896-11.979 36.896-29.688 0-19.309-19.855-26.354-43.896-33.516-26.707-8.305-68.95-18.201-68.95-61.615 0-30.486 30.641-59.215 76.455-59.215 32.885 0 74.194 19.793 74.194 58.633l-43.819 0.071z"/></g><g transform="matrix(.53109 0 0 .53109 -922.14 -237.6)"><path d="m304.73 247.65s-2.834-16.547 4.502-23.613c7.317-7.092 19.418 0.562 19.418 0.562l35.039 20.314s28.327 16.531 35.062 17.48c6.4 0.891 13.168-1.881 15.943-8.557 2.174-5.229-2.058-10.982-3.205-12.848-2.002-3.205-8.066-10.35-8.066-10.35l-31.334-32.242s-16.312-15.072-16.916-24.008c-0.416-6.17 21.742-19.525 21.742-19.525s22.149-11.381 44.238-23.988c22.104-12.625 8.317-29.48 1.545-30.727-6.771-1.215-35.634 4.934-35.634 4.934s-29.848 6.156-52.858 7.391c-23.015 1.229-30.786-15.396-30.786-15.396s-11.009-19.076-15.638-28.311c-4.614-9.232-6.957-10.984-14.363-7.283-5.894 2.939 3.904 24.02 3.904 24.02s5.845 13.125 8.608 18.957c2.773 5.857 3.709 10.711-1.832 13.479-5.541 2.771-9.559-7.619-9.559-7.619l-15.988-29.236s-5.098-8.045-7.007-10.453c-8.931-11.33-30.387 13.195-30.451 17.332-0.229 13.33 16.77-0.203 21.215 9.115 2.496 5.227 8.235 17.793 9.776 21.176 1.538 3.398 11.143 27.699-6.079 34.771-17.24 7.076-87.929 38.746-179.94 38.746-31.824 0-47.443-3.768-47.443-3.768s-31.217-9.018-12.821 17.355c0 0 13.044 15.887 17.066 28.75 6.521 20.854 2.557 52.59-1.712 63.682-4.268 11.086-16.743 24.463-16.743 24.463s6.927 158.88 3.944 177.35c-3.148 19.525 2.3 35.289 2.3 35.289s1.445 14.074 18.176 24.678c13.063 8.283 13.639-2.27 13.639-9.104 0-6.809-7.68-17.047-12.791-22.176-5.107-5.104-3.413-14.9-3.413-14.9l15.258-174.49s4.189-17.512 15.154-3.879c8.914 11.055-2.268 23.023-2.268 23.023s6.882 127.34 6.882 144.58c0 20.186-2.094 31.645-0.406 38.457 1.706 6.838 11.645 16.215 23.589 20.188 11.951 3.984 10.245-5.684 10.245-5.684s-1.908-15.682-11.089-19.609c-5.979-2.559-5.125-31.279-5.125-31.279l3.263-101.27s-2.429-79.438 34.063-89.441c30.235-8.291 91.505 5.145 91.505 5.145s43.376 6.596 52.422 40.945c9.965 37.896 23.213 154.35 23.213 154.35s11.881 58.971 48.769 47.986c1.264-0.365 2.483-0.895 2.483-0.895s9.804-3.977-6.266-14.668c-16.051-10.734-20.438-10.23-27.732-46.277-7.304-36.016-10.75-139.9-11.25-148.17-0.479-8.271-1.942-23.35-1.942-23.35s2.166-9.586 7.799-2.439c6.402 8.135 14.396 48.082 14.396 48.082s14.676 87.348 17.102 99.238c1.604 7.896 5.644 42.111 27.129 58.553 16.545 12.676 40.539 3.762 40.539 3.762s6.818-13.635-12.182-15.57c-16.716-1.715-26.283-8.307-32.603-27.283-6.333-18.977-44.484-245.76-44.484-245.76z"/><g fill="#ee9601"><path d="m430.17 521.79c21.771-9.83 40.66-12.15 65.42-5.865 26.541 6.736 37.498 22.154 28.521 36.982 4.674-11.162-9.605-23.9-36.353-30.684-24.219-6.154-39.553-6.435-57.588-0.433z"/><path d="m393.27 502.59c-3.563-6.682-29.018-55.979-27.504-97.225 0.263-6.986 1.146-13.869 2.297-20.822 6.152-37.02 3.002-43.473-33-110.65l6.021-10.828c36.004 67.178 39.172 73.631 33.021 110.65-1.178 6.953-2.055 13.834-2.325 20.846-1.527 41.803 24.661 91.898 27.653 97.479 22.299 41.424 61.759 72.797 94.39 72.797 14.059 0 24.799-5.834 31.655-15.76-5.577 16.619-18.432 26.953-37.146 26.953-32.848 0-72.893-31.479-95.086-73.4l0.024-0.042z" stroke="#ee9601" stroke-miterlimit="3.8637" stroke-width=".1395"/><path d="m330.69 256.46s-83.956-63.006-94.48-98.178c-1.859-6.145-27.624 7.354-27.624 7.354s62.386 65.369 108.6 93.275c10.705 6.46 13.5-2.451 13.5-2.451z"/></g><path d="m329.16 277.87c-8.256 0-14.971-6.715-14.971-14.971s6.715-14.977 14.971-14.977c8.25 0 14.961 6.721 14.961 14.977s-6.711 14.971-14.961 14.971zm0-23.946c-4.945 0-8.971 4.025-8.971 8.977 0 4.947 4.022 8.971 8.971 8.971 4.938 0 8.961-4.021 8.961-8.971 0-4.951-4.019-8.977-8.961-8.977z" fill="#fff"/><g fill="#ee9601"><path d="m504.9 0.035 15.397 6.383-8.047 18.154-44.465 77.016 29.065-83.402 8.05-18.151z"/><path d="m552.56 28.568 12.521 10.957-13.453 14.623-66.756 58.752 54.229-69.727 13.459-14.605z"/><path d="m591.17 71.068 8.281 14.449-17.445 9.473-82.238 33.893 73.933-48.354 17.469-9.461z"/></g></g></g><g transform="matrix(1.0667 0 0 1.0667 0 1.5364)"><g transform="matrix(0 .31464 -.31449 0 226.42 340.98)"><path d="m131.23 266.26v-24.611h-8.376v24.611h8.376z"/><path d="m131.23 266.26v-24.611h-8.3762v24.611h8.3762z" fill="none" stroke="#535353" stroke-linecap="round" stroke-linejoin="round" stroke-miterlimit="4.4615" stroke-width=".10782"/><g stroke="#000" stroke-linejoin="round"><path d="m126.34 264.07v-20.304h-1.4326v20.304h1.4326z" fill="none" stroke-linecap="round" stroke-miterlimit="4.4615" stroke-width=".10782"/><path d="m124.91 264.07v-20.304l-0.71578-0.72485v21.754l0.71578-0.72485" fill="#a09a9a" stroke-width=".11578"/><path d="m127.06 264.79v-21.754l-0.71603 0.72485v20.304l0.71603 0.72485" fill="#a09a9a" stroke-width=".11578"/><path d="m127.06 264.79v-21.754l-0.71643 0.72523v20.304l0.71643 0.72472z" fill="none" stroke-linecap="round" stroke-miterlimit="4.4615" stroke-width=".10782"/></g><path d="m127.06 264.79-0.71603-0.72485h-1.4333l-0.71578 0.72485h2.8651" fill="#a09a9a" stroke="#000" stroke-linecap="round" stroke-linejoin="round" stroke-width=".11578"/><path d="m127.06 243.04-0.71603 0.72485h-1.4333l-0.71578-0.72485h2.8651" fill="#a09a9a" stroke="#000" stroke-linejoin="round" stroke-width=".11578"/><path d="m126.31 264.05v-20.293h-1.3976v20.293z" fill="#505050"/></g><g transform="matrix(0 .31464 -.31449 0 226.51 345.44)"><path d="m131.23 266.26v-24.611h-8.376v24.611h8.376z"/><path d="m131.23 266.26v-24.611h-8.3762v24.611h8.3762z" fill="none" stroke="#535353" stroke-linecap="round" stroke-linejoin="round" stroke-miterlimit="4.4615" stroke-width=".10782"/><g stroke="#000" stroke-linejoin="round"><path d="m126.34 264.07v-20.304h-1.4326v20.304h1.4326z" fill="none" stroke-linecap="round" stroke-miterlimit="4.4615" stroke-width=".10782"/><path d="m124.91 264.07v-20.304l-0.71578-0.72485v21.754l0.71578-0.72485" fill="#a09a9a" stroke-width=".11578"/><path d="m127.06 264.79v-21.754l-0.71603 0.72485v20.304l0.71603 0.72485" fill="#a09a9a" stroke-width=".11578"/><path d="m127.06 264.79v-21.754l-0.71643 0.72523v20.304l0.71643 0.72472z" fill="none" stroke-linecap="round" stroke-miterlimit="4.4615" stroke-width=".10782"/></g><path d="m127.06 264.79-0.71603-0.72485h-1.4333l-0.71578 0.72485h2.8651" fill="#a09a9a" stroke="#000" stroke-linecap="round" stroke-linejoin="round" stroke-width=".11578"/><path d="m127.06 243.04-0.71603 0.72485h-1.4333l-0.71578-0.72485h2.8651" fill="#a09a9a" stroke="#000" stroke-linejoin="round" stroke-width=".11578"/><path d="m126.31 264.05v-20.293h-1.3976v20.293z" fill="#505050"/></g></g><g transform="matrix(-1.0667 0 0 -1.0667 398.5 831.36)"><rect x="206.37" y="391.21" width="7.7672" height="7.3689" fill-rule="evenodd"/><path d="m206.48 398.38h7.5627v-6.9857l-7.5627-2.3e-4z" fill="#ebebeb"/><g transform="matrix(.0080803 0 0 .0080046 193.35 427.15)"><path d="m2560.5-3593.3v-872.71l-935.94-0.027v872.74z" fill="none" stroke="#000" stroke-linecap="square" stroke-width=".67568"/></g><path d="m206.78 393.16h1.7595l-3e-3 -1.0653 0.64032-5.7e-4v-0.39887h2.0639l-4.8e-4 0.39991h0.66649v1.0654h1.7514v4.5866l-6.8779 0.0149z" fill="#1a1a1a"/><g fill="#ffac00"><path d="m208.36 397.76h0.21964v-1.34h-0.21964v1.34z"/><path d="m208.85 397.76h0.21963v-1.34h-0.21963v1.34z"/><path d="m209.36 397.76h0.21958v-1.34h-0.21958v1.34z"/><path d="m209.87 397.76h0.21965v-1.34h-0.21965v1.34z"/><path d="m210.36 397.76h0.21965v-1.34h-0.21965v1.34z"/><path d="m210.86 397.76h0.21958v-1.34h-0.21958v1.34z"/><path d="m211.39 397.76h0.22013v-1.34h-0.22013v1.34z"/><path d="m211.88 397.76h0.21957v-1.34h-0.21957v1.34z"/></g><path d="m206.48 398.39-1e-3 -6.9884 2.3323-9.5e-4v0.67227l-2.2501-1e-3v0.87025l0.22339 7e-3 4.8e-4 4.8157 6.8744-0.01 5e-3 -5e-3 5.3e-4 -4.8009 0.22338-7e-3v-0.87026l-2.2633 1e-3v-0.67227l2.4169 9.5e-4 1e-3 6.9883" fill="#ebebeb"/></g><text transform="scale(1.1091 1.0259)" x="153.73251" y="394.21756" fill="#000000" font-family="sans-serif" font-size="1.7552px" style="line-height:0%"><tspan x="153.73251" y="394.21756" fill="#000000" font-family="sans-serif">console</tspan></text><circle transform="scale(1.0667)" cx="130.33" cy="385.33" r=".46526" fill="#008000" fill-rule="evenodd" stroke="#050" stroke-linejoin="round" stroke-width=".53612"/><circle transform="scale(1.0667)" cx="186.61" cy="378.84" r=".46526" fill="#008000" fill-rule="evenodd" stroke="#050" stroke-linejoin="round" stroke-width=".53612"/><g transform="matrix(1.0667 0 0 1.0667 -2.266 0)"><rect x="205.08" y="380.81" width="7.7672" height="7.3689" fill-rule="evenodd"/><g transform="matrix(-1.0006 0 0 -.99999 322.83 734.27)" stroke-width=".26546"><path d="m110.02 353.2h7.5579v-6.9858l-7.5579-2.3e-4z" fill="#3a3a3a"/><g transform="matrix(.0080752 0 0 .0080046 96.896 381.97)" stroke-width="33.018"><path d="m2560.5-3593.3v-872.71l-935.94-0.027v872.74z" fill="none" stroke="#000" stroke-linecap="square" stroke-width="33.018"/></g><path d="m110.32 347.98h1.7584l-3e-3 -1.0653 0.63992-5.7e-4v-0.39887h2.0626l-4.8e-4 0.39991h0.66608v1.0654h1.7503v4.5866l-6.8735 0.0149z" fill="#1a1a1a"/><g fill="#ffac00"><path d="m111.9 352.58h0.2195v-1.34h-0.2195v1.34z"/><path d="m112.39 352.58h0.2195v-1.34h-0.2195v1.34z"/><path d="m112.89 352.58h0.21944v-1.34h-0.21944v1.34z"/><path d="m113.41 352.58h0.21951v-1.34h-0.21951v1.34z"/><path d="m113.9 352.58h0.21951v-1.34h-0.21951v1.34z"/><path d="m114.4 352.58h0.21944v-1.34h-0.21944v1.34z"/><path d="m114.92 352.58h0.21999v-1.34h-0.21999v1.34z"/><path d="m115.41 352.58h0.21944v-1.34h-0.21944v1.34z"/></g><path d="m115.6 347.7h1.7367v-0.74886h-1.7367v0.74886z" fill="#abb927"/><path d="m110.16 347.7h1.752v-0.75276h-1.752v0.75276z" fill="#ff7d00"/><path d="m110.02 353.21-1e-3 -6.9884 2.3308-9.5e-4v0.67227l-2.2487-1e-3v0.87026l0.22325 7e-3 4.8e-4 4.8157 6.87-0.01 5e-3 -5e-3 5.3e-4 -4.801 0.22324-7e-3v-0.87027l-2.2619 1e-3v-0.67227l2.4153 9.5e-4 1e-3 6.9884" fill="#ebebeb"/></g></g><rect transform="scale(1.0667)" x="214.09" y="380.94" width="7.7672" height="7.3689" fill-rule="evenodd"/><g transform="matrix(-1.0673 0 0 -1.0667 353.97 783.22)"><path d="m110.02 353.2h7.5579v-6.9858l-7.5579-2.3e-4z" fill="#3a3a3a"/><g transform="matrix(.0080752 0 0 .0080046 96.896 381.97)"><path d="m2560.5-3593.3v-872.71l-935.94-0.027v872.74z" fill="none" stroke="#000" stroke-linecap="square" stroke-width=".67568"/></g><path d="m110.32 347.98h1.7584l-3e-3 -1.0653 0.63992-5.7e-4v-0.39887h2.0626l-4.8e-4 0.39991h0.66608v1.0654h1.7503v4.5866l-6.8735 0.0149z" fill="#1a1a1a"/><g fill="#ffac00"><path d="m111.9 352.58h0.2195v-1.34h-0.2195v1.34z"/><path d="m112.39 352.58h0.2195v-1.34h-0.2195v1.34z"/><path d="m112.89 352.58h0.21944v-1.34h-0.21944v1.34z"/><path d="m113.41 352.58h0.21951v-1.34h-0.21951v1.34z"/><path d="m113.9 352.58h0.21951v-1.34h-0.21951v1.34z"/><path d="m114.4 352.58h0.21944v-1.34h-0.21944v1.34z"/><path d="m114.92 352.58h0.21999v-1.34h-0.21999v1.34z"/><path d="m115.41 352.58h0.21944v-1.34h-0.21944v1.34z"/></g><path d="m115.6 347.7h1.7367v-0.74886h-1.7367v0.74886z" fill="#abb927"/><path d="m110.16 347.7h1.752v-0.75276h-1.752v0.75276z" fill="#ff7d00"/><path d="m110.02 353.21-1e-3 -6.9884 2.3308-9.5e-4v0.67227l-2.2487-1e-3v0.87026l0.22325 7e-3 4.8e-4 4.8157 6.87-0.01 5e-3 -5e-3 5.3e-4 -4.801 0.22324-7e-3v-0.87027l-2.2619 1e-3v-0.67227l2.4153 9.5e-4 1e-3 6.9884" fill="#ebebeb"/></g><circle transform="scale(1.0667)" cx="138.63" cy="387.14" r=".46526" fill-rule="evenodd" stroke="#000" stroke-linejoin="round" stroke-width=".53612"/><text transform="scale(1.1091 1.0259)" x="176.77272" y="397.10666" fill="#000000" font-family="sans-serif" font-size="1.7552px" style="line-height:0%"><tspan x="176.77272" y="397.10666" fill="#000000" font-family="sans-serif">status</tspan></text><g transform="matrix(1.0667 0 0 1.0667 1.133 -.6109)" font-family="sans-serif" letter-spacing="-.068481px" stroke-width="1px" word-spacing="0px"><text x="86.839607" y="380.55951" style="line-height:0%" xml:space="preserve"><tspan x="86.839607" y="380.55951" font-family="sans-serif" font-size="6.8481px" font-weight="bold" style="line-height:0">ZoneDirector</tspan></text><text x="86.251274" y="392.04193" style="line-height:0%" xml:space="preserve"><tspan x="86.251274" y="392.04193" font-family="sans-serif" font-size="13.394px" font-weight="bold" style="line-height:0">3000</tspan></text></g><g transform="matrix(.022324 0 0 .022324 53.998 416.78)"><path d="m1936.7 168.99c11.562 0 21.264 9.064 21.264 20.979 0 12.131-9.697 21.213-21.264 21.213-11.564 0-21.264-9.082-21.264-20.979 0-12.145 9.702-21.213 21.264-21.213zm0 39.121c9.93 0 17.863-7.816 17.863-18.145 0-10.152-7.938-17.926-17.863-17.926-9.924 0-17.863 7.771-17.863 18.156 0 10.099 7.937 17.915 17.863 17.915zm-7.883-30.109h8.963c5.84 0 8.618 2.154 8.618 7.029 0 4.367-2.836 6.24-6.469 6.639l7.031 10.779h-3.688l-6.688-10.5h-4.361v10.5h-3.404v-24.447zm3.407 10.88h4.195c3.396 0 6.576-0.172 6.576-4.02 0-3.412-2.896-3.812-5.502-3.812h-5.271v7.832z"/></g><g transform="matrix(1.0667 0 0 1.0667 19.674 -5.5945)"><path transform="matrix(.53109 0 0 .53109 66 371.4)" d="m-12.805 22.967c-0.206-0.02992-0.4505 0.04272-0.7793 0.20703-0.69779 0.34794 0.46289 2.8438 0.46289 2.8438s0.69242 1.5556 1.0195 2.2461c0.32829 0.6934 0.4392 1.268-0.2168 1.5957-0.656 0.32806-1.1328-0.90234-1.1328-0.90234l-1.8926-3.4609s-0.60407-0.95321-0.83008-1.2383c-1.0573-1.3414-3.5979 1.563-3.6055 2.0527-0.02711 1.5781 1.9855-0.02511 2.5117 1.0781 0.2955 0.61882 0.97576 2.1073 1.1582 2.5078 0.18208 0.40229 1.3202 3.278-0.71875 4.1152-0.98324 0.40356-3.462 1.4838-6.957 2.4941v8.8418c0 3.1294 2.519 5.6484 5.6484 5.6484h9.252c-0.32414-1.906-0.99219-5.7812-0.99219-5.7812s-0.33531-1.9584 0.5332-2.7949c0.86626-0.83963 2.2988 0.06641 2.2988 0.06641l4.1484 2.4043s3.353 1.958 4.1504 2.0703c0.7577 0.10544 1.5601-0.2233 1.8887-1.0137 0.25738-0.61907-0.24507-1.3006-0.38086-1.5215-0.23702-0.37944-0.95508-1.2246-0.95508-1.2246l-3.709-3.8164s-1.9304-1.7858-2.002-2.8438c-0.049257-0.73046 2.5742-2.3105 2.5742-2.3105s2.6212-1.3473 5.2363-2.8398c2.6169-1.4947 0.98534-3.4911 0.18359-3.6387-0.80162-0.14386-4.2188 0.58398-4.2188 0.58398s-3.5337 0.72879-6.2578 0.875c-2.7247 0.14555-3.6445-1.8223-3.6445-1.8223s-1.3035-2.2582-1.8516-3.3516c-0.34141-0.68311-0.57854-1.0205-0.92188-1.0703z"/><path d="m63.01 395.68s-5.2788-3.9616-5.9405-6.173c-0.11689-0.38637-1.7369 0.46239-1.7369 0.46239s3.9226 4.1101 6.8286 5.8648c0.67309 0.40618 0.84882-0.15411 0.84882-0.15411z" fill="#ee9601"/><path d="m62.914 397.02c-0.5191 0-0.94132-0.42221-0.94132-0.94131 0-0.51911 0.42221-0.9417 0.94132-0.9417 0.51873 0 0.94069 0.42259 0.94069 0.9417 0 0.5191-0.42196 0.94131-0.94069 0.94131zm0-1.5056c-0.31092 0-0.56406 0.25307-0.56406 0.56443 0 0.31105 0.25289 0.56406 0.56406 0.56406 0.31048 0 0.56343-0.25282 0.56343-0.56406 0-0.3113-0.2527-0.56443-0.56343-0.56443z"/></g></svg>
