<svg width="130" height="42" version="1.1" viewBox="66 376 69.042 13.631" xmlns="http://www.w3.org/2000/svg">
 <path d="m71.681 371.66v15.743c0 0.0304-0.02476 0.0547-0.05447 0.0547h-5.6262v5.9507c0 0.30823 0.23921 0.55698 0.53633 0.55698h67.969c0.29713 0 0.53633-0.24875 0.53633-0.55698v-21.192c0-0.30822-0.2392-0.55697-0.53633-0.55697z" style="fill:#3e4652"/>
 <text transform="rotate(-90)" x="-392.62155" y="85.348358" style="font-family:sans-serif;font-size:1.2266px;letter-spacing:-.031866px;line-height:1.25;stroke-width:.076662" xml:space="preserve"><tspan x="-392.62155" y="85.348358" style="fill:#ffffff;font-family:sans-serif;stroke-width:.076662">RTN</tspan></text>
 <text transform="rotate(-90)" x="-392.62155" y="90.675842" style="font-family:sans-serif;font-size:1.2266px;letter-spacing:-.031866px;line-height:1.25;stroke-width:.076662" xml:space="preserve"><tspan x="-392.62155" y="90.675842" style="fill:#ffffff;font-family:sans-serif;stroke-width:.076662">RTN</tspan></text>
 <text transform="rotate(-90)" x="-393.11255" y="88.011497" style="font-family:sans-serif;font-size:1.2266px;letter-spacing:-.031866px;line-height:1.25;stroke-width:.076662" xml:space="preserve"><tspan x="-393.11255" y="88.011497" style="fill:#ffffff;font-family:sans-serif;stroke-width:.076662">-48V</tspan></text>
 <text transform="rotate(-90)" x="-393.69769" y="93.338982" style="font-family:sans-serif;font-size:1.2266px;letter-spacing:-.031866px;line-height:1.25;stroke-width:.076662" xml:space="preserve"><tspan x="-393.69769" y="93.338982" style="fill:#ffffff;font-family:sans-serif;stroke-width:.076662">+48V</tspan></text>
 <circle cx="82.628" cy="375.32" r="1.5933" style="fill:#008000;stroke-linejoin:round;stroke-width:.79664;stroke:#333"/>
 <g transform="translate(62.16 7.5527)">
  <circle cx="6.3808" cy="383.16" r="2.6555" style="fill:#e6e6e6;stroke-linejoin:round;stroke-width:.26554;stroke:#999"/>
  <circle cx="6.3808" cy="383.17" r="1.5402" style="fill:#ccc;stroke-linejoin:round;stroke-width:.10622;stroke:#4d4d4d"/>
  <rect x="4.895" y="382.87" width="2.9717" height=".65584" rx=".50479" ry=".070358" style="fill:#999"/>
 </g>
 <g transform="translate(125.87 .79462)">
  <circle cx="6.3808" cy="383.16" r="2.6555" style="fill:#e6e6e6;stroke-linejoin:round;stroke-width:.26554;stroke:#999"/>
  <circle cx="6.3808" cy="383.17" r="1.5402" style="fill:#ccc;stroke-linejoin:round;stroke-width:.10622;stroke:#4d4d4d"/>
  <rect x="4.895" y="382.87" width="2.9717" height=".65584" rx=".50479" ry=".070358" style="fill:#999"/>
 </g>
 <rect x="76.291" y="373.26" width="2.6555" height="19.119" rx="1.3277" style="fill:#2d333c;stroke-linejoin:round;stroke-opacity:.99692;stroke-width:.26554"/>
 <rect x="123.28" y="373.26" width="2.6555" height="19.119" rx="1.3277" style="fill:#2d333c;stroke-linejoin:round;stroke-opacity:.99692;stroke-width:.26554"/>
 <g transform="translate(3e-6 -47.757)">
  <path d="m100.73 421.38h16.081c0.94152 0 1.6995 0.75797 1.6995 1.6995v12.838c0 0.94152-0.75798 1.6995-1.6995 1.6995h-16.081c-0.94152 0-1.6995-0.75797-1.6995-1.6995v-12.838c0-0.94152 0.75797-1.6995 1.6995-1.6995z" style="fill-rule:evenodd;fill:#1a1a1a;stroke-linecap:round;stroke-width:.05665;stroke:#000"/>
  <path d="m116.5 423.62h-7.428v11.332h7.428z" style="fill:#333;stroke-width:.038094;stroke:#000"/>
  <g transform="translate(.031245 14.19)">
   <path d="m110.2 419.06h5.1125v-7.9255h-5.1125z" style="stroke-width:.035313;stroke:#000"/>
   <path d="m115.31 418.19h-5.1144" style="fill:none;stroke-width:.035688;stroke:#7e7e7e"/>
   <g transform="matrix(-1.1076 0 0 -1.1076 354.91 439.28)" style="fill:#fff" aria-label="I">
    <path d="m218.52 23.299h0.22557v1.6672h-0.22557z" style="fill:#fff;stroke-width:.012706px"/>
   </g>
   <g transform="matrix(-1.1076 0 0 -1.1076 354.91 439.28)" style="fill:#fff" aria-label="O">
    <path d="m218.63 19.902q-0.24567 0-0.39084 0.18314-0.14406 0.18314-0.14406 0.49917 0 0.31491 0.14406 0.49805 0.14517 0.18314 0.39084 0.18314 0.24568 0 0.38862-0.18314 0.14405-0.18314 0.14405-0.49805 0-0.31603-0.14405-0.49917-0.14294-0.18314-0.38862-0.18314zm0-0.18314q0.35065 0 0.56059 0.23563 0.20994 0.23451 0.20994 0.62982 0 0.3942-0.20994 0.62982-0.20994 0.23451-0.56059 0.23451-0.35176 0-0.56282-0.23451-0.20994-0.23451-0.20994-0.62982t0.20994-0.62982q0.21106-0.23563 0.56282-0.23563z" style="fill:#fff;stroke-width:.012706px"/>
   </g>
  </g>
  <path d="m108.56 423.05h-5.5997l-3.276 3.2702v6.1229l3.4665 3.4604h5.4093z" style="stroke-width:.038094;stroke:#090909"/>
  <path d="m100.91 428.87v1.1406h2.7046v-1.1406z" style="fill:#b3b3b3"/>
  <path d="m104.64 432.98v1.1406h2.7046v-1.1406z" style="fill:#b3b3b3"/>
  <path d="m104.64 424.84v1.1407h2.7046v-1.1407z" style="fill:#b3b3b3"/>
 </g>
 <rect x="83.601" y="381.59" width="10.592" height="8.3268" rx=".026555" ry=".026555" style="fill:#47b88e"/>
 <g transform="translate(-.080158 -31.851)">
  <rect x="84.093" y="416.99" width="1.777" height="3.561" rx=".026555" ry=".026555" style="fill:#2f7b5f"/>
  <rect x="84.313" y="418.39" width="1.3359" height="1.7157" rx=".026555" ry=".026555" style="fill:#808080"/>
 </g>
 <g transform="translate(5.2473 -31.851)">
  <rect x="84.093" y="416.99" width="1.777" height="3.561" rx=".026555" ry=".026555" style="fill:#2f7b5f"/>
  <rect x="84.313" y="418.39" width="1.3359" height="1.7157" rx=".026555" ry=".026555" style="fill:#808080"/>
 </g>
 <g transform="translate(7.9111 -31.851)">
  <rect x="84.093" y="416.99" width="1.777" height="3.561" rx=".026555" ry=".026555" style="fill:#2f7b5f"/>
  <rect x="84.313" y="418.39" width="1.3359" height="1.7157" rx=".026555" ry=".026555" style="fill:#808080"/>
 </g>
 <g transform="translate(.15359 -31.851)">
  <rect x="86.523" y="416.99" width="1.777" height="3.561" rx=".026555" ry=".026555" style="fill:#2f7b5f"/>
  <rect x="86.743" y="418.39" width="1.3359" height="1.7157" rx=".026555" ry=".026555" style="fill:#808080"/>
 </g>
</svg>
