<svg width="440" height="44" version="1.1" viewBox="66 376 233.68 14.28" xmlns="http://www.w3.org/2000/svg">
 <g font-family="sans-serif">
  <text transform="scale(1.0394 .96208)" x="74.609604" y="403.55396" fill="#ffffff" font-size="2.476px" font-weight="700" style="line-height:0%"><tspan x="74.609604" y="403.55396"/></text>
  <text x="79.636726" y="379.27701" fill="#000000" letter-spacing="0px" stroke-width="1px" word-spacing="0px" style="line-height:0%" xml:space="preserve"><tspan x="79.636726" y="379.27701" font-size="21.244px" style="line-height:1.25"> </tspan></text>
  <text x="106.40886" y="374.72192" fill="#000000" letter-spacing="0px" stroke-width="1px" word-spacing="0px" style="line-height:0%" xml:space="preserve"><tspan x="106.40886" y="374.72192" font-size="21.244px" style="line-height:1.25"> </tspan></text>
 </g>
 <path d="m299.62 371.51h-233.56v23.251h233.56z" fill="#003e7e" stroke="#000" stroke-width=".11686" style="fill:#334553"/>
 <path d="m81.929 371.58h-12.071v23.168h12.071z" fill="#151515" stroke-width=".14285" style="stroke:#000"/>
 <path d="m70.036 371.65v23.1h11.429v-4.6128h2.9158c0.554 0 0.99994-0.44594 0.99994-0.99993v-2.5901c0-0.55399-0.44594-0.99993-0.99994-0.99993h-2.9158v-13.897h-11.429z" fill="#003e7e" stroke-width=".14285" style="fill:#334553;stroke:#000"/>
 <path d="m76.702 374.38v-0.0905l-0.27042-0.22451-0.49581-0.13533h-0.36054l-0.54084 0.13533-0.27043 0.22451v17.637l0.27043 0.22515 0.54084 0.1347h0.36054l0.49581-0.1347 0.27042-0.22515v-17.547z" fill="#003d7b" stroke="#000" stroke-width=".090141" style="fill:#1c262e"/>
 <g transform="matrix(.40008 0 0 .40008 -3.2908 228.3)">
  <path d="m219.84 398.3c0 2.0739-1.6252 3.7577-3.626 3.7577s-3.6247-1.6839-3.6247-3.7577c0-2.0752 1.6238-3.759 3.6247-3.759 2.0008 0 3.626 1.6839 3.626 3.759z" fill="#666" stroke="#000" stroke-width=".092955"/>
  <path d="m218.91 398.3c0 1.5365-1.2078 2.7847-2.696 2.7847s-2.6947-1.2482-2.6947-2.7847 1.2065-2.7834 2.6947-2.7834 2.696 1.2469 2.696 2.7834z" fill="#fff" stroke="#000" stroke-width=".092955"/>
  <g transform="translate(-15.637,3.7357)" stroke-width=".1">
   <path d="m231.3 392.15v1.9609" fill="none" stroke="#999"/>
   <g shape-rendering="auto">
    <path d="m229.39 394.11v1h1.9219v1.9219h1" color="#000000" color-rendering="auto" fill="none" image-rendering="auto" solid-color="#000000" stroke="#999" style="isolation:auto;mix-blend-mode:normal;text-decoration-color:#000000;text-decoration-line:none;text-decoration-style:solid;text-indent:0;text-transform:none;white-space:normal"/>
    <path d="m231.4 392.1v1.9219h-1.9219v1h1.9219v1.9219h1v-1.9219h1.9219v-1h-1.9219v-1.9219z" color="#000000" color-rendering="auto" fill="#333" fill-rule="evenodd" image-rendering="auto" solid-color="#000000" stroke="#000" style="isolation:auto;mix-blend-mode:normal;text-decoration-color:#000000;text-decoration-line:none;text-decoration-style:solid;text-indent:0;text-transform:none;white-space:normal"/>
   </g>
  </g>
 </g>
 <g transform="matrix(.40008 0 0 .40008 210.75 214.93)">
  <path d="m219.84 398.3c0 2.0739-1.6252 3.7577-3.626 3.7577s-3.6247-1.6839-3.6247-3.7577c0-2.0752 1.6238-3.759 3.6247-3.759 2.0008 0 3.626 1.6839 3.626 3.759z" fill="#666" stroke="#000" stroke-width=".092955"/>
  <path d="m218.91 398.3c0 1.5365-1.2078 2.7847-2.696 2.7847s-2.6947-1.2482-2.6947-2.7847 1.2065-2.7834 2.6947-2.7834 2.696 1.2469 2.696 2.7834z" fill="#fff" stroke="#000" stroke-width=".092955"/>
  <g transform="translate(-15.637,3.7357)" stroke-width=".1">
   <path d="m231.3 392.15v1.9609" fill="none" stroke="#999"/>
   <g shape-rendering="auto">
    <path d="m229.39 394.11v1h1.9219v1.9219h1" color="#000000" color-rendering="auto" fill="none" image-rendering="auto" solid-color="#000000" stroke="#999" style="isolation:auto;mix-blend-mode:normal;text-decoration-color:#000000;text-decoration-line:none;text-decoration-style:solid;text-indent:0;text-transform:none;white-space:normal"/>
    <path d="m231.4 392.1v1.9219h-1.9219v1h1.9219v1.9219h1v-1.9219h1.9219v-1h-1.9219v-1.9219z" color="#000000" color-rendering="auto" fill="#333" fill-rule="evenodd" image-rendering="auto" solid-color="#000000" stroke="#000" style="isolation:auto;mix-blend-mode:normal;text-decoration-color:#000000;text-decoration-line:none;text-decoration-style:solid;text-indent:0;text-transform:none;white-space:normal"/>
   </g>
  </g>
 </g>
 <g transform="matrix(.40008 0 0 .40008 210.75 225.91)">
  <path d="m219.84 398.3c0 2.0739-1.6252 3.7577-3.626 3.7577s-3.6247-1.6839-3.6247-3.7577c0-2.0752 1.6238-3.759 3.6247-3.759 2.0008 0 3.626 1.6839 3.626 3.759z" fill="#666" stroke="#000" stroke-width=".092955"/>
  <path d="m218.91 398.3c0 1.5365-1.2078 2.7847-2.696 2.7847s-2.6947-1.2482-2.6947-2.7847 1.2065-2.7834 2.6947-2.7834 2.696 1.2469 2.696 2.7834z" fill="#fff" stroke="#000" stroke-width=".092955"/>
  <g transform="translate(-15.637,3.7357)" stroke-width=".1">
   <path d="m231.3 392.15v1.9609" fill="none" stroke="#999"/>
   <g shape-rendering="auto">
    <path d="m229.39 394.11v1h1.9219v1.9219h1" color="#000000" color-rendering="auto" fill="none" image-rendering="auto" solid-color="#000000" stroke="#999" style="isolation:auto;mix-blend-mode:normal;text-decoration-color:#000000;text-decoration-line:none;text-decoration-style:solid;text-indent:0;text-transform:none;white-space:normal"/>
    <path d="m231.4 392.1v1.9219h-1.9219v1h1.9219v1.9219h1v-1.9219h1.9219v-1h-1.9219v-1.9219z" color="#000000" color-rendering="auto" fill="#333" fill-rule="evenodd" image-rendering="auto" solid-color="#000000" stroke="#000" style="isolation:auto;mix-blend-mode:normal;text-decoration-color:#000000;text-decoration-line:none;text-decoration-style:solid;text-indent:0;text-transform:none;white-space:normal"/>
   </g>
  </g>
 </g>
 <g transform="translate(0 -36.709)">
  <path d="m102.73 411.61v9.2769c0 0.44134-0.17765 0.83966-0.46563 1.1276-0.28799 0.28798-0.6863 0.46563-1.1276 0.46563h-13.254c-0.44134 0-0.83966-0.17765-1.1276-0.46563-0.28798-0.28798-0.46563-0.6863-0.46563-1.1276v-9.2769c0-0.88267 0.71059-1.5933 1.5933-1.5933h13.254c0.88267 0 1.5933 0.7106 1.5933 1.5933z" fill="#484848" fill-rule="evenodd" stroke-linecap="round" stroke-width=".053109" style="stroke:#000"/>
  <g transform="matrix(1.1486 0 0 1.1486 -31.328 -62.634)">
   <path d="m115.59 421.09v-5.2497l-3.0658-3.0713h-5.74l-3.2442 3.2498v5.0712h12.05z" stroke="#090909" stroke-width=".035713"/>
   <g transform="matrix(0 .53109 -.53109 0 278.03 304.68)" fill="#f1f1f1">
    <path d="m205.68 316.13v2.0135h4.7743v-2.0135z"/>
    <path d="m212.27 323.38v2.0135h4.7743v-2.0135z"/>
    <path d="m212.27 309.02v2.0135h4.7743v-2.0135z"/>
   </g>
  </g>
 </g>
 <g transform="translate(0 -36.228)">
  <rect x="137.93" y="411.96" width="35.419" height="14.766" rx="7.3705e-17" ry="0" fill="#3a3a3a" fill-rule="evenodd" stroke="#000" stroke-linecap="round" stroke-miterlimit="5.5" stroke-width=".26554"/>
  <path d="m139.01 413.07v0.75309h1.752v-0.75309zm8.7621 0v0.75309h1.752v-0.75309zm8.6088 0v0.75309h1.752v-0.75309zm8.5482 0v0.75309h1.752v-0.75309zm-20.487 4e-3v0.74894h1.7375v-0.74894zm8.7631 0v0.74894h1.7364v-0.74894zm8.6078 0v0.74894h1.7375v-0.74894zm8.5492 0v0.74894h1.7364v-0.74894zm-31.339 11.768v0.74788h1.7375v-0.74788zm5.4283 0v0.75203h1.752v-0.75203zm3.3352 0v0.74788h1.7364v-0.74788zm5.4272 0v0.75203h1.752v-0.75203zm3.1805 0v0.74788h1.7375v-0.74788zm5.4283 0v0.75203h1.752v-0.75203zm3.121 0v0.74788h1.7364v-0.74788zm5.4283 0v0.75203h1.752v-0.75203z" fill="#abb927" stroke-width=".99659"/>
  <path d="m139.16 414.1h1.7584l-3e-3 -1.0652 0.63991-5.3e-4v-0.39887h2.0626l-4.8e-4 0.39991h0.66609v1.0653l5.3974-5.3e-4 -3e-3 -1.0652 0.63991-5.3e-4v-0.39886h2.0626l-4.8e-4 0.3999h0.66609v1.0653l5.2432-5.3e-4 -3e-3 -1.0652 0.63991-5.3e-4v-0.39887h2.0626l-4.8e-4 0.39991h0.6661v1.0653l5.1836-5.3e-4 -3e-3 -1.0652 0.63992-5.3e-4v-0.39886h2.0626l-4.7e-4 0.3999h0.66609v1.0653h1.7503l0.0101 10.452h-1.7584l3e-3 1.0652-0.63991 5.3e-4v0.39886h-2.0626l4.7e-4 -0.3999h-0.66609v-1.0653l-5.1836 5.3e-4 3e-3 1.0652-0.63991 5.3e-4v0.39886h-2.0626l4.8e-4 -0.3999h-0.66609v-1.0653l-5.2432 5.3e-4 3e-3 1.0652-0.63991 5.3e-4v0.39886h-2.0626l4.8e-4 -0.3999h-0.66609v-1.0653l-5.3974 5.3e-4 3e-3 1.0652-0.63991 5.3e-4v0.39886h-2.0626l4.8e-4 -0.3999h-0.66609v-1.0653h-1.7503z" stroke-width=".99659"/>
  <path d="m141.18 412.33-2.8007 1e-3 2e-3 13.976 2.8131 1e-3v-0.67215l-2.2613 1e-3v-0.8703l0.22302-7e-3v-4.7714l6.875-4e-3 1e-3 4.7756 0.22301 7e-3v0.87029l-2.2489-1e-3v0.67215h5.9511v-0.67215l-2.2624 1e-3v-0.87029l0.22302-7e-3 1e-3 -4.7714 6.875-4e-3v4.7756l0.22302 7e-3v0.8703l-2.2489-1e-3v0.67215h5.7964v-0.67215l-2.2624 1e-3v-0.8703l0.22301-7e-3 1e-3 -4.7714 6.875-4e-3v4.7756l0.22301 7e-3v0.8703l-2.2478-1e-3v0.67214h5.7371v-0.67214l-2.2624 1e-3v-0.8703l0.22406-7e-3v-4.7714l6.85-0.0446v4.8161l0.22406 7e-3v0.87029l-2.2489-1e-3v0.67215l3.1038-1e-3 -2e-3 -13.976-3.1173-1e-3v0.67215l2.2624-1e-3v0.87029l-0.22404 7e-3v4.7715l-6.85 0.0436v-4.815l-0.22303-7e-3v-0.8703l2.2489 1e-3v-0.67214h-5.7381v0.67214l2.2624-1e-3v0.8703l-0.22406 7e-3v4.8005l-5e-3 5e-3 -6.8702 9e-3v-4.815l-0.22302-7e-3v-0.8703l2.2478 1e-3v-0.67215h-5.7954v0.67215l2.2613-1e-3v0.8703l-0.22302 7e-3v4.8005l-5e-3 5e-3 -6.8702 9e-3v-4.815l-0.22406-7e-3v-0.87029l2.2489 1e-3v-0.67215h-5.9511v0.67215l2.2624-1e-3v0.87029l-0.22302 7e-3 -1e-3 4.8005-4e-3 5e-3 -6.8702 9e-3 -1e-3 -4.815-0.22301-7e-3v-0.8703l2.2489 1e-3v-0.67214z" fill="#ebebeb" style="stroke-width:.53109"/>
 </g>
 <g transform="translate(60.545 -78.313)">
  <rect x="178.29" y="463.61" width="30.164" height="5.2035" style="fill:#ccc;stroke-miterlimit:10;stroke-width:.098278;stroke:#fff"/>
  <g transform="matrix(.53109 0 0 .53109 130.51 224.83)">
   <rect x="90.599" y="450.24" width="13.336" height="8.3357" stroke="#000" stroke-width=".8"/>
   <rect x="90.599" y="450.24" width="13.336" height="8.3357" fill="none" stroke="#b3b3b3" stroke-width=".2"/>
   <rect x="94.318" y="457.66" width="5.898" height="1" rx=".047" ry=".010884" fill="#999" fill-rule="evenodd" stroke="#000" stroke-width=".5"/>
  </g>
  <g transform="matrix(.53109 0 0 .53109 138 224.83)">
   <rect x="90.599" y="450.24" width="13.336" height="8.3357" stroke="#000" stroke-width=".8"/>
   <rect x="90.599" y="450.24" width="13.336" height="8.3357" fill="none" stroke="#b3b3b3" stroke-width=".2"/>
   <rect x="94.318" y="457.66" width="5.898" height="1" rx=".047" ry=".010884" fill="#999" fill-rule="evenodd" stroke="#000" stroke-width=".5"/>
  </g>
  <g transform="matrix(.53109 0 0 .53109 145.51 224.83)">
   <rect x="90.599" y="450.24" width="13.336" height="8.3357" stroke="#000" stroke-width=".8"/>
   <rect x="90.599" y="450.24" width="13.336" height="8.3357" fill="none" stroke="#b3b3b3" stroke-width=".2"/>
   <rect x="94.318" y="457.66" width="5.898" height="1" rx=".047" ry=".010884" fill="#999" fill-rule="evenodd" stroke="#000" stroke-width=".5"/>
  </g>
  <g transform="matrix(.53109 0 0 .53109 152.89 224.83)">
   <rect x="90.599" y="450.24" width="13.336" height="8.3357" stroke="#000" stroke-width=".8"/>
   <rect x="90.599" y="450.24" width="13.336" height="8.3357" fill="none" stroke="#b3b3b3" stroke-width=".2"/>
   <rect x="94.318" y="457.66" width="5.898" height="1" rx=".047" ry=".010884" fill="#999" fill-rule="evenodd" stroke="#000" stroke-width=".5"/>
  </g>
 </g>
 <g transform="translate(-1.6554 -17.109)">
  <rect x="176.69" y="394.51" width="30.927" height="13.098" rx=".013284" ry=".0028552" fill="#ccc" fill-rule="evenodd" stroke="#000" stroke-width=".27774"/>
  <g transform="matrix(.99771 0 0 .99999 -112.78 -6.9789)">
   <g transform="matrix(.57571 0 0 .6712 217.97 133.51)">
    <rect x="125.95" y="399.76" width="13.005" height="6.133" fill="#bfbfbf" stroke="#000" stroke-linecap="round" stroke-linejoin="round" stroke-miterlimit="10" stroke-width=".098128"/>
    <g transform="translate(-151.47,32.922)">
     <g transform="matrix(1.1392,0,0,1.0628,-9.5661,-40.967)">
      <rect x="251.98" y="383.74" width="11.333" height="5.639"/>
      <rect x="251.98" y="383.74" width="11.319" height="5.6234" fill="none" stroke="#7f7f7f" stroke-width=".2"/>
      <polygon transform="matrix(2.2457,0,0,1.9606,-314.08,-368.76)" points="256.98 386.54 256.98 383.94 253.58 383.94 252.18 383.94 252.18 386.54" fill="none" stroke="#7f7f7f" stroke-width=".023002"/>
     </g>
    </g>
   </g>
   <rect x="292.69" y="405.33" width="3.0982" height=".18777" rx=".025173" ry=".0057804" fill="#999" fill-rule="evenodd"/>
   <g transform="matrix(-.57571 0 0 -.6712 370.5 682.61)">
    <rect x="125.95" y="399.76" width="13.005" height="6.133" fill="#bfbfbf" stroke="#000" stroke-linecap="round" stroke-linejoin="round" stroke-miterlimit="10" stroke-width=".098128"/>
    <g transform="translate(-151.47,32.922)">
     <g transform="matrix(1.1392,0,0,1.0628,-9.5661,-40.967)">
      <rect x="251.98" y="383.74" width="11.333" height="5.639"/>
      <rect x="251.98" y="383.74" width="11.319" height="5.6234" fill="none" stroke="#7f7f7f" stroke-width=".2"/>
      <polygon transform="matrix(2.2457,0,0,1.9606,-314.08,-368.76)" points="256.98 383.94 253.58 383.94 252.18 383.94 252.18 386.54 256.98 386.54" fill="none" stroke="#7f7f7f" stroke-width=".023002"/>
     </g>
    </g>
   </g>
   <rect transform="scale(-1)" x="-295.79" y="-410.79" width="3.0982" height=".18777" rx=".025173" ry=".0057804" fill="#999" fill-rule="evenodd"/>
  </g>
  <path d="m178.64 400.29c-6e-3 -0.0158-1.1466-0.0158-1.1524 0-6e-3 0.0158 0.56464 1.5781 0.57617 1.5781 0.0115 0 0.58192-1.5623 0.57615-1.5781z" style="fill-rule:evenodd;fill:#008000;stroke-width:.23739;stroke:#2d5016"/>
  <path d="m178.55 401.85c6e-3 0.0158 1.1466 0.0158 1.1524 0 6e-3 -0.0158-0.56464-1.5781-0.57616-1.5781-0.0115 0-0.58193 1.5623-0.57616 1.5781z" style="fill-rule:evenodd;fill:#008000;stroke-width:.23739;stroke:#2d5016"/>
  <path d="m183.93 400.29c-6e-3 -0.0158-1.1466-0.0158-1.1524 0-6e-3 0.0158 0.56464 1.5781 0.57617 1.5781 0.0115 0 0.58192-1.5623 0.57615-1.5781z" style="fill-rule:evenodd;fill:#008000;stroke-width:.23739;stroke:#2d5016"/>
  <path d="m181.76 401.85c6e-3 0.0158 1.1466 0.0158 1.1524 0 6e-3 -0.0158-0.56464-1.5781-0.57617-1.5781-0.0115 0-0.58192 1.5623-0.57615 1.5781z" style="fill-rule:evenodd;fill:#008000;stroke-width:.23739;stroke:#2d5016"/>
  <g transform="matrix(.99771 0 0 .99999 -105.2 -6.9789)">
   <g transform="matrix(.57571 0 0 .6712 217.97 133.51)">
    <rect x="125.95" y="399.76" width="13.005" height="6.133" fill="#bfbfbf" stroke="#000" stroke-linecap="round" stroke-linejoin="round" stroke-miterlimit="10" stroke-width=".098128"/>
    <g transform="translate(-151.47,32.922)">
     <g transform="matrix(1.1392,0,0,1.0628,-9.5661,-40.967)">
      <rect x="251.98" y="383.74" width="11.333" height="5.639"/>
      <rect x="251.98" y="383.74" width="11.319" height="5.6234" fill="none" stroke="#7f7f7f" stroke-width=".2"/>
      <polygon transform="matrix(2.2457,0,0,1.9606,-314.08,-368.76)" points="256.98 386.54 256.98 383.94 253.58 383.94 252.18 383.94 252.18 386.54" fill="none" stroke="#7f7f7f" stroke-width=".023002"/>
     </g>
    </g>
   </g>
   <rect x="292.69" y="405.33" width="3.0982" height=".18777" rx=".025173" ry=".0057804" fill="#999" fill-rule="evenodd"/>
   <g transform="matrix(-.57571 0 0 -.6712 370.5 682.61)">
    <rect x="125.95" y="399.76" width="13.005" height="6.133" fill="#bfbfbf" stroke="#000" stroke-linecap="round" stroke-linejoin="round" stroke-miterlimit="10" stroke-width=".098128"/>
    <g transform="translate(-151.47,32.922)">
     <g transform="matrix(1.1392,0,0,1.0628,-9.5661,-40.967)">
      <rect x="251.98" y="383.74" width="11.333" height="5.639"/>
      <rect x="251.98" y="383.74" width="11.319" height="5.6234" fill="none" stroke="#7f7f7f" stroke-width=".2"/>
      <polygon transform="matrix(2.2457,0,0,1.9606,-314.08,-368.76)" points="256.98 383.94 253.58 383.94 252.18 383.94 252.18 386.54 256.98 386.54" fill="none" stroke="#7f7f7f" stroke-width=".023002"/>
     </g>
    </g>
   </g>
   <rect transform="scale(-1)" x="-295.79" y="-410.79" width="3.0982" height=".18777" rx=".025173" ry=".0057804" fill="#999" fill-rule="evenodd"/>
  </g>
  <path d="m186.22 400.29c-6e-3 -0.0158-1.1466-0.0158-1.1524 0-6e-3 0.0158 0.56464 1.5781 0.57617 1.5781 0.0115 0 0.58192-1.5623 0.57615-1.5781z" style="fill-rule:evenodd;fill:#008000;stroke-width:.23739;stroke:#2d5016"/>
  <path d="m186.13 401.85c6e-3 0.0158 1.1466 0.0158 1.1524 0 6e-3 -0.0158-0.56464-1.5781-0.57616-1.5781-0.0115 0-0.58193 1.5623-0.57616 1.5781z" style="fill-rule:evenodd;fill:#008000;stroke-width:.23739;stroke:#2d5016"/>
  <path d="m191.51 400.29c-6e-3 -0.0158-1.1466-0.0158-1.1524 0-6e-3 0.0158 0.56464 1.5781 0.57617 1.5781 0.0115 0 0.58192-1.5623 0.57615-1.5781z" style="fill-rule:evenodd;fill:#008000;stroke-width:.23739;stroke:#2d5016"/>
  <path d="m189.34 401.85c6e-3 0.0158 1.1466 0.0158 1.1524 0 6e-3 -0.0158-0.56464-1.5781-0.57617-1.5781-0.0115 0-0.58192 1.5623-0.57615 1.5781z" style="fill-rule:evenodd;fill:#008000;stroke-width:.23739;stroke:#2d5016"/>
  <g transform="matrix(.99771 0 0 .99999 -97.627 -6.9782)">
   <g transform="matrix(.57571 0 0 .6712 217.97 133.51)">
    <rect x="125.95" y="399.76" width="13.005" height="6.133" fill="#bfbfbf" stroke="#000" stroke-linecap="round" stroke-linejoin="round" stroke-miterlimit="10" stroke-width=".098128"/>
    <g transform="translate(-151.47,32.922)">
     <g transform="matrix(1.1392,0,0,1.0628,-9.5661,-40.967)">
      <rect x="251.98" y="383.74" width="11.333" height="5.639"/>
      <rect x="251.98" y="383.74" width="11.319" height="5.6234" fill="none" stroke="#7f7f7f" stroke-width=".2"/>
      <polygon transform="matrix(2.2457,0,0,1.9606,-314.08,-368.76)" points="252.18 386.54 256.98 386.54 256.98 383.94 253.58 383.94 252.18 383.94" fill="none" stroke="#7f7f7f" stroke-width=".023002"/>
     </g>
    </g>
   </g>
   <rect x="292.69" y="405.33" width="3.0982" height=".18777" rx=".025173" ry=".0057804" fill="#999" fill-rule="evenodd"/>
   <g transform="matrix(-.57571 0 0 -.6712 370.5 682.61)">
    <rect x="125.95" y="399.76" width="13.005" height="6.133" fill="#bfbfbf" stroke="#000" stroke-linecap="round" stroke-linejoin="round" stroke-miterlimit="10" stroke-width=".098128"/>
    <g transform="translate(-151.47,32.922)">
     <g transform="matrix(1.1392,0,0,1.0628,-9.5661,-40.967)">
      <rect x="251.98" y="383.74" width="11.333" height="5.639"/>
      <rect x="251.98" y="383.74" width="11.319" height="5.6234" fill="none" stroke="#7f7f7f" stroke-width=".2"/>
      <polygon transform="matrix(2.2457,0,0,1.9606,-314.08,-368.76)" points="256.98 386.54 256.98 383.94 253.58 383.94 252.18 383.94 252.18 386.54" fill="none" stroke="#7f7f7f" stroke-width=".023002"/>
     </g>
    </g>
   </g>
   <rect transform="scale(-1)" x="-295.79" y="-410.79" width="3.0982" height=".18777" rx=".025173" ry=".0057804" fill="#999" fill-rule="evenodd"/>
  </g>
  <g transform="matrix(.99771 0 0 -.99999 -97.775 809.48)" fill="#008000" fill-rule="evenodd" stroke="#2d5016" stroke-width=".23766">
   <path d="m292.24 409.19c-6e-3 0.0158-1.1492 0.0158-1.155 0-6e-3 -0.0158 0.56594-1.5781 0.57749-1.5781 0.0115 0 0.58326 1.5623 0.57748 1.5781z"/>
   <path d="m292.15 407.63c6e-3 -0.0158 1.1492-0.0158 1.155 0 6e-3 0.0158-0.56594 1.5781-0.57749 1.5781-0.0115 0-0.58326-1.5623-0.57748-1.5781z"/>
   <path d="m297.54 409.19c-6e-3 0.0158-1.1492 0.0158-1.155 0-6e-3 -0.0158 0.56594-1.5781 0.57749-1.5781 0.0115 0 0.58326 1.5623 0.57748 1.5781z"/>
   <path d="m295.37 407.63c6e-3 -0.0158 1.1492-0.0158 1.155 0 6e-3 0.0158-0.56594 1.5781-0.57749 1.5781-0.0115 0-0.58326-1.5623-0.57748-1.5781z"/>
  </g>
  <g transform="matrix(.99771 0 0 .99999 -90.049 -6.9782)">
   <g transform="matrix(.57571 0 0 .6712 217.97 133.51)">
    <rect x="125.95" y="399.76" width="13.005" height="6.133" fill="#bfbfbf" stroke="#000" stroke-linecap="round" stroke-linejoin="round" stroke-miterlimit="10" stroke-width=".098128"/>
    <g transform="translate(-151.47,32.922)">
     <g transform="matrix(1.1392,0,0,1.0628,-9.5661,-40.967)">
      <rect x="251.98" y="383.74" width="11.333" height="5.639"/>
      <rect x="251.98" y="383.74" width="11.319" height="5.6234" fill="none" stroke="#7f7f7f" stroke-width=".2"/>
      <polygon transform="matrix(2.2457,0,0,1.9606,-314.08,-368.76)" points="256.98 386.54 256.98 383.94 253.58 383.94 252.18 383.94 252.18 386.54" fill="none" stroke="#7f7f7f" stroke-width=".023002"/>
     </g>
    </g>
   </g>
   <rect x="292.69" y="405.33" width="3.0982" height=".18777" rx=".025173" ry=".0057804" fill="#999" fill-rule="evenodd"/>
   <g transform="matrix(-.57571 0 0 -.6712 370.5 682.61)">
    <rect x="125.95" y="399.76" width="13.005" height="6.133" fill="#bfbfbf" stroke="#000" stroke-linecap="round" stroke-linejoin="round" stroke-miterlimit="10" stroke-width=".098128"/>
    <g transform="translate(-151.47,32.922)">
     <g transform="matrix(1.1392,0,0,1.0628,-9.5661,-40.967)">
      <rect x="251.98" y="383.74" width="11.333" height="5.639"/>
      <rect x="251.98" y="383.74" width="11.319" height="5.6234" fill="none" stroke="#7f7f7f" stroke-width=".2"/>
      <polygon transform="matrix(2.2457,0,0,1.9606,-314.08,-368.76)" points="256.98 383.94 253.58 383.94 252.18 383.94 252.18 386.54 256.98 386.54" fill="none" stroke="#7f7f7f" stroke-width=".023002"/>
     </g>
    </g>
   </g>
   <rect transform="scale(-1)" x="-295.79" y="-410.79" width="3.0982" height=".18777" rx=".025173" ry=".0057804" fill="#999" fill-rule="evenodd"/>
  </g>
  <g transform="matrix(.99771 0 0 -.99999 -90.197 809.48)" fill="#008000" fill-rule="evenodd" stroke="#2d5016" stroke-width=".23766">
   <path d="m292.24 409.19c-6e-3 0.0158-1.1492 0.0158-1.155 0-6e-3 -0.0158 0.56594-1.5781 0.57749-1.5781 0.0115 0 0.58326 1.5623 0.57748 1.5781z"/>
   <path d="m292.15 407.63c6e-3 -0.0158 1.1492-0.0158 1.155 0 6e-3 0.0158-0.56594 1.5781-0.57749 1.5781-0.0115 0-0.58326-1.5623-0.57748-1.5781z"/>
   <path d="m297.54 409.19c-6e-3 0.0158-1.1492 0.0158-1.155 0-6e-3 -0.0158 0.56594-1.5781 0.57749-1.5781 0.0115 0 0.58326 1.5623 0.57748 1.5781z"/>
   <path d="m295.37 407.63c6e-3 -0.0158 1.1492-0.0158 1.155 0 6e-3 0.0158-0.56594 1.5781-0.57749 1.5781-0.0115 0-0.58326-1.5623-0.57748-1.5781z"/>
  </g>
 </g>
 <rect x="272.13" y="377.4" width="16.103" height="13.098" rx=".013284" ry=".0028552" fill="#ccc" fill-rule="evenodd" stroke="#000" stroke-width=".27774"/>
 <g transform="matrix(.99771 0 0 .99999 -17.344 -24.087)">
  <g transform="matrix(.57571 0 0 .6712 217.97 133.51)">
   <rect x="125.95" y="399.76" width="13.005" height="6.133" fill="#bfbfbf" stroke="#000" stroke-linecap="round" stroke-linejoin="round" stroke-miterlimit="10" stroke-width=".098128"/>
   <g transform="translate(-151.47,32.922)">
    <g transform="matrix(1.1392,0,0,1.0628,-9.5661,-40.967)">
     <rect x="251.98" y="383.74" width="11.333" height="5.639"/>
     <rect x="251.98" y="383.74" width="11.319" height="5.6234" fill="none" stroke="#7f7f7f" stroke-width=".2"/>
     <polygon transform="matrix(2.2457,0,0,1.9606,-314.08,-368.76)" points="256.98 386.54 256.98 383.94 253.58 383.94 252.18 383.94 252.18 386.54" fill="none" stroke="#7f7f7f" stroke-width=".023002"/>
    </g>
   </g>
  </g>
  <rect x="292.69" y="405.33" width="3.0982" height=".18777" rx=".025173" ry=".0057804" fill="#999" fill-rule="evenodd"/>
  <g transform="matrix(-.57571 0 0 -.6712 370.5 682.61)">
   <rect x="125.95" y="399.76" width="13.005" height="6.133" fill="#bfbfbf" stroke="#000" stroke-linecap="round" stroke-linejoin="round" stroke-miterlimit="10" stroke-width=".098128"/>
   <g transform="translate(-151.47,32.922)">
    <g transform="matrix(1.1392,0,0,1.0628,-9.5661,-40.967)">
     <rect x="251.98" y="383.74" width="11.333" height="5.639"/>
     <rect x="251.98" y="383.74" width="11.319" height="5.6234" fill="none" stroke="#7f7f7f" stroke-width=".2"/>
     <polygon transform="matrix(2.2457,0,0,1.9606,-314.08,-368.76)" points="252.18 386.54 256.98 386.54 256.98 383.94 253.58 383.94 252.18 383.94" fill="none" stroke="#7f7f7f" stroke-width=".023002"/>
    </g>
   </g>
  </g>
  <rect transform="scale(-1)" x="-295.79" y="-410.79" width="3.0982" height=".18777" rx=".025173" ry=".0057804" fill="#999" fill-rule="evenodd"/>
 </g>
 <path d="m274.08 383.19c-6e-3 -0.0158-1.1466-0.0158-1.1524 0-6e-3 0.0158 0.56464 1.5781 0.57617 1.5781 0.0115 0 0.58192-1.5623 0.57615-1.5781z" style="fill-rule:evenodd;fill:#008000;stroke-width:.23739;stroke:#2d5016"/>
 <path d="m273.99 384.75c6e-3 0.0158 1.1466 0.0158 1.1524 0 6e-3 -0.0158-0.56464-1.5781-0.57616-1.5781-0.0115 0-0.58193 1.5623-0.57616 1.5781z" style="fill-rule:evenodd;fill:#008000;stroke-width:.23739;stroke:#2d5016"/>
 <path d="m279.37 383.19c-6e-3 -0.0158-1.1466-0.0158-1.1524 0-6e-3 0.0158 0.56464 1.5781 0.57617 1.5781 0.0115 0 0.58192-1.5623 0.57615-1.5781z" style="fill-rule:evenodd;fill:#008000;stroke-width:.23739;stroke:#2d5016"/>
 <path d="m277.2 384.75c6e-3 0.0158 1.1466 0.0158 1.1524 0 6e-3 -0.0158-0.56464-1.5781-0.57617-1.5781-0.0115 0-0.58192 1.5623-0.57615 1.5781z" style="fill-rule:evenodd;fill:#008000;stroke-width:.23739;stroke:#2d5016"/>
 <g transform="matrix(.99771 0 0 .99999 -9.7661 -24.087)">
  <g transform="matrix(.57571 0 0 .6712 217.97 133.51)">
   <rect x="125.95" y="399.76" width="13.005" height="6.133" fill="#bfbfbf" stroke="#000" stroke-linecap="round" stroke-linejoin="round" stroke-miterlimit="10" stroke-width=".098128"/>
   <g transform="translate(-151.47,32.922)">
    <g transform="matrix(1.1392,0,0,1.0628,-9.5661,-40.967)">
     <rect x="251.98" y="383.74" width="11.333" height="5.639"/>
     <rect x="251.98" y="383.74" width="11.319" height="5.6234" fill="none" stroke="#7f7f7f" stroke-width=".2"/>
     <polygon transform="matrix(2.2457,0,0,1.9606,-314.08,-368.76)" points="253.58 383.94 252.18 383.94 252.18 386.54 256.98 386.54 256.98 383.94" fill="none" stroke="#7f7f7f" stroke-width=".023002"/>
    </g>
   </g>
  </g>
  <rect x="292.69" y="405.33" width="3.0982" height=".18777" rx=".025173" ry=".0057804" fill="#999" fill-rule="evenodd"/>
  <g transform="matrix(-.57571 0 0 -.6712 370.5 682.61)">
   <rect x="125.95" y="399.76" width="13.005" height="6.133" fill="#bfbfbf" stroke="#000" stroke-linecap="round" stroke-linejoin="round" stroke-miterlimit="10" stroke-width=".098128"/>
   <g transform="translate(-151.47,32.922)">
    <g transform="matrix(1.1392,0,0,1.0628,-9.5661,-40.967)">
     <rect x="251.98" y="383.74" width="11.333" height="5.639"/>
     <rect x="251.98" y="383.74" width="11.319" height="5.6234" fill="none" stroke="#7f7f7f" stroke-width=".2"/>
     <polygon transform="matrix(2.2457,0,0,1.9606,-314.08,-368.76)" points="252.18 383.94 252.18 386.54 256.98 386.54 256.98 383.94 253.58 383.94" fill="none" stroke="#7f7f7f" stroke-width=".023002"/>
    </g>
   </g>
  </g>
  <rect transform="scale(-1)" x="-295.79" y="-410.79" width="3.0982" height=".18777" rx=".025173" ry=".0057804" fill="#999" fill-rule="evenodd"/>
 </g>
 <path d="m281.66 383.19c-6e-3 -0.0158-1.1466-0.0158-1.1524 0-6e-3 0.0158 0.56464 1.5781 0.57617 1.5781 0.0115 0 0.58192-1.5623 0.57615-1.5781z" style="fill-rule:evenodd;fill:#008000;stroke-width:.23739;stroke:#2d5016"/>
 <path d="m281.57 384.75c6e-3 0.0158 1.1466 0.0158 1.1524 0 6e-3 -0.0158-0.56464-1.5781-0.57616-1.5781-0.0115 0-0.58193 1.5623-0.57616 1.5781z" style="fill-rule:evenodd;fill:#008000;stroke-width:.23739;stroke:#2d5016"/>
 <path d="m286.94 383.19c-6e-3 -0.0158-1.1466-0.0158-1.1524 0-6e-3 0.0158 0.56464 1.5781 0.57617 1.5781 0.0115 0 0.58192-1.5623 0.57615-1.5781z" style="fill-rule:evenodd;fill:#008000;stroke-width:.23739;stroke:#2d5016"/>
 <path d="m284.78 384.75c6e-3 0.0158 1.1466 0.0158 1.1524 0 6e-3 -0.0158-0.56464-1.5781-0.57617-1.5781-0.0115 0-0.58192 1.5623-0.57615 1.5781z" style="fill-rule:evenodd;fill:#008000;stroke-width:.23739;stroke:#2d5016"/>
 <g transform="translate(-1.2237 -14.379)">
  <rect x="128.4" y="393.32" width="9.1108" height="11.561" rx=".045813" ry=".02337" fill-rule="evenodd"/>
  <g transform="matrix(1.0006 0 0 .99999 19.058 47.25)">
   <path d="m110.02 353.2h7.5579v-6.9858l-7.5579-2.3e-4z" fill="#3a3a3a"/>
   <g transform="matrix(.0080752 0 0 .0080046 96.896 381.97)">
    <path d="m2560.5-3593.3v-872.71l-935.94-0.027v872.74z" fill="none" stroke="#000" stroke-linecap="square" stroke-width=".67568"/>
   </g>
   <path d="m110.32 347.98h1.7584l-3e-3 -1.0653 0.63992-5.7e-4v-0.39887h2.0626l-4.8e-4 0.39991h0.66608v1.0654h1.7503v4.5866l-6.8735 0.0149z" fill="#1a1a1a" style="fill:#000"/>
   <path d="m115.6 347.7h1.7367v-0.74886h-1.7367z" fill="#abb927"/>
   <path d="m110.16 347.7h1.752v-0.75276h-1.752z" fill="#008000"/>
   <path d="m109.49 357.25-1e-3 -11.028 2.8616-9.5e-4v0.67227l-2.2487-1e-3v0.87026l0.22325 7e-3 4.8e-4 4.8157 6.87-0.01 5e-3 -5e-3 5.3e-4 -4.801 0.22324-7e-3v-0.87027l-2.2619 1e-3v-0.67227l2.946 1e-3 1e-3 11.028" fill="#ebebeb"/>
  </g>
 </g>
 <g transform="matrix(.88899 0 0 1.2217 -.12599 -87.852)">
  <path d="m144.46 390.56h7.7398v-2.6354h-7.7398z"/>
  <path d="m144.46 390.56h7.7398v-2.6355h-7.7398z" style="fill:none;stroke-linecap:round;stroke-linejoin:round;stroke-miterlimit:4.4615;stroke-width:.033916;stroke:#535353"/>
  <path d="m144.92 388.34h6.8413v0.9015h-6.8413z" style="fill-rule:evenodd;fill:#ccc"/>
  <path d="m145.15 389.01h6.3819v-0.43973h-6.3819z" style="fill:#fff"/>
 </g>
 <g transform="matrix(.5665 0 0 .5665 160.25 228.08)">
  <path d="m169.78 259.86c-1.1584 0-2.1348 1.033-2.5195 2.4844h-2.5625c-1.0198 0-1.8398 0.82007-1.8398 1.8398v0.2207c0 1.0198 0.82006 1.8398 1.8398 1.8398h2.5625c0.38477 1.4514 1.3612 2.4824 2.5195 2.4824h13.027c1.1584 0 2.1348-1.031 2.5195-2.4824h2.5625c1.0198 0 1.8398-0.82006 1.8398-1.8398v-0.2207c0-1.0198-0.82007-1.8398-1.8398-1.8398h-2.5625c-0.38477-1.4514-1.3612-2.4844-2.5195-2.4844z" style="fill-rule:evenodd;fill:#ececec;stroke-linecap:round;stroke-width:.098761;stroke:#333"/>
  <g transform="translate(-.27702 -1.4531e-5)">
   <g transform="translate(-21.189 -6.7388)">
    <path d="m189.01 272.01v-2.0135l-1.7484-1.0068-1.7484 1.0738v2.0135l1.7484 1.0077z" style="fill:#b3b3b3;stroke-width:.067244;stroke:#333"/>
    <path d="m188.61 271.03c0 0.75957-0.60197 1.3766-1.3446 1.3766-0.74258 0-1.3446-0.61707-1.3446-1.3766 0-0.75955 0.60197-1.3757 1.3446-1.3757 0.74259 0 1.3446 0.61613 1.3446 1.3757z" style="fill:#ddd;stroke-width:.067244;stroke:#333"/>
    <path d="m187.73 271.03c0 0.2406-0.21132 0.43687-0.47081 0.43687-0.25948 0-0.47084-0.19627-0.47084-0.43687s0.21136-0.43591 0.47084-0.43591c0.25949 0 0.47081 0.19531 0.47081 0.43591z" style="fill:#a4a4a4;stroke-width:.067244;stroke:#333"/>
   </g>
   <g transform="translate(-.18874 -6.7388)">
    <path d="m189.01 272.01v-2.0135l-1.7484-1.0068-1.7484 1.0738v2.0135l1.7484 1.0077z" style="fill:#b3b3b3;stroke-width:.067244;stroke:#333"/>
    <path d="m188.61 271.03c0 0.75957-0.60197 1.3766-1.3446 1.3766-0.74258 0-1.3446-0.61707-1.3446-1.3766 0-0.75955 0.60197-1.3757 1.3446-1.3757 0.74259 0 1.3446 0.61613 1.3446 1.3757z" style="fill:#ddd;stroke-width:.067244;stroke:#333"/>
    <path d="m187.73 271.03c0 0.2406-0.21132 0.43687-0.47081 0.43687-0.25948 0-0.47084-0.19627-0.47084-0.43687s0.21136-0.43591 0.47084-0.43591c0.25949 0 0.47081 0.19531 0.47081 0.43591z" style="fill:#a4a4a4;stroke-width:.067244;stroke:#333"/>
   </g>
  </g>
  <g transform="translate(.43892 .20189)">
   <g transform="translate(-1.3533 5.9318)">
    <path d="m171.46 254.62h11.509c0.94773 0 1.937 0.7904 1.7107 1.7107l-1.0295 4.187c-0.22629 0.92033-0.76297 1.196-1.7107 1.196h-9.4499c-0.94773 0-1.4844-0.27566-1.7107-1.196l-1.0295-4.187c-0.22628-0.92032 0.76298-1.7107 1.7107-1.7107z" style="fill-rule:evenodd;fill:#ececec;stroke-linecap:round;stroke-width:.025737;stroke:#000"/>
    <path d="m171.64 254.79h11.145c0.91776 0 1.8757 0.75221 1.6566 1.6281l-0.99691 3.9847c-0.21914 0.87586-0.73884 1.1382-1.6566 1.1382h-9.151c-0.91775 0-1.4375-0.26234-1.6566-1.1382l-0.99693-3.9847c-0.21912-0.87586 0.73885-1.6281 1.6566-1.6281z" style="fill-rule:evenodd;fill:#3771c8;stroke-linecap:round;stroke-width:.024707;stroke:#000"/>
   </g>
   <path d="m182.01 262.62c0 0.27834-0.2255 0.50385-0.50383 0.50385-0.27837 0-0.50481-0.22551-0.50481-0.50385 0-0.27739 0.22644-0.50384 0.50481-0.50384 0.27833 0 0.50383 0.22645 0.50383 0.50384z" style="fill:#ececec;stroke-width:.067244;stroke:#ccc"/>
   <path d="m170.78 262.62c0 0.27834-0.24155 0.50385-0.53781 0.50385-0.29722 0-0.53782-0.22551-0.53782-0.50385 0-0.27739 0.2406-0.50384 0.53782-0.50384 0.29626 0 0.53781 0.22645 0.53781 0.50384z" style="fill:#ececec;stroke-width:.067244;stroke:#ccc"/>
   <path d="m173.62 262.62c0 0.27834-0.2406 0.50385-0.53784 0.50385-0.29719 0-0.53779-0.22551-0.53779-0.50385 0-0.27739 0.2406-0.50384 0.53779-0.50384 0.29724 0 0.53784 0.22645 0.53784 0.50384z" style="fill:#ececec;stroke-width:.067244;stroke:#ccc"/>
   <path d="m176.46 262.62c0 0.27834-0.2406 0.50385-0.53782 0.50385-0.2972 0-0.53782-0.22551-0.53782-0.50385 0-0.27739 0.24062-0.50384 0.53782-0.50384 0.29722 0 0.53782 0.22645 0.53782 0.50384z" style="fill:#ececec;stroke-width:.067244;stroke:#ccc"/>
   <path d="m179.24 262.62c0 0.27834-0.2255 0.50385-0.50385 0.50385s-0.50479-0.22551-0.50479-0.50385c0-0.27739 0.22644-0.50384 0.50479-0.50384s0.50385 0.22645 0.50385 0.50384z" style="fill:#ececec;stroke-width:.067244;stroke:#ccc"/>
   <path d="m172.17 265.57c0 0.27834-0.22552 0.50385-0.50385 0.50385-0.27835 0-0.50481-0.22551-0.50481-0.50385 0-0.27741 0.22646-0.5029 0.50481-0.5029 0.27833 0 0.50385 0.22549 0.50385 0.5029z" style="fill:#ececec;stroke-width:.067244;stroke:#ccc"/>
   <path d="m175.01 265.57c0 0.27834-0.22551 0.50385-0.50386 0.50385-0.27834 0-0.5048-0.22551-0.5048-0.50385 0-0.27741 0.22646-0.5029 0.5048-0.5029 0.27835 0 0.50386 0.22549 0.50386 0.5029z" style="fill:#ececec;stroke-width:.067244;stroke:#ccc"/>
   <path d="m177.85 265.57c0 0.27834-0.22644 0.50385-0.50479 0.50385s-0.50385-0.22551-0.50385-0.50385c0-0.27741 0.2255-0.5029 0.50385-0.5029s0.50479 0.22549 0.50479 0.5029z" style="fill:#ececec;stroke-width:.067244;stroke:#ccc"/>
   <path d="m180.62 265.57c0 0.27834-0.22646 0.50385-0.50481 0.50385-0.27833 0-0.50385-0.22551-0.50385-0.50385 0-0.27741 0.22552-0.5029 0.50385-0.5029 0.27835 0 0.50481 0.22549 0.50481 0.5029z" style="fill:#ececec;stroke-width:.067244;stroke:#ccc"/>
  </g>
 </g>
 <g transform="translate(1.9062 -32.141)">
  <rect x="289.16" y="419.73" width="4.0342" height="2.5852" rx=".10622" ry=".10622" style="fill:#e6e6e6;stroke-linejoin:round;stroke-opacity:.99692;stroke-width:.47798;stroke:#fff"/>
  <g transform="translate(.064623)">
   <ellipse cx="290.39" cy="420.87" rx=".19487" ry=".18823" style="fill:#808080"/>
   <ellipse cx="291.84" cy="420.84" rx=".19487" ry=".18823" style="fill:#808080"/>
  </g>
 </g>
 <g transform="matrix(.72938 0 0 .72938 80.675 92.955)" style="fill:#fff">
  <path transform="matrix(.53109 0 0 .53109 66 371.4)" d="m435.08 36.213v1.1211h-2.3086v0.47461h5.2188v-0.47461h-2.3106v-1.1211z" style="color-rendering:auto;color:#000000;fill-rule:evenodd;fill:#fff;image-rendering:auto;isolation:auto;mix-blend-mode:normal;shape-rendering:auto;solid-color:#000000;text-decoration-color:#000000;text-decoration-line:none;text-decoration-style:solid;text-indent:0;text-transform:none;white-space:normal"/>
  <path d="m296.34 391.99v0.25196h1.7776v-0.25196z" style="color-rendering:auto;color:#000000;fill-rule:evenodd;fill:#fff;image-rendering:auto;isolation:auto;mix-blend-mode:normal;shape-rendering:auto;solid-color:#000000;text-decoration-color:#000000;text-decoration-line:none;text-decoration-style:solid;text-indent:0;text-transform:none;white-space:normal"/>
  <path d="m296.64 392.74v0.25196h1.176v-0.25196z" style="color-rendering:auto;color:#000000;fill-rule:evenodd;fill:#fff;image-rendering:auto;isolation:auto;mix-blend-mode:normal;shape-rendering:auto;solid-color:#000000;text-decoration-color:#000000;text-decoration-line:none;text-decoration-style:solid;text-indent:0;text-transform:none;white-space:normal"/>
 </g>
 <circle cx="297.47" cy="378.73" r="1.3528" style="fill:none;stroke-linejoin:round;stroke-opacity:.99692;stroke-width:.20006;stroke:#fff"/>
 <text x="240.79091" y="384.70261" style="font-family:sans-serif;font-size:1.3837px;line-height:1.25;stroke-width:.086483" xml:space="preserve"><tspan x="240.79091" y="384.70261" style="fill:#ffffff;font-family:sans-serif;stroke-width:.086483">PON1</tspan></text>
 <text x="275.30972" y="376.60696" style="font-family:sans-serif;font-size:1.3837px;line-height:1.25;stroke-width:.086483" xml:space="preserve"><tspan x="275.30972" y="376.60696" style="fill:#ffffff;font-family:sans-serif;stroke-width:.086483">18</tspan></text>
 <text x="178.69409" y="392.21191" style="font-family:sans-serif;font-size:1.3837px;line-height:1.25;stroke-width:.086483" xml:space="preserve"><tspan x="178.69409" y="392.21191" style="fill:#ffffff;font-family:sans-serif;stroke-width:.086483">9</tspan></text>
 <text x="185.81425" y="392.23151" style="font-family:sans-serif;font-size:1.3837px;line-height:1.25;stroke-width:.086483" xml:space="preserve"><tspan x="185.81425" y="392.23151" style="fill:#ffffff;font-family:sans-serif;stroke-width:.086483">11</tspan></text>
 <text x="193.38341" y="392.21191" style="font-family:sans-serif;font-size:1.3837px;line-height:1.25;stroke-width:.086483" xml:space="preserve"><tspan x="193.38341" y="392.21191" style="fill:#ffffff;font-family:sans-serif;stroke-width:.086483">13</tspan></text>
 <text x="200.96635" y="392.21191" style="font-family:sans-serif;font-size:1.3837px;line-height:1.25;stroke-width:.086483" xml:space="preserve"><tspan x="200.96635" y="392.21191" style="fill:#ffffff;font-family:sans-serif;stroke-width:.086483">15</tspan></text>
 <g transform="translate(0 -.19575)">
  <text x="142.07407" y="392.42725" style="font-family:sans-serif;font-size:1.3837px;line-height:1.25;stroke-width:.086483" xml:space="preserve"><tspan x="142.07407" y="392.42725" style="fill:#ffffff;font-family:sans-serif;stroke-width:.086483">1</tspan></text>
  <text x="150.69612" y="392.40765" style="font-family:sans-serif;font-size:1.3837px;line-height:1.25;stroke-width:.086483" xml:space="preserve"><tspan x="150.69612" y="392.40765" style="fill:#ffffff;font-family:sans-serif;stroke-width:.086483">3</tspan></text>
  <text x="159.30771" y="392.40765" style="font-family:sans-serif;font-size:1.3837px;line-height:1.25;stroke-width:.086483" xml:space="preserve"><tspan x="159.30771" y="392.40765" style="fill:#ffffff;font-family:sans-serif;stroke-width:.086483">5</tspan></text>
  <text x="167.91017" y="392.42725" style="font-family:sans-serif;font-size:1.3837px;line-height:1.25;stroke-width:.086483" xml:space="preserve"><tspan x="167.91017" y="392.42725" style="fill:#ffffff;font-family:sans-serif;stroke-width:.086483">7</tspan></text>
  <text x="142.10481" y="375.25003" style="font-family:sans-serif;font-size:1.3837px;line-height:1.25;stroke-width:.086483" xml:space="preserve"><tspan x="142.10481" y="375.25003" style="fill:#ffffff;font-family:sans-serif;stroke-width:.086483">2</tspan></text>
  <text x="150.69849" y="375.25003" style="font-family:sans-serif;font-size:1.3837px;line-height:1.25;stroke-width:.086483" xml:space="preserve"><tspan x="150.69849" y="375.25003" style="fill:#ffffff;font-family:sans-serif;stroke-width:.086483">4</tspan></text>
  <text x="159.29588" y="375.23044" style="font-family:sans-serif;font-size:1.3837px;line-height:1.25;stroke-width:.086483" xml:space="preserve"><tspan x="159.29588" y="375.23044" style="fill:#ffffff;font-family:sans-serif;stroke-width:.086483">6</tspan></text>
  <text x="167.90814" y="375.23044" style="font-family:sans-serif;font-size:1.3837px;line-height:1.25;stroke-width:.086483" xml:space="preserve"><tspan x="167.90814" y="375.23044" style="fill:#ffffff;font-family:sans-serif;stroke-width:.086483">8</tspan></text>
 </g>
 <text x="178.21878" y="376.61414" style="font-family:sans-serif;font-size:1.3837px;line-height:1.25;stroke-width:.086483" xml:space="preserve"><tspan x="178.21878" y="376.61414" style="fill:#ffffff;font-family:sans-serif;stroke-width:.086483">10</tspan></text>
 <text x="185.81967" y="376.63373" style="font-family:sans-serif;font-size:1.3837px;line-height:1.25;stroke-width:.086483" xml:space="preserve"><tspan x="185.81967" y="376.63373" style="fill:#ffffff;font-family:sans-serif;stroke-width:.086483">12</tspan></text>
 <text x="193.36685" y="376.63373" style="font-family:sans-serif;font-size:1.3837px;line-height:1.25;stroke-width:.086483" xml:space="preserve"><tspan x="193.36685" y="376.63373" style="fill:#ffffff;font-family:sans-serif;stroke-width:.086483">14</tspan></text>
 <text x="200.94946" y="376.61414" style="font-family:sans-serif;font-size:1.3837px;line-height:1.25;stroke-width:.086483" xml:space="preserve"><tspan x="200.94946" y="376.61414" style="fill:#ffffff;font-family:sans-serif;stroke-width:.086483">16</tspan></text>
 <text x="129.51099" y="377.9978" style="font-family:sans-serif;font-size:1.3837px;line-height:1.25;stroke-width:.086483" xml:space="preserve"><tspan x="129.51099" y="377.9978" style="fill:#ffffff;font-family:sans-serif;stroke-width:.086483">MGMT</tspan></text>
 <text x="128.38737" y="392.21191" style="font-family:sans-serif;font-size:1.3837px;line-height:1.25;stroke-width:.086483" xml:space="preserve"><tspan x="128.38737" y="392.21191" style="fill:#ffffff;font-family:sans-serif;stroke-width:.086483">CONSOLE</tspan></text>
 <text x="119.57623" y="383.85745" style="font-family:sans-serif;font-size:1.3837px;line-height:1.25;stroke-width:.086483" xml:space="preserve"><tspan x="119.57623" y="383.85745" style="fill:#ffffff;font-family:sans-serif;stroke-width:.086483">PWR</tspan></text>
 <text x="120.17554" y="386.58487" style="font-family:sans-serif;font-size:1.3837px;line-height:1.25;stroke-width:.086483" xml:space="preserve"><tspan x="120.17554" y="386.58487" style="fill:#ffffff;font-family:sans-serif;stroke-width:.086483">SYS</tspan></text>
 <text x="119.92419" y="389.25107" style="font-family:sans-serif;font-size:1.3837px;line-height:1.25;stroke-width:.086483" xml:space="preserve"><tspan x="119.92419" y="389.25107" style="fill:#ffffff;font-family:sans-serif;stroke-width:.086483">ALM</tspan></text>
 <text x="282.91129" y="376.60696" style="font-family:sans-serif;font-size:1.3837px;line-height:1.25;stroke-width:.086483" xml:space="preserve"><tspan x="282.91129" y="376.60696" style="fill:#ffffff;font-family:sans-serif;stroke-width:.086483">20</tspan></text>
 <text x="275.32153" y="392.32773" style="font-family:sans-serif;font-size:1.3837px;line-height:1.25;stroke-width:.086483" xml:space="preserve"><tspan x="275.32153" y="392.32773" style="fill:#ffffff;font-family:sans-serif;stroke-width:.086483">17</tspan></text>
 <text x="282.88864" y="392.30814" style="font-family:sans-serif;font-size:1.3837px;line-height:1.25;stroke-width:.086483" xml:space="preserve"><tspan x="282.88864" y="392.30814" style="fill:#ffffff;font-family:sans-serif;stroke-width:.086483">19</tspan></text>
 <text x="248.28194" y="384.70261" style="font-family:sans-serif;font-size:1.3837px;line-height:1.25;stroke-width:.086483" xml:space="preserve"><tspan x="248.28194" y="384.70261" style="fill:#ffffff;font-family:sans-serif;stroke-width:.086483">PON2</tspan></text>
 <text x="255.78407" y="384.70261" style="font-family:sans-serif;font-size:1.3837px;line-height:1.25;stroke-width:.086483" xml:space="preserve"><tspan x="255.78407" y="384.70261" style="fill:#ffffff;font-family:sans-serif;stroke-width:.086483">PON3</tspan></text>
 <text x="263.14386" y="384.70261" style="font-family:sans-serif;font-size:1.3837px;line-height:1.25;stroke-width:.086483" xml:space="preserve"><tspan x="263.14386" y="384.70261" style="fill:#ffffff;font-family:sans-serif;stroke-width:.086483">PON4</tspan></text>
 <circle cx="124.15" cy="383.35" r=".69042" style="fill:#8a916f"/>
 <circle cx="124.15" cy="386.08" r=".69042" style="fill:#8a916f"/>
 <circle cx="124.15" cy="388.75" r=".69042" style="fill:#ac9393"/>
 <g transform="translate(0 -32.519)">
  <rect x="106.02" y="414.7" width="5.5354" height="8.3268" rx=".026555" ry=".026555" style="fill:#ff7f2a"/>
  <rect x="106.68" y="418.21" width="1.777" height="3.561" rx=".026555" ry=".026555" style="fill:#d45500"/>
  <rect x="106.9" y="419.61" width="1.3359" height="1.7157" rx=".026555" ry=".026555" style="fill:#808080"/>
  <g transform="translate(0 .079285)">
   <rect x="109.11" y="418.13" width="1.777" height="3.561" rx=".026555" ry=".026555" style="fill:#d45500"/>
   <rect x="109.33" y="419.53" width="1.3359" height="1.7157" rx=".026555" ry=".026555" style="fill:#808080"/>
  </g>
  <rect x="112.99" y="414.66" width="5.5354" height="8.3268" rx=".026555" ry=".026555" style="fill:#8dd35f"/>
  <rect x="113.66" y="418.18" width="1.777" height="3.561" rx=".026555" ry=".026555" style="fill:#5aa02c"/>
  <rect x="113.88" y="419.58" width="1.3359" height="1.7157" rx=".026555" ry=".026555" style="fill:#808080"/>
  <rect x="116.09" y="418.18" width="1.777" height="3.561" rx=".026555" ry=".026555" style="fill:#5aa02c"/>
  <rect x="116.31" y="419.58" width="1.3359" height="1.7157" rx=".026555" ry=".026555" style="fill:#808080"/>
 </g>
 <text x="105.8518" y="377.14575" style="font-family:sans-serif;font-size:3.6708px;line-height:1.25;stroke-width:.22942" xml:space="preserve"><tspan x="105.8518" y="377.14575" style="fill:#ffffff;font-family:sans-serif;font-weight:bold;stroke-width:.22942">ZYXEL</tspan></text>
 <text x="107.60212" y="379.14032" style="fill:#ffffff;font-family:sans-serif;font-size:1.7054px;line-height:1.25;stroke-width:.10659" xml:space="preserve"><tspan x="107.60212" y="379.14032" style="fill:#ffffff;font-family:sans-serif;font-weight:bold;stroke-width:.10659">OLT1404A</tspan></text>
</svg>
