<svg width="40.453" height="12" version="1.1" viewBox="0 0 40.453 12" xmlns="http://www.w3.org/2000/svg"><rect y="7.6294e-6" width="9.3198" height="9.3198" fill="#d40055" opacity=".99" stroke-width="1.0089"/><path d="m1.1794 1.0876c0.77615 0.53415 0.56321 1.3156 0.68256 2.014 2.0175-0.56328 4.7554-1.1896 5.0138-0.61515 0.95317 2.119-4.0737 4.4481-3.6403 6.9519 0.20714 1.7803 3.1321 2.7501 5.9239 2.4605-3.2508-0.35423-4.3158-1.451-3.9147-2.6662 0.87294-2.559 2.9507-5.2126 2.5917-6.5524-0.60636-2.263-4.032-1.6708-6.657-1.5927z" fill="#87aade" stroke="#fff" stroke-width=".10089"/><path d="m34.393 6.0615c0-0.67361 0.64087-1.0869 1.3127-1.0869 0.67186 0 1.3127 0.53884 1.3127 1.0869v2.1737c0 0.58062-0.57743 1.0435-1.0496 1.0441h-0.75459v1.7266h-0.82129zm1.7762 2.1737v-2.1737c0-0.11006-0.04314-0.2547-0.47989-0.2547-0.43672 0-0.47989 0.17922-0.47989 0.2547v2.3473h0.75952c0.14842 4e-3 0.20026-0.0854 0.20026-0.17363zm-25.537-2.9803c0-1.1702 0.50352-2.2066 1.9999-2.2066h0.61313v1.3065h-0.45668c-0.60412 0-0.84982 0.38674-0.84982 0.90007v4.0884h-1.3065zm3.3257-2.2066h1.4253v6.295h-1.4253zm2.2694 4.775v-3.0789c0.03673-1.2546 0.71108-1.6728 1.952-1.6728 1.241 0 1.8359 0.49703 1.8359 1.6728v2.1046h-2.4942v0.78813c0 0.62164 1.1869 0.81186 1.1877-0.19427h1.3362c0 1.5362-1.2484 1.8782-2.0144 1.9003-1.1853 0-1.8032-0.86027-1.8032-1.5199zm2.4814-2.6937c0-0.43998-0.1653-0.65311-0.59386-0.65311-0.42857 0-0.59387 0.2495-0.59387 0.61104v0.45504h1.1877zm2.1379-4.5755h1.3065v8.7892h-1.3065zm2.0786-9e-5 1.3659 9e-5v8.7892h-1.3008zm2.2529 7.0422v-2.9992c0-0.77435 0.67704-1.5258 1.8933-1.5258 1.2162 0 1.9008 0.8553 1.8933 1.5258v2.9992c0 0.66063-0.43357 1.7437-1.8933 1.7437-1.4598 0-1.9262-0.92213-1.8933-1.7437zm2.4684-2.9992c-0.06411-0.23927-0.32051-0.3651-0.61393-0.3651-0.29342 0-0.6036 0.16068-0.6036 0.3651v2.9992c0 0.26584 0.36999 0.49571 0.6279 0.50079 0.25791 5e-3 0.58963-0.25645 0.58963-0.50079zm3.2959 3.5052v-3.1534h0.95018v3.1534c0 0.19253 0.16239 0.28929 0.36934 0.28929 0.20696 0 0.36935-0.0999 0.36935-0.28929v-3.1534h0.98354l0.03308 3.1534c0 0.57488-0.36237 1.1786-1.3527 1.1786s-1.3567-0.71777-1.3527-1.1786zm6.9056-0.0106h0.78859c0 0.47647 0.9752 0.63465 0.9752-0.0935 0-0.38959-0.25272-0.48735-0.69152-0.48735-0.69642 0-1.104-0.71173-1.104-1.2438 0-0.79595 0.53042-1.3184 1.3155-1.3184 0.7851 0 1.3124 0.71319 1.3124 1.2493h-0.86895c0-0.5298-0.91685-0.51971-0.91685 0.069 0 0.58877 0.52462 0.49818 0.52462 0.49818 0.84282 0 1.2701 0.51636 1.2701 1.233 0 0.7166-0.52482 1.2879-1.3075 1.2879-0.7827 0-1.2977-0.54035-1.2977-1.1942zm-23.89-7.5376h1.4253v1.3064h-1.4253z" fill="#000080" stroke-width="1.0089"/></svg>
