<svg width="450" height="87" version="1.1" viewBox="66 376 315 60.9" xmlns="http://www.w3.org/2000/svg"><rect x="66.412" y="375.59" width="315" height="60.9" fill="#333"/><rect x="270.26" y="407.31" width="69.733" height="24.861" rx=".7" ry=".7" fill="#333" opacity=".99" stroke="#000" stroke-linejoin="round" stroke-width=".7"/><path d="m271.6 429.13 1.8502 1.4002h9.4299l3.9836-4.3982v-13.189l-4.3033-3.99h-9.27l-1.6904 1.4002z" stroke="#666" stroke-linejoin="round" stroke-width=".3437"/><path d="m273.67 427.79h7.0136l4.1032-4.0958v-7.6688l-4.3417-4.3342h-6.775z" fill="#333" stroke="#808080" stroke-width=".1876"/><path d="m283.26 420.5v-1.4286h-3.3875v1.4286z"/><path d="m278.59 415.36v-1.4286h-3.3875v1.4286z"/><path d="m278.59 425.55v-1.4287h-3.3875v1.4287z"/><path d="m288.76 429.13 1.8502 1.4002h9.4299l3.9836-4.3982v-13.189l-4.3033-3.99h-9.27l-1.6904 1.4002z" stroke="#666" stroke-linejoin="round" stroke-width=".3437"/><path d="m290.83 427.79h7.0136l4.1032-4.0958v-7.6688l-4.3417-4.3342h-6.775z" fill="#333" stroke="#808080" stroke-width=".1876"/><path d="m300.42 420.5v-1.4286h-3.3875v1.4286z"/><path d="m295.75 415.36v-1.4286h-3.3875v1.4286z"/><path d="m295.75 425.55v-1.4287h-3.3875v1.4287z"/><path d="m305.92 429.13 1.8502 1.4002h9.4299l3.9836-4.3982v-13.189l-4.3033-3.99h-9.27l-1.6904 1.4002z" stroke="#666" stroke-linejoin="round" stroke-width=".3437"/><path d="m307.99 427.79h7.0136l4.1032-4.0958v-7.6688l-4.3417-4.3342h-6.775z" fill="#333" stroke="#808080" stroke-width=".1876"/><path d="m317.58 420.5v-1.4286h-3.3875v1.4286z"/><path d="m312.91 415.36v-1.4286h-3.3875v1.4286z"/><path d="m312.91 425.55v-1.4287h-3.3875v1.4287z"/><path d="m323.08 429.13 1.8502 1.4002h9.4299l3.9836-4.3982v-13.189l-4.3033-3.99h-9.27l-1.6904 1.4002z" stroke="#666" stroke-linejoin="round" stroke-width=".3437"/><path d="m325.15 427.79h7.0136l4.1032-4.0958v-7.6688l-4.3417-4.3342h-6.775z" fill="#333" stroke="#808080" stroke-width=".1876"/><path d="m334.74 420.5v-1.4286h-3.3875v1.4286z"/><path d="m330.07 415.36v-1.4286h-3.3875v1.4286z"/><path d="m330.07 425.55v-1.4287h-3.3875v1.4287z"/><rect x="270.32" y="379.9" width="69.733" height="24.861" rx=".7" ry=".7" fill="#333" opacity=".99" stroke="#000" stroke-linejoin="round" stroke-width=".7"/><path d="m271.66 401.72 1.8502 1.4002h9.4299l3.9836-4.3982v-13.189l-4.3033-3.99h-9.27l-1.6904 1.4002z" stroke="#666" stroke-linejoin="round" stroke-width=".3437"/><path d="m273.73 400.38h7.0136l4.1032-4.0958v-7.6688l-4.3417-4.3342h-6.775z" fill="#fff" stroke="#808080" stroke-width=".1876"/><path d="m283.32 393.1v-1.4286h-3.3875v1.4286z"/><path d="m278.65 387.95v-1.4286h-3.3875v1.4286z"/><path d="m278.65 398.14v-1.4287h-3.3875v1.4287z"/><path d="m288.82 401.72 1.8502 1.4002h9.4299l3.9836-4.3982v-13.189l-4.3033-3.99h-9.27l-1.6904 1.4002z" stroke="#666" stroke-linejoin="round" stroke-width=".3437"/><path d="m290.89 400.38h7.0136l4.1032-4.0958v-7.6688l-4.3417-4.3342h-6.775z" fill="#fff" stroke="#808080" stroke-width=".1876"/><path d="m300.48 393.1v-1.4286h-3.3875v1.4286z"/><path d="m295.81 387.95v-1.4286h-3.3875v1.4286z"/><path d="m295.81 398.14v-1.4287h-3.3875v1.4287z"/><path d="m305.98 401.72 1.8502 1.4002h9.4299l3.9836-4.3982v-13.189l-4.3033-3.99h-9.27l-1.6904 1.4002z" stroke="#666" stroke-linejoin="round" stroke-width=".3437"/><path d="m308.05 400.38h7.0136l4.1032-4.0958v-7.6688l-4.3417-4.3342h-6.775z" fill="#333" stroke="#808080" stroke-width=".1876"/><path d="m317.64 393.1v-1.4286h-3.3875v1.4286z"/><path d="m312.97 387.95v-1.4286h-3.3875v1.4286z"/><path d="m312.97 398.14v-1.4287h-3.3875v1.4287z"/><path d="m323.14 401.72 1.8502 1.4002h9.4299l3.9836-4.3982v-13.189l-4.3033-3.99h-9.27l-1.6904 1.4002z" stroke="#666" stroke-linejoin="round" stroke-width=".3437"/><path d="m325.21 400.38h7.0136l4.1032-4.0958v-7.6688l-4.3417-4.3342h-6.775z" fill="#333" stroke="#808080" stroke-width=".1876"/><path d="m334.8 393.1v-1.4286h-3.3875v1.4286z"/><path d="m330.13 387.95v-1.4286h-3.3875v1.4286z"/><path d="m330.13 398.14v-1.4287h-3.3875v1.4287z"/><rect transform="rotate(-90)" x="-431.62" y="346.25" width="23.769" height="29.149" rx=".7" ry=".7" fill="#333" opacity=".99" stroke="#000" stroke-linejoin="round" stroke-width=".7"/><rect transform="rotate(-90)" x="-427.98" y="349.81" width="16.465" height="22.017" rx=".61027" ry=".64836" fill="#333" opacity=".99" stroke="#000" stroke-linejoin="round" stroke-width="3.6393"/><g stroke="#999" stroke-width=".14"><path d="m353.24 420.96v2.8865h5.5314v-2.8865z"/><path d="m362.86 420.96v2.8865h5.5314v-2.8865z"/><path d="m358.05 415.64v2.8865h5.5314v-2.8865z"/></g><rect transform="rotate(-90)" x="-404.64" y="346.12" width="23.769" height="29.149" rx=".7" ry=".7" fill="#333" opacity=".99" stroke="#000" stroke-linejoin="round" stroke-width=".7"/><rect transform="rotate(-90)" x="-400.93" y="349.63" width="16.465" height="22.017" rx=".61027" ry=".64836" opacity=".99" stroke="#000" stroke-linejoin="round" stroke-width="3.6393"/><g stroke="#999" stroke-width=".14"><path d="m353.12 395.43v1.4312h4.8947v-1.4312z" fill="#e6e6e6"/><path d="m362.74 395.42v1.4312h4.8947v-1.4312z" fill="#ccc"/><path d="m357.93 390.11v1.4312h4.8947v-1.4312z" fill="#ccc"/><rect x="76.914" y="377.14" width="116.45" height="57.798" rx=".7" ry=".7" fill="#4d4d4d" opacity=".99" stroke-linejoin="round"/></g><path d="m77.686 422.38v-32.684l11.871-11.871h32.685l11.87 11.871v32.684l-11.87 11.871h-32.685z" opacity=".99"/><g fill="none" stroke="#808080" stroke-linejoin="round" stroke-width="1.05"><circle cx="105.9" cy="406.04" r="26.841" opacity=".99"/><circle cx="105.9" cy="406.04" r="20.682" opacity=".99"/><circle cx="105.9" cy="406.04" r="15.941" opacity=".99"/></g><circle cx="105.9" cy="406.04" r="10.975" fill="#ececec" opacity=".99"/><path d="m82.505 383.37 20.495 19.889c1.0013 1.3869 2.5655 2.5535 0 5.3361l-20.132 20.132" fill="none" stroke="#808080" stroke-width=".7px"/><path d="m129.29 428.72-20.495-19.889c-1.0013-1.3869-2.5655-2.5535 0-5.3361l20.132-20.132" fill="none" stroke="#808080" stroke-width=".7px"/><path d="m136.17 422.38v-32.684l11.871-11.871h32.685l11.87 11.871v32.684l-11.87 11.871h-32.685z" opacity=".99"/><g fill="none" stroke="#808080" stroke-linejoin="round" stroke-width="1.05"><circle cx="164.39" cy="406.04" r="26.841" opacity=".99"/><circle cx="164.39" cy="406.04" r="20.682" opacity=".99"/><circle cx="164.39" cy="406.04" r="15.941" opacity=".99"/></g><circle cx="164.39" cy="406.04" r="10.975" fill="#ececec" opacity=".99"/><path d="m140.99 383.37 20.495 19.889c1.0013 1.3869 2.5655 2.5535 0 5.3361l-20.132 20.132" fill="none" stroke="#808080" stroke-width=".7px"/><path d="m187.78 428.72-20.495-19.889c-1.0013-1.3869-2.5655-2.5535 0-5.3361l20.132-20.132" fill="none" stroke="#808080" stroke-width=".7px"/><rect transform="rotate(-90)" x="-432.96" y="195.35" width="53.852" height="27.028" rx="1.6174" ry="1.6174" fill="#ececec" stroke="#e7e7e7" stroke-linejoin="round" stroke-width=".47642"/><path d="m204.88 414.02v15.828h13.125v-15.828z" fill="#3a3a3a"/><path d="m216.63 415.18h-1.4141v3.291h1.4141zm-8e-3 10.211h-1.4062v3.2617h1.4062z" fill="#abb927"/><path d="m214.69 415.48v3.3035l2.0016-6e-3 9.4e-4 1.2023h0.7494v3.8752l-0.75138-9.1e-4v1.2514h-2.0016v3.2884h-8.6175l-0.028-12.914z" fill="#1a1a1a"/><path d="m204.88 429.84 13.126 4e-3 2e-3 -5.2866h-1.2624l2e-3 4.2497h-1.6342l-0.0131-0.41943-9.0326-1e-3 -0.0239-12.915 9.0566-9.1e-4 0.0131-0.41942h1.6342l-2e-3 4.2244h1.2624l-2e-3 -5.2617-13.124 4e-3z" fill="#f9f9f9"/><path d="m207.22 401.94c0-0.6005 0.2704-0.87402 0.56389-0.87402h1.2371c0.43207 0 1.0298 1.3157 1.0298 2.2888v4.6371c0 0.31518-0.60234 2.0028-1.0625 2.0028h-1.2366c-0.36682 0-0.53963-0.57454-0.53171-0.89861z" fill="#f9f9f9"/><path d="m207.41 402.25c-0.0235-0.70034 0.24709-0.77491 0.51695-0.77491h1.1248c0.28222 0 0.80728 1.0963 0.80728 1.9568v4.3449c0 0.30819-0.57231 1.7691-0.83564 1.8046h-1.1249c-0.32517 0-0.49559-0.46752-0.49204-0.6095z" fill="#1d1d1d" stroke-width="1.8802"/><path d="m208.11 407.5c0 0.26656 0.11228 0.45733 0.24071 0.45733h0.59047c0.29347-0.26309 0.45864-0.68364 0.45864-1.1043v-2.496c0.0226-0.52585-0.26879-1.2164-0.42666-1.2333h-0.60696c-0.14761 0-0.25622 1e-3 -0.25622 0.43196z" fill="#404040" stroke-width="1.8802"/><path d="m208.43 407.43h0.4414v-0.35547h-0.4414zm0-0.84375h0.4414v-0.35547h-0.4414zm0-0.89453h0.4414v-0.35547h-0.4414zm0-0.89648h0.4414v-0.35352h-0.4414zm0-0.86914h0.4414v-0.35352h-0.4414z" fill="#070707"/><rect transform="rotate(-90)" x="-396.39" y="205.31" width="12.515" height="11.556" fill="#b3b3b3" opacity=".99"/><path d="m212.83 384.34v2.0655l3.3588-5e-3v7.456h-3.3599v2.0518h-6.8251l-0.0251-11.567z" stroke-width="1.6829"/><path d="m215.27 406.7c0.48534-0.0423 0.35674-0.47118 0.25781-0.72661h0.15738c0.20747 0.60535-0.0404 0.89638-0.44512 0.90037-0.78209-0.0346-0.65776-1.0234 0.0299-0.93929zm-0.13044-0.59903c-0.46355 0-0.33143 0.59406 7.8e-4 0.59361z" stroke-width="1.7724px"/><path d="m215.17 407.23c0.16625-0.12605 0.35456-0.1925 0.54835-0.2977v0.19636c-0.4432 0.19287-0.52664 0.30314-0.52664 0.30314-0.0739 0.11866-0.028 0.23377-0.0443 0.3701h0.57098v0.18278h-1.351v-0.41262c0-0.62762 0.72902-0.44123 0.71759-0.22801 0.0234-0.0514 0.0455-0.0824 0.085-0.11405zm-0.65245 0.57189h0.47958v-0.22984c0-0.41796-0.47956-0.34396-0.47956 0z" stroke-width="1.7724px"/><path d="m214.9 405.03c-0.17528 0.45982 0.0234 0.55198 0.0756 0.55198 0.23661 0 0.0774-0.60627 0.47047-0.60627 0.3532 0 0.33778 0.4209 0.24302 0.77457h-0.17192c0.16624-0.28798 0.10656-0.60356-0.0579-0.60356-0.27464 0-0.0544 0.59633-0.47298 0.59633-0.39313 0-0.29505-0.50516-0.24364-0.71306z" stroke-width="1.7723px"/><path d="m214.43 403.44h0.28775v-0.34296h0.12938v0.34296h0.55017c0.17227 0 0.19461-0.0392 0.19461-0.17192v-0.17104h0.1393v0.17104c0 0.32812-0.17174 0.32843-0.33384 0.33932h-0.55017v0.12215h-0.12939v-0.12215h-0.28774z" stroke-width="1.7723px"/><path d="m215.27 404.64c0.48534-0.0423 0.35674-0.47118 0.25781-0.72661h0.15738c0.20747 0.60535-0.0404 0.89638-0.44512 0.90037-0.78209-0.0346-0.65776-1.0234 0.0299-0.93929zm-0.13044-0.59903c-0.46355 0-0.33143 0.59406 7.8e-4 0.59361z"/><ellipse transform="rotate(-90)" cx="-405.53" cy="213" rx=".72969" ry=".73078" stroke-width="1.8802"/><g fill="#666"><path d="m203.32 406.61v-0.44911h-6.0667l6.0667-2.6704v-0.44912h-6.8973v0.44912h5.7213l-5.7213 2.5126v0.60691z"/><path d="m202.39 400.69c-0.28 0-0.45174 0.0373-0.63094 0.13813-0.32853 0.18293-0.53013 0.5376-0.53013 0.9296 0 0.5936 0.46667 1.0565 1.0603 1.0565 0.6048 0 1.0789-0.47413 1.0789-1.0789 0-0.44427-0.28747-0.84373-0.72053-0.99307v0.28747c0.28 0.11573 0.46666 0.4032 0.46666 0.71307 0 0.42186-0.32106 0.7728-0.72426 0.7952zm-0.25014 1.8405c-0.392-0.0747-0.65706-0.38453-0.65706-0.7728 0-0.39573 0.2464-0.6944 0.65706-0.79147z"/><path d="m203.32 400.14v-0.27626h-1.792v-0.4592h-0.25014v0.4592h-0.7168v0.27626h0.7168v0.44054h0.25014v-0.44054z"/><path d="m203.32 399.27v-0.44912h-6.1413l6.1413-1.6812v-0.38843l-6.1413-1.6872h6.1413v-0.44912h-6.8973v0.69795l5.8707 1.6265-5.8707 1.6326v0.69796z"/><path d="m201.27 392.17v0.27627h0.36214c-0.28374 0.20533-0.41067 0.45173-0.41067 0.8064 0 0.61227 0.46293 1.0752 1.0752 1.0752s1.064-0.46667 1.064-1.0976c0-0.3472-0.112-0.56373-0.40693-0.784h0.3584v-0.27627zm0.20534 1.0752c0-0.45173 0.35093-0.79893 0.8064-0.79893 0.46666 0 0.82506 0.34347 0.82506 0.784 0 0.46293-0.36213 0.8176-0.8288 0.8176-0.44426 0-0.80266-0.3584-0.80266-0.80267z"/><path d="m203.32 391.7v-0.27627h-1.1237c-0.22773 0-0.3472-0.0299-0.46293-0.10827-0.1568-0.10826-0.25013-0.29866-0.25013-0.5152 0-0.56674 0.3608-0.63093 0.76533-0.63093h1.0715v-0.27627h-1.0715c-0.77088 0-1.0192 0.30375-1.0192 0.8736 0 0.2688 0.1008 0.48534 0.3136 0.65707h-0.26507v0.27627z"/><path d="m203.32 389.48v-2.6264h-0.3752v2.0664l-1.2712-1.3272c-0.5544-0.5824-0.8624-0.7616-1.3048-0.7616-0.7336 0-1.26 0.5488-1.26 1.3048 0 0.5768 0.3024 1.0304 0.8064 1.2208 0.196 0.0728 0.3136 0.0896 0.6048 0.0896v-0.4088c-0.2576 0-0.42-0.0336-0.5712-0.1064-0.2912-0.1456-0.4648-0.4368-0.4648-0.7896 0-0.5208 0.3584-0.896 0.8624-0.896 0.59371 0.0823 0.60294 0.18854 1.1984 0.784l1.4 1.4504z"/><path d="m203.32 381.29v-0.4088h-0.756v-0.3808h-0.3752v0.3808h-3.0072v0.4872l3.0072 2.016h0.3752v-2.0944zm-1.1312 0v1.6184l-2.436-1.6184z"/><path d="m201.81 386.39c1.0513 0.0225 1.5792-0.49241 1.5792-1.4168s-0.51949-1.3552-1.5792-1.3552h-1.176c-1.0145-9e-3 -1.5206 0.55641-1.5288 1.3888-8e-3 0.83239 0.52097 1.3832 1.5288 1.3832zm-0.0672-2.3632c0.63893 0 1.2712 0.11449 1.2712 0.9632s-0.64614 0.9912-1.2712 0.9912h-1.0136c-0.78668 0-1.2488-0.26139-1.2488-0.98s0.45424-0.9744 1.2488-0.9744z"/></g></svg>
