<svg width="450" height="87" version="1.1" viewBox="66 376 315 60.9" xmlns="http://www.w3.org/2000/svg" xmlns:xlink="http://www.w3.org/1999/xlink"><defs><linearGradient id="linearGradient2563"><stop stop-color="#1a1a1a" offset="0"/><stop stop-color="#939393" stop-opacity=".84914" offset="1"/></linearGradient><linearGradient id="linearGradient2569" x1="180.53" x2="180.46" y1="341.92" y2="370.92" gradientTransform="translate(-10.86 63.149)" gradientUnits="userSpaceOnUse" xlink:href="#linearGradient2563"/><linearGradient id="linearGradient2579-3" x1="101.42" x2="102.39" y1="406.19" y2="406.19" gradientTransform="translate(-7.7833 -91.334)" gradientUnits="userSpaceOnUse" xlink:href="#linearGradient2563"/><linearGradient id="linearGradient2579-35" x1="101.42" x2="102.39" y1="406.19" y2="406.19" gradientTransform="translate(-.96525 -91.334)" gradientUnits="userSpaceOnUse" xlink:href="#linearGradient2563"/><linearGradient id="linearGradient2579-1" x1="101.42" x2="102.39" y1="406.19" y2="406.19" gradientTransform="translate(5.8528 -91.334)" gradientUnits="userSpaceOnUse" xlink:href="#linearGradient2563"/><linearGradient id="linearGradient2579-9" x1="101.42" x2="102.39" y1="406.19" y2="406.19" gradientTransform="translate(12.671 -91.334)" gradientUnits="userSpaceOnUse" xlink:href="#linearGradient2563"/><linearGradient id="linearGradient2579-2" x1="101.42" x2="102.39" y1="406.19" y2="406.19" gradientTransform="translate(19.489 -91.334)" gradientUnits="userSpaceOnUse" xlink:href="#linearGradient2563"/><linearGradient id="linearGradient2579-7" x1="101.42" x2="102.39" y1="406.19" y2="406.19" gradientTransform="translate(26.307 -91.334)" gradientUnits="userSpaceOnUse" xlink:href="#linearGradient2563"/><linearGradient id="linearGradient2579-37" x1="101.42" x2="102.39" y1="406.19" y2="406.19" gradientTransform="translate(33.125 -91.334)" gradientUnits="userSpaceOnUse" xlink:href="#linearGradient2563"/><linearGradient id="linearGradient2579-28" x1="101.42" x2="102.39" y1="406.19" y2="406.19" gradientTransform="translate(39.943 -91.334)" gradientUnits="userSpaceOnUse" xlink:href="#linearGradient2563"/><linearGradient id="linearGradient2579-6" x1="101.42" x2="102.39" y1="406.19" y2="406.19" gradientTransform="translate(46.761 -91.334)" gradientUnits="userSpaceOnUse" xlink:href="#linearGradient2563"/><linearGradient id="linearGradient2579-19" x1="101.42" x2="102.39" y1="406.19" y2="406.19" gradientTransform="translate(53.579 -91.334)" gradientUnits="userSpaceOnUse" xlink:href="#linearGradient2563"/><linearGradient id="linearGradient2579-5" x1="101.42" x2="102.39" y1="406.19" y2="406.19" gradientTransform="translate(60.397 -91.334)" gradientUnits="userSpaceOnUse" xlink:href="#linearGradient2563"/><linearGradient id="linearGradient2579-10" x1="101.42" x2="102.39" y1="406.19" y2="406.19" gradientTransform="translate(67.215 -91.334)" gradientUnits="userSpaceOnUse" xlink:href="#linearGradient2563"/><linearGradient id="linearGradient2579-61" x1="101.42" x2="102.39" y1="406.19" y2="406.19" gradientTransform="translate(74.033 -91.334)" gradientUnits="userSpaceOnUse" xlink:href="#linearGradient2563"/><linearGradient id="linearGradient2579-76" x1="101.42" x2="102.39" y1="406.19" y2="406.19" gradientTransform="translate(80.851 -91.334)" gradientUnits="userSpaceOnUse" xlink:href="#linearGradient2563"/><linearGradient id="linearGradient2579-4" x1="101.42" x2="102.39" y1="406.19" y2="406.19" gradientTransform="translate(87.669 -91.334)" gradientUnits="userSpaceOnUse" xlink:href="#linearGradient2563"/><linearGradient id="linearGradient2579-74" x1="101.42" x2="102.39" y1="406.19" y2="406.19" gradientTransform="translate(94.487 -91.334)" gradientUnits="userSpaceOnUse" xlink:href="#linearGradient2563"/><linearGradient id="linearGradient2579-8" x1="101.42" x2="102.39" y1="406.19" y2="406.19" gradientTransform="translate(101.31 -91.334)" gradientUnits="userSpaceOnUse" xlink:href="#linearGradient2563"/><linearGradient id="linearGradient2579-14" x1="101.42" x2="102.39" y1="406.19" y2="406.19" gradientTransform="translate(108.12 -91.334)" gradientUnits="userSpaceOnUse" xlink:href="#linearGradient2563"/><linearGradient id="linearGradient2579-92" x1="101.42" x2="102.39" y1="406.19" y2="406.19" gradientTransform="translate(114.94 -91.334)" gradientUnits="userSpaceOnUse" xlink:href="#linearGradient2563"/><linearGradient id="linearGradient2579-50" x1="101.42" x2="102.39" y1="406.19" y2="406.19" gradientTransform="translate(121.76 -91.334)" gradientUnits="userSpaceOnUse" xlink:href="#linearGradient2563"/><linearGradient id="linearGradient2579-17" x1="101.42" x2="102.39" y1="406.19" y2="406.19" gradientTransform="translate(128.58 -91.334)" gradientUnits="userSpaceOnUse" xlink:href="#linearGradient2563"/><linearGradient id="linearGradient2912" x1="292.35" x2="295.73" y1="289.11" y2="289.11" gradientTransform="translate(9.2202 2.4554)" gradientUnits="userSpaceOnUse" xlink:href="#linearGradient2563"/><linearGradient id="linearGradient2912-1" x1="292.35" x2="295.73" y1="289.11" y2="289.11" gradientTransform="translate(4.7226 2.7128)" gradientUnits="userSpaceOnUse" xlink:href="#linearGradient2563"/><linearGradient id="linearGradient2912-5" x1="292.35" x2="295.73" y1="289.11" y2="289.11" gradientTransform="translate(.22485 2.9701)" gradientUnits="userSpaceOnUse" xlink:href="#linearGradient2563"/><linearGradient id="linearGradient2912-0" x1="292.35" x2="295.73" y1="289.11" y2="289.11" gradientTransform="translate(-4.2729 3.9352)" gradientUnits="userSpaceOnUse" xlink:href="#linearGradient2563"/><linearGradient id="linearGradient2912-7" x1="292.35" x2="295.73" y1="289.11" y2="289.11" gradientTransform="translate(-8.7706 3.5599)" gradientUnits="userSpaceOnUse" xlink:href="#linearGradient2563"/><linearGradient id="linearGradient2912-9" x1="292.35" x2="295.73" y1="289.11" y2="289.11" gradientTransform="translate(-13.268 3.7958)" gradientUnits="userSpaceOnUse" xlink:href="#linearGradient2563"/><linearGradient id="linearGradient2912-73" x1="292.35" x2="295.73" y1="289.11" y2="289.11" gradientTransform="translate(-17.766 4.0103)" gradientUnits="userSpaceOnUse" xlink:href="#linearGradient2563"/><linearGradient id="linearGradient2912-94" x1="292.35" x2="295.73" y1="289.11" y2="289.11" gradientTransform="translate(-22.264 4.2569)" gradientUnits="userSpaceOnUse" xlink:href="#linearGradient2563"/><linearGradient id="linearGradient2912-93" x1="292.35" x2="295.73" y1="289.11" y2="289.11" gradientTransform="translate(-26.761 4.5786)" gradientUnits="userSpaceOnUse" xlink:href="#linearGradient2563"/><linearGradient id="linearGradient2912-8" x1="292.35" x2="295.73" y1="289.11" y2="289.11" gradientTransform="translate(-31.259 4.9121)" gradientUnits="userSpaceOnUse" xlink:href="#linearGradient2563"/></defs><rect x="66.412" y="375.59" width="315" height="60.9" fill="#333"/><g transform="translate(2.2304 91.185)" fill="none" stroke-width="1.4"><path d="m93.903 286.55v56.618" stroke="url(#linearGradient2579-3)"/><path d="m100.72 286.55v56.618" stroke="url(#linearGradient2579-35)"/><path d="m107.54 286.55v56.618" stroke="url(#linearGradient2579-1)"/><path d="m114.36 286.55v56.618" stroke="url(#linearGradient2579-9)"/><path d="m121.18 286.55v56.618" stroke="url(#linearGradient2579-2)"/><path d="m127.99 286.55v56.618" stroke="url(#linearGradient2579-7)"/><path d="m134.81 286.55v56.618" stroke="url(#linearGradient2579-37)"/><path d="m141.63 286.55v56.618" stroke="url(#linearGradient2579-28)"/><path d="m148.45 286.55v56.618" stroke="url(#linearGradient2579-6)"/><path d="m155.27 286.55v56.618" stroke="url(#linearGradient2579-19)"/><path d="m162.08 286.55v56.618" stroke="url(#linearGradient2579-5)"/><path d="m168.9 286.55v56.618" stroke="url(#linearGradient2579-10)"/><path d="m175.72 286.55v56.618" stroke="url(#linearGradient2579-61)"/><path d="m182.54 286.55v56.618" stroke="url(#linearGradient2579-76)"/><path d="m189.36 286.55v56.618" stroke="url(#linearGradient2579-4)"/><path d="m196.17 286.55v56.618" stroke="url(#linearGradient2579-74)"/><path d="m202.99 286.55v56.618" stroke="url(#linearGradient2579-8)"/><path d="m209.81 286.55v56.618" stroke="url(#linearGradient2579-14)"/><path d="m216.63 286.55v56.618" stroke="url(#linearGradient2579-92)"/><path d="m223.45 286.55v56.618" stroke="url(#linearGradient2579-50)"/><path d="m230.26 286.55v56.618" stroke="url(#linearGradient2579-17)"/></g><path d="m97.712 377.77h138.62v56.534h-138.62c-3.878 0-6.759-3.1295-7-7-0.88832-14.267-2.2201-28.578 0-42.534 0.60926-3.8298 3.122-7 7-7z" fill="none" opacity=".99" stroke="url(#linearGradient2569)" stroke-width="1.2523"/><path d="m83.955 390.79 152.37-11.2v52.894l-152.37-11.2c-6.8564-0.77654-5.8577-30.237 0-30.494z" fill="#1a1a1a" opacity=".99" stroke="#000" stroke-width=".4123"/><g transform="translate(0 1.0276)" fill="#fff"><rect x="90.195" y="398.97" width="9.3823" height="9.3823" opacity=".99" stroke-width="1.0157"/><path d="m91.382 400.07c0.78135 0.53774 0.56699 1.3244 0.68714 2.0275 2.031-0.56705 4.7873-1.1976 5.0474-0.61927 0.95956 2.1332-4.101 4.4779-3.6647 6.9985 0.20853 1.7923 3.1531 2.7685 5.9636 2.477-3.2726-0.3566-4.3448-1.4607-3.9409-2.6841 0.8788-2.5762 2.9704-5.2476 2.6091-6.5963-0.61042-2.2782-4.059-1.682-6.7016-1.6033z" stroke="#333" stroke-width=".10157"/><path d="m124.82 405.07c0-0.67814 0.64517-1.0942 1.3215-1.0942 0.67637 0 1.3215 0.54245 1.3215 1.0942v2.1882c0 0.58452-0.58131 1.0505-1.0566 1.0511h-0.75965v1.7383h-0.8268zm1.7881 2.1882v-2.1882c0-0.1108-0.0435-0.25641-0.4831-0.25641-0.43965 0-0.48311 0.18041-0.48311 0.25641v2.363h0.7646c0.14942 4e-3 0.20161-0.0859 0.20161-0.1748zm-25.708-3.0004c0-1.1781 0.50689-2.2214 2.0133-2.2214h0.61724v1.3153h-0.45975c-0.60817 0-0.85552 0.38934-0.85552 0.90611v4.1158h-1.3153zm3.348-2.2214h1.4348v6.3372h-1.4348zm2.2847 4.807v-3.0995c0.037-1.263 0.71584-1.684 1.9651-1.684s1.8482 0.50037 1.8482 1.684v2.1187h-2.511v0.79342c0 0.6258 1.1948 0.81729 1.1957-0.19558h1.3452c0 1.5465-1.2568 1.8907-2.0279 1.913-1.1932 0-1.8153-0.86603-1.8153-1.5301zm2.4981-2.7118c0-0.44292-0.1664-0.65748-0.59785-0.65748-0.43144 0-0.59784 0.25116-0.59784 0.61514v0.45808h1.1957zm2.1522-4.6062h1.3153v8.8481h-1.3153zm2.0924-1e-4 1.375 1e-4v8.8481h-1.3096zm2.268 7.0894v-3.0193c0-0.77954 0.68159-1.536 1.906-1.536s1.9136 0.86105 1.906 1.536v3.0193c0 0.66506-0.43647 1.7554-1.906 1.7554s-1.9392-0.92832-1.906-1.7554zm2.485-3.0193c-0.0645-0.24087-0.32265-0.36754-0.61805-0.36754-0.29538 0-0.60764 0.16175-0.60764 0.36754v3.0193c0 0.26762 0.37247 0.49902 0.63211 0.50414 0.25964 5e-3 0.59358-0.25817 0.59358-0.50414zm3.318 3.5287v-3.1746h0.95655v3.1746c0 0.19383 0.16349 0.29124 0.37183 0.29124s0.37182-0.10056 0.37182-0.29124v-3.1746h0.99014l0.0333 3.1746c0 0.57874-0.3648 1.1865-1.3618 1.1865-0.99701 0-1.3658-0.72258-1.3618-1.1865zm6.9519-0.0107h0.79389c0 0.47966 0.98172 0.63891 0.98172-0.0942 0-0.3922-0.25441-0.49062-0.69615-0.49062-0.70109 0-1.1113-0.7165-1.1113-1.2521 0-0.80129 0.53398-1.3272 1.3244-1.3272s1.3212 0.71798 1.3212 1.2577h-0.87478c0-0.53335-0.92299-0.52319-0.92299 0.0695 0 0.59272 0.52814 0.50154 0.52814 0.50154 0.84846 0 1.2786 0.51982 1.2786 1.2412 0 0.72142-0.52834 1.2965-1.3163 1.2965-0.78793 0-1.3064-0.54397-1.3064-1.2023zm-24.05-7.5882h1.4348v1.3152h-1.4348z"/></g><path d="m314.58 378.32-78.248 1.3376v52.833l78.248 1.4234c-3.2747-1.0242-2.6866-55.545 0-55.594z" fill="#1a1a1a" opacity=".99" stroke="#000" stroke-width=".2917"/><circle cx="250.35" cy="406.04" r="5.7475" fill="#1a1a1a" opacity=".99" stroke="#000" stroke-width=".84"/><circle cx="250.35" cy="406.04" r="3.174" fill="none" opacity=".99" stroke="#fff" stroke-opacity=".84914" stroke-width=".7"/><path d="m248.53 406.04h3.6395" fill="none" stroke="#fff" stroke-width=".7px"/><rect x="314.58" y="378.32" width="54.559" height="57.304" opacity=".99"/><g transform="translate(-.68627 114.55)" stroke-width=".4123"><path d="m303.26 270.21c2.1003 0 2.4003 42.704 0 42.704s-2.1003-42.704 0-42.704z" opacity=".99" stroke="url(#linearGradient2912)"/><path d="m298.76 270.47c2.1003 0 2.4003 42.189 0 42.189s-2.1003-42.189 0-42.189z" opacity=".99" stroke="url(#linearGradient2912-1)"/><path d="m294.26 270.72c2.1003 0 2.4003 41.674 0 41.674s-2.1003-41.674 0-41.674z" opacity=".99" stroke="url(#linearGradient2912-5)"/><path d="m289.76 270.21c2.1003 0 2.4003 42.704 0 42.704s-2.1003-42.704 0-42.704z" opacity=".99" stroke="url(#linearGradient2912-0)"/><path d="m285.27 271.31c2.1003 0 2.4003 40.495 0 40.495s-2.1003-40.495 0-40.495z" opacity=".99" stroke="url(#linearGradient2912-7)"/><path d="m280.77 271.55c2.1003 0 2.4003 40.023 0 40.023s-2.1003-40.023 0-40.023z" opacity=".99" stroke="url(#linearGradient2912-9)"/><path d="m276.27 271.76c2.1003 0 2.4003 39.594 0 39.594s-2.1003-39.594 0-39.594z" opacity=".99" stroke="url(#linearGradient2912-73)"/><path d="m271.77 272.01c2.1003 0 2.4003 39.101 0 39.101s-2.1003-39.101 0-39.101z" opacity=".99" stroke="url(#linearGradient2912-94)"/><path d="m267.27 272.33c2.1003 0 2.4003 38.457 0 38.457s-2.1003-38.457 0-38.457z" opacity=".99" stroke="url(#linearGradient2912-93)"/><path d="m262.78 272.67c2.1003 0 2.4003 37.79 0 37.79s-2.1003-37.79 0-37.79z" opacity=".99" stroke="url(#linearGradient2912-8)"/></g><rect x="334.33" y="386.55" width="25.392" height="40.833" fill="#ccc" opacity=".99" stroke="#333" stroke-width=".4123"/><g fill="#fff"><g stroke="#000" stroke-width=".4123"><rect x="323.52" y="386.55" width="2.7451" height="9.2647" opacity=".99"/><rect x="323.52" y="402.24" width="2.7451" height="9.2647" opacity=".99"/><rect x="323.52" y="418.12" width="2.7451" height="9.2647" opacity=".99"/></g><g stroke-width=".7"><path d="m328.86 388.89q0.65334 0 1.0043 0.28747 0.35467 0.28747 0.35467 0.82133 0 0.28-0.0971 0.48907t-0.27627 0.3472q-0.1792 0.13813-0.42933 0.20533t-0.55627 0.0672q-0.65333 0-1.008-0.2912-0.35093-0.28746-0.35093-0.8176 0-0.28373 0.0971-0.4928 0.0971-0.20906 0.27626-0.3472 0.1792-0.1344 0.42934-0.2016 0.25013-0.0672 0.55626-0.0672zm0 0.5376q-0.19786 0-0.36586 0.0336-0.16427 0.0336-0.28374 0.1008-0.11946 0.0709-0.18666 0.1792-0.0672 0.10827-0.0672 0.2576 0 0.27254 0.2128 0.42187t0.69066 0.14933q0.1904 0 0.35467-0.0336 0.16427-0.0299 0.28747-0.0971t0.1904-0.17547q0.0709-0.10827 0.0709-0.26507 0-0.27253-0.22027-0.42186-0.21653-0.14934-0.6832-0.14934z"/><path d="m328.92 392.12 0.41067-0.20533v-0.0187l-0.41067 0.0597h-1.3627v-0.48533h2.632v0.37333l-1.3925 0.98934-0.39946 0.19786v0.0187l0.39946-0.0597h1.3739v0.48533h-2.632v-0.37333z"/><path d="m328.25 405.28q0.11946 0 0.19413-0.0896 0.0747-0.0859 0.1344-0.22026 0.0635-0.13067 0.12693-0.28747 0.0672-0.15307 0.16054-0.28747 0.0971-0.13066 0.23893-0.22026 0.14187-0.0859 0.36213-0.0859 0.1904 0 0.32854 0.0635 0.14186 0.0635 0.2352 0.1792 0.0933 0.11946 0.13813 0.28 0.0448 0.16053 0.0448 0.3584 0 0.22773-0.0411 0.42933-0.0373 0.2016-0.112 0.33227l-0.42933-0.16054q0.0523-0.0821 0.0933-0.2464 0.0448-0.16426 0.0448-0.35466 0-0.1792-0.0709-0.27627-0.0709-0.0933-0.1904-0.0933-0.112 0-0.18667 0.0859-0.0747 0.0896-0.13813 0.22027-0.0635 0.1344-0.13067 0.28747-0.0672 0.1568-0.16426 0.28746-0.0933 0.1344-0.2352 0.22027-0.13814 0.0896-0.3472 0.0896-0.20907 0-0.36214-0.0709-0.14933-0.0672-0.25013-0.19414-0.1008-0.1232-0.14933-0.3024-0.0485-0.17546-0.0485-0.38826 0-0.28 0.0523-0.4928t0.10453-0.3136l0.4368 0.16426q-0.0224 0.0411-0.0485 0.10454-0.0261 0.0672-0.0485 0.14933-0.0224 0.0821-0.0373 0.17173-0.0149 0.0933-0.0149 0.1904 0 0.22774 0.0747 0.3472 0.0784 0.1232 0.2352 0.1232z"/><path d="m330.16 406.13v1.5493h-0.45546v-1.0379h-0.60854v0.94454h-0.45546v-0.94454h-0.6384v1.0565h-0.45547v-1.568z"/><path d="m327.55 409.73v-1.6539h2.6133v0.51147h-2.1579v1.1424z"/><path d="m328.25 419.79q0.11946 0 0.19413-0.0896 0.0747-0.0859 0.1344-0.22026 0.0635-0.13067 0.12693-0.28747 0.0672-0.15307 0.16054-0.28747 0.0971-0.13066 0.23893-0.22026 0.14187-0.0859 0.36213-0.0859 0.1904 0 0.32854 0.0635 0.14186 0.0635 0.2352 0.1792 0.0933 0.11946 0.13813 0.28 0.0448 0.16053 0.0448 0.3584 0 0.22773-0.0411 0.42933-0.0373 0.2016-0.112 0.33227l-0.42933-0.16054q0.0523-0.0821 0.0933-0.2464 0.0448-0.16426 0.0448-0.35466 0-0.1792-0.0709-0.27627-0.0709-0.0933-0.1904-0.0933-0.112 0-0.18667 0.0859-0.0747 0.0896-0.13813 0.22027-0.0635 0.1344-0.13067 0.28747-0.0672 0.1568-0.16426 0.28746-0.0933 0.1344-0.2352 0.22027-0.13814 0.0896-0.3472 0.0896-0.20907 0-0.36214-0.0709-0.14933-0.0672-0.25013-0.19414-0.1008-0.1232-0.14933-0.3024-0.0485-0.17546-0.0485-0.38826 0-0.28 0.0523-0.4928t0.10453-0.3136l0.4368 0.16426q-0.0224 0.0411-0.0485 0.10454-0.0261 0.0672-0.0485 0.14933-0.0224 0.0821-0.0373 0.17173-0.0149 0.0933-0.0149 0.1904 0 0.22774 0.0747 0.3472 0.0784 0.1232 0.2352 0.1232z"/><path d="m329.7 422.49v-0.7616h-2.1579v-0.51146h2.1579v-0.76534h0.45546v2.0384z"/><path d="m329.55 424.52q-0.0971 0-0.19413-0.0261-0.0971-0.0224-0.1792-0.0784-0.0784-0.056-0.14187-0.1456-0.0597-0.0896-0.0896-0.21653h-0.0224q-0.0187 0.112-0.0635 0.2128t-0.1232 0.17546q-0.0784 0.0747-0.1904 0.11574-0.112 0.0448-0.26506 0.0448-0.2016 0-0.35094-0.0859-0.1456-0.0859-0.23893-0.23147-0.0933-0.14186-0.13813-0.3248-0.0448-0.18293-0.0448-0.37706 0-0.0635 0-0.16427 0-0.0971 7e-3 -0.2128 4e-3 -0.112 0.0149-0.23147 0.0112-0.11573 0.0336-0.2128h2.576q0.0112 0.0709 0.0224 0.16054 0.0112 0.0933 0.0187 0.19786 7e-3 0.10454 0.0112 0.2128 4e-3 0.112 4e-3 0.22027 0 0.18293-0.0299 0.35467-0.0261 0.17546-0.0971 0.30986-0.0709 0.13814-0.19786 0.22027-0.12694 0.0821-0.32107 0.0821zm-1.6203-0.93333q0 0.0933 0.0224 0.1792 0.0224 0.0896 0.0672 0.1568 0.0485 0.0672 0.11947 0.10827 0.0709 0.0411 0.168 0.0411 0.1232 0 0.19413-0.0485 0.0709-0.0485 0.10827-0.12693 0.0411-0.0784 0.0523-0.17547 0.0112-0.0971 0.0112-0.19413v-0.27254h-0.72054q-7e-3 0.0187-0.0112 0.0597-4e-3 0.0411-7e-3 0.0859 0 0.0485-4e-3 0.0971 0 0.0523 0 0.0896zm1.1312-0.168q0 0.0523 4e-3 0.11947 4e-3 0.0709 0.0112 0.11573 0.0448 0.14187 0.1344 0.24267 0.0896 0.10453 0.2352 0.10453 0.0971 0 0.16053-0.0373 0.0635-0.0373 0.1008-0.1008 0.0373-0.0597 0.0523-0.13814 0.0149-0.0784 0.0149-0.16426 0-0.0971-4e-3 -0.1792t-0.0112-0.12694h-0.69814z"/><path d="m328.52 425.59 1.6427-0.85867v0.60853l-0.98186 0.47787-0.27627 0.0523v0.0187l0.28373 0.056 0.9744 0.46294v0.5488l-1.6389-0.85494h-0.9744v-0.51146z"/><path d="m157.9 406.49 0.1344 0.88853h0.0373l0.14933-0.896 1.0005-3.0613h1.0752l-1.9413 5.264h-0.73173l-1.9563-5.264h1.1872z"/><path d="m162.93 407.25q0-0.23893-0.1792-0.38827-0.17173-0.14933-0.44053-0.2688-0.26133-0.12693-0.57493-0.25386-0.30614-0.1344-0.57494-0.32107-0.26133-0.19413-0.44053-0.47787-0.17173-0.28373-0.17173-0.72426 0-0.3808 0.12693-0.65707 0.12693-0.28373 0.3584-0.4704 0.23893-0.18667 0.56-0.27627t0.7168-0.0896q0.45547 0 0.85867 0.0821 0.4032 0.0747 0.66453 0.224l-0.32107 0.85866q-0.16426-0.10453-0.4928-0.18666-0.32853-0.0896-0.70933-0.0896-0.3584 0-0.55253 0.14186-0.18667 0.14187-0.18667 0.3808 0 0.224 0.17173 0.37334 0.1792 0.14933 0.44054 0.27626 0.2688 0.12694 0.57493 0.26134 0.3136 0.1344 0.57493 0.32853 0.2688 0.18667 0.44054 0.4704 0.1792 0.27627 0.1792 0.6944t-0.14187 0.72427q-0.1344 0.29866-0.38827 0.50026-0.2464 0.2016-0.6048 0.29867-0.35093 0.0971-0.77653 0.0971-0.56 0-0.9856-0.10454-0.4256-0.10453-0.6272-0.20906l0.32853-0.8736q0.0821 0.0448 0.20907 0.0971 0.1344 0.0523 0.29867 0.0971 0.16426 0.0448 0.34346 0.0747 0.18667 0.0299 0.3808 0.0299 0.45547 0 0.6944-0.14933 0.2464-0.1568 0.2464-0.4704z"/><path d="m164.63 403.42q0.1568-0.0224 0.35094-0.0373 0.2016-0.0149 0.41066-0.0224 0.20907-7e-3 0.4032-7e-3 0.2016-7e-3 0.3584-7e-3 0.6944 0 1.1872 0.19413 0.4928 0.19414 0.79894 0.54507 0.30613 0.35093 0.448 0.83627 0.14186 0.48533 0.14186 1.0677 0 0.53013-0.1344 1.0229t-0.448 0.8736-0.8288 0.61227q-0.50773 0.23147-1.2619 0.23147-0.11947 0-0.32107-7e-3 -0.19413-7e-3 -0.41067-0.0224-0.20906-7e-3 -0.4032-0.0224-0.19413-7e-3 -0.2912-0.0224zm1.6053 0.83626q-0.16427 0-0.336 7e-3 -0.16427 7e-3 -0.2464 0.0224v3.5019q0.0299 7e-3 0.0971 0.0149 0.0747 0 0.1568 7e-3 0.0821 0 0.1568 7e-3 0.0747 0 0.112 0 0.43307 0 0.7168-0.14933 0.2912-0.1568 0.45547-0.41067 0.17173-0.25386 0.23893-0.5824 0.0672-0.336 0.0672-0.68693 0-0.30613-0.0597-0.61227-0.0597-0.3136-0.224-0.56-0.1568-0.2464-0.43307-0.4032-0.27626-0.1568-0.70186-0.1568z"/><path d="m170.87 406.07h1.8741v0.85867h-1.8741z"/><path d="m173.9 407.83h1.0379v-2.9493l0.112-0.50774-0.3584 0.44054-0.66453 0.45546-0.41067-0.56 1.7024-1.3739h0.54507v4.4949h1.0155v0.82133h-2.9792z"/><path d="m181.3 406.03q0-1.3739 0.4704-2.0384 0.4704-0.672 1.3515-0.672 0.9408 0 1.3813 0.66454 0.44054 0.65706 0.44054 2.0459 0 1.3813-0.47787 2.0533-0.4704 0.672-1.3515 0.672-0.93333 0-1.3739-0.70187-0.44054-0.70933-0.44054-2.0235zm0.97067 0q0 0.91094 0.19413 1.4112 0.2016 0.4928 0.65707 0.4928 0.44053 0 0.64213-0.45546 0.20907-0.45547 0.20907-1.4485 0-0.90346-0.19413-1.3963-0.19414-0.4928-0.66454-0.4928-0.448 0-0.6496 0.46293-0.19413 0.46293-0.19413 1.4261z"/><path d="m185.53 406.03q0-1.3739 0.4704-2.0384 0.4704-0.672 1.3515-0.672 0.9408 0 1.3813 0.66454 0.44053 0.65706 0.44053 2.0459 0 1.3813-0.47786 2.0533-0.4704 0.672-1.3515 0.672-0.93333 0-1.3739-0.70187-0.44053-0.70933-0.44053-2.0235zm0.97067 0q0 0.91094 0.19413 1.4112 0.2016 0.4928 0.65707 0.4928 0.44053 0 0.64213-0.45546 0.20907-0.45547 0.20907-1.4485 0-0.90346-0.19414-1.3963-0.19413-0.4928-0.66453-0.4928-0.448 0-0.6496 0.46293-0.19413 0.46293-0.19413 1.4261z"/></g><path d="m177.65 407.83h1.0379v-2.9493l0.112-0.50774-0.3584 0.44054-0.66453 0.45546-0.41067-0.56 1.7024-1.3739h0.54507v4.4949h1.0155v0.82133h-2.9792z" stroke-width=".7"/></g></svg>
