<svg width="450" height="43.5" version="1.1" viewBox="66 376 315 30.45" xmlns="http://www.w3.org/2000/svg"><rect x="66" y="376" width="315" height="30.45" fill="#333"/><g transform="translate(-54.13 1.9345)"><rect x="270.26" y="376.86" width="69.733" height="24.861" rx=".7" ry=".7" fill="#333" opacity=".99" stroke="#000" stroke-linejoin="round" stroke-width=".7"/><path d="m271.6 398.68 1.8502 1.4002h9.4299l3.9836-4.3982v-13.189l-4.3033-3.99h-9.27l-1.6904 1.4002z" stroke="#666" stroke-linejoin="round" stroke-width=".3437"/><path d="m273.67 397.34h7.0136l4.1032-4.0958v-7.6688l-4.3417-4.3342h-6.775z" fill="#333" stroke="#808080" stroke-width=".1876"/><path d="m283.26 390.05v-1.4286h-3.3875v1.4286z"/><path d="m278.59 384.91v-1.4286h-3.3875v1.4286z"/><path d="m278.59 395.1v-1.4287h-3.3875v1.4287z"/><path d="m288.76 398.68 1.8502 1.4002h9.4299l3.9836-4.3982v-13.189l-4.3033-3.99h-9.27l-1.6904 1.4002z" stroke="#666" stroke-linejoin="round" stroke-width=".3437"/><path d="m290.83 397.34h7.0136l4.1032-4.0958v-7.6688l-4.3417-4.3342h-6.775z" fill="#fff" stroke="#808080" stroke-width=".1876"/><path d="m300.42 390.05v-1.4286h-3.3875v1.4286z"/><path d="m295.75 384.91v-1.4286h-3.3875v1.4286z"/><path d="m295.75 395.1v-1.4287h-3.3875v1.4287z"/><path d="m305.92 398.68 1.8502 1.4002h9.4299l3.9836-4.3982v-13.189l-4.3033-3.99h-9.27l-1.6904 1.4002z" stroke="#666" stroke-linejoin="round" stroke-width=".3437"/><path d="m307.99 397.34h7.0136l4.1032-4.0958v-7.6688l-4.3417-4.3342h-6.775z" fill="#fff" stroke="#808080" stroke-width=".1876"/><path d="m317.58 390.05v-1.4286h-3.3875v1.4286z"/><path d="m312.91 384.91v-1.4286h-3.3875v1.4286z"/><path d="m312.91 395.1v-1.4287h-3.3875v1.4287z"/><path d="m323.08 398.68 1.8502 1.4002h9.4299l3.9836-4.3982v-13.189l-4.3033-3.99h-9.27l-1.6904 1.4002z" stroke="#666" stroke-linejoin="round" stroke-width=".3437"/><path d="m325.15 397.34h7.0136l4.1032-4.0958v-7.6688l-4.3417-4.3342h-6.775z" fill="#fff" stroke="#808080" stroke-width=".1876"/><path d="m334.74 390.05v-1.4286h-3.3875v1.4286z"/><path d="m330.07 384.91v-1.4286h-3.3875v1.4286z"/><path d="m330.07 395.1v-1.4287h-3.3875v1.4287z"/></g><path d="m153.38 399.09v-15.806l5.7407-5.7407h15.806l5.7402 5.7407v15.806l-5.7402 5.7407h-15.806z" opacity=".99" stroke-width=".48359"/><g transform="matrix(.48359 0 0 .48359 115.82 194.83)" fill="none" stroke="#808080" stroke-linejoin="round" stroke-width="1.05"><circle cx="105.9" cy="406.04" r="26.841" opacity=".99"/><circle cx="105.9" cy="406.04" r="20.682" opacity=".99"/><circle cx="105.9" cy="406.04" r="15.941" opacity=".99"/></g><circle cx="167.03" cy="391.19" r="5.3074" fill="#ececec" opacity=".99" stroke-width=".48359"/><path d="m155.72 380.23 9.9112 9.6182c0.48423 0.6707 1.2407 1.2349 0 2.5805l-9.7357 9.7357" fill="none" stroke="#808080" stroke-width=".33852px"/><path d="m178.34 402.16-9.9112-9.6182c-0.48422-0.6707-1.2407-1.2349 0-2.5805l9.7357-9.7357" fill="none" stroke="#808080" stroke-width=".33852px"/><path d="m187.1 399.09v-15.806l5.7407-5.7407h15.806l5.7402 5.7407v15.806l-5.7402 5.7407h-15.806z" opacity=".99" stroke-width=".48359"/><g transform="matrix(.48359 0 0 .48359 121.25 194.83)" fill="none" stroke="#808080" stroke-linejoin="round" stroke-width="1.05"><circle cx="164.39" cy="406.04" r="26.841" opacity=".99"/><circle cx="164.39" cy="406.04" r="20.682" opacity=".99"/><circle cx="164.39" cy="406.04" r="15.941" opacity=".99"/></g><circle cx="200.75" cy="391.19" r="5.3074" fill="#ececec" opacity=".99" stroke-width=".48359"/><path d="m189.43 380.23 9.9112 9.6182c0.48422 0.6707 1.2406 1.2349 0 2.5805l-9.7357 9.7357" fill="none" stroke="#808080" stroke-width=".33852px"/><path d="m212.06 402.16-9.9112-9.6182c-0.48422-0.6707-1.2407-1.2349 0-2.5805l9.7357-9.7357" fill="none" stroke="#808080" stroke-width=".33852px"/><rect x="70.536" y="378.13" width="53.852" height="27.028" rx="1.6174" ry="1.6174" fill="#ececec" stroke="#e7e7e7" stroke-linejoin="round" stroke-width=".47642"/><path d="m89.476 387.66h-15.828v13.125h15.828z" fill="#3a3a3a"/><path d="m88.316 399.41v-1.4141h-3.291v1.4141zm-10.211-8e-3v-1.4062h-3.2617v1.4062z" fill="#abb927"/><path d="m88.016 397.47h-3.3035l6e-3 2.0016-1.2023 9.4e-4v0.7494h-3.8752l9.1e-4 -0.75138h-1.2514v-2.0016h-3.2884v-8.6175l12.914-0.028z" fill="#1a1a1a"/><path d="m73.656 387.66-4e-3 13.126 5.2866 2e-3v-1.2624l-4.2497 2e-3v-1.6342l0.41943-0.0131 1e-3 -9.0326 12.915-0.0239 9.1e-4 9.0566 0.41942 0.0131v1.6342l-4.2244-2e-3v1.2624l5.2617-2e-3 -4e-3 -13.124z" fill="#f9f9f9"/><path d="m101.56 390c0.6005 0 0.87402 0.2704 0.87402 0.56389v1.2371c0 0.43207-1.3157 1.0298-2.2888 1.0298h-4.6371c-0.31518 0-2.0028-0.60234-2.0028-1.0625v-1.2366c0-0.36682 0.57454-0.53963 0.89861-0.53171z" fill="#f9f9f9"/><path d="m101.25 390.19c0.70034-0.0235 0.77491 0.24709 0.77491 0.51695v1.1248c0 0.28222-1.0963 0.80728-1.9568 0.80728h-4.3449c-0.30819 0-1.7691-0.57231-1.8046-0.83564v-1.1249c0-0.32517 0.46752-0.49559 0.6095-0.49204z" fill="#1d1d1d" stroke-width="1.8802"/><path d="m95.996 390.89c-0.26656 0-0.45733 0.11228-0.45733 0.24071v0.59047c0.26309 0.29347 0.68364 0.45864 1.1043 0.45864h2.496c0.52585 0.0226 1.2164-0.26879 1.2333-0.42666v-0.60696c0-0.14761-1e-3 -0.25622-0.43196-0.25622z" fill="#404040" stroke-width="1.8802"/><path d="m96.066 391.21v0.4414h0.35547v-0.4414zm0.84375 0v0.4414h0.35547v-0.4414zm0.89453 0v0.4414h0.35547v-0.4414zm0.89648 0v0.4414h0.35352v-0.4414zm0.86914 0v0.4414h0.35352v-0.4414z" fill="#070707"/><rect x="107.11" y="388.09" width="12.515" height="11.556" fill="#b3b3b3" opacity=".99"/><path d="m119.16 395.61h-2.0655l5e-3 3.3588h-7.456v-3.3599h-2.0518v-6.8251l11.567-0.0251z" stroke-width="1.6829"/><path d="m96.796 398.05c0.0423 0.48534 0.47118 0.35674 0.72661 0.25781v0.15738c-0.60535 0.20747-0.89638-0.0404-0.90037-0.44512 0.0346-0.78209 1.0234-0.65776 0.93929 0.0299zm0.59903-0.13044c0-0.46355-0.59406-0.33143-0.59361 7.8e-4z" stroke-width="1.7724px"/><path d="m96.266 397.95c0.12605 0.16625 0.1925 0.35456 0.2977 0.54835h-0.19636c-0.19287-0.4432-0.30314-0.52664-0.30314-0.52664-0.11866-0.0739-0.23377-0.028-0.3701-0.0443v0.57098h-0.18278v-1.351h0.41262c0.62762 0 0.44123 0.72902 0.22801 0.71759 0.0514 0.0234 0.0824 0.0455 0.11405 0.085zm-0.57189-0.65245v0.47958h0.22984c0.41796 0 0.34396-0.47956 0-0.47956z" stroke-width="1.7724px"/><path d="m98.466 397.68c-0.45982-0.17528-0.55198 0.0234-0.55198 0.0756 0 0.23661 0.60627 0.0774 0.60627 0.47047 0 0.3532-0.4209 0.33778-0.77457 0.24302v-0.17192c0.28798 0.16624 0.60356 0.10656 0.60356-0.0579 0-0.27464-0.59633-0.0544-0.59633-0.47298 0-0.39313 0.50516-0.29505 0.71306-0.24364z" stroke-width="1.7723px"/><path d="m100.06 397.21v0.28775h0.34296v0.12938h-0.34296v0.55017c0 0.17227 0.0392 0.19461 0.17192 0.19461h0.17104v0.1393h-0.17104c-0.32812 0-0.32843-0.17174-0.33932-0.33384v-0.55017h-0.12215v-0.12939h0.12215v-0.28774z" stroke-width="1.7723px"/><path d="m98.856 398.05c0.0423 0.48534 0.47118 0.35674 0.72661 0.25781v0.15738c-0.60535 0.20747-0.89638-0.0404-0.90037-0.44512 0.0346-0.78209 1.0234-0.65776 0.93929 0.0299zm0.59903-0.13044c0-0.46355-0.59406-0.33143-0.59361 7.8e-4z"/><ellipse cx="97.966" cy="395.78" rx=".72969" ry=".73078" stroke-width="1.8802"/><g transform="rotate(90 160.36 343.14)" fill="#666"><path d="m203.32 406.61v-0.44911h-6.0667l6.0667-2.6704v-0.44912h-6.8973v0.44912h5.7213l-5.7213 2.5126v0.60691z"/><path d="m202.39 400.69c-0.28 0-0.45174 0.0373-0.63094 0.13813-0.32853 0.18293-0.53013 0.5376-0.53013 0.9296 0 0.5936 0.46667 1.0565 1.0603 1.0565 0.6048 0 1.0789-0.47413 1.0789-1.0789 0-0.44427-0.28747-0.84373-0.72053-0.99307v0.28747c0.28 0.11573 0.46666 0.4032 0.46666 0.71307 0 0.42186-0.32106 0.7728-0.72426 0.7952zm-0.25014 1.8405c-0.392-0.0747-0.65706-0.38453-0.65706-0.7728 0-0.39573 0.2464-0.6944 0.65706-0.79147z"/><path d="m203.32 400.14v-0.27626h-1.792v-0.4592h-0.25014v0.4592h-0.7168v0.27626h0.7168v0.44054h0.25014v-0.44054z"/><path d="m203.32 399.27v-0.44912h-6.1413l6.1413-1.6812v-0.38843l-6.1413-1.6872h6.1413v-0.44912h-6.8973v0.69795l5.8707 1.6265-5.8707 1.6326v0.69796z"/><path d="m201.27 392.17v0.27627h0.36214c-0.28374 0.20533-0.41067 0.45173-0.41067 0.8064 0 0.61227 0.46293 1.0752 1.0752 1.0752s1.064-0.46667 1.064-1.0976c0-0.3472-0.112-0.56373-0.40693-0.784h0.3584v-0.27627zm0.20534 1.0752c0-0.45173 0.35093-0.79893 0.8064-0.79893 0.46666 0 0.82506 0.34347 0.82506 0.784 0 0.46293-0.36213 0.8176-0.8288 0.8176-0.44426 0-0.80266-0.3584-0.80266-0.80267z"/><path d="m203.32 391.7v-0.27627h-1.1237c-0.22773 0-0.3472-0.0299-0.46293-0.10827-0.1568-0.10826-0.25013-0.29866-0.25013-0.5152 0-0.56674 0.3608-0.63093 0.76533-0.63093h1.0715v-0.27627h-1.0715c-0.77088 0-1.0192 0.30375-1.0192 0.8736 0 0.2688 0.1008 0.48534 0.3136 0.65707h-0.26507v0.27627z"/><path d="m203.32 389.48v-2.6264h-0.3752v2.0664l-1.2712-1.3272c-0.5544-0.5824-0.8624-0.7616-1.3048-0.7616-0.7336 0-1.26 0.5488-1.26 1.3048 0 0.5768 0.3024 1.0304 0.8064 1.2208 0.196 0.0728 0.3136 0.0896 0.6048 0.0896v-0.4088c-0.2576 0-0.42-0.0336-0.5712-0.1064-0.2912-0.1456-0.4648-0.4368-0.4648-0.7896 0-0.5208 0.3584-0.896 0.8624-0.896 0.59371 0.0823 0.60294 0.18854 1.1984 0.784l1.4 1.4504z"/><path d="m203.32 381.29v-0.4088h-0.756v-0.3808h-0.3752v0.3808h-3.0072v0.4872l3.0072 2.016h0.3752v-2.0944zm-1.1312 0v1.6184l-2.436-1.6184z"/><path d="m201.81 386.39c1.0513 0.0225 1.5792-0.49241 1.5792-1.4168s-0.51949-1.3552-1.5792-1.3552h-1.176c-1.0145-9e-3 -1.5206 0.55641-1.5288 1.3888-8e-3 0.83239 0.52097 1.3832 1.5288 1.3832zm-0.0672-2.3632c0.63893 0 1.2712 0.11449 1.2712 0.9632s-0.64614 0.9912-1.2712 0.9912h-1.0136c-0.78668 0-1.2488-0.26139-1.2488-0.98s0.45424-0.9744 1.2488-0.9744z"/></g><rect x="130.84" y="382.51" width="13.683" height="19.011" rx=".7" ry=".7" fill="#1a1a1a" opacity=".99" stroke="#000" stroke-linejoin="round" stroke-width=".28"/><path d="m132.12 400.06h7.0136l4.1032-4.0958v-7.6688l-4.3417-4.3342h-6.775z" stroke="#666" stroke-width=".1876"/><g fill="#ccc"><path d="m141.71 392.77v-1.4286h-3.3875v1.4286z"/><path d="m137.04 387.63v-1.4286h-3.3875v1.4286z"/><path d="m137.04 397.82v-1.4287h-3.3875v1.4287z"/></g><g transform="matrix(.74667 0 0 .74667 189.77 197.32)" stroke="#333" stroke-width=".067244"><g transform="translate(-21.189 -6.7388)"><path d="m189.01 272.01v-2.0135l-1.7484-1.0068-1.7484 1.0738v2.0135l1.7484 1.0077z" fill="#b3b3b3"/><path d="m188.61 271.03c0 0.75957-0.60197 1.3766-1.3446 1.3766-0.74258 0-1.3446-0.61707-1.3446-1.3766 0-0.75955 0.60197-1.3757 1.3446-1.3757 0.74259 0 1.3446 0.61613 1.3446 1.3757z" fill="#ddd"/><path d="m187.73 271.03c0 0.2406-0.21132 0.43687-0.47081 0.43687-0.25948 0-0.47084-0.19627-0.47084-0.43687s0.21136-0.43591 0.47084-0.43591c0.25949 0 0.47081 0.19531 0.47081 0.43591z" fill="#a4a4a4"/></g><g transform="translate(-.18874 -6.7388)"><path d="m189.01 272.01v-2.0135l-1.7484-1.0068-1.7484 1.0738v2.0135l1.7484 1.0077z" fill="#b3b3b3"/><path d="m188.61 271.03c0 0.75957-0.60197 1.3766-1.3446 1.3766-0.74258 0-1.3446-0.61707-1.3446-1.3766 0-0.75955 0.60197-1.3757 1.3446-1.3757 0.74259 0 1.3446 0.61613 1.3446 1.3757z" fill="#ddd"/><path d="m187.73 271.03c0 0.2406-0.21132 0.43687-0.47081 0.43687-0.25948 0-0.47084-0.19627-0.47084-0.43687s0.21136-0.43591 0.47084-0.43591c0.25949 0 0.47081 0.19531 0.47081 0.43591z" fill="#a4a4a4"/></g></g><path d="m317.31 392.01h8.5932c0.70764 0 1.4463 0.59017 1.2773 1.2773l-0.76867 3.1263c-0.16896 0.68718-0.56968 0.89301-1.2773 0.89301h-7.0559c-0.70764 0-1.1084-0.20583-1.2773-0.89301l-0.76867-3.1263c-0.16896-0.68717 0.56969-1.2773 1.2773-1.2773z" fill="#ececec" fill-rule="evenodd" stroke="#000" stroke-linecap="round" stroke-width=".0889"/><path d="m317.45 392.14h8.3215c0.68526 0 1.4005 0.56165 1.2369 1.2156l-0.74436 2.9752c-0.16362 0.65398-0.55166 0.84986-1.2369 0.84986h-6.8328c-0.68525 0-1.0733-0.19588-1.2369-0.84986l-0.74437-2.9752c-0.16361-0.65398 0.55167-1.2156 1.2369-1.2156z" fill="#666" fill-rule="evenodd" stroke="#000" stroke-linecap="round" stroke-width=".018448"/><g transform="matrix(.74667 0 0 .74667 190.3 197.47)" stroke="#000" stroke-width=".067244"><path d="m182.01 262.62c0 0.27834-0.2255 0.50385-0.50383 0.50385-0.27837 0-0.50481-0.22551-0.50481-0.50385 0-0.27739 0.22644-0.50384 0.50481-0.50384 0.27833 0 0.50383 0.22645 0.50383 0.50384z"/><path d="m170.78 262.62c0 0.27834-0.24155 0.50385-0.53781 0.50385-0.29722 0-0.53782-0.22551-0.53782-0.50385 0-0.27739 0.2406-0.50384 0.53782-0.50384 0.29626 0 0.53781 0.22645 0.53781 0.50384z"/><path d="m173.62 262.62c0 0.27834-0.2406 0.50385-0.53784 0.50385-0.29719 0-0.53779-0.22551-0.53779-0.50385 0-0.27739 0.2406-0.50384 0.53779-0.50384 0.29724 0 0.53784 0.22645 0.53784 0.50384z"/><path d="m176.46 262.62c0 0.27834-0.2406 0.50385-0.53782 0.50385-0.2972 0-0.53782-0.22551-0.53782-0.50385 0-0.27739 0.24062-0.50384 0.53782-0.50384 0.29722 0 0.53782 0.22645 0.53782 0.50384z"/><path d="m179.24 262.62c0 0.27834-0.2255 0.50385-0.50385 0.50385s-0.50479-0.22551-0.50479-0.50385c0-0.27739 0.22644-0.50384 0.50479-0.50384s0.50385 0.22645 0.50385 0.50384z"/><path d="m172.17 265.57c0 0.27834-0.22552 0.50385-0.50385 0.50385-0.27835 0-0.50481-0.22551-0.50481-0.50385 0-0.27741 0.22646-0.5029 0.50481-0.5029 0.27833 0 0.50385 0.22549 0.50385 0.5029z"/><path d="m175.01 265.57c0 0.27834-0.22551 0.50385-0.50386 0.50385-0.27834 0-0.5048-0.22551-0.5048-0.50385 0-0.27741 0.22646-0.5029 0.5048-0.5029 0.27835 0 0.50386 0.22549 0.50386 0.5029z"/><path d="m177.85 265.57c0 0.27834-0.22644 0.50385-0.50479 0.50385s-0.50385-0.22551-0.50385-0.50385c0-0.27741 0.2255-0.5029 0.50385-0.5029s0.50479 0.22549 0.50479 0.5029z"/><path d="m180.62 265.57c0 0.27834-0.22646 0.50385-0.50481 0.50385-0.27833 0-0.50385-0.22551-0.50385-0.50385 0-0.27741 0.22552-0.5029 0.50385-0.5029 0.27835 0 0.50481 0.22549 0.50481 0.5029z"/></g><path class="st1" d="m341.15 392.72c-0.16338 0-0.39209 0.0817-0.50645 0.19604l-0.94754 0.89853c-0.1144 0.1144-0.21238 0.32674-0.21238 0.47377v4.2803c0 0.31039 0.27773 0.57179 0.60447 0.57179h6.306c0.32675 0 0.60447-0.2614 0.60447-0.57179v-4.2803c0-0.16336-0.098-0.37574-0.21238-0.4901l-0.94754-0.89854c-0.1144-0.1144-0.34307-0.19604-0.50645-0.19604z" fill="#1a1a1a" stroke="#e6e6e6" stroke-miterlimit="10" stroke-width=".081685"/><rect x="340.41" y="395.04" width="5.4892" height="2.1715" fill="#b3b3b3" opacity=".99" stroke="#666" stroke-width=".069101"/></svg>
