<svg width="450" height="43.5" version="1.1" viewBox="66 376 315 30.45" xmlns="http://www.w3.org/2000/svg" xmlns:xlink="http://www.w3.org/1999/xlink"><defs><linearGradient id="linearGradient2563"><stop stop-color="#1a1a1a" offset="0"/><stop stop-color="#939393" stop-opacity=".84914" offset="1"/></linearGradient><linearGradient id="linearGradient2569" x1="180.53" x2="180.46" y1="341.92" y2="370.92" gradientTransform="translate(-10.86,32.699)" gradientUnits="userSpaceOnUse" xlink:href="#linearGradient2563"/><linearGradient id="linearGradient2579-3" x1="101.42" x2="102.39" y1="406.19" y2="406.19" gradientTransform="translate(-5.5529,-30.599)" gradientUnits="userSpaceOnUse" xlink:href="#linearGradient2563"/><linearGradient id="linearGradient2579-35" x1="101.42" x2="102.39" y1="406.19" y2="406.19" gradientTransform="translate(1.2652 -30.599)" gradientUnits="userSpaceOnUse" xlink:href="#linearGradient2563"/><linearGradient id="linearGradient2579-1" x1="101.42" x2="102.39" y1="406.19" y2="406.19" gradientTransform="translate(8.0832,-30.599)" gradientUnits="userSpaceOnUse" xlink:href="#linearGradient2563"/><linearGradient id="linearGradient2579-9" x1="101.42" x2="102.39" y1="406.19" y2="406.19" gradientTransform="translate(14.901 -30.599)" gradientUnits="userSpaceOnUse" xlink:href="#linearGradient2563"/><linearGradient id="linearGradient2579-2" x1="101.42" x2="102.39" y1="406.19" y2="406.19" gradientTransform="translate(21.719 -30.599)" gradientUnits="userSpaceOnUse" xlink:href="#linearGradient2563"/><linearGradient id="linearGradient2579-7" x1="101.42" x2="102.39" y1="406.19" y2="406.19" gradientTransform="translate(28.537 -30.599)" gradientUnits="userSpaceOnUse" xlink:href="#linearGradient2563"/><linearGradient id="linearGradient2579-37" x1="101.42" x2="102.39" y1="406.19" y2="406.19" gradientTransform="translate(35.355 -30.599)" gradientUnits="userSpaceOnUse" xlink:href="#linearGradient2563"/><linearGradient id="linearGradient2579-28" x1="101.42" x2="102.39" y1="406.19" y2="406.19" gradientTransform="translate(42.173 -30.599)" gradientUnits="userSpaceOnUse" xlink:href="#linearGradient2563"/><linearGradient id="linearGradient2579-6" x1="101.42" x2="102.39" y1="406.19" y2="406.19" gradientTransform="translate(48.991 -30.599)" gradientUnits="userSpaceOnUse" xlink:href="#linearGradient2563"/><linearGradient id="linearGradient2579-19" x1="101.42" x2="102.39" y1="406.19" y2="406.19" gradientTransform="translate(55.809 -30.599)" gradientUnits="userSpaceOnUse" xlink:href="#linearGradient2563"/><linearGradient id="linearGradient2579-5" x1="101.42" x2="102.39" y1="406.19" y2="406.19" gradientTransform="translate(62.627 -30.599)" gradientUnits="userSpaceOnUse" xlink:href="#linearGradient2563"/><linearGradient id="linearGradient2579-10" x1="101.42" x2="102.39" y1="406.19" y2="406.19" gradientTransform="translate(69.445 -30.599)" gradientUnits="userSpaceOnUse" xlink:href="#linearGradient2563"/><linearGradient id="linearGradient2579-61" x1="101.42" x2="102.39" y1="406.19" y2="406.19" gradientTransform="translate(76.263 -30.599)" gradientUnits="userSpaceOnUse" xlink:href="#linearGradient2563"/><linearGradient id="linearGradient2579-76" x1="101.42" x2="102.39" y1="406.19" y2="406.19" gradientTransform="translate(83.081 -30.599)" gradientUnits="userSpaceOnUse" xlink:href="#linearGradient2563"/><linearGradient id="linearGradient2579-4" x1="101.42" x2="102.39" y1="406.19" y2="406.19" gradientTransform="translate(89.899 -30.599)" gradientUnits="userSpaceOnUse" xlink:href="#linearGradient2563"/><linearGradient id="linearGradient2579-74" x1="101.42" x2="102.39" y1="406.19" y2="406.19" gradientTransform="translate(96.717 -30.599)" gradientUnits="userSpaceOnUse" xlink:href="#linearGradient2563"/><linearGradient id="linearGradient2579-8" x1="101.42" x2="102.39" y1="406.19" y2="406.19" gradientTransform="translate(103.54 -30.599)" gradientUnits="userSpaceOnUse" xlink:href="#linearGradient2563"/><linearGradient id="linearGradient2579-14" x1="101.42" x2="102.39" y1="406.19" y2="406.19" gradientTransform="translate(110.35 -30.599)" gradientUnits="userSpaceOnUse" xlink:href="#linearGradient2563"/><linearGradient id="linearGradient2579-92" x1="101.42" x2="102.39" y1="406.19" y2="406.19" gradientTransform="translate(117.17 -30.599)" gradientUnits="userSpaceOnUse" xlink:href="#linearGradient2563"/><linearGradient id="linearGradient2579-50" x1="101.42" x2="102.39" y1="406.19" y2="406.19" gradientTransform="translate(123.99 -30.599)" gradientUnits="userSpaceOnUse" xlink:href="#linearGradient2563"/><linearGradient id="linearGradient2579-17" x1="101.42" x2="102.39" y1="406.19" y2="406.19" gradientTransform="translate(130.81 -30.599)" gradientUnits="userSpaceOnUse" xlink:href="#linearGradient2563"/></defs><rect x="66" y="376" width="315" height="30.45" fill="#333"/><g fill="none"><g stroke-width="1.4"><path d="m96.133 378.72v25.188" stroke="url(#linearGradient2579-3)"/><path d="m102.95 378.72v25.188" stroke="url(#linearGradient2579-35)"/><path d="m109.77 378.72v25.188" stroke="url(#linearGradient2579-1)"/><path d="m116.59 378.72v25.188" stroke="url(#linearGradient2579-9)"/><path d="m123.41 378.72v25.188" stroke="url(#linearGradient2579-2)"/><path d="m130.22 378.72v25.188" stroke="url(#linearGradient2579-7)"/><path d="m137.04 378.72v25.188" stroke="url(#linearGradient2579-37)"/><path d="m143.86 378.72v25.188" stroke="url(#linearGradient2579-28)"/><path d="m150.68 378.72v25.188" stroke="url(#linearGradient2579-6)"/><path d="m157.5 378.72v25.188" stroke="url(#linearGradient2579-19)"/><path d="m164.31 378.72v25.188" stroke="url(#linearGradient2579-5)"/><path d="m171.13 378.72v25.188" stroke="url(#linearGradient2579-10)"/><path d="m177.95 378.72v25.188" stroke="url(#linearGradient2579-61)"/><path d="m184.77 378.72v25.188" stroke="url(#linearGradient2579-76)"/><path d="m191.59 378.72v25.188" stroke="url(#linearGradient2579-4)"/><path d="m198.4 378.72v25.188" stroke="url(#linearGradient2579-74)"/><path d="m205.22 378.72v25.188" stroke="url(#linearGradient2579-8)"/><path d="m212.04 378.72v25.188" stroke="url(#linearGradient2579-14)"/><path d="m218.86 378.72v25.188" stroke="url(#linearGradient2579-92)"/><path d="m225.68 378.72v25.188" stroke="url(#linearGradient2579-50)"/><path d="m232.49 378.72v25.188" stroke="url(#linearGradient2579-17)"/></g><path d="m97.712 378.58h154.86v25.278h-154.86c-3.878 0-6.759-3.1295-7-7-0.88832-14.267-2.2201 2.6775 0-11.278 0.60926-3.8298 3.122-7 7-7z" opacity=".99" stroke="url(#linearGradient2569)" stroke-width="1.2523"/></g><path d="m377.42 377.02h-125.04v28.408h125.04z" fill="#1a1a1a" opacity=".99" stroke="#000" stroke-width=".2917"/><g transform="translate(2.4446 12.247)"><circle cx="266.39" cy="378.98" r="5.7475" fill="#1a1a1a" opacity=".99" stroke="#000" stroke-width=".84"/><circle cx="266.39" cy="378.98" r="3.174" fill="none" opacity=".99" stroke="#fff" stroke-opacity=".84914" stroke-width=".7"/><path d="m264.57 378.98h3.6395" fill="none" stroke="#fff" stroke-width=".7px"/></g><rect transform="rotate(-90)" x="-402.47" y="329.05" width="22.49" height="40.833" fill="#ccc" opacity=".99" stroke="#333" stroke-width=".4123"/><g fill="#fff" stroke="#000" stroke-width=".4123"><rect x="284.23" y="386.59" width="2.7451" height="9.2647" opacity=".99"/><rect x="298.77" y="386.59" width="2.7451" height="9.2647" opacity=".99"/><rect x="313.31" y="386.59" width="2.7451" height="9.2647" opacity=".99"/></g><g transform="rotate(-90 281.91 388.3)" fill="#fff" stroke-width=".7"><path d="m286.25 389.7q0.65334 0 1.0043 0.28747 0.35467 0.28747 0.35467 0.82133 0 0.28-0.0971 0.48907t-0.27627 0.3472q-0.1792 0.13813-0.42933 0.20533t-0.55627 0.0672q-0.65333 0-1.008-0.2912-0.35093-0.28746-0.35093-0.8176 0-0.28373 0.0971-0.4928 0.0971-0.20906 0.27626-0.3472 0.1792-0.1344 0.42934-0.2016 0.25013-0.0672 0.55626-0.0672zm0 0.5376q-0.19786 0-0.36586 0.0336-0.16427 0.0336-0.28374 0.1008-0.11946 0.0709-0.18666 0.1792-0.0672 0.10827-0.0672 0.2576 0 0.27254 0.2128 0.42187t0.69066 0.14933q0.1904 0 0.35467-0.0336 0.16427-0.0299 0.28747-0.0971t0.1904-0.17547q0.0709-0.10827 0.0709-0.26507 0-0.27253-0.22027-0.42186-0.21653-0.14934-0.6832-0.14934z"/><path d="m286.31 392.93 0.41067-0.20533v-0.0187l-0.41067 0.0597h-1.3627v-0.48533h2.632v0.37333l-1.3925 0.98934-0.39946 0.19786v0.0187l0.39946-0.0597h1.3739v0.48533h-2.632v-0.37333z"/></g><g transform="rotate(-90 297.66 388.96)" fill="#fff" stroke-width=".7"><path d="m302.06 389.85q0.11946 0 0.19413-0.0896 0.0747-0.0859 0.1344-0.22026 0.0635-0.13067 0.12693-0.28747 0.0672-0.15307 0.16054-0.28747 0.0971-0.13066 0.23893-0.22026 0.14187-0.0859 0.36213-0.0859 0.1904 0 0.32854 0.0635 0.14186 0.0635 0.2352 0.1792 0.0933 0.11946 0.13813 0.28 0.0448 0.16053 0.0448 0.3584 0 0.22773-0.0411 0.42933-0.0373 0.2016-0.112 0.33227l-0.42933-0.16054q0.0523-0.0821 0.0933-0.2464 0.0448-0.16426 0.0448-0.35466 0-0.1792-0.0709-0.27627-0.0709-0.0933-0.1904-0.0933-0.112 0-0.18667 0.0859-0.0747 0.0896-0.13813 0.22027-0.0635 0.1344-0.13067 0.28747-0.0672 0.1568-0.16426 0.28746-0.0933 0.1344-0.2352 0.22027-0.13814 0.0896-0.3472 0.0896-0.20907 0-0.36214-0.0709-0.14933-0.0672-0.25013-0.19414-0.1008-0.1232-0.14933-0.3024-0.0485-0.17546-0.0485-0.38826 0-0.28 0.0523-0.4928t0.10453-0.3136l0.4368 0.16426q-0.0224 0.0411-0.0485 0.10454-0.0261 0.0672-0.0485 0.14933-0.0224 0.0821-0.0373 0.17173-0.0149 0.0933-0.0149 0.1904 0 0.22774 0.0747 0.3472 0.0784 0.1232 0.2352 0.1232z"/><path d="m303.97 390.7v1.5493h-0.45546v-1.0379h-0.60854v0.94454h-0.45546v-0.94454h-0.6384v1.0565h-0.45547v-1.568z"/><path d="m301.36 394.3v-1.6539h2.6133v0.51147h-2.1579v1.1424z"/></g><g transform="rotate(-90 312.44 390.24)" fill="#fff" stroke-width=".7"><path d="m318.12 389.51q0.11946 0 0.19413-0.0896 0.0747-0.0859 0.1344-0.22026 0.0635-0.13067 0.12693-0.28747 0.0672-0.15307 0.16054-0.28747 0.0971-0.13066 0.23893-0.22026 0.14187-0.0859 0.36213-0.0859 0.1904 0 0.32854 0.0635 0.14186 0.0635 0.2352 0.1792 0.0933 0.11946 0.13813 0.28 0.0448 0.16053 0.0448 0.3584 0 0.22773-0.0411 0.42933-0.0373 0.2016-0.112 0.33227l-0.42933-0.16054q0.0523-0.0821 0.0933-0.2464 0.0448-0.16426 0.0448-0.35466 0-0.1792-0.0709-0.27627-0.0709-0.0933-0.1904-0.0933-0.112 0-0.18667 0.0859-0.0747 0.0896-0.13813 0.22027-0.0635 0.1344-0.13067 0.28747-0.0672 0.1568-0.16426 0.28746-0.0933 0.1344-0.2352 0.22027-0.13814 0.0896-0.3472 0.0896-0.20907 0-0.36214-0.0709-0.14933-0.0672-0.25013-0.19414-0.1008-0.1232-0.14933-0.3024-0.0485-0.17546-0.0485-0.38826 0-0.28 0.0523-0.4928t0.10453-0.3136l0.4368 0.16426q-0.0224 0.0411-0.0485 0.10454-0.0261 0.0672-0.0485 0.14933-0.0224 0.0821-0.0373 0.17173-0.0149 0.0933-0.0149 0.1904 0 0.22774 0.0747 0.3472 0.0784 0.1232 0.2352 0.1232z"/><path d="m319.57 392.21v-0.7616h-2.1579v-0.51146h2.1579v-0.76534h0.45546v2.0384z"/><path d="m319.42 394.24q-0.0971 0-0.19413-0.0261-0.0971-0.0224-0.1792-0.0784-0.0784-0.056-0.14187-0.1456-0.0597-0.0896-0.0896-0.21653h-0.0224q-0.0187 0.112-0.0635 0.2128t-0.1232 0.17546q-0.0784 0.0747-0.1904 0.11574-0.112 0.0448-0.26506 0.0448-0.2016 0-0.35094-0.0859-0.1456-0.0859-0.23893-0.23147-0.0933-0.14186-0.13813-0.3248-0.0448-0.18293-0.0448-0.37706 0-0.0635 0-0.16427 0-0.0971 7e-3 -0.2128 4e-3 -0.112 0.0149-0.23147 0.0112-0.11573 0.0336-0.2128h2.576q0.0112 0.0709 0.0224 0.16054 0.0112 0.0933 0.0187 0.19786 7e-3 0.10454 0.0112 0.2128 4e-3 0.112 4e-3 0.22027 0 0.18293-0.0299 0.35467-0.0261 0.17546-0.0971 0.30986-0.0709 0.13814-0.19786 0.22027-0.12694 0.0821-0.32107 0.0821zm-1.6203-0.93333q0 0.0933 0.0224 0.1792 0.0224 0.0896 0.0672 0.1568 0.0485 0.0672 0.11947 0.10827 0.0709 0.0411 0.168 0.0411 0.1232 0 0.19413-0.0485 0.0709-0.0485 0.10827-0.12693 0.0411-0.0784 0.0523-0.17547 0.0112-0.0971 0.0112-0.19413v-0.27254h-0.72054q-7e-3 0.0187-0.0112 0.0597-4e-3 0.0411-7e-3 0.0859 0 0.0485-4e-3 0.0971 0 0.0523 0 0.0896zm1.1312-0.168q0 0.0523 4e-3 0.11947 4e-3 0.0709 0.0112 0.11573 0.0448 0.14187 0.1344 0.24267 0.0896 0.10453 0.2352 0.10453 0.0971 0 0.16053-0.0373 0.0635-0.0373 0.1008-0.1008 0.0373-0.0597 0.0523-0.13814 0.0149-0.0784 0.0149-0.16426 0-0.0971-4e-3 -0.1792t-0.0112-0.12694h-0.69814z"/><path d="m318.39 395.31 1.6427-0.85867v0.60853l-0.98186 0.47787-0.27627 0.0523v0.0187l0.28373 0.056 0.9744 0.46294v0.5488l-1.6389-0.85494h-0.9744v-0.51146z"/></g><path d="m76.053 384.89 176.32-7.8642v28.408l-176.32-6.5678c-2.9054-0.15919-3.2648-13.966 0-13.976z" fill="#1a1a1a" opacity=".99" stroke="#000" stroke-width=".4123"/><rect x="90.195" y="385.96" width="9.3823" height="9.3823" fill="none" opacity=".99" stroke="#fff" stroke-width=".2457"/><g fill="#fff"><path d="m91.382 387.06c0.78135 0.53774 0.56699 1.3244 0.68714 2.0275 2.031-0.56705 4.7873-1.1976 5.0474-0.61927 0.95956 2.1332-4.101 4.4779-3.6647 6.9985 0.20853 1.7923 3.1531 2.7685 5.9636 2.477-3.2726-0.3566-4.3448-1.4607-3.9409-2.6841 0.8788-2.5762 2.9704-5.2476 2.6091-6.5963-0.61042-2.2782-4.059-1.682-6.7016-1.6033z" stroke="#333" stroke-width=".10157"/><path d="m124.82 392.06c0-0.67814 0.64517-1.0942 1.3215-1.0942 0.67637 0 1.3215 0.54245 1.3215 1.0942v2.1882c0 0.58452-0.58131 1.0505-1.0566 1.0511h-0.75965v1.7383h-0.8268zm1.7881 2.1882v-2.1882c0-0.1108-0.0435-0.25641-0.4831-0.25641-0.43965 0-0.48311 0.18041-0.48311 0.25641v2.363h0.7646c0.14942 4e-3 0.20161-0.0859 0.20161-0.1748zm-25.708-3.0004c0-1.1781 0.50689-2.2214 2.0133-2.2214h0.61724v1.3153h-0.45975c-0.60817 0-0.85552 0.38934-0.85552 0.90611v4.1158h-1.3153zm3.348-2.2214h1.4348v6.3372h-1.4348zm2.2847 4.807v-3.0995c0.037-1.263 0.71584-1.684 1.9651-1.684s1.8482 0.50037 1.8482 1.684v2.1187h-2.511v0.79342c0 0.6258 1.1948 0.81729 1.1957-0.19558h1.3452c0 1.5465-1.2568 1.8907-2.0279 1.913-1.1932 0-1.8153-0.86603-1.8153-1.5301zm2.4981-2.7118c0-0.44292-0.1664-0.65748-0.59785-0.65748-0.43144 0-0.59784 0.25116-0.59784 0.61514v0.45808h1.1957zm2.1522-4.6062h1.3153v8.8481h-1.3153zm2.0924-1e-4 1.375 1e-4v8.8481h-1.3096zm2.268 7.0894v-3.0193c0-0.77954 0.68159-1.536 1.906-1.536s1.9136 0.86105 1.906 1.536v3.0193c0 0.66506-0.43647 1.7554-1.906 1.7554s-1.9392-0.92832-1.906-1.7554zm2.485-3.0193c-0.0645-0.24087-0.32265-0.36754-0.61805-0.36754-0.29538 0-0.60764 0.16175-0.60764 0.36754v3.0193c0 0.26762 0.37247 0.49902 0.63211 0.50414 0.25964 5e-3 0.59358-0.25817 0.59358-0.50414zm3.318 3.5287v-3.1746h0.95655v3.1746c0 0.19383 0.16349 0.29124 0.37183 0.29124s0.37182-0.10056 0.37182-0.29124v-3.1746h0.99014l0.0333 3.1746c0 0.57874-0.3648 1.1865-1.3618 1.1865-0.99701 0-1.3658-0.72258-1.3618-1.1865zm6.9519-0.0107h0.79389c0 0.47966 0.98172 0.63891 0.98172-0.0942 0-0.3922-0.25441-0.49062-0.69615-0.49062-0.70109 0-1.1113-0.7165-1.1113-1.2521 0-0.80129 0.53398-1.3272 1.3244-1.3272s1.3212 0.71798 1.3212 1.2577h-0.87478c0-0.53335-0.92299-0.52319-0.92299 0.0695 0 0.59272 0.52814 0.50154 0.52814 0.50154 0.84846 0 1.2786 0.51982 1.2786 1.2412 0 0.72142-0.52834 1.2965-1.3163 1.2965-0.78793 0-1.3064-0.54397-1.3064-1.2023zm-24.05-7.5882h1.4348v1.3152h-1.4348z"/><g stroke-width=".7"><path d="m157.9 392.46 0.1344 0.88853h0.0373l0.14933-0.896 1.0005-3.0613h1.0752l-1.9413 5.264h-0.73173l-1.9563-5.264h1.1872z"/><path d="m162.93 393.22q0-0.23893-0.1792-0.38827-0.17173-0.14933-0.44053-0.2688-0.26133-0.12693-0.57493-0.25386-0.30614-0.1344-0.57494-0.32107-0.26133-0.19413-0.44053-0.47787-0.17173-0.28373-0.17173-0.72426 0-0.3808 0.12693-0.65707 0.12693-0.28373 0.3584-0.4704 0.23893-0.18667 0.56-0.27627t0.7168-0.0896q0.45547 0 0.85867 0.0821 0.4032 0.0747 0.66453 0.224l-0.32107 0.85866q-0.16426-0.10453-0.4928-0.18666-0.32853-0.0896-0.70933-0.0896-0.3584 0-0.55253 0.14186-0.18667 0.14187-0.18667 0.3808 0 0.224 0.17173 0.37334 0.1792 0.14933 0.44054 0.27626 0.2688 0.12694 0.57493 0.26134 0.3136 0.1344 0.57493 0.32853 0.2688 0.18667 0.44054 0.4704 0.1792 0.27627 0.1792 0.6944t-0.14187 0.72427q-0.1344 0.29866-0.38827 0.50026-0.2464 0.2016-0.6048 0.29867-0.35093 0.0971-0.77653 0.0971-0.56 0-0.9856-0.10454-0.4256-0.10453-0.6272-0.20906l0.32853-0.8736q0.0821 0.0448 0.20907 0.0971 0.1344 0.0523 0.29867 0.0971 0.16426 0.0448 0.34346 0.0747 0.18667 0.0299 0.3808 0.0299 0.45547 0 0.6944-0.14933 0.2464-0.1568 0.2464-0.4704z"/><path d="m170.25 392.04h1.8741v0.85867h-1.8741z"/></g><g transform="translate(.2401)" aria-label="R"><path d="m164.6 389.47q0.17173-0.0299 0.36586-0.0523 0.2016-0.0299 0.39574-0.0448 0.2016-0.0149 0.38826-0.0224 0.18667-7e-3 0.34347-7e-3 0.36587 0 0.7168 0.0672 0.3584 0.0672 0.63467 0.23147 0.28373 0.16427 0.448 0.45547 0.17173 0.28373 0.17173 0.7168 0 0.64213-0.29867 1.0453-0.29866 0.4032-0.79893 0.56l0.36587 0.23147 1.1947 1.9936h-1.1797l-1.1872-2.0459-0.5376-0.0971v2.1429h-1.0229zm1.568 0.784q-0.1568 0-0.3136 7e-3 -0.14934 7e-3 -0.23147 0.0299v1.5157h0.43307q0.4256 0 0.67946-0.19413 0.25387-0.19413 0.25387-0.64213 0-0.336-0.20907-0.52267-0.20906-0.19413-0.61226-0.19413z" fill="#fff" stroke-width=".7"/></g><g transform="translate(1.1594 9.4854)" stroke-width=".7" aria-label="800"><path d="m172.45 383.75q0-0.26134 0.0672-0.46294 0.0672-0.20906 0.18667-0.37333 0.12693-0.17173 0.2912-0.30613 0.17173-0.1344 0.36587-0.2464-0.36587-0.23147-0.57494-0.53014-0.20906-0.30613-0.20906-0.75413 0-0.2912 0.10453-0.54507 0.112-0.25386 0.3136-0.44053 0.20907-0.18667 0.50027-0.2912t0.65706-0.10453q0.336 0 0.61227 0.0896t0.4704 0.25386q0.2016 0.16427 0.30613 0.4032 0.112 0.23147 0.112 0.5152 0 0.44054-0.2016 0.74667-0.19413 0.30613-0.57493 0.56 0.448 0.26133 0.672 0.57493 0.23147 0.3136 0.23147 0.8064 0 0.336-0.12694 0.61227-0.11946 0.2688-0.34346 0.46293-0.224 0.19414-0.5376 0.30614-0.3136 0.10453-0.68694 0.10453-0.37333 0-0.67946-0.10453-0.29867-0.0971-0.5152-0.27627-0.20907-0.1792-0.32854-0.43307-0.112-0.25386-0.112-0.56746zm2.4043-0.0971q0-0.17173-0.0821-0.3136t-0.21654-0.25387q-0.12693-0.11946-0.2912-0.21653-0.1568-0.0971-0.32106-0.18667-0.35094 0.2016-0.48534 0.44054-0.12693 0.23146-0.12693 0.46293 0 0.29867 0.2016 0.5152 0.20907 0.20907 0.57493 0.20907 0.336 0 0.5376-0.16427 0.20907-0.16427 0.20907-0.4928zm-1.3515-2.5611q0 0.1792 0.0672 0.3136t0.1792 0.23894q0.11947 0.0971 0.26134 0.18666 0.14933 0.0821 0.30613 0.1568 0.448-0.3808 0.448-0.83626 0-0.3136-0.18667-0.4704-0.1792-0.16427-0.44053-0.16427-0.32853 0-0.48533 0.17173-0.14934 0.17174-0.14934 0.4032z"/><path d="m176.53 382.41q0-1.3739 0.4704-2.0384 0.4704-0.672 1.3515-0.672 0.9408 0 1.3813 0.66453 0.44053 0.65707 0.44053 2.0459 0 1.3813-0.47786 2.0533-0.4704 0.672-1.3515 0.672-0.93333 0-1.3739-0.70187-0.44053-0.70933-0.44053-2.0235zm0.97067 0q0 0.91093 0.19413 1.4112 0.2016 0.4928 0.65707 0.4928 0.44053 0 0.64213-0.45547 0.20907-0.45547 0.20907-1.4485 0-0.90347-0.19414-1.3963-0.19413-0.4928-0.66453-0.4928-0.448 0-0.6496 0.46293-0.19413 0.46294-0.19413 1.4261z"/><path d="m180.76 382.41q0-1.3739 0.4704-2.0384 0.4704-0.672 1.3515-0.672 0.9408 0 1.3813 0.66453 0.44053 0.65707 0.44053 2.0459 0 1.3813-0.47787 2.0533-0.4704 0.672-1.3515 0.672-0.93334 0-1.3739-0.70187-0.44053-0.70933-0.44053-2.0235zm0.97066 0q0 0.91093 0.19414 1.4112 0.2016 0.4928 0.65706 0.4928 0.44054 0 0.64214-0.45547 0.20906-0.45547 0.20906-1.4485 0-0.90347-0.19413-1.3963t-0.66453-0.4928q-0.448 0-0.6496 0.46293-0.19414 0.46294-0.19414 1.4261z"/></g></g></svg>
