<svg width="440" height="44" version="1.1" viewBox="66 376 440 44" xmlns="http://www.w3.org/2000/svg">
 <rect x="66.33" y="376.33" width="439.34" height="43.341" fill="#2f2524" fill-rule="evenodd" stroke="#000" stroke-linecap="round" stroke-miterlimit="4.4" stroke-width=".65915" style="fill:#222220"/>
 <path d="m177.38 412.21 34.035-0.13304" style="fill:none;stroke-width:.23356;stroke:#fff"/>
 <path d="m134.8 412.21 16.926-0.13304" style="fill:none;stroke-width:.23356;stroke:#fff"/>
 <text transform="scale(1.0397 .96177)" x="74.660637" y="391.9072" fill="#ffffff" font-family="sans-serif" font-size="2.4768px" font-weight="700"/>
 <text transform="scale(1.0003 .99968)" x="79.690422" y="368.06918" fill="#000000" font-family="sans-serif" font-size="21.25px" letter-spacing="0px" stroke-width="1px" word-spacing="0px" style="line-height:125%" xml:space="preserve"/>
 <text x="266.48999" y="400.60648" style="font-family:sans-serif;font-size:1.5667px;line-height:1.25;stroke-width:.29376" xml:space="preserve"><tspan x="266.48999" y="400.60648" style="fill:#ffffff;font-family:sans-serif;font-size:1.5667px;font-weight:bold;stroke-width:.29376">GPON</tspan></text>
 <text x="345.54047" y="400.48331" style="font-family:sans-serif;font-size:1.5667px;line-height:1.25;stroke-width:.29376" xml:space="preserve"><tspan x="345.54047" y="400.48331" style="fill:#ffffff;font-family:sans-serif;font-size:1.5667px;font-weight:bold;stroke-width:.29376">SFP+ GbE/10GbE</tspan></text>
 <circle cx="416.79" cy="403.28" r="1.75" style="fill:#deaa87;stroke-linejoin:round;stroke-opacity:.99692;stroke-width:.49397"/>
 <circle cx="421.35" cy="403.28" r="1.75" style="fill:#deaa87;stroke-linejoin:round;stroke-opacity:.99692;stroke-width:.49397"/>
 <circle cx="425.91" cy="403.23" r="1.75" style="fill:#deaa87;stroke-linejoin:round;stroke-opacity:.99692;stroke-width:.49397"/>
 <circle cx="430.47" cy="403.28" r="1.75" style="fill:#deaa87;stroke-linejoin:round;stroke-opacity:.99692;stroke-width:.49397"/>
 <circle cx="435.03" cy="403.28" r="1.75" style="fill:#deaa87;stroke-linejoin:round;stroke-opacity:.99692;stroke-width:.49397"/>
 <circle cx="439.59" cy="403.28" r="1.75" style="fill:#deaa87;stroke-linejoin:round;stroke-opacity:.99692;stroke-width:.49397"/>
 <circle cx="444.14" cy="403.28" r="1.75" style="fill:#deaa87;stroke-linejoin:round;stroke-opacity:.99692;stroke-width:.49397"/>
 <circle cx="448.7" cy="403.28" r="1.75" style="fill:#deaa87;stroke-linejoin:round;stroke-opacity:.99692;stroke-width:.49397"/>
 <g transform="translate(238.35 -30.133)">
  <circle cx="178.44" cy="438.09" r="1.75" style="fill:#c8b7b7;stroke-linejoin:round;stroke-opacity:.99692;stroke-width:.49397"/>
  <circle cx="183" cy="438.09" r="1.75" style="fill:#c8b7b7;stroke-linejoin:round;stroke-opacity:.99692;stroke-width:.49397"/>
  <circle cx="187.56" cy="438.09" r="1.75" style="fill:#c8b7b7;stroke-linejoin:round;stroke-opacity:.99692;stroke-width:.49397"/>
  <circle cx="192.11" cy="438.09" r="1.75" style="fill:#c8b7b7;stroke-linejoin:round;stroke-opacity:.99692;stroke-width:.49397"/>
  <circle cx="196.67" cy="438.09" r="1.75" style="fill:#c8b7b7;stroke-linejoin:round;stroke-opacity:.99692;stroke-width:.49397"/>
  <circle cx="201.23" cy="438.09" r="1.75" style="fill:#c8b7b7;stroke-linejoin:round;stroke-opacity:.99692;stroke-width:.49397"/>
  <circle cx="205.79" cy="438.09" r="1.75" style="fill:#c8b7b7;stroke-linejoin:round;stroke-opacity:.99692;stroke-width:.49397"/>
  <circle cx="210.35" cy="438.09" r="1.75" style="fill:#c8b7b7;stroke-linejoin:round;stroke-opacity:.99692;stroke-width:.49397"/>
 </g>
 <rect x="119.01" y="381.3" width="5.5" height="12.5" rx="2.75" style="stroke-linejoin:round;stroke-opacity:.99692;stroke-width:.5"/>
 <rect x="137.48" y="381.3" width="5.5" height="12.5" rx="2.75" style="stroke-linejoin:round;stroke-opacity:.99692;stroke-width:.5"/>
 <rect x="128.25" y="381.3" width="5.5" height="12.5" rx="2.75" style="stroke-linejoin:round;stroke-opacity:.99692;stroke-width:.5"/>
 <rect x="219.69" y="381.3" width="5.5" height="12.5" rx="2.75" style="stroke-linejoin:round;stroke-opacity:.99692;stroke-width:.5"/>
 <rect x="228.81" y="381.3" width="5.5" height="12.5" rx="2.75" style="stroke-linejoin:round;stroke-opacity:.99692;stroke-width:.5"/>
 <rect x="237.93" y="381.3" width="5.5" height="12.5" rx="2.75" style="stroke-linejoin:round;stroke-opacity:.99692;stroke-width:.5"/>
 <rect x="247.05" y="381.3" width="5.5" height="12.5" rx="2.75" style="stroke-linejoin:round;stroke-opacity:.99692;stroke-width:.5"/>
 <rect x="256.18" y="381.3" width="5.5" height="12.5" rx="2.75" style="stroke-linejoin:round;stroke-opacity:.99692;stroke-width:.5"/>
 <rect x="265.3" y="381.3" width="5.5" height="12.5" rx="2.75" style="stroke-linejoin:round;stroke-opacity:.99692;stroke-width:.5"/>
 <rect x="274.42" y="381.3" width="5.5" height="12.5" rx="2.75" style="stroke-linejoin:round;stroke-opacity:.99692;stroke-width:.5"/>
 <rect x="283.54" y="381.3" width="5.5" height="12.5" rx="2.75" style="stroke-linejoin:round;stroke-opacity:.99692;stroke-width:.5"/>
 <rect x="292.66" y="381.3" width="5.5" height="12.5" rx="2.75" style="stroke-linejoin:round;stroke-opacity:.99692;stroke-width:.5"/>
 <rect x="301.78" y="381.3" width="5.5" height="12.5" rx="2.75" style="stroke-linejoin:round;stroke-opacity:.99692;stroke-width:.5"/>
 <rect x="310.9" y="381.3" width="5.5" height="12.5" rx="2.75" style="stroke-linejoin:round;stroke-opacity:.99692;stroke-width:.5"/>
 <rect x="320.02" y="381.3" width="5.5" height="12.5" rx="2.75" style="stroke-linejoin:round;stroke-opacity:.99692;stroke-width:.5"/>
 <rect x="329.14" y="381.3" width="5.5" height="12.5" rx="2.75" style="stroke-linejoin:round;stroke-opacity:.99692;stroke-width:.5"/>
 <rect x="338.26" y="381.3" width="5.5" height="12.5" rx="2.75" style="stroke-linejoin:round;stroke-opacity:.99692;stroke-width:.5"/>
 <rect x="347.39" y="381.3" width="5.5" height="12.5" rx="2.75" style="stroke-linejoin:round;stroke-opacity:.99692;stroke-width:.5"/>
 <rect x="420.6" y="381.3" width="5.5" height="12.5" rx="2.75" style="stroke-linejoin:round;stroke-opacity:.99692;stroke-width:.5"/>
 <rect x="429.61" y="381.3" width="5.5" height="12.5" rx="2.75" style="stroke-linejoin:round;stroke-opacity:.99692;stroke-width:.5"/>
 <rect x="438.61" y="381.3" width="5.5" height="12.5" rx="2.75" style="stroke-linejoin:round;stroke-opacity:.99692;stroke-width:.5"/>
 <rect x="447.61" y="381.3" width="5.5" height="12.5" rx="2.75" style="stroke-linejoin:round;stroke-opacity:.99692;stroke-width:.5"/>
 <circle cx="136.45" cy="403.17" r="1.75" style="fill:#bec8b7;stroke-linejoin:round;stroke-opacity:.99692;stroke-width:.49397"/>
 <circle cx="140.99" cy="403.17" r="1.75" style="fill:#bec8b7;stroke-linejoin:round;stroke-opacity:.99692;stroke-width:.49397"/>
 <circle cx="145.54" cy="403.17" r="1.75" style="fill:#bec8b7;stroke-linejoin:round;stroke-opacity:.99692;stroke-width:.49397"/>
 <circle cx="150.08" cy="403.17" r="1.75" style="fill:#bec8b7;stroke-linejoin:round;stroke-opacity:.99692;stroke-width:.49397"/>
 <circle cx="178.44" cy="398.63" r="1.75" style="fill:#bec8b7;stroke-linejoin:round;stroke-opacity:.99692;stroke-width:.49397"/>
 <circle cx="183" cy="398.63" r="1.75" style="fill:#bec8b7;stroke-linejoin:round;stroke-opacity:.99692;stroke-width:.49397"/>
 <circle cx="187.56" cy="398.63" r="1.75" style="fill:#bec8b7;stroke-linejoin:round;stroke-opacity:.99692;stroke-width:.49397"/>
 <circle cx="192.11" cy="398.63" r="1.75" style="fill:#bec8b7;stroke-linejoin:round;stroke-opacity:.99692;stroke-width:.49397"/>
 <circle cx="196.67" cy="398.63" r="1.75" style="fill:#bec8b7;stroke-linejoin:round;stroke-opacity:.99692;stroke-width:.49397"/>
 <circle cx="201.23" cy="398.63" r="1.75" style="fill:#bec8b7;stroke-linejoin:round;stroke-opacity:.99692;stroke-width:.49397"/>
 <circle cx="205.79" cy="398.63" r="1.75" style="fill:#bec8b7;stroke-linejoin:round;stroke-opacity:.99692;stroke-width:.49397"/>
 <circle cx="210.35" cy="398.63" r="1.75" style="fill:#bec8b7;stroke-linejoin:round;stroke-opacity:.99692;stroke-width:.49397"/>
 <g transform="translate(0 -34.84)">
  <circle cx="178.44" cy="438.09" r="1.75" style="fill:#bec8b7;stroke-linejoin:round;stroke-opacity:.99692;stroke-width:.49397"/>
  <circle cx="183" cy="438.09" r="1.75" style="fill:#bec8b7;stroke-linejoin:round;stroke-opacity:.99692;stroke-width:.49397"/>
  <circle cx="187.56" cy="438.09" r="1.75" style="fill:#bec8b7;stroke-linejoin:round;stroke-opacity:.99692;stroke-width:.49397"/>
  <circle cx="192.11" cy="438.09" r="1.75" style="fill:#bec8b7;stroke-linejoin:round;stroke-opacity:.99692;stroke-width:.49397"/>
  <circle cx="196.67" cy="438.09" r="1.75" style="fill:#bec8b7;stroke-linejoin:round;stroke-opacity:.99692;stroke-width:.49397"/>
  <circle cx="201.23" cy="438.09" r="1.75" style="fill:#bec8b7;stroke-linejoin:round;stroke-opacity:.99692;stroke-width:.49397"/>
  <circle cx="205.79" cy="438.09" r="1.75" style="fill:#bec8b7;stroke-linejoin:round;stroke-opacity:.99692;stroke-width:.49397"/>
  <circle cx="210.35" cy="438.09" r="1.75" style="fill:#bec8b7;stroke-linejoin:round;stroke-opacity:.99692;stroke-width:.49397"/>
 </g>
 <g transform="translate(.38113 -39.452)">
  <circle cx="136.07" cy="447.28" r="1.75" style="fill:#c8b7b7;stroke-linejoin:round;stroke-opacity:.99692;stroke-width:.49397"/>
  <circle cx="140.61" cy="447.28" r="1.75" style="fill:#c8b7b7;stroke-linejoin:round;stroke-opacity:.99692;stroke-width:.49397"/>
  <circle cx="145.15" cy="447.28" r="1.75" style="fill:#c8b7b7;stroke-linejoin:round;stroke-opacity:.99692;stroke-width:.49397"/>
  <circle cx="149.7" cy="447.28" r="1.75" style="fill:#c8b7b7;stroke-linejoin:round;stroke-opacity:.99692;stroke-width:.49397"/>
 </g>
 <g transform="translate(0 -30.228)">
  <circle cx="178.44" cy="438.09" r="1.75" style="fill:#c8b7b7;stroke-linejoin:round;stroke-opacity:.99692;stroke-width:.49397"/>
  <circle cx="183" cy="438.09" r="1.75" style="fill:#c8b7b7;stroke-linejoin:round;stroke-opacity:.99692;stroke-width:.49397"/>
  <circle cx="187.56" cy="438.09" r="1.75" style="fill:#c8b7b7;stroke-linejoin:round;stroke-opacity:.99692;stroke-width:.49397"/>
  <circle cx="192.11" cy="438.09" r="1.75" style="fill:#c8b7b7;stroke-linejoin:round;stroke-opacity:.99692;stroke-width:.49397"/>
  <circle cx="196.67" cy="438.09" r="1.75" style="fill:#c8b7b7;stroke-linejoin:round;stroke-opacity:.99692;stroke-width:.49397"/>
  <circle cx="201.23" cy="438.09" r="1.75" style="fill:#c8b7b7;stroke-linejoin:round;stroke-opacity:.99692;stroke-width:.49397"/>
  <circle cx="205.79" cy="438.09" r="1.75" style="fill:#c8b7b7;stroke-linejoin:round;stroke-opacity:.99692;stroke-width:.49397"/>
  <circle cx="210.35" cy="438.09" r="1.75" style="fill:#c8b7b7;stroke-linejoin:round;stroke-opacity:.99692;stroke-width:.49397"/>
 </g>
 <g transform="translate(-128.55 -15.142)">
  <rect transform="scale(-1)" x="-298.88" y="-426.22" width="14.094" height="11.195" style="fill:#ececec;stroke-width:.1;stroke:#000"/>
  <path d="m285.79 416.27v6.9492h2.9434v1.8047h1.1445v0.94139h3.916v-0.94139h1.1445v-1.8047h2.9453v-6.9492z" style="stroke-linejoin:round;stroke-opacity:.99692;stroke-width:.9"/>
 </g>
 <g transform="rotate(180 227.56 406.7)">
  <rect transform="scale(-1)" x="-298.88" y="-426.22" width="14.094" height="11.195" style="fill:#ececec;stroke-width:.1;stroke:#000"/>
  <path d="m285.79 416.27v6.9492h2.9434v1.8047h1.1445v0.94139h3.916v-0.94139h1.1445v-1.8047h2.9453v-6.9492z" style="stroke-linejoin:round;stroke-opacity:.99692;stroke-width:.9"/>
 </g>
 <g transform="translate(22.158 -52.688)">
  <g transform="translate(75.277 37.878)">
   <rect transform="scale(-1)" x="-298.88" y="-426.22" width="14.094" height="11.195" style="fill:#ececec;stroke-width:.1;stroke:#000"/>
   <path d="m285.79 416.27v6.9492h2.9434v1.8047h1.1445v0.94139h3.916v-0.94139h1.1445v-1.8047h2.9453v-6.9492z" style="stroke-linejoin:round;stroke-opacity:.99692;stroke-width:.9"/>
  </g>
  <g transform="rotate(180 329.47 433.21)">
   <rect transform="scale(-1)" x="-298.88" y="-426.22" width="14.094" height="11.195" style="fill:#ececec;stroke-width:.1;stroke:#000"/>
   <path d="m285.79 416.27v6.9492h2.9434v1.8047h1.1445v0.94139h3.916v-0.94139h1.1445v-1.8047h2.9453v-6.9492z" style="stroke-linejoin:round;stroke-opacity:.99692;stroke-width:.9"/>
  </g>
 </g>
 <g transform="translate(114.62 -14.581)">
  <rect transform="scale(-1)" x="-298.88" y="-426.22" width="14.094" height="11.195" style="fill:#ececec;stroke-width:.1;stroke:#000"/>
  <path d="m285.79 416.27v6.9492h2.9434v1.8047h1.1445v0.94139h3.916v-0.94139h1.1445v-1.8047h2.9453v-6.9492z" style="stroke-linejoin:round;stroke-opacity:.99692;stroke-width:.9"/>
 </g>
 <g transform="rotate(180 349.15 406.98)">
  <rect transform="scale(-1)" x="-298.88" y="-426.22" width="14.094" height="11.195" style="fill:#ececec;stroke-width:.1;stroke:#000"/>
  <path d="m285.79 416.27v6.9492h2.9434v1.8047h1.1445v0.94139h3.916v-0.94139h1.1445v-1.8047h2.9453v-6.9492z" style="stroke-linejoin:round;stroke-opacity:.99692;stroke-width:.9"/>
 </g>
 <g transform="matrix(1.0667 0 0 1.0667 -109.54 -84.037)">
  <rect transform="rotate(-90)" x="-464.58" y="354.88" width="8.3438" height="13.125" style="stroke-width:.14062;stroke:#000"/>
  <path d="m367.88 456.35h-12.88v8.0987h3.4677v-0.48455h6.44v0.48455h2.9723z" style="fill:none;stroke-width:.24497;stroke:#ccc"/>
 </g>
 <g transform="matrix(1.0667 0 0 1.0667 -95.545 -84.037)">
  <rect transform="rotate(-90)" x="-464.58" y="354.88" width="8.3438" height="13.125" style="stroke-width:.14062;stroke:#000"/>
  <path d="m367.88 456.35h-12.88v8.0987h3.4677v-0.48455h6.44v0.48455h2.9723z" style="fill:none;stroke-width:.24497;stroke:#ccc"/>
 </g>
 <g transform="matrix(1.0667 0 0 1.0667 -165.54 -84.037)">
  <rect transform="rotate(-90)" x="-464.58" y="354.88" width="8.3438" height="13.125" style="stroke-width:.14062;stroke:#000"/>
  <path d="m367.88 456.35h-12.88v8.0987h3.4677v-0.48455h6.44v0.48455h2.9723z" style="fill:none;stroke-width:.24497;stroke:#ccc"/>
 </g>
 <g transform="matrix(1.0667 0 0 1.0667 -151.54 -84.037)">
  <rect transform="rotate(-90)" x="-464.58" y="354.88" width="8.3438" height="13.125" style="stroke-width:.14062;stroke:#000"/>
  <path d="m367.88 456.35h-12.88v8.0987h3.4677v-0.48455h6.44v0.48455h2.9723z" style="fill:none;stroke-width:.24497;stroke:#ccc"/>
 </g>
 <g transform="matrix(1.0667 0 0 1.0667 -137.54 -84.037)">
  <rect transform="rotate(-90)" x="-464.58" y="354.88" width="8.3438" height="13.125" style="stroke-width:.14062;stroke:#000"/>
  <path d="m367.88 456.35h-12.88v8.0987h3.4677v-0.48455h6.44v0.48455h2.9723z" style="fill:none;stroke-width:.24497;stroke:#ccc"/>
 </g>
 <g transform="matrix(1.0667 0 0 1.0667 -123.54 -84.037)">
  <rect transform="rotate(-90)" x="-464.58" y="354.88" width="8.3438" height="13.125" style="stroke-width:.14062;stroke:#000"/>
  <path d="m367.88 456.35h-12.88v8.0987h3.4677v-0.48455h6.44v0.48455h2.9723z" style="fill:none;stroke-width:.24497;stroke:#ccc"/>
 </g>
 <g transform="matrix(1.0667 0 0 1.0667 -81.545 -84.037)">
  <rect transform="rotate(-90)" x="-464.58" y="354.88" width="8.3438" height="13.125" style="stroke-width:.14062;stroke:#000"/>
  <path d="m367.88 456.35h-12.88v8.0987h3.4677v-0.48455h6.44v0.48455h2.9723z" style="fill:none;stroke-width:.24497;stroke:#ccc"/>
 </g>
 <g transform="matrix(1.0667 0 0 1.0667 -67.545 -84.037)">
  <rect transform="rotate(-90)" x="-464.58" y="354.88" width="8.3438" height="13.125" style="stroke-width:.14062;stroke:#000"/>
  <path d="m367.88 456.35h-12.88v8.0987h3.4677v-0.48455h6.44v0.48455h2.9723z" style="fill:none;stroke-width:.24497;stroke:#ccc"/>
 </g>
 <g transform="matrix(1.0667 0 0 1.0667 -53.545 -84.037)">
  <rect transform="rotate(-90)" x="-464.58" y="354.88" width="8.3438" height="13.125" style="stroke-width:.14062;stroke:#000"/>
  <path d="m367.88 456.35h-12.88v8.0987h3.4677v-0.48455h6.44v0.48455h2.9723z" style="fill:none;stroke-width:.24497;stroke:#ccc"/>
 </g>
 <g transform="matrix(1.0667 0 0 1.0667 -39.545 -84.037)">
  <rect transform="rotate(-90)" x="-464.58" y="354.88" width="8.3438" height="13.125" style="stroke-width:.14062;stroke:#000"/>
  <path d="m367.88 456.35h-12.88v8.0987h3.4677v-0.48455h6.44v0.48455h2.9723z" style="fill:none;stroke-width:.24497;stroke:#ccc"/>
 </g>
 <g transform="matrix(1.0667 0 0 1.0667 -25.545 -84.037)">
  <rect transform="rotate(-90)" x="-464.58" y="354.88" width="8.3438" height="13.125" style="stroke-width:.14062;stroke:#000"/>
  <path d="m367.88 456.35h-12.88v8.0987h3.4677v-0.48455h6.44v0.48455h2.9723z" style="fill:none;stroke-width:.24497;stroke:#ccc"/>
 </g>
 <g transform="matrix(1.0667 0 0 1.0667 -11.545 -84.037)">
  <rect transform="rotate(-90)" x="-464.58" y="354.88" width="8.3438" height="13.125" style="stroke-width:.14062;stroke:#000"/>
  <path d="m367.88 456.35h-12.88v8.0987h3.4677v-0.48455h6.44v0.48455h2.9723z" style="fill:none;stroke-width:.24497;stroke:#ccc"/>
 </g>
 <text x="219.03755" y="415.78946" style="font-family:sans-serif;font-size:2.931px;line-height:1.25;stroke-width:.54957" xml:space="preserve"><tspan x="219.03755" y="415.78946" style="fill:#ffffff;font-size:2.931px;stroke-width:.54957">1</tspan></text>
 <text x="233.10268" y="415.78946" style="font-family:sans-serif;font-size:2.931px;line-height:1.25;stroke-width:.54957" xml:space="preserve"><tspan x="233.10268" y="415.78946" style="fill:#ffffff;font-size:2.931px;stroke-width:.54957">2</tspan></text>
 <text x="247.06905" y="415.74796" style="font-family:sans-serif;font-size:2.931px;line-height:1.25;stroke-width:.54957" xml:space="preserve"><tspan x="247.06905" y="415.74796" style="fill:#ffffff;font-size:2.931px;stroke-width:.54957">3</tspan></text>
 <text x="261.07407" y="415.78946" style="font-family:sans-serif;font-size:2.931px;line-height:1.25;stroke-width:.54957" xml:space="preserve"><tspan x="261.07407" y="415.78946" style="fill:#ffffff;font-size:2.931px;stroke-width:.54957">4</tspan></text>
 <text x="275.07834" y="415.30322" style="font-family:sans-serif;font-size:2.931px;line-height:1.25;stroke-width:.54957" xml:space="preserve"><tspan x="275.07834" y="415.30322" style="fill:#ffffff;font-size:2.931px;stroke-width:.54957">5</tspan></text>
 <text x="289.05328" y="415.74796" style="font-family:sans-serif;font-size:2.931px;line-height:1.25;stroke-width:.54957" xml:space="preserve"><tspan x="289.05328" y="415.74796" style="fill:#ffffff;font-size:2.931px;stroke-width:.54957">6</tspan></text>
 <text x="303.06833" y="415.78946" style="font-family:sans-serif;font-size:2.931px;line-height:1.25;stroke-width:.54957" xml:space="preserve"><tspan x="303.06833" y="415.78946" style="fill:#ffffff;font-size:2.931px;stroke-width:.54957">7</tspan></text>
 <text x="317.06403" y="415.74796" style="font-family:sans-serif;font-size:2.931px;line-height:1.25;stroke-width:.54957" xml:space="preserve"><tspan x="317.06403" y="415.74796" style="fill:#ffffff;font-size:2.931px;stroke-width:.54957">8</tspan></text>
 <text x="330.9939" y="415.78946" style="font-family:sans-serif;font-size:2.931px;line-height:1.25;stroke-width:.54957" xml:space="preserve"><tspan x="330.9939" y="415.78946" style="fill:#ffffff;font-size:2.931px;stroke-width:.54957">A</tspan></text>
 <text x="344.95026" y="415.78946" style="font-family:sans-serif;font-size:2.931px;line-height:1.25;stroke-width:.54957" xml:space="preserve"><tspan x="344.95026" y="415.78946" style="fill:#ffffff;font-size:2.931px;stroke-width:.54957">B</tspan></text>
 <text x="358.96957" y="415.43707" style="font-family:sans-serif;font-size:2.931px;line-height:1.25;stroke-width:.54957" xml:space="preserve"><tspan x="358.96957" y="415.43707" style="fill:#ffffff;font-size:2.931px;stroke-width:.54957">C</tspan></text>
 <text x="372.81" y="415.78946" style="font-family:sans-serif;font-size:2.931px;line-height:1.25;stroke-width:.54957" xml:space="preserve"><tspan x="372.81" y="415.78946" style="fill:#ffffff;font-size:2.931px;stroke-width:.54957">D</tspan></text>
 <text x="388.31219" y="385.59344" style="font-family:sans-serif;font-size:2.931px;line-height:1.25;stroke-width:.54957" xml:space="preserve"><tspan x="388.31219" y="385.59344" style="fill:#ffffff;font-size:2.931px;stroke-width:.54957">1</tspan></text>
 <text x="405.53192" y="385.79419" style="font-family:sans-serif;font-size:2.931px;line-height:1.25;stroke-width:.54957" xml:space="preserve"><tspan x="405.53192" y="385.79419" style="fill:#ffffff;font-size:2.931px;stroke-width:.54957">3</tspan></text>
 <text x="388.37732" y="415.78946" style="font-family:sans-serif;font-size:2.931px;line-height:1.25;stroke-width:.54957" xml:space="preserve"><tspan x="388.37732" y="415.78946" style="fill:#ffffff;font-size:2.931px;stroke-width:.54957">2</tspan></text>
 <text x="405.53693" y="415.78946" style="font-family:sans-serif;font-size:2.931px;line-height:1.25;stroke-width:.54957" xml:space="preserve"><tspan x="405.53693" y="415.78946" style="fill:#ffffff;font-size:2.931px;stroke-width:.54957">4</tspan></text>
 <text x="416.02438" y="400.43268" style="font-family:sans-serif;font-size:2.2412px;line-height:1.25;stroke-width:.42024" xml:space="preserve"><tspan x="416.02438" y="400.43268" style="fill:#ffffff;font-size:2.2412px;stroke-width:.42024">A</tspan></text>
 <text x="420.5499" y="400.43268" style="font-family:sans-serif;font-size:2.2414px;line-height:1.25;stroke-width:.42027" xml:space="preserve"><tspan x="420.5499" y="400.43268" style="fill:#ffffff;font-size:2.2414px;stroke-width:.42027">B</tspan></text>
 <text x="425.12369" y="400.40094" style="font-family:sans-serif;font-size:2.2412px;line-height:1.25;stroke-width:.42024" xml:space="preserve"><tspan x="425.12369" y="400.40094" style="fill:#ffffff;font-size:2.2412px;stroke-width:.42024">C</tspan></text>
 <text x="429.56064" y="400.43268" style="font-family:sans-serif;font-size:2.2412px;line-height:1.25;stroke-width:.42024" xml:space="preserve"><tspan x="429.56064" y="400.43268" style="fill:#ffffff;font-size:2.2412px;stroke-width:.42024">D</tspan></text>
 <text x="434.29364" y="400.43268" style="font-family:sans-serif;font-size:2.2412px;line-height:1.25;stroke-width:.42024" xml:space="preserve"><tspan x="434.29364" y="400.43268" style="fill:#ffffff;font-size:2.2412px;stroke-width:.42024">1</tspan></text>
 <text x="177.70474" y="395.84644" style="font-family:sans-serif;font-size:2.2412px;line-height:1.25;stroke-width:.42024" xml:space="preserve"><tspan x="177.70474" y="395.84644" style="fill:#ffffff;font-size:2.2412px;stroke-width:.42024">1</tspan></text>
 <text x="182.31352" y="395.84644" style="font-family:sans-serif;font-size:2.2412px;line-height:1.25;stroke-width:.42024" xml:space="preserve"><tspan x="182.31352" y="395.84644" style="fill:#ffffff;font-size:2.2412px;stroke-width:.42024">2</tspan></text>
 <text x="186.84676" y="395.8147" style="font-family:sans-serif;font-size:2.2412px;line-height:1.25;stroke-width:.42024" xml:space="preserve"><tspan x="186.84676" y="395.8147" style="fill:#ffffff;font-size:2.2412px;stroke-width:.42024">3</tspan></text>
 <text x="191.40955" y="395.84644" style="font-family:sans-serif;font-size:2.2412px;line-height:1.25;stroke-width:.42024" xml:space="preserve"><tspan x="191.40955" y="395.84644" style="fill:#ffffff;font-size:2.2412px;stroke-width:.42024">4</tspan></text>
 <text x="195.9718" y="395.8147" style="font-family:sans-serif;font-size:2.2412px;line-height:1.25;stroke-width:.42024" xml:space="preserve"><tspan x="195.9718" y="395.8147" style="fill:#ffffff;font-size:2.2412px;stroke-width:.42024">5</tspan></text>
 <text x="200.51163" y="395.8147" style="font-family:sans-serif;font-size:2.2412px;line-height:1.25;stroke-width:.42024" xml:space="preserve"><tspan x="200.51163" y="395.8147" style="fill:#ffffff;font-size:2.2412px;stroke-width:.42024">6</tspan></text>
 <text x="204.65822" y="395.65717" style="font-family:sans-serif;font-size:2.2412px;line-height:1.25;stroke-width:.42024" xml:space="preserve"><tspan x="204.65822" y="395.65717" style="fill:#ffffff;font-size:2.2412px;stroke-width:.42024">7</tspan></text>
 <text x="209.63779" y="395.62543" style="font-family:sans-serif;font-size:2.2412px;line-height:1.25;stroke-width:.42024" xml:space="preserve"><tspan x="209.63779" y="395.62543" style="fill:#ffffff;font-size:2.2412px;stroke-width:.42024">8</tspan></text>
 <text x="170.95699" y="392.1452" style="font-family:sans-serif;font-size:2.2412px;line-height:1.25;stroke-width:.42024" xml:space="preserve"><tspan x="170.95699" y="392.1452" style="fill:#ffffff;font-size:2.2412px;stroke-width:.42024">E</tspan></text>
 <text x="170.95699" y="406.52304" style="font-family:sans-serif;font-size:2.2412px;line-height:1.25;stroke-width:.42024" xml:space="preserve"><tspan x="170.95699" y="406.52304" style="fill:#ffffff;font-size:2.2412px;stroke-width:.42024">F</tspan></text>
 <text x="438.90237" y="400.43268" style="font-family:sans-serif;font-size:2.2412px;line-height:1.25;stroke-width:.42024" xml:space="preserve"><tspan x="438.90237" y="400.43268" style="fill:#ffffff;font-size:2.2412px;stroke-width:.42024">2</tspan></text>
 <text x="443.43567" y="400.40094" style="font-family:sans-serif;font-size:2.2412px;line-height:1.25;stroke-width:.42024" xml:space="preserve"><tspan x="443.43567" y="400.40094" style="fill:#ffffff;font-size:2.2412px;stroke-width:.42024">3</tspan></text>
 <text x="447.99844" y="400.43268" style="font-family:sans-serif;font-size:2.2412px;line-height:1.25;stroke-width:.42024" xml:space="preserve"><tspan x="447.99844" y="400.43268" style="fill:#ffffff;font-size:2.2412px;stroke-width:.42024">4</tspan></text>
 <text x="416.30389" y="415.57779" style="font-family:sans-serif;font-size:2.2817px;line-height:1.25;stroke-width:.42782" xml:space="preserve"><tspan x="416.30389" y="415.57779" style="fill:#ffffff;font-family:sans-serif;font-size:2.2817px;font-weight:bold;stroke-width:.42782">GbE/10GbE</tspan></text>
 <text x="439.50549" y="415.75714" style="font-family:sans-serif;font-size:2.2817px;line-height:1.25;stroke-width:.42782" xml:space="preserve"><tspan x="439.50549" y="415.75714" style="fill:#ffffff;font-family:sans-serif;font-size:2.2817px;font-weight:bold;stroke-width:.42782">GbE</tspan></text>
 <text x="393.66061" y="415.75714" style="font-family:sans-serif;font-size:2.2817px;line-height:1.25;stroke-width:.42782" xml:space="preserve"><tspan x="393.66061" y="415.75714" style="fill:#ffffff;font-family:sans-serif;font-size:2.2817px;font-weight:bold;stroke-width:.42782">GbE</tspan></text>
 <text x="160.78297" y="415.75714" style="font-family:sans-serif;font-size:2.2817px;line-height:1.25;stroke-width:.42782" xml:space="preserve"><tspan x="160.78297" y="415.75714" style="fill:#ffffff;font-family:sans-serif;font-size:2.2817px;font-weight:bold;stroke-width:.42782">GbE</tspan></text>
 <text x="138.43463" y="415.75714" style="font-family:sans-serif;font-size:2.2817px;line-height:1.25;stroke-width:.42782" xml:space="preserve"><tspan x="138.43463" y="415.75714" style="fill:#ffffff;font-family:sans-serif;font-size:2.2817px;font-weight:bold;stroke-width:.42782">STATUS</tspan></text>
 <text x="185.49438" y="415.75714" style="font-family:sans-serif;font-size:2.2817px;line-height:1.25;stroke-width:.42782" xml:space="preserve"><tspan x="185.49438" y="415.75714" style="fill:#ffffff;font-family:sans-serif;font-size:2.2817px;font-weight:bold;stroke-width:.42782">GPON STATUS</tspan></text>
 <polygon class="st0" transform="matrix(.012102 0 0 .012102 85.247 392.9)" points="399.4 19.3 399.4 112.9 252.9 112.9 252.9 542.7 146.7 542.7 146.7 112.9 0 112.9 0 19.3" style="fill:#fff"/>
 <path class="st0" d="m106.93 398.86 0.77452-0.67408c0.34612 0.34974 0.81567 0.54942 1.307 0.55427 0.36911-0.0218 0.81568-0.075 0.83263-0.49981 0.0218-0.67409-2.7109-0.0859-2.7109-1.7536 0-1.1098 1.002-1.4922 1.9424-1.4922 0.68861-0.0387 1.3627 0.20936 1.8613 0.68496l-0.75154 0.71886c-0.2965-0.32917-0.72249-0.51312-1.1654-0.50223-0.32797 0-0.74064 0.10774-0.71887 0.43567 0.0448 0.75154 2.7-0.0666 2.7 1.8843 0 1.0565-1.0565 1.4256-2.0138 1.4256-0.85078-0.0113-1.4716-0.15732-2.0573-0.78179z" style="fill:#fff;stroke-width:.012102"/>
 <polygon class="st0" transform="matrix(.012102 0 0 .012102 85.247 392.9)" points="1108 166.8 1232.9 542.7 1327.4 542.7 1456 166.8 1357.2 166.8 1282.4 399.9 1208.6 166.8" style="fill:#fff"/>
 <rect class="st0" x="93.183" y="393.12" width="1.2066" height="6.3148" style="fill:#fff;stroke-width:.012102"/>
 <path class="st0" d="m104.81 398.63c-0.77938 0-1.1098-0.51069-1.1376-1.1376h3.1514c0.18032-1.2368-0.67529-2.3865-1.9121-2.568-0.11739-0.017-0.23599-0.0254-0.3546-0.0242-1.1932 0.0581-2.0331 1.0601-2.0779 2.2534-0.0351 1.3143 1.0008 2.4083 2.3151 2.4446h1e-3c0.81205 0.0617 1.5926-0.32556 2.0331-1.0093l-0.94881-0.55427c-0.21057 0.38848-0.62687 0.62083-1.0698 0.59542zm-0.17791-2.7931c0.49135-6e-3 0.90403 0.36547 0.94881 0.8544h-1.8952c0.046-0.48771 0.45746-0.85925 0.94637-0.8544z" style="fill:#fff;stroke-width:.012102"/>
 <path class="st0" d="m96.98 398.63c-0.77938 0-1.1098-0.51069-1.1376-1.1376h3.1623c0.18032-1.2368-0.6753-2.3865-1.9121-2.568-0.11255-0.017-0.22631-0.0242-0.34007-0.0242-1.1932 0.0581-2.0331 1.0601-2.0779 2.2534-0.03631 1.3143 1.0008 2.4083 2.3151 2.4446h0.0011c0.80479 0.0544 1.5757-0.33161 2.0138-1.0093l-0.9488-0.55427c-0.21178 0.3909-0.63172 0.62326-1.0759 0.59542zm-0.1779-2.7931c0.49134-6e-3 0.90402 0.36547 0.94879 0.8544h-1.8952c0.04478-0.48771 0.45745-0.85925 0.94638-0.8544z" style="fill:#fff;stroke-width:.012102"/>
 <path class="st0" d="m90.893 398.63c-0.77937 0-1.1098-0.51069-1.1376-1.1376h3.1465c0.18032-1.2368-0.6753-2.3865-1.9121-2.568-0.11255-0.017-0.2263-0.0242-0.34006-0.0242-1.1933 0.0581-2.0331 1.0601-2.0779 2.2534-0.03631 1.3143 1.0008 2.4083 2.3151 2.4446h0.0011c0.81204 0.0617 1.5926-0.32556 2.0331-1.0093l-0.9488-0.55427c-0.21299 0.39211-0.63415 0.62446-1.0795 0.59542zm-0.17669-2.7931c0.49135-6e-3 0.90402 0.36547 0.9488 0.8544h-1.8988c0.04598-0.48893 0.45867-0.86167 0.95001-0.8544z" style="fill:#fff;stroke-width:.012102"/>
 <g transform="translate(0 -39.302)" style="stroke-width:.36004" aria-label="OLT512EVO">
  <path d="m84.109 444.92q-0.55302-0.61639-0.55302-1.5842 0-0.96779 0.55302-1.5842 0.55879-0.6164 1.4632-0.6164 0.91019 0 1.469 0.6164 0.55879 0.61063 0.55879 1.613 0 0.93323-0.55303 1.5554-0.54726 0.61639-1.469 0.61639-0.91595 0-1.469-0.61639zm1.469-3.0474q-0.52422 0-0.84106 0.40325-0.31684 0.39748-0.31684 1.06t0.31684 1.0657q0.31684 0.39749 0.84106 0.39749 0.51846 0 0.8353-0.39749 0.3226-0.39749 0.3226-1.0427 0-0.67977-0.31684-1.083-0.31108-0.40325-0.84106-0.40325z" style="fill:#f6a400"/>
  <path d="m88.846 441.2v3.4794h2.0105v0.72009h-2.8746v-4.1995z" style="fill:#f6a400"/>
  <path d="m93.087 441.92v3.4794h-0.8641v-3.4794h-1.2731v-0.72009h3.3642v0.72009z" style="fill:#f6a400"/>
  <path d="m96.993 441.32v0.72009h-1.6879l-0.1325 0.85258q0.32836-0.24771 0.70856-0.24771 0.56455 0 0.91595 0.39173 0.35716 0.39172 0.35716 1.0196 0 0.66248-0.40901 1.0715-0.40901 0.40901-1.0657 0.40901-0.59335 0-0.9678-0.32836-0.36868-0.33412-0.3802-0.86986h0.79497q0.0288 0.50694 0.56455 0.50694 0.30532 0 0.47814-0.20738 0.17858-0.20739 0.17858-0.56455 0-0.36868-0.17858-0.57607-0.17282-0.21314-0.47814-0.21314-0.38597 0-0.51846 0.31107h-0.72585l0.36292-2.2755z" style="fill:#fff"/>
  <path d="m98.44 442.59h-0.97932v-0.53574q1.06 0 1.2501-0.73161h0.53574v4.0843h-0.8065z" style="fill:#fff"/>
  <path d="m102.93 442.53q0 0.33988-0.14978 0.61639-0.14402 0.27651-0.36868 0.46661-0.22467 0.18435-0.46086 0.34565-0.23618 0.15553-0.45509 0.34564-0.21891 0.18434-0.31108 0.3802h1.7282v0.72009h-2.7766q0.0288-0.56455 0.22467-0.89291 0.20162-0.33412 0.72008-0.69704 0.674-0.47238 0.85834-0.69704 0.18434-0.23043 0.18434-0.57031 0-0.30532-0.15553-0.47814-0.14978-0.17858-0.42053-0.17858-0.27652 0-0.43206 0.1901-0.14977 0.19011-0.14977 0.52999v0.13249h-0.77193q-6e-3 -0.0634-6e-3 -0.14401 0-0.6452 0.3514-1.0024 0.35716-0.36293 0.99083-0.36293 0.6452 0 1.0196 0.35141 0.38021 0.3514 0.38021 0.94475z" style="fill:#fff"/>
  <path d="m104.18 443.59v1.0888h2.2755v0.72009h-3.1396v-4.1995h3.0359v0.72009h-2.1718v0.95051h2.0105v0.72008z" style="fill:#fff"/>
  <path d="m108.64 445.4h-0.73161l-1.4171-4.1995h0.86986l0.93323 3.1626 0.91595-3.1626h0.86986z" style="fill:#fff"/>
  <path d="m110.67 444.92q-0.55303-0.61639-0.55303-1.5842 0-0.96779 0.55303-1.5842 0.55878-0.6164 1.4632-0.6164 0.91019 0 1.469 0.6164 0.55879 0.61063 0.55879 1.613 0 0.93323-0.55303 1.5554-0.54726 0.61639-1.469 0.61639-0.91595 0-1.469-0.61639zm1.469-3.0474q-0.52422 0-0.84106 0.40325-0.31684 0.39748-0.31684 1.06t0.31684 1.0657q0.31684 0.39749 0.84106 0.39749 0.51846 0 0.8353-0.39749 0.3226-0.39749 0.3226-1.0427 0-0.67977-0.31684-1.083-0.31108-0.40325-0.84106-0.40325z" style="fill:#fff"/>
 </g>
 <text x="271.95029" y="438.96735" style="font-family:sans-serif;font-size:1.5667px;line-height:1.25;stroke-width:.29376" xml:space="preserve"><tspan x="271.95029" y="438.96735" style="fill:#ffffff;font-family:sans-serif;font-size:1.5667px;font-weight:bold;stroke-width:.29376">GPON</tspan></text>
 <path transform="translate(66,376)" d="m251.92 25.725v-1.7012h-45.443m-6.7282 0h-45.936v1.7012" style="fill:none;stroke-linejoin:round;stroke-width:.1;stroke:#fff"/>
 <path transform="translate(66,376)" d="m307.7 25.725v-1.7012h-12.414m-16.71 0h-13.792v1.7012" style="fill:none;stroke-linejoin:round;stroke-width:.1;stroke:#fff"/>
 <path d="m415.04 411.52h17.177" style="fill:none;stroke-width:.23356;stroke:#fff"/>
 <path d="m433.28 411.52h17.177" style="fill:none;stroke-width:.23356;stroke:#fff"/>
</svg>
