<?xml version="1.0" encoding="UTF-8"?>
<!-- Created with Inkscape (http://www.inkscape.org/) -->
<svg width="200" height="78" version="1.1" viewBox="0 0 52.917 20.638" xml:space="preserve" xmlns="http://www.w3.org/2000/svg"><path d="m26.608 10.535c0.36045-0.26577 0.67136-0.54428 1.1911-1.0134 0.81569 0.49925 1.2174 0.71589 2.4923 1.081-0.22952 0.40678-0.45995 0.81309-0.69024 1.2195-1.3021-0.25607-2.1971-0.74347-2.9931-1.287zm-4.004-0.0019c1.5324-0.4743 2.7527-1.6863 3.8598-2.7809 1.4233-1.5951 3.0264-2.6854 5.0798-3.3175l1.0377 1.8371c-1.9577 0.3337-3.6587 1.4469-4.9598 2.7735-1.366 1.3483-2.8197 2.2939-4.3005 2.7456zm5.5308-1.2903 0.52064-0.50611 1.3124 0.58101 0.26452 0.83083c-0.76169-0.25648-1.4635-0.5565-2.0975-0.90576zm-5.2059 0.074208c1.1776-0.61043 2.1117-1.519 3.0337-2.4476 1.1148-1.2399 2.4716-2.3427 4.0705-2.8475l0.17886 0.34879c-1.2703 0.61886-2.095 0.95355-4.1195 3.1263-1.0119 1.0258-2.0457 2.0927-3.4529 2.5522zm-0.35601-0.9885c1.2251-0.68381 2.0805-1.5677 3.32-2.7844 1.6222-1.6176 3.1608-2.5274 4.3307-2.7897l-0.25602 0.80779c-1.2686 0.35907-2.7822 1.3717-3.5928 2.2718-1.1985 1.264-2.0097 2.0976-3.5003 3.0191zm6.4456 0.086593 0.39419-0.27613 0.78597 0.3585-0.14825 0.35543zm0.81328-0.58989c0.80297-0.55038 1.7301-0.84219 2.6611-1.0865l-0.95753 1.6973c-0.61364-0.15783-1.1709-0.37204-1.7036-0.6108zm-9.4956-1.2233c1.5941-0.16481 4.0274-2.396 4.9745-3.2384 1.7987-1.4019 1.9501-1.5177 4.2864-2.3055 0.23176 0.40104 0.46173 0.80313 0.69219 1.2049-1.9631 0.57429-2.4042 0.84917-4.0062 2.2744-1.7428 1.6264-3.269 3.3397-4.9483 3.796zm0.98425-2.0469 1.1923 0.51606c-0.56 0.53271-1.5937 0.87774-2.0408 1.02zm1.2386 0.023808 0.26554-0.55252c0.24892 0.099245 0.44628 0.2495 0.59464 0.35559-0.16901 0.15036-0.32185 0.26776-0.47056 0.40719zm0.37418-1.0259c-0.09061-0.26725-0.18166-0.49126-0.26646-0.70644 0.44499 0.1212 0.9672 0.45765 1.5443 0.84326-0.17338 0.14875-0.27777 0.2457-0.4355 0.37206-0.32313-0.23041-0.6065-0.34607-0.84232-0.50888zm-0.3293-1.2069 0.71706-1.2577c0.60471 0.14719 2.0766 0.8287 2.516 1.255l-1.2857 1.0454c-0.59988-0.48604-1.266-0.81564-1.9473-1.0426z" fill="#007bc4"/><path d="m1.0583 18.287c0.059597 0.83742 0.83444 1.3852 1.9669 1.3852 1.0899 0 1.8988-0.58558 1.8988-1.3789 0-0.40928-0.2299-0.77448-0.62157-0.99486-0.26395-0.13852-0.52791-0.22667-1.175-0.37149-0.57048-0.12593-0.75781-0.18259-0.9281-0.28963-0.17881-0.11963-0.29801-0.32742-0.29801-0.54151 0-0.47223 0.45979-0.81224 1.0899-0.81224 0.6386 0 1.0728 0.32113 1.1239 0.83114h0.65563c-0.025546-0.75557-0.73226-1.2593-1.7625-1.2593-1.0132 0-1.7455 0.52261-1.7455 1.253 0 0.32112 0.16178 0.62966 0.44276 0.82483 0.24693 0.1763 0.43425 0.23928 1.175 0.41559 0.49385 0.10703 0.76632 0.19519 0.97919 0.30223 0.27247 0.14483 0.42573 0.38409 0.42573 0.66742 0 0.5352-0.5194 0.92559-1.2431 0.92559-0.40019 0-0.78335-0.13222-1.0132-0.34631-0.17881-0.16371-0.25544-0.32112-0.29801-0.61075zm5.1847 1.3034h0.63009v-4.2313h1.439v-0.42186h-3.508v0.42186h1.439zm5.1081-4.735c-1.8051 0-3.3292 1.0893-3.3292 2.3801 0 1.3537 1.4816 2.4368 3.3378 2.4368 1.8136 0 3.3122-1.0893 3.3122-2.4053 0-1.3286-1.4986-2.4116-3.3207-2.4116zm0 0.42816c1.473 0 2.6821 0.90041 2.6821 1.9897 0 1.0767-1.2176 1.9708-2.6736 1.9708-1.4986 0-2.6992-0.8941-2.6992-1.996 0-1.0641 1.2346-1.9645 2.6906-1.9645zm6.3938 2.569c1.2091-0.09437 1.8562-0.58558 1.8562-1.423 0-0.57929-0.33207-1.02-0.94513-1.2656-0.39168-0.15741-0.9281-0.22668-1.7625-0.22668h-1.5582v4.6531h0.63009v-4.2313h0.88553c0.66414 0 1.1069 0.0504 1.4475 0.17 0.42573 0.15112 0.66415 0.46596 0.66415 0.88781 0 0.5289-0.32356 0.86262-0.95365 0.98226-0.29801 0.05674-0.70672 0.08189-1.4049 0.08189l2.1202 2.1093h0.78335zm2.5196 1.7378h0.63008v-4.1431l2.3586 4.1431h0.54494l2.3671-4.1431v4.1431h0.63009v-4.6531h-0.9792l-2.2819 3.9605-2.2904-3.9605h-0.97918zm7.0069-1.3034c0.05952 0.83742 0.83443 1.3852 1.9669 1.3852 1.0899 0 1.8988-0.58558 1.8988-1.3789 0-0.40928-0.2299-0.77448-0.62157-0.99486-0.26395-0.13852-0.52791-0.22667-1.175-0.37149-0.57047-0.12593-0.7578-0.18259-0.9281-0.28963-0.1788-0.11963-0.29802-0.32742-0.29802-0.54151 0-0.47223 0.4598-0.81224 1.0899-0.81224 0.6386 0 1.0729 0.32113 1.1239 0.83114h0.65564c-0.02554-0.75557-0.73226-1.2593-1.7625-1.2593-1.0132 0-1.7455 0.52261-1.7455 1.253 0 0.32112 0.16177 0.62966 0.44276 0.82483 0.24693 0.1763 0.43425 0.23928 1.175 0.41559 0.49386 0.10703 0.76632 0.19519 0.9792 0.30223 0.27246 0.14483 0.42573 0.38409 0.42573 0.66742 0 0.5352-0.51939 0.92559-1.2431 0.92559-0.4002 0-0.78335-0.13222-1.0132-0.34631-0.17881-0.16371-0.25544-0.32112-0.29802-0.61075zm4.3418 1.3034h0.63007v-2.1849h3.2611v2.1849h0.6301v-4.6531h-0.6301v2.0464h-3.2611v-2.0464h-0.63007zm5.5849 0h0.63009v-4.6531h-0.63009zm1.566 0h3.4399v-0.42186h-2.8099v-1.7189h2.7162v-0.42186h-2.7162v-1.6686h2.8099v-0.42186h-3.4399zm4.2055 0h3.2356v-0.42186h-2.6055v-4.2313h-0.63008zm3.5754 0h1.6944c0.94513 0 1.6093-0.10704 2.1627-0.34631 0.95364-0.41557 1.456-1.0956 1.456-1.9645 0-0.87521-0.49386-1.5678-1.422-1.9771-0.60454-0.26444-1.2687-0.36519-2.4097-0.36519h-1.4816zm0.63009-0.42186v-3.8094h0.87701c0.94513 0 1.5667 0.09437 2.0265 0.29592 0.72374 0.32743 1.141 0.91301 1.141 1.6056 0 0.61077-0.32355 1.146-0.90255 1.4923-0.50238 0.29594-1.1495 0.41558-2.2649 0.41558z" opacity=".5" stroke-width=".011531" aria-label="STORMSHIELD"/></svg>
