<?xml version="1.0" encoding="UTF-8"?>
<svg width="210" height="46" version="1.1" viewBox="66 376 210 46" xml:space="preserve" xmlns="http://www.w3.org/2000/svg"><rect x="66.174" y="376.17" width="209.65" height="45.651" fill="#000005" fill-rule="evenodd" stroke="#000" stroke-linecap="round" stroke-miterlimit="4.4" stroke-width=".34885"/><text transform="scale(1.0397 .96179)" x="86.839722" y="303.23425" fill="#ffffff" font-family="sans-serif" font-size="2.4767px" font-weight="700" stroke-width=".99998"/><text transform="scale(1.0003 .99969)" x="92.350449" y="282.76303" fill="#000000" font-family="sans-serif" font-size="21.25px" letter-spacing="0px" stroke-width=".99999px" word-spacing="0px" style="line-height:125%" xml:space="preserve"/><path d="m83.134 388.16c0.26512-0.19547 0.4938-0.40032 0.87609-0.74536 0.59995 0.36721 0.89539 0.52654 1.8331 0.79505-0.16881 0.2992-0.3383 0.59804-0.50768 0.89693-0.95771-0.18834-1.616-0.54683-2.2015-0.94662zm-2.945-1e-3c1.1271-0.34885 2.0247-1.2403 2.839-2.0454 1.0469-1.1732 2.2259-1.9752 3.7363-2.4401l0.76321 1.3512c-1.4399 0.24544-2.691 1.0642-3.648 2.04-1.0047 0.99166-2.0739 1.6872-3.163 2.0194zm4.068-0.94904 0.38294-0.37224 0.96526 0.42734 0.19456 0.61108c-0.56023-0.18864-1.0764-0.40931-1.5428-0.66619zm-3.829 0.0546c0.86614-0.44897 1.5532-1.1172 2.2313-1.8002 0.81991-0.91199 1.8179-1.7231 2.9939-2.0944l0.13155 0.25654c-0.93433 0.45518-1.5409 0.70135-3.0299 2.2994-0.74425 0.75449-1.5046 1.5392-2.5396 1.8772zm-0.26185-0.72705c0.90107-0.50295 1.5303-1.153 2.4419-2.048 1.1932-1.1898 2.3248-1.8589 3.1852-2.0519l-0.18831 0.59414c-0.93306 0.2641-2.0463 1.0089-2.6425 1.671-0.88153 0.92968-1.4782 1.5428-2.5745 2.2206zm4.7408 0.0637 0.28993-0.20309 0.57809 0.26367-0.10904 0.26143zm0.59818-0.43387c0.59059-0.40481 1.2725-0.61944 1.9573-0.7991l-0.70427 1.2484c-0.45134-0.11609-0.86121-0.27364-1.253-0.44926zm-6.9841-0.89972c1.1724-0.12123 2.9622-1.7623 3.6588-2.3819 1.3229-1.0311 1.4343-1.1163 3.1527-1.6957 0.17046 0.29497 0.33961 0.59071 0.50911 0.88625-1.4439 0.4224-1.7683 0.62458-2.9466 1.6728-1.2819 1.1962-2.4044 2.4564-3.6396 2.792zm0.72393-1.5056 0.87695 0.37957c-0.41188 0.39181-1.1722 0.64558-1.501 0.75024zm0.91097 0.0175 0.19531-0.40639c0.18308 0.073 0.32824 0.18351 0.43737 0.26154-0.12431 0.11059-0.23673 0.19693-0.3461 0.29949zm0.27521-0.75459c-0.06665-0.19656-0.13362-0.36133-0.19598-0.51959 0.32729 0.0892 0.71139 0.33661 1.1358 0.62022-0.12752 0.10942-0.2043 0.18072-0.32032 0.27366-0.23767-0.16947-0.44608-0.25454-0.61953-0.37429zm-0.24221-0.88772 0.5274-0.92508c0.44477 0.10825 1.5274 0.60951 1.8505 0.92305l-0.94566 0.7689c-0.44121-0.35749-0.93119-0.59991-1.4323-0.76687z" fill="#007bc4"/><path d="m73.683 392.2c0.02192 0.30797 0.30687 0.50943 0.72334 0.50943 0.40081 0 0.69828-0.21535 0.69828-0.50711 0-0.15052-0.08455-0.28483-0.22859-0.36587-0.09707-0.0509-0.19414-0.0834-0.43212-0.13662-0.2098-0.0463-0.27869-0.0672-0.34131-0.10651-0.06576-0.044-0.1096-0.12041-0.1096-0.19915 0-0.17366 0.16909-0.2987 0.40081-0.2987 0.23485 0 0.39454 0.11809 0.41333 0.30565h0.24111c-0.0094-0.27787-0.26929-0.46311-0.64818-0.46311-0.37263 0-0.64192 0.19219-0.64192 0.4608 0 0.11809 0.05949 0.23156 0.16283 0.30333 0.09081 0.0648 0.1597 0.088 0.43212 0.15284 0.18162 0.0393 0.28182 0.0718 0.3601 0.11114 0.1002 0.0533 0.15656 0.14125 0.15656 0.24545 0 0.19683-0.19101 0.34039-0.45717 0.34039-0.14717 0-0.28808-0.0487-0.37263-0.12735-0.06576-0.0602-0.09394-0.1181-0.1096-0.22461zm1.9067 0.47932h0.23172v-1.5561h0.52919v-0.15514h-1.2901v0.15514h0.52919zm1.8785-1.7413c-0.66384 0-1.2243 0.40059-1.2243 0.87528 0 0.49785 0.54485 0.89614 1.2275 0.89614 0.66697 0 1.2181-0.4006 1.2181-0.88456 0-0.48858-0.55111-0.88686-1.2212-0.88686zm0 0.15746c0.54172 0 0.98637 0.33112 0.98637 0.73172 0 0.39596-0.44778 0.72477-0.98324 0.72477-0.55111 0-0.99263-0.32881-0.99263-0.73404 0-0.39133 0.45404-0.72245 0.9895-0.72245zm2.3514 0.94475c0.44465-0.0347 0.68263-0.21535 0.68263-0.52332 0-0.21303-0.12212-0.37513-0.34758-0.46543-0.14404-0.0579-0.34132-0.0834-0.64818-0.0834h-0.57303v1.7112h0.23172v-1.5561h0.32566c0.24424 0 0.40707 0.0186 0.53232 0.0625 0.15656 0.0556 0.24424 0.17136 0.24424 0.3265 0 0.1945-0.11899 0.31723-0.35071 0.36123-0.1096 0.0208-0.2599 0.0301-0.51667 0.0301l0.7797 0.77572h0.28808zm0.92661 0.6391h0.23172v-1.5236l0.86738 1.5236h0.2004l0.87051-1.5236v1.5236h0.23172v-1.7112h-0.36011l-0.83919 1.4565-0.84232-1.4565h-0.3601zm2.5768-0.47932c0.02189 0.30797 0.30687 0.50943 0.72334 0.50943 0.40081 0 0.69828-0.21535 0.69828-0.50711 0-0.15052-0.08455-0.28483-0.22858-0.36587-0.09707-0.0509-0.19414-0.0834-0.43212-0.13662-0.20979-0.0463-0.27868-0.0672-0.34132-0.10651-0.06576-0.044-0.1096-0.12041-0.1096-0.19915 0-0.17366 0.1691-0.2987 0.40081-0.2987 0.23485 0 0.39455 0.11809 0.41333 0.30565h0.24112c-0.0094-0.27787-0.26929-0.46311-0.64818-0.46311-0.37263 0-0.64192 0.19219-0.64192 0.4608 0 0.11809 0.05949 0.23156 0.16283 0.30333 0.09081 0.0648 0.1597 0.088 0.43212 0.15284 0.18162 0.0393 0.28182 0.0718 0.3601 0.11114 0.1002 0.0533 0.15657 0.14125 0.15657 0.24545 0 0.19683-0.19101 0.34039-0.45717 0.34039-0.14717 0-0.28808-0.0487-0.37263-0.12735-0.06576-0.0602-0.09394-0.1181-0.1096-0.22461zm1.5967 0.47932h0.23171v-0.80351h1.1993v0.80351h0.23172v-1.7112h-0.23172v0.75256h-1.1993v-0.75256h-0.23171zm2.0539 0h0.23172v-1.7112h-0.23172zm0.5759 0h1.2651v-0.15514h-1.0333v-0.63216h0.9989v-0.15514h-0.9989v-0.61363h1.0333v-0.15514h-1.2651zm1.5466 0h1.1899v-0.15514h-0.95819v-1.5561h-0.23172zm1.3149 0h0.62314c0.34758 0 0.59182-0.0394 0.79535-0.12736 0.35071-0.15282 0.53546-0.40291 0.53546-0.72246 0-0.32186-0.18162-0.57658-0.52294-0.72709-0.22232-0.0973-0.46657-0.1343-0.88616-0.1343h-0.54485zm0.23172-0.15514v-1.4009h0.32253c0.34758 0 0.57616 0.0347 0.74526 0.10883 0.26616 0.12041 0.41959 0.33577 0.41959 0.59048 0 0.22461-0.11898 0.42143-0.33191 0.54879-0.18476 0.10883-0.42274 0.15283-0.83294 0.15283z" fill="#fff" stroke-width=".0042405" aria-label="STORMSHIELD"/><g transform="matrix(1.8829 0 0 1.8829 -8.4025 -343.92)" fill="#fff" stroke-width="1px"><path d="m70.512 393.35v0.10875q-0.05208-0.0485-0.1113-0.0725-0.05871-0.024-0.12509-0.024-0.1307 0-0.20014 0.0802-0.06943 0.0797-0.06943 0.23077 0 0.15061 0.06943 0.23077 0.06944 0.0797 0.20014 0.0797 0.06637 0 0.12509-0.024 0.05922-0.024 0.1113-0.0725v0.10773q-0.05412 0.0368-0.11488 0.0551-0.06025 0.0184-0.12764 0.0184-0.17308 0-0.27264-0.10569-0.09956-0.10619-0.09956-0.28948 0-0.1838 0.09956-0.28948 0.09956-0.1062 0.27264-0.1062 0.06842 0 0.12866 0.0184 0.06076 0.0179 0.11385 0.0541z"/><path d="m70.879 393.54q-0.07556 0-0.11947 0.0592-0.04391 0.0587-0.04391 0.16133 0 0.10262 0.0434 0.16185 0.04391 0.0587 0.11998 0.0587 0.07505 0 0.11896-0.0592t0.04391-0.16134q0-0.1016-0.04391-0.16082-0.04391-0.0597-0.11896-0.0597zm0-0.0796q0.12253 0 0.19248 0.0796t0.06995 0.22056q0 0.14041-0.06995 0.22056-0.06995 0.0797-0.19248 0.0797-0.12304 0-0.19299-0.0797-0.06944-0.0802-0.06944-0.22056 0-0.14091 0.06944-0.22056 0.06995-0.0796 0.19299-0.0796z"/><path d="m71.761 393.7v0.34513h-0.09394v-0.34207q0-0.0812-0.03165-0.12151-0.03166-0.0403-0.09496-0.0403-0.07607 0-0.11998 0.0485t-0.04391 0.13223v0.32318h-0.09445v-0.57182h0.09445v0.0888q0.0337-0.0516 0.07914-0.0771 0.04595-0.0255 0.10568-0.0255 0.09854 0 0.14908 0.0613 0.05054 0.0608 0.05054 0.17921z"/><path d="m72.304 393.49v0.0888q-0.03982-0.0204-0.08271-0.0306t-0.08884-0.0102q-0.06995 0-0.10518 0.0215-0.03472 0.0214-0.03472 0.0643 0 0.0327 0.02502 0.0516 0.02502 0.0184 0.10058 0.0352l0.03216 7e-3q0.10007 0.0214 0.14193 0.0607 0.04238 0.0388 0.04238 0.10875 0 0.0797-0.06331 0.12611-0.0628 0.0465-0.17308 0.0465-0.04595 0-0.09598-9e-3 -0.04952-9e-3 -0.10466-0.0265v-0.097q0.05208 0.0271 0.10262 0.0408 0.05054 0.0133 0.10007 0.0133 0.06637 0 0.10211-0.0225 0.03574-0.023 0.03574-0.0643 0-0.0383-0.02604-0.0587-0.02553-0.0204-0.11283-0.0393l-0.03268-8e-3q-0.08731-0.0184-0.12611-0.0562-0.0388-0.0383-0.0388-0.10466 0-0.0807 0.05718-0.12458 0.05718-0.0439 0.16236-0.0439 0.05208 0 0.09803 8e-3t0.08475 0.023z"/><path d="m72.696 393.54q-0.07556 0-0.11947 0.0592-0.04391 0.0587-0.04391 0.16133 0 0.10262 0.0434 0.16185 0.04391 0.0587 0.11998 0.0587 0.07505 0 0.11896-0.0592t0.04391-0.16134q0-0.1016-0.04391-0.16082-0.04391-0.0597-0.11896-0.0597zm0-0.0796q0.12253 0 0.19248 0.0796t0.06995 0.22056q0 0.14041-0.06995 0.22056-0.06995 0.0797-0.19248 0.0797-0.12304 0-0.19299-0.0797-0.06944-0.0802-0.06944-0.22056 0-0.14091 0.06944-0.22056 0.06995-0.0796 0.19299-0.0796z"/><path d="m73.103 393.26h0.09394v0.79442h-0.09394z"/><path d="m73.872 393.74v0.046h-0.43193q0.0061 0.097 0.0582 0.14806 0.05259 0.0505 0.14602 0.0505 0.05412 0 0.10466-0.0133 0.05106-0.0133 0.10109-0.0398v0.0888q-0.05054 0.0214-0.10364 0.0327-0.0531 0.0112-0.10773 0.0112-0.13683 0-0.21699-0.0797-0.07965-0.0796-0.07965-0.21545 0-0.1404 0.07556-0.2226 0.07607-0.0827 0.20473-0.0827 0.11538 0 0.18227 0.0745 0.06739 0.074 0.06739 0.20167zm-0.09394-0.0276q-1e-3 -0.0771-0.0434-0.12305-0.04187-0.0459-0.1113-0.0459-0.07863 0-0.12611 0.0444-0.04697 0.0444-0.05412 0.12509l0.33492-5.1e-4z"/></g><g stroke="#fff"><path d="m102.18 414.18c0 0.55286-0.44819 1.001-1.0011 1.001-0.55286 0-1.001-0.44819-1.001-1.001 0-0.55287 0.44819-1.0011 1.001-1.0011 0.55287 0 1.0011 0.44819 1.0011 1.0011z" color="#000000" fill-opacity="0" stroke-width=".11253"/><path d="m102.22 414.18h2.1455" fill="none" stroke-width=".10573px"/><path d="m106.12 414.89c-0.39397 0.39397-1.0327 0.39397-1.4267 0-0.39397-0.39397-0.39397-1.0327 0-1.4267 0.39396-0.39397 1.0327-0.39397 1.4267 0" color="#000000" fill-opacity="0" stroke-width=".097023"/></g><path d="m105.77 414.18c0 0.21181-0.17169 0.38351-0.3835 0.38351s-0.38351-0.1717-0.38351-0.38351c0-0.2118 0.1717-0.3835 0.38351-0.3835s0.3835 0.1717 0.3835 0.3835z" color="#000000" fill="#fff"/><path d="m105.81 414.18h2.1455" fill="none" stroke="#fff" stroke-width=".10573px"/><path d="m110 414.18c0 0.55286-0.4482 1.001-1.0011 1.001-0.55287 0-1.0011-0.44819-1.0011-1.001 0-0.55287 0.44819-1.0011 1.0011-1.0011 0.55286 0 1.0011 0.44819 1.0011 1.0011z" color="#000000" fill-opacity="0" stroke="#fff" stroke-width=".11253"/><path d="m101.34 414.23h-0.32215v-0.0934h0.32215z" fill="#fff"/><path d="m109.33 414.22h-0.28136v0.28136h-0.0856v-0.28136h-0.28136v-0.0826h0.28136v-0.28137h0.0856v0.28137h0.28136z" fill="#fff"/><g transform="matrix(1.8829 0 0 1.8829 -293.17 -324.12)"><g transform="scale(1.0397 .96177)"><path d="m242.28 396.3h0.29139v-0.82704l-0.29911 0.0617v-0.22455l0.29739-0.0617h0.31368v1.0516h0.29139v0.22797h-0.89474v-0.22797z" fill="#fff"/></g></g><g transform="matrix(1.8829 0 0 1.8829 -293.11 -311.67)"><g transform="scale(1.0397 .96177)"><path d="m242.26 395.25h0.82018v0.24254h-0.55707v0.19797c0.39494-0.0756 0.6496 0.0995 0.6496 0.42168 0 0.48078-0.55165 0.50834-0.9633 0.35743v-0.25968c0.34221 0.21416 0.63333 0.11878 0.63333-0.0977 0-0.25919-0.30699-0.26247-0.58277-0.14231v-0.7199z" fill="#fff"/></g></g><g transform="matrix(1.8829 0 0 1.8829 -224.93 -324.11)"><g transform="scale(1.0397 .96177)"><path d="m242.72 395.52-0.36167 0.53564h0.36167zm-0.0549-0.27168h0.36681v0.80732h0.18255v0.23911h-0.18255v0.23312h-0.31196v-0.23312h-0.56735v-0.28282z" fill="#fff"/></g></g><g transform="matrix(1.8829 0 0 1.8829 -224.94 -311.69)"><g transform="scale(1.0397 .96177)"><path d="m242.69 395.96c-0.11923 0-0.19197 0.0685-0.19197 0.19544 0 0.12699 0.0866 0.19454 0.19197 0.19454s0.18936-0.0572 0.18936-0.19454c0-0.13731-0.0701-0.19544-0.18936-0.19544zm-0.24082-0.10884c-0.21253-0.0607-0.2348-0.21482-0.2348-0.28968 0-0.2755 0.25088-0.33163 0.47565-0.33163 0.34902 0 0.47394 0.14503 0.47394 0.33163 0 0.19004-0.1495 0.26472-0.23569 0.28968 0.20464 0.0593 0.26306 0.19479 0.26306 0.32138 0 0.31789-0.25191 0.38477-0.50137 0.38477-0.35371 8e-3 -0.50393-0.14779-0.50393-0.38477 0-0.23375 0.18884-0.29986 0.26312-0.32138zm0.0771-0.25626c0 0.11946 0.0824 0.15852 0.1637 0.15852s0.16113-0.0358 0.16113-0.15852c0-0.12267-0.0785-0.15765-0.16113-0.15765-0.0826 0-0.1637 0.0382-0.1637 0.15765z" fill="#fff"/></g></g><rect x="186.78" y="385.43" width="58.888" height="27.14" rx="1.3878e-16" ry="1.3878e-16" fill="#3a3a3a" fill-rule="evenodd" stroke="#000" stroke-linecap="round" stroke-miterlimit="5.5" stroke-width=".5"/><g transform="matrix(1.884 0 0 1.8691 -25.628 -247.16)"><path d="m113.63 340.44h1.7574l-3e-3 -1.0731 0.63956-5.7e-4v-0.40181h2.0614l-4.8e-4 0.40286h0.6657v1.0732l4.1044-5.8e-4 -3e-3 -1.0731 0.63956-5.7e-4v-0.40181h2.0614l-4.8e-4 0.40286h0.6657v1.0732l4.1867-5.8e-4 -3e-3 -1.0731 0.63956-5.7e-4v-0.40181h2.0614l-4.8e-4 0.40286h0.6657v1.0732l4.1856-5.8e-4 -3e-3 -1.0731 0.63956-5.7e-4v-0.40181h2.0614l-4.8e-4 0.40286h0.6657v1.0732h1.7493l0.0101 10.529h-1.7574l3e-3 1.0731-0.63956 5.7e-4v0.40181h-2.0614l4.8e-4 -0.40286h-0.6657v-1.0732l-4.1856 5.8e-4 3e-3 1.0731-0.63956 5.7e-4v0.40181h-2.0614l4.8e-4 -0.40286h-0.6657v-1.0732l-4.1867 5.8e-4 3e-3 1.0731-0.63956 5.7e-4v0.40181h-2.0614l4.8e-4 -0.40286h-0.6657v-1.0732l-4.1044 5.8e-4 3e-3 1.0731-0.63956 5.7e-4v0.40181h-2.0614l4.8e-4 -0.40286h-0.6657v-1.0732h-1.7493z"/></g><g transform="matrix(1.884 0 0 1.8691 31.11 -247.15)"><path d="m85.543 338.66-2.7991 1e-3 0.0021 14.079 2.8115 1e-3v-0.67711l-2.26 1e-3v-0.87672l0.22289-7e-3v-4.8067l6.8711-4e-3 0.0011 4.8109 0.22289 7e-3v0.87672l-2.2476-1e-3v0.67711l2.3149-1e-3h0.0031l2.3398 1e-3v-0.67711l-2.2611 1e-3v-0.87672l0.22289-7e-3 0.0011-4.8067 6.8711-4e-3v4.8109l0.22289 7e-3v0.87672l-2.2476-1e-3v0.67711l2.3968-1e-3h0.0041l2.3388 1e-3v-0.67711l-2.2611 1e-3v-0.87672l0.22289-7e-3 0.0011-4.8067 6.8711-4e-3v4.8109l0.22289 7e-3v0.87672l-2.2465-1e-3v0.67711l2.3958-1e-3 2.343 1e-3v-0.67711l-2.2611 1e-3v-0.87672l0.22393-7e-3v-4.8067l6.8461-0.0449v4.8517l0.22393 7e-3v0.87672l-2.2476-1e-3v0.67711l2.7991-1e-3 -2e-3 -14.079-2.8126-1e-3v0.67711l2.2611-1e-3v0.87672l-0.22392 7e-3v4.8068l-6.8461 0.0439v-4.8506l-0.22289-7e-3v-0.87672l2.2476 1e-3v-0.67711l-2.3253 1e-3 -2.4145-1e-3v0.67711l2.2611-1e-3v0.87672l-0.22393 7e-3v4.836l-5e-3 5e-3 -6.8663 9e-3v-4.8506l-0.22289-7e-3v-0.87672l2.2465 1e-3v-0.67711l-2.3253 1e-3h-0.0041l-2.4093-1e-3v0.67711l2.26-1e-3v0.87672l-0.22289 7e-3v4.836l-0.0052 5e-3 -6.8663 9e-3v-4.8506l-0.22393-7e-3v-0.87672l2.2476 1e-3v-0.67711l-2.3253 1e-3h-0.0041l-2.3284-1e-3v0.67711l2.2611-1e-3v0.87672l-0.22289 7e-3 -0.0011 4.836-0.0041 5e-3 -6.8663 9e-3 -0.0011-4.8506-0.22289-7e-3v-0.87672l2.2476 1e-3v-0.67711z" fill="#ebebeb" stroke-width=".5329"/></g><text x="75.30928" y="398.21808" fill="#ffffff" font-family="'URW Gothic'" font-size="5.3333px" letter-spacing="0px" stroke="#808080" stroke-width="3.7795" style="line-height:1.1;text-decoration-color:#000000" xml:space="preserve"><tspan x="75.30928" y="398.21808" font-size="5.3333px" letter-spacing="0px" stroke="none">SN310</tspan></text><g transform="matrix(0 1.8829 -1.8829 0 890.59 125.56)" stroke-width=".25652"><path d="m144.46 390.56h7.7398v-2.6354h-7.7398z"/><path d="m144.46 390.56h7.7398v-2.6355h-7.7398z" fill="none" stroke="#535353" stroke-linecap="round" stroke-linejoin="round" stroke-miterlimit="4.4615" stroke-width=".25652"/><path d="m144.92 388.34h6.8413v0.9015h-6.8413z" fill="#a09a9a" fill-rule="evenodd"/><path d="m145.15 389.01h6.3819v-0.43973h-6.3819z" fill="#505050"/></g><g transform="matrix(0 1.8829 -1.8829 0 876.7 125.56)" stroke-width=".25652"><path d="m144.46 390.56h7.7398v-2.6354h-7.7398z"/><path d="m144.46 390.56h7.7398v-2.6355h-7.7398z" fill="none" stroke="#535353" stroke-linecap="round" stroke-linejoin="round" stroke-miterlimit="4.4615" stroke-width=".25652"/><path d="m144.92 388.34h6.8413v0.9015h-6.8413z" fill="#5f8dd3" fill-rule="evenodd"/><path d="m145.15 389.01h6.3819v-0.43973h-6.3819z" fill="#2c5aa0"/></g><g><rect x="100.1" y="398.77" width="10.299" height="12.537" fill="#666"/><circle cx="105.25" cy="404.15" r="3.4329"/><circle cx="105.25" cy="404.15" r="1.4038" fill="#b3b3b3"/><rect x="119.64" y="400.99" width="14.617" height="11.082" fill="#ccc"/></g><path d="m123.23 401.81h7.4933l3.0296 2.59v6.8558h-13.615v-6.8558z" stroke-width=".483"/><rect x="123.2" y="404.69" width="7.4933" height="3.6939" fill="#666"/></svg>
