<?xml version="1.0" encoding="UTF-8"?>
<svg width="440" height="44.45" version="1.1" viewBox="66 376 440 44.45" xml:space="preserve" xmlns="http://www.w3.org/2000/svg"><rect x="66.248" y="376.25" width="439.5" height="43.954" fill="#000005" fill-rule="evenodd" stroke="#000" stroke-linecap="round" stroke-miterlimit="4.4" stroke-width=".49562"/><text transform="scale(1.0397 .96179)" x="86.839722" y="303.23425" fill="#ffffff" font-family="sans-serif" font-size="2.4767px" font-weight="700" stroke-width=".99998"/><text transform="scale(1.0003 .99969)" x="92.350449" y="282.76303" fill="#000000" font-family="sans-serif" font-size="21.25px" letter-spacing="0px" stroke-width=".99999px" word-spacing="0px" style="line-height:125%" xml:space="preserve"/><rect x="69.121" y="378.68" width="432.58" height="38.682" rx="2" ry="2" fill="#333"/><path d="m257.26 415.77c0.77564 0.30188 1.1655 0.0487 1.2129-0.45472-0.67338 0.38764-1.3791 0.0127-1.3791-0.59753 0.01-0.66591 0.59936-0.82413 0.9664-0.82413 0.82872 0 1.0268 0.63138 1.0268 1.1702 0 1.1563-0.94113 1.412-1.8271 1.1346zm0.79696-0.68753c0.2215 0 0.34054-0.15465 0.34054-0.40661 0-0.25194-0.0971-0.40669-0.34054-0.40669-0.2434 0-0.34058 0.1369-0.34058 0.40669 0 0.26974 0.11902 0.40661 0.34058 0.40661z" fill="#fff"/><g transform="translate(4.037 -2.6523)" fill="#fff"><path d="m279.73 417.75c0-0.53069-0.0881-0.79005-0.38417-0.79005-0.29612 0-0.38582 0.27222-0.38582 0.79005 0 0.51784 0.085 0.79924 0.38582 0.79924 0.30079 0 0.38417-0.26855 0.38417-0.79924zm0.64593 5e-3c0 0.65291-0.27398 1.201-1.0302 1.2013-0.75618 3.1e-4 -1.0316-0.54059-1.0318-1.2013-1.7e-4 -0.52824 0.21088-1.2028 1.0318-1.2028 0.82094 0 1.0302 0.54991 1.0302 1.2028z"/><path d="m276.57 418.54h0.57044v-1.4977l-0.58554 0.11175v-0.40665l0.58217-0.11173h0.61408v1.9044h0.57045v0.41283h-1.7516z"/></g><g transform="translate(4.7661 -.038527)" fill="#fff"><path d="m322.92 415.9h1.0987v0.44067h-1.8144v-0.44067l0.91139-0.74897c0.67208-0.67649-0.20858-1.0249-0.90452-0.52927v-0.51072c0.87433-0.26632 1.791-0.16132 1.791 0.55902-0.0194 0.39057-0.27318 0.56142-0.54852 0.79413z"/><path d="m320.02 415.93h0.57044v-1.4977l-0.58554 0.11175v-0.40665l0.58217-0.11173h0.61408v1.9044h0.57045v0.41283h-1.7516z"/></g><g transform="translate(0 .9845)" fill="#fff"><path d="m302.18 414.9h0.57044v-1.4977l-0.58554 0.11175v-0.40665l0.58217-0.11173h0.61408v1.9044h0.57045v0.41283h-1.7516z"/><path d="m299.97 414.9h0.57044v-1.4977l-0.58554 0.11175v-0.40665l0.58217-0.11173h0.61408v1.9044h0.57045v0.41283h-1.7516z"/></g><g><path d="m383.08 388.5c0.26511-0.19547 0.49379-0.40032 0.87608-0.74536 0.59996 0.36721 0.8954 0.52654 1.8331 0.79505-0.16881 0.2992-0.3383 0.59804-0.50768 0.89693-0.95771-0.18834-1.616-0.54683-2.2015-0.94662zm-2.945-1e-3c1.1271-0.34885 2.0247-1.2403 2.839-2.0454 1.0469-1.1732 2.2259-1.9752 3.7363-2.4401l0.76321 1.3512c-1.4399 0.24544-2.691 1.0642-3.648 2.04-1.0047 0.99166-2.0739 1.6872-3.163 2.0194zm4.068-0.94904 0.38294-0.37224 0.96526 0.42734 0.19455 0.61108c-0.56023-0.18864-1.0764-0.40931-1.5428-0.66619zm-3.829 0.0546c0.86615-0.44897 1.5532-1.1172 2.2313-1.8002 0.81991-0.91199 1.8179-1.7231 2.9939-2.0944l0.13155 0.25654c-0.93432 0.45518-1.5409 0.70135-3.0299 2.2994-0.74425 0.75449-1.5046 1.5392-2.5396 1.8772zm-0.26185-0.72705c0.90107-0.50295 1.5303-1.153 2.4419-2.048 1.1932-1.1898 2.3248-1.8589 3.1852-2.0519l-0.18831 0.59414c-0.93305 0.2641-2.0463 1.0089-2.6425 1.671-0.88153 0.92968-1.4782 1.5428-2.5745 2.2206zm4.7408 0.0637 0.28993-0.20309 0.57809 0.26367-0.10904 0.26143zm0.59818-0.43387c0.59059-0.40481 1.2725-0.61944 1.9573-0.7991l-0.70428 1.2484c-0.45133-0.11609-0.86121-0.27364-1.253-0.44926zm-6.9841-0.89972c1.1724-0.12123 2.9622-1.7623 3.6588-2.3819 1.323-1.0311 1.4343-1.1163 3.1527-1.6957 0.17047 0.29497 0.33961 0.59071 0.50912 0.88625-1.4439 0.4224-1.7683 0.62458-2.9466 1.6728-1.2819 1.1962-2.4044 2.4564-3.6396 2.792zm0.72393-1.5056 0.87695 0.37957c-0.41188 0.39181-1.1722 0.64558-1.501 0.75024zm0.91098 0.0175 0.19531-0.40639c0.18308 0.073 0.32824 0.18351 0.43736 0.26154-0.12431 0.11059-0.23672 0.19693-0.3461 0.29949zm0.27521-0.75459c-0.0666-0.19656-0.13362-0.36133-0.19598-0.51959 0.32729 0.0892 0.71138 0.33661 1.1358 0.62022-0.12753 0.10942-0.2043 0.18072-0.32032 0.27366-0.23767-0.16947-0.44608-0.25454-0.61953-0.37429zm-0.24221-0.88772 0.5274-0.92508c0.44478 0.10825 1.5274 0.60951 1.8505 0.92305l-0.94566 0.7689c-0.44122-0.35749-0.93119-0.59991-1.4323-0.76687z" fill="#007bc4"/><path d="m373.63 392.54c0.0219 0.30797 0.30687 0.50943 0.72333 0.50943 0.40081 0 0.69829-0.21535 0.69829-0.50711 0-0.15052-0.0846-0.28483-0.22859-0.36587-0.0971-0.0509-0.19414-0.0834-0.43212-0.13662-0.2098-0.0463-0.27869-0.0672-0.34131-0.10651-0.0658-0.044-0.1096-0.12041-0.1096-0.19915 0-0.17366 0.16909-0.2987 0.40081-0.2987 0.23485 0 0.39454 0.11809 0.41333 0.30565h0.24112c-9e-3 -0.27787-0.2693-0.46311-0.64819-0.46311-0.37263 0-0.64192 0.19219-0.64192 0.4608 0 0.11809 0.0595 0.23156 0.16283 0.30333 0.0908 0.0648 0.1597 0.088 0.43212 0.15284 0.18162 0.0393 0.28182 0.0718 0.3601 0.11114 0.10021 0.0533 0.15657 0.14125 0.15657 0.24545 0 0.19683-0.19101 0.34039-0.45717 0.34039-0.14718 0-0.28809-0.0487-0.37263-0.12735-0.0658-0.0602-0.0939-0.1181-0.1096-0.22461zm1.9067 0.47932h0.23172v-1.5561h0.52919v-0.15514h-1.2901v0.15514h0.52919zm1.8785-1.7413c-0.66384 0-1.2244 0.40059-1.2244 0.87528 0 0.49785 0.54485 0.89614 1.2275 0.89614 0.66697 0 1.2181-0.4006 1.2181-0.88456 0-0.48858-0.55111-0.88686-1.2212-0.88686zm0 0.15746c0.54171 0 0.98636 0.33112 0.98636 0.73172 0 0.39596-0.44778 0.72477-0.98323 0.72477-0.55112 0-0.99263-0.32881-0.99263-0.73404 0-0.39133 0.45404-0.72245 0.9895-0.72245zm2.3514 0.94475c0.44464-0.0347 0.68262-0.21535 0.68262-0.52332 0-0.21303-0.12212-0.37513-0.34757-0.46543-0.14404-0.0579-0.34132-0.0834-0.64819-0.0834h-0.57303v1.7112h0.23172v-1.5561h0.32566c0.24424 0 0.40707 0.0186 0.53232 0.0625 0.15657 0.0556 0.24424 0.17136 0.24424 0.3265 0 0.1945-0.11899 0.31723-0.3507 0.36123-0.1096 0.0208-0.2599 0.0301-0.51667 0.0301l0.7797 0.77572h0.28808zm0.92661 0.6391h0.23171v-1.5236l0.86738 1.5236h0.2004l0.87051-1.5236v1.5236h0.23172v-1.7112h-0.3601l-0.8392 1.4565-0.84232-1.4565h-0.3601zm2.5768-0.47932c0.0219 0.30797 0.30686 0.50943 0.72333 0.50943 0.40081 0 0.69828-0.21535 0.69828-0.50711 0-0.15052-0.0845-0.28483-0.22858-0.36587-0.0971-0.0509-0.19414-0.0834-0.43212-0.13662-0.2098-0.0463-0.27869-0.0672-0.34132-0.10651-0.0658-0.044-0.1096-0.12041-0.1096-0.19915 0-0.17366 0.1691-0.2987 0.40082-0.2987 0.23485 0 0.39454 0.11809 0.41333 0.30565h0.24111c-9e-3 -0.27787-0.26929-0.46311-0.64818-0.46311-0.37263 0-0.64192 0.19219-0.64192 0.4608 0 0.11809 0.0595 0.23156 0.16283 0.30333 0.0908 0.0648 0.15969 0.088 0.43212 0.15284 0.18162 0.0393 0.28182 0.0718 0.3601 0.11114 0.1002 0.0533 0.15657 0.14125 0.15657 0.24545 0 0.19683-0.19101 0.34039-0.45717 0.34039-0.14718 0-0.28808-0.0487-0.37263-0.12735-0.0658-0.0602-0.0939-0.1181-0.1096-0.22461zm1.5967 0.47932h0.23171v-0.80351h1.1993v0.80351h0.23172v-1.7112h-0.23172v0.75256h-1.1993v-0.75256h-0.23171zm2.0539 0h0.23172v-1.7112h-0.23172zm0.5759 0h1.265v-0.15514h-1.0333v-0.63216h0.99889v-0.15514h-0.99889v-0.61363h1.0333v-0.15514h-1.265zm1.5466 0h1.1899v-0.15514h-0.95819v-1.5561h-0.23172zm1.3149 0h0.62313c0.34758 0 0.59182-0.0394 0.79536-0.12736 0.35071-0.15282 0.53546-0.40291 0.53546-0.72246 0-0.32186-0.18162-0.57658-0.52294-0.72709-0.22232-0.0973-0.46657-0.1343-0.88616-0.1343h-0.54485zm0.23171-0.15514v-1.4009h0.32253c0.34758 0 0.57617 0.0347 0.74526 0.10883 0.26616 0.12041 0.41959 0.33577 0.41959 0.59048 0 0.22461-0.11898 0.42143-0.33191 0.54879-0.18476 0.10883-0.42274 0.15283-0.83294 0.15283z" fill="#fff" stroke-width=".0042405" aria-label="STORMSHIELD"/><text x="375.25293" y="398.55536" fill="#ffffff" font-family="'URW Gothic'" font-size="5.3333px" letter-spacing="0px" stroke="#808080" stroke-width="3.7795" style="line-height:1.1;text-decoration-color:#000000" xml:space="preserve"><tspan x="375.25293" y="398.55536" font-size="5.3333px" letter-spacing="0px" stroke="none">SN510</tspan></text></g><g transform="matrix(-1.8829 0 0 -1.8829 632 1142.2)" stroke-width=".25652"><path d="m144.46 390.56h7.7398v-2.6354h-7.7398z"/><path d="m144.46 390.56h7.7398v-2.6355h-7.7398z" fill="none" stroke="#535353" stroke-linecap="round" stroke-linejoin="round" stroke-miterlimit="4.4615" stroke-width=".25652"/><path d="m144.92 388.34h6.8413v0.9015h-6.8413z" fill="#a09a9a" fill-rule="evenodd"/><path d="m145.15 389.01h6.3819v-0.43973h-6.3819z" fill="#505050"/></g><g transform="matrix(-1.8829 0 0 -1.8829 632 1134.5)" stroke-width=".25652"><path d="m144.46 390.56h7.7398v-2.6354h-7.7398z"/><path d="m144.46 390.56h7.7398v-2.6355h-7.7398z" fill="none" stroke="#535353" stroke-linecap="round" stroke-linejoin="round" stroke-miterlimit="4.4615" stroke-width=".25652"/><path d="m144.92 388.34h6.8413v0.9015h-6.8413z" fill="#a09a9a" fill-rule="evenodd"/><path d="m145.15 389.01h6.3819v-0.43973h-6.3819z" fill="#505050"/></g><g transform="matrix(1.8829 0 0 1.8829 -260.6 -334.78)"><g transform="scale(1.0397 .96177)"><path d="m242.28 396.3h0.29139v-0.82704l-0.29911 0.0617v-0.22455l0.29739-0.0617h0.31368v1.0516h0.29139v0.22797h-0.89474v-0.22797z" fill="#fff"/></g></g><g transform="matrix(1.8829 0 0 1.8829 -216.97 -334.82)"><g transform="scale(1.0397 .96177)"><path d="m242.89 395.84c0.19785 0.0573 0.26396 0.19177 0.26396 0.32652 0 0.44854-0.60887 0.42779-0.96416 0.32488v-0.25454c0.31108 0.1535 0.63423 0.1236 0.63423-0.0823 8e-3 -0.18976-0.28283-0.17739-0.28283-0.17739h-0.13198v-0.21254h0.13884c0.0749 0 0.24602-3e-3 0.24602-0.15773 0-0.22229-0.3928-0.15669-0.54932-0.0832v-0.24168c0.42075-0.12187 0.87932-0.0677 0.87932 0.27347 0 0.2523-0.20257 0.26497-0.23393 0.28454z" fill="#fff"/></g></g><g transform="matrix(1.8829 0 0 1.8829 -173.54 -334.82)"><g transform="scale(1.0397 .96177)"><path d="m242.26 395.25h0.82018v0.24254h-0.55707v0.19797c0.39494-0.0756 0.6496 0.0995 0.6496 0.42168 0 0.48078-0.55165 0.50834-0.9633 0.35743v-0.25968c0.34221 0.21416 0.63333 0.11878 0.63333-0.0977 0-0.25919-0.30699-0.26247-0.58277-0.14231v-0.7199z" fill="#fff"/></g></g><g transform="matrix(1.8829 0 0 1.8829 -260.5 -301.78)"><g transform="scale(1.0397 .96177)"><path d="m242.19 395.25h0.96416v0.18597l-0.49879 1.0936h-0.32139l0.47223-1.037h-0.61621z" fill="#fff"/></g></g><g transform="matrix(1.8829 0 0 1.8829 -235.15 -334.79)"><g transform="scale(1.0397 .96177)"><path d="m242.58 396.29h0.56307v0.24254h-0.92988v-0.24254l0.46708-0.41224c0.34444-0.37235-0.10689-0.56413-0.46356-0.29132v-0.2811c0.44809-0.14659 0.91788-0.0888 0.91788 0.30769-0.01 0.21497-0.14 0.309-0.28111 0.43709l-0.27339 0.23997z" fill="#fff"/></g></g><g transform="matrix(1.8829 0 0 1.8829 -192.59 -334.78)"><g transform="scale(1.0397 .96177)"><path d="m242.72 395.52-0.36167 0.53564h0.36167zm-0.0549-0.27168h0.36681v0.80732h0.18255v0.23911h-0.18255v0.23312h-0.31196v-0.23312h-0.56735v-0.28282z" fill="#fff"/></g></g><g transform="matrix(1.8829 0 0 1.8829 -148.14 -334.83)"><g transform="scale(1.0397 .96177)"><path d="m242.71 395.9c-0.13779 0-0.17307 0.0912-0.17307 0.22458s0.0394 0.22453 0.17307 0.22453c0.13364 0 0.17397-0.1085 0.17397-0.22453s-0.0362-0.22458-0.17397-0.22458zm0.40795-0.61449v0.23654c-0.4219-0.17401-0.61965-2e-3 -0.61965 0.24934 0.3497-0.21826 0.70363-2e-3 0.70363 0.33166-3e-3 0.3632-0.29284 0.45337-0.49537 0.45337-0.36424 0-0.52279-0.27758-0.52279-0.6462 0-0.6213 0.45414-0.76388 0.93417-0.62483z" fill="#fff"/></g></g><g transform="matrix(1.8829 0 0 1.8829 -235.17 -301.83)"><g transform="scale(1.0397 .96177)"><path d="m242.69 395.96c-0.11923 0-0.19197 0.0685-0.19197 0.19544 0 0.12699 0.0866 0.19454 0.19197 0.19454s0.18936-0.0572 0.18936-0.19454c0-0.13731-0.0701-0.19544-0.18936-0.19544zm-0.24082-0.10884c-0.21253-0.0607-0.2348-0.21482-0.2348-0.28968 0-0.2755 0.25088-0.33163 0.47565-0.33163 0.34902 0 0.47394 0.14503 0.47394 0.33163 0 0.19004-0.1495 0.26472-0.23569 0.28968 0.20464 0.0593 0.26306 0.19479 0.26306 0.32138 0 0.31789-0.25191 0.38477-0.50137 0.38477-0.35371 8e-3 -0.50393-0.14779-0.50393-0.38477 0-0.23375 0.18884-0.29986 0.26312-0.32138zm0.0771-0.25626c0 0.11946 0.0824 0.15852 0.1637 0.15852s0.16113-0.0358 0.16113-0.15852c0-0.12267-0.0785-0.15765-0.16113-0.15765-0.0826 0-0.1637 0.0382-0.1637 0.15765z" fill="#fff"/></g></g><g transform="translate(.025167 -89.367)"><rect x="211.99" y="474.02" width="30.763" height="27.14" rx="1.3878e-16" ry="1.3878e-16" fill="#3a3a3a" fill-rule="evenodd" stroke="#000" stroke-linecap="round" stroke-miterlimit="5.5" stroke-width=".5"/><g transform="matrix(1.884 0 0 1.8691 42.094 -158.68)"><path transform="matrix(.53079 0 0 .53502 42.326 334.25)" d="m91.539 9.625v1.418h3.2988v-1.418zm14.068 0v1.418h3.2988v-1.418zm-3.839 0.00781v1.4102h3.2715v-1.4102zm14.07 0v1.4102h3.2695v-1.4102zm-24.273 22.158v1.4082h3.2715v-1.4082zm10.221 0v1.416h3.2988v-1.416zm3.8496 0v1.4082h3.2695v-1.4082zm10.219 0v1.416h3.2988v-1.416z" fill="#abb927" stroke-width="1.8765"/></g><g transform="matrix(1.884 0 0 1.8691 -.42054 -158.68)"><path d="m113.63 340.44h1.7574l-3e-3 -1.0731 0.63956-5.7e-4v-0.40181h2.0614l-4.8e-4 0.40286h0.6657v1.0732l4.1044-5.8e-4 -3e-3 -1.0731 0.63956-5.7e-4v-0.40181h2.0212l-4.8e-4 0.40286h0.6657v1.0732h1.8544l0.0101 10.529h-1.8624l3e-3 1.0731-0.63956 5.7e-4v0.40181h-2.0212l4.8e-4 -0.40286h-0.6657v-1.0732l-4.1044 5.8e-4 3e-3 1.0731-0.63956 5.7e-4v0.40181h-2.0614l4.8e-4 -0.40286h-0.6657v-1.0732h-1.7493z"/></g><g transform="matrix(1.884 0 0 1.8691 56.318 -158.68)"><path d="m85.543 338.66-2.7991 1e-3 0.0021 14.079 2.8115 1e-3v-0.67711l-2.26 1e-3v-0.87672l0.22289-7e-3v-4.8067l6.8711-4e-3 0.0011 4.8109 0.22289 7e-3v0.87672l-2.2476-1e-3v0.67711l2.3149-1e-3h0.0031l2.3398 1e-3v-0.67711l-2.2611 1e-3v-0.87672l0.22289-7e-3 0.0011-4.8067 6.9379-0.0445v4.8517l0.22393 7e-3v0.87672l-2.2476-1e-3v0.67711l2.7991-1e-3 -2e-3 -14.079-2.8126-1e-3v0.67711l2.2611-1e-3v0.87672l-0.22392 7e-3v4.8068l-6.9385 0.0417v-4.8506l-0.22393-7e-3v-0.87672l2.2476 1e-3v-0.67711l-2.3253 1e-3h-0.0041l-2.3284-1e-3v0.67711l2.2611-1e-3v0.87672l-0.22289 7e-3 -0.0011 4.836-0.0041 5e-3 -6.8663 9e-3 -0.0011-4.8506-0.22289-7e-3v-0.87672l2.2476 1e-3v-0.67611z" fill="#ebebeb" stroke-width=".5329"/></g></g><g transform="translate(43.492 -89.367)"><rect x="211.99" y="474.02" width="30.763" height="27.14" rx="1.3878e-16" ry="1.3878e-16" fill="#3a3a3a" fill-rule="evenodd" stroke="#000" stroke-linecap="round" stroke-miterlimit="5.5" stroke-width=".5"/><g transform="matrix(1.884 0 0 1.8691 42.094 -158.68)"><path transform="matrix(.53079 0 0 .53502 42.326 334.25)" d="m91.539 9.625v1.418h3.2988v-1.418zm14.068 0v1.418h3.2988v-1.418zm-3.839 0.00781v1.4102h3.2715v-1.4102zm14.07 0v1.4102h3.2695v-1.4102zm-24.273 22.158v1.4082h3.2715v-1.4082zm10.221 0v1.416h3.2988v-1.416zm3.8496 0v1.4082h3.2695v-1.4082zm10.219 0v1.416h3.2988v-1.416z" fill="#abb927" stroke-width="1.8765"/></g><g transform="matrix(1.884 0 0 1.8691 -.42054 -158.68)"><path d="m113.63 340.44h1.7574l-3e-3 -1.0731 0.63956-5.7e-4v-0.40181h2.0614l-4.8e-4 0.40286h0.6657v1.0732l4.1044-5.8e-4 -3e-3 -1.0731 0.63956-5.7e-4v-0.40181h2.0212l-4.8e-4 0.40286h0.6657v1.0732h1.8544l0.0101 10.529h-1.8624l3e-3 1.0731-0.63956 5.7e-4v0.40181h-2.0212l4.8e-4 -0.40286h-0.6657v-1.0732l-4.1044 5.8e-4 3e-3 1.0731-0.63956 5.7e-4v0.40181h-2.0614l4.8e-4 -0.40286h-0.6657v-1.0732h-1.7493z"/></g><g transform="matrix(1.884 0 0 1.8691 56.318 -158.68)"><path d="m85.543 338.66-2.7991 1e-3 0.0021 14.079 2.8115 1e-3v-0.67711l-2.26 1e-3v-0.87672l0.22289-7e-3v-4.8067l6.8711-4e-3 0.0011 4.8109 0.22289 7e-3v0.87672l-2.2476-1e-3v0.67711l2.3149-1e-3h0.0031l2.3398 1e-3v-0.67711l-2.2611 1e-3v-0.87672l0.22289-7e-3 0.0011-4.8067 6.9379-0.0445v4.8517l0.22393 7e-3v0.87672l-2.2476-1e-3v0.67711l2.7991-1e-3 -2e-3 -14.079-2.8126-1e-3v0.67711l2.2611-1e-3v0.87672l-0.22392 7e-3v4.8068l-6.9385 0.0417v-4.8506l-0.22393-7e-3v-0.87672l2.2476 1e-3v-0.67711l-2.3253 1e-3h-0.0041l-2.3284-1e-3v0.67711l2.2611-1e-3v0.87672l-0.22289 7e-3 -0.0011 4.836-0.0041 5e-3 -6.8663 9e-3 -0.0011-4.8506-0.22289-7e-3v-0.87672l2.2476 1e-3v-0.67611z" fill="#ebebeb" stroke-width=".5329"/></g></g><g transform="translate(86.958 -89.367)"><rect x="211.99" y="474.02" width="30.763" height="27.14" rx="1.3878e-16" ry="1.3878e-16" fill="#3a3a3a" fill-rule="evenodd" stroke="#000" stroke-linecap="round" stroke-miterlimit="5.5" stroke-width=".5"/><g transform="matrix(1.884 0 0 1.8691 42.094 -158.68)"><path transform="matrix(.53079 0 0 .53502 42.326 334.25)" d="m91.539 9.625v1.418h3.2988v-1.418zm14.068 0v1.418h3.2988v-1.418zm-3.839 0.00781v1.4102h3.2715v-1.4102zm14.07 0v1.4102h3.2695v-1.4102zm-24.273 22.158v1.4082h3.2715v-1.4082zm10.221 0v1.416h3.2988v-1.416zm3.8496 0v1.4082h3.2695v-1.4082zm10.219 0v1.416h3.2988v-1.416z" fill="#abb927" stroke-width="1.8765"/></g><g transform="matrix(1.884 0 0 1.8691 -.42054 -158.68)"><path d="m113.63 340.44h1.7574l-3e-3 -1.0731 0.63956-5.7e-4v-0.40181h2.0614l-4.8e-4 0.40286h0.6657v1.0732l4.1044-5.8e-4 -3e-3 -1.0731 0.63956-5.7e-4v-0.40181h2.0212l-4.8e-4 0.40286h0.6657v1.0732h1.8544l0.0101 10.529h-1.8624l3e-3 1.0731-0.63956 5.7e-4v0.40181h-2.0212l4.8e-4 -0.40286h-0.6657v-1.0732l-4.1044 5.8e-4 3e-3 1.0731-0.63956 5.7e-4v0.40181h-2.0614l4.8e-4 -0.40286h-0.6657v-1.0732h-1.7493z"/></g><g transform="matrix(1.884 0 0 1.8691 56.318 -158.68)"><path d="m85.543 338.66-2.7991 1e-3 0.0021 14.079 2.8115 1e-3v-0.67711l-2.26 1e-3v-0.87672l0.22289-7e-3v-4.8067l6.8711-4e-3 0.0011 4.8109 0.22289 7e-3v0.87672l-2.2476-1e-3v0.67711l2.3149-1e-3h0.0031l2.3398 1e-3v-0.67711l-2.2611 1e-3v-0.87672l0.22289-7e-3 0.0011-4.8067 6.9379-0.0445v4.8517l0.22393 7e-3v0.87672l-2.2476-1e-3v0.67711l2.7991-1e-3 -2e-3 -14.079-2.8126-1e-3v0.67711l2.2611-1e-3v0.87672l-0.22392 7e-3v4.8068l-6.9385 0.0417v-4.8506l-0.22393-7e-3v-0.87672l2.2476 1e-3v-0.67711l-2.3253 1e-3h-0.0041l-2.3284-1e-3v0.67711l2.2611-1e-3v0.87672l-0.22289 7e-3 -0.0011 4.836-0.0041 5e-3 -6.8663 9e-3 -0.0011-4.8506-0.22289-7e-3v-0.87672l2.2476 1e-3v-0.67611z" fill="#ebebeb" stroke-width=".5329"/></g></g><g><rect x="345.72" y="384.21" width="13.996" height="11.299" fill="#e6e6e6" fill-rule="evenodd"/><path d="m359.04 394.63v-7.284h-2.785v-2.0121h-1.2376v-0.90581h-4.5947v0.90581h-1.2376v2.0121h-2.785v7.284z" fill-rule="evenodd" stroke="#737373" stroke-linecap="round" stroke-width=".42667"/><circle cx="369.31" cy="402.29" r="1" fill="#0f0"/><circle cx="369.31" cy="406.3" r="1" fill="#0f0"/><circle cx="369.31" cy="410.31" r="1" fill="#f60"/><circle cx="382.27" cy="410.31" r="1" stroke="#666" stroke-width=".383"/></g><g transform="translate(-4.6413 .19316)" fill="#fff"><g transform="matrix(1.7723 0 0 1.7723 243.71 -286.27)" stroke-width="1px"><path d="m80.574 391.58h-0.43193c0.02389 0.27384 0.26585 0.20128 0.40997 0.14546v0.0888c-0.34155 0.11706-0.50576-0.0228-0.50801-0.25115 0.0195-0.44127 0.57742-0.37112 0.52997 0.0169zm-0.09394-0.0736c0-0.26154-0.33518-0.187-0.33493 4.4e-4l0.33492-5.1e-4z"/><path d="m79.781 391.48c0.02213 7e-3 0.04357 0.0235 0.06433 0.048 0.07112 0.0938 0.10861 0.20005 0.16797 0.30939h-0.11079c-0.10882-0.25006-0.17104-0.29714-0.17104-0.29714-0.06695-0.0417-0.1319-0.0158-0.20882-0.025v0.32216h-0.10313v-0.76226h0.23281c0.407 0.0116 0.24895 0.41133 0.12865 0.40488zm-0.25834-0.32011v0.27059h0.12968c0.23582 0 0.18073-0.28821 0-0.27058h-0.12968z"/></g><path d="m387.41 407.2v0.15738c-0.4598-0.17528-0.55196 0.0234-0.55196 0.0756 0 0.2366 0.60625 0.0774 0.60625 0.47046 0 0.35318-0.42089 0.33777-0.77455 0.24301v-0.17192c0.28797 0.16624 0.60354 0.10656 0.60354-0.0579 0-0.27462-0.59631-0.0544-0.59631-0.47296 0-0.39312 0.50514-0.29504 0.71303-0.24364z" stroke-width="1.7723px"/><path d="m389 406.89v0.28774h0.34295v0.12937h-0.34295v0.55016c0 0.17226 0.0391 0.1946 0.17192 0.1946h0.17103v0.1393h-0.17103c-0.32811 0-0.32842-0.17174-0.33931-0.33383v-0.55015h-0.12214v-0.12939h0.12214v-0.28773h0.16739z" stroke-width="1.7723px"/><path d="m388.58 407.73h-0.76551c0.0423 0.48533 0.47117 0.35673 0.72659 0.2578v0.15738c-0.60534 0.20747-0.89635-0.0404-0.90035-0.44512 0.0346-0.78207 1.0234-0.65774 0.93927 0.03zm-0.16649-0.13044c0-0.46353-0.59404-0.33143-0.5936 7.8e-4l0.59359-9.1e-4z" stroke-width="1.7723px"/></g></svg>
