<svg width="146" height="161" version="1.1" viewBox="66 376 77.539267 52.253443" xmlns="http://www.w3.org/2000/svg">
 <text transform="scale(1.0394 .96207)" x="114.56995" y="451.43683" fill="#ffffff" font-family="sans-serif" font-size="2.4752px" font-weight="700" stroke-width=".99936">
  <tspan x="114.56995" y="451.43683" stroke-width=".99936"/>
 </text>
 <text transform="scale(1 .99999)" x="121.1716" y="425.34692" fill="#000000" font-family="sans-serif" font-size="21.237px" letter-spacing="0px" stroke-width=".99936px" word-spacing="0px" style="line-height:125%" xml:space="preserve"><tspan x="121.1716" y="444.13638" stroke-width=".99936px"/></text>
 <g transform="matrix(1 0 0 .9986 -31.285 -2.4571)">
  <g fill-rule="evenodd">
   <rect x="97.285" y="366.91" width="77.539" height="81.051" rx="3.7922" ry="5.3092"/>
   <rect x="113.04" y="367.15" width="46.033" height="80.726" rx="1.0622" ry="1.0622" fill="#ececec"/>
   <rect x="113.75" y="367.07" width="44.612" height="80.726" fill="#a9b6c7" fill-opacity=".99582"/>
  </g>
  <ellipse cx="122.59" cy="388.43" rx=".65331" ry=".65372"/>
  <g transform="matrix(-1.3716 0 0 -1.3722 762.48 679.83)">
   <rect x="464.5" y="172.59" width="4" height="5.6"/>
   <rect x="464.5" y="172.59" width="4" height="5.6" fill="none" stroke="#7f7f7f" stroke-width=".2"/>
   <polygon points="468.3 172.79 464.7 172.79 464.7 174.19 464.9 174.19 464.9 176.79 464.7 176.79 464.7 177.99 468.3 177.99"/>
   <polygon points="468.3 172.79 464.7 172.79 464.7 174.19 464.9 174.19 464.9 176.79 464.7 176.79 464.7 177.99 468.3 177.99" fill="none" stroke="#7f7f7f" stroke-width=".1"/>
  </g>
  <g transform="matrix(-1.3716 0 0 -1.3722 762.48 654.55)">
   <rect x="464.5" y="172.59" width="4" height="5.6"/>
   <rect x="464.5" y="172.59" width="4" height="5.6" fill="none" stroke="#7f7f7f" stroke-width=".2"/>
   <polygon points="464.7 177.99 468.3 177.99 468.3 172.79 464.7 172.79 464.7 174.19 464.9 174.19 464.9 176.79 464.7 176.79"/>
   <polygon points="464.7 177.99 468.3 177.99 468.3 172.79 464.7 172.79 464.7 174.19 464.9 174.19 464.9 176.79 464.7 176.79" fill="none" stroke="#7f7f7f" stroke-width=".1"/>
  </g>
  <g>
   <g transform="matrix(1.0388 0 0 .96145 -125.12 30.639)">
    <path d="m242.28 396.06h0.29139v-0.82704l-0.29911 0.0617v-0.22455l0.29739-0.0617h0.31368v1.0516h0.29139v0.22797h-0.89474v-0.22797z"/>
   </g>
   <g transform="matrix(1.0388 0 0 .96145 -125.04 47.285)">
    <path d="m242.89 395.84q0.12941 0.0334 0.19626 0.11655 0.0677 0.0823 0.0677 0.20997 0 0.19027-0.14569 0.28968-0.1457 0.0986-0.42509 0.0986-0.0986 0-0.19798-0.0163-0.0985-0.0154-0.1954-0.0471v-0.25454q0.0926 0.0463 0.18341 0.0703 0.0917 0.0231 0.17997 0.0231 0.13113 0 0.20055-0.0454 0.0703-0.0454 0.0703-0.13026 0-0.0874-0.072-0.13199-0.0711-0.0454-0.21083-0.0454h-0.13198v-0.21254h0.13884q0.12427 0 0.18512-0.0386 0.0609-0.0394 0.0609-0.11913 0-0.0737-0.0591-0.11398-0.0591-0.0403-0.16712-0.0403-0.0797 0-0.16112 0.018-0.0814 0.018-0.16198 0.0531v-0.24168q0.0977-0.0274 0.19369-0.0411 0.096-0.0137 0.18855-0.0137 0.24939 0 0.37281 0.0823 0.12427 0.0814 0.12427 0.24597 0 0.11227-0.0591 0.18426-0.0591 0.0711-0.17483 0.10028z"/>
   </g>
   <g transform="matrix(1.0388 0 0 .96145 -125.06 38.857)">
    <path d="m242.58 396.29h0.56307v0.24254h-0.92988v-0.24254l0.46708-0.41224q0.0626-0.0566 0.0926-0.11055 0.03-0.054 0.03-0.11227 0-0.09-0.0608-0.14484-0.06-0.0548-0.16027-0.0548-0.0771 0-0.16883 0.0334-0.0917 0.0326-0.19626 0.0977v-0.2811q0.11141-0.0369 0.22025-0.0557 0.10885-0.0197 0.2134-0.0197 0.22969 0 0.35653 0.10113 0.1277 0.10113 0.1277 0.28196 0 0.10456-0.054 0.1954-0.054 0.09-0.22711 0.24169l-0.27339 0.23997z"/>
   </g>
   <g transform="matrix(1.0388 0 0 .96145 -125 55.69)">
    <path d="m242.72 395.52-0.36167 0.53564h0.36167zm-0.0549-0.27168h0.36681v0.80732h0.18255v0.23911h-0.18255v0.23312h-0.31196v-0.23312h-0.56735v-0.28282z"/>
   </g>
  </g>
  <path d="m144.56 407.18v-31.175l-7.5537 0.023-2.3e-4 31.152z" fill="#3a3a3a"/>
  <g transform="matrix(0 -1.0002 .99174 0 -198.82 489.89)">
   <path transform="matrix(.53079 0 0 .53501 55.446 333.8)" d="m56.703 9.0898-5.2734 0.00195 0.0041 13.912h58.448l-4e-3 -13.854-5.2988-0.00195v1.2656l4.2598-2e-3v1.6387l-0.42187 0.01367v8.9844s-8.69 0.01763-13.012 0.02351v-9.0664l-0.41992-0.01367v-1.6387l4.2344 2e-3v-1.2656l-4.3809 0.00195-4.5488-0.00195v1.2656l4.2598-2e-3v1.6387l-0.42188 0.01367v9.0391l-0.0098 0.0098-12.936 0.01758v-9.0664l-0.41992-0.01367v-1.6387l4.2324 2e-3v-1.2656l-4.3809 0.00195h-0.0078l-4.5391-0.00195v1.2656l4.2578-2e-3v1.6387l-0.41992 0.01367v9.0391l-0.0098 0.0098-12.936 0.01758v-9.0664l-0.42188-0.01367v-1.6387l4.2344 2e-3v-1.2656l-4.3809 0.00195h-0.0078l-4.3867-0.00195v1.2656l4.2598-2e-3v1.6387l-0.41992 0.01367-2e-3 9.0391-0.0078 0.0098-12.936 0.01758-2e-3 -9.0664-0.41992-0.01367v-1.6387l4.2344 2e-3v-1.2656z" fill="#ebebeb"/>
  </g>
  <g>
   <path d="m138.82 383.78v-1.7578l-1.0643 3e-3 -5.7e-4 -0.63972h-0.39849v-2.0619l0.39953 4.8e-4v-0.66586h1.0644v-1.7497h4.5823l0.0149 6.8713z" fill="#1a1a1a"/>
   <path d="m138.54 378.5v-1.7361h-0.74815v1.7361z" fill="#008000"/>
   <path d="m138.53 383.94v-1.7514h-0.75205v1.7514z" fill="#008000"/>
   <path d="m138.82 391.33v-1.7578l-1.0643 3e-3 -5.7e-4 -0.63972h-0.39849v-2.0619l0.39953 4.8e-4v-0.66586h1.0644v-1.7497h4.5823l0.0149 6.8713z" fill="#1a1a1a"/>
   <path d="m138.54 386.06v-1.7361h-0.74815v1.7361z" fill="#008000"/>
   <path d="m138.53 391.49v-1.7514h-0.75205v1.7514z" fill="#008000"/>
   <path d="m138.82 398.88v-1.7578l-1.0643 3e-3 -5.7e-4 -0.63972h-0.39849v-2.0619l0.39953 4.8e-4v-0.66586h1.0644v-1.7497h4.5823l0.0149 6.8713z" fill="#1a1a1a"/>
   <path d="m138.54 393.61v-1.7361h-0.74815v1.7361z" fill="#008000"/>
   <path d="m138.53 399.04v-1.7514h-0.75205v1.7514z" fill="#008000"/>
   <path d="m138.82 406.35v-1.7578l-1.0643 3e-3 -5.7e-4 -0.63972h-0.39849v-2.0619l0.39953 4.8e-4v-0.66587h1.0644v-1.7497h4.5823l0.0149 6.8713z" fill="#1a1a1a"/>
   <path d="m138.53 401.08v-1.7361h-0.74815v1.7361z" fill="#008000"/>
   <path d="m138.53 406.51v-1.7514h-0.75205v1.7514z" fill="#008000"/>
  </g>
  <g transform="matrix(-.56596 0 0 -.56631 179.88 628.94)">
   <rect x="96.122" y="410.31" width="16.352" height="6.364" rx=".025173" ry=".0057804" fill="#ebebeb" fill-rule="evenodd" stroke="#000" stroke-width=".144"/>
   <g transform="matrix(0 -.59244 .59215 0 -46.084 488.83)">
    <path d="m131.23 266.26v-24.611h-8.376v24.611z"/>
    <path d="m131.23 266.26v-24.611h-8.3762v24.611z" fill="none" stroke="#535353" stroke-linecap="round" stroke-linejoin="round" stroke-miterlimit="4.4615" stroke-width=".10782"/>
    <g stroke="#000" stroke-linejoin="round">
     <path d="m126.34 264.07v-20.304h-1.4326v20.304z" fill="none" stroke-linecap="round" stroke-miterlimit="4.4615" stroke-width=".10782"/>
     <path d="m124.91 264.07v-20.304l-0.71578-0.72485v21.754l0.71578-0.72485" fill="#a09a9a" stroke-width=".11578"/>
     <path d="m127.06 264.79v-21.754l-0.71603 0.72485v20.304l0.71603 0.72485" fill="#a09a9a" stroke-width=".11578"/>
     <path d="m127.06 264.79v-21.754l-0.71643 0.72523v20.304z" fill="none" stroke-linecap="round" stroke-miterlimit="4.4615" stroke-width=".10782"/>
    </g>
    <g>
     <path d="m127.06 264.79-0.71603-0.72485h-1.4333l-0.71578 0.72485h2.8651" fill="#a09a9a" stroke="#000" stroke-linecap="round" stroke-linejoin="round" stroke-width=".11578"/>
     <path d="m127.06 243.04-0.71603 0.72485h-1.4333l-0.71578-0.72485h2.8651" fill="#a09a9a" stroke="#000" stroke-linejoin="round" stroke-width=".11578"/>
     <path d="m126.31 264.05v-20.293h-1.3976v20.293z" fill="#505050"/>
    </g>
   </g>
  </g>
  <ellipse cx="127.01" cy="439.15" rx=".38802" ry=".38826" fill="#008000" stroke="#008000" stroke-linejoin="round" stroke-width=".053075"/>
  <ellipse cx="127.01" cy="413.87" rx=".38802" ry=".38826" fill="#008000" stroke="#008000" stroke-linejoin="round" stroke-width=".053075"/>
  <g transform="matrix(1.2004 0 0 1.4199 -39.761 146.65)">
   <rect x="152" y="152" width="6" height="3.2" fill="#90ee90"/>
   <rect x="152" y="152" width="6" height="3.2" fill="none" stroke="#90ee90" stroke-width=".2"/>
  </g>
  <g fill="#008000" fill-rule="evenodd">
   <ellipse cx="125.17" cy="384.83" rx=".43258" ry=".43315"/>
   <ellipse cx="125.17" cy="382.72" rx=".43258" ry=".43315"/>
   <ellipse cx="125.17" cy="380.61" rx=".43258" ry=".43315"/>
  </g>
  <g transform="matrix(1.2004 0 0 1.4199 -48.46 146.79)">
   <rect x="152" y="152" width="6" height="3.2"/>
   <rect x="152" y="152" width="6" height="3.2" fill-opacity="0"/>
  </g>
  <g transform="translate(31.412 -12.837)">
   <g transform="matrix(.99905 0 0 .99967 44.483 61.23)">
    <path transform="rotate(90)" d="m349.48-49.668h8.3152v6.6046h-8.3152z" fill="#e6e6e6" fill-rule="evenodd"/>
    <path d="m48.109 350.2v1.7584l1.0653-3e-3 5.66e-4 0.63993h0.39887v2.0626l-0.39991-4.8e-4v0.66608h-1.0654v1.7503h-4.5866l-0.01489-6.8735z" fill="#1a1a1a"/>
   </g>
   <g transform="matrix(.99905 0 0 .99967 41.532 61.23)" stroke-width=".0090126px" aria-label="console">
    <path d="m47.019 359.18v0.13625q-0.06179-0.0341-0.12436-0.0507-0.06179-0.0174-0.12516-0.0174-0.14179 0-0.22021 0.0903-0.07842 0.0895-0.07842 0.25189t0.07842 0.25269q0.07842 0.0895 0.22021 0.0895 0.06337 0 0.12516-0.0166 0.06258-0.0174 0.12436-0.0515v0.13466q-0.06099 0.0285-0.12674 0.0428-0.06495 0.0143-0.13862 0.0143-0.20041 0-0.31844-0.12594-0.11803-0.12595-0.11803-0.33983 0-0.21704 0.11882-0.3414 0.11961-0.12437 0.32715-0.12437 0.06733 0 0.13149 0.0143 0.06416 0.0135 0.12436 0.0412z"/>
    <path d="m47.615 359.25q-0.11724 0-0.18536 0.0919-0.06812 0.0911-0.06812 0.25031 0 0.15922 0.06733 0.25111 0.06812 0.0911 0.18615 0.0911 0.11644 0 0.18457-0.0919 0.06812-0.0919 0.06812-0.25032 0-0.15763-0.06812-0.24952-0.06812-0.0927-0.18457-0.0927zm0-0.12357q0.19011 0 0.29863 0.12357 0.10852 0.12358 0.10852 0.3422 0 0.21784-0.10852 0.3422-0.10852 0.12357-0.29863 0.12357-0.1909 0-0.29942-0.12357-0.10773-0.12436-0.10773-0.3422 0-0.21862 0.10773-0.3422 0.10852-0.12357 0.29942-0.12357z"/>
    <path d="m48.996 359.5v0.53548h-0.14575v-0.53072q0-0.12595-0.04911-0.18853-0.04911-0.0626-0.14734-0.0626-0.11803 0-0.18615 0.0753-0.06812 0.0752-0.06812 0.20516v0.50141h-0.14654v-0.88718h0.14654v0.13783q0.05228-0.08 0.12278-0.11961 0.07129-0.0396 0.16397-0.0396 0.15288 0 0.2313 0.0951 0.07842 0.0943 0.07842 0.27803z"/>
    <path d="m49.851 359.17v0.13783q-0.06179-0.0317-0.12832-0.0475-0.06654-0.0158-0.13783-0.0158-0.10852 0-0.16318 0.0333-0.05387 0.0333-0.05387 0.0998 0 0.0507 0.03881 0.08 0.03881 0.0285 0.15605 0.0547l0.0499 0.0111q0.15526 0.0333 0.22021 0.0943 0.06575 0.0602 0.06575 0.16873 0 0.12357-0.09822 0.19565-0.09743 0.0721-0.26853 0.0721-0.07129 0-0.14892-0.0143-0.07684-0.0135-0.16239-0.0412v-0.15051q0.0808 0.042 0.15922 0.0634 0.07842 0.0206 0.15526 0.0206 0.10298 0 0.15842-0.0349 0.05545-0.0356 0.05545-0.0998 0-0.0594-0.0404-0.0911-0.03961-0.0317-0.17506-0.061l-0.0507-0.0119q-0.13545-0.0285-0.19566-0.0871-0.0602-0.0594-0.0602-0.16239 0-0.12515 0.08872-0.19327 0.08872-0.0681 0.2519-0.0681 0.0808 0 0.15209 0.0119 0.07129 0.0119 0.13149 0.0357z"/>
    <path d="m50.471 359.25q-0.11724 0-0.18536 0.0919-0.06812 0.0911-0.06812 0.25031 0 0.15922 0.06733 0.25111 0.06812 0.0911 0.18615 0.0911 0.11644 0 0.18456-0.0919 0.06812-0.0919 0.06812-0.25032 0-0.15763-0.06812-0.24952-0.06812-0.0927-0.18456-0.0927zm0-0.12357q0.19011 0 0.29863 0.12357 0.10852 0.12358 0.10852 0.3422 0 0.21784-0.10852 0.3422-0.10852 0.12357-0.29863 0.12357-0.1909 0-0.29942-0.12357-0.10773-0.12436-0.10773-0.3422 0-0.21862 0.10773-0.3422 0.10852-0.12357 0.29942-0.12357z"/>
    <path d="m51.116 358.8h0.14575v1.2326h-0.14575z"/>
    <path d="m52.321 359.56v0.0713h-0.67014q0.0095 0.15051 0.0903 0.22972 0.08159 0.0784 0.22655 0.0784 0.08397 0 0.16239-0.0206 0.07921-0.0206 0.15684-0.0618v0.13783q-0.07842 0.0333-0.1608 0.0507-0.08238 0.0174-0.16714 0.0174-0.21229 0-0.33665-0.12357-0.12357-0.12357-0.12357-0.33428 0-0.21783 0.11724-0.34536 0.11803-0.12833 0.31764-0.12833 0.17902 0 0.28279 0.11565 0.10456 0.11486 0.10456 0.31289zm-0.14575-0.0428q-0.0016-0.11961-0.06733-0.1909-0.06495-0.0713-0.17268-0.0713-0.12199 0-0.19566 0.0689-0.07288 0.0689-0.08396 0.19407z"/>
   </g>
  </g>
  <g stroke-width=".0087534px">
   <g transform="matrix(.99905 0 0 .99967 72.715 65.85)" aria-label="FAULT">
    <path d="m53.948 314.28h0.6601v0.13079h-0.50469v0.33851h0.45545v0.13079h-0.45545v0.54854h-0.15541z"/>
    <path d="m55.091 314.43-0.2108 0.57163h0.42237zm-0.0877-0.1531h0.17618l0.43776 1.1486h-0.16156l-0.10463-0.29465h-0.51777l-0.10463 0.29465h-0.16387z"/>
    <path d="m55.763 314.28h0.15618v0.6978q0 0.18464 0.06693 0.26619 0.06693 0.0808 0.21695 0.0808 0.14925 0 0.21619-0.0808 0.06693-0.0815 0.06693-0.26619v-0.6978h0.15618v0.71703q0 0.22465-0.11156 0.33928-0.11078 0.11463-0.32774 0.11463-0.21772 0-0.32928-0.11463-0.11079-0.11463-0.11079-0.33928z"/>
    <path d="m56.931 314.28h0.15541v1.0178h0.55931v0.13078h-0.71472z"/>
    <path d="m57.43 314.28h0.97168v0.13079h-0.40775v1.0178h-0.15618v-1.0178h-0.40775z"/>
   </g>
   <g transform="matrix(.99905 0 0 .99967 72.715 65.85)" aria-label="PWR 2">
    <path d="m54.103 318.65v0.4316h0.19541q0.10848 0 0.16772-0.0562 0.05924-0.0562 0.05924-0.16002 0-0.10309-0.05924-0.15925-0.05924-0.0562-0.16772-0.0562zm-0.15541-0.12771h0.35082q0.1931 0 0.29158 0.0877 0.09925 0.0869 0.09925 0.25542 0 0.17002-0.09925 0.25696-0.09848 0.0869-0.29158 0.0869h-0.19541v0.4616h-0.15541z"/>
    <path d="m54.793 318.52h0.15695l0.24157 0.97091 0.2408-0.97091h0.17464l0.24157 0.97091 0.2408-0.97091h0.15772l-0.2885 1.1486h-0.19541l-0.24234-0.99707-0.24465 0.99707h-0.19541z"/>
    <path d="m56.993 319.13q0.05001 0.0169 0.09694 0.0723 0.0477 0.0554 0.0954 0.15233l0.15772 0.31389h-0.16695l-0.14694-0.29466q-0.05693-0.1154-0.11078-0.1531-0.05309-0.0377-0.14541-0.0377h-0.16926v0.48545h-0.15541v-1.1486h0.35082q0.19695 0 0.29389 0.0823 0.09694 0.0823 0.09694 0.2485 0 0.10848-0.05078 0.18003-0.05001 0.0715-0.14618 0.0992zm-0.38929-0.48238v0.40775h0.19541q0.11232 0 0.16926-0.0515 0.0577-0.0523 0.0577-0.1531 0-0.10078-0.0577-0.15156-0.05693-0.0516-0.16926-0.0516z"/>
    <path d="m58.187 319.54h0.54239v0.13079h-0.72934v-0.13079q0.08847-0.0915 0.2408-0.24542 0.1531-0.15464 0.19234-0.19926 0.07463-0.0839 0.10386-0.14156 0.03-0.0585 0.03-0.11463 0-0.0915-0.06462-0.14925-0.06385-0.0577-0.16695-0.0577-0.07309 0-0.15464 0.0254-0.08078 0.0254-0.1731 0.0769v-0.15695q0.09386-0.0377 0.17541-0.0569t0.14925-0.0192q0.17849 0 0.28466 0.0892 0.10617 0.0892 0.10617 0.2385 0 0.0708-0.02693 0.13463-0.02616 0.0631-0.09617 0.14926-0.01923 0.0223-0.12233 0.12925-0.10309 0.10617-0.29081 0.29773z"/>
   </g>
   <g transform="matrix(.99905 0 0 .99967 72.715 65.85)" aria-label="PWR 1">
    <path d="m54.103 316.53v0.4316h0.19541q0.10848 0 0.16772-0.0562 0.05924-0.0562 0.05924-0.16002 0-0.1031-0.05924-0.15926-0.05924-0.0562-0.16772-0.0562zm-0.15541-0.12771h0.35082q0.1931 0 0.29158 0.0877 0.09925 0.0869 0.09925 0.25542 0 0.17002-0.09925 0.25696-0.09848 0.0869-0.29158 0.0869h-0.19541v0.46161h-0.15541z"/>
    <path d="m54.793 316.4h0.15695l0.24157 0.97091 0.2408-0.97091h0.17464l0.24157 0.97091 0.2408-0.97091h0.15772l-0.2885 1.1486h-0.19541l-0.24234-0.99707-0.24465 0.99707h-0.19541z"/>
    <path d="m56.993 317.01q0.05001 0.0169 0.09694 0.0723 0.0477 0.0554 0.0954 0.15233l0.15772 0.31389h-0.16695l-0.14694-0.29466q-0.05693-0.1154-0.11078-0.1531-0.05309-0.0377-0.14541-0.0377h-0.16926v0.48546h-0.15541v-1.1486h0.35082q0.19695 0 0.29389 0.0823 0.09694 0.0823 0.09694 0.2485 0 0.10847-0.05078 0.18002-0.05001 0.0716-0.14618 0.0993zm-0.38929-0.48238v0.40775h0.19541q0.11232 0 0.16926-0.0515 0.0577-0.0523 0.0577-0.1531 0-0.10079-0.0577-0.15156-0.05693-0.0516-0.16926-0.0516z"/>
    <path d="m58.08 317.42h0.25388v-0.87628l-0.27619 0.0554v-0.14156l0.27466-0.0554h0.15541v1.0178h0.25388v0.13079h-0.66164z"/>
   </g>
  </g>
  <path d="m144.56 443.03v-31.175l-7.5537 0.023-2.3e-4 31.152z" fill="#3a3a3a"/>
  <g transform="matrix(0 -1.0002 .99174 0 -198.82 525.74)">
   <path transform="matrix(.53079 0 0 .53501 55.446 333.8)" d="m56.703 9.0898-5.2734 0.00195 0.0041 13.912h58.448l-4e-3 -13.854-5.2988-0.00195v1.2656l4.2598-2e-3v1.6387l-0.42187 0.01367v8.9844s-8.69 0.01763-13.012 0.02351v-9.0664l-0.41992-0.01367v-1.6387l4.2344 2e-3v-1.2656l-4.3809 0.00195-4.5488-0.00195v1.2656l4.2598-2e-3v1.6387l-0.42188 0.01367v9.0391l-0.0098 0.0098-12.936 0.01758v-9.0664l-0.41992-0.01367v-1.6387l4.2324 2e-3v-1.2656l-4.3809 0.00195h-0.0078l-4.5391-0.00195v1.2656l4.2578-2e-3v1.6387l-0.41992 0.01367v9.0391l-0.0098 0.0098-12.936 0.01758v-9.0664l-0.42188-0.01367v-1.6387l4.2344 2e-3v-1.2656l-4.3809 0.00195h-0.0078l-4.3867-0.00195v1.2656l4.2598-2e-3v1.6387l-0.41992 0.01367-2e-3 9.0391-0.0078 0.0098-12.936 0.01758-2e-3 -9.0664-0.41992-0.01367v-1.6387l4.2344 2e-3v-1.2656z" fill="#ebebeb"/>
  </g>
  <g>
   <path d="m138.82 419.63v-1.7578l-1.0643 3e-3 -5.7e-4 -0.63972h-0.39849v-2.0619l0.39953 4.8e-4v-0.66586h1.0644v-1.7497h4.5823l0.0149 6.8713z" fill="#1a1a1a"/>
   <path d="m138.54 414.35v-1.7361h-0.74815v1.7361z" fill="#008000"/>
   <path d="m138.53 419.79v-1.7514h-0.75205v1.7514z" fill="#008000"/>
   <path d="m138.82 427.18v-1.7578l-1.0643 3e-3 -5.7e-4 -0.63972h-0.39849v-2.0619l0.39953 4.8e-4v-0.66586h1.0644v-1.7497h4.5823l0.0149 6.8713z" fill="#1a1a1a"/>
   <path d="m138.54 421.9v-1.7361h-0.74815v1.7361z" fill="#008000"/>
   <path d="m138.53 427.34v-1.7514h-0.75205v1.7514z" fill="#008000"/>
   <path d="m138.82 434.73v-1.7578l-1.0643 3e-3 -5.7e-4 -0.63972h-0.39849v-2.0619l0.39953 4.8e-4v-0.66586h1.0644v-1.7497h4.5823l0.0149 6.8713z" fill="#1a1a1a"/>
   <path d="m138.54 429.46v-1.7361h-0.74815v1.7361z" fill="#008000"/>
   <path d="m138.53 434.89v-1.7514h-0.75205v1.7514z" fill="#008000"/>
   <path d="m138.82 442.2v-1.7578l-1.0643 3e-3 -5.7e-4 -0.63972h-0.39849v-2.0619l0.39953 4.8e-4v-0.66587h1.0644v-1.7497h4.5823l0.0149 6.8713z" fill="#1a1a1a"/>
   <path d="m138.53 436.93v-1.7361h-0.74815v1.7361z" fill="#008000"/>
   <path d="m138.53 442.36v-1.7514h-0.75205v1.7514z" fill="#008000"/>
  </g>
  <g transform="matrix(-1.3716 0 0 -1.3722 762.48 662.98)">
   <rect x="464.5" y="172.59" width="4" height="5.6"/>
   <rect x="464.5" y="172.59" width="4" height="5.6" fill="none" stroke="#7f7f7f" stroke-width=".2"/>
   <polygon points="464.7 177.99 468.3 177.99 468.3 172.79 464.7 172.79 464.7 174.19 464.9 174.19 464.9 176.79 464.7 176.79"/>
   <polygon points="464.7 177.99 468.3 177.99 468.3 172.79 464.7 172.79 464.7 174.19 464.9 174.19 464.9 176.79 464.7 176.79" fill="none" stroke="#7f7f7f" stroke-width=".1"/>
  </g>
  <g transform="matrix(-1.3716 0 0 -1.3722 762.48 671.4)">
   <rect x="464.5" y="172.59" width="4" height="5.6"/>
   <rect x="464.5" y="172.59" width="4" height="5.6" fill="none" stroke="#7f7f7f" stroke-width=".2"/>
   <polygon points="464.7 177.99 468.3 177.99 468.3 172.79 464.7 172.79 464.7 174.19 464.9 174.19 464.9 176.79 464.7 176.79"/>
   <polygon points="464.7 177.99 468.3 177.99 468.3 172.79 464.7 172.79 464.7 174.19 464.9 174.19 464.9 176.79 464.7 176.79" fill="none" stroke="#7f7f7f" stroke-width=".1"/>
  </g>
  <g transform="matrix(1.0031 0 0 1 -.44349 -.14719)">
   <rect x="113.84" y="367.22" width="44.475" height="8.9758" fill="#fed42f" fill-rule="evenodd"/>
   <g transform="matrix(1.2907 0 0 1.2915 69.372 -27.071)" clip-rule="evenodd" fill-rule="evenodd">
    <g transform="matrix(.051633 0 0 .051633 57.862 289.91)">
     <polygon transform="matrix(.53109 0 0 .53109 -106.01 286.67)" points="97.875 73.947 92.473 73.947 85.419 52.144 152.57 52.146 134.28 73.979 128.96 73.992 102.69 105.08 94.139 79.138"/>
     <path d="m-13.372 315.83c-3.9625 0.0112-10.034 0-10.034 0 2.28-1.5704 7.268-1.6793 10.034 0z" fill="#cc1b59" stroke-width=".53109"/>
     <polygon transform="matrix(.53109 0 0 .53109 -106.01 286.67)" points="69.72 93.061 52.908 104.94 8.504 104.94 81.523 52.205 98.656 104.99 73.311 104.99"/>
     <g fill="#cc1b59" stroke-width=".53109">
      <path d="m-12.044 316.76c0.38292 0.26289 0.88374 0.64528 1.3745 1.2305h-15.26c0.43337-0.58526 0.80991-0.96765 1.2502-1.2321z"/>
      <path d="m-9.2527 320.12h-18.192s0.53109-1.0245 0.78017-1.204h16.678c0.47426 0.4987 0.73344 1.204 0.73344 1.204z"/>
      <path d="m-8.9102 320.99c0.21244 0.39354 0.27882 0.57145 0.47002 1.2443l-19.739-0.0111s0.11631-0.90816 0.35158-1.2332z"/>
     </g>
     <path d="m-24.35 334.7c3.0113 1.8609 7.2308 2.1674 10.508 0.69679-2.0266 2.3628-5.8335 7.037-5.8335 7.037h-26.834l16.588-19.368c-0.67342 4.6263 1.5349 9.1321 5.5722 11.634z" stroke-width=".53109"/>
     <g fill="#cc1b59" stroke-width=".53109">
      <path d="m-8.2723 323.17c0.10356 0.41001 0.12746 0.83647 0.10356 1.2714h-20.362c-0.01965-0.45143 0.01965-0.87737 0.14339-1.3033z"/>
      <path d="m-8.1688 325.31c0.012215 0.28094-0.14339 1.2151-0.14339 1.2151h-20.076s-0.1503-0.76211-0.1434-1.2279z"/>
      <path d="m-8.5272 327.35c-0.10675 0.46576-0.23952 0.90869-0.44824 1.2805 0 0-18.031 4e-3 -18.732-6e-3 -0.25227-0.43337-0.34627-0.79557-0.46258-1.2836z"/>
      <path d="m-9.4094 329.52c-0.25014 0.50719-0.49976 0.77592-0.82691 1.187l-16.337-0.0287c-0.26342-0.33034-0.47426-0.5842-0.75521-1.1859z"/>
      <path d="m-10.871 331.52c-0.43443 0.4732-0.81522 0.84124-1.3941 1.2582l-12.229-4e-3c-0.49073-0.32449-0.83169-0.6219-1.3723-1.2422z"/>
      <path d="m-13.362 333.67c-2.5402 1.5789-7.7539 1.4796-10.047 0z"/>
     </g>
    </g>
    <g transform="matrix(.10378 0 0 .10378 52.428 274.67)" stroke-width=".53109">
     <path d="m104.61 303.07v1.7122h-0.06c-0.14605-0.23368-0.32237-0.43125-0.67927-0.43125h-2.0798l-0.0924 0.13755v11.511c0.0579 0.6235 0.62563 0.69467 0.5364 0.80832l-2.5009-4e-3c-0.02284-0.14339 0.40362-0.0765 0.48648-0.53693l-7e-3 -11.719-0.21032-0.20129-2.1254 4e-3c-0.42965 0.0414-0.5911 0.25546-0.68139 0.43284l-0.04142 0.01v-1.717z"/>
     <path d="m64.706 303.29v12.893c0.05948 0.48595 0.56614 0.42647 0.5295 0.62191h-2.4568c-0.03611-0.16358 0.3468-0.01 0.48966-0.62191l0.0032-12.374c-0.0032-0.44187-0.32981-0.59058-0.55287-0.69467l0.06373-0.0414 1.7754-2e-3z"/>
     <path d="m68.237 303.23-0.0037 13.054c0.06745 0.43549 0.60226 0.33193 0.56933 0.51887h-2.4807c-0.02018-0.11047 0.4408-0.0829 0.47692-0.51887l0.0037-12.534c-0.07648-0.60172-0.62775-0.55286-0.49338-0.6798h1.7499c0.16517-2e-3 0.17792 0.15933 0.17792 0.15933z"/>
     <path d="m62.249 316.5c-2.2577-4.5902-4.116-9.0052-6.4315-13.532l-5.6981 13.391c-0.15561 0.43284-0.56508 0.30644-0.47108 0.47533h2.4228c0.01859-0.1434-0.41691-0.29582-0.28626-0.62934l1.2959-3.117 5.9355 0.0112 1.5253 3.228c0.12799 0.28413-0.37761 0.36061-0.35371 0.47798h2.2391c0.18482-0.0398-0.1195-0.20288-0.17792-0.30591zm-8.5622-4.8876 2.143-5.4177 2.4754 5.4177z"/>
     <path d="m131.52 307.07c0.27882 0.051 0.36804-0.28307 0.42646-0.1434-4e-3 0.44984-4e-3 1.8259-4e-3 1.8259l-0.0818 0.0111c-0.67236-0.61288-1.5487-0.98836-2.5312-0.54225-0.37123 0.24855-0.63465 0.56615-0.65271 1.0351 0.0218 1.683 2.5715 1.3352 3.561 2.7516 0.61819 0.77752 0.7414 1.9905 0.43124 2.8615-0.24164 0.7106-0.67926 1.2289-1.5104 1.6512-0.80726 0.35955-2.1785 0.48807-3.5737-0.0228-0.14393-0.0499-0.23952 0.0467-0.42328 0.25174l-0.0632-0.0111v-2.23l0.0558-0.0111c0.94003 1.0739 1.8078 1.1594 2.9353 1.0054 0.46683-0.13437 0.99261-0.3877 1.2481-1.059 0.28626-0.65431-0.0706-1.7207-0.66598-1.9783-0.93366-0.61341-2.9985-0.75627-3.3268-2.8344-0.0643-1.0229 0.47108-2.0256 1.3309-2.4531 0.70688-0.39088 1.7398-0.4408 2.8445-0.10781z"/>
     <path d="m71.363 307.69v8.4661c0.01115 0.50985 0.57305 0.45887 0.48967 0.64581l-2.5168 4e-3c-9e-3 -0.1434 0.6405-0.27723 0.57305-0.73078l0.0058-8.0657c-0.04196-0.44612-0.33352-0.41903-0.30856-0.52578h1.6119z"/>
     <path d="m76.547 315.53c-0.2921-0.19916-0.66386-0.32609-1.0208-0.80832 2.4786-1.9873 5.1643-4.1324 7.6233-6.0762l-0.02549-0.0473-0.30697-0.0669c-0.94109-0.68563-1.8402-1.5014-3.2997-1.7792-1.6921-0.36114-3.3767-0.25758-5.0486 1.4302-1.4127 1.4759-1.7096 3.8191-0.97668 5.8468 0.75415 1.837 2.1302 2.7468 3.5843 3.0336 1.5667 0.28626 3.0102-0.10197 4.1967-0.94003v-1.4281l-0.05789-0.026c-1.3134 1.0117-3.134 1.5688-4.6683 0.86143zm-1.2311-6.3226c1.1227-1.2024 2.6624-1.6612 4.1218-1.2024 0.68351 0.21722 1.0622 0.50348 1.4053 0.74141l-6.0443 4.86c-0.56349-1.3856-0.53693-3.168 0.51728-4.399z"/>
     <path d="m93.719 314.87c-0.10091-0.13596-0.24112-0.19704-0.25917-0.54968l0.0053-11.083-0.11737-0.16145h-1.8116l-0.05789 0.06c0.16145 0.16305 0.48223 0.22678 0.52578 0.49179l-0.0037 4.3263-0.04036 0.15773-0.72866-0.44983c-1.6374-0.92091-4.1383-0.84125-5.6535 0.30644-1.6416 1.2512-2.3288 3.2174-1.8992 5.2243 0.37017 1.7425 1.9783 3.5036 3.8042 3.7484 2.0075 0.54224 3.732-0.31228 5.0539-1.3474 0.39035-0.23686 0.87789-0.69095 1.1806-0.67608zm-2.8158 0.16516c-1.2497 0.73238-3.2152 0.90658-4.4081 0.026-1.264-0.9634-1.7574-2.5806-1.367-4.0384 0.30432-1.1657 1.3925-2.3341 2.6002-2.5583 1.6644-0.33937 3.2928 0.19597 4.2886 1.4249l0.0037 4.1802c-0.23049 0.35636-0.44612 0.56083-1.1174 0.96552z"/>
     <path d="m70.544 305.94c0.45674 0 0.83594-0.37282 0.83594-0.83169 0-0.45886-0.37867-0.83222-0.83594-0.83222-0.45886 0-0.83063 0.37336-0.83063 0.83222 0 0.45887 0.37123 0.83169 0.83063 0.83169z"/>
     <path d="m106.34 315.56c-0.28519-0.205-0.65855-0.32396-1.0176-0.81416 2.477-1.9836 5.1649-4.1271 7.6233-6.073l-0.025-0.0489-0.30909-0.0653c-0.93897-0.68723-1.8424-1.4977-3.2997-1.7813-1.6936-0.35848-3.3761-0.25864-5.0464 1.4345-1.4148 1.4759-1.7085 3.8154-0.97933 5.8446 0.75628 1.8402 2.1307 2.7489 3.5849 3.0315 1.5694 0.2921 3.0092-0.0961 4.1977-0.93897v-1.4276l-0.06-0.0234c-1.3107 1.016-3.1292 1.5688-4.6688 0.86196zm-1.23-6.3248c1.1264-1.204 2.6629-1.6644 4.1244-1.204 0.68139 0.21562 1.0601 0.50772 1.4047 0.74299l-6.0454 4.8563c-0.5603-1.3814-0.53162-3.1642 0.51622-4.3953z"/>
     <path d="m115.22 303.26-4e-3 13.054c0.0632 0.43284 0.60173 0.32821 0.56614 0.52047h-2.477c-0.0218-0.11631 0.43974-0.0876 0.47692-0.52047v-12.535c-0.077-0.60438-0.62669-0.54968-0.49073-0.6782h1.751c0.16517 0 0.17792 0.15986 0.17792 0.15986z"/>
     <path d="m119.79 315.54c-0.28414-0.20022-0.65962-0.32237-1.0208-0.80885 2.4813-1.9852 5.1675-4.1287 7.6249-6.0725l-0.0239-0.051-0.31015-0.0653c-0.93897-0.68724-1.8402-1.5035-3.2997-1.7808-1.6921-0.35955-3.3735-0.25758-5.0464 1.4302-1.4106 1.4759-1.7085 3.8238-0.98145 5.85 0.7584 1.8349 2.135 2.7394 3.5902 3.0352 1.5651 0.28678 3.0092-0.10304 4.1946-0.94428l2e-3 -1.4302-0.0643-0.0202c-1.3044 1.0107-3.1334 1.5667-4.6651 0.85771zm-1.2305-6.3194c1.1296-1.204 2.6629-1.6644 4.1255-1.204 0.67715 0.21721 1.0601 0.504 1.4063 0.7414l-6.0496 4.8563c-0.5619-1.3776-0.53056-3.1642 0.51781-4.3937z"/>
     <path d="m135.49 307.72 0.0133 8.4736c0.01 0.50772 0.57252 0.45673 0.4886 0.64368l-2.5195 4e-3c-6e-3 -0.1434 0.64315-0.27936 0.58207-0.72547l5e-3 -8.0763c-0.0446-0.44081-0.33512-0.40947-0.30803-0.51888h1.5922z"/>
     <path d="m134.69 305.98c0.46046 0 0.83063-0.37335 0.83063-0.83009 0-0.46258-0.37017-0.83647-0.83063-0.83647s-0.83381 0.37389-0.83381 0.83647c0 0.45674 0.37335 0.83009 0.83381 0.83009z"/>
     <path d="m141.43 307.08c0.28201 0.0558 0.37017-0.28094 0.42966-0.14127-7e-3 0.44984-7e-3 1.8275-7e-3 1.8275l-0.076 0.0122c-0.67608-0.615-1.5487-0.99154-2.537-0.54596-0.36911 0.24537-0.62987 0.56774-0.65165 1.0356 0.026 1.683 2.5758 1.3346 3.5652 2.7495 0.6097 0.77964 0.73344 1.9964 0.43072 2.8684-0.24377 0.70316-0.68351 1.222-1.5147 1.6464-0.80514 0.35742-2.1785 0.48435-3.5742-0.0218-0.1434-0.051-0.23634 0.0457-0.41691 0.25226l-0.0685-0.0127v-2.2279l0.0611-0.0143c0.94163 1.0792 1.81 1.1588 2.9364 1.0048 0.46046-0.13278 0.98942-0.38983 1.2438-1.0574 0.28413-0.64899-0.0717-1.7207-0.66387-1.9788-0.9379-0.61022-3.0007-0.75574-3.3289-2.8334-0.0621-1.0234 0.47426-2.0203 1.3298-2.4542 0.70529-0.38982 1.7414-0.4424 2.8424-0.10888z"/>
    </g>
   </g>
   <text x="134.06154" y="374.29874" fill="#000000" font-family="sans-serif" font-size="3.0367px" letter-spacing="-.0067481px" stroke-width=".01687px" word-spacing="0px" style="line-height:0px" xml:space="preserve"><tspan x="134.06154" y="374.29874" stroke-width=".01687px">AT-IE300-12GP</tspan></text>
  </g>
  <g>
   <text x="145.5276" y="378.13803" fill="#000000" font-family="sans-serif" font-size="1.6868px" letter-spacing="-.0037484px" stroke-width=".0093711px" word-spacing="0px" style="line-height:0px" xml:space="preserve"><tspan x="145.5276" y="378.13803" font-family="sans-serif" font-weight="bold" stroke-width=".0093711px">5</tspan></text>
   <ellipse cx="127.01" cy="430.73" rx=".38802" ry=".38826" fill="#008000" stroke="#008000" stroke-linejoin="round" stroke-width=".053075"/>
   <ellipse cx="127.01" cy="422.3" rx=".38802" ry=".38826" fill="#008000" stroke="#008000" stroke-linejoin="round" stroke-width=".053075"/>
  </g>
  <g fill="#000000" font-family="sans-serif" font-size="1.6868px" letter-spacing="-.0037484px" stroke-width=".0093711px" word-spacing="0px">
   <text x="145.52678" y="385.66946" style="line-height:0px" xml:space="preserve"><tspan x="145.52678" y="385.66946" font-family="sans-serif" font-weight="bold" stroke-width=".0093711px">6</tspan></text>
   <text x="145.54449" y="393.22479" style="line-height:0px" xml:space="preserve"><tspan x="145.54449" y="393.22479" font-family="sans-serif" font-weight="bold" stroke-width=".0093711px">7</tspan></text>
   <text x="145.53461" y="400.73236" style="line-height:0px" xml:space="preserve"><tspan x="145.53461" y="400.73236" font-family="sans-serif" font-weight="bold" stroke-width=".0093711px">8</tspan></text>
   <text x="145.54408" y="413.98691" style="line-height:0px" xml:space="preserve"><tspan x="145.54408" y="413.98691" font-family="sans-serif" font-weight="bold" stroke-width=".0093711px">9</tspan></text>
   <text x="144.89445" y="421.51834" style="line-height:0px" xml:space="preserve"><tspan x="144.89445" y="421.51834" font-family="sans-serif" font-weight="bold" stroke-width=".0093711px">10</tspan></text>
   <text x="144.91217" y="429.07367" style="line-height:0px" xml:space="preserve"><tspan x="144.91217" y="429.07367" font-family="sans-serif" font-weight="bold" stroke-width=".0093711px">11</tspan></text>
   <text x="144.9274" y="436.58124" style="line-height:0px" xml:space="preserve"><tspan x="144.9274" y="436.58124" font-family="sans-serif" font-weight="bold" stroke-width=".0093711px">12</tspan></text>
  </g>
 </g>
</svg>
