<svg width="84.48" height="150.15" version="1.1" viewBox="472.533333333 152.533333333 35.7631989333 79.0986496" xmlns="http://www.w3.org/2000/svg">
 <g transform="matrix(1.0667 0 0 1.0667 0 19.365)">
  <g transform="matrix(1.3616 0 0 1.3616 -164.43 -70.551)">
   <rect x="447.3" y="143.6" width="3.7" height="3.2"/>
   <rect x="447.3" y="143.6" width="3.7" height="3.2" fill="none" stroke="#000" stroke-width=".2"/>
  </g>
  <g transform="matrix(1.4192 0 0 1.3235 -189.93 -64.938)">
   <rect x="443.3" y="147" width="29" height="51.2" rx=".2" ry=".2" fill="#e5e5e5"/>
   <rect x="443.3" y="147" width="29" height="51.2" rx=".2" ry=".2" fill="none" stroke="#e5e5e5" stroke-linejoin="round" stroke-width=".4"/>
  </g>
  <g transform="matrix(1.3616 0 0 1.3616 -164.61 -71.287)">
   <rect x="444.42" y="147.12" width="28.21" height="50.883" rx="1" ry="1" fill="#212121"/>
   <rect x="444.42" y="147.12" width="28.203" height="50.883" rx="1" ry="1" fill="none" stroke="#000" stroke-linejoin="round"/>
  </g>
  <g fill="#ffffff" font-family="sans-serif" font-size="2.1786px" font-weight="700">
   <text x="441.2265" y="196.87639" style="line-height:0%">
    <tspan x="441.2265" y="196.87639">EDS-PS510A-8PoE-2GTXSFTP</tspan>
   </text>
   <text x="442.97855" y="191.01756" style="line-height:0%">
    <tspan x="442.97855" y="191.01756">1</tspan>
   </text>
   <text x="442.97855" y="183.3929" style="line-height:0%">
    <tspan x="442.97855" y="183.3929">2</tspan>
   </text>
   <text x="442.97855" y="175.73846" style="line-height:0%">
    <tspan x="442.97855" y="175.73846">3</tspan>
   </text>
   <text x="442.97855" y="168.10051" style="line-height:0%">
    <tspan x="442.97855" y="168.10051">4</tspan>
   </text>
   <text x="442.97855" y="160.44608" style="line-height:0%">
    <tspan x="442.97855" y="160.44608">5</tspan>
   </text>
   <text x="442.97855" y="152.82033" style="line-height:0%">
    <tspan x="442.97855" y="152.82033">6</tspan>
   </text>
   <text x="442.97855" y="145.18346" style="line-height:0%">
    <tspan x="442.97855" y="145.18346">7</tspan>
   </text>
   <text x="442.97855" y="137.51364" style="line-height:0%">
    <tspan x="442.97855" y="137.51364">8</tspan>
   </text>
  </g>
  <g transform="matrix(0 1.3616 -1.3616 0 659.84 -449.39)">
   <rect x="447.8" y="148" width="4.6" height="1.8" rx=".4" ry=".4" fill="#fff"/>
   <rect x="447.8" y="148" width="4.6" height="1.8" rx=".4" ry=".4" fill="none"/>
   <text x="450.10001" y="149.45" fill="#212121" font-family="sans-serif" font-size="1.6px" text-anchor="middle" style="line-height:0%">
    <tspan x="450.10001" y="149.45">PoE+</tspan>
   </text>
  </g>
  <g transform="matrix(1.4936 0 0 .99786 -224.85 -15.745)" fill="#00a99d">
   <rect x="462" y="148" width="7.6" height="4"/>
   <rect x="462" y="148" width="8.5566" height="4.2469"/>
  </g>
  <g transform="matrix(1.6138 0 0 1.3616 -281.01 -70.383)" fill="#00a99d">
   <rect x="462.4" y="164" width="8" height="30"/>
   <rect x="462.4" y="164" width="8" height="30"/>
  </g>
  <text x="460.83429" y="165.28246" fill="#ffffff" font-family="sans-serif" font-size="2.1786px" font-weight="700" style="line-height:0%">
   <tspan x="460.83429" y="165.28246">G2</tspan>
  </text>
  <g transform="matrix(1.3616 0 0 1.3616 -164.64 -69.291)">
   <rect x="464.5" y="172.59" width="4" height="5.6"/>
   <rect x="464.5" y="172.59" width="4" height="5.6" fill="none" stroke="#7f7f7f" stroke-width=".2"/>
   <polygon points="464.7 174.19 464.9 174.19 464.9 176.79 464.7 176.79 464.7 177.99 468.3 177.99 468.3 172.79 464.7 172.79"/>
   <polygon points="464.7 174.19 464.9 174.19 464.9 176.79 464.7 176.79 464.7 177.99 468.3 177.99 468.3 172.79 464.7 172.79" fill="none" stroke="#7f7f7f" stroke-width=".1"/>
  </g>
  <g transform="matrix(1.3616 0 0 1.3616 -164.64 -69.291)">
   <rect x="464.5" y="186.8" width="4" height="5.6"/>
   <rect x="464.5" y="186.8" width="4" height="5.6" fill="none" stroke="#7f7f7f" stroke-width=".2"/>
   <polygon points="464.7 188.4 464.9 188.4 464.9 191 464.7 191 464.7 192.2 468.3 192.2 468.3 187 464.7 187"/>
   <polygon points="464.7 188.4 464.9 188.4 464.9 191 464.7 191 464.7 192.2 468.3 192.2 468.3 187 464.7 187" fill="none" stroke="#7f7f7f" stroke-width=".1"/>
  </g>
  <g transform="matrix(1.3616 0 0 1.3616 -164.43 -70.551)">
   <rect x="464" y="143.6" width="3.7" height="3.2"/>
   <rect x="464" y="143.6" width="3.7" height="3.2" fill="none" stroke="#000" stroke-width=".2"/>
  </g>
  <g transform="matrix(1.0017 0 0 1.0017 -32.132 2.848)">
   <rect transform="rotate(90)" x="152.23" y="-506.25" width="8.6568" height="7.2446" fill-rule="evenodd"/>
   <g transform="matrix(0 -.99409 .99036 0 290.49 305.99)">
    <path d="m146.09 217.75h8.4v-7.0242h-8.4v7.0242z" fill="#3a3a3a"/>
    <g transform="matrix(.0080517 0 0 .0080487 133.48 246.67)">
     <path d="m2609.9-3593.3v-872.71h-1043.3v872.71h1043.3z" fill="none" stroke="#000" stroke-linecap="square" stroke-width=".67568"/>
    </g>
    <path d="m146.86 212.5h1.7532l-3e-3 -1.0712 0.63806-5.7e-4v-0.40106h2.0566l-4.9e-4 0.40211h0.66414v1.0712h1.7452v4.6119l-6.8535 0.015z" fill="#1a1a1a"/>
    <g fill="#ffac00">
     <path d="m148.44 217.12h0.21886v-1.3473h-0.21886v1.3473z"/>
     <path d="m148.93 217.12h0.21886v-1.3473h-0.21886v1.3473z"/>
     <path d="m149.43 217.12h0.2188v-1.3473h-0.2188v1.3473z"/>
     <path d="m149.94 217.12h0.21887v-1.3473h-0.21887v1.3473z"/>
     <path d="m150.43 217.12h0.21886v-1.3473h-0.21886v1.3473z"/>
     <path d="m150.93 217.12h0.2188v-1.3473h-0.2188v1.3473z"/>
     <path d="m151.45 217.12h0.21933v-1.3473h-0.21933v1.3473z"/>
     <path d="m151.94 217.12h0.2188v-1.3473h-0.2188v1.3473z"/>
    </g>
    <g fill="#ebebeb">
     <path d="m148.88 211.4v-0.67597l-2.7924 9.6e-4 2e-3 6.9848 0.77137-0.62711-4.8e-4 -4.8021 1.5788-7e-3v-0.87506z"/>
     <path d="m146.89 217.13-0.76557 0.62244 8.3332 1e-3 -0.78248-0.63628"/>
     <path d="m151.68 211.4v-0.67597l2.8056 9.6e-4 -2e-3 6.9848-0.77145-0.63081 5.6e-4 -4.7984-1.5906-7e-3v-0.87506z"/>
    </g>
   </g>
  </g>
  <g transform="matrix(1.0017 0 0 1.0017 -32.132 22.685)">
   <rect transform="rotate(90)" x="152.23" y="-506.25" width="8.6568" height="7.2446" fill-rule="evenodd"/>
   <g transform="matrix(0 -.99409 .99036 0 290.49 305.99)">
    <path d="m146.09 217.75h8.4v-7.0242h-8.4v7.0242z" fill="#3a3a3a"/>
    <g transform="matrix(.0080517 0 0 .0080487 133.48 246.67)">
     <path d="m2609.9-3593.3v-872.71h-1043.3v872.71h1043.3z" fill="none" stroke="#000" stroke-linecap="square" stroke-width=".67568"/>
    </g>
    <path d="m146.86 212.5h1.7532l-3e-3 -1.0712 0.63806-5.7e-4v-0.40106h2.0566l-4.9e-4 0.40211h0.66414v1.0712h1.7452v4.6119l-6.8535 0.015z" fill="#1a1a1a"/>
    <g fill="#ffac00">
     <path d="m148.44 217.12h0.21886v-1.3473h-0.21886v1.3473z"/>
     <path d="m148.93 217.12h0.21886v-1.3473h-0.21886v1.3473z"/>
     <path d="m149.43 217.12h0.2188v-1.3473h-0.2188v1.3473z"/>
     <path d="m149.94 217.12h0.21887v-1.3473h-0.21887v1.3473z"/>
     <path d="m150.43 217.12h0.21886v-1.3473h-0.21886v1.3473z"/>
     <path d="m150.93 217.12h0.2188v-1.3473h-0.2188v1.3473z"/>
     <path d="m151.45 217.12h0.21933v-1.3473h-0.21933v1.3473z"/>
     <path d="m151.94 217.12h0.2188v-1.3473h-0.2188v1.3473z"/>
    </g>
    <g fill="#ebebeb">
     <path d="m148.88 211.4v-0.67597l-2.7924 9.6e-4 2e-3 6.9848 0.77137-0.62711-4.8e-4 -4.8021 1.5788-7e-3v-0.87506z"/>
     <path d="m146.89 217.13-0.76557 0.62244 8.3332 1e-3 -0.78248-0.63628"/>
     <path d="m151.68 211.4v-0.67597l2.8056 9.6e-4 -2e-3 6.9848-0.77145-0.63081 5.6e-4 -4.7984-1.5906-7e-3v-0.87506z"/>
    </g>
   </g>
  </g>
  <path d="m462.21 163.08v-3.1494h1.9015" fill="none" stroke="#fff" stroke-width=".52771px"/>
  <path d="m462.21 165.89v3.1494h1.9015" fill="none" stroke="#fff" stroke-width=".52771px"/>
  <g transform="matrix(1.0017 0 0 1.0017 -32.132 2.848)">
   <g transform="translate(3.4563 .86228)">
    <text x="488.6774" y="181.16725" fill="#ffffff" font-family="sans-serif" font-size="2.175px" font-weight="700" style="line-height:0%">
     <tspan x="488.6774" y="181.16725">G1</tspan>
    </text>
    <path d="m490.05 178.97v-3.1441h1.8983" fill="none" stroke="#fff" stroke-width=".52681px"/>
    <path d="m490.05 181.78v3.1441h1.8983" fill="none" stroke="#fff" stroke-width=".52681px"/>
   </g>
  </g>
  <g transform="matrix(1.1028 0 0 1.2092 -81.922 -23.829)" clip-rule="evenodd" fill="#fff" fill-rule="evenodd">
   <polygon transform="matrix(.06836 0 0 .06836 481.52 99.857)" points="260.41 439.54 260.41 458.54 254.44 458.54 254.44 445.15 241.41 455.83 229.1 445.15 229.1 458.54 222.77 458.54 222.77 458.54 222.77 439.54 230.37 439.54 241.41 450.04 253.17 439.54"/>
   <polygon transform="matrix(.06836 0 0 .06836 480.86 99.857)" points="344.38 439.54 330.44 448.59 345.46 458.54 337.32 458.54 326.82 451.3 315.6 458.54 307.46 458.54 322.66 448.59 309.09 439.54 309.09 439.54 317.41 439.54 326.28 445.51 335.87 439.54"/>
   <polygon transform="matrix(.06836 0 0 .06836 480.52 99.857)" points="380.57 458.54 368.99 444.24 356.68 458.54 349.99 458.54 349.99 458.54 365.73 439.54 372.06 439.54 387.81 458.54"/>
   <path d="m500.88 129.91c0.7255 0 1.3174 0.22695 1.3174 0.65919s-0.59186 0.65933-1.3174 0.65933c-0.72551 0-1.3173-0.22709-1.3173-0.65933s0.59179-0.65919 1.3173-0.65919zm0 0.11231c0.44495 0 0.80787 0.22989 0.80787 0.51174s-0.36292 0.51174-0.80787 0.51174c-0.44489 0-0.80788-0.22989-0.80788-0.51174s0.36299-0.51174 0.80788-0.51174z"/>
  </g>
  <g transform="matrix(1.0017 0 0 1.0017 -14.543 2.0628)">
   <g transform="matrix(0 -.99409 .99036 0 252.44 283.86)">
    <path d="m146.09 217.75h8.4v-7.0242h-8.4v7.0242z" fill="#3a3a3a"/>
    <g transform="matrix(.0080517 0 0 .0080487 133.48 246.67)">
     <path d="m2609.9-3593.3v-872.71h-1043.3v872.71h1043.3z" fill="none" stroke="#000" stroke-linecap="square" stroke-width=".67568"/>
    </g>
    <path d="m146.86 212.5h1.7532l-3e-3 -1.0712 0.63806-5.7e-4v-0.40106h2.0566l-4.9e-4 0.40211h0.66414v1.0712h1.7452v4.6119l-6.8535 0.015z" fill="#1a1a1a"/>
    <g fill="#ffac00">
     <path d="m148.44 217.12h0.21886v-1.3473h-0.21886v1.3473z"/>
     <path d="m148.93 217.12h0.21886v-1.3473h-0.21886v1.3473z"/>
     <path d="m149.43 217.12h0.2188v-1.3473h-0.2188v1.3473z"/>
     <path d="m149.94 217.12h0.21887v-1.3473h-0.21887v1.3473z"/>
     <path d="m150.43 217.12h0.21886v-1.3473h-0.21886v1.3473z"/>
     <path d="m150.93 217.12h0.2188v-1.3473h-0.2188v1.3473z"/>
     <path d="m151.45 217.12h0.21933v-1.3473h-0.21933v1.3473z"/>
     <path d="m151.94 217.12h0.2188v-1.3473h-0.2188v1.3473z"/>
    </g>
    <g fill="#ebebeb">
     <path d="m148.88 211.4v-0.67597l-2.7924 9.6e-4 2e-3 6.9848 0.77137-0.62711-4.8e-4 -4.8021 1.5788-7e-3v-0.87506z"/>
     <path d="m146.89 217.13-0.76557 0.62244 8.3332 1e-3 -0.78248-0.63628"/>
     <path d="m151.68 211.4v-0.67597l2.8056 9.6e-4 -2e-3 6.9848-0.77145-0.63081 5.6e-4 -4.7984-1.5906-7e-3v-0.87506z"/>
    </g>
   </g>
   <g transform="matrix(0 -.99409 .99036 0 252.44 291.49)">
    <path d="m146.09 217.75h8.4v-7.0242h-8.4v7.0242z" fill="#3a3a3a"/>
    <g transform="matrix(.0080517 0 0 .0080487 133.48 246.67)">
     <path d="m2609.9-3593.3v-872.71h-1043.3v872.71h1043.3z" fill="none" stroke="#000" stroke-linecap="square" stroke-width=".67568"/>
    </g>
    <path d="m146.86 212.5h1.7532l-3e-3 -1.0712 0.63806-5.7e-4v-0.40106h2.0566l-4.9e-4 0.40211h0.66414v1.0712h1.7452v4.6119l-6.8535 0.015z" fill="#1a1a1a"/>
    <g fill="#ffac00">
     <path d="m148.44 217.12h0.21886v-1.3473h-0.21886v1.3473z"/>
     <path d="m148.93 217.12h0.21886v-1.3473h-0.21886v1.3473z"/>
     <path d="m149.43 217.12h0.2188v-1.3473h-0.2188v1.3473z"/>
     <path d="m149.94 217.12h0.21887v-1.3473h-0.21887v1.3473z"/>
     <path d="m150.43 217.12h0.21886v-1.3473h-0.21886v1.3473z"/>
     <path d="m150.93 217.12h0.2188v-1.3473h-0.2188v1.3473z"/>
     <path d="m151.45 217.12h0.21933v-1.3473h-0.21933v1.3473z"/>
     <path d="m151.94 217.12h0.2188v-1.3473h-0.2188v1.3473z"/>
    </g>
    <g fill="#ebebeb">
     <path d="m148.88 211.4v-0.67597l-2.7924 9.6e-4 2e-3 6.9848 0.77137-0.62711-4.8e-4 -4.8021 1.5788-7e-3v-0.87506z"/>
     <path d="m146.89 217.13-0.76557 0.62244 8.3332 1e-3 -0.78248-0.63628"/>
     <path d="m151.68 211.4v-0.67597l2.8056 9.6e-4 -2e-3 6.9848-0.77145-0.63081 5.6e-4 -4.7984-1.5906-7e-3v-0.87506z"/>
    </g>
   </g>
   <g transform="matrix(0 -.99409 .99036 0 252.44 299.11)">
    <path d="m146.09 217.75h8.4v-7.0242h-8.4v7.0242z" fill="#3a3a3a"/>
    <g transform="matrix(.0080517 0 0 .0080487 133.48 246.67)">
     <path d="m2609.9-3593.3v-872.71h-1043.3v872.71h1043.3z" fill="none" stroke="#000" stroke-linecap="square" stroke-width=".67568"/>
    </g>
    <path d="m146.86 212.5h1.7532l-3e-3 -1.0712 0.63806-5.7e-4v-0.40106h2.0566l-4.9e-4 0.40211h0.66414v1.0712h1.7452v4.6119l-6.8535 0.015z" fill="#1a1a1a"/>
    <g fill="#ffac00">
     <path d="m148.44 217.12h0.21886v-1.3473h-0.21886v1.3473z"/>
     <path d="m148.93 217.12h0.21886v-1.3473h-0.21886v1.3473z"/>
     <path d="m149.43 217.12h0.2188v-1.3473h-0.2188v1.3473z"/>
     <path d="m149.94 217.12h0.21887v-1.3473h-0.21887v1.3473z"/>
     <path d="m150.43 217.12h0.21886v-1.3473h-0.21886v1.3473z"/>
     <path d="m150.93 217.12h0.2188v-1.3473h-0.2188v1.3473z"/>
     <path d="m151.45 217.12h0.21933v-1.3473h-0.21933v1.3473z"/>
     <path d="m151.94 217.12h0.2188v-1.3473h-0.2188v1.3473z"/>
    </g>
    <g fill="#ebebeb">
     <path d="m148.88 211.4v-0.67597l-2.7924 9.6e-4 2e-3 6.9848 0.77137-0.62711-4.8e-4 -4.8021 1.5788-7e-3v-0.87506z"/>
     <path d="m146.89 217.13-0.76557 0.62244 8.3332 1e-3 -0.78248-0.63628"/>
     <path d="m151.68 211.4v-0.67597l2.8056 9.6e-4 -2e-3 6.9848-0.77145-0.63081 5.6e-4 -4.7984-1.5906-7e-3v-0.87506z"/>
    </g>
   </g>
   <g transform="matrix(0 -.99409 .99036 0 252.44 306.74)">
    <path d="m146.09 217.75h8.4v-7.0242h-8.4v7.0242z" fill="#3a3a3a"/>
    <g transform="matrix(.0080517 0 0 .0080487 133.48 246.67)">
     <path d="m2609.9-3593.3v-872.71h-1043.3v872.71h1043.3z" fill="none" stroke="#000" stroke-linecap="square" stroke-width=".67568"/>
    </g>
    <path d="m146.86 212.5h1.7532l-3e-3 -1.0712 0.63806-5.7e-4v-0.40106h2.0566l-4.9e-4 0.40211h0.66414v1.0712h1.7452v4.6119l-6.8535 0.015z" fill="#1a1a1a"/>
    <g fill="#ffac00">
     <path d="m148.44 217.12h0.21886v-1.3473h-0.21886v1.3473z"/>
     <path d="m148.93 217.12h0.21886v-1.3473h-0.21886v1.3473z"/>
     <path d="m149.43 217.12h0.2188v-1.3473h-0.2188v1.3473z"/>
     <path d="m149.94 217.12h0.21887v-1.3473h-0.21887v1.3473z"/>
     <path d="m150.43 217.12h0.21886v-1.3473h-0.21886v1.3473z"/>
     <path d="m150.93 217.12h0.2188v-1.3473h-0.2188v1.3473z"/>
     <path d="m151.45 217.12h0.21933v-1.3473h-0.21933v1.3473z"/>
     <path d="m151.94 217.12h0.2188v-1.3473h-0.2188v1.3473z"/>
    </g>
    <g fill="#ebebeb">
     <path d="m148.88 211.4v-0.67597l-2.7924 9.6e-4 2e-3 6.9848 0.77137-0.62711-4.8e-4 -4.8021 1.5788-7e-3v-0.87506z"/>
     <path d="m146.89 217.13-0.76557 0.62244 8.3332 1e-3 -0.78248-0.63628"/>
     <path d="m151.68 211.4v-0.67597l2.8056 9.6e-4 -2e-3 6.9848-0.77145-0.63081 5.6e-4 -4.7984-1.5906-7e-3v-0.87506z"/>
    </g>
   </g>
   <g transform="matrix(0 -.99409 .99036 0 252.44 314.36)">
    <path d="m146.09 217.75h8.4v-7.0242h-8.4v7.0242z" fill="#3a3a3a"/>
    <g transform="matrix(.0080517 0 0 .0080487 133.48 246.67)">
     <path d="m2609.9-3593.3v-872.71h-1043.3v872.71h1043.3z" fill="none" stroke="#000" stroke-linecap="square" stroke-width=".67568"/>
    </g>
    <path d="m146.86 212.5h1.7532l-3e-3 -1.0712 0.63806-5.7e-4v-0.40106h2.0566l-4.9e-4 0.40211h0.66414v1.0712h1.7452v4.6119l-6.8535 0.015z" fill="#1a1a1a"/>
    <g fill="#ffac00">
     <path d="m148.44 217.12h0.21886v-1.3473h-0.21886v1.3473z"/>
     <path d="m148.93 217.12h0.21886v-1.3473h-0.21886v1.3473z"/>
     <path d="m149.43 217.12h0.2188v-1.3473h-0.2188v1.3473z"/>
     <path d="m149.94 217.12h0.21887v-1.3473h-0.21887v1.3473z"/>
     <path d="m150.43 217.12h0.21886v-1.3473h-0.21886v1.3473z"/>
     <path d="m150.93 217.12h0.2188v-1.3473h-0.2188v1.3473z"/>
     <path d="m151.45 217.12h0.21933v-1.3473h-0.21933v1.3473z"/>
     <path d="m151.94 217.12h0.2188v-1.3473h-0.2188v1.3473z"/>
    </g>
    <g fill="#ebebeb">
     <path d="m148.88 211.4v-0.67597l-2.7924 9.6e-4 2e-3 6.9848 0.77137-0.62711-4.8e-4 -4.8021 1.5788-7e-3v-0.87506z"/>
     <path d="m146.89 217.13-0.76557 0.62244 8.3332 1e-3 -0.78248-0.63628"/>
     <path d="m151.68 211.4v-0.67597l2.8056 9.6e-4 -2e-3 6.9848-0.77145-0.63081 5.6e-4 -4.7984-1.5906-7e-3v-0.87506z"/>
    </g>
   </g>
   <g transform="matrix(0 -.99409 .99036 0 252.44 321.99)">
    <path d="m146.09 217.75h8.4v-7.0242h-8.4v7.0242z" fill="#3a3a3a"/>
    <g transform="matrix(.0080517 0 0 .0080487 133.48 246.67)">
     <path d="m2609.9-3593.3v-872.71h-1043.3v872.71h1043.3z" fill="none" stroke="#000" stroke-linecap="square" stroke-width=".67568"/>
    </g>
    <path d="m146.86 212.5h1.7532l-3e-3 -1.0712 0.63806-5.7e-4v-0.40106h2.0566l-4.9e-4 0.40211h0.66414v1.0712h1.7452v4.6119l-6.8535 0.015z" fill="#1a1a1a"/>
    <g fill="#ffac00">
     <path d="m148.44 217.12h0.21886v-1.3473h-0.21886v1.3473z"/>
     <path d="m148.93 217.12h0.21886v-1.3473h-0.21886v1.3473z"/>
     <path d="m149.43 217.12h0.2188v-1.3473h-0.2188v1.3473z"/>
     <path d="m149.94 217.12h0.21887v-1.3473h-0.21887v1.3473z"/>
     <path d="m150.43 217.12h0.21886v-1.3473h-0.21886v1.3473z"/>
     <path d="m150.93 217.12h0.2188v-1.3473h-0.2188v1.3473z"/>
     <path d="m151.45 217.12h0.21933v-1.3473h-0.21933v1.3473z"/>
     <path d="m151.94 217.12h0.2188v-1.3473h-0.2188v1.3473z"/>
    </g>
    <g fill="#ebebeb">
     <path d="m148.88 211.4v-0.67597l-2.7924 9.6e-4 2e-3 6.9848 0.77137-0.62711-4.8e-4 -4.8021 1.5788-7e-3v-0.87506z"/>
     <path d="m146.89 217.13-0.76557 0.62244 8.3332 1e-3 -0.78248-0.63628"/>
     <path d="m151.68 211.4v-0.67597l2.8056 9.6e-4 -2e-3 6.9848-0.77145-0.63081 5.6e-4 -4.7984-1.5906-7e-3v-0.87506z"/>
    </g>
   </g>
   <g transform="matrix(0 -.99409 .99036 0 252.44 329.62)">
    <path d="m146.09 217.75h8.4v-7.0242h-8.4v7.0242z" fill="#3a3a3a"/>
    <g transform="matrix(.0080517 0 0 .0080487 133.48 246.67)">
     <path d="m2609.9-3593.3v-872.71h-1043.3v872.71h1043.3z" fill="none" stroke="#000" stroke-linecap="square" stroke-width=".67568"/>
    </g>
    <path d="m146.86 212.5h1.7532l-3e-3 -1.0712 0.63806-5.7e-4v-0.40106h2.0566l-4.9e-4 0.40211h0.66414v1.0712h1.7452v4.6119l-6.8535 0.015z" fill="#1a1a1a"/>
    <g fill="#ffac00">
     <path d="m148.44 217.12h0.21886v-1.3473h-0.21886v1.3473z"/>
     <path d="m148.93 217.12h0.21886v-1.3473h-0.21886v1.3473z"/>
     <path d="m149.43 217.12h0.2188v-1.3473h-0.2188v1.3473z"/>
     <path d="m149.94 217.12h0.21887v-1.3473h-0.21887v1.3473z"/>
     <path d="m150.43 217.12h0.21886v-1.3473h-0.21886v1.3473z"/>
     <path d="m150.93 217.12h0.2188v-1.3473h-0.2188v1.3473z"/>
     <path d="m151.45 217.12h0.21933v-1.3473h-0.21933v1.3473z"/>
     <path d="m151.94 217.12h0.2188v-1.3473h-0.2188v1.3473z"/>
    </g>
    <g fill="#ebebeb">
     <path d="m148.88 211.4v-0.67597l-2.7924 9.6e-4 2e-3 6.9848 0.77137-0.62711-4.8e-4 -4.8021 1.5788-7e-3v-0.87506z"/>
     <path d="m146.89 217.13-0.76557 0.62244 8.3332 1e-3 -0.78248-0.63628"/>
     <path d="m151.68 211.4v-0.67597l2.8056 9.6e-4 -2e-3 6.9848-0.77145-0.63081 5.6e-4 -4.7984-1.5906-7e-3v-0.87506z"/>
    </g>
   </g>
   <g transform="matrix(0 -.99409 .99036 0 252.44 337.24)">
    <path d="m146.09 217.75h8.4v-7.0242h-8.4v7.0242z" fill="#3a3a3a"/>
    <g transform="matrix(.0080517 0 0 .0080487 133.48 246.67)">
     <path d="m2609.9-3593.3v-872.71h-1043.3v872.71h1043.3z" fill="none" stroke="#000" stroke-linecap="square" stroke-width=".67568"/>
    </g>
    <path d="m146.86 212.5h1.7532l-3e-3 -1.0712 0.63806-5.7e-4v-0.40106h2.0566l-4.9e-4 0.40211h0.66414v1.0712h1.7452v4.6119l-6.8535 0.015z" fill="#1a1a1a"/>
    <g fill="#ffac00">
     <path d="m148.44 217.12h0.21886v-1.3473h-0.21886v1.3473z"/>
     <path d="m148.93 217.12h0.21886v-1.3473h-0.21886v1.3473z"/>
     <path d="m149.43 217.12h0.2188v-1.3473h-0.2188v1.3473z"/>
     <path d="m149.94 217.12h0.21887v-1.3473h-0.21887v1.3473z"/>
     <path d="m150.43 217.12h0.21886v-1.3473h-0.21886v1.3473z"/>
     <path d="m150.93 217.12h0.2188v-1.3473h-0.2188v1.3473z"/>
     <path d="m151.45 217.12h0.21933v-1.3473h-0.21933v1.3473z"/>
     <path d="m151.94 217.12h0.2188v-1.3473h-0.2188v1.3473z"/>
    </g>
    <g fill="#ebebeb">
     <path d="m148.88 211.4v-0.67597l-2.7924 9.6e-4 2e-3 6.9848 0.77137-0.62711-4.8e-4 -4.8021 1.5788-7e-3v-0.87506z"/>
     <path d="m146.89 217.13-0.76557 0.62244 8.3332 1e-3 -0.78248-0.63628"/>
     <path d="m151.68 211.4v-0.67597l2.8056 9.6e-4 -2e-3 6.9848-0.77145-0.63081 5.6e-4 -4.7984-1.5906-7e-3v-0.87506z"/>
    </g>
   </g>
  </g>
  <path d="m457.07 158.93v-22.996h-1.9015" fill="none" stroke="#fff" stroke-width=".52771px"/>
  <path d="m457.07 168.78v22.996h-1.9015" fill="none" stroke="#fff" stroke-width=".52771px"/>
  <g transform="matrix(1.0017 0 0 1.0017 -32.493 .90412)" fill-rule="evenodd">
   <circle cx="475.42" cy="133.76" r=".38472" fill="#008000"/>
   <circle cx="475.42" cy="137.41" r=".38472" fill="#f60"/>
  </g>
  <g transform="matrix(1.0017 0 0 1.0017 -32.493 8.5729)" fill-rule="evenodd">
   <circle cx="475.42" cy="133.76" r=".38472" fill="#008000"/>
   <circle cx="475.42" cy="137.41" r=".38472" fill="#f60"/>
  </g>
  <g transform="matrix(1.0017 0 0 1.0017 -32.493 16.212)" fill-rule="evenodd">
   <circle cx="475.42" cy="133.76" r=".38472" fill="#008000"/>
   <circle cx="475.42" cy="137.41" r=".38472" fill="#f60"/>
  </g>
  <g transform="matrix(1.0017 0 0 1.0017 -32.493 23.924)" fill-rule="evenodd">
   <circle cx="475.42" cy="133.76" r=".38472" fill="#008000"/>
   <circle cx="475.42" cy="137.41" r=".38472" fill="#f60"/>
  </g>
  <g transform="matrix(1.0017 0 0 1.0017 -32.493 31.49)" fill-rule="evenodd">
   <circle cx="475.42" cy="133.76" r=".38472" fill="#008000"/>
   <circle cx="475.42" cy="137.41" r=".38472" fill="#f60"/>
  </g>
  <g transform="matrix(1.0017 0 0 1.0017 -32.493 39.129)" fill-rule="evenodd">
   <circle cx="475.42" cy="133.76" r=".38472" fill="#008000"/>
   <circle cx="475.42" cy="137.41" r=".38472" fill="#f60"/>
  </g>
  <g transform="matrix(1.0017 0 0 1.0017 -32.493 46.768)" fill-rule="evenodd">
   <circle cx="475.42" cy="133.76" r=".38472" fill="#008000"/>
   <circle cx="475.42" cy="137.41" r=".38472" fill="#f60"/>
  </g>
  <g transform="matrix(1.0017 0 0 1.0017 -32.493 54.407)" fill-rule="evenodd">
   <circle cx="475.42" cy="133.76" r=".38472" fill="#008000"/>
   <circle cx="475.42" cy="137.41" r=".38472" fill="#f60"/>
  </g>
  <g fill="#f60" fill-rule="evenodd">
   <circle cx="466.51" cy="164.49" r=".38537"/>
   <circle cx="466.51" cy="184.39" r=".38537"/>
   <ellipse cx="466.46" cy="137.43" rx=".34158" ry=".38537"/>
   <circle cx="466.51" cy="140.82" r=".38537"/>
   <circle cx="466.51" cy="144.21" r=".38537"/>
   <circle cx="466.51" cy="147.61" r=".38537"/>
   <circle cx="466.51" cy="151" r=".38537"/>
  </g>
  <g fill="#ffffff" font-family="sans-serif" font-size="1.3775px" font-weight="700">
   <text x="467.84369" y="137.92867" style="line-height:0%">
    <tspan x="467.84369" y="137.92867" font-family="sans-serif" font-weight="normal">PWR1</tspan>
   </text>
   <text x="467.69363" y="141.33157" style="line-height:0%">
    <tspan x="467.69363" y="141.33157" font-family="sans-serif" font-weight="normal">PWR2</tspan>
   </text>
   <text x="467.97229" y="144.70657" style="line-height:0%">
    <tspan x="467.97229" y="144.70657" font-family="sans-serif" font-weight="normal">FAULT</tspan>
   </text>
   <text x="467.34396" y="148.05536" style="line-height:0%">
    <tspan x="467.34396" y="148.05536" font-family="sans-serif" font-weight="normal">MSTR/HEAD</tspan>
   </text>
   <text x="467.60715" y="151.44917" style="line-height:0%">
    <tspan x="467.60715" y="151.44917" font-family="sans-serif" font-weight="normal">CPLR/TAIL</tspan>
   </text>
  </g>
 </g>
</svg>
