<svg width="134" height="41" version="1.1" viewBox="51 381 134 41" xml:space="preserve" xmlns="http://www.w3.org/2000/svg"><path d="m57.574 381-2.9469 3.347-3.6136 7.8522v9.6953h1.4571v-2.5195h2.34v9.1934h-2.34v-2.5195h-1.4707l0.013661 15.951h133.97l0.0127-15.951h-1.6948v2.5195h-2.3399v-9.1934h2.3399v2.5195h1.6792l3e-3 -9.6953-3.2102-7.8522-3.5383-3.347h-3.5812l-2.3692 7.5586h-108.76l-2.3712-7.5586z" fill="#5b6f76" opacity=".99"/><g fill="#fff" fill-rule="evenodd" shape-rendering="auto"><path d="m64.542 414.44v0.44462h-0.91486v0.18823h2.0681v-0.18823h-0.91565v-0.44462z" color="#000000" color-rendering="auto" image-rendering="auto" solid-color="#000000" stroke-width=".39644" style="isolation:auto;mix-blend-mode:normal;text-decoration-color:#000000;text-decoration-line:none;text-decoration-style:solid;text-indent:0;text-transform:none;white-space:normal"/><path d="m64 415.45v0.18815h1.3264v-0.18815z" color="#000000" color-rendering="auto" image-rendering="auto" solid-color="#000000" stroke-width=".74646" style="isolation:auto;mix-blend-mode:normal;text-decoration-color:#000000;text-decoration-line:none;text-decoration-style:solid;text-indent:0;text-transform:none;white-space:normal"/><path d="m64.223 416.01v0.18816h0.87749v-0.18816z" color="#000000" color-rendering="auto" image-rendering="auto" solid-color="#000000" stroke-width=".74646" style="isolation:auto;mix-blend-mode:normal;text-decoration-color:#000000;text-decoration-line:none;text-decoration-style:solid;text-indent:0;text-transform:none;white-space:normal"/></g><ellipse cx="64.665" cy="415.31" rx="1.3839" ry="1.385" fill="none" stroke="#fff" stroke-linejoin="round" stroke-opacity=".99692" stroke-width=".20474"/><ellipse cx="64.64" cy="402.01" rx="1.7369" ry="1.7383" fill="#ebebeb" fill-rule="evenodd" stroke="#000" stroke-width="1.7228"/><path d="m88.225 403.19c0.37862 0 0.66424-0.31909 0.66424-0.68472v-2.001c0-0.36563-0.23248-0.56505-0.42512-0.63818-0.28562-0.0864-0.59118-0.20607-0.75724-0.3922l-0.67753-0.77114c-0.12621-0.1463-0.31884-0.25261-0.55796-0.25261h-8.7547c-0.23913 0-0.43176 0.11305-0.55796 0.25261l-0.67753 0.77114c-0.22584 0.24596-0.4384 0.2792-0.75724 0.3922-0.19263 0.0665-0.42512 0.2659-0.42512 0.63818v2.001c0 0.36563 0.27898 0.68472 0.66424 0.68472z" stroke="#fff" stroke-width=".3987"/><path d="m86.432 400.46c0.05314 0 0.07971 7e-3 0.13284 0.0199l0.51811 0.17278c0.03985 0.0128 0.06643 0.0599 0.06643 0.0997v0.37227c0 0.0398-0.05314 0.0798-0.093 0.0798h-9.9304c-0.03986 0-0.093-0.0398-0.093-0.0798v-0.37227c0-0.0398 0.02657-0.0864 0.06643-0.0997l0.51811-0.17278c0.05314-0.0199 0.07971-0.0199 0.13284-0.0199h8.6684z" fill="#808080" stroke="#000" stroke-width=".066451"/><g fill="#52646b"><rect x="115.94" y="386.75" width="3.9968" height="1.8104"/><rect x="74.365" y="386.75" width="3.9968" height="1.8104"/><rect x="88.222" y="386.75" width="3.9968" height="1.8104"/><rect x="102.08" y="386.75" width="3.9968" height="1.8104"/><rect x="129.79" y="386.75" width="3.9968" height="1.8104"/><rect x="143.65" y="386.75" width="3.9968" height="1.8104"/><rect x="157.51" y="386.75" width="3.9968" height="1.8104"/><path d="m64.769 381v0.94922h0.38251l0.19906 1.1465h2.1487l0.40008 5.4621h3.0718l0.39812-5.4621h2.1506l0.19906-1.1465h0.38251v-0.94922z"/><path d="m78.626 381v0.94922h0.38251l0.19906 1.1465h2.1487l0.40008 5.4621h3.0718l0.39812-5.4621h2.1506l0.19906-1.1465h0.38251v-0.94922z"/><path d="m92.482 381v0.94922h0.38251l0.19906 1.1465h2.1487l0.40008 5.4621h3.0718l0.39812-5.4621h2.1506l0.19906-1.1465h0.38251v-0.94922z"/><path d="m106.34 381v0.94922h0.38252l0.19906 1.1465h2.1487l0.40007 5.4621h3.0718l0.39813-5.4621h2.1506l0.19906-1.1465h0.38251v-0.94922z"/><path d="m120.2 381v0.94922h0.38251l0.19906 1.1465h2.1487l0.40007 5.4621h3.0718l0.39812-5.4621h2.1506l0.19906-1.1465h0.38251v-0.94922z"/><path d="m134.05 381v0.94922h0.38251l0.19906 1.1465h2.1487l0.40008 5.4621h3.0718l0.39814-5.4621h2.1506l0.19907-1.1465h0.38251v-0.94922z"/><path d="m147.91 381v0.94922h0.3825l0.19905 1.1465h2.1487l0.40007 5.4621h3.0718l0.39813-5.4621h2.1506l0.19907-1.1465h0.38251v-0.94922z"/><path d="m171.1 381v0.94922h-0.38251l-0.19904 1.1465h-2.1487l-0.40007 5.4621h-3.0718l-0.39813-5.4621h-2.1506l-0.19907-1.1465h-0.38252v-0.94922z"/></g><g fill="#1a1a1a"><path d="m58.255 389.86c0 1.5623-1.2233 2.8307-2.7294 2.8307-1.506 0-2.7284-1.2685-2.7284-2.8307 0-1.5633 1.2223-2.8317 2.7284-2.8317 1.506 0 2.7294 1.2685 2.7294 2.8317z" stroke="#000" stroke-width=".069997"/><g stroke-width=".075302"><path d="m55.111 388.04v1.4772" stroke="#999"/><path d="m53.673 389.52v0.75332h1.4467v1.4478h0.75272" color="#000000" color-rendering="auto" image-rendering="auto" shape-rendering="auto" solid-color="#000000" stroke="#999" style="isolation:auto;mix-blend-mode:normal;text-decoration-color:#000000;text-decoration-line:none;text-decoration-style:solid;text-indent:0;text-transform:none;white-space:normal"/><path d="m55.186 388v1.4478h-1.4467v0.75332h1.4467v1.4478h0.75272v-1.4478h1.4467v-0.75332h-1.4467v-1.4478z" color="#000000" color-rendering="auto" fill-rule="evenodd" image-rendering="auto" shape-rendering="auto" solid-color="#000000" stroke="#000" style="isolation:auto;mix-blend-mode:normal;text-decoration-color:#000000;text-decoration-line:none;text-decoration-style:solid;text-indent:0;text-transform:none;white-space:normal"/></g><path d="m56.506 418.59c0 1.5623-1.2233 2.8307-2.7294 2.8307-1.506 0-2.7284-1.2685-2.7284-2.8307 0-1.5633 1.2223-2.8317 2.7284-2.8317 1.506 0 2.7294 1.2685 2.7294 2.8317z" stroke="#000" stroke-width=".069997"/><g stroke-width=".075302"><path d="m53.362 416.78v1.4772" stroke="#999"/><path d="m51.925 418.25v0.75332h1.4467v1.4478h0.75272" color="#000000" color-rendering="auto" image-rendering="auto" shape-rendering="auto" solid-color="#000000" stroke="#999" style="isolation:auto;mix-blend-mode:normal;text-decoration-color:#000000;text-decoration-line:none;text-decoration-style:solid;text-indent:0;text-transform:none;white-space:normal"/><path d="m53.438 416.74v1.4478h-1.4467v0.75331h1.4467v1.4478h0.75272v-1.4478h1.4467v-0.75331h-1.4467v-1.4478z" color="#000000" color-rendering="auto" fill-rule="evenodd" image-rendering="auto" shape-rendering="auto" solid-color="#000000" stroke="#000" style="isolation:auto;mix-blend-mode:normal;text-decoration-color:#000000;text-decoration-line:none;text-decoration-style:solid;text-indent:0;text-transform:none;white-space:normal"/></g></g><path d="m66.305 411.16c0 0.95382-0.74687 1.7282-1.6664 1.7282-0.91948 0-1.6658-0.77445-1.6658-1.7282 0-0.95442 0.74623-1.7288 1.6658-1.7288 0.91948 0 1.6664 0.77445 1.6664 1.7288z" fill="#ccc" stroke="#000" stroke-width=".042735"/><path d="m65.877 411.16c0 0.70666-0.55505 1.2807-1.239 1.2807-0.68391 0-1.2384-0.57407-1.2384-1.2807 0-0.70667 0.55446-1.2801 1.2384-1.2801 0.68391 0 1.239 0.57347 1.239 1.2801z" fill="#fff" stroke="#000" stroke-width=".042735"/><g stroke-width=".045974"><path d="m64.385 410.05v0.90185" fill="none" stroke="#999"/><path d="m63.507 410.95v0.45992h0.88322v0.88392h0.45956" color="#000000" color-rendering="auto" fill="none" image-rendering="auto" shape-rendering="auto" solid-color="#000000" stroke="#999" style="isolation:auto;mix-blend-mode:normal;text-decoration-color:#000000;text-decoration-line:none;text-decoration-style:solid;text-indent:0;text-transform:none;white-space:normal"/><path d="m64.431 410.03v0.88392h-0.88322v0.45992h0.88322v0.88392h0.45956v-0.88392h0.88322v-0.45992h-0.88322v-0.88392z" color="#000000" color-rendering="auto" fill="#b3b3b3" fill-rule="evenodd" image-rendering="auto" shape-rendering="auto" solid-color="#000000" stroke="#808080" style="isolation:auto;mix-blend-mode:normal;text-decoration-color:#000000;text-decoration-line:none;text-decoration-style:solid;text-indent:0;text-transform:none;white-space:normal"/></g><g fill="#1a1a1a"><path d="m181.97 389.86c0 1.5623-1.2233 2.8307-2.7294 2.8307-1.506 0-2.7284-1.2685-2.7284-2.8307 0-1.5633 1.2223-2.8317 2.7284-2.8317 1.5061 0 2.7294 1.2685 2.7294 2.8317z" stroke="#000" stroke-width=".069997"/><g stroke-width=".075302"><path d="m178.83 388.04v1.4772" stroke="#999"/><path d="m177.39 389.52v0.75332h1.4466v1.4478h0.75272" color="#000000" color-rendering="auto" image-rendering="auto" shape-rendering="auto" solid-color="#000000" stroke="#999" style="isolation:auto;mix-blend-mode:normal;text-decoration-color:#000000;text-decoration-line:none;text-decoration-style:solid;text-indent:0;text-transform:none;white-space:normal"/><path d="m178.9 388v1.4478h-1.4467v0.75332h1.4467v1.4478h0.75272v-1.4478h1.4467v-0.75332h-1.4467v-1.4478z" color="#000000" color-rendering="auto" fill-rule="evenodd" image-rendering="auto" shape-rendering="auto" solid-color="#000000" stroke="#000" style="isolation:auto;mix-blend-mode:normal;text-decoration-color:#000000;text-decoration-line:none;text-decoration-style:solid;text-indent:0;text-transform:none;white-space:normal"/></g></g><g fill-rule="evenodd"><rect transform="scale(-1)" x="-108.98" y="-411.18" width="15.348" height="12.267" fill="#e6e6e6" stroke-width="1.0663"/><path d="m94.994 400.73v7.2843h2.7829v2.0121h1.2367v0.90583h4.5912v-0.90583h1.2367v-2.0121h2.783v-7.2843z" fill="#1a1a1a" stroke-width="1.0663"/><path d="m108.47 410h-3.4838c-6e-3 0-0.0105-4e-3 -0.0105-0.0107v-1.8496c0-6e-3 5e-3 -0.0107 0.0105-0.0107h3.4838c6e-3 0 0.0106 4e-3 0.0106 0.0107v1.8496c0 6e-3 -5e-3 0.0107-0.0106 0.0107z" fill="#aad400" stroke="#222b00" stroke-linecap="round" stroke-width=".052583"/><path d="m97.633 410h-3.4839c-0.0058 0-0.01055-4e-3 -0.01055-0.0107v-1.8496c0-6e-3 0.0047-0.0107 0.01055-0.0107h3.4839c0.0058 0 0.01055 4e-3 0.01055 0.0107v1.8496c0 6e-3 -0.0047 0.0107-0.01055 0.0107z" fill="#aad400" stroke="#222b00" stroke-linecap="round" stroke-width=".052583"/><rect transform="scale(-1)" x="-128.66" y="-411.18" width="15.348" height="12.267" fill="#e6e6e6" stroke-width="1.0663"/><path d="m114.68 400.73v7.2843h2.783v2.0121h1.2367v0.90583h4.5912v-0.90583h1.2367v-2.0121h2.783v-7.2843z" fill="#1a1a1a" stroke-width="1.0663"/><path d="m128.15 410h-3.4838c-6e-3 0-0.0105-4e-3 -0.0105-0.0107v-1.8496c0-6e-3 5e-3 -0.0107 0.0105-0.0107h3.4838c6e-3 0 0.0106 4e-3 0.0106 0.0107v1.8496c0 6e-3 -5e-3 0.0107-0.0106 0.0107z" fill="#aad400" stroke="#222b00" stroke-linecap="round" stroke-width=".052583"/><path d="m117.31 410h-3.4838c-6e-3 0-0.0106-4e-3 -0.0106-0.0107v-1.8496c0-6e-3 5e-3 -0.0107 0.0106-0.0107h3.4838c6e-3 0 0.0105 4e-3 0.0105 0.0107v1.8496c0 6e-3 -5e-3 0.0107-0.0105 0.0107z" fill="#aad400" stroke="#222b00" stroke-linecap="round" stroke-width=".052583"/><rect transform="scale(-1)" x="-148.35" y="-411.18" width="15.348" height="12.267" fill="#e6e6e6" stroke-width="1.0663"/><path d="m134.36 400.73v7.2843h2.783v2.0121h1.2367v0.90583h4.5912v-0.90583h1.2367v-2.0121h2.783v-7.2843z" fill="#1a1a1a" stroke-width="1.0663"/><path d="m147.83 410h-3.4838c-6e-3 0-0.0105-4e-3 -0.0105-0.0107v-1.8496c0-6e-3 5e-3 -0.0107 0.0105-0.0107h3.4838c6e-3 0 0.0106 4e-3 0.0106 0.0107v1.8496c0 6e-3 -5e-3 0.0107-0.0106 0.0107z" fill="#aad400" stroke="#222b00" stroke-linecap="round" stroke-width=".052583"/><path d="m137 410h-3.4838c-6e-3 0-0.0105-4e-3 -0.0105-0.0107v-1.8496c0-6e-3 5e-3 -0.0107 0.0105-0.0107h3.4838c6e-3 0 0.0105 4e-3 0.0105 0.0107v1.8496c0 6e-3 -5e-3 0.0107-0.0105 0.0107z" fill="#aad400" stroke="#222b00" stroke-linecap="round" stroke-width=".052583"/><rect transform="scale(-1)" x="-168.03" y="-411.18" width="15.348" height="12.267" fill="#e6e6e6" stroke-width="1.0663"/><path d="m154.04 400.73v7.2843h2.783v2.0121h1.2367v0.90583h4.5912v-0.90583h1.2367v-2.0121h2.783v-7.2843z" fill="#1a1a1a" stroke-width="1.0663"/><path d="m167.51 410h-3.4838c-6e-3 0-0.0105-4e-3 -0.0105-0.0107v-1.8496c0-6e-3 5e-3 -0.0107 0.0105-0.0107h3.4838c6e-3 0 0.0106 4e-3 0.0106 0.0107v1.8496c0 6e-3 -5e-3 0.0107-0.0106 0.0107z" fill="#aad400" stroke="#222b00" stroke-linecap="round" stroke-width=".052583"/><path d="m156.68 410h-3.4838c-6e-3 0-0.0105-4e-3 -0.0105-0.0107v-1.8496c0-6e-3 5e-3 -0.0107 0.0105-0.0107h3.4838c6e-3 0 0.0105 4e-3 0.0105 0.0107v1.8496c0 6e-3 -5e-3 0.0107-0.0105 0.0107z" fill="#aad400" stroke="#222b00" stroke-linecap="round" stroke-width=".052583"/></g><g fill="#1a1a1a"><path d="m184.93 418.59c0 1.5623-1.2233 2.8307-2.7294 2.8307-1.506 0-2.7284-1.2685-2.7284-2.8307 0-1.5633 1.2223-2.8317 2.7284-2.8317 1.5061 0 2.7294 1.2685 2.7294 2.8317z" stroke="#000" stroke-width=".069997"/><g stroke-width=".075302"><path d="m181.78 416.78v1.4772" stroke="#999"/><path d="m180.35 418.25v0.75332h1.4467v1.4478h0.75272" color="#000000" color-rendering="auto" image-rendering="auto" shape-rendering="auto" solid-color="#000000" stroke="#999" style="isolation:auto;mix-blend-mode:normal;text-decoration-color:#000000;text-decoration-line:none;text-decoration-style:solid;text-indent:0;text-transform:none;white-space:normal"/><path d="m181.86 416.74v1.4478h-1.4467v0.75331h1.4467v1.4478h0.75272v-1.4478h1.4467v-0.75331h-1.4467v-1.4478z" color="#000000" color-rendering="auto" fill-rule="evenodd" image-rendering="auto" shape-rendering="auto" solid-color="#000000" stroke="#000" style="isolation:auto;mix-blend-mode:normal;text-decoration-color:#000000;text-decoration-line:none;text-decoration-style:solid;text-indent:0;text-transform:none;white-space:normal"/></g></g><path id="outer" d="m74.612 416.24c-0.19878 0-0.34076-0.14209-0.34076-0.34102v-4.206c0-0.19893 0.14198-0.34102 0.34076-0.34102h13.488c0.17038 0 0.25557 0.0285 0.36916 0.1136 0.17038 0.17058 1.1643 1.1936 1.3063 1.3641 0.11359 0.1136 0.14198 0.17058 0.14198 0.34102v2.7282c0 0.19893-0.14198 0.34103-0.34076 0.34103h-14.994z" stroke="#fff" stroke-linejoin="round" stroke-width=".3409"/><path d="m87.334 414.13v-1.4778h-0.59633v0.85256h-10.251v-0.85256h-0.59633v1.4778z" fill="#808080" stroke="#000" stroke-width=".055978"/><path d="m85.403 416.12v-0.36945h-1.0223v0.36945zm-5.5374 0v-0.36945h-1.0223v0.36945zm0-4.2913v-0.36945h-1.0223v0.36945zm5.5374 0v-0.36945h-1.0223v0.36945z" stroke="#000" stroke-width=".028408"/><g fill="#ffffff" font-family="MetricHPE" font-size="2.6656px" font-weight="600" letter-spacing="-.039984px" stroke-linecap="round" stroke-linejoin="round" stroke-width=".055978" text-anchor="middle"><text transform="scale(.99961 1.0004)" x="64.607101" y="396.98856" text-align="center" style="line-height:1.4;text-decoration-color:#000000" xml:space="preserve"><tspan x="64.587112" y="396.98856" fill="#ffffff" font-family="'DejaVu Sans'" font-weight="normal" stroke-width=".055978">DC</tspan></text><text transform="scale(.99961 1.0004)" x="82.074799" y="396.29343" text-align="center" style="line-height:1.4;text-decoration-color:#000000" xml:space="preserve"><tspan x="82.054802" y="396.29343" fill="#ffffff" font-family="'DejaVu Sans'" font-weight="normal" stroke-width=".055978">HD</tspan></text><text transform="scale(.99961 1.0004)" x="101.34119" y="396.57675" text-align="center" style="line-height:1.4;text-decoration-color:#000000" xml:space="preserve"><tspan x="101.32119" y="396.57675" fill="#ffffff" font-family="'DejaVu Sans'" font-weight="normal" stroke-width=".055978">LAN1</tspan></text><text transform="scale(.99961 1.0004)" x="121.03063" y="396.57675" text-align="center" style="line-height:1.4;text-decoration-color:#000000" xml:space="preserve"><tspan x="121.01064" y="396.57675" fill="#ffffff" font-family="'DejaVu Sans'" font-weight="normal" stroke-width=".055978">LAN2</tspan></text><text transform="scale(.99961 1.0004)" x="140.70381" y="396.53903" text-align="center" style="line-height:1.4;text-decoration-color:#000000" xml:space="preserve"><tspan x="140.68382" y="396.53903" fill="#ffffff" font-family="'DejaVu Sans'" font-weight="normal" stroke-width=".055978">LAN3</tspan></text><text transform="scale(.99961 1.0004)" x="160.36136" y="396.57675" text-align="center" style="line-height:1.4;text-decoration-color:#000000" xml:space="preserve"><tspan x="160.34137" y="396.57675" fill="#ffffff" font-family="'DejaVu Sans'" font-weight="normal" stroke-width=".055978">LAN4</tspan></text><text transform="scale(.99961 1.0004)" x="82.041611" y="419.20969" text-align="center" style="line-height:1.4;text-decoration-color:#000000" xml:space="preserve"><tspan x="82.021614" y="419.20969" fill="#ffffff" font-family="'DejaVu Sans'" font-weight="normal" stroke-width=".055978">DP</tspan></text></g></svg>
