<svg width="70.38" height="10" version="1.1" viewBox="0 0 70.379998 9.9999998" xmlns="http://www.w3.org/2000/svg"><path d="m1.2398 9.0801h6.7059v0.9179h-6.7059zm11.881 0h5.2524v0.9179h-5.2524zm5.8133 0h5.7623v0.9179h-5.7623zm6.2289 0 6.6216 0.026458v0.89315l-6.6216-5.669e-4zm10.267 0.026458h6.6295v0.89315h-6.6295zm12.264 0 8.1593 7.56e-5c-0.51711 0.4959-1.1298 0.74634-1.8103 0.89054l-4.5895-0.00756c-0.68324-0.081263-1.2254-0.47269-1.7593-0.88457zm10.632 7.56e-5h5.8389v0.89228h-5.8389zm7.1541 0h3.3253v0.86688l-2.8881 0.026458zm-63.199-1.5806c0.2317-0.094493 0.35023-0.29255 0.49655-0.48445h3.4363c0.1315 0.24493 0.32041 0.35643 0.55462 0.48445l1.1729 0.051026v1.1984h-6.706v-1.1984c0.34853-0.015119 0.69698-0.034017 1.0454-0.051026zm10.836 0.051026c0.66782 0.030238 1.2406-0.07446 1.6828-0.53551h2.8087c0.22966 0.30956 0.45207 0.45417 0.76094 0.53551v1.1983h-5.2524zm5.8134 0c0.38632 0.038175 0.58269-0.21771 0.74696-0.53555h3.3071c0.44533 0.5569 1.0874 0.50013 1.7083 0.53555v1.1982h-5.7623zm7.2667-0.051026c0.29225-0.077106 0.49647-0.23321 0.63741-0.48448l3.2891 3.78e-5c0.22924 0.21355 0.44864 0.37684 0.72932 0.50996l0.92796 0.026458v1.1984h-6.6216v-1.1664zm9.2302 0.051026 0.50997-0.026458c0.52096 0.034018 0.88459-0.11982 1.1729-0.50996h3.3719c0.26129 0.43576 0.57484 0.48547 1.0646 0.50996l0.50994 0.026458 0.02873 1.1984h-6.6584zm11.547-0.51 3.5728-0.026458c0.16132 0.26307 0.38494 0.38375 0.65277 0.5109h1.1574c0.25672-0.1149 0.41357-0.30162 0.58967-0.5109h3.5919c6e-3 0.6218-0.15281 1.1923-0.39642 1.7352h-8.7429c-0.27913-0.6156-0.38724-1.1004-0.425-1.7083zm11.35 0.35681 0.96891-0.055184c0.18581-0.075972 0.32078-0.17802 0.44594-0.32884h3.1942c0.09241 0.17954 0.31523 0.24908 0.4905 0.32884 0.19356 5.669e-4 0.54587 0.054428 0.73944 0.055184v1.3515h-5.8389zm5.7472-0.38383h4.7322v1.7352h-3.5459zm-61.296-1.9876h8.6568c-0.40612 0.76789-1.3063 1.3226-2.0561 1.53h-3.1645v0.2041h-3.4363zm12.022 0h8.1846v1.7355h-3.3071v-0.71558h-2.0688v0.71558h-2.8087zm12.034-3.78e-5h3.2891v1.7338l-3.2891-3.78e-5zm10.275 3.78e-5h3.2891v1.7338h-3.2891zm9.8644 0h3.5728v1.7338h-3.5728zm5.9727 0h3.5919v1.7338h-3.5919zm6.983 0h8.873v1.7338h-4.9719l-1.0709-1.5303h-0.09472v1.3514l0.08017 0.17878h-2.8156c0-0.57875-3.4e-5 -1.1551-3.4e-5 -1.7338zm-59.918-2.0398h2.3458v1.7338h-2.3458zm2.7658 0h3.4363v1.4023h1.4556c0.099104-0.11112 0.19828-0.22225 0.29739-0.33299v-1.0707l3.5951 2.267e-4c0.03666 0.62509 0.04003 1.1312-0.03288 1.737l-8.7513-2.268e-4zm9.2019-0.00125h2.2596v1.737h-2.2596zm2.8205 0h2.8087c0.0098 0.29746-0.0098 0.62222 0 0.91976h2.0688c0.0098-0.29746-0.0098-0.59519 0-0.89262h3.3071v1.7099h-8.1846zm8.7628 0.026458h2.7875v1.6828h-2.7875zm3.272-0.12889 3.2891 0.026458v1.7848h-3.2891zm3.8246 0.10319h2.8047v1.7338h-2.8047zm3.1616 0h2.8047v1.7338h-2.8047zm3.2891-0.07635h3.2636l0.02797 1.8103-3.2914 3.78e-5zm3.7991 0.075216h2.8047v1.7351h-2.8047zm3.2381 0h2.3202v1.7351h-2.3202zm2.827 0h3.5728v1.7351h-3.5728zm5.9727-2.995e-4h3.5919v1.7375h-3.5919zm4.1526 0h2.3196v1.7375h-2.3196zm2.8304 0 5.1319 0.00181c0.26964 0.38995 0.53926 0.78233 0.80888 1.1722h0.12749v-1.1728h2.8047v1.7363h-8.873zm-59.918-0.82674c-0.061798-0.46929 0.13286-0.78822 0.33148-1.1857l10.892-0.026458c0.31311 0.54749 0.36523 1.171 0.32608 1.7868l-3.5951-0.026458c-0.10152-0.085422-0.26326-0.14363-0.36478-0.22905h-4.8111l-0.43345 0.22905h-2.3458zm11.968-0.59285 0.29633-0.61882h10.341c0.21684 0.15648 0.27486 0.44816 0.36796 0.68889v1.0979h-3.3071c-0.12333-0.085422-0.24666-0.17047-0.37-0.25626h-4.6527c-0.101 0.085044-0.20199 0.17084-0.30302 0.25626h-2.3723zm11.583-0.083154c0.03553-0.16026 0.05681-0.33488 0.28881-0.51h9.5867v1.7338h-2.8213c-0.095741-0.12208-0.22554-0.15761-0.35915-0.22905h-3.6095c-0.07983 0.085044-0.15969 0.16971-0.23956 0.25475h-2.8462c0.01134-0.41645-0.01134-0.83297 0-1.2494zm10.538-0.51 9.6126-0.026458v1.7598l-2.8047 0.026458-0.39425-0.25626h-3.5756l-0.30302 0.25438h-2.8154c-0.0392-0.73546 0.04173-1.2097 0.28046-1.7593zm10.046 0.30616c0.05144-0.10205 0.10288-0.2041 0.15436-0.30616 3.9055-0.007559 7.8112-0.018899 11.716-0.026458 0.43497 0.47802 0.55185 1.2117 0.52089 1.7597h-3.5919c-0.10606-0.23472-0.28983-0.20977-0.50307-0.22905h-5.5225c-0.22852 0.077862-0.33027 0.037797-0.45623 0.22905h-2.3179zm13.176-0.33186h13.06v1.3773h-1.1728c-0.13599 0.13569-0.27195 0.27214-0.40796 0.40791h-2.8399c-0.17451-0.24379-0.44648-0.3799-0.7042-0.51608h-5.3034c-0.38944 0.18521-0.38586 0.28499-0.53638 0.51601h-2.3196c0.0064-0.66772 0.05038-1.3766 0.22395-1.7851zm-55.353-0.96874 7.7702-0.0036285c0.50953 0.11566 0.95084 0.33035 1.3014 0.71792l-10.487-3.779e-5c0.35518-0.4327 0.89514-0.57818 1.4161-0.71388zm11.834-0.0036285h7.0179c0.65325 0.075972 1.2116 0.39233 1.5744 0.71792h-9.8481c0.28231-0.39551 0.88332-0.58238 1.2554-0.71792zm11.622 0.0036285h8.0358v0.71391l-9.4596-0.003629c0.38876-0.40874 0.89182-0.57176 1.4238-0.71028zm10.252 0 8.034-0.002419v0.71569l-9.4006 6.4255e-4c0.36765-0.45205 0.86971-0.57603 1.3669-0.71391zm10.225-0.002419h8.8501c0.44787 0.11377 0.74179 0.41278 1.0709 0.71569h-11.295c0.31523-0.39116 0.90862-0.59285 1.3745-0.71569zm12.98 0h11.499v0.71633h-12.87c0.34327-0.43671 0.85502-0.57917 1.3705-0.71633z" stroke-width=".050994"/></svg>
