<svg width="208" height="34" version="1.1" viewBox="51 381 208 34" xmlns="http://www.w3.org/2000/svg"><path d="m55.017 414.28v-27.755h200.77v27.755" fill="#333" stroke="#4d4d4d" stroke-linejoin="round" stroke-width="1.332"/><g transform="translate(10.765)"><rect transform="scale(-1)" x="-98.018" y="-408.17" width="14.518" height="13.092" fill="#1a1a1a" stroke="#000" stroke-width=".5"/><polygon transform="matrix(-2.5924 0 0 -2.9754 261.53 1590.6)" points="68.272 398.79 66.872 398.79 66.872 398.19 66.472 398.19 66.472 397.79 65.272 397.79 65.272 398.19 64.872 398.19 64.872 398.79 63.472 398.79 63.472 401.39 68.272 401.39" stroke="#4d4d4d" stroke-width=".2"/></g><g transform="matrix(2.5012 0 0 2.5012 -279.84 -592.74)" fill="#1a1a1a" stroke="#000"><rect x="140.27" y="396.39" width="2.8" height="3.8" fill="#1a1a1a" stroke="#000" stroke-width=".2"/></g><g transform="matrix(2.5012 0 0 2.5012 -279.84 -592.74)"><circle cx="141.67" cy="398.19" r="1"/><circle cx="141.67" cy="398.19" r="1" fill="none" stroke="#000" stroke-width=".2"/></g><circle cx="74.487" cy="403.19" r=".69861" fill="#ebebeb" fill-rule="evenodd" stroke-width="1.9925"/><g transform="matrix(1.9925 0 0 1.9925 -70.596 -373.6)" fill="#fff" stroke-width=".0070102px" aria-label="CONSOLE"><path d="m84.153 393.97v0.13124q-0.06285-0.0585-0.13432-0.0875-0.07085-0.029-0.15095-0.029-0.15773 0-0.24152 0.0967-0.08379 0.0961-0.08379 0.2785 0 0.18175 0.08379 0.27849 0.08379 0.0961 0.24152 0.0961 0.0801 0 0.15095-0.029 0.07147-0.029 0.13432-0.0875v0.13q-0.06531 0.0444-0.13863 0.0665-0.0727 0.0222-0.15403 0.0222-0.20887 0-0.32902-0.12754-0.12014-0.12815-0.12014-0.34934 0-0.22181 0.12014-0.34935 0.12015-0.12816 0.32902-0.12816 0.08256 0 0.15526 0.0222 0.07332 0.0216 0.1374 0.0653z"/><path d="m84.717 393.98q-0.13555 0-0.21565 0.10104-0.07948 0.10105-0.07948 0.27542 0 0.17375 0.07948 0.27479 0.0801 0.10105 0.21565 0.10105t0.21441-0.10105q0.07948-0.10104 0.07948-0.27479 0-0.17437-0.07948-0.27542-0.07886-0.10104-0.21441-0.10104zm0-0.10105q0.19346 0 0.3093 0.13001 0.11583 0.12939 0.11583 0.3475 0 0.21749-0.11583 0.34749-0.11583 0.12939-0.3093 0.12939-0.19408 0-0.31053-0.12939-0.11583-0.12938-0.11583-0.34749t0.11583-0.3475q0.11645-0.13001 0.31053-0.13001z"/><path d="m85.334 393.9h0.16759l0.40788 0.76955v-0.76955h0.12076v0.91988h-0.16759l-0.40788-0.76954v0.76954h-0.12076z"/><path d="m86.827 393.93v0.12138q-0.07086-0.0339-0.1337-0.0505-0.06285-0.0166-0.12138-0.0166-0.10166 0-0.15711 0.0394-0.05484 0.0394-0.05484 0.11214 0 0.061 0.03635 0.0924 0.03697 0.0308 0.13925 0.0499l0.07517 0.0154q0.13925 0.0265 0.20517 0.0936 0.06654 0.0665 0.06654 0.17868 0 0.1337-0.08996 0.20271-0.08934 0.069-0.26247 0.069-0.06531 0-0.13925-0.0148-0.07332-0.0148-0.15218-0.0437v-0.12816q0.07578 0.0425 0.14849 0.0641 0.0727 0.0216 0.14294 0.0216 0.10659 0 0.16451-0.0419t0.05792-0.11953q0-0.0678-0.0419-0.10597-0.04128-0.0382-0.13616-0.0573l-0.07578-0.0148q-0.13925-0.0277-0.20148-0.0869-0.06223-0.0591-0.06223-0.1645 0-0.122 0.08564-0.19224 0.08626-0.0702 0.23721-0.0702 0.06469 0 0.13185 0.0117t0.1374 0.0351z"/><path d="m87.447 393.98q-0.13555 0-0.21565 0.10104-0.07948 0.10105-0.07948 0.27542 0 0.17375 0.07948 0.27479 0.0801 0.10105 0.21565 0.10105t0.21441-0.10105q0.07948-0.10104 0.07948-0.27479 0-0.17437-0.07948-0.27542-0.07887-0.10104-0.21441-0.10104zm0-0.10105q0.19346 0 0.3093 0.13001 0.11583 0.12939 0.11583 0.3475 0 0.21749-0.11583 0.34749-0.11583 0.12939-0.3093 0.12939-0.19408 0-0.31053-0.12939-0.11583-0.12938-0.11583-0.34749t0.11583-0.3475q0.11645-0.13001 0.31053-0.13001z"/><path d="m88.064 393.9h0.12446v0.81514h0.44793v0.10474h-0.57239z"/><path d="m88.764 393.9h0.58163v0.10474h-0.45717v0.27233h0.43807v0.10474h-0.43807v0.33333h0.46826v0.10474h-0.59272z"/></g><g transform="matrix(-2.054 0 0 -2.054 559.8 1194.7)"><g transform="translate(.6581 -19.12)"><g transform="matrix(1.0029 0 0 .99453 91.221 226.26)"><path d="m64.141 183.87h8.4v-7.0242h-8.4z" fill="#ebebeb" stroke="#000" stroke-width=".46956"/><g transform="matrix(.0080517 0 0 .0080487 51.527 212.79)"><path d="m2609.9-3593.3v-872.71h-1043.3v872.71z" fill="none" stroke="#000" stroke-linecap="square" stroke-width=".67568"/></g><path d="m64.912 178.62h1.7532l-0.0026-1.0712 0.63806-5.7e-4v-0.40106h2.0566l-4.83e-4 0.40211h0.66414v1.0712h1.7452v4.6119l-6.8535 0.015z"/><path d="m72.539 183.87 2e-3 -7.0242-2.8056-9.6e-4v0.67597l2.2553-1e-3v0.87506l-0.22259 7e-3 -5.64e-4 4.8323c-2.3858 9.4e-4 -4.8121 0.0124-6.8546 0.0128v4e-5l-4.83e-4 -4.8452-0.22259-7e-3v-0.87506l2.242 1e-3v-0.67597l-2.7924 9.6e-4c4.08e-4 2.3412 0.0022 4.6824 0.0022 7.0237 2.7992 3.3e-4 5.5983 6.8e-4 8.3975 1e-3z" fill="#ebebeb"/></g></g></g><path d="m165.24 394.11h2.9739v0.40708h-2.9739zm5.2693 0h2.3293v0.40708h-2.3293zm2.5781 0h2.5555v0.40708h-2.5555zm2.7624 0 2.9366 0.0113v0.39611l-2.9366-2.9e-4zm4.5535 0.0113h2.94v0.39611h-2.94zm5.4388 0 3.6184 3e-5c-0.22934 0.21993-0.50103 0.33101-0.80283 0.39495l-2.0354-3e-3c-0.30301-0.036-0.54343-0.20964-0.7802-0.39231zm4.7152 3e-5h2.5895v0.39572h-2.5895zm3.1727 0h1.4747v0.38446l-1.2808 0.0121zm-28.027-0.70099c0.10273-0.0418 0.15531-0.12975 0.22022-0.21484h1.524c0.0583 0.10868 0.14208 0.15807 0.24596 0.21484l0.52014 0.0226v0.53144h-2.9739v-0.53144c0.15455-7e-3 0.3091-0.0149 0.46361-0.0226zm4.8057 0.0226c0.29616 0.0122 0.55018-0.0329 0.74631-0.23747h1.2456c0.10184 0.13723 0.20049 0.2014 0.33747 0.23747v0.53144h-2.3293zm2.5781 0c0.17134 0.0169 0.25842-0.0966 0.33126-0.23749h1.4666c0.1975 0.24698 0.48227 0.2218 0.75762 0.23749v0.53139h-2.5555zm3.2227-0.0226c0.12961-0.0342 0.22017-0.10344 0.28268-0.21485l1.4587 1e-5c0.10166 0.0946 0.19896 0.16708 0.32345 0.22614l0.41154 0.0113v0.53145l-2.9366 1e-5v-0.51729zm4.0933 0.0226 0.22617-0.0113c0.23103 0.0148 0.3923-0.0532 0.52014-0.22614h1.4954c0.11587 0.19325 0.25494 0.21529 0.47212 0.22614l0.22615 0.0113 0.0128 0.53144h-2.9527zm5.1212-0.22616 1.5845-0.0119c0.0715 0.11667 0.1707 0.17019 0.28949 0.22656h0.51333c0.11385-0.0508 0.18341-0.13374 0.26151-0.22656h1.5929c3e-3 0.27573-0.0678 0.52876-0.17581 0.76949h-3.8774c-0.1238-0.27299-0.17173-0.48803-0.18849-0.75761zm5.0333 0.1583 0.42969-0.0243c0.0824-0.0338 0.14226-0.079 0.19777-0.14587h1.4165c0.041 0.0796 0.13979 0.11056 0.21752 0.14587 0.0858 2.8e-4 0.24209 0.024 0.32793 0.0243v0.59935h-2.5895zm2.5488-0.17021h2.0986v0.7695h-1.5726zm-27.182-0.88148h3.8392c-0.18011 0.34055-0.57931 0.58651-0.91183 0.67855h-1.4034v0.0905h-1.524zm5.3318 0h3.6297v0.76964h-1.4666v-0.31732h-0.91746v0.31732h-1.2456zm5.3373-2e-5h1.4587v0.76894l-1.4587-1e-5zm4.5569 2e-5h1.4587v0.76893h-1.4587zm4.3746 0h1.5845v0.76895h-1.5845zm2.6488 0h1.5929v0.76893h-1.5929zm3.0968 0h3.9351v0.76893h-2.205l-0.47492-0.67866h-0.042v0.5993l0.0355 0.0794h-1.2487c0-0.25667-2e-5 -0.51227-2e-5 -0.76894zm-26.573-0.90463h1.0403v0.76893h-1.0403zm1.2266 0h1.524v0.62192h0.64553c0.0439-0.0493 0.0879-0.0985 0.13189-0.14771v-0.47483l1.5944 6e-5c0.0163 0.27724 0.0178 0.50167-0.0145 0.77035l-3.8812-6e-5zm4.0809-4.4e-4h1.0021v0.77036h-1.0021zm1.2509 0h1.2456c5e-3 0.13192-5e-3 0.27596 0 0.40788h0.91746c5e-3 -0.13192-5e-3 -0.26394 0-0.39586h1.4666v0.75833h-3.6297zm3.8861 0.012h1.2362v0.74631h-1.2362zm1.451-0.0571 1.4587 0.0119v0.79152h-1.4587zm1.6961 0.0458h1.2439v0.76894h-1.2439zm1.4021 0h1.2438v0.76894h-1.2438zm1.4586-0.0339h1.4473l0.0123 0.80283-1.4597 1e-5zm1.6848 0.0333h1.2439v0.7695h-1.2439zm1.4361 0h1.029v0.7695h-1.029zm1.2538 0h1.5844v0.7695h-1.5844zm2.6488-1.4e-4h1.5929v0.77051h-1.5929zm1.8416 0h1.0287v0.77051h-1.0287zm1.2552 0 2.2759 5.1e-4c0.11958 0.17294 0.23916 0.34695 0.35873 0.51988h0.0565v-0.52014h1.2439v0.77001h-3.9351zm-26.573-0.36663c-0.0274-0.2081 0.0589-0.34957 0.14699-0.52582l4.8308-0.0115c0.13886 0.24279 0.16197 0.51932 0.14459 0.79243l-1.5944-0.012c-0.045-0.0379-0.11676-0.0636-0.16179-0.10154h-2.1337l-0.19224 0.10154h-1.0403zm5.3074-0.26289 0.1314-0.27444h4.586c0.0962 0.0694 0.1219 0.19875 0.16319 0.30552v0.48689h-1.4666c-0.0547-0.0379-0.10939-0.0756-0.16409-0.11351h-2.0634c-0.0448 0.0377-0.0896 0.0758-0.13439 0.11351h-1.0521zm5.1369-0.0368c0.0157-0.071 0.0252-0.14838 0.12807-0.22615h4.2517v0.76894h-1.2512c-0.0425-0.0541-0.10002-0.0698-0.15928-0.10155h-1.6007c-0.0354 0.0377-0.0708 0.0752-0.10623 0.11288h-1.2623c5e-3 -0.1847-5e-3 -0.3694 0-0.55409zm4.6737-0.22615 4.263-0.0115v0.78046l-1.2439 0.012-0.17483-0.11356h-1.5857l-0.13438 0.11284h-1.2486c-0.0174-0.32618 0.0185-0.53647 0.12436-0.7802zm4.4552 0.13571c0.0228-0.0452 0.0457-0.0905 0.0685-0.1357 1.732-3e-3 3.464-8e-3 5.1958-0.0115 0.1929 0.21198 0.24474 0.53734 0.23101 0.78041h-1.5929c-0.047-0.10406-0.12852-0.093-0.2231-0.10155h-2.4492c-0.10135 0.0346-0.14646 0.0163-0.20234 0.10155h-1.0279zm5.8433-0.14718h5.792v0.61076h-0.52013l-0.18092 0.18092h-1.2594c-0.0774-0.10811-0.19801-0.1685-0.31232-0.22889h-2.352c-0.17271 0.082-0.17112 0.12638-0.23788 0.22887h-1.0287c3e-3 -0.29616 0.0223-0.61052 0.0993-0.79168zm-24.548-0.42961 3.4459-2e-3c0.22597 0.0513 0.42168 0.14659 0.57717 0.31837h-4.651c0.15753-0.19191 0.39697-0.25644 0.62802-0.31661zm5.2485-2e-3h3.1124c0.2897 0.0337 0.53734 0.174 0.69826 0.31837h-4.3674c0.12519-0.17539 0.39173-0.25826 0.55672-0.31837zm5.1547 2e-3h3.5637v0.31662l-4.1951-2e-3c0.17242-0.18127 0.3955-0.25357 0.63142-0.31502zm4.5465 0 3.5629-5e-4v0.3174l-4.1691 2.8e-4c0.16305-0.20047 0.38572-0.25546 0.6062-0.31661zm4.5344-5e-4h3.9248c0.19862 0.0505 0.32896 0.18306 0.47491 0.3174h-5.0093c0.1398-0.17349 0.40297-0.26294 0.60955-0.3174zm5.7565 0h5.0998v0.31768h-5.7073c0.15223-0.19367 0.37918-0.25683 0.60777-0.31768z" fill="#fff" stroke-width=".022615"/><g transform="matrix(.64243 0 0 .64243 49.821 143.31)" fill="#fff" stroke-width="1px" aria-label="ETH 0/0"><path d="m150.88 415.59h2.4583v0.4427h-1.9323v1.151h1.8516v0.44271h-1.8516v1.4088h1.9792v0.44271h-2.5052z"/><path d="m153.32 415.59h3.2891v0.4427h-1.3802v3.4453h-0.52865v-3.4453h-1.3802z"/><path d="m156.72 415.59h0.52604v1.5938h1.9115v-1.5938h0.52604v3.888h-0.52604v-1.8516h-1.9115v1.8516h-0.52604z"/><path d="m162.8 415.94q-0.40625 0-0.61198 0.40104-0.20312 0.39844-0.20312 1.2005 0 0.79948 0.20312 1.2005 0.20573 0.39844 0.61198 0.39844 0.40885 0 0.61198-0.39844 0.20573-0.40104 0.20573-1.2005 0-0.80208-0.20573-1.2005-0.20313-0.40104-0.61198-0.40104zm0-0.41667q0.65365 0 0.9974 0.51823 0.34635 0.51563 0.34635 1.5 0 0.98177-0.34635 1.5-0.34375 0.51563-0.9974 0.51563t-1-0.51563q-0.34375-0.51823-0.34375-1.5 0-0.98437 0.34375-1.5 0.34635-0.51823 1-0.51823z"/><path d="m165.45 415.59h0.44271l-1.3542 4.3828h-0.44271z"/><path d="m167.2 415.94q-0.40625 0-0.61198 0.40104-0.20313 0.39844-0.20313 1.2005 0 0.79948 0.20313 1.2005 0.20573 0.39844 0.61198 0.39844 0.40885 0 0.61198-0.39844 0.20572-0.40104 0.20572-1.2005 0-0.80208-0.20572-1.2005-0.20313-0.40104-0.61198-0.40104zm0-0.41667q0.65364 0 0.99739 0.51823 0.34636 0.51563 0.34636 1.5 0 0.98177-0.34636 1.5-0.34375 0.51563-0.99739 0.51563-0.65365 0-1-0.51563-0.34375-0.51823-0.34375-1.5 0-0.98437 0.34375-1.5 0.34635-0.51823 1-0.51823z"/></g><path d="m120.31 410.43v-15.545h-5.2932v15.545z" fill="none" stroke="#535353" stroke-linecap="round" stroke-linejoin="round" stroke-miterlimit="4.4615" stroke-width=".068118"/><path d="m117.22 409.05v-12.825h-0.90532v12.825z" fill="none" stroke="#000" stroke-linecap="round" stroke-linejoin="round" stroke-miterlimit="4.4615" stroke-width=".068118"/><g transform="translate(0 -2.9958)"><rect transform="rotate(90)" x="393.94" y="-121.14" width="17.442" height="6.7882" rx=".026852" ry=".0061657" fill="#fff" fill-rule="evenodd" stroke="#000" stroke-width=".1536"/><path d="m120.31 410.43v-15.545h-5.2932v15.545z"/><path d="m115.83 395.73h1.8106v13.74h-1.8106z" fill="#666" stroke="#333" stroke-linecap="round" stroke-linejoin="round" stroke-width=".05"/><path d="m117.2 409.04v-12.818h-0.88317v12.818z" fill="#f9f9f9" stroke="#808080" stroke-width=".032"/></g><path d="m234.94 387.83c2.2725-2.3e-4 4.2307 1.5895 4.6827 3.799l2.7231 15.951c0.37201 1.5859 1.807 3.6743 4.6595 3.6743h12l-1.9548-26.229c-0.1974-2.2193-1.8088-4.0205-4.0546-4.0205h-195.98c-2.2458 0-3.8572 1.8012-4.0546 4.0205l-1.9548 26.229h12c2.8525 0 4.2875-2.0884 4.6595-3.6743l2.7231-15.951c0.45196-2.2094 2.4101-3.7992 4.6827-3.799z"/><g transform="matrix(.65586 0 0 .65586 80.588 141.61)"><g fill="#fff" stroke-width="1px"><path d="m225.39 411.66q0.16927 0.0573 0.32813 0.24479 0.16145 0.1875 0.32291 0.51563l0.53386 1.0625h-0.56511l-0.49739-0.9974q-0.19271-0.39062-0.375-0.51823-0.17969-0.1276-0.49219-0.1276h-0.57292v1.6432h-0.52604v-3.888h1.1875q0.66667 0 0.99479 0.27864 0.32813 0.27865 0.32813 0.84115 0 0.36719-0.17188 0.60937-0.16927 0.24219-0.49479 0.33594zm-1.3177-1.6328v1.3802h0.66146q0.38021 0 0.57292-0.17448 0.19531-0.17709 0.19531-0.51823 0-0.34115-0.19531-0.51302-0.19271-0.17448-0.57292-0.17448z"/><path d="m226.86 409.59h0.52605v3.888h-0.52605z"/><path d="m230.5 409.94q-0.40625 0-0.61198 0.40104-0.20312 0.39844-0.20312 1.2005 0 0.79948 0.20312 1.2005 0.20573 0.39844 0.61198 0.39844 0.40886 0 0.61198-0.39844 0.20573-0.40104 0.20573-1.2005 0-0.80208-0.20573-1.2005-0.20312-0.40104-0.61198-0.40104zm0-0.41667q0.65365 0 0.9974 0.51823 0.34635 0.51563 0.34635 1.5 0 0.98177-0.34635 1.5-0.34375 0.51563-0.9974 0.51563-0.65364 0-1-0.51563-0.34375-0.51823-0.34375-1.5 0-0.98437 0.34375-1.5 0.34636-0.51823 1-0.51823z"/><path d="m233.15 409.59h0.44271l-1.3542 4.3828h-0.44271z"/><path d="m234.9 409.94q-0.40625 0-0.61198 0.40104-0.20312 0.39844-0.20312 1.2005 0 0.79948 0.20312 1.2005 0.20573 0.39844 0.61198 0.39844 0.40885 0 0.61198-0.39844 0.20573-0.40104 0.20573-1.2005 0-0.80208-0.20573-1.2005-0.20313-0.40104-0.61198-0.40104zm0-0.41667q0.65365 0 0.9974 0.51823 0.34635 0.51563 0.34635 1.5 0 0.98177-0.34635 1.5-0.34375 0.51563-0.9974 0.51563t-1-0.51563q-0.34375-0.51823-0.34375-1.5 0-0.98437 0.34375-1.5 0.34635-0.51823 1-0.51823z"/></g><text x="219.78862" y="413.48672" fill="#ffffff" font-family="sans-serif" font-size="5.3311px" letter-spacing="0px" stroke-width=".13328" word-spacing="0px" style="line-height:1.25" xml:space="preserve"><tspan x="219.78862" y="413.48672" fill="#ffffff" stroke-width=".13328">P</tspan></text></g><g transform="translate(61.666 1.8299e-5)"><rect transform="scale(-1)" x="-98.018" y="-408.17" width="14.518" height="13.092" fill="#1a1a1a" stroke="#000" stroke-width=".5"/><polygon transform="matrix(-2.5924 0 0 -2.9754 261.53 1590.6)" points="64.872 398.19 64.872 398.79 63.472 398.79 63.472 401.39 68.272 401.39 68.272 398.79 66.872 398.79 66.872 398.19 66.472 398.19 66.472 397.79 65.272 397.79 65.272 398.19" stroke="#4d4d4d" stroke-width=".2"/></g><g transform="matrix(.61114 0 0 .61114 64.313 154.72)" fill="#fff"><path d="m171.38 402.76c0-2.5467-4.4933-2.2533-4.4933-4.04 0.0667-1.1067 0.98667-1.68 2.3467-1.6933 0.74666 0 1.7067 0.24 2.1467 0.6l0.54667-0.92c-0.66667-0.41333-1.48-0.65333-2.5867-0.65333-1.8133 0-3.4933 0.81333-3.5733 2.84 0 2.5467 4.4933 2.2533 4.4933 4.04-0.04 0.94666-1.0267 1.6533-2.4933 1.6933-1.0533 0-2.04-0.4-2.5067-0.73333l-0.56 0.92c0.66667 0.4 1.4933 0.78666 2.9067 0.78666 2.0667-0.0533 3.72-1.0533 3.7733-2.84z" stroke-width="1px"/><path d="m173.45 396.24-1.3067 9.2267h1.1067l1.1067-7.8267 3.8 7.8267h1.5333l1.3067-9.2267h-1.1067l-1.1067 7.8267-3.8133-7.8267z" stroke-width="1px"/><g><path d="m189.53 396.12h1.6009l-1.2038 6.1327h1.3425l-0.208 1.0589h-1.3425l-0.42229 2.2186h-1.2669l0.42859-2.2186h-4.2481l0.24581-1.2291zm0.11345 1.1093-4.1977 5.0234h3.2145z"/><path d="m193.03 404.46h2.08l1.4055-7.242-2.351 0.4538 0.2206-1.0967 2.3384-0.45381h1.2795l-1.6261 8.3387h2.0736l-0.2017 1.0715h-5.4268z"/><path d="m202.07 396.12h6.4415l-0.11345 0.54205-5.3826 8.8681h-1.3992l5.0864-8.3387h-4.8406z"/><path d="m209.47 404.46h2.0799l1.4055-7.242-2.351 0.4538 0.2206-1.0967 2.3384-0.45381h1.2795l-1.6261 8.3387h2.0736l-0.20169 1.0715h-5.4268z"/></g></g><rect x="60" y="414.21" width="8" height=".79182" ry="0"/><rect x="242" y="414.21" width="8" height=".79182" ry="0"/></svg>
