<svg width="208" height="34" version="1.1" viewBox="0 0 208 34" xmlns="http://www.w3.org/2000/svg"><path d="m3.9045 33.117v-27.757h200.77v27.757" fill="#ccc" stroke="#4d4d4d" stroke-linejoin="round" stroke-width="1.3321"/><g transform="matrix(1 0 0 1.0001 -40.242 -381.04)"><rect transform="scale(-1)" x="-98.018" y="-408.17" width="14.518" height="13.092" fill="#1a1a1a" stroke="#000" stroke-width=".5"/><polygon transform="matrix(-2.5924,0,0,-2.9754,261.53,1590.6)" points="64.872 398.19 64.872 398.79 63.472 398.79 63.472 401.39 68.272 401.39 68.272 398.79 66.872 398.79 66.872 398.19 66.472 398.19 66.472 397.79 65.272 397.79 65.272 398.19" stroke="#4d4d4d" stroke-width=".2"/></g><g transform="matrix(2.5012 0 0 2.5014 -330.85 -973.83)" fill="#1a1a1a" stroke="#000"><rect x="140.27" y="396.39" width="2.8" height="3.8" fill="#1a1a1a" stroke="#000" stroke-width=".2"/></g><g transform="matrix(2.5012 0 0 2.5014 -330.85 -973.83)"><circle cx="141.67" cy="398.19" r="1"/><circle cx="141.67" cy="398.19" r="1" fill="none" stroke="#000" stroke-width=".2"/></g><ellipse cx="23.481" cy="22.187" rx=".69861" ry=".69867" fill="#ebebeb" fill-rule="evenodd" stroke-width="1.9926"/><g transform="matrix(1.9925,0,0,1.9927,-121.6,-754.67)" fill="#fff" stroke-width=".0070102px" aria-label="CONSOLE"><path d="m84.153 393.97v0.13124q-0.06285-0.0585-0.13432-0.0875-0.07085-0.029-0.15095-0.029-0.15773 0-0.24152 0.0967-0.08379 0.0961-0.08379 0.2785 0 0.18175 0.08379 0.27849 0.08379 0.0961 0.24152 0.0961 0.0801 0 0.15095-0.029 0.07147-0.029 0.13432-0.0875v0.13q-0.06531 0.0444-0.13863 0.0665-0.0727 0.0222-0.15403 0.0222-0.20887 0-0.32902-0.12754-0.12014-0.12815-0.12014-0.34934 0-0.22181 0.12014-0.34935 0.12015-0.12816 0.32902-0.12816 0.08256 0 0.15526 0.0222 0.07332 0.0216 0.1374 0.0653z"/><path d="m84.717 393.98q-0.13555 0-0.21565 0.10104-0.07948 0.10105-0.07948 0.27542 0 0.17375 0.07948 0.27479 0.0801 0.10105 0.21565 0.10105t0.21441-0.10105q0.07948-0.10104 0.07948-0.27479 0-0.17437-0.07948-0.27542-0.07886-0.10104-0.21441-0.10104zm0-0.10105q0.19346 0 0.3093 0.13001 0.11583 0.12939 0.11583 0.3475 0 0.21749-0.11583 0.34749-0.11583 0.12939-0.3093 0.12939-0.19408 0-0.31053-0.12939-0.11583-0.12938-0.11583-0.34749t0.11583-0.3475q0.11645-0.13001 0.31053-0.13001z"/><path d="m85.334 393.9h0.16759l0.40788 0.76955v-0.76955h0.12076v0.91988h-0.16759l-0.40788-0.76954v0.76954h-0.12076z"/><path d="m86.827 393.93v0.12138q-0.07086-0.0339-0.1337-0.0505-0.06285-0.0166-0.12138-0.0166-0.10166 0-0.15711 0.0394-0.05484 0.0394-0.05484 0.11214 0 0.061 0.03635 0.0924 0.03697 0.0308 0.13925 0.0499l0.07517 0.0154q0.13925 0.0265 0.20517 0.0936 0.06654 0.0665 0.06654 0.17868 0 0.1337-0.08996 0.20271-0.08934 0.069-0.26247 0.069-0.06531 0-0.13925-0.0148-0.07332-0.0148-0.15218-0.0437v-0.12816q0.07578 0.0425 0.14849 0.0641 0.0727 0.0216 0.14294 0.0216 0.10659 0 0.16451-0.0419t0.05792-0.11953q0-0.0678-0.0419-0.10597-0.04128-0.0382-0.13616-0.0573l-0.07578-0.0148q-0.13925-0.0277-0.20148-0.0869-0.06223-0.0591-0.06223-0.1645 0-0.122 0.08564-0.19224 0.08626-0.0702 0.23721-0.0702 0.06469 0 0.13185 0.0117t0.1374 0.0351z"/><path d="m87.447 393.98q-0.13555 0-0.21565 0.10104-0.07948 0.10105-0.07948 0.27542 0 0.17375 0.07948 0.27479 0.0801 0.10105 0.21565 0.10105t0.21441-0.10105q0.07948-0.10104 0.07948-0.27479 0-0.17437-0.07948-0.27542-0.07887-0.10104-0.21441-0.10104zm0-0.10105q0.19346 0 0.3093 0.13001 0.11583 0.12939 0.11583 0.3475 0 0.21749-0.11583 0.34749-0.11583 0.12939-0.3093 0.12939-0.19408 0-0.31053-0.12939-0.11583-0.12938-0.11583-0.34749t0.11583-0.3475q0.11645-0.13001 0.31053-0.13001z"/><path d="m88.064 393.9h0.12446v0.81514h0.44793v0.10474h-0.57239z"/><path d="m88.764 393.9h0.58163v0.10474h-0.45717v0.27233h0.43807v0.10474h-0.43807v0.33333h0.46826v0.10474h-0.59272z"/></g><g transform="matrix(.64249 0 0 .64255 -3.1725 -237.74)" fill="#fff" stroke-width="1px" aria-label="ETH 0/0"><path d="m150.88 415.59h2.4583v0.4427h-1.9323v1.151h1.8516v0.44271h-1.8516v1.4088h1.9792v0.44271h-2.5052z"/><path d="m153.32 415.59h3.2891v0.4427h-1.3802v3.4453h-0.52865v-3.4453h-1.3802z"/><path d="m156.72 415.59h0.52604v1.5938h1.9115v-1.5938h0.52604v3.888h-0.52604v-1.8516h-1.9115v1.8516h-0.52604z"/><path d="m162.8 415.94q-0.40625 0-0.61198 0.40104-0.20312 0.39844-0.20312 1.2005 0 0.79948 0.20312 1.2005 0.20573 0.39844 0.61198 0.39844 0.40885 0 0.61198-0.39844 0.20573-0.40104 0.20573-1.2005 0-0.80208-0.20573-1.2005-0.20313-0.40104-0.61198-0.40104zm0-0.41667q0.65365 0 0.9974 0.51823 0.34635 0.51563 0.34635 1.5 0 0.98177-0.34635 1.5-0.34375 0.51563-0.9974 0.51563t-1-0.51563q-0.34375-0.51823-0.34375-1.5 0-0.98437 0.34375-1.5 0.34635-0.51823 1-0.51823z"/><path d="m165.45 415.59h0.44271l-1.3542 4.3828h-0.44271z"/><path d="m167.2 415.94q-0.40625 0-0.61198 0.40104-0.20313 0.39844-0.20313 1.2005 0 0.79948 0.20313 1.2005 0.20573 0.39844 0.61198 0.39844 0.40885 0 0.61198-0.39844 0.20572-0.40104 0.20572-1.2005 0-0.80208-0.20572-1.2005-0.20313-0.40104-0.61198-0.40104zm0-0.41667q0.65364 0 0.99739 0.51823 0.34636 0.51563 0.34636 1.5 0 0.98177-0.34636 1.5-0.34375 0.51563-0.99739 0.51563-0.65365 0-1-0.51563-0.34375-0.51823-0.34375-1.5 0-0.98437 0.34375-1.5 0.34635-0.51823 1-0.51823z"/></g><g transform="matrix(1 0 0 1.0001 -51.007 -384.03)"><rect transform="rotate(90)" x="393.94" y="-121.14" width="17.442" height="6.7882" rx=".026852" ry=".0061657" fill="#fff" fill-rule="evenodd" stroke="#000" stroke-width=".1536"/><path d="m120.31 410.43v-15.545h-5.2932v15.545z"/><path d="m115.83 395.73h1.8106v13.74h-1.8106z" fill="#666" stroke="#333" stroke-linecap="round" stroke-linejoin="round" stroke-width=".05"/><path d="m117.2 409.04v-12.818h-0.88317v12.818z" fill="#f9f9f9" stroke="#808080" stroke-width=".032"/></g><g transform="matrix(-.016591 0 0 -.016442 162.73 -46.231)"><path transform="matrix(-60.274 0 0 -60.821 8235 -5594.8)" d="m98.103-32.908v14.35h64.459v-14.35z" fill="#ebebeb" stroke="#000" stroke-linecap="square" stroke-width=".4"/></g><path d="m140.11 23.57h-3.6126l5e-3 2.1882-1.3148 0.0012v0.81927h-4.2378l1e-3 -0.82142h-1.3685v-2.1882h-3.5961v-9.421l14.122-0.03064z" stroke-width="2.0516"/><path d="m186.61 6.8258c2.2725-2.3e-4 4.2307 1.5896 4.6827 3.7993l0.043 15.952c0.37202 1.586 1.807 3.6746 4.6595 3.6746h12v-26.231c-0.19744-2.2195-3.7636-4.0209-6.0094-4.0209h-195.98c-2.2458 0-5.8085 1.8017-6.0059 4.0212l-0.0035 26.231h12c2.8525 0 4.2875-2.0886 4.6595-3.6746l-0.0031-15.952c0.45196-2.2096 2.4101-3.7995 4.6827-3.7993z"/><g transform="matrix(1 0 0 1.0001 8.6818 -381.04)"><rect transform="scale(-1)" x="-98.018" y="-408.17" width="14.518" height="13.092" fill="#1a1a1a" stroke="#000" stroke-width=".5"/><polygon transform="matrix(-2.5924,0,0,-2.9754,261.53,1590.6)" points="68.272 401.39 68.272 398.79 66.872 398.79 66.872 398.19 66.472 398.19 66.472 397.79 65.272 397.79 65.272 398.19 64.872 398.19 64.872 398.79 63.472 398.79 63.472 401.39" stroke="#4d4d4d" stroke-width=".2"/></g><rect x="8.9936" y="33.208" width="8" height=".79189" ry="0"/><rect x="190.99" y="33.208" width="8" height=".79189" ry="0"/><rect transform="scale(-1)" x="-87.576" y="-27.171" width="14.518" height="13.093" stroke="#000" stroke-width=".50002"/><g fill="#fff"><g transform="matrix(.64591 0 0 .64571 -38.495 -239.08)" stroke-width="1px" aria-label="ETH 0/1"><path d="m175.16 415.59h2.4583v0.4427h-1.9323v1.151h1.8516v0.44271h-1.8516v1.4088h1.9792v0.44271h-2.5052z"/><path d="m177.6 415.59h3.2891v0.4427h-1.3802v3.4453h-0.52865v-3.4453h-1.3802z"/><path d="m181 415.59h0.52605v1.5938h1.9114v-1.5938h0.52605v3.888h-0.52605v-1.8516h-1.9114v1.8516h-0.52605z"/><path d="m187.08 415.94q-0.40625 0-0.61198 0.40104-0.20312 0.39844-0.20312 1.2005 0 0.79948 0.20312 1.2005 0.20573 0.39844 0.61198 0.39844 0.40886 0 0.61198-0.39844 0.20573-0.40104 0.20573-1.2005 0-0.80208-0.20573-1.2005-0.20312-0.40104-0.61198-0.40104zm0-0.41667q0.65365 0 0.9974 0.51823 0.34635 0.51563 0.34635 1.5 0 0.98177-0.34635 1.5-0.34375 0.51563-0.9974 0.51563-0.65364 0-1-0.51563-0.34375-0.51823-0.34375-1.5 0-0.98437 0.34375-1.5 0.34636-0.51823 1-0.51823z"/><path d="m189.73 415.59h0.44271l-1.3542 4.3828h-0.44271z"/><path d="m190.44 419.04h0.85937v-2.9662l-0.9349 0.1875v-0.47916l0.92969-0.1875h0.52604v3.4453h0.85938v0.44271h-2.2396z"/></g><path d="m22.925 11.974h2.9739v0.40712h-2.9739zm5.2693 0h2.3293v0.40712h-2.3293zm2.5781 0h2.5555v0.40712h-2.5555zm2.7624 0 2.9366 0.0113v0.39614l-2.9366-2.9e-4zm4.5535 0.0113h2.94v0.39614h-2.94zm5.4388 0 3.6184 3e-5c-0.22934 0.21995-0.50103 0.33104-0.80284 0.39498l-2.0354-3e-3c-0.30301-0.036-0.54343-0.20966-0.7802-0.39234zm4.7152 3e-5h2.5895v0.39576h-2.5895zm3.1727 0h1.4747v0.38449l-1.2808 0.0121zm-28.027-0.70105c0.10273-0.0418 0.15531-0.12976 0.22022-0.21486h1.524c0.0583 0.10869 0.14208 0.15808 0.24596 0.21486l0.52015 0.0226v0.53149h-2.9739v-0.53149c0.15455-7e-3 0.3091-0.0149 0.46361-0.0226zm4.8057 0.0226c0.29616 0.0122 0.55018-0.0329 0.74631-0.23749h1.2456c0.10184 0.13724 0.20049 0.20142 0.33747 0.23749v0.53149h-2.3293zm2.5781 0c0.17135 0.0169 0.25843-0.09661 0.33127-0.23751h1.4666c0.19751 0.247 0.48228 0.22182 0.75763 0.23751v0.53144h-2.5555zm3.2227-0.0226c0.12961-0.0342 0.22017-0.10345 0.28268-0.21487l1.4587 1e-5c0.10166 0.09461 0.19896 0.16709 0.32345 0.22616l0.41155 0.0113v0.5315l-2.9366 1e-5v-0.51734zm4.0933 0.0226 0.22617-0.0113c0.23103 0.0148 0.3923-0.05321 0.52014-0.22616h1.4954c0.11587 0.19327 0.25494 0.21531 0.47212 0.22616l0.22615 0.0113 0.0128 0.53149h-2.9527zm5.1212-0.22618 1.5845-0.0119c0.0715 0.11668 0.1707 0.1702 0.28949 0.22658h0.51333c0.11385-0.0508 0.18341-0.13375 0.26151-0.22658h1.5929c3e-3 0.27575-0.0678 0.52881-0.17581 0.76956h-3.8774c-0.1238-0.27301-0.17173-0.48807-0.18849-0.75768zm5.0333 0.15831 0.42969-0.0243c0.0824-0.0338 0.14226-0.07901 0.19777-0.14588h1.4165c0.041 0.07961 0.13979 0.11057 0.21752 0.14588 0.0858 2.8e-4 0.24209 0.024 0.32793 0.0243v0.5994h-2.5895zm2.5488-0.17022h2.0986v0.76957h-1.5726zm-27.182-0.88156h3.8392c-0.18012 0.34058-0.57932 0.58656-0.91184 0.67861h-1.4034v0.09051h-1.524zm5.3318 0h3.6297v0.76971h-1.4666v-0.31735h-0.91747v0.31735h-1.2456zm5.3373-2e-5h1.4587v0.76901l-1.4587-1e-5zm4.5569 2e-5h1.4587v0.769h-1.4587zm4.3746 0h1.5845v0.76902h-1.5845zm2.6488 0h1.5929v0.769h-1.5929zm3.0968 0h3.9351v0.769h-2.205l-0.47492-0.67872h-0.042v0.59935l0.0355 0.07941h-1.2487c0-0.25669-2e-5 -0.51232-2e-5 -0.76901zm-26.573-0.90471h1.0403v0.769h-1.0403zm1.2266 0h1.524v0.62197h0.64554c0.0439-0.0493 0.0879-0.09851 0.13189-0.14772v-0.47487l1.5944 6e-5c0.0163 0.27726 0.0178 0.50172-0.0145 0.77042l-3.8812-6e-5zm4.0809-4.41e-4h1.0021v0.77043h-1.0021zm1.2509 0h1.2456c5e-3 0.13193-5e-3 0.27598 0 0.40792h0.91747c5e-3 -0.13193-5e-3 -0.26396 0-0.39589h1.4666v0.7584h-3.6297zm3.8861 0.012h1.2362v0.74638h-1.2362zm1.451-0.0571 1.4587 0.0119v0.79159h-1.4587zm1.6961 0.0458h1.2439v0.76901h-1.2439zm1.4021 0h1.2438v0.76901h-1.2438zm1.4586-0.0339h1.4473l0.0123 0.8029-1.4597 1e-5zm1.6848 0.0333h1.2439v0.76957h-1.2439zm1.4361 0h1.029v0.76957h-1.029zm1.2538 0h1.5844v0.76957h-1.5844zm2.6488-1.4e-4h1.5929v0.77058h-1.5929zm1.8416 0h1.0287v0.77058h-1.0287zm1.2552 0 2.2759 5.11e-4c0.11958 0.17296 0.23916 0.34698 0.35873 0.51992h0.0565v-0.52018h1.2439v0.77008h-3.9351zm-26.573-0.36666c-0.0274-0.20812 0.0589-0.3496 0.14699-0.52587l4.8308-0.0115c0.13887 0.24281 0.16198 0.51937 0.1446 0.7925l-1.5944-0.012c-0.045-0.0379-0.11676-0.06361-0.16179-0.10155h-2.1337l-0.19224 0.10155h-1.0403zm5.3074-0.26291 0.1314-0.27446h4.586c0.0962 0.06941 0.1219 0.19877 0.16319 0.30555v0.48693h-1.4666c-0.0547-0.0379-0.10939-0.07561-0.16409-0.11352h-2.0634c-0.0448 0.0377-0.0896 0.07581-0.13439 0.11352h-1.0521zm5.1369-0.0368c0.0157-0.07101 0.0252-0.14839 0.12807-0.22617h4.2517v0.76901h-1.2512c-0.0425-0.0541-0.10002-0.06981-0.15928-0.10156h-1.6007c-0.0354 0.0377-0.0708 0.07521-0.10623 0.11289h-1.2623c5e-3 -0.18472-5e-3 -0.36943 0-0.55414zm4.6737-0.22617 4.263-0.0115v0.78053l-1.2439 0.012-0.17483-0.11357h-1.5857l-0.13438 0.11285h-1.2486c-0.0174-0.32621 0.0185-0.53652 0.12436-0.78027zm4.4552 0.13572c0.0228-0.0452 0.0457-0.09051 0.0685-0.13571 1.732-3e-3 3.464-8e-3 5.1958-0.0115 0.1929 0.212 0.24474 0.53739 0.23101 0.78048h-1.5929c-0.047-0.10407-0.12852-0.09301-0.2231-0.10156h-2.4492c-0.10135 0.0346-0.14646 0.0163-0.20235 0.10156h-1.0279zm5.8433-0.14719h5.792v0.61082h-0.52014l-0.18092 0.18094h-1.2594c-0.0774-0.10812-0.19801-0.16852-0.31232-0.22891h-2.352c-0.17271 0.08201-0.17112 0.12639-0.23788 0.22889h-1.0287c3e-3 -0.29619 0.0223-0.61057 0.0993-0.79175zm-24.548-0.42965 3.4459-2e-3c0.22597 0.05131 0.42168 0.1466 0.57717 0.3184h-4.651c0.15753-0.19193 0.39697-0.25646 0.62802-0.31664zm5.2485-2e-3h3.1124c0.2897 0.0337 0.53734 0.17402 0.69826 0.3184h-4.3674c0.12519-0.17541 0.39173-0.25828 0.55672-0.3184zm5.1547 2e-3h3.5637v0.31665l-4.1951-2e-3c0.17242-0.18129 0.3955-0.25359 0.63142-0.31505zm4.5465 0 3.5629-5e-4v0.31743l-4.1691 2.8e-4c0.16305-0.20049 0.38573-0.25548 0.60621-0.31664zm4.5344-5e-4h3.9248c0.19862 0.0505 0.32896 0.18308 0.47491 0.31743h-5.0093c0.1398-0.17351 0.40297-0.26296 0.60955-0.31743zm5.7565 0h5.0998v0.31771h-5.7073c0.15223-0.19369 0.37919-0.25685 0.60778-0.31771z" stroke-width=".022616"/><path d="m100.9 11.33c0-1.1081-1.955-0.98047-1.955-1.7579 0.02902-0.48156 0.42929-0.73101 1.021-0.7368 0.32486 0 0.74258 0.10443 0.93402 0.26108l0.23785-0.40032c-0.29006-0.17985-0.64394-0.28428-1.1254-0.28428-0.78896 0-1.5199 0.3539-1.5547 1.2358 0 1.1081 1.955 0.98047 1.955 1.7579-0.0174 0.41192-0.44671 0.7194-1.0848 0.7368-0.45828 0-0.88759-0.17405-1.0906-0.31909l-0.24365 0.40032c0.29006 0.17405 0.64972 0.3423 1.2647 0.3423 0.89921-0.02319 1.6185-0.45832 1.6417-1.2358z" stroke-width=".43511px"/><path d="m101.81 8.4929-0.56853 4.0148h0.48151l0.48152-3.4056 1.6534 3.4056h0.66713l0.56853-4.0148h-0.48152l-0.48151 3.4056-1.6591-3.4056z" stroke-width=".43511px"/><g stroke-width=".43511"><path d="m108.8 8.4407h0.69654l-0.52377 2.6685h0.58411l-0.0905 0.46076h-0.58411l-0.18373 0.96537h-0.55122l0.18648-0.96537h-1.8483l0.10695-0.53482zm0.0494 0.48269-1.8264 2.1858h1.3986z"/><path d="m114.26 8.4407h2.8026l-0.0494 0.23586-2.3419 3.8588h-0.60878l2.213-3.6284h-2.1061z"/><path d="m117.48 12.07h0.90495l0.61152-3.1512-1.0229 0.19746 0.096-0.4772 1.0174-0.19747h0.5567l-0.70751 3.6284h0.90221l-0.0877 0.46624h-2.3612z"/></g><g stroke-width="1px"><g transform="matrix(.64274 0 0 .64255 32.913 -237.74)" aria-label="BRI 0/0"><path d="m220.82 417.63v1.4245h0.84375q0.42448 0 0.62761-0.17448 0.20573-0.17709 0.20573-0.53907 0-0.36458-0.20573-0.53645-0.20313-0.17448-0.62761-0.17448zm0-1.599v1.1719h0.77865q0.38542 0 0.57292-0.14323 0.1901-0.14583 0.1901-0.4427 0-0.29428-0.1901-0.44011-0.1875-0.14583-0.57292-0.14583zm-0.52604-0.43229h1.3438q0.60156 0 0.92708 0.25 0.32553 0.25 0.32553 0.71093 0 0.35677-0.16667 0.56771t-0.48958 0.26302q0.38802 0.0833 0.60156 0.34896 0.21614 0.26302 0.21614 0.65886 0 0.52083-0.35416 0.80468-0.35417 0.28386-1.0078 0.28386h-1.3958z"/><path d="m225.39 417.66q0.16927 0.0573 0.32813 0.24479 0.16145 0.1875 0.32291 0.51563l0.53386 1.0625h-0.56511l-0.49739-0.9974q-0.19271-0.39062-0.375-0.51823-0.17969-0.1276-0.49219-0.1276h-0.57292v1.6432h-0.52604v-3.888h1.1875q0.66667 0 0.99479 0.27864 0.32813 0.27865 0.32813 0.84115 0 0.36719-0.17188 0.60937-0.16927 0.24219-0.49479 0.33594zm-1.3177-1.6328v1.3802h0.66146q0.38021 0 0.57292-0.17448 0.19531-0.17709 0.19531-0.51823 0-0.34115-0.19531-0.51302-0.19271-0.17448-0.57292-0.17448z"/><path d="m226.86 415.59h0.52605v3.888h-0.52605z"/><path d="m230.5 415.94q-0.40625 0-0.61198 0.40104-0.20312 0.39844-0.20312 1.2005 0 0.79948 0.20312 1.2005 0.20573 0.39844 0.61198 0.39844 0.40886 0 0.61198-0.39844 0.20573-0.40104 0.20573-1.2005 0-0.80208-0.20573-1.2005-0.20312-0.40104-0.61198-0.40104zm0-0.41667q0.65365 0 0.9974 0.51823 0.34635 0.51563 0.34635 1.5 0 0.98177-0.34635 1.5-0.34375 0.51563-0.9974 0.51563-0.65364 0-1-0.51563-0.34375-0.51823-0.34375-1.5 0-0.98437 0.34375-1.5 0.34636-0.51823 1-0.51823z"/><path d="m233.15 415.59h0.44271l-1.3542 4.3828h-0.44271z"/><path d="m234.9 415.94q-0.40625 0-0.61198 0.40104-0.20312 0.39844-0.20312 1.2005 0 0.79948 0.20312 1.2005 0.20573 0.39844 0.61198 0.39844 0.40885 0 0.61198-0.39844 0.20573-0.40104 0.20573-1.2005 0-0.80208-0.20573-1.2005-0.20313-0.40104-0.61198-0.40104zm0-0.41667q0.65365 0 0.9974 0.51823 0.34635 0.51563 0.34635 1.5 0 0.98177-0.34635 1.5-0.34375 0.51563-0.9974 0.51563t-1-0.51563q-0.34375-0.51823-0.34375-1.5 0-0.98437 0.34375-1.5 0.34635-0.51823 1-0.51823z"/></g><g transform="matrix(.64274 0 0 .64255 2.3621 -237.74)" aria-label="BRI 0/1"><path d="m244.26 417.63v1.4245h0.84375q0.42448 0 0.62761-0.17448 0.20572-0.17709 0.20572-0.53907 0-0.36458-0.20572-0.53645-0.20313-0.17448-0.62761-0.17448zm0-1.599v1.1719h0.77865q0.38541 0 0.57291-0.14323 0.19011-0.14583 0.19011-0.4427 0-0.29428-0.19011-0.44011-0.1875-0.14583-0.57291-0.14583zm-0.52604-0.43229h1.3438q0.60156 0 0.92708 0.25t0.32552 0.71093q0 0.35677-0.16666 0.56771-0.16667 0.21094-0.48959 0.26302 0.38802 0.0833 0.60157 0.34896 0.21614 0.26302 0.21614 0.65886 0 0.52083-0.35416 0.80468-0.35417 0.28386-1.0078 0.28386h-1.3958z"/><path d="m248.83 417.66q0.16927 0.0573 0.32812 0.24479 0.16146 0.1875 0.32292 0.51563l0.53386 1.0625h-0.56511l-0.49739-0.9974q-0.19271-0.39062-0.375-0.51823-0.17969-0.1276-0.49219-0.1276h-0.57292v1.6432h-0.52604v-3.888h1.1875q0.66667 0 0.99479 0.27864 0.32813 0.27865 0.32813 0.84115 0 0.36719-0.17188 0.60937-0.16927 0.24219-0.49479 0.33594zm-1.3177-1.6328v1.3802h0.66146q0.38021 0 0.57292-0.17448 0.19531-0.17709 0.19531-0.51823 0-0.34115-0.19531-0.51302-0.19271-0.17448-0.57292-0.17448z"/><path d="m250.3 415.59h0.52604v3.888h-0.52604z"/><path d="m253.94 415.94q-0.40625 0-0.61198 0.40104-0.20312 0.39844-0.20312 1.2005 0 0.79948 0.20312 1.2005 0.20573 0.39844 0.61198 0.39844 0.40886 0 0.61198-0.39844 0.20573-0.40104 0.20573-1.2005 0-0.80208-0.20573-1.2005-0.20312-0.40104-0.61198-0.40104zm0-0.41667q0.65365 0 0.9974 0.51823 0.34635 0.51563 0.34635 1.5 0 0.98177-0.34635 1.5-0.34375 0.51563-0.9974 0.51563-0.65364 0-1-0.51563-0.34375-0.51823-0.34375-1.5 0-0.98437 0.34375-1.5 0.34636-0.51823 1-0.51823z"/><path d="m256.6 415.59h0.44271l-1.3542 4.3828h-0.44271z"/><path d="m257.31 419.04h0.85938v-2.9662l-0.9349 0.1875v-0.47916l0.92969-0.1875h0.52604v3.4453h0.85938v0.44271h-2.2396z"/></g><g transform="matrix(.64274 0 0 .64255 -28.189 -237.74)" aria-label="BRI 0/2"><path d="m267.66 417.63v1.4245h0.84375q0.42448 0 0.62761-0.17448 0.20573-0.17709 0.20573-0.53907 0-0.36458-0.20573-0.53645-0.20313-0.17448-0.62761-0.17448zm0-1.599v1.1719h0.77865q0.38542 0 0.57292-0.14323 0.1901-0.14583 0.1901-0.4427 0-0.29428-0.1901-0.44011-0.1875-0.14583-0.57292-0.14583zm-0.52604-0.43229h1.3438q0.60156 0 0.92708 0.25 0.32553 0.25 0.32553 0.71093 0 0.35677-0.16667 0.56771t-0.48958 0.26302q0.38802 0.0833 0.60156 0.34896 0.21614 0.26302 0.21614 0.65886 0 0.52083-0.35416 0.80468-0.35417 0.28386-1.0078 0.28386h-1.3958z"/><path d="m272.23 417.66q0.16927 0.0573 0.32813 0.24479 0.16145 0.1875 0.32291 0.51563l0.53386 1.0625h-0.56511l-0.49739-0.9974q-0.19271-0.39062-0.375-0.51823-0.17969-0.1276-0.49219-0.1276h-0.57292v1.6432h-0.52604v-3.888h1.1875q0.66667 0 0.99479 0.27864 0.32813 0.27865 0.32813 0.84115 0 0.36719-0.17188 0.60937-0.16927 0.24219-0.49479 0.33594zm-1.3177-1.6328v1.3802h0.66146q0.38021 0 0.57292-0.17448 0.19531-0.17709 0.19531-0.51823 0-0.34115-0.19531-0.51302-0.19271-0.17448-0.57292-0.17448z"/><path d="m273.69 415.59h0.52605v3.888h-0.52605z"/><path d="m277.34 415.94q-0.40625 0-0.61198 0.40104-0.20312 0.39844-0.20312 1.2005 0 0.79948 0.20312 1.2005 0.20573 0.39844 0.61198 0.39844 0.40886 0 0.61198-0.39844 0.20573-0.40104 0.20573-1.2005 0-0.80208-0.20573-1.2005-0.20312-0.40104-0.61198-0.40104zm0-0.41667q0.65365 0 0.9974 0.51823 0.34635 0.51563 0.34635 1.5 0 0.98177-0.34635 1.5-0.34375 0.51563-0.9974 0.51563-0.65364 0-1-0.51563-0.34375-0.51823-0.34375-1.5 0-0.98437 0.34375-1.5 0.34636-0.51823 1-0.51823z"/><path d="m279.99 415.59h0.44271l-1.3542 4.3828h-0.44271z"/><path d="m281.06 419.04h1.8359v0.44271h-2.4688v-0.44271q0.29948-0.3099 0.81511-0.83073 0.51823-0.52344 0.65104-0.67448 0.2526-0.28385 0.35156-0.47917 0.10156-0.19791 0.10156-0.38802 0-0.30989-0.21875-0.50521-0.21614-0.19531-0.5651-0.19531-0.2474 0-0.52344 0.0859-0.27344 0.0859-0.58594 0.26042v-0.53125q0.31771-0.12761 0.59375-0.19271 0.27605-0.0651 0.50521-0.0651 0.60417 0 0.96354 0.30209 0.35938 0.30208 0.35938 0.80729 0 0.23958-0.0911 0.45573-0.0885 0.21354-0.32552 0.50521-0.0651 0.0755-0.41406 0.4375-0.34896 0.35937-0.98438 1.0078z"/></g><g transform="matrix(.64274 0 0 .64255 -58.741 -237.74)" aria-label="BRI 0/3"><path d="m290.98 417.63v1.4245h0.84375q0.42448 0 0.6276-0.17448 0.20573-0.17709 0.20573-0.53907 0-0.36458-0.20573-0.53645-0.20312-0.17448-0.6276-0.17448zm0-1.599v1.1719h0.77865q0.38541 0 0.57291-0.14323 0.19011-0.14583 0.19011-0.4427 0-0.29428-0.19011-0.44011-0.1875-0.14583-0.57291-0.14583zm-0.52604-0.43229h1.3438q0.60156 0 0.92708 0.25t0.32552 0.71093q0 0.35677-0.16666 0.56771-0.16667 0.21094-0.48959 0.26302 0.38802 0.0833 0.60157 0.34896 0.21614 0.26302 0.21614 0.65886 0 0.52083-0.35417 0.80468-0.35416 0.28386-1.0078 0.28386h-1.3958z"/><path d="m295.55 417.66q0.16927 0.0573 0.32812 0.24479 0.16146 0.1875 0.32292 0.51563l0.53385 1.0625h-0.5651l-0.4974-0.9974q-0.1927-0.39062-0.375-0.51823-0.17968-0.1276-0.49218-0.1276h-0.57292v1.6432h-0.52604v-3.888h1.1875q0.66667 0 0.99479 0.27864 0.32813 0.27865 0.32813 0.84115 0 0.36719-0.17188 0.60937-0.16927 0.24219-0.49479 0.33594zm-1.3177-1.6328v1.3802h0.66146q0.38021 0 0.57292-0.17448 0.19531-0.17709 0.19531-0.51823 0-0.34115-0.19531-0.51302-0.19271-0.17448-0.57292-0.17448z"/><path d="m297.01 415.59h0.52604v3.888h-0.52604z"/><path d="m300.66 415.94q-0.40625 0-0.61198 0.40104-0.20312 0.39844-0.20312 1.2005 0 0.79948 0.20312 1.2005 0.20573 0.39844 0.61198 0.39844 0.40885 0 0.61198-0.39844 0.20573-0.40104 0.20573-1.2005 0-0.80208-0.20573-1.2005-0.20313-0.40104-0.61198-0.40104zm0-0.41667q0.65365 0 0.9974 0.51823 0.34635 0.51563 0.34635 1.5 0 0.98177-0.34635 1.5-0.34375 0.51563-0.9974 0.51563t-1-0.51563q-0.34375-0.51823-0.34375-1.5 0-0.98437 0.34375-1.5 0.34635-0.51823 1-0.51823z"/><path d="m303.31 415.59h0.44271l-1.3542 4.3828h-0.44271z"/><path d="m305.52 417.39q0.3776 0.0807 0.58854 0.33594 0.21354 0.25521 0.21354 0.63021 0 0.57552-0.39583 0.89062-0.39584 0.31511-1.125 0.31511-0.24479 0-0.50521-0.0495-0.25781-0.0469-0.53386-0.14323v-0.50781q0.21875 0.1276 0.47917 0.19271 0.26042 0.0651 0.54427 0.0651 0.49479 0 0.75261-0.19531 0.26041-0.19531 0.26041-0.56771 0-0.34375-0.24218-0.53646-0.23959-0.19531-0.66928-0.19531h-0.45312v-0.43229h0.47396q0.38802 0 0.59375-0.15365 0.20573-0.15625 0.20573-0.44792 0-0.29948-0.21354-0.45833-0.21094-0.16146-0.60678-0.16146-0.21614 0-0.46354 0.0469-0.24739 0.0469-0.54427 0.14583v-0.46875q0.29948-0.0833 0.5599-0.125 0.26302-0.0417 0.49479-0.0417 0.59896 0 0.94792 0.27344 0.34895 0.27083 0.34895 0.73438 0 0.32291-0.18489 0.54687-0.1849 0.22136-0.52604 0.30729z"/></g></g></g><g transform="matrix(-2.0546 0 0 -2.054 478.17 813.91)"><g transform="translate(.6581 -19.12)"><g transform="matrix(1.0029 0 0 .99453 91.221 226.26)"><path d="m64.912 178.62h1.7532l-0.0026-1.0712 0.63806-5.7e-4v-0.40106h2.0566l-4.83e-4 0.40211h0.66414v1.0712h1.7452v4.6119l-6.8535 0.015z"/></g></g></g><g transform="matrix(-2.0546 0 0 -2.054 493.69 813.91)"><g transform="translate(.6581 -19.12)"><g transform="matrix(1.0029 0 0 .99453 91.221 226.26)"><path d="m64.912 178.62h1.7532l-0.0026-1.0712 0.63806-5.7e-4v-0.40106h2.0566l-4.83e-4 0.40211h0.66414v1.0712h1.7452v4.6119l-6.8535 0.015z"/></g></g></g><g transform="matrix(-2.0546 0 0 -2.054 509.22 813.83)"><g transform="translate(.6581 -19.12)"><g transform="matrix(1.0029 0 0 .99453 91.221 226.26)"><path d="m64.912 178.62h1.7532l-0.0026-1.0712 0.63806-5.7e-4v-0.40106h2.0566l-4.83e-4 0.40211h0.66414v1.0712h1.7452v4.6119l-6.8535 0.015z"/></g></g></g><circle cx="35.773" cy="22.758" r="1.0471" stroke-width=".47386"/><g transform="matrix(.46643 0 0 .46643 19.628 7.2953)" fill="#fff" stroke-width=".99998"><path d="m29.777 27.627q0.12696 0.043 0.2461 0.18359 0.12109 0.14062 0.24219 0.38671l0.40039 0.79685h-0.42382l-0.37305-0.74802q-0.14453-0.29296-0.28125-0.38867-0.13476-0.0957-0.36914-0.0957h-0.42969v1.2324h-0.39453v-2.9159h0.89062q0.5 0 0.74608 0.20898 0.24609 0.20899 0.24609 0.63085 0 0.27538-0.1289 0.45702-0.12696 0.18164-0.3711 0.25196zm-0.98827-1.2246v1.0352h0.4961q0.28515 0 0.42968-0.13086 0.14649-0.13281 0.14649-0.38866t-0.14649-0.38475q-0.14453-0.13086-0.42968-0.13086z"/><path d="m31.167 26.077h1.8438v0.33202h-1.4492v0.86326h1.3887v0.33202h-1.3887v1.0566h1.4844v0.33202h-1.8789z"/><path d="m35.447 26.167v0.38476q-0.22461-0.10743-0.42383-0.16016-0.19922-0.0527-0.38477-0.0527-0.32226 0-0.49804 0.125-0.17383 0.125-0.17383 0.35545 0 0.19336 0.11523 0.29296 0.11719 0.0977 0.44141 0.15821l0.23828 0.0488q0.44141 0.084 0.65038 0.29687 0.21094 0.21094 0.21094 0.5664 0 0.42381-0.28516 0.64256-0.2832 0.21875-0.83202 0.21875-0.20703 0-0.4414-0.0469-0.23243-0.0469-0.48242-0.13867v-0.40624q0.24024 0.13476 0.47071 0.20312 0.23047 0.0684 0.45312 0.0684 0.33789 0 0.52148-0.13281 0.18359-0.13281 0.18359-0.3789 0-0.21484-0.13281-0.33593-0.13086-0.12109-0.43164-0.18164l-0.24024-0.0469q-0.4414-0.0879-0.63866-0.27538-0.19726-0.1875-0.19726-0.52148 0-0.3867 0.27148-0.60936 0.27344-0.22266 0.75194-0.22266 0.20508 0 0.41797 0.0371t0.43555 0.11133z"/><path d="m36.237 26.077h1.8438v0.33202h-1.4492v0.86326h1.3887v0.33202h-1.3887v1.0566h1.4844v0.33202h-1.8789z"/><path d="m38.367 26.077h2.4668v0.33202h-1.0352v2.5839h-0.39649v-2.5839h-1.0352z"/></g><path d="m110.75 8.5833c0.37233-0.13354 0.81337-0.17161 1.1183-0.17161 0.79734-2.914e-4 1.1531 0.41871 1.1531 0.86889 0 0.63708-0.46766 0.79225-0.92252 1.0486 0.53426 0.14402 0.65435 0.48067 0.65435 0.83938 0 0.93049-0.87117 1.3972-1.8289 1.3972-0.48158 0-0.75631-0.09816-1.0324-0.19846l0.0992-0.5122c0.435 0.25115 0.79153 0.27621 1.0324 0.27621 0.8279 0 1.1853-0.50481 1.1853-0.97882 0-0.46793-0.44132-0.58193-0.80717-0.58193h-0.46662l0.0831-0.4398h0.49344c0.67898-0.0069 0.95739-0.33945 0.95739-0.75623 0-0.44467-0.47307-0.52829-0.71599-0.52829-0.44121-0.01663-0.89682 0.13869-1.0861 0.2199z" fill="#fff" stroke-width=".51489"/></svg>
