<svg width="442" height="44.5" version="1.1" viewBox="66 376 442 44.5" xmlns="http://www.w3.org/2000/svg">
 <rect x="66.414" y="376.43" width="441.18" height="43.676" fill="#1e1616" stroke="#000" stroke-width=".82477"/>
 <path d="m470.67 415.18v-15.41c0-1.7728 1.4272-3.2 3.2-3.2h24.173c1.7728 0 3.2 1.4272 3.2 3.2v15.41c0 1.7728-1.4272 3.2-3.2 3.2h-24.173c-1.7728 0-3.2-1.4272-3.2-3.2z" fill="#484848" fill-rule="evenodd" stroke="#000" stroke-linecap="round" stroke-width=".10667"/>
 <path d="m473.82 400.13v10.544l6.1574 6.1685h11.529l6.5157-6.5271v-10.185z" stroke="#090909" stroke-width=".071727"/>
 <g fill="#f1f1f1">
  <path d="m484.77 414.55h2.1478v-5.0926h-2.1478z"/>
  <path d="m492.51 407.52h2.1477v-5.0926h-2.1477z"/>
  <path d="m477.18 407.52h2.1478v-5.0926h-2.1478z"/>
 </g>
 <g stroke="#000">
  <path d="m453.79 407.57c0 2.2121-1.7335 4.0082-3.8677 4.0082-2.1342 0-3.8663-1.7961-3.8663-4.0082 0-2.2135 1.7321-4.0097 3.8663-4.0097 2.1342 0 3.8677 1.7961 3.8677 4.0097z" fill="#666" stroke-width=".099152"/>
  <path d="m452.79 407.57c0 1.6389-1.2883 2.9704-2.8758 2.9704-1.5874 0-2.8744-1.3314-2.8744-2.9704 0-1.6389 1.2869-2.969 2.8744-2.969 1.5875 0 2.8758 1.33 2.8758 2.969z" fill="#fff" stroke-width=".099152"/>
  <path d="m449.44 404.94v2.05h-2.05v1.0667h2.05v2.05h1.0667v-2.05h2.05v-1.0667h-2.05v-2.05z" color="#000000" color-rendering="auto" fill="#333" fill-rule="evenodd" image-rendering="auto" shape-rendering="auto" solid-color="#000000" stroke-width=".10667" style="isolation:auto;mix-blend-mode:normal;text-decoration-color:#000000;text-decoration-line:none;text-decoration-style:solid;text-indent:0;text-transform:none;white-space:normal"/>
  <path d="m362.76 403.5c0 1.1674-0.91487 2.1153-2.0412 2.1153-1.1263 0-2.0404-0.94789-2.0404-2.1153 0-1.1682 0.91411-2.1161 2.0404-2.1161 1.1263 0 2.0412 0.9479 2.0412 2.1161z" fill="#666" stroke-width=".052327"/>
  <path d="m362.24 403.5c0 0.86492-0.67989 1.5676-1.5177 1.5676-0.83776 0-1.5169-0.70266-1.5169-1.5676 0-0.86494 0.67916-1.5669 1.5169-1.5669 0.83777 0 1.5177 0.70192 1.5177 1.5669z" fill="#fff" stroke-width=".052327"/>
  <g>
   <path d="m360.47 402.11v1.0819h-1.0819v0.56293h1.0819v1.0819h0.56293v-1.0819h1.0819v-0.56293h-1.0819v-1.0819z" color="#000000" color-rendering="auto" fill="#333" fill-rule="evenodd" image-rendering="auto" shape-rendering="auto" solid-color="#000000" stroke-width=".056293" style="isolation:auto;mix-blend-mode:normal;text-decoration-color:#000000;text-decoration-line:none;text-decoration-style:solid;text-indent:0;text-transform:none;white-space:normal"/>
   <g stroke-width=".053">
    <path d="m283.18 403.5c0 1.1674-0.91487 2.1153-2.0412 2.1153-1.1263 0-2.0404-0.94789-2.0404-2.1153 0-1.1682 0.91411-2.1161 2.0404-2.1161 1.1263 0 2.0412 0.9479 2.0412 2.1161z" fill="#666"/>
    <path d="m282.66 403.5c0 0.86492-0.67989 1.5676-1.5177 1.5676-0.83776 0-1.5169-0.70266-1.5169-1.5676 0-0.86494 0.67916-1.5669 1.5169-1.5669 0.83777 0 1.5177 0.70192 1.5177 1.5669z" fill="#fff"/>
    <path d="m280.89 402.11v1.0819h-1.0819v0.56293h1.0819v1.0819h0.56293v-1.0819h1.0819v-0.56293h-1.0819v-1.0819z" color="#000000" color-rendering="auto" fill="#333" fill-rule="evenodd" image-rendering="auto" shape-rendering="auto" solid-color="#000000" style="isolation:auto;mix-blend-mode:normal;text-decoration-color:#000000;text-decoration-line:none;text-decoration-style:solid;text-indent:0;text-transform:none;white-space:normal"/>
   </g>
  </g>
  <path d="m263.32 397h-17.304v14.349h17.304z" fill="#ebebeb" stroke-width=".96323"/>
  <path d="m246.02 397v14.349h17.304v-14.349z" fill="none" stroke-linecap="square" stroke-width=".011158"/>
 </g>
 <path d="m261.74 407.72h-3.6115l5e-3 2.1882-1.3144 1e-3v0.81927h-4.2365l1e-3 -0.82141h-1.3681v-2.1882h-3.595v-9.421l14.118-0.0306z" stroke-width="2.0513"/>
 <path d="m246.03 397-4e-3 14.349 5.7794 2e-3v-1.3808l-4.6458 2e-3v-1.7876l0.45853-0.0143 1e-3 -9.8713c4.9146-2e-3 9.9127-0.0253 14.12-0.0261v-9e-5l9.9e-4 9.8976 0.45853 0.0143v1.7875l-4.6184-2e-3v1.3808l5.7522-2e-3c-8.4e-4 -4.7825-5e-3 -9.565-5e-3 -14.348-5.7662-6.8e-4 -11.532-1e-3 -17.298-2e-3z" fill="#ebebeb" stroke-width="2.0513"/>
 <g fill="#fff" stroke-width="1px">
  <path d="m134.6 413.01h2.4583v0.4427h-1.9323v1.151h1.8516v0.44271h-1.8516v1.4088h1.9792v0.44271h-2.5052z"/>
  <path d="m137.04 413.01h3.2891v0.4427h-1.3802v3.4453h-0.52865v-3.4453h-1.3802z"/>
  <path d="m140.44 413.01h0.52604v1.5938h1.9115v-1.5938h0.52604v3.888h-0.52604v-1.8516h-1.9115v1.8516h-0.52604z"/>
  <path d="m146.52 413.36q-0.40625 0-0.61198 0.40104-0.20312 0.39844-0.20312 1.2005 0 0.79948 0.20312 1.2005 0.20573 0.39844 0.61198 0.39844 0.40885 0 0.61198-0.39844 0.20573-0.40104 0.20573-1.2005 0-0.80208-0.20573-1.2005-0.20313-0.40104-0.61198-0.40104zm0-0.41667q0.65365 0 0.9974 0.51823 0.34635 0.51563 0.34635 1.5 0 0.98177-0.34635 1.5-0.34375 0.51563-0.9974 0.51563t-1-0.51563q-0.34375-0.51823-0.34375-1.5 0-0.98437 0.34375-1.5 0.34635-0.51823 1-0.51823z"/>
  <path d="m149.17 413.01h0.44271l-1.3542 4.3828h-0.44271z"/>
  <path d="m150.92 413.36q-0.40625 0-0.61198 0.40104-0.20313 0.39844-0.20313 1.2005 0 0.79948 0.20313 1.2005 0.20573 0.39844 0.61198 0.39844 0.40885 0 0.61198-0.39844 0.20572-0.40104 0.20572-1.2005 0-0.80208-0.20572-1.2005-0.20313-0.40104-0.61198-0.40104zm0-0.41667q0.65364 0 0.99739 0.51823 0.34636 0.51563 0.34636 1.5 0 0.98177-0.34636 1.5-0.34375 0.51563-0.99739 0.51563-0.65365 0-1-0.51563-0.34375-0.51823-0.34375-1.5 0-0.98437 0.34375-1.5 0.34635-0.51823 1-0.51823z"/>
 </g>
 <path d="m152.08 397h-17.304v14.349h17.304z" fill="#ebebeb" stroke="#000" stroke-width=".96323"/>
 <path d="m134.78 397v14.349h17.304v-14.349z" fill="none" stroke="#000" stroke-linecap="square" stroke-width=".011158"/>
 <path d="m150.49 407.72h-3.6115l5e-3 2.1882-1.3144 1e-3v0.81927h-4.2365l1e-3 -0.82141h-1.3681v-2.1882h-3.595v-9.421l14.118-0.0306z" stroke-width="2.0513"/>
 <path d="m134.78 397-4e-3 14.349 5.7794 2e-3v-1.3808l-4.6458 2e-3v-1.7876l0.45853-0.0143 1e-3 -9.8713c4.9146-2e-3 9.9127-0.0253 14.12-0.0261v-9e-5l9.9e-4 9.8976 0.45853 0.0143v1.7875l-4.6184-2e-3v1.3808l5.7522-2e-3c-8.4e-4 -4.7825-5e-3 -9.565-5e-3 -14.348-5.7662-6.8e-4 -11.532-1e-3 -17.298-2e-3z" fill="#ebebeb" stroke-width="2.0513"/>
 <rect x="285.62" y="395.75" width="70.625" height="15.5" rx="0" ry="0"/>
 <path d="m287.66 396.52c-0.46069 0-0.83157 0.37088-0.83157 0.83157v4.3138h1.504c0.0936 0 0.16892 0.0753 0.16892 0.16891v3.336c0 0.0936-0.0753 0.16892-0.16892 0.16892h-1.504v4.3138c0 0.46069 0.37088 0.83157 0.83157 0.83157h66.545c0.46069 0 0.83157-0.37088 0.83157-0.83157v-4.3138h-1.4715c-0.0936 0-0.16892-0.0753-0.16892-0.16892v-3.336c0-0.0936 0.0753-0.16891 0.16892-0.16891h1.4715v-4.3138c0-0.46069-0.37088-0.83157-0.83157-0.83157z" fill="#333"/>
 <path d="m350.25 400.85h-58.63v5.2767h58.63z" stroke="#000" stroke-width=".071727"/>
 <g fill="#7f6600" stroke="#000" stroke-width=".071727">
  <path d="m293.68 399.98h-1.3628v0.71561h1.3628z"/>
  <path d="m293.46 400.91h-0.86051v1.0739h0.86051z"/>
  <path d="m349.55 399.98h-1.4342v0.71561h1.4342z"/>
  <path d="m349.27 400.91h-0.8605v1.0739h0.8605z"/>
  <path d="m296.04 399.98h-1.3627v0.71561h1.3627z"/>
  <path d="m295.76 400.91h-0.86051v1.0739h0.86051z"/>
  <path d="m298.48 399.98h-1.4342v0.71561h1.4342z"/>
  <path d="m298.2 400.91h-0.86049v1.0739h0.86049z"/>
  <path d="m300.92 399.98h-1.3627v0.71561h1.3627z"/>
  <path d="m300.71 400.91h-0.8605v1.0739h0.8605z"/>
  <path d="m303.36 399.98h-1.3627v0.71561h1.3627z"/>
  <path d="m303.07 400.91h-0.86051v1.0739h0.86051z"/>
  <path d="m305.8 399.98h-1.4342v0.71561h1.4342z"/>
  <path d="m305.51 400.91h-0.86053v1.0739h0.86053z"/>
  <path d="m308.24 399.98h-1.4342v0.71561h1.4342z"/>
  <path d="m307.95 400.91h-0.86052v1.0739h0.86052z"/>
  <path d="m310.6 399.98h-1.3627v0.71561h1.3627z"/>
  <path d="m310.32 400.91h-0.86052v1.0739h0.86052z"/>
  <path d="m313.04 399.98h-1.4342v0.71561h1.4342z"/>
  <path d="m312.76 400.91h-0.86051v1.0739h0.86051z"/>
  <path d="m315.48 399.98h-1.3627v0.71561h1.3627z"/>
  <path d="m315.27 400.91h-0.8605v1.0739h0.8605z"/>
  <path d="m317.92 399.98h-1.3627v0.71561h1.3627z"/>
  <path d="m317.63 400.91h-0.86049v1.0739h0.86049z"/>
  <path d="m320.36 399.98h-1.4342v0.71561h1.4342z"/>
  <path d="m320.07 400.91h-0.86049v1.0739h0.86049z"/>
  <path d="m322.73 399.98h-1.3627v0.71561h1.3627z"/>
  <path d="m322.51 400.91h-0.86049v1.0739h0.86049z"/>
  <path d="m325.16 399.98h-1.3627v0.71561h1.3627z"/>
  <path d="m324.88 400.91h-0.86053v1.0739h0.86053z"/>
  <path d="m327.6 399.98h-1.4342v0.71561h1.4342z"/>
  <path d="m327.32 400.91h-0.86052v1.0739h0.86052z"/>
  <path d="m330.04 399.98h-1.3637v0.71561h1.3637z"/>
  <path d="m329.83 400.91h-0.86051v1.0739h0.86051z"/>
  <path d="m332.48 399.98h-1.4352v0.71561h1.4352z"/>
  <path d="m332.19 400.91h-0.8615v1.0739h0.8615z"/>
  <path d="m334.92 399.98h-1.4352v0.71561h1.4352z"/>
  <path d="m334.63 400.91h-0.86152v1.0739h0.86152z"/>
  <path d="m337.29 399.98h-1.3637v0.71561h1.3637z"/>
  <path d="m337.07 400.91h-0.8605v1.0739h0.8605z"/>
  <path d="m339.73 399.98h-1.3627v0.71561h1.3627z"/>
  <path d="m339.44 400.91h-0.86149v1.0739h0.86149z"/>
  <path d="m342.16 399.98h-1.4352v0.71561h1.4352z"/>
  <path d="m341.88 400.91h-0.86151v1.0739h0.86151z"/>
  <path d="m344.6 399.98h-1.3627v0.71561h1.3627z"/>
  <path d="m344.39 400.91h-0.86052v1.0739h0.86052z"/>
  <path d="m347.04 399.98h-1.4342v0.71561h1.4342z"/>
  <path d="m346.76 400.91h-0.8605v1.0739h0.8605z"/>
  <path d="m293.68 407.02h-1.3628v-0.71556h1.3628z"/>
  <path d="m293.46 406.09h-0.86051v-1.1453h0.86051z"/>
  <path d="m349.55 407.02h-1.4342v-0.71556h1.4342z"/>
  <path d="m349.27 406.09h-0.8605v-1.1453h0.8605z"/>
  <path d="m296.04 407.02h-1.3627v-0.71556h1.3627z"/>
  <path d="m295.76 406.09h-0.86051v-1.1453h0.86051z"/>
  <path d="m298.48 407.02h-1.4342v-0.71556h1.4342z"/>
  <path d="m298.2 406.09h-0.86049v-1.1453h0.86049z"/>
  <path d="m300.92 407.02h-1.3627v-0.71556h1.3627z"/>
  <path d="m300.71 406.09h-0.8605v-1.1453h0.8605z"/>
  <path d="m303.36 407.02h-1.3627v-0.71556h1.3627z"/>
  <path d="m303.07 406.09h-0.86051v-1.1453h0.86051z"/>
  <path d="m305.8 407.02h-1.4342v-0.71556h1.4342z"/>
  <path d="m305.51 406.09h-0.86053v-1.1453h0.86053z"/>
  <path d="m308.24 407.02h-1.4342v-0.71556h1.4342z"/>
  <path d="m307.95 406.09h-0.86052v-1.1453h0.86052z"/>
  <path d="m310.6 407.02h-1.3627v-0.71556h1.3627z"/>
  <path d="m310.32 406.09h-0.86052v-1.1453h0.86052z"/>
  <path d="m313.04 407.02h-1.4342v-0.71556h1.4342z"/>
  <path d="m312.76 406.09h-0.86051v-1.1453h0.86051z"/>
  <path d="m315.48 407.02h-1.3627v-0.71556h1.3627z"/>
  <path d="m315.27 406.09h-0.8605v-1.1453h0.8605z"/>
  <path d="m317.92 407.02h-1.3627v-0.71556h1.3627z"/>
  <path d="m317.63 406.09h-0.86049v-1.1453h0.86049z"/>
  <path d="m320.36 407.02h-1.4342v-0.71556h1.4342z"/>
  <path d="m320.07 406.09h-0.86049v-1.1453h0.86049z"/>
  <path d="m322.73 407.02h-1.3627v-0.71556h1.3627z"/>
  <path d="m322.51 406.09h-0.86049v-1.1453h0.86049z"/>
  <path d="m325.16 407.02h-1.3627v-0.71556h1.3627z"/>
  <path d="m324.88 406.09h-0.86053v-1.1453h0.86053z"/>
  <path d="m327.6 407.02h-1.4342v-0.71556h1.4342z"/>
  <path d="m327.32 406.09h-0.86052v-1.1453h0.86052z"/>
  <path d="m330.04 407.02h-1.3637v-0.71556h1.3637z"/>
  <path d="m329.83 406.09h-0.86051v-1.1453h0.86051z"/>
  <path d="m332.48 407.02h-1.4352v-0.71556h1.4352z"/>
  <path d="m332.19 406.09h-0.8615v-1.1453h0.8615z"/>
  <path d="m334.92 407.02h-1.4352v-0.71556h1.4352z"/>
  <path d="m334.63 406.09h-0.86152v-1.1453h0.86152z"/>
  <path d="m337.29 407.02h-1.3637v-0.71556h1.3637z"/>
  <path d="m337.07 406.09h-0.8605v-1.1453h0.8605z"/>
  <path d="m339.73 407.02h-1.3627v-0.71556h1.3627z"/>
  <path d="m339.44 406.09h-0.86149v-1.1453h0.86149z"/>
  <path d="m342.16 407.02h-1.4352v-0.71556h1.4352z"/>
  <path d="m341.88 406.09h-0.86151v-1.1453h0.86151z"/>
  <path d="m344.6 407.02h-1.3627v-0.71556h1.3627z"/>
  <path d="m344.39 406.09h-0.86052v-1.1453h0.86052z"/>
  <path d="m347.04 407.02h-1.4342v-0.71556h1.4342z"/>
  <path d="m346.76 406.09h-0.8605v-1.1453h0.8605z"/>
 </g>
 <g fill="#fff">
  <path d="m78.769 387.37h5.8605v0.8022h-5.8605zm10.384 0h4.5903v0.8022h-4.5903zm5.0806 0h5.036v0.8022h-5.036zm5.4438 0 5.7869 0.0222v0.78059l-5.7869-5.7e-4zm8.9734 0.0222h5.7936v0.78059h-5.7936zm10.718 0 7.1306 6e-5c-0.45194 0.43339-0.98735 0.65229-1.5821 0.7783l-4.011-5e-3c-0.59712-0.071-1.0709-0.41313-1.5375-0.7731zm9.2921 6e-5h5.1029v0.77982h-5.1029zm6.2523 0h2.9061v0.75762l-2.5241 0.0237zm-55.231-1.3814c0.20245-0.0825 0.30606-0.25569 0.43396-0.42339h3.0032c0.11494 0.21418 0.27999 0.31151 0.48471 0.42339l1.025 0.0445v1.0473h-5.8605v-1.0473c0.30457-0.0126 0.60912-0.0293 0.91361-0.0445zm9.4704 0.0445c0.58362 0.0241 1.0842-0.0649 1.4707-0.46796h2.4546c0.20069 0.27043 0.3951 0.39689 0.66503 0.46796v1.0473h-4.5903zm5.0806 0c0.33764 0.0332 0.50925-0.1904 0.65279-0.46799h2.8902c0.3892 0.4867 0.95038 0.43707 1.493 0.46799v1.0472h-5.036zm6.3507-0.0445c0.25542-0.0674 0.43388-0.20385 0.55708-0.4234l2.8745 1e-5c0.20033 0.18651 0.39208 0.32925 0.6374 0.44565l0.811 0.0223v1.0473l-5.7869 3e-5v-1.0194zm8.0665 0.0445 0.44569-0.0222c0.45528 0.0291 0.77309-0.10488 1.025-0.44565h2.9469c0.22833 0.38083 0.50238 0.42426 0.93038 0.44565l0.44566 0.0222 0.0251 1.0473h-5.8188zm10.092-0.44567 3.1224-0.0235c0.14098 0.22992 0.33641 0.33539 0.57049 0.44646h1.0116c0.22435-0.10023 0.36144-0.26356 0.51534-0.44646h3.1391c5e-3 0.54336-0.13355 1.042-0.34645 1.5164h-7.6411c-0.24396-0.53798-0.33842-0.96173-0.37143-1.493zm9.9188 0.31196 0.84676-0.0479c0.16238-0.0666 0.28034-0.15562 0.38973-0.28744h2.7915c0.0808 0.15677 0.27548 0.21787 0.42866 0.28744 0.16916 5.6e-4 0.47707 0.0474 0.64622 0.0479v1.1811h-5.1029zm5.0228-0.33542h4.1357v1.5164h-3.099zm-53.567-1.7371h7.5657c-0.35493 0.67111-1.1416 1.1558-1.7969 1.3372h-2.7656v0.17827h-3.0032zm10.507 0h7.1529v1.5167h-2.8902v-0.62533h-1.808v0.62533h-2.4546zm10.518-3e-5h2.8745v1.5153l-2.8745-2e-5zm8.9801 3e-5h2.8745v1.5153h-2.8745zm8.6208 2e-5h3.1224v1.5153h-3.1224zm5.2198-2e-5h3.1391v1.5153h-3.1391zm6.1028 0h7.7546v1.5153h-4.3452l-0.9359-1.3374h-0.0828v1.181l0.07 0.15641h-2.4607c0-0.50581-3e-5 -1.0095-3e-5 -1.5153zm-52.366-1.7827h2.0501v1.5153h-2.0501zm2.4172 0h3.0032v1.2256h1.2721c0.0866-0.0971 0.17327-0.19406 0.25991-0.29108v-0.93574l3.1419 1.3e-4c0.0322 0.54634 0.035 0.98861-0.0287 1.5181l-7.6484-1.4e-4zm8.0421-8.5e-4h1.9748v1.5181h-1.9748zm2.465 0h2.4546c9e-3 0.25997-9e-3 0.54381 0 0.80379h1.808c9e-3 -0.25998-9e-3 -0.52013 0-0.78011h2.8902v1.4944h-7.1529zm7.6582 0.0237h2.4361v1.4707h-2.4361zm2.8595-0.11258 2.8745 0.0235v1.5598h-2.8745zm3.3425 0.0903h2.4512v1.5153h-2.4512zm2.7631 0h2.4512v1.5153h-2.4512zm2.8745-0.0669h2.8522l0.0243 1.5821-2.8766 2e-5zm3.3202 0.0656h2.4512v1.5164h-2.4512zm2.83 0h2.0278v1.5164h-2.0278zm2.4707 0h3.1224v1.5164h-3.1224zm5.2198-2.8e-4h3.1391v1.5184h-3.1391zm3.6292 0h2.0272v1.5184h-2.0272zm2.4736 0 4.485 1e-3c0.23564 0.34081 0.47129 0.68371 0.70694 1.0245h0.11135v-1.025h2.4512v1.5174h-7.7546zm-52.366-0.7225c-0.054-0.41009 0.11611-0.68887 0.28968-1.0362l9.5197-0.0227c0.27364 0.47845 0.31918 1.0234 0.28493 1.5616l-3.1419-0.0236c-0.0887-0.0747-0.23008-0.12544-0.31882-0.20009h-4.2047l-0.37882 0.20009h-2.0501zm10.459-0.51806 0.25895-0.54084h9.0373c0.18949 0.13673 0.24022 0.39168 0.32158 0.60209v0.95947h-2.8902c-0.10779-0.0747-0.21557-0.14897-0.32336-0.22367h-4.0662c-0.0883 0.0742-0.17655 0.1494-0.26482 0.22367h-2.0733zm10.123-0.0725c0.0311-0.13988 0.0497-0.29241 0.25238-0.44566h8.3785v1.5153h-2.4657c-0.0837-0.10672-0.1971-0.13764-0.31388-0.2001h-3.1545c-0.0698 0.0742-0.13956 0.14815-0.20934 0.22243h-2.4875c0.01-0.36398-0.01-0.72795 0-1.0919zm9.2102-0.44566 8.4008-0.0227v1.538l-2.4512 0.0237-0.34455-0.22379h-3.1249l-0.26481 0.22237h-2.4605c-0.0342-0.64278 0.0365-1.0572 0.24508-1.5375zm8.7796 0.26742c0.045-0.0891 0.0899-0.17827 0.1349-0.2674 3.4132-7e-3 6.8263-0.0152 10.239-0.0226 0.38015 0.41773 0.4823 1.0589 0.45524 1.5379h-3.1391c-0.0927-0.20504-0.25327-0.18333-0.43965-0.2001h-4.8264c-0.19972 0.0681-0.28862 0.032-0.39873 0.2001h-2.0257zm11.515-0.29003h11.414v1.2036h-1.025c-0.11882 0.11881-0.23769 0.23769-0.35654 0.35653h-2.4819c-0.15251-0.21306-0.3902-0.33205-0.61546-0.45107h-4.6349c-0.34034 0.16165-0.33722 0.24905-0.46877 0.45102h-2.0272c6e-3 -0.58362 0.044-1.2031 0.19575-1.5601zm-48.375-0.8466 6.7906-4e-3c0.44531 0.10109 0.83098 0.28888 1.1374 0.62741l-9.1655-1e-5c0.31042-0.37819 0.78229-0.50534 1.2376-0.62393zm10.343-4e-3h6.1335c0.57089 0.0664 1.0589 0.3429 1.376 0.62741h-8.6066c0.2467-0.34564 0.77196-0.50894 1.0971-0.62741zm10.158 4e-3h7.0228v0.62393l-8.2671-4e-3c0.33976-0.35722 0.77939-0.49969 1.2443-0.62078zm8.9595 0 7.0212-1e-3v0.62549l-8.2158 5.6e-4c0.3213-0.39506 0.76012-0.50344 1.1946-0.62393zm8.9357-1e-3h7.7343c0.39141 0.0994 0.64827 0.36075 0.93589 0.62549h-9.8715c0.27549-0.34189 0.79411-0.51817 1.2012-0.62549zm11.344 0h10.05v0.62605h-11.247c0.3-0.38167 0.74723-0.50614 1.1977-0.62605z" stroke-width=".044566"/>
  <g>
   <path d="m457.44 380.5-0.20312 1.026q-0.52604-0.28125-1.0469-0.42188-0.51562-0.14583-1-0.14583-0.94271 0-1.5 0.41146t-0.55729 1.0938q0 0.375 0.20313 0.57812 0.20833 0.19792 1.0625 0.42709l0.6302 0.15625q1.0677 0.27604 1.4844 0.70312 0.41667 0.42188 0.41667 1.1875 0 1.1771-0.92709 1.9167-0.92187 0.73958-2.4323 0.73958-0.61979 0-1.2448-0.125-0.625-0.11979-1.2552-0.36979l0.21354-1.0833q0.57813 0.35937 1.1562 0.54166 0.58334 0.18229 1.1615 0.18229 0.98438 0 1.5781-0.4375t0.59375-1.1406q0-0.46875-0.23959-0.70833-0.23437-0.2448-1.0156-0.44271l-0.63021-0.16146q-1.0781-0.28125-1.474-0.64583-0.39062-0.3698-0.39062-1.0312 0-1.1615 0.89062-1.901 0.89583-0.74479 2.3281-0.74479 0.55729 0 1.1042 0.099 0.54688 0.099 1.0938 0.29688z"/>
   <path d="m459.58 380.25h1.4167l2.1458 6.6667 1.3021-6.6667h1.026l-1.5156 7.776h-1.4219l-2.1406-6.7083-1.3021 6.7083h-1.026z"/>
   <path d="m473.74 380.25h1.3229l-0.99479 5.0677h1.1094l-0.17188 0.875h-1.1094l-0.34896 1.8333h-1.0469l0.35417-1.8333h-3.5104l0.20313-1.0156zm0.0937 0.91666-3.4688 4.151h2.6562z"/>
   <path d="m477.63 380.44q0.57292-0.16667 1.1094-0.25 0.54166-0.0833 1.0625-0.0833 1.0312 0 1.6354 0.45834 0.60417 0.45833 0.60417 1.2292 0 0.75521-0.47917 1.2969-0.47396 0.54166-1.3125 0.73958 0.65625 0.1875 0.96354 0.58333 0.3073 0.39584 0.3073 1.0469 0 0.625-0.30209 1.1719-0.29687 0.54688-0.85937 0.94271-0.42709 0.30209-1.0208 0.44792-0.59375 0.15104-1.3698 0.15104-0.48958 0-0.98958-0.099-0.5-0.0937-1.0156-0.28646l0.19271-0.99479q0.48959 0.27084 0.98438 0.40625 0.5 0.13021 1.0208 0.13021 1.026 0 1.6615-0.52604 0.64062-0.53125 0.64062-1.375 0-0.54167-0.40625-0.83333-0.40625-0.29688-1.1614-0.29688h-0.90625l0.16145-0.85417h0.95834q0.86458 0 1.3594-0.39583 0.5-0.39583 0.5-1.0729 0-0.48958-0.36458-0.7552-0.36458-0.27084-1.026-0.27084-0.5 0-1.026 0.10938-0.52084 0.10416-1.0833 0.31771z"/>
   <path d="m487.65 384.27-3.3594 2.8802h3.7135l-0.18229 0.875h-5.0469l0.17187-0.88542 3.5104-3.0104q0.70312-0.60938 0.99479-1.0677 0.29687-0.46354 0.29687-0.94792 0-0.50521-0.35416-0.82292-0.35417-0.3177-0.92709-0.3177-0.49479 0-1.099 0.17708-0.60417 0.17708-1.2917 0.51562l0.19271-1.0417q0.64583-0.25521 1.2344-0.38542t1.0885-0.13021q1.0208 0 1.6406 0.54167 0.625 0.54167 0.625 1.4219 0 0.59375-0.29688 1.1354-0.29687 0.53646-0.91145 1.0625z"/>
   <path d="m494.12 380.25h1.3229l-0.9948 5.0677h1.1094l-0.17188 0.875h-1.1094l-0.34896 1.8333h-1.0469l0.35416-1.8333h-3.5104l0.20312-1.0156zm0.0937 0.91666-3.4688 4.151h2.6562z"/>
  </g>
 </g>
 <circle cx="231.9" cy="405.39" r="2.2097"/>
 <g fill="#fff">
  <path d="m227.07 414.55q0.12696 0.043 0.2461 0.18359 0.12109 0.14062 0.24219 0.38672l0.40039 0.79687h-0.42383l-0.37305-0.74804q-0.14453-0.29297-0.28125-0.38868-0.13476-0.0957-0.36914-0.0957h-0.42969v1.2324h-0.39453v-2.916h0.89063q0.5 0 0.74609 0.20898 0.24609 0.20899 0.24609 0.63086 0 0.27539-0.1289 0.45703-0.12696 0.18164-0.3711 0.25196zm-0.98828-1.2246v1.0352h0.4961q0.28515 0 0.42968-0.13086 0.14649-0.13281 0.14649-0.38867t-0.14649-0.38476q-0.14453-0.13086-0.42968-0.13086z"/>
  <path d="m228.46 413h1.8438v0.33203h-1.4492v0.86328h1.3887v0.33203h-1.3887v1.0566h1.4844v0.33203h-1.8789z"/>
  <path d="m232.74 413.09v0.38477q-0.22461-0.10743-0.42383-0.16016-0.19922-0.0527-0.38477-0.0527-0.32226 0-0.49804 0.125-0.17383 0.125-0.17383 0.35546 0 0.19336 0.11523 0.29297 0.11719 0.0977 0.44141 0.15821l0.23828 0.0488q0.44141 0.084 0.65039 0.29688 0.21094 0.21094 0.21094 0.56641 0 0.42382-0.28516 0.64257-0.2832 0.21875-0.83203 0.21875-0.20703 0-0.4414-0.0469-0.23243-0.0469-0.48243-0.13867v-0.40625q0.24024 0.13476 0.47071 0.20312 0.23047 0.0684 0.45312 0.0684 0.33789 0 0.52149-0.13281 0.18359-0.13281 0.18359-0.37891 0-0.21484-0.13281-0.33594-0.13086-0.12109-0.43164-0.18164l-0.24024-0.0469q-0.4414-0.0879-0.63867-0.27539-0.19726-0.1875-0.19726-0.52149 0-0.38671 0.27148-0.60937 0.27344-0.22266 0.75195-0.22266 0.20508 0 0.41797 0.0371t0.43555 0.11133z"/>
  <path d="m233.53 413h1.8438v0.33203h-1.4492v0.86328h1.3887v0.33203h-1.3887v1.0566h1.4844v0.33203h-1.8789z"/>
  <path d="m235.66 413h2.4668v0.33203h-1.0352v2.584h-0.39649v-2.584h-1.0352z"/>
  <path d="m247.58 413.22v0.41601q-0.19922-0.18554-0.42578-0.27734-0.22461-0.0918-0.47852-0.0918-0.5 0-0.76562 0.30664-0.26563 0.30469-0.26563 0.88281 0 0.57618 0.26563 0.88282 0.26562 0.30468 0.76562 0.30468 0.25391 0 0.47852-0.0918 0.22656-0.0918 0.42578-0.27735v0.41211q-0.20703 0.14063-0.43945 0.21094-0.23047 0.0703-0.48829 0.0703-0.66211 0-1.043-0.40429-0.38086-0.40625-0.38086-1.1074 0-0.70312 0.38086-1.1074 0.38085-0.40625 1.043-0.40625 0.26172 0 0.49219 0.0703 0.23242 0.0684 0.43555 0.20703z"/>
  <path d="m249.37 413.26q-0.42968 0-0.68359 0.32031-0.25195 0.32031-0.25195 0.87304 0 0.55079 0.25195 0.8711 0.25391 0.32031 0.68359 0.32031 0.42969 0 0.67969-0.32031 0.25195-0.32031 0.25195-0.8711 0-0.55273-0.25195-0.87304-0.25-0.32031-0.67969-0.32031zm0-0.32032q0.61328 0 0.98047 0.41211 0.36719 0.41016 0.36719 1.1016 0 0.68946-0.36719 1.1016-0.36719 0.41015-0.98047 0.41015-0.61523 0-0.98437-0.41015-0.36719-0.41016-0.36719-1.1016 0-0.6914 0.36719-1.1016 0.36914-0.41211 0.98437-0.41211z"/>
  <path d="m251.34 413h0.53125l1.293 2.4394v-2.4394h0.38281v2.916h-0.53125l-1.293-2.4394v2.4394h-0.38281z"/>
  <path d="m256.08 413.09v0.38477q-0.22461-0.10743-0.42383-0.16016-0.19922-0.0527-0.38476-0.0527-0.32227 0-0.49805 0.125-0.17383 0.125-0.17383 0.35546 0 0.19336 0.11524 0.29297 0.11718 0.0977 0.4414 0.15821l0.23828 0.0488q0.44141 0.084 0.6504 0.29688 0.21093 0.21094 0.21093 0.56641 0 0.42382-0.28515 0.64257-0.28321 0.21875-0.83203 0.21875-0.20704 0-0.44141-0.0469-0.23242-0.0469-0.48242-0.13867v-0.40625q0.24023 0.13476 0.4707 0.20312 0.23047 0.0684 0.45313 0.0684 0.33789 0 0.52148-0.13281t0.18359-0.37891q0-0.21484-0.13281-0.33594-0.13086-0.12109-0.43164-0.18164l-0.24023-0.0469q-0.44141-0.0879-0.63868-0.27539-0.19726-0.1875-0.19726-0.52149 0-0.38671 0.27148-0.60937 0.27344-0.22266 0.75196-0.22266 0.20507 0 0.41796 0.0371 0.2129 0.0371 0.43555 0.11133z"/>
  <path d="m258.05 413.26q-0.42969 0-0.68359 0.32031-0.25196 0.32031-0.25196 0.87304 0 0.55079 0.25196 0.8711 0.2539 0.32031 0.68359 0.32031t0.67969-0.32031q0.25195-0.32031 0.25195-0.8711 0-0.55273-0.25195-0.87304-0.25-0.32031-0.67969-0.32031zm0-0.32032q0.61328 0 0.98047 0.41211 0.36719 0.41016 0.36719 1.1016 0 0.68946-0.36719 1.1016-0.36719 0.41015-0.98047 0.41015-0.61523 0-0.98437-0.41015-0.36719-0.41016-0.36719-1.1016 0-0.6914 0.36719-1.1016 0.36914-0.41211 0.98437-0.41211z"/>
  <path d="m260.02 413h0.39454v2.584h1.4199v0.33203h-1.8145z"/>
  <path d="m262.24 413h1.8438v0.33203h-1.4492v0.86328h1.3887v0.33203h-1.3887v1.0566h1.4844v0.33203h-1.8789z"/>
 </g>
</svg>
