<svg width="310" height="40" version="1.1" viewBox="51 381 310 40" xmlns="http://www.w3.org/2000/svg"><path d="m51.907 421v-39.093h308.19v39.093" fill="#ececec" stroke="#000" stroke-linejoin="round" stroke-width="1.8131"/><g transform="matrix(1.9925 0 0 1.9925 -304.72 -387.18)"><g transform="matrix(1.2553,0,0,1.2553,15.575,-100.73)"><rect x="140.27" y="396.39" width="2.8" height="3.8" fill="#7f7f7f"/><rect x="140.27" y="396.39" width="2.8" height="3.8" fill="none" stroke="#000" stroke-width=".2"/></g><g transform="matrix(1.2553,0,0,1.2553,15.575,-100.73)"><circle cx="141.67" cy="398.19" r="1"/><circle cx="141.67" cy="398.19" r="1" fill="none" stroke="#000" stroke-width=".2"/></g></g><g transform="matrix(1.9925 0 0 1.9925 -61.236 -383.66)"><g transform="matrix(-1.3011,0,0,-1.4933,185.26,993.98)"><rect x="63.072" y="397.39" width="5.6" height="4.4"/><rect x="63.072" y="397.39" width="5.6" height="4.4" fill="none" stroke="#7f7f7f" stroke-width=".2"/></g><g transform="matrix(-1.3011,0,0,-1.4933,185.26,993.98)"><polygon points="63.472 398.79 63.472 401.39 68.272 401.39 68.272 398.79 66.872 398.79 66.872 398.19 66.472 398.19 66.472 397.79 65.272 397.79 65.272 398.19 64.872 398.19 64.872 398.79"/><polygon points="63.472 398.79 63.472 401.39 68.272 401.39 68.272 398.79 66.872 398.79 66.872 398.19 66.472 398.19 66.472 397.79 65.272 397.79 65.272 398.19 64.872 398.19 64.872 398.79" fill="none" stroke="#7f7f7f" stroke-width=".2"/></g></g><circle cx="80.641" cy="408.04" r=".69861" fill="#ebebeb" fill-rule="evenodd" stroke-width="1.9925"/><g transform="matrix(1.9925 0 0 1.9925 -34.995 -367.6)" stroke-width=".0070102px" aria-label="CONSOLE"><path d="m84.153 393.97v0.13124q-0.06285-0.0585-0.13432-0.0875-0.07085-0.029-0.15095-0.029-0.15773 0-0.24152 0.0967-0.08379 0.0961-0.08379 0.2785 0 0.18175 0.08379 0.27849 0.08379 0.0961 0.24152 0.0961 0.0801 0 0.15095-0.029 0.07147-0.029 0.13432-0.0875v0.13q-0.06531 0.0444-0.13863 0.0665-0.0727 0.0222-0.15403 0.0222-0.20887 0-0.32902-0.12754-0.12014-0.12815-0.12014-0.34934 0-0.22181 0.12014-0.34935 0.12015-0.12816 0.32902-0.12816 0.08256 0 0.15526 0.0222 0.07332 0.0216 0.1374 0.0653z"/><path d="m84.717 393.98q-0.13555 0-0.21565 0.10104-0.07948 0.10105-0.07948 0.27542 0 0.17375 0.07948 0.27479 0.0801 0.10105 0.21565 0.10105t0.21441-0.10105q0.07948-0.10104 0.07948-0.27479 0-0.17437-0.07948-0.27542-0.07886-0.10104-0.21441-0.10104zm0-0.10105q0.19346 0 0.3093 0.13001 0.11583 0.12939 0.11583 0.3475 0 0.21749-0.11583 0.34749-0.11583 0.12939-0.3093 0.12939-0.19408 0-0.31053-0.12939-0.11583-0.12938-0.11583-0.34749t0.11583-0.3475q0.11645-0.13001 0.31053-0.13001z"/><path d="m85.334 393.9h0.16759l0.40788 0.76955v-0.76955h0.12076v0.91988h-0.16759l-0.40788-0.76954v0.76954h-0.12076z"/><path d="m86.827 393.93v0.12138q-0.07086-0.0339-0.1337-0.0505-0.06285-0.0166-0.12138-0.0166-0.10166 0-0.15711 0.0394-0.05484 0.0394-0.05484 0.11214 0 0.061 0.03635 0.0924 0.03697 0.0308 0.13925 0.0499l0.07517 0.0154q0.13925 0.0265 0.20517 0.0936 0.06654 0.0665 0.06654 0.17868 0 0.1337-0.08996 0.20271-0.08934 0.069-0.26247 0.069-0.06531 0-0.13925-0.0148-0.07332-0.0148-0.15218-0.0437v-0.12816q0.07578 0.0425 0.14849 0.0641 0.0727 0.0216 0.14294 0.0216 0.10659 0 0.16451-0.0419t0.05792-0.11953q0-0.0678-0.0419-0.10597-0.04128-0.0382-0.13616-0.0573l-0.07578-0.0148q-0.13925-0.0277-0.20148-0.0869-0.06223-0.0591-0.06223-0.1645 0-0.122 0.08564-0.19224 0.08626-0.0702 0.23721-0.0702 0.06469 0 0.13185 0.0117t0.1374 0.0351z"/><path d="m87.447 393.98q-0.13555 0-0.21565 0.10104-0.07948 0.10105-0.07948 0.27542 0 0.17375 0.07948 0.27479 0.0801 0.10105 0.21565 0.10105t0.21441-0.10105q0.07948-0.10104 0.07948-0.27479 0-0.17437-0.07948-0.27542-0.07887-0.10104-0.21441-0.10104zm0-0.10105q0.19346 0 0.3093 0.13001 0.11583 0.12939 0.11583 0.3475 0 0.21749-0.11583 0.34749-0.11583 0.12939-0.3093 0.12939-0.19408 0-0.31053-0.12939-0.11583-0.12938-0.11583-0.34749t0.11583-0.3475q0.11645-0.13001 0.31053-0.13001z"/><path d="m88.064 393.9h0.12446v0.81514h0.44793v0.10474h-0.57239z"/><path d="m88.764 393.9h0.58163v0.10474h-0.45717v0.27233h0.43807v0.10474h-0.43807v0.33333h0.46826v0.10474h-0.59272z"/></g><g transform="matrix(-2.054 0 0 -2.054 489.21 1201)"><g transform="translate(.6581 -19.12)"><g transform="matrix(1.0029 0 0 .99453 91.221 226.26)"><path d="m64.141 183.87h8.4v-7.0242h-8.4z" fill="#ebebeb" stroke="#000" stroke-width=".46956"/><g transform="matrix(.0080517 0 0 .0080487 51.527 212.79)"><path d="m2609.9-3593.3v-872.71h-1043.3v872.71z" fill="none" stroke="#000" stroke-linecap="square" stroke-width=".67568"/></g><path d="m64.912 178.62h1.7532l-0.0026-1.0712 0.63806-5.7e-4v-0.40106h2.0566l-4.83e-4 0.40211h0.66414v1.0712h1.7452v4.6119l-6.8535 0.015z"/><path d="m72.539 183.87 2e-3 -7.0242-2.8056-9.6e-4v0.67597l2.2553-1e-3v0.87506l-0.22259 7e-3 -5.64e-4 4.8323c-2.3858 9.4e-4 -4.8121 0.0124-6.8546 0.0128v4e-5l-4.83e-4 -4.8452-0.22259-7e-3v-0.87506l2.242 1e-3v-0.67597l-2.7924 9.6e-4c4.08e-4 2.3412 0.0022 4.6824 0.0022 7.0237 2.7992 3.3e-4 5.5983 6.8e-4 8.3975 1e-3z" fill="#ebebeb"/></g></g></g><g transform="matrix(-2.054 0 0 -2.054 513.42 1201)"><g transform="translate(.6581 -19.12)"><g transform="matrix(1.0029 0 0 .99453 91.221 226.26)"><path d="m64.141 183.87h8.4v-7.0242h-8.4z" fill="#ebebeb" stroke="#000" stroke-width=".46956"/><g transform="matrix(.0080517 0 0 .0080487 51.527 212.79)"><path d="m2609.9-3593.3v-872.71h-1043.3v872.71z" fill="none" stroke="#000" stroke-linecap="square" stroke-width=".67568"/></g><path d="m64.912 178.62h1.7532l-0.0026-1.0712 0.63806-5.7e-4v-0.40106h2.0566l-4.83e-4 0.40211h0.66414v1.0712h1.7452v4.6119l-6.8535 0.015z"/><path d="m72.539 183.87 2e-3 -7.0242-2.8056-9.6e-4v0.67597l2.2553-1e-3v0.87506l-0.22259 7e-3 -5.64e-4 4.8323c-2.3858 9.4e-4 -4.8121 0.0124-6.8546 0.0128v4e-5l-4.83e-4 -4.8452-0.22259-7e-3v-0.87506l2.242 1e-3v-0.67597l-2.7924 9.6e-4c4.08e-4 2.3412 0.0022 4.6824 0.0022 7.0237 2.7992 3.3e-4 5.5983 6.8e-4 8.3975 1e-3z" fill="#ebebeb"/></g></g></g><g transform="matrix(-2.054 0 0 -2.054 557.77 1201)"><g transform="translate(.6581 -19.12)"><g transform="matrix(1.0029 0 0 .99453 91.221 226.26)"><path d="m64.141 183.87h8.4v-7.0242h-8.4z" fill="#ebebeb" stroke="#000" stroke-width=".46956"/><g transform="matrix(.0080517 0 0 .0080487 51.527 212.79)"><path d="m2609.9-3593.3v-872.71h-1043.3v872.71z" fill="none" stroke="#000" stroke-linecap="square" stroke-width=".67568"/></g><path d="m64.912 178.62h1.7532l-0.0026-1.0712 0.63806-5.7e-4v-0.40106h2.0566l-4.83e-4 0.40211h0.66414v1.0712h1.7452v4.6119l-6.8535 0.015z"/><path d="m72.539 183.87 2e-3 -7.0242-2.8056-9.6e-4v0.67597l2.2553-1e-3v0.87506l-0.22259 7e-3 -5.64e-4 4.8323c-2.3858 9.4e-4 -4.8121 0.0124-6.8546 0.0128v4e-5l-4.83e-4 -4.8452-0.22259-7e-3v-0.87506l2.242 1e-3v-0.67597l-2.7924 9.6e-4c4.08e-4 2.3412 0.0022 4.6824 0.0022 7.0237 2.7992 3.3e-4 5.5983 6.8e-4 8.3975 1e-3z" fill="#ebebeb"/></g></g></g><g transform="matrix(-2.054 0 0 -2.054 581.14 1201)"><g transform="translate(.6581 -19.12)"><g transform="matrix(1.0029 0 0 .99453 91.221 226.26)"><path d="m64.141 183.87h8.4v-7.0242h-8.4z" fill="#ebebeb" stroke="#000" stroke-width=".46956"/><g transform="matrix(.0080517 0 0 .0080487 51.527 212.79)"><path d="m2609.9-3593.3v-872.71h-1043.3v872.71z" fill="none" stroke="#000" stroke-linecap="square" stroke-width=".67568"/></g><path d="m64.912 178.62h1.7532l-0.0026-1.0712 0.63806-5.7e-4v-0.40106h2.0566l-4.83e-4 0.40211h0.66414v1.0712h1.7452v4.6119l-6.8535 0.015z"/><path d="m72.539 183.87 2e-3 -7.0242-2.8056-9.6e-4v0.67597l2.2553-1e-3v0.87506l-0.22259 7e-3 -5.64e-4 4.8323c-2.3858 9.4e-4 -4.8121 0.0124-6.8546 0.0128v4e-5l-4.83e-4 -4.8452-0.22259-7e-3v-0.87506l2.242 1e-3v-0.67597l-2.7924 9.6e-4c4.08e-4 2.3412 0.0022 4.6824 0.0022 7.0237 2.7992 3.3e-4 5.5983 6.8e-4 8.3975 1e-3z" fill="#ebebeb"/></g></g></g><g transform="matrix(-2.054 0 0 -2.054 604.52 1201)"><g transform="translate(.6581 -19.12)"><g transform="matrix(1.0029 0 0 .99453 91.221 226.26)"><path d="m64.141 183.87h8.4v-7.0242h-8.4z" fill="#ebebeb" stroke="#000" stroke-width=".46956"/><g transform="matrix(.0080517 0 0 .0080487 51.527 212.79)"><path d="m2609.9-3593.3v-872.71h-1043.3v872.71z" fill="none" stroke="#000" stroke-linecap="square" stroke-width=".67568"/></g><path d="m64.912 178.62h1.7532l-0.0026-1.0712 0.63806-5.7e-4v-0.40106h2.0566l-4.83e-4 0.40211h0.66414v1.0712h1.7452v4.6119l-6.8535 0.015z"/><path d="m72.539 183.87 2e-3 -7.0242-2.8056-9.6e-4v0.67597l2.2553-1e-3v0.87506l-0.22259 7e-3 -5.64e-4 4.8323c-2.3858 9.4e-4 -4.8121 0.0124-6.8546 0.0128v4e-5l-4.83e-4 -4.8452-0.22259-7e-3v-0.87506l2.242 1e-3v-0.67597l-2.7924 9.6e-4c4.08e-4 2.3412 0.0022 4.6824 0.0022 7.0237 2.7992 3.3e-4 5.5983 6.8e-4 8.3975 1e-3z" fill="#ebebeb"/></g></g></g><g transform="matrix(-2.054 0 0 -2.054 627.89 1201)"><g transform="translate(.6581 -19.12)"><g transform="matrix(1.0029 0 0 .99453 91.221 226.26)"><path d="m64.141 183.87h8.4v-7.0242h-8.4z" fill="#ebebeb" stroke="#000" stroke-width=".46956"/><g transform="matrix(.0080517 0 0 .0080487 51.527 212.79)"><path d="m2609.9-3593.3v-872.71h-1043.3v872.71z" fill="none" stroke="#000" stroke-linecap="square" stroke-width=".67568"/></g><path d="m64.912 178.62h1.7532l-0.0026-1.0712 0.63806-5.7e-4v-0.40106h2.0566l-4.83e-4 0.40211h0.66414v1.0712h1.7452v4.6119l-6.8535 0.015z"/><path d="m72.539 183.87 2e-3 -7.0242-2.8056-9.6e-4v0.67597l2.2553-1e-3v0.87506l-0.22259 7e-3 -5.64e-4 4.8323c-2.3858 9.4e-4 -4.8121 0.0124-6.8546 0.0128v4e-5l-4.83e-4 -4.8452-0.22259-7e-3v-0.87506l2.242 1e-3v-0.67597l-2.7924 9.6e-4c4.08e-4 2.3412 0.0022 4.6824 0.0022 7.0237 2.7992 3.3e-4 5.5983 6.8e-4 8.3975 1e-3z" fill="#ebebeb"/></g></g></g><g transform="matrix(-2.054 0 0 -2.054 651.27 1201)"><g transform="translate(.6581 -19.12)"><g transform="matrix(1.0029 0 0 .99453 91.221 226.26)"><path d="m64.141 183.87h8.4v-7.0242h-8.4z" fill="#ebebeb" stroke="#000" stroke-width=".46956"/><g transform="matrix(.0080517 0 0 .0080487 51.527 212.79)"><path d="m2609.9-3593.3v-872.71h-1043.3v872.71z" fill="none" stroke="#000" stroke-linecap="square" stroke-width=".67568"/></g><path d="m64.912 178.62h1.7532l-0.0026-1.0712 0.63806-5.7e-4v-0.40106h2.0566l-4.83e-4 0.40211h0.66414v1.0712h1.7452v4.6119l-6.8535 0.015z"/><path d="m72.539 183.87 2e-3 -7.0242-2.8056-9.6e-4v0.67597l2.2553-1e-3v0.87506l-0.22259 7e-3 -5.64e-4 4.8323c-2.3858 9.4e-4 -4.8121 0.0124-6.8546 0.0128v4e-5l-4.83e-4 -4.8452-0.22259-7e-3v-0.87506l2.242 1e-3v-0.67597l-2.7924 9.6e-4c4.08e-4 2.3412 0.0022 4.6824 0.0022 7.0237 2.7992 3.3e-4 5.5983 6.8e-4 8.3975 1e-3z" fill="#ebebeb"/></g></g></g><g><path d="m57.477 394.18h5.8605v0.8022h-5.8605zm10.384 0h4.5903v0.8022h-4.5903zm5.0806 0h5.036v0.8022h-5.036zm5.4438 0 5.7869 0.0222v0.78059l-5.7869-5.7e-4zm8.9734 0.0222h5.7936v0.78059h-5.7936zm10.718 0 7.1306 6e-5c-0.45194 0.43339-0.98735 0.65229-1.5821 0.7783l-4.011-5e-3c-0.59712-0.071-1.0709-0.41313-1.5375-0.7731zm9.2921 6e-5h5.1029v0.77982h-5.1029zm6.2523 0h2.9061v0.75762l-2.5241 0.0237zm-55.231-1.3814c0.20245-0.0825 0.30606-0.25569 0.43396-0.42339h3.0032c0.11494 0.21418 0.27999 0.31151 0.48471 0.42339l1.025 0.0445v1.0473h-5.8605v-1.0473c0.30457-0.0126 0.60912-0.0293 0.91361-0.0445zm9.4704 0.0445c0.58362 0.0241 1.0842-0.0649 1.4707-0.46796h2.4546c0.20069 0.27043 0.3951 0.39689 0.66503 0.46796v1.0473h-4.5903zm5.0806 0c0.33764 0.0332 0.50925-0.1904 0.65279-0.46799h2.8902c0.3892 0.4867 0.95038 0.43707 1.493 0.46799v1.0472h-5.036zm6.3507-0.0445c0.25542-0.0674 0.43388-0.20385 0.55708-0.4234l2.8745 1e-5c0.20033 0.18651 0.39208 0.32925 0.6374 0.44565l0.811 0.0223v1.0473l-5.7869 3e-5v-1.0194zm8.0665 0.0445 0.44569-0.0222c0.45528 0.0291 0.77309-0.10488 1.025-0.44565h2.9469c0.22833 0.38083 0.50238 0.42426 0.93038 0.44565l0.44566 0.0222 0.02514 1.0473h-5.8188zm10.092-0.44567 3.1224-0.0235c0.14098 0.22992 0.33641 0.33539 0.57049 0.44646h1.0116c0.22435-0.10023 0.36144-0.26356 0.51534-0.44646h3.1391c5e-3 0.54336-0.13355 1.042-0.34645 1.5164h-7.6411c-0.24396-0.53798-0.33842-0.96173-0.37143-1.493zm9.9188 0.31196 0.84676-0.0479c0.16238-0.0666 0.28034-0.15562 0.38973-0.28744h2.7915c0.0808 0.15677 0.27548 0.21787 0.42866 0.28744 0.16916 5.6e-4 0.47707 0.0474 0.64622 0.0479v1.1811h-5.1029zm5.0228-0.33542h4.1357v1.5164h-3.099zm-53.567-1.7371h7.5657c-0.35493 0.67111-1.1416 1.1558-1.7969 1.3372h-2.7656v0.17827h-3.0032zm10.507 0h7.1529v1.5167h-2.8902v-0.62533h-1.808v0.62533h-2.4546zm10.518-3e-5h2.8745v1.5153l-2.8745-2e-5zm8.9801 3e-5h2.8745v1.5153h-2.8745zm8.6208 2e-5h3.1224v1.5153h-3.1224zm5.2198-2e-5h3.1391v1.5153h-3.1391zm6.1028 0h7.7546v1.5153h-4.3452l-0.9359-1.3374h-0.0828v1.181l0.07 0.15641h-2.4607c0-0.50581-3e-5 -1.0095-3e-5 -1.5153zm-52.366-1.7827h2.0501v1.5153h-2.0501zm2.4172 0h3.0032v1.2256h1.2721c0.08663-0.0971 0.17327-0.19406 0.25991-0.29108v-0.93574l3.1419 1.3e-4c0.03218 0.54634 0.03501 0.98861-0.02867 1.5181l-7.6484-1.4e-4zm8.0421-8.5e-4h1.9748v1.5181h-1.9748zm2.465 0h2.4546c0.0086 0.25997-0.0086 0.54381 0 0.80379h1.808c0.0086-0.25998-0.0086-0.52013 0-0.78011h2.8902v1.4944h-7.1529zm7.6582 0.0237h2.4361v1.4707h-2.4361zm2.8595-0.11258 2.8745 0.0235v1.5598h-2.8745zm3.3425 0.0903h2.4512v1.5153h-2.4512zm2.7631 0h2.4512v1.5153h-2.4512zm2.8745-0.0669h2.8522l0.02429 1.5821-2.8766 2e-5zm3.3202 0.0656h2.4512v1.5164h-2.4512zm2.83 0h2.0278v1.5164h-2.0278zm2.4707 0h3.1224v1.5164h-3.1224zm5.2198-2.8e-4h3.1391v1.5184h-3.1391zm3.6292 0h2.0272v1.5184h-2.0272zm2.4736 0 4.485 1e-3c0.23564 0.34081 0.47129 0.68371 0.70694 1.0245h0.11135v-1.025h2.4512v1.5174h-7.7546zm-52.366-0.7225c-0.05398-0.41009 0.11611-0.68887 0.28968-1.0362l9.5197-0.0227c0.27364 0.47845 0.31918 1.0234 0.28493 1.5616l-3.1419-0.0236c-0.08872-0.0747-0.23008-0.12544-0.31882-0.20009h-4.2047l-0.37882 0.20009h-2.0501zm10.459-0.51806 0.25895-0.54084h9.0373c0.18949 0.13673 0.24022 0.39168 0.32158 0.60209v0.95947h-2.8902c-0.10779-0.0747-0.21557-0.14897-0.32336-0.22367h-4.0662c-0.08828 0.0742-0.17655 0.1494-0.26482 0.22367h-2.0733zm10.123-0.0725c0.03106-0.13988 0.04969-0.29241 0.25238-0.44566h8.3785v1.5153h-2.4657c-0.08367-0.10672-0.1971-0.13764-0.31388-0.2001h-3.1545c-0.06977 0.0742-0.13956 0.14815-0.20934 0.22243h-2.4875c0.0099-0.36398-0.0099-0.72795 0-1.0919zm9.2102-0.44566 8.4008-0.0227v1.538l-2.4512 0.0237-0.34455-0.22379h-3.1249l-0.26481 0.22237h-2.4605c-0.03424-0.64278 0.03647-1.0572 0.24508-1.5375zm8.7796 0.26742c0.04497-0.0891 0.08993-0.17827 0.1349-0.2674 3.4132-7e-3 6.8263-0.0152 10.239-0.0226 0.38015 0.41773 0.4823 1.0589 0.45524 1.5379h-3.1391c-0.0927-0.20504-0.25327-0.18333-0.43965-0.2001h-4.8264c-0.19972 0.0681-0.28862 0.032-0.39873 0.2001h-2.0257zm11.515-0.29003h11.414v1.2036h-1.025c-0.11882 0.11881-0.23769 0.23769-0.35654 0.35653h-2.4819c-0.15251-0.21306-0.3902-0.33205-0.61546-0.45107h-4.6349c-0.34034 0.16165-0.33722 0.24905-0.46877 0.45102h-2.0272c6e-3 -0.58362 0.044-1.2031 0.19575-1.5601zm-48.375-0.8466 6.7906-4e-3c0.44531 0.10109 0.83098 0.28888 1.1374 0.62741l-9.1655-1e-5c0.31042-0.37819 0.78229-0.50534 1.2376-0.62393zm10.343-4e-3h6.1335c0.57089 0.0664 1.0589 0.3429 1.376 0.62741h-8.6066c0.2467-0.34564 0.77196-0.50894 1.0971-0.62741zm10.158 4e-3h7.0228v0.62393l-8.2671-4e-3c0.33976-0.35722 0.77939-0.49969 1.2443-0.62078zm8.9595 0 7.0212-1e-3v0.62549l-8.2158 5.6e-4c0.3213-0.39506 0.76012-0.50344 1.1946-0.62393zm8.9357-1e-3h7.7343c0.39141 0.0994 0.64827 0.36075 0.93589 0.62549h-9.8715c0.27549-0.34189 0.79411-0.51817 1.2012-0.62549zm11.344 0h10.05v0.62605h-11.247c0.3-0.38167 0.74723-0.50614 1.1977-0.62605z" stroke-width=".044566"/><g stroke-width="1px"><g aria-label="SN 4638"><path d="m129.78 392.14c0-2.5467-4.4933-2.2533-4.4933-4.04 0.0667-1.1067 0.98667-1.68 2.3467-1.6933 0.74666 0 1.7067 0.24 2.1467 0.6l0.54667-0.92c-0.66667-0.41333-1.48-0.65333-2.5867-0.65333-1.8133 0-3.4933 0.81333-3.5733 2.84 0 2.5467 4.4933 2.2533 4.4933 4.04-0.04 0.94666-1.0267 1.6533-2.4933 1.6933-1.0533 0-2.04-0.4-2.5067-0.73333l-0.56 0.92c0.66667 0.4 1.4933 0.78666 2.9067 0.78666 2.0667-0.0533 3.72-1.0533 3.7733-2.84z"/><path d="m131.85 385.62-1.3067 9.2267h1.1067l1.1067-7.8267 3.8 7.8267h1.5333l1.3067-9.2267h-1.1067l-1.1067 7.8267-3.8133-7.8267z"/><path d="m147.23 391.65h-3.1867l3.9067-5.12zm2.28 0h-1.1733l0.85333-6.0267h-1.6667l-4.7867 6.2533-0.0933 0.65333h4.4667l-0.33333 2.3467h1.1067l0.33334-2.3467h1.1733z"/><path d="m152.81 394.09c-1.16 0-1.5067-1.1333-1.5067-2.4267 0-0.34666 0.0267-0.70666 0.0667-1.0533 0.65333-0.28 1.24-0.42667 1.7733-0.42667 1.3467 0 1.9467 0.44 1.9467 1.4-0.04 1.68-1.08 2.5467-2.28 2.5067zm3.3733-2.5467c0-1.4133-0.89333-2.2933-2.5067-2.2933-0.68 0-1.4267 0.17333-2.1867 0.53333 0.36-1.84 1.2-3.4533 2.9733-3.4533 0.81334 0 1.2667 0.22667 1.5467 0.42667l0.53333-0.76c-0.22666-0.24-0.74666-0.56-1.88-0.56-2.92 0.04-4.36 2.88-4.4667 6.1333 0 1.8267 0.70666 3.4133 2.5067 3.4133 1.96-0.0133 3.44-1.2667 3.48-3.44z"/><path d="m162.99 391.89c0-1.16-0.66667-1.64-1.6-1.88 0.85333-0.42667 1.72-1.1733 1.7467-2.56 0-1.1733-0.84-2.0133-2.3867-2.0133-0.97333 0-1.68 0.36-2.6267 0.90666l0.33334 0.74667c0.61333-0.37333 1.3467-0.77333 2.1733-0.77333 0.89333 0 1.3867 0.46666 1.3867 1.28 0.0133 1.32-1.2533 2.1333-2.28 2.16h-0.6l-0.12 0.88h0.78666c0.49334 0 2.0667 0.16 2.0667 1.4533-0.0533 1.44-1.1333 2.0133-2.4667 2.0133-0.89333 0-1.6-0.30666-2.1067-0.66666l-0.54667 0.74666c0.78667 0.53334 1.4 0.8 2.6267 0.8 1.8933 0 3.6-0.92 3.6133-3.0933z"/><path d="m166.74 394.1c-0.89334 0-1.6667-0.6-1.6667-1.6267 0-0.0933 0-0.2 0.0133-0.30667 0.04-0.30667 0.21334-1.0533 1.64-1.8 1.0533 0.57333 2.1733 1.04 2.1733 1.9067-0.08 1.1867-1.0933 1.8133-2.16 1.8267zm3.2933-2.0267c0-0.93334-0.78667-1.4933-1.6667-1.96 1.2-0.62667 1.68-1.52 1.7867-2.28 0.0267-0.16 0.04-0.30667 0.04-0.45334 0-1.4667-1.16-1.9467-2.3733-1.9467-1.44 0-2.8933 0.92-2.9733 2.7067 0 0.8 0.49334 1.3333 1.1333 1.7733-1.6 0.77333-1.9467 1.9067-2.0133 2.3733-0.0267 0.14667-0.0267 0.29333-0.0267 0.42667 0 1.48 1.1867 2.2667 2.7467 2.2667 1.7467-0.0133 3.2267-1.08 3.3467-2.9067zm-2.2667-5.76c0.56 0 1.2933 0.25333 1.2933 1.2667 0 0.10667-0.0133 0.22667-0.0267 0.34667-0.0667 0.52-0.30667 1.2133-1.4267 1.8-0.88-0.44-1.6533-0.89333-1.6533-1.6133 0.0667-1.1467 1.04-1.8 1.8133-1.8z"/></g><g aria-label="ETH 0/0"><path d="m150.88 415.59h2.4583v0.4427h-1.9323v1.151h1.8516v0.44271h-1.8516v1.4088h1.9792v0.44271h-2.5052z"/><path d="m153.32 415.59h3.2891v0.4427h-1.3802v3.4453h-0.52865v-3.4453h-1.3802z"/><path d="m156.72 415.59h0.52604v1.5938h1.9115v-1.5938h0.52604v3.888h-0.52604v-1.8516h-1.9115v1.8516h-0.52604z"/><path d="m162.8 415.94q-0.40625 0-0.61198 0.40104-0.20312 0.39844-0.20312 1.2005 0 0.79948 0.20312 1.2005 0.20573 0.39844 0.61198 0.39844 0.40885 0 0.61198-0.39844 0.20573-0.40104 0.20573-1.2005 0-0.80208-0.20573-1.2005-0.20313-0.40104-0.61198-0.40104zm0-0.41667q0.65365 0 0.9974 0.51823 0.34635 0.51563 0.34635 1.5 0 0.98177-0.34635 1.5-0.34375 0.51563-0.9974 0.51563t-1-0.51563q-0.34375-0.51823-0.34375-1.5 0-0.98437 0.34375-1.5 0.34635-0.51823 1-0.51823z"/><path d="m165.45 415.59h0.44271l-1.3542 4.3828h-0.44271z"/><path d="m167.2 415.94q-0.40625 0-0.61198 0.40104-0.20313 0.39844-0.20313 1.2005 0 0.79948 0.20313 1.2005 0.20573 0.39844 0.61198 0.39844 0.40885 0 0.61198-0.39844 0.20572-0.40104 0.20572-1.2005 0-0.80208-0.20572-1.2005-0.20313-0.40104-0.61198-0.40104zm0-0.41667q0.65364 0 0.99739 0.51823 0.34636 0.51563 0.34636 1.5 0 0.98177-0.34636 1.5-0.34375 0.51563-0.99739 0.51563-0.65365 0-1-0.51563-0.34375-0.51823-0.34375-1.5 0-0.98437 0.34375-1.5 0.34635-0.51823 1-0.51823z"/></g><g aria-label="ETH 0/1"><path d="m175.16 415.59h2.4583v0.4427h-1.9323v1.151h1.8516v0.44271h-1.8516v1.4088h1.9792v0.44271h-2.5052z"/><path d="m177.6 415.59h3.2891v0.4427h-1.3802v3.4453h-0.52865v-3.4453h-1.3802z"/><path d="m181 415.59h0.52605v1.5938h1.9114v-1.5938h0.52605v3.888h-0.52605v-1.8516h-1.9114v1.8516h-0.52605z"/><path d="m187.08 415.94q-0.40625 0-0.61198 0.40104-0.20312 0.39844-0.20312 1.2005 0 0.79948 0.20312 1.2005 0.20573 0.39844 0.61198 0.39844 0.40886 0 0.61198-0.39844 0.20573-0.40104 0.20573-1.2005 0-0.80208-0.20573-1.2005-0.20312-0.40104-0.61198-0.40104zm0-0.41667q0.65365 0 0.9974 0.51823 0.34635 0.51563 0.34635 1.5 0 0.98177-0.34635 1.5-0.34375 0.51563-0.9974 0.51563-0.65364 0-1-0.51563-0.34375-0.51823-0.34375-1.5 0-0.98437 0.34375-1.5 0.34636-0.51823 1-0.51823z"/><path d="m189.73 415.59h0.44271l-1.3542 4.3828h-0.44271z"/><path d="m190.44 419.04h0.85937v-2.9662l-0.9349 0.1875v-0.47916l0.92969-0.1875h0.52604v3.4453h0.85938v0.44271h-2.2396z"/></g><g aria-label="BRI 0/0"><path d="m220.82 417.63v1.4245h0.84375q0.42448 0 0.62761-0.17448 0.20573-0.17709 0.20573-0.53907 0-0.36458-0.20573-0.53645-0.20313-0.17448-0.62761-0.17448zm0-1.599v1.1719h0.77865q0.38542 0 0.57292-0.14323 0.1901-0.14583 0.1901-0.4427 0-0.29428-0.1901-0.44011-0.1875-0.14583-0.57292-0.14583zm-0.52604-0.43229h1.3438q0.60156 0 0.92708 0.25 0.32553 0.25 0.32553 0.71093 0 0.35677-0.16667 0.56771t-0.48958 0.26302q0.38802 0.0833 0.60156 0.34896 0.21614 0.26302 0.21614 0.65886 0 0.52083-0.35416 0.80468-0.35417 0.28386-1.0078 0.28386h-1.3958z"/><path d="m225.39 417.66q0.16927 0.0573 0.32813 0.24479 0.16145 0.1875 0.32291 0.51563l0.53386 1.0625h-0.56511l-0.49739-0.9974q-0.19271-0.39062-0.375-0.51823-0.17969-0.1276-0.49219-0.1276h-0.57292v1.6432h-0.52604v-3.888h1.1875q0.66667 0 0.99479 0.27864 0.32813 0.27865 0.32813 0.84115 0 0.36719-0.17188 0.60937-0.16927 0.24219-0.49479 0.33594zm-1.3177-1.6328v1.3802h0.66146q0.38021 0 0.57292-0.17448 0.19531-0.17709 0.19531-0.51823 0-0.34115-0.19531-0.51302-0.19271-0.17448-0.57292-0.17448z"/><path d="m226.86 415.59h0.52605v3.888h-0.52605z"/><path d="m230.5 415.94q-0.40625 0-0.61198 0.40104-0.20312 0.39844-0.20312 1.2005 0 0.79948 0.20312 1.2005 0.20573 0.39844 0.61198 0.39844 0.40886 0 0.61198-0.39844 0.20573-0.40104 0.20573-1.2005 0-0.80208-0.20573-1.2005-0.20312-0.40104-0.61198-0.40104zm0-0.41667q0.65365 0 0.9974 0.51823 0.34635 0.51563 0.34635 1.5 0 0.98177-0.34635 1.5-0.34375 0.51563-0.9974 0.51563-0.65364 0-1-0.51563-0.34375-0.51823-0.34375-1.5 0-0.98437 0.34375-1.5 0.34636-0.51823 1-0.51823z"/><path d="m233.15 415.59h0.44271l-1.3542 4.3828h-0.44271z"/><path d="m234.9 415.94q-0.40625 0-0.61198 0.40104-0.20312 0.39844-0.20312 1.2005 0 0.79948 0.20312 1.2005 0.20573 0.39844 0.61198 0.39844 0.40885 0 0.61198-0.39844 0.20573-0.40104 0.20573-1.2005 0-0.80208-0.20573-1.2005-0.20313-0.40104-0.61198-0.40104zm0-0.41667q0.65365 0 0.9974 0.51823 0.34635 0.51563 0.34635 1.5 0 0.98177-0.34635 1.5-0.34375 0.51563-0.9974 0.51563t-1-0.51563q-0.34375-0.51823-0.34375-1.5 0-0.98437 0.34375-1.5 0.34635-0.51823 1-0.51823z"/></g><g aria-label="BRI 0/1"><path d="m244.26 417.63v1.4245h0.84375q0.42448 0 0.62761-0.17448 0.20572-0.17709 0.20572-0.53907 0-0.36458-0.20572-0.53645-0.20313-0.17448-0.62761-0.17448zm0-1.599v1.1719h0.77865q0.38541 0 0.57291-0.14323 0.19011-0.14583 0.19011-0.4427 0-0.29428-0.19011-0.44011-0.1875-0.14583-0.57291-0.14583zm-0.52604-0.43229h1.3438q0.60156 0 0.92708 0.25t0.32552 0.71093q0 0.35677-0.16666 0.56771-0.16667 0.21094-0.48959 0.26302 0.38802 0.0833 0.60157 0.34896 0.21614 0.26302 0.21614 0.65886 0 0.52083-0.35416 0.80468-0.35417 0.28386-1.0078 0.28386h-1.3958z"/><path d="m248.83 417.66q0.16927 0.0573 0.32812 0.24479 0.16146 0.1875 0.32292 0.51563l0.53386 1.0625h-0.56511l-0.49739-0.9974q-0.19271-0.39062-0.375-0.51823-0.17969-0.1276-0.49219-0.1276h-0.57292v1.6432h-0.52604v-3.888h1.1875q0.66667 0 0.99479 0.27864 0.32813 0.27865 0.32813 0.84115 0 0.36719-0.17188 0.60937-0.16927 0.24219-0.49479 0.33594zm-1.3177-1.6328v1.3802h0.66146q0.38021 0 0.57292-0.17448 0.19531-0.17709 0.19531-0.51823 0-0.34115-0.19531-0.51302-0.19271-0.17448-0.57292-0.17448z"/><path d="m250.3 415.59h0.52604v3.888h-0.52604z"/><path d="m253.94 415.94q-0.40625 0-0.61198 0.40104-0.20312 0.39844-0.20312 1.2005 0 0.79948 0.20312 1.2005 0.20573 0.39844 0.61198 0.39844 0.40886 0 0.61198-0.39844 0.20573-0.40104 0.20573-1.2005 0-0.80208-0.20573-1.2005-0.20312-0.40104-0.61198-0.40104zm0-0.41667q0.65365 0 0.9974 0.51823 0.34635 0.51563 0.34635 1.5 0 0.98177-0.34635 1.5-0.34375 0.51563-0.9974 0.51563-0.65364 0-1-0.51563-0.34375-0.51823-0.34375-1.5 0-0.98437 0.34375-1.5 0.34636-0.51823 1-0.51823z"/><path d="m256.6 415.59h0.44271l-1.3542 4.3828h-0.44271z"/><path d="m257.31 419.04h0.85938v-2.9662l-0.9349 0.1875v-0.47916l0.92969-0.1875h0.52604v3.4453h0.85938v0.44271h-2.2396z"/></g><g aria-label="BRI 0/2"><path d="m267.66 417.63v1.4245h0.84375q0.42448 0 0.62761-0.17448 0.20573-0.17709 0.20573-0.53907 0-0.36458-0.20573-0.53645-0.20313-0.17448-0.62761-0.17448zm0-1.599v1.1719h0.77865q0.38542 0 0.57292-0.14323 0.1901-0.14583 0.1901-0.4427 0-0.29428-0.1901-0.44011-0.1875-0.14583-0.57292-0.14583zm-0.52604-0.43229h1.3438q0.60156 0 0.92708 0.25 0.32553 0.25 0.32553 0.71093 0 0.35677-0.16667 0.56771t-0.48958 0.26302q0.38802 0.0833 0.60156 0.34896 0.21614 0.26302 0.21614 0.65886 0 0.52083-0.35416 0.80468-0.35417 0.28386-1.0078 0.28386h-1.3958z"/><path d="m272.23 417.66q0.16927 0.0573 0.32813 0.24479 0.16145 0.1875 0.32291 0.51563l0.53386 1.0625h-0.56511l-0.49739-0.9974q-0.19271-0.39062-0.375-0.51823-0.17969-0.1276-0.49219-0.1276h-0.57292v1.6432h-0.52604v-3.888h1.1875q0.66667 0 0.99479 0.27864 0.32813 0.27865 0.32813 0.84115 0 0.36719-0.17188 0.60937-0.16927 0.24219-0.49479 0.33594zm-1.3177-1.6328v1.3802h0.66146q0.38021 0 0.57292-0.17448 0.19531-0.17709 0.19531-0.51823 0-0.34115-0.19531-0.51302-0.19271-0.17448-0.57292-0.17448z"/><path d="m273.69 415.59h0.52605v3.888h-0.52605z"/><path d="m277.34 415.94q-0.40625 0-0.61198 0.40104-0.20312 0.39844-0.20312 1.2005 0 0.79948 0.20312 1.2005 0.20573 0.39844 0.61198 0.39844 0.40886 0 0.61198-0.39844 0.20573-0.40104 0.20573-1.2005 0-0.80208-0.20573-1.2005-0.20312-0.40104-0.61198-0.40104zm0-0.41667q0.65365 0 0.9974 0.51823 0.34635 0.51563 0.34635 1.5 0 0.98177-0.34635 1.5-0.34375 0.51563-0.9974 0.51563-0.65364 0-1-0.51563-0.34375-0.51823-0.34375-1.5 0-0.98437 0.34375-1.5 0.34636-0.51823 1-0.51823z"/><path d="m279.99 415.59h0.44271l-1.3542 4.3828h-0.44271z"/><path d="m281.06 419.04h1.8359v0.44271h-2.4688v-0.44271q0.29948-0.3099 0.81511-0.83073 0.51823-0.52344 0.65104-0.67448 0.2526-0.28385 0.35156-0.47917 0.10156-0.19791 0.10156-0.38802 0-0.30989-0.21875-0.50521-0.21614-0.19531-0.5651-0.19531-0.2474 0-0.52344 0.0859-0.27344 0.0859-0.58594 0.26042v-0.53125q0.31771-0.12761 0.59375-0.19271 0.27605-0.0651 0.50521-0.0651 0.60417 0 0.96354 0.30209 0.35938 0.30208 0.35938 0.80729 0 0.23958-0.0911 0.45573-0.0885 0.21354-0.32552 0.50521-0.0651 0.0755-0.41406 0.4375-0.34896 0.35937-0.98438 1.0078z"/></g><g aria-label="BRI 0/3"><path d="m290.98 417.63v1.4245h0.84375q0.42448 0 0.6276-0.17448 0.20573-0.17709 0.20573-0.53907 0-0.36458-0.20573-0.53645-0.20312-0.17448-0.6276-0.17448zm0-1.599v1.1719h0.77865q0.38541 0 0.57291-0.14323 0.19011-0.14583 0.19011-0.4427 0-0.29428-0.19011-0.44011-0.1875-0.14583-0.57291-0.14583zm-0.52604-0.43229h1.3438q0.60156 0 0.92708 0.25t0.32552 0.71093q0 0.35677-0.16666 0.56771-0.16667 0.21094-0.48959 0.26302 0.38802 0.0833 0.60157 0.34896 0.21614 0.26302 0.21614 0.65886 0 0.52083-0.35417 0.80468-0.35416 0.28386-1.0078 0.28386h-1.3958z"/><path d="m295.55 417.66q0.16927 0.0573 0.32812 0.24479 0.16146 0.1875 0.32292 0.51563l0.53385 1.0625h-0.5651l-0.4974-0.9974q-0.1927-0.39062-0.375-0.51823-0.17968-0.1276-0.49218-0.1276h-0.57292v1.6432h-0.52604v-3.888h1.1875q0.66667 0 0.99479 0.27864 0.32813 0.27865 0.32813 0.84115 0 0.36719-0.17188 0.60937-0.16927 0.24219-0.49479 0.33594zm-1.3177-1.6328v1.3802h0.66146q0.38021 0 0.57292-0.17448 0.19531-0.17709 0.19531-0.51823 0-0.34115-0.19531-0.51302-0.19271-0.17448-0.57292-0.17448z"/><path d="m297.01 415.59h0.52604v3.888h-0.52604z"/><path d="m300.66 415.94q-0.40625 0-0.61198 0.40104-0.20312 0.39844-0.20312 1.2005 0 0.79948 0.20312 1.2005 0.20573 0.39844 0.61198 0.39844 0.40885 0 0.61198-0.39844 0.20573-0.40104 0.20573-1.2005 0-0.80208-0.20573-1.2005-0.20313-0.40104-0.61198-0.40104zm0-0.41667q0.65365 0 0.9974 0.51823 0.34635 0.51563 0.34635 1.5 0 0.98177-0.34635 1.5-0.34375 0.51563-0.9974 0.51563t-1-0.51563q-0.34375-0.51823-0.34375-1.5 0-0.98437 0.34375-1.5 0.34635-0.51823 1-0.51823z"/><path d="m303.31 415.59h0.44271l-1.3542 4.3828h-0.44271z"/><path d="m305.52 417.39q0.3776 0.0807 0.58854 0.33594 0.21354 0.25521 0.21354 0.63021 0 0.57552-0.39583 0.89062-0.39584 0.31511-1.125 0.31511-0.24479 0-0.50521-0.0495-0.25781-0.0469-0.53386-0.14323v-0.50781q0.21875 0.1276 0.47917 0.19271 0.26042 0.0651 0.54427 0.0651 0.49479 0 0.75261-0.19531 0.26041-0.19531 0.26041-0.56771 0-0.34375-0.24218-0.53646-0.23959-0.19531-0.66928-0.19531h-0.45312v-0.43229h0.47396q0.38802 0 0.59375-0.15365 0.20573-0.15625 0.20573-0.44792 0-0.29948-0.21354-0.45833-0.21094-0.16146-0.60678-0.16146-0.21614 0-0.46354 0.0469-0.24739 0.0469-0.54427 0.14583v-0.46875q0.29948-0.0833 0.5599-0.125 0.26302-0.0417 0.49479-0.0417 0.59896 0 0.94792 0.27344 0.34895 0.27083 0.34895 0.73438 0 0.32291-0.18489 0.54687-0.1849 0.22136-0.52604 0.30729z"/></g><g aria-label="BRI 0/4"><path d="m314.29 417.63v1.4245h0.84375q0.42448 0 0.62761-0.17448 0.20573-0.17709 0.20573-0.53907 0-0.36458-0.20573-0.53645-0.20313-0.17448-0.62761-0.17448zm0-1.599v1.1719h0.77865q0.38541 0 0.57291-0.14323 0.19011-0.14583 0.19011-0.4427 0-0.29428-0.19011-0.44011-0.1875-0.14583-0.57291-0.14583zm-0.52604-0.43229h1.3438q0.60156 0 0.92708 0.25t0.32552 0.71093q0 0.35677-0.16666 0.56771-0.16667 0.21094-0.48959 0.26302 0.38803 0.0833 0.60157 0.34896 0.21614 0.26302 0.21614 0.65886 0 0.52083-0.35416 0.80468-0.35417 0.28386-1.0078 0.28386h-1.3958z"/><path d="m318.86 417.66q0.16927 0.0573 0.32813 0.24479 0.16145 0.1875 0.32291 0.51563l0.53386 1.0625h-0.56511l-0.49739-0.9974q-0.19271-0.39062-0.375-0.51823-0.17969-0.1276-0.49219-0.1276h-0.57292v1.6432h-0.52604v-3.888h1.1875q0.66667 0 0.99479 0.27864 0.32813 0.27865 0.32813 0.84115 0 0.36719-0.17188 0.60937-0.16927 0.24219-0.49479 0.33594zm-1.3177-1.6328v1.3802h0.66146q0.38021 0 0.57292-0.17448 0.19531-0.17709 0.19531-0.51823 0-0.34115-0.19531-0.51302-0.19271-0.17448-0.57292-0.17448z"/><path d="m320.33 415.59h0.52605v3.888h-0.52605z"/><path d="m323.97 415.94q-0.40625 0-0.61198 0.40104-0.20312 0.39844-0.20312 1.2005 0 0.79948 0.20312 1.2005 0.20573 0.39844 0.61198 0.39844 0.40886 0 0.61198-0.39844 0.20573-0.40104 0.20573-1.2005 0-0.80208-0.20573-1.2005-0.20312-0.40104-0.61198-0.40104zm0-0.41667q0.65365 0 0.9974 0.51823 0.34635 0.51563 0.34635 1.5 0 0.98177-0.34635 1.5-0.34375 0.51563-0.9974 0.51563-0.65364 0-1-0.51563-0.34375-0.51823-0.34375-1.5 0-0.98437 0.34375-1.5 0.34636-0.51823 1-0.51823z"/><path d="m326.62 415.59h0.44271l-1.3542 4.3828h-0.44271z"/><path d="m328.69 416.05-1.3281 2.0755h1.3281zm-0.13802-0.45833h0.66146v2.5338h0.55469v0.4375h-0.55469v0.91667h-0.52344v-0.91667h-1.7552v-0.50781z"/></g></g></g></svg>
