<svg width="442" height="44.5" version="1.1" viewBox="66 376 442 44.5" xmlns="http://www.w3.org/2000/svg">
 <rect x="66.414" y="376.43" width="441.18" height="43.676" fill="#1e1616" stroke="#000" stroke-width=".82477"/>
 <g transform="translate(159.4 6.6248)">
  <path d="m310.52 392.96h-17.304v14.349h17.304z" fill="#ebebeb" stroke-width=".96323" style="stroke:#000"/>
  <path d="m293.22 392.96v14.349h17.304v-14.349z" fill="none" stroke-linecap="square" stroke-width=".011158" style="stroke:#000"/>
  <path d="m308.94 403.68h-3.6115l5e-3 2.1882-1.3144 1e-3v0.81927h-4.2365l1e-3 -0.82141h-1.3681v-2.1882h-3.595v-9.421l14.118-0.0306z" stroke-width="2.0513"/>
  <path d="m293.23 392.96-4e-3 14.349 5.7794 2e-3v-1.3808l-4.6458 2e-3v-1.7876l0.45853-0.0143 1e-3 -9.8713c4.9146-2e-3 9.9127-0.0253 14.12-0.0261v-9e-5l9.9e-4 9.8976 0.45853 0.0143v1.7875l-4.6184-2e-3v1.3808l5.7522-2e-3c-8.4e-4 -4.7825-5e-3 -9.565-5e-3 -14.348-5.7662-6.8e-4 -11.532-1e-3 -17.298-2e-3z" fill="#ebebeb" stroke-width="2.0513"/>
 </g>
 <g transform="translate(154.71 10.091)">
  <path d="m336.52 389.49h-17.304v14.349h17.304z" fill="#ebebeb" stroke="#000" stroke-width=".96323"/>
  <path d="m319.22 389.49v14.349h17.304v-14.349z" fill="none" stroke="#000" stroke-linecap="square" stroke-width=".011158"/>
  <path d="m334.93 400.21h-3.6115l5e-3 2.1882-1.3144 1e-3v0.81927h-4.2365l1e-3 -0.82141h-1.3681v-2.1882h-3.595v-9.421l14.118-0.0306z" stroke-width="2.0513"/>
  <path d="m319.22 389.49-4e-3 14.349 5.7794 2e-3v-1.3808l-4.6458 2e-3v-1.7876l0.45853-0.0143 1e-3 -9.8713c4.9146-2e-3 9.9127-0.0253 14.12-0.0261v-9e-5l9.9e-4 9.8976 0.45853 0.0143v1.7875l-4.6184-2e-3v1.3808l5.7522-2e-3c-8.4e-4 -4.7825-5e-3 -9.565-5e-3 -14.348-5.7662-6.8e-4 -11.532-1e-3 -17.298-2e-3z" fill="#ebebeb" stroke-width="2.0513"/>
 </g>
 <path d="m80.193 383.83h4.2859v0.58666h-4.2859zm7.5941 0h3.357v0.58666h-3.357zm3.7156 0h3.6829v0.58666h-3.6829zm3.9812 0 4.2321 0.0162v0.57086l-4.2321-4.1e-4zm6.5625 0.0162h4.237v0.57086h-4.237zm7.8383 0 5.2148 4e-5c-0.33051 0.31695-0.72207 0.47704-1.157 0.56919l-2.9333-4e-3c-0.43669-0.0519-0.78318-0.30213-1.1244-0.56539zm6.7955 4e-5h3.7319v0.57031h-3.7319zm4.5724 0h2.1253v0.55407l-1.8459 0.0173zm-40.392-1.0102c0.14806-0.0603 0.22383-0.18699 0.31736-0.30963h2.1963c0.08406 0.15663 0.20476 0.22781 0.35448 0.30963l0.74961 0.0326v0.76591h-4.2859v-0.76591c0.22274-9e-3 0.44546-0.0214 0.66814-0.0326zm6.9259 0.0326c0.42682 0.0176 0.7929-0.0475 1.0756-0.34223h1.7951c0.14677 0.19777 0.28895 0.29025 0.48635 0.34223v0.76591h-3.357zm3.7156 0c0.24692 0.0243 0.37243-0.13925 0.4774-0.34225h2.1137c0.28463 0.35593 0.69503 0.31964 1.0919 0.34225v0.76584h-3.6829zm4.6444-0.0326c0.1868-0.0493 0.31731-0.14908 0.40741-0.30964l2.1022 1e-5c0.14651 0.1364 0.28674 0.24079 0.46614 0.32591l0.5931 0.0163v0.76592l-4.2321 2e-5v-0.74551zm5.8992 0.0326 0.32595-0.0162c0.33295 0.0213 0.56538-0.0767 0.7496-0.32591h2.1551c0.16698 0.27851 0.3674 0.31027 0.68041 0.32591l0.32592 0.0162 0.0184 0.76591h-4.2554zm7.3805-0.32593 2.2835-0.0172c0.1031 0.16815 0.24603 0.24528 0.41722 0.32651h0.7398c0.16407-0.0733 0.26433-0.19275 0.37688-0.32651h2.2957c4e-3 0.39738-0.0977 0.76204-0.25337 1.109h-5.5881c-0.17842-0.39344-0.2475-0.70333-0.27164-1.0919zm7.2538 0.22814 0.61925-0.035c0.11876-0.0487 0.20502-0.11381 0.28502-0.21021h2.0415c0.0591 0.11465 0.20147 0.15933 0.31349 0.21021 0.12371 4.1e-4 0.34889 0.0347 0.4726 0.035v0.86377h-3.7319zm3.6733-0.2453h3.0245v1.109h-2.2664zm-39.175-1.2704h5.533c-0.25957 0.4908-0.83488 0.84526-1.3141 0.97793h-2.0225v0.13037h-2.1963zm7.684 0h5.2311v1.1092h-2.1137v-0.45732h-1.3222v0.45732h-1.7951zm7.6921-2e-5h2.1022v1.1082l-2.1022-1e-5zm6.5674 2e-5h2.1022v1.1082h-2.1022zm6.3046 2e-5h2.2835v1.1082h-2.2835zm3.8174-2e-5h2.2957v1.1082h-2.2957zm4.4631 0h5.6711v1.1082h-3.1778l-0.68445-0.97807h-0.0606v0.8637l0.0512 0.11438h-1.7996c0-0.36991-3e-5 -0.73827-3e-5 -1.1082zm-38.296-1.3037h1.4993v1.1082h-1.4993zm1.7678 0h2.1963v0.89631h0.93032c0.06333-0.071 0.12672-0.14192 0.19008-0.21287v-0.68433l2.2977 9e-5c0.02355 0.39955 0.0256 0.723-0.02099 1.1102l-5.5935-1.1e-4zm5.8814-6.2e-4h1.4442v1.1102h-1.4442zm1.8027 0h1.7951c0.0066 0.19012-0.0066 0.3977 0 0.58783h1.3222c0.0066-0.19013-0.0066-0.38038 0-0.57051h2.1137v1.0929h-5.2311zm5.6006 0.0173h1.7816v1.0756h-1.7816zm2.0912-0.0823 2.1022 0.0172v1.1407h-2.1022zm2.4444 0.066h1.7926v1.1082h-1.7926zm2.0207 0h1.7926v1.1082h-1.7926zm2.1022-0.0489h2.0859l0.0178 1.157-2.1037 1e-5zm2.4281 0.048h1.7926v1.109h-1.7926zm2.0696 0h1.483v1.109h-1.483zm1.8069 0h2.2835v1.109h-2.2835zm3.8174-2.1e-4h2.2957v1.1104h-2.2957zm2.6541 0h1.4825v1.1104h-1.4825zm1.809 0 3.28 7.3e-4c0.17233 0.24925 0.34466 0.50002 0.517 0.74924h0.0814v-0.7496h1.7926v1.1097h-5.6711zm-38.296-0.52838c-0.03949-0.29991 0.08491-0.50379 0.21185-0.7578l6.962-0.0166c0.20012 0.3499 0.23342 0.74844 0.20838 1.142l-2.2977-0.0173c-0.06487-0.0546-0.16826-0.0917-0.23316-0.14633h-3.075l-0.27704 0.14633h-1.4993zm7.6489-0.37887 0.18938-0.39553h6.6092c0.13858 0.1 0.17568 0.28645 0.23518 0.44032v0.70169h-2.1137c-0.07883-0.0546-0.15765-0.10895-0.23648-0.16358h-2.9737c-0.06458 0.0543-0.12912 0.10926-0.19367 0.16358h-1.5163zm7.4032-0.053c0.02275-0.1023 0.03635-0.21385 0.18457-0.32592h6.1274v1.1082h-1.8032c-0.06121-0.078-0.14414-0.10066-0.22955-0.14633h-2.307c-0.05105 0.0543-0.10206 0.10834-0.1531 0.16266h-1.8192c0.0073-0.26618-0.0073-0.53236 0-0.79853zm6.7356-0.32592 6.1437-0.0166v1.1248l-1.7926 0.0173-0.25198-0.16367h-2.2853l-0.19366 0.16263h-1.7994c-0.025-0.47008 0.0267-0.77316 0.17924-1.1244zm6.4207 0.19557c0.0329-0.0652 0.0658-0.13037 0.0987-0.19556 2.4962-5e-3 4.9922-0.0111 7.488-0.0165 0.27801 0.30549 0.35272 0.77439 0.33293 1.1247h-2.2957c-0.0678-0.14995-0.18522-0.13408-0.32153-0.14634h-3.5297c-0.14606 0.0498-0.21107 0.0234-0.2916 0.14634h-1.4814zm8.4212-0.21211h8.3473v0.88022h-0.74961c-0.0869 0.0869-0.17383 0.17383-0.26075 0.26074h-1.8151c-0.11153-0.15581-0.28536-0.24283-0.4501-0.32987h-3.3896c-0.2489 0.11821-0.24662 0.18213-0.34282 0.32984h-1.4825c4e-3 -0.42682 0.0322-0.87986 0.14316-1.1409zm-35.378-0.61913 4.9661-3e-3c0.32566 0.0739 0.60772 0.21126 0.83181 0.45884l-6.7029-1e-5c0.22702-0.27658 0.57211-0.36956 0.90508-0.45629zm7.5641-3e-3h4.4856c0.4175 0.0486 0.7744 0.25077 1.0063 0.45884h-6.2942c0.18042-0.25278 0.56455-0.3722 0.80234-0.45884zm7.4288 3e-3h5.1359v0.45629l-6.0459-3e-3c0.24848-0.26124 0.56999-0.36543 0.90999-0.45399zm6.5523 0 5.1348-7.4e-4v0.45744l-6.0084 4.1e-4c0.23497-0.28892 0.55589-0.36818 0.87364-0.4563zm6.5349-7.4e-4h5.6563c0.28624 0.0727 0.47409 0.26383 0.68443 0.45744h-7.2192c0.20147-0.25003 0.58075-0.37895 0.87846-0.45744zm8.2961 0h7.3498v0.45785h-8.2252c0.2194-0.27913 0.54647-0.37015 0.87591-0.45785z" stroke-width=".032592" style="fill:#fff"/>
 <g transform="translate(14.844 2.5978)">
  <rect x="65.052" y="386.96" width="58.889" height="27.14" rx="1.3878e-16" ry="1.3878e-16" fill="#3a3a3a" fill-rule="evenodd" stroke="#000" stroke-linecap="round" stroke-miterlimit="5.5" stroke-width=".5" style="fill:#ebebeb"/>
  <g transform="matrix(1.884 0 0 1.8691 -147.36 -245.74)">
   <path d="m113.63 340.44h1.7574l-3e-3 -1.0731 0.63956-5.7e-4v-0.40181h2.0614l-4.8e-4 0.40286h0.6657v1.0732l4.1044-5.8e-4 -3e-3 -1.0731 0.63956-5.7e-4v-0.40181h2.0614l-4.8e-4 0.40286h0.6657v1.0732l4.1867-5.8e-4 -3e-3 -1.0731 0.63956-5.7e-4v-0.40181h2.0614l-4.8e-4 0.40286h0.6657v1.0732l4.1856-5.8e-4 -3e-3 -1.0731 0.63956-5.7e-4v-0.40181h2.0614l-4.8e-4 0.40286h0.6657v1.0732h1.7493l0.0101 10.529h-1.7574l3e-3 1.0731-0.63956 5.7e-4v0.40181h-2.0614l4.8e-4 -0.40286h-0.6657v-1.0732l-4.1856 5.8e-4 3e-3 1.0731-0.63956 5.7e-4v0.40181h-2.0614l4.8e-4 -0.40286h-0.6657v-1.0732l-4.1867 5.8e-4 3e-3 1.0731-0.63956 5.7e-4v0.40181h-2.0614l4.8e-4 -0.40286h-0.6657v-1.0732l-4.1044 5.8e-4 3e-3 1.0731-0.63956 5.7e-4v0.40181h-2.0614l4.8e-4 -0.40286h-0.6657v-1.0732h-1.7493z"/>
  </g>
  <g transform="matrix(1.884 0 0 1.8691 -90.62 -245.74)">
   <path d="m85.543 338.66-2.7991 1e-3 0.0021 14.079 2.8115 1e-3v-0.67711l-2.26 1e-3v-0.87672l0.22289-7e-3v-4.8067l6.8711-4e-3 0.0011 4.8109 0.22289 7e-3v0.87672l-2.2476-1e-3v0.67711l2.3149-1e-3h0.0031l2.3398 1e-3v-0.67711l-2.2611 1e-3v-0.87672l0.22289-7e-3 0.0011-4.8067 6.8711-4e-3v4.8109l0.22289 7e-3v0.87672l-2.2476-1e-3v0.67711l2.3968-1e-3h0.0041l2.3388 1e-3v-0.67711l-2.2611 1e-3v-0.87672l0.22289-7e-3 0.0011-4.8067 6.8711-4e-3v4.8109l0.22289 7e-3v0.87672l-2.2465-1e-3v0.67711l2.3958-1e-3 2.343 1e-3v-0.67711l-2.2611 1e-3v-0.87672l0.22393-7e-3v-4.8067l6.8461-0.0449v4.8517l0.22393 7e-3v0.87672l-2.2476-1e-3v0.67711l2.7991-1e-3 -2e-3 -14.079-2.8126-1e-3v0.67711l2.2611-1e-3v0.87672l-0.22392 7e-3v4.8068l-6.8461 0.0439v-4.8506l-0.22289-7e-3v-0.87672l2.2476 1e-3v-0.67711l-2.3253 1e-3 -2.4145-1e-3v0.67711l2.2611-1e-3v0.87672l-0.22393 7e-3v4.836l-5e-3 5e-3 -6.8663 9e-3v-4.8506l-0.22289-7e-3v-0.87672l2.2465 1e-3v-0.67711l-2.3253 1e-3h-0.0041l-2.4093-1e-3v0.67711l2.26-1e-3v0.87672l-0.22289 7e-3v4.836l-0.0052 5e-3 -6.8663 9e-3v-4.8506l-0.22393-7e-3v-0.87672l2.2476 1e-3v-0.67711l-2.3253 1e-3h-0.0041l-2.3284-1e-3v0.67711l2.2611-1e-3v0.87672l-0.22289 7e-3 -0.0011 4.836-0.0041 5e-3 -6.8663 9e-3 -0.0011-4.8506-0.22289-7e-3v-0.87672l2.2476 1e-3v-0.67711z" fill="#ebebeb" stroke-width=".5329"/>
  </g>
 </g>
 <path d="m504.75 385.47c0 2.2121-1.7335 4.0082-3.8677 4.0082s-3.8663-1.7961-3.8663-4.0082c0-2.2135 1.7321-4.0097 3.8663-4.0097s3.8677 1.7961 3.8677 4.0097z" fill="#666" stroke-width=".099152" style="stroke:#000"/>
 <g transform="translate(1.5171 -.19681)">
  <g transform="translate(.0081)">
   <path d="m502.24 385.67c0 1.6389-1.2883 2.9704-2.8758 2.9704-1.5874 0-2.8744-1.3314-2.8744-2.9704 0-1.6389 1.2869-2.969 2.8744-2.969s2.8758 1.33 2.8758 2.969z" fill="#fff" stroke-width=".099152" style="fill:#1a1a1a;stroke:#000"/>
   <path d="m498.89 383.04v2.05h-2.05v1.0667h2.05v2.05h1.0667v-2.05h2.05v-1.0667h-2.05v-2.05z" color="#000000" color-rendering="auto" fill="#333" fill-rule="evenodd" image-rendering="auto" shape-rendering="auto" solid-color="#000000" stroke-width=".10667" style="fill:#000;isolation:auto;mix-blend-mode:normal;stroke:#000;text-decoration-color:#000000;text-decoration-line:none;text-decoration-style:solid;text-indent:0;text-transform:none;white-space:normal"/>
  </g>
  <g transform="translate(-.4189)">
   <path d="m503.66 411.26c0 2.2121-1.7335 4.0082-3.8677 4.0082s-3.8663-1.7961-3.8663-4.0082c0-2.2135 1.7321-4.0097 3.8663-4.0097s3.8677 1.7961 3.8677 4.0097z" fill="#666" stroke-width=".099152" style="stroke:#000"/>
   <path d="m502.66 411.26c0 1.6389-1.2883 2.9704-2.8758 2.9704-1.5874 0-2.8744-1.3314-2.8744-2.9704 0-1.6389 1.2869-2.969 2.8744-2.969s2.8758 1.33 2.8758 2.969z" fill="#fff" stroke-width=".099152" style="fill:#1a1a1a;stroke:#000"/>
   <path d="m499.31 408.63v2.05h-2.05v1.0667h2.05v2.05h1.0667v-2.05h2.05v-1.0667h-2.05v-2.05z" color="#000000" color-rendering="auto" fill="#333" fill-rule="evenodd" image-rendering="auto" shape-rendering="auto" solid-color="#000000" stroke-width=".10667" style="fill:#000;isolation:auto;mix-blend-mode:normal;stroke:#000;text-decoration-color:#000000;text-decoration-line:none;text-decoration-style:solid;text-indent:0;text-transform:none;white-space:normal"/>
  </g>
 </g>
 <g transform="translate(78.812 2.5978)">
  <rect x="65.052" y="386.96" width="58.889" height="27.14" rx="1.3878e-16" ry="1.3878e-16" fill="#3a3a3a" fill-rule="evenodd" stroke="#000" stroke-linecap="round" stroke-miterlimit="5.5" stroke-width=".5" style="fill:#ebebeb"/>
  <g transform="matrix(1.884 0 0 1.8691 -147.36 -245.74)">
   <path d="m113.63 340.44h1.7574l-3e-3 -1.0731 0.63956-5.7e-4v-0.40181h2.0614l-4.8e-4 0.40286h0.6657v1.0732l4.1044-5.8e-4 -3e-3 -1.0731 0.63956-5.7e-4v-0.40181h2.0614l-4.8e-4 0.40286h0.6657v1.0732l4.1867-5.8e-4 -3e-3 -1.0731 0.63956-5.7e-4v-0.40181h2.0614l-4.8e-4 0.40286h0.6657v1.0732l4.1856-5.8e-4 -3e-3 -1.0731 0.63956-5.7e-4v-0.40181h2.0614l-4.8e-4 0.40286h0.6657v1.0732h1.7493l0.0101 10.529h-1.7574l3e-3 1.0731-0.63956 5.7e-4v0.40181h-2.0614l4.8e-4 -0.40286h-0.6657v-1.0732l-4.1856 5.8e-4 3e-3 1.0731-0.63956 5.7e-4v0.40181h-2.0614l4.8e-4 -0.40286h-0.6657v-1.0732l-4.1867 5.8e-4 3e-3 1.0731-0.63956 5.7e-4v0.40181h-2.0614l4.8e-4 -0.40286h-0.6657v-1.0732l-4.1044 5.8e-4 3e-3 1.0731-0.63956 5.7e-4v0.40181h-2.0614l4.8e-4 -0.40286h-0.6657v-1.0732h-1.7493z"/>
  </g>
  <g transform="matrix(1.884 0 0 1.8691 -90.62 -245.74)">
   <path d="m85.543 338.66-2.7991 1e-3 0.0021 14.079 2.8115 1e-3v-0.67711l-2.26 1e-3v-0.87672l0.22289-7e-3v-4.8067l6.8711-4e-3 0.0011 4.8109 0.22289 7e-3v0.87672l-2.2476-1e-3v0.67711l2.3149-1e-3h0.0031l2.3398 1e-3v-0.67711l-2.2611 1e-3v-0.87672l0.22289-7e-3 0.0011-4.8067 6.8711-4e-3v4.8109l0.22289 7e-3v0.87672l-2.2476-1e-3v0.67711l2.3968-1e-3h0.0041l2.3388 1e-3v-0.67711l-2.2611 1e-3v-0.87672l0.22289-7e-3 0.0011-4.8067 6.8711-4e-3v4.8109l0.22289 7e-3v0.87672l-2.2465-1e-3v0.67711l2.3958-1e-3 2.343 1e-3v-0.67711l-2.2611 1e-3v-0.87672l0.22393-7e-3v-4.8067l6.8461-0.0449v4.8517l0.22393 7e-3v0.87672l-2.2476-1e-3v0.67711l2.7991-1e-3 -2e-3 -14.079-2.8126-1e-3v0.67711l2.2611-1e-3v0.87672l-0.22392 7e-3v4.8068l-6.8461 0.0439v-4.8506l-0.22289-7e-3v-0.87672l2.2476 1e-3v-0.67711l-2.3253 1e-3 -2.4145-1e-3v0.67711l2.2611-1e-3v0.87672l-0.22393 7e-3v4.836l-5e-3 5e-3 -6.8663 9e-3v-4.8506l-0.22289-7e-3v-0.87672l2.2465 1e-3v-0.67711l-2.3253 1e-3h-0.0041l-2.4093-1e-3v0.67711l2.26-1e-3v0.87672l-0.22289 7e-3v4.836l-0.0052 5e-3 -6.8663 9e-3v-4.8506l-0.22393-7e-3v-0.87672l2.2476 1e-3v-0.67711l-2.3253 1e-3h-0.0041l-2.3284-1e-3v0.67711l2.2611-1e-3v0.87672l-0.22289 7e-3 -0.0011 4.836-0.0041 5e-3 -6.8663 9e-3 -0.0011-4.8506-0.22289-7e-3v-0.87672l2.2476 1e-3v-0.67711z" fill="#ebebeb" stroke-width=".5329"/>
  </g>
 </g>
 <g transform="translate(142.78 2.5978)">
  <rect x="65.052" y="386.96" width="58.889" height="27.14" rx="1.3878e-16" ry="1.3878e-16" fill="#3a3a3a" fill-rule="evenodd" stroke="#000" stroke-linecap="round" stroke-miterlimit="5.5" stroke-width=".5" style="fill:#ebebeb"/>
  <g transform="matrix(1.884 0 0 1.8691 -147.36 -245.74)">
   <path d="m113.63 340.44h1.7574l-3e-3 -1.0731 0.63956-5.7e-4v-0.40181h2.0614l-4.8e-4 0.40286h0.6657v1.0732l4.1044-5.8e-4 -3e-3 -1.0731 0.63956-5.7e-4v-0.40181h2.0614l-4.8e-4 0.40286h0.6657v1.0732l4.1867-5.8e-4 -3e-3 -1.0731 0.63956-5.7e-4v-0.40181h2.0614l-4.8e-4 0.40286h0.6657v1.0732l4.1856-5.8e-4 -3e-3 -1.0731 0.63956-5.7e-4v-0.40181h2.0614l-4.8e-4 0.40286h0.6657v1.0732h1.7493l0.0101 10.529h-1.7574l3e-3 1.0731-0.63956 5.7e-4v0.40181h-2.0614l4.8e-4 -0.40286h-0.6657v-1.0732l-4.1856 5.8e-4 3e-3 1.0731-0.63956 5.7e-4v0.40181h-2.0614l4.8e-4 -0.40286h-0.6657v-1.0732l-4.1867 5.8e-4 3e-3 1.0731-0.63956 5.7e-4v0.40181h-2.0614l4.8e-4 -0.40286h-0.6657v-1.0732l-4.1044 5.8e-4 3e-3 1.0731-0.63956 5.7e-4v0.40181h-2.0614l4.8e-4 -0.40286h-0.6657v-1.0732h-1.7493z"/>
  </g>
  <g transform="matrix(1.884 0 0 1.8691 -90.62 -245.74)">
   <path d="m85.543 338.66-2.7991 1e-3 0.0021 14.079 2.8115 1e-3v-0.67711l-2.26 1e-3v-0.87672l0.22289-7e-3v-4.8067l6.8711-4e-3 0.0011 4.8109 0.22289 7e-3v0.87672l-2.2476-1e-3v0.67711l2.3149-1e-3h0.0031l2.3398 1e-3v-0.67711l-2.2611 1e-3v-0.87672l0.22289-7e-3 0.0011-4.8067 6.8711-4e-3v4.8109l0.22289 7e-3v0.87672l-2.2476-1e-3v0.67711l2.3968-1e-3h0.0041l2.3388 1e-3v-0.67711l-2.2611 1e-3v-0.87672l0.22289-7e-3 0.0011-4.8067 6.8711-4e-3v4.8109l0.22289 7e-3v0.87672l-2.2465-1e-3v0.67711l2.3958-1e-3 2.343 1e-3v-0.67711l-2.2611 1e-3v-0.87672l0.22393-7e-3v-4.8067l6.8461-0.0449v4.8517l0.22393 7e-3v0.87672l-2.2476-1e-3v0.67711l2.7991-1e-3 -2e-3 -14.079-2.8126-1e-3v0.67711l2.2611-1e-3v0.87672l-0.22392 7e-3v4.8068l-6.8461 0.0439v-4.8506l-0.22289-7e-3v-0.87672l2.2476 1e-3v-0.67711l-2.3253 1e-3 -2.4145-1e-3v0.67711l2.2611-1e-3v0.87672l-0.22393 7e-3v4.836l-5e-3 5e-3 -6.8663 9e-3v-4.8506l-0.22289-7e-3v-0.87672l2.2465 1e-3v-0.67711l-2.3253 1e-3h-0.0041l-2.4093-1e-3v0.67711l2.26-1e-3v0.87672l-0.22289 7e-3v4.836l-0.0052 5e-3 -6.8663 9e-3v-4.8506l-0.22393-7e-3v-0.87672l2.2476 1e-3v-0.67711l-2.3253 1e-3h-0.0041l-2.3284-1e-3v0.67711l2.2611-1e-3v0.87672l-0.22289 7e-3 -0.0011 4.836-0.0041 5e-3 -6.8663 9e-3 -0.0011-4.8506-0.22289-7e-3v-0.87672l2.2476 1e-3v-0.67711z" fill="#ebebeb" stroke-width=".5329"/>
  </g>
 </g>
 <g transform="translate(-1.5177 -.22387)">
  <path d="m76.992 385.7c0 2.2121-1.7335 4.0082-3.8677 4.0082s-3.8663-1.7961-3.8663-4.0082c0-2.2135 1.7321-4.0097 3.8663-4.0097s3.8677 1.7961 3.8677 4.0097z" fill="#666" stroke-width=".099152" style="stroke:#000"/>
  <g transform="translate(-426.25 .027057)">
   <g transform="translate(.0081)">
    <path d="m502.24 385.67c0 1.6389-1.2883 2.9704-2.8758 2.9704-1.5874 0-2.8744-1.3314-2.8744-2.9704 0-1.6389 1.2869-2.969 2.8744-2.969s2.8758 1.33 2.8758 2.969z" fill="#fff" stroke-width=".099152" style="fill:#1a1a1a;stroke:#000"/>
    <path d="m498.89 383.04v2.05h-2.05v1.0667h2.05v2.05h1.0667v-2.05h2.05v-1.0667h-2.05v-2.05z" color="#000000" color-rendering="auto" fill="#333" fill-rule="evenodd" image-rendering="auto" shape-rendering="auto" solid-color="#000000" stroke-width=".10667" style="fill:#000;isolation:auto;mix-blend-mode:normal;stroke:#000;text-decoration-color:#000000;text-decoration-line:none;text-decoration-style:solid;text-indent:0;text-transform:none;white-space:normal"/>
   </g>
   <g transform="translate(-.4189)">
    <path d="m503.66 411.26c0 2.2121-1.7335 4.0082-3.8677 4.0082s-3.8663-1.7961-3.8663-4.0082c0-2.2135 1.7321-4.0097 3.8663-4.0097s3.8677 1.7961 3.8677 4.0097z" fill="#666" stroke-width=".099152" style="stroke:#000"/>
    <path d="m502.66 411.26c0 1.6389-1.2883 2.9704-2.8758 2.9704-1.5874 0-2.8744-1.3314-2.8744-2.9704 0-1.6389 1.2869-2.969 2.8744-2.969s2.8758 1.33 2.8758 2.969z" fill="#fff" stroke-width=".099152" style="fill:#1a1a1a;stroke:#000"/>
    <path d="m499.31 408.63v2.05h-2.05v1.0667h2.05v2.05h1.0667v-2.05h2.05v-1.0667h-2.05v-2.05z" color="#000000" color-rendering="auto" fill="#333" fill-rule="evenodd" image-rendering="auto" shape-rendering="auto" solid-color="#000000" stroke-width=".10667" style="fill:#000;isolation:auto;mix-blend-mode:normal;stroke:#000;text-decoration-color:#000000;text-decoration-line:none;text-decoration-style:solid;text-indent:0;text-transform:none;white-space:normal"/>
   </g>
  </g>
 </g>
 <text x="445.25571" y="391.08557" style="fill:#000000;font-family:sans-serif;font-size:12.076px;line-height:1.25;stroke-width:.30191" xml:space="preserve"><tspan x="445.25571" y="391.08557" style="fill:#ffffff;font-family:sans-serif;font-style:italic;stroke-width:.30191">SN4741</tspan></text>
</svg>
