<svg width="301" height="45" version="1.1" viewBox="66 376 301 45" xmlns="http://www.w3.org/2000/svg">
 <rect x="66.343" y="376.34" width="300.31" height="44.315" fill="#e6e6e6" stroke="#000" stroke-width=".68543"/>
 <rect x="68.324" y="378.32" width="295.35" height="40.351" fill="#1e1616"/>
 <g stroke="#000">
  <path d="m267.14 409.1c0 2.2121-1.7335 4.0082-3.8677 4.0082s-3.8663-1.7961-3.8663-4.0082c0-2.2135 1.7321-4.0097 3.8663-4.0097s3.8677 1.7961 3.8677 4.0097z" fill="#666" stroke-width=".099152"/>
  <path d="m266.14 409.1c0 1.6389-1.2883 2.9704-2.8758 2.9704-1.5874 0-2.8744-1.3314-2.8744-2.9704 0-1.6389 1.2869-2.969 2.8744-2.969s2.8758 1.33 2.8758 2.969z" fill="#fff" stroke-width=".099152"/>
  <path d="m262.79 406.47v2.05h-2.05v1.0667h2.05v2.05h1.0667v-2.05h2.05v-1.0667h-2.05v-2.05z" color="#000000" color-rendering="auto" fill="#333" fill-rule="evenodd" image-rendering="auto" shape-rendering="auto" solid-color="#000000" stroke-width=".10667" style="isolation:auto;mix-blend-mode:normal;text-decoration-color:#000000;text-decoration-line:none;text-decoration-style:solid;text-indent:0;text-transform:none;white-space:normal"/>
  <path d="m353.24 397.5h-17.304v14.349h17.304z" fill="#ebebeb" stroke-width=".96323"/>
  <path d="m335.94 397.5v14.349h17.304v-14.349z" fill="none" stroke-linecap="square" stroke-width=".011158"/>
 </g>
 <path d="m351.66 408.22h-3.6115l5e-3 2.1882-1.3144 1e-3v0.81927h-4.2365l1e-3 -0.82141h-1.3681v-2.1882h-3.595v-9.421l14.118-0.0306z" stroke-width="2.0513"/>
 <path d="m335.95 397.5-4e-3 14.349 5.7794 2e-3v-1.3808l-4.6458 2e-3v-1.7876l0.45853-0.0143 1e-3 -9.8713c4.9146-2e-3 9.9127-0.0253 14.12-0.0261v-9e-5l9.9e-4 9.8976 0.45853 0.0143v1.7875l-4.6184-2e-3v1.3808l5.7522-2e-3c-8.4e-4 -4.7825-5e-3 -9.565-5e-3 -14.348-5.7662-6.8e-4 -11.532-1e-3 -17.298-2e-3z" fill="#ebebeb" stroke-width="2.0513"/>
 <g fill="#fff" stroke-width="1px">
  <path d="m306.21 413.51h2.4583v0.4427h-1.9323v1.151h1.8516v0.44271h-1.8516v1.4088h1.9792v0.44271h-2.5052z"/>
  <path d="m308.65 413.51h3.2891v0.4427h-1.3802v3.4453h-0.52865v-3.4453h-1.3802z"/>
  <path d="m312.05 413.51h0.52604v1.5938h1.9115v-1.5938h0.52604v3.888h-0.52604v-1.8516h-1.9115v1.8516h-0.52604z"/>
  <path d="m318.13 413.86q-0.40625 0-0.61198 0.40104-0.20312 0.39844-0.20312 1.2005 0 0.79948 0.20312 1.2005 0.20573 0.39844 0.61198 0.39844 0.40885 0 0.61198-0.39844 0.20573-0.40104 0.20573-1.2005 0-0.80208-0.20573-1.2005-0.20313-0.40104-0.61198-0.40104zm0-0.41667q0.65365 0 0.9974 0.51823 0.34635 0.51563 0.34635 1.5 0 0.98177-0.34635 1.5-0.34375 0.51563-0.9974 0.51563t-1-0.51563q-0.34375-0.51823-0.34375-1.5 0-0.98437 0.34375-1.5 0.34635-0.51823 1-0.51823z"/>
  <path d="m320.78 413.51h0.44271l-1.3542 4.3828h-0.44271z"/>
  <path d="m322.53 413.86q-0.40625 0-0.61198 0.40104-0.20313 0.39844-0.20313 1.2005 0 0.79948 0.20313 1.2005 0.20573 0.39844 0.61198 0.39844 0.40885 0 0.61198-0.39844 0.20572-0.40104 0.20572-1.2005 0-0.80208-0.20572-1.2005-0.20313-0.40104-0.61198-0.40104zm0-0.41667q0.65364 0 0.99739 0.51823 0.34636 0.51563 0.34636 1.5 0 0.98177-0.34636 1.5-0.34375 0.51563-0.99739 0.51563-0.65365 0-1-0.51563-0.34375-0.51823-0.34375-1.5 0-0.98437 0.34375-1.5 0.34635-0.51823 1-0.51823z"/>
 </g>
 <path d="m323.69 397.5h-17.304v14.349h17.304z" fill="#ebebeb" stroke="#000" stroke-width=".96323"/>
 <path d="m306.39 397.5v14.349h17.304v-14.349z" fill="none" stroke="#000" stroke-linecap="square" stroke-width=".011158"/>
 <path d="m322.1 408.22h-3.6115l5e-3 2.1882-1.3144 1e-3v0.81927h-4.2365l1e-3 -0.82141h-1.3681v-2.1882h-3.595v-9.421l14.118-0.0306z" stroke-width="2.0513"/>
 <path d="m306.39 397.5-4e-3 14.349 5.7794 2e-3v-1.3808l-4.6458 2e-3v-1.7876l0.45853-0.0143 1e-3 -9.8713c4.9146-2e-3 9.9127-0.0253 14.12-0.0261v-9e-5l9.9e-4 9.8976 0.45853 0.0143v1.7875l-4.6184-2e-3v1.3808l5.7522-2e-3c-8.4e-4 -4.7825-5e-3 -9.565-5e-3 -14.348-5.7662-6.8e-4 -11.532-1e-3 -17.298-2e-3z" fill="#ebebeb" stroke-width="2.0513"/>
 <path d="m78.769 387.87h5.8605v0.8022h-5.8605zm10.384 0h4.5903v0.8022h-4.5903zm5.0806 0h5.036v0.8022h-5.036zm5.4438 0 5.7869 0.0222v0.78059l-5.7869-5.7e-4zm8.9734 0.0222h5.7936v0.78059h-5.7936zm10.718 0 7.1306 6e-5c-0.45194 0.43339-0.98735 0.65229-1.5821 0.7783l-4.011-5e-3c-0.59712-0.071-1.0709-0.41313-1.5375-0.7731zm9.2921 6e-5h5.1029v0.77982h-5.1029zm6.2523 0h2.9061v0.75762l-2.5241 0.0237zm-55.231-1.3814c0.20245-0.0825 0.30606-0.25569 0.43396-0.42339h3.0032c0.11494 0.21418 0.27999 0.31151 0.48471 0.42339l1.025 0.0445v1.0473h-5.8605v-1.0473c0.30457-0.0126 0.60912-0.0293 0.91361-0.0445zm9.4704 0.0445c0.58362 0.0241 1.0842-0.0649 1.4707-0.46796h2.4546c0.20069 0.27043 0.3951 0.39689 0.66503 0.46796v1.0473h-4.5903zm5.0806 0c0.33764 0.0332 0.50925-0.1904 0.65279-0.46799h2.8902c0.3892 0.4867 0.95038 0.43707 1.493 0.46799v1.0472h-5.036zm6.3507-0.0445c0.25542-0.0674 0.43388-0.20385 0.55708-0.4234l2.8745 1e-5c0.20033 0.18651 0.39208 0.32925 0.6374 0.44565l0.811 0.0223v1.0473l-5.7869 3e-5v-1.0194zm8.0665 0.0445 0.44569-0.0222c0.45528 0.0291 0.77309-0.10488 1.025-0.44565h2.9469c0.22833 0.38083 0.50238 0.42426 0.93038 0.44565l0.44566 0.0222 0.0251 1.0473h-5.8188zm10.092-0.44567 3.1224-0.0235c0.14098 0.22992 0.33641 0.33539 0.57049 0.44646h1.0116c0.22435-0.10023 0.36144-0.26356 0.51534-0.44646h3.1391c5e-3 0.54336-0.13355 1.042-0.34645 1.5164h-7.6411c-0.24396-0.53798-0.33842-0.96173-0.37143-1.493zm9.9188 0.31196 0.84676-0.0479c0.16238-0.0666 0.28034-0.15562 0.38973-0.28744h2.7915c0.0808 0.15677 0.27548 0.21787 0.42866 0.28744 0.16916 5.6e-4 0.47707 0.0474 0.64622 0.0479v1.1811h-5.1029zm5.0228-0.33542h4.1357v1.5164h-3.099zm-53.567-1.7371h7.5657c-0.35493 0.67111-1.1416 1.1558-1.7969 1.3372h-2.7656v0.17827h-3.0032zm10.507 0h7.1529v1.5167h-2.8902v-0.62533h-1.808v0.62533h-2.4546zm10.518-3e-5h2.8745v1.5153l-2.8745-2e-5zm8.9801 3e-5h2.8745v1.5153h-2.8745zm8.6208 2e-5h3.1224v1.5153h-3.1224zm5.2198-2e-5h3.1391v1.5153h-3.1391zm6.1028 0h7.7546v1.5153h-4.3452l-0.9359-1.3374h-0.0828v1.181l0.07 0.15641h-2.4607c0-0.50581-3e-5 -1.0095-3e-5 -1.5153zm-52.366-1.7827h2.0501v1.5153h-2.0501zm2.4172 0h3.0032v1.2256h1.2721c0.0866-0.0971 0.17327-0.19406 0.25991-0.29108v-0.93574l3.1419 1.3e-4c0.0322 0.54634 0.035 0.98861-0.0287 1.5181l-7.6484-1.4e-4zm8.0421-8.5e-4h1.9748v1.5181h-1.9748zm2.465 0h2.4546c9e-3 0.25997-9e-3 0.54381 0 0.80379h1.808c9e-3 -0.25998-9e-3 -0.52013 0-0.78011h2.8902v1.4944h-7.1529zm7.6582 0.0237h2.4361v1.4707h-2.4361zm2.8595-0.11258 2.8745 0.0235v1.5598h-2.8745zm3.3425 0.0903h2.4512v1.5153h-2.4512zm2.7631 0h2.4512v1.5153h-2.4512zm2.8745-0.0669h2.8522l0.0243 1.5821-2.8766 2e-5zm3.3202 0.0656h2.4512v1.5164h-2.4512zm2.83 0h2.0278v1.5164h-2.0278zm2.4707 0h3.1224v1.5164h-3.1224zm5.2198-2.8e-4h3.1391v1.5184h-3.1391zm3.6292 0h2.0272v1.5184h-2.0272zm2.4736 0 4.485 1e-3c0.23564 0.34081 0.47129 0.68371 0.70694 1.0245h0.11135v-1.025h2.4512v1.5174h-7.7546zm-52.366-0.7225c-0.054-0.41009 0.11611-0.68887 0.28968-1.0362l9.5197-0.0227c0.27364 0.47845 0.31918 1.0234 0.28493 1.5616l-3.1419-0.0236c-0.0887-0.0747-0.23008-0.12544-0.31882-0.20009h-4.2047l-0.37882 0.20009h-2.0501zm10.459-0.51806 0.25895-0.54084h9.0373c0.18949 0.13673 0.24022 0.39168 0.32158 0.60209v0.95947h-2.8902c-0.10779-0.0747-0.21557-0.14897-0.32336-0.22367h-4.0662c-0.0883 0.0742-0.17655 0.1494-0.26482 0.22367h-2.0733zm10.123-0.0725c0.0311-0.13988 0.0497-0.29241 0.25238-0.44566h8.3785v1.5153h-2.4657c-0.0837-0.10672-0.1971-0.13764-0.31388-0.2001h-3.1545c-0.0698 0.0742-0.13956 0.14815-0.20934 0.22243h-2.4875c0.01-0.36398-0.01-0.72795 0-1.0919zm9.2102-0.44566 8.4008-0.0227v1.538l-2.4512 0.0237-0.34455-0.22379h-3.1249l-0.26481 0.22237h-2.4605c-0.0342-0.64278 0.0365-1.0572 0.24508-1.5375zm8.7796 0.26742c0.045-0.0891 0.0899-0.17827 0.1349-0.2674 3.4132-7e-3 6.8263-0.0152 10.239-0.0226 0.38015 0.41773 0.4823 1.0589 0.45524 1.5379h-3.1391c-0.0927-0.20504-0.25327-0.18333-0.43965-0.2001h-4.8264c-0.19972 0.0681-0.28862 0.032-0.39873 0.2001h-2.0257zm11.515-0.29003h11.414v1.2036h-1.025c-0.11882 0.11881-0.23769 0.23769-0.35654 0.35653h-2.4819c-0.15251-0.21306-0.3902-0.33205-0.61546-0.45107h-4.6349c-0.34034 0.16165-0.33722 0.24905-0.46877 0.45102h-2.0272c6e-3 -0.58362 0.044-1.2031 0.19575-1.5601zm-48.375-0.8466 6.7906-4e-3c0.44531 0.10109 0.83098 0.28888 1.1374 0.62741l-9.1655-1e-5c0.31042-0.37819 0.78229-0.50534 1.2376-0.62393zm10.343-4e-3h6.1335c0.57089 0.0664 1.0589 0.3429 1.376 0.62741h-8.6066c0.2467-0.34564 0.77196-0.50894 1.0971-0.62741zm10.158 4e-3h7.0228v0.62393l-8.2671-4e-3c0.33976-0.35722 0.77939-0.49969 1.2443-0.62078zm8.9595 0 7.0212-1e-3v0.62549l-8.2158 5.6e-4c0.3213-0.39506 0.76012-0.50344 1.1946-0.62393zm8.9357-1e-3h7.7343c0.39141 0.0994 0.64827 0.36075 0.93589 0.62549h-9.8715c0.27549-0.34189 0.79411-0.51817 1.2012-0.62549zm11.344 0h10.05v0.62605h-11.247c0.3-0.38167 0.74723-0.50614 1.1977-0.62605z" fill="#fff" stroke-width=".044566"/>
 <circle cx="329.25" cy="411.51" r="2.2097"/>
 <g fill="#fff">
  <g stroke-width=".66103">
   <path d="m328.94 406.39q0.0284-0.0839 0.12135-0.16268 0.093-0.08 0.25564-0.16009l0.52675-0.26467v0.28016l-0.49447 0.2466q-0.19367 0.0955-0.25693 0.18591-0.0633 0.0891-0.0633 0.24402v0.28403h0.81465v0.2608h-1.9276v-0.58873q0-0.33052 0.13814-0.49319 0.13815-0.16267 0.41702-0.16267 0.18204 0 0.30211 0.0852 0.12007 0.0839 0.16655 0.24531zm-0.8095 0.65328h0.6843v-0.32793q0-0.1885-0.0865-0.28404-0.0878-0.0968-0.25692-0.0968-0.16913 0-0.25434 0.0968-0.0865 0.0955-0.0865 0.28404z"/>
   <path d="m327.91 405.47v-1.2188h0.21948v0.95797h0.57066v-0.91798h0.21948v0.91798h0.69844v-0.98124h0.21948v1.242z"/>
   <path d="m327.97 402.64h0.25435q-0.071 0.14847-0.10587 0.28016-0.0348 0.13169-0.0348 0.25435 0 0.21302 0.0826 0.32922 0.0826 0.1149 0.23497 0.1149 0.12782 0 0.19366-0.0762 0.0646-0.0775 0.10458-0.29178l0.0323-0.15751q0.0555-0.29179 0.19625-0.42993 0.13943-0.13944 0.37441-0.13944 0.28016 0 0.42476 0.1885 0.1446 0.18721 0.1446 0.55 0 0.13685-0.031 0.29178-0.031 0.15364-0.0917 0.3189h-0.26854q0.0891-0.15881 0.13427-0.31116 0.0452-0.15234 0.0452-0.29952 0-0.22336-0.0878-0.34472t-0.25047-0.12136q-0.14202 0-0.22207 0.0878-0.08 0.0865-0.12007 0.28533l-0.031 0.1588q-0.0581 0.29178-0.18204 0.42218t-0.34472 0.1304q-0.25563 0-0.40281-0.17946-0.14719-0.18075-0.14719-0.49706 0-0.13556 0.0245-0.27629t0.0736-0.28791z"/>
   <path d="m327.91 402.12v-1.2188h0.21948v0.95796h0.57066v-0.91797h0.21948v0.91797h0.69844v-0.98123h0.21948v1.242z"/>
   <path d="m327.91 400.71v-1.6306h0.21948v0.6843h1.7081v0.26209h-1.7081v0.6843z"/>
  </g>
  <path d="m337.5 413.72v0.41601q-0.19922-0.18554-0.42578-0.27734-0.22461-0.0918-0.47852-0.0918-0.5 0-0.76562 0.30664-0.26563 0.30469-0.26563 0.88281 0 0.57618 0.26563 0.88282 0.26562 0.30468 0.76562 0.30468 0.25391 0 0.47852-0.0918 0.22656-0.0918 0.42578-0.27735v0.41211q-0.20703 0.14063-0.43945 0.21094-0.23047 0.0703-0.48829 0.0703-0.66211 0-1.043-0.40429-0.38086-0.40625-0.38086-1.1074 0-0.70312 0.38086-1.1074 0.38085-0.40625 1.043-0.40625 0.26172 0 0.49219 0.0703 0.23242 0.0684 0.43555 0.20703z"/>
  <path d="m339.29 413.76q-0.42968 0-0.68359 0.32031-0.25195 0.32031-0.25195 0.87304 0 0.55079 0.25195 0.8711 0.25391 0.32031 0.68359 0.32031 0.42969 0 0.67969-0.32031 0.25195-0.32031 0.25195-0.8711 0-0.55273-0.25195-0.87304-0.25-0.32031-0.67969-0.32031zm0-0.32032q0.61328 0 0.98047 0.41211 0.36719 0.41016 0.36719 1.1016 0 0.68946-0.36719 1.1016-0.36719 0.41015-0.98047 0.41015-0.61523 0-0.98437-0.41015-0.36719-0.41016-0.36719-1.1016 0-0.6914 0.36719-1.1016 0.36914-0.41211 0.98437-0.41211z"/>
  <path d="m341.26 413.5h0.53125l1.293 2.4394v-2.4394h0.38281v2.916h-0.53125l-1.293-2.4394v2.4394h-0.38281z"/>
  <path d="m346 413.59v0.38477q-0.22461-0.10743-0.42383-0.16016-0.19922-0.0527-0.38476-0.0527-0.32227 0-0.49805 0.125-0.17383 0.125-0.17383 0.35546 0 0.19336 0.11524 0.29297 0.11718 0.0977 0.4414 0.15821l0.23828 0.0488q0.44141 0.084 0.6504 0.29688 0.21093 0.21094 0.21093 0.56641 0 0.42382-0.28515 0.64257-0.28321 0.21875-0.83203 0.21875-0.20704 0-0.44141-0.0469-0.23242-0.0469-0.48242-0.13867v-0.40625q0.24023 0.13476 0.4707 0.20312 0.23047 0.0684 0.45313 0.0684 0.33789 0 0.52148-0.13281t0.18359-0.37891q0-0.21484-0.13281-0.33594-0.13086-0.12109-0.43164-0.18164l-0.24023-0.0469q-0.44141-0.0879-0.63868-0.27539-0.19726-0.1875-0.19726-0.52149 0-0.38671 0.27148-0.60937 0.27344-0.22266 0.75196-0.22266 0.20507 0 0.41796 0.0371 0.2129 0.0371 0.43555 0.11133z"/>
  <path d="m347.97 413.76q-0.42969 0-0.68359 0.32031-0.25196 0.32031-0.25196 0.87304 0 0.55079 0.25196 0.8711 0.2539 0.32031 0.68359 0.32031t0.67969-0.32031q0.25195-0.32031 0.25195-0.8711 0-0.55273-0.25195-0.87304-0.25-0.32031-0.67969-0.32031zm0-0.32032q0.61328 0 0.98047 0.41211 0.36719 0.41016 0.36719 1.1016 0 0.68946-0.36719 1.1016-0.36719 0.41015-0.98047 0.41015-0.61523 0-0.98437-0.41015-0.36719-0.41016-0.36719-1.1016 0-0.6914 0.36719-1.1016 0.36914-0.41211 0.98437-0.41211z"/>
  <path d="m349.94 413.5h0.39454v2.584h1.4199v0.33203h-1.8145z"/>
  <path d="m352.16 413.5h1.8438v0.33203h-1.4492v0.86328h1.3887v0.33203h-1.3887v1.0566h1.4844v0.33203h-1.8789z"/>
 </g>
 <g transform="matrix(2.5012 0 0 2.5012 -245.92 -588.62)" fill="#1a1a1a" stroke="#000">
  <rect x="140.27" y="396.39" width="2.8" height="3.8" fill="#1a1a1a" stroke="#000" stroke-width=".2"/>
 </g>
 <g transform="matrix(2.5012 0 0 2.5012 -245.92 -588.62)">
  <circle cx="141.67" cy="398.19" r="1"/>
  <circle cx="141.67" cy="398.19" r="1" fill="none" stroke="#000" stroke-width=".2"/>
 </g>
 <circle cx="108.4" cy="407.31" r=".69861" fill="#ebebeb" fill-rule="evenodd" stroke-width="1.9925"/>
 <g transform="translate(55.37 3.2515)">
  <rect transform="scale(-1)" x="-98.018" y="-408.17" width="14.518" height="13.092" fill="#666" stroke="#000" stroke-width=".5"/>
  <polygon transform="matrix(-2.5924,0,0,-2.9754,261.53,1590.6)" points="66.872 398.19 66.472 398.19 66.472 397.79 65.272 397.79 65.272 398.19 64.872 398.19 64.872 398.79 63.472 398.79 63.472 401.39 68.272 401.39 68.272 398.79 66.872 398.79" stroke="#4d4d4d" stroke-width=".2"/>
 </g>
 <g transform="translate(81.117 3.2515)">
  <rect transform="scale(-1)" x="-98.018" y="-408.17" width="14.518" height="13.092" fill="#666" stroke="#000" stroke-width=".5"/>
  <polygon transform="matrix(-2.5924,0,0,-2.9754,261.53,1590.6)" points="64.872 398.79 63.472 398.79 63.472 401.39 68.272 401.39 68.272 398.79 66.872 398.79 66.872 398.19 66.472 398.19 66.472 397.79 65.272 397.79 65.272 398.19 64.872 398.19" stroke="#4d4d4d" stroke-width=".2"/>
 </g>
 <g transform="translate(106.86 3.2515)">
  <rect transform="scale(-1)" x="-98.018" y="-408.17" width="14.518" height="13.092" fill="#666" stroke="#000" stroke-width=".5"/>
  <polygon transform="matrix(-2.5924,0,0,-2.9754,261.53,1590.6)" points="64.872 398.79 63.472 398.79 63.472 401.39 68.272 401.39 68.272 398.79 66.872 398.79 66.872 398.19 66.472 398.19 66.472 397.79 65.272 397.79 65.272 398.19 64.872 398.19" stroke="#4d4d4d" stroke-width=".2"/>
 </g>
 <g transform="translate(132.61 3.2515)">
  <rect transform="scale(-1)" x="-98.018" y="-408.17" width="14.518" height="13.092" fill="#666" stroke="#000" stroke-width=".5"/>
  <polygon transform="matrix(-2.5924,0,0,-2.9754,261.53,1590.6)" points="64.872 398.79 63.472 398.79 63.472 401.39 68.272 401.39 68.272 398.79 66.872 398.79 66.872 398.19 66.472 398.19 66.472 397.79 65.272 397.79 65.272 398.19 64.872 398.19" stroke="#4d4d4d" stroke-width=".2"/>
 </g>
 <g fill="#000000" font-family="sans-serif" font-size="29.637px" letter-spacing="0px" stroke-width=".74092" word-spacing="0px">
  <text x="144.00056" y="415.1601" style="line-height:1.25" xml:space="preserve"><tspan x="144.00056" y="415.1601" fill="#ffffff" font-size="2.6667px" stroke-width=".74092">0/3</tspan></text>
  <text x="169.77402" y="415.1601" style="line-height:1.25" xml:space="preserve"><tspan x="169.77402" y="415.1601" fill="#ffffff" font-size="2.6667px" stroke-width=".74092">0/2</tspan></text>
  <text x="195.51039" y="415.1601" style="line-height:1.25" xml:space="preserve"><tspan x="195.51039" y="415.1601" fill="#ffffff" font-size="2.6667px" stroke-width=".74092">0/1</tspan></text>
  <text x="221.22266" y="415.1601" style="line-height:1.25" xml:space="preserve"><tspan x="221.22266" y="415.1601" fill="#ffffff" font-size="2.6667px" stroke-width=".74092">0/0</tspan></text>
  <text x="180.14481" y="416.18561" style="line-height:1.25" xml:space="preserve"><tspan x="180.14481" y="416.18561" fill="#ffffff" font-size="3.3333px" stroke-width=".74092">T1/E1</tspan></text>
 </g>
 <g fill="none" stroke="#fff" stroke-width=".5">
  <path d="m137.4 410.91v3.2048h5.8968"/>
  <path d="m149.72 414.11h18.588"/>
  <path d="m175.38 414.11h3.1726"/>
  <path d="m190.93 414.11h3.1726"/>
  <path d="m201.19 414.11h18.588"/>
  <path d="m233.29 410.91v3.2048h-5.8968"/>
 </g>
 <text x="90.35907" y="397.81754" fill="#000000" font-family="sans-serif" font-size="9.8315px" letter-spacing="0px" stroke-width=".24579" word-spacing="0px" style="line-height:1.25" xml:space="preserve"><tspan x="90.35907" y="397.81754" fill="#ffffff" font-family="sans-serif" font-size="8px" font-style="italic" stroke-width=".24579">SN4970</tspan></text>
</svg>
