<svg width="59.733" height="153.6" version="1.1" viewBox="155.733333333 161.066666667 25.2871104 78.0288032" xmlns="http://www.w3.org/2000/svg">
 <g transform="matrix(1.0652 0 0 1.066 -.81545 .1047)">
  <g transform="matrix(2.0061 0 0 1.3586 -150.1 -55.376)" fill="#302823">
   <rect x="147" y="155.4" width="14" height="50.275" rx="1" ry="1" fill="#271c16"/>
   <rect x="147" y="155.4" width="14" height="50.275" rx="1" ry="1" fill-opacity="0" stroke="#000" stroke-linejoin="round" stroke-width=".2"/>
  </g>
  <g transform="matrix(1.2214 0 0 1.3556 -33.673 -54.088)" fill="#3e2d23">
   <rect x="147.26" y="155.61" width="20.579" height="48.922" rx=".76185" ry=".4" fill="#3e2d23"/>
  </g>
  <g transform="matrix(1.1509 0 0 1.3595 -24.424 -55.512)">
   <rect x="152" y="152" width="6" height="3.2" fill="#90ee90"/>
   <rect x="152" y="152" width="6" height="3.2" fill="none" stroke="#90ee90" stroke-width=".2"/>
  </g>
  <g fill="#008000" fill-rule="evenodd">
   <ellipse cx="149.83" cy="157.85" rx=".41472" ry=".41472"/>
   <ellipse cx="153.79" cy="157.85" rx=".41472" ry=".41472"/>
   <ellipse cx="157.76" cy="157.85" rx=".41472" ry=".41472"/>
  </g>
  <g transform="translate(33.853 59.356)" fill="#ccc">
   <path d="m134.25 103.04h1.1146v0.30932h-0.98491s-0.20375 0.0255-0.20375 0.14586v0.26626h-0.27829v-0.49223c0.0329-0.0542 0.0528-0.18615 0.35238-0.22921"/>
   <path d="m133.89 103.86v0.31487h1.0071c0.0495 0 0.18568 0.05 0.18105 0.19958-4e-3 0.0912-0.0722 0.2056-0.188 0.21393h-0.18476v-0.33155h-0.30191v0.32322h-0.49778v0.31719h1.0479c0.0347 0 0.44916-0.0472 0.44916-0.52974 0-0.46166-0.46444-0.5075-0.46444-0.5075h-1.0484z"/>
   <path d="m133.89 105.28v-0.31765h1.3327s0.14725 0.0208 0.15559 0.1829c4e-3 0.13475-0.0722 0.16531-0.0806 0.17365l-0.0722 0.0593-0.84692 0.43712h0.97982v0.32831h-1.2924c-0.12595-0.0204-0.17874-0.0773-0.18708-0.21208-4e-3 -0.14448 0.22088-0.24264 0.22088-0.24264l0.72653-0.40888h-0.93629z"/>
   <path d="m134.78 106.68v-0.0861-0.0157s0.20096 0.031 0.25329 0.21254l0.0236 0.0926v0.2607h0.29682l4e-3 -0.35748-0.0398-0.12595s-0.19633-0.43156-0.66957-0.43434c-0.49825 0-0.67791 0.28987-0.74181 0.52695l-0.0167 0.0639v0.32321h0.30515v-0.27505l0.0236-0.0676s0.0565-0.18198 0.20884-0.21069l0.0477-9e-3v0.56585h0.30516v-0.46398z"/>
   <path d="m135.35 107.2h-0.30191v0.31164h-1.1697v0.32877h1.1697v0.31209h0.30191v-0.9525z"/>
   <path d="m135.41 102.47c-0.0194-0.30423-0.20096-0.47695-0.45332-0.51631l-1.0664-4e-3v0.32877l0.9224 4e-3h0.0935c0.0269 0 0.0681 0.01 0.088 0.0278 0.057 0.038 0.0829 0.0954 0.0829 0.16901 0 0.11391-0.0912 0.19078-0.21254 0.18383-0.11576-4e-3 -0.19217-0.0699-0.20745-0.18661l4e-3 -0.10742h0.0153-0.33711v0.11669c-4e-3 0.3107 0.25376 0.50657 0.53668 0.50194 0.29543-4e-3 0.5339-0.23291 0.5339-0.51815"/>
  </g>
  <g transform="translate(-17.852 10.14)" fill="#fff">
   <path d="m165.15 206.15c9e-3 -0.0969 7e-3 -0.19444 8e-3 -0.29167-5e-4 -0.10587 9.4e-4 -0.21194-6e-3 -0.31762-9e-3 -0.0294 0.0338-8e-3 0.0509-0.0137 0.031 5.2e-4 0.062-1.6e-4 0.093-2e-3 -0.01 0.0772-7e-3 0.15532-8e-3 0.23298-1e-5 0.10911 0 0.21821 0 0.32732 0.0681 1e-3 0.13662-2.7e-4 0.20439-8e-3 9e-3 7e-3 -2e-3 0.039 3e-3 0.0557 0.0107 0.0316-0.0333 0.01-0.0524 0.0138-0.0973-4e-3 -0.1953-7e-3 -0.29235 3e-3z"/>
   <path d="m165.67 206.04c1e-3 0.0369 2e-3 0.0739 6e-3 0.11067-0.024-6e-3 -0.0632 5e-3 -0.0777-5e-3 0.01-0.11289 6e-3 -0.2264 7e-3 -0.3396-1e-3 -0.0916 1e-3 -0.18358-8e-3 -0.27489 0.0305 9e-3 0.0724-0.011 0.095 0.01 0.11657 0.14609 0.24682 0.2803 0.37409 0.41694 2.6e-4 -0.13164 2e-3 -0.2634-4e-3 -0.3949-9.2e-4 -0.0167-0.01-0.0399 0.0155-0.0306 0.0209 7e-3 0.0706-0.0174 0.058 0.0193-8e-3 0.13149-6e-3 0.26335-6e-3 0.39501 6.2e-4 0.0681 2e-3 0.13618 4e-3 0.20424-0.029-0.0105-0.0695 0.0121-0.0894-0.0123-0.12037-0.14441-0.24751-0.28295-0.37642-0.41973-6.1e-4 0.10697-7e-4 0.21394 1e-3 0.3209z"/>
   <path d="m166.43 206.04c1e-3 0.0369 2e-3 0.0739 6e-3 0.11067-0.0484-3e-3 -0.097-3e-3 -0.14539 0 0.0101-0.12426 7e-3 -0.24913 8e-3 -0.3737-8.3e-4 -0.082-2.8e-4 -0.16416-8e-3 -0.24587 0.0484 3e-3 0.097 3e-3 0.14539 0-8e-3 0.0937-8e-3 0.18798-7e-3 0.282 0.0278-0.027 0.0527-0.0594 0.0784-0.0892 0.0493-0.0612 0.10116-0.12073 0.14281-0.18765 0.0173-0.0106 0.0462 3.3e-4 0.0682-3e-3 0.016 3e-3 0.0678-0.0113 0.0347 0.0118-0.0759 0.0798-0.14847 0.16261-0.2218 0.24473 0.0788 0.1225 0.1609 0.24289 0.24588 0.36118-0.0588-3e-3 -0.11766-3e-3 -0.17642 0-0.0416-0.0827-0.0949-0.15866-0.14394-0.23693-0.01-0.01-0.0314-0.0612-0.0276-0.0249-5.6e-4 0.0504-2.1e-4 0.10078 1e-3 0.15115z"/>
   <path d="m167.03 205.47c-0.0677 0.22839-0.13122 0.45811-0.188 0.68949-0.019-7e-3 -0.0536 3e-3 -0.0629-4e-3 0.0668-0.20071 0.1233-0.40485 0.17103-0.61091 8e-3 -0.0228 7e-3 -0.0594 0.0206-0.0737 0.0197 2e-3 0.0397 2e-3 0.0593-6.3e-4z"/>
   <path d="m165.42 206.92c-9e-3 0.0225-0.0176 0.0451-0.0264 0.0676 0.0531 5e-3 0.1067 5e-3 0.15975-9.3e-4 -0.0263-0.067-0.0524-0.13415-0.0792-0.20096-0.0185 0.0446-0.0365 0.0894-0.0542 0.13428zm-0.15281 0.20328c0.074-0.16802 0.14517-0.33741 0.20838-0.50982 0.023 0.01 0.0635-0.0123 0.0734 0.0119 0.0695 0.18535 0.14397 0.36881 0.22188 0.55076 5e-3 0.0181 0.0276 0.0473 0.023 0.0575-0.0517-3e-3 -0.10361-3e-3 -0.15529 3.3e-4 -0.0149-0.0612-0.0368-0.12018-0.0597-0.17874-0.07-7e-3 -0.14159-0.0127-0.21115 9.3e-4 -0.025 0.0573-0.0428 0.11726-0.0579 0.17781-0.0289-6e-3 -0.0748 2e-3 -0.0934-4e-3 0.0182-0.035 0.0344-0.0711 0.0508-0.10705z"/>
   <path d="m166.38 207.13c-0.0166 0.0266-6e-3 0.0725-0.0358 0.0863-0.0948 0.0405-0.20472 0.0397-0.30176 7e-3 -0.0938-0.0322-0.17397-0.11151-0.19277-0.21082-0.0206-0.10755 4e-3 -0.22878 0.0836-0.30761 0.068-0.071 0.16891-0.10049 0.26522-0.0979 0.0619 8.8e-4 0.12452 0.0111 0.1815 0.0361-0.01 0.0337-0.0174 0.0678-0.0231 0.10233-0.0255-3e-3 -0.0351-0.0428-0.0615-0.0523-0.0792-0.0533-0.19871-0.0321-0.25356 0.0467-0.0531 0.0728-0.0602 0.16868-0.0479 0.25537 0.0116 0.084 0.0682 0.16767 0.15418 0.18791 0.0752 0.019 0.15997-7e-5 0.21545-0.0556 4e-3 -9e-3 0.0112 9.9e-4 0.0165 2e-3z"/>
   <path d="m166.58 206.96v-0.28431c-0.0546 1e-3 -0.10933 2e-3 -0.16346 9e-3 0.0104-0.0215-9e-3 -0.061 9e-3 -0.0722 0.13555 0.011 0.27193 0.01 0.40765 3e-3 0.0181 1e-3 0.0491-0.0141 0.0372 0.0153 5.9e-4 0.0232 0.0105 0.066-0.0269 0.0507-0.0445-4e-3 -0.0891-5e-3 -0.13375-6e-3 1e-3 0.16934-3e-3 0.33879 4e-3 0.50804-4e-3 0.0162 0.013 0.0523-6e-3 0.0531-0.0451-3e-3 -0.0904-2e-3 -0.13546 5.8e-4 6e-3 -0.0923 7e-3 -0.18488 7e-3 -0.27737z"/>
  </g>
  <g transform="translate(20.141 47.707)">
   <g transform="translate(20.345 7.4022)">
    <path d="m129.07 104.85c-0.15049 0.30793-0.44685 0.4186-0.76821 0.16114-0.0185-0.0167-0.0542-0.0181-0.0556 0.012l-0.0454 0.0542c-0.0255 0.0106-0.0496 0.0167-0.0741 3e-3l-0.26764-0.31209c-0.0218-0.0236-0.05-8e-3 -0.062 0.0111l-3e-3 0.16531c-4e-3 0.0324-0.0208 0.0528-0.0486 0.05l-0.0773-0.0959c-0.0167-0.0125-0.0435 0.01-0.0486 0.0278-0.0125 0.0236-0.0352 0.0319-0.0584 0.0171-8e-3 -0.0282 0.0153-0.0843-0.0236-0.0852-0.0583-1e-3 -0.10558 0.0301-0.14957 4e-3 -0.1542-0.19355-0.21486-0.4098-0.25005-0.67235-0.45888 0.76543 0.0125 1.4966 0.59641 1.642 0.58577 0.14401 1.284-0.13336 1.3354-0.98167" fill="#ccc"/>
   </g>
   <circle cx="148.35" cy="112.2" r="1.0748" fill="none" stroke="#ccc" stroke-width=".0508"/>
  </g>
  <g transform="translate(-18.386 4.4926)" fill="#fff">
   <path d="m165.79 214.92c0.0985 0.018 0.15505-0.0916 0.12566-0.17631-0.0226-0.0861-0.17019-0.0872-0.12457 0.0208-7.9e-4 0.0518-1e-3 0.10368-1e-3 0.15552zm-0.13151 0.2144c2e-3 -0.1696 5e-3 -0.33959-6e-3 -0.5089 0.10322 8e-3 0.20858-0.0116 0.30995 0.0116 0.14163 0.0449 0.14038 0.28192-5e-3 0.32182-0.0548 0.0461-0.20042-0.0333-0.16687 0.0801-0.0153 0.087 0.0601 0.24948-0.085 0.20438-0.0886 0.0284-0.0363-0.0603-0.0468-0.10898z"/>
   <path d="m166.41 215.17c0.0331-0.0989 0.0544-0.25449-0.045-0.31942-0.1418-9e-3 -0.12476 0.18611-0.10998 0.2813 8e-3 0.0847 0.11253 0.12405 0.15501 0.0381zm-0.23291 0.0324c-0.12517-0.12229-0.049-0.38924 0.13812-0.39443 0.12373-0.02 0.25985 0.0738 0.24853 0.20735 9e-3 0.12115-0.0824 0.24676-0.21089 0.24285-0.0625 3e-3 -0.12911-0.0114-0.17576-0.0558z"/>
   <path d="m166.66 215.25c0.0114-0.2095 0.0114-0.42024 0-0.62975 0.11427 0.01 0.22979 0.01 0.34405-4.6e-4 0.0345 0.13335-0.11558 0.0584-0.1999 0.0745-0.016 0.0204-2e-3 0.0705-7e-3 0.10194 8e-3 0.0284-0.0158 0.0884 0.012 0.0967 0.0636 0.0138 0.19343-0.0421 0.18852 0.0316 5e-3 0.074-0.12621 0.0181-0.1905 0.032-0.0228 0.0143-4e-3 0.0708-0.01 0.10179v0.11716c0.0688 1e-3 0.13815-5e-5 0.20653-9e-3 0.0362 0.13799-0.12374 0.0584-0.20653 0.0764-0.0459 2.9e-4 -0.0919 1e-3 -0.13752 7e-3z"/>
   <path d="m165.12 216.22c1e-3 -0.1696 6e-3 -0.33958-6e-3 -0.5089 0.0653 0.0117 0.17915-0.0349 0.14077 0.0707-4e-3 0.18286-7e-3 0.36624 5e-3 0.54884-0.0655-0.0115-0.17937 0.0348-0.14077-0.0711l6.9e-4 -0.0184 7e-4 -0.0212z"/>
   <path d="m165.39 216.22c-9.9e-4 -0.1065 5e-3 -0.21355-7e-3 -0.31951 0.0612 8e-3 0.15489-0.027 0.11901 0.0658 0.0554-0.0934 0.21982-0.10811 0.26503 2e-3 0.0276 0.0947 9e-3 0.1957 0.016 0.29329 0.0358 0.0996-0.0644 0.0604-0.1278 0.0695 0.0121-0.10255 0.0142-0.20795 5e-3 -0.31083-0.0414-0.11623-0.18942-0.0206-0.1531 0.0787 1e-3 0.0774-3e-3 0.15525 8e-3 0.23211-0.0655-8e-3 -0.1641 0.0292-0.12554-0.0716l5.6e-4 -0.018 4.2e-4 -0.021z"/>
   <path d="m166.71 216.05c6e-3 0.11518-0.0435 0.2525-0.16682 0.28315-0.12494 0.0339-0.30032 0.016-0.35297-0.12273-0.0362-0.1111-0.0163-0.22994-0.0223-0.34485 9e-3 -0.0669-0.0425-0.18279 0.0674-0.14665 0.13257-0.0328 0.0395 0.15111 0.0637 0.23179 5e-3 0.10421-0.0255 0.24237 0.0775 0.30889 0.11248 0.0651 0.26189-0.021 0.25621-0.15305 5e-3 -0.12964 3e-3 -0.2599-3e-3 -0.38948 0.0582 9e-5 0.11164-0.01 0.0845 0.0652-4e-3 0.0892-4e-3 0.17851-4e-3 0.26778z"/>
   <path d="m167.06 216.01c-0.0154-0.12963-0.25059-0.0462-0.11605 0.0355 0.10401 0.0172 0.21184 0.11607 0.14777 0.22557-0.0522 0.0991-0.18921 0.095-0.2739 0.0436 3e-3 -0.0622 0.0274-0.11405 0.0678-0.0336 0.0764 0.0947 0.2186-0.0529 0.0797-0.0901-0.10618-0.0137-0.19418-0.13144-0.12269-0.22836 0.0472-0.0839 0.22518-0.0847 0.24799-0.01-0.0151 0.0153 9.9e-4 0.0671-0.0306 0.0572z"/>
   <path d="m167.43 216.08c0.0325-0.0922-0.0896-0.21598-0.13195-0.0815-0.0327 0.0695 9.3e-4 0.0948 0.0668 0.0815h0.0652zm-0.0519 0.26765c-0.12889 0.012-0.23648-0.1083-0.22019-0.23444-8e-3 -0.13344 0.12262-0.24551 0.25355-0.21302 0.10925 0.0155 0.16012 0.13561 0.1477 0.23492-0.09-0.0124-0.18122-6e-3 -0.27181-8e-3 -9e-3 0.0973 0.0773 0.19176 0.17797 0.1558 0.0544-0.0293 0.0993-0.0393 0.0553 0.0271-0.0406 0.0264-0.0935 0.0373-0.1425 0.0375z"/>
  </g>
  <g transform="translate(-1.0776 8.1945)">
   <rect transform="rotate(90)" x="172.98" y="-158.24" width="39.696" height="6.9977" fill-rule="evenodd"/>
   <g transform="matrix(0 -.96021 .95661 0 -50.201 352.65)">
    <path d="m146.09 217.75h8.4v-7.0242h-8.4v7.0242z" fill="#3a3a3a"/>
    <g transform="matrix(.0080517 0 0 .0080487 133.48 246.67)">
     <path d="m2609.9-3593.3v-872.71h-1043.3v872.71h1043.3z" fill="none" stroke="#000" stroke-linecap="square" stroke-width=".67568"/>
    </g>
    <path d="m146.86 212.5h1.7532l-3e-3 -1.0712 0.63806-5.7e-4v-0.40106h2.0566l-4.9e-4 0.40211h0.66414v1.0712h1.7452v4.6119l-6.8535 0.015z" fill="#1a1a1a"/>
    <g fill="#ffac00">
     <path d="m148.44 217.12h0.21886v-1.3473h-0.21886v1.3473z"/>
     <path d="m148.93 217.12h0.21886v-1.3473h-0.21886v1.3473z"/>
     <path d="m149.43 217.12h0.2188v-1.3473h-0.2188v1.3473z"/>
     <path d="m149.94 217.12h0.21887v-1.3473h-0.21887v1.3473z"/>
     <path d="m150.43 217.12h0.21886v-1.3473h-0.21886v1.3473z"/>
     <path d="m150.93 217.12h0.2188v-1.3473h-0.2188v1.3473z"/>
     <path d="m151.45 217.12h0.21933v-1.3473h-0.21933v1.3473z"/>
     <path d="m151.94 217.12h0.2188v-1.3473h-0.2188v1.3473z"/>
    </g>
    <g fill="#ebebeb">
     <path d="m148.88 211.4v-0.67597l-2.7924 9.6e-4 2e-3 6.9848 0.77137-0.62711-4.8e-4 -4.8021 1.5788-7e-3v-0.87506z"/>
     <path d="m146.89 217.13-0.76557 0.62244 8.3332 1e-3 -0.78248-0.63628"/>
     <path d="m151.68 211.4v-0.67597l2.8056 9.6e-4 -2e-3 6.9848-0.77145-0.63081 5.6e-4 -4.7984-1.5906-7e-3v-0.87506z"/>
    </g>
   </g>
   <g transform="matrix(0 -.96021 .95661 0 -50.201 344.84)">
    <path d="m146.09 217.75h8.4v-7.0242h-8.4v7.0242z" fill="#3a3a3a"/>
    <g transform="matrix(.0080517 0 0 .0080487 133.48 246.67)">
     <path d="m2609.9-3593.3v-872.71h-1043.3v872.71h1043.3z" fill="none" stroke="#000" stroke-linecap="square" stroke-width=".67568"/>
    </g>
    <path d="m146.86 212.5h1.7532l-3e-3 -1.0712 0.63806-5.7e-4v-0.40106h2.0566l-4.9e-4 0.40211h0.66414v1.0712h1.7452v4.6119l-6.8535 0.015z" fill="#1a1a1a"/>
    <g fill="#ffac00">
     <path d="m148.44 217.12h0.21886v-1.3473h-0.21886v1.3473z"/>
     <path d="m148.93 217.12h0.21886v-1.3473h-0.21886v1.3473z"/>
     <path d="m149.43 217.12h0.2188v-1.3473h-0.2188v1.3473z"/>
     <path d="m149.94 217.12h0.21887v-1.3473h-0.21887v1.3473z"/>
     <path d="m150.43 217.12h0.21886v-1.3473h-0.21886v1.3473z"/>
     <path d="m150.93 217.12h0.2188v-1.3473h-0.2188v1.3473z"/>
     <path d="m151.45 217.12h0.21933v-1.3473h-0.21933v1.3473z"/>
     <path d="m151.94 217.12h0.2188v-1.3473h-0.2188v1.3473z"/>
    </g>
    <g fill="#ebebeb">
     <path d="m148.88 211.4v-0.67597l-2.7924 9.6e-4 2e-3 6.9848 0.77137-0.62711-4.8e-4 -4.8021 1.5788-7e-3v-0.87506z"/>
     <path d="m146.89 217.13-0.76557 0.62244 8.3332 1e-3 -0.78248-0.63628"/>
     <path d="m151.68 211.4v-0.67597l2.8056 9.6e-4 -2e-3 6.9848-0.77145-0.63081 5.6e-4 -4.7984-1.5906-7e-3v-0.87506z"/>
    </g>
   </g>
   <g transform="matrix(0 -.96021 .95661 0 -50.201 337.03)">
    <path d="m146.09 217.75h8.4v-7.0242h-8.4v7.0242z" fill="#3a3a3a"/>
    <g transform="matrix(.0080517 0 0 .0080487 133.48 246.67)">
     <path d="m2609.9-3593.3v-872.71h-1043.3v872.71h1043.3z" fill="none" stroke="#000" stroke-linecap="square" stroke-width=".67568"/>
    </g>
    <path d="m146.86 212.5h1.7532l-3e-3 -1.0712 0.63806-5.7e-4v-0.40106h2.0566l-4.9e-4 0.40211h0.66414v1.0712h1.7452v4.6119l-6.8535 0.015z" fill="#1a1a1a"/>
    <g fill="#ffac00">
     <path d="m148.44 217.12h0.21886v-1.3473h-0.21886v1.3473z"/>
     <path d="m148.93 217.12h0.21886v-1.3473h-0.21886v1.3473z"/>
     <path d="m149.43 217.12h0.2188v-1.3473h-0.2188v1.3473z"/>
     <path d="m149.94 217.12h0.21887v-1.3473h-0.21887v1.3473z"/>
     <path d="m150.43 217.12h0.21886v-1.3473h-0.21886v1.3473z"/>
     <path d="m150.93 217.12h0.2188v-1.3473h-0.2188v1.3473z"/>
     <path d="m151.45 217.12h0.21933v-1.3473h-0.21933v1.3473z"/>
     <path d="m151.94 217.12h0.2188v-1.3473h-0.2188v1.3473z"/>
    </g>
    <g fill="#ebebeb">
     <path d="m148.88 211.4v-0.67597l-2.7924 9.6e-4 2e-3 6.9848 0.77137-0.62711-4.8e-4 -4.8021 1.5788-7e-3v-0.87506z"/>
     <path d="m146.89 217.13-0.76557 0.62244 8.3332 1e-3 -0.78248-0.63628"/>
     <path d="m151.68 211.4v-0.67597l2.8056 9.6e-4 -2e-3 6.9848-0.77145-0.63081 5.6e-4 -4.7984-1.5906-7e-3v-0.87506z"/>
    </g>
   </g>
   <g transform="matrix(0 -.96021 .95661 0 -50.201 329.22)">
    <path d="m146.09 217.75h8.4v-7.0242h-8.4v7.0242z" fill="#3a3a3a"/>
    <g transform="matrix(.0080517 0 0 .0080487 133.48 246.67)">
     <path d="m2609.9-3593.3v-872.71h-1043.3v872.71h1043.3z" fill="none" stroke="#000" stroke-linecap="square" stroke-width=".67568"/>
    </g>
    <path d="m146.86 212.5h1.7532l-3e-3 -1.0712 0.63806-5.7e-4v-0.40106h2.0566l-4.9e-4 0.40211h0.66414v1.0712h1.7452v4.6119l-6.8535 0.015z" fill="#1a1a1a"/>
    <g fill="#ffac00">
     <path d="m148.44 217.12h0.21886v-1.3473h-0.21886v1.3473z"/>
     <path d="m148.93 217.12h0.21886v-1.3473h-0.21886v1.3473z"/>
     <path d="m149.43 217.12h0.2188v-1.3473h-0.2188v1.3473z"/>
     <path d="m149.94 217.12h0.21887v-1.3473h-0.21887v1.3473z"/>
     <path d="m150.43 217.12h0.21886v-1.3473h-0.21886v1.3473z"/>
     <path d="m150.93 217.12h0.2188v-1.3473h-0.2188v1.3473z"/>
     <path d="m151.45 217.12h0.21933v-1.3473h-0.21933v1.3473z"/>
     <path d="m151.94 217.12h0.2188v-1.3473h-0.2188v1.3473z"/>
    </g>
    <g fill="#ebebeb">
     <path d="m148.88 211.4v-0.67597l-2.7924 9.6e-4 2e-3 6.9848 0.77137-0.62711-4.8e-4 -4.8021 1.5788-7e-3v-0.87506z"/>
     <path d="m146.89 217.13-0.76557 0.62244 8.3332 1e-3 -0.78248-0.63628"/>
     <path d="m151.68 211.4v-0.67597l2.8056 9.6e-4 -2e-3 6.9848-0.77145-0.63081 5.6e-4 -4.7984-1.5906-7e-3v-0.87506z"/>
    </g>
   </g>
   <g transform="matrix(0 -.96021 .95661 0 -50.201 321.41)">
    <path d="m146.09 217.75h8.4v-7.0242h-8.4v7.0242z" fill="#3a3a3a"/>
    <g transform="matrix(.0080517 0 0 .0080487 133.48 246.67)">
     <path d="m2609.9-3593.3v-872.71h-1043.3v872.71h1043.3z" fill="none" stroke="#000" stroke-linecap="square" stroke-width=".67568"/>
    </g>
    <path d="m146.86 212.5h1.7532l-3e-3 -1.0712 0.63806-5.7e-4v-0.40106h2.0566l-4.9e-4 0.40211h0.66414v1.0712h1.7452v4.6119l-6.8535 0.015z" fill="#1a1a1a"/>
    <g fill="#ffac00">
     <path d="m148.44 217.12h0.21886v-1.3473h-0.21886v1.3473z"/>
     <path d="m148.93 217.12h0.21886v-1.3473h-0.21886v1.3473z"/>
     <path d="m149.43 217.12h0.2188v-1.3473h-0.2188v1.3473z"/>
     <path d="m149.94 217.12h0.21887v-1.3473h-0.21887v1.3473z"/>
     <path d="m150.43 217.12h0.21886v-1.3473h-0.21886v1.3473z"/>
     <path d="m150.93 217.12h0.2188v-1.3473h-0.2188v1.3473z"/>
     <path d="m151.45 217.12h0.21933v-1.3473h-0.21933v1.3473z"/>
     <path d="m151.94 217.12h0.2188v-1.3473h-0.2188v1.3473z"/>
    </g>
    <g fill="#ebebeb">
     <path d="m148.88 211.4v-0.67597l-2.7924 9.6e-4 2e-3 6.9848 0.77137-0.62711-4.8e-4 -4.8021 1.5788-7e-3v-0.87506z"/>
     <path d="m146.89 217.13-0.76557 0.62244 8.3332 1e-3 -0.78248-0.63628"/>
     <path d="m151.68 211.4v-0.67597l2.8056 9.6e-4 -2e-3 6.9848-0.77145-0.63081 5.6e-4 -4.7984-1.5906-7e-3v-0.87506z"/>
    </g>
   </g>
  </g>
  <g fill-rule="evenodd">
   <ellipse cx="148.76" cy="215.07" rx=".41472" ry=".41472" fill="#008000"/>
   <g transform="translate(-19.456 3.4925)">
    <rect x="167.74" y="214.4" width=".96974" height=".96974" fill="#fc0" stroke="#fc0" stroke-width=".046259"/>
    <ellipse cx="168.22" cy="214.88" rx=".41472" ry=".41472" fill="#f60"/>
   </g>
  </g>
  <g transform="translate(0 -8.0369)" fill-rule="evenodd">
   <ellipse cx="148.76" cy="215.07" rx=".41472" ry=".41472" fill="#008000"/>
   <g transform="translate(-19.456 3.4925)">
    <rect x="167.74" y="214.4" width=".96974" height=".96974" fill="#fc0" stroke="#fc0" stroke-width=".046259"/>
    <ellipse cx="168.22" cy="214.88" rx=".41472" ry=".41472" fill="#f60"/>
   </g>
  </g>
  <g transform="translate(0 -15.848)" fill-rule="evenodd">
   <ellipse cx="148.76" cy="215.07" rx=".41472" ry=".41472" fill="#008000"/>
   <g transform="translate(-19.456 3.4925)">
    <rect x="167.74" y="214.4" width=".96974" height=".96974" fill="#fc0" stroke="#fc0" stroke-width=".046259"/>
    <ellipse cx="168.22" cy="214.88" rx=".41472" ry=".41472" fill="#f60"/>
   </g>
  </g>
  <g transform="translate(0 -23.66)" fill-rule="evenodd">
   <ellipse cx="148.76" cy="215.07" rx=".41472" ry=".41472" fill="#008000"/>
   <g transform="translate(-19.456 3.4925)">
    <rect x="167.74" y="214.4" width=".96974" height=".96974" fill="#fc0" stroke="#fc0" stroke-width=".046259"/>
    <ellipse cx="168.22" cy="214.88" rx=".41472" ry=".41472" fill="#f60"/>
   </g>
  </g>
  <ellipse cx="148.76" cy="183.75" rx=".41472" ry=".41472" fill="#008000" fill-rule="evenodd"/>
  <g transform="translate(-17.756 -21.066)" fill="#fff">
   <path d="m165.15 206.15c9e-3 -0.0969 7e-3 -0.19444 8e-3 -0.29167-5e-4 -0.10587 9.4e-4 -0.21194-6e-3 -0.31762-9e-3 -0.0294 0.0338-8e-3 0.0509-0.0137 0.031 5.2e-4 0.062-1.6e-4 0.093-2e-3 -0.01 0.0772-7e-3 0.15532-8e-3 0.23298-1e-5 0.10911 0 0.21821 0 0.32732 0.0681 1e-3 0.13662-2.7e-4 0.20439-8e-3 9e-3 7e-3 -2e-3 0.039 3e-3 0.0557 0.0107 0.0316-0.0333 0.01-0.0524 0.0138-0.0973-4e-3 -0.1953-7e-3 -0.29235 3e-3z"/>
   <path d="m165.67 206.04c1e-3 0.0369 2e-3 0.0739 6e-3 0.11067-0.024-6e-3 -0.0632 5e-3 -0.0777-5e-3 0.01-0.11289 6e-3 -0.2264 7e-3 -0.3396-1e-3 -0.0916 1e-3 -0.18358-8e-3 -0.27489 0.0305 9e-3 0.0724-0.011 0.095 0.01 0.11657 0.14609 0.24682 0.2803 0.37409 0.41694 2.6e-4 -0.13164 2e-3 -0.2634-4e-3 -0.3949-9.2e-4 -0.0167-0.01-0.0399 0.0155-0.0306 0.0209 7e-3 0.0706-0.0174 0.058 0.0193-8e-3 0.13149-6e-3 0.26335-6e-3 0.39501 6.2e-4 0.0681 2e-3 0.13618 4e-3 0.20424-0.029-0.0105-0.0695 0.0121-0.0894-0.0123-0.12037-0.14441-0.24751-0.28295-0.37642-0.41973-6.1e-4 0.10697-7e-4 0.21394 1e-3 0.3209z"/>
   <path d="m166.43 206.04c1e-3 0.0369 2e-3 0.0739 6e-3 0.11067-0.0484-3e-3 -0.097-3e-3 -0.14539 0 0.0101-0.12426 7e-3 -0.24913 8e-3 -0.3737-8.3e-4 -0.082-2.8e-4 -0.16416-8e-3 -0.24587 0.0484 3e-3 0.097 3e-3 0.14539 0-8e-3 0.0937-8e-3 0.18798-7e-3 0.282 0.0278-0.027 0.0527-0.0594 0.0784-0.0892 0.0493-0.0612 0.10116-0.12073 0.14281-0.18765 0.0173-0.0106 0.0462 3.3e-4 0.0682-3e-3 0.016 3e-3 0.0678-0.0113 0.0347 0.0118-0.0759 0.0798-0.14847 0.16261-0.2218 0.24473 0.0788 0.1225 0.1609 0.24289 0.24588 0.36118-0.0588-3e-3 -0.11766-3e-3 -0.17642 0-0.0416-0.0827-0.0949-0.15866-0.14394-0.23693-0.01-0.01-0.0314-0.0612-0.0276-0.0249-5.6e-4 0.0504-2.1e-4 0.10078 1e-3 0.15115z"/>
   <path d="m167.03 205.47c-0.0677 0.22839-0.13122 0.45811-0.188 0.68949-0.019-7e-3 -0.0536 3e-3 -0.0629-4e-3 0.0668-0.20071 0.1233-0.40485 0.17103-0.61091 8e-3 -0.0228 7e-3 -0.0594 0.0206-0.0737 0.0197 2e-3 0.0397 2e-3 0.0593-6.3e-4z"/>
   <path d="m165.42 206.92c-9e-3 0.0225-0.0176 0.0451-0.0264 0.0676 0.0531 5e-3 0.1067 5e-3 0.15975-9.3e-4 -0.0263-0.067-0.0524-0.13415-0.0792-0.20096-0.0185 0.0446-0.0365 0.0894-0.0542 0.13428zm-0.15281 0.20328c0.074-0.16802 0.14517-0.33741 0.20838-0.50982 0.023 0.01 0.0635-0.0123 0.0734 0.0119 0.0695 0.18535 0.14397 0.36881 0.22188 0.55076 5e-3 0.0181 0.0276 0.0473 0.023 0.0575-0.0517-3e-3 -0.10361-3e-3 -0.15529 3.3e-4 -0.0149-0.0612-0.0368-0.12018-0.0597-0.17874-0.07-7e-3 -0.14159-0.0127-0.21115 9.3e-4 -0.025 0.0573-0.0428 0.11726-0.0579 0.17781-0.0289-6e-3 -0.0748 2e-3 -0.0934-4e-3 0.0182-0.035 0.0344-0.0711 0.0508-0.10705z"/>
   <path d="m166.38 207.13c-0.0166 0.0266-6e-3 0.0725-0.0358 0.0863-0.0948 0.0405-0.20472 0.0397-0.30176 7e-3 -0.0938-0.0322-0.17397-0.11151-0.19277-0.21082-0.0206-0.10755 4e-3 -0.22878 0.0836-0.30761 0.068-0.071 0.16891-0.10049 0.26522-0.0979 0.0619 8.8e-4 0.12452 0.0111 0.1815 0.0361-0.01 0.0337-0.0174 0.0678-0.0231 0.10233-0.0255-3e-3 -0.0351-0.0428-0.0615-0.0523-0.0792-0.0533-0.19871-0.0321-0.25356 0.0467-0.0531 0.0728-0.0602 0.16868-0.0479 0.25537 0.0116 0.084 0.0682 0.16767 0.15418 0.18791 0.0752 0.019 0.15997-7e-5 0.21545-0.0556 4e-3 -9e-3 0.0112 9.9e-4 0.0165 2e-3z"/>
   <path d="m166.58 206.96v-0.28431c-0.0546 1e-3 -0.10933 2e-3 -0.16346 9e-3 0.0104-0.0215-9e-3 -0.061 9e-3 -0.0722 0.13555 0.011 0.27193 0.01 0.40765 3e-3 0.0181 1e-3 0.0491-0.0141 0.0372 0.0153 5.9e-4 0.0232 0.0105 0.066-0.0269 0.0507-0.0445-4e-3 -0.0891-5e-3 -0.13375-6e-3 1e-3 0.16934-3e-3 0.33879 4e-3 0.50804-4e-3 0.0162 0.013 0.0523-6e-3 0.0531-0.0451-3e-3 -0.0904-2e-3 -0.13546 5.8e-4 6e-3 -0.0923 7e-3 -0.18488 7e-3 -0.27737z"/>
  </g>
  <g>
   <g fill="#fff" stroke-width="1px">
    <path d="m159.06 220.64h0.3603v1.3972h-0.3603v-1.3972z"/>
    <path d="m160.73 220.68v0.29572q-0.1151-0.0515-0.22459-0.0777t-0.20682-0.0262q-0.12914 0-0.19091 0.0356-0.0618 0.0356-0.0618 0.11043 0 0.0562 0.0412 0.088 0.0421 0.0309 0.15161 0.0533l0.15347 0.0309q0.23302 0.0468 0.33128 0.14224 0.0983 0.0955 0.0983 0.27139 0 0.23115-0.13756 0.34439-0.13663 0.11229-0.41831 0.11229-0.13289 0-0.26671-0.0253t-0.26765-0.0749v-0.30414q0.13383 0.0711 0.25829 0.10762 0.1254 0.0356 0.24144 0.0356 0.11791 0 0.18061-0.0393t0.0627-0.1123q0-0.0655-0.043-0.10107-0.0421-0.0356-0.16939-0.0636l-0.13943-0.0309q-0.20963-0.0449-0.30695-0.14318-0.0964-0.0983-0.0964-0.26484 0-0.20869 0.13476-0.32099 0.13475-0.11229 0.38743-0.11229 0.1151 0 0.23676 0.0178 0.12165 0.0168 0.25173 0.0515z"/>
    <path d="m161 220.64h0.34532l0.24144 1.0154 0.23957-1.0154h0.34719l0.23957 1.0154 0.24145-1.0154h0.34251l-0.32941 1.3972h-0.41551l-0.25361-1.0622-0.2508 1.0622h-0.4155l-0.33222-1.3972z"/>
    <path d="m163.06 221.35h0.58769v0.27232h-0.58769v-0.27232z"/>
    <path d="m163.94 220.64h0.89558v0.26484h-0.60828v0.21618q0.0412-0.0112 0.0824-0.0169 0.0421-7e-3 0.087-7e-3 0.25548 0 0.39773 0.12821 0.14224 0.12727 0.14224 0.35561 0 0.22647-0.15535 0.35468-0.15441 0.1282-0.42954 0.1282-0.11885 0-0.23583-0.0234-0.11604-0.0225-0.23114-0.0692v-0.28356q0.11417 0.0655 0.21617 0.0983 0.10294 0.0328 0.19372 0.0328 0.13101 0 0.20588-0.0636 0.0758-0.0646 0.0758-0.17406 0-0.11043-0.0758-0.17406-0.0749-0.0636-0.20588-0.0636-0.0777 0-0.16564 0.0206-0.088 0.0196-0.18904 0.0618v-0.78609z"/>
    <path d="m165.93 221.34q0-0.26203-0.0496-0.36871-0.0487-0.10762-0.16471-0.10762-0.11604 0-0.16564 0.10762-0.0496 0.10668-0.0496 0.36871 0 0.26484 0.0496 0.37339 0.0496 0.10856 0.16564 0.10856 0.11511 0 0.16471-0.10856 0.0496-0.10855 0.0496-0.37339zm0.36029 3e-3q0 0.34719-0.14973 0.53622-0.14974 0.1881-0.42487 0.1881-0.27607 0-0.4258-0.1881-0.14973-0.18903-0.14973-0.53622 0-0.34813 0.14973-0.53623 0.14973-0.18903 0.4258-0.18903 0.27513 0 0.42487 0.18903 0.14973 0.1881 0.14973 0.53623z"/>
    <path d="m167.07 220.94-0.39491 0.58489h0.39491v-0.58489zm-0.0599-0.29666h0.40053v0.88155h0.19933v0.26109h-0.19933v0.25454h-0.34064v-0.25454h-0.61951v-0.30882l0.55962-0.83382z"/>
    <path d="m167.85 220.64h0.59799q0.26671 0 0.40896 0.11885 0.14318 0.11792 0.14318 0.3369 0 0.21992-0.14318 0.33877-0.14225 0.11791-0.40896 0.11791h-0.2377v0.48475h-0.36029v-1.3972zm0.36029 0.2611v0.39024h0.19933q0.10482 0 0.1619-0.0505 0.0571-0.0515 0.0571-0.14505 0-0.0936-0.0571-0.14412-0.0571-0.0505-0.1619-0.0505h-0.19933z"/>
    <path d="m170.21 220.68v0.29572q-0.11511-0.0515-0.2246-0.0777t-0.20682-0.0262q-0.12914 0-0.1909 0.0356-0.0618 0.0356-0.0618 0.11043 0 0.0562 0.0412 0.088 0.0421 0.0309 0.1516 0.0533l0.15348 0.0309q0.23302 0.0468 0.33128 0.14224 0.0983 0.0955 0.0983 0.27139 0 0.23115-0.13757 0.34439-0.13663 0.11229-0.41831 0.11229-0.13289 0-0.26671-0.0253t-0.26764-0.0749v-0.30414q0.13382 0.0711 0.25828 0.10762 0.1254 0.0356 0.24145 0.0356 0.11791 0 0.18061-0.0393t0.0627-0.1123q0-0.0655-0.043-0.10107-0.0421-0.0356-0.16938-0.0636l-0.13944-0.0309q-0.20962-0.0449-0.30695-0.14318-0.0964-0.0983-0.0964-0.26484 0-0.20869 0.13476-0.32099 0.13476-0.11229 0.38743-0.11229 0.11511 0 0.23676 0.0178 0.12166 0.0168 0.25174 0.0515z"/>
   </g>
   <ellipse cx="148.76" cy="174.21" rx=".41472" ry=".41472" fill="#008000" fill-rule="evenodd"/>
   <ellipse cx="148.76" cy="177.52" rx=".41472" ry=".41472" fill="#fc0" fill-rule="evenodd"/>
  </g>
  <g stroke-width="1px">
   <path d="m158.63 216.99h0.31818v-0.90307l-0.3266 0.0674v-0.24519l0.32473-0.0674h0.34251v1.1483h0.31818v0.24892h-0.977v-0.24892z" fill="#fff"/>
   <path d="m159.01 209.18h0.61483v0.26484h-1.0154v-0.26484l0.51003-0.45013q0.0683-0.0618 0.10107-0.12072 0.0327-0.059 0.0327-0.12259 0-0.0983-0.0664-0.15816-0.0655-0.0599-0.175-0.0599-0.0842 0-0.18436 0.0365-0.10013 0.0356-0.2143 0.10668v-0.30695q0.12166-0.0402 0.2405-0.0608 0.11885-0.0215 0.23302-0.0215 0.2508 0 0.38931 0.11043 0.13943 0.11042 0.13943 0.30788 0 0.11417-0.059 0.21337-0.059 0.0983-0.248 0.2639l-0.29852 0.26203z" fill="#fff"/>
   <path d="m159.36 200.86q0.14131 0.0365 0.21431 0.12727 0.0739 0.0898 0.0739 0.22928 0 0.20775-0.15909 0.31631-0.15909 0.10761-0.46417 0.10761-0.10762 0-0.21617-0.0178-0.10762-0.0168-0.21337-0.0515v-0.27793q0.10107 0.0505 0.20026 0.0767 0.10014 0.0253 0.19653 0.0253 0.14318 0 0.21898-0.0496 0.0767-0.0496 0.0767-0.14224 0-0.0955-0.0786-0.14412-0.0777-0.0496-0.23021-0.0496h-0.14412v-0.23208h0.1516q0.1357 0 0.20214-0.0421 0.0664-0.043 0.0664-0.13008 0-0.0805-0.0646-0.12447-0.0646-0.044-0.18248-0.044-0.087 0-0.17594 0.0197-0.0889 0.0196-0.17687 0.058v-0.2639q0.10668-0.0299 0.2115-0.0449 0.10481-0.015 0.20588-0.015 0.27232 0 0.40708 0.0898 0.13569 0.0889 0.13569 0.26858 0 0.12259-0.0646 0.2012-0.0646 0.0777-0.19091 0.10949z" fill="#fff"/>
   <path d="m159.16 192.7-0.39492 0.58488h0.39492v-0.58488zm-0.0599-0.29666h0.40053v0.88154h0.19933v0.2611h-0.19933v0.25454h-0.34064v-0.25454h-0.61951v-0.30882l0.55962-0.83382z" fill="#fff"/>
   <path d="m158.65 184.58h0.89559v0.26484h-0.60829v0.21617q0.0412-0.0112 0.0824-0.0168 0.0421-7e-3 0.087-7e-3 0.25548 0 0.39773 0.1282 0.14224 0.12727 0.14224 0.35561 0 0.22647-0.15534 0.35468-0.15441 0.12821-0.42954 0.12821-0.11885 0-0.23583-0.0234-0.11604-0.0225-0.23115-0.0692v-0.28355q0.11417 0.0655 0.21618 0.0983 0.10294 0.0327 0.19371 0.0327 0.13102 0 0.20588-0.0636 0.0758-0.0646 0.0758-0.17407 0-0.11042-0.0758-0.17406-0.0749-0.0636-0.20588-0.0636-0.0777 0-0.16564 0.0206-0.088 0.0197-0.18904 0.0618v-0.78609z" fill="#fff"/>
  </g>
 </g>
</svg>
